# Blender 4.1.0
# www.blender.org
mtllib Explosion20009.mtl
o Circle
v -0.024615 0.096888 -1.522372
v -0.024615 0.242742 -1.522372
v 0.122545 0.096888 -1.515142
v 0.122545 0.242742 -1.515142
v 0.268288 0.096888 -1.493523
v 0.268288 0.242742 -1.493523
v 0.411211 0.096888 -1.457723
v 0.411211 0.242742 -1.457723
v 0.549936 0.096888 -1.408086
v 0.549936 0.242742 -1.408086
v 0.683127 0.096888 -1.345092
v 0.683127 0.242742 -1.345092
v 0.809503 0.096888 -1.269345
v 0.809503 0.242742 -1.269345
v 0.927846 0.096888 -1.181576
v 0.927846 0.242742 -1.181576
v 1.037016 0.096888 -1.082630
v 1.037016 0.242742 -1.082630
v 1.135962 0.096888 -0.973460
v 1.135962 0.242742 -0.973460
v 1.223731 0.096888 -0.855117
v 1.223731 0.242742 -0.855117
v 1.299478 0.096888 -0.728741
v 1.299478 0.242742 -0.728741
v 1.362473 0.096888 -0.595549
v 1.362473 0.242742 -0.595549
v 1.412110 0.096888 -0.456824
v 1.412110 0.242742 -0.456824
v 1.447910 0.096888 -0.313902
v 1.447910 0.242742 -0.313902
v 1.469529 0.096888 -0.168159
v 1.469529 0.242742 -0.168159
v 1.476758 0.096888 -0.020998
v 1.476758 0.242742 -0.020998
v 1.469529 0.096888 0.126162
v 1.469529 0.242742 0.126162
v 1.447910 0.096888 0.271905
v 1.447910 0.242742 0.271905
v 1.412110 0.096888 0.414827
v 1.412110 0.242742 0.414827
v 1.362473 0.096888 0.553553
v 1.362473 0.242742 0.553553
v 1.299478 0.096888 0.686744
v 1.299478 0.242742 0.686744
v 1.223731 0.096888 0.813120
v 1.223731 0.242742 0.813120
v 1.135962 0.096888 0.931463
v 1.135962 0.242742 0.931463
v 1.037016 0.096888 1.040633
v 1.037016 0.242742 1.040633
v 0.927846 0.096888 1.139579
v 0.927846 0.242742 1.139579
v 0.809503 0.096888 1.227348
v 0.809503 0.242742 1.227348
v 0.683127 0.096888 1.303095
v 0.683127 0.242742 1.303095
v 0.549936 0.096888 1.366090
v 0.549936 0.242742 1.366090
v 0.411211 0.096888 1.415727
v 0.411211 0.242742 1.415727
v 0.268288 0.096888 1.451527
v 0.268288 0.242742 1.451527
v 0.122545 0.096888 1.473146
v 0.122545 0.242742 1.473146
v -0.024615 0.096888 1.480376
v -0.024615 0.242742 1.480376
v -0.171775 0.096888 1.473146
v -0.171775 0.242742 1.473146
v -0.317519 0.096888 1.451527
v -0.317519 0.242742 1.451527
v -0.460441 0.096888 1.415727
v -0.460441 0.242742 1.415727
v -0.599166 0.096888 1.366090
v -0.599166 0.242742 1.366090
v -0.732358 0.096888 1.303095
v -0.732358 0.242742 1.303095
v -0.858734 0.096888 1.227348
v -0.858734 0.242742 1.227348
v -0.977076 0.096888 1.139579
v -0.977076 0.242742 1.139579
v -1.086246 0.096888 1.040633
v -1.086246 0.242742 1.040633
v -1.185192 0.096888 0.931463
v -1.185192 0.242742 0.931463
v -1.272961 0.096888 0.813120
v -1.272961 0.242742 0.813120
v -1.348708 0.096888 0.686744
v -1.348708 0.242742 0.686744
v -1.411703 0.096888 0.553553
v -1.411703 0.242742 0.553553
v -1.461340 0.096888 0.414827
v -1.461340 0.242742 0.414827
v -1.497140 0.096888 0.271905
v -1.497140 0.242742 0.271905
v -1.518759 0.096888 0.126162
v -1.518759 0.242742 0.126162
v -1.525989 0.096888 -0.020998
v -1.525989 0.242742 -0.020998
v -1.518759 0.096888 -0.168159
v -1.518759 0.242742 -0.168159
v -1.497140 0.096888 -0.313902
v -1.497140 0.242742 -0.313902
v -1.461340 0.096888 -0.456824
v -1.461340 0.242742 -0.456824
v -1.411703 0.096888 -0.595549
v -1.411703 0.242742 -0.595549
v -1.348708 0.096888 -0.728741
v -1.348708 0.242742 -0.728741
v -1.272961 0.096888 -0.855117
v -1.272961 0.242742 -0.855117
v -1.185192 0.096888 -0.973460
v -1.185192 0.242742 -0.973460
v -1.086246 0.096888 -1.082630
v -1.086246 0.242742 -1.082630
v -0.977076 0.096888 -1.181576
v -0.977076 0.242742 -1.181576
v -0.858734 0.096888 -1.269345
v -0.858734 0.242742 -1.269345
v -0.732358 0.096888 -1.345092
v -0.732358 0.242742 -1.345092
v -0.599166 0.096888 -1.408086
v -0.599166 0.242742 -1.408086
v -0.460441 0.096888 -1.457723
v -0.460441 0.242742 -1.457723
v -0.317519 0.096888 -1.493523
v -0.317519 0.242742 -1.493523
v -0.171775 0.096888 -1.515142
v -0.171775 0.242742 -1.515142
vn 0.0491 -0.0000 -0.9988
vn 0.1467 -0.0000 -0.9892
vn 0.2430 -0.0000 -0.9700
vn 0.3369 -0.0000 -0.9415
vn 0.4276 -0.0000 -0.9040
vn 0.5141 -0.0000 -0.8577
vn 0.5957 -0.0000 -0.8032
vn 0.6716 -0.0000 -0.7410
vn 0.7410 -0.0000 -0.6716
vn 0.8032 -0.0000 -0.5957
vn 0.8577 -0.0000 -0.5141
vn 0.9040 -0.0000 -0.4276
vn 0.9415 -0.0000 -0.3369
vn 0.9700 -0.0000 -0.2430
vn 0.9892 -0.0000 -0.1467
vn 0.9988 -0.0000 -0.0491
vn 0.9988 -0.0000 0.0491
vn 0.9892 -0.0000 0.1467
vn 0.9700 -0.0000 0.2430
vn 0.9415 -0.0000 0.3369
vn 0.9040 -0.0000 0.4276
vn 0.8577 -0.0000 0.5141
vn 0.8032 -0.0000 0.5957
vn 0.7410 -0.0000 0.6716
vn 0.6716 -0.0000 0.7410
vn 0.5957 -0.0000 0.8032
vn 0.5141 -0.0000 0.8577
vn 0.4276 -0.0000 0.9040
vn 0.3369 -0.0000 0.9415
vn 0.2430 -0.0000 0.9700
vn 0.1467 -0.0000 0.9892
vn 0.0491 -0.0000 0.9988
vn -0.0491 -0.0000 0.9988
vn -0.1467 -0.0000 0.9892
vn -0.2430 -0.0000 0.9700
vn -0.3369 -0.0000 0.9415
vn -0.4276 -0.0000 0.9040
vn -0.5141 -0.0000 0.8577
vn -0.5957 -0.0000 0.8032
vn -0.6716 -0.0000 0.7410
vn -0.7410 -0.0000 0.6716
vn -0.8032 -0.0000 0.5957
vn -0.8577 -0.0000 0.5141
vn -0.9040 -0.0000 0.4276
vn -0.9415 -0.0000 0.3369
vn -0.9700 -0.0000 0.2430
vn -0.9892 -0.0000 0.1467
vn -0.9988 -0.0000 0.0491
vn -0.9988 -0.0000 -0.0491
vn -0.9892 -0.0000 -0.1467
vn -0.9700 -0.0000 -0.2430
vn -0.9415 -0.0000 -0.3369
vn -0.9040 -0.0000 -0.4276
vn -0.8577 -0.0000 -0.5141
vn -0.8032 -0.0000 -0.5957
vn -0.7410 -0.0000 -0.6716
vn -0.6716 -0.0000 -0.7410
vn -0.5957 -0.0000 -0.8032
vn -0.5141 -0.0000 -0.8577
vn -0.4276 -0.0000 -0.9040
vn -0.3369 -0.0000 -0.9415
vn -0.2430 -0.0000 -0.9700
vn -0.1467 -0.0000 -0.9892
vn -0.0491 -0.0000 -0.9988
vt 1.000000 0.500000
vt 1.000000 1.000000
vt 0.984375 1.000000
vt 0.984375 0.500000
vt 0.968750 1.000000
vt 0.968750 0.500000
vt 0.953125 1.000000
vt 0.953125 0.500000
vt 0.937500 1.000000
vt 0.937500 0.500000
vt 0.921875 1.000000
vt 0.921875 0.500000
vt 0.906250 1.000000
vt 0.906250 0.500000
vt 0.890625 1.000000
vt 0.890625 0.500000
vt 0.875000 1.000000
vt 0.875000 0.500000
vt 0.859375 1.000000
vt 0.859375 0.500000
vt 0.843750 1.000000
vt 0.843750 0.500000
vt 0.828125 1.000000
vt 0.828125 0.500000
vt 0.812500 1.000000
vt 0.812500 0.500000
vt 0.796875 1.000000
vt 0.796875 0.500000
vt 0.781250 1.000000
vt 0.781250 0.500000
vt 0.765625 1.000000
vt 0.765625 0.500000
vt 0.750000 1.000000
vt 0.750000 0.500000
vt 0.734375 1.000000
vt 0.734375 0.500000
vt 0.718750 1.000000
vt 0.718750 0.500000
vt 0.703125 1.000000
vt 0.703125 0.500000
vt 0.687500 1.000000
vt 0.687500 0.500000
vt 0.671875 1.000000
vt 0.671875 0.500000
vt 0.656250 1.000000
vt 0.656250 0.500000
vt 0.640625 1.000000
vt 0.640625 0.500000
vt 0.625000 1.000000
vt 0.625000 0.500000
vt 0.609375 1.000000
vt 0.609375 0.500000
vt 0.593750 1.000000
vt 0.593750 0.500000
vt 0.578125 1.000000
vt 0.578125 0.500000
vt 0.562500 1.000000
vt 0.562500 0.500000
vt 0.546875 1.000000
vt 0.546875 0.500000
vt 0.531250 1.000000
vt 0.531250 0.500000
vt 0.515625 1.000000
vt 0.515625 0.500000
vt 0.500000 1.000000
vt 0.500000 0.500000
vt 0.484375 1.000000
vt 0.484375 0.500000
vt 0.468750 1.000000
vt 0.468750 0.500000
vt 0.453125 1.000000
vt 0.453125 0.500000
vt 0.437500 1.000000
vt 0.437500 0.500000
vt 0.421875 1.000000
vt 0.421875 0.500000
vt 0.406250 1.000000
vt 0.406250 0.500000
vt 0.390625 1.000000
vt 0.390625 0.500000
vt 0.375000 1.000000
vt 0.375000 0.500000
vt 0.359375 1.000000
vt 0.359375 0.500000
vt 0.343750 1.000000
vt 0.343750 0.500000
vt 0.328125 1.000000
vt 0.328125 0.500000
vt 0.312500 1.000000
vt 0.312500 0.500000
vt 0.296875 1.000000
vt 0.296875 0.500000
vt 0.281250 1.000000
vt 0.281250 0.500000
vt 0.265625 1.000000
vt 0.265625 0.500000
vt 0.250000 1.000000
vt 0.250000 0.500000
vt 0.234375 1.000000
vt 0.234375 0.500000
vt 0.218750 1.000000
vt 0.218750 0.500000
vt 0.203125 1.000000
vt 0.203125 0.500000
vt 0.187500 1.000000
vt 0.187500 0.500000
vt 0.171875 1.000000
vt 0.171875 0.500000
vt 0.156250 1.000000
vt 0.156250 0.500000
vt 0.140625 1.000000
vt 0.140625 0.500000
vt 0.125000 1.000000
vt 0.125000 0.500000
vt 0.109375 1.000000
vt 0.109375 0.500000
vt 0.093750 1.000000
vt 0.093750 0.500000
vt 0.078125 1.000000
vt 0.078125 0.500000
vt 0.062500 1.000000
vt 0.062500 0.500000
vt 0.046875 1.000000
vt 0.046875 0.500000
vt 0.031250 1.000000
vt 0.031250 0.500000
vt 0.015625 1.000000
vt 0.015625 0.500000
vt 0.000000 1.000000
vt 0.000000 0.500000
s 0
g Circle_Material.001
usemtl Material.001
f 1/1/1 2/2/1 4/3/1 3/4/1
f 3/4/2 4/3/2 6/5/2 5/6/2
f 5/6/3 6/5/3 8/7/3 7/8/3
f 7/8/4 8/7/4 10/9/4 9/10/4
f 9/10/5 10/9/5 12/11/5 11/12/5
f 11/12/6 12/11/6 14/13/6 13/14/6
f 13/14/7 14/13/7 16/15/7 15/16/7
f 15/16/8 16/15/8 18/17/8 17/18/8
f 17/18/9 18/17/9 20/19/9 19/20/9
f 19/20/10 20/19/10 22/21/10 21/22/10
f 21/22/11 22/21/11 24/23/11 23/24/11
f 23/24/12 24/23/12 26/25/12 25/26/12
f 25/26/13 26/25/13 28/27/13 27/28/13
f 27/28/14 28/27/14 30/29/14 29/30/14
f 29/30/15 30/29/15 32/31/15 31/32/15
f 31/32/16 32/31/16 34/33/16 33/34/16
f 33/34/17 34/33/17 36/35/17 35/36/17
f 35/36/18 36/35/18 38/37/18 37/38/18
f 37/38/19 38/37/19 40/39/19 39/40/19
f 39/40/20 40/39/20 42/41/20 41/42/20
f 41/42/21 42/41/21 44/43/21 43/44/21
f 43/44/22 44/43/22 46/45/22 45/46/22
f 45/46/23 46/45/23 48/47/23 47/48/23
f 47/48/24 48/47/24 50/49/24 49/50/24
f 49/50/25 50/49/25 52/51/25 51/52/25
f 51/52/26 52/51/26 54/53/26 53/54/26
f 53/54/27 54/53/27 56/55/27 55/56/27
f 55/56/28 56/55/28 58/57/28 57/58/28
f 57/58/29 58/57/29 60/59/29 59/60/29
f 59/60/30 60/59/30 62/61/30 61/62/30
f 61/62/31 62/61/31 64/63/31 63/64/31
f 63/64/32 64/63/32 66/65/32 65/66/32
f 65/66/33 66/65/33 68/67/33 67/68/33
f 67/68/34 68/67/34 70/69/34 69/70/34
f 69/70/35 70/69/35 72/71/35 71/72/35
f 71/72/36 72/71/36 74/73/36 73/74/36
f 73/74/37 74/73/37 76/75/37 75/76/37
f 75/76/38 76/75/38 78/77/38 77/78/38
f 77/78/39 78/77/39 80/79/39 79/80/39
f 79/80/40 80/79/40 82/81/40 81/82/40
f 81/82/41 82/81/41 84/83/41 83/84/41
f 83/84/42 84/83/42 86/85/42 85/86/42
f 85/86/43 86/85/43 88/87/43 87/88/43
f 87/88/44 88/87/44 90/89/44 89/90/44
f 89/90/45 90/89/45 92/91/45 91/92/45
f 91/92/46 92/91/46 94/93/46 93/94/46
f 93/94/47 94/93/47 96/95/47 95/96/47
f 95/96/48 96/95/48 98/97/48 97/98/48
f 97/98/49 98/97/49 100/99/49 99/100/49
f 99/100/50 100/99/50 102/101/50 101/102/50
f 101/102/51 102/101/51 104/103/51 103/104/51
f 103/104/52 104/103/52 106/105/52 105/106/52
f 105/106/53 106/105/53 108/107/53 107/108/53
f 107/108/54 108/107/54 110/109/54 109/110/54
f 109/110/55 110/109/55 112/111/55 111/112/55
f 111/112/56 112/111/56 114/113/56 113/114/56
f 113/114/57 114/113/57 116/115/57 115/116/57
f 115/116/58 116/115/58 118/117/58 117/118/58
f 117/118/59 118/117/59 120/119/59 119/120/59
f 119/120/60 120/119/60 122/121/60 121/122/60
f 121/122/61 122/121/61 124/123/61 123/124/61
f 123/124/62 124/123/62 126/125/62 125/126/62
f 125/126/63 126/125/63 128/127/63 127/128/63
f 127/128/64 128/127/64 2/129/64 1/130/64
o Cube
v 3.414654 0.184516 2.679163
v 2.917061 0.573719 1.752472
v 3.061182 0.963858 2.318954
v 2.493053 0.763046 2.179020
v 3.465161 0.284385 2.011579
v 3.040045 0.654359 2.844727
v 2.515867 0.646910 2.702799
v 2.606671 0.041367 1.946792
v 2.907742 -0.223064 2.393564
v 2.507235 0.016583 2.580904
vn -0.1631 0.8314 -0.5311
vn -0.3723 0.9025 0.2163
vn 0.2574 -0.7455 -0.6147
vn 0.1888 -0.4320 -0.8819
vn -0.1238 -0.2892 0.9492
vn 0.5781 0.5959 -0.5575
vn 0.8473 0.4847 0.2171
vn -0.1468 0.8550 0.4974
vn 0.6472 -0.7596 -0.0647
vn 0.0224 -0.5922 0.8055
vn -0.9956 -0.0582 -0.0730
vn -0.5501 -0.8266 -0.1186
vn -0.6745 0.1278 -0.7272
vt 0.550384 0.206938
vt 0.375000 0.305791
vt 0.375000 0.049496
vt 0.180791 0.500000
vt 0.330928 0.574320
vt 0.125000 0.700504
vt 0.804283 0.500000
vt 0.842867 0.681766
vt 0.658516 0.626313
vt 0.875000 0.500000
vt 0.501754 0.540833
vt 0.565165 0.799791
vt 0.325310 0.750000
vt 0.604031 0.069198
vt 0.375000 1.000000
vt 0.375000 0.799690
vt 0.578028 1.000000
vt 0.615335 0.592735
vt 0.589707 0.775249
vt 0.581909 0.353207
s 0
g Cube_Material
usemtl Material
f 130/131/65 132/132/65 131/133/65
f 132/134/66 135/135/66 131/136/66
f 136/137/67 133/138/67 137/139/67
f 133/138/68 136/137/68 130/140/68
f 138/141/69 129/142/69 134/143/69 135/135/69
f 131/133/70 133/144/70 130/131/70
f 131/145/71 134/146/71 129/142/71 133/147/71
f 135/135/72 134/143/72 131/136/72
f 137/148/73 133/138/73 129/149/73
f 129/142/74 138/141/74 137/148/74
f 138/141/75 135/135/75 132/132/75 136/150/75
f 138/141/76 136/150/76 137/148/76
f 132/132/77 130/131/77 136/150/77
o Cube
v 2.457649 0.639757 -0.774099
v 3.330838 0.334053 -0.699468
v 3.172755 0.891459 -0.648818
v 3.403472 0.700343 -1.063954
v 2.813736 0.307716 -0.497033
v 2.772489 1.017364 -0.930202
v 3.077487 0.937796 -1.250610
v 3.118825 0.139996 -1.150397
v 2.633003 0.241468 -1.169381
v 2.837785 0.497224 -1.426064
vn 0.8922 0.2171 0.3959
vn 0.6010 0.7986 -0.0336
vn -0.2078 -0.9664 0.1511
vn 0.1726 -0.9316 0.3198
vn -0.6690 0.4671 -0.5781
vn 0.3637 0.0185 0.9313
vn -0.3129 0.4815 0.8187
vn 0.2811 0.9592 0.0294
vn -0.7594 -0.5952 0.2628
vn -0.8398 0.1484 -0.5221
vn 0.5566 -0.0751 -0.8274
vn -0.1087 -0.6595 -0.7438
vn 0.8804 -0.4106 -0.2372
vt 0.550384 0.206938
vt 0.375000 0.305791
vt 0.375000 0.049496
vt 0.180791 0.500000
vt 0.330928 0.574320
vt 0.125000 0.700504
vt 0.804283 0.500000
vt 0.842867 0.681766
vt 0.658516 0.626313
vt 0.875000 0.500000
vt 0.501754 0.540833
vt 0.565165 0.799791
vt 0.325310 0.750000
vt 0.604031 0.069198
vt 0.375000 1.000000
vt 0.375000 0.799690
vt 0.578028 1.000000
vt 0.615335 0.592735
vt 0.589707 0.775249
vt 0.581909 0.353207
s 0
g Cube_Material
usemtl Material
f 140/151/78 142/152/78 141/153/78
f 142/154/79 145/155/79 141/156/79
f 146/157/80 143/158/80 147/159/80
f 143/158/81 146/157/81 140/160/81
f 148/161/82 139/162/82 144/163/82 145/155/82
f 141/153/83 143/164/83 140/151/83
f 141/165/84 144/166/84 139/162/84 143/167/84
f 145/155/85 144/163/85 141/156/85
f 147/168/86 143/158/86 139/169/86
f 139/162/87 148/161/87 147/168/87
f 148/161/88 145/155/88 142/152/88 146/170/88
f 148/161/89 146/170/89 147/168/89
f 142/152/90 140/151/90 146/170/90
o Cube
v 1.156054 0.625804 2.660695
v 0.239124 0.006331 3.487165
v 1.091084 0.033922 3.636819
v 0.729368 -0.586836 3.383503
v 0.478467 0.716887 3.137613
v 1.510223 0.042908 3.012786
v 1.253173 -0.573676 2.980076
v 0.124870 -0.248604 2.742105
v 0.538951 0.143005 2.271578
v 0.794824 -0.414699 2.355711
vn -0.1561 -0.2938 0.9430
vn 0.5130 -0.5633 0.6477
vn -0.8226 0.4458 -0.3529
vn -0.9426 0.3326 0.0307
vn 0.7135 -0.1258 -0.6893
vn -0.1668 0.4799 0.8613
vn 0.5224 0.7132 0.4673
vn 0.7792 -0.3524 0.5183
vn -0.2766 0.7921 -0.5442
vn 0.4806 0.0889 -0.8724
vn -0.2383 -0.9553 -0.1752
vn -0.5315 -0.3595 -0.7670
vn -0.7003 -0.6356 0.3249
vt 0.550384 0.206938
vt 0.375000 0.305791
vt 0.375000 0.049496
vt 0.180791 0.500000
vt 0.330928 0.574320
vt 0.125000 0.700504
vt 0.804283 0.500000
vt 0.842867 0.681766
vt 0.658516 0.626313
vt 0.875000 0.500000
vt 0.501754 0.540833
vt 0.565165 0.799791
vt 0.325310 0.750000
vt 0.604031 0.069198
vt 0.375000 1.000000
vt 0.375000 0.799690
vt 0.578028 1.000000
vt 0.615335 0.592735
vt 0.589707 0.775249
vt 0.581909 0.353207
s 0
g Cube_Material
usemtl Material
f 150/171/91 152/172/91 151/173/91
f 152/174/92 155/175/92 151/176/92
f 156/177/93 153/178/93 157/179/93
f 153/178/94 156/177/94 150/180/94
f 158/181/95 149/182/95 154/183/95 155/175/95
f 151/173/96 153/184/96 150/171/96
f 151/185/97 154/186/97 149/182/97 153/187/97
f 155/175/98 154/183/98 151/176/98
f 157/188/99 153/178/99 149/189/99
f 149/182/100 158/181/100 157/188/100
f 158/181/101 155/175/101 152/172/101 156/190/101
f 158/181/102 156/190/102 157/188/102
f 152/172/103 150/171/103 156/190/103
o Cube
v -2.582721 0.259079 2.279063
v -1.994736 0.352396 1.987833
v -2.345447 0.262567 1.784359
v -2.079029 0.019355 1.843562
v -2.279294 0.511553 2.214289
v -2.574597 0.056308 1.971679
v -2.334738 -0.151177 1.922479
v -1.952633 0.099815 2.271075
v -2.250662 0.078987 2.462181
v -2.228982 -0.159935 2.286759
vn 0.4326 0.2640 -0.8621
vn -0.0799 -0.3175 -0.9449
vn 0.4545 0.4653 0.7595
vn 0.6769 0.5965 0.4313
vn -0.6844 -0.6679 0.2924
vn 0.0752 0.8578 -0.5084
vn -0.7009 0.6314 -0.3317
vn -0.4307 -0.2958 -0.8526
vn -0.2131 0.4751 0.8537
vn -0.6104 -0.5040 0.6111
vn 0.6133 -0.7823 -0.1090
vn 0.4960 -0.4842 0.7208
vn 0.9572 -0.1303 -0.2585
vt 0.550384 0.206938
vt 0.375000 0.305791
vt 0.375000 0.049496
vt 0.180791 0.500000
vt 0.330928 0.574320
vt 0.125000 0.700504
vt 0.804283 0.500000
vt 0.842867 0.681766
vt 0.658516 0.626313
vt 0.875000 0.500000
vt 0.501754 0.540833
vt 0.565165 0.799791
vt 0.325310 0.750000
vt 0.604031 0.069198
vt 0.375000 1.000000
vt 0.375000 0.799690
vt 0.578028 1.000000
vt 0.615335 0.592735
vt 0.589707 0.775249
vt 0.581909 0.353207
s 0
g Cube_Material
usemtl Material
f 160/191/104 162/192/104 161/193/104
f 162/194/105 165/195/105 161/196/105
f 166/197/106 163/198/106 167/199/106
f 163/198/107 166/197/107 160/200/107
f 168/201/108 159/202/108 164/203/108 165/195/108
f 161/193/109 163/204/109 160/191/109
f 161/205/110 164/206/110 159/202/110 163/207/110
f 165/195/111 164/203/111 161/196/111
f 167/208/112 163/198/112 159/209/112
f 159/202/113 168/201/113 167/208/113
f 168/201/114 165/195/114 162/192/114 166/210/114
f 168/201/115 166/210/115 167/208/115
f 162/192/116 160/191/116 166/210/116
o Cube
v 2.512886 0.482151 0.310797
v 1.749192 0.718067 0.367193
v 2.117357 0.874907 0.670441
v 1.811631 0.579489 0.791267
v 2.141163 0.699700 0.090841
v 2.429769 0.578066 0.737647
v 2.131053 0.410208 0.919734
v 1.761177 0.256843 0.351577
v 2.158633 0.121669 0.264353
v 2.089358 0.071376 0.613326
vn -0.5860 0.7408 0.3284
vn -0.1051 0.4677 0.8776
vn -0.2964 -0.2828 -0.9122
vn -0.5758 0.0127 -0.8175
vn 0.7203 -0.5780 0.3834
vn -0.1614 0.9428 -0.2916
vn 0.6316 0.7628 -0.1384
vn 0.2571 0.4627 0.8484
vn 0.3770 -0.2558 -0.8902
vn 0.7101 -0.7030 0.0397
vn -0.6313 -0.5400 0.5567
vn -0.3548 -0.9129 -0.2020
vn -0.9903 -0.0303 0.1359
vt 0.550384 0.206938
vt 0.375000 0.305791
vt 0.375000 0.049496
vt 0.180791 0.500000
vt 0.330928 0.574320
vt 0.125000 0.700504
vt 0.804283 0.500000
vt 0.842867 0.681766
vt 0.658516 0.626313
vt 0.875000 0.500000
vt 0.501754 0.540833
vt 0.565165 0.799791
vt 0.325310 0.750000
vt 0.604031 0.069198
vt 0.375000 1.000000
vt 0.375000 0.799690
vt 0.578028 1.000000
vt 0.615335 0.592735
vt 0.589707 0.775249
vt 0.581909 0.353207
s 0
g Cube_Material
usemtl Material
f 170/211/117 172/212/117 171/213/117
f 172/214/118 175/215/118 171/216/118
f 176/217/119 173/218/119 177/219/119
f 173/218/120 176/217/120 170/220/120
f 178/221/121 169/222/121 174/223/121 175/215/121
f 171/213/122 173/224/122 170/211/122
f 171/225/123 174/226/123 169/222/123 173/227/123
f 175/215/124 174/223/124 171/216/124
f 177/228/125 173/218/125 169/229/125
f 169/222/126 178/221/126 177/228/126
f 178/221/127 175/215/127 172/212/127 176/230/127
f 178/221/128 176/230/128 177/228/128
f 172/212/129 170/211/129 176/230/129
o Cube
v 2.407459 0.123929 -0.849235
v 1.729144 0.816518 -0.763284
v 1.668467 0.247344 -0.552898
v 1.424144 0.426433 -0.996066
v 2.275062 0.655525 -0.637321
v 1.923128 -0.116715 -0.841412
v 1.588572 0.016774 -1.145327
v 1.892036 0.789415 -1.299120
v 2.302353 0.472274 -1.346851
v 1.944423 0.269062 -1.491955
vn -0.7853 0.2866 0.5488
vn -0.8480 -0.4452 0.2876
vn 0.5882 0.7882 -0.1810
vn 0.2752 0.9607 0.0351
vn 0.2829 -0.8290 -0.4824
vn -0.1096 0.3549 0.9285
vn 0.2928 -0.3668 0.8830
vn -0.6079 -0.7088 0.3578
vn 0.9673 0.2520 -0.0279
vn 0.5698 -0.6118 -0.5486
vn -0.6668 0.1154 -0.7362
vn 0.1694 0.3574 -0.9184
vn -0.6881 0.6835 -0.2437
vt 0.550384 0.206938
vt 0.375000 0.305791
vt 0.375000 0.049496
vt 0.180791 0.500000
vt 0.330928 0.574320
vt 0.125000 0.700504
vt 0.804283 0.500000
vt 0.842867 0.681766
vt 0.658516 0.626313
vt 0.875000 0.500000
vt 0.501754 0.540833
vt 0.565165 0.799791
vt 0.325310 0.750000
vt 0.604031 0.069198
vt 0.375000 1.000000
vt 0.375000 0.799690
vt 0.578028 1.000000
vt 0.615335 0.592735
vt 0.589707 0.775249
vt 0.581909 0.353207
s 0
g Cube_Material
usemtl Material
f 180/231/130 182/232/130 181/233/130
f 182/234/131 185/235/131 181/236/131
f 186/237/132 183/238/132 187/239/132
f 183/238/133 186/237/133 180/240/133
f 188/241/134 179/242/134 184/243/134 185/235/134
f 181/233/135 183/244/135 180/231/135
f 181/245/136 184/246/136 179/242/136 183/247/136
f 185/235/137 184/243/137 181/236/137
f 187/248/138 183/238/138 179/249/138
f 179/242/139 188/241/139 187/248/139
f 188/241/140 185/235/140 182/232/140 186/250/140
f 188/241/141 186/250/141 187/248/141
f 182/232/142 180/231/142 186/250/142
o Cube
v -1.318895 -0.251624 1.008074
v -1.341057 0.137977 1.806736
v -1.772323 0.117627 1.454826
v -1.502748 0.520447 1.528676
v -1.264839 -0.315299 1.538027
v -1.645001 0.118913 0.988036
v -1.526817 0.516310 1.103776
v -0.932811 0.311045 1.550517
v -0.874370 0.064288 1.148091
v -1.028436 0.421913 1.062921
vn -0.6154 0.2765 0.7382
vn -0.8339 0.5504 0.0419
vn 0.8117 -0.4380 0.3864
vn 0.5984 -0.3317 0.7293
vn 0.0526 0.1375 -0.9891
vn -0.5350 -0.4956 0.6843
vn -0.6844 -0.7226 -0.0974
vn -0.9070 0.3415 -0.2465
vn 0.6043 -0.7814 -0.1555
vn 0.3467 -0.0734 -0.9351
vn 0.2740 0.9587 0.0762
vn 0.9223 0.3745 -0.0957
vn 0.2029 0.6305 0.7492
vt 0.550384 0.206938
vt 0.375000 0.305791
vt 0.375000 0.049496
vt 0.180791 0.500000
vt 0.330928 0.574320
vt 0.125000 0.700504
vt 0.804283 0.500000
vt 0.842867 0.681766
vt 0.658516 0.626313
vt 0.875000 0.500000
vt 0.501754 0.540833
vt 0.565165 0.799791
vt 0.325310 0.750000
vt 0.604031 0.069198
vt 0.375000 1.000000
vt 0.375000 0.799690
vt 0.578028 1.000000
vt 0.615335 0.592735
vt 0.589707 0.775249
vt 0.581909 0.353207
s 0
g Cube_Material
usemtl Material
f 190/251/143 192/252/143 191/253/143
f 192/254/144 195/255/144 191/256/144
f 196/257/145 193/258/145 197/259/145
f 193/258/146 196/257/146 190/260/146
f 198/261/147 189/262/147 194/263/147 195/255/147
f 191/253/148 193/264/148 190/251/148
f 191/265/149 194/266/149 189/262/149 193/267/149
f 195/255/150 194/263/150 191/256/150
f 197/268/151 193/258/151 189/269/151
f 189/262/152 198/261/152 197/268/152
f 198/261/153 195/255/153 192/252/153 196/270/153
f 198/261/154 196/270/154 197/268/154
f 192/252/155 190/251/155 196/270/155
o Cube
v -1.396984 0.064243 1.528085
v -0.711940 0.646905 1.941526
v -1.050371 0.229968 2.251860
v -1.141326 0.767827 2.274197
v -0.821929 0.225718 1.539048
v -1.544383 0.155656 2.050113
v -1.582114 0.604669 2.213531
v -1.065921 0.970649 1.633182
v -1.394019 0.665561 1.350680
v -1.612867 0.836017 1.697172
vn 0.6236 0.0731 0.7783
vn -0.1141 -0.0605 0.9916
vn 0.4778 0.2624 -0.8383
vn 0.7720 0.3221 -0.5480
vn -0.9771 -0.1670 -0.1323
vn 0.8361 -0.4771 0.2708
vn 0.1882 -0.9731 0.1327
vn -0.3091 -0.3481 0.8850
vn 0.0974 -0.2821 -0.9544
vn -0.8666 -0.1373 -0.4798
vn -0.2716 0.9045 0.3288
vn -0.2596 0.7915 -0.5533
vn 0.4758 0.8209 0.3157
vt 0.550384 0.206938
vt 0.375000 0.305791
vt 0.375000 0.049496
vt 0.180791 0.500000
vt 0.330928 0.574320
vt 0.125000 0.700504
vt 0.804283 0.500000
vt 0.842867 0.681766
vt 0.658516 0.626313
vt 0.875000 0.500000
vt 0.501754 0.540833
vt 0.565165 0.799791
vt 0.325310 0.750000
vt 0.604031 0.069198
vt 0.375000 1.000000
vt 0.375000 0.799690
vt 0.578028 1.000000
vt 0.615335 0.592735
vt 0.589707 0.775249
vt 0.581909 0.353207
s 0
g Cube_Material
usemtl Material
f 200/271/156 202/272/156 201/273/156
f 202/274/157 205/275/157 201/276/157
f 206/277/158 203/278/158 207/279/158
f 203/278/159 206/277/159 200/280/159
f 208/281/160 199/282/160 204/283/160 205/275/160
f 201/273/161 203/284/161 200/271/161
f 201/285/162 204/286/162 199/282/162 203/287/162
f 205/275/163 204/283/163 201/276/163
f 207/288/164 203/278/164 199/289/164
f 199/282/165 208/281/165 207/288/165
f 208/281/166 205/275/166 202/272/166 206/290/166
f 208/281/167 206/290/167 207/288/167
f 202/272/168 200/271/168 206/290/168
o Cube
v 0.947019 -0.057011 -0.674999
v 1.468309 0.460712 -0.857088
v 1.539170 0.105841 -0.550485
v 1.478504 0.502051 -0.433675
v 1.196571 0.130837 -1.008379
v 1.201012 -0.006275 -0.343531
v 1.257237 0.328436 -0.205112
v 1.099919 0.665900 -0.745929
v 0.799364 0.398508 -0.698762
v 0.907641 0.501347 -0.393951
vn 0.9859 0.1626 -0.0396
vn 0.7461 -0.0806 0.6610
vn -0.4290 0.3342 -0.8392
vn -0.0285 0.4360 -0.8995
vn -0.6559 -0.3107 0.6879
vn 0.7415 -0.3477 -0.5738
vn 0.2980 -0.9345 -0.1947
vn 0.5713 -0.3938 0.7201
vn -0.6967 -0.2607 -0.6684
vn -0.8775 -0.2635 0.4006
vn 0.0352 0.8524 0.5217
vn -0.6659 0.7459 -0.0151
vn 0.4617 0.8817 -0.0972
vt 0.550384 0.206938
vt 0.375000 0.305791
vt 0.375000 0.049496
vt 0.180791 0.500000
vt 0.330928 0.574320
vt 0.125000 0.700504
vt 0.804283 0.500000
vt 0.842867 0.681766
vt 0.658516 0.626313
vt 0.875000 0.500000
vt 0.501754 0.540833
vt 0.565165 0.799791
vt 0.325310 0.750000
vt 0.604031 0.069198
vt 0.375000 1.000000
vt 0.375000 0.799690
vt 0.578028 1.000000
vt 0.615335 0.592735
vt 0.589707 0.775249
vt 0.581909 0.353207
s 0
g Cube_Material
usemtl Material
f 210/291/169 212/292/169 211/293/169
f 212/294/170 215/295/170 211/296/170
f 216/297/171 213/298/171 217/299/171
f 213/298/172 216/297/172 210/300/172
f 218/301/173 209/302/173 214/303/173 215/295/173
f 211/293/174 213/304/174 210/291/174
f 211/305/175 214/306/175 209/302/175 213/307/175
f 215/295/176 214/303/176 211/296/176
f 217/308/177 213/298/177 209/309/177
f 209/302/178 218/301/178 217/308/178
f 218/301/179 215/295/179 212/292/179 216/310/179
f 218/301/180 216/310/180 217/308/180
f 212/292/181 210/291/181 216/310/181
o Cube
v 2.843762 0.479190 2.759800
v 2.469885 0.771626 2.063511
v 2.578174 1.064765 2.489150
v 2.151298 0.913880 2.384007
v 2.881712 0.554228 2.258196
v 2.562291 0.832216 2.884200
v 2.168440 0.826619 2.777559
v 2.236667 0.371631 2.209517
v 2.462883 0.172946 2.545209
v 2.161953 0.353010 2.685971
vn -0.1631 0.8314 -0.5311
vn -0.3723 0.9025 0.2163
vn 0.2574 -0.7455 -0.6147
vn 0.1888 -0.4320 -0.8819
vn -0.1238 -0.2892 0.9492
vn 0.5781 0.5959 -0.5575
vn 0.8473 0.4847 0.2171
vn -0.1468 0.8550 0.4974
vn 0.6472 -0.7596 -0.0647
vn 0.0224 -0.5922 0.8055
vn -0.9956 -0.0582 -0.0730
vn -0.5501 -0.8266 -0.1186
vn -0.6745 0.1278 -0.7272
vt 0.550384 0.206938
vt 0.375000 0.305791
vt 0.375000 0.049496
vt 0.180791 0.500000
vt 0.330928 0.574320
vt 0.125000 0.700504
vt 0.804283 0.500000
vt 0.842867 0.681766
vt 0.658516 0.626313
vt 0.875000 0.500000
vt 0.501754 0.540833
vt 0.565165 0.799791
vt 0.325310 0.750000
vt 0.604031 0.069198
vt 0.375000 1.000000
vt 0.375000 0.799690
vt 0.578028 1.000000
vt 0.615335 0.592735
vt 0.589707 0.775249
vt 0.581909 0.353207
s 0
g Cube_Material
usemtl Material
f 220/311/182 222/312/182 221/313/182
f 222/314/183 225/315/183 221/316/183
f 226/317/184 223/318/184 227/319/184
f 223/318/185 226/317/185 220/320/185
f 228/321/186 219/322/186 224/323/186 225/315/186
f 221/313/187 223/324/187 220/311/187
f 221/325/188 224/326/188 219/322/188 223/327/188
f 225/315/189 224/323/189 221/316/189
f 227/328/190 223/318/190 219/329/190
f 219/322/191 228/321/191 227/328/191
f 228/321/192 225/315/192 222/312/192 226/330/192
f 228/321/193 226/330/193 227/328/193
f 222/312/194 220/311/194 226/330/194
o Cube
v 2.141767 0.127093 -0.438968
v 3.412854 -0.317916 -0.330329
v 3.182734 0.493491 -0.256598
v 3.518586 0.215287 -0.860906
v 2.660117 -0.356254 -0.035647
v 2.600073 0.676769 -0.666204
v 3.044054 0.560943 -1.132618
v 3.104230 -0.600401 -0.986739
v 2.397027 -0.452690 -1.014375
v 2.695123 -0.080390 -1.388023
vn 0.8922 0.2171 0.3959
vn 0.6010 0.7986 -0.0336
vn -0.2078 -0.9664 0.1511
vn 0.1726 -0.9316 0.3198
vn -0.6690 0.4671 -0.5781
vn 0.3637 0.0185 0.9313
vn -0.3129 0.4815 0.8187
vn 0.2811 0.9592 0.0294
vn -0.7594 -0.5952 0.2628
vn -0.8398 0.1484 -0.5221
vn 0.5566 -0.0751 -0.8274
vn -0.1087 -0.6595 -0.7438
vn 0.8804 -0.4106 -0.2372
vt 0.550384 0.206938
vt 0.375000 0.305791
vt 0.375000 0.049496
vt 0.180791 0.500000
vt 0.330928 0.574320
vt 0.125000 0.700504
vt 0.804283 0.500000
vt 0.842867 0.681766
vt 0.658516 0.626313
vt 0.875000 0.500000
vt 0.501754 0.540833
vt 0.565165 0.799791
vt 0.325310 0.750000
vt 0.604031 0.069198
vt 0.375000 1.000000
vt 0.375000 0.799690
vt 0.578028 1.000000
vt 0.615335 0.592735
vt 0.589707 0.775249
vt 0.581909 0.353207
s 0
g Cube_Material
usemtl Material
f 230/331/195 232/332/195 231/333/195
f 232/334/196 235/335/196 231/336/196
f 236/337/197 233/338/197 237/339/197
f 233/338/198 236/337/198 230/340/198
f 238/341/199 229/342/199 234/343/199 235/335/199
f 231/333/200 233/344/200 230/331/200
f 231/345/201 234/346/201 229/342/201 233/347/201
f 235/335/202 234/343/202 231/336/202
f 237/348/203 233/338/203 229/349/203
f 229/342/204 238/341/204 237/348/204
f 238/341/205 235/335/205 232/332/205 236/350/205
f 238/341/206 236/350/206 237/348/206
f 232/332/207 230/331/207 236/350/207
o Cube
v 0.423562 0.932590 2.709130
v -0.285489 0.453559 3.348229
v 0.373321 0.474895 3.463954
v 0.093611 -0.005129 3.268069
v -0.100408 1.003023 3.077925
v 0.697437 0.481844 2.981398
v 0.498663 0.005047 2.956103
v -0.373840 0.256421 2.772084
v -0.053636 0.559248 2.408231
v 0.144227 0.127982 2.473290
vn -0.1561 -0.2938 0.9430
vn 0.5130 -0.5633 0.6477
vn -0.8226 0.4458 -0.3529
vn -0.9426 0.3326 0.0307
vn 0.7135 -0.1258 -0.6893
vn -0.1668 0.4799 0.8613
vn 0.5224 0.7132 0.4673
vn 0.7792 -0.3524 0.5183
vn -0.2766 0.7921 -0.5442
vn 0.4806 0.0889 -0.8724
vn -0.2383 -0.9553 -0.1752
vn -0.5315 -0.3595 -0.7670
vn -0.7003 -0.6356 0.3249
vt 0.550384 0.206938
vt 0.375000 0.305791
vt 0.375000 0.049496
vt 0.180791 0.500000
vt 0.330928 0.574320
vt 0.125000 0.700504
vt 0.804283 0.500000
vt 0.842867 0.681766
vt 0.658516 0.626313
vt 0.875000 0.500000
vt 0.501754 0.540833
vt 0.565165 0.799791
vt 0.325310 0.750000
vt 0.604031 0.069198
vt 0.375000 1.000000
vt 0.375000 0.799690
vt 0.578028 1.000000
vt 0.615335 0.592735
vt 0.589707 0.775249
vt 0.581909 0.353207
s 0
g Cube_Material
usemtl Material
f 240/351/208 242/352/208 241/353/208
f 242/354/209 245/355/209 241/356/209
f 246/357/210 243/358/210 247/359/210
f 243/358/211 246/357/211 240/360/211
f 248/361/212 239/362/212 244/363/212 245/355/212
f 241/353/213 243/364/213 240/351/213
f 241/365/214 244/366/214 239/362/214 243/367/214
f 245/355/215 244/363/215 241/356/215
f 247/368/216 243/358/216 239/369/216
f 239/362/217 248/361/217 247/368/217
f 248/361/218 245/355/218 242/352/218 246/370/218
f 248/361/219 246/370/219 247/368/219
f 242/352/220 240/351/220 246/370/220
o Cube
v -2.260145 0.888223 2.293282
v -1.401465 1.024501 1.867977
v -1.913635 0.893316 1.570828
v -1.524565 0.538135 1.657287
v -1.817027 1.256929 2.198688
v -2.248281 0.592100 1.844386
v -1.897995 0.289094 1.772536
v -1.339979 0.655637 2.281617
v -1.775213 0.625221 2.560704
v -1.743552 0.276304 2.304522
vn 0.4326 0.2640 -0.8621
vn -0.0799 -0.3175 -0.9449
vn 0.4545 0.4653 0.7595
vn 0.6769 0.5965 0.4313
vn -0.6844 -0.6679 0.2924
vn 0.0752 0.8578 -0.5084
vn -0.7009 0.6314 -0.3317
vn -0.4307 -0.2958 -0.8526
vn -0.2131 0.4751 0.8537
vn -0.6104 -0.5040 0.6111
vn 0.6133 -0.7823 -0.1090
vn 0.4960 -0.4842 0.7208
vn 0.9572 -0.1303 -0.2585
vt 0.550384 0.206938
vt 0.375000 0.305791
vt 0.375000 0.049496
vt 0.180791 0.500000
vt 0.330928 0.574320
vt 0.125000 0.700504
vt 0.804283 0.500000
vt 0.842867 0.681766
vt 0.658516 0.626313
vt 0.875000 0.500000
vt 0.501754 0.540833
vt 0.565165 0.799791
vt 0.325310 0.750000
vt 0.604031 0.069198
vt 0.375000 1.000000
vt 0.375000 0.799690
vt 0.578028 1.000000
vt 0.615335 0.592735
vt 0.589707 0.775249
vt 0.581909 0.353207
s 0
g Cube_Material
usemtl Material
f 250/371/221 252/372/221 251/373/221
f 252/374/222 255/375/222 251/376/222
f 256/377/223 253/378/223 257/379/223
f 253/378/224 256/377/224 250/380/224
f 258/381/225 249/382/225 254/383/225 255/375/225
f 251/373/226 253/384/226 250/371/226
f 251/385/227 254/386/227 249/382/227 253/387/227
f 255/375/228 254/383/228 251/376/228
f 257/388/229 253/378/229 249/389/229
f 249/382/230 258/381/230 257/388/230
f 258/381/231 255/375/231 252/372/231 256/390/231
f 258/381/232 256/390/232 257/388/232
f 252/372/233 250/371/233 256/390/233
o Cube
v 2.982600 0.070085 0.389105
v 1.937678 0.392876 0.466269
v 2.441418 0.607472 0.881188
v 2.023109 0.203267 1.046507
v 2.473990 0.367746 0.088150
v 2.868876 0.201320 0.973142
v 2.460158 -0.028351 1.222283
v 1.954076 -0.238193 0.444903
v 2.497894 -0.423144 0.325559
v 2.403109 -0.491958 0.803040
vn -0.5860 0.7408 0.3284
vn -0.1051 0.4677 0.8776
vn -0.2964 -0.2828 -0.9122
vn -0.5758 0.0127 -0.8175
vn 0.7203 -0.5780 0.3834
vn -0.1614 0.9428 -0.2916
vn 0.6316 0.7628 -0.1384
vn 0.2571 0.4627 0.8484
vn 0.3770 -0.2558 -0.8902
vn 0.7101 -0.7030 0.0397
vn -0.6313 -0.5400 0.5567
vn -0.3548 -0.9129 -0.2020
vn -0.9903 -0.0303 0.1359
vt 0.550384 0.206938
vt 0.375000 0.305791
vt 0.375000 0.049496
vt 0.180791 0.500000
vt 0.330928 0.574320
vt 0.125000 0.700504
vt 0.804283 0.500000
vt 0.842867 0.681766
vt 0.658516 0.626313
vt 0.875000 0.500000
vt 0.501754 0.540833
vt 0.565165 0.799791
vt 0.325310 0.750000
vt 0.604031 0.069198
vt 0.375000 1.000000
vt 0.375000 0.799690
vt 0.578028 1.000000
vt 0.615335 0.592735
vt 0.589707 0.775249
vt 0.581909 0.353207
s 0
g Cube_Material
usemtl Material
f 260/391/234 262/392/234 261/393/234
f 262/394/235 265/395/235 261/396/235
f 266/397/236 263/398/236 267/399/236
f 263/398/237 266/397/237 260/400/237
f 268/401/238 259/402/238 264/403/238 265/395/238
f 261/393/239 263/404/239 260/391/239
f 261/405/240 264/406/240 259/402/240 263/407/240
f 265/395/241 264/403/241 261/396/241
f 267/408/242 263/398/242 259/409/242
f 259/402/243 268/401/243 267/408/243
f 268/401/244 265/395/244 262/392/244 266/410/244
f 268/401/245 266/410/245 267/408/245
f 262/392/246 260/391/246 266/410/246
o Cube
v 2.483411 0.432689 -0.806356
v 1.693951 1.238762 -0.706321
v 1.623331 0.576325 -0.461462
v 1.338974 0.784759 -0.977246
v 2.329320 1.051389 -0.559718
v 1.919721 0.152613 -0.797251
v 1.530345 0.307975 -1.150964
v 1.883533 1.207218 -1.329957
v 2.361084 0.838111 -1.385509
v 1.944505 0.601602 -1.554389
vn -0.7853 0.2866 0.5488
vn -0.8480 -0.4452 0.2876
vn 0.5882 0.7882 -0.1810
vn 0.2752 0.9607 0.0351
vn 0.2829 -0.8290 -0.4824
vn -0.1096 0.3549 0.9285
vn 0.2928 -0.3668 0.8830
vn -0.6079 -0.7088 0.3578
vn 0.9673 0.2520 -0.0279
vn 0.5698 -0.6118 -0.5486
vn -0.6668 0.1154 -0.7362
vn 0.1694 0.3574 -0.9184
vn -0.6881 0.6835 -0.2437
vt 0.550384 0.206938
vt 0.375000 0.305791
vt 0.375000 0.049496
vt 0.180791 0.500000
vt 0.330928 0.574320
vt 0.125000 0.700504
vt 0.804283 0.500000
vt 0.842867 0.681766
vt 0.658516 0.626313
vt 0.875000 0.500000
vt 0.501754 0.540833
vt 0.565165 0.799791
vt 0.325310 0.750000
vt 0.604031 0.069198
vt 0.375000 1.000000
vt 0.375000 0.799690
vt 0.578028 1.000000
vt 0.615335 0.592735
vt 0.589707 0.775249
vt 0.581909 0.353207
s 0
g Cube_Material
usemtl Material
f 270/411/247 272/412/247 271/413/247
f 272/414/248 275/415/248 271/416/248
f 276/417/249 273/418/249 277/419/249
f 273/418/250 276/417/250 270/420/250
f 278/421/251 269/422/251 274/423/251 275/415/251
f 271/413/252 273/424/252 270/411/252
f 271/425/253 274/426/253 269/422/253 273/427/253
f 275/415/254 274/423/254 271/416/254
f 277/428/255 273/418/255 269/429/255
f 269/422/256 278/421/256 277/428/256
f 278/421/257 275/415/257 272/412/257 276/430/257
f 278/421/258 276/430/258 277/428/258
f 272/412/259 270/411/259 276/430/259
o Cube
v -1.779443 0.135232 0.785807
v -1.805946 0.601161 1.740935
v -2.321701 0.576823 1.320082
v -1.999313 1.058560 1.408400
v -1.714795 0.059083 1.419583
v -2.169436 0.578361 0.761844
v -2.028098 1.053612 0.900258
v -1.317721 0.808134 1.434521
v -1.247830 0.513034 0.953255
v -1.432079 0.940722 0.851400
vn -0.6154 0.2765 0.7382
vn -0.8339 0.5504 0.0419
vn 0.8117 -0.4380 0.3864
vn 0.5984 -0.3317 0.7293
vn 0.0526 0.1375 -0.9891
vn -0.5350 -0.4956 0.6843
vn -0.6844 -0.7226 -0.0974
vn -0.9070 0.3415 -0.2465
vn 0.6043 -0.7814 -0.1555
vn 0.3467 -0.0734 -0.9351
vn 0.2740 0.9587 0.0762
vn 0.9223 0.3745 -0.0957
vn 0.2029 0.6305 0.7492
vt 0.550384 0.206938
vt 0.375000 0.305791
vt 0.375000 0.049496
vt 0.180791 0.500000
vt 0.330928 0.574320
vt 0.125000 0.700504
vt 0.804283 0.500000
vt 0.842867 0.681766
vt 0.658516 0.626313
vt 0.875000 0.500000
vt 0.501754 0.540833
vt 0.565165 0.799791
vt 0.325310 0.750000
vt 0.604031 0.069198
vt 0.375000 1.000000
vt 0.375000 0.799690
vt 0.578028 1.000000
vt 0.615335 0.592735
vt 0.589707 0.775249
vt 0.581909 0.353207
s 0
g Cube_Material
usemtl Material
f 280/431/260 282/432/260 281/433/260
f 282/434/261 285/435/261 281/436/261
f 286/437/262 283/438/262 287/439/262
f 283/438/263 286/437/263 280/440/263
f 288/441/264 279/442/264 284/443/264 285/435/264
f 281/433/265 283/444/265 280/431/265
f 281/445/266 284/446/266 279/442/266 283/447/266
f 285/435/267 284/443/267 281/436/267
f 287/448/268 283/438/268 279/449/268
f 279/442/269 288/441/269 287/448/269
f 288/441/270 285/435/270 282/432/270 286/450/270
f 288/441/271 286/450/271 287/448/271
f 282/432/272 280/431/272 286/450/272
o Cube
v -1.055916 0.322451 1.412741
v -0.517560 0.780348 1.737652
v -0.783523 0.452689 1.981535
v -0.855001 0.875377 1.999089
v -0.603997 0.449350 1.421356
v -1.171752 0.394290 1.822988
v -1.201404 0.747156 1.951413
v -0.795743 1.034769 1.495334
v -1.053586 0.795010 1.273323
v -1.225572 0.928966 1.545622
vn 0.6236 0.0731 0.7783
vn -0.1141 -0.0605 0.9916
vn 0.4778 0.2624 -0.8383
vn 0.7720 0.3221 -0.5480
vn -0.9771 -0.1670 -0.1323
vn 0.8361 -0.4771 0.2708
vn 0.1882 -0.9731 0.1327
vn -0.3091 -0.3481 0.8850
vn 0.0974 -0.2821 -0.9544
vn -0.8666 -0.1373 -0.4798
vn -0.2716 0.9045 0.3288
vn -0.2596 0.7915 -0.5533
vn 0.4758 0.8209 0.3157
vt 0.550384 0.206938
vt 0.375000 0.305791
vt 0.375000 0.049496
vt 0.180791 0.500000
vt 0.330928 0.574320
vt 0.125000 0.700504
vt 0.804283 0.500000
vt 0.842867 0.681766
vt 0.658516 0.626313
vt 0.875000 0.500000
vt 0.501754 0.540833
vt 0.565165 0.799791
vt 0.325310 0.750000
vt 0.604031 0.069198
vt 0.375000 1.000000
vt 0.375000 0.799690
vt 0.578028 1.000000
vt 0.615335 0.592735
vt 0.589707 0.775249
vt 0.581909 0.353207
s 0
g Cube_Material
usemtl Material
f 290/451/273 292/452/273 291/453/273
f 292/454/274 295/455/274 291/456/274
f 296/457/275 293/458/275 297/459/275
f 293/458/276 296/457/276 290/460/276
f 298/461/277 289/462/277 294/463/277 295/455/277
f 291/453/278 293/464/278 290/451/278
f 291/465/279 294/466/279 289/462/279 293/467/279
f 295/455/280 294/463/280 291/456/280
f 297/468/281 293/458/281 289/469/281
f 289/462/282 298/461/282 297/468/282
f 298/461/283 295/455/283 292/452/283 296/470/283
f 298/461/284 296/470/284 297/468/284
f 292/452/285 290/451/285 296/470/285
o Cube
v 0.513250 -0.072253 -1.371143
v 1.200142 0.609939 -1.611077
v 1.293514 0.142333 -1.207073
v 1.213576 0.664411 -1.053155
v 0.842078 0.175270 -1.810430
v 0.847930 -0.005400 -0.934374
v 0.922017 0.435642 -0.751982
v 0.714723 0.880311 -1.464605
v 0.318688 0.527975 -1.402454
v 0.461362 0.663482 -1.000811
vn 0.9859 0.1626 -0.0396
vn 0.7461 -0.0806 0.6610
vn -0.4290 0.3342 -0.8392
vn -0.0285 0.4360 -0.8995
vn -0.6559 -0.3107 0.6879
vn 0.7415 -0.3477 -0.5738
vn 0.2980 -0.9345 -0.1947
vn 0.5713 -0.3938 0.7201
vn -0.6967 -0.2607 -0.6684
vn -0.8775 -0.2635 0.4006
vn 0.0352 0.8524 0.5217
vn -0.6659 0.7459 -0.0151
vn 0.4617 0.8817 -0.0972
vt 0.550384 0.206938
vt 0.375000 0.305791
vt 0.375000 0.049496
vt 0.180791 0.500000
vt 0.330928 0.574320
vt 0.125000 0.700504
vt 0.804283 0.500000
vt 0.842867 0.681766
vt 0.658516 0.626313
vt 0.875000 0.500000
vt 0.501754 0.540833
vt 0.565165 0.799791
vt 0.325310 0.750000
vt 0.604031 0.069198
vt 0.375000 1.000000
vt 0.375000 0.799690
vt 0.578028 1.000000
vt 0.615335 0.592735
vt 0.589707 0.775249
vt 0.581909 0.353207
s 0
g Cube_Material
usemtl Material
f 300/471/286 302/472/286 301/473/286
f 302/474/287 305/475/287 301/476/287
f 306/477/288 303/478/288 307/479/288
f 303/478/289 306/477/289 300/480/289
f 308/481/290 299/482/290 304/483/290 305/475/290
f 301/473/291 303/484/291 300/471/291
f 301/485/292 304/486/292 299/482/292 303/487/292
f 305/475/293 304/483/293 301/476/293
f 307/488/294 303/478/294 299/489/294
f 299/482/295 308/481/295 307/488/295
f 308/481/296 305/475/296 302/472/296 306/490/296
f 308/481/297 306/490/297 307/488/297
f 302/472/298 300/471/298 306/490/298
