# Blender 4.1.0
# www.blender.org
mtllib Explosion20031.mtl
o Circle
v -0.024615 0.096888 -1.522372
v -0.024615 0.242742 -1.522372
v 0.122545 0.096888 -1.515142
v 0.122545 0.242742 -1.515142
v 0.268288 0.096888 -1.493523
v 0.268288 0.242742 -1.493523
v 0.411211 0.096888 -1.457723
v 0.411211 0.242742 -1.457723
v 0.549936 0.096888 -1.408086
v 0.549936 0.242742 -1.408086
v 0.683127 0.096888 -1.345092
v 0.683127 0.242742 -1.345092
v 0.809503 0.096888 -1.269345
v 0.809503 0.242742 -1.269345
v 0.927846 0.096888 -1.181576
v 0.927846 0.242742 -1.181576
v 1.037016 0.096888 -1.082630
v 1.037016 0.242742 -1.082630
v 1.135962 0.096888 -0.973460
v 1.135962 0.242742 -0.973460
v 1.223731 0.096888 -0.855117
v 1.223731 0.242742 -0.855117
v 1.299478 0.096888 -0.728741
v 1.299478 0.242742 -0.728741
v 1.362473 0.096888 -0.595549
v 1.362473 0.242742 -0.595549
v 1.412110 0.096888 -0.456824
v 1.412110 0.242742 -0.456824
v 1.447910 0.096888 -0.313902
v 1.447910 0.242742 -0.313902
v 1.469529 0.096888 -0.168159
v 1.469529 0.242742 -0.168159
v 1.476758 0.096888 -0.020998
v 1.476758 0.242742 -0.020998
v 1.469529 0.096888 0.126162
v 1.469529 0.242742 0.126162
v 1.447910 0.096888 0.271905
v 1.447910 0.242742 0.271905
v 1.412110 0.096888 0.414827
v 1.412110 0.242742 0.414827
v 1.362473 0.096888 0.553553
v 1.362473 0.242742 0.553553
v 1.299478 0.096888 0.686744
v 1.299478 0.242742 0.686744
v 1.223731 0.096888 0.813120
v 1.223731 0.242742 0.813120
v 1.135962 0.096888 0.931463
v 1.135962 0.242742 0.931463
v 1.037016 0.096888 1.040633
v 1.037016 0.242742 1.040633
v 0.927846 0.096888 1.139579
v 0.927846 0.242742 1.139579
v 0.809503 0.096888 1.227348
v 0.809503 0.242742 1.227348
v 0.683127 0.096888 1.303095
v 0.683127 0.242742 1.303095
v 0.549936 0.096888 1.366090
v 0.549936 0.242742 1.366090
v 0.411211 0.096888 1.415727
v 0.411211 0.242742 1.415727
v 0.268288 0.096888 1.451527
v 0.268288 0.242742 1.451527
v 0.122545 0.096888 1.473146
v 0.122545 0.242742 1.473146
v -0.024615 0.096888 1.480376
v -0.024615 0.242742 1.480376
v -0.171775 0.096888 1.473146
v -0.171775 0.242742 1.473146
v -0.317519 0.096888 1.451527
v -0.317519 0.242742 1.451527
v -0.460441 0.096888 1.415727
v -0.460441 0.242742 1.415727
v -0.599166 0.096888 1.366090
v -0.599166 0.242742 1.366090
v -0.732358 0.096888 1.303095
v -0.732358 0.242742 1.303095
v -0.858734 0.096888 1.227348
v -0.858734 0.242742 1.227348
v -0.977076 0.096888 1.139579
v -0.977076 0.242742 1.139579
v -1.086246 0.096888 1.040633
v -1.086246 0.242742 1.040633
v -1.185192 0.096888 0.931463
v -1.185192 0.242742 0.931463
v -1.272961 0.096888 0.813120
v -1.272961 0.242742 0.813120
v -1.348708 0.096888 0.686744
v -1.348708 0.242742 0.686744
v -1.411703 0.096888 0.553553
v -1.411703 0.242742 0.553553
v -1.461340 0.096888 0.414827
v -1.461340 0.242742 0.414827
v -1.497140 0.096888 0.271905
v -1.497140 0.242742 0.271905
v -1.518759 0.096888 0.126162
v -1.518759 0.242742 0.126162
v -1.525989 0.096888 -0.020998
v -1.525989 0.242742 -0.020998
v -1.518759 0.096888 -0.168159
v -1.518759 0.242742 -0.168159
v -1.497140 0.096888 -0.313902
v -1.497140 0.242742 -0.313902
v -1.461340 0.096888 -0.456824
v -1.461340 0.242742 -0.456824
v -1.411703 0.096888 -0.595549
v -1.411703 0.242742 -0.595549
v -1.348708 0.096888 -0.728741
v -1.348708 0.242742 -0.728741
v -1.272961 0.096888 -0.855117
v -1.272961 0.242742 -0.855117
v -1.185192 0.096888 -0.973460
v -1.185192 0.242742 -0.973460
v -1.086246 0.096888 -1.082630
v -1.086246 0.242742 -1.082630
v -0.977076 0.096888 -1.181576
v -0.977076 0.242742 -1.181576
v -0.858734 0.096888 -1.269345
v -0.858734 0.242742 -1.269345
v -0.732358 0.096888 -1.345092
v -0.732358 0.242742 -1.345092
v -0.599166 0.096888 -1.408086
v -0.599166 0.242742 -1.408086
v -0.460441 0.096888 -1.457723
v -0.460441 0.242742 -1.457723
v -0.317519 0.096888 -1.493523
v -0.317519 0.242742 -1.493523
v -0.171775 0.096888 -1.515142
v -0.171775 0.242742 -1.515142
vn 0.0491 -0.0000 -0.9988
vn 0.1467 -0.0000 -0.9892
vn 0.2430 -0.0000 -0.9700
vn 0.3369 -0.0000 -0.9415
vn 0.4276 -0.0000 -0.9040
vn 0.5141 -0.0000 -0.8577
vn 0.5957 -0.0000 -0.8032
vn 0.6716 -0.0000 -0.7410
vn 0.7410 -0.0000 -0.6716
vn 0.8032 -0.0000 -0.5957
vn 0.8577 -0.0000 -0.5141
vn 0.9040 -0.0000 -0.4276
vn 0.9415 -0.0000 -0.3369
vn 0.9700 -0.0000 -0.2430
vn 0.9892 -0.0000 -0.1467
vn 0.9988 -0.0000 -0.0491
vn 0.9988 -0.0000 0.0491
vn 0.9892 -0.0000 0.1467
vn 0.9700 -0.0000 0.2430
vn 0.9415 -0.0000 0.3369
vn 0.9040 -0.0000 0.4276
vn 0.8577 -0.0000 0.5141
vn 0.8032 -0.0000 0.5957
vn 0.7410 -0.0000 0.6716
vn 0.6716 -0.0000 0.7410
vn 0.5957 -0.0000 0.8032
vn 0.5141 -0.0000 0.8577
vn 0.4276 -0.0000 0.9040
vn 0.3369 -0.0000 0.9415
vn 0.2430 -0.0000 0.9700
vn 0.1467 -0.0000 0.9892
vn 0.0491 -0.0000 0.9988
vn -0.0491 -0.0000 0.9988
vn -0.1467 -0.0000 0.9892
vn -0.2430 -0.0000 0.9700
vn -0.3369 -0.0000 0.9415
vn -0.4276 -0.0000 0.9040
vn -0.5141 -0.0000 0.8577
vn -0.5957 -0.0000 0.8032
vn -0.6716 -0.0000 0.7410
vn -0.7410 -0.0000 0.6716
vn -0.8032 -0.0000 0.5957
vn -0.8577 -0.0000 0.5141
vn -0.9040 -0.0000 0.4276
vn -0.9415 -0.0000 0.3369
vn -0.9700 -0.0000 0.2430
vn -0.9892 -0.0000 0.1467
vn -0.9988 -0.0000 0.0491
vn -0.9988 -0.0000 -0.0491
vn -0.9892 -0.0000 -0.1467
vn -0.9700 -0.0000 -0.2430
vn -0.9415 -0.0000 -0.3369
vn -0.9040 -0.0000 -0.4276
vn -0.8577 -0.0000 -0.5141
vn -0.8032 -0.0000 -0.5957
vn -0.7410 -0.0000 -0.6716
vn -0.6716 -0.0000 -0.7410
vn -0.5957 -0.0000 -0.8032
vn -0.5141 -0.0000 -0.8577
vn -0.4276 -0.0000 -0.9040
vn -0.3369 -0.0000 -0.9415
vn -0.2430 -0.0000 -0.9700
vn -0.1467 -0.0000 -0.9892
vn -0.0491 -0.0000 -0.9988
vt 1.000000 0.500000
vt 1.000000 1.000000
vt 0.984375 1.000000
vt 0.984375 0.500000
vt 0.968750 1.000000
vt 0.968750 0.500000
vt 0.953125 1.000000
vt 0.953125 0.500000
vt 0.937500 1.000000
vt 0.937500 0.500000
vt 0.921875 1.000000
vt 0.921875 0.500000
vt 0.906250 1.000000
vt 0.906250 0.500000
vt 0.890625 1.000000
vt 0.890625 0.500000
vt 0.875000 1.000000
vt 0.875000 0.500000
vt 0.859375 1.000000
vt 0.859375 0.500000
vt 0.843750 1.000000
vt 0.843750 0.500000
vt 0.828125 1.000000
vt 0.828125 0.500000
vt 0.812500 1.000000
vt 0.812500 0.500000
vt 0.796875 1.000000
vt 0.796875 0.500000
vt 0.781250 1.000000
vt 0.781250 0.500000
vt 0.765625 1.000000
vt 0.765625 0.500000
vt 0.750000 1.000000
vt 0.750000 0.500000
vt 0.734375 1.000000
vt 0.734375 0.500000
vt 0.718750 1.000000
vt 0.718750 0.500000
vt 0.703125 1.000000
vt 0.703125 0.500000
vt 0.687500 1.000000
vt 0.687500 0.500000
vt 0.671875 1.000000
vt 0.671875 0.500000
vt 0.656250 1.000000
vt 0.656250 0.500000
vt 0.640625 1.000000
vt 0.640625 0.500000
vt 0.625000 1.000000
vt 0.625000 0.500000
vt 0.609375 1.000000
vt 0.609375 0.500000
vt 0.593750 1.000000
vt 0.593750 0.500000
vt 0.578125 1.000000
vt 0.578125 0.500000
vt 0.562500 1.000000
vt 0.562500 0.500000
vt 0.546875 1.000000
vt 0.546875 0.500000
vt 0.531250 1.000000
vt 0.531250 0.500000
vt 0.515625 1.000000
vt 0.515625 0.500000
vt 0.500000 1.000000
vt 0.500000 0.500000
vt 0.484375 1.000000
vt 0.484375 0.500000
vt 0.468750 1.000000
vt 0.468750 0.500000
vt 0.453125 1.000000
vt 0.453125 0.500000
vt 0.437500 1.000000
vt 0.437500 0.500000
vt 0.421875 1.000000
vt 0.421875 0.500000
vt 0.406250 1.000000
vt 0.406250 0.500000
vt 0.390625 1.000000
vt 0.390625 0.500000
vt 0.375000 1.000000
vt 0.375000 0.500000
vt 0.359375 1.000000
vt 0.359375 0.500000
vt 0.343750 1.000000
vt 0.343750 0.500000
vt 0.328125 1.000000
vt 0.328125 0.500000
vt 0.312500 1.000000
vt 0.312500 0.500000
vt 0.296875 1.000000
vt 0.296875 0.500000
vt 0.281250 1.000000
vt 0.281250 0.500000
vt 0.265625 1.000000
vt 0.265625 0.500000
vt 0.250000 1.000000
vt 0.250000 0.500000
vt 0.234375 1.000000
vt 0.234375 0.500000
vt 0.218750 1.000000
vt 0.218750 0.500000
vt 0.203125 1.000000
vt 0.203125 0.500000
vt 0.187500 1.000000
vt 0.187500 0.500000
vt 0.171875 1.000000
vt 0.171875 0.500000
vt 0.156250 1.000000
vt 0.156250 0.500000
vt 0.140625 1.000000
vt 0.140625 0.500000
vt 0.125000 1.000000
vt 0.125000 0.500000
vt 0.109375 1.000000
vt 0.109375 0.500000
vt 0.093750 1.000000
vt 0.093750 0.500000
vt 0.078125 1.000000
vt 0.078125 0.500000
vt 0.062500 1.000000
vt 0.062500 0.500000
vt 0.046875 1.000000
vt 0.046875 0.500000
vt 0.031250 1.000000
vt 0.031250 0.500000
vt 0.015625 1.000000
vt 0.015625 0.500000
vt 0.000000 1.000000
vt 0.000000 0.500000
s 0
g Circle_Material.001
usemtl Material.001
f 1/1/1 2/2/1 4/3/1 3/4/1
f 3/4/2 4/3/2 6/5/2 5/6/2
f 5/6/3 6/5/3 8/7/3 7/8/3
f 7/8/4 8/7/4 10/9/4 9/10/4
f 9/10/5 10/9/5 12/11/5 11/12/5
f 11/12/6 12/11/6 14/13/6 13/14/6
f 13/14/7 14/13/7 16/15/7 15/16/7
f 15/16/8 16/15/8 18/17/8 17/18/8
f 17/18/9 18/17/9 20/19/9 19/20/9
f 19/20/10 20/19/10 22/21/10 21/22/10
f 21/22/11 22/21/11 24/23/11 23/24/11
f 23/24/12 24/23/12 26/25/12 25/26/12
f 25/26/13 26/25/13 28/27/13 27/28/13
f 27/28/14 28/27/14 30/29/14 29/30/14
f 29/30/15 30/29/15 32/31/15 31/32/15
f 31/32/16 32/31/16 34/33/16 33/34/16
f 33/34/17 34/33/17 36/35/17 35/36/17
f 35/36/18 36/35/18 38/37/18 37/38/18
f 37/38/19 38/37/19 40/39/19 39/40/19
f 39/40/20 40/39/20 42/41/20 41/42/20
f 41/42/21 42/41/21 44/43/21 43/44/21
f 43/44/22 44/43/22 46/45/22 45/46/22
f 45/46/23 46/45/23 48/47/23 47/48/23
f 47/48/24 48/47/24 50/49/24 49/50/24
f 49/50/25 50/49/25 52/51/25 51/52/25
f 51/52/26 52/51/26 54/53/26 53/54/26
f 53/54/27 54/53/27 56/55/27 55/56/27
f 55/56/28 56/55/28 58/57/28 57/58/28
f 57/58/29 58/57/29 60/59/29 59/60/29
f 59/60/30 60/59/30 62/61/30 61/62/30
f 61/62/31 62/61/31 64/63/31 63/64/31
f 63/64/32 64/63/32 66/65/32 65/66/32
f 65/66/33 66/65/33 68/67/33 67/68/33
f 67/68/34 68/67/34 70/69/34 69/70/34
f 69/70/35 70/69/35 72/71/35 71/72/35
f 71/72/36 72/71/36 74/73/36 73/74/36
f 73/74/37 74/73/37 76/75/37 75/76/37
f 75/76/38 76/75/38 78/77/38 77/78/38
f 77/78/39 78/77/39 80/79/39 79/80/39
f 79/80/40 80/79/40 82/81/40 81/82/40
f 81/82/41 82/81/41 84/83/41 83/84/41
f 83/84/42 84/83/42 86/85/42 85/86/42
f 85/86/43 86/85/43 88/87/43 87/88/43
f 87/88/44 88/87/44 90/89/44 89/90/44
f 89/90/45 90/89/45 92/91/45 91/92/45
f 91/92/46 92/91/46 94/93/46 93/94/46
f 93/94/47 94/93/47 96/95/47 95/96/47
f 95/96/48 96/95/48 98/97/48 97/98/48
f 97/98/49 98/97/49 100/99/49 99/100/49
f 99/100/50 100/99/50 102/101/50 101/102/50
f 101/102/51 102/101/51 104/103/51 103/104/51
f 103/104/52 104/103/52 106/105/52 105/106/52
f 105/106/53 106/105/53 108/107/53 107/108/53
f 107/108/54 108/107/54 110/109/54 109/110/54
f 109/110/55 110/109/55 112/111/55 111/112/55
f 111/112/56 112/111/56 114/113/56 113/114/56
f 113/114/57 114/113/57 116/115/57 115/116/57
f 115/116/58 116/115/58 118/117/58 117/118/58
f 117/118/59 118/117/59 120/119/59 119/120/59
f 119/120/60 120/119/60 122/121/60 121/122/60
f 121/122/61 122/121/61 124/123/61 123/124/61
f 123/124/62 124/123/62 126/125/62 125/126/62
f 125/126/63 126/125/63 128/127/63 127/128/63
f 127/128/64 128/127/64 2/129/64 1/130/64
o Cube
v 4.712601 0.363434 3.920934
v 4.023182 0.653767 3.985889
v 4.142791 0.220154 4.123911
v 3.926021 0.298396 3.779789
v 4.456814 0.692596 4.098716
v 4.438117 0.049921 3.898410
v 4.167289 0.062297 3.656104
v 4.159492 0.709020 3.579063
v 4.546441 0.605680 3.546887
v 4.354508 0.363489 3.413171
vn -0.8511 -0.0691 0.5204
vn -0.6219 -0.7513 0.2209
vn 0.2478 0.9624 -0.1113
vn -0.1136 0.9889 0.0962
vn 0.5921 -0.6265 -0.5069
vn -0.2642 0.2256 0.9377
vn 0.3844 -0.2849 0.8781
vn -0.3015 -0.9081 0.2906
vn 0.7982 0.6014 0.0349
vn 0.7762 -0.3129 -0.5474
vn -0.6383 -0.0986 -0.7635
vn 0.0472 0.4539 -0.8898
vn -0.8894 0.3856 -0.2456
vt 0.550384 0.206938
vt 0.375000 0.305791
vt 0.375000 0.049496
vt 0.180791 0.500000
vt 0.330928 0.574320
vt 0.125000 0.700504
vt 0.804283 0.500000
vt 0.842867 0.681766
vt 0.658516 0.626313
vt 0.875000 0.500000
vt 0.501754 0.540833
vt 0.565165 0.799791
vt 0.325310 0.750000
vt 0.604031 0.069198
vt 0.375000 1.000000
vt 0.375000 0.799690
vt 0.578028 1.000000
vt 0.615335 0.592735
vt 0.589707 0.775249
vt 0.581909 0.353207
s 0
g Cube_Material
usemtl Material
f 130/131/65 132/132/65 131/133/65
f 132/134/66 135/135/66 131/136/66
f 136/137/67 133/138/67 137/139/67
f 133/138/68 136/137/68 130/140/68
f 138/141/69 129/142/69 134/143/69 135/135/69
f 131/133/70 133/144/70 130/131/70
f 131/145/71 134/146/71 129/142/71 133/147/71
f 135/135/72 134/143/72 131/136/72
f 137/148/73 133/138/73 129/149/73
f 129/142/74 138/141/74 137/148/74
f 138/141/75 135/135/75 132/132/75 136/150/75
f 138/141/76 136/150/76 137/148/76
f 132/132/77 130/131/77 136/150/77
o Cube
v 5.960125 0.403225 -0.746785
v 5.604426 0.240575 -1.683217
v 5.825436 -0.215421 -1.299030
v 6.112444 -0.013841 -1.735285
v 5.480717 0.447910 -1.125372
v 6.226288 -0.046712 -0.958458
v 6.456046 -0.015167 -1.391727
v 6.000566 0.670052 -1.704718
v 6.146155 0.816631 -1.202505
v 6.476901 0.565428 -1.388514
vn -0.4089 -0.6957 -0.5905
vn 0.2572 -0.9305 -0.2608
vn -0.4914 0.8640 -0.1097
vn -0.6888 0.6162 -0.3818
vn 0.8130 0.0730 0.5777
vn -0.8900 -0.4551 -0.0282
vn -0.4978 -0.5147 0.6980
vn 0.3143 -0.9443 0.0979
vn -0.3580 0.7596 0.5430
vn 0.6612 0.4012 0.6339
vn 0.6307 0.0661 -0.7732
vn 0.4243 0.8288 -0.3649
vn -0.0869 0.0303 -0.9958
vt 0.550384 0.206938
vt 0.375000 0.305791
vt 0.375000 0.049496
vt 0.180791 0.500000
vt 0.330928 0.574320
vt 0.125000 0.700504
vt 0.804283 0.500000
vt 0.842867 0.681766
vt 0.658516 0.626313
vt 0.875000 0.500000
vt 0.501754 0.540833
vt 0.565165 0.799791
vt 0.325310 0.750000
vt 0.604031 0.069198
vt 0.375000 1.000000
vt 0.375000 0.799690
vt 0.578028 1.000000
vt 0.615335 0.592735
vt 0.589707 0.775249
vt 0.581909 0.353207
s 0
g Cube_Material
usemtl Material
f 140/151/78 142/152/78 141/153/78
f 142/154/79 145/155/79 141/156/79
f 146/157/80 143/158/80 147/159/80
f 143/158/81 146/157/81 140/160/81
f 148/161/82 139/162/82 144/163/82 145/155/82
f 141/153/83 143/164/83 140/151/83
f 141/165/84 144/166/84 139/162/84 143/167/84
f 145/155/85 144/163/85 141/156/85
f 147/168/86 143/158/86 139/169/86
f 139/162/87 148/161/87 147/168/87
f 148/161/88 145/155/88 142/152/88 146/170/88
f 148/161/89 146/170/89 147/168/89
f 142/152/90 140/151/90 146/170/90
o Cube
v -3.923855 0.548408 -4.319302
v -4.642989 0.542250 -4.105196
v -4.278327 0.498682 -3.811605
v -4.517816 0.181249 -3.926392
v -4.315299 0.775734 -4.305445
v -3.954126 0.312888 -3.976500
v -4.190896 0.037482 -3.965473
v -4.591726 0.259201 -4.427900
v -4.223813 0.292963 -4.585129
v -4.237998 0.017795 -4.391998
vn -0.6046 0.1752 0.7770
vn -0.0281 -0.3211 0.9466
vn -0.3905 0.4050 -0.8268
vn -0.6817 0.4930 -0.5407
vn 0.8194 -0.5470 -0.1714
vn -0.2916 0.8248 0.4845
vn 0.5288 0.7256 0.4403
vn 0.3254 -0.2432 0.9138
vn 0.2736 0.5205 -0.8089
vn 0.7741 -0.3900 -0.4987
vn -0.4924 -0.8703 0.0096
vn -0.2883 -0.5401 -0.7907
vn -0.9542 -0.2830 0.0966
vt 0.550384 0.206938
vt 0.375000 0.305791
vt 0.375000 0.049496
vt 0.180791 0.500000
vt 0.330928 0.574320
vt 0.125000 0.700504
vt 0.804283 0.500000
vt 0.842867 0.681766
vt 0.658516 0.626313
vt 0.875000 0.500000
vt 0.501754 0.540833
vt 0.565165 0.799791
vt 0.325310 0.750000
vt 0.604031 0.069198
vt 0.375000 1.000000
vt 0.375000 0.799690
vt 0.578028 1.000000
vt 0.615335 0.592735
vt 0.589707 0.775249
vt 0.581909 0.353207
s 0
g Cube_Material
usemtl Material
f 150/171/91 152/172/91 151/173/91
f 152/174/92 155/175/92 151/176/92
f 156/177/93 153/178/93 157/179/93
f 153/178/94 156/177/94 150/180/94
f 158/181/95 149/182/95 154/183/95 155/175/95
f 151/173/96 153/184/96 150/171/96
f 151/185/97 154/186/97 149/182/97 153/187/97
f 155/175/98 154/183/98 151/176/98
f 157/188/99 153/178/99 149/189/99
f 149/182/100 158/181/100 157/188/100
f 158/181/101 155/175/101 152/172/101 156/190/101
f 158/181/102 156/190/102 157/188/102
f 152/172/103 150/171/103 156/190/103
o Cube
v -5.092260 -0.466540 1.980095
v -5.447357 0.367175 1.947848
v -4.924050 0.234447 1.770730
v -5.017278 0.473389 2.200104
v -5.492540 -0.148779 1.784357
v -4.715108 -0.135028 2.022599
v -4.729858 0.176013 2.332186
v -5.510304 0.176475 2.430115
v -5.383020 -0.291558 2.443470
v -5.090698 -0.067141 2.615285
vn 0.0618 0.8778 -0.4750
vn 0.7469 0.6366 -0.1921
vn -0.9605 -0.2583 0.1037
vn -0.9900 0.1134 -0.0844
vn 0.6324 -0.6149 0.4712
vn -0.2326 0.3122 -0.9211
vn 0.2814 -0.3360 -0.8989
vn 0.9048 0.3211 -0.2795
vn -0.5977 -0.7983 -0.0736
vn 0.3199 -0.8024 0.5038
vn 0.1002 0.5975 0.7956
vn -0.4482 -0.0965 0.8887
vn -0.3884 0.8731 0.2946
vt 0.550384 0.206938
vt 0.375000 0.305791
vt 0.375000 0.049496
vt 0.180791 0.500000
vt 0.330928 0.574320
vt 0.125000 0.700504
vt 0.804283 0.500000
vt 0.842867 0.681766
vt 0.658516 0.626313
vt 0.875000 0.500000
vt 0.501754 0.540833
vt 0.565165 0.799791
vt 0.325310 0.750000
vt 0.604031 0.069198
vt 0.375000 1.000000
vt 0.375000 0.799690
vt 0.578028 1.000000
vt 0.615335 0.592735
vt 0.589707 0.775249
vt 0.581909 0.353207
s 0
g Cube_Material
usemtl Material
f 160/191/104 162/192/104 161/193/104
f 162/194/105 165/195/105 161/196/105
f 166/197/106 163/198/106 167/199/106
f 163/198/107 166/197/107 160/200/107
f 168/201/108 159/202/108 164/203/108 165/195/108
f 161/193/109 163/204/109 160/191/109
f 161/205/110 164/206/110 159/202/110 163/207/110
f 165/195/111 164/203/111 161/196/111
f 167/208/112 163/198/112 159/209/112
f 159/202/113 168/201/113 167/208/113
f 168/201/114 165/195/114 162/192/114 166/210/114
f 168/201/115 166/210/115 167/208/115
f 162/192/116 160/191/116 166/210/116
o Cube
v -1.328265 0.408887 5.954127
v -0.793739 0.119955 5.519655
v -0.731559 0.246988 5.965837
v -0.594979 0.467699 5.645860
v -1.195595 0.056702 5.705902
v -0.963431 0.560114 6.082037
v -0.742926 0.723971 5.846727
v -0.979783 0.447093 5.310922
v -1.301157 0.574311 5.511681
v -1.049386 0.790741 5.556050
vn 0.8644 -0.5023 0.0225
vn 0.8732 0.1376 0.4676
vn -0.5938 -0.3860 -0.7060
vn -0.2486 -0.6175 -0.7462
vn -0.3680 0.8279 0.4232
vn 0.2551 -0.9387 0.2317
vn -0.1630 -0.5412 0.8249
vn 0.6415 0.2002 0.7405
vn -0.9555 -0.2522 -0.1528
vn -0.6575 0.7181 0.2282
vn 0.5501 0.6175 -0.5623
vn -0.2994 0.5132 -0.8044
vn 0.6562 -0.1038 -0.7475
vt 0.550384 0.206938
vt 0.375000 0.305791
vt 0.375000 0.049496
vt 0.180791 0.500000
vt 0.330928 0.574320
vt 0.125000 0.700504
vt 0.804283 0.500000
vt 0.842867 0.681766
vt 0.658516 0.626313
vt 0.875000 0.500000
vt 0.501754 0.540833
vt 0.565165 0.799791
vt 0.325310 0.750000
vt 0.604031 0.069198
vt 0.375000 1.000000
vt 0.375000 0.799690
vt 0.578028 1.000000
vt 0.615335 0.592735
vt 0.589707 0.775249
vt 0.581909 0.353207
s 0
g Cube_Material
usemtl Material
f 170/211/117 172/212/117 171/213/117
f 172/214/118 175/215/118 171/216/118
f 176/217/119 173/218/119 177/219/119
f 173/218/120 176/217/120 170/220/120
f 178/221/121 169/222/121 174/223/121 175/215/121
f 171/213/122 173/224/122 170/211/122
f 171/225/123 174/226/123 169/222/123 173/227/123
f 175/215/124 174/223/124 171/216/124
f 177/228/125 173/218/125 169/229/125
f 169/222/126 178/221/126 177/228/126
f 178/221/127 175/215/127 172/212/127 176/230/127
f 178/221/128 176/230/128 177/228/128
f 172/212/129 170/211/129 176/230/129
o Cube
v 4.330301 0.920738 0.025320
v 4.661924 0.190157 0.191558
v 4.170387 0.311439 0.276920
v 4.480217 0.282483 0.604666
v 4.561082 0.522396 -0.155294
v 4.104877 0.740919 0.377748
v 4.303264 0.619601 0.699240
v 4.932627 0.526539 0.382358
v 4.797613 0.922490 0.251082
v 4.689629 0.865419 0.597611
vn -0.2180 -0.9685 0.1205
vn -0.6504 -0.5015 0.5705
vn 0.8189 0.0914 -0.5666
vn 0.7797 -0.3232 -0.5363
vn -0.3257 0.8680 0.3748
vn -0.2879 -0.7320 -0.6175
vn -0.7704 -0.0599 -0.6348
vn -0.8642 -0.2361 0.4442
vn 0.3615 0.5506 -0.7525
vn -0.0715 0.9875 0.1404
vn 0.4281 -0.1430 0.8923
vn 0.8537 0.4012 0.3321
vn 0.5811 -0.7016 0.4124
vt 0.550384 0.206938
vt 0.375000 0.305791
vt 0.375000 0.049496
vt 0.180791 0.500000
vt 0.330928 0.574320
vt 0.125000 0.700504
vt 0.804283 0.500000
vt 0.842867 0.681766
vt 0.658516 0.626313
vt 0.875000 0.500000
vt 0.501754 0.540833
vt 0.565165 0.799791
vt 0.325310 0.750000
vt 0.604031 0.069198
vt 0.375000 1.000000
vt 0.375000 0.799690
vt 0.578028 1.000000
vt 0.615335 0.592735
vt 0.589707 0.775249
vt 0.581909 0.353207
s 0
g Cube_Material
usemtl Material
f 180/231/130 182/232/130 181/233/130
f 182/234/131 185/235/131 181/236/131
f 186/237/132 183/238/132 187/239/132
f 183/238/133 186/237/133 180/240/133
f 188/241/134 179/242/134 184/243/134 185/235/134
f 181/233/135 183/244/135 180/231/135
f 181/245/136 184/246/136 179/242/136 183/247/136
f 185/235/137 184/243/137 181/236/137
f 187/248/138 183/238/138 179/249/138
f 179/242/139 188/241/139 187/248/139
f 188/241/140 185/235/140 182/232/140 186/250/140
f 188/241/141 186/250/141 187/248/141
f 182/232/142 180/231/142 186/250/142
o Cube
v 0.021969 -0.111615 -4.430262
v 0.242307 -0.053293 -5.176760
v 0.517003 -0.248548 -4.822331
v 0.586628 0.142642 -4.988059
v -0.070403 -0.229131 -4.877001
v 0.454055 -0.074590 -4.439873
v 0.615060 0.214557 -4.622438
v 0.096994 0.348719 -5.037188
v -0.074583 0.316571 -4.657753
v 0.242767 0.461550 -4.629935
vn 0.6049 -0.3995 -0.6889
vn 0.9808 -0.1910 -0.0387
vn -0.9053 0.1524 -0.3965
vn -0.6921 0.0004 -0.7218
vn 0.0981 0.3666 0.9252
vn 0.0171 -0.8701 -0.4926
vn 0.0016 -0.9434 0.3316
vn 0.9020 -0.3174 0.2928
vn -0.9691 -0.0983 0.2262
vn -0.2622 0.4060 0.8755
vn 0.4589 0.8352 -0.3031
vn -0.4054 0.9079 -0.1064
vn 0.2560 0.3983 -0.8808
vt 0.550384 0.206938
vt 0.375000 0.305791
vt 0.375000 0.049496
vt 0.180791 0.500000
vt 0.330928 0.574320
vt 0.125000 0.700504
vt 0.804283 0.500000
vt 0.842867 0.681766
vt 0.658516 0.626313
vt 0.875000 0.500000
vt 0.501754 0.540833
vt 0.565165 0.799791
vt 0.325310 0.750000
vt 0.604031 0.069198
vt 0.375000 1.000000
vt 0.375000 0.799690
vt 0.578028 1.000000
vt 0.615335 0.592735
vt 0.589707 0.775249
vt 0.581909 0.353207
s 0
g Cube_Material
usemtl Material
f 190/251/143 192/252/143 191/253/143
f 192/254/144 195/255/144 191/256/144
f 196/257/145 193/258/145 197/259/145
f 193/258/146 196/257/146 190/260/146
f 198/261/147 189/262/147 194/263/147 195/255/147
f 191/253/148 193/264/148 190/251/148
f 191/265/149 194/266/149 189/262/149 193/267/149
f 195/255/150 194/263/150 191/256/150
f 197/268/151 193/258/151 189/269/151
f 189/262/152 198/261/152 197/268/152
f 198/261/153 195/255/153 192/252/153 196/270/153
f 198/261/154 196/270/154 197/268/154
f 192/252/155 190/251/155 196/270/155
o Cube
v 3.110656 -0.719627 -2.681478
v 2.880135 -0.140029 -3.072651
v 3.275554 -0.365092 -3.149067
v 3.256123 -0.002104 -2.967999
v 2.793176 -0.552728 -2.943813
v 3.440716 -0.520402 -2.818594
v 3.478517 -0.171890 -2.753557
v 2.860021 -0.042814 -2.660248
v 2.931071 -0.362521 -2.441242
v 3.197225 -0.167159 -2.439680
vn 0.0832 0.4484 -0.8900
vn 0.7725 0.3161 -0.5508
vn -0.9615 -0.0262 0.2737
vn -0.9798 0.1784 -0.0898
vn 0.6262 -0.3274 0.7076
vn -0.3064 -0.2242 -0.9251
vn 0.1495 -0.8126 -0.5634
vn 0.8921 -0.0125 -0.4517
vn -0.6683 -0.6163 0.4166
vn 0.3044 -0.4215 0.8542
vn 0.2391 0.9189 0.3137
vn -0.3528 0.4742 0.8067
vn -0.2770 0.9321 -0.2332
vt 0.550384 0.206938
vt 0.375000 0.305791
vt 0.375000 0.049496
vt 0.180791 0.500000
vt 0.330928 0.574320
vt 0.125000 0.700504
vt 0.804283 0.500000
vt 0.842867 0.681766
vt 0.658516 0.626313
vt 0.875000 0.500000
vt 0.501754 0.540833
vt 0.565165 0.799791
vt 0.325310 0.750000
vt 0.604031 0.069198
vt 0.375000 1.000000
vt 0.375000 0.799690
vt 0.578028 1.000000
vt 0.615335 0.592735
vt 0.589707 0.775249
vt 0.581909 0.353207
s 0
g Cube_Material
usemtl Material
f 200/271/156 202/272/156 201/273/156
f 202/274/157 205/275/157 201/276/157
f 206/277/158 203/278/158 207/279/158
f 203/278/159 206/277/159 200/280/159
f 208/281/160 199/282/160 204/283/160 205/275/160
f 201/273/161 203/284/161 200/271/161
f 201/285/162 204/286/162 199/282/162 203/287/162
f 205/275/163 204/283/163 201/276/163
f 207/288/164 203/278/164 199/289/164
f 199/282/165 208/281/165 207/288/165
f 208/281/166 205/275/166 202/272/166 206/290/166
f 208/281/167 206/290/167 207/288/167
f 202/272/168 200/271/168 206/290/168
o Cube
v -4.474248 0.272640 0.157940
v -4.191468 -0.195421 -0.632907
v -3.882834 0.252842 -0.374451
v -4.164366 0.310961 -0.820122
v -4.327632 -0.238262 -0.074969
v -4.184282 0.609695 -0.138456
v -4.296535 0.683560 -0.584252
v -4.714930 -0.028169 -0.702694
v -4.900815 0.163097 -0.262712
v -4.807995 0.486976 -0.531761
vn 0.8055 -0.2429 -0.5405
vn 0.7499 0.5227 -0.4055
vn -0.5921 -0.7999 0.0976
vn -0.2840 -0.9482 -0.1421
vn -0.3982 0.8396 0.3695
vn 0.7752 -0.6156 0.1419
vn 0.6669 -0.0571 0.7430
vn 0.7370 0.6717 -0.0743
vn -0.5548 -0.4717 0.6854
vn -0.6378 0.5920 0.4926
vn -0.3093 0.3302 -0.8918
vn -0.9270 -0.0438 -0.3726
vn 0.0140 -0.3474 -0.9376
vt 0.550384 0.206938
vt 0.375000 0.305791
vt 0.375000 0.049496
vt 0.180791 0.500000
vt 0.330928 0.574320
vt 0.125000 0.700504
vt 0.804283 0.500000
vt 0.842867 0.681766
vt 0.658516 0.626313
vt 0.875000 0.500000
vt 0.501754 0.540833
vt 0.565165 0.799791
vt 0.325310 0.750000
vt 0.604031 0.069198
vt 0.375000 1.000000
vt 0.375000 0.799690
vt 0.578028 1.000000
vt 0.615335 0.592735
vt 0.589707 0.775249
vt 0.581909 0.353207
s 0
g Cube_Material
usemtl Material
f 210/291/169 212/292/169 211/293/169
f 212/294/170 215/295/170 211/296/170
f 216/297/171 213/298/171 217/299/171
f 213/298/172 216/297/172 210/300/172
f 218/301/173 209/302/173 214/303/173 215/295/173
f 211/293/174 213/304/174 210/291/174
f 211/305/175 214/306/175 209/302/175 213/307/175
f 215/295/176 214/303/176 211/296/176
f 217/308/177 213/298/177 209/309/177
f 209/302/178 218/301/178 217/308/178
f 218/301/179 215/295/179 212/292/179 216/310/179
f 218/301/180 216/310/180 217/308/180
f 212/292/181 210/291/181 216/310/181
o Cube
v 1.698901 0.057656 -2.835626
v 2.638681 -0.302790 -2.548518
v 2.535352 0.283576 -2.823575
v 2.759524 -0.166061 -3.107960
v 2.060687 -0.148864 -2.360721
v 2.097153 0.294159 -3.187522
v 2.421166 -0.003006 -3.439734
v 2.365840 -0.720931 -2.886673
v 1.834542 -0.573757 -2.985473
v 2.091412 -0.498584 -3.371043
vn 0.9191 0.2881 0.2689
vn 0.6884 0.6005 -0.4069
vn -0.3149 -0.7279 0.6091
vn 0.0703 -0.6546 0.7527
vn -0.6220 0.1809 -0.7618
vn 0.3819 0.4468 0.8090
vn -0.2388 0.8603 0.4504
vn 0.3905 0.8049 -0.4468
vn -0.8177 -0.2932 0.4954
vn -0.8273 -0.0448 -0.5599
vn 0.5276 -0.5436 -0.6528
vn -0.1989 -0.9285 -0.3135
vn 0.8222 -0.5679 0.0388
vt 0.550384 0.206938
vt 0.375000 0.305791
vt 0.375000 0.049496
vt 0.180791 0.500000
vt 0.330928 0.574320
vt 0.125000 0.700504
vt 0.804283 0.500000
vt 0.842867 0.681766
vt 0.658516 0.626313
vt 0.875000 0.500000
vt 0.501754 0.540833
vt 0.565165 0.799791
vt 0.325310 0.750000
vt 0.604031 0.069198
vt 0.375000 1.000000
vt 0.375000 0.799690
vt 0.578028 1.000000
vt 0.615335 0.592735
vt 0.589707 0.775249
vt 0.581909 0.353207
s 0
g Cube_Material
usemtl Material
f 220/311/182 222/312/182 221/313/182
f 222/314/183 225/315/183 221/316/183
f 226/317/184 223/318/184 227/319/184
f 223/318/185 226/317/185 220/320/185
f 228/321/186 219/322/186 224/323/186 225/315/186
f 221/313/187 223/324/187 220/311/187
f 221/325/188 224/326/188 219/322/188 223/327/188
f 225/315/189 224/323/189 221/316/189
f 227/328/190 223/318/190 219/329/190
f 219/322/191 228/321/191 227/328/191
f 228/321/192 225/315/192 222/312/192 226/330/192
f 228/321/193 226/330/193 227/328/193
f 222/312/194 220/311/194 226/330/194
o Cube
v -3.640583 0.012094 -0.223594
v -4.132399 0.676154 -0.297835
v -4.290378 0.185221 -0.363502
v -4.218253 0.475335 -0.709997
v -3.835051 0.414481 0.002286
v -3.971753 -0.089327 -0.527980
v -4.034011 0.150128 -0.844535
v -3.741011 0.744439 -0.563611
v -3.444613 0.423166 -0.485878
v -3.610060 0.362042 -0.813464
vn -0.9526 0.2995 0.0525
vn -0.8499 -0.3033 -0.4308
vn 0.5844 0.6550 0.4790
vn 0.2071 0.8298 0.5182
vn 0.5097 -0.7130 -0.4815
vn -0.6558 0.1112 0.7467
vn -0.3211 -0.6439 0.6945
vn -0.7082 -0.6230 -0.3320
vn 0.7804 0.0265 0.6247
vn 0.7790 -0.5562 -0.2896
vn -0.0668 0.4531 -0.8889
vn 0.7060 0.5407 -0.4574
vn -0.3807 0.8600 -0.3397
vt 0.550384 0.206938
vt 0.375000 0.305791
vt 0.375000 0.049496
vt 0.180791 0.500000
vt 0.330928 0.574320
vt 0.125000 0.700504
vt 0.804283 0.500000
vt 0.842867 0.681766
vt 0.658516 0.626313
vt 0.875000 0.500000
vt 0.501754 0.540833
vt 0.565165 0.799791
vt 0.325310 0.750000
vt 0.604031 0.069198
vt 0.375000 1.000000
vt 0.375000 0.799690
vt 0.578028 1.000000
vt 0.615335 0.592735
vt 0.589707 0.775249
vt 0.581909 0.353207
s 0
g Cube_Material
usemtl Material
f 230/331/195 232/332/195 231/333/195
f 232/334/196 235/335/196 231/336/196
f 236/337/197 233/338/197 237/339/197
f 233/338/198 236/337/198 230/340/198
f 238/341/199 229/342/199 234/343/199 235/335/199
f 231/333/200 233/344/200 230/331/200
f 231/345/201 234/346/201 229/342/201 233/347/201
f 235/335/202 234/343/202 231/336/202
f 237/348/203 233/338/203 229/349/203
f 229/342/204 238/341/204 237/348/204
f 238/341/205 235/335/205 232/332/205 236/350/205
f 238/341/206 236/350/206 237/348/206
f 232/332/207 230/331/207 236/350/207
o Cube
v -1.681341 0.505078 -2.159519
v -1.956122 0.243536 -3.099189
v -1.417284 0.058513 -2.818791
v -1.439167 0.454250 -3.212909
v -2.098117 0.225801 -2.509331
v -1.212928 0.426272 -2.462083
v -1.150809 0.666470 -2.885463
v -2.000904 0.823121 -3.045135
v -1.926637 0.969607 -2.528348
v -1.553254 1.067501 -2.768130
vn 0.1284 -0.6962 -0.7062
vn 0.8007 -0.3999 -0.4460
vn -0.9712 0.2258 0.0756
vn -0.9705 -0.0530 -0.2352
vn 0.5903 0.5808 0.5605
vn -0.2783 -0.9557 -0.0957
vn 0.1473 -0.7905 0.5945
vn 0.9074 -0.4085 -0.0986
vn -0.7001 0.1791 0.6912
vn 0.2609 0.6810 0.6842
vn 0.2531 0.5984 -0.7602
vn -0.3688 0.9068 -0.2040
vn -0.2420 0.0715 -0.9676
vt 0.550384 0.206938
vt 0.375000 0.305791
vt 0.375000 0.049496
vt 0.180791 0.500000
vt 0.330928 0.574320
vt 0.125000 0.700504
vt 0.804283 0.500000
vt 0.842867 0.681766
vt 0.658516 0.626313
vt 0.875000 0.500000
vt 0.501754 0.540833
vt 0.565165 0.799791
vt 0.325310 0.750000
vt 0.604031 0.069198
vt 0.375000 1.000000
vt 0.375000 0.799690
vt 0.578028 1.000000
vt 0.615335 0.592735
vt 0.589707 0.775249
vt 0.581909 0.353207
s 0
g Cube_Material
usemtl Material
f 240/351/208 242/352/208 241/353/208
f 242/354/209 245/355/209 241/356/209
f 246/357/210 243/358/210 247/359/210
f 243/358/211 246/357/211 240/360/211
f 248/361/212 239/362/212 244/363/212 245/355/212
f 241/353/213 243/364/213 240/351/213
f 241/365/214 244/366/214 239/362/214 243/367/214
f 245/355/215 244/363/215 241/356/215
f 247/368/216 243/358/216 239/369/216
f 239/362/217 248/361/217 247/368/217
f 248/361/218 245/355/218 242/352/218 246/370/218
f 248/361/219 246/370/219 247/368/219
f 242/352/220 240/351/220 246/370/220
o Cube
v -2.296376 0.248165 -2.111645
v -2.545001 0.687151 -2.897742
v -2.187419 0.912165 -2.492680
v -2.678045 1.058253 -2.550827
v -2.295620 0.238437 -2.675313
v -2.290041 0.758880 -2.018898
v -2.656236 1.009410 -2.106813
v -2.989075 0.509748 -2.650926
v -2.866957 0.216674 -2.264894
v -2.988975 0.591087 -2.122177
vn 0.2871 0.7071 -0.6462
vn 0.2742 0.9573 0.0918
vn -0.3303 -0.7992 -0.5022
vn -0.2375 -0.5342 -0.8113
vn -0.1299 -0.0677 0.9892
vn 0.7290 0.0676 -0.6811
vn 0.9899 -0.1150 0.0827
vn 0.4655 0.8076 0.3621
vn 0.0505 -0.9986 0.0173
vn -0.2157 -0.4084 0.8870
vn -0.8324 0.5542 0.0002
vn -0.9437 -0.3268 0.0504
vn -0.5643 0.4467 -0.6943
vt 0.550384 0.206938
vt 0.375000 0.305791
vt 0.375000 0.049496
vt 0.180791 0.500000
vt 0.330928 0.574320
vt 0.125000 0.700504
vt 0.804283 0.500000
vt 0.842867 0.681766
vt 0.658516 0.626313
vt 0.875000 0.500000
vt 0.501754 0.540833
vt 0.565165 0.799791
vt 0.325310 0.750000
vt 0.604031 0.069198
vt 0.375000 1.000000
vt 0.375000 0.799690
vt 0.578028 1.000000
vt 0.615335 0.592735
vt 0.589707 0.775249
vt 0.581909 0.353207
s 0
g Cube_Material
usemtl Material
f 250/371/221 252/372/221 251/373/221
f 252/374/222 255/375/222 251/376/222
f 256/377/223 253/378/223 257/379/223
f 253/378/224 256/377/224 250/380/224
f 258/381/225 249/382/225 254/383/225 255/375/225
f 251/373/226 253/384/226 250/371/226
f 251/385/227 254/386/227 249/382/227 253/387/227
f 255/375/228 254/383/228 251/376/228
f 257/388/229 253/378/229 249/389/229
f 249/382/230 258/381/230 257/388/230
f 258/381/231 255/375/231 252/372/231 256/390/231
f 258/381/232 256/390/232 257/388/232
f 252/372/233 250/371/233 256/390/233
o Cube
v 2.815916 0.579855 0.101241
v 2.998595 0.457719 0.681609
v 3.209077 0.657436 0.422719
v 3.275572 0.333167 0.509864
v 2.743234 0.620901 0.466370
v 3.160278 0.560878 0.102721
v 3.296967 0.317445 0.213923
v 2.892056 0.152871 0.528165
v 2.751793 0.215374 0.233725
v 3.007379 0.112563 0.194394
vn 0.5990 0.3201 0.7340
vn 0.9747 0.2157 0.0590
vn -0.8959 -0.2351 0.3769
vn -0.6843 -0.1227 0.7188
vn 0.1001 -0.2320 -0.9676
vn -0.0053 0.7938 0.6081
vn -0.0315 0.9797 -0.1979
vn 0.8884 0.3840 -0.2514
vn -0.9740 0.0969 -0.2048
vn -0.2583 -0.2896 -0.9216
vn 0.4881 -0.8536 0.1819
vn -0.3755 -0.9267 -0.0178
vn 0.2775 -0.5076 0.8157
vt 0.550384 0.206938
vt 0.375000 0.305791
vt 0.375000 0.049496
vt 0.180791 0.500000
vt 0.330928 0.574320
vt 0.125000 0.700504
vt 0.804283 0.500000
vt 0.842867 0.681766
vt 0.658516 0.626313
vt 0.875000 0.500000
vt 0.501754 0.540833
vt 0.565165 0.799791
vt 0.325310 0.750000
vt 0.604031 0.069198
vt 0.375000 1.000000
vt 0.375000 0.799690
vt 0.578028 1.000000
vt 0.615335 0.592735
vt 0.589707 0.775249
vt 0.581909 0.353207
s 0
g Cube_Material
usemtl Material
f 260/391/234 262/392/234 261/393/234
f 262/394/235 265/395/235 261/396/235
f 266/397/236 263/398/236 267/399/236
f 263/398/237 266/397/237 260/400/237
f 268/401/238 259/402/238 264/403/238 265/395/238
f 261/393/239 263/404/239 260/391/239
f 261/405/240 264/406/240 259/402/240 263/407/240
f 265/395/241 264/403/241 261/396/241
f 267/408/242 263/398/242 259/409/242
f 259/402/243 268/401/243 267/408/243
f 268/401/244 265/395/244 262/392/244 266/410/244
f 268/401/245 266/410/245 267/408/245
f 262/392/246 260/391/246 266/410/246
o Cube
v -0.714694 -0.041376 2.690078
v -0.341486 0.687079 3.087884
v -0.134060 0.433700 2.621028
v 0.069467 0.382502 3.077008
v -0.783423 0.481388 2.843951
v -0.216507 -0.054443 2.603867
v 0.066285 -0.031464 2.941072
v -0.422432 0.319043 3.452421
v -0.679961 -0.049530 3.265401
v -0.288885 -0.161017 3.299542
vn 0.5837 0.7937 -0.1714
vn 0.9114 0.1221 -0.3931
vn -0.7920 0.2774 0.5439
vn -0.5783 0.6348 0.5125
vn 0.0592 -0.9876 -0.1451
vn -0.1134 0.8512 -0.5124
vn -0.2484 0.1649 -0.9545
vn 0.7654 -0.1070 -0.6346
vn -0.9875 -0.1468 0.0575
vn -0.2744 -0.9616 0.0029
vn 0.6664 -0.1395 0.7325
vn -0.1784 -0.3433 0.9221
vn 0.4466 0.5782 0.6829
vt 0.550384 0.206938
vt 0.375000 0.305791
vt 0.375000 0.049496
vt 0.180791 0.500000
vt 0.330928 0.574320
vt 0.125000 0.700504
vt 0.804283 0.500000
vt 0.842867 0.681766
vt 0.658516 0.626313
vt 0.875000 0.500000
vt 0.501754 0.540833
vt 0.565165 0.799791
vt 0.325310 0.750000
vt 0.604031 0.069198
vt 0.375000 1.000000
vt 0.375000 0.799690
vt 0.578028 1.000000
vt 0.615335 0.592735
vt 0.589707 0.775249
vt 0.581909 0.353207
s 0
g Cube_Material
usemtl Material
f 270/411/247 272/412/247 271/413/247
f 272/414/248 275/415/248 271/416/248
f 276/417/249 273/418/249 277/419/249
f 273/418/250 276/417/250 270/420/250
f 278/421/251 269/422/251 274/423/251 275/415/251
f 271/413/252 273/424/252 270/411/252
f 271/425/253 274/426/253 269/422/253 273/427/253
f 275/415/254 274/423/254 271/416/254
f 277/428/255 273/418/255 269/429/255
f 269/422/256 278/421/256 277/428/256
f 278/421/257 275/415/257 272/412/257 276/430/257
f 278/421/258 276/430/258 277/428/258
f 272/412/259 270/411/259 276/430/259
o Cube
v -2.713374 0.735070 -0.983726
v -2.121095 0.460344 -1.181117
v -2.505493 0.313537 -1.296689
v -2.288575 0.146041 -1.038946
v -2.357038 0.793868 -1.181309
v -2.769423 0.364508 -1.040598
v -2.577976 0.143031 -0.887653
v -2.117259 0.501268 -0.790309
v -2.408872 0.691256 -0.680391
v -2.451114 0.394908 -0.617579
vn 0.4262 -0.5515 -0.7171
vn -0.2036 -0.8903 -0.4072
vn 0.5894 0.7773 0.2202
vn 0.8145 0.5761 -0.0683
vn -0.7934 -0.0836 0.6030
vn 0.2275 0.1604 -0.9605
vn -0.5670 0.2922 -0.7702
vn -0.5353 -0.7417 -0.4041
vn -0.0534 0.9793 0.1951
vn -0.6665 0.2443 0.7043
vn 0.4223 -0.6997 0.5762
vn 0.4227 0.1299 0.8969
vn 0.8891 -0.4561 0.0390
vt 0.550384 0.206938
vt 0.375000 0.305791
vt 0.375000 0.049496
vt 0.180791 0.500000
vt 0.330928 0.574320
vt 0.125000 0.700504
vt 0.804283 0.500000
vt 0.842867 0.681766
vt 0.658516 0.626313
vt 0.875000 0.500000
vt 0.501754 0.540833
vt 0.565165 0.799791
vt 0.325310 0.750000
vt 0.604031 0.069198
vt 0.375000 1.000000
vt 0.375000 0.799690
vt 0.578028 1.000000
vt 0.615335 0.592735
vt 0.589707 0.775249
vt 0.581909 0.353207
s 0
g Cube_Material
usemtl Material
f 280/431/260 282/432/260 281/433/260
f 282/434/261 285/435/261 281/436/261
f 286/437/262 283/438/262 287/439/262
f 283/438/263 286/437/263 280/440/263
f 288/441/264 279/442/264 284/443/264 285/435/264
f 281/433/265 283/444/265 280/431/265
f 281/445/266 284/446/266 279/442/266 283/447/266
f 285/435/267 284/443/267 281/436/267
f 287/448/268 283/438/268 279/449/268
f 279/442/269 288/441/269 287/448/269
f 288/441/270 285/435/270 282/432/270 286/450/270
f 288/441/271 286/450/271 287/448/271
f 282/432/272 280/431/272 286/450/272
o Cube
v -0.905514 -0.461944 2.576324
v -0.288615 0.044774 1.819264
v -0.060886 -0.455401 2.235495
v 0.073777 0.131218 2.313024
v -0.824165 -0.322221 1.932275
v -0.326313 -0.464446 2.772250
v -0.053964 -0.007700 2.804834
v -0.575956 0.483784 2.174912
v -0.969012 0.230670 2.532751
v -0.568221 0.355746 2.791847
vn 0.8104 -0.1100 -0.5755
vn 0.9535 -0.2425 0.1791
vn -0.7445 0.3920 -0.5405
vn -0.4326 0.3794 -0.8179
vn -0.2148 -0.0866 0.9728
vn 0.2181 -0.5637 -0.7967
vn -0.0484 -0.9891 -0.1388
vn 0.7828 -0.4938 0.3788
vn -0.9843 -0.0994 -0.1459
vn -0.5435 0.0030 0.8394
vn 0.4826 0.8382 0.2540
vn -0.4027 0.8952 0.1908
vn 0.4941 0.7192 -0.4885
vt 0.550384 0.206938
vt 0.375000 0.305791
vt 0.375000 0.049496
vt 0.180791 0.500000
vt 0.330928 0.574320
vt 0.125000 0.700504
vt 0.804283 0.500000
vt 0.842867 0.681766
vt 0.658516 0.626313
vt 0.875000 0.500000
vt 0.501754 0.540833
vt 0.565165 0.799791
vt 0.325310 0.750000
vt 0.604031 0.069198
vt 0.375000 1.000000
vt 0.375000 0.799690
vt 0.578028 1.000000
vt 0.615335 0.592735
vt 0.589707 0.775249
vt 0.581909 0.353207
s 0
g Cube_Material
usemtl Material
f 290/451/273 292/452/273 291/453/273
f 292/454/274 295/455/274 291/456/274
f 296/457/275 293/458/275 297/459/275
f 293/458/276 296/457/276 290/460/276
f 298/461/277 289/462/277 294/463/277 295/455/277
f 291/453/278 293/464/278 290/451/278
f 291/465/279 294/466/279 289/462/279 293/467/279
f 295/455/280 294/463/280 291/456/280
f 297/468/281 293/458/281 289/469/281
f 289/462/282 298/461/282 297/468/282
f 298/461/283 295/455/283 292/452/283 296/470/283
f 298/461/284 296/470/284 297/468/284
f 292/452/285 290/451/285 296/470/285
o Cube
v -1.416968 0.212167 0.448586
v -1.672776 -0.063745 1.161259
v -1.739988 -0.303610 0.721990
v -2.063658 -0.083858 0.933031
v -1.291965 0.070729 0.896864
v -1.783387 -0.035407 0.377593
v -2.112632 0.042944 0.571908
v -1.816182 0.374977 1.110956
v -1.637431 0.551060 0.760223
v -1.982548 0.469304 0.690877
vn -0.2451 -0.8346 0.4933
vn -0.6301 -0.7554 -0.1798
vn 0.5728 0.5774 0.5818
vn 0.4889 0.2554 0.8341
vn -0.2585 0.4338 -0.8631
vn 0.5175 -0.7818 0.3477
vn 0.6225 -0.6335 -0.4596
vn -0.4701 -0.7241 -0.5046
vn 0.8172 0.5745 -0.0466
vn -0.0108 0.6730 -0.7395
vn -0.9038 0.2758 0.3272
vn -0.2781 0.9078 0.3140
vn -0.5007 -0.0647 0.8632
vt 0.550384 0.206938
vt 0.375000 0.305791
vt 0.375000 0.049496
vt 0.180791 0.500000
vt 0.330928 0.574320
vt 0.125000 0.700504
vt 0.804283 0.500000
vt 0.842867 0.681766
vt 0.658516 0.626313
vt 0.875000 0.500000
vt 0.501754 0.540833
vt 0.565165 0.799791
vt 0.325310 0.750000
vt 0.604031 0.069198
vt 0.375000 1.000000
vt 0.375000 0.799690
vt 0.578028 1.000000
vt 0.615335 0.592735
vt 0.589707 0.775249
vt 0.581909 0.353207
s 0
g Cube_Material
usemtl Material
f 300/471/286 302/472/286 301/473/286
f 302/474/287 305/475/287 301/476/287
f 306/477/288 303/478/288 307/479/288
f 303/478/289 306/477/289 300/480/289
f 308/481/290 299/482/290 304/483/290 305/475/290
f 301/473/291 303/484/291 300/471/291
f 301/485/292 304/486/292 299/482/292 303/487/292
f 305/475/293 304/483/293 301/476/293
f 307/488/294 303/478/294 299/489/294
f 299/482/295 308/481/295 307/488/295
f 308/481/296 305/475/296 302/472/296 306/490/296
f 308/481/297 306/490/297 307/488/297
f 302/472/298 300/471/298 306/490/298
o Cube
v -0.097502 0.312033 1.589296
v -0.584040 0.480470 2.116285
v -0.259059 0.154995 2.156090
v -0.652001 0.072519 2.093354
v -0.255932 0.627077 1.860178
v -0.166558 -0.025707 1.810237
v -0.500257 -0.142397 1.858363
v -0.793600 0.415524 1.752917
v -0.539479 0.376395 1.454052
v -0.658553 0.079437 1.536441
vn -0.1514 -0.0303 0.9880
vn 0.0419 -0.7237 0.6889
vn -0.2801 0.8919 -0.3550
vn -0.3744 0.9259 0.0504
vn 0.2580 -0.6512 -0.7137
vn 0.3919 0.4868 0.7807
vn 0.9480 0.1069 0.2998
vn 0.3489 -0.7891 0.5056
vn 0.2995 0.7042 -0.6438
vn 0.2285 -0.3443 -0.9106
vn -0.8855 -0.4647 0.0046
vn -0.7486 0.1192 -0.6522
vn -0.8692 0.1178 0.4802
vt 0.550384 0.206938
vt 0.375000 0.305791
vt 0.375000 0.049496
vt 0.180791 0.500000
vt 0.330928 0.574320
vt 0.125000 0.700504
vt 0.804283 0.500000
vt 0.842867 0.681766
vt 0.658516 0.626313
vt 0.875000 0.500000
vt 0.501754 0.540833
vt 0.565165 0.799791
vt 0.325310 0.750000
vt 0.604031 0.069198
vt 0.375000 1.000000
vt 0.375000 0.799690
vt 0.578028 1.000000
vt 0.615335 0.592735
vt 0.589707 0.775249
vt 0.581909 0.353207
s 0
g Cube_Material
usemtl Material
f 310/491/299 312/492/299 311/493/299
f 312/494/300 315/495/300 311/496/300
f 316/497/301 313/498/301 317/499/301
f 313/498/302 316/497/302 310/500/302
f 318/501/303 309/502/303 314/503/303 315/495/303
f 311/493/304 313/504/304 310/491/304
f 311/505/305 314/506/305 309/502/305 313/507/305
f 315/495/306 314/503/306 311/496/306
f 317/508/307 313/498/307 309/509/307
f 309/502/308 318/501/308 317/508/308
f 318/501/309 315/495/309 312/492/309 316/510/309
f 318/501/310 316/510/310 317/508/310
f 312/492/311 310/491/311 316/510/311
o Cube
v 0.460761 0.952944 -1.479506
v 0.123418 0.501197 -0.982211
v 0.587887 0.510894 -1.060243
v 0.338958 0.210253 -1.200232
v 0.202750 0.926458 -1.107205
v 0.689609 0.605068 -1.445257
v 0.534475 0.279417 -1.494433
v -0.077612 0.462697 -1.363917
v 0.060241 0.738558 -1.622243
v 0.190794 0.437537 -1.699651
vn 0.1522 -0.5180 0.8417
vn 0.6696 -0.6865 0.2836
vn -0.8688 0.4914 0.0611
vn -0.8597 0.2850 0.4240
vn 0.4352 0.0675 -0.8978
vn 0.1552 0.2518 0.9552
vn 0.6848 0.5954 0.4202
vn 0.8880 -0.4421 0.1265
vn -0.4005 0.8909 -0.2142
vn 0.1660 0.3125 -0.9353
vn -0.3325 -0.8917 -0.3072
vn -0.7748 -0.1802 -0.6059
vn -0.5840 -0.7174 0.3799
vt 0.550384 0.206938
vt 0.375000 0.305791
vt 0.375000 0.049496
vt 0.180791 0.500000
vt 0.330928 0.574320
vt 0.125000 0.700504
vt 0.804283 0.500000
vt 0.842867 0.681766
vt 0.658516 0.626313
vt 0.875000 0.500000
vt 0.501754 0.540833
vt 0.565165 0.799791
vt 0.325310 0.750000
vt 0.604031 0.069198
vt 0.375000 1.000000
vt 0.375000 0.799690
vt 0.578028 1.000000
vt 0.615335 0.592735
vt 0.589707 0.775249
vt 0.581909 0.353207
s 0
g Cube_Material
usemtl Material
f 320/511/312 322/512/312 321/513/312
f 322/514/313 325/515/313 321/516/313
f 326/517/314 323/518/314 327/519/314
f 323/518/315 326/517/315 320/520/315
f 328/521/316 319/522/316 324/523/316 325/515/316
f 321/513/317 323/524/317 320/511/317
f 321/525/318 324/526/318 319/522/318 323/527/318
f 325/515/319 324/523/319 321/516/319
f 327/528/320 323/518/320 319/529/320
f 319/522/321 328/521/321 327/528/321
f 328/521/322 325/515/322 322/512/322 326/530/322
f 328/521/323 326/530/323 327/528/323
f 322/512/324 320/511/324 326/530/324
o Cube
v 4.992476 0.405621 4.162340
v 4.059416 0.798558 4.250251
v 4.221294 0.211705 4.437050
v 3.927918 0.317598 3.971314
v 4.646294 0.851109 4.402951
v 4.620988 -0.018687 4.131857
v 4.254450 -0.001939 3.803920
v 4.243899 0.873338 3.699653
v 4.767594 0.733477 3.656105
v 4.507833 0.405695 3.475133
vn -0.8511 -0.0691 0.5204
vn -0.6219 -0.7513 0.2209
vn 0.2478 0.9624 -0.1113
vn -0.1136 0.9889 0.0962
vn 0.5921 -0.6265 -0.5069
vn -0.2642 0.2256 0.9377
vn 0.3844 -0.2849 0.8781
vn -0.3015 -0.9081 0.2906
vn 0.7982 0.6014 0.0349
vn 0.7762 -0.3129 -0.5474
vn -0.6383 -0.0986 -0.7635
vn 0.0472 0.4539 -0.8898
vn -0.8894 0.3856 -0.2456
vt 0.550384 0.206938
vt 0.375000 0.305791
vt 0.375000 0.049496
vt 0.180791 0.500000
vt 0.330928 0.574320
vt 0.125000 0.700504
vt 0.804283 0.500000
vt 0.842867 0.681766
vt 0.658516 0.626313
vt 0.875000 0.500000
vt 0.501754 0.540833
vt 0.565165 0.799791
vt 0.325310 0.750000
vt 0.604031 0.069198
vt 0.375000 1.000000
vt 0.375000 0.799690
vt 0.578028 1.000000
vt 0.615335 0.592735
vt 0.589707 0.775249
vt 0.581909 0.353207
s 0
g Cube_Material
usemtl Material
f 330/531/325 332/532/325 331/533/325
f 332/534/326 335/535/326 331/536/326
f 336/537/327 333/538/327 337/539/327
f 333/538/328 336/537/328 330/540/328
f 338/541/329 329/542/329 334/543/329 335/535/329
f 331/533/330 333/544/330 330/531/330
f 331/545/331 334/546/331 329/542/331 333/547/331
f 335/535/332 334/543/332 331/536/332
f 337/548/333 333/538/333 329/549/333
f 329/542/334 338/541/334 337/548/334
f 338/541/335 335/535/335 332/532/335 336/550/335
f 338/541/336 336/550/336 337/548/336
f 332/532/337 330/531/337 336/550/337
o Cube
v 6.356567 0.558767 -0.276690
v 6.050851 0.418973 -1.081536
v 6.240804 0.027052 -0.751334
v 6.487483 0.200307 -1.126287
v 5.944525 0.597173 -0.602078
v 6.585330 0.172055 -0.458618
v 6.782802 0.199167 -0.831006
v 6.391326 0.788100 -1.100015
v 6.516457 0.914082 -0.668373
v 6.800727 0.698178 -0.828243
vn -0.4089 -0.6957 -0.5905
vn 0.2572 -0.9305 -0.2608
vn -0.4914 0.8640 -0.1097
vn -0.6888 0.6162 -0.3818
vn 0.8130 0.0730 0.5777
vn -0.8900 -0.4551 -0.0282
vn -0.4978 -0.5147 0.6980
vn 0.3143 -0.9443 0.0979
vn -0.3580 0.7596 0.5430
vn 0.6612 0.4012 0.6339
vn 0.6307 0.0661 -0.7732
vn 0.4243 0.8288 -0.3649
vn -0.0869 0.0303 -0.9958
vt 0.550384 0.206938
vt 0.375000 0.305791
vt 0.375000 0.049496
vt 0.180791 0.500000
vt 0.330928 0.574320
vt 0.125000 0.700504
vt 0.804283 0.500000
vt 0.842867 0.681766
vt 0.658516 0.626313
vt 0.875000 0.500000
vt 0.501754 0.540833
vt 0.565165 0.799791
vt 0.325310 0.750000
vt 0.604031 0.069198
vt 0.375000 1.000000
vt 0.375000 0.799690
vt 0.578028 1.000000
vt 0.615335 0.592735
vt 0.589707 0.775249
vt 0.581909 0.353207
s 0
g Cube_Material
usemtl Material
f 340/551/338 342/552/338 341/553/338
f 342/554/339 345/555/339 341/556/339
f 346/557/340 343/558/340 347/559/340
f 343/558/341 346/557/341 340/560/341
f 348/561/342 339/562/342 344/563/342 345/555/342
f 341/553/343 343/564/343 340/551/343
f 341/565/344 344/566/344 339/562/344 343/567/344
f 345/555/345 344/563/345 341/556/345
f 347/568/346 343/558/346 339/569/346
f 339/562/347 348/561/347 347/568/347
f 348/561/348 345/555/348 342/552/348 346/570/348
f 348/561/349 346/570/349 347/568/349
f 342/552/350 340/551/350 346/570/350
o Cube
v -3.468218 0.087121 -4.116224
v -4.354965 0.079527 -3.852215
v -3.905310 0.025805 -3.490195
v -4.200617 -0.365615 -3.631737
v -3.950898 0.367430 -4.099137
v -3.505544 -0.203294 -3.693523
v -3.797500 -0.542891 -3.679926
v -4.291753 -0.269494 -4.250134
v -3.838089 -0.227863 -4.444009
v -3.855581 -0.567166 -4.205863
vn -0.6046 0.1752 0.7770
vn -0.0281 -0.3211 0.9466
vn -0.3905 0.4050 -0.8268
vn -0.6817 0.4930 -0.5407
vn 0.8194 -0.5470 -0.1714
vn -0.2916 0.8248 0.4845
vn 0.5288 0.7256 0.4403
vn 0.3254 -0.2432 0.9138
vn 0.2736 0.5205 -0.8089
vn 0.7741 -0.3900 -0.4987
vn -0.4924 -0.8703 0.0096
vn -0.2883 -0.5401 -0.7907
vn -0.9542 -0.2830 0.0966
vt 0.550384 0.206938
vt 0.375000 0.305791
vt 0.375000 0.049496
vt 0.180791 0.500000
vt 0.330928 0.574320
vt 0.125000 0.700504
vt 0.804283 0.500000
vt 0.842867 0.681766
vt 0.658516 0.626313
vt 0.875000 0.500000
vt 0.501754 0.540833
vt 0.565165 0.799791
vt 0.325310 0.750000
vt 0.604031 0.069198
vt 0.375000 1.000000
vt 0.375000 0.799690
vt 0.578028 1.000000
vt 0.615335 0.592735
vt 0.589707 0.775249
vt 0.581909 0.353207
s 0
g Cube_Material
usemtl Material
f 350/571/351 352/572/351 351/573/351
f 352/574/352 355/575/352 351/576/352
f 356/577/353 353/578/353 357/579/353
f 353/578/354 356/577/354 350/580/354
f 358/581/355 349/582/355 354/583/355 355/575/355
f 351/573/356 353/584/356 350/571/356
f 351/585/357 354/586/357 349/582/357 353/587/357
f 355/575/358 354/583/358 351/576/358
f 357/588/359 353/578/359 349/589/359
f 349/582/360 358/581/360 357/588/360
f 358/581/361 355/575/361 352/572/361 356/590/361
f 358/581/362 356/590/362 357/588/362
f 352/572/363 350/571/363 356/590/363
o Cube
v -5.334823 0.136248 1.575833
v -5.613406 0.790321 1.550535
v -5.202857 0.686192 1.411580
v -5.275998 0.873648 1.748436
v -5.648854 0.385540 1.422271
v -5.038937 0.396328 1.609179
v -5.050509 0.640348 1.852058
v -5.662790 0.640711 1.928887
v -5.562932 0.273526 1.939364
v -5.333598 0.449588 2.074157
vn 0.0618 0.8778 -0.4750
vn 0.7469 0.6366 -0.1921
vn -0.9605 -0.2583 0.1037
vn -0.9900 0.1134 -0.0844
vn 0.6324 -0.6149 0.4712
vn -0.2326 0.3122 -0.9211
vn 0.2814 -0.3360 -0.8989
vn 0.9048 0.3211 -0.2795
vn -0.5977 -0.7983 -0.0736
vn 0.3199 -0.8024 0.5038
vn 0.1002 0.5975 0.7956
vn -0.4482 -0.0965 0.8887
vn -0.3884 0.8731 0.2946
vt 0.550384 0.206938
vt 0.375000 0.305791
vt 0.375000 0.049496
vt 0.180791 0.500000
vt 0.330928 0.574320
vt 0.125000 0.700504
vt 0.804283 0.500000
vt 0.842867 0.681766
vt 0.658516 0.626313
vt 0.875000 0.500000
vt 0.501754 0.540833
vt 0.565165 0.799791
vt 0.325310 0.750000
vt 0.604031 0.069198
vt 0.375000 1.000000
vt 0.375000 0.799690
vt 0.578028 1.000000
vt 0.615335 0.592735
vt 0.589707 0.775249
vt 0.581909 0.353207
s 0
g Cube_Material
usemtl Material
f 360/591/364 362/592/364 361/593/364
f 362/594/365 365/595/365 361/596/365
f 366/597/366 363/598/366 367/599/366
f 363/598/367 366/597/367 360/600/367
f 368/601/368 359/602/368 364/603/368 365/595/368
f 361/593/369 363/604/369 360/591/369
f 361/605/370 364/606/370 359/602/370 363/607/370
f 365/595/371 364/603/371 361/596/371
f 367/608/372 363/598/372 359/609/372
f 359/602/373 368/601/373 367/608/373
f 368/601/374 365/595/374 362/592/374 366/610/374
f 368/601/375 366/610/375 367/608/375
f 362/592/376 360/591/376 366/610/376
o Cube
v -1.023047 0.057349 5.357971
v -0.505717 -0.222288 4.937476
v -0.445537 -0.099342 5.369304
v -0.313352 0.114269 5.059621
v -0.894645 -0.283506 5.117732
v -0.669950 0.203711 5.481766
v -0.456539 0.362297 5.254026
v -0.685776 0.094326 4.735458
v -0.996811 0.217451 4.929758
v -0.753140 0.426919 4.972700
vn 0.8644 -0.5023 0.0225
vn 0.8732 0.1376 0.4676
vn -0.5938 -0.3860 -0.7060
vn -0.2486 -0.6175 -0.7462
vn -0.3680 0.8279 0.4232
vn 0.2551 -0.9387 0.2317
vn -0.1630 -0.5412 0.8249
vn 0.6415 0.2002 0.7405
vn -0.9555 -0.2522 -0.1528
vn -0.6575 0.7181 0.2282
vn 0.5501 0.6175 -0.5623
vn -0.2994 0.5132 -0.8044
vn 0.6562 -0.1038 -0.7475
vt 0.550384 0.206938
vt 0.375000 0.305791
vt 0.375000 0.049496
vt 0.180791 0.500000
vt 0.330928 0.574320
vt 0.125000 0.700504
vt 0.804283 0.500000
vt 0.842867 0.681766
vt 0.658516 0.626313
vt 0.875000 0.500000
vt 0.501754 0.540833
vt 0.565165 0.799791
vt 0.325310 0.750000
vt 0.604031 0.069198
vt 0.375000 1.000000
vt 0.375000 0.799690
vt 0.578028 1.000000
vt 0.615335 0.592735
vt 0.589707 0.775249
vt 0.581909 0.353207
s 0
g Cube_Material
usemtl Material
f 370/611/377 372/612/377 371/613/377
f 372/614/378 375/615/378 371/616/378
f 376/617/379 373/618/379 377/619/379
f 373/618/380 376/617/380 370/620/380
f 378/621/381 369/622/381 374/623/381 375/615/381
f 371/613/382 373/624/382 370/611/382
f 371/625/383 374/626/383 369/622/383 373/627/383
f 375/615/384 374/623/384 371/616/384
f 377/628/385 373/618/385 369/629/385
f 369/622/386 378/621/386 377/628/386
f 378/621/387 375/615/387 372/612/387 376/630/387
f 378/621/388 376/630/388 377/628/388
f 372/612/389 370/611/389 376/630/389
o Cube
v 4.651061 0.295599 -0.633899
v 4.958317 -0.381302 -0.479876
v 4.502896 -0.268931 -0.400786
v 4.789962 -0.295759 -0.097121
v 4.864884 -0.073474 -0.801241
v 4.442199 0.128992 -0.307366
v 4.626009 0.016589 -0.009496
v 5.209129 -0.069636 -0.303095
v 5.084036 0.297221 -0.424725
v 4.983985 0.244344 -0.103657
vn -0.2180 -0.9685 0.1205
vn -0.6504 -0.5015 0.5705
vn 0.8189 0.0914 -0.5666
vn 0.7797 -0.3232 -0.5363
vn -0.3257 0.8680 0.3748
vn -0.2879 -0.7320 -0.6175
vn -0.7704 -0.0599 -0.6348
vn -0.8642 -0.2361 0.4442
vn 0.3615 0.5506 -0.7525
vn -0.0715 0.9875 0.1404
vn 0.4281 -0.1430 0.8923
vn 0.8537 0.4012 0.3321
vn 0.5811 -0.7016 0.4124
vt 0.550384 0.206938
vt 0.375000 0.305791
vt 0.375000 0.049496
vt 0.180791 0.500000
vt 0.330928 0.574320
vt 0.125000 0.700504
vt 0.804283 0.500000
vt 0.842867 0.681766
vt 0.658516 0.626313
vt 0.875000 0.500000
vt 0.501754 0.540833
vt 0.565165 0.799791
vt 0.325310 0.750000
vt 0.604031 0.069198
vt 0.375000 1.000000
vt 0.375000 0.799690
vt 0.578028 1.000000
vt 0.615335 0.592735
vt 0.589707 0.775249
vt 0.581909 0.353207
s 0
g Cube_Material
usemtl Material
f 380/631/390 382/632/390 381/633/390
f 382/634/391 385/635/391 381/636/391
f 386/637/392 383/638/392 387/639/392
f 383/638/393 386/637/393 380/640/393
f 388/641/394 379/642/394 384/643/394 385/635/394
f 381/633/395 383/644/395 380/631/395
f 381/645/396 384/646/396 379/642/396 383/647/396
f 385/635/397 384/643/397 381/636/397
f 387/648/398 383/638/398 379/649/398
f 379/642/399 388/641/399 387/648/399
f 388/641/400 385/635/400 382/632/400 386/650/400
f 388/641/401 386/650/401 387/648/401
f 382/632/402 380/631/402 386/650/402
o Cube
v 0.182777 -0.281371 -4.078235
v 0.384373 -0.228010 -4.761239
v 0.635705 -0.406658 -4.436955
v 0.699408 -0.048740 -4.588587
v 0.098262 -0.388892 -4.486976
v 0.578111 -0.247495 -4.087028
v 0.725422 0.017058 -4.254065
v 0.251421 0.139808 -4.633538
v 0.094438 0.110395 -4.286376
v 0.384795 0.243043 -4.260924
vn 0.6049 -0.3995 -0.6889
vn 0.9808 -0.1910 -0.0387
vn -0.9053 0.1524 -0.3965
vn -0.6921 0.0004 -0.7218
vn 0.0981 0.3666 0.9252
vn 0.0171 -0.8701 -0.4926
vn 0.0016 -0.9434 0.3316
vn 0.9020 -0.3174 0.2928
vn -0.9691 -0.0983 0.2262
vn -0.2622 0.4060 0.8755
vn 0.4589 0.8352 -0.3031
vn -0.4054 0.9079 -0.1064
vn 0.2560 0.3983 -0.8808
vt 0.550384 0.206938
vt 0.375000 0.305791
vt 0.375000 0.049496
vt 0.180791 0.500000
vt 0.330928 0.574320
vt 0.125000 0.700504
vt 0.804283 0.500000
vt 0.842867 0.681766
vt 0.658516 0.626313
vt 0.875000 0.500000
vt 0.501754 0.540833
vt 0.565165 0.799791
vt 0.325310 0.750000
vt 0.604031 0.069198
vt 0.375000 1.000000
vt 0.375000 0.799690
vt 0.578028 1.000000
vt 0.615335 0.592735
vt 0.589707 0.775249
vt 0.581909 0.353207
s 0
g Cube_Material
usemtl Material
f 390/651/403 392/652/403 391/653/403
f 392/654/404 395/655/404 391/656/404
f 396/657/405 393/658/405 397/659/405
f 393/658/406 396/657/406 390/660/406
f 398/661/407 389/662/407 394/663/407 395/655/407
f 391/653/408 393/664/408 390/651/408
f 391/665/409 394/666/409 389/662/409 393/667/409
f 395/655/410 394/663/410 391/656/410
f 397/668/411 393/658/411 389/669/411
f 389/662/412 398/661/412 397/668/412
f 398/661/413 395/655/413 392/652/413 396/670/413
f 398/661/414 396/670/414 397/668/414
f 392/652/415 390/651/415 396/670/415
o Cube
v 3.196172 -0.211881 -3.069460
v 2.922301 0.476713 -3.534194
v 3.392079 0.209326 -3.624981
v 3.368993 0.640574 -3.409862
v 2.818989 -0.013596 -3.381128
v 3.588300 0.024809 -3.232362
v 3.633209 0.438860 -3.155094
v 2.898404 0.592209 -3.044238
v 2.982815 0.212381 -2.784048
v 3.299020 0.444480 -2.782191
vn 0.0832 0.4484 -0.8900
vn 0.7725 0.3161 -0.5508
vn -0.9615 -0.0262 0.2737
vn -0.9798 0.1784 -0.0898
vn 0.6262 -0.3274 0.7076
vn -0.3064 -0.2242 -0.9251
vn 0.1495 -0.8126 -0.5634
vn 0.8921 -0.0125 -0.4517
vn -0.6683 -0.6163 0.4166
vn 0.3044 -0.4215 0.8542
vn 0.2391 0.9189 0.3137
vn -0.3528 0.4742 0.8067
vn -0.2770 0.9321 -0.2332
vt 0.550384 0.206938
vt 0.375000 0.305791
vt 0.375000 0.049496
vt 0.180791 0.500000
vt 0.330928 0.574320
vt 0.125000 0.700504
vt 0.804283 0.500000
vt 0.842867 0.681766
vt 0.658516 0.626313
vt 0.875000 0.500000
vt 0.501754 0.540833
vt 0.565165 0.799791
vt 0.325310 0.750000
vt 0.604031 0.069198
vt 0.375000 1.000000
vt 0.375000 0.799690
vt 0.578028 1.000000
vt 0.615335 0.592735
vt 0.589707 0.775249
vt 0.581909 0.353207
s 0
g Cube_Material
usemtl Material
f 400/671/416 402/672/416 401/673/416
f 402/674/417 405/675/417 401/676/417
f 406/677/418 403/678/418 407/679/418
f 403/678/419 406/677/419 400/680/419
f 408/681/420 399/682/420 404/683/420 405/675/420
f 401/673/421 403/684/421 400/671/421
f 401/685/422 404/686/422 399/682/422 403/687/422
f 405/675/423 404/683/423 401/676/423
f 407/688/424 403/678/424 399/689/424
f 399/682/425 408/681/425 407/688/425
f 408/681/426 405/675/426 402/672/426 406/690/426
f 408/681/427 406/690/427 407/688/427
f 402/672/428 400/671/428 406/690/428
o Cube
v -4.337584 0.439700 -0.034249
v -4.104549 0.053980 -0.685971
v -3.850210 0.423385 -0.472983
v -4.082215 0.471280 -0.840252
v -4.216760 0.018675 -0.226186
v -4.098628 0.717461 -0.278504
v -4.191133 0.778332 -0.645876
v -4.535924 0.191809 -0.743481
v -4.689109 0.349428 -0.380901
v -4.612618 0.616330 -0.602619
vn 0.8055 -0.2429 -0.5405
vn 0.7499 0.5227 -0.4055
vn -0.5921 -0.7999 0.0976
vn -0.2840 -0.9482 -0.1421
vn -0.3982 0.8396 0.3695
vn 0.7752 -0.6156 0.1419
vn 0.6669 -0.0571 0.7430
vn 0.7370 0.6717 -0.0743
vn -0.5548 -0.4717 0.6854
vn -0.6378 0.5920 0.4926
vn -0.3093 0.3302 -0.8918
vn -0.9270 -0.0438 -0.3726
vn 0.0140 -0.3474 -0.9376
vt 0.550384 0.206938
vt 0.375000 0.305791
vt 0.375000 0.049496
vt 0.180791 0.500000
vt 0.330928 0.574320
vt 0.125000 0.700504
vt 0.804283 0.500000
vt 0.842867 0.681766
vt 0.658516 0.626313
vt 0.875000 0.500000
vt 0.501754 0.540833
vt 0.565165 0.799791
vt 0.325310 0.750000
vt 0.604031 0.069198
vt 0.375000 1.000000
vt 0.375000 0.799690
vt 0.578028 1.000000
vt 0.615335 0.592735
vt 0.589707 0.775249
vt 0.581909 0.353207
s 0
g Cube_Material
usemtl Material
f 410/691/429 412/692/429 411/693/429
f 412/694/430 415/695/430 411/696/430
f 416/697/431 413/698/431 417/699/431
f 413/698/432 416/697/432 410/700/432
f 418/701/433 409/702/433 414/703/433 415/695/433
f 411/693/434 413/704/434 410/691/434
f 411/705/435 414/706/435 409/702/435 413/707/435
f 415/695/436 414/703/436 411/696/436
f 417/708/437 413/698/437 409/709/437
f 409/702/438 418/701/438 417/708/438
f 418/701/439 415/695/439 412/692/439 416/710/439
f 418/701/440 416/710/440 417/708/440
f 412/692/441 410/691/441 416/710/441
o Cube
v 2.169548 0.445234 -2.998449
v 3.036220 0.112828 -2.733676
v 2.940930 0.653579 -2.987335
v 3.147663 0.238920 -3.249598
v 2.503190 0.254779 -2.560488
v 2.536819 0.663338 -3.322970
v 2.835627 0.389291 -3.555562
v 2.784605 -0.272785 -3.045525
v 2.294637 -0.137060 -3.136639
v 2.531524 -0.067735 -3.492214
vn 0.9191 0.2881 0.2689
vn 0.6884 0.6005 -0.4069
vn -0.3149 -0.7279 0.6091
vn 0.0703 -0.6546 0.7527
vn -0.6220 0.1809 -0.7618
vn 0.3819 0.4468 0.8090
vn -0.2388 0.8603 0.4504
vn 0.3905 0.8049 -0.4468
vn -0.8177 -0.2932 0.4954
vn -0.8273 -0.0448 -0.5599
vn 0.5276 -0.5436 -0.6528
vn -0.1989 -0.9285 -0.3135
vn 0.8222 -0.5679 0.0388
vt 0.550384 0.206938
vt 0.375000 0.305791
vt 0.375000 0.049496
vt 0.180791 0.500000
vt 0.330928 0.574320
vt 0.125000 0.700504
vt 0.804283 0.500000
vt 0.842867 0.681766
vt 0.658516 0.626313
vt 0.875000 0.500000
vt 0.501754 0.540833
vt 0.565165 0.799791
vt 0.325310 0.750000
vt 0.604031 0.069198
vt 0.375000 1.000000
vt 0.375000 0.799690
vt 0.578028 1.000000
vt 0.615335 0.592735
vt 0.589707 0.775249
vt 0.581909 0.353207
s 0
g Cube_Material
usemtl Material
f 420/711/442 422/712/442 421/713/442
f 422/714/443 425/715/443 421/716/443
f 426/717/444 423/718/444 427/719/444
f 423/718/445 426/717/445 420/720/445
f 428/721/446 419/722/446 424/723/446 425/715/446
f 421/713/447 423/724/447 420/711/447
f 421/725/448 424/726/448 419/722/448 423/727/448
f 425/715/449 424/723/449 421/716/449
f 427/728/450 423/718/450 419/729/450
f 419/722/451 428/721/451 427/728/451
f 428/721/452 425/715/452 422/712/452 426/730/452
f 428/721/453 426/730/453 427/728/453
f 422/712/454 420/711/454 426/730/454
o Cube
v -3.615409 -0.076590 -0.319512
v -3.967119 0.398296 -0.372603
v -4.080093 0.047218 -0.419564
v -4.028516 0.254685 -0.667351
v -3.754478 0.211167 -0.157979
v -3.852237 -0.149119 -0.537186
v -3.896760 0.022122 -0.763563
v -3.687227 0.447128 -0.562666
v -3.475266 0.217378 -0.507078
v -3.593581 0.173667 -0.741343
vn -0.9526 0.2995 0.0525
vn -0.8499 -0.3033 -0.4308
vn 0.5844 0.6550 0.4790
vn 0.2071 0.8298 0.5182
vn 0.5097 -0.7130 -0.4815
vn -0.6558 0.1112 0.7467
vn -0.3211 -0.6439 0.6945
vn -0.7082 -0.6230 -0.3320
vn 0.7804 0.0265 0.6247
vn 0.7790 -0.5562 -0.2896
vn -0.0668 0.4531 -0.8889
vn 0.7060 0.5407 -0.4574
vn -0.3807 0.8600 -0.3397
vt 0.550384 0.206938
vt 0.375000 0.305791
vt 0.375000 0.049496
vt 0.180791 0.500000
vt 0.330928 0.574320
vt 0.125000 0.700504
vt 0.804283 0.500000
vt 0.842867 0.681766
vt 0.658516 0.626313
vt 0.875000 0.500000
vt 0.501754 0.540833
vt 0.565165 0.799791
vt 0.325310 0.750000
vt 0.604031 0.069198
vt 0.375000 1.000000
vt 0.375000 0.799690
vt 0.578028 1.000000
vt 0.615335 0.592735
vt 0.589707 0.775249
vt 0.581909 0.353207
s 0
g Cube_Material
usemtl Material
f 430/731/455 432/732/455 431/733/455
f 432/734/456 435/735/456 431/736/456
f 436/737/457 433/738/457 437/739/457
f 433/738/458 436/737/458 430/740/458
f 438/741/459 429/742/459 434/743/459 435/735/459
f 431/733/460 433/744/460 430/731/460
f 431/745/461 434/746/461 429/742/461 433/747/461
f 435/735/462 434/743/462 431/736/462
f 437/748/463 433/738/463 429/749/463
f 429/742/464 438/741/464 437/748/464
f 438/741/465 435/735/465 432/732/465 436/750/465
f 438/741/466 436/750/466 437/748/466
f 432/732/467 430/731/467 436/750/467
o Cube
v -1.354004 0.488037 -2.107368
v -1.592511 0.261021 -2.922993
v -1.124805 0.100423 -2.679610
v -1.143800 0.443919 -3.021701
v -1.715762 0.245627 -2.411002
v -0.947426 0.419634 -2.369991
v -0.893507 0.628124 -2.737481
v -1.631382 0.764096 -2.876075
v -1.566918 0.891244 -2.427509
v -1.242826 0.976215 -2.635637
vn 0.1284 -0.6962 -0.7062
vn 0.8007 -0.3999 -0.4460
vn -0.9712 0.2258 0.0756
vn -0.9705 -0.0530 -0.2352
vn 0.5903 0.5808 0.5605
vn -0.2783 -0.9557 -0.0957
vn 0.1473 -0.7905 0.5945
vn 0.9074 -0.4085 -0.0986
vn -0.7001 0.1791 0.6912
vn 0.2609 0.6810 0.6842
vn 0.2531 0.5984 -0.7602
vn -0.3688 0.9068 -0.2040
vn -0.2420 0.0715 -0.9676
vt 0.550384 0.206938
vt 0.375000 0.305791
vt 0.375000 0.049496
vt 0.180791 0.500000
vt 0.330928 0.574320
vt 0.125000 0.700504
vt 0.804283 0.500000
vt 0.842867 0.681766
vt 0.658516 0.626313
vt 0.875000 0.500000
vt 0.501754 0.540833
vt 0.565165 0.799791
vt 0.325310 0.750000
vt 0.604031 0.069198
vt 0.375000 1.000000
vt 0.375000 0.799690
vt 0.578028 1.000000
vt 0.615335 0.592735
vt 0.589707 0.775249
vt 0.581909 0.353207
s 0
g Cube_Material
usemtl Material
f 440/751/468 442/752/468 441/753/468
f 442/754/469 445/755/469 441/756/469
f 446/757/470 443/758/470 447/759/470
f 443/758/471 446/757/471 440/760/471
f 448/761/472 439/762/472 444/763/472 445/755/472
f 441/753/473 443/764/473 440/751/473
f 441/765/474 444/766/474 439/762/474 443/767/474
f 445/755/475 444/763/475 441/756/475
f 447/768/476 443/758/476 439/769/476
f 439/762/477 448/761/477 447/768/477
f 448/761/478 445/755/478 442/752/478 446/770/478
f 448/761/479 446/770/479 447/768/479
f 442/752/480 440/751/480 446/770/480
o Cube
v -2.160598 -0.253936 -2.248137
v -2.365000 0.106967 -2.894410
v -2.071021 0.291958 -2.561397
v -2.474379 0.412061 -2.609201
v -2.159976 -0.261934 -2.711545
v -2.155390 0.165938 -2.171886
v -2.456450 0.371906 -2.244164
v -2.730086 -0.038882 -2.691496
v -2.629689 -0.279826 -2.374127
v -2.730004 0.027990 -2.256795
vn 0.2871 0.7071 -0.6462
vn 0.2742 0.9573 0.0918
vn -0.3303 -0.7992 -0.5022
vn -0.2375 -0.5342 -0.8113
vn -0.1299 -0.0677 0.9892
vn 0.7290 0.0676 -0.6811
vn 0.9899 -0.1150 0.0827
vn 0.4655 0.8076 0.3621
vn 0.0505 -0.9986 0.0173
vn -0.2157 -0.4084 0.8870
vn -0.8324 0.5542 0.0002
vn -0.9437 -0.3268 0.0504
vn -0.5643 0.4467 -0.6943
vt 0.550384 0.206938
vt 0.375000 0.305791
vt 0.375000 0.049496
vt 0.180791 0.500000
vt 0.330928 0.574320
vt 0.125000 0.700504
vt 0.804283 0.500000
vt 0.842867 0.681766
vt 0.658516 0.626313
vt 0.875000 0.500000
vt 0.501754 0.540833
vt 0.565165 0.799791
vt 0.325310 0.750000
vt 0.604031 0.069198
vt 0.375000 1.000000
vt 0.375000 0.799690
vt 0.578028 1.000000
vt 0.615335 0.592735
vt 0.589707 0.775249
vt 0.581909 0.353207
s 0
g Cube_Material
usemtl Material
f 450/771/481 452/772/481 451/773/481
f 452/774/482 455/775/482 451/776/482
f 456/777/483 453/778/483 457/779/483
f 453/778/484 456/777/484 450/780/484
f 458/781/485 449/782/485 454/783/485 455/775/485
f 451/773/486 453/784/486 450/771/486
f 451/785/487 454/786/487 449/782/487 453/787/487
f 455/775/488 454/783/488 451/776/488
f 457/788/489 453/778/489 449/789/489
f 449/782/490 458/781/490 457/788/490
f 458/781/491 455/775/491 452/772/491 456/790/491
f 458/781/492 456/790/492 457/788/492
f 452/772/493 450/771/493 456/790/493
o Cube
v 3.052977 0.554767 -0.054870
v 3.332374 0.367967 0.832769
v 3.654294 0.673422 0.436811
v 3.755993 0.177472 0.570094
v 2.941814 0.617544 0.503574
v 3.579658 0.525743 -0.052606
v 3.788716 0.153427 0.117470
v 3.169429 -0.098280 0.598086
v 2.954905 -0.002685 0.147757
v 3.345809 -0.159928 0.087602
vn 0.5990 0.3201 0.7340
vn 0.9747 0.2157 0.0590
vn -0.8959 -0.2351 0.3769
vn -0.6843 -0.1227 0.7188
vn 0.1001 -0.2320 -0.9676
vn -0.0053 0.7938 0.6081
vn -0.0315 0.9797 -0.1979
vn 0.8884 0.3840 -0.2514
vn -0.9740 0.0969 -0.2048
vn -0.2583 -0.2896 -0.9216
vn 0.4881 -0.8536 0.1819
vn -0.3755 -0.9267 -0.0178
vn 0.2775 -0.5076 0.8157
vt 0.550384 0.206938
vt 0.375000 0.305791
vt 0.375000 0.049496
vt 0.180791 0.500000
vt 0.330928 0.574320
vt 0.125000 0.700504
vt 0.804283 0.500000
vt 0.842867 0.681766
vt 0.658516 0.626313
vt 0.875000 0.500000
vt 0.501754 0.540833
vt 0.565165 0.799791
vt 0.325310 0.750000
vt 0.604031 0.069198
vt 0.375000 1.000000
vt 0.375000 0.799690
vt 0.578028 1.000000
vt 0.615335 0.592735
vt 0.589707 0.775249
vt 0.581909 0.353207
s 0
g Cube_Material
usemtl Material
f 460/791/494 462/792/494 461/793/494
f 462/794/495 465/795/495 461/796/495
f 466/797/496 463/798/496 467/799/496
f 463/798/497 466/797/497 460/800/497
f 468/801/498 459/802/498 464/803/498 465/795/498
f 461/793/499 463/804/499 460/791/499
f 461/805/500 464/806/500 459/802/500 463/807/500
f 465/795/501 464/803/501 461/796/501
f 467/808/502 463/798/502 459/809/502
f 459/802/503 468/801/503 467/808/503
f 468/801/504 465/795/504 462/792/504 466/810/504
f 468/801/505 466/810/505 467/808/505
f 462/792/506 460/791/506 466/810/506
o Cube
v -0.213034 0.233183 2.211060
v 0.219756 1.077934 2.672375
v 0.460297 0.784103 2.130987
v 0.696316 0.724731 2.659763
v -0.292735 0.839405 2.389500
v 0.364687 0.218030 2.111086
v 0.692627 0.244677 2.502126
v 0.125887 0.651141 3.095109
v -0.172756 0.223727 2.878232
v 0.280754 0.094442 2.917824
vn 0.5837 0.7937 -0.1714
vn 0.9114 0.1221 -0.3931
vn -0.7920 0.2774 0.5439
vn -0.5783 0.6348 0.5125
vn 0.0592 -0.9876 -0.1451
vn -0.1134 0.8512 -0.5124
vn -0.2484 0.1649 -0.9545
vn 0.7654 -0.1070 -0.6346
vn -0.9875 -0.1468 0.0575
vn -0.2744 -0.9616 0.0029
vn 0.6664 -0.1395 0.7325
vn -0.1784 -0.3433 0.9221
vn 0.4466 0.5782 0.6829
vt 0.550384 0.206938
vt 0.375000 0.305791
vt 0.375000 0.049496
vt 0.180791 0.500000
vt 0.330928 0.574320
vt 0.125000 0.700504
vt 0.804283 0.500000
vt 0.842867 0.681766
vt 0.658516 0.626313
vt 0.875000 0.500000
vt 0.501754 0.540833
vt 0.565165 0.799791
vt 0.325310 0.750000
vt 0.604031 0.069198
vt 0.375000 1.000000
vt 0.375000 0.799690
vt 0.578028 1.000000
vt 0.615335 0.592735
vt 0.589707 0.775249
vt 0.581909 0.353207
s 0
g Cube_Material
usemtl Material
f 470/811/507 472/812/507 471/813/507
f 472/814/508 475/815/508 471/816/508
f 476/817/509 473/818/509 477/819/509
f 473/818/510 476/817/510 470/820/510
f 478/821/511 469/822/511 474/823/511 475/815/511
f 471/813/512 473/824/512 470/811/512
f 471/825/513 474/826/513 469/822/513 473/827/513
f 475/815/514 474/823/514 471/816/514
f 477/828/515 473/818/515 469/829/515
f 469/822/516 478/821/516 477/828/516
f 478/821/517 475/815/517 472/812/517 476/830/517
f 478/821/518 476/830/518 477/828/518
f 472/812/519 470/811/519 476/830/519
o Cube
v -2.471674 0.326762 -0.873165
v -1.851259 0.038984 -1.079932
v -2.253917 -0.114796 -1.200995
v -2.026695 -0.290250 -0.931008
v -2.098411 0.388353 -1.080134
v -2.530385 -0.061404 -0.932739
v -2.329844 -0.293402 -0.772527
v -1.847240 0.081853 -0.670559
v -2.152707 0.280866 -0.555420
v -2.196955 -0.029559 -0.489623
vn 0.4262 -0.5515 -0.7171
vn -0.2036 -0.8903 -0.4072
vn 0.5894 0.7773 0.2202
vn 0.8145 0.5761 -0.0683
vn -0.7934 -0.0836 0.6030
vn 0.2275 0.1604 -0.9605
vn -0.5670 0.2922 -0.7702
vn -0.5353 -0.7417 -0.4041
vn -0.0534 0.9793 0.1951
vn -0.6665 0.2443 0.7043
vn 0.4223 -0.6997 0.5762
vn 0.4227 0.1299 0.8969
vn 0.8891 -0.4561 0.0390
vt 0.550384 0.206938
vt 0.375000 0.305791
vt 0.375000 0.049496
vt 0.180791 0.500000
vt 0.330928 0.574320
vt 0.125000 0.700504
vt 0.804283 0.500000
vt 0.842867 0.681766
vt 0.658516 0.626313
vt 0.875000 0.500000
vt 0.501754 0.540833
vt 0.565165 0.799791
vt 0.325310 0.750000
vt 0.604031 0.069198
vt 0.375000 1.000000
vt 0.375000 0.799690
vt 0.578028 1.000000
vt 0.615335 0.592735
vt 0.589707 0.775249
vt 0.581909 0.353207
s 0
g Cube_Material
usemtl Material
f 480/831/520 482/832/520 481/833/520
f 482/834/521 485/835/521 481/836/521
f 486/837/522 483/838/522 487/839/522
f 483/838/523 486/837/523 480/840/523
f 488/841/524 479/842/524 484/843/524 485/835/524
f 481/833/525 483/844/525 480/831/525
f 481/845/526 484/846/526 479/842/526 483/847/526
f 485/835/527 484/843/527 481/836/527
f 487/848/528 483/838/528 479/849/528
f 479/842/529 488/841/529 487/848/529
f 488/841/530 485/835/530 482/832/530 486/850/530
f 488/841/531 486/850/531 487/848/531
f 482/832/532 480/831/532 486/850/532
o Cube
v -1.338240 0.093623 2.506640
v -0.877541 0.472039 1.941269
v -0.707474 0.098510 2.252110
v -0.606907 0.536596 2.310008
v -1.277489 0.197968 2.025666
v -0.905694 0.091755 2.652958
v -0.702304 0.432853 2.677291
v -1.092127 0.799892 2.206866
v -1.385660 0.610867 2.474100
v -1.086350 0.704273 2.667593
vn 0.8104 -0.1100 -0.5755
vn 0.9535 -0.2425 0.1791
vn -0.7445 0.3920 -0.5405
vn -0.4326 0.3794 -0.8179
vn -0.2148 -0.0866 0.9728
vn 0.2181 -0.5637 -0.7967
vn -0.0484 -0.9891 -0.1388
vn 0.7828 -0.4938 0.3788
vn -0.9843 -0.0994 -0.1459
vn -0.5435 0.0030 0.8394
vn 0.4826 0.8382 0.2540
vn -0.4027 0.8952 0.1908
vn 0.4941 0.7192 -0.4885
vt 0.550384 0.206938
vt 0.375000 0.305791
vt 0.375000 0.049496
vt 0.180791 0.500000
vt 0.330928 0.574320
vt 0.125000 0.700504
vt 0.804283 0.500000
vt 0.842867 0.681766
vt 0.658516 0.626313
vt 0.875000 0.500000
vt 0.501754 0.540833
vt 0.565165 0.799791
vt 0.325310 0.750000
vt 0.604031 0.069198
vt 0.375000 1.000000
vt 0.375000 0.799690
vt 0.578028 1.000000
vt 0.615335 0.592735
vt 0.589707 0.775249
vt 0.581909 0.353207
s 0
g Cube_Material
usemtl Material
f 490/851/533 492/852/533 491/853/533
f 492/854/534 495/855/534 491/856/534
f 496/857/535 493/858/535 497/859/535
f 493/858/536 496/857/536 490/860/536
f 498/861/537 489/862/537 494/863/537 495/855/537
f 491/853/538 493/864/538 490/851/538
f 491/865/539 494/866/539 489/862/539 493/867/539
f 495/855/540 494/863/540 491/856/540
f 497/868/541 493/858/541 489/869/541
f 489/862/542 498/861/542 497/868/542
f 498/861/543 495/855/543 492/852/543 496/870/543
f 498/861/544 496/870/544 497/868/544
f 492/852/545 490/851/545 496/870/545
o Cube
v -1.558296 -0.098749 0.559645
v -1.819863 -0.380871 1.288359
v -1.888587 -0.626135 0.839203
v -2.219542 -0.401437 1.054994
v -1.430481 -0.243371 1.018013
v -1.932962 -0.351895 0.487054
v -2.269619 -0.271781 0.685742
v -1.966496 0.067725 1.236923
v -1.783722 0.247771 0.878296
v -2.136607 0.164175 0.807390
vn -0.2451 -0.8346 0.4933
vn -0.6301 -0.7554 -0.1798
vn 0.5728 0.5774 0.5818
vn 0.4889 0.2554 0.8341
vn -0.2585 0.4338 -0.8631
vn 0.5175 -0.7818 0.3477
vn 0.6225 -0.6335 -0.4596
vn -0.4701 -0.7241 -0.5046
vn 0.8172 0.5745 -0.0466
vn -0.0108 0.6730 -0.7395
vn -0.9038 0.2758 0.3272
vn -0.2781 0.9078 0.3140
vn -0.5007 -0.0647 0.8632
vt 0.550384 0.206938
vt 0.375000 0.305791
vt 0.375000 0.049496
vt 0.180791 0.500000
vt 0.330928 0.574320
vt 0.125000 0.700504
vt 0.804283 0.500000
vt 0.842867 0.681766
vt 0.658516 0.626313
vt 0.875000 0.500000
vt 0.501754 0.540833
vt 0.565165 0.799791
vt 0.325310 0.750000
vt 0.604031 0.069198
vt 0.375000 1.000000
vt 0.375000 0.799690
vt 0.578028 1.000000
vt 0.615335 0.592735
vt 0.589707 0.775249
vt 0.581909 0.353207
s 0
g Cube_Material
usemtl Material
f 500/871/546 502/872/546 501/873/546
f 502/874/547 505/875/547 501/876/547
f 506/877/548 503/878/548 507/879/548
f 503/878/549 506/877/549 500/880/549
f 508/881/550 499/882/550 504/883/550 505/875/550
f 501/873/551 503/884/551 500/871/551
f 501/885/552 504/886/552 499/882/552 503/887/552
f 505/875/553 504/883/553 501/876/553
f 507/888/554 503/878/554 499/889/554
f 499/882/555 508/881/555 507/888/555
f 508/881/556 505/875/556 502/872/556 506/890/556
f 508/881/557 506/890/557 507/888/557
f 502/872/558 500/871/558 506/890/558
o Cube
v -0.185837 0.124289 1.891696
v -0.633201 0.279164 2.376255
v -0.334386 -0.020106 2.412856
v -0.695691 -0.095941 2.355171
v -0.331511 0.413967 2.140768
v -0.249333 -0.186259 2.094848
v -0.556164 -0.293553 2.139100
v -0.825888 0.219447 2.042144
v -0.592228 0.183469 1.767341
v -0.701715 -0.089580 1.843097
vn -0.1514 -0.0303 0.9880
vn 0.0419 -0.7237 0.6889
vn -0.2801 0.8919 -0.3550
vn -0.3744 0.9259 0.0504
vn 0.2580 -0.6512 -0.7137
vn 0.3919 0.4868 0.7807
vn 0.9480 0.1069 0.2998
vn 0.3489 -0.7891 0.5056
vn 0.2995 0.7042 -0.6438
vn 0.2285 -0.3443 -0.9106
vn -0.8855 -0.4647 0.0046
vn -0.7486 0.1192 -0.6522
vn -0.8692 0.1178 0.4802
vt 0.550384 0.206938
vt 0.375000 0.305791
vt 0.375000 0.049496
vt 0.180791 0.500000
vt 0.330928 0.574320
vt 0.125000 0.700504
vt 0.804283 0.500000
vt 0.842867 0.681766
vt 0.658516 0.626313
vt 0.875000 0.500000
vt 0.501754 0.540833
vt 0.565165 0.799791
vt 0.325310 0.750000
vt 0.604031 0.069198
vt 0.375000 1.000000
vt 0.375000 0.799690
vt 0.578028 1.000000
vt 0.615335 0.592735
vt 0.589707 0.775249
vt 0.581909 0.353207
s 0
g Cube_Material
usemtl Material
f 510/891/559 512/892/559 511/893/559
f 512/894/560 515/895/560 511/896/560
f 516/897/561 513/898/561 517/899/561
f 513/898/562 516/897/562 510/900/562
f 518/901/563 509/902/563 514/903/563 515/895/563
f 511/893/564 513/904/564 510/891/564
f 511/905/565 514/906/565 509/902/565 513/907/565
f 515/895/566 514/903/566 511/896/566
f 517/908/567 513/898/567 509/909/567
f 509/902/568 518/901/568 517/908/568
f 518/901/569 515/895/569 512/892/569 516/910/569
f 518/901/570 516/910/570 517/908/570
f 512/892/571 510/891/571 516/910/571
o Cube
v 0.332545 0.375369 -1.594555
v 0.047076 -0.006912 -1.173731
v 0.440122 0.001295 -1.239764
v 0.229472 -0.253115 -1.358227
v 0.114209 0.352956 -1.279505
v 0.526202 0.080987 -1.565573
v 0.394923 -0.194587 -1.607187
v -0.123041 -0.039491 -1.496741
v -0.006386 0.193949 -1.715343
v 0.104092 -0.060782 -1.780848
vn 0.1522 -0.5180 0.8417
vn 0.6696 -0.6865 0.2836
vn -0.8688 0.4914 0.0611
vn -0.8597 0.2850 0.4240
vn 0.4352 0.0675 -0.8978
vn 0.1552 0.2518 0.9552
vn 0.6848 0.5954 0.4202
vn 0.8880 -0.4421 0.1265
vn -0.4005 0.8909 -0.2142
vn 0.1660 0.3125 -0.9353
vn -0.3325 -0.8917 -0.3072
vn -0.7748 -0.1802 -0.6059
vn -0.5840 -0.7174 0.3799
vt 0.550384 0.206938
vt 0.375000 0.305791
vt 0.375000 0.049496
vt 0.180791 0.500000
vt 0.330928 0.574320
vt 0.125000 0.700504
vt 0.804283 0.500000
vt 0.842867 0.681766
vt 0.658516 0.626313
vt 0.875000 0.500000
vt 0.501754 0.540833
vt 0.565165 0.799791
vt 0.325310 0.750000
vt 0.604031 0.069198
vt 0.375000 1.000000
vt 0.375000 0.799690
vt 0.578028 1.000000
vt 0.615335 0.592735
vt 0.589707 0.775249
vt 0.581909 0.353207
s 0
g Cube_Material
usemtl Material
f 520/911/572 522/912/572 521/913/572
f 522/914/573 525/915/573 521/916/573
f 526/917/574 523/918/574 527/919/574
f 523/918/575 526/917/575 520/920/575
f 528/921/576 519/922/576 524/923/576 525/915/576
f 521/913/577 523/924/577 520/911/577
f 521/925/578 524/926/578 519/922/578 523/927/578
f 525/915/579 524/923/579 521/916/579
f 527/928/580 523/918/580 519/929/580
f 519/922/581 528/921/581 527/928/581
f 528/921/582 525/915/582 522/912/582 526/930/582
f 528/921/583 526/930/583 527/928/583
f 522/912/584 520/911/584 526/930/584
