# Blender 4.1.0
# www.blender.org
mtllib Explosion20017.mtl
o Circle
v -0.024615 0.096888 -1.522372
v -0.024615 0.242742 -1.522372
v 0.122545 0.096888 -1.515142
v 0.122545 0.242742 -1.515142
v 0.268288 0.096888 -1.493523
v 0.268288 0.242742 -1.493523
v 0.411211 0.096888 -1.457723
v 0.411211 0.242742 -1.457723
v 0.549936 0.096888 -1.408086
v 0.549936 0.242742 -1.408086
v 0.683127 0.096888 -1.345092
v 0.683127 0.242742 -1.345092
v 0.809503 0.096888 -1.269345
v 0.809503 0.242742 -1.269345
v 0.927846 0.096888 -1.181576
v 0.927846 0.242742 -1.181576
v 1.037016 0.096888 -1.082630
v 1.037016 0.242742 -1.082630
v 1.135962 0.096888 -0.973460
v 1.135962 0.242742 -0.973460
v 1.223731 0.096888 -0.855117
v 1.223731 0.242742 -0.855117
v 1.299478 0.096888 -0.728741
v 1.299478 0.242742 -0.728741
v 1.362473 0.096888 -0.595549
v 1.362473 0.242742 -0.595549
v 1.412110 0.096888 -0.456824
v 1.412110 0.242742 -0.456824
v 1.447910 0.096888 -0.313902
v 1.447910 0.242742 -0.313902
v 1.469529 0.096888 -0.168159
v 1.469529 0.242742 -0.168159
v 1.476758 0.096888 -0.020998
v 1.476758 0.242742 -0.020998
v 1.469529 0.096888 0.126162
v 1.469529 0.242742 0.126162
v 1.447910 0.096888 0.271905
v 1.447910 0.242742 0.271905
v 1.412110 0.096888 0.414827
v 1.412110 0.242742 0.414827
v 1.362473 0.096888 0.553553
v 1.362473 0.242742 0.553553
v 1.299478 0.096888 0.686744
v 1.299478 0.242742 0.686744
v 1.223731 0.096888 0.813120
v 1.223731 0.242742 0.813120
v 1.135962 0.096888 0.931463
v 1.135962 0.242742 0.931463
v 1.037016 0.096888 1.040633
v 1.037016 0.242742 1.040633
v 0.927846 0.096888 1.139579
v 0.927846 0.242742 1.139579
v 0.809503 0.096888 1.227348
v 0.809503 0.242742 1.227348
v 0.683127 0.096888 1.303095
v 0.683127 0.242742 1.303095
v 0.549936 0.096888 1.366090
v 0.549936 0.242742 1.366090
v 0.411211 0.096888 1.415727
v 0.411211 0.242742 1.415727
v 0.268288 0.096888 1.451527
v 0.268288 0.242742 1.451527
v 0.122545 0.096888 1.473146
v 0.122545 0.242742 1.473146
v -0.024615 0.096888 1.480376
v -0.024615 0.242742 1.480376
v -0.171775 0.096888 1.473146
v -0.171775 0.242742 1.473146
v -0.317519 0.096888 1.451527
v -0.317519 0.242742 1.451527
v -0.460441 0.096888 1.415727
v -0.460441 0.242742 1.415727
v -0.599166 0.096888 1.366090
v -0.599166 0.242742 1.366090
v -0.732358 0.096888 1.303095
v -0.732358 0.242742 1.303095
v -0.858734 0.096888 1.227348
v -0.858734 0.242742 1.227348
v -0.977076 0.096888 1.139579
v -0.977076 0.242742 1.139579
v -1.086246 0.096888 1.040633
v -1.086246 0.242742 1.040633
v -1.185192 0.096888 0.931463
v -1.185192 0.242742 0.931463
v -1.272961 0.096888 0.813120
v -1.272961 0.242742 0.813120
v -1.348708 0.096888 0.686744
v -1.348708 0.242742 0.686744
v -1.411703 0.096888 0.553553
v -1.411703 0.242742 0.553553
v -1.461340 0.096888 0.414827
v -1.461340 0.242742 0.414827
v -1.497140 0.096888 0.271905
v -1.497140 0.242742 0.271905
v -1.518759 0.096888 0.126162
v -1.518759 0.242742 0.126162
v -1.525989 0.096888 -0.020998
v -1.525989 0.242742 -0.020998
v -1.518759 0.096888 -0.168159
v -1.518759 0.242742 -0.168159
v -1.497140 0.096888 -0.313902
v -1.497140 0.242742 -0.313902
v -1.461340 0.096888 -0.456824
v -1.461340 0.242742 -0.456824
v -1.411703 0.096888 -0.595549
v -1.411703 0.242742 -0.595549
v -1.348708 0.096888 -0.728741
v -1.348708 0.242742 -0.728741
v -1.272961 0.096888 -0.855117
v -1.272961 0.242742 -0.855117
v -1.185192 0.096888 -0.973460
v -1.185192 0.242742 -0.973460
v -1.086246 0.096888 -1.082630
v -1.086246 0.242742 -1.082630
v -0.977076 0.096888 -1.181576
v -0.977076 0.242742 -1.181576
v -0.858734 0.096888 -1.269345
v -0.858734 0.242742 -1.269345
v -0.732358 0.096888 -1.345092
v -0.732358 0.242742 -1.345092
v -0.599166 0.096888 -1.408086
v -0.599166 0.242742 -1.408086
v -0.460441 0.096888 -1.457723
v -0.460441 0.242742 -1.457723
v -0.317519 0.096888 -1.493523
v -0.317519 0.242742 -1.493523
v -0.171775 0.096888 -1.515142
v -0.171775 0.242742 -1.515142
vn 0.0491 -0.0000 -0.9988
vn 0.1467 -0.0000 -0.9892
vn 0.2430 -0.0000 -0.9700
vn 0.3369 -0.0000 -0.9415
vn 0.4276 -0.0000 -0.9040
vn 0.5141 -0.0000 -0.8577
vn 0.5957 -0.0000 -0.8032
vn 0.6716 -0.0000 -0.7410
vn 0.7410 -0.0000 -0.6716
vn 0.8032 -0.0000 -0.5957
vn 0.8577 -0.0000 -0.5141
vn 0.9040 -0.0000 -0.4276
vn 0.9415 -0.0000 -0.3369
vn 0.9700 -0.0000 -0.2430
vn 0.9892 -0.0000 -0.1467
vn 0.9988 -0.0000 -0.0491
vn 0.9988 -0.0000 0.0491
vn 0.9892 -0.0000 0.1467
vn 0.9700 -0.0000 0.2430
vn 0.9415 -0.0000 0.3369
vn 0.9040 -0.0000 0.4276
vn 0.8577 -0.0000 0.5141
vn 0.8032 -0.0000 0.5957
vn 0.7410 -0.0000 0.6716
vn 0.6716 -0.0000 0.7410
vn 0.5957 -0.0000 0.8032
vn 0.5141 -0.0000 0.8577
vn 0.4276 -0.0000 0.9040
vn 0.3369 -0.0000 0.9415
vn 0.2430 -0.0000 0.9700
vn 0.1467 -0.0000 0.9892
vn 0.0491 -0.0000 0.9988
vn -0.0491 -0.0000 0.9988
vn -0.1467 -0.0000 0.9892
vn -0.2430 -0.0000 0.9700
vn -0.3369 -0.0000 0.9415
vn -0.4276 -0.0000 0.9040
vn -0.5141 -0.0000 0.8577
vn -0.5957 -0.0000 0.8032
vn -0.6716 -0.0000 0.7410
vn -0.7410 -0.0000 0.6716
vn -0.8032 -0.0000 0.5957
vn -0.8577 -0.0000 0.5141
vn -0.9040 -0.0000 0.4276
vn -0.9415 -0.0000 0.3369
vn -0.9700 -0.0000 0.2430
vn -0.9892 -0.0000 0.1467
vn -0.9988 -0.0000 0.0491
vn -0.9988 -0.0000 -0.0491
vn -0.9892 -0.0000 -0.1467
vn -0.9700 -0.0000 -0.2430
vn -0.9415 -0.0000 -0.3369
vn -0.9040 -0.0000 -0.4276
vn -0.8577 -0.0000 -0.5141
vn -0.8032 -0.0000 -0.5957
vn -0.7410 -0.0000 -0.6716
vn -0.6716 -0.0000 -0.7410
vn -0.5957 -0.0000 -0.8032
vn -0.5141 -0.0000 -0.8577
vn -0.4276 -0.0000 -0.9040
vn -0.3369 -0.0000 -0.9415
vn -0.2430 -0.0000 -0.9700
vn -0.1467 -0.0000 -0.9892
vn -0.0491 -0.0000 -0.9988
vt 1.000000 0.500000
vt 1.000000 1.000000
vt 0.984375 1.000000
vt 0.984375 0.500000
vt 0.968750 1.000000
vt 0.968750 0.500000
vt 0.953125 1.000000
vt 0.953125 0.500000
vt 0.937500 1.000000
vt 0.937500 0.500000
vt 0.921875 1.000000
vt 0.921875 0.500000
vt 0.906250 1.000000
vt 0.906250 0.500000
vt 0.890625 1.000000
vt 0.890625 0.500000
vt 0.875000 1.000000
vt 0.875000 0.500000
vt 0.859375 1.000000
vt 0.859375 0.500000
vt 0.843750 1.000000
vt 0.843750 0.500000
vt 0.828125 1.000000
vt 0.828125 0.500000
vt 0.812500 1.000000
vt 0.812500 0.500000
vt 0.796875 1.000000
vt 0.796875 0.500000
vt 0.781250 1.000000
vt 0.781250 0.500000
vt 0.765625 1.000000
vt 0.765625 0.500000
vt 0.750000 1.000000
vt 0.750000 0.500000
vt 0.734375 1.000000
vt 0.734375 0.500000
vt 0.718750 1.000000
vt 0.718750 0.500000
vt 0.703125 1.000000
vt 0.703125 0.500000
vt 0.687500 1.000000
vt 0.687500 0.500000
vt 0.671875 1.000000
vt 0.671875 0.500000
vt 0.656250 1.000000
vt 0.656250 0.500000
vt 0.640625 1.000000
vt 0.640625 0.500000
vt 0.625000 1.000000
vt 0.625000 0.500000
vt 0.609375 1.000000
vt 0.609375 0.500000
vt 0.593750 1.000000
vt 0.593750 0.500000
vt 0.578125 1.000000
vt 0.578125 0.500000
vt 0.562500 1.000000
vt 0.562500 0.500000
vt 0.546875 1.000000
vt 0.546875 0.500000
vt 0.531250 1.000000
vt 0.531250 0.500000
vt 0.515625 1.000000
vt 0.515625 0.500000
vt 0.500000 1.000000
vt 0.500000 0.500000
vt 0.484375 1.000000
vt 0.484375 0.500000
vt 0.468750 1.000000
vt 0.468750 0.500000
vt 0.453125 1.000000
vt 0.453125 0.500000
vt 0.437500 1.000000
vt 0.437500 0.500000
vt 0.421875 1.000000
vt 0.421875 0.500000
vt 0.406250 1.000000
vt 0.406250 0.500000
vt 0.390625 1.000000
vt 0.390625 0.500000
vt 0.375000 1.000000
vt 0.375000 0.500000
vt 0.359375 1.000000
vt 0.359375 0.500000
vt 0.343750 1.000000
vt 0.343750 0.500000
vt 0.328125 1.000000
vt 0.328125 0.500000
vt 0.312500 1.000000
vt 0.312500 0.500000
vt 0.296875 1.000000
vt 0.296875 0.500000
vt 0.281250 1.000000
vt 0.281250 0.500000
vt 0.265625 1.000000
vt 0.265625 0.500000
vt 0.250000 1.000000
vt 0.250000 0.500000
vt 0.234375 1.000000
vt 0.234375 0.500000
vt 0.218750 1.000000
vt 0.218750 0.500000
vt 0.203125 1.000000
vt 0.203125 0.500000
vt 0.187500 1.000000
vt 0.187500 0.500000
vt 0.171875 1.000000
vt 0.171875 0.500000
vt 0.156250 1.000000
vt 0.156250 0.500000
vt 0.140625 1.000000
vt 0.140625 0.500000
vt 0.125000 1.000000
vt 0.125000 0.500000
vt 0.109375 1.000000
vt 0.109375 0.500000
vt 0.093750 1.000000
vt 0.093750 0.500000
vt 0.078125 1.000000
vt 0.078125 0.500000
vt 0.062500 1.000000
vt 0.062500 0.500000
vt 0.046875 1.000000
vt 0.046875 0.500000
vt 0.031250 1.000000
vt 0.031250 0.500000
vt 0.015625 1.000000
vt 0.015625 0.500000
vt 0.000000 1.000000
vt 0.000000 0.500000
s 0
g Circle_Material.001
usemtl Material.001
f 1/1/1 2/2/1 4/3/1 3/4/1
f 3/4/2 4/3/2 6/5/2 5/6/2
f 5/6/3 6/5/3 8/7/3 7/8/3
f 7/8/4 8/7/4 10/9/4 9/10/4
f 9/10/5 10/9/5 12/11/5 11/12/5
f 11/12/6 12/11/6 14/13/6 13/14/6
f 13/14/7 14/13/7 16/15/7 15/16/7
f 15/16/8 16/15/8 18/17/8 17/18/8
f 17/18/9 18/17/9 20/19/9 19/20/9
f 19/20/10 20/19/10 22/21/10 21/22/10
f 21/22/11 22/21/11 24/23/11 23/24/11
f 23/24/12 24/23/12 26/25/12 25/26/12
f 25/26/13 26/25/13 28/27/13 27/28/13
f 27/28/14 28/27/14 30/29/14 29/30/14
f 29/30/15 30/29/15 32/31/15 31/32/15
f 31/32/16 32/31/16 34/33/16 33/34/16
f 33/34/17 34/33/17 36/35/17 35/36/17
f 35/36/18 36/35/18 38/37/18 37/38/18
f 37/38/19 38/37/19 40/39/19 39/40/19
f 39/40/20 40/39/20 42/41/20 41/42/20
f 41/42/21 42/41/21 44/43/21 43/44/21
f 43/44/22 44/43/22 46/45/22 45/46/22
f 45/46/23 46/45/23 48/47/23 47/48/23
f 47/48/24 48/47/24 50/49/24 49/50/24
f 49/50/25 50/49/25 52/51/25 51/52/25
f 51/52/26 52/51/26 54/53/26 53/54/26
f 53/54/27 54/53/27 56/55/27 55/56/27
f 55/56/28 56/55/28 58/57/28 57/58/28
f 57/58/29 58/57/29 60/59/29 59/60/29
f 59/60/30 60/59/30 62/61/30 61/62/30
f 61/62/31 62/61/31 64/63/31 63/64/31
f 63/64/32 64/63/32 66/65/32 65/66/32
f 65/66/33 66/65/33 68/67/33 67/68/33
f 67/68/34 68/67/34 70/69/34 69/70/34
f 69/70/35 70/69/35 72/71/35 71/72/35
f 71/72/36 72/71/36 74/73/36 73/74/36
f 73/74/37 74/73/37 76/75/37 75/76/37
f 75/76/38 76/75/38 78/77/38 77/78/38
f 77/78/39 78/77/39 80/79/39 79/80/39
f 79/80/40 80/79/40 82/81/40 81/82/40
f 81/82/41 82/81/41 84/83/41 83/84/41
f 83/84/42 84/83/42 86/85/42 85/86/42
f 85/86/43 86/85/43 88/87/43 87/88/43
f 87/88/44 88/87/44 90/89/44 89/90/44
f 89/90/45 90/89/45 92/91/45 91/92/45
f 91/92/46 92/91/46 94/93/46 93/94/46
f 93/94/47 94/93/47 96/95/47 95/96/47
f 95/96/48 96/95/48 98/97/48 97/98/48
f 97/98/49 98/97/49 100/99/49 99/100/49
f 99/100/50 100/99/50 102/101/50 101/102/50
f 101/102/51 102/101/51 104/103/51 103/104/51
f 103/104/52 104/103/52 106/105/52 105/106/52
f 105/106/53 106/105/53 108/107/53 107/108/53
f 107/108/54 108/107/54 110/109/54 109/110/54
f 109/110/55 110/109/55 112/111/55 111/112/55
f 111/112/56 112/111/56 114/113/56 113/114/56
f 113/114/57 114/113/57 116/115/57 115/116/57
f 115/116/58 116/115/58 118/117/58 117/118/58
f 117/118/59 118/117/59 120/119/59 119/120/59
f 119/120/60 120/119/60 122/121/60 121/122/60
f 121/122/61 122/121/61 124/123/61 123/124/61
f 123/124/62 124/123/62 126/125/62 125/126/62
f 125/126/63 126/125/63 128/127/63 127/128/63
f 127/128/64 128/127/64 2/129/64 1/130/64
o Cube
v 4.819694 0.293369 4.071057
v 3.799038 -0.083631 3.799088
v 4.385642 -0.469388 3.767959
v 4.104745 -0.235423 3.268925
v 4.187451 0.175386 4.282110
v 4.887076 -0.147373 3.635508
v 4.616471 -0.109207 3.166172
v 3.905159 0.471955 3.486737
v 4.412377 0.726360 3.682136
v 4.492992 0.517442 3.231817
vn -0.5507 -0.8309 -0.0796
vn 0.1194 -0.8714 -0.4758
vn -0.5331 0.7132 0.4551
vn -0.8072 0.3988 0.4352
vn 0.8850 0.3180 -0.3402
vn -0.3889 -0.6445 0.6583
vn 0.4281 -0.5335 0.7295
vn 0.4483 -0.8323 -0.3262
vn 0.0979 0.7144 0.6928
vn 0.7815 0.6076 -0.1420
vn -0.3241 0.1209 -0.9383
vn -0.2590 0.8576 -0.4443
vn -0.8741 -0.1003 -0.4753
vt 0.550384 0.206938
vt 0.375000 0.305791
vt 0.375000 0.049496
vt 0.180791 0.500000
vt 0.330928 0.574320
vt 0.125000 0.700504
vt 0.804283 0.500000
vt 0.842867 0.681766
vt 0.658516 0.626313
vt 0.875000 0.500000
vt 0.501754 0.540833
vt 0.565165 0.799791
vt 0.325310 0.750000
vt 0.604031 0.069198
vt 0.375000 1.000000
vt 0.375000 0.799690
vt 0.578028 1.000000
vt 0.615335 0.592735
vt 0.589707 0.775249
vt 0.581909 0.353207
s 0
g Cube_Material
usemtl Material
f 130/131/65 132/132/65 131/133/65
f 132/134/66 135/135/66 131/136/66
f 136/137/67 133/138/67 137/139/67
f 133/138/68 136/137/68 130/140/68
f 138/141/69 129/142/69 134/143/69 135/135/69
f 131/133/70 133/144/70 130/131/70
f 131/145/71 134/146/71 129/142/71 133/147/71
f 135/135/72 134/143/72 131/136/72
f 137/148/73 133/138/73 129/149/73
f 129/142/74 138/141/74 137/148/74
f 138/141/75 135/135/75 132/132/75 136/150/75
f 138/141/76 136/150/76 137/148/76
f 132/132/77 130/131/77 136/150/77
o Cube
v 4.427097 -0.041317 -1.279655
v 5.148273 0.149817 -1.831794
v 4.897149 -0.373024 -1.789014
v 5.347904 -0.258299 -1.575119
v 4.619278 0.266259 -1.706595
v 4.706264 -0.471925 -1.331823
v 5.146012 -0.467458 -1.238990
v 5.258951 0.323501 -1.338308
v 4.856793 0.287090 -1.049132
v 5.122832 -0.018878 -0.955117
vn 0.4698 -0.2938 -0.8325
vn 0.3729 -0.8716 -0.3184
vn -0.0896 0.9960 0.0008
vn 0.1205 0.9276 -0.3535
vn -0.3026 -0.4293 0.8509
vn -0.2244 0.0281 -0.9741
vn -0.7909 -0.3485 -0.5029
vn 0.0503 -0.9803 -0.1911
vn -0.6636 0.7159 0.2170
vn -0.4189 -0.0865 0.9039
vn 0.9254 -0.0858 0.3691
vn 0.4362 0.5885 0.6807
vn 0.9180 0.2616 -0.2980
vt 0.550384 0.206938
vt 0.375000 0.305791
vt 0.375000 0.049496
vt 0.180791 0.500000
vt 0.330928 0.574320
vt 0.125000 0.700504
vt 0.804283 0.500000
vt 0.842867 0.681766
vt 0.658516 0.626313
vt 0.875000 0.500000
vt 0.501754 0.540833
vt 0.565165 0.799791
vt 0.325310 0.750000
vt 0.604031 0.069198
vt 0.375000 1.000000
vt 0.375000 0.799690
vt 0.578028 1.000000
vt 0.615335 0.592735
vt 0.589707 0.775249
vt 0.581909 0.353207
s 0
g Cube_Material
usemtl Material
f 140/151/78 142/152/78 141/153/78
f 142/154/79 145/155/79 141/156/79
f 146/157/80 143/158/80 147/159/80
f 143/158/81 146/157/81 140/160/81
f 148/161/82 139/162/82 144/163/82 145/155/82
f 141/153/83 143/164/83 140/151/83
f 141/165/84 144/166/84 139/162/84 143/167/84
f 145/155/85 144/163/85 141/156/85
f 147/168/86 143/158/86 139/169/86
f 139/162/87 148/161/87 147/168/87
f 148/161/88 145/155/88 142/152/88 146/170/88
f 148/161/89 146/170/89 147/168/89
f 142/152/90 140/151/90 146/170/90
o Cube
v 0.372435 -0.150962 4.864189
v 1.455838 0.677749 5.081073
v 0.728393 0.692086 5.549702
v 0.899876 1.216890 5.024799
v 1.184009 -0.102891 5.048332
v 0.111801 0.506961 5.161477
v 0.268844 1.089753 4.873361
v 1.257381 0.712597 4.311294
v 0.744441 0.203614 4.156228
v 0.478083 0.762019 4.184886
vn 0.4606 0.5479 0.6983
vn -0.2956 0.7221 0.6254
vn 0.6773 -0.5259 -0.5144
vn 0.9175 -0.3090 -0.2505
vn -0.9271 -0.0747 -0.3672
vn 0.5256 -0.2175 0.8225
vn -0.2304 -0.5535 0.8003
vn -0.5658 0.4829 0.6684
vn 0.1410 -0.9129 -0.3831
vn -0.7564 -0.3319 -0.5637
vn 0.0497 0.8676 -0.4948
vn 0.1668 0.1297 -0.9774
vn 0.6962 0.7025 -0.1477
vt 0.550384 0.206938
vt 0.375000 0.305791
vt 0.375000 0.049496
vt 0.180791 0.500000
vt 0.330928 0.574320
vt 0.125000 0.700504
vt 0.804283 0.500000
vt 0.842867 0.681766
vt 0.658516 0.626313
vt 0.875000 0.500000
vt 0.501754 0.540833
vt 0.565165 0.799791
vt 0.325310 0.750000
vt 0.604031 0.069198
vt 0.375000 1.000000
vt 0.375000 0.799690
vt 0.578028 1.000000
vt 0.615335 0.592735
vt 0.589707 0.775249
vt 0.581909 0.353207
s 0
g Cube_Material
usemtl Material
f 150/171/91 152/172/91 151/173/91
f 152/174/92 155/175/92 151/176/92
f 156/177/93 153/178/93 157/179/93
f 153/178/94 156/177/94 150/180/94
f 158/181/95 149/182/95 154/183/95 155/175/95
f 151/173/96 153/184/96 150/171/96
f 151/185/97 154/186/97 149/182/97 153/187/97
f 155/175/98 154/183/98 151/176/98
f 157/188/99 153/178/99 149/189/99
f 149/182/100 158/181/100 157/188/100
f 158/181/101 155/175/101 152/172/101 156/190/101
f 158/181/102 156/190/102 157/188/102
f 152/172/103 150/171/103 156/190/103
o Cube
v -3.486032 0.384089 3.792076
v -3.246608 0.007856 3.301796
v -3.018268 0.159459 3.613800
v -3.011451 0.295602 3.274604
v -3.502734 0.031356 3.604176
v -3.133813 0.477615 3.738572
v -3.032743 0.561903 3.445854
v -3.446826 0.295080 3.149441
v -3.617408 0.474105 3.403661
v -3.381609 0.631030 3.313662
vn 0.7411 -0.6281 -0.2372
vn 0.9977 0.0532 0.0414
vn -0.8706 -0.3716 -0.3225
vn -0.5985 -0.6589 -0.4557
vn -0.0744 0.9233 0.3768
vn 0.2406 -0.9305 0.2761
vn 0.1531 -0.3988 0.9042
vn 0.9109 0.1864 0.3682
vn -0.9489 -0.1122 0.2950
vn -0.4281 0.8377 0.3390
vn 0.3142 0.4444 -0.8389
vn -0.5633 0.4485 -0.6939
vn 0.2637 -0.3021 -0.9161
vt 0.550384 0.206938
vt 0.375000 0.305791
vt 0.375000 0.049496
vt 0.180791 0.500000
vt 0.330928 0.574320
vt 0.125000 0.700504
vt 0.804283 0.500000
vt 0.842867 0.681766
vt 0.658516 0.626313
vt 0.875000 0.500000
vt 0.501754 0.540833
vt 0.565165 0.799791
vt 0.325310 0.750000
vt 0.604031 0.069198
vt 0.375000 1.000000
vt 0.375000 0.799690
vt 0.578028 1.000000
vt 0.615335 0.592735
vt 0.589707 0.775249
vt 0.581909 0.353207
s 0
g Cube_Material
usemtl Material
f 160/191/104 162/192/104 161/193/104
f 162/194/105 165/195/105 161/196/105
f 166/197/106 163/198/106 167/199/106
f 163/198/107 166/197/107 160/200/107
f 168/201/108 159/202/108 164/203/108 165/195/108
f 161/193/109 163/204/109 160/191/109
f 161/205/110 164/206/110 159/202/110 163/207/110
f 165/195/111 164/203/111 161/196/111
f 167/208/112 163/198/112 159/209/112
f 159/202/113 168/201/113 167/208/113
f 168/201/114 165/195/114 162/192/114 166/210/114
f 168/201/115 166/210/115 167/208/115
f 162/192/116 160/191/116 166/210/116
o Cube
v 3.914878 0.003128 1.980913
v 3.312699 -0.062382 1.456362
v 3.753226 -0.299381 1.413109
v 3.641912 0.053621 1.171576
v 3.454058 -0.125680 1.910630
v 4.090225 -0.078252 1.579740
v 3.998208 0.147887 1.278148
v 3.396044 0.385447 1.531317
v 3.676799 0.432421 1.851973
v 3.842413 0.491812 1.538676
vn -0.3915 -0.6005 -0.6972
vn 0.3627 -0.4456 -0.8184
vn -0.7290 0.3526 0.5867
vn -0.9425 0.1234 0.3105
vn 0.8955 0.4029 0.1892
vn -0.4718 -0.8814 0.0240
vn 0.2694 -0.8796 0.3919
vn 0.6275 -0.5189 -0.5805
vn -0.1973 0.1800 0.9637
vn 0.7029 0.5317 0.4724
vn -0.0573 0.6564 -0.7522
vn -0.2323 0.9707 0.0612
vn -0.6822 0.2424 -0.6898
vt 0.550384 0.206938
vt 0.375000 0.305791
vt 0.375000 0.049496
vt 0.180791 0.500000
vt 0.330928 0.574320
vt 0.125000 0.700504
vt 0.804283 0.500000
vt 0.842867 0.681766
vt 0.658516 0.626313
vt 0.875000 0.500000
vt 0.501754 0.540833
vt 0.565165 0.799791
vt 0.325310 0.750000
vt 0.604031 0.069198
vt 0.375000 1.000000
vt 0.375000 0.799690
vt 0.578028 1.000000
vt 0.615335 0.592735
vt 0.589707 0.775249
vt 0.581909 0.353207
s 0
g Cube_Material
usemtl Material
f 170/211/117 172/212/117 171/213/117
f 172/214/118 175/215/118 171/216/118
f 176/217/119 173/218/119 177/219/119
f 173/218/120 176/217/120 170/220/120
f 178/221/121 169/222/121 174/223/121 175/215/121
f 171/213/122 173/224/122 170/211/122
f 171/225/123 174/226/123 169/222/123 173/227/123
f 175/215/124 174/223/124 171/216/124
f 177/228/125 173/218/125 169/229/125
f 169/222/126 178/221/126 177/228/126
f 178/221/127 175/215/127 172/212/127 176/230/127
f 178/221/128 176/230/128 177/228/128
f 172/212/129 170/211/129 176/230/129
o Cube
v 4.236619 0.039541 -1.888392
v 3.562969 -0.499712 -1.438304
v 3.502434 0.094556 -1.561126
v 3.609382 -0.096745 -1.071094
v 3.878347 -0.424668 -1.922780
v 3.959175 0.362855 -1.555166
v 3.917619 0.251597 -1.099088
v 4.055948 -0.577021 -1.182604
v 4.437474 -0.349356 -1.454310
v 4.344362 -0.106591 -1.103797
vn -0.9799 -0.0605 0.1902
vn -0.6732 0.6272 0.3918
vn 0.3457 -0.8992 -0.2680
vn -0.0561 -0.9805 -0.1884
vn 0.7171 0.6891 0.1047
vn -0.8074 -0.1972 -0.5561
vn -0.3415 0.4261 -0.8377
vn -0.5014 0.8500 0.1617
vn 0.6143 -0.4249 -0.6649
vn 0.9080 0.4163 -0.0471
vn 0.0430 -0.0931 0.9947
vn 0.6799 -0.5058 0.5309
vn -0.4461 -0.5742 0.6865
vt 0.550384 0.206938
vt 0.375000 0.305791
vt 0.375000 0.049496
vt 0.180791 0.500000
vt 0.330928 0.574320
vt 0.125000 0.700504
vt 0.804283 0.500000
vt 0.842867 0.681766
vt 0.658516 0.626313
vt 0.875000 0.500000
vt 0.501754 0.540833
vt 0.565165 0.799791
vt 0.325310 0.750000
vt 0.604031 0.069198
vt 0.375000 1.000000
vt 0.375000 0.799690
vt 0.578028 1.000000
vt 0.615335 0.592735
vt 0.589707 0.775249
vt 0.581909 0.353207
s 0
g Cube_Material
usemtl Material
f 180/231/130 182/232/130 181/233/130
f 182/234/131 185/235/131 181/236/131
f 186/237/132 183/238/132 187/239/132
f 183/238/133 186/237/133 180/240/133
f 188/241/134 179/242/134 184/243/134 185/235/134
f 181/233/135 183/244/135 180/231/135
f 181/245/136 184/246/136 179/242/136 183/247/136
f 185/235/137 184/243/137 181/236/137
f 187/248/138 183/238/138 179/249/138
f 179/242/139 188/241/139 187/248/139
f 188/241/140 185/235/140 182/232/140 186/250/140
f 188/241/141 186/250/141 187/248/141
f 182/232/142 180/231/142 186/250/142
o Cube
v -2.631114 0.669784 2.440861
v -3.355578 0.155097 2.421050
v -3.010935 0.196125 2.856691
v -3.018630 -0.189294 2.553736
v -3.164454 0.650791 2.385949
v -2.550398 0.281401 2.735290
v -2.600042 -0.118191 2.583141
v -3.075296 0.060829 2.002935
v -2.718559 0.373727 1.969998
v -2.575984 0.023053 2.094844
vn -0.6822 -0.4434 0.5814
vn 0.0498 -0.6178 0.7847
vn -0.4541 0.4359 -0.7771
vn -0.7747 0.2578 -0.5774
vn 0.9982 0.0300 -0.0520
vn -0.7549 0.3312 0.5660
vn -0.0205 0.6688 0.7431
vn 0.3004 -0.3718 0.8784
vn 0.0251 0.8442 -0.5354
vn 0.9101 0.2532 -0.3282
vn 0.0806 -0.9319 -0.3535
vn 0.1539 -0.2753 -0.9490
vn -0.6368 -0.7246 -0.2635
vt 0.550384 0.206938
vt 0.375000 0.305791
vt 0.375000 0.049496
vt 0.180791 0.500000
vt 0.330928 0.574320
vt 0.125000 0.700504
vt 0.804283 0.500000
vt 0.842867 0.681766
vt 0.658516 0.626313
vt 0.875000 0.500000
vt 0.501754 0.540833
vt 0.565165 0.799791
vt 0.325310 0.750000
vt 0.604031 0.069198
vt 0.375000 1.000000
vt 0.375000 0.799690
vt 0.578028 1.000000
vt 0.615335 0.592735
vt 0.589707 0.775249
vt 0.581909 0.353207
s 0
g Cube_Material
usemtl Material
f 190/251/143 192/252/143 191/253/143
f 192/254/144 195/255/144 191/256/144
f 196/257/145 193/258/145 197/259/145
f 193/258/146 196/257/146 190/260/146
f 198/261/147 189/262/147 194/263/147 195/255/147
f 191/253/148 193/264/148 190/251/148
f 191/265/149 194/266/149 189/262/149 193/267/149
f 195/255/150 194/263/150 191/256/150
f 197/268/151 193/258/151 189/269/151
f 189/262/152 198/261/152 197/268/152
f 198/261/153 195/255/153 192/252/153 196/270/153
f 198/261/154 196/270/154 197/268/154
f 192/252/155 190/251/155 196/270/155
o Cube
v -1.672678 0.504890 3.643831
v -2.383548 -0.116100 3.345924
v -2.471801 0.352702 3.742301
v -2.445525 -0.170433 3.896260
v -1.980995 0.286686 3.181002
v -2.042746 0.463559 4.048723
v -2.164386 0.032475 4.219345
v -1.937386 -0.421654 3.526931
v -1.524608 -0.103966 3.622967
v -1.707817 -0.228027 4.007740
vn -0.9892 -0.0849 -0.1198
vn -0.7883 0.1370 0.5999
vn 0.4678 -0.3644 -0.8052
vn 0.0668 -0.4345 -0.8982
vn 0.6206 0.2567 0.7409
vn -0.6637 0.4061 -0.6281
vn -0.2078 0.9555 -0.2095
vn -0.5950 0.4353 0.6756
vn 0.7663 0.2072 -0.6082
vn 0.8603 0.1930 0.4719
vn -0.1432 -0.8485 0.5095
vn 0.6050 -0.7956 0.0315
vn -0.5196 -0.8426 -0.1417
vt 0.550384 0.206938
vt 0.375000 0.305791
vt 0.375000 0.049496
vt 0.180791 0.500000
vt 0.330928 0.574320
vt 0.125000 0.700504
vt 0.804283 0.500000
vt 0.842867 0.681766
vt 0.658516 0.626313
vt 0.875000 0.500000
vt 0.501754 0.540833
vt 0.565165 0.799791
vt 0.325310 0.750000
vt 0.604031 0.069198
vt 0.375000 1.000000
vt 0.375000 0.799690
vt 0.578028 1.000000
vt 0.615335 0.592735
vt 0.589707 0.775249
vt 0.581909 0.353207
s 0
g Cube_Material
usemtl Material
f 200/271/156 202/272/156 201/273/156
f 202/274/157 205/275/157 201/276/157
f 206/277/158 203/278/158 207/279/158
f 203/278/159 206/277/159 200/280/159
f 208/281/160 199/282/160 204/283/160 205/275/160
f 201/273/161 203/284/161 200/271/161
f 201/285/162 204/286/162 199/282/162 203/287/162
f 205/275/163 204/283/163 201/276/163
f 207/288/164 203/278/164 199/289/164
f 199/282/165 208/281/165 207/288/165
f 208/281/166 205/275/166 202/272/166 206/290/166
f 208/281/167 206/290/167 207/288/167
f 202/272/168 200/271/168 206/290/168
o Cube
v 2.191986 0.463571 -1.948986
v 2.489886 0.048900 -2.507770
v 2.166614 0.390197 -2.570789
v 2.077328 -0.017263 -2.588452
v 2.572202 0.339901 -2.169998
v 1.905207 0.433143 -2.255237
v 1.805700 0.103628 -2.381217
v 2.346292 -0.219413 -2.195426
v 2.234262 -0.007271 -1.869080
v 1.957813 -0.110689 -2.036681
vn 0.1919 0.0005 -0.9814
vn -0.5540 0.1568 -0.8176
vn 0.7964 -0.3443 0.4972
vn 0.9210 -0.3765 0.1000
vn -0.7977 0.1569 0.5823
vn 0.6400 0.4981 -0.5851
vn 0.1527 0.9807 -0.1220
vn -0.6641 0.4334 -0.6092
vn 0.5385 0.1878 0.8214
vn -0.5414 0.0932 0.8356
vn -0.4354 -0.8673 -0.2412
vn -0.0139 -0.8405 0.5416
vn 0.2374 -0.7881 -0.5679
vt 0.550384 0.206938
vt 0.375000 0.305791
vt 0.375000 0.049496
vt 0.180791 0.500000
vt 0.330928 0.574320
vt 0.125000 0.700504
vt 0.804283 0.500000
vt 0.842867 0.681766
vt 0.658516 0.626313
vt 0.875000 0.500000
vt 0.501754 0.540833
vt 0.565165 0.799791
vt 0.325310 0.750000
vt 0.604031 0.069198
vt 0.375000 1.000000
vt 0.375000 0.799690
vt 0.578028 1.000000
vt 0.615335 0.592735
vt 0.589707 0.775249
vt 0.581909 0.353207
s 0
g Cube_Material
usemtl Material
f 210/291/169 212/292/169 211/293/169
f 212/294/170 215/295/170 211/296/170
f 216/297/171 213/298/171 217/299/171
f 213/298/172 216/297/172 210/300/172
f 218/301/173 209/302/173 214/303/173 215/295/173
f 211/293/174 213/304/174 210/291/174
f 211/305/175 214/306/175 209/302/175 213/307/175
f 215/295/176 214/303/176 211/296/176
f 217/308/177 213/298/177 209/309/177
f 209/302/178 218/301/178 217/308/178
f 218/301/179 215/295/179 212/292/179 216/310/179
f 218/301/180 216/310/180 217/308/180
f 212/292/181 210/291/181 216/310/181
o Cube
v -3.610028 0.284890 -1.183732
v -3.323269 0.075757 -0.365961
v -3.173814 0.536494 -0.644215
v -2.879936 0.146168 -0.588869
v -3.746578 0.182116 -0.673550
v -3.157975 0.479182 -1.125801
v -2.828681 0.227667 -1.004700
v -3.251998 -0.328770 -0.674282
v -3.458586 -0.252189 -1.097388
v -3.062933 -0.207296 -1.132742
vn 0.3626 0.3928 0.8451
vn 0.7657 0.6068 0.2133
vn -0.7008 -0.6788 0.2193
vn -0.5751 -0.5576 0.5986
vn 0.2260 0.0411 -0.9733
vn -0.3871 0.5654 0.7283
vn -0.4697 0.8823 -0.0317
vn 0.6221 0.7796 -0.0723
vn -0.9034 -0.3034 -0.3029
vn -0.0677 -0.1769 -0.9819
vn 0.8183 -0.5672 0.0933
vn 0.0905 -0.9713 -0.2200
vn 0.4526 -0.4887 0.7458
vt 0.550384 0.206938
vt 0.375000 0.305791
vt 0.375000 0.049496
vt 0.180791 0.500000
vt 0.330928 0.574320
vt 0.125000 0.700504
vt 0.804283 0.500000
vt 0.842867 0.681766
vt 0.658516 0.626313
vt 0.875000 0.500000
vt 0.501754 0.540833
vt 0.565165 0.799791
vt 0.325310 0.750000
vt 0.604031 0.069198
vt 0.375000 1.000000
vt 0.375000 0.799690
vt 0.578028 1.000000
vt 0.615335 0.592735
vt 0.589707 0.775249
vt 0.581909 0.353207
s 0
g Cube_Material
usemtl Material
f 220/311/182 222/312/182 221/313/182
f 222/314/183 225/315/183 221/316/183
f 226/317/184 223/318/184 227/319/184
f 223/318/185 226/317/185 220/320/185
f 228/321/186 219/322/186 224/323/186 225/315/186
f 221/313/187 223/324/187 220/311/187
f 221/325/188 224/326/188 219/322/188 223/327/188
f 225/315/189 224/323/189 221/316/189
f 227/328/190 223/318/190 219/329/190
f 219/322/191 228/321/191 227/328/191
f 228/321/192 225/315/192 222/312/192 226/330/192
f 228/321/193 226/330/193 227/328/193
f 222/312/194 220/311/194 226/330/194
o Cube
v 2.460525 0.448568 0.834528
v 2.603009 0.766274 1.534632
v 2.475549 1.021158 1.136079
v 2.877546 1.008998 1.291819
v 2.338608 0.466909 1.290061
v 2.612550 0.850665 0.770969
v 2.941266 0.955741 0.926770
v 2.946675 0.496201 1.425608
v 2.855846 0.278785 1.079854
v 3.079839 0.536430 0.999934
vn -0.1976 0.7959 0.5722
vn 0.0803 0.9882 -0.1302
vn -0.0815 -0.8339 0.5458
vn -0.1589 -0.5367 0.8287
vn 0.3458 -0.1596 -0.9247
vn -0.8153 0.3330 0.4737
vn -0.9199 0.2014 -0.3366
vn -0.0745 0.8926 -0.4447
vn -0.3625 -0.9301 -0.0596
vn 0.2889 -0.5037 -0.8141
vn 0.9380 0.2599 0.2293
vn 0.7693 -0.6121 0.1828
vn 0.4840 0.2814 0.8286
vt 0.550384 0.206938
vt 0.375000 0.305791
vt 0.375000 0.049496
vt 0.180791 0.500000
vt 0.330928 0.574320
vt 0.125000 0.700504
vt 0.804283 0.500000
vt 0.842867 0.681766
vt 0.658516 0.626313
vt 0.875000 0.500000
vt 0.501754 0.540833
vt 0.565165 0.799791
vt 0.325310 0.750000
vt 0.604031 0.069198
vt 0.375000 1.000000
vt 0.375000 0.799690
vt 0.578028 1.000000
vt 0.615335 0.592735
vt 0.589707 0.775249
vt 0.581909 0.353207
s 0
g Cube_Material
usemtl Material
f 230/331/195 232/332/195 231/333/195
f 232/334/196 235/335/196 231/336/196
f 236/337/197 233/338/197 237/339/197
f 233/338/198 236/337/198 230/340/198
f 238/341/199 229/342/199 234/343/199 235/335/199
f 231/333/200 233/344/200 230/331/200
f 231/345/201 234/346/201 229/342/201 233/347/201
f 235/335/202 234/343/202 231/336/202
f 237/348/203 233/338/203 229/349/203
f 229/342/204 238/341/204 237/348/204
f 238/341/205 235/335/205 232/332/205 236/350/205
f 238/341/206 236/350/206 237/348/206
f 232/332/207 230/331/207 236/350/207
o Cube
v 2.262755 0.553182 2.047901
v 1.419477 0.347785 2.071308
v 1.824522 -0.014847 2.092109
v 1.557771 0.060618 1.701600
v 1.807138 0.607388 2.301046
v 2.210648 0.115049 1.852554
v 1.939366 0.056456 1.536721
v 1.500288 0.650957 1.681723
v 1.934118 0.816761 1.694386
v 1.909615 0.539270 1.422379
vn -0.6440 -0.7019 0.3043
vn -0.0720 -0.9873 -0.1416
vn -0.3528 0.9048 0.2384
vn -0.6586 0.6540 0.3723
vn 0.8320 0.0285 -0.5541
vn -0.3229 -0.3094 0.8944
vn 0.4996 -0.3228 0.8039
vn 0.2820 -0.9573 -0.0646
vn 0.3085 0.8774 0.3674
vn 0.8015 0.3811 -0.4609
vn -0.4842 -0.1472 -0.8625
vn -0.2437 0.6898 -0.6817
vn -0.9552 -0.1024 -0.2778
vt 0.550384 0.206938
vt 0.375000 0.305791
vt 0.375000 0.049496
vt 0.180791 0.500000
vt 0.330928 0.574320
vt 0.125000 0.700504
vt 0.804283 0.500000
vt 0.842867 0.681766
vt 0.658516 0.626313
vt 0.875000 0.500000
vt 0.501754 0.540833
vt 0.565165 0.799791
vt 0.325310 0.750000
vt 0.604031 0.069198
vt 0.375000 1.000000
vt 0.375000 0.799690
vt 0.578028 1.000000
vt 0.615335 0.592735
vt 0.589707 0.775249
vt 0.581909 0.353207
s 0
g Cube_Material
usemtl Material
f 240/351/208 242/352/208 241/353/208
f 242/354/209 245/355/209 241/356/209
f 246/357/210 243/358/210 247/359/210
f 243/358/211 246/357/211 240/360/211
f 248/361/212 239/362/212 244/363/212 245/355/212
f 241/353/213 243/364/213 240/351/213
f 241/365/214 244/366/214 239/362/214 243/367/214
f 245/355/215 244/363/215 241/356/215
f 247/368/216 243/358/216 239/369/216
f 239/362/217 248/361/217 247/368/217
f 248/361/218 245/355/218 242/352/218 246/370/218
f 248/361/219 246/370/219 247/368/219
f 242/352/220 240/351/220 246/370/220
o Cube
v 2.234677 0.256345 -0.026433
v 1.837422 0.782383 -0.997253
v 2.133134 0.109345 -0.981332
v 2.445521 0.630903 -1.203435
v 1.677386 0.543614 -0.355847
v 2.580944 0.033621 -0.532201
v 2.842348 0.398618 -0.880562
v 2.256175 1.205490 -0.676803
v 2.411900 0.972763 -0.114764
v 2.815114 0.911247 -0.447229
vn -0.3554 -0.1779 -0.9176
vn 0.3271 -0.5293 -0.7828
vn -0.5562 0.7020 0.4448
vn -0.7344 0.6753 0.0681
vn 0.8058 -0.2662 0.5290
vn -0.8527 -0.3830 -0.3553
vn -0.4560 -0.8710 0.1826
vn 0.3856 -0.7664 -0.5137
vn -0.4142 0.2116 0.8852
vn 0.6295 -0.0602 0.7746
vn 0.6227 0.5839 -0.5208
vn 0.3592 0.8932 0.2704
vn -0.0903 0.6566 -0.7488
vt 0.550384 0.206938
vt 0.375000 0.305791
vt 0.375000 0.049496
vt 0.180791 0.500000
vt 0.330928 0.574320
vt 0.125000 0.700504
vt 0.804283 0.500000
vt 0.842867 0.681766
vt 0.658516 0.626313
vt 0.875000 0.500000
vt 0.501754 0.540833
vt 0.565165 0.799791
vt 0.325310 0.750000
vt 0.604031 0.069198
vt 0.375000 1.000000
vt 0.375000 0.799690
vt 0.578028 1.000000
vt 0.615335 0.592735
vt 0.589707 0.775249
vt 0.581909 0.353207
s 0
g Cube_Material
usemtl Material
f 250/371/221 252/372/221 251/373/221
f 252/374/222 255/375/222 251/376/222
f 256/377/223 253/378/223 257/379/223
f 253/378/224 256/377/224 250/380/224
f 258/381/225 249/382/225 254/383/225 255/375/225
f 251/373/226 253/384/226 250/371/226
f 251/385/227 254/386/227 249/382/227 253/387/227
f 255/375/228 254/383/228 251/376/228
f 257/388/229 253/378/229 249/389/229
f 249/382/230 258/381/230 257/388/230
f 258/381/231 255/375/231 252/372/231 256/390/231
f 258/381/232 256/390/232 257/388/232
f 252/372/233 250/371/233 256/390/233
o Cube
v -1.518902 0.246955 -2.048874
v -2.194602 0.749583 -1.840050
v -1.784313 0.631612 -1.503400
v -2.218210 0.432462 -1.470154
v -1.788709 0.682407 -2.157570
v -1.594740 0.204943 -1.574534
v -1.974903 0.098016 -1.431090
v -2.366340 0.321926 -2.033673
v -2.015459 0.071103 -2.205525
v -2.130383 -0.082401 -1.866985
vn -0.2907 0.7355 0.6120
vn 0.0171 0.1283 0.9916
vn -0.3183 0.1909 -0.9286
vn -0.4741 0.5140 -0.7148
vn 0.4278 -0.8984 0.0992
vn 0.2190 0.9729 0.0741
vn 0.8769 0.4714 0.0943
vn 0.3528 0.0008 0.9357
vn 0.3141 -0.0421 -0.9484
vn 0.3951 -0.8797 -0.2648
vn -0.8220 -0.4289 0.3746
vn -0.6532 -0.5812 -0.4853
vn -0.9378 0.2908 0.1895
vt 0.550384 0.206938
vt 0.375000 0.305791
vt 0.375000 0.049496
vt 0.180791 0.500000
vt 0.330928 0.574320
vt 0.125000 0.700504
vt 0.804283 0.500000
vt 0.842867 0.681766
vt 0.658516 0.626313
vt 0.875000 0.500000
vt 0.501754 0.540833
vt 0.565165 0.799791
vt 0.325310 0.750000
vt 0.604031 0.069198
vt 0.375000 1.000000
vt 0.375000 0.799690
vt 0.578028 1.000000
vt 0.615335 0.592735
vt 0.589707 0.775249
vt 0.581909 0.353207
s 0
g Cube_Material
usemtl Material
f 260/391/234 262/392/234 261/393/234
f 262/394/235 265/395/235 261/396/235
f 266/397/236 263/398/236 267/399/236
f 263/398/237 266/397/237 260/400/237
f 268/401/238 259/402/238 264/403/238 265/395/238
f 261/393/239 263/404/239 260/391/239
f 261/405/240 264/406/240 259/402/240 263/407/240
f 265/395/241 264/403/241 261/396/241
f 267/408/242 263/398/242 259/409/242
f 259/402/243 268/401/243 267/408/243
f 268/401/244 265/395/244 262/392/244 266/410/244
f 268/401/245 266/410/245 267/408/245
f 262/392/246 260/391/246 266/410/246
o Cube
v -2.005310 -0.316854 1.363828
v -2.416652 0.382730 0.699949
v -1.811082 0.133340 0.647551
v -1.919926 0.668223 0.838641
v -2.468093 -0.190584 0.951092
v -1.569602 0.004520 1.148361
v -1.587543 0.510928 1.180403
v -2.490170 0.584446 1.264577
v -2.342565 0.187950 1.633082
v -2.005090 0.514622 1.611618
vn 0.0619 0.3469 -0.9358
vn 0.7467 0.3533 -0.5636
vn -0.9605 -0.1275 0.2475
vn -0.9899 0.0280 -0.1389
vn 0.6321 -0.1506 0.7601
vn -0.2313 -0.3729 -0.8986
vn 0.2831 -0.8447 -0.4542
vn 0.9050 0.0587 -0.4213
vn -0.5970 -0.6498 0.4705
vn 0.3198 -0.2707 0.9080
vn 0.0984 0.9739 0.2044
vn -0.4496 0.5125 0.7316
vn -0.3896 0.8501 -0.3544
vt 0.550384 0.206938
vt 0.375000 0.305791
vt 0.375000 0.049496
vt 0.180791 0.500000
vt 0.330928 0.574320
vt 0.125000 0.700504
vt 0.804283 0.500000
vt 0.842867 0.681766
vt 0.658516 0.626313
vt 0.875000 0.500000
vt 0.501754 0.540833
vt 0.565165 0.799791
vt 0.325310 0.750000
vt 0.604031 0.069198
vt 0.375000 1.000000
vt 0.375000 0.799690
vt 0.578028 1.000000
vt 0.615335 0.592735
vt 0.589707 0.775249
vt 0.581909 0.353207
s 0
g Cube_Material
usemtl Material
f 270/411/247 272/412/247 271/413/247
f 272/414/248 275/415/248 271/416/248
f 276/417/249 273/418/249 277/419/249
f 273/418/250 276/417/250 270/420/250
f 278/421/251 269/422/251 274/423/251 275/415/251
f 271/413/252 273/424/252 270/411/252
f 271/425/253 274/426/253 269/422/253 273/427/253
f 275/415/254 274/423/254 271/416/254
f 277/428/255 273/418/255 269/429/255
f 269/422/256 278/421/256 277/428/256
f 278/421/257 275/415/257 272/412/257 276/430/257
f 278/421/258 276/430/258 277/428/258
f 272/412/259 270/411/259 276/430/259
o Cube
v -0.794844 -0.094923 2.565105
v -0.169417 -0.079445 1.969590
v -0.139222 0.166574 2.450725
v -0.217304 0.398348 2.041878
v -0.461536 -0.374686 2.278053
v -0.553495 0.317086 2.614316
v -0.503436 0.570834 2.285604
v -0.598534 0.051286 1.754197
v -0.950348 -0.012341 2.047116
v -0.869224 0.365663 2.023665
vn 0.9856 0.1172 -0.1218
vn 0.6565 0.7031 0.2732
vn -0.3157 -0.7749 -0.5475
vn 0.0907 -0.7609 -0.6425
vn -0.7413 0.5084 0.4381
vn 0.8016 -0.5512 0.2315
vn 0.3050 -0.3833 0.8718
vn 0.4708 0.6622 0.5829
vn -0.6120 -0.7887 0.0580
vn -0.9247 0.2178 0.3123
vn -0.0164 0.7164 -0.6975
vn -0.6469 0.0919 -0.7570
vn 0.4842 0.1781 -0.8566
vt 0.550384 0.206938
vt 0.375000 0.305791
vt 0.375000 0.049496
vt 0.180791 0.500000
vt 0.330928 0.574320
vt 0.125000 0.700504
vt 0.804283 0.500000
vt 0.842867 0.681766
vt 0.658516 0.626313
vt 0.875000 0.500000
vt 0.501754 0.540833
vt 0.565165 0.799791
vt 0.325310 0.750000
vt 0.604031 0.069198
vt 0.375000 1.000000
vt 0.375000 0.799690
vt 0.578028 1.000000
vt 0.615335 0.592735
vt 0.589707 0.775249
vt 0.581909 0.353207
s 0
g Cube_Material
usemtl Material
f 280/431/260 282/432/260 281/433/260
f 282/434/261 285/435/261 281/436/261
f 286/437/262 283/438/262 287/439/262
f 283/438/263 286/437/263 280/440/263
f 288/441/264 279/442/264 284/443/264 285/435/264
f 281/433/265 283/444/265 280/431/265
f 281/445/266 284/446/266 279/442/266 283/447/266
f 285/435/267 284/443/267 281/436/267
f 287/448/268 283/438/268 279/449/268
f 279/442/269 288/441/269 287/448/269
f 288/441/270 285/435/270 282/432/270 286/450/270
f 288/441/271 286/450/271 287/448/271
f 282/432/272 280/431/272 286/450/272
o Cube
v 1.035177 0.599468 0.418146
v 1.630810 -0.033826 0.041568
v 1.070991 -0.152890 0.199316
v 1.486803 -0.303866 0.477533
v 1.361490 0.460473 -0.030396
v 0.903538 0.123617 0.601138
v 1.219415 -0.139374 0.804990
v 1.878401 0.211670 0.461543
v 1.596937 0.598566 0.629252
v 1.561334 0.271316 0.897849
vn 0.0360 -0.8549 -0.5176
vn -0.4090 -0.9046 0.1204
vn 0.6659 0.6461 -0.3729
vn 0.7295 0.3086 -0.6104
vn -0.4485 0.3242 0.8329
vn -0.2122 -0.2530 -0.9439
vn -0.8327 0.1177 -0.5410
vn -0.6968 -0.6926 0.1862
vn 0.0897 0.9679 -0.2347
vn -0.2729 0.6279 0.7289
vn 0.5961 -0.5227 0.6095
vn 0.7816 0.3427 0.5212
vn 0.7895 -0.6032 -0.1128
vt 0.550384 0.206938
vt 0.375000 0.305791
vt 0.375000 0.049496
vt 0.180791 0.500000
vt 0.330928 0.574320
vt 0.125000 0.700504
vt 0.804283 0.500000
vt 0.842867 0.681766
vt 0.658516 0.626313
vt 0.875000 0.500000
vt 0.501754 0.540833
vt 0.565165 0.799791
vt 0.325310 0.750000
vt 0.604031 0.069198
vt 0.375000 1.000000
vt 0.375000 0.799690
vt 0.578028 1.000000
vt 0.615335 0.592735
vt 0.589707 0.775249
vt 0.581909 0.353207
s 0
g Cube_Material
usemtl Material
f 290/451/273 292/452/273 291/453/273
f 292/454/274 295/455/274 291/456/274
f 296/457/275 293/458/275 297/459/275
f 293/458/276 296/457/276 290/460/276
f 298/461/277 289/462/277 294/463/277 295/455/277
f 291/453/278 293/464/278 290/451/278
f 291/465/279 294/466/279 289/462/279 293/467/279
f 295/455/280 294/463/280 291/456/280
f 297/468/281 293/458/281 289/469/281
f 289/462/282 298/461/282 297/468/282
f 298/461/283 295/455/283 292/452/283 296/470/283
f 298/461/284 296/470/284 297/468/284
f 292/452/285 290/451/285 296/470/285
o Cube
v 4.706538 0.132475 3.606536
v 3.939647 -0.150792 3.402186
v 4.380404 -0.440639 3.378797
v 4.169346 -0.264844 3.003837
v 4.231489 0.043826 3.765115
v 4.757167 -0.198685 3.279277
v 4.553843 -0.170009 2.926630
v 4.019383 0.266660 3.167494
v 4.400492 0.457812 3.314311
v 4.461064 0.300837 2.975955
vn -0.5507 -0.8309 -0.0796
vn 0.1194 -0.8714 -0.4758
vn -0.5331 0.7132 0.4551
vn -0.8072 0.3988 0.4352
vn 0.8850 0.3180 -0.3402
vn -0.3889 -0.6445 0.6583
vn 0.4281 -0.5335 0.7295
vn 0.4483 -0.8323 -0.3262
vn 0.0979 0.7144 0.6928
vn 0.7815 0.6076 -0.1420
vn -0.3241 0.1209 -0.9383
vn -0.2590 0.8576 -0.4443
vn -0.8741 -0.1003 -0.4753
vt 0.550384 0.206938
vt 0.375000 0.305791
vt 0.375000 0.049496
vt 0.180791 0.500000
vt 0.330928 0.574320
vt 0.125000 0.700504
vt 0.804283 0.500000
vt 0.842867 0.681766
vt 0.658516 0.626313
vt 0.875000 0.500000
vt 0.501754 0.540833
vt 0.565165 0.799791
vt 0.325310 0.750000
vt 0.604031 0.069198
vt 0.375000 1.000000
vt 0.375000 0.799690
vt 0.578028 1.000000
vt 0.615335 0.592735
vt 0.589707 0.775249
vt 0.581909 0.353207
s 0
g Cube_Material
usemtl Material
f 300/471/286 302/472/286 301/473/286
f 302/474/287 305/475/287 301/476/287
f 306/477/288 303/478/288 307/479/288
f 303/478/289 306/477/289 300/480/289
f 308/481/290 299/482/290 304/483/290 305/475/290
f 301/473/291 303/484/291 300/471/291
f 301/485/292 304/486/292 299/482/292 303/487/292
f 305/475/293 304/483/293 301/476/293
f 307/488/294 303/478/294 299/489/294
f 299/482/295 308/481/295 307/488/295
f 308/481/296 305/475/296 302/472/296 306/490/296
f 308/481/297 306/490/297 307/488/297
f 302/472/298 300/471/298 306/490/298
o Cube
v 3.993264 0.366045 -1.457158
v 5.043068 0.644276 -2.260898
v 4.677510 -0.116817 -2.198625
v 5.333669 0.050187 -1.887261
v 4.273019 0.813778 -2.078649
v 4.399642 -0.260785 -1.533098
v 5.039777 -0.254281 -1.397962
v 5.204181 0.897105 -1.542538
v 4.618766 0.844101 -1.121589
v 5.006035 0.398708 -0.984733
vn 0.4698 -0.2938 -0.8325
vn 0.3729 -0.8716 -0.3184
vn -0.0896 0.9960 0.0008
vn 0.1205 0.9276 -0.3535
vn -0.3026 -0.4293 0.8509
vn -0.2244 0.0281 -0.9741
vn -0.7909 -0.3485 -0.5029
vn 0.0503 -0.9803 -0.1911
vn -0.6636 0.7159 0.2170
vn -0.4189 -0.0865 0.9039
vn 0.9254 -0.0858 0.3691
vn 0.4362 0.5885 0.6807
vn 0.9180 0.2616 -0.2980
vt 0.550384 0.206938
vt 0.375000 0.305791
vt 0.375000 0.049496
vt 0.180791 0.500000
vt 0.330928 0.574320
vt 0.125000 0.700504
vt 0.804283 0.500000
vt 0.842867 0.681766
vt 0.658516 0.626313
vt 0.875000 0.500000
vt 0.501754 0.540833
vt 0.565165 0.799791
vt 0.325310 0.750000
vt 0.604031 0.069198
vt 0.375000 1.000000
vt 0.375000 0.799690
vt 0.578028 1.000000
vt 0.615335 0.592735
vt 0.589707 0.775249
vt 0.581909 0.353207
s 0
g Cube_Material
usemtl Material
f 310/491/299 312/492/299 311/493/299
f 312/494/300 315/495/300 311/496/300
f 316/497/301 313/498/301 317/499/301
f 313/498/302 316/497/302 310/500/302
f 318/501/303 309/502/303 314/503/303 315/495/303
f 311/493/304 313/504/304 310/491/304
f 311/505/305 314/506/305 309/502/305 313/507/305
f 315/495/306 314/503/306 311/496/306
f 317/508/307 313/498/307 309/509/307
f 309/502/308 318/501/308 317/508/308
f 318/501/309 315/495/309 312/492/309 316/510/309
f 318/501/310 316/510/310 317/508/310
f 312/492/311 310/491/311 316/510/311
o Cube
v 1.116213 -0.471919 4.839258
v 1.953994 0.168913 5.006971
v 1.391471 0.180000 5.369355
v 1.524076 0.585824 4.963455
v 1.743793 -0.434746 4.981652
v 0.914668 0.036844 5.069146
v 1.036107 0.487511 4.846350
v 1.800530 0.195861 4.411710
v 1.403880 -0.197729 4.291800
v 1.197909 0.234078 4.313961
vn 0.4606 0.5479 0.6983
vn -0.2956 0.7221 0.6254
vn 0.6773 -0.5259 -0.5144
vn 0.9175 -0.3090 -0.2505
vn -0.9271 -0.0747 -0.3672
vn 0.5256 -0.2175 0.8225
vn -0.2304 -0.5535 0.8003
vn -0.5658 0.4829 0.6684
vn 0.1410 -0.9129 -0.3831
vn -0.7564 -0.3319 -0.5637
vn 0.0497 0.8676 -0.4948
vn 0.1668 0.1297 -0.9774
vn 0.6962 0.7025 -0.1477
vt 0.550384 0.206938
vt 0.375000 0.305791
vt 0.375000 0.049496
vt 0.180791 0.500000
vt 0.330928 0.574320
vt 0.125000 0.700504
vt 0.804283 0.500000
vt 0.842867 0.681766
vt 0.658516 0.626313
vt 0.875000 0.500000
vt 0.501754 0.540833
vt 0.565165 0.799791
vt 0.325310 0.750000
vt 0.604031 0.069198
vt 0.375000 1.000000
vt 0.375000 0.799690
vt 0.578028 1.000000
vt 0.615335 0.592735
vt 0.589707 0.775249
vt 0.581909 0.353207
s 0
g Cube_Material
usemtl Material
f 320/511/312 322/512/312 321/513/312
f 322/514/313 325/515/313 321/516/313
f 326/517/314 323/518/314 327/519/314
f 323/518/315 326/517/315 320/520/315
f 328/521/316 319/522/316 324/523/316 325/515/316
f 321/513/317 323/524/317 320/511/317
f 321/525/318 324/526/318 319/522/318 323/527/318
f 325/515/319 324/523/319 321/516/319
f 327/528/320 323/518/320 319/529/320
f 319/522/321 328/521/321 327/528/321
f 328/521/322 325/515/322 322/512/322 326/530/322
f 328/521/323 326/530/323 327/528/323
f 322/512/324 320/511/324 326/530/324
o Cube
v -3.770092 -0.254855 3.864549
v -3.420444 -0.804297 3.148555
v -3.086982 -0.582900 3.604198
v -3.077025 -0.384080 3.108845
v -3.794484 -0.769979 3.590144
v -3.255721 -0.118272 3.786412
v -3.108119 0.004820 3.358934
v -3.712837 -0.384842 2.926060
v -3.961952 -0.123398 3.297317
v -3.617595 0.105772 3.165884
vn 0.7411 -0.6281 -0.2372
vn 0.9977 0.0532 0.0414
vn -0.8706 -0.3716 -0.3225
vn -0.5985 -0.6589 -0.4557
vn -0.0744 0.9233 0.3768
vn 0.2406 -0.9305 0.2761
vn 0.1531 -0.3988 0.9042
vn 0.9109 0.1864 0.3682
vn -0.9489 -0.1122 0.2950
vn -0.4281 0.8377 0.3390
vn 0.3142 0.4444 -0.8389
vn -0.5633 0.4485 -0.6939
vn 0.2637 -0.3021 -0.9161
vt 0.550384 0.206938
vt 0.375000 0.305791
vt 0.375000 0.049496
vt 0.180791 0.500000
vt 0.330928 0.574320
vt 0.125000 0.700504
vt 0.804283 0.500000
vt 0.842867 0.681766
vt 0.658516 0.626313
vt 0.875000 0.500000
vt 0.501754 0.540833
vt 0.565165 0.799791
vt 0.325310 0.750000
vt 0.604031 0.069198
vt 0.375000 1.000000
vt 0.375000 0.799690
vt 0.578028 1.000000
vt 0.615335 0.592735
vt 0.589707 0.775249
vt 0.581909 0.353207
s 0
g Cube_Material
usemtl Material
f 330/531/325 332/532/325 331/533/325
f 332/534/326 335/535/326 331/536/326
f 336/537/327 333/538/327 337/539/327
f 333/538/328 336/537/328 330/540/328
f 338/541/329 329/542/329 334/543/329 335/535/329
f 331/533/330 333/544/330 330/531/330
f 331/545/331 334/546/331 329/542/331 333/547/331
f 335/535/332 334/543/332 331/536/332
f 337/548/333 333/538/333 329/549/333
f 329/542/334 338/541/334 337/548/334
f 338/541/335 335/535/335 332/532/335 336/550/335
f 338/541/336 336/550/336 337/548/336
f 332/532/337 330/531/337 336/550/337
o Cube
v 4.502654 0.295084 2.376027
v 3.678724 0.205451 1.658311
v 4.281474 -0.118823 1.599130
v 4.129170 0.364171 1.268654
v 3.872138 0.118843 2.279863
v 4.742573 0.183736 1.827122
v 4.616671 0.493150 1.414470
v 3.792761 0.818191 1.760867
v 4.176903 0.882464 2.199605
v 4.403504 0.963725 1.770937
vn -0.3915 -0.6005 -0.6972
vn 0.3627 -0.4456 -0.8184
vn -0.7290 0.3526 0.5867
vn -0.9425 0.1234 0.3105
vn 0.8955 0.4029 0.1892
vn -0.4718 -0.8814 0.0240
vn 0.2694 -0.8796 0.3919
vn 0.6275 -0.5189 -0.5805
vn -0.1973 0.1800 0.9637
vn 0.7029 0.5317 0.4724
vn -0.0573 0.6564 -0.7522
vn -0.2323 0.9707 0.0612
vn -0.6822 0.2424 -0.6898
vt 0.550384 0.206938
vt 0.375000 0.305791
vt 0.375000 0.049496
vt 0.180791 0.500000
vt 0.330928 0.574320
vt 0.125000 0.700504
vt 0.804283 0.500000
vt 0.842867 0.681766
vt 0.658516 0.626313
vt 0.875000 0.500000
vt 0.501754 0.540833
vt 0.565165 0.799791
vt 0.325310 0.750000
vt 0.604031 0.069198
vt 0.375000 1.000000
vt 0.375000 0.799690
vt 0.578028 1.000000
vt 0.615335 0.592735
vt 0.589707 0.775249
vt 0.581909 0.353207
s 0
g Cube_Material
usemtl Material
f 340/551/338 342/552/338 341/553/338
f 342/554/339 345/555/339 341/556/339
f 346/557/340 343/558/340 347/559/340
f 343/558/341 346/557/341 340/560/341
f 348/561/342 339/562/342 344/563/342 345/555/342
f 341/553/343 343/564/343 340/551/343
f 341/565/344 344/566/344 339/562/344 343/567/344
f 345/555/345 344/563/345 341/556/345
f 347/568/346 343/558/346 339/569/346
f 339/562/347 348/561/347 347/568/347
f 348/561/348 345/555/348 342/552/348 346/570/348
f 348/561/349 346/570/349 347/568/349
f 342/552/350 340/551/350 346/570/350
o Cube
v 4.079324 -0.150952 -2.071352
v 3.295293 -0.778566 -1.547515
v 3.224839 -0.086923 -1.690462
v 3.349311 -0.309570 -1.120135
v 3.662348 -0.691225 -2.111374
v 3.756419 0.225338 -1.683525
v 3.708054 0.095849 -1.152717
v 3.869050 -0.868542 -1.249916
v 4.313091 -0.603573 -1.566143
v 4.204721 -0.321030 -1.158196
vn -0.9799 -0.0605 0.1902
vn -0.6732 0.6272 0.3918
vn 0.3457 -0.8992 -0.2680
vn -0.0561 -0.9805 -0.1884
vn 0.7171 0.6891 0.1047
vn -0.8074 -0.1972 -0.5561
vn -0.3415 0.4261 -0.8377
vn -0.5014 0.8500 0.1617
vn 0.6143 -0.4249 -0.6649
vn 0.9080 0.4163 -0.0471
vn 0.0430 -0.0931 0.9947
vn 0.6799 -0.5058 0.5309
vn -0.4461 -0.5742 0.6865
vt 0.550384 0.206938
vt 0.375000 0.305791
vt 0.375000 0.049496
vt 0.180791 0.500000
vt 0.330928 0.574320
vt 0.125000 0.700504
vt 0.804283 0.500000
vt 0.842867 0.681766
vt 0.658516 0.626313
vt 0.875000 0.500000
vt 0.501754 0.540833
vt 0.565165 0.799791
vt 0.325310 0.750000
vt 0.604031 0.069198
vt 0.375000 1.000000
vt 0.375000 0.799690
vt 0.578028 1.000000
vt 0.615335 0.592735
vt 0.589707 0.775249
vt 0.581909 0.353207
s 0
g Cube_Material
usemtl Material
f 350/571/351 352/572/351 351/573/351
f 352/574/352 355/575/352 351/576/352
f 356/577/353 353/578/353 357/579/353
f 353/578/354 356/577/354 350/580/354
f 358/581/355 349/582/355 354/583/355 355/575/355
f 351/573/356 353/584/356 350/571/356
f 351/585/357 354/586/357 349/582/357 353/587/357
f 355/575/358 354/583/358 351/576/358
f 357/588/359 353/578/359 349/589/359
f 349/582/360 358/581/360 357/588/360
f 358/581/361 355/575/361 352/572/361 356/590/361
f 358/581/362 356/590/362 357/588/362
f 352/572/363 350/571/363 356/590/363
o Cube
v -2.205321 0.228800 2.874446
v -3.071714 -0.386719 2.850753
v -2.659553 -0.337653 3.371741
v -2.668754 -0.798579 3.009434
v -2.843147 0.206087 2.808775
v -2.108791 -0.235671 3.226556
v -2.168161 -0.713546 3.044600
v -2.736522 -0.499455 2.350725
v -2.309897 -0.125257 2.311335
v -2.139390 -0.544631 2.460640
vn -0.6822 -0.4434 0.5814
vn 0.0498 -0.6178 0.7847
vn -0.4541 0.4359 -0.7771
vn -0.7747 0.2578 -0.5774
vn 0.9982 0.0300 -0.0520
vn -0.7549 0.3312 0.5660
vn -0.0205 0.6688 0.7431
vn 0.3004 -0.3718 0.8784
vn 0.0251 0.8442 -0.5354
vn 0.9101 0.2532 -0.3282
vn 0.0806 -0.9319 -0.3535
vn 0.1539 -0.2753 -0.9490
vn -0.6368 -0.7246 -0.2635
vt 0.550384 0.206938
vt 0.375000 0.305791
vt 0.375000 0.049496
vt 0.180791 0.500000
vt 0.330928 0.574320
vt 0.125000 0.700504
vt 0.804283 0.500000
vt 0.842867 0.681766
vt 0.658516 0.626313
vt 0.875000 0.500000
vt 0.501754 0.540833
vt 0.565165 0.799791
vt 0.325310 0.750000
vt 0.604031 0.069198
vt 0.375000 1.000000
vt 0.375000 0.799690
vt 0.578028 1.000000
vt 0.615335 0.592735
vt 0.589707 0.775249
vt 0.581909 0.353207
s 0
g Cube_Material
usemtl Material
f 360/591/364 362/592/364 361/593/364
f 362/594/365 365/595/365 361/596/365
f 366/597/366 363/598/366 367/599/366
f 363/598/367 366/597/367 360/600/367
f 368/601/368 359/602/368 364/603/368 365/595/368
f 361/593/369 363/604/369 360/591/369
f 361/605/370 364/606/370 359/602/370 363/607/370
f 365/595/371 364/603/371 361/596/371
f 367/608/372 363/598/372 359/609/372
f 359/602/373 368/601/373 367/608/373
f 368/601/374 365/595/374 362/592/374 366/610/374
f 368/601/375 366/610/375 367/608/375
f 362/592/376 360/591/376 366/610/376
o Cube
v -1.844069 0.298287 3.395470
v -2.402721 -0.189731 3.161354
v -2.472076 0.178687 3.472856
v -2.451427 -0.232429 3.593848
v -2.086366 0.126808 3.031747
v -2.134894 0.265807 3.713663
v -2.230488 -0.072970 3.847751
v -2.052095 -0.429857 3.303602
v -1.727705 -0.180195 3.379074
v -1.871683 -0.277691 3.681456
vn -0.9892 -0.0849 -0.1198
vn -0.7883 0.1370 0.5999
vn 0.4678 -0.3644 -0.8052
vn 0.0668 -0.4345 -0.8982
vn 0.6206 0.2567 0.7409
vn -0.6637 0.4061 -0.6281
vn -0.2078 0.9555 -0.2095
vn -0.5950 0.4353 0.6756
vn 0.7663 0.2072 -0.6082
vn 0.8603 0.1930 0.4719
vn -0.1432 -0.8485 0.5095
vn 0.6050 -0.7956 0.0315
vn -0.5196 -0.8426 -0.1417
vt 0.550384 0.206938
vt 0.375000 0.305791
vt 0.375000 0.049496
vt 0.180791 0.500000
vt 0.330928 0.574320
vt 0.125000 0.700504
vt 0.804283 0.500000
vt 0.842867 0.681766
vt 0.658516 0.626313
vt 0.875000 0.500000
vt 0.501754 0.540833
vt 0.565165 0.799791
vt 0.325310 0.750000
vt 0.604031 0.069198
vt 0.375000 1.000000
vt 0.375000 0.799690
vt 0.578028 1.000000
vt 0.615335 0.592735
vt 0.589707 0.775249
vt 0.581909 0.353207
s 0
g Cube_Material
usemtl Material
f 370/611/377 372/612/377 371/613/377
f 372/614/378 375/615/378 371/616/378
f 376/617/379 373/618/379 377/619/379
f 373/618/380 376/617/380 370/620/380
f 378/621/381 369/622/381 374/623/381 375/615/381
f 371/613/382 373/624/382 370/611/382
f 371/625/383 374/626/383 369/622/383 373/627/383
f 375/615/384 374/623/384 371/616/384
f 377/628/385 373/618/385 369/629/385
f 369/622/386 378/621/386 377/628/386
f 378/621/387 375/615/387 372/612/387 376/630/387
f 378/621/388 376/630/388 377/628/388
f 372/612/389 370/611/389 376/630/389
o Cube
v 2.747625 0.383892 -1.471451
v 3.140161 -0.162511 -2.207748
v 2.714192 0.287208 -2.290787
v 2.596542 -0.249693 -2.314061
v 3.248627 0.220935 -1.762673
v 2.369742 0.343798 -1.874991
v 2.238624 -0.090397 -2.040992
v 2.950950 -0.516061 -1.796179
v 2.803331 -0.236526 -1.366161
v 2.439060 -0.372798 -1.587004
vn 0.1919 0.0005 -0.9814
vn -0.5540 0.1568 -0.8176
vn 0.7964 -0.3443 0.4972
vn 0.9210 -0.3765 0.1000
vn -0.7977 0.1569 0.5823
vn 0.6400 0.4981 -0.5851
vn 0.1527 0.9807 -0.1220
vn -0.6641 0.4334 -0.6092
vn 0.5385 0.1878 0.8214
vn -0.5414 0.0932 0.8356
vn -0.4354 -0.8673 -0.2412
vn -0.0139 -0.8405 0.5416
vn 0.2374 -0.7881 -0.5679
vt 0.550384 0.206938
vt 0.375000 0.305791
vt 0.375000 0.049496
vt 0.180791 0.500000
vt 0.330928 0.574320
vt 0.125000 0.700504
vt 0.804283 0.500000
vt 0.842867 0.681766
vt 0.658516 0.626313
vt 0.875000 0.500000
vt 0.501754 0.540833
vt 0.565165 0.799791
vt 0.325310 0.750000
vt 0.604031 0.069198
vt 0.375000 1.000000
vt 0.375000 0.799690
vt 0.578028 1.000000
vt 0.615335 0.592735
vt 0.589707 0.775249
vt 0.581909 0.353207
s 0
g Cube_Material
usemtl Material
f 380/631/390 382/632/390 381/633/390
f 382/634/391 385/635/391 381/636/391
f 386/637/392 383/638/392 387/639/392
f 383/638/393 386/637/393 380/640/393
f 388/641/394 379/642/394 384/643/394 385/635/394
f 381/633/395 383/644/395 380/631/395
f 381/645/396 384/646/396 379/642/396 383/647/396
f 385/635/397 384/643/397 381/636/397
f 387/648/398 383/638/398 379/649/398
f 379/642/399 388/641/399 387/648/399
f 388/641/400 385/635/400 382/632/400 386/650/400
f 388/641/401 386/650/401 387/648/401
f 382/632/402 380/631/402 386/650/402
o Cube
v -3.436672 0.354366 -1.317307
v -3.178710 0.166235 -0.581658
v -3.044263 0.580704 -0.831970
v -2.779897 0.229576 -0.782182
v -3.559510 0.261914 -0.858360
v -3.030016 0.529148 -1.265194
v -2.733789 0.302890 -1.156255
v -3.114596 -0.197668 -0.859018
v -3.300438 -0.128778 -1.239634
v -2.944518 -0.088394 -1.271438
vn 0.3626 0.3928 0.8451
vn 0.7657 0.6068 0.2133
vn -0.7008 -0.6788 0.2193
vn -0.5751 -0.5576 0.5986
vn 0.2260 0.0411 -0.9733
vn -0.3871 0.5654 0.7283
vn -0.4697 0.8823 -0.0317
vn 0.6221 0.7796 -0.0723
vn -0.9034 -0.3034 -0.3029
vn -0.0677 -0.1769 -0.9819
vn 0.8183 -0.5672 0.0933
vn 0.0905 -0.9713 -0.2200
vn 0.4526 -0.4887 0.7458
vt 0.550384 0.206938
vt 0.375000 0.305791
vt 0.375000 0.049496
vt 0.180791 0.500000
vt 0.330928 0.574320
vt 0.125000 0.700504
vt 0.804283 0.500000
vt 0.842867 0.681766
vt 0.658516 0.626313
vt 0.875000 0.500000
vt 0.501754 0.540833
vt 0.565165 0.799791
vt 0.325310 0.750000
vt 0.604031 0.069198
vt 0.375000 1.000000
vt 0.375000 0.799690
vt 0.578028 1.000000
vt 0.615335 0.592735
vt 0.589707 0.775249
vt 0.581909 0.353207
s 0
g Cube_Material
usemtl Material
f 390/651/403 392/652/403 391/653/403
f 392/654/404 395/655/404 391/656/404
f 396/657/405 393/658/405 397/659/405
f 393/658/406 396/657/406 390/660/406
f 398/661/407 389/662/407 394/663/407 395/655/407
f 391/653/408 393/664/408 390/651/408
f 391/665/409 394/666/409 389/662/409 393/667/409
f 395/655/410 394/663/410 391/656/410
f 397/668/411 393/658/411 389/669/411
f 389/662/412 398/661/412 397/668/412
f 398/661/413 395/655/413 392/652/413 396/670/413
f 398/661/414 396/670/414 397/668/414
f 392/652/415 390/651/415 396/670/415
o Cube
v 2.107862 -0.070781 0.704635
v 2.267661 0.285532 1.489817
v 2.124711 0.571390 1.042831
v 2.575560 0.557752 1.217497
v 1.971130 -0.050211 1.215525
v 2.278361 0.380179 0.633353
v 2.647022 0.498024 0.808087
v 2.653089 -0.017360 1.367544
v 2.551223 -0.261196 0.979773
v 2.802434 0.027759 0.890142
vn -0.1976 0.7959 0.5722
vn 0.0803 0.9882 -0.1302
vn -0.0815 -0.8339 0.5458
vn -0.1589 -0.5367 0.8287
vn 0.3458 -0.1596 -0.9247
vn -0.8153 0.3330 0.4737
vn -0.9199 0.2014 -0.3366
vn -0.0745 0.8926 -0.4447
vn -0.3625 -0.9301 -0.0596
vn 0.2889 -0.5037 -0.8141
vn 0.9380 0.2599 0.2293
vn 0.7693 -0.6121 0.1828
vn 0.4840 0.2814 0.8286
vt 0.550384 0.206938
vt 0.375000 0.305791
vt 0.375000 0.049496
vt 0.180791 0.500000
vt 0.330928 0.574320
vt 0.125000 0.700504
vt 0.804283 0.500000
vt 0.842867 0.681766
vt 0.658516 0.626313
vt 0.875000 0.500000
vt 0.501754 0.540833
vt 0.565165 0.799791
vt 0.325310 0.750000
vt 0.604031 0.069198
vt 0.375000 1.000000
vt 0.375000 0.799690
vt 0.578028 1.000000
vt 0.615335 0.592735
vt 0.589707 0.775249
vt 0.581909 0.353207
s 0
g Cube_Material
usemtl Material
f 400/671/416 402/672/416 401/673/416
f 402/674/417 405/675/417 401/676/417
f 406/677/418 403/678/418 407/679/418
f 403/678/419 406/677/419 400/680/419
f 408/681/420 399/682/420 404/683/420 405/675/420
f 401/673/421 403/684/421 400/671/421
f 401/685/422 404/686/422 399/682/422 403/687/422
f 405/675/423 404/683/423 401/676/423
f 407/688/424 403/678/424 399/689/424
f 399/682/425 408/681/425 407/688/425
f 408/681/426 405/675/426 402/672/426 406/690/426
f 408/681/427 406/690/427 407/688/427
f 402/672/428 400/671/428 406/690/428
o Cube
v 2.373083 0.702842 2.383551
v 1.231791 0.424858 2.415230
v 1.779978 -0.065929 2.443382
v 1.418958 0.036205 1.914866
v 1.756451 0.776204 2.726158
v 2.302562 0.109873 2.119168
v 1.935409 0.030572 1.691720
v 1.341159 0.835171 1.887965
v 1.928306 1.059570 1.905103
v 1.895143 0.684014 1.536969
vn -0.6440 -0.7019 0.3043
vn -0.0720 -0.9873 -0.1416
vn -0.3528 0.9048 0.2384
vn -0.6586 0.6540 0.3723
vn 0.8320 0.0285 -0.5541
vn -0.3229 -0.3094 0.8944
vn 0.4996 -0.3228 0.8039
vn 0.2820 -0.9573 -0.0646
vn 0.3085 0.8774 0.3674
vn 0.8015 0.3811 -0.4609
vn -0.4842 -0.1472 -0.8625
vn -0.2437 0.6898 -0.6817
vn -0.9552 -0.1024 -0.2778
vt 0.550384 0.206938
vt 0.375000 0.305791
vt 0.375000 0.049496
vt 0.180791 0.500000
vt 0.330928 0.574320
vt 0.125000 0.700504
vt 0.804283 0.500000
vt 0.842867 0.681766
vt 0.658516 0.626313
vt 0.875000 0.500000
vt 0.501754 0.540833
vt 0.565165 0.799791
vt 0.325310 0.750000
vt 0.604031 0.069198
vt 0.375000 1.000000
vt 0.375000 0.799690
vt 0.578028 1.000000
vt 0.615335 0.592735
vt 0.589707 0.775249
vt 0.581909 0.353207
s 0
g Cube_Material
usemtl Material
f 410/691/429 412/692/429 411/693/429
f 412/694/430 415/695/430 411/696/430
f 416/697/431 413/698/431 417/699/431
f 413/698/432 416/697/432 410/700/432
f 418/701/433 409/702/433 414/703/433 415/695/433
f 411/693/434 413/704/434 410/691/434
f 411/705/435 414/706/435 409/702/435 413/707/435
f 415/695/436 414/703/436 411/696/436
f 417/708/437 413/698/437 409/709/437
f 409/702/438 418/701/438 417/708/438
f 418/701/439 415/695/439 412/692/439 416/710/439
f 418/701/440 416/710/440 417/708/440
f 412/692/441 410/691/441 416/710/441
o Cube
v 2.701015 0.147472 0.217476
v 2.359582 0.599592 -0.616927
v 2.613741 0.021128 -0.603243
v 2.882232 0.469398 -0.794136
v 2.222034 0.394374 -0.065650
v 2.998626 -0.043955 -0.217223
v 3.223298 0.269753 -0.516632
v 2.719493 0.963245 -0.341506
v 2.853336 0.763221 0.141557
v 3.199891 0.710349 -0.144191
vn -0.3554 -0.1779 -0.9176
vn 0.3271 -0.5293 -0.7828
vn -0.5562 0.7020 0.4448
vn -0.7344 0.6753 0.0681
vn 0.8058 -0.2662 0.5290
vn -0.8527 -0.3830 -0.3553
vn -0.4560 -0.8710 0.1826
vn 0.3856 -0.7664 -0.5137
vn -0.4142 0.2116 0.8852
vn 0.6295 -0.0602 0.7746
vn 0.6227 0.5839 -0.5208
vn 0.3592 0.8932 0.2704
vn -0.0903 0.6566 -0.7488
vt 0.550384 0.206938
vt 0.375000 0.305791
vt 0.375000 0.049496
vt 0.180791 0.500000
vt 0.330928 0.574320
vt 0.125000 0.700504
vt 0.804283 0.500000
vt 0.842867 0.681766
vt 0.658516 0.626313
vt 0.875000 0.500000
vt 0.501754 0.540833
vt 0.565165 0.799791
vt 0.325310 0.750000
vt 0.604031 0.069198
vt 0.375000 1.000000
vt 0.375000 0.799690
vt 0.578028 1.000000
vt 0.615335 0.592735
vt 0.589707 0.775249
vt 0.581909 0.353207
s 0
g Cube_Material
usemtl Material
f 420/711/442 422/712/442 421/713/442
f 422/714/443 425/715/443 421/716/443
f 426/717/444 423/718/444 427/719/444
f 423/718/445 426/717/445 420/720/445
f 428/721/446 419/722/446 424/723/446 425/715/446
f 421/713/447 423/724/447 420/711/447
f 421/725/448 424/726/448 419/722/448 423/727/448
f 425/715/449 424/723/449 421/716/449
f 427/728/450 423/718/450 419/729/450
f 419/722/451 428/721/451 427/728/451
f 428/721/452 425/715/452 422/712/452 426/730/452
f 428/721/453 426/730/453 427/728/453
f 422/712/454 420/711/454 426/730/454
o Cube
v -1.230157 -0.119202 -1.563450
v -2.063346 0.500576 -1.305954
v -1.557429 0.355110 -0.890838
v -2.092456 0.109542 -0.849844
v -1.562849 0.417743 -1.697480
v -1.323671 -0.171006 -0.978553
v -1.792441 -0.302856 -0.801675
v -2.275112 -0.026758 -1.544705
v -1.842449 -0.336041 -1.756612
v -1.984159 -0.525324 -1.339166
vn -0.2907 0.7355 0.6120
vn 0.0171 0.1283 0.9916
vn -0.3183 0.1909 -0.9286
vn -0.4741 0.5140 -0.7148
vn 0.4278 -0.8984 0.0992
vn 0.2190 0.9729 0.0741
vn 0.8769 0.4714 0.0943
vn 0.3528 0.0008 0.9357
vn 0.3141 -0.0421 -0.9484
vn 0.3951 -0.8797 -0.2648
vn -0.8220 -0.4289 0.3746
vn -0.6532 -0.5812 -0.4853
vn -0.9378 0.2908 0.1895
vt 0.550384 0.206938
vt 0.375000 0.305791
vt 0.375000 0.049496
vt 0.180791 0.500000
vt 0.330928 0.574320
vt 0.125000 0.700504
vt 0.804283 0.500000
vt 0.842867 0.681766
vt 0.658516 0.626313
vt 0.875000 0.500000
vt 0.501754 0.540833
vt 0.565165 0.799791
vt 0.325310 0.750000
vt 0.604031 0.069198
vt 0.375000 1.000000
vt 0.375000 0.799690
vt 0.578028 1.000000
vt 0.615335 0.592735
vt 0.589707 0.775249
vt 0.581909 0.353207
s 0
g Cube_Material
usemtl Material
f 430/731/455 432/732/455 431/733/455
f 432/734/456 435/735/456 431/736/456
f 436/737/457 433/738/457 437/739/457
f 433/738/458 436/737/458 430/740/458
f 438/741/459 429/742/459 434/743/459 435/735/459
f 431/733/460 433/744/460 430/731/460
f 431/745/461 434/746/461 429/742/461 433/747/461
f 435/735/462 434/743/462 431/736/462
f 437/748/463 433/738/463 429/749/463
f 429/742/464 438/741/464 437/748/464
f 438/741/465 435/735/465 432/732/465 436/750/465
f 438/741/466 436/750/466 437/748/466
f 432/732/467 430/731/467 436/750/467
o Cube
v -2.299787 -0.114978 0.642349
v -2.622497 0.433864 0.121518
v -2.147410 0.238212 0.080410
v -2.232801 0.657842 0.230325
v -2.662854 -0.015916 0.318546
v -1.957963 0.137149 0.473309
v -1.972038 0.534439 0.498447
v -2.680173 0.592116 0.564484
v -2.564373 0.281054 0.853586
v -2.299615 0.537338 0.836747
vn 0.0619 0.3469 -0.9358
vn 0.7467 0.3533 -0.5636
vn -0.9605 -0.1275 0.2475
vn -0.9899 0.0280 -0.1389
vn 0.6321 -0.1506 0.7601
vn -0.2313 -0.3729 -0.8986
vn 0.2831 -0.8447 -0.4542
vn 0.9050 0.0587 -0.4213
vn -0.5970 -0.6498 0.4705
vn 0.3198 -0.2707 0.9080
vn 0.0984 0.9739 0.2044
vn -0.4496 0.5125 0.7316
vn -0.3896 0.8501 -0.3544
vt 0.550384 0.206938
vt 0.375000 0.305791
vt 0.375000 0.049496
vt 0.180791 0.500000
vt 0.330928 0.574320
vt 0.125000 0.700504
vt 0.804283 0.500000
vt 0.842867 0.681766
vt 0.658516 0.626313
vt 0.875000 0.500000
vt 0.501754 0.540833
vt 0.565165 0.799791
vt 0.325310 0.750000
vt 0.604031 0.069198
vt 0.375000 1.000000
vt 0.375000 0.799690
vt 0.578028 1.000000
vt 0.615335 0.592735
vt 0.589707 0.775249
vt 0.581909 0.353207
s 0
g Cube_Material
usemtl Material
f 440/751/468 442/752/468 441/753/468
f 442/754/469 445/755/469 441/756/469
f 446/757/470 443/758/470 447/759/470
f 443/758/471 446/757/471 440/760/471
f 448/761/472 439/762/472 444/763/472 445/755/472
f 441/753/473 443/764/473 440/751/473
f 441/765/474 444/766/474 439/762/474 443/767/474
f 445/755/475 444/763/475 441/756/475
f 447/768/476 443/758/476 439/769/476
f 439/762/477 448/761/477 447/768/477
f 448/761/478 445/755/478 442/752/478 446/770/478
f 448/761/479 446/770/479 447/768/479
f 442/752/480 440/751/480 446/770/480
o Cube
v -0.313068 -0.232359 2.041598
v 0.292239 -0.217379 1.465240
v 0.321462 0.020725 1.930897
v 0.245893 0.245043 1.535203
v 0.009517 -0.503122 1.763780
v -0.079483 0.166396 2.089225
v -0.031034 0.411980 1.771088
v -0.123073 -0.090854 1.256777
v -0.463569 -0.152434 1.540273
v -0.385055 0.213409 1.517576
vn 0.9856 0.1172 -0.1218
vn 0.6565 0.7031 0.2732
vn -0.3157 -0.7749 -0.5475
vn 0.0907 -0.7609 -0.6425
vn -0.7413 0.5084 0.4381
vn 0.8016 -0.5512 0.2315
vn 0.3050 -0.3833 0.8718
vn 0.4708 0.6622 0.5829
vn -0.6120 -0.7887 0.0580
vn -0.9247 0.2178 0.3123
vn -0.0164 0.7164 -0.6975
vn -0.6469 0.0919 -0.7570
vn 0.4842 0.1781 -0.8566
vt 0.550384 0.206938
vt 0.375000 0.305791
vt 0.375000 0.049496
vt 0.180791 0.500000
vt 0.330928 0.574320
vt 0.125000 0.700504
vt 0.804283 0.500000
vt 0.842867 0.681766
vt 0.658516 0.626313
vt 0.875000 0.500000
vt 0.501754 0.540833
vt 0.565165 0.799791
vt 0.325310 0.750000
vt 0.604031 0.069198
vt 0.375000 1.000000
vt 0.375000 0.799690
vt 0.578028 1.000000
vt 0.615335 0.592735
vt 0.589707 0.775249
vt 0.581909 0.353207
s 0
g Cube_Material
usemtl Material
f 450/771/481 452/772/481 451/773/481
f 452/774/482 455/775/482 451/776/482
f 456/777/483 453/778/483 457/779/483
f 453/778/484 456/777/484 450/780/484
f 458/781/485 449/782/485 454/783/485 455/775/485
f 451/773/486 453/784/486 450/771/486
f 451/785/487 454/786/487 449/782/487 453/787/487
f 455/775/488 454/783/488 451/776/488
f 457/788/489 453/778/489 449/789/489
f 449/782/490 458/781/490 457/788/490
f 458/781/491 455/775/491 452/772/491 456/790/491
f 458/781/492 456/790/492 457/788/492
f 452/772/493 450/771/493 456/790/493
o Cube
v 1.185915 0.594506 -0.350159
v 1.737782 0.007745 -0.699068
v 1.219098 -0.102571 -0.552910
v 1.604357 -0.242454 -0.295136
v 1.488251 0.465724 -0.765744
v 1.063949 0.153619 -0.180613
v 1.356616 -0.090048 0.008261
v 1.967181 0.235202 -0.309951
v 1.706399 0.593670 -0.154565
v 1.673412 0.290465 0.094297
vn 0.0360 -0.8549 -0.5176
vn -0.4090 -0.9046 0.1204
vn 0.6659 0.6461 -0.3729
vn 0.7295 0.3086 -0.6104
vn -0.4485 0.3242 0.8329
vn -0.2122 -0.2530 -0.9439
vn -0.8327 0.1177 -0.5410
vn -0.6968 -0.6926 0.1862
vn 0.0897 0.9679 -0.2347
vn -0.2729 0.6279 0.7289
vn 0.5961 -0.5227 0.6095
vn 0.7816 0.3427 0.5212
vn 0.7895 -0.6032 -0.1128
vt 0.550384 0.206938
vt 0.375000 0.305791
vt 0.375000 0.049496
vt 0.180791 0.500000
vt 0.330928 0.574320
vt 0.125000 0.700504
vt 0.804283 0.500000
vt 0.842867 0.681766
vt 0.658516 0.626313
vt 0.875000 0.500000
vt 0.501754 0.540833
vt 0.565165 0.799791
vt 0.325310 0.750000
vt 0.604031 0.069198
vt 0.375000 1.000000
vt 0.375000 0.799690
vt 0.578028 1.000000
vt 0.615335 0.592735
vt 0.589707 0.775249
vt 0.581909 0.353207
s 0
g Cube_Material
usemtl Material
f 460/791/494 462/792/494 461/793/494
f 462/794/495 465/795/495 461/796/495
f 466/797/496 463/798/496 467/799/496
f 463/798/497 466/797/497 460/800/497
f 468/801/498 459/802/498 464/803/498 465/795/498
f 461/793/499 463/804/499 460/791/499
f 461/805/500 464/806/500 459/802/500 463/807/500
f 465/795/501 464/803/501 461/796/501
f 467/808/502 463/798/502 459/809/502
f 459/802/503 468/801/503 467/808/503
f 468/801/504 465/795/504 462/792/504 466/810/504
f 468/801/505 466/810/505 467/808/505
f 462/792/506 460/791/506 466/810/506
