# Blender 4.1.0
# www.blender.org
mtllib Explosion20026.mtl
o Circle
v -0.024615 0.096888 -1.522372
v -0.024615 0.242742 -1.522372
v 0.122545 0.096888 -1.515142
v 0.122545 0.242742 -1.515142
v 0.268288 0.096888 -1.493523
v 0.268288 0.242742 -1.493523
v 0.411211 0.096888 -1.457723
v 0.411211 0.242742 -1.457723
v 0.549936 0.096888 -1.408086
v 0.549936 0.242742 -1.408086
v 0.683127 0.096888 -1.345092
v 0.683127 0.242742 -1.345092
v 0.809503 0.096888 -1.269345
v 0.809503 0.242742 -1.269345
v 0.927846 0.096888 -1.181576
v 0.927846 0.242742 -1.181576
v 1.037016 0.096888 -1.082630
v 1.037016 0.242742 -1.082630
v 1.135962 0.096888 -0.973460
v 1.135962 0.242742 -0.973460
v 1.223731 0.096888 -0.855117
v 1.223731 0.242742 -0.855117
v 1.299478 0.096888 -0.728741
v 1.299478 0.242742 -0.728741
v 1.362473 0.096888 -0.595549
v 1.362473 0.242742 -0.595549
v 1.412110 0.096888 -0.456824
v 1.412110 0.242742 -0.456824
v 1.447910 0.096888 -0.313902
v 1.447910 0.242742 -0.313902
v 1.469529 0.096888 -0.168159
v 1.469529 0.242742 -0.168159
v 1.476758 0.096888 -0.020998
v 1.476758 0.242742 -0.020998
v 1.469529 0.096888 0.126162
v 1.469529 0.242742 0.126162
v 1.447910 0.096888 0.271905
v 1.447910 0.242742 0.271905
v 1.412110 0.096888 0.414827
v 1.412110 0.242742 0.414827
v 1.362473 0.096888 0.553553
v 1.362473 0.242742 0.553553
v 1.299478 0.096888 0.686744
v 1.299478 0.242742 0.686744
v 1.223731 0.096888 0.813120
v 1.223731 0.242742 0.813120
v 1.135962 0.096888 0.931463
v 1.135962 0.242742 0.931463
v 1.037016 0.096888 1.040633
v 1.037016 0.242742 1.040633
v 0.927846 0.096888 1.139579
v 0.927846 0.242742 1.139579
v 0.809503 0.096888 1.227348
v 0.809503 0.242742 1.227348
v 0.683127 0.096888 1.303095
v 0.683127 0.242742 1.303095
v 0.549936 0.096888 1.366090
v 0.549936 0.242742 1.366090
v 0.411211 0.096888 1.415727
v 0.411211 0.242742 1.415727
v 0.268288 0.096888 1.451527
v 0.268288 0.242742 1.451527
v 0.122545 0.096888 1.473146
v 0.122545 0.242742 1.473146
v -0.024615 0.096888 1.480376
v -0.024615 0.242742 1.480376
v -0.171775 0.096888 1.473146
v -0.171775 0.242742 1.473146
v -0.317519 0.096888 1.451527
v -0.317519 0.242742 1.451527
v -0.460441 0.096888 1.415727
v -0.460441 0.242742 1.415727
v -0.599166 0.096888 1.366090
v -0.599166 0.242742 1.366090
v -0.732358 0.096888 1.303095
v -0.732358 0.242742 1.303095
v -0.858734 0.096888 1.227348
v -0.858734 0.242742 1.227348
v -0.977076 0.096888 1.139579
v -0.977076 0.242742 1.139579
v -1.086246 0.096888 1.040633
v -1.086246 0.242742 1.040633
v -1.185192 0.096888 0.931463
v -1.185192 0.242742 0.931463
v -1.272961 0.096888 0.813120
v -1.272961 0.242742 0.813120
v -1.348708 0.096888 0.686744
v -1.348708 0.242742 0.686744
v -1.411703 0.096888 0.553553
v -1.411703 0.242742 0.553553
v -1.461340 0.096888 0.414827
v -1.461340 0.242742 0.414827
v -1.497140 0.096888 0.271905
v -1.497140 0.242742 0.271905
v -1.518759 0.096888 0.126162
v -1.518759 0.242742 0.126162
v -1.525989 0.096888 -0.020998
v -1.525989 0.242742 -0.020998
v -1.518759 0.096888 -0.168159
v -1.518759 0.242742 -0.168159
v -1.497140 0.096888 -0.313902
v -1.497140 0.242742 -0.313902
v -1.461340 0.096888 -0.456824
v -1.461340 0.242742 -0.456824
v -1.411703 0.096888 -0.595549
v -1.411703 0.242742 -0.595549
v -1.348708 0.096888 -0.728741
v -1.348708 0.242742 -0.728741
v -1.272961 0.096888 -0.855117
v -1.272961 0.242742 -0.855117
v -1.185192 0.096888 -0.973460
v -1.185192 0.242742 -0.973460
v -1.086246 0.096888 -1.082630
v -1.086246 0.242742 -1.082630
v -0.977076 0.096888 -1.181576
v -0.977076 0.242742 -1.181576
v -0.858734 0.096888 -1.269345
v -0.858734 0.242742 -1.269345
v -0.732358 0.096888 -1.345092
v -0.732358 0.242742 -1.345092
v -0.599166 0.096888 -1.408086
v -0.599166 0.242742 -1.408086
v -0.460441 0.096888 -1.457723
v -0.460441 0.242742 -1.457723
v -0.317519 0.096888 -1.493523
v -0.317519 0.242742 -1.493523
v -0.171775 0.096888 -1.515142
v -0.171775 0.242742 -1.515142
vn 0.0491 -0.0000 -0.9988
vn 0.1467 -0.0000 -0.9892
vn 0.2430 -0.0000 -0.9700
vn 0.3369 -0.0000 -0.9415
vn 0.4276 -0.0000 -0.9040
vn 0.5141 -0.0000 -0.8577
vn 0.5957 -0.0000 -0.8032
vn 0.6716 -0.0000 -0.7410
vn 0.7410 -0.0000 -0.6716
vn 0.8032 -0.0000 -0.5957
vn 0.8577 -0.0000 -0.5141
vn 0.9040 -0.0000 -0.4276
vn 0.9415 -0.0000 -0.3369
vn 0.9700 -0.0000 -0.2430
vn 0.9892 -0.0000 -0.1467
vn 0.9988 -0.0000 -0.0491
vn 0.9988 -0.0000 0.0491
vn 0.9892 -0.0000 0.1467
vn 0.9700 -0.0000 0.2430
vn 0.9415 -0.0000 0.3369
vn 0.9040 -0.0000 0.4276
vn 0.8577 -0.0000 0.5141
vn 0.8032 -0.0000 0.5957
vn 0.7410 -0.0000 0.6716
vn 0.6716 -0.0000 0.7410
vn 0.5957 -0.0000 0.8032
vn 0.5141 -0.0000 0.8577
vn 0.4276 -0.0000 0.9040
vn 0.3369 -0.0000 0.9415
vn 0.2430 -0.0000 0.9700
vn 0.1467 -0.0000 0.9892
vn 0.0491 -0.0000 0.9988
vn -0.0491 -0.0000 0.9988
vn -0.1467 -0.0000 0.9892
vn -0.2430 -0.0000 0.9700
vn -0.3369 -0.0000 0.9415
vn -0.4276 -0.0000 0.9040
vn -0.5141 -0.0000 0.8577
vn -0.5957 -0.0000 0.8032
vn -0.6716 -0.0000 0.7410
vn -0.7410 -0.0000 0.6716
vn -0.8032 -0.0000 0.5957
vn -0.8577 -0.0000 0.5141
vn -0.9040 -0.0000 0.4276
vn -0.9415 -0.0000 0.3369
vn -0.9700 -0.0000 0.2430
vn -0.9892 -0.0000 0.1467
vn -0.9988 -0.0000 0.0491
vn -0.9988 -0.0000 -0.0491
vn -0.9892 -0.0000 -0.1467
vn -0.9700 -0.0000 -0.2430
vn -0.9415 -0.0000 -0.3369
vn -0.9040 -0.0000 -0.4276
vn -0.8577 -0.0000 -0.5141
vn -0.8032 -0.0000 -0.5957
vn -0.7410 -0.0000 -0.6716
vn -0.6716 -0.0000 -0.7410
vn -0.5957 -0.0000 -0.8032
vn -0.5141 -0.0000 -0.8577
vn -0.4276 -0.0000 -0.9040
vn -0.3369 -0.0000 -0.9415
vn -0.2430 -0.0000 -0.9700
vn -0.1467 -0.0000 -0.9892
vn -0.0491 -0.0000 -0.9988
vt 1.000000 0.500000
vt 1.000000 1.000000
vt 0.984375 1.000000
vt 0.984375 0.500000
vt 0.968750 1.000000
vt 0.968750 0.500000
vt 0.953125 1.000000
vt 0.953125 0.500000
vt 0.937500 1.000000
vt 0.937500 0.500000
vt 0.921875 1.000000
vt 0.921875 0.500000
vt 0.906250 1.000000
vt 0.906250 0.500000
vt 0.890625 1.000000
vt 0.890625 0.500000
vt 0.875000 1.000000
vt 0.875000 0.500000
vt 0.859375 1.000000
vt 0.859375 0.500000
vt 0.843750 1.000000
vt 0.843750 0.500000
vt 0.828125 1.000000
vt 0.828125 0.500000
vt 0.812500 1.000000
vt 0.812500 0.500000
vt 0.796875 1.000000
vt 0.796875 0.500000
vt 0.781250 1.000000
vt 0.781250 0.500000
vt 0.765625 1.000000
vt 0.765625 0.500000
vt 0.750000 1.000000
vt 0.750000 0.500000
vt 0.734375 1.000000
vt 0.734375 0.500000
vt 0.718750 1.000000
vt 0.718750 0.500000
vt 0.703125 1.000000
vt 0.703125 0.500000
vt 0.687500 1.000000
vt 0.687500 0.500000
vt 0.671875 1.000000
vt 0.671875 0.500000
vt 0.656250 1.000000
vt 0.656250 0.500000
vt 0.640625 1.000000
vt 0.640625 0.500000
vt 0.625000 1.000000
vt 0.625000 0.500000
vt 0.609375 1.000000
vt 0.609375 0.500000
vt 0.593750 1.000000
vt 0.593750 0.500000
vt 0.578125 1.000000
vt 0.578125 0.500000
vt 0.562500 1.000000
vt 0.562500 0.500000
vt 0.546875 1.000000
vt 0.546875 0.500000
vt 0.531250 1.000000
vt 0.531250 0.500000
vt 0.515625 1.000000
vt 0.515625 0.500000
vt 0.500000 1.000000
vt 0.500000 0.500000
vt 0.484375 1.000000
vt 0.484375 0.500000
vt 0.468750 1.000000
vt 0.468750 0.500000
vt 0.453125 1.000000
vt 0.453125 0.500000
vt 0.437500 1.000000
vt 0.437500 0.500000
vt 0.421875 1.000000
vt 0.421875 0.500000
vt 0.406250 1.000000
vt 0.406250 0.500000
vt 0.390625 1.000000
vt 0.390625 0.500000
vt 0.375000 1.000000
vt 0.375000 0.500000
vt 0.359375 1.000000
vt 0.359375 0.500000
vt 0.343750 1.000000
vt 0.343750 0.500000
vt 0.328125 1.000000
vt 0.328125 0.500000
vt 0.312500 1.000000
vt 0.312500 0.500000
vt 0.296875 1.000000
vt 0.296875 0.500000
vt 0.281250 1.000000
vt 0.281250 0.500000
vt 0.265625 1.000000
vt 0.265625 0.500000
vt 0.250000 1.000000
vt 0.250000 0.500000
vt 0.234375 1.000000
vt 0.234375 0.500000
vt 0.218750 1.000000
vt 0.218750 0.500000
vt 0.203125 1.000000
vt 0.203125 0.500000
vt 0.187500 1.000000
vt 0.187500 0.500000
vt 0.171875 1.000000
vt 0.171875 0.500000
vt 0.156250 1.000000
vt 0.156250 0.500000
vt 0.140625 1.000000
vt 0.140625 0.500000
vt 0.125000 1.000000
vt 0.125000 0.500000
vt 0.109375 1.000000
vt 0.109375 0.500000
vt 0.093750 1.000000
vt 0.093750 0.500000
vt 0.078125 1.000000
vt 0.078125 0.500000
vt 0.062500 1.000000
vt 0.062500 0.500000
vt 0.046875 1.000000
vt 0.046875 0.500000
vt 0.031250 1.000000
vt 0.031250 0.500000
vt 0.015625 1.000000
vt 0.015625 0.500000
vt 0.000000 1.000000
vt 0.000000 0.500000
s 0
g Circle_Material.001
usemtl Material.001
f 1/1/1 2/2/1 4/3/1 3/4/1
f 3/4/2 4/3/2 6/5/2 5/6/2
f 5/6/3 6/5/3 8/7/3 7/8/3
f 7/8/4 8/7/4 10/9/4 9/10/4
f 9/10/5 10/9/5 12/11/5 11/12/5
f 11/12/6 12/11/6 14/13/6 13/14/6
f 13/14/7 14/13/7 16/15/7 15/16/7
f 15/16/8 16/15/8 18/17/8 17/18/8
f 17/18/9 18/17/9 20/19/9 19/20/9
f 19/20/10 20/19/10 22/21/10 21/22/10
f 21/22/11 22/21/11 24/23/11 23/24/11
f 23/24/12 24/23/12 26/25/12 25/26/12
f 25/26/13 26/25/13 28/27/13 27/28/13
f 27/28/14 28/27/14 30/29/14 29/30/14
f 29/30/15 30/29/15 32/31/15 31/32/15
f 31/32/16 32/31/16 34/33/16 33/34/16
f 33/34/17 34/33/17 36/35/17 35/36/17
f 35/36/18 36/35/18 38/37/18 37/38/18
f 37/38/19 38/37/19 40/39/19 39/40/19
f 39/40/20 40/39/20 42/41/20 41/42/20
f 41/42/21 42/41/21 44/43/21 43/44/21
f 43/44/22 44/43/22 46/45/22 45/46/22
f 45/46/23 46/45/23 48/47/23 47/48/23
f 47/48/24 48/47/24 50/49/24 49/50/24
f 49/50/25 50/49/25 52/51/25 51/52/25
f 51/52/26 52/51/26 54/53/26 53/54/26
f 53/54/27 54/53/27 56/55/27 55/56/27
f 55/56/28 56/55/28 58/57/28 57/58/28
f 57/58/29 58/57/29 60/59/29 59/60/29
f 59/60/30 60/59/30 62/61/30 61/62/30
f 61/62/31 62/61/31 64/63/31 63/64/31
f 63/64/32 64/63/32 66/65/32 65/66/32
f 65/66/33 66/65/33 68/67/33 67/68/33
f 67/68/34 68/67/34 70/69/34 69/70/34
f 69/70/35 70/69/35 72/71/35 71/72/35
f 71/72/36 72/71/36 74/73/36 73/74/36
f 73/74/37 74/73/37 76/75/37 75/76/37
f 75/76/38 76/75/38 78/77/38 77/78/38
f 77/78/39 78/77/39 80/79/39 79/80/39
f 79/80/40 80/79/40 82/81/40 81/82/40
f 81/82/41 82/81/41 84/83/41 83/84/41
f 83/84/42 84/83/42 86/85/42 85/86/42
f 85/86/43 86/85/43 88/87/43 87/88/43
f 87/88/44 88/87/44 90/89/44 89/90/44
f 89/90/45 90/89/45 92/91/45 91/92/45
f 91/92/46 92/91/46 94/93/46 93/94/46
f 93/94/47 94/93/47 96/95/47 95/96/47
f 95/96/48 96/95/48 98/97/48 97/98/48
f 97/98/49 98/97/49 100/99/49 99/100/49
f 99/100/50 100/99/50 102/101/50 101/102/50
f 101/102/51 102/101/51 104/103/51 103/104/51
f 103/104/52 104/103/52 106/105/52 105/106/52
f 105/106/53 106/105/53 108/107/53 107/108/53
f 107/108/54 108/107/54 110/109/54 109/110/54
f 109/110/55 110/109/55 112/111/55 111/112/55
f 111/112/56 112/111/56 114/113/56 113/114/56
f 113/114/57 114/113/57 116/115/57 115/116/57
f 115/116/58 116/115/58 118/117/58 117/118/58
f 117/118/59 118/117/59 120/119/59 119/120/59
f 119/120/60 120/119/60 122/121/60 121/122/60
f 121/122/61 122/121/61 124/123/61 123/124/61
f 123/124/62 124/123/62 126/125/62 125/126/62
f 125/126/63 126/125/63 128/127/63 127/128/63
f 127/128/64 128/127/64 2/129/64 1/130/64
o Cube
v -3.743383 0.050666 3.801152
v -3.998311 0.476796 4.538422
v -4.337700 0.173520 4.217356
v -4.334795 0.663800 4.219748
v -3.678703 0.104930 4.330962
v -4.218354 0.175852 3.748468
v -4.340330 0.585239 3.801498
v -3.744100 0.804824 4.238357
v -3.548498 0.574235 3.871178
v -3.870607 0.773042 3.746247
vn -0.6875 0.0005 0.7262
vn -0.9999 0.0059 0.0121
vn 0.9074 0.1373 0.3972
vn 0.6609 0.1588 0.7335
vn -0.0026 -0.0022 -1.0000
vn -0.1961 -0.6009 0.7749
vn -0.1742 -0.9838 0.0416
vn -0.9384 -0.2485 -0.2401
vn 0.9376 -0.3383 -0.0798
vn 0.3573 -0.0081 -0.9340
vn -0.2977 0.9519 -0.0722
vn 0.5693 0.7980 -0.1979
vn -0.1970 0.7405 0.6426
vt 0.550384 0.206938
vt 0.375000 0.305791
vt 0.375000 0.049496
vt 0.180791 0.500000
vt 0.330928 0.574320
vt 0.125000 0.700504
vt 0.804283 0.500000
vt 0.842867 0.681766
vt 0.658516 0.626313
vt 0.875000 0.500000
vt 0.501754 0.540833
vt 0.565165 0.799791
vt 0.325310 0.750000
vt 0.604031 0.069198
vt 0.375000 1.000000
vt 0.375000 0.799690
vt 0.578028 1.000000
vt 0.615335 0.592735
vt 0.589707 0.775249
vt 0.581909 0.353207
s 0
g Cube_Material
usemtl Material
f 130/131/65 132/132/65 131/133/65
f 132/134/66 135/135/66 131/136/66
f 136/137/67 133/138/67 137/139/67
f 133/138/68 136/137/68 130/140/68
f 138/141/69 129/142/69 134/143/69 135/135/69
f 131/133/70 133/144/70 130/131/70
f 131/145/71 134/146/71 129/142/71 133/147/71
f 135/135/72 134/143/72 131/136/72
f 137/148/73 133/138/73 129/149/73
f 129/142/74 138/141/74 137/148/74
f 138/141/75 135/135/75 132/132/75 136/150/75
f 138/141/76 136/150/76 137/148/76
f 132/132/77 130/131/77 136/150/77
o Cube
v -3.254696 -0.036402 5.263927
v -2.913220 0.855771 5.523033
v -2.977174 0.378412 5.913825
v -3.318322 0.804463 5.901086
v -2.834230 0.379397 5.179065
v -3.385466 0.048897 5.791392
v -3.625483 0.443967 5.918092
v -3.404017 0.922436 5.240434
v -3.561583 0.460220 5.035340
v -3.807250 0.554272 5.392842
vn 0.5676 0.4746 0.6727
vn 0.0104 0.0382 0.9992
vn 0.2183 0.3327 -0.9174
vn 0.4675 0.5671 -0.6781
vn -0.7763 -0.6300 0.0226
vn 0.9813 0.0248 0.1909
vn 0.6517 -0.7342 0.1904
vn -0.0261 -0.3196 0.9472
vn 0.1462 -0.3376 -0.9298
vn -0.7229 -0.6024 -0.3383
vn -0.6532 0.7025 0.2825
vn -0.6582 0.4813 -0.5789
vn 0.0351 0.9846 0.1713
vt 0.550384 0.206938
vt 0.375000 0.305791
vt 0.375000 0.049496
vt 0.180791 0.500000
vt 0.330928 0.574320
vt 0.125000 0.700504
vt 0.804283 0.500000
vt 0.842867 0.681766
vt 0.658516 0.626313
vt 0.875000 0.500000
vt 0.501754 0.540833
vt 0.565165 0.799791
vt 0.325310 0.750000
vt 0.604031 0.069198
vt 0.375000 1.000000
vt 0.375000 0.799690
vt 0.578028 1.000000
vt 0.615335 0.592735
vt 0.589707 0.775249
vt 0.581909 0.353207
s 0
g Cube_Material
usemtl Material
f 140/151/78 142/152/78 141/153/78
f 142/154/79 145/155/79 141/156/79
f 146/157/80 143/158/80 147/159/80
f 143/158/81 146/157/81 140/160/81
f 148/161/82 139/162/82 144/163/82 145/155/82
f 141/153/83 143/164/83 140/151/83
f 141/165/84 144/166/84 139/162/84 143/167/84
f 145/155/85 144/163/85 141/156/85
f 147/168/86 143/158/86 139/169/86
f 139/162/87 148/161/87 147/168/87
f 148/161/88 145/155/88 142/152/88 146/170/88
f 148/161/89 146/170/89 147/168/89
f 142/152/90 140/151/90 146/170/90
o Cube
v 3.995788 0.259615 -3.272851
v 4.699335 0.482353 -3.441211
v 4.593089 0.079134 -3.215188
v 4.748628 0.415992 -3.023769
v 4.290660 0.371645 -3.603312
v 4.254993 0.102922 -2.980931
v 4.480497 0.325944 -2.797186
v 4.492870 0.809964 -3.240680
v 4.100459 0.720881 -3.194483
v 4.259921 0.685342 -2.896963
vn 0.9277 -0.3358 -0.1629
vn 0.6298 -0.5827 0.5137
vn -0.2363 0.6818 -0.6923
vn 0.1568 0.5856 -0.7953
vn -0.6902 -0.0975 0.7170
vn 0.4329 -0.5249 -0.7329
vn -0.2302 -0.8886 -0.3968
vn 0.3226 -0.7745 0.5442
vn -0.7619 0.2727 -0.5874
vn -0.8696 0.1158 0.4799
vn 0.4894 0.5823 0.6492
vn -0.1917 0.9571 0.2171
vn 0.8421 0.5391 -0.0137
vt 0.550384 0.206938
vt 0.375000 0.305791
vt 0.375000 0.049496
vt 0.180791 0.500000
vt 0.330928 0.574320
vt 0.125000 0.700504
vt 0.804283 0.500000
vt 0.842867 0.681766
vt 0.658516 0.626313
vt 0.875000 0.500000
vt 0.501754 0.540833
vt 0.565165 0.799791
vt 0.325310 0.750000
vt 0.604031 0.069198
vt 0.375000 1.000000
vt 0.375000 0.799690
vt 0.578028 1.000000
vt 0.615335 0.592735
vt 0.589707 0.775249
vt 0.581909 0.353207
s 0
g Cube_Material
usemtl Material
f 150/171/91 152/172/91 151/173/91
f 152/174/92 155/175/92 151/176/92
f 156/177/93 153/178/93 157/179/93
f 153/178/94 156/177/94 150/180/94
f 158/181/95 149/182/95 154/183/95 155/175/95
f 151/173/96 153/184/96 150/171/96
f 151/185/97 154/186/97 149/182/97 153/187/97
f 155/175/98 154/183/98 151/176/98
f 157/188/99 153/178/99 149/189/99
f 149/182/100 158/181/100 157/188/100
f 158/181/101 155/175/101 152/172/101 156/190/101
f 158/181/102 156/190/102 157/188/102
f 152/172/103 150/171/103 156/190/103
o Cube
v -5.485333 -0.110070 -1.965923
v -4.762588 -0.032264 -2.481968
v -4.763435 -0.263279 -1.973369
v -4.586187 0.185798 -2.066610
v -5.253935 -0.235964 -2.435070
v -5.089762 -0.070715 -1.670235
v -4.817913 0.261463 -1.716235
v -4.993473 0.425483 -2.451267
v -5.414463 0.383504 -2.230889
v -5.149021 0.546322 -1.980215
vn 0.9024 -0.3929 -0.1770
vn 0.7978 -0.1965 0.5701
vn -0.4703 0.1640 -0.8672
vn -0.1014 0.0156 -0.9947
vn -0.4935 0.3521 0.7953
vn 0.3203 -0.8627 -0.3913
vn -0.1987 -0.9483 0.2475
vn 0.5321 -0.3274 0.7808
vn -0.9027 -0.0956 -0.4196
vn -0.7471 0.3945 0.5350
vn 0.5447 0.8367 0.0566
vn -0.2580 0.9119 -0.3191
vn 0.7421 0.4099 -0.5304
vt 0.550384 0.206938
vt 0.375000 0.305791
vt 0.375000 0.049496
vt 0.180791 0.500000
vt 0.330928 0.574320
vt 0.125000 0.700504
vt 0.804283 0.500000
vt 0.842867 0.681766
vt 0.658516 0.626313
vt 0.875000 0.500000
vt 0.501754 0.540833
vt 0.565165 0.799791
vt 0.325310 0.750000
vt 0.604031 0.069198
vt 0.375000 1.000000
vt 0.375000 0.799690
vt 0.578028 1.000000
vt 0.615335 0.592735
vt 0.589707 0.775249
vt 0.581909 0.353207
s 0
g Cube_Material
usemtl Material
f 160/191/104 162/192/104 161/193/104
f 162/194/105 165/195/105 161/196/105
f 166/197/106 163/198/106 167/199/106
f 163/198/107 166/197/107 160/200/107
f 168/201/108 159/202/108 164/203/108 165/195/108
f 161/193/109 163/204/109 160/191/109
f 161/205/110 164/206/110 159/202/110 163/207/110
f 165/195/111 164/203/111 161/196/111
f 167/208/112 163/198/112 159/209/112
f 159/202/113 168/201/113 167/208/113
f 168/201/114 165/195/114 162/192/114 166/210/114
f 168/201/115 166/210/115 167/208/115
f 162/192/116 160/191/116 166/210/116
o Cube
v 4.289227 -0.250225 2.444148
v 4.977192 -0.129936 2.092551
v 4.769426 -0.569865 2.150451
v 5.102284 -0.431307 2.387120
v 4.517950 -0.038110 2.090023
v 4.533860 -0.604481 2.503230
v 4.880098 -0.572757 2.653169
v 4.980396 0.078392 2.491952
v 4.599121 0.067506 2.663930
v 4.805930 -0.165835 2.824314
vn 0.6359 -0.3881 -0.6671
vn 0.4437 -0.8903 -0.1028
vn -0.1029 0.9808 -0.1659
vn 0.1769 0.8721 -0.4563
vn -0.4652 -0.3165 0.8267
vn -0.0189 -0.1217 -0.9924
vn -0.6647 -0.4524 -0.5945
vn 0.1034 -0.9942 -0.0285
vn -0.7048 0.7087 -0.0307
vn -0.5951 0.0247 0.8033
vn 0.8305 0.0100 0.5569
vn 0.2774 0.6989 0.6592
vn 0.9557 0.2578 -0.1421
vt 0.550384 0.206938
vt 0.375000 0.305791
vt 0.375000 0.049496
vt 0.180791 0.500000
vt 0.330928 0.574320
vt 0.125000 0.700504
vt 0.804283 0.500000
vt 0.842867 0.681766
vt 0.658516 0.626313
vt 0.875000 0.500000
vt 0.501754 0.540833
vt 0.565165 0.799791
vt 0.325310 0.750000
vt 0.604031 0.069198
vt 0.375000 1.000000
vt 0.375000 0.799690
vt 0.578028 1.000000
vt 0.615335 0.592735
vt 0.589707 0.775249
vt 0.581909 0.353207
s 0
g Cube_Material
usemtl Material
f 170/211/117 172/212/117 171/213/117
f 172/214/118 175/215/118 171/216/118
f 176/217/119 173/218/119 177/219/119
f 173/218/120 176/217/120 170/220/120
f 178/221/121 169/222/121 174/223/121 175/215/121
f 171/213/122 173/224/122 170/211/122
f 171/225/123 174/226/123 169/222/123 173/227/123
f 175/215/124 174/223/124 171/216/124
f 177/228/125 173/218/125 169/229/125
f 169/222/126 178/221/126 177/228/126
f 178/221/127 175/215/127 172/212/127 176/230/127
f 178/221/128 176/230/128 177/228/128
f 172/212/129 170/211/129 176/230/129
o Cube
v 3.798768 0.007494 3.346870
v 3.602114 0.391857 2.593580
v 3.562473 0.631788 3.080260
v 3.184368 0.473774 2.832436
v 3.972104 0.160736 2.876679
v 3.454922 0.335129 3.432083
v 3.097136 0.326844 3.211407
v 3.365495 -0.048289 2.616004
v 3.510690 -0.290187 2.985143
v 3.158105 -0.142048 3.058135
vn -0.0802 0.8914 -0.4460
vn -0.4926 0.8436 0.2137
vn 0.4791 -0.6358 -0.6051
vn 0.4605 -0.2903 -0.8388
vn -0.3557 -0.4293 0.8302
vn 0.6567 0.6963 -0.2898
vn 0.7104 0.4862 0.5089
vn -0.3502 0.7661 0.5389
vn 0.7019 -0.7118 0.0268
vn -0.1504 -0.7013 0.6969
vn -0.9283 -0.0924 -0.3602
vn -0.4240 -0.8249 -0.3738
vn -0.4562 0.2011 -0.8669
vt 0.550384 0.206938
vt 0.375000 0.305791
vt 0.375000 0.049496
vt 0.180791 0.500000
vt 0.330928 0.574320
vt 0.125000 0.700504
vt 0.804283 0.500000
vt 0.842867 0.681766
vt 0.658516 0.626313
vt 0.875000 0.500000
vt 0.501754 0.540833
vt 0.565165 0.799791
vt 0.325310 0.750000
vt 0.604031 0.069198
vt 0.375000 1.000000
vt 0.375000 0.799690
vt 0.578028 1.000000
vt 0.615335 0.592735
vt 0.589707 0.775249
vt 0.581909 0.353207
s 0
g Cube_Material
usemtl Material
f 180/231/130 182/232/130 181/233/130
f 182/234/131 185/235/131 181/236/131
f 186/237/132 183/238/132 187/239/132
f 183/238/133 186/237/133 180/240/133
f 188/241/134 179/242/134 184/243/134 185/235/134
f 181/233/135 183/244/135 180/231/135
f 181/245/136 184/246/136 179/242/136 183/247/136
f 185/235/137 184/243/137 181/236/137
f 187/248/138 183/238/138 179/249/138
f 179/242/139 188/241/139 187/248/139
f 188/241/140 185/235/140 182/232/140 186/250/140
f 188/241/141 186/250/141 187/248/141
f 182/232/142 180/231/142 186/250/142
o Cube
v 4.512805 0.141394 -0.880978
v 4.499487 -0.820146 -0.208457
v 4.668643 -0.146740 0.033596
v 5.109550 -0.608319 -0.073568
v 4.126212 -0.393497 -0.623980
v 4.950551 0.222859 -0.404480
v 5.355060 -0.167260 -0.320280
v 4.869273 -0.946113 -0.760230
v 4.818099 -0.472101 -1.168878
v 5.285066 -0.445376 -0.927783
vn -0.0996 -0.3143 0.9441
vn 0.4513 0.2310 0.8620
vn -0.5433 -0.5811 -0.6060
vn -0.6075 -0.7592 -0.2338
vn 0.5673 0.6647 -0.4862
vn -0.7634 -0.0400 0.6447
vn -0.6201 0.7118 0.3299
vn 0.3919 0.5633 0.7274
vn -0.6129 0.0646 -0.7875
vn 0.3623 0.5376 -0.7614
vn 0.8299 -0.5542 0.0648
vn 0.4017 -0.5727 -0.7146
vn 0.2332 -0.9024 0.3623
vt 0.550384 0.206938
vt 0.375000 0.305791
vt 0.375000 0.049496
vt 0.180791 0.500000
vt 0.330928 0.574320
vt 0.125000 0.700504
vt 0.804283 0.500000
vt 0.842867 0.681766
vt 0.658516 0.626313
vt 0.875000 0.500000
vt 0.501754 0.540833
vt 0.565165 0.799791
vt 0.325310 0.750000
vt 0.604031 0.069198
vt 0.375000 1.000000
vt 0.375000 0.799690
vt 0.578028 1.000000
vt 0.615335 0.592735
vt 0.589707 0.775249
vt 0.581909 0.353207
s 0
g Cube_Material
usemtl Material
f 190/251/143 192/252/143 191/253/143
f 192/254/144 195/255/144 191/256/144
f 196/257/145 193/258/145 197/259/145
f 193/258/146 196/257/146 190/260/146
f 198/261/147 189/262/147 194/263/147 195/255/147
f 191/253/148 193/264/148 190/251/148
f 191/265/149 194/266/149 189/262/149 193/267/149
f 195/255/150 194/263/150 191/256/150
f 197/268/151 193/258/151 189/269/151
f 189/262/152 198/261/152 197/268/152
f 198/261/153 195/255/153 192/252/153 196/270/153
f 198/261/154 196/270/154 197/268/154
f 192/252/155 190/251/155 196/270/155
o Cube
v -3.525344 0.163284 -3.074789
v -3.374606 -0.612169 -3.433625
v -3.044337 -0.370173 -3.075927
v -2.953199 -0.393266 -3.545174
v -3.695882 -0.327426 -3.140734
v -3.047823 0.101447 -3.100561
v -2.867756 0.005877 -3.467952
v -3.479244 -0.284835 -3.796637
v -3.621641 0.117534 -3.613922
v -3.255523 0.155267 -3.740070
vn 0.4849 -0.8638 0.1367
vn 0.9503 -0.2414 0.1965
vn -0.9297 -0.1841 -0.3190
vn -0.7693 -0.5687 -0.2910
vn 0.2357 0.9718 0.0052
vn -0.1129 -0.7715 0.6262
vn -0.0379 -0.0363 0.9986
vn 0.9006 0.0293 0.4338
vn -0.9408 0.3079 0.1419
vn -0.1234 0.9904 -0.0620
vn 0.4880 -0.0408 -0.8719
vn -0.3384 0.2872 -0.8961
vn 0.1834 -0.7032 -0.6869
vt 0.550384 0.206938
vt 0.375000 0.305791
vt 0.375000 0.049496
vt 0.180791 0.500000
vt 0.330928 0.574320
vt 0.125000 0.700504
vt 0.804283 0.500000
vt 0.842867 0.681766
vt 0.658516 0.626313
vt 0.875000 0.500000
vt 0.501754 0.540833
vt 0.565165 0.799791
vt 0.325310 0.750000
vt 0.604031 0.069198
vt 0.375000 1.000000
vt 0.375000 0.799690
vt 0.578028 1.000000
vt 0.615335 0.592735
vt 0.589707 0.775249
vt 0.581909 0.353207
s 0
g Cube_Material
usemtl Material
f 200/271/156 202/272/156 201/273/156
f 202/274/157 205/275/157 201/276/157
f 206/277/158 203/278/158 207/279/158
f 203/278/159 206/277/159 200/280/159
f 208/281/160 199/282/160 204/283/160 205/275/160
f 201/273/161 203/284/161 200/271/161
f 201/285/162 204/286/162 199/282/162 203/287/162
f 205/275/163 204/283/163 201/276/163
f 207/288/164 203/278/164 199/289/164
f 199/282/165 208/281/165 207/288/165
f 208/281/166 205/275/166 202/272/166 206/290/166
f 208/281/167 206/290/167 207/288/167
f 202/272/168 200/271/168 206/290/168
o Cube
v -4.371227 0.353054 0.593312
v -4.363542 0.142890 1.620505
v -3.833730 0.117302 1.232820
v -4.112218 -0.352460 1.423163
v -4.481192 0.571612 1.176925
v -3.947808 -0.034264 0.694551
v -4.052547 -0.467283 0.938110
v -4.804382 -0.177668 1.360118
v -4.869069 -0.020179 0.825511
v -4.643821 -0.432609 0.840657
vn 0.5897 -0.0225 0.8073
vn 0.8760 -0.4340 0.2105
vn -0.8710 0.4326 0.2328
vn -0.6712 0.4361 0.5995
vn 0.0232 -0.3797 -0.9248
vn 0.4432 0.7004 0.5594
vn 0.6209 0.7438 -0.2477
vn 0.9481 -0.2955 -0.1177
vn -0.6615 0.6528 -0.3691
vn -0.2917 -0.1937 -0.9367
vn -0.1902 -0.9341 0.3021
vn -0.8765 -0.4800 -0.0353
vn -0.1922 -0.4458 0.8742
vt 0.550384 0.206938
vt 0.375000 0.305791
vt 0.375000 0.049496
vt 0.180791 0.500000
vt 0.330928 0.574320
vt 0.125000 0.700504
vt 0.804283 0.500000
vt 0.842867 0.681766
vt 0.658516 0.626313
vt 0.875000 0.500000
vt 0.501754 0.540833
vt 0.565165 0.799791
vt 0.325310 0.750000
vt 0.604031 0.069198
vt 0.375000 1.000000
vt 0.375000 0.799690
vt 0.578028 1.000000
vt 0.615335 0.592735
vt 0.589707 0.775249
vt 0.581909 0.353207
s 0
g Cube_Material
usemtl Material
f 210/291/169 212/292/169 211/293/169
f 212/294/170 215/295/170 211/296/170
f 216/297/171 213/298/171 217/299/171
f 213/298/172 216/297/172 210/300/172
f 218/301/173 209/302/173 214/303/173 215/295/173
f 211/293/174 213/304/174 210/291/174
f 211/305/175 214/306/175 209/302/175 213/307/175
f 215/295/176 214/303/176 211/296/176
f 217/308/177 213/298/177 209/309/177
f 209/302/178 218/301/178 217/308/178
f 218/301/179 215/295/179 212/292/179 216/310/179
f 218/301/180 216/310/180 217/308/180
f 212/292/181 210/291/181 216/310/181
o Cube
v -0.510878 0.672913 4.951657
v -0.823929 0.425392 4.185647
v -0.913878 0.164383 4.651171
v -0.610169 0.009998 4.318158
v -0.807907 0.799687 4.542435
v -0.559677 0.195430 4.958766
v -0.382371 -0.037517 4.660029
v -0.334084 0.500966 4.141308
v -0.166226 0.692098 4.527204
v -0.069231 0.317270 4.516578
vn -0.7379 -0.5178 -0.4329
vn -0.3546 -0.9288 0.1072
vn 0.1333 0.8638 -0.4858
vn -0.1697 0.6838 -0.7097
vn 0.6828 -0.1683 0.7109
vn -0.9834 0.1455 -0.1085
vn -0.7180 0.1701 0.6750
vn -0.3228 -0.8297 0.4554
vn 0.1668 0.9696 0.1793
vn 0.7598 0.1789 0.6250
vn 0.5533 -0.6031 -0.5746
vn 0.8446 0.2322 -0.4824
vn -0.0362 -0.3206 -0.9465
vt 0.550384 0.206938
vt 0.375000 0.305791
vt 0.375000 0.049496
vt 0.180791 0.500000
vt 0.330928 0.574320
vt 0.125000 0.700504
vt 0.804283 0.500000
vt 0.842867 0.681766
vt 0.658516 0.626313
vt 0.875000 0.500000
vt 0.501754 0.540833
vt 0.565165 0.799791
vt 0.325310 0.750000
vt 0.604031 0.069198
vt 0.375000 1.000000
vt 0.375000 0.799690
vt 0.578028 1.000000
vt 0.615335 0.592735
vt 0.589707 0.775249
vt 0.581909 0.353207
s 0
g Cube_Material
usemtl Material
f 220/311/182 222/312/182 221/313/182
f 222/314/183 225/315/183 221/316/183
f 226/317/184 223/318/184 227/319/184
f 223/318/185 226/317/185 220/320/185
f 228/321/186 219/322/186 224/323/186 225/315/186
f 221/313/187 223/324/187 220/311/187
f 221/325/188 224/326/188 219/322/188 223/327/188
f 225/315/189 224/323/189 221/316/189
f 227/328/190 223/318/190 219/329/190
f 219/322/191 228/321/191 227/328/191
f 228/321/192 225/315/192 222/312/192 226/330/192
f 228/321/193 226/330/193 227/328/193
f 222/312/194 220/311/194 226/330/194
o Cube
v 3.271615 -0.460556 -0.586929
v 3.481779 0.157364 0.099844
v 2.929693 0.019842 -0.069705
v 3.167114 0.467422 -0.197772
v 3.524904 -0.378873 -0.080804
v 2.888110 -0.100180 -0.569529
v 2.990978 0.346045 -0.597805
v 3.770708 0.284987 -0.345331
v 3.718901 -0.076038 -0.697486
v 3.484692 0.261459 -0.805866
vn -0.3611 0.4285 0.8282
vn -0.8360 0.5049 0.2149
vn 0.9449 -0.2877 0.1560
vn 0.8477 -0.1069 0.5196
vn -0.3030 -0.1182 -0.9456
vn -0.2020 -0.3272 0.9231
vn -0.5749 -0.7532 0.3196
vn -0.9737 0.2262 0.0267
vn 0.6143 -0.7674 -0.1836
vn 0.0173 -0.2948 -0.9554
vn 0.1540 0.9575 -0.2439
vn 0.7776 0.3783 -0.5022
vn 0.3583 0.8097 0.4647
vt 0.550384 0.206938
vt 0.375000 0.305791
vt 0.375000 0.049496
vt 0.180791 0.500000
vt 0.330928 0.574320
vt 0.125000 0.700504
vt 0.804283 0.500000
vt 0.842867 0.681766
vt 0.658516 0.626313
vt 0.875000 0.500000
vt 0.501754 0.540833
vt 0.565165 0.799791
vt 0.325310 0.750000
vt 0.604031 0.069198
vt 0.375000 1.000000
vt 0.375000 0.799690
vt 0.578028 1.000000
vt 0.615335 0.592735
vt 0.589707 0.775249
vt 0.581909 0.353207
s 0
g Cube_Material
usemtl Material
f 230/331/195 232/332/195 231/333/195
f 232/334/196 235/335/196 231/336/196
f 236/337/197 233/338/197 237/339/197
f 233/338/198 236/337/198 230/340/198
f 238/341/199 229/342/199 234/343/199 235/335/199
f 231/333/200 233/344/200 230/331/200
f 231/345/201 234/346/201 229/342/201 233/347/201
f 235/335/202 234/343/202 231/336/202
f 237/348/203 233/338/203 229/349/203
f 229/342/204 238/341/204 237/348/204
f 238/341/205 235/335/205 232/332/205 236/350/205
f 238/341/206 236/350/206 237/348/206
f 232/332/207 230/331/207 236/350/207
o Cube
v 0.456789 0.173285 -3.162198
v 0.035451 0.019763 -3.945434
v 0.212358 0.528317 -3.772499
v -0.264775 0.386563 -3.764374
v 0.466510 -0.090800 -3.638522
v 0.202230 0.587673 -3.284942
v -0.225344 0.563824 -3.372256
v -0.241548 -0.195629 -3.561708
v 0.004695 -0.176249 -3.146702
v -0.286636 0.104662 -3.143395
vn -0.1219 0.3573 -0.9260
vn -0.2700 0.8873 -0.3740
vn 0.1423 -0.9891 -0.0382
vn 0.0845 -0.8937 -0.4406
vn -0.0826 0.3563 0.9307
vn 0.5902 0.0682 -0.8044
vn 0.9022 0.4142 -0.1204
vn -0.0305 0.9921 -0.1214
vn 0.5671 -0.7154 0.4082
vn 0.0241 0.0132 0.9996
vn -0.9994 0.0270 -0.0229
vn -0.6320 -0.6602 0.4058
vn -0.7095 -0.2568 -0.6563
vt 0.550384 0.206938
vt 0.375000 0.305791
vt 0.375000 0.049496
vt 0.180791 0.500000
vt 0.330928 0.574320
vt 0.125000 0.700504
vt 0.804283 0.500000
vt 0.842867 0.681766
vt 0.658516 0.626313
vt 0.875000 0.500000
vt 0.501754 0.540833
vt 0.565165 0.799791
vt 0.325310 0.750000
vt 0.604031 0.069198
vt 0.375000 1.000000
vt 0.375000 0.799690
vt 0.578028 1.000000
vt 0.615335 0.592735
vt 0.589707 0.775249
vt 0.581909 0.353207
s 0
g Cube_Material
usemtl Material
f 240/351/208 242/352/208 241/353/208
f 242/354/209 245/355/209 241/356/209
f 246/357/210 243/358/210 247/359/210
f 243/358/211 246/357/211 240/360/211
f 248/361/212 239/362/212 244/363/212 245/355/212
f 241/353/213 243/364/213 240/351/213
f 241/365/214 244/366/214 239/362/214 243/367/214
f 245/355/215 244/363/215 241/356/215
f 247/368/216 243/358/216 239/369/216
f 239/362/217 248/361/217 247/368/217
f 248/361/218 245/355/218 242/352/218 246/370/218
f 248/361/219 246/370/219 247/368/219
f 242/352/220 240/351/220 246/370/220
o Cube
v 2.797964 0.975286 -1.895310
v 2.366620 0.252759 -2.024574
v 2.672921 0.490243 -2.391146
v 2.203604 0.504972 -2.397280
v 2.725916 0.487867 -1.749499
v 2.686214 0.952008 -2.354479
v 2.294081 0.895953 -2.468747
v 2.060340 0.588166 -1.839440
v 2.291850 0.958539 -1.709932
v 2.110300 1.030732 -2.037922
vn -0.0189 -0.8319 -0.5547
vn 0.0072 -0.1814 -0.9834
vn -0.1646 -0.2323 0.9586
vn -0.1955 -0.6047 0.7721
vn 0.0403 0.9844 -0.1716
vn 0.5736 -0.8176 -0.0504
vn 0.9838 -0.1052 -0.1452
vn 0.2701 0.0685 -0.9604
vn 0.3285 0.2258 0.9171
vn 0.0387 0.9802 0.1943
vn -0.9444 0.0541 -0.3243
vn -0.7975 0.3195 0.5118
vn -0.7616 -0.6402 -0.1001
vt 0.550384 0.206938
vt 0.375000 0.305791
vt 0.375000 0.049496
vt 0.180791 0.500000
vt 0.330928 0.574320
vt 0.125000 0.700504
vt 0.804283 0.500000
vt 0.842867 0.681766
vt 0.658516 0.626313
vt 0.875000 0.500000
vt 0.501754 0.540833
vt 0.565165 0.799791
vt 0.325310 0.750000
vt 0.604031 0.069198
vt 0.375000 1.000000
vt 0.375000 0.799690
vt 0.578028 1.000000
vt 0.615335 0.592735
vt 0.589707 0.775249
vt 0.581909 0.353207
s 0
g Cube_Material
usemtl Material
f 250/371/221 252/372/221 251/373/221
f 252/374/222 255/375/222 251/376/222
f 256/377/223 253/378/223 257/379/223
f 253/378/224 256/377/224 250/380/224
f 258/381/225 249/382/225 254/383/225 255/375/225
f 251/373/226 253/384/226 250/371/226
f 251/385/227 254/386/227 249/382/227 253/387/227
f 255/375/228 254/383/228 251/376/228
f 257/388/229 253/378/229 249/389/229
f 249/382/230 258/381/230 257/388/230
f 258/381/231 255/375/231 252/372/231 256/390/231
f 258/381/232 256/390/232 257/388/232
f 252/372/233 250/371/233 256/390/233
o Cube
v -3.003428 -0.620776 -0.616458
v -3.112273 0.478488 -0.742429
v -2.580060 0.171116 -0.414377
v -3.036525 0.458170 -0.122309
v -3.054977 -0.110073 -1.048662
v -2.728416 -0.345580 -0.136439
v -3.000709 0.009878 0.162508
v -3.658131 0.243712 -0.503252
v -3.644171 -0.351059 -0.504081
v -3.572084 -0.184371 -0.039775
vn 0.5159 0.8559 -0.0350
vn 0.6636 0.4382 0.6063
vn -0.6754 -0.0148 -0.7373
vn -0.5001 0.3609 -0.7872
vn -0.0762 -0.7748 0.6276
vn 0.6376 0.4035 -0.6563
vn 0.8483 -0.3528 -0.3948
vn 0.7909 0.0978 0.6041
vn -0.3811 -0.6194 -0.6864
vn -0.3066 -0.8797 0.3634
vn -0.5124 0.5153 0.6870
vn -0.9866 -0.0234 0.1616
vn -0.3660 0.9276 0.0751
vt 0.550384 0.206938
vt 0.375000 0.305791
vt 0.375000 0.049496
vt 0.180791 0.500000
vt 0.330928 0.574320
vt 0.125000 0.700504
vt 0.804283 0.500000
vt 0.842867 0.681766
vt 0.658516 0.626313
vt 0.875000 0.500000
vt 0.501754 0.540833
vt 0.565165 0.799791
vt 0.325310 0.750000
vt 0.604031 0.069198
vt 0.375000 1.000000
vt 0.375000 0.799690
vt 0.578028 1.000000
vt 0.615335 0.592735
vt 0.589707 0.775249
vt 0.581909 0.353207
s 0
g Cube_Material
usemtl Material
f 260/391/234 262/392/234 261/393/234
f 262/394/235 265/395/235 261/396/235
f 266/397/236 263/398/236 267/399/236
f 263/398/237 266/397/237 260/400/237
f 268/401/238 259/402/238 264/403/238 265/395/238
f 261/393/239 263/404/239 260/391/239
f 261/405/240 264/406/240 259/402/240 263/407/240
f 265/395/241 264/403/241 261/396/241
f 267/408/242 263/398/242 259/409/242
f 259/402/243 268/401/243 267/408/243
f 268/401/244 265/395/244 262/392/244 266/410/244
f 268/401/245 266/410/245 267/408/245
f 262/392/246 260/391/246 266/410/246
o Cube
v 1.524851 -0.083038 -1.310006
v 1.694015 1.004726 -1.812958
v 1.284019 0.448097 -2.124754
v 1.896181 0.614636 -2.332524
v 1.436287 0.638908 -1.242632
v 1.499513 -0.156920 -1.978079
v 1.940670 0.037246 -2.311509
v 2.314173 0.743459 -1.630352
v 2.235881 0.202287 -1.283306
v 2.391726 0.072624 -1.786746
vn -0.3966 0.6533 -0.6449
vn -0.3066 -0.0582 -0.9501
vn 0.3052 0.4824 0.8211
vn 0.1631 0.7953 0.5838
vn 0.2515 -0.9678 -0.0118
vn -0.8084 0.5886 0.0122
vn -0.9660 -0.2126 0.1470
vn -0.4566 -0.3599 -0.8137
vn -0.0001 -0.0929 0.9957
vn 0.3405 -0.8797 0.3320
vn 0.7988 0.1415 -0.5847
vn 0.9575 0.0442 0.2850
vn 0.4543 0.7883 -0.4151
vt 0.550384 0.206938
vt 0.375000 0.305791
vt 0.375000 0.049496
vt 0.180791 0.500000
vt 0.330928 0.574320
vt 0.125000 0.700504
vt 0.804283 0.500000
vt 0.842867 0.681766
vt 0.658516 0.626313
vt 0.875000 0.500000
vt 0.501754 0.540833
vt 0.565165 0.799791
vt 0.325310 0.750000
vt 0.604031 0.069198
vt 0.375000 1.000000
vt 0.375000 0.799690
vt 0.578028 1.000000
vt 0.615335 0.592735
vt 0.589707 0.775249
vt 0.581909 0.353207
s 0
g Cube_Material
usemtl Material
f 270/411/247 272/412/247 271/413/247
f 272/414/248 275/415/248 271/416/248
f 276/417/249 273/418/249 277/419/249
f 273/418/250 276/417/250 270/420/250
f 278/421/251 269/422/251 274/423/251 275/415/251
f 271/413/252 273/424/252 270/411/252
f 271/425/253 274/426/253 269/422/253 273/427/253
f 275/415/254 274/423/254 271/416/254
f 277/428/255 273/418/255 269/429/255
f 269/422/256 278/421/256 277/428/256
f 278/421/257 275/415/257 272/412/257 276/430/257
f 278/421/258 276/430/258 277/428/258
f 272/412/259 270/411/259 276/430/259
o Cube
v -2.478068 0.063601 -0.569449
v -2.902208 -0.335729 0.192809
v -3.197145 -0.106006 -0.277965
v -3.161068 0.137453 0.190483
v -2.540628 -0.413266 -0.247023
v -2.953439 0.296256 -0.504878
v -3.066468 0.484333 -0.095386
v -2.537652 0.040410 0.369212
v -2.255813 0.212532 -0.023840
v -2.547816 0.509660 0.083531
vn -0.8371 -0.4564 0.3017
vn -0.9725 0.2289 -0.0441
vn 0.7959 -0.4894 0.3564
vn 0.4793 -0.7079 0.5188
vn 0.2317 0.8523 -0.4689
vn -0.4101 -0.8942 -0.1795
vn -0.2413 -0.4524 -0.8585
vn -0.8699 0.3110 -0.3829
vn 0.9068 -0.3113 -0.2844
vn 0.5649 0.7082 -0.4234
vn -0.2113 0.5753 0.7902
vn 0.6493 0.4057 0.6433
vn -0.2946 -0.1565 0.9427
vt 0.550384 0.206938
vt 0.375000 0.305791
vt 0.375000 0.049496
vt 0.180791 0.500000
vt 0.330928 0.574320
vt 0.125000 0.700504
vt 0.804283 0.500000
vt 0.842867 0.681766
vt 0.658516 0.626313
vt 0.875000 0.500000
vt 0.501754 0.540833
vt 0.565165 0.799791
vt 0.325310 0.750000
vt 0.604031 0.069198
vt 0.375000 1.000000
vt 0.375000 0.799690
vt 0.578028 1.000000
vt 0.615335 0.592735
vt 0.589707 0.775249
vt 0.581909 0.353207
s 0
g Cube_Material
usemtl Material
f 280/431/260 282/432/260 281/433/260
f 282/434/261 285/435/261 281/436/261
f 286/437/262 283/438/262 287/439/262
f 283/438/263 286/437/263 280/440/263
f 288/441/264 279/442/264 284/443/264 285/435/264
f 281/433/265 283/444/265 280/431/265
f 281/445/266 284/446/266 279/442/266 283/447/266
f 285/435/267 284/443/267 281/436/267
f 287/448/268 283/438/268 279/449/268
f 279/442/269 288/441/269 287/448/269
f 288/441/270 285/435/270 282/432/270 286/450/270
f 288/441/271 286/450/271 287/448/271
f 282/432/272 280/431/272 286/450/272
o Cube
v -0.666058 -0.278317 -1.436180
v -1.116617 0.143434 -2.432244
v -0.763359 0.549344 -1.932689
v -1.405449 0.554646 -2.006265
v -0.661244 -0.305431 -2.142858
v -0.834707 0.342265 -1.333666
v -1.362725 0.515598 -1.448225
v -1.591249 -0.216809 -2.114937
v -1.343225 -0.517359 -1.623706
v -1.619704 -0.104019 -1.453989
vn 0.0821 0.7443 -0.6628
vn 0.0002 0.9976 0.0698
vn -0.0974 -0.8701 -0.4832
vn -0.0808 -0.5967 -0.7984
vn -0.1071 -0.0789 0.9911
vn 0.6829 0.2503 -0.6863
vn 0.9833 0.1635 0.0799
vn 0.2252 0.9122 0.3422
vn 0.3231 -0.9456 0.0385
vn -0.0957 -0.4322 0.8967
vn -0.9527 0.3038 -0.0072
vn -0.8175 -0.5725 0.0625
vn -0.6649 0.2588 -0.7007
vt 0.550384 0.206938
vt 0.375000 0.305791
vt 0.375000 0.049496
vt 0.180791 0.500000
vt 0.330928 0.574320
vt 0.125000 0.700504
vt 0.804283 0.500000
vt 0.842867 0.681766
vt 0.658516 0.626313
vt 0.875000 0.500000
vt 0.501754 0.540833
vt 0.565165 0.799791
vt 0.325310 0.750000
vt 0.604031 0.069198
vt 0.375000 1.000000
vt 0.375000 0.799690
vt 0.578028 1.000000
vt 0.615335 0.592735
vt 0.589707 0.775249
vt 0.581909 0.353207
s 0
g Cube_Material
usemtl Material
f 290/451/273 292/452/273 291/453/273
f 292/454/274 295/455/274 291/456/274
f 296/457/275 293/458/275 297/459/275
f 293/458/276 296/457/276 290/460/276
f 298/461/277 289/462/277 294/463/277 295/455/277
f 291/453/278 293/464/278 290/451/278
f 291/465/279 294/466/279 289/462/279 293/467/279
f 295/455/280 294/463/280 291/456/280
f 297/468/281 293/458/281 289/469/281
f 289/462/282 298/461/282 297/468/282
f 298/461/283 295/455/283 292/452/283 296/470/283
f 298/461/284 296/470/284 297/468/284
f 292/452/285 290/451/285 296/470/285
o Cube
v -1.333994 0.335718 -1.091723
v -2.373652 0.601679 -0.969545
v -1.972181 0.389399 -0.467750
v -2.387838 0.047103 -0.722640
v -1.784973 0.803207 -1.146628
v -1.556515 0.010518 -0.638918
v -1.986356 -0.278629 -0.710927
v -2.324288 0.199871 -1.442109
v -1.767990 0.107709 -1.568887
v -1.943398 -0.273943 -1.327742
vn -0.6713 0.3157 0.6706
vn -0.2877 -0.3222 0.9019
vn -0.1088 0.5140 -0.8509
vn -0.4146 0.6714 -0.6142
vn 0.6637 -0.7451 -0.0651
vn -0.1494 0.8621 0.4843
vn 0.6093 0.5447 0.5763
vn 0.0735 -0.3425 0.9366
vn 0.5469 0.4442 -0.7097
vn 0.7232 -0.5745 -0.3832
vn -0.6969 -0.7037 -0.1385
vn -0.2674 -0.4239 -0.8653
vn -0.9957 -0.0151 -0.0912
vt 0.550384 0.206938
vt 0.375000 0.305791
vt 0.375000 0.049496
vt 0.180791 0.500000
vt 0.330928 0.574320
vt 0.125000 0.700504
vt 0.804283 0.500000
vt 0.842867 0.681766
vt 0.658516 0.626313
vt 0.875000 0.500000
vt 0.501754 0.540833
vt 0.565165 0.799791
vt 0.325310 0.750000
vt 0.604031 0.069198
vt 0.375000 1.000000
vt 0.375000 0.799690
vt 0.578028 1.000000
vt 0.615335 0.592735
vt 0.589707 0.775249
vt 0.581909 0.353207
s 0
g Cube_Material
usemtl Material
f 300/471/286 302/472/286 301/473/286
f 302/474/287 305/475/287 301/476/287
f 306/477/288 303/478/288 307/479/288
f 303/478/289 306/477/289 300/480/289
f 308/481/290 299/482/290 304/483/290 305/475/290
f 301/473/291 303/484/291 300/471/291
f 301/485/292 304/486/292 299/482/292 303/487/292
f 305/475/293 304/483/293 301/476/293
f 307/488/294 303/478/294 299/489/294
f 299/482/295 308/481/295 307/488/295
f 308/481/296 305/475/296 302/472/296 306/490/296
f 308/481/297 306/490/297 307/488/297
f 302/472/298 300/471/298 306/490/298
o Cube
v 1.607755 0.240721 -0.238256
v 1.636016 0.940551 -0.394352
v 1.964476 0.646986 -0.484443
v 1.980807 0.908081 -0.187422
v 1.428152 0.569388 -0.455728
v 1.989988 0.353955 -0.227450
v 2.086288 0.622218 -0.028676
v 1.528738 0.897219 0.002547
v 1.461311 0.527716 0.082335
v 1.747225 0.612684 0.203074
vn 0.4287 0.6667 -0.6097
vn 0.9463 0.2152 -0.2412
vn -0.9780 0.1947 0.0753
vn -0.8467 0.5029 -0.1739
vn 0.3113 -0.7268 0.6123
vn -0.0822 0.2072 -0.9748
vn 0.1050 -0.5812 -0.8070
vn 0.9535 -0.1475 -0.2629
vn -0.8823 -0.4703 0.0180
vn -0.0512 -0.7556 0.6530
vn 0.3511 0.6336 0.6894
vn -0.4410 0.2656 0.8573
vn 0.0245 0.9931 0.1150
vt 0.550384 0.206938
vt 0.375000 0.305791
vt 0.375000 0.049496
vt 0.180791 0.500000
vt 0.330928 0.574320
vt 0.125000 0.700504
vt 0.804283 0.500000
vt 0.842867 0.681766
vt 0.658516 0.626313
vt 0.875000 0.500000
vt 0.501754 0.540833
vt 0.565165 0.799791
vt 0.325310 0.750000
vt 0.604031 0.069198
vt 0.375000 1.000000
vt 0.375000 0.799690
vt 0.578028 1.000000
vt 0.615335 0.592735
vt 0.589707 0.775249
vt 0.581909 0.353207
s 0
g Cube_Material
usemtl Material
f 310/491/299 312/492/299 311/493/299
f 312/494/300 315/495/300 311/496/300
f 316/497/301 313/498/301 317/499/301
f 313/498/302 316/497/302 310/500/302
f 318/501/303 309/502/303 314/503/303 315/495/303
f 311/493/304 313/504/304 310/491/304
f 311/505/305 314/506/305 309/502/305 313/507/305
f 315/495/306 314/503/306 311/496/306
f 317/508/307 313/498/307 309/509/307
f 309/502/308 318/501/308 317/508/308
f 318/501/309 315/495/309 312/492/309 316/510/309
f 318/501/310 316/510/310 317/508/310
f 312/492/311 310/491/311 316/510/311
o Cube
v 0.037925 0.872228 1.125644
v 0.604967 0.370231 1.856256
v 0.261212 0.069681 1.380556
v 0.087956 0.093366 1.934010
v 0.612876 0.783560 1.380477
v -0.211184 0.351880 1.221531
v -0.338977 0.213788 1.695101
v 0.239921 0.767868 2.132252
v -0.014636 1.095432 1.751491
v -0.321368 0.775207 1.912861
vn 0.4855 -0.8537 0.1885
vn -0.2518 -0.9671 -0.0374
vn 0.5590 0.7755 0.2935
vn 0.7961 0.4502 0.4044
vn -0.9160 0.2602 -0.3053
vn 0.8416 -0.4146 -0.3462
vn 0.2922 -0.2147 -0.9319
vn -0.3893 -0.8507 -0.3531
vn 0.2748 0.9127 -0.3024
vn -0.7598 0.5896 -0.2741
vn -0.4338 -0.2334 0.8703
vn -0.2756 0.6299 0.7261
vn 0.3116 -0.3319 0.8904
vt 0.550384 0.206938
vt 0.375000 0.305791
vt 0.375000 0.049496
vt 0.180791 0.500000
vt 0.330928 0.574320
vt 0.125000 0.700504
vt 0.804283 0.500000
vt 0.842867 0.681766
vt 0.658516 0.626313
vt 0.875000 0.500000
vt 0.501754 0.540833
vt 0.565165 0.799791
vt 0.325310 0.750000
vt 0.604031 0.069198
vt 0.375000 1.000000
vt 0.375000 0.799690
vt 0.578028 1.000000
vt 0.615335 0.592735
vt 0.589707 0.775249
vt 0.581909 0.353207
s 0
g Cube_Material
usemtl Material
f 320/511/312 322/512/312 321/513/312
f 322/514/313 325/515/313 321/516/313
f 326/517/314 323/518/314 327/519/314
f 323/518/315 326/517/315 320/520/315
f 328/521/316 319/522/316 324/523/316 325/515/316
f 321/513/317 323/524/317 320/511/317
f 321/525/318 324/526/318 319/522/318 323/527/318
f 325/515/319 324/523/319 321/516/319
f 327/528/320 323/518/320 319/529/320
f 319/522/321 328/521/321 327/528/321
f 328/521/322 325/515/322 322/512/322 326/530/322
f 328/521/323 326/530/323 327/528/323
f 322/512/324 320/511/324 326/530/324
o Cube
v -4.241230 -0.058144 3.406531
v -4.546101 0.451469 4.288239
v -4.951979 0.088777 3.904273
v -4.948504 0.675109 3.907134
v -4.163878 0.006750 4.040136
v -4.809252 0.091567 3.343525
v -4.955124 0.581156 3.406944
v -4.242087 0.843761 3.929388
v -4.008164 0.567997 3.490276
v -4.393378 0.805753 3.340869
vn -0.6875 0.0005 0.7262
vn -0.9999 0.0059 0.0121
vn 0.9074 0.1373 0.3972
vn 0.6609 0.1588 0.7335
vn -0.0026 -0.0022 -1.0000
vn -0.1961 -0.6009 0.7749
vn -0.1742 -0.9838 0.0416
vn -0.9384 -0.2485 -0.2401
vn 0.9376 -0.3383 -0.0798
vn 0.3573 -0.0081 -0.9340
vn -0.2977 0.9519 -0.0722
vn 0.5693 0.7980 -0.1979
vn -0.1970 0.7405 0.6426
vt 0.550384 0.206938
vt 0.375000 0.305791
vt 0.375000 0.049496
vt 0.180791 0.500000
vt 0.330928 0.574320
vt 0.125000 0.700504
vt 0.804283 0.500000
vt 0.842867 0.681766
vt 0.658516 0.626313
vt 0.875000 0.500000
vt 0.501754 0.540833
vt 0.565165 0.799791
vt 0.325310 0.750000
vt 0.604031 0.069198
vt 0.375000 1.000000
vt 0.375000 0.799690
vt 0.578028 1.000000
vt 0.615335 0.592735
vt 0.589707 0.775249
vt 0.581909 0.353207
s 0
g Cube_Material
usemtl Material
f 330/531/325 332/532/325 331/533/325
f 332/534/326 335/535/326 331/536/326
f 336/537/327 333/538/327 337/539/327
f 333/538/328 336/537/328 330/540/328
f 338/541/329 329/542/329 334/543/329 335/535/329
f 331/533/330 333/544/330 330/531/330
f 331/545/331 334/546/331 329/542/331 333/547/331
f 335/535/332 334/543/332 331/536/332
f 337/548/333 333/538/333 329/549/333
f 329/542/334 338/541/334 337/548/334
f 338/541/335 335/535/335 332/532/335 336/550/335
f 338/541/336 336/550/336 337/548/336
f 332/532/337 330/531/337 336/550/337
o Cube
v -3.121681 0.407779 5.253622
v -2.853325 1.108912 5.457245
v -2.903584 0.733770 5.764357
v -3.171682 1.068591 5.754346
v -2.791249 0.734544 5.186931
v -3.224449 0.474813 5.668141
v -3.413071 0.785288 5.767711
v -3.239028 1.161302 5.235159
v -3.362854 0.798060 5.073981
v -3.555917 0.871973 5.354933
vn 0.5676 0.4746 0.6727
vn 0.0104 0.0382 0.9992
vn 0.2183 0.3327 -0.9174
vn 0.4675 0.5671 -0.6781
vn -0.7763 -0.6300 0.0226
vn 0.9813 0.0248 0.1909
vn 0.6517 -0.7342 0.1904
vn -0.0261 -0.3196 0.9472
vn 0.1462 -0.3376 -0.9298
vn -0.7229 -0.6024 -0.3383
vn -0.6532 0.7025 0.2825
vn -0.6582 0.4813 -0.5789
vn 0.0351 0.9846 0.1713
vt 0.550384 0.206938
vt 0.375000 0.305791
vt 0.375000 0.049496
vt 0.180791 0.500000
vt 0.330928 0.574320
vt 0.125000 0.700504
vt 0.804283 0.500000
vt 0.842867 0.681766
vt 0.658516 0.626313
vt 0.875000 0.500000
vt 0.501754 0.540833
vt 0.565165 0.799791
vt 0.325310 0.750000
vt 0.604031 0.069198
vt 0.375000 1.000000
vt 0.375000 0.799690
vt 0.578028 1.000000
vt 0.615335 0.592735
vt 0.589707 0.775249
vt 0.581909 0.353207
s 0
g Cube_Material
usemtl Material
f 340/551/338 342/552/338 341/553/338
f 342/554/339 345/555/339 341/556/339
f 346/557/340 343/558/340 347/559/340
f 343/558/341 346/557/341 340/560/341
f 348/561/342 339/562/342 344/563/342 345/555/342
f 341/553/343 343/564/343 340/551/343
f 341/565/344 344/566/344 339/562/344 343/567/344
f 345/555/345 344/563/345 341/556/345
f 347/568/346 343/558/346 339/569/346
f 339/562/347 348/561/347 347/568/347
f 348/561/348 345/555/348 342/552/348 346/570/348
f 348/561/349 346/570/349 347/568/349
f 342/552/350 340/551/350 346/570/350
o Cube
v 3.407539 0.572583 -3.958973
v 4.334589 0.866080 -4.180817
v 4.194590 0.334767 -3.882991
v 4.399541 0.778638 -3.630763
v 3.796087 0.720203 -4.394413
v 3.749089 0.366112 -3.574316
v 4.046230 0.659984 -3.332200
v 4.062534 1.297766 -3.916581
v 3.545463 1.180384 -3.855708
v 3.755583 1.133554 -3.463672
vn 0.9277 -0.3358 -0.1629
vn 0.6298 -0.5827 0.5137
vn -0.2363 0.6818 -0.6923
vn 0.1568 0.5856 -0.7953
vn -0.6902 -0.0975 0.7170
vn 0.4329 -0.5249 -0.7329
vn -0.2302 -0.8886 -0.3968
vn 0.3226 -0.7745 0.5442
vn -0.7619 0.2727 -0.5874
vn -0.8696 0.1158 0.4799
vn 0.4894 0.5823 0.6492
vn -0.1917 0.9571 0.2171
vn 0.8421 0.5391 -0.0137
vt 0.550384 0.206938
vt 0.375000 0.305791
vt 0.375000 0.049496
vt 0.180791 0.500000
vt 0.330928 0.574320
vt 0.125000 0.700504
vt 0.804283 0.500000
vt 0.842867 0.681766
vt 0.658516 0.626313
vt 0.875000 0.500000
vt 0.501754 0.540833
vt 0.565165 0.799791
vt 0.325310 0.750000
vt 0.604031 0.069198
vt 0.375000 1.000000
vt 0.375000 0.799690
vt 0.578028 1.000000
vt 0.615335 0.592735
vt 0.589707 0.775249
vt 0.581909 0.353207
s 0
g Cube_Material
usemtl Material
f 350/571/351 352/572/351 351/573/351
f 352/574/352 355/575/352 351/576/352
f 356/577/353 353/578/353 357/579/353
f 353/578/354 356/577/354 350/580/354
f 358/581/355 349/582/355 354/583/355 355/575/355
f 351/573/356 353/584/356 350/571/356
f 351/585/357 354/586/357 349/582/357 353/587/357
f 355/575/358 354/583/358 351/576/358
f 357/588/359 353/578/359 349/589/359
f 349/582/360 358/581/360 357/588/360
f 358/581/361 355/575/361 352/572/361 356/590/361
f 358/581/362 356/590/362 357/588/362
f 352/572/363 350/571/363 356/590/363
o Cube
v -5.437382 -0.264255 -1.611618
v -4.787216 -0.194263 -2.075840
v -4.787978 -0.402079 -1.618316
v -4.628530 0.001901 -1.702193
v -5.229221 -0.377507 -2.033652
v -5.081535 -0.228853 -1.345623
v -4.836986 0.069967 -1.387003
v -4.994915 0.217517 -2.048222
v -5.373629 0.179753 -1.849975
v -5.134842 0.326220 -1.624475
vn 0.9024 -0.3929 -0.1770
vn 0.7978 -0.1965 0.5701
vn -0.4703 0.1640 -0.8672
vn -0.1014 0.0156 -0.9947
vn -0.4935 0.3521 0.7953
vn 0.3203 -0.8627 -0.3913
vn -0.1987 -0.9483 0.2475
vn 0.5321 -0.3274 0.7808
vn -0.9027 -0.0956 -0.4196
vn -0.7471 0.3945 0.5350
vn 0.5447 0.8367 0.0566
vn -0.2580 0.9119 -0.3191
vn 0.7421 0.4099 -0.5304
vt 0.550384 0.206938
vt 0.375000 0.305791
vt 0.375000 0.049496
vt 0.180791 0.500000
vt 0.330928 0.574320
vt 0.125000 0.700504
vt 0.804283 0.500000
vt 0.842867 0.681766
vt 0.658516 0.626313
vt 0.875000 0.500000
vt 0.501754 0.540833
vt 0.565165 0.799791
vt 0.325310 0.750000
vt 0.604031 0.069198
vt 0.375000 1.000000
vt 0.375000 0.799690
vt 0.578028 1.000000
vt 0.615335 0.592735
vt 0.589707 0.775249
vt 0.581909 0.353207
s 0
g Cube_Material
usemtl Material
f 360/591/364 362/592/364 361/593/364
f 362/594/365 365/595/365 361/596/365
f 366/597/366 363/598/366 367/599/366
f 363/598/367 366/597/367 360/600/367
f 368/601/368 359/602/368 364/603/368 365/595/368
f 361/593/369 363/604/369 360/591/369
f 361/605/370 364/606/370 359/602/370 363/607/370
f 365/595/371 364/603/371 361/596/371
f 367/608/372 363/598/372 359/609/372
f 359/602/373 368/601/373 367/608/373
f 368/601/374 365/595/374 362/592/374 366/610/374
f 368/601/375 366/610/375 367/608/375
f 362/592/376 360/591/376 366/610/376
o Cube
v 3.576476 0.255658 2.551026
v 4.348042 0.390565 2.156702
v 4.115027 -0.102825 2.221639
v 4.488335 0.052571 2.487068
v 3.832991 0.493548 2.153868
v 3.850835 -0.141648 2.617288
v 4.239149 -0.106069 2.785447
v 4.351635 0.624207 2.604639
v 3.924027 0.611999 2.797516
v 4.155968 0.350302 2.977389
vn 0.6359 -0.3881 -0.6671
vn 0.4437 -0.8903 -0.1028
vn -0.1029 0.9808 -0.1659
vn 0.1769 0.8721 -0.4563
vn -0.4652 -0.3165 0.8267
vn -0.0189 -0.1217 -0.9924
vn -0.6647 -0.4524 -0.5945
vn 0.1034 -0.9942 -0.0285
vn -0.7048 0.7087 -0.0307
vn -0.5951 0.0247 0.8033
vn 0.8305 0.0100 0.5569
vn 0.2774 0.6989 0.6592
vn 0.9557 0.2578 -0.1421
vt 0.550384 0.206938
vt 0.375000 0.305791
vt 0.375000 0.049496
vt 0.180791 0.500000
vt 0.330928 0.574320
vt 0.125000 0.700504
vt 0.804283 0.500000
vt 0.842867 0.681766
vt 0.658516 0.626313
vt 0.875000 0.500000
vt 0.501754 0.540833
vt 0.565165 0.799791
vt 0.325310 0.750000
vt 0.604031 0.069198
vt 0.375000 1.000000
vt 0.375000 0.799690
vt 0.578028 1.000000
vt 0.615335 0.592735
vt 0.589707 0.775249
vt 0.581909 0.353207
s 0
g Cube_Material
usemtl Material
f 370/611/377 372/612/377 371/613/377
f 372/614/378 375/615/378 371/616/378
f 376/617/379 373/618/379 377/619/379
f 373/618/380 376/617/380 370/620/380
f 378/621/381 369/622/381 374/623/381 375/615/381
f 371/613/382 373/624/382 370/611/382
f 371/625/383 374/626/383 369/622/383 373/627/383
f 375/615/384 374/623/384 371/616/384
f 377/628/385 373/618/385 369/629/385
f 369/622/386 378/621/386 377/628/386
f 378/621/387 375/615/387 372/612/387 376/630/387
f 378/621/388 376/630/388 377/628/388
f 372/612/389 370/611/389 376/630/389
o Cube
v 4.236361 -0.170439 3.304364
v 3.970210 0.349759 2.284861
v 3.916559 0.674482 2.943534
v 3.404832 0.460625 2.608129
v 4.470953 0.036959 2.668008
v 3.770999 0.272983 3.419691
v 3.286771 0.261770 3.121028
v 3.649970 -0.245935 2.315209
v 3.846476 -0.573320 2.814803
v 3.369287 -0.372829 2.913590
vn -0.0802 0.8914 -0.4460
vn -0.4926 0.8436 0.2137
vn 0.4791 -0.6358 -0.6051
vn 0.4605 -0.2903 -0.8388
vn -0.3557 -0.4293 0.8302
vn 0.6567 0.6963 -0.2898
vn 0.7104 0.4862 0.5089
vn -0.3502 0.7661 0.5389
vn 0.7019 -0.7118 0.0268
vn -0.1504 -0.7013 0.6969
vn -0.9283 -0.0924 -0.3602
vn -0.4240 -0.8249 -0.3738
vn -0.4562 0.2011 -0.8669
vt 0.550384 0.206938
vt 0.375000 0.305791
vt 0.375000 0.049496
vt 0.180791 0.500000
vt 0.330928 0.574320
vt 0.125000 0.700504
vt 0.804283 0.500000
vt 0.842867 0.681766
vt 0.658516 0.626313
vt 0.875000 0.500000
vt 0.501754 0.540833
vt 0.565165 0.799791
vt 0.325310 0.750000
vt 0.604031 0.069198
vt 0.375000 1.000000
vt 0.375000 0.799690
vt 0.578028 1.000000
vt 0.615335 0.592735
vt 0.589707 0.775249
vt 0.581909 0.353207
s 0
g Cube_Material
usemtl Material
f 380/631/390 382/632/390 381/633/390
f 382/634/391 385/635/391 381/636/391
f 386/637/392 383/638/392 387/639/392
f 383/638/393 386/637/393 380/640/393
f 388/641/394 379/642/394 384/643/394 385/635/394
f 381/633/395 383/644/395 380/631/395
f 381/645/396 384/646/396 379/642/396 383/647/396
f 385/635/397 384/643/397 381/636/397
f 387/648/398 383/638/398 379/649/398
f 379/642/399 388/641/399 387/648/399
f 388/641/400 385/635/400 382/632/400 386/650/400
f 388/641/401 386/650/401 387/648/401
f 382/632/402 380/631/402 386/650/402
o Cube
v 4.849148 0.602252 -0.995733
v 4.837702 -0.224174 -0.417714
v 4.983088 0.354607 -0.209673
v 5.362040 -0.042112 -0.301779
v 4.516878 0.142524 -0.774848
v 5.225383 0.672270 -0.586192
v 5.573051 0.336971 -0.513823
v 5.155526 -0.332440 -0.891953
v 5.111543 0.074965 -1.243178
v 5.512892 0.097935 -1.035961
vn -0.0996 -0.3143 0.9441
vn 0.4513 0.2310 0.8620
vn -0.5433 -0.5811 -0.6060
vn -0.6075 -0.7592 -0.2338
vn 0.5673 0.6647 -0.4862
vn -0.7634 -0.0400 0.6447
vn -0.6201 0.7118 0.3299
vn 0.3919 0.5633 0.7274
vn -0.6129 0.0646 -0.7875
vn 0.3623 0.5376 -0.7614
vn 0.8299 -0.5542 0.0648
vn 0.4017 -0.5727 -0.7146
vn 0.2332 -0.9024 0.3623
vt 0.550384 0.206938
vt 0.375000 0.305791
vt 0.375000 0.049496
vt 0.180791 0.500000
vt 0.330928 0.574320
vt 0.125000 0.700504
vt 0.804283 0.500000
vt 0.842867 0.681766
vt 0.658516 0.626313
vt 0.875000 0.500000
vt 0.501754 0.540833
vt 0.565165 0.799791
vt 0.325310 0.750000
vt 0.604031 0.069198
vt 0.375000 1.000000
vt 0.375000 0.799690
vt 0.578028 1.000000
vt 0.615335 0.592735
vt 0.589707 0.775249
vt 0.581909 0.353207
s 0
g Cube_Material
usemtl Material
f 390/651/403 392/652/403 391/653/403
f 392/654/404 395/655/404 391/656/404
f 396/657/405 393/658/405 397/659/405
f 393/658/406 396/657/406 390/660/406
f 398/661/407 389/662/407 394/663/407 395/655/407
f 391/653/408 393/664/408 390/651/408
f 391/665/409 394/666/409 389/662/409 393/667/409
f 395/655/410 394/663/410 391/656/410
f 397/668/411 393/658/411 389/669/411
f 389/662/412 398/661/412 397/668/412
f 398/661/413 395/655/413 392/652/413 396/670/413
f 398/661/414 396/670/414 397/668/414
f 392/652/415 390/651/415 396/670/415
o Cube
v -2.983302 0.471988 -3.027576
v -2.797430 -0.484205 -3.470048
v -2.390182 -0.185806 -3.028979
v -2.277803 -0.214281 -3.607597
v -3.193588 -0.133096 -3.108892
v -2.394481 0.395738 -3.059356
v -2.172445 0.277893 -3.512376
v -2.926456 -0.080578 -3.917671
v -3.102044 0.415574 -3.692369
v -2.650591 0.462102 -3.847919
vn 0.4849 -0.8638 0.1367
vn 0.9503 -0.2414 0.1965
vn -0.9297 -0.1841 -0.3190
vn -0.7693 -0.5687 -0.2910
vn 0.2357 0.9718 0.0052
vn -0.1129 -0.7715 0.6262
vn -0.0379 -0.0363 0.9986
vn 0.9006 0.0293 0.4338
vn -0.9408 0.3079 0.1419
vn -0.1234 0.9904 -0.0620
vn 0.4880 -0.0408 -0.8719
vn -0.3384 0.2872 -0.8961
vn 0.1834 -0.7032 -0.6869
vt 0.550384 0.206938
vt 0.375000 0.305791
vt 0.375000 0.049496
vt 0.180791 0.500000
vt 0.330928 0.574320
vt 0.125000 0.700504
vt 0.804283 0.500000
vt 0.842867 0.681766
vt 0.658516 0.626313
vt 0.875000 0.500000
vt 0.501754 0.540833
vt 0.565165 0.799791
vt 0.325310 0.750000
vt 0.604031 0.069198
vt 0.375000 1.000000
vt 0.375000 0.799690
vt 0.578028 1.000000
vt 0.615335 0.592735
vt 0.589707 0.775249
vt 0.581909 0.353207
s 0
g Cube_Material
usemtl Material
f 400/671/416 402/672/416 401/673/416
f 402/674/417 405/675/417 401/676/417
f 406/677/418 403/678/418 407/679/418
f 403/678/419 406/677/419 400/680/419
f 408/681/420 399/682/420 404/683/420 405/675/420
f 401/673/421 403/684/421 400/671/421
f 401/685/422 404/686/422 399/682/422 403/687/422
f 405/675/423 404/683/423 401/676/423
f 407/688/424 403/678/424 399/689/424
f 399/682/425 408/681/425 407/688/425
f 408/681/426 405/675/426 402/672/426 406/690/426
f 408/681/427 406/690/427 407/688/427
f 402/672/428 400/671/428 406/690/428
o Cube
v -4.145188 0.576004 1.335032
v -4.139159 0.411125 2.140893
v -3.723507 0.391051 1.836743
v -3.941988 0.022510 1.986073
v -4.231458 0.747469 1.792892
v -3.813004 0.272143 1.414456
v -3.895174 -0.067572 1.605536
v -4.485010 0.159639 1.936612
v -4.535759 0.283193 1.517198
v -4.359045 -0.040369 1.529080
vn 0.5897 -0.0225 0.8073
vn 0.8760 -0.4340 0.2105
vn -0.8710 0.4326 0.2328
vn -0.6712 0.4361 0.5995
vn 0.0232 -0.3797 -0.9248
vn 0.4432 0.7004 0.5594
vn 0.6209 0.7438 -0.2477
vn 0.9481 -0.2955 -0.1177
vn -0.6615 0.6528 -0.3691
vn -0.2917 -0.1937 -0.9367
vn -0.1902 -0.9341 0.3021
vn -0.8765 -0.4800 -0.0353
vn -0.1922 -0.4458 0.8742
vt 0.550384 0.206938
vt 0.375000 0.305791
vt 0.375000 0.049496
vt 0.180791 0.500000
vt 0.330928 0.574320
vt 0.125000 0.700504
vt 0.804283 0.500000
vt 0.842867 0.681766
vt 0.658516 0.626313
vt 0.875000 0.500000
vt 0.501754 0.540833
vt 0.565165 0.799791
vt 0.325310 0.750000
vt 0.604031 0.069198
vt 0.375000 1.000000
vt 0.375000 0.799690
vt 0.578028 1.000000
vt 0.615335 0.592735
vt 0.589707 0.775249
vt 0.581909 0.353207
s 0
g Cube_Material
usemtl Material
f 410/691/429 412/692/429 411/693/429
f 412/694/430 415/695/430 411/696/430
f 416/697/431 413/698/431 417/699/431
f 413/698/432 416/697/432 410/700/432
f 418/701/433 409/702/433 414/703/433 415/695/433
f 411/693/434 413/704/434 410/691/434
f 411/705/435 414/706/435 409/702/435 413/707/435
f 415/695/436 414/703/436 411/696/436
f 417/708/437 413/698/437 409/709/437
f 409/702/438 418/701/438 417/708/438
f 418/701/439 415/695/439 412/692/439 416/710/439
f 418/701/440 416/710/440 417/708/440
f 412/692/441 410/691/441 416/710/441
o Cube
v -0.834834 0.619383 4.228899
v -1.137813 0.379825 3.487532
v -1.224869 0.127213 3.938079
v -0.930930 -0.022205 3.615780
v -1.122307 0.742079 3.832841
v -0.882062 0.157261 4.235779
v -0.710460 -0.068192 3.946653
v -0.663727 0.452968 3.444619
v -0.501269 0.637951 3.818100
v -0.407394 0.275181 3.807816
vn -0.7379 -0.5178 -0.4329
vn -0.3546 -0.9288 0.1072
vn 0.1333 0.8638 -0.4858
vn -0.1697 0.6838 -0.7097
vn 0.6828 -0.1683 0.7109
vn -0.9834 0.1455 -0.1085
vn -0.7180 0.1701 0.6750
vn -0.3228 -0.8297 0.4554
vn 0.1668 0.9696 0.1793
vn 0.7598 0.1789 0.6250
vn 0.5533 -0.6031 -0.5746
vn 0.8446 0.2322 -0.4824
vn -0.0362 -0.3206 -0.9465
vt 0.550384 0.206938
vt 0.375000 0.305791
vt 0.375000 0.049496
vt 0.180791 0.500000
vt 0.330928 0.574320
vt 0.125000 0.700504
vt 0.804283 0.500000
vt 0.842867 0.681766
vt 0.658516 0.626313
vt 0.875000 0.500000
vt 0.501754 0.540833
vt 0.565165 0.799791
vt 0.325310 0.750000
vt 0.604031 0.069198
vt 0.375000 1.000000
vt 0.375000 0.799690
vt 0.578028 1.000000
vt 0.615335 0.592735
vt 0.589707 0.775249
vt 0.581909 0.353207
s 0
g Cube_Material
usemtl Material
f 420/711/442 422/712/442 421/713/442
f 422/714/443 425/715/443 421/716/443
f 426/717/444 423/718/444 427/719/444
f 423/718/445 426/717/445 420/720/445
f 428/721/446 419/722/446 424/723/446 425/715/446
f 421/713/447 423/724/447 420/711/447
f 421/725/448 424/726/448 419/722/448 423/727/448
f 425/715/449 424/723/449 421/716/449
f 427/728/450 423/718/450 419/729/450
f 419/722/451 428/721/451 427/728/451
f 428/721/452 425/715/452 422/712/452 426/730/452
f 428/721/453 426/730/453 427/728/453
f 422/712/454 420/711/454 426/730/454
o Cube
v 3.592326 -0.746087 0.104174
v 3.787047 -0.173570 0.740485
v 3.275527 -0.300987 0.583393
v 3.495503 0.113705 0.464736
v 3.827004 -0.670406 0.573110
v 3.237000 -0.412190 0.120295
v 3.332309 0.001247 0.094097
v 4.054747 -0.055324 0.328019
v 4.006747 -0.389823 0.001740
v 3.789747 -0.077123 -0.098677
vn -0.3611 0.4285 0.8282
vn -0.8360 0.5049 0.2149
vn 0.9449 -0.2877 0.1560
vn 0.8477 -0.1069 0.5196
vn -0.3030 -0.1182 -0.9456
vn -0.2020 -0.3272 0.9231
vn -0.5749 -0.7532 0.3196
vn -0.9737 0.2262 0.0267
vn 0.6143 -0.7674 -0.1836
vn 0.0173 -0.2948 -0.9554
vn 0.1540 0.9575 -0.2439
vn 0.7776 0.3783 -0.5022
vn 0.3583 0.8097 0.4647
vt 0.550384 0.206938
vt 0.375000 0.305791
vt 0.375000 0.049496
vt 0.180791 0.500000
vt 0.330928 0.574320
vt 0.125000 0.700504
vt 0.804283 0.500000
vt 0.842867 0.681766
vt 0.658516 0.626313
vt 0.875000 0.500000
vt 0.501754 0.540833
vt 0.565165 0.799791
vt 0.325310 0.750000
vt 0.604031 0.069198
vt 0.375000 1.000000
vt 0.375000 0.799690
vt 0.578028 1.000000
vt 0.615335 0.592735
vt 0.589707 0.775249
vt 0.581909 0.353207
s 0
g Cube_Material
usemtl Material
f 430/731/455 432/732/455 431/733/455
f 432/734/456 435/735/456 431/736/456
f 436/737/457 433/738/457 437/739/457
f 433/738/458 436/737/458 430/740/458
f 438/741/459 429/742/459 434/743/459 435/735/459
f 431/733/460 433/744/460 430/731/460
f 431/745/461 434/746/461 429/742/461 433/747/461
f 435/735/462 434/743/462 431/736/462
f 437/748/463 433/738/463 429/749/463
f 429/742/464 438/741/464 437/748/464
f 438/741/465 435/735/465 432/732/465 436/750/465
f 438/741/466 436/750/466 437/748/466
f 432/732/467 430/731/467 436/750/467
o Cube
v 0.603852 0.587376 -3.078728
v 0.218351 0.446912 -3.795345
v 0.380211 0.912210 -3.637119
v -0.056339 0.782513 -3.629685
v 0.612746 0.345753 -3.514537
v 0.370944 0.966518 -3.191031
v -0.020262 0.944698 -3.270919
v -0.035088 0.249841 -3.444257
v 0.190211 0.267572 -3.064549
v -0.076341 0.524590 -3.061524
vn -0.1219 0.3573 -0.9260
vn -0.2700 0.8873 -0.3740
vn 0.1423 -0.9891 -0.0382
vn 0.0845 -0.8937 -0.4406
vn -0.0826 0.3563 0.9307
vn 0.5902 0.0682 -0.8044
vn 0.9022 0.4142 -0.1204
vn -0.0305 0.9921 -0.1214
vn 0.5671 -0.7154 0.4082
vn 0.0241 0.0132 0.9996
vn -0.9994 0.0270 -0.0229
vn -0.6320 -0.6602 0.4058
vn -0.7095 -0.2568 -0.6563
vt 0.550384 0.206938
vt 0.375000 0.305791
vt 0.375000 0.049496
vt 0.180791 0.500000
vt 0.330928 0.574320
vt 0.125000 0.700504
vt 0.804283 0.500000
vt 0.842867 0.681766
vt 0.658516 0.626313
vt 0.875000 0.500000
vt 0.501754 0.540833
vt 0.565165 0.799791
vt 0.325310 0.750000
vt 0.604031 0.069198
vt 0.375000 1.000000
vt 0.375000 0.799690
vt 0.578028 1.000000
vt 0.615335 0.592735
vt 0.589707 0.775249
vt 0.581909 0.353207
s 0
g Cube_Material
usemtl Material
f 440/751/468 442/752/468 441/753/468
f 442/754/469 445/755/469 441/756/469
f 446/757/470 443/758/470 447/759/470
f 443/758/471 446/757/471 440/760/471
f 448/761/472 439/762/472 444/763/472 445/755/472
f 441/753/473 443/764/473 440/751/473
f 441/765/474 444/766/474 439/762/474 443/767/474
f 445/755/475 444/763/475 441/756/475
f 447/768/476 443/758/476 439/769/476
f 439/762/477 448/761/477 447/768/477
f 448/761/478 445/755/478 442/752/478 446/770/478
f 448/761/479 446/770/479 447/768/479
f 442/752/480 440/751/480 446/770/480
o Cube
v 2.624079 0.476768 -2.064943
v 2.111620 -0.381630 -2.218516
v 2.475522 -0.099488 -2.654022
v 1.917948 -0.081989 -2.661310
v 2.538481 -0.102310 -1.891713
v 2.491314 0.449114 -2.610460
v 2.025440 0.382517 -2.746216
v 1.747743 0.016851 -1.998567
v 2.022788 0.456872 -1.844705
v 1.807098 0.542642 -2.234373
vn -0.0189 -0.8319 -0.5547
vn 0.0072 -0.1814 -0.9834
vn -0.1646 -0.2323 0.9586
vn -0.1955 -0.6047 0.7721
vn 0.0403 0.9844 -0.1716
vn 0.5736 -0.8176 -0.0504
vn 0.9838 -0.1052 -0.1452
vn 0.2701 0.0685 -0.9604
vn 0.3285 0.2258 0.9171
vn 0.0387 0.9802 0.1943
vn -0.9444 0.0541 -0.3243
vn -0.7975 0.3195 0.5118
vn -0.7616 -0.6402 -0.1001
vt 0.550384 0.206938
vt 0.375000 0.305791
vt 0.375000 0.049496
vt 0.180791 0.500000
vt 0.330928 0.574320
vt 0.125000 0.700504
vt 0.804283 0.500000
vt 0.842867 0.681766
vt 0.658516 0.626313
vt 0.875000 0.500000
vt 0.501754 0.540833
vt 0.565165 0.799791
vt 0.325310 0.750000
vt 0.604031 0.069198
vt 0.375000 1.000000
vt 0.375000 0.799690
vt 0.578028 1.000000
vt 0.615335 0.592735
vt 0.589707 0.775249
vt 0.581909 0.353207
s 0
g Cube_Material
usemtl Material
f 450/771/481 452/772/481 451/773/481
f 452/774/482 455/775/482 451/776/482
f 456/777/483 453/778/483 457/779/483
f 453/778/484 456/777/484 450/780/484
f 458/781/485 449/782/485 454/783/485 455/775/485
f 451/773/486 453/784/486 450/771/486
f 451/785/487 454/786/487 449/782/487 453/787/487
f 455/775/488 454/783/488 451/776/488
f 457/788/489 453/778/489 449/789/489
f 449/782/490 458/781/490 457/788/490
f 458/781/491 455/775/491 452/772/491 456/790/491
f 458/781/492 456/790/492 457/788/492
f 452/772/493 450/771/493 456/790/493
o Cube
v -2.971897 -0.393149 -0.538796
v -3.061594 0.512734 -0.642607
v -2.623007 0.259434 -0.372265
v -2.999171 0.495990 -0.131577
v -3.014377 0.027712 -0.894968
v -2.745265 -0.166365 -0.143222
v -2.969656 0.126561 0.103135
v -3.511425 0.319259 -0.445506
v -3.499921 -0.170880 -0.446189
v -3.440516 -0.033516 -0.063563
vn 0.5159 0.8559 -0.0350
vn 0.6636 0.4382 0.6063
vn -0.6754 -0.0148 -0.7373
vn -0.5001 0.3609 -0.7872
vn -0.0762 -0.7748 0.6276
vn 0.6376 0.4035 -0.6563
vn 0.8483 -0.3528 -0.3948
vn 0.7909 0.0978 0.6041
vn -0.3811 -0.6194 -0.6864
vn -0.3066 -0.8797 0.3634
vn -0.5124 0.5153 0.6870
vn -0.9866 -0.0234 0.1616
vn -0.3660 0.9276 0.0751
vt 0.550384 0.206938
vt 0.375000 0.305791
vt 0.375000 0.049496
vt 0.180791 0.500000
vt 0.330928 0.574320
vt 0.125000 0.700504
vt 0.804283 0.500000
vt 0.842867 0.681766
vt 0.658516 0.626313
vt 0.875000 0.500000
vt 0.501754 0.540833
vt 0.565165 0.799791
vt 0.325310 0.750000
vt 0.604031 0.069198
vt 0.375000 1.000000
vt 0.375000 0.799690
vt 0.578028 1.000000
vt 0.615335 0.592735
vt 0.589707 0.775249
vt 0.581909 0.353207
s 0
g Cube_Material
usemtl Material
f 460/791/494 462/792/494 461/793/494
f 462/794/495 465/795/495 461/796/495
f 466/797/496 463/798/496 467/799/496
f 463/798/497 466/797/497 460/800/497
f 468/801/498 459/802/498 464/803/498 465/795/498
f 461/793/499 463/804/499 460/791/499
f 461/805/500 464/806/500 459/802/500 463/807/500
f 465/795/501 464/803/501 461/796/501
f 467/808/502 463/798/502 459/809/502
f 459/802/503 468/801/503 467/808/503
f 468/801/504 465/795/504 462/792/504 466/810/504
f 468/801/505 466/810/505 467/808/505
f 462/792/506 460/791/506 466/810/506
o Cube
v 1.235277 -0.073867 -1.795470
v 1.391282 0.929277 -2.259297
v 1.013180 0.415949 -2.546837
v 1.577721 0.569533 -2.738445
v 1.153603 0.591917 -1.733338
v 1.211910 -0.142002 -2.411573
v 1.618749 0.037059 -2.719065
v 1.963196 0.688334 -2.090897
v 1.890995 0.189262 -1.770848
v 2.034717 0.069685 -2.235124
vn -0.3966 0.6533 -0.6449
vn -0.3066 -0.0582 -0.9501
vn 0.3052 0.4824 0.8211
vn 0.1631 0.7953 0.5838
vn 0.2515 -0.9678 -0.0118
vn -0.8084 0.5886 0.0122
vn -0.9660 -0.2126 0.1470
vn -0.4566 -0.3599 -0.8137
vn -0.0001 -0.0929 0.9957
vn 0.3405 -0.8797 0.3320
vn 0.7988 0.1415 -0.5847
vn 0.9575 0.0442 0.2850
vn 0.4543 0.7883 -0.4151
vt 0.550384 0.206938
vt 0.375000 0.305791
vt 0.375000 0.049496
vt 0.180791 0.500000
vt 0.330928 0.574320
vt 0.125000 0.700504
vt 0.804283 0.500000
vt 0.842867 0.681766
vt 0.658516 0.626313
vt 0.875000 0.500000
vt 0.501754 0.540833
vt 0.565165 0.799791
vt 0.325310 0.750000
vt 0.604031 0.069198
vt 0.375000 1.000000
vt 0.375000 0.799690
vt 0.578028 1.000000
vt 0.615335 0.592735
vt 0.589707 0.775249
vt 0.581909 0.353207
s 0
g Cube_Material
usemtl Material
f 470/811/507 472/812/507 471/813/507
f 472/814/508 475/815/508 471/816/508
f 476/817/509 473/818/509 477/819/509
f 473/818/510 476/817/510 470/820/510
f 478/821/511 469/822/511 474/823/511 475/815/511
f 471/813/512 473/824/512 470/811/512
f 471/825/513 474/826/513 469/822/513 473/827/513
f 475/815/514 474/823/514 471/816/514
f 477/828/515 473/818/515 469/829/515
f 469/822/516 478/821/516 477/828/516
f 478/821/517 475/815/517 472/812/517 476/830/517
f 478/821/518 476/830/518 477/828/518
f 472/812/519 470/811/519 476/830/519
o Cube
v -2.405267 0.083163 -0.673581
v -2.708579 -0.202408 -0.128471
v -2.919497 -0.038127 -0.465133
v -2.893697 0.135976 -0.130134
v -2.450005 -0.257856 -0.443006
v -2.745216 0.249540 -0.627404
v -2.826046 0.384039 -0.334566
v -2.447876 0.066578 -0.002321
v -2.246326 0.189667 -0.283402
v -2.455145 0.402151 -0.206618
vn -0.8371 -0.4564 0.3017
vn -0.9725 0.2289 -0.0441
vn 0.7959 -0.4894 0.3564
vn 0.4793 -0.7079 0.5188
vn 0.2317 0.8523 -0.4689
vn -0.4101 -0.8942 -0.1795
vn -0.2413 -0.4524 -0.8585
vn -0.8699 0.3110 -0.3829
vn 0.9068 -0.3113 -0.2844
vn 0.5649 0.7082 -0.4234
vn -0.2113 0.5753 0.7902
vn 0.6493 0.4057 0.6433
vn -0.2946 -0.1565 0.9427
vt 0.550384 0.206938
vt 0.375000 0.305791
vt 0.375000 0.049496
vt 0.180791 0.500000
vt 0.330928 0.574320
vt 0.125000 0.700504
vt 0.804283 0.500000
vt 0.842867 0.681766
vt 0.658516 0.626313
vt 0.875000 0.500000
vt 0.501754 0.540833
vt 0.565165 0.799791
vt 0.325310 0.750000
vt 0.604031 0.069198
vt 0.375000 1.000000
vt 0.375000 0.799690
vt 0.578028 1.000000
vt 0.615335 0.592735
vt 0.589707 0.775249
vt 0.581909 0.353207
s 0
g Cube_Material
usemtl Material
f 480/831/520 482/832/520 481/833/520
f 482/834/521 485/835/521 481/836/521
f 486/837/522 483/838/522 487/839/522
f 483/838/523 486/837/523 480/840/523
f 488/841/524 479/842/524 484/843/524 485/835/524
f 481/833/525 483/844/525 480/831/525
f 481/845/526 484/846/526 479/842/526 483/847/526
f 485/835/527 484/843/527 481/836/527
f 487/848/528 483/838/528 479/849/528
f 479/842/529 488/841/529 487/848/529
f 488/841/530 485/835/530 482/832/530 486/850/530
f 488/841/531 486/850/531 487/848/531
f 482/832/532 480/831/532 486/850/532
o Cube
v -0.596786 -0.210313 -1.181850
v -0.987867 0.155763 -2.046424
v -0.681242 0.508089 -1.612815
v -1.238571 0.512691 -1.676678
v -0.592607 -0.233848 -1.795240
v -0.743172 0.328346 -1.092869
v -1.201487 0.478798 -1.192305
v -1.399844 -0.156924 -1.771005
v -1.184560 -0.417799 -1.344621
v -1.424542 -0.059024 -1.197308
vn 0.0821 0.7443 -0.6628
vn 0.0002 0.9976 0.0698
vn -0.0974 -0.8701 -0.4832
vn -0.0808 -0.5967 -0.7984
vn -0.1071 -0.0789 0.9911
vn 0.6829 0.2503 -0.6863
vn 0.9833 0.1635 0.0799
vn 0.2252 0.9122 0.3422
vn 0.3231 -0.9456 0.0385
vn -0.0957 -0.4322 0.8967
vn -0.9527 0.3038 -0.0072
vn -0.8175 -0.5725 0.0625
vn -0.6649 0.2588 -0.7007
vt 0.550384 0.206938
vt 0.375000 0.305791
vt 0.375000 0.049496
vt 0.180791 0.500000
vt 0.330928 0.574320
vt 0.125000 0.700504
vt 0.804283 0.500000
vt 0.842867 0.681766
vt 0.658516 0.626313
vt 0.875000 0.500000
vt 0.501754 0.540833
vt 0.565165 0.799791
vt 0.325310 0.750000
vt 0.604031 0.069198
vt 0.375000 1.000000
vt 0.375000 0.799690
vt 0.578028 1.000000
vt 0.615335 0.592735
vt 0.589707 0.775249
vt 0.581909 0.353207
s 0
g Cube_Material
usemtl Material
f 490/851/533 492/852/533 491/853/533
f 492/854/534 495/855/534 491/856/534
f 496/857/535 493/858/535 497/859/535
f 493/858/536 496/857/536 490/860/536
f 498/861/537 489/862/537 494/863/537 495/855/537
f 491/853/538 493/864/538 490/851/538
f 491/865/539 494/866/539 489/862/539 493/867/539
f 495/855/540 494/863/540 491/856/540
f 497/868/541 493/858/541 489/869/541
f 489/862/542 498/861/542 497/868/542
f 498/861/543 495/855/543 492/852/543 496/870/543
f 498/861/544 496/870/544 497/868/544
f 492/852/545 490/851/545 496/870/545
o Cube
v -1.147523 0.876662 -1.482172
v -2.002257 1.095317 -1.381726
v -1.672195 0.920795 -0.969185
v -2.013919 0.639383 -1.178738
v -1.518286 1.260999 -1.527311
v -1.330464 0.609306 -1.109907
v -1.683849 0.371589 -1.169108
v -1.961673 0.764978 -1.770234
v -1.504324 0.689210 -1.874462
v -1.648532 0.375442 -1.676210
vn -0.6713 0.3157 0.6706
vn -0.2877 -0.3222 0.9019
vn -0.1088 0.5140 -0.8509
vn -0.4146 0.6714 -0.6142
vn 0.6637 -0.7451 -0.0651
vn -0.1494 0.8621 0.4843
vn 0.6093 0.5447 0.5763
vn 0.0735 -0.3425 0.9366
vn 0.5469 0.4442 -0.7097
vn 0.7232 -0.5745 -0.3832
vn -0.6969 -0.7037 -0.1385
vn -0.2674 -0.4239 -0.8653
vn -0.9957 -0.0151 -0.0912
vt 0.550384 0.206938
vt 0.375000 0.305791
vt 0.375000 0.049496
vt 0.180791 0.500000
vt 0.330928 0.574320
vt 0.125000 0.700504
vt 0.804283 0.500000
vt 0.842867 0.681766
vt 0.658516 0.626313
vt 0.875000 0.500000
vt 0.501754 0.540833
vt 0.565165 0.799791
vt 0.325310 0.750000
vt 0.604031 0.069198
vt 0.375000 1.000000
vt 0.375000 0.799690
vt 0.578028 1.000000
vt 0.615335 0.592735
vt 0.589707 0.775249
vt 0.581909 0.353207
s 0
g Cube_Material
usemtl Material
f 500/871/546 502/872/546 501/873/546
f 502/874/547 505/875/547 501/876/547
f 506/877/548 503/878/548 507/879/548
f 503/878/549 506/877/549 500/880/549
f 508/881/550 499/882/550 504/883/550 505/875/550
f 501/873/551 503/884/551 500/871/551
f 501/885/552 504/886/552 499/882/552 503/887/552
f 505/875/553 504/883/553 501/876/553
f 507/888/554 503/878/554 499/889/554
f 499/882/555 508/881/555 507/888/555
f 508/881/556 505/875/556 502/872/556 506/890/556
f 508/881/557 506/890/557 507/888/557
f 502/872/558 500/871/558 506/890/558
o Cube
v 1.791143 0.112747 -0.080791
v 1.834366 1.183094 -0.319531
v 2.336727 0.734104 -0.457320
v 2.361704 1.133433 -0.003044
v 1.516451 0.615423 -0.413402
v 2.375746 0.285931 -0.064264
v 2.523031 0.696223 0.239749
v 1.670290 1.116822 0.287503
v 1.567166 0.551688 0.409535
v 2.004454 0.681642 0.594198
vn 0.4287 0.6667 -0.6097
vn 0.9463 0.2152 -0.2412
vn -0.9780 0.1947 0.0753
vn -0.8467 0.5029 -0.1739
vn 0.3113 -0.7268 0.6123
vn -0.0822 0.2072 -0.9748
vn 0.1050 -0.5812 -0.8070
vn 0.9535 -0.1475 -0.2629
vn -0.8823 -0.4703 0.0180
vn -0.0512 -0.7556 0.6530
vn 0.3511 0.6336 0.6894
vn -0.4410 0.2656 0.8573
vn 0.0245 0.9931 0.1150
vt 0.550384 0.206938
vt 0.375000 0.305791
vt 0.375000 0.049496
vt 0.180791 0.500000
vt 0.330928 0.574320
vt 0.125000 0.700504
vt 0.804283 0.500000
vt 0.842867 0.681766
vt 0.658516 0.626313
vt 0.875000 0.500000
vt 0.501754 0.540833
vt 0.565165 0.799791
vt 0.325310 0.750000
vt 0.604031 0.069198
vt 0.375000 1.000000
vt 0.375000 0.799690
vt 0.578028 1.000000
vt 0.615335 0.592735
vt 0.589707 0.775249
vt 0.581909 0.353207
s 0
g Cube_Material
usemtl Material
f 510/891/559 512/892/559 511/893/559
f 512/894/560 515/895/560 511/896/560
f 516/897/561 513/898/561 517/899/561
f 513/898/562 516/897/562 510/900/562
f 518/901/563 509/902/563 514/903/563 515/895/563
f 511/893/564 513/904/564 510/891/564
f 511/905/565 514/906/565 509/902/565 513/907/565
f 515/895/566 514/903/566 511/896/566
f 517/908/567 513/898/567 509/909/567
f 509/902/568 518/901/568 517/908/568
f 518/901/569 515/895/569 512/892/569 516/910/569
f 518/901/570 516/910/570 517/908/570
f 512/892/571 510/891/571 516/910/571
o Cube
v 0.044638 0.175492 0.933331
v 0.702207 -0.406647 1.780584
v 0.303573 -0.755180 1.228940
v 0.102656 -0.727713 1.870751
v 0.711378 0.072668 1.228848
v -0.244240 -0.427929 1.044527
v -0.392435 -0.588066 1.593701
v 0.278882 0.054471 2.100642
v -0.016314 0.434329 1.659093
v -0.372015 0.062981 1.846225
vn 0.4855 -0.8537 0.1885
vn -0.2518 -0.9671 -0.0374
vn 0.5590 0.7755 0.2935
vn 0.7961 0.4502 0.4044
vn -0.9160 0.2602 -0.3053
vn 0.8416 -0.4146 -0.3462
vn 0.2922 -0.2147 -0.9319
vn -0.3893 -0.8507 -0.3531
vn 0.2748 0.9127 -0.3024
vn -0.7598 0.5896 -0.2741
vn -0.4338 -0.2334 0.8703
vn -0.2756 0.6299 0.7261
vn 0.3116 -0.3319 0.8904
vt 0.550384 0.206938
vt 0.375000 0.305791
vt 0.375000 0.049496
vt 0.180791 0.500000
vt 0.330928 0.574320
vt 0.125000 0.700504
vt 0.804283 0.500000
vt 0.842867 0.681766
vt 0.658516 0.626313
vt 0.875000 0.500000
vt 0.501754 0.540833
vt 0.565165 0.799791
vt 0.325310 0.750000
vt 0.604031 0.069198
vt 0.375000 1.000000
vt 0.375000 0.799690
vt 0.578028 1.000000
vt 0.615335 0.592735
vt 0.589707 0.775249
vt 0.581909 0.353207
s 0
g Cube_Material
usemtl Material
f 520/911/572 522/912/572 521/913/572
f 522/914/573 525/915/573 521/916/573
f 526/917/574 523/918/574 527/919/574
f 523/918/575 526/917/575 520/920/575
f 528/921/576 519/922/576 524/923/576 525/915/576
f 521/913/577 523/924/577 520/911/577
f 521/925/578 524/926/578 519/922/578 523/927/578
f 525/915/579 524/923/579 521/916/579
f 527/928/580 523/918/580 519/929/580
f 519/922/581 528/921/581 527/928/581
f 528/921/582 525/915/582 522/912/582 526/930/582
f 528/921/583 526/930/583 527/928/583
f 522/912/584 520/911/584 526/930/584
