# Blender 4.1.0
# www.blender.org
mtllib Explosion20029.mtl
o Circle
v -0.024615 0.096888 -1.522372
v -0.024615 0.242742 -1.522372
v 0.122545 0.096888 -1.515142
v 0.122545 0.242742 -1.515142
v 0.268288 0.096888 -1.493523
v 0.268288 0.242742 -1.493523
v 0.411211 0.096888 -1.457723
v 0.411211 0.242742 -1.457723
v 0.549936 0.096888 -1.408086
v 0.549936 0.242742 -1.408086
v 0.683127 0.096888 -1.345092
v 0.683127 0.242742 -1.345092
v 0.809503 0.096888 -1.269345
v 0.809503 0.242742 -1.269345
v 0.927846 0.096888 -1.181576
v 0.927846 0.242742 -1.181576
v 1.037016 0.096888 -1.082630
v 1.037016 0.242742 -1.082630
v 1.135962 0.096888 -0.973460
v 1.135962 0.242742 -0.973460
v 1.223731 0.096888 -0.855117
v 1.223731 0.242742 -0.855117
v 1.299478 0.096888 -0.728741
v 1.299478 0.242742 -0.728741
v 1.362473 0.096888 -0.595549
v 1.362473 0.242742 -0.595549
v 1.412110 0.096888 -0.456824
v 1.412110 0.242742 -0.456824
v 1.447910 0.096888 -0.313902
v 1.447910 0.242742 -0.313902
v 1.469529 0.096888 -0.168159
v 1.469529 0.242742 -0.168159
v 1.476758 0.096888 -0.020998
v 1.476758 0.242742 -0.020998
v 1.469529 0.096888 0.126162
v 1.469529 0.242742 0.126162
v 1.447910 0.096888 0.271905
v 1.447910 0.242742 0.271905
v 1.412110 0.096888 0.414827
v 1.412110 0.242742 0.414827
v 1.362473 0.096888 0.553553
v 1.362473 0.242742 0.553553
v 1.299478 0.096888 0.686744
v 1.299478 0.242742 0.686744
v 1.223731 0.096888 0.813120
v 1.223731 0.242742 0.813120
v 1.135962 0.096888 0.931463
v 1.135962 0.242742 0.931463
v 1.037016 0.096888 1.040633
v 1.037016 0.242742 1.040633
v 0.927846 0.096888 1.139579
v 0.927846 0.242742 1.139579
v 0.809503 0.096888 1.227348
v 0.809503 0.242742 1.227348
v 0.683127 0.096888 1.303095
v 0.683127 0.242742 1.303095
v 0.549936 0.096888 1.366090
v 0.549936 0.242742 1.366090
v 0.411211 0.096888 1.415727
v 0.411211 0.242742 1.415727
v 0.268288 0.096888 1.451527
v 0.268288 0.242742 1.451527
v 0.122545 0.096888 1.473146
v 0.122545 0.242742 1.473146
v -0.024615 0.096888 1.480376
v -0.024615 0.242742 1.480376
v -0.171775 0.096888 1.473146
v -0.171775 0.242742 1.473146
v -0.317519 0.096888 1.451527
v -0.317519 0.242742 1.451527
v -0.460441 0.096888 1.415727
v -0.460441 0.242742 1.415727
v -0.599166 0.096888 1.366090
v -0.599166 0.242742 1.366090
v -0.732358 0.096888 1.303095
v -0.732358 0.242742 1.303095
v -0.858734 0.096888 1.227348
v -0.858734 0.242742 1.227348
v -0.977076 0.096888 1.139579
v -0.977076 0.242742 1.139579
v -1.086246 0.096888 1.040633
v -1.086246 0.242742 1.040633
v -1.185192 0.096888 0.931463
v -1.185192 0.242742 0.931463
v -1.272961 0.096888 0.813120
v -1.272961 0.242742 0.813120
v -1.348708 0.096888 0.686744
v -1.348708 0.242742 0.686744
v -1.411703 0.096888 0.553553
v -1.411703 0.242742 0.553553
v -1.461340 0.096888 0.414827
v -1.461340 0.242742 0.414827
v -1.497140 0.096888 0.271905
v -1.497140 0.242742 0.271905
v -1.518759 0.096888 0.126162
v -1.518759 0.242742 0.126162
v -1.525989 0.096888 -0.020998
v -1.525989 0.242742 -0.020998
v -1.518759 0.096888 -0.168159
v -1.518759 0.242742 -0.168159
v -1.497140 0.096888 -0.313902
v -1.497140 0.242742 -0.313902
v -1.461340 0.096888 -0.456824
v -1.461340 0.242742 -0.456824
v -1.411703 0.096888 -0.595549
v -1.411703 0.242742 -0.595549
v -1.348708 0.096888 -0.728741
v -1.348708 0.242742 -0.728741
v -1.272961 0.096888 -0.855117
v -1.272961 0.242742 -0.855117
v -1.185192 0.096888 -0.973460
v -1.185192 0.242742 -0.973460
v -1.086246 0.096888 -1.082630
v -1.086246 0.242742 -1.082630
v -0.977076 0.096888 -1.181576
v -0.977076 0.242742 -1.181576
v -0.858734 0.096888 -1.269345
v -0.858734 0.242742 -1.269345
v -0.732358 0.096888 -1.345092
v -0.732358 0.242742 -1.345092
v -0.599166 0.096888 -1.408086
v -0.599166 0.242742 -1.408086
v -0.460441 0.096888 -1.457723
v -0.460441 0.242742 -1.457723
v -0.317519 0.096888 -1.493523
v -0.317519 0.242742 -1.493523
v -0.171775 0.096888 -1.515142
v -0.171775 0.242742 -1.515142
vn 0.0491 -0.0000 -0.9988
vn 0.1467 -0.0000 -0.9892
vn 0.2430 -0.0000 -0.9700
vn 0.3369 -0.0000 -0.9415
vn 0.4276 -0.0000 -0.9040
vn 0.5141 -0.0000 -0.8577
vn 0.5957 -0.0000 -0.8032
vn 0.6716 -0.0000 -0.7410
vn 0.7410 -0.0000 -0.6716
vn 0.8032 -0.0000 -0.5957
vn 0.8577 -0.0000 -0.5141
vn 0.9040 -0.0000 -0.4276
vn 0.9415 -0.0000 -0.3369
vn 0.9700 -0.0000 -0.2430
vn 0.9892 -0.0000 -0.1467
vn 0.9988 -0.0000 -0.0491
vn 0.9988 -0.0000 0.0491
vn 0.9892 -0.0000 0.1467
vn 0.9700 -0.0000 0.2430
vn 0.9415 -0.0000 0.3369
vn 0.9040 -0.0000 0.4276
vn 0.8577 -0.0000 0.5141
vn 0.8032 -0.0000 0.5957
vn 0.7410 -0.0000 0.6716
vn 0.6716 -0.0000 0.7410
vn 0.5957 -0.0000 0.8032
vn 0.5141 -0.0000 0.8577
vn 0.4276 -0.0000 0.9040
vn 0.3369 -0.0000 0.9415
vn 0.2430 -0.0000 0.9700
vn 0.1467 -0.0000 0.9892
vn 0.0491 -0.0000 0.9988
vn -0.0491 -0.0000 0.9988
vn -0.1467 -0.0000 0.9892
vn -0.2430 -0.0000 0.9700
vn -0.3369 -0.0000 0.9415
vn -0.4276 -0.0000 0.9040
vn -0.5141 -0.0000 0.8577
vn -0.5957 -0.0000 0.8032
vn -0.6716 -0.0000 0.7410
vn -0.7410 -0.0000 0.6716
vn -0.8032 -0.0000 0.5957
vn -0.8577 -0.0000 0.5141
vn -0.9040 -0.0000 0.4276
vn -0.9415 -0.0000 0.3369
vn -0.9700 -0.0000 0.2430
vn -0.9892 -0.0000 0.1467
vn -0.9988 -0.0000 0.0491
vn -0.9988 -0.0000 -0.0491
vn -0.9892 -0.0000 -0.1467
vn -0.9700 -0.0000 -0.2430
vn -0.9415 -0.0000 -0.3369
vn -0.9040 -0.0000 -0.4276
vn -0.8577 -0.0000 -0.5141
vn -0.8032 -0.0000 -0.5957
vn -0.7410 -0.0000 -0.6716
vn -0.6716 -0.0000 -0.7410
vn -0.5957 -0.0000 -0.8032
vn -0.5141 -0.0000 -0.8577
vn -0.4276 -0.0000 -0.9040
vn -0.3369 -0.0000 -0.9415
vn -0.2430 -0.0000 -0.9700
vn -0.1467 -0.0000 -0.9892
vn -0.0491 -0.0000 -0.9988
vt 1.000000 0.500000
vt 1.000000 1.000000
vt 0.984375 1.000000
vt 0.984375 0.500000
vt 0.968750 1.000000
vt 0.968750 0.500000
vt 0.953125 1.000000
vt 0.953125 0.500000
vt 0.937500 1.000000
vt 0.937500 0.500000
vt 0.921875 1.000000
vt 0.921875 0.500000
vt 0.906250 1.000000
vt 0.906250 0.500000
vt 0.890625 1.000000
vt 0.890625 0.500000
vt 0.875000 1.000000
vt 0.875000 0.500000
vt 0.859375 1.000000
vt 0.859375 0.500000
vt 0.843750 1.000000
vt 0.843750 0.500000
vt 0.828125 1.000000
vt 0.828125 0.500000
vt 0.812500 1.000000
vt 0.812500 0.500000
vt 0.796875 1.000000
vt 0.796875 0.500000
vt 0.781250 1.000000
vt 0.781250 0.500000
vt 0.765625 1.000000
vt 0.765625 0.500000
vt 0.750000 1.000000
vt 0.750000 0.500000
vt 0.734375 1.000000
vt 0.734375 0.500000
vt 0.718750 1.000000
vt 0.718750 0.500000
vt 0.703125 1.000000
vt 0.703125 0.500000
vt 0.687500 1.000000
vt 0.687500 0.500000
vt 0.671875 1.000000
vt 0.671875 0.500000
vt 0.656250 1.000000
vt 0.656250 0.500000
vt 0.640625 1.000000
vt 0.640625 0.500000
vt 0.625000 1.000000
vt 0.625000 0.500000
vt 0.609375 1.000000
vt 0.609375 0.500000
vt 0.593750 1.000000
vt 0.593750 0.500000
vt 0.578125 1.000000
vt 0.578125 0.500000
vt 0.562500 1.000000
vt 0.562500 0.500000
vt 0.546875 1.000000
vt 0.546875 0.500000
vt 0.531250 1.000000
vt 0.531250 0.500000
vt 0.515625 1.000000
vt 0.515625 0.500000
vt 0.500000 1.000000
vt 0.500000 0.500000
vt 0.484375 1.000000
vt 0.484375 0.500000
vt 0.468750 1.000000
vt 0.468750 0.500000
vt 0.453125 1.000000
vt 0.453125 0.500000
vt 0.437500 1.000000
vt 0.437500 0.500000
vt 0.421875 1.000000
vt 0.421875 0.500000
vt 0.406250 1.000000
vt 0.406250 0.500000
vt 0.390625 1.000000
vt 0.390625 0.500000
vt 0.375000 1.000000
vt 0.375000 0.500000
vt 0.359375 1.000000
vt 0.359375 0.500000
vt 0.343750 1.000000
vt 0.343750 0.500000
vt 0.328125 1.000000
vt 0.328125 0.500000
vt 0.312500 1.000000
vt 0.312500 0.500000
vt 0.296875 1.000000
vt 0.296875 0.500000
vt 0.281250 1.000000
vt 0.281250 0.500000
vt 0.265625 1.000000
vt 0.265625 0.500000
vt 0.250000 1.000000
vt 0.250000 0.500000
vt 0.234375 1.000000
vt 0.234375 0.500000
vt 0.218750 1.000000
vt 0.218750 0.500000
vt 0.203125 1.000000
vt 0.203125 0.500000
vt 0.187500 1.000000
vt 0.187500 0.500000
vt 0.171875 1.000000
vt 0.171875 0.500000
vt 0.156250 1.000000
vt 0.156250 0.500000
vt 0.140625 1.000000
vt 0.140625 0.500000
vt 0.125000 1.000000
vt 0.125000 0.500000
vt 0.109375 1.000000
vt 0.109375 0.500000
vt 0.093750 1.000000
vt 0.093750 0.500000
vt 0.078125 1.000000
vt 0.078125 0.500000
vt 0.062500 1.000000
vt 0.062500 0.500000
vt 0.046875 1.000000
vt 0.046875 0.500000
vt 0.031250 1.000000
vt 0.031250 0.500000
vt 0.015625 1.000000
vt 0.015625 0.500000
vt 0.000000 1.000000
vt 0.000000 0.500000
s 0
g Circle_Material.001
usemtl Material.001
f 1/1/1 2/2/1 4/3/1 3/4/1
f 3/4/2 4/3/2 6/5/2 5/6/2
f 5/6/3 6/5/3 8/7/3 7/8/3
f 7/8/4 8/7/4 10/9/4 9/10/4
f 9/10/5 10/9/5 12/11/5 11/12/5
f 11/12/6 12/11/6 14/13/6 13/14/6
f 13/14/7 14/13/7 16/15/7 15/16/7
f 15/16/8 16/15/8 18/17/8 17/18/8
f 17/18/9 18/17/9 20/19/9 19/20/9
f 19/20/10 20/19/10 22/21/10 21/22/10
f 21/22/11 22/21/11 24/23/11 23/24/11
f 23/24/12 24/23/12 26/25/12 25/26/12
f 25/26/13 26/25/13 28/27/13 27/28/13
f 27/28/14 28/27/14 30/29/14 29/30/14
f 29/30/15 30/29/15 32/31/15 31/32/15
f 31/32/16 32/31/16 34/33/16 33/34/16
f 33/34/17 34/33/17 36/35/17 35/36/17
f 35/36/18 36/35/18 38/37/18 37/38/18
f 37/38/19 38/37/19 40/39/19 39/40/19
f 39/40/20 40/39/20 42/41/20 41/42/20
f 41/42/21 42/41/21 44/43/21 43/44/21
f 43/44/22 44/43/22 46/45/22 45/46/22
f 45/46/23 46/45/23 48/47/23 47/48/23
f 47/48/24 48/47/24 50/49/24 49/50/24
f 49/50/25 50/49/25 52/51/25 51/52/25
f 51/52/26 52/51/26 54/53/26 53/54/26
f 53/54/27 54/53/27 56/55/27 55/56/27
f 55/56/28 56/55/28 58/57/28 57/58/28
f 57/58/29 58/57/29 60/59/29 59/60/29
f 59/60/30 60/59/30 62/61/30 61/62/30
f 61/62/31 62/61/31 64/63/31 63/64/31
f 63/64/32 64/63/32 66/65/32 65/66/32
f 65/66/33 66/65/33 68/67/33 67/68/33
f 67/68/34 68/67/34 70/69/34 69/70/34
f 69/70/35 70/69/35 72/71/35 71/72/35
f 71/72/36 72/71/36 74/73/36 73/74/36
f 73/74/37 74/73/37 76/75/37 75/76/37
f 75/76/38 76/75/38 78/77/38 77/78/38
f 77/78/39 78/77/39 80/79/39 79/80/39
f 79/80/40 80/79/40 82/81/40 81/82/40
f 81/82/41 82/81/41 84/83/41 83/84/41
f 83/84/42 84/83/42 86/85/42 85/86/42
f 85/86/43 86/85/43 88/87/43 87/88/43
f 87/88/44 88/87/44 90/89/44 89/90/44
f 89/90/45 90/89/45 92/91/45 91/92/45
f 91/92/46 92/91/46 94/93/46 93/94/46
f 93/94/47 94/93/47 96/95/47 95/96/47
f 95/96/48 96/95/48 98/97/48 97/98/48
f 97/98/49 98/97/49 100/99/49 99/100/49
f 99/100/50 100/99/50 102/101/50 101/102/50
f 101/102/51 102/101/51 104/103/51 103/104/51
f 103/104/52 104/103/52 106/105/52 105/106/52
f 105/106/53 106/105/53 108/107/53 107/108/53
f 107/108/54 108/107/54 110/109/54 109/110/54
f 109/110/55 110/109/55 112/111/55 111/112/55
f 111/112/56 112/111/56 114/113/56 113/114/56
f 113/114/57 114/113/57 116/115/57 115/116/57
f 115/116/58 116/115/58 118/117/58 117/118/58
f 117/118/59 118/117/59 120/119/59 119/120/59
f 119/120/60 120/119/60 122/121/60 121/122/60
f 121/122/61 122/121/61 124/123/61 123/124/61
f 123/124/62 124/123/62 126/125/62 125/126/62
f 125/126/63 126/125/63 128/127/63 127/128/63
f 127/128/64 128/127/64 2/129/64 1/130/64
o Cube
v -6.261949 0.246981 -2.009852
v -5.893112 -0.536390 -2.145730
v -5.829791 -0.239138 -1.688291
v -5.488864 -0.280148 -2.028575
v -6.341882 -0.266595 -2.108209
v -5.843903 0.232256 -1.760293
v -5.481736 0.133514 -1.958337
v -5.794497 -0.239680 -2.542230
v -6.037733 0.160036 -2.510215
v -5.662034 0.228015 -2.416950
vn 0.3718 -0.8011 0.4691
vn 0.6922 -0.1324 0.7095
vn -0.5846 -0.2952 -0.7557
vn -0.4469 -0.6594 -0.6046
vn 0.1417 0.9894 0.0329
vn -0.4010 -0.7418 0.5375
vn -0.5842 0.0173 0.8114
vn 0.5049 0.1451 0.8509
vn -0.8757 0.2187 -0.4304
vn -0.1200 0.9677 -0.2219
vn 0.8915 -0.0411 -0.4512
vn 0.2019 0.1997 -0.9588
vn 0.5707 -0.7192 -0.3963
vt 0.550384 0.206938
vt 0.375000 0.305791
vt 0.375000 0.049496
vt 0.180791 0.500000
vt 0.330928 0.574320
vt 0.125000 0.700504
vt 0.804283 0.500000
vt 0.842867 0.681766
vt 0.658516 0.626313
vt 0.875000 0.500000
vt 0.501754 0.540833
vt 0.565165 0.799791
vt 0.325310 0.750000
vt 0.604031 0.069198
vt 0.375000 1.000000
vt 0.375000 0.799690
vt 0.578028 1.000000
vt 0.615335 0.592735
vt 0.589707 0.775249
vt 0.581909 0.353207
s 0
g Cube_Material
usemtl Material
f 130/131/65 132/132/65 131/133/65
f 132/134/66 135/135/66 131/136/66
f 136/137/67 133/138/67 137/139/67
f 133/138/68 136/137/68 130/140/68
f 138/141/69 129/142/69 134/143/69 135/135/69
f 131/133/70 133/144/70 130/131/70
f 131/145/71 134/146/71 129/142/71 133/147/71
f 135/135/72 134/143/72 131/136/72
f 137/148/73 133/138/73 129/149/73
f 129/142/74 138/141/74 137/148/74
f 138/141/75 135/135/75 132/132/75 136/150/75
f 138/141/76 136/150/76 137/148/76
f 132/132/77 130/131/77 136/150/77
o Cube
v 5.094175 -0.113126 2.395489
v 5.511471 0.527497 2.315287
v 5.426607 0.212207 1.961126
v 5.797685 0.241033 2.164259
v 5.100215 0.350049 2.422044
v 5.386482 -0.183243 2.091899
v 5.746963 -0.123525 2.163087
v 5.660227 0.303945 2.667495
v 5.410072 -0.011535 2.751841
v 5.696225 -0.129677 2.600205
vn 0.3158 0.6698 -0.6720
vn 0.4830 -0.0644 -0.8732
vn -0.3206 0.4735 0.8204
vn -0.1900 0.7906 0.5821
vn 0.0177 -0.9954 0.0941
vn -0.4481 0.7184 -0.5321
vn -0.7814 -0.0336 -0.6232
vn 0.2349 -0.3266 -0.9155
vn -0.7439 -0.0286 0.6676
vn -0.1607 -0.9024 0.3998
vn 0.9795 -0.0351 0.1982
vn 0.4322 -0.1031 0.8959
vn 0.7326 0.6707 0.1163
vt 0.550384 0.206938
vt 0.375000 0.305791
vt 0.375000 0.049496
vt 0.180791 0.500000
vt 0.330928 0.574320
vt 0.125000 0.700504
vt 0.804283 0.500000
vt 0.842867 0.681766
vt 0.658516 0.626313
vt 0.875000 0.500000
vt 0.501754 0.540833
vt 0.565165 0.799791
vt 0.325310 0.750000
vt 0.604031 0.069198
vt 0.375000 1.000000
vt 0.375000 0.799690
vt 0.578028 1.000000
vt 0.615335 0.592735
vt 0.589707 0.775249
vt 0.581909 0.353207
s 0
g Cube_Material
usemtl Material
f 140/151/78 142/152/78 141/153/78
f 142/154/79 145/155/79 141/156/79
f 146/157/80 143/158/80 147/159/80
f 143/158/81 146/157/81 140/160/81
f 148/161/82 139/162/82 144/163/82 145/155/82
f 141/153/83 143/164/83 140/151/83
f 141/165/84 144/166/84 139/162/84 143/167/84
f 145/155/85 144/163/85 141/156/85
f 147/168/86 143/158/86 139/169/86
f 139/162/87 148/161/87 147/168/87
f 148/161/88 145/155/88 142/152/88 146/170/88
f 148/161/89 146/170/89 147/168/89
f 142/152/90 140/151/90 146/170/90
o Cube
v 4.458183 0.235615 3.560049
v 3.883382 0.845193 3.396671
v 3.877133 0.532953 3.830926
v 3.584091 0.476636 3.466724
v 4.376719 0.737503 3.476938
v 4.047290 0.106611 3.759007
v 3.702961 0.090884 3.530833
v 3.925222 0.557143 3.000263
v 4.272411 0.265054 3.053127
v 3.941421 0.079741 3.104418
vn -0.6574 0.6163 0.4337
vn -0.7626 -0.1297 0.6337
vn 0.5259 0.5007 -0.6876
vn 0.2625 0.7936 -0.5489
vn 0.1878 -0.9822 0.0099
vn 0.0817 0.8086 0.5826
vn 0.4762 0.1395 0.8682
vn -0.5094 -0.3369 0.7919
vn 0.9364 0.0961 -0.3376
vn 0.4514 -0.8659 -0.2157
vn -0.8075 -0.2321 -0.5422
vn -0.0314 -0.2141 -0.9763
vn -0.7337 0.5105 -0.4484
vt 0.550384 0.206938
vt 0.375000 0.305791
vt 0.375000 0.049496
vt 0.180791 0.500000
vt 0.330928 0.574320
vt 0.125000 0.700504
vt 0.804283 0.500000
vt 0.842867 0.681766
vt 0.658516 0.626313
vt 0.875000 0.500000
vt 0.501754 0.540833
vt 0.565165 0.799791
vt 0.325310 0.750000
vt 0.604031 0.069198
vt 0.375000 1.000000
vt 0.375000 0.799690
vt 0.578028 1.000000
vt 0.615335 0.592735
vt 0.589707 0.775249
vt 0.581909 0.353207
s 0
g Cube_Material
usemtl Material
f 150/171/91 152/172/91 151/173/91
f 152/174/92 155/175/92 151/176/92
f 156/177/93 153/178/93 157/179/93
f 153/178/94 156/177/94 150/180/94
f 158/181/95 149/182/95 154/183/95 155/175/95
f 151/173/96 153/184/96 150/171/96
f 151/185/97 154/186/97 149/182/97 153/187/97
f 155/175/98 154/183/98 151/176/98
f 157/188/99 153/178/99 149/189/99
f 149/182/100 158/181/100 157/188/100
f 158/181/101 155/175/101 152/172/101 156/190/101
f 158/181/102 156/190/102 157/188/102
f 152/172/103 150/171/103 156/190/103
o Cube
v 5.355738 0.477249 -0.770666
v 5.034507 -0.466212 -1.351804
v 5.367368 -0.475869 -0.710141
v 5.659567 -0.612304 -1.258731
v 4.827302 0.119534 -1.049329
v 5.761925 0.004402 -0.620561
v 6.028451 -0.274050 -1.024978
v 5.380047 -0.071383 -1.759859
v 5.488680 0.472754 -1.489221
v 5.921083 0.188765 -1.483791
vn -0.2418 -0.9640 0.1109
vn 0.4452 -0.7842 0.4322
vn -0.6482 0.4389 -0.6222
vn -0.7828 0.0436 -0.6207
vn 0.7611 0.5913 0.2666
vn -0.7809 -0.4817 0.3978
vn -0.4110 0.0528 0.9101
vn 0.4910 -0.5320 0.6899
vn -0.5204 0.8479 -0.1016
vn 0.5456 0.8326 0.0957
vn 0.6326 -0.3939 -0.6668
vn 0.2649 0.3865 -0.8834
vn -0.0552 -0.6938 -0.7181
vt 0.550384 0.206938
vt 0.375000 0.305791
vt 0.375000 0.049496
vt 0.180791 0.500000
vt 0.330928 0.574320
vt 0.125000 0.700504
vt 0.804283 0.500000
vt 0.842867 0.681766
vt 0.658516 0.626313
vt 0.875000 0.500000
vt 0.501754 0.540833
vt 0.565165 0.799791
vt 0.325310 0.750000
vt 0.604031 0.069198
vt 0.375000 1.000000
vt 0.375000 0.799690
vt 0.578028 1.000000
vt 0.615335 0.592735
vt 0.589707 0.775249
vt 0.581909 0.353207
s 0
g Cube_Material
usemtl Material
f 160/191/104 162/192/104 161/193/104
f 162/194/105 165/195/105 161/196/105
f 166/197/106 163/198/106 167/199/106
f 163/198/107 166/197/107 160/200/107
f 168/201/108 159/202/108 164/203/108 165/195/108
f 161/193/109 163/204/109 160/191/109
f 161/205/110 164/206/110 159/202/110 163/207/110
f 165/195/111 164/203/111 161/196/111
f 167/208/112 163/198/112 159/209/112
f 159/202/113 168/201/113 167/208/113
f 168/201/114 165/195/114 162/192/114 166/210/114
f 168/201/115 166/210/115 167/208/115
f 162/192/116 160/191/116 166/210/116
o Cube
v -3.644428 0.656455 -3.774290
v -4.363720 0.198685 -3.801399
v -3.965372 0.114403 -3.455089
v -4.045854 -0.159347 -3.829210
v -4.157886 0.661856 -3.736857
v -3.544992 0.218457 -3.622568
v -3.641557 -0.108139 -3.856337
v -4.172754 0.219637 -4.253751
v -3.821738 0.511276 -4.263605
v -3.688990 0.152538 -4.266563
vn -0.6019 -0.5772 0.5518
vn 0.1409 -0.8132 0.5647
vn -0.5491 0.6428 -0.5342
vn -0.8424 0.4212 -0.3361
vn 0.9749 0.0274 -0.2208
vn -0.6254 0.1718 0.7612
vn 0.1489 0.4348 0.8881
vn 0.4192 -0.6071 0.6750
vn -0.0104 0.9597 -0.2810
vn 0.8563 0.3202 -0.4053
vn -0.0414 -0.7972 -0.6023
vn -0.0267 -0.0016 -0.9996
vn -0.7182 -0.6118 -0.3315
vt 0.550384 0.206938
vt 0.375000 0.305791
vt 0.375000 0.049496
vt 0.180791 0.500000
vt 0.330928 0.574320
vt 0.125000 0.700504
vt 0.804283 0.500000
vt 0.842867 0.681766
vt 0.658516 0.626313
vt 0.875000 0.500000
vt 0.501754 0.540833
vt 0.565165 0.799791
vt 0.325310 0.750000
vt 0.604031 0.069198
vt 0.375000 1.000000
vt 0.375000 0.799690
vt 0.578028 1.000000
vt 0.615335 0.592735
vt 0.589707 0.775249
vt 0.581909 0.353207
s 0
g Cube_Material
usemtl Material
f 170/211/117 172/212/117 171/213/117
f 172/214/118 175/215/118 171/216/118
f 176/217/119 173/218/119 177/219/119
f 173/218/120 176/217/120 170/220/120
f 178/221/121 169/222/121 174/223/121 175/215/121
f 171/213/122 173/224/122 170/211/122
f 171/225/123 174/226/123 169/222/123 173/227/123
f 175/215/124 174/223/124 171/216/124
f 177/228/125 173/218/125 169/229/125
f 169/222/126 178/221/126 177/228/126
f 178/221/127 175/215/127 172/212/127 176/230/127
f 178/221/128 176/230/128 177/228/128
f 172/212/129 170/211/129 176/230/129
o Cube
v -4.955415 -0.419424 1.184156
v -5.007696 0.384644 1.827101
v -4.484583 0.226729 1.482639
v -4.533617 0.128585 2.040541
v -5.239314 0.116961 1.321202
v -4.429883 -0.324204 1.391418
v -4.355706 -0.304609 1.884673
v -5.195913 -0.100745 2.112904
v -5.242801 -0.523110 1.761211
v -4.861718 -0.577921 2.017048
vn 0.3977 0.8970 0.1928
vn 0.9326 0.3325 0.1405
vn -0.9962 0.0530 0.0692
vn -0.8810 0.4416 0.1697
vn 0.3421 -0.9291 -0.1406
vn -0.0318 0.8894 -0.4560
vn 0.2269 0.2673 -0.9365
vn 0.9807 0.1226 -0.1523
vn -0.8250 -0.3171 -0.4678
vn -0.0171 -0.9826 -0.1851
vn 0.2283 -0.1381 0.9638
vn -0.5294 -0.5074 0.6799
vn -0.0920 0.5315 0.8420
vt 0.550384 0.206938
vt 0.375000 0.305791
vt 0.375000 0.049496
vt 0.180791 0.500000
vt 0.330928 0.574320
vt 0.125000 0.700504
vt 0.804283 0.500000
vt 0.842867 0.681766
vt 0.658516 0.626313
vt 0.875000 0.500000
vt 0.501754 0.540833
vt 0.565165 0.799791
vt 0.325310 0.750000
vt 0.604031 0.069198
vt 0.375000 1.000000
vt 0.375000 0.799690
vt 0.578028 1.000000
vt 0.615335 0.592735
vt 0.589707 0.775249
vt 0.581909 0.353207
s 0
g Cube_Material
usemtl Material
f 180/231/130 182/232/130 181/233/130
f 182/234/131 185/235/131 181/236/131
f 186/237/132 183/238/132 187/239/132
f 183/238/133 186/237/133 180/240/133
f 188/241/134 179/242/134 184/243/134 185/235/134
f 181/233/135 183/244/135 180/231/135
f 181/245/136 184/246/136 179/242/136 183/247/136
f 185/235/137 184/243/137 181/236/137
f 187/248/138 183/238/138 179/249/138
f 179/242/139 188/241/139 187/248/139
f 188/241/140 185/235/140 182/232/140 186/250/140
f 188/241/141 186/250/141 187/248/141
f 182/232/142 180/231/142 186/250/142
o Cube
v -1.214850 0.752128 5.302879
v -0.922789 0.049171 4.926484
v -0.876199 0.152981 5.446289
v -0.521317 0.190311 5.142883
v -1.331300 0.333690 5.030787
v -0.838207 0.602950 5.544980
v -0.481637 0.537387 5.350915
v -0.763108 0.438783 4.677365
v -0.961488 0.816882 4.832846
v -0.603109 0.800403 4.960520
vn 0.2447 -0.9548 0.1688
vn 0.6047 -0.4592 0.6508
vn -0.5357 0.0651 -0.8419
vn -0.4495 -0.3431 -0.8247
vn 0.2344 0.8885 0.3945
vn -0.5216 -0.8265 0.2118
vn -0.6548 -0.1953 0.7302
vn 0.4328 -0.2278 0.8722
vn -0.8047 0.4644 -0.3698
vn -0.0026 0.9908 0.1351
vn 0.9222 0.0081 -0.3866
vn 0.3115 0.4966 -0.8102
vn 0.5327 -0.6000 -0.5969
vt 0.550384 0.206938
vt 0.375000 0.305791
vt 0.375000 0.049496
vt 0.180791 0.500000
vt 0.330928 0.574320
vt 0.125000 0.700504
vt 0.804283 0.500000
vt 0.842867 0.681766
vt 0.658516 0.626313
vt 0.875000 0.500000
vt 0.501754 0.540833
vt 0.565165 0.799791
vt 0.325310 0.750000
vt 0.604031 0.069198
vt 0.375000 1.000000
vt 0.375000 0.799690
vt 0.578028 1.000000
vt 0.615335 0.592735
vt 0.589707 0.775249
vt 0.581909 0.353207
s 0
g Cube_Material
usemtl Material
f 190/251/143 192/252/143 191/253/143
f 192/254/144 195/255/144 191/256/144
f 196/257/145 193/258/145 197/259/145
f 193/258/146 196/257/146 190/260/146
f 198/261/147 189/262/147 194/263/147 195/255/147
f 191/253/148 193/264/148 190/251/148
f 191/265/149 194/266/149 189/262/149 193/267/149
f 195/255/150 194/263/150 191/256/150
f 197/268/151 193/258/151 189/269/151
f 189/262/152 198/261/152 197/268/152
f 198/261/153 195/255/153 192/252/153 196/270/153
f 198/261/154 196/270/154 197/268/154
f 192/252/155 190/251/155 196/270/155
o Cube
v 3.780527 0.597062 -0.489492
v 4.214935 0.205504 0.235521
v 3.639779 0.301195 0.208590
v 3.961576 0.587687 0.488494
v 4.099213 0.170464 -0.309152
v 3.511804 0.710551 -0.061826
v 3.718050 0.903995 0.289614
v 4.467497 0.661831 0.109124
v 4.286375 0.846874 -0.316792
v 4.137952 1.068211 0.004855
vn -0.1378 -0.6086 0.7814
vn -0.6467 -0.0185 0.7625
vn 0.8511 -0.2408 -0.4665
vn 0.8475 -0.5099 -0.1473
vn -0.4335 0.8260 -0.3602
vn -0.1678 -0.9809 0.0988
vn -0.7066 -0.5890 -0.3921
vn -0.8728 0.0480 0.4858
vn 0.3705 -0.1129 -0.9219
vn -0.1728 0.7724 -0.6112
vn 0.3643 0.5908 0.7199
vn 0.7831 0.6186 -0.0643
vn 0.6067 -0.1181 0.7861
vt 0.550384 0.206938
vt 0.375000 0.305791
vt 0.375000 0.049496
vt 0.180791 0.500000
vt 0.330928 0.574320
vt 0.125000 0.700504
vt 0.804283 0.500000
vt 0.842867 0.681766
vt 0.658516 0.626313
vt 0.875000 0.500000
vt 0.501754 0.540833
vt 0.565165 0.799791
vt 0.325310 0.750000
vt 0.604031 0.069198
vt 0.375000 1.000000
vt 0.375000 0.799690
vt 0.578028 1.000000
vt 0.615335 0.592735
vt 0.589707 0.775249
vt 0.581909 0.353207
s 0
g Cube_Material
usemtl Material
f 200/271/156 202/272/156 201/273/156
f 202/274/157 205/275/157 201/276/157
f 206/277/158 203/278/158 207/279/158
f 203/278/159 206/277/159 200/280/159
f 208/281/160 199/282/160 204/283/160 205/275/160
f 201/273/161 203/284/161 200/271/161
f 201/285/162 204/286/162 199/282/162 203/287/162
f 205/275/163 204/283/163 201/276/163
f 207/288/164 203/278/164 199/289/164
f 199/282/165 208/281/165 207/288/165
f 208/281/166 205/275/166 202/272/166 206/290/166
f 208/281/167 206/290/167 207/288/167
f 202/272/168 200/271/168 206/290/168
o Cube
v 0.150813 -0.103767 -3.844823
v 0.024501 0.049383 -4.709658
v 0.507764 0.124126 -4.445046
v 0.213954 0.491956 -4.578898
v 0.012516 -0.310765 -4.318991
v 0.459753 0.255048 -3.982627
v 0.308134 0.605106 -4.180371
v -0.341684 0.288840 -4.445259
v -0.322477 0.163593 -3.987661
v -0.171440 0.529143 -4.031084
vn 0.4726 0.0575 -0.8794
vn 0.7922 0.5118 -0.3325
vn -0.8459 -0.5223 -0.1075
vn -0.6970 -0.5165 -0.4975
vn 0.1066 0.4060 0.9076
vn 0.4339 -0.6690 -0.6034
vn 0.7200 -0.6720 0.1731
vn 0.9206 0.3903 -0.0149
vn -0.5377 -0.7039 0.4641
vn -0.1835 0.1904 0.9644
vn -0.3218 0.9021 -0.2876
vn -0.9082 0.3925 0.1456
vn -0.3500 0.4001 -0.8470
vt 0.550384 0.206938
vt 0.375000 0.305791
vt 0.375000 0.049496
vt 0.180791 0.500000
vt 0.330928 0.574320
vt 0.125000 0.700504
vt 0.804283 0.500000
vt 0.842867 0.681766
vt 0.658516 0.626313
vt 0.875000 0.500000
vt 0.501754 0.540833
vt 0.565165 0.799791
vt 0.325310 0.750000
vt 0.604031 0.069198
vt 0.375000 1.000000
vt 0.375000 0.799690
vt 0.578028 1.000000
vt 0.615335 0.592735
vt 0.589707 0.775249
vt 0.581909 0.353207
s 0
g Cube_Material
usemtl Material
f 210/291/169 212/292/169 211/293/169
f 212/294/170 215/295/170 211/296/170
f 216/297/171 213/298/171 217/299/171
f 213/298/172 216/297/172 210/300/172
f 218/301/173 209/302/173 214/303/173 215/295/173
f 211/293/174 213/304/174 210/291/174
f 211/305/175 214/306/175 209/302/175 213/307/175
f 215/295/176 214/303/176 211/296/176
f 217/308/177 213/298/177 209/309/177
f 209/302/178 218/301/178 217/308/178
f 218/301/179 215/295/179 212/292/179 216/310/179
f 218/301/180 216/310/180 217/308/180
f 212/292/181 210/291/181 216/310/181
o Cube
v 3.309248 -0.157420 -2.147143
v 2.649970 -0.020234 -2.644270
v 3.148399 -0.022562 -2.807525
v 2.901876 0.363313 -2.748571
v 2.876689 -0.340945 -2.332672
v 3.446272 0.120678 -2.493950
v 3.245675 0.464727 -2.569329
v 2.617889 0.270268 -2.260702
v 2.932072 0.164482 -1.959520
v 3.032944 0.477659 -2.140148
vn -0.3110 -0.0537 -0.9489
vn 0.3478 0.3548 -0.8678
vn -0.7048 -0.3697 0.6054
vn -0.8860 -0.4023 0.2306
vn 0.7711 0.4096 0.4875
vn -0.2079 -0.7533 -0.6240
vn 0.5503 -0.7816 -0.2937
vn 0.6539 0.2229 -0.7230
vn -0.0977 -0.5842 0.8057
vn 0.5938 0.2499 0.7649
vn -0.3399 0.9348 -0.1025
vn -0.4743 0.5495 0.6878
vn -0.8142 0.4281 -0.3923
vt 0.550384 0.206938
vt 0.375000 0.305791
vt 0.375000 0.049496
vt 0.180791 0.500000
vt 0.330928 0.574320
vt 0.125000 0.700504
vt 0.804283 0.500000
vt 0.842867 0.681766
vt 0.658516 0.626313
vt 0.875000 0.500000
vt 0.501754 0.540833
vt 0.565165 0.799791
vt 0.325310 0.750000
vt 0.604031 0.069198
vt 0.375000 1.000000
vt 0.375000 0.799690
vt 0.578028 1.000000
vt 0.615335 0.592735
vt 0.589707 0.775249
vt 0.581909 0.353207
s 0
g Cube_Material
usemtl Material
f 220/311/182 222/312/182 221/313/182
f 222/314/183 225/315/183 221/316/183
f 226/317/184 223/318/184 227/319/184
f 223/318/185 226/317/185 220/320/185
f 228/321/186 219/322/186 224/323/186 225/315/186
f 221/313/187 223/324/187 220/311/187
f 221/325/188 224/326/188 219/322/188 223/327/188
f 225/315/189 224/323/189 221/316/189
f 227/328/190 223/318/190 219/329/190
f 219/322/191 228/321/191 227/328/191
f 228/321/192 225/315/192 222/312/192 226/330/192
f 228/321/193 226/330/193 227/328/193
f 222/312/194 220/311/194 226/330/194
o Cube
v -3.808308 -0.283554 0.260181
v -3.736445 -0.010768 -0.795866
v -3.300230 0.199914 -0.311649
v -3.727166 0.552472 -0.550254
v -3.739171 -0.498911 -0.359559
v -3.548362 0.264388 0.225264
v -3.787685 0.654590 -0.040534
v -4.322793 0.103827 -0.596748
v -4.398335 -0.108610 -0.057035
v -4.349273 0.378586 -0.034846
vn 0.6412 0.2978 -0.7072
vn 0.6587 0.7490 -0.0719
vn -0.5927 -0.7177 -0.3655
vn -0.3581 -0.6211 -0.6971
vn -0.2557 0.3002 0.9190
vn 0.7539 -0.4401 -0.4877
vn 0.8198 -0.4631 0.3369
vn 0.7322 0.6282 0.2630
vn -0.4006 -0.8784 0.2606
vn -0.4718 0.0074 0.8817
vn -0.4939 0.8069 -0.3239
vn -0.9898 0.1041 -0.0976
vn -0.2260 0.3925 -0.8915
vt 0.550384 0.206938
vt 0.375000 0.305791
vt 0.375000 0.049496
vt 0.180791 0.500000
vt 0.330928 0.574320
vt 0.125000 0.700504
vt 0.804283 0.500000
vt 0.842867 0.681766
vt 0.658516 0.626313
vt 0.875000 0.500000
vt 0.501754 0.540833
vt 0.565165 0.799791
vt 0.325310 0.750000
vt 0.604031 0.069198
vt 0.375000 1.000000
vt 0.375000 0.799690
vt 0.578028 1.000000
vt 0.615335 0.592735
vt 0.589707 0.775249
vt 0.581909 0.353207
s 0
g Cube_Material
usemtl Material
f 230/331/195 232/332/195 231/333/195
f 232/334/196 235/335/196 231/336/196
f 236/337/197 233/338/197 237/339/197
f 233/338/198 236/337/198 230/340/198
f 238/341/199 229/342/199 234/343/199 235/335/199
f 231/333/200 233/344/200 230/331/200
f 231/345/201 234/346/201 229/342/201 233/347/201
f 235/335/202 234/343/202 231/336/202
f 237/348/203 233/338/203 229/349/203
f 229/342/204 238/341/204 237/348/204
f 238/341/205 235/335/205 232/332/205 236/350/205
f 238/341/206 236/350/206 237/348/206
f 232/332/207 230/331/207 236/350/207
o Cube
v 1.512161 -0.158908 -2.204668
v 2.603945 0.300483 -2.091298
v 2.077212 0.573763 -2.542751
v 2.590699 0.224941 -2.755862
v 1.994196 0.135582 -1.761176
v 1.675106 0.124570 -2.779474
v 2.165618 -0.021575 -3.044168
v 2.659323 -0.372691 -2.208479
v 2.085492 -0.647842 -2.187530
v 2.241598 -0.601958 -2.695704
vn 0.5282 0.8425 -0.1063
vn 0.1308 0.6500 -0.7486
vn 0.2433 -0.4416 0.8636
vn 0.4959 -0.1092 0.8615
vn -0.6157 -0.5456 -0.5685
vn 0.0306 0.8705 0.4913
vn -0.7212 0.6572 0.2189
vn -0.2298 0.6068 -0.7609
vn -0.4244 -0.4705 0.7737
vn -0.6225 -0.7389 -0.2579
vn 0.7336 -0.3520 -0.5813
vn 0.4333 -0.8997 0.0519
vn 0.9958 0.0871 -0.0297
vt 0.550384 0.206938
vt 0.375000 0.305791
vt 0.375000 0.049496
vt 0.180791 0.500000
vt 0.330928 0.574320
vt 0.125000 0.700504
vt 0.804283 0.500000
vt 0.842867 0.681766
vt 0.658516 0.626313
vt 0.875000 0.500000
vt 0.501754 0.540833
vt 0.565165 0.799791
vt 0.325310 0.750000
vt 0.604031 0.069198
vt 0.375000 1.000000
vt 0.375000 0.799690
vt 0.578028 1.000000
vt 0.615335 0.592735
vt 0.589707 0.775249
vt 0.581909 0.353207
s 0
g Cube_Material
usemtl Material
f 240/351/208 242/352/208 241/353/208
f 242/354/209 245/355/209 241/356/209
f 246/357/210 243/358/210 247/359/210
f 243/358/211 246/357/211 240/360/211
f 248/361/212 239/362/212 244/363/212 245/355/212
f 241/353/213 243/364/213 240/351/213
f 241/365/214 244/366/214 239/362/214 243/367/214
f 245/355/215 244/363/215 241/356/215
f 247/368/216 243/358/216 239/369/216
f 239/362/217 248/361/217 247/368/217
f 248/361/218 245/355/218 242/352/218 246/370/218
f 248/361/219 246/370/219 247/368/219
f 242/352/220 240/351/220 246/370/220
o Cube
v -3.134968 -0.084792 -0.304432
v -3.651483 0.456843 0.269590
v -3.876861 0.093405 -0.138377
v -3.855759 0.610123 -0.195142
v -3.270684 0.041036 0.233923
v -3.580035 0.036493 -0.553401
v -3.704963 0.473527 -0.598319
v -3.272799 0.765763 0.031972
v -2.948351 0.477220 -0.225366
v -3.211751 0.667971 -0.495796
vn -0.9019 0.0834 0.4239
vn -0.9367 -0.0002 -0.3503
vn 0.7087 0.1913 0.6791
vn 0.3588 0.2515 0.8989
vn 0.3565 -0.1235 -0.9261
vn -0.4832 -0.5040 0.7159
vn -0.2136 -0.9728 0.0895
vn -0.7981 -0.2828 -0.5320
vn 0.8906 -0.3385 0.3036
vn 0.6682 -0.1186 -0.7345
vn -0.2167 0.9339 -0.2844
vn 0.6313 0.7724 -0.0701
vn -0.3872 0.8114 0.4378
vt 0.550384 0.206938
vt 0.375000 0.305791
vt 0.375000 0.049496
vt 0.180791 0.500000
vt 0.330928 0.574320
vt 0.125000 0.700504
vt 0.804283 0.500000
vt 0.842867 0.681766
vt 0.658516 0.626313
vt 0.875000 0.500000
vt 0.501754 0.540833
vt 0.565165 0.799791
vt 0.325310 0.750000
vt 0.604031 0.069198
vt 0.375000 1.000000
vt 0.375000 0.799690
vt 0.578028 1.000000
vt 0.615335 0.592735
vt 0.589707 0.775249
vt 0.581909 0.353207
s 0
g Cube_Material
usemtl Material
f 250/371/221 252/372/221 251/373/221
f 252/374/222 255/375/222 251/376/222
f 256/377/223 253/378/223 257/379/223
f 253/378/224 256/377/224 250/380/224
f 258/381/225 249/382/225 254/383/225 255/375/225
f 251/373/226 253/384/226 250/371/226
f 251/385/227 254/386/227 249/382/227 253/387/227
f 255/375/228 254/383/228 251/376/228
f 257/388/229 253/378/229 249/389/229
f 249/382/230 258/381/230 257/388/230
f 258/381/231 255/375/231 252/372/231 256/390/231
f 258/381/232 256/390/232 257/388/232
f 252/372/233 250/371/233 256/390/233
o Cube
v -1.375994 0.071914 -1.725144
v -1.680504 0.094641 -2.835963
v -1.007397 0.196569 -2.595878
v -1.380899 0.667807 -2.801305
v -1.653363 -0.279754 -2.256974
v -0.977007 0.468028 -2.031431
v -1.180646 0.888047 -2.336936
v -2.085711 0.495184 -2.495543
v -1.989047 0.431696 -1.890028
v -1.775502 0.873133 -2.052524
vn 0.3502 -0.1270 -0.9280
vn 0.7673 0.3844 -0.5132
vn -0.8814 -0.4634 0.0921
vn -0.7871 -0.5341 -0.3085
vn 0.2531 0.5407 0.8022
vn 0.3079 -0.7923 -0.5268
vn 0.6970 -0.6897 0.1963
vn 0.9308 0.3073 -0.1979
vn -0.5087 -0.5719 0.6435
vn -0.0384 0.3615 0.9316
vn -0.3056 0.8649 -0.3982
vn -0.8555 0.4828 0.1872
vn -0.4391 0.2811 -0.8534
vt 0.550384 0.206938
vt 0.375000 0.305791
vt 0.375000 0.049496
vt 0.180791 0.500000
vt 0.330928 0.574320
vt 0.125000 0.700504
vt 0.804283 0.500000
vt 0.842867 0.681766
vt 0.658516 0.626313
vt 0.875000 0.500000
vt 0.501754 0.540833
vt 0.565165 0.799791
vt 0.325310 0.750000
vt 0.604031 0.069198
vt 0.375000 1.000000
vt 0.375000 0.799690
vt 0.578028 1.000000
vt 0.615335 0.592735
vt 0.589707 0.775249
vt 0.581909 0.353207
s 0
g Cube_Material
usemtl Material
f 260/391/234 262/392/234 261/393/234
f 262/394/235 265/395/235 261/396/235
f 266/397/236 263/398/236 267/399/236
f 263/398/237 266/397/237 260/400/237
f 268/401/238 259/402/238 264/403/238 265/395/238
f 261/393/239 263/404/239 260/391/239
f 261/405/240 264/406/240 259/402/240 263/407/240
f 265/395/241 264/403/241 261/396/241
f 267/408/242 263/398/242 259/409/242
f 259/402/243 268/401/243 267/408/243
f 268/401/244 265/395/244 262/392/244 266/410/244
f 268/401/245 266/410/245 267/408/245
f 262/392/246 260/391/246 266/410/246
o Cube
v -1.874693 0.304193 -1.704697
v -2.512747 1.047174 -2.115131
v -2.138684 1.132052 -1.571427
v -2.717962 1.047177 -1.554515
v -2.011971 0.667797 -2.214301
v -2.059880 0.649402 -1.263330
v -2.563055 0.727041 -1.191182
v -2.831152 0.528880 -2.049859
v -2.485159 0.102855 -1.902658
v -2.731959 0.245200 -1.521121
vn -0.1463 0.9878 -0.0536
vn -0.0870 0.7288 0.6792
vn -0.1133 -0.4055 -0.9071
vn -0.1963 -0.0029 -0.9805
vn 0.1273 -0.6751 0.7266
vn 0.4815 0.7529 -0.4488
vn 0.9538 0.2955 0.0538
vn 0.2011 0.5502 0.8105
vn 0.4193 -0.6818 -0.5994
vn 0.1535 -0.8892 0.4310
vn -0.9560 0.0288 0.2918
vn -0.7190 -0.6596 -0.2190
vn -0.8285 0.4708 -0.3033
vt 0.550384 0.206938
vt 0.375000 0.305791
vt 0.375000 0.049496
vt 0.180791 0.500000
vt 0.330928 0.574320
vt 0.125000 0.700504
vt 0.804283 0.500000
vt 0.842867 0.681766
vt 0.658516 0.626313
vt 0.875000 0.500000
vt 0.501754 0.540833
vt 0.565165 0.799791
vt 0.325310 0.750000
vt 0.604031 0.069198
vt 0.375000 1.000000
vt 0.375000 0.799690
vt 0.578028 1.000000
vt 0.615335 0.592735
vt 0.589707 0.775249
vt 0.581909 0.353207
s 0
g Cube_Material
usemtl Material
f 270/411/247 272/412/247 271/413/247
f 272/414/248 275/415/248 271/416/248
f 276/417/249 273/418/249 277/419/249
f 273/418/250 276/417/250 270/420/250
f 278/421/251 269/422/251 274/423/251 275/415/251
f 271/413/252 273/424/252 270/411/252
f 271/425/253 274/426/253 269/422/253 273/427/253
f 275/415/254 274/423/254 271/416/254
f 277/428/255 273/418/255 269/429/255
f 269/422/256 278/421/256 277/428/256
f 278/421/257 275/415/257 272/412/257 276/430/257
f 278/421/258 276/430/258 277/428/258
f 272/412/259 270/411/259 276/430/259
o Cube
v 2.282605 0.566442 -0.081779
v 2.457213 0.965473 0.473212
v 2.693734 0.939011 0.100669
v 2.796343 0.763818 0.432641
v 2.168145 0.885896 0.175431
v 2.673390 0.597025 -0.072822
v 2.844897 0.513847 0.210698
v 2.380843 0.587854 0.602743
v 2.238464 0.379719 0.321801
v 2.540972 0.299934 0.368804
vn 0.5158 0.8132 0.2697
vn 0.9442 0.3013 -0.1328
vn -0.8936 0.0056 0.4487
vn -0.7169 0.3515 0.6020
vn 0.1863 -0.8402 -0.5093
vn -0.1200 0.9820 -0.1459
vn -0.1089 0.5315 -0.8400
vn 0.8639 0.1860 -0.4680
vn -0.9627 -0.1895 -0.1930
vn -0.1675 -0.8876 -0.4290
vn 0.5518 -0.4042 0.7295
vn -0.2858 -0.6950 0.6597
vn 0.2677 0.2637 0.9267
vt 0.550384 0.206938
vt 0.375000 0.305791
vt 0.375000 0.049496
vt 0.180791 0.500000
vt 0.330928 0.574320
vt 0.125000 0.700504
vt 0.804283 0.500000
vt 0.842867 0.681766
vt 0.658516 0.626313
vt 0.875000 0.500000
vt 0.501754 0.540833
vt 0.565165 0.799791
vt 0.325310 0.750000
vt 0.604031 0.069198
vt 0.375000 1.000000
vt 0.375000 0.799690
vt 0.578028 1.000000
vt 0.615335 0.592735
vt 0.589707 0.775249
vt 0.581909 0.353207
s 0
g Cube_Material
usemtl Material
f 280/431/260 282/432/260 281/433/260
f 282/434/261 285/435/261 281/436/261
f 286/437/262 283/438/262 287/439/262
f 283/438/263 286/437/263 280/440/263
f 288/441/264 279/442/264 284/443/264 285/435/264
f 281/433/265 283/444/265 280/431/265
f 281/445/266 284/446/266 279/442/266 283/447/266
f 285/435/267 284/443/267 281/436/267
f 287/448/268 283/438/268 279/449/268
f 279/442/269 288/441/269 287/448/269
f 288/441/270 285/435/270 282/432/270 286/450/270
f 288/441/271 286/450/271 287/448/271
f 282/432/272 280/431/272 286/450/272
o Cube
v -0.775322 0.512859 2.130321
v 0.098468 0.855023 2.565941
v 0.074231 0.409873 2.095281
v 0.176377 0.283706 2.642353
v -0.409865 1.005936 2.245279
v -0.388006 0.088483 2.108381
v -0.158119 -0.062951 2.526969
v -0.279315 0.691814 2.997119
v -0.776390 0.576194 2.782561
v -0.558678 0.180580 2.888970
vn 0.9811 0.1128 -0.1572
vn 0.7357 -0.6168 -0.2796
vn -0.3714 0.8320 0.4121
vn 0.0346 0.9243 0.3802
vn -0.6615 -0.7479 -0.0564
vn 0.5480 0.5934 -0.5895
vn -0.0230 0.1470 -0.9889
vn 0.4780 -0.7087 -0.5189
vn -0.7952 0.6034 -0.0599
vn -0.8802 -0.4725 0.0444
vn 0.3399 -0.4573 0.8218
vn -0.4012 0.0255 0.9156
vn 0.7025 0.1876 0.6865
vt 0.550384 0.206938
vt 0.375000 0.305791
vt 0.375000 0.049496
vt 0.180791 0.500000
vt 0.330928 0.574320
vt 0.125000 0.700504
vt 0.804283 0.500000
vt 0.842867 0.681766
vt 0.658516 0.626313
vt 0.875000 0.500000
vt 0.501754 0.540833
vt 0.565165 0.799791
vt 0.325310 0.750000
vt 0.604031 0.069198
vt 0.375000 1.000000
vt 0.375000 0.799690
vt 0.578028 1.000000
vt 0.615335 0.592735
vt 0.589707 0.775249
vt 0.581909 0.353207
s 0
g Cube_Material
usemtl Material
f 290/451/273 292/452/273 291/453/273
f 292/454/274 295/455/274 291/456/274
f 296/457/275 293/458/275 297/459/275
f 293/458/276 296/457/276 290/460/276
f 298/461/277 289/462/277 294/463/277 295/455/277
f 291/453/278 293/464/278 290/451/278
f 291/465/279 294/466/279 289/462/279 293/467/279
f 295/455/280 294/463/280 291/456/280
f 297/468/281 293/458/281 289/469/281
f 289/462/282 298/461/282 297/468/282
f 298/461/283 295/455/283 292/452/283 296/470/283
f 298/461/284 296/470/284 297/468/284
f 292/452/285 290/451/285 296/470/285
o Cube
v -2.388073 0.643644 -0.523511
v -1.669121 0.694530 -0.809496
v -2.064372 0.601180 -1.076231
v -1.777752 0.302972 -0.967381
v -2.010313 0.913463 -0.582847
v -2.364035 0.387720 -0.869392
v -2.095345 0.126342 -0.891388
v -1.665664 0.414434 -0.461490
v -2.032300 0.422186 -0.267358
v -2.007748 0.131269 -0.456228
vn 0.5172 0.1927 -0.8339
vn -0.0220 -0.3614 -0.9321
vn 0.4191 0.4773 0.7724
vn 0.6753 0.5778 0.4584
vn -0.7464 -0.6106 0.2647
vn 0.1699 0.8242 -0.5403
vn -0.6306 0.6529 -0.4195
vn -0.3772 -0.3145 -0.8711
vn -0.2521 0.5309 0.8091
vn -0.6885 -0.4349 0.5803
vn 0.5701 -0.8214 -0.0194
vn 0.4042 -0.4738 0.7824
vn 0.9651 -0.1992 -0.1699
vt 0.550384 0.206938
vt 0.375000 0.305791
vt 0.375000 0.049496
vt 0.180791 0.500000
vt 0.330928 0.574320
vt 0.125000 0.700504
vt 0.804283 0.500000
vt 0.842867 0.681766
vt 0.658516 0.626313
vt 0.875000 0.500000
vt 0.501754 0.540833
vt 0.565165 0.799791
vt 0.325310 0.750000
vt 0.604031 0.069198
vt 0.375000 1.000000
vt 0.375000 0.799690
vt 0.578028 1.000000
vt 0.615335 0.592735
vt 0.589707 0.775249
vt 0.581909 0.353207
s 0
g Cube_Material
usemtl Material
f 300/471/286 302/472/286 301/473/286
f 302/474/287 305/475/287 301/476/287
f 306/477/288 303/478/288 307/479/288
f 303/478/289 306/477/289 300/480/289
f 308/481/290 299/482/290 304/483/290 305/475/290
f 301/473/291 303/484/291 300/471/291
f 301/485/292 304/486/292 299/482/292 303/487/292
f 305/475/293 304/483/293 301/476/293
f 307/488/294 303/478/294 299/489/294
f 299/482/295 308/481/295 307/488/295
f 308/481/296 305/475/296 302/472/296 306/490/296
f 308/481/297 306/490/297 307/488/297
f 302/472/298 300/471/298 306/490/298
o Cube
v -1.367515 -0.106570 1.958807
v -0.342259 -0.233629 1.253736
v -0.638652 -0.798407 1.709189
v -0.075724 -0.434610 1.872639
v -1.077425 -0.089698 1.262073
v -0.949391 -0.567117 2.269061
v -0.374640 -0.420296 2.391368
v -0.278457 0.365328 1.649266
v -0.853664 0.496395 1.965368
v -0.484412 0.284677 2.330623
vn 0.5717 -0.6755 -0.4656
vn 0.4594 -0.8403 0.2879
vn -0.1533 0.7826 -0.6034
vn 0.0965 0.5413 -0.8353
vn -0.3611 0.1304 0.9234
vn -0.1232 -0.5830 -0.8031
vn -0.7102 -0.6668 -0.2258
vn 0.1330 -0.8878 0.4406
vn -0.7274 0.6230 -0.2878
vn -0.5041 0.4214 0.7539
vn 0.8857 0.2569 0.3868
vn 0.3242 0.9230 0.2073
vn 0.9252 0.1355 -0.3544
vt 0.550384 0.206938
vt 0.375000 0.305791
vt 0.375000 0.049496
vt 0.180791 0.500000
vt 0.330928 0.574320
vt 0.125000 0.700504
vt 0.804283 0.500000
vt 0.842867 0.681766
vt 0.658516 0.626313
vt 0.875000 0.500000
vt 0.501754 0.540833
vt 0.565165 0.799791
vt 0.325310 0.750000
vt 0.604031 0.069198
vt 0.375000 1.000000
vt 0.375000 0.799690
vt 0.578028 1.000000
vt 0.615335 0.592735
vt 0.589707 0.775249
vt 0.581909 0.353207
s 0
g Cube_Material
usemtl Material
f 310/491/299 312/492/299 311/493/299
f 312/494/300 315/495/300 311/496/300
f 316/497/301 313/498/301 317/499/301
f 313/498/302 316/497/302 310/500/302
f 318/501/303 309/502/303 314/503/303 315/495/303
f 311/493/304 313/504/304 310/491/304
f 311/505/305 314/506/305 309/502/305 313/507/305
f 315/495/306 314/503/306 311/496/306
f 317/508/307 313/498/307 309/509/307
f 309/502/308 318/501/308 317/508/308
f 318/501/309 315/495/309 312/492/309 316/510/309
f 318/501/310 316/510/310 317/508/310
f 312/492/311 310/491/311 316/510/311
o Cube
v -0.808801 0.116979 0.296982
v -1.360265 -0.502952 0.685507
v -1.376689 -0.357400 0.130418
v -1.717610 -0.201511 0.469299
v -0.842358 -0.361872 0.571460
v -1.249339 0.116521 0.041682
v -1.631878 0.173775 0.258982
v -1.373340 -0.060501 0.973038
v -1.034203 0.255528 0.813470
v -1.405177 0.377494 0.685838
vn -0.5611 -0.8046 -0.1944
vn -0.7349 -0.1959 -0.6492
vn 0.5371 -0.1579 0.8286
vn 0.3152 -0.5106 0.8000
vn 0.0807 0.9304 -0.3574
vn 0.2017 -0.9459 -0.2540
vn 0.5370 -0.3782 -0.7540
vn -0.4970 -0.0288 -0.8673
vn 0.9206 0.1437 0.3632
vn 0.3420 0.9342 -0.1013
vn -0.8574 0.3087 0.4117
vn -0.1099 0.5394 0.8348
vn -0.6984 -0.4044 0.5905
vt 0.550384 0.206938
vt 0.375000 0.305791
vt 0.375000 0.049496
vt 0.180791 0.500000
vt 0.330928 0.574320
vt 0.125000 0.700504
vt 0.804283 0.500000
vt 0.842867 0.681766
vt 0.658516 0.626313
vt 0.875000 0.500000
vt 0.501754 0.540833
vt 0.565165 0.799791
vt 0.325310 0.750000
vt 0.604031 0.069198
vt 0.375000 1.000000
vt 0.375000 0.799690
vt 0.578028 1.000000
vt 0.615335 0.592735
vt 0.589707 0.775249
vt 0.581909 0.353207
s 0
g Cube_Material
usemtl Material
f 320/511/312 322/512/312 321/513/312
f 322/514/313 325/515/313 321/516/313
f 326/517/314 323/518/314 327/519/314
f 323/518/315 326/517/315 320/520/315
f 328/521/316 319/522/316 324/523/316 325/515/316
f 321/513/317 323/524/317 320/511/317
f 321/525/318 324/526/318 319/522/318 323/527/318
f 325/515/319 324/523/319 321/516/319
f 327/528/320 323/518/320 319/529/320
f 319/522/321 328/521/321 327/528/321
f 328/521/322 325/515/322 322/512/322 326/530/322
f 328/521/323 326/530/323 327/528/323
f 322/512/324 320/511/324 326/530/324
o Cube
v -6.059229 0.290156 -1.844709
v -5.727431 -0.414548 -1.966942
v -5.670468 -0.147147 -1.555439
v -5.363779 -0.184038 -1.861551
v -6.131135 -0.171847 -1.933189
v -5.683163 0.276910 -1.620211
v -5.357367 0.188083 -1.798367
v -5.638720 -0.147634 -2.323624
v -5.857529 0.211942 -2.294824
v -5.519558 0.273094 -2.210925
vn 0.3718 -0.8011 0.4691
vn 0.6922 -0.1324 0.7095
vn -0.5846 -0.2952 -0.7557
vn -0.4469 -0.6594 -0.6046
vn 0.1417 0.9894 0.0329
vn -0.4010 -0.7418 0.5375
vn -0.5842 0.0173 0.8114
vn 0.5049 0.1451 0.8509
vn -0.8757 0.2187 -0.4304
vn -0.1200 0.9677 -0.2219
vn 0.8915 -0.0411 -0.4512
vn 0.2019 0.1997 -0.9588
vn 0.5707 -0.7192 -0.3963
vt 0.550384 0.206938
vt 0.375000 0.305791
vt 0.375000 0.049496
vt 0.180791 0.500000
vt 0.330928 0.574320
vt 0.125000 0.700504
vt 0.804283 0.500000
vt 0.842867 0.681766
vt 0.658516 0.626313
vt 0.875000 0.500000
vt 0.501754 0.540833
vt 0.565165 0.799791
vt 0.325310 0.750000
vt 0.604031 0.069198
vt 0.375000 1.000000
vt 0.375000 0.799690
vt 0.578028 1.000000
vt 0.615335 0.592735
vt 0.589707 0.775249
vt 0.581909 0.353207
s 0
g Cube_Material
usemtl Material
f 330/531/325 332/532/325 331/533/325
f 332/534/326 335/535/326 331/536/326
f 336/537/327 333/538/327 337/539/327
f 333/538/328 336/537/328 330/540/328
f 338/541/329 329/542/329 334/543/329 335/535/329
f 331/533/330 333/544/330 330/531/330
f 331/545/331 334/546/331 329/542/331 333/547/331
f 335/535/332 334/543/332 331/536/332
f 337/548/333 333/538/333 329/549/333
f 329/542/334 338/541/334 337/548/334
f 338/541/335 335/535/335 332/532/335 336/550/335
f 338/541/336 336/550/336 337/548/336
f 332/532/337 330/531/337 336/550/337
o Cube
v 4.439031 -0.085360 2.904584
v 4.907037 0.633111 2.814637
v 4.811860 0.279507 2.417438
v 5.228031 0.311835 2.645255
v 4.445805 0.434100 2.934366
v 4.766859 -0.163998 2.564102
v 5.171145 -0.097023 2.643940
v 5.073869 0.382392 3.209645
v 4.793315 0.028576 3.304240
v 5.114242 -0.103922 3.134177
vn 0.3158 0.6698 -0.6720
vn 0.4830 -0.0644 -0.8732
vn -0.3206 0.4735 0.8204
vn -0.1900 0.7906 0.5821
vn 0.0177 -0.9954 0.0941
vn -0.4481 0.7184 -0.5321
vn -0.7814 -0.0336 -0.6232
vn 0.2349 -0.3266 -0.9155
vn -0.7439 -0.0286 0.6676
vn -0.1607 -0.9024 0.3998
vn 0.9795 -0.0351 0.1982
vn 0.4322 -0.1031 0.8959
vn 0.7326 0.6707 0.1163
vt 0.550384 0.206938
vt 0.375000 0.305791
vt 0.375000 0.049496
vt 0.180791 0.500000
vt 0.330928 0.574320
vt 0.125000 0.700504
vt 0.804283 0.500000
vt 0.842867 0.681766
vt 0.658516 0.626313
vt 0.875000 0.500000
vt 0.501754 0.540833
vt 0.565165 0.799791
vt 0.325310 0.750000
vt 0.604031 0.069198
vt 0.375000 1.000000
vt 0.375000 0.799690
vt 0.578028 1.000000
vt 0.615335 0.592735
vt 0.589707 0.775249
vt 0.581909 0.353207
s 0
g Cube_Material
usemtl Material
f 340/551/338 342/552/338 341/553/338
f 342/554/339 345/555/339 341/556/339
f 346/557/340 343/558/340 347/559/340
f 343/558/341 346/557/341 340/560/341
f 348/561/342 339/562/342 344/563/342 345/555/342
f 341/553/343 343/564/343 340/551/343
f 341/565/344 344/566/344 339/562/344 343/567/344
f 345/555/345 344/563/345 341/556/345
f 347/568/346 343/558/346 339/569/346
f 339/562/347 348/561/347 347/568/347
f 348/561/348 345/555/348 342/552/348 346/570/348
f 348/561/349 346/570/349 347/568/349
f 342/552/350 340/551/350 346/570/350
o Cube
v 4.862123 0.265895 3.589269
v 4.084187 1.090898 3.368154
v 4.075730 0.668312 3.955875
v 3.679126 0.592093 3.462963
v 4.751869 0.945151 3.476788
v 4.306021 0.091300 3.858540
v 3.840005 0.070015 3.549729
v 4.140813 0.701051 2.831656
v 4.610700 0.305738 2.903201
v 4.162737 0.054935 2.972618
vn -0.6574 0.6163 0.4337
vn -0.7626 -0.1297 0.6337
vn 0.5259 0.5007 -0.6876
vn 0.2625 0.7936 -0.5489
vn 0.1878 -0.9822 0.0099
vn 0.0817 0.8086 0.5826
vn 0.4762 0.1395 0.8682
vn -0.5094 -0.3369 0.7919
vn 0.9364 0.0961 -0.3376
vn 0.4514 -0.8659 -0.2157
vn -0.8075 -0.2321 -0.5422
vn -0.0314 -0.2141 -0.9763
vn -0.7337 0.5105 -0.4484
vt 0.550384 0.206938
vt 0.375000 0.305791
vt 0.375000 0.049496
vt 0.180791 0.500000
vt 0.330928 0.574320
vt 0.125000 0.700504
vt 0.804283 0.500000
vt 0.842867 0.681766
vt 0.658516 0.626313
vt 0.875000 0.500000
vt 0.501754 0.540833
vt 0.565165 0.799791
vt 0.325310 0.750000
vt 0.604031 0.069198
vt 0.375000 1.000000
vt 0.375000 0.799690
vt 0.578028 1.000000
vt 0.615335 0.592735
vt 0.589707 0.775249
vt 0.581909 0.353207
s 0
g Cube_Material
usemtl Material
f 350/571/351 352/572/351 351/573/351
f 352/574/352 355/575/352 351/576/352
f 356/577/353 353/578/353 357/579/353
f 353/578/354 356/577/354 350/580/354
f 358/581/355 349/582/355 354/583/355 355/575/355
f 351/573/356 353/584/356 350/571/356
f 351/585/357 354/586/357 349/582/357 353/587/357
f 355/575/358 354/583/358 351/576/358
f 357/588/359 353/578/359 349/589/359
f 349/582/360 358/581/360 357/588/360
f 358/581/361 355/575/361 352/572/361 356/590/361
f 358/581/362 356/590/362 357/588/362
f 352/572/363 350/571/363 356/590/363
o Cube
v 5.783636 0.852189 -0.508875
v 5.507544 0.041301 -1.008353
v 5.793632 0.033002 -0.456854
v 6.044772 -0.084262 -0.928358
v 5.329455 0.544740 -0.748381
v 6.132746 0.445786 -0.379862
v 6.361821 0.206461 -0.727451
v 5.804529 0.380650 -1.359068
v 5.897897 0.848325 -1.126460
v 6.269539 0.604242 -1.121793
vn -0.2418 -0.9640 0.1109
vn 0.4452 -0.7842 0.4322
vn -0.6482 0.4389 -0.6222
vn -0.7828 0.0436 -0.6207
vn 0.7611 0.5913 0.2666
vn -0.7809 -0.4817 0.3978
vn -0.4110 0.0528 0.9101
vn 0.4910 -0.5320 0.6899
vn -0.5204 0.8479 -0.1016
vn 0.5456 0.8326 0.0957
vn 0.6326 -0.3939 -0.6668
vn 0.2649 0.3865 -0.8834
vn -0.0552 -0.6938 -0.7181
vt 0.550384 0.206938
vt 0.375000 0.305791
vt 0.375000 0.049496
vt 0.180791 0.500000
vt 0.330928 0.574320
vt 0.125000 0.700504
vt 0.804283 0.500000
vt 0.842867 0.681766
vt 0.658516 0.626313
vt 0.875000 0.500000
vt 0.501754 0.540833
vt 0.565165 0.799791
vt 0.325310 0.750000
vt 0.604031 0.069198
vt 0.375000 1.000000
vt 0.375000 0.799690
vt 0.578028 1.000000
vt 0.615335 0.592735
vt 0.589707 0.775249
vt 0.581909 0.353207
s 0
g Cube_Material
usemtl Material
f 360/591/364 362/592/364 361/593/364
f 362/594/365 365/595/365 361/596/365
f 366/597/366 363/598/366 367/599/366
f 363/598/367 366/597/367 360/600/367
f 368/601/368 359/602/368 364/603/368 365/595/368
f 361/593/369 363/604/369 360/591/369
f 361/605/370 364/606/370 359/602/370 363/607/370
f 365/595/371 364/603/371 361/596/371
f 367/608/372 363/598/372 359/609/372
f 359/602/373 368/601/373 367/608/373
f 368/601/374 365/595/374 362/592/374 366/610/374
f 368/601/375 366/610/375 367/608/375
f 362/592/376 360/591/376 366/610/376
o Cube
v -3.042328 0.262730 -3.717630
v -3.929270 -0.301735 -3.751057
v -3.438076 -0.405661 -3.324030
v -3.537317 -0.743215 -3.785350
v -3.675461 0.269390 -3.671471
v -2.919716 -0.277354 -3.530545
v -3.038787 -0.680073 -3.818799
v -3.693794 -0.275900 -4.308841
v -3.260965 0.083714 -4.320992
v -3.097277 -0.358638 -4.324640
vn -0.6019 -0.5772 0.5518
vn 0.1409 -0.8132 0.5647
vn -0.5491 0.6428 -0.5342
vn -0.8424 0.4212 -0.3361
vn 0.9749 0.0274 -0.2208
vn -0.6254 0.1718 0.7612
vn 0.1489 0.4348 0.8881
vn 0.4192 -0.6071 0.6750
vn -0.0104 0.9597 -0.2810
vn 0.8563 0.3202 -0.4053
vn -0.0414 -0.7972 -0.6023
vn -0.0267 -0.0016 -0.9996
vn -0.7182 -0.6118 -0.3315
vt 0.550384 0.206938
vt 0.375000 0.305791
vt 0.375000 0.049496
vt 0.180791 0.500000
vt 0.330928 0.574320
vt 0.125000 0.700504
vt 0.804283 0.500000
vt 0.842867 0.681766
vt 0.658516 0.626313
vt 0.875000 0.500000
vt 0.501754 0.540833
vt 0.565165 0.799791
vt 0.325310 0.750000
vt 0.604031 0.069198
vt 0.375000 1.000000
vt 0.375000 0.799690
vt 0.578028 1.000000
vt 0.615335 0.592735
vt 0.589707 0.775249
vt 0.581909 0.353207
s 0
g Cube_Material
usemtl Material
f 370/611/377 372/612/377 371/613/377
f 372/614/378 375/615/378 371/616/378
f 376/617/379 373/618/379 377/619/379
f 373/618/380 376/617/380 370/620/380
f 378/621/381 369/622/381 374/623/381 375/615/381
f 371/613/382 373/624/382 370/611/382
f 371/625/383 374/626/383 369/622/383 373/627/383
f 375/615/384 374/623/384 371/616/384
f 377/628/385 373/618/385 369/629/385
f 369/622/386 378/621/386 377/628/386
f 378/621/387 375/615/387 372/612/387 376/630/387
f 378/621/388 376/630/388 377/628/388
f 372/612/389 370/611/389 376/630/389
o Cube
v -4.940916 0.413048 1.382739
v -4.981932 1.043861 1.887147
v -4.571536 0.919972 1.616907
v -4.610004 0.842976 2.054597
v -5.163642 0.833856 1.490256
v -4.528622 0.487750 1.545342
v -4.470428 0.503123 1.932314
v -5.129593 0.663059 2.111368
v -5.166378 0.331703 1.835455
v -4.867408 0.288702 2.036166
vn 0.3977 0.8970 0.1928
vn 0.9326 0.3325 0.1405
vn -0.9962 0.0530 0.0692
vn -0.8810 0.4416 0.1697
vn 0.3421 -0.9291 -0.1406
vn -0.0318 0.8894 -0.4560
vn 0.2269 0.2673 -0.9365
vn 0.9807 0.1226 -0.1523
vn -0.8250 -0.3171 -0.4678
vn -0.0171 -0.9826 -0.1851
vn 0.2283 -0.1381 0.9638
vn -0.5294 -0.5074 0.6799
vn -0.0920 0.5315 0.8420
vt 0.550384 0.206938
vt 0.375000 0.305791
vt 0.375000 0.049496
vt 0.180791 0.500000
vt 0.330928 0.574320
vt 0.125000 0.700504
vt 0.804283 0.500000
vt 0.842867 0.681766
vt 0.658516 0.626313
vt 0.875000 0.500000
vt 0.501754 0.540833
vt 0.565165 0.799791
vt 0.325310 0.750000
vt 0.604031 0.069198
vt 0.375000 1.000000
vt 0.375000 0.799690
vt 0.578028 1.000000
vt 0.615335 0.592735
vt 0.589707 0.775249
vt 0.581909 0.353207
s 0
g Cube_Material
usemtl Material
f 380/631/390 382/632/390 381/633/390
f 382/634/391 385/635/391 381/636/391
f 386/637/392 383/638/392 387/639/392
f 383/638/393 386/637/393 380/640/393
f 388/641/394 379/642/394 384/643/394 385/635/394
f 381/633/395 383/644/395 380/631/395
f 381/645/396 384/646/396 379/642/396 383/647/396
f 385/635/397 384/643/397 381/636/397
f 387/648/398 383/638/398 379/649/398
f 379/642/399 388/641/399 387/648/399
f 388/641/400 385/635/400 382/632/400 386/650/400
f 388/641/401 386/650/401 387/648/401
f 382/632/402 380/631/402 386/650/402
o Cube
v -1.171034 0.194235 4.787797
v -0.888369 -0.486107 4.423511
v -0.843278 -0.385636 4.926594
v -0.499812 -0.349507 4.632948
v -1.283737 -0.210741 4.524458
v -0.806508 0.049857 5.022110
v -0.461409 -0.013597 4.834288
v -0.733825 -0.109029 4.182406
v -0.925823 0.256907 4.332885
v -0.578974 0.240958 4.456451
vn 0.2447 -0.9548 0.1688
vn 0.6047 -0.4592 0.6508
vn -0.5357 0.0651 -0.8419
vn -0.4495 -0.3431 -0.8247
vn 0.2344 0.8885 0.3945
vn -0.5216 -0.8265 0.2118
vn -0.6548 -0.1953 0.7302
vn 0.4328 -0.2278 0.8722
vn -0.8047 0.4644 -0.3698
vn -0.0026 0.9908 0.1351
vn 0.9222 0.0081 -0.3866
vn 0.3115 0.4966 -0.8102
vn 0.5327 -0.6000 -0.5969
vt 0.550384 0.206938
vt 0.375000 0.305791
vt 0.375000 0.049496
vt 0.180791 0.500000
vt 0.330928 0.574320
vt 0.125000 0.700504
vt 0.804283 0.500000
vt 0.842867 0.681766
vt 0.658516 0.626313
vt 0.875000 0.500000
vt 0.501754 0.540833
vt 0.565165 0.799791
vt 0.325310 0.750000
vt 0.604031 0.069198
vt 0.375000 1.000000
vt 0.375000 0.799690
vt 0.578028 1.000000
vt 0.615335 0.592735
vt 0.589707 0.775249
vt 0.581909 0.353207
s 0
g Cube_Material
usemtl Material
f 390/651/403 392/652/403 391/653/403
f 392/654/404 395/655/404 391/656/404
f 396/657/405 393/658/405 397/659/405
f 393/658/406 396/657/406 390/660/406
f 398/661/407 389/662/407 394/663/407 395/655/407
f 391/653/408 393/664/408 390/651/408
f 391/665/409 394/666/409 389/662/409 393/667/409
f 395/655/410 394/663/410 391/656/410
f 397/668/411 393/658/411 389/669/411
f 389/662/412 398/661/412 397/668/412
f 398/661/413 395/655/413 392/652/413 396/670/413
f 398/661/414 396/670/414 397/668/414
f 392/652/415 390/651/415 396/670/415
o Cube
v 4.167188 -0.207199 -0.582894
v 4.569677 -0.569986 0.088847
v 4.036782 -0.481326 0.063895
v 4.334934 -0.215885 0.323232
v 4.462457 -0.602451 -0.415805
v 3.918210 -0.102048 -0.186652
v 4.109302 0.077182 0.138965
v 4.803682 -0.147188 -0.028263
v 4.635867 0.024258 -0.422884
v 4.498350 0.229332 -0.124871
vn -0.1378 -0.6086 0.7814
vn -0.6467 -0.0185 0.7625
vn 0.8511 -0.2408 -0.4665
vn 0.8475 -0.5099 -0.1473
vn -0.4335 0.8260 -0.3602
vn -0.1678 -0.9809 0.0988
vn -0.7066 -0.5890 -0.3921
vn -0.8728 0.0480 0.4858
vn 0.3705 -0.1129 -0.9219
vn -0.1728 0.7724 -0.6112
vn 0.3643 0.5908 0.7199
vn 0.7831 0.6186 -0.0643
vn 0.6067 -0.1181 0.7861
vt 0.550384 0.206938
vt 0.375000 0.305791
vt 0.375000 0.049496
vt 0.180791 0.500000
vt 0.330928 0.574320
vt 0.125000 0.700504
vt 0.804283 0.500000
vt 0.842867 0.681766
vt 0.658516 0.626313
vt 0.875000 0.500000
vt 0.501754 0.540833
vt 0.565165 0.799791
vt 0.325310 0.750000
vt 0.604031 0.069198
vt 0.375000 1.000000
vt 0.375000 0.799690
vt 0.578028 1.000000
vt 0.615335 0.592735
vt 0.589707 0.775249
vt 0.581909 0.353207
s 0
g Cube_Material
usemtl Material
f 400/671/416 402/672/416 401/673/416
f 402/674/417 405/675/417 401/676/417
f 406/677/418 403/678/418 407/679/418
f 403/678/419 406/677/419 400/680/419
f 408/681/420 399/682/420 404/683/420 405/675/420
f 401/673/421 403/684/421 400/671/421
f 401/685/422 404/686/422 399/682/422 403/687/422
f 405/675/423 404/683/423 401/676/423
f 407/688/424 403/678/424 399/689/424
f 399/682/425 408/681/425 407/688/425
f 408/681/426 405/675/426 402/672/426 406/690/426
f 408/681/427 406/690/427 407/688/427
f 402/672/428 400/671/428 406/690/428
o Cube
v 0.491510 -0.049389 -3.610703
v 0.375942 0.090735 -4.401979
v 0.818100 0.159120 -4.159874
v 0.549281 0.495664 -4.282341
v 0.364976 -0.238781 -4.044540
v 0.774173 0.278907 -3.736786
v 0.635449 0.599190 -3.917712
v 0.040903 0.309824 -4.160069
v 0.058476 0.195231 -3.741392
v 0.196667 0.529688 -3.781122
vn 0.4726 0.0575 -0.8794
vn 0.7922 0.5118 -0.3325
vn -0.8459 -0.5223 -0.1075
vn -0.6970 -0.5165 -0.4975
vn 0.1066 0.4060 0.9076
vn 0.4339 -0.6690 -0.6034
vn 0.7200 -0.6720 0.1731
vn 0.9206 0.3903 -0.0149
vn -0.5377 -0.7039 0.4641
vn -0.1835 0.1904 0.9644
vn -0.3218 0.9021 -0.2876
vn -0.9082 0.3925 0.1456
vn -0.3500 0.4001 -0.8470
vt 0.550384 0.206938
vt 0.375000 0.305791
vt 0.375000 0.049496
vt 0.180791 0.500000
vt 0.330928 0.574320
vt 0.125000 0.700504
vt 0.804283 0.500000
vt 0.842867 0.681766
vt 0.658516 0.626313
vt 0.875000 0.500000
vt 0.501754 0.540833
vt 0.565165 0.799791
vt 0.325310 0.750000
vt 0.604031 0.069198
vt 0.375000 1.000000
vt 0.375000 0.799690
vt 0.578028 1.000000
vt 0.615335 0.592735
vt 0.589707 0.775249
vt 0.581909 0.353207
s 0
g Cube_Material
usemtl Material
f 410/691/429 412/692/429 411/693/429
f 412/694/430 415/695/430 411/696/430
f 416/697/431 413/698/431 417/699/431
f 413/698/432 416/697/432 410/700/432
f 418/701/433 409/702/433 414/703/433 415/695/433
f 411/693/434 413/704/434 410/691/434
f 411/705/435 414/706/435 409/702/435 413/707/435
f 415/695/436 414/703/436 411/696/436
f 417/708/437 413/698/437 409/709/437
f 409/702/438 418/701/438 417/708/438
f 418/701/439 415/695/439 412/692/439 416/710/439
f 418/701/440 416/710/440 417/708/440
f 412/692/441 410/691/441 416/710/441
o Cube
v 3.064657 -0.025582 -2.585379
v 2.281401 0.137402 -3.175993
v 2.873559 0.134637 -3.369948
v 2.580678 0.593077 -3.299907
v 2.550754 -0.243619 -2.805798
v 3.227449 0.304814 -2.997404
v 2.989128 0.713561 -3.086958
v 2.243286 0.482534 -2.720294
v 2.616552 0.356855 -2.362473
v 2.736393 0.728925 -2.577069
vn -0.3110 -0.0537 -0.9489
vn 0.3478 0.3548 -0.8678
vn -0.7048 -0.3697 0.6054
vn -0.8860 -0.4023 0.2306
vn 0.7711 0.4096 0.4875
vn -0.2079 -0.7533 -0.6240
vn 0.5503 -0.7816 -0.2937
vn 0.6539 0.2229 -0.7230
vn -0.0977 -0.5842 0.8057
vn 0.5938 0.2499 0.7649
vn -0.3399 0.9348 -0.1025
vn -0.4743 0.5495 0.6878
vn -0.8142 0.4281 -0.3923
vt 0.550384 0.206938
vt 0.375000 0.305791
vt 0.375000 0.049496
vt 0.180791 0.500000
vt 0.330928 0.574320
vt 0.125000 0.700504
vt 0.804283 0.500000
vt 0.842867 0.681766
vt 0.658516 0.626313
vt 0.875000 0.500000
vt 0.501754 0.540833
vt 0.565165 0.799791
vt 0.325310 0.750000
vt 0.604031 0.069198
vt 0.375000 1.000000
vt 0.375000 0.799690
vt 0.578028 1.000000
vt 0.615335 0.592735
vt 0.589707 0.775249
vt 0.581909 0.353207
s 0
g Cube_Material
usemtl Material
f 420/711/442 422/712/442 421/713/442
f 422/714/443 425/715/443 421/716/443
f 426/717/444 423/718/444 427/719/444
f 423/718/445 426/717/445 420/720/445
f 428/721/446 419/722/446 424/723/446 425/715/446
f 421/713/447 423/724/447 420/711/447
f 421/725/448 424/726/448 419/722/448 423/727/448
f 425/715/449 424/723/449 421/716/449
f 427/728/450 423/718/450 419/729/450
f 419/722/451 428/721/451 427/728/451
f 428/721/452 425/715/452 422/712/452 426/730/452
f 428/721/453 426/730/453 427/728/453
f 422/712/454 420/711/454 426/730/454
o Cube
v -3.748119 -0.015809 0.128786
v -3.688897 0.208989 -0.741483
v -3.329421 0.382608 -0.342449
v -3.681251 0.673145 -0.539079
v -3.691144 -0.193280 -0.381931
v -3.533902 0.435740 0.100011
v -3.731124 0.757298 -0.119028
v -4.172096 0.303425 -0.577394
v -4.234349 0.128359 -0.132626
v -4.193917 0.529849 -0.114341
vn 0.6412 0.2978 -0.7072
vn 0.6587 0.7490 -0.0719
vn -0.5927 -0.7177 -0.3655
vn -0.3581 -0.6211 -0.6971
vn -0.2557 0.3002 0.9190
vn 0.7539 -0.4401 -0.4877
vn 0.8198 -0.4631 0.3369
vn 0.7322 0.6282 0.2630
vn -0.4006 -0.8784 0.2606
vn -0.4718 0.0074 0.8817
vn -0.4939 0.8069 -0.3239
vn -0.9898 0.1041 -0.0976
vn -0.2260 0.3925 -0.8915
vt 0.550384 0.206938
vt 0.375000 0.305791
vt 0.375000 0.049496
vt 0.180791 0.500000
vt 0.330928 0.574320
vt 0.125000 0.700504
vt 0.804283 0.500000
vt 0.842867 0.681766
vt 0.658516 0.626313
vt 0.875000 0.500000
vt 0.501754 0.540833
vt 0.565165 0.799791
vt 0.325310 0.750000
vt 0.604031 0.069198
vt 0.375000 1.000000
vt 0.375000 0.799690
vt 0.578028 1.000000
vt 0.615335 0.592735
vt 0.589707 0.775249
vt 0.581909 0.353207
s 0
g Cube_Material
usemtl Material
f 430/731/455 432/732/455 431/733/455
f 432/734/456 435/735/456 431/736/456
f 436/737/457 433/738/457 437/739/457
f 433/738/458 436/737/458 430/740/458
f 438/741/459 429/742/459 434/743/459 435/735/459
f 431/733/460 433/744/460 430/731/460
f 431/745/461 434/746/461 429/742/461 433/747/461
f 435/735/462 434/743/462 431/736/462
f 437/748/463 433/738/463 429/749/463
f 429/742/464 438/741/464 437/748/464
f 438/741/465 435/735/465 432/732/465 436/750/465
f 438/741/466 436/750/466 437/748/466
f 432/732/467 430/731/467 436/750/467
o Cube
v 1.623812 0.275471 -2.578752
v 2.630664 0.699125 -2.474201
v 2.144906 0.951146 -2.890535
v 2.618448 0.629459 -3.087067
v 2.068349 0.547052 -2.169760
v 1.774081 0.536897 -3.108842
v 2.226435 0.402121 -3.352945
v 2.681734 0.078318 -2.582267
v 2.152542 -0.175428 -2.562947
v 2.296504 -0.133114 -3.031589
vn 0.5282 0.8425 -0.1063
vn 0.1308 0.6500 -0.7486
vn 0.2433 -0.4416 0.8636
vn 0.4959 -0.1092 0.8615
vn -0.6157 -0.5456 -0.5685
vn 0.0306 0.8705 0.4913
vn -0.7212 0.6572 0.2189
vn -0.2298 0.6068 -0.7609
vn -0.4244 -0.4705 0.7737
vn -0.6225 -0.7389 -0.2579
vn 0.7336 -0.3520 -0.5813
vn 0.4333 -0.8997 0.0519
vn 0.9958 0.0871 -0.0297
vt 0.550384 0.206938
vt 0.375000 0.305791
vt 0.375000 0.049496
vt 0.180791 0.500000
vt 0.330928 0.574320
vt 0.125000 0.700504
vt 0.804283 0.500000
vt 0.842867 0.681766
vt 0.658516 0.626313
vt 0.875000 0.500000
vt 0.501754 0.540833
vt 0.565165 0.799791
vt 0.325310 0.750000
vt 0.604031 0.069198
vt 0.375000 1.000000
vt 0.375000 0.799690
vt 0.578028 1.000000
vt 0.615335 0.592735
vt 0.589707 0.775249
vt 0.581909 0.353207
s 0
g Cube_Material
usemtl Material
f 440/751/468 442/752/468 441/753/468
f 442/754/469 445/755/469 441/756/469
f 446/757/470 443/758/470 447/759/470
f 443/758/471 446/757/471 440/760/471
f 448/761/472 439/762/472 444/763/472 445/755/472
f 441/753/473 443/764/473 440/751/473
f 441/765/474 444/766/474 439/762/474 443/767/474
f 445/755/475 444/763/475 441/756/475
f 447/768/476 443/758/476 439/769/476
f 439/762/477 448/761/477 447/768/477
f 448/761/478 445/755/478 442/752/478 446/770/478
f 448/761/479 446/770/479 447/768/479
f 442/752/480 440/751/480 446/770/480
o Cube
v -3.097905 -0.154698 -0.448121
v -3.467278 0.232638 -0.037624
v -3.628451 -0.027265 -0.329371
v -3.613360 0.342253 -0.369965
v -3.194958 -0.064716 -0.063130
v -3.416183 -0.067965 -0.626165
v -3.505522 0.244570 -0.658287
v -3.196471 0.453555 -0.207550
v -2.964450 0.247210 -0.391579
v -3.152814 0.383621 -0.584970
vn -0.9019 0.0834 0.4239
vn -0.9367 -0.0002 -0.3503
vn 0.7087 0.1913 0.6791
vn 0.3588 0.2515 0.8989
vn 0.3565 -0.1235 -0.9261
vn -0.4832 -0.5040 0.7159
vn -0.2136 -0.9728 0.0895
vn -0.7981 -0.2828 -0.5320
vn 0.8906 -0.3385 0.3036
vn 0.6682 -0.1186 -0.7345
vn -0.2167 0.9339 -0.2844
vn 0.6313 0.7724 -0.0701
vn -0.3872 0.8114 0.4378
vt 0.550384 0.206938
vt 0.375000 0.305791
vt 0.375000 0.049496
vt 0.180791 0.500000
vt 0.330928 0.574320
vt 0.125000 0.700504
vt 0.804283 0.500000
vt 0.842867 0.681766
vt 0.658516 0.626313
vt 0.875000 0.500000
vt 0.501754 0.540833
vt 0.565165 0.799791
vt 0.325310 0.750000
vt 0.604031 0.069198
vt 0.375000 1.000000
vt 0.375000 0.799690
vt 0.578028 1.000000
vt 0.615335 0.592735
vt 0.589707 0.775249
vt 0.581909 0.353207
s 0
g Cube_Material
usemtl Material
f 450/771/481 452/772/481 451/773/481
f 452/774/482 455/775/482 451/776/482
f 456/777/483 453/778/483 457/779/483
f 453/778/484 456/777/484 450/780/484
f 458/781/485 449/782/485 454/783/485 455/775/485
f 451/773/486 453/784/486 450/771/486
f 451/785/487 454/786/487 449/782/487 453/787/487
f 455/775/488 454/783/488 451/776/488
f 457/788/489 453/778/489 449/789/489
f 449/782/490 458/781/490 457/788/490
f 458/781/491 455/775/491 452/772/491 456/790/491
f 458/781/492 456/790/492 457/788/492
f 452/772/493 450/771/493 456/790/493
o Cube
v -1.134840 0.159881 -1.611440
v -1.399151 0.179608 -2.575621
v -0.814900 0.268080 -2.367230
v -1.139097 0.677111 -2.545538
v -1.375594 -0.145364 -2.073064
v -0.788523 0.503705 -1.877295
v -0.965279 0.868277 -2.142470
v -1.750868 0.527275 -2.280139
v -1.666964 0.472168 -1.754558
v -1.481609 0.855332 -1.895603
vn 0.3502 -0.1270 -0.9280
vn 0.7673 0.3844 -0.5132
vn -0.8814 -0.4634 0.0921
vn -0.7871 -0.5341 -0.3085
vn 0.2531 0.5407 0.8022
vn 0.3079 -0.7923 -0.5268
vn 0.6970 -0.6897 0.1963
vn 0.9308 0.3073 -0.1979
vn -0.5087 -0.5719 0.6435
vn -0.0384 0.3615 0.9316
vn -0.3056 0.8649 -0.3982
vn -0.8555 0.4828 0.1872
vn -0.4391 0.2811 -0.8534
vt 0.550384 0.206938
vt 0.375000 0.305791
vt 0.375000 0.049496
vt 0.180791 0.500000
vt 0.330928 0.574320
vt 0.125000 0.700504
vt 0.804283 0.500000
vt 0.842867 0.681766
vt 0.658516 0.626313
vt 0.875000 0.500000
vt 0.501754 0.540833
vt 0.565165 0.799791
vt 0.325310 0.750000
vt 0.604031 0.069198
vt 0.375000 1.000000
vt 0.375000 0.799690
vt 0.578028 1.000000
vt 0.615335 0.592735
vt 0.589707 0.775249
vt 0.581909 0.353207
s 0
g Cube_Material
usemtl Material
f 460/791/494 462/792/494 461/793/494
f 462/794/495 465/795/495 461/796/495
f 466/797/496 463/798/496 467/799/496
f 463/798/497 466/797/497 460/800/497
f 468/801/498 459/802/498 464/803/498 465/795/498
f 461/793/499 463/804/499 460/791/499
f 461/805/500 464/806/500 459/802/500 463/807/500
f 465/795/501 464/803/501 461/796/501
f 467/808/502 463/798/502 459/809/502
f 459/802/503 468/801/503 467/808/503
f 468/801/504 465/795/504 462/792/504 466/810/504
f 468/801/505 466/810/505 467/808/505
f 462/792/506 460/791/506 466/810/506
o Cube
v -1.610034 0.168426 -2.205343
v -2.134598 0.779253 -2.542773
v -1.827069 0.849034 -2.095778
v -2.303311 0.779255 -2.081874
v -1.722895 0.467356 -2.624304
v -1.762282 0.452233 -1.842482
v -2.175957 0.516062 -1.783167
v -2.396368 0.353148 -2.489111
v -2.111917 0.002900 -2.368093
v -2.314818 0.119927 -2.054420
vn -0.1463 0.9878 -0.0536
vn -0.0870 0.7288 0.6792
vn -0.1133 -0.4055 -0.9071
vn -0.1963 -0.0029 -0.9805
vn 0.1273 -0.6751 0.7266
vn 0.4815 0.7529 -0.4488
vn 0.9538 0.2955 0.0538
vn 0.2011 0.5502 0.8105
vn 0.4193 -0.6818 -0.5994
vn 0.1535 -0.8892 0.4310
vn -0.9560 0.0288 0.2918
vn -0.7190 -0.6596 -0.2190
vn -0.8285 0.4708 -0.3033
vt 0.550384 0.206938
vt 0.375000 0.305791
vt 0.375000 0.049496
vt 0.180791 0.500000
vt 0.330928 0.574320
vt 0.125000 0.700504
vt 0.804283 0.500000
vt 0.842867 0.681766
vt 0.658516 0.626313
vt 0.875000 0.500000
vt 0.501754 0.540833
vt 0.565165 0.799791
vt 0.325310 0.750000
vt 0.604031 0.069198
vt 0.375000 1.000000
vt 0.375000 0.799690
vt 0.578028 1.000000
vt 0.615335 0.592735
vt 0.589707 0.775249
vt 0.581909 0.353207
s 0
g Cube_Material
usemtl Material
f 470/811/507 472/812/507 471/813/507
f 472/814/508 475/815/508 471/816/508
f 476/817/509 473/818/509 477/819/509
f 473/818/510 476/817/510 470/820/510
f 478/821/511 469/822/511 474/823/511 475/815/511
f 471/813/512 473/824/512 470/811/512
f 471/825/513 474/826/513 469/822/513 473/827/513
f 475/815/514 474/823/514 471/816/514
f 477/828/515 473/818/515 469/829/515
f 469/822/516 478/821/516 477/828/516
f 478/821/517 475/815/517 472/812/517 476/830/517
f 478/821/518 476/830/518 477/828/518
f 472/812/519 470/811/519 476/830/519
o Cube
v 2.490431 0.408785 -0.165484
v 2.757485 1.019078 0.683341
v 3.119229 0.978607 0.113559
v 3.276163 0.710659 0.621289
v 2.315372 0.897371 0.227903
v 3.088115 0.455559 -0.151786
v 3.350423 0.328343 0.281841
v 2.640681 0.441534 0.881451
v 2.422920 0.123202 0.451767
v 2.885588 0.001176 0.523655
vn 0.5158 0.8132 0.2697
vn 0.9442 0.3013 -0.1328
vn -0.8936 0.0056 0.4487
vn -0.7169 0.3515 0.6020
vn 0.1863 -0.8402 -0.5093
vn -0.1200 0.9820 -0.1459
vn -0.1089 0.5315 -0.8400
vn 0.8639 0.1860 -0.4680
vn -0.9627 -0.1895 -0.1930
vn -0.1675 -0.8876 -0.4290
vn 0.5518 -0.4042 0.7295
vn -0.2858 -0.6950 0.6597
vn 0.2677 0.2637 0.9267
vt 0.550384 0.206938
vt 0.375000 0.305791
vt 0.375000 0.049496
vt 0.180791 0.500000
vt 0.330928 0.574320
vt 0.125000 0.700504
vt 0.804283 0.500000
vt 0.842867 0.681766
vt 0.658516 0.626313
vt 0.875000 0.500000
vt 0.501754 0.540833
vt 0.565165 0.799791
vt 0.325310 0.750000
vt 0.604031 0.069198
vt 0.375000 1.000000
vt 0.375000 0.799690
vt 0.578028 1.000000
vt 0.615335 0.592735
vt 0.589707 0.775249
vt 0.581909 0.353207
s 0
g Cube_Material
usemtl Material
f 480/831/520 482/832/520 481/833/520
f 482/834/521 485/835/521 481/836/521
f 486/837/522 483/838/522 487/839/522
f 483/838/523 486/837/523 480/840/523
f 488/841/524 479/842/524 484/843/524 485/835/524
f 481/833/525 483/844/525 480/831/525
f 481/845/526 484/846/526 479/842/526 483/847/526
f 485/835/527 484/843/527 481/836/527
f 487/848/528 483/838/528 479/849/528
f 479/842/529 488/841/529 487/848/529
f 488/841/530 485/835/530 482/832/530 486/850/530
f 488/841/531 486/850/531 487/848/531
f 482/832/532 480/831/532 486/850/532
o Cube
v -0.263483 0.244805 1.712649
v 0.749804 0.641595 2.217815
v 0.721698 0.125377 1.672016
v 0.840151 -0.020931 2.306425
v 0.160317 0.816600 1.845960
v 0.185667 -0.247321 1.687207
v 0.452253 -0.422931 2.172621
v 0.311709 0.452330 2.717829
v -0.264722 0.318251 2.469017
v -0.012253 -0.140521 2.592414
vn 0.9811 0.1128 -0.1572
vn 0.7357 -0.6168 -0.2796
vn -0.3714 0.8320 0.4121
vn 0.0346 0.9243 0.3802
vn -0.6615 -0.7479 -0.0564
vn 0.5480 0.5934 -0.5895
vn -0.0230 0.1470 -0.9889
vn 0.4780 -0.7087 -0.5189
vn -0.7952 0.6034 -0.0599
vn -0.8802 -0.4725 0.0444
vn 0.3399 -0.4573 0.8218
vn -0.4012 0.0255 0.9156
vn 0.7025 0.1876 0.6865
vt 0.550384 0.206938
vt 0.375000 0.305791
vt 0.375000 0.049496
vt 0.180791 0.500000
vt 0.330928 0.574320
vt 0.125000 0.700504
vt 0.804283 0.500000
vt 0.842867 0.681766
vt 0.658516 0.626313
vt 0.875000 0.500000
vt 0.501754 0.540833
vt 0.565165 0.799791
vt 0.325310 0.750000
vt 0.604031 0.069198
vt 0.375000 1.000000
vt 0.375000 0.799690
vt 0.578028 1.000000
vt 0.615335 0.592735
vt 0.589707 0.775249
vt 0.581909 0.353207
s 0
g Cube_Material
usemtl Material
f 490/851/533 492/852/533 491/853/533
f 492/854/534 495/855/534 491/856/534
f 496/857/535 493/858/535 497/859/535
f 493/858/536 496/857/536 490/860/536
f 498/861/537 489/862/537 494/863/537 495/855/537
f 491/853/538 493/864/538 490/851/538
f 491/865/539 494/866/539 489/862/539 493/867/539
f 495/855/540 494/863/540 491/856/540
f 497/868/541 493/858/541 489/869/541
f 489/862/542 498/861/542 497/868/542
f 498/861/543 495/855/543 492/852/543 496/870/543
f 498/861/544 496/870/544 497/868/544
f 492/852/545 490/851/545 496/870/545
o Cube
v -2.103173 0.296389 -0.636673
v -1.350066 0.349693 -0.936244
v -1.764094 0.251908 -1.215650
v -1.463858 -0.060467 -1.101629
v -1.707467 0.579026 -0.698828
v -2.077993 0.028308 -0.998986
v -1.796538 -0.245487 -1.022026
v -1.346445 0.056290 -0.571706
v -1.730499 0.064410 -0.368352
v -1.704780 -0.240326 -0.566194
vn 0.5172 0.1927 -0.8339
vn -0.0220 -0.3614 -0.9321
vn 0.4191 0.4773 0.7724
vn 0.6753 0.5778 0.4584
vn -0.7464 -0.6106 0.2647
vn 0.1699 0.8242 -0.5403
vn -0.6306 0.6529 -0.4195
vn -0.3772 -0.3145 -0.8711
vn -0.2521 0.5309 0.8091
vn -0.6885 -0.4349 0.5803
vn 0.5701 -0.8214 -0.0194
vn 0.4042 -0.4738 0.7824
vn 0.9651 -0.1992 -0.1699
vt 0.550384 0.206938
vt 0.375000 0.305791
vt 0.375000 0.049496
vt 0.180791 0.500000
vt 0.330928 0.574320
vt 0.125000 0.700504
vt 0.804283 0.500000
vt 0.842867 0.681766
vt 0.658516 0.626313
vt 0.875000 0.500000
vt 0.501754 0.540833
vt 0.565165 0.799791
vt 0.325310 0.750000
vt 0.604031 0.069198
vt 0.375000 1.000000
vt 0.375000 0.799690
vt 0.578028 1.000000
vt 0.615335 0.592735
vt 0.589707 0.775249
vt 0.581909 0.353207
s 0
g Cube_Material
usemtl Material
f 500/871/546 502/872/546 501/873/546
f 502/874/547 505/875/547 501/876/547
f 506/877/548 503/878/548 507/879/548
f 503/878/549 506/877/549 500/880/549
f 508/881/550 499/882/550 504/883/550 505/875/550
f 501/873/551 503/884/551 500/871/551
f 501/885/552 504/886/552 499/882/552 503/887/552
f 505/875/553 504/883/553 501/876/553
f 507/888/554 503/878/554 499/889/554
f 499/882/555 508/881/555 507/888/555
f 508/881/556 505/875/556 502/872/556 506/890/556
f 508/881/557 506/890/557 507/888/557
f 502/872/558 500/871/558 506/890/558
o Cube
v -1.271865 0.574950 1.870582
v -0.506205 0.480062 1.344036
v -0.727551 0.058287 1.684168
v -0.307158 0.329970 1.806232
v -1.055226 0.587550 1.350263
v -0.959611 0.231014 2.102279
v -0.530387 0.340660 2.193618
v -0.458558 0.927362 1.639418
v -0.888121 1.025243 1.875482
v -0.612365 0.867133 2.148254
vn 0.5717 -0.6755 -0.4656
vn 0.4594 -0.8403 0.2879
vn -0.1533 0.7826 -0.6034
vn 0.0965 0.5413 -0.8353
vn -0.3611 0.1304 0.9234
vn -0.1232 -0.5830 -0.8031
vn -0.7102 -0.6668 -0.2258
vn 0.1330 -0.8878 0.4406
vn -0.7274 0.6230 -0.2878
vn -0.5041 0.4214 0.7539
vn 0.8857 0.2569 0.3868
vn 0.3242 0.9230 0.2073
vn 0.9252 0.1355 -0.3544
vt 0.550384 0.206938
vt 0.375000 0.305791
vt 0.375000 0.049496
vt 0.180791 0.500000
vt 0.330928 0.574320
vt 0.125000 0.700504
vt 0.804283 0.500000
vt 0.842867 0.681766
vt 0.658516 0.626313
vt 0.875000 0.500000
vt 0.501754 0.540833
vt 0.565165 0.799791
vt 0.325310 0.750000
vt 0.604031 0.069198
vt 0.375000 1.000000
vt 0.375000 0.799690
vt 0.578028 1.000000
vt 0.615335 0.592735
vt 0.589707 0.775249
vt 0.581909 0.353207
s 0
g Cube_Material
usemtl Material
f 510/891/559 512/892/559 511/893/559
f 512/894/560 515/895/560 511/896/560
f 516/897/561 513/898/561 517/899/561
f 513/898/562 516/897/562 510/900/562
f 518/901/563 509/902/563 514/903/563 515/895/563
f 511/893/564 513/904/564 510/891/564
f 511/905/565 514/906/565 509/902/565 513/907/565
f 515/895/566 514/903/566 511/896/566
f 517/908/567 513/898/567 509/909/567
f 509/902/568 518/901/568 517/908/568
f 518/901/569 515/895/569 512/892/569 516/910/569
f 518/901/570 516/910/570 517/908/570
f 512/892/571 510/891/571 516/910/571
o Cube
v -1.030965 -0.114718 0.165263
v -1.594842 -0.748602 0.562532
v -1.611635 -0.599774 -0.005049
v -1.960230 -0.440377 0.341459
v -1.065278 -0.604346 0.445919
v -1.481419 -0.115187 -0.095783
v -1.872568 -0.056643 0.126407
v -1.608211 -0.296193 0.856535
v -1.261441 0.026950 0.693376
v -1.640764 0.151660 0.562871
vn -0.5611 -0.8046 -0.1944
vn -0.7349 -0.1959 -0.6492
vn 0.5371 -0.1579 0.8286
vn 0.3152 -0.5106 0.8000
vn 0.0807 0.9304 -0.3574
vn 0.2017 -0.9459 -0.2540
vn 0.5370 -0.3782 -0.7540
vn -0.4970 -0.0288 -0.8673
vn 0.9206 0.1437 0.3632
vn 0.3420 0.9342 -0.1013
vn -0.8574 0.3087 0.4117
vn -0.1099 0.5394 0.8348
vn -0.6984 -0.4044 0.5905
vt 0.550384 0.206938
vt 0.375000 0.305791
vt 0.375000 0.049496
vt 0.180791 0.500000
vt 0.330928 0.574320
vt 0.125000 0.700504
vt 0.804283 0.500000
vt 0.842867 0.681766
vt 0.658516 0.626313
vt 0.875000 0.500000
vt 0.501754 0.540833
vt 0.565165 0.799791
vt 0.325310 0.750000
vt 0.604031 0.069198
vt 0.375000 1.000000
vt 0.375000 0.799690
vt 0.578028 1.000000
vt 0.615335 0.592735
vt 0.589707 0.775249
vt 0.581909 0.353207
s 0
g Cube_Material
usemtl Material
f 520/911/572 522/912/572 521/913/572
f 522/914/573 525/915/573 521/916/573
f 526/917/574 523/918/574 527/919/574
f 523/918/575 526/917/575 520/920/575
f 528/921/576 519/922/576 524/923/576 525/915/576
f 521/913/577 523/924/577 520/911/577
f 521/925/578 524/926/578 519/922/578 523/927/578
f 525/915/579 524/923/579 521/916/579
f 527/928/580 523/918/580 519/929/580
f 519/922/581 528/921/581 527/928/581
f 528/921/582 525/915/582 522/912/582 526/930/582
f 528/921/583 526/930/583 527/928/583
f 522/912/584 520/911/584 526/930/584
