# Blender 4.1.0
# www.blender.org
mtllib Explosion20036.mtl
o Circle
v -0.024615 0.096888 -1.522372
v -0.024615 0.242742 -1.522372
v 0.122545 0.096888 -1.515142
v 0.122545 0.242742 -1.515142
v 0.268288 0.096888 -1.493523
v 0.268288 0.242742 -1.493523
v 0.411211 0.096888 -1.457723
v 0.411211 0.242742 -1.457723
v 0.549936 0.096888 -1.408086
v 0.549936 0.242742 -1.408086
v 0.683127 0.096888 -1.345092
v 0.683127 0.242742 -1.345092
v 0.809503 0.096888 -1.269345
v 0.809503 0.242742 -1.269345
v 0.927846 0.096888 -1.181576
v 0.927846 0.242742 -1.181576
v 1.037016 0.096888 -1.082630
v 1.037016 0.242742 -1.082630
v 1.135962 0.096888 -0.973460
v 1.135962 0.242742 -0.973460
v 1.223731 0.096888 -0.855117
v 1.223731 0.242742 -0.855117
v 1.299478 0.096888 -0.728741
v 1.299478 0.242742 -0.728741
v 1.362473 0.096888 -0.595549
v 1.362473 0.242742 -0.595549
v 1.412110 0.096888 -0.456824
v 1.412110 0.242742 -0.456824
v 1.447910 0.096888 -0.313902
v 1.447910 0.242742 -0.313902
v 1.469529 0.096888 -0.168159
v 1.469529 0.242742 -0.168159
v 1.476758 0.096888 -0.020998
v 1.476758 0.242742 -0.020998
v 1.469529 0.096888 0.126162
v 1.469529 0.242742 0.126162
v 1.447910 0.096888 0.271905
v 1.447910 0.242742 0.271905
v 1.412110 0.096888 0.414827
v 1.412110 0.242742 0.414827
v 1.362473 0.096888 0.553553
v 1.362473 0.242742 0.553553
v 1.299478 0.096888 0.686744
v 1.299478 0.242742 0.686744
v 1.223731 0.096888 0.813120
v 1.223731 0.242742 0.813120
v 1.135962 0.096888 0.931463
v 1.135962 0.242742 0.931463
v 1.037016 0.096888 1.040633
v 1.037016 0.242742 1.040633
v 0.927846 0.096888 1.139579
v 0.927846 0.242742 1.139579
v 0.809503 0.096888 1.227348
v 0.809503 0.242742 1.227348
v 0.683127 0.096888 1.303095
v 0.683127 0.242742 1.303095
v 0.549936 0.096888 1.366090
v 0.549936 0.242742 1.366090
v 0.411211 0.096888 1.415727
v 0.411211 0.242742 1.415727
v 0.268288 0.096888 1.451527
v 0.268288 0.242742 1.451527
v 0.122545 0.096888 1.473146
v 0.122545 0.242742 1.473146
v -0.024615 0.096888 1.480376
v -0.024615 0.242742 1.480376
v -0.171775 0.096888 1.473146
v -0.171775 0.242742 1.473146
v -0.317519 0.096888 1.451527
v -0.317519 0.242742 1.451527
v -0.460441 0.096888 1.415727
v -0.460441 0.242742 1.415727
v -0.599166 0.096888 1.366090
v -0.599166 0.242742 1.366090
v -0.732358 0.096888 1.303095
v -0.732358 0.242742 1.303095
v -0.858734 0.096888 1.227348
v -0.858734 0.242742 1.227348
v -0.977076 0.096888 1.139579
v -0.977076 0.242742 1.139579
v -1.086246 0.096888 1.040633
v -1.086246 0.242742 1.040633
v -1.185192 0.096888 0.931463
v -1.185192 0.242742 0.931463
v -1.272961 0.096888 0.813120
v -1.272961 0.242742 0.813120
v -1.348708 0.096888 0.686744
v -1.348708 0.242742 0.686744
v -1.411703 0.096888 0.553553
v -1.411703 0.242742 0.553553
v -1.461340 0.096888 0.414827
v -1.461340 0.242742 0.414827
v -1.497140 0.096888 0.271905
v -1.497140 0.242742 0.271905
v -1.518759 0.096888 0.126162
v -1.518759 0.242742 0.126162
v -1.525989 0.096888 -0.020998
v -1.525989 0.242742 -0.020998
v -1.518759 0.096888 -0.168159
v -1.518759 0.242742 -0.168159
v -1.497140 0.096888 -0.313902
v -1.497140 0.242742 -0.313902
v -1.461340 0.096888 -0.456824
v -1.461340 0.242742 -0.456824
v -1.411703 0.096888 -0.595549
v -1.411703 0.242742 -0.595549
v -1.348708 0.096888 -0.728741
v -1.348708 0.242742 -0.728741
v -1.272961 0.096888 -0.855117
v -1.272961 0.242742 -0.855117
v -1.185192 0.096888 -0.973460
v -1.185192 0.242742 -0.973460
v -1.086246 0.096888 -1.082630
v -1.086246 0.242742 -1.082630
v -0.977076 0.096888 -1.181576
v -0.977076 0.242742 -1.181576
v -0.858734 0.096888 -1.269345
v -0.858734 0.242742 -1.269345
v -0.732358 0.096888 -1.345092
v -0.732358 0.242742 -1.345092
v -0.599166 0.096888 -1.408086
v -0.599166 0.242742 -1.408086
v -0.460441 0.096888 -1.457723
v -0.460441 0.242742 -1.457723
v -0.317519 0.096888 -1.493523
v -0.317519 0.242742 -1.493523
v -0.171775 0.096888 -1.515142
v -0.171775 0.242742 -1.515142
vn 0.0491 -0.0000 -0.9988
vn 0.1467 -0.0000 -0.9892
vn 0.2430 -0.0000 -0.9700
vn 0.3369 -0.0000 -0.9415
vn 0.4276 -0.0000 -0.9040
vn 0.5141 -0.0000 -0.8577
vn 0.5957 -0.0000 -0.8032
vn 0.6716 -0.0000 -0.7410
vn 0.7410 -0.0000 -0.6716
vn 0.8032 -0.0000 -0.5957
vn 0.8577 -0.0000 -0.5141
vn 0.9040 -0.0000 -0.4276
vn 0.9415 -0.0000 -0.3369
vn 0.9700 -0.0000 -0.2430
vn 0.9892 -0.0000 -0.1467
vn 0.9988 -0.0000 -0.0491
vn 0.9988 -0.0000 0.0491
vn 0.9892 -0.0000 0.1467
vn 0.9700 -0.0000 0.2430
vn 0.9415 -0.0000 0.3369
vn 0.9040 -0.0000 0.4276
vn 0.8577 -0.0000 0.5141
vn 0.8032 -0.0000 0.5957
vn 0.7410 -0.0000 0.6716
vn 0.6716 -0.0000 0.7410
vn 0.5957 -0.0000 0.8032
vn 0.5141 -0.0000 0.8577
vn 0.4276 -0.0000 0.9040
vn 0.3369 -0.0000 0.9415
vn 0.2430 -0.0000 0.9700
vn 0.1467 -0.0000 0.9892
vn 0.0491 -0.0000 0.9988
vn -0.0491 -0.0000 0.9988
vn -0.1467 -0.0000 0.9892
vn -0.2430 -0.0000 0.9700
vn -0.3369 -0.0000 0.9415
vn -0.4276 -0.0000 0.9040
vn -0.5141 -0.0000 0.8577
vn -0.5957 -0.0000 0.8032
vn -0.6716 -0.0000 0.7410
vn -0.7410 -0.0000 0.6716
vn -0.8032 -0.0000 0.5957
vn -0.8577 -0.0000 0.5141
vn -0.9040 -0.0000 0.4276
vn -0.9415 -0.0000 0.3369
vn -0.9700 -0.0000 0.2430
vn -0.9892 -0.0000 0.1467
vn -0.9988 -0.0000 0.0491
vn -0.9988 -0.0000 -0.0491
vn -0.9892 -0.0000 -0.1467
vn -0.9700 -0.0000 -0.2430
vn -0.9415 -0.0000 -0.3369
vn -0.9040 -0.0000 -0.4276
vn -0.8577 -0.0000 -0.5141
vn -0.8032 -0.0000 -0.5957
vn -0.7410 -0.0000 -0.6716
vn -0.6716 -0.0000 -0.7410
vn -0.5957 -0.0000 -0.8032
vn -0.5141 -0.0000 -0.8577
vn -0.4276 -0.0000 -0.9040
vn -0.3369 -0.0000 -0.9415
vn -0.2430 -0.0000 -0.9700
vn -0.1467 -0.0000 -0.9892
vn -0.0491 -0.0000 -0.9988
vt 1.000000 0.500000
vt 1.000000 1.000000
vt 0.984375 1.000000
vt 0.984375 0.500000
vt 0.968750 1.000000
vt 0.968750 0.500000
vt 0.953125 1.000000
vt 0.953125 0.500000
vt 0.937500 1.000000
vt 0.937500 0.500000
vt 0.921875 1.000000
vt 0.921875 0.500000
vt 0.906250 1.000000
vt 0.906250 0.500000
vt 0.890625 1.000000
vt 0.890625 0.500000
vt 0.875000 1.000000
vt 0.875000 0.500000
vt 0.859375 1.000000
vt 0.859375 0.500000
vt 0.843750 1.000000
vt 0.843750 0.500000
vt 0.828125 1.000000
vt 0.828125 0.500000
vt 0.812500 1.000000
vt 0.812500 0.500000
vt 0.796875 1.000000
vt 0.796875 0.500000
vt 0.781250 1.000000
vt 0.781250 0.500000
vt 0.765625 1.000000
vt 0.765625 0.500000
vt 0.750000 1.000000
vt 0.750000 0.500000
vt 0.734375 1.000000
vt 0.734375 0.500000
vt 0.718750 1.000000
vt 0.718750 0.500000
vt 0.703125 1.000000
vt 0.703125 0.500000
vt 0.687500 1.000000
vt 0.687500 0.500000
vt 0.671875 1.000000
vt 0.671875 0.500000
vt 0.656250 1.000000
vt 0.656250 0.500000
vt 0.640625 1.000000
vt 0.640625 0.500000
vt 0.625000 1.000000
vt 0.625000 0.500000
vt 0.609375 1.000000
vt 0.609375 0.500000
vt 0.593750 1.000000
vt 0.593750 0.500000
vt 0.578125 1.000000
vt 0.578125 0.500000
vt 0.562500 1.000000
vt 0.562500 0.500000
vt 0.546875 1.000000
vt 0.546875 0.500000
vt 0.531250 1.000000
vt 0.531250 0.500000
vt 0.515625 1.000000
vt 0.515625 0.500000
vt 0.500000 1.000000
vt 0.500000 0.500000
vt 0.484375 1.000000
vt 0.484375 0.500000
vt 0.468750 1.000000
vt 0.468750 0.500000
vt 0.453125 1.000000
vt 0.453125 0.500000
vt 0.437500 1.000000
vt 0.437500 0.500000
vt 0.421875 1.000000
vt 0.421875 0.500000
vt 0.406250 1.000000
vt 0.406250 0.500000
vt 0.390625 1.000000
vt 0.390625 0.500000
vt 0.375000 1.000000
vt 0.375000 0.500000
vt 0.359375 1.000000
vt 0.359375 0.500000
vt 0.343750 1.000000
vt 0.343750 0.500000
vt 0.328125 1.000000
vt 0.328125 0.500000
vt 0.312500 1.000000
vt 0.312500 0.500000
vt 0.296875 1.000000
vt 0.296875 0.500000
vt 0.281250 1.000000
vt 0.281250 0.500000
vt 0.265625 1.000000
vt 0.265625 0.500000
vt 0.250000 1.000000
vt 0.250000 0.500000
vt 0.234375 1.000000
vt 0.234375 0.500000
vt 0.218750 1.000000
vt 0.218750 0.500000
vt 0.203125 1.000000
vt 0.203125 0.500000
vt 0.187500 1.000000
vt 0.187500 0.500000
vt 0.171875 1.000000
vt 0.171875 0.500000
vt 0.156250 1.000000
vt 0.156250 0.500000
vt 0.140625 1.000000
vt 0.140625 0.500000
vt 0.125000 1.000000
vt 0.125000 0.500000
vt 0.109375 1.000000
vt 0.109375 0.500000
vt 0.093750 1.000000
vt 0.093750 0.500000
vt 0.078125 1.000000
vt 0.078125 0.500000
vt 0.062500 1.000000
vt 0.062500 0.500000
vt 0.046875 1.000000
vt 0.046875 0.500000
vt 0.031250 1.000000
vt 0.031250 0.500000
vt 0.015625 1.000000
vt 0.015625 0.500000
vt 0.000000 1.000000
vt 0.000000 0.500000
s 0
g Circle_Material.001
usemtl Material.001
f 1/1/1 2/2/1 4/3/1 3/4/1
f 3/4/2 4/3/2 6/5/2 5/6/2
f 5/6/3 6/5/3 8/7/3 7/8/3
f 7/8/4 8/7/4 10/9/4 9/10/4
f 9/10/5 10/9/5 12/11/5 11/12/5
f 11/12/6 12/11/6 14/13/6 13/14/6
f 13/14/7 14/13/7 16/15/7 15/16/7
f 15/16/8 16/15/8 18/17/8 17/18/8
f 17/18/9 18/17/9 20/19/9 19/20/9
f 19/20/10 20/19/10 22/21/10 21/22/10
f 21/22/11 22/21/11 24/23/11 23/24/11
f 23/24/12 24/23/12 26/25/12 25/26/12
f 25/26/13 26/25/13 28/27/13 27/28/13
f 27/28/14 28/27/14 30/29/14 29/30/14
f 29/30/15 30/29/15 32/31/15 31/32/15
f 31/32/16 32/31/16 34/33/16 33/34/16
f 33/34/17 34/33/17 36/35/17 35/36/17
f 35/36/18 36/35/18 38/37/18 37/38/18
f 37/38/19 38/37/19 40/39/19 39/40/19
f 39/40/20 40/39/20 42/41/20 41/42/20
f 41/42/21 42/41/21 44/43/21 43/44/21
f 43/44/22 44/43/22 46/45/22 45/46/22
f 45/46/23 46/45/23 48/47/23 47/48/23
f 47/48/24 48/47/24 50/49/24 49/50/24
f 49/50/25 50/49/25 52/51/25 51/52/25
f 51/52/26 52/51/26 54/53/26 53/54/26
f 53/54/27 54/53/27 56/55/27 55/56/27
f 55/56/28 56/55/28 58/57/28 57/58/28
f 57/58/29 58/57/29 60/59/29 59/60/29
f 59/60/30 60/59/30 62/61/30 61/62/30
f 61/62/31 62/61/31 64/63/31 63/64/31
f 63/64/32 64/63/32 66/65/32 65/66/32
f 65/66/33 66/65/33 68/67/33 67/68/33
f 67/68/34 68/67/34 70/69/34 69/70/34
f 69/70/35 70/69/35 72/71/35 71/72/35
f 71/72/36 72/71/36 74/73/36 73/74/36
f 73/74/37 74/73/37 76/75/37 75/76/37
f 75/76/38 76/75/38 78/77/38 77/78/38
f 77/78/39 78/77/39 80/79/39 79/80/39
f 79/80/40 80/79/40 82/81/40 81/82/40
f 81/82/41 82/81/41 84/83/41 83/84/41
f 83/84/42 84/83/42 86/85/42 85/86/42
f 85/86/43 86/85/43 88/87/43 87/88/43
f 87/88/44 88/87/44 90/89/44 89/90/44
f 89/90/45 90/89/45 92/91/45 91/92/45
f 91/92/46 92/91/46 94/93/46 93/94/46
f 93/94/47 94/93/47 96/95/47 95/96/47
f 95/96/48 96/95/48 98/97/48 97/98/48
f 97/98/49 98/97/49 100/99/49 99/100/49
f 99/100/50 100/99/50 102/101/50 101/102/50
f 101/102/51 102/101/51 104/103/51 103/104/51
f 103/104/52 104/103/52 106/105/52 105/106/52
f 105/106/53 106/105/53 108/107/53 107/108/53
f 107/108/54 108/107/54 110/109/54 109/110/54
f 109/110/55 110/109/55 112/111/55 111/112/55
f 111/112/56 112/111/56 114/113/56 113/114/56
f 113/114/57 114/113/57 116/115/57 115/116/57
f 115/116/58 116/115/58 118/117/58 117/118/58
f 117/118/59 118/117/59 120/119/59 119/120/59
f 119/120/60 120/119/60 122/121/60 121/122/60
f 121/122/61 122/121/61 124/123/61 123/124/61
f 123/124/62 124/123/62 126/125/62 125/126/62
f 125/126/63 126/125/63 128/127/63 127/128/63
f 127/128/64 128/127/64 2/129/64 1/130/64
o Cube
v 5.669351 -0.283724 0.414924
v 5.781772 -0.189141 0.138941
v 5.616101 -0.291195 0.161738
v 5.763070 -0.360348 0.103794
v 5.719829 -0.136842 0.307753
v 5.618443 -0.397928 0.294270
v 5.720803 -0.463321 0.203889
v 5.912947 -0.273572 0.228999
v 5.863909 -0.306195 0.385592
v 5.859586 -0.424138 0.309914
vn -0.2656 0.2216 -0.9383
vn -0.5085 -0.4837 -0.7124
vn 0.6319 0.6951 0.3427
vn 0.5639 0.8244 -0.0485
vn -0.1243 -0.7704 0.6253
vn -0.5171 0.7454 -0.4207
vn -0.9196 0.3476 0.1831
vn -0.7232 -0.5441 -0.4254
vn 0.1861 0.5366 0.8231
vn 0.0640 -0.5406 0.8388
vn 0.6458 -0.5898 -0.4849
vn 0.9464 -0.1983 0.2550
vn 0.6047 0.0962 -0.7906
vt 0.550384 0.206938
vt 0.375000 0.305791
vt 0.375000 0.049496
vt 0.180791 0.500000
vt 0.330928 0.574320
vt 0.125000 0.700504
vt 0.804283 0.500000
vt 0.842867 0.681766
vt 0.658516 0.626313
vt 0.875000 0.500000
vt 0.501754 0.540833
vt 0.565165 0.799791
vt 0.325310 0.750000
vt 0.604031 0.069198
vt 0.375000 1.000000
vt 0.375000 0.799690
vt 0.578028 1.000000
vt 0.615335 0.592735
vt 0.589707 0.775249
vt 0.581909 0.353207
s 0
g Cube_Material
usemtl Material
f 130/131/65 132/132/65 131/133/65
f 132/134/66 135/135/66 131/136/66
f 136/137/67 133/138/67 137/139/67
f 133/138/68 136/137/68 130/140/68
f 138/141/69 129/142/69 134/143/69 135/135/69
f 131/133/70 133/144/70 130/131/70
f 131/145/71 134/146/71 129/142/71 133/147/71
f 135/135/72 134/143/72 131/136/72
f 137/148/73 133/138/73 129/149/73
f 129/142/74 138/141/74 137/148/74
f 138/141/75 135/135/75 132/132/75 136/150/75
f 138/141/76 136/150/76 137/148/76
f 132/132/77 130/131/77 136/150/77
o Cube
v 0.598575 0.512876 -5.731954
v 0.736610 0.446136 -5.987286
v 0.570718 0.377592 -5.936197
v 0.710120 0.290870 -5.930473
v 0.666350 0.575313 -5.886291
v 0.553400 0.359850 -5.775990
v 0.653831 0.259968 -5.803150
v 0.846548 0.423203 -5.857555
v 0.783650 0.477814 -5.721684
v 0.778177 0.344375 -5.722618
vn -0.1578 -0.3155 -0.9357
vn -0.4724 -0.7857 -0.3995
vn 0.6458 0.7635 -0.0079
vn 0.6251 0.6626 -0.4126
vn -0.2398 -0.3113 0.9196
vn -0.4183 0.4072 -0.8119
vn -0.9048 0.4014 -0.1425
vn -0.7174 -0.6797 -0.1528
vn 0.1456 0.8933 0.4253
vn -0.0563 -0.0047 0.9984
vn 0.6440 -0.7649 -0.0139
vn 0.9005 -0.0400 0.4329
vn 0.6829 -0.3509 -0.6407
vt 0.550384 0.206938
vt 0.375000 0.305791
vt 0.375000 0.049496
vt 0.180791 0.500000
vt 0.330928 0.574320
vt 0.125000 0.700504
vt 0.804283 0.500000
vt 0.842867 0.681766
vt 0.658516 0.626313
vt 0.875000 0.500000
vt 0.501754 0.540833
vt 0.565165 0.799791
vt 0.325310 0.750000
vt 0.604031 0.069198
vt 0.375000 1.000000
vt 0.375000 0.799690
vt 0.578028 1.000000
vt 0.615335 0.592735
vt 0.589707 0.775249
vt 0.581909 0.353207
s 0
g Cube_Material
usemtl Material
f 140/151/78 142/152/78 141/153/78
f 142/154/79 145/155/79 141/156/79
f 146/157/80 143/158/80 147/159/80
f 143/158/81 146/157/81 140/160/81
f 148/161/82 139/162/82 144/163/82 145/155/82
f 141/153/83 143/164/83 140/151/83
f 141/165/84 144/166/84 139/162/84 143/167/84
f 145/155/85 144/163/85 141/156/85
f 147/168/86 143/158/86 139/169/86
f 139/162/87 148/161/87 147/168/87
f 148/161/88 145/155/88 142/152/88 146/170/88
f 148/161/89 146/170/89 147/168/89
f 142/152/90 140/151/90 146/170/90
o Cube
v 3.455310 0.365837 -4.373824
v 3.615644 0.417152 -4.148902
v 3.678125 0.373353 -4.307550
v 3.672525 0.275052 -4.187889
v 3.500978 0.478554 -4.255666
v 3.585794 0.281157 -4.387301
v 3.623591 0.197865 -4.286590
v 3.501434 0.310001 -4.107997
v 3.401795 0.295054 -4.219575
v 3.478159 0.194866 -4.217966
vn 0.9152 0.2894 0.2805
vn 0.9253 -0.3131 -0.2139
vn -0.6858 0.4785 0.5483
vn -0.3288 0.6218 0.7108
vn -0.3860 -0.6992 -0.6017
vn 0.5012 0.8643 -0.0412
vn 0.2087 0.6031 -0.7699
vn 0.7790 -0.3074 -0.5465
vn -0.8834 0.4586 -0.0960
vn -0.6916 -0.5349 -0.4854
vn 0.2151 -0.7541 0.6206
vn -0.6271 -0.4680 0.6227
vn 0.4069 -0.0866 0.9093
vt 0.550384 0.206938
vt 0.375000 0.305791
vt 0.375000 0.049496
vt 0.180791 0.500000
vt 0.330928 0.574320
vt 0.125000 0.700504
vt 0.804283 0.500000
vt 0.842867 0.681766
vt 0.658516 0.626313
vt 0.875000 0.500000
vt 0.501754 0.540833
vt 0.565165 0.799791
vt 0.325310 0.750000
vt 0.604031 0.069198
vt 0.375000 1.000000
vt 0.375000 0.799690
vt 0.578028 1.000000
vt 0.615335 0.592735
vt 0.589707 0.775249
vt 0.581909 0.353207
s 0
g Cube_Material
usemtl Material
f 150/171/91 152/172/91 151/173/91
f 152/174/92 155/175/92 151/176/92
f 156/177/93 153/178/93 157/179/93
f 153/178/94 156/177/94 150/180/94
f 158/181/95 149/182/95 154/183/95 155/175/95
f 151/173/96 153/184/96 150/171/96
f 151/185/97 154/186/97 149/182/97 153/187/97
f 155/175/98 154/183/98 151/176/98
f 157/188/99 153/178/99 149/189/99
f 149/182/100 158/181/100 157/188/100
f 158/181/101 155/175/101 152/172/101 156/190/101
f 158/181/102 156/190/102 157/188/102
f 152/172/103 150/171/103 156/190/103
o Cube
v -5.132310 0.686144 -1.364079
v -5.271704 0.486680 -1.089505
v -5.061094 0.457700 -1.177006
v -5.215980 0.333345 -1.215716
v -5.215535 0.687488 -1.158882
v -5.047534 0.500854 -1.371520
v -5.150480 0.356160 -1.377107
v -5.410144 0.488477 -1.249224
v -5.352170 0.614745 -1.387929
v -5.322029 0.460950 -1.437990
vn 0.2514 -0.5590 0.7901
vn 0.6003 -0.7888 0.1321
vn -0.7465 0.6168 0.2495
vn -0.6899 0.4012 0.6025
vn 0.2318 0.0256 -0.9724
vn 0.3992 0.1977 0.8953
vn 0.8447 0.4712 0.2538
vn 0.8140 -0.5764 -0.0711
vn -0.2941 0.9475 -0.1255
vn 0.0025 0.3100 -0.9507
vn -0.5267 -0.8210 -0.2200
vn -0.9077 -0.0420 -0.4176
vn -0.5904 -0.6299 0.5046
vt 0.550384 0.206938
vt 0.375000 0.305791
vt 0.375000 0.049496
vt 0.180791 0.500000
vt 0.330928 0.574320
vt 0.125000 0.700504
vt 0.804283 0.500000
vt 0.842867 0.681766
vt 0.658516 0.626313
vt 0.875000 0.500000
vt 0.501754 0.540833
vt 0.565165 0.799791
vt 0.325310 0.750000
vt 0.604031 0.069198
vt 0.375000 1.000000
vt 0.375000 0.799690
vt 0.578028 1.000000
vt 0.615335 0.592735
vt 0.589707 0.775249
vt 0.581909 0.353207
s 0
g Cube_Material
usemtl Material
f 160/191/104 162/192/104 161/193/104
f 162/194/105 165/195/105 161/196/105
f 166/197/106 163/198/106 167/199/106
f 163/198/107 166/197/107 160/200/107
f 168/201/108 159/202/108 164/203/108 165/195/108
f 161/193/109 163/204/109 160/191/109
f 161/205/110 164/206/110 159/202/110 163/207/110
f 165/195/111 164/203/111 161/196/111
f 167/208/112 163/198/112 159/209/112
f 159/202/113 168/201/113 167/208/113
f 168/201/114 165/195/114 162/192/114 166/210/114
f 168/201/115 166/210/115 167/208/115
f 162/192/116 160/191/116 166/210/116
o Cube
v 2.894172 0.483377 -3.890328
v 2.843503 0.232289 -4.196760
v 3.035636 0.222812 -4.036675
v 3.052419 0.301092 -4.241907
v 2.752250 0.317628 -3.992756
v 3.094719 0.416761 -3.958229
v 3.145476 0.436327 -4.143827
v 2.824702 0.448156 -4.274179
v 2.822652 0.585500 -4.110449
v 2.982961 0.590346 -4.190156
vn 0.2301 -0.9154 -0.3303
vn 0.8566 -0.5015 -0.1212
vn -0.9693 0.1822 -0.1650
vn -0.9229 -0.1986 -0.3297
vn 0.5015 0.7910 0.3504
vn -0.2683 -0.9256 0.2672
vn 0.0471 -0.4696 0.8816
vn 0.9083 -0.3617 0.2103
vn -0.7969 0.4060 0.4473
vn 0.1578 0.9143 0.3729
vn 0.3725 0.2494 -0.8939
vn -0.3252 0.7225 -0.6101
vn -0.0891 -0.3431 -0.9351
vt 0.550384 0.206938
vt 0.375000 0.305791
vt 0.375000 0.049496
vt 0.180791 0.500000
vt 0.330928 0.574320
vt 0.125000 0.700504
vt 0.804283 0.500000
vt 0.842867 0.681766
vt 0.658516 0.626313
vt 0.875000 0.500000
vt 0.501754 0.540833
vt 0.565165 0.799791
vt 0.325310 0.750000
vt 0.604031 0.069198
vt 0.375000 1.000000
vt 0.375000 0.799690
vt 0.578028 1.000000
vt 0.615335 0.592735
vt 0.589707 0.775249
vt 0.581909 0.353207
s 0
g Cube_Material
usemtl Material
f 170/211/117 172/212/117 171/213/117
f 172/214/118 175/215/118 171/216/118
f 176/217/119 173/218/119 177/219/119
f 173/218/120 176/217/120 170/220/120
f 178/221/121 169/222/121 174/223/121 175/215/121
f 171/213/122 173/224/122 170/211/122
f 171/225/123 174/226/123 169/222/123 173/227/123
f 175/215/124 174/223/124 171/216/124
f 177/228/125 173/218/125 169/229/125
f 169/222/126 178/221/126 177/228/126
f 178/221/127 175/215/127 172/212/127 176/230/127
f 178/221/128 176/230/128 177/228/128
f 172/212/129 170/211/129 176/230/129
o Cube
v -4.767293 0.472502 -1.020231
v -4.823694 0.362184 -1.311568
v -4.964108 0.426598 -1.187113
v -4.935015 0.257619 -1.220170
v -4.735149 0.493588 -1.207401
v -4.927634 0.400064 -1.020795
v -4.946440 0.255762 -1.069032
v -4.719196 0.242030 -1.222623
v -4.668042 0.307013 -1.074771
v -4.771327 0.212435 -1.051497
vn -0.6538 0.0353 -0.7559
vn -0.9850 -0.1546 -0.0764
vn 0.9305 0.0806 -0.3574
vn 0.7020 0.0873 -0.7068
vn -0.0364 -0.1908 0.9810
vn -0.2640 0.7021 -0.6613
vn -0.3285 0.9355 0.1301
vn -0.9736 0.0527 0.2219
vn 0.8679 0.4545 0.2003
vn 0.3199 -0.1180 0.9401
vn -0.1432 -0.9819 -0.1241
vn 0.6831 -0.7257 0.0826
vn -0.0539 -0.6240 -0.7796
vt 0.550384 0.206938
vt 0.375000 0.305791
vt 0.375000 0.049496
vt 0.180791 0.500000
vt 0.330928 0.574320
vt 0.125000 0.700504
vt 0.804283 0.500000
vt 0.842867 0.681766
vt 0.658516 0.626313
vt 0.875000 0.500000
vt 0.501754 0.540833
vt 0.565165 0.799791
vt 0.325310 0.750000
vt 0.604031 0.069198
vt 0.375000 1.000000
vt 0.375000 0.799690
vt 0.578028 1.000000
vt 0.615335 0.592735
vt 0.589707 0.775249
vt 0.581909 0.353207
s 0
g Cube_Material
usemtl Material
f 180/231/130 182/232/130 181/233/130
f 182/234/131 185/235/131 181/236/131
f 186/237/132 183/238/132 187/239/132
f 183/238/133 186/237/133 180/240/133
f 188/241/134 179/242/134 184/243/134 185/235/134
f 181/233/135 183/244/135 180/231/135
f 181/245/136 184/246/136 179/242/136 183/247/136
f 185/235/137 184/243/137 181/236/137
f 187/248/138 183/238/138 179/249/138
f 179/242/139 188/241/139 187/248/139
f 188/241/140 185/235/140 182/232/140 186/250/140
f 188/241/141 186/250/141 187/248/141
f 182/232/142 180/231/142 186/250/142
o Cube
v -1.663545 0.229524 -3.674455
v -1.877250 0.334349 -3.979184
v -1.955775 0.191910 -3.799595
v -1.902218 0.118818 -3.992669
v -1.756978 0.406309 -3.794799
v -1.805356 0.072761 -3.713125
v -1.816271 -0.003713 -3.883695
v -1.682916 0.253707 -4.052391
v -1.554266 0.221776 -3.893511
v -1.617543 0.069752 -3.947832
vn -0.9420 0.1285 -0.3100
vn -0.8156 -0.5785 -0.0072
vn 0.5594 0.7737 -0.2975
vn 0.1867 0.8678 -0.4605
vn 0.5272 -0.7321 0.4313
vn -0.7192 0.6621 0.2107
vn -0.4082 0.2725 0.8713
vn -0.6954 -0.6380 0.3306
vn 0.7182 0.6089 0.3368
vn 0.7825 -0.4712 0.4070
vn 0.0339 -0.5600 -0.8278
vn 0.7650 -0.0906 -0.6376
vn -0.3159 0.0957 -0.9440
vt 0.550384 0.206938
vt 0.375000 0.305791
vt 0.375000 0.049496
vt 0.180791 0.500000
vt 0.330928 0.574320
vt 0.125000 0.700504
vt 0.804283 0.500000
vt 0.842867 0.681766
vt 0.658516 0.626313
vt 0.875000 0.500000
vt 0.501754 0.540833
vt 0.565165 0.799791
vt 0.325310 0.750000
vt 0.604031 0.069198
vt 0.375000 1.000000
vt 0.375000 0.799690
vt 0.578028 1.000000
vt 0.615335 0.592735
vt 0.589707 0.775249
vt 0.581909 0.353207
s 0
g Cube_Material
usemtl Material
f 190/251/143 192/252/143 191/253/143
f 192/254/144 195/255/144 191/256/144
f 196/257/145 193/258/145 197/259/145
f 193/258/146 196/257/146 190/260/146
f 198/261/147 189/262/147 194/263/147 195/255/147
f 191/253/148 193/264/148 190/251/148
f 191/265/149 194/266/149 189/262/149 193/267/149
f 195/255/150 194/263/150 191/256/150
f 197/268/151 193/258/151 189/269/151
f 189/262/152 198/261/152 197/268/152
f 198/261/153 195/255/153 192/252/153 196/270/153
f 198/261/154 196/270/154 197/268/154
f 192/252/155 190/251/155 196/270/155
o Cube
v -3.324877 -0.152595 -3.267944
v -3.462505 -0.302466 -3.560572
v -3.272145 -0.367262 -3.463395
v -3.278686 -0.262239 -3.629454
v -3.492301 -0.256508 -3.354234
v -3.175151 -0.223404 -3.376590
v -3.159209 -0.177253 -3.542135
v -3.454809 -0.099108 -3.587989
v -3.405771 -0.012418 -3.425339
v -3.280432 -0.014071 -3.524496
vn -0.0151 -0.8453 -0.5340
vn 0.7068 -0.5850 -0.3978
vn -0.9300 0.3561 0.0906
vn -0.9890 0.0176 -0.1467
vn 0.7000 0.6120 0.3679
vn -0.3853 -0.9110 0.1473
vn 0.1208 -0.6519 0.7486
vn 0.8454 -0.5300 -0.0663
vn -0.6065 0.4129 0.6795
vn 0.3966 0.7773 0.4884
vn 0.2390 0.3797 -0.8937
vn -0.2896 0.8782 -0.3807
vn -0.3266 -0.1141 -0.9382
vt 0.550384 0.206938
vt 0.375000 0.305791
vt 0.375000 0.049496
vt 0.180791 0.500000
vt 0.330928 0.574320
vt 0.125000 0.700504
vt 0.804283 0.500000
vt 0.842867 0.681766
vt 0.658516 0.626313
vt 0.875000 0.500000
vt 0.501754 0.540833
vt 0.565165 0.799791
vt 0.325310 0.750000
vt 0.604031 0.069198
vt 0.375000 1.000000
vt 0.375000 0.799690
vt 0.578028 1.000000
vt 0.615335 0.592735
vt 0.589707 0.775249
vt 0.581909 0.353207
s 0
g Cube_Material
usemtl Material
f 200/271/156 202/272/156 201/273/156
f 202/274/157 205/275/157 201/276/157
f 206/277/158 203/278/158 207/279/158
f 203/278/159 206/277/159 200/280/159
f 208/281/160 199/282/160 204/283/160 205/275/160
f 201/273/161 203/284/161 200/271/161
f 201/285/162 204/286/162 199/282/162 203/287/162
f 205/275/163 204/283/163 201/276/163
f 207/288/164 203/278/164 199/289/164
f 199/282/165 208/281/165 207/288/165
f 208/281/166 205/275/166 202/272/166 206/290/166
f 208/281/167 206/290/167 207/288/167
f 202/272/168 200/271/168 206/290/168
o Cube
v 4.097148 -0.032214 -0.120810
v 4.106582 -0.228234 -0.253327
v 4.198265 -0.199016 -0.140378
v 4.233037 -0.188534 -0.265839
v 4.028142 -0.149093 -0.165572
v 4.222086 -0.073473 -0.123495
v 4.274363 -0.091631 -0.223928
v 4.104401 -0.119609 -0.335838
v 4.082460 -0.014223 -0.268991
v 4.185245 -0.018543 -0.295300
vn 0.2998 -0.9540 0.0034
vn 0.8663 -0.4568 0.2019
vn -0.9149 0.0626 -0.3989
vn -0.8327 -0.3454 -0.4328
vn 0.4124 0.8897 0.1960
vn -0.3120 -0.8273 0.4672
vn -0.1345 -0.1955 0.9714
vn 0.8469 -0.2255 0.4816
vn -0.8753 0.4621 0.1429
vn 0.0707 0.9910 0.1133
vn 0.5488 0.0094 -0.8359
vn -0.1957 0.4959 -0.8460
vn 0.1099 -0.5998 -0.7926
vt 0.550384 0.206938
vt 0.375000 0.305791
vt 0.375000 0.049496
vt 0.180791 0.500000
vt 0.330928 0.574320
vt 0.125000 0.700504
vt 0.804283 0.500000
vt 0.842867 0.681766
vt 0.658516 0.626313
vt 0.875000 0.500000
vt 0.501754 0.540833
vt 0.565165 0.799791
vt 0.325310 0.750000
vt 0.604031 0.069198
vt 0.375000 1.000000
vt 0.375000 0.799690
vt 0.578028 1.000000
vt 0.615335 0.592735
vt 0.589707 0.775249
vt 0.581909 0.353207
s 0
g Cube_Material
usemtl Material
f 210/291/169 212/292/169 211/293/169
f 212/294/170 215/295/170 211/296/170
f 216/297/171 213/298/171 217/299/171
f 213/298/172 216/297/172 210/300/172
f 218/301/173 209/302/173 214/303/173 215/295/173
f 211/293/174 213/304/174 210/291/174
f 211/305/175 214/306/175 209/302/175 213/307/175
f 215/295/176 214/303/176 211/296/176
f 217/308/177 213/298/177 209/309/177
f 209/302/178 218/301/178 217/308/178
f 218/301/179 215/295/179 212/292/179 216/310/179
f 218/301/180 216/310/180 217/308/180
f 212/292/181 210/291/181 216/310/181
o Cube
v 0.344861 -0.247736 3.852542
v 0.040030 -0.278166 4.016057
v 0.086901 -0.122294 3.871647
v 0.080231 -0.092416 4.060721
v 0.177217 -0.368319 3.888332
v 0.268883 -0.071224 3.870294
v 0.221880 -0.014680 4.021524
v 0.186727 -0.283910 4.151968
v 0.352104 -0.292810 4.067705
v 0.329305 -0.148576 4.121787
vn -0.9713 0.2271 -0.0702
vn -0.5075 0.8482 -0.1519
vn 0.1018 -0.9485 0.3000
vn -0.3131 -0.9012 0.2998
vn 0.8660 0.4970 -0.0552
vn -0.7493 -0.3146 -0.5828
vn -0.0897 -0.0328 -0.9954
vn -0.2497 0.8790 -0.4063
vn 0.5464 -0.8158 -0.1893
vn 0.9877 0.1563 -0.0005
vn -0.1172 0.4454 0.8876
vn 0.4277 -0.2573 0.8665
vn -0.6799 -0.0290 0.7327
vt 0.550384 0.206938
vt 0.375000 0.305791
vt 0.375000 0.049496
vt 0.180791 0.500000
vt 0.330928 0.574320
vt 0.125000 0.700504
vt 0.804283 0.500000
vt 0.842867 0.681766
vt 0.658516 0.626313
vt 0.875000 0.500000
vt 0.501754 0.540833
vt 0.565165 0.799791
vt 0.325310 0.750000
vt 0.604031 0.069198
vt 0.375000 1.000000
vt 0.375000 0.799690
vt 0.578028 1.000000
vt 0.615335 0.592735
vt 0.589707 0.775249
vt 0.581909 0.353207
s 0
g Cube_Material
usemtl Material
f 220/311/182 222/312/182 221/313/182
f 222/314/183 225/315/183 221/316/183
f 226/317/184 223/318/184 227/319/184
f 223/318/185 226/317/185 220/320/185
f 228/321/186 219/322/186 224/323/186 225/315/186
f 221/313/187 223/324/187 220/311/187
f 221/325/188 224/326/188 219/322/188 223/327/188
f 225/315/189 224/323/189 221/316/189
f 227/328/190 223/318/190 219/329/190
f 219/322/191 228/321/191 227/328/191
f 228/321/192 225/315/192 222/312/192 226/330/192
f 228/321/193 226/330/193 227/328/193
f 222/312/194 220/311/194 226/330/194
o Cube
v -3.503902 -0.089564 -1.568813
v -3.384365 -0.133134 -1.341764
v -3.545830 -0.140141 -1.363607
v -3.479534 -0.030853 -1.298267
v -3.399985 -0.177472 -1.490398
v -3.594342 -0.051213 -1.462644
v -3.556855 0.030512 -1.374324
v -3.334901 -0.003278 -1.398109
v -3.382596 0.014254 -1.527779
v -3.442767 0.082597 -1.454772
vn -0.0987 -0.4658 0.8793
vn -0.7015 -0.0006 0.7127
vn 0.9205 -0.1535 -0.3593
vn 0.9355 -0.3533 0.0071
vn -0.5394 0.6429 -0.5438
vn 0.0030 -0.9584 0.2856
vn -0.5491 -0.7785 -0.3041
vn -0.9088 -0.0326 0.4159
vn 0.4696 -0.2098 -0.8576
vn -0.2508 0.5949 -0.7636
vn 0.1828 0.7751 0.6048
vn 0.6615 0.7360 -0.1438
vn 0.5416 0.1524 0.8267
vt 0.550384 0.206938
vt 0.375000 0.305791
vt 0.375000 0.049496
vt 0.180791 0.500000
vt 0.330928 0.574320
vt 0.125000 0.700504
vt 0.804283 0.500000
vt 0.842867 0.681766
vt 0.658516 0.626313
vt 0.875000 0.500000
vt 0.501754 0.540833
vt 0.565165 0.799791
vt 0.325310 0.750000
vt 0.604031 0.069198
vt 0.375000 1.000000
vt 0.375000 0.799690
vt 0.578028 1.000000
vt 0.615335 0.592735
vt 0.589707 0.775249
vt 0.581909 0.353207
s 0
g Cube_Material
usemtl Material
f 230/331/195 232/332/195 231/333/195
f 232/334/196 235/335/196 231/336/196
f 236/337/197 233/338/197 237/339/197
f 233/338/198 236/337/198 230/340/198
f 238/341/199 229/342/199 234/343/199 235/335/199
f 231/333/200 233/344/200 230/331/200
f 231/345/201 234/346/201 229/342/201 233/347/201
f 235/335/202 234/343/202 231/336/202
f 237/348/203 233/338/203 229/349/203
f 229/342/204 238/341/204 237/348/204
f 238/341/205 235/335/205 232/332/205 236/350/205
f 238/341/206 236/350/206 237/348/206
f 232/332/207 230/331/207 236/350/207
o Cube
v -0.378725 0.567506 3.753631
v -0.617697 0.681448 3.427814
v -0.501667 0.850128 3.593000
v -0.728035 0.801659 3.598349
v -0.410657 0.559777 3.502389
v -0.480042 0.770975 3.806274
v -0.682028 0.790286 3.793689
v -0.738013 0.517607 3.558888
v -0.604044 0.431091 3.717111
v -0.723217 0.553514 3.796175
vn -0.1752 0.7477 -0.6405
vn -0.2058 0.9729 0.1051
vn 0.0261 -0.8676 -0.4965
vn -0.0615 -0.5956 -0.8009
vn 0.0534 -0.1058 0.9929
vn 0.5088 0.3977 -0.7635
vn 0.9258 0.3748 -0.0491
vn 0.0684 0.9376 0.3410
vn 0.5222 -0.8518 -0.0402
vn 0.1275 -0.4475 0.8851
vn -0.9871 0.0875 0.1338
vn -0.6571 -0.7382 0.1527
vn -0.7971 0.1105 -0.5936
vt 0.550384 0.206938
vt 0.375000 0.305791
vt 0.375000 0.049496
vt 0.180791 0.500000
vt 0.330928 0.574320
vt 0.125000 0.700504
vt 0.804283 0.500000
vt 0.842867 0.681766
vt 0.658516 0.626313
vt 0.875000 0.500000
vt 0.501754 0.540833
vt 0.565165 0.799791
vt 0.325310 0.750000
vt 0.604031 0.069198
vt 0.375000 1.000000
vt 0.375000 0.799690
vt 0.578028 1.000000
vt 0.615335 0.592735
vt 0.589707 0.775249
vt 0.581909 0.353207
s 0
g Cube_Material
usemtl Material
f 240/351/208 242/352/208 241/353/208
f 242/354/209 245/355/209 241/356/209
f 246/357/210 243/358/210 247/359/210
f 243/358/211 246/357/211 240/360/211
f 248/361/212 239/362/212 244/363/212 245/355/212
f 241/353/213 243/364/213 240/351/213
f 241/365/214 244/366/214 239/362/214 243/367/214
f 245/355/215 244/363/215 241/356/215
f 247/368/216 243/358/216 239/369/216
f 239/362/217 248/361/217 247/368/217
f 248/361/218 245/355/218 242/352/218 246/370/218
f 248/361/219 246/370/219 247/368/219
f 242/352/220 240/351/220 246/370/220
o Cube
v -2.880221 0.350658 0.910969
v -3.070019 0.580355 0.987002
v -2.973069 0.472791 1.114128
v -3.139042 0.455004 1.084019
v -2.917215 0.531938 0.896266
v -2.947360 0.315150 1.064066
v -3.095156 0.314472 1.082264
v -3.154055 0.471775 0.875037
v -3.049416 0.359912 0.814910
v -3.129771 0.300912 0.910186
vn -0.2016 0.6665 0.7177
vn -0.1713 -0.0658 0.9830
vn -0.0339 0.4484 -0.8932
vn -0.1362 0.7603 -0.6351
vn 0.1234 -0.9909 -0.0545
vn 0.4618 0.8189 0.3407
vn 0.9294 0.1362 0.3429
vn 0.1185 -0.2829 0.9518
vn 0.4948 0.0305 -0.8685
vn 0.1801 -0.8970 -0.4036
vn -0.9719 -0.1994 0.1249
vn -0.6637 -0.2401 -0.7084
vn -0.8353 0.5400 0.1033
vt 0.550384 0.206938
vt 0.375000 0.305791
vt 0.375000 0.049496
vt 0.180791 0.500000
vt 0.330928 0.574320
vt 0.125000 0.700504
vt 0.804283 0.500000
vt 0.842867 0.681766
vt 0.658516 0.626313
vt 0.875000 0.500000
vt 0.501754 0.540833
vt 0.565165 0.799791
vt 0.325310 0.750000
vt 0.604031 0.069198
vt 0.375000 1.000000
vt 0.375000 0.799690
vt 0.578028 1.000000
vt 0.615335 0.592735
vt 0.589707 0.775249
vt 0.581909 0.353207
s 0
g Cube_Material
usemtl Material
f 250/371/221 252/372/221 251/373/221
f 252/374/222 255/375/222 251/376/222
f 256/377/223 253/378/223 257/379/223
f 253/378/224 256/377/224 250/380/224
f 258/381/225 249/382/225 254/383/225 255/375/225
f 251/373/226 253/384/226 250/371/226
f 251/385/227 254/386/227 249/382/227 253/387/227
f 255/375/228 254/383/228 251/376/228
f 257/388/229 253/378/229 249/389/229
f 249/382/230 258/381/230 257/388/230
f 258/381/231 255/375/231 252/372/231 256/390/231
f 258/381/232 256/390/232 257/388/232
f 252/372/233 250/371/233 256/390/233
o Cube
v -0.623103 0.261726 3.031418
v -0.590098 0.083406 3.246235
v -0.530592 0.249203 3.244612
v -0.439142 0.125431 3.225575
v -0.699737 0.164572 3.147514
v -0.490943 0.299572 3.105661
v -0.395087 0.205171 3.126485
v -0.541114 0.010545 3.110129
v -0.575652 0.095033 2.990546
v -0.452256 0.104755 3.014452
vn 0.1473 -0.0432 0.9882
vn 0.6725 0.4012 0.6219
vn -0.7033 -0.6603 -0.2634
vn -0.6709 -0.7267 0.1476
vn 0.4365 0.4511 -0.7785
vn -0.5637 0.2101 0.7988
vn -0.4869 0.8338 0.2603
vn 0.5894 0.6909 0.4186
vn -0.7991 -0.0814 -0.5956
vn 0.1615 0.2781 -0.9469
vn 0.7995 -0.6006 0.0092
vn 0.1779 -0.7787 -0.6016
vn 0.2939 -0.7946 0.5312
vt 0.550384 0.206938
vt 0.375000 0.305791
vt 0.375000 0.049496
vt 0.180791 0.500000
vt 0.330928 0.574320
vt 0.125000 0.700504
vt 0.804283 0.500000
vt 0.842867 0.681766
vt 0.658516 0.626313
vt 0.875000 0.500000
vt 0.501754 0.540833
vt 0.565165 0.799791
vt 0.325310 0.750000
vt 0.604031 0.069198
vt 0.375000 1.000000
vt 0.375000 0.799690
vt 0.578028 1.000000
vt 0.615335 0.592735
vt 0.589707 0.775249
vt 0.581909 0.353207
s 0
g Cube_Material
usemtl Material
f 260/391/234 262/392/234 261/393/234
f 262/394/235 265/395/235 261/396/235
f 266/397/236 263/398/236 267/399/236
f 263/398/237 266/397/237 260/400/237
f 268/401/238 259/402/238 264/403/238 265/395/238
f 261/393/239 263/404/239 260/391/239
f 261/405/240 264/406/240 259/402/240 263/407/240
f 265/395/241 264/403/241 261/396/241
f 267/408/242 263/398/242 259/409/242
f 259/402/243 268/401/243 267/408/243
f 268/401/244 265/395/244 262/392/244 266/410/244
f 268/401/245 266/410/245 267/408/245
f 262/392/246 260/391/246 266/410/246
o Cube
v 0.543877 -0.039695 -2.626531
v 0.484753 0.103744 -2.385240
v 0.405938 -0.050430 -2.433511
v 0.335178 0.090695 -2.444124
v 0.605306 0.023036 -2.477307
v 0.391951 -0.068785 -2.587942
v 0.304224 0.036789 -2.566602
v 0.476084 0.208508 -2.512769
v 0.526780 0.140639 -2.640782
v 0.398337 0.147031 -2.643802
vn -0.3559 -0.1087 0.9282
vn -0.8368 -0.3907 0.3835
vn 0.8186 0.5741 0.0198
vn 0.7043 0.5713 0.4214
vn -0.3046 -0.2302 -0.9242
vn 0.3434 -0.4360 0.8319
vn 0.3130 -0.9341 0.1717
vn -0.7464 -0.6495 0.1448
vn 0.9149 0.0551 -0.3998
vn 0.0196 -0.0769 -0.9968
vn -0.7032 0.7107 -0.0219
vn 0.0549 0.8910 -0.4506
vn -0.3060 0.7253 0.6166
vt 0.550384 0.206938
vt 0.375000 0.305791
vt 0.375000 0.049496
vt 0.180791 0.500000
vt 0.330928 0.574320
vt 0.125000 0.700504
vt 0.804283 0.500000
vt 0.842867 0.681766
vt 0.658516 0.626313
vt 0.875000 0.500000
vt 0.501754 0.540833
vt 0.565165 0.799791
vt 0.325310 0.750000
vt 0.604031 0.069198
vt 0.375000 1.000000
vt 0.375000 0.799690
vt 0.578028 1.000000
vt 0.615335 0.592735
vt 0.589707 0.775249
vt 0.581909 0.353207
s 0
g Cube_Material
usemtl Material
f 270/411/247 272/412/247 271/413/247
f 272/414/248 275/415/248 271/416/248
f 276/417/249 273/418/249 277/419/249
f 273/418/250 276/417/250 270/420/250
f 278/421/251 269/422/251 274/423/251 275/415/251
f 271/413/252 273/424/252 270/411/252
f 271/425/253 274/426/253 269/422/253 273/427/253
f 275/415/254 274/423/254 271/416/254
f 277/428/255 273/418/255 269/429/255
f 269/422/256 278/421/256 277/428/256
f 278/421/257 275/415/257 272/412/257 276/430/257
f 278/421/258 276/430/258 277/428/258
f 272/412/259 270/411/259 276/430/259
o Cube
v -2.124306 0.259724 1.656307
v -2.371915 0.335831 1.488309
v -2.190365 0.335988 1.421461
v -2.275897 0.477837 1.461017
v -2.288208 0.203989 1.587354
v -2.074940 0.373483 1.537713
v -2.145749 0.504624 1.525802
v -2.375439 0.428114 1.640336
v -2.257100 0.374579 1.742443
v -2.218531 0.495257 1.686604
vn -0.3451 0.0532 -0.9371
vn 0.3289 0.4324 -0.8395
vn -0.6950 -0.4101 0.5905
vn -0.8899 -0.3987 0.2214
vn 0.8001 0.3352 0.4975
vn -0.2532 -0.6787 -0.6894
vn 0.5146 -0.7624 -0.3923
vn 0.6355 0.2777 -0.7205
vn -0.0886 -0.6612 0.7450
vn 0.6274 0.1528 0.7636
vn -0.3132 0.9497 0.0063
vn -0.4326 0.4888 0.7576
vn -0.8131 0.4891 -0.3157
vt 0.550384 0.206938
vt 0.375000 0.305791
vt 0.375000 0.049496
vt 0.180791 0.500000
vt 0.330928 0.574320
vt 0.125000 0.700504
vt 0.804283 0.500000
vt 0.842867 0.681766
vt 0.658516 0.626313
vt 0.875000 0.500000
vt 0.501754 0.540833
vt 0.565165 0.799791
vt 0.325310 0.750000
vt 0.604031 0.069198
vt 0.375000 1.000000
vt 0.375000 0.799690
vt 0.578028 1.000000
vt 0.615335 0.592735
vt 0.589707 0.775249
vt 0.581909 0.353207
s 0
g Cube_Material
usemtl Material
f 280/431/260 282/432/260 281/433/260
f 282/434/261 285/435/261 281/436/261
f 286/437/262 283/438/262 287/439/262
f 283/438/263 286/437/263 280/440/263
f 288/441/264 279/442/264 284/443/264 285/435/264
f 281/433/265 283/444/265 280/431/265
f 281/445/266 284/446/266 279/442/266 283/447/266
f 285/435/267 284/443/267 281/436/267
f 287/448/268 283/438/268 279/449/268
f 279/442/269 288/441/269 287/448/269
f 288/441/270 285/435/270 282/432/270 286/450/270
f 288/441/271 286/450/271 287/448/271
f 282/432/272 280/431/272 286/450/272
o Cube
v 1.196373 0.315725 1.928625
v 0.995980 0.420986 1.591014
v 1.053478 0.581700 1.780057
v 0.847764 0.499154 1.746394
v 1.202030 0.330388 1.683804
v 1.058373 0.487040 1.979974
v 0.866345 0.474623 1.938562
v 0.893021 0.232260 1.683867
v 1.012635 0.154399 1.847999
v 0.868236 0.243118 1.915089
vn -0.2139 0.7754 -0.5941
vn -0.3895 0.9081 0.1536
vn 0.2510 -0.7909 -0.5581
vn 0.1601 -0.5047 -0.8483
vn -0.0695 -0.2055 0.9762
vn 0.5321 0.5583 -0.6365
vn 0.8412 0.5248 0.1304
vn -0.1496 0.8922 0.4261
vn 0.6667 -0.7447 -0.0292
vn 0.0790 -0.5162 0.8528
vn -0.9957 -0.0912 -0.0175
vn -0.5291 -0.8484 -0.0169
vn -0.7119 0.0435 -0.7009
vt 0.550384 0.206938
vt 0.375000 0.305791
vt 0.375000 0.049496
vt 0.180791 0.500000
vt 0.330928 0.574320
vt 0.125000 0.700504
vt 0.804283 0.500000
vt 0.842867 0.681766
vt 0.658516 0.626313
vt 0.875000 0.500000
vt 0.501754 0.540833
vt 0.565165 0.799791
vt 0.325310 0.750000
vt 0.604031 0.069198
vt 0.375000 1.000000
vt 0.375000 0.799690
vt 0.578028 1.000000
vt 0.615335 0.592735
vt 0.589707 0.775249
vt 0.581909 0.353207
s 0
g Cube_Material
usemtl Material
f 290/451/273 292/452/273 291/453/273
f 292/454/274 295/455/274 291/456/274
f 296/457/275 293/458/275 297/459/275
f 293/458/276 296/457/276 290/460/276
f 298/461/277 289/462/277 294/463/277 295/455/277
f 291/453/278 293/464/278 290/451/278
f 291/465/279 294/466/279 289/462/279 293/467/279
f 295/455/280 294/463/280 291/456/280
f 297/468/281 293/458/281 289/469/281
f 289/462/282 298/461/282 297/468/282
f 298/461/283 295/455/283 292/452/283 296/470/283
f 298/461/284 296/470/284 297/468/284
f 292/452/285 290/451/285 296/470/285
o Cube
v 0.550598 0.146820 -2.228760
v 0.459388 0.194038 -1.938865
v 0.435087 0.320253 -2.082457
v 0.552806 0.337754 -1.961573
v 0.444021 0.087924 -2.088659
v 0.555522 0.314991 -2.198613
v 0.631946 0.367601 -2.082113
v 0.629173 0.143373 -1.937587
v 0.675613 0.096106 -2.088231
v 0.727387 0.221095 -2.061443
vn -0.6513 0.5119 0.5602
vn -0.2331 0.9686 0.0868
vn 0.0330 -0.9507 0.3085
vn -0.2374 -0.7810 0.5776
vn 0.6785 0.2163 -0.7020
vn -0.9905 -0.0416 0.1311
vn -0.7529 0.0520 -0.6561
vn -0.2244 0.9349 -0.2750
vn 0.0335 -0.9302 -0.3655
vn 0.7119 -0.1477 -0.6866
vn 0.6435 0.4091 0.6470
vn 0.8204 -0.4224 0.3854
vn 0.0329 0.1351 0.9903
vt 0.550384 0.206938
vt 0.375000 0.305791
vt 0.375000 0.049496
vt 0.180791 0.500000
vt 0.330928 0.574320
vt 0.125000 0.700504
vt 0.804283 0.500000
vt 0.842867 0.681766
vt 0.658516 0.626313
vt 0.875000 0.500000
vt 0.501754 0.540833
vt 0.565165 0.799791
vt 0.325310 0.750000
vt 0.604031 0.069198
vt 0.375000 1.000000
vt 0.375000 0.799690
vt 0.578028 1.000000
vt 0.615335 0.592735
vt 0.589707 0.775249
vt 0.581909 0.353207
s 0
g Cube_Material
usemtl Material
f 300/471/286 302/472/286 301/473/286
f 302/474/287 305/475/287 301/476/287
f 306/477/288 303/478/288 307/479/288
f 303/478/289 306/477/289 300/480/289
f 308/481/290 299/482/290 304/483/290 305/475/290
f 301/473/291 303/484/291 300/471/291
f 301/485/292 304/486/292 299/482/292 303/487/292
f 305/475/293 304/483/293 301/476/293
f 307/488/294 303/478/294 299/489/294
f 299/482/295 308/481/295 307/488/295
f 308/481/296 305/475/296 302/472/296 306/490/296
f 308/481/297 306/490/297 307/488/297
f 302/472/298 300/471/298 306/490/298
o Cube
v -1.101373 -0.140161 -1.495129
v -1.472458 -0.113460 -1.660232
v -1.397915 0.014030 -1.452286
v -1.532428 -0.165599 -1.445636
v -1.233123 -0.081620 -1.694042
v -1.248339 -0.093863 -1.329514
v -1.406539 -0.208447 -1.303170
v -1.419295 -0.339928 -1.630608
v -1.211245 -0.361141 -1.569735
v -1.319644 -0.386952 -1.425172
vn -0.7994 0.5957 -0.0787
vn -0.5890 0.4656 0.6605
vn 0.2236 -0.3814 -0.8970
vn -0.1178 -0.1559 -0.9807
vn 0.5521 -0.3770 0.7436
vn -0.1810 0.8660 -0.4661
vn 0.4663 0.8832 0.0491
vn -0.2616 0.5444 0.7970
vn 0.7898 -0.1966 -0.5810
vn 0.7275 -0.5148 0.4536
vn -0.7035 -0.6496 0.2883
vn -0.0399 -0.9780 -0.2045
vn -0.9131 -0.2559 -0.3173
vt 0.550384 0.206938
vt 0.375000 0.305791
vt 0.375000 0.049496
vt 0.180791 0.500000
vt 0.330928 0.574320
vt 0.125000 0.700504
vt 0.804283 0.500000
vt 0.842867 0.681766
vt 0.658516 0.626313
vt 0.875000 0.500000
vt 0.501754 0.540833
vt 0.565165 0.799791
vt 0.325310 0.750000
vt 0.604031 0.069198
vt 0.375000 1.000000
vt 0.375000 0.799690
vt 0.578028 1.000000
vt 0.615335 0.592735
vt 0.589707 0.775249
vt 0.581909 0.353207
s 0
g Cube_Material
usemtl Material
f 310/491/299 312/492/299 311/493/299
f 312/494/300 315/495/300 311/496/300
f 316/497/301 313/498/301 317/499/301
f 313/498/302 316/497/302 310/500/302
f 318/501/303 309/502/303 314/503/303 315/495/303
f 311/493/304 313/504/304 310/491/304
f 311/505/305 314/506/305 309/502/305 313/507/305
f 315/495/306 314/503/306 311/496/306
f 317/508/307 313/498/307 309/509/307
f 309/502/308 318/501/308 317/508/308
f 318/501/309 315/495/309 312/492/309 316/510/309
f 318/501/310 316/510/310 317/508/310
f 312/492/311 310/491/311 316/510/311
o Cube
v 0.400846 -0.245297 -1.367836
v 0.587048 -0.028987 -1.474655
v 0.635501 -0.212599 -1.454542
v 0.686959 -0.091282 -1.350190
v 0.429653 -0.118463 -1.497889
v 0.559666 -0.288758 -1.328189
v 0.646056 -0.194071 -1.255050
v 0.517174 0.026384 -1.323401
v 0.400835 -0.076636 -1.273952
v 0.513352 -0.095772 -1.198792
vn 0.8063 0.1501 -0.5721
vn 0.9247 -0.3805 -0.0136
vn -0.6973 0.6831 -0.2173
vn -0.3833 0.7960 -0.4685
vn -0.2374 -0.5796 0.7795
vn 0.1792 -0.0603 -0.9820
vn -0.1352 -0.7493 -0.6483
vn 0.7288 -0.6843 0.0250
vn -0.9868 0.0788 -0.1417
vn -0.5545 -0.4048 0.7271
vn 0.5521 0.5239 0.6486
vn -0.3234 0.6807 0.6574
vn 0.5648 0.8242 -0.0408
vt 0.550384 0.206938
vt 0.375000 0.305791
vt 0.375000 0.049496
vt 0.180791 0.500000
vt 0.330928 0.574320
vt 0.125000 0.700504
vt 0.804283 0.500000
vt 0.842867 0.681766
vt 0.658516 0.626313
vt 0.875000 0.500000
vt 0.501754 0.540833
vt 0.565165 0.799791
vt 0.325310 0.750000
vt 0.604031 0.069198
vt 0.375000 1.000000
vt 0.375000 0.799690
vt 0.578028 1.000000
vt 0.615335 0.592735
vt 0.589707 0.775249
vt 0.581909 0.353207
s 0
g Cube_Material
usemtl Material
f 320/511/312 322/512/312 321/513/312
f 322/514/313 325/515/313 321/516/313
f 326/517/314 323/518/314 327/519/314
f 323/518/315 326/517/315 320/520/315
f 328/521/316 319/522/316 324/523/316 325/515/316
f 321/513/317 323/524/317 320/511/317
f 321/525/318 324/526/318 319/522/318 323/527/318
f 325/515/319 324/523/319 321/516/319
f 327/528/320 323/518/320 319/529/320
f 319/522/321 328/521/321 327/528/321
f 328/521/322 325/515/322 322/512/322 326/530/322
f 328/521/323 326/530/323 327/528/323
f 322/512/324 320/511/324 326/530/324
o Cube
v 5.707651 0.403500 0.088846
v 5.811812 0.491133 -0.166859
v 5.658314 0.396578 -0.145737
v 5.794484 0.332506 -0.199423
v 5.754420 0.539589 -0.010451
v 5.660483 0.297688 -0.022943
v 5.755322 0.237099 -0.106682
v 5.933348 0.412906 -0.083418
v 5.887914 0.382681 0.061670
v 5.883908 0.273403 -0.008448
vn -0.2656 0.2216 -0.9383
vn -0.5085 -0.4837 -0.7124
vn 0.6319 0.6951 0.3427
vn 0.5639 0.8244 -0.0485
vn -0.1243 -0.7704 0.6253
vn -0.5171 0.7454 -0.4207
vn -0.9196 0.3476 0.1831
vn -0.7232 -0.5441 -0.4254
vn 0.1861 0.5366 0.8231
vn 0.0640 -0.5406 0.8388
vn 0.6458 -0.5898 -0.4849
vn 0.9464 -0.1983 0.2550
vn 0.6047 0.0962 -0.7906
vt 0.550384 0.206938
vt 0.375000 0.305791
vt 0.375000 0.049496
vt 0.180791 0.500000
vt 0.330928 0.574320
vt 0.125000 0.700504
vt 0.804283 0.500000
vt 0.842867 0.681766
vt 0.658516 0.626313
vt 0.875000 0.500000
vt 0.501754 0.540833
vt 0.565165 0.799791
vt 0.325310 0.750000
vt 0.604031 0.069198
vt 0.375000 1.000000
vt 0.375000 0.799690
vt 0.578028 1.000000
vt 0.615335 0.592735
vt 0.589707 0.775249
vt 0.581909 0.353207
s 0
g Cube_Material
usemtl Material
f 330/531/325 332/532/325 331/533/325
f 332/534/326 335/535/326 331/536/326
f 336/537/327 333/538/327 337/539/327
f 333/538/328 336/537/328 330/540/328
f 338/541/329 329/542/329 334/543/329 335/535/329
f 331/533/330 333/544/330 330/531/330
f 331/545/331 334/546/331 329/542/331 333/547/331
f 335/535/332 334/543/332 331/536/332
f 337/548/333 333/538/333 329/549/333
f 329/542/334 338/541/334 337/548/334
f 338/541/335 335/535/335 332/532/335 336/550/335
f 338/541/336 336/550/336 337/548/336
f 332/532/337 330/531/337 336/550/337
o Cube
v 0.097901 0.567424 -5.573769
v 0.224196 0.506360 -5.807384
v 0.072414 0.443647 -5.760640
v 0.199959 0.364301 -5.755404
v 0.159912 0.624550 -5.714979
v 0.056569 0.427414 -5.614060
v 0.148458 0.336027 -5.638910
v 0.324783 0.485378 -5.688687
v 0.267235 0.535344 -5.564373
v 0.262227 0.413255 -5.565228
vn -0.1578 -0.3155 -0.9357
vn -0.4724 -0.7857 -0.3995
vn 0.6458 0.7635 -0.0079
vn 0.6251 0.6626 -0.4126
vn -0.2398 -0.3113 0.9196
vn -0.4183 0.4072 -0.8119
vn -0.9048 0.4014 -0.1425
vn -0.7174 -0.6797 -0.1528
vn 0.1456 0.8933 0.4253
vn -0.0563 -0.0047 0.9984
vn 0.6440 -0.7649 -0.0139
vn 0.9005 -0.0400 0.4329
vn 0.6829 -0.3509 -0.6407
vt 0.550384 0.206938
vt 0.375000 0.305791
vt 0.375000 0.049496
vt 0.180791 0.500000
vt 0.330928 0.574320
vt 0.125000 0.700504
vt 0.804283 0.500000
vt 0.842867 0.681766
vt 0.658516 0.626313
vt 0.875000 0.500000
vt 0.501754 0.540833
vt 0.565165 0.799791
vt 0.325310 0.750000
vt 0.604031 0.069198
vt 0.375000 1.000000
vt 0.375000 0.799690
vt 0.578028 1.000000
vt 0.615335 0.592735
vt 0.589707 0.775249
vt 0.581909 0.353207
s 0
g Cube_Material
usemtl Material
f 340/551/338 342/552/338 341/553/338
f 342/554/339 345/555/339 341/556/339
f 346/557/340 343/558/340 347/559/340
f 343/558/341 346/557/341 340/560/341
f 348/561/342 339/562/342 344/563/342 345/555/342
f 341/553/343 343/564/343 340/551/343
f 341/565/344 344/566/344 339/562/344 343/567/344
f 345/555/345 344/563/345 341/556/345
f 347/568/346 343/558/346 339/569/346
f 339/562/347 348/561/347 347/568/347
f 348/561/348 345/555/348 342/552/348 346/570/348
f 348/561/349 346/570/349 347/568/349
f 342/552/350 340/551/350 346/570/350
o Cube
v 4.164473 0.412832 -3.960053
v 4.354957 0.473798 -3.692835
v 4.429188 0.421762 -3.881316
v 4.422535 0.304975 -3.739152
v 4.218728 0.546746 -3.819676
v 4.319494 0.312228 -3.976065
v 4.364399 0.213273 -3.856414
v 4.219271 0.346496 -3.644237
v 4.100894 0.328738 -3.776797
v 4.191618 0.209710 -3.774886
vn 0.9152 0.2894 0.2805
vn 0.9253 -0.3131 -0.2139
vn -0.6858 0.4785 0.5483
vn -0.3288 0.6218 0.7108
vn -0.3860 -0.6992 -0.6017
vn 0.5012 0.8643 -0.0412
vn 0.2087 0.6031 -0.7699
vn 0.7790 -0.3074 -0.5465
vn -0.8834 0.4586 -0.0960
vn -0.6916 -0.5349 -0.4854
vn 0.2151 -0.7541 0.6206
vn -0.6271 -0.4680 0.6227
vn 0.4069 -0.0866 0.9093
vt 0.550384 0.206938
vt 0.375000 0.305791
vt 0.375000 0.049496
vt 0.180791 0.500000
vt 0.330928 0.574320
vt 0.125000 0.700504
vt 0.804283 0.500000
vt 0.842867 0.681766
vt 0.658516 0.626313
vt 0.875000 0.500000
vt 0.501754 0.540833
vt 0.565165 0.799791
vt 0.325310 0.750000
vt 0.604031 0.069198
vt 0.375000 1.000000
vt 0.375000 0.799690
vt 0.578028 1.000000
vt 0.615335 0.592735
vt 0.589707 0.775249
vt 0.581909 0.353207
s 0
g Cube_Material
usemtl Material
f 350/571/351 352/572/351 351/573/351
f 352/574/352 355/575/352 351/576/352
f 356/577/353 353/578/353 357/579/353
f 353/578/354 356/577/354 350/580/354
f 358/581/355 349/582/355 354/583/355 355/575/355
f 351/573/356 353/584/356 350/571/356
f 351/585/357 354/586/357 349/582/357 353/587/357
f 355/575/358 354/583/358 351/576/358
f 357/588/359 353/578/359 349/589/359
f 349/582/360 358/581/360 357/588/360
f 358/581/361 355/575/361 352/572/361 356/590/361
f 358/581/362 356/590/362 357/588/362
f 352/572/363 350/571/363 356/590/363
o Cube
v -5.097424 0.782952 -1.322398
v -5.212296 0.618578 -1.096127
v -5.038737 0.594696 -1.168235
v -5.166375 0.492217 -1.200135
v -5.166008 0.784060 -1.153300
v -5.027562 0.630258 -1.328530
v -5.112398 0.511019 -1.333134
v -5.326382 0.620059 -1.227749
v -5.278606 0.724114 -1.342053
v -5.253768 0.597374 -1.383307
vn 0.2514 -0.5590 0.7901
vn 0.6003 -0.7888 0.1321
vn -0.7465 0.6168 0.2495
vn -0.6899 0.4012 0.6025
vn 0.2318 0.0256 -0.9724
vn 0.3992 0.1977 0.8953
vn 0.8447 0.4712 0.2538
vn 0.8140 -0.5764 -0.0711
vn -0.2941 0.9475 -0.1255
vn 0.0025 0.3100 -0.9507
vn -0.5267 -0.8210 -0.2200
vn -0.9077 -0.0420 -0.4176
vn -0.5904 -0.6299 0.5046
vt 0.550384 0.206938
vt 0.375000 0.305791
vt 0.375000 0.049496
vt 0.180791 0.500000
vt 0.330928 0.574320
vt 0.125000 0.700504
vt 0.804283 0.500000
vt 0.842867 0.681766
vt 0.658516 0.626313
vt 0.875000 0.500000
vt 0.501754 0.540833
vt 0.565165 0.799791
vt 0.325310 0.750000
vt 0.604031 0.069198
vt 0.375000 1.000000
vt 0.375000 0.799690
vt 0.578028 1.000000
vt 0.615335 0.592735
vt 0.589707 0.775249
vt 0.581909 0.353207
s 0
g Cube_Material
usemtl Material
f 360/591/364 362/592/364 361/593/364
f 362/594/365 365/595/365 361/596/365
f 366/597/366 363/598/366 367/599/366
f 363/598/367 366/597/367 360/600/367
f 368/601/368 359/602/368 364/603/368 365/595/368
f 361/593/369 363/604/369 360/591/369
f 361/605/370 364/606/370 359/602/370 363/607/370
f 365/595/371 364/603/371 361/596/371
f 367/608/372 363/598/372 359/609/372
f 359/602/373 368/601/373 367/608/373
f 368/601/374 365/595/374 362/592/374 366/610/374
f 368/601/375 366/610/375 367/608/375
f 362/592/376 360/591/376 366/610/376
o Cube
v 3.379981 0.013120 -4.052124
v 3.333253 -0.218436 -4.334718
v 3.510440 -0.227176 -4.187087
v 3.525918 -0.154985 -4.376353
v 3.249099 -0.139736 -4.146584
v 3.564927 -0.048314 -4.114743
v 3.611735 -0.030271 -4.285903
v 3.315914 -0.019362 -4.406115
v 3.314024 0.107298 -4.255121
v 3.461863 0.111767 -4.328627
vn 0.2301 -0.9154 -0.3303
vn 0.8566 -0.5015 -0.1212
vn -0.9693 0.1822 -0.1650
vn -0.9229 -0.1986 -0.3297
vn 0.5015 0.7910 0.3504
vn -0.2683 -0.9256 0.2672
vn 0.0471 -0.4696 0.8816
vn 0.9083 -0.3617 0.2103
vn -0.7969 0.4060 0.4473
vn 0.1578 0.9143 0.3729
vn 0.3725 0.2494 -0.8939
vn -0.3252 0.7225 -0.6101
vn -0.0891 -0.3431 -0.9351
vt 0.550384 0.206938
vt 0.375000 0.305791
vt 0.375000 0.049496
vt 0.180791 0.500000
vt 0.330928 0.574320
vt 0.125000 0.700504
vt 0.804283 0.500000
vt 0.842867 0.681766
vt 0.658516 0.626313
vt 0.875000 0.500000
vt 0.501754 0.540833
vt 0.565165 0.799791
vt 0.325310 0.750000
vt 0.604031 0.069198
vt 0.375000 1.000000
vt 0.375000 0.799690
vt 0.578028 1.000000
vt 0.615335 0.592735
vt 0.589707 0.775249
vt 0.581909 0.353207
s 0
g Cube_Material
usemtl Material
f 370/611/377 372/612/377 371/613/377
f 372/614/378 375/615/378 371/616/378
f 376/617/379 373/618/379 377/619/379
f 373/618/380 376/617/380 370/620/380
f 378/621/381 369/622/381 374/623/381 375/615/381
f 371/613/382 373/624/382 370/611/382
f 371/625/383 374/626/383 369/622/383 373/627/383
f 375/615/384 374/623/384 371/616/384
f 377/628/385 373/618/385 369/629/385
f 369/622/386 378/621/386 377/628/386
f 378/621/387 375/615/387 372/612/387 376/630/387
f 378/621/388 376/630/388 377/628/388
f 372/612/389 370/611/389 376/630/389
o Cube
v -4.837967 0.495854 -0.905415
v -4.878301 0.416962 -1.113757
v -4.978714 0.463027 -1.024756
v -4.957909 0.342185 -1.048396
v -4.814980 0.510933 -1.039264
v -4.952631 0.444052 -0.905818
v -4.966079 0.340858 -0.940313
v -4.803572 0.331038 -1.050150
v -4.766990 0.377508 -0.944417
v -4.840852 0.309873 -0.927774
vn -0.6538 0.0353 -0.7559
vn -0.9850 -0.1546 -0.0764
vn 0.9305 0.0806 -0.3574
vn 0.7020 0.0873 -0.7068
vn -0.0364 -0.1908 0.9810
vn -0.2640 0.7021 -0.6613
vn -0.3285 0.9355 0.1301
vn -0.9736 0.0527 0.2219
vn 0.8679 0.4545 0.2003
vn 0.3199 -0.1180 0.9401
vn -0.1432 -0.9819 -0.1241
vn 0.6831 -0.7257 0.0826
vn -0.0539 -0.6240 -0.7796
vt 0.550384 0.206938
vt 0.375000 0.305791
vt 0.375000 0.049496
vt 0.180791 0.500000
vt 0.330928 0.574320
vt 0.125000 0.700504
vt 0.804283 0.500000
vt 0.842867 0.681766
vt 0.658516 0.626313
vt 0.875000 0.500000
vt 0.501754 0.540833
vt 0.565165 0.799791
vt 0.325310 0.750000
vt 0.604031 0.069198
vt 0.375000 1.000000
vt 0.375000 0.799690
vt 0.578028 1.000000
vt 0.615335 0.592735
vt 0.589707 0.775249
vt 0.581909 0.353207
s 0
g Cube_Material
usemtl Material
f 380/631/390 382/632/390 381/633/390
f 382/634/391 385/635/391 381/636/391
f 386/637/392 383/638/392 387/639/392
f 383/638/393 386/637/393 380/640/393
f 388/641/394 379/642/394 384/643/394 385/635/394
f 381/633/395 383/644/395 380/631/395
f 381/645/396 384/646/396 379/642/396 383/647/396
f 385/635/397 384/643/397 381/636/397
f 387/648/398 383/638/398 379/649/398
f 379/642/399 388/641/399 387/648/399
f 388/641/400 385/635/400 382/632/400 386/650/400
f 388/641/401 386/650/401 387/648/401
f 382/632/402 380/631/402 386/650/402
o Cube
v -1.525943 -0.128165 -3.617762
v -1.711437 -0.037178 -3.882264
v -1.779596 -0.160814 -3.726382
v -1.733109 -0.224257 -3.893969
v -1.607042 0.025282 -3.722219
v -1.649034 -0.264234 -3.651327
v -1.658508 -0.330613 -3.799381
v -1.542757 -0.107175 -3.945807
v -1.431090 -0.134891 -3.807900
v -1.486014 -0.266846 -3.855051
vn -0.9420 0.1285 -0.3100
vn -0.8156 -0.5785 -0.0072
vn 0.5594 0.7737 -0.2975
vn 0.1867 0.8678 -0.4605
vn 0.5272 -0.7321 0.4313
vn -0.7192 0.6621 0.2107
vn -0.4082 0.2725 0.8713
vn -0.6954 -0.6380 0.3306
vn 0.7182 0.6089 0.3368
vn 0.7825 -0.4712 0.4070
vn 0.0339 -0.5600 -0.8278
vn 0.7650 -0.0906 -0.6376
vn -0.3159 0.0957 -0.9440
vt 0.550384 0.206938
vt 0.375000 0.305791
vt 0.375000 0.049496
vt 0.180791 0.500000
vt 0.330928 0.574320
vt 0.125000 0.700504
vt 0.804283 0.500000
vt 0.842867 0.681766
vt 0.658516 0.626313
vt 0.875000 0.500000
vt 0.501754 0.540833
vt 0.565165 0.799791
vt 0.325310 0.750000
vt 0.604031 0.069198
vt 0.375000 1.000000
vt 0.375000 0.799690
vt 0.578028 1.000000
vt 0.615335 0.592735
vt 0.589707 0.775249
vt 0.581909 0.353207
s 0
g Cube_Material
usemtl Material
f 390/651/403 392/652/403 391/653/403
f 392/654/404 395/655/404 391/656/404
f 396/657/405 393/658/405 397/659/405
f 393/658/406 396/657/406 390/660/406
f 398/661/407 389/662/407 394/663/407 395/655/407
f 391/653/408 393/664/408 390/651/408
f 391/665/409 394/666/409 389/662/409 393/667/409
f 395/655/410 394/663/410 391/656/410
f 397/668/411 393/658/411 389/669/411
f 389/662/412 398/661/412 397/668/412
f 398/661/413 395/655/413 392/652/413 396/670/413
f 398/661/414 396/670/414 397/668/414
f 392/652/415 390/651/415 396/670/415
o Cube
v -3.881961 -0.016282 -2.680840
v -3.995109 -0.139496 -2.921417
v -3.838608 -0.192767 -2.841525
v -3.843986 -0.106424 -2.978047
v -4.019606 -0.101712 -2.751781
v -3.758867 -0.074497 -2.770161
v -3.745760 -0.036554 -2.906261
v -3.988782 0.027690 -2.943959
v -3.948466 0.098962 -2.810239
v -3.845421 0.097602 -2.891759
vn -0.0151 -0.8453 -0.5340
vn 0.7068 -0.5850 -0.3978
vn -0.9300 0.3561 0.0906
vn -0.9890 0.0176 -0.1467
vn 0.7000 0.6120 0.3679
vn -0.3853 -0.9110 0.1473
vn 0.1208 -0.6519 0.7486
vn 0.8454 -0.5300 -0.0663
vn -0.6065 0.4129 0.6795
vn 0.3966 0.7773 0.4884
vn 0.2390 0.3797 -0.8937
vn -0.2896 0.8782 -0.3807
vn -0.3266 -0.1141 -0.9382
vt 0.550384 0.206938
vt 0.375000 0.305791
vt 0.375000 0.049496
vt 0.180791 0.500000
vt 0.330928 0.574320
vt 0.125000 0.700504
vt 0.804283 0.500000
vt 0.842867 0.681766
vt 0.658516 0.626313
vt 0.875000 0.500000
vt 0.501754 0.540833
vt 0.565165 0.799791
vt 0.325310 0.750000
vt 0.604031 0.069198
vt 0.375000 1.000000
vt 0.375000 0.799690
vt 0.578028 1.000000
vt 0.615335 0.592735
vt 0.589707 0.775249
vt 0.581909 0.353207
s 0
g Cube_Material
usemtl Material
f 400/671/416 402/672/416 401/673/416
f 402/674/417 405/675/417 401/676/417
f 406/677/418 403/678/418 407/679/418
f 403/678/419 406/677/419 400/680/419
f 408/681/420 399/682/420 404/683/420 405/675/420
f 401/673/421 403/684/421 400/671/421
f 401/685/422 404/686/422 399/682/422 403/687/422
f 405/675/423 404/683/423 401/676/423
f 407/688/424 403/678/424 399/689/424
f 399/682/425 408/681/425 407/688/425
f 408/681/426 405/675/426 402/672/426 406/690/426
f 408/681/427 406/690/427 407/688/427
f 402/672/428 400/671/428 406/690/428
o Cube
v 4.518695 0.098415 -0.081232
v 4.533124 -0.201387 -0.283910
v 4.673348 -0.156700 -0.111160
v 4.726530 -0.140668 -0.303047
v 4.413155 -0.080344 -0.149693
v 4.709781 0.035312 -0.085339
v 4.789734 0.007540 -0.238945
v 4.529788 -0.035252 -0.410106
v 4.496231 0.125931 -0.307866
v 4.653435 0.119324 -0.348105
vn 0.2998 -0.9540 0.0034
vn 0.8663 -0.4568 0.2019
vn -0.9149 0.0626 -0.3989
vn -0.8327 -0.3454 -0.4328
vn 0.4124 0.8897 0.1960
vn -0.3120 -0.8273 0.4672
vn -0.1345 -0.1955 0.9714
vn 0.8469 -0.2255 0.4816
vn -0.8753 0.4621 0.1429
vn 0.0707 0.9910 0.1133
vn 0.5488 0.0094 -0.8359
vn -0.1957 0.4959 -0.8460
vn 0.1099 -0.5998 -0.7926
vt 0.550384 0.206938
vt 0.375000 0.305791
vt 0.375000 0.049496
vt 0.180791 0.500000
vt 0.330928 0.574320
vt 0.125000 0.700504
vt 0.804283 0.500000
vt 0.842867 0.681766
vt 0.658516 0.626313
vt 0.875000 0.500000
vt 0.501754 0.540833
vt 0.565165 0.799791
vt 0.325310 0.750000
vt 0.604031 0.069198
vt 0.375000 1.000000
vt 0.375000 0.799690
vt 0.578028 1.000000
vt 0.615335 0.592735
vt 0.589707 0.775249
vt 0.581909 0.353207
s 0
g Cube_Material
usemtl Material
f 410/691/429 412/692/429 411/693/429
f 412/694/430 415/695/430 411/696/430
f 416/697/431 413/698/431 417/699/431
f 413/698/432 416/697/432 410/700/432
f 418/701/433 409/702/433 414/703/433 415/695/433
f 411/693/434 413/704/434 410/691/434
f 411/705/435 414/706/435 409/702/435 413/707/435
f 415/695/436 414/703/436 411/696/436
f 417/708/437 413/698/437 409/709/437
f 409/702/438 418/701/438 417/708/438
f 418/701/439 415/695/439 412/692/439 416/710/439
f 418/701/440 416/710/440 417/708/440
f 412/692/441 410/691/441 416/710/441
o Cube
v -0.152135 0.375129 3.533491
v -0.505632 0.339841 3.723111
v -0.451277 0.520597 3.555646
v -0.459012 0.555245 3.774906
v -0.346543 0.235295 3.574995
v -0.240243 0.579820 3.554077
v -0.294750 0.645391 3.729451
v -0.335514 0.333179 3.880719
v -0.143736 0.322859 3.783005
v -0.170174 0.490120 3.845720
vn -0.9713 0.2271 -0.0702
vn -0.5075 0.8482 -0.1519
vn 0.1018 -0.9485 0.3000
vn -0.3131 -0.9012 0.2998
vn 0.8660 0.4970 -0.0552
vn -0.7493 -0.3146 -0.5828
vn -0.0897 -0.0328 -0.9954
vn -0.2497 0.8790 -0.4063
vn 0.5464 -0.8158 -0.1893
vn 0.9877 0.1563 -0.0005
vn -0.1172 0.4454 0.8876
vn 0.4277 -0.2573 0.8665
vn -0.6799 -0.0290 0.7327
vt 0.550384 0.206938
vt 0.375000 0.305791
vt 0.375000 0.049496
vt 0.180791 0.500000
vt 0.330928 0.574320
vt 0.125000 0.700504
vt 0.804283 0.500000
vt 0.842867 0.681766
vt 0.658516 0.626313
vt 0.875000 0.500000
vt 0.501754 0.540833
vt 0.565165 0.799791
vt 0.325310 0.750000
vt 0.604031 0.069198
vt 0.375000 1.000000
vt 0.375000 0.799690
vt 0.578028 1.000000
vt 0.615335 0.592735
vt 0.589707 0.775249
vt 0.581909 0.353207
s 0
g Cube_Material
usemtl Material
f 420/711/442 422/712/442 421/713/442
f 422/714/443 425/715/443 421/716/443
f 426/717/444 423/718/444 427/719/444
f 423/718/445 426/717/445 420/720/445
f 428/721/446 419/722/446 424/723/446 425/715/446
f 421/713/447 423/724/447 420/711/447
f 421/725/448 424/726/448 419/722/448 423/727/448
f 425/715/449 424/723/449 421/716/449
f 427/728/450 423/718/450 419/729/450
f 419/722/451 428/721/451 427/728/451
f 428/721/452 425/715/452 422/712/452 426/730/452
f 428/721/453 426/730/453 427/728/453
f 422/712/454 420/711/454 426/730/454
o Cube
v -3.403811 0.170600 -1.283920
v -3.278595 0.124961 -1.046084
v -3.447731 0.117620 -1.068966
v -3.378285 0.232101 -1.000521
v -3.294957 0.078516 -1.201780
v -3.498547 0.210773 -1.172707
v -3.459279 0.296381 -1.080191
v -3.226781 0.260986 -1.105107
v -3.276742 0.279350 -1.240937
v -3.339771 0.350940 -1.164461
vn -0.0987 -0.4658 0.8793
vn -0.7015 -0.0006 0.7127
vn 0.9205 -0.1535 -0.3593
vn 0.9355 -0.3533 0.0071
vn -0.5394 0.6430 -0.5438
vn 0.0030 -0.9584 0.2856
vn -0.5491 -0.7785 -0.3041
vn -0.9088 -0.0326 0.4159
vn 0.4696 -0.2098 -0.8576
vn -0.2508 0.5949 -0.7636
vn 0.1828 0.7751 0.6048
vn 0.6615 0.7360 -0.1438
vn 0.5416 0.1524 0.8267
vt 0.550384 0.206938
vt 0.375000 0.305791
vt 0.375000 0.049496
vt 0.180791 0.500000
vt 0.330928 0.574320
vt 0.125000 0.700504
vt 0.804283 0.500000
vt 0.842867 0.681766
vt 0.658516 0.626313
vt 0.875000 0.500000
vt 0.501754 0.540833
vt 0.565165 0.799791
vt 0.325310 0.750000
vt 0.604031 0.069198
vt 0.375000 1.000000
vt 0.375000 0.799690
vt 0.578028 1.000000
vt 0.615335 0.592735
vt 0.589707 0.775249
vt 0.581909 0.353207
s 0
g Cube_Material
usemtl Material
f 430/731/455 432/732/455 431/733/455
f 432/734/456 435/735/456 431/736/456
f 436/737/457 433/738/457 437/739/457
f 433/738/458 436/737/458 430/740/458
f 438/741/459 429/742/459 434/743/459 435/735/459
f 431/733/460 433/744/460 430/731/460
f 431/745/461 434/746/461 429/742/461 433/747/461
f 435/735/462 434/743/462 431/736/462
f 437/748/463 433/738/463 429/749/463
f 429/742/464 438/741/464 437/748/464
f 438/741/465 435/735/465 432/732/465 436/750/465
f 438/741/466 436/750/466 437/748/466
f 432/732/467 430/731/467 436/750/467
o Cube
v -0.546304 -0.057375 3.685019
v -0.724768 0.027718 3.441699
v -0.638116 0.153688 3.565060
v -0.807168 0.117491 3.569055
v -0.570150 -0.063146 3.497391
v -0.621967 0.094576 3.724333
v -0.772810 0.108997 3.714934
v -0.814619 -0.094639 3.539585
v -0.714571 -0.159249 3.657745
v -0.803569 -0.067824 3.716791
vn -0.1752 0.7477 -0.6405
vn -0.2058 0.9729 0.1051
vn 0.0261 -0.8676 -0.4965
vn -0.0615 -0.5956 -0.8009
vn 0.0534 -0.1058 0.9929
vn 0.5088 0.3977 -0.7635
vn 0.9258 0.3748 -0.0491
vn 0.0684 0.9376 0.3410
vn 0.5222 -0.8518 -0.0402
vn 0.1275 -0.4475 0.8851
vn -0.9871 0.0875 0.1338
vn -0.6571 -0.7382 0.1527
vn -0.7971 0.1105 -0.5936
vt 0.550384 0.206938
vt 0.375000 0.305791
vt 0.375000 0.049496
vt 0.180791 0.500000
vt 0.330928 0.574320
vt 0.125000 0.700504
vt 0.804283 0.500000
vt 0.842867 0.681766
vt 0.658516 0.626313
vt 0.875000 0.500000
vt 0.501754 0.540833
vt 0.565165 0.799791
vt 0.325310 0.750000
vt 0.604031 0.069198
vt 0.375000 1.000000
vt 0.375000 0.799690
vt 0.578028 1.000000
vt 0.615335 0.592735
vt 0.589707 0.775249
vt 0.581909 0.353207
s 0
g Cube_Material
usemtl Material
f 440/751/468 442/752/468 441/753/468
f 442/754/469 445/755/469 441/756/469
f 446/757/470 443/758/470 447/759/470
f 443/758/471 446/757/471 440/760/471
f 448/761/472 439/762/472 444/763/472 445/755/472
f 441/753/473 443/764/473 440/751/473
f 441/765/474 444/766/474 439/762/474 443/767/474
f 445/755/475 444/763/475 441/756/475
f 447/768/476 443/758/476 439/769/476
f 439/762/477 448/761/477 447/768/477
f 448/761/478 445/755/478 442/752/478 446/770/478
f 448/761/479 446/770/479 447/768/479
f 442/752/480 440/751/480 446/770/480
o Cube
v -2.909581 0.569254 1.220363
v -3.103650 0.804120 1.298107
v -3.004519 0.694135 1.428094
v -3.174227 0.675948 1.397309
v -2.947407 0.754614 1.205329
v -2.978231 0.532946 1.376906
v -3.129354 0.532253 1.395513
v -3.189579 0.693096 1.183622
v -3.082584 0.578716 1.122142
v -3.164747 0.518387 1.219563
vn -0.2016 0.6665 0.7177
vn -0.1713 -0.0658 0.9830
vn -0.0339 0.4484 -0.8932
vn -0.1362 0.7603 -0.6351
vn 0.1234 -0.9909 -0.0545
vn 0.4618 0.8189 0.3407
vn 0.9294 0.1362 0.3429
vn 0.1185 -0.2829 0.9518
vn 0.4948 0.0305 -0.8685
vn 0.1801 -0.8970 -0.4036
vn -0.9719 -0.1994 0.1249
vn -0.6637 -0.2401 -0.7084
vn -0.8353 0.5400 0.1033
vt 0.550384 0.206938
vt 0.375000 0.305791
vt 0.375000 0.049496
vt 0.180791 0.500000
vt 0.330928 0.574320
vt 0.125000 0.700504
vt 0.804283 0.500000
vt 0.842867 0.681766
vt 0.658516 0.626313
vt 0.875000 0.500000
vt 0.501754 0.540833
vt 0.565165 0.799791
vt 0.325310 0.750000
vt 0.604031 0.069198
vt 0.375000 1.000000
vt 0.375000 0.799690
vt 0.578028 1.000000
vt 0.615335 0.592735
vt 0.589707 0.775249
vt 0.581909 0.353207
s 0
g Cube_Material
usemtl Material
f 450/771/481 452/772/481 451/773/481
f 452/774/482 455/775/482 451/776/482
f 456/777/483 453/778/483 457/779/483
f 453/778/484 456/777/484 450/780/484
f 458/781/485 449/782/485 454/783/485 455/775/485
f 451/773/486 453/784/486 450/771/486
f 451/785/487 454/786/487 449/782/487 453/787/487
f 455/775/488 454/783/488 451/776/488
f 457/788/489 453/778/489 449/789/489
f 449/782/490 458/781/490 457/788/490
f 458/781/491 455/775/491 452/772/491 456/790/491
f 458/781/492 456/790/492 457/788/492
f 452/772/493 450/771/493 456/790/493
o Cube
v -0.440588 0.312194 3.267281
v -0.410240 0.148231 3.464803
v -0.355525 0.300679 3.463310
v -0.271438 0.186873 3.445806
v -0.511051 0.222863 3.374030
v -0.319068 0.346992 3.335546
v -0.230930 0.260193 3.354694
v -0.365200 0.081237 3.339654
v -0.396957 0.158922 3.229700
v -0.283496 0.167862 3.251681
vn 0.1473 -0.0432 0.9882
vn 0.6725 0.4012 0.6219
vn -0.7033 -0.6603 -0.2634
vn -0.6709 -0.7267 0.1476
vn 0.4365 0.4511 -0.7785
vn -0.5637 0.2101 0.7988
vn -0.4869 0.8338 0.2603
vn 0.5894 0.6909 0.4186
vn -0.7991 -0.0814 -0.5956
vn 0.1615 0.2781 -0.9469
vn 0.7995 -0.6006 0.0092
vn 0.1779 -0.7787 -0.6016
vn 0.2939 -0.7946 0.5312
vt 0.550384 0.206938
vt 0.375000 0.305791
vt 0.375000 0.049496
vt 0.180791 0.500000
vt 0.330928 0.574320
vt 0.125000 0.700504
vt 0.804283 0.500000
vt 0.842867 0.681766
vt 0.658516 0.626313
vt 0.875000 0.500000
vt 0.501754 0.540833
vt 0.565165 0.799791
vt 0.325310 0.750000
vt 0.604031 0.069198
vt 0.375000 1.000000
vt 0.375000 0.799690
vt 0.578028 1.000000
vt 0.615335 0.592735
vt 0.589707 0.775249
vt 0.581909 0.353207
s 0
g Cube_Material
usemtl Material
f 460/791/494 462/792/494 461/793/494
f 462/794/495 465/795/495 461/796/495
f 466/797/496 463/798/496 467/799/496
f 463/798/497 466/797/497 460/800/497
f 468/801/498 459/802/498 464/803/498 465/795/498
f 461/793/499 463/804/499 460/791/499
f 461/805/500 464/806/500 459/802/500 463/807/500
f 465/795/501 464/803/501 461/796/501
f 467/808/502 463/798/502 459/809/502
f 459/802/503 468/801/503 467/808/503
f 468/801/504 465/795/504 462/792/504 466/810/504
f 468/801/505 466/810/505 467/808/505
f 462/792/506 460/791/506 466/810/506
o Cube
v 0.112088 0.281824 -2.604483
v 0.062056 0.403205 -2.400296
v -0.004640 0.272740 -2.441144
v -0.064519 0.392163 -2.450125
v 0.164071 0.334908 -2.478206
v -0.016475 0.257207 -2.571828
v -0.090713 0.346546 -2.553770
v 0.054720 0.491859 -2.508214
v 0.097620 0.434427 -2.616543
v -0.011072 0.439836 -2.619098
vn -0.3559 -0.1087 0.9282
vn -0.8368 -0.3907 0.3835
vn 0.8186 0.5741 0.0198
vn 0.7043 0.5713 0.4214
vn -0.3046 -0.2302 -0.9242
vn 0.3434 -0.4360 0.8319
vn 0.3130 -0.9341 0.1717
vn -0.7464 -0.6495 0.1448
vn 0.9149 0.0551 -0.3998
vn 0.0196 -0.0769 -0.9968
vn -0.7032 0.7107 -0.0219
vn 0.0549 0.8910 -0.4506
vn -0.3060 0.7253 0.6166
vt 0.550384 0.206938
vt 0.375000 0.305791
vt 0.375000 0.049496
vt 0.180791 0.500000
vt 0.330928 0.574320
vt 0.125000 0.700504
vt 0.804283 0.500000
vt 0.842867 0.681766
vt 0.658516 0.626313
vt 0.875000 0.500000
vt 0.501754 0.540833
vt 0.565165 0.799791
vt 0.325310 0.750000
vt 0.604031 0.069198
vt 0.375000 1.000000
vt 0.375000 0.799690
vt 0.578028 1.000000
vt 0.615335 0.592735
vt 0.589707 0.775249
vt 0.581909 0.353207
s 0
g Cube_Material
usemtl Material
f 470/811/507 472/812/507 471/813/507
f 472/814/508 475/815/508 471/816/508
f 476/817/509 473/818/509 477/819/509
f 473/818/510 476/817/510 470/820/510
f 478/821/511 469/822/511 474/823/511 475/815/511
f 471/813/512 473/824/512 470/811/512
f 471/825/513 474/826/513 469/822/513 473/827/513
f 475/815/514 474/823/514 471/816/514
f 477/828/515 473/818/515 469/829/515
f 469/822/516 478/821/516 477/828/516
f 478/821/517 475/815/517 472/812/517 476/830/517
f 478/821/518 476/830/518 477/828/518
f 472/812/519 470/811/519 476/830/519
o Cube
v -1.965084 0.337115 1.779161
v -2.173967 0.401318 1.637438
v -2.020811 0.401451 1.581045
v -2.092966 0.521115 1.614415
v -2.103351 0.290096 1.720992
v -1.923438 0.433081 1.679115
v -1.983173 0.543712 1.669067
v -2.176939 0.479168 1.765687
v -2.077109 0.434006 1.851825
v -2.044572 0.535810 1.804720
vn -0.3451 0.0532 -0.9371
vn 0.3289 0.4324 -0.8395
vn -0.6950 -0.4101 0.5905
vn -0.8899 -0.3987 0.2214
vn 0.8001 0.3352 0.4975
vn -0.2532 -0.6787 -0.6894
vn 0.5146 -0.7624 -0.3923
vn 0.6355 0.2777 -0.7205
vn -0.0886 -0.6612 0.7450
vn 0.6274 0.1528 0.7636
vn -0.3132 0.9497 0.0063
vn -0.4326 0.4888 0.7576
vn -0.8131 0.4891 -0.3157
vt 0.550384 0.206938
vt 0.375000 0.305791
vt 0.375000 0.049496
vt 0.180791 0.500000
vt 0.330928 0.574320
vt 0.125000 0.700504
vt 0.804283 0.500000
vt 0.842867 0.681766
vt 0.658516 0.626313
vt 0.875000 0.500000
vt 0.501754 0.540833
vt 0.565165 0.799791
vt 0.325310 0.750000
vt 0.604031 0.069198
vt 0.375000 1.000000
vt 0.375000 0.799690
vt 0.578028 1.000000
vt 0.615335 0.592735
vt 0.589707 0.775249
vt 0.581909 0.353207
s 0
g Cube_Material
usemtl Material
f 480/831/520 482/832/520 481/833/520
f 482/834/521 485/835/521 481/836/521
f 486/837/522 483/838/522 487/839/522
f 483/838/523 486/837/523 480/840/523
f 488/841/524 479/842/524 484/843/524 485/835/524
f 481/833/525 483/844/525 480/831/525
f 481/845/526 484/846/526 479/842/526 483/847/526
f 485/835/527 484/843/527 481/836/527
f 487/848/528 483/838/528 479/849/528
f 479/842/529 488/841/529 487/848/529
f 488/841/530 485/835/530 482/832/530 486/850/530
f 488/841/531 486/850/531 487/848/531
f 482/832/532 480/831/532 486/850/532
o Cube
v 1.684006 0.407236 1.904005
v 1.483508 0.512552 1.566216
v 1.541036 0.673350 1.755358
v 1.335213 0.590761 1.721678
v 1.689666 0.421907 1.659055
v 1.545933 0.578641 1.955381
v 1.353805 0.566218 1.913947
v 1.380494 0.323727 1.659118
v 1.500171 0.245825 1.823336
v 1.355697 0.334591 1.890461
vn -0.2139 0.7754 -0.5941
vn -0.3895 0.9081 0.1536
vn 0.2510 -0.7909 -0.5581
vn 0.1601 -0.5047 -0.8483
vn -0.0695 -0.2055 0.9762
vn 0.5321 0.5583 -0.6365
vn 0.8412 0.5248 0.1304
vn -0.1496 0.8922 0.4261
vn 0.6667 -0.7447 -0.0292
vn 0.0790 -0.5162 0.8528
vn -0.9957 -0.0912 -0.0175
vn -0.5291 -0.8484 -0.0169
vn -0.7119 0.0435 -0.7009
vt 0.550384 0.206938
vt 0.375000 0.305791
vt 0.375000 0.049496
vt 0.180791 0.500000
vt 0.330928 0.574320
vt 0.125000 0.700504
vt 0.804283 0.500000
vt 0.842867 0.681766
vt 0.658516 0.626313
vt 0.875000 0.500000
vt 0.501754 0.540833
vt 0.565165 0.799791
vt 0.325310 0.750000
vt 0.604031 0.069198
vt 0.375000 1.000000
vt 0.375000 0.799690
vt 0.578028 1.000000
vt 0.615335 0.592735
vt 0.589707 0.775249
vt 0.581909 0.353207
s 0
g Cube_Material
usemtl Material
f 490/851/533 492/852/533 491/853/533
f 492/854/534 495/855/534 491/856/534
f 496/857/535 493/858/535 497/859/535
f 493/858/536 496/857/536 490/860/536
f 498/861/537 489/862/537 494/863/537 495/855/537
f 491/853/538 493/864/538 490/851/538
f 491/865/539 494/866/539 489/862/539 493/867/539
f 495/855/540 494/863/540 491/856/540
f 497/868/541 493/858/541 489/869/541
f 489/862/542 498/861/542 497/868/542
f 498/861/543 495/855/543 492/852/543 496/870/543
f 498/861/544 496/870/544 497/868/544
f 492/852/545 490/851/545 496/870/545
o Cube
v 0.777962 -0.350397 -2.161539
v 0.705879 -0.313081 -1.932437
v 0.686674 -0.213334 -2.045917
v 0.779707 -0.199503 -1.950383
v 0.693734 -0.396942 -2.050818
v 0.781853 -0.217493 -2.137714
v 0.842251 -0.175915 -2.045645
v 0.840059 -0.353121 -1.931427
v 0.876760 -0.390476 -2.050480
v 0.917677 -0.291698 -2.029309
vn -0.6513 0.5119 0.5602
vn -0.2331 0.9686 0.0868
vn 0.0330 -0.9507 0.3085
vn -0.2374 -0.7810 0.5776
vn 0.6785 0.2163 -0.7020
vn -0.9905 -0.0416 0.1311
vn -0.7529 0.0520 -0.6561
vn -0.2244 0.9349 -0.2750
vn 0.0335 -0.9302 -0.3655
vn 0.7119 -0.1477 -0.6866
vn 0.6435 0.4091 0.6470
vn 0.8204 -0.4224 0.3854
vn 0.0329 0.1351 0.9903
vt 0.550384 0.206938
vt 0.375000 0.305791
vt 0.375000 0.049496
vt 0.180791 0.500000
vt 0.330928 0.574320
vt 0.125000 0.700504
vt 0.804283 0.500000
vt 0.842867 0.681766
vt 0.658516 0.626313
vt 0.875000 0.500000
vt 0.501754 0.540833
vt 0.565165 0.799791
vt 0.325310 0.750000
vt 0.604031 0.069198
vt 0.375000 1.000000
vt 0.375000 0.799690
vt 0.578028 1.000000
vt 0.615335 0.592735
vt 0.589707 0.775249
vt 0.581909 0.353207
s 0
g Cube_Material
usemtl Material
f 500/871/546 502/872/546 501/873/546
f 502/874/547 505/875/547 501/876/547
f 506/877/548 503/878/548 507/879/548
f 503/878/549 506/877/549 500/880/549
f 508/881/550 499/882/550 504/883/550 505/875/550
f 501/873/551 503/884/551 500/871/551
f 501/885/552 504/886/552 499/882/552 503/887/552
f 505/875/553 504/883/553 501/876/553
f 507/888/554 503/878/554 499/889/554
f 499/882/555 508/881/555 507/888/555
f 508/881/556 505/875/556 502/872/556 506/890/556
f 508/881/557 506/890/557 507/888/557
f 502/872/558 500/871/558 506/890/558
o Cube
v -0.833225 0.332408 -1.548300
v -1.222951 0.360450 -1.721696
v -1.144663 0.494345 -1.503305
v -1.285932 0.305692 -1.496321
v -0.971593 0.393890 -1.757205
v -0.987574 0.381033 -1.374366
v -1.153720 0.260692 -1.346699
v -1.167117 0.122607 -1.690584
v -0.948617 0.100329 -1.626654
v -1.062460 0.073221 -1.474829
vn -0.7994 0.5957 -0.0787
vn -0.5890 0.4656 0.6605
vn 0.2236 -0.3814 -0.8970
vn -0.1178 -0.1559 -0.9807
vn 0.5521 -0.3770 0.7436
vn -0.1810 0.8660 -0.4661
vn 0.4663 0.8832 0.0491
vn -0.2616 0.5444 0.7970
vn 0.7898 -0.1966 -0.5810
vn 0.7275 -0.5148 0.4536
vn -0.7035 -0.6496 0.2883
vn -0.0399 -0.9780 -0.2045
vn -0.9131 -0.2559 -0.3173
vt 0.550384 0.206938
vt 0.375000 0.305791
vt 0.375000 0.049496
vt 0.180791 0.500000
vt 0.330928 0.574320
vt 0.125000 0.700504
vt 0.804283 0.500000
vt 0.842867 0.681766
vt 0.658516 0.626313
vt 0.875000 0.500000
vt 0.501754 0.540833
vt 0.565165 0.799791
vt 0.325310 0.750000
vt 0.604031 0.069198
vt 0.375000 1.000000
vt 0.375000 0.799690
vt 0.578028 1.000000
vt 0.615335 0.592735
vt 0.589707 0.775249
vt 0.581909 0.353207
s 0
g Cube_Material
usemtl Material
f 510/891/559 512/892/559 511/893/559
f 512/894/560 515/895/560 511/896/560
f 516/897/561 513/898/561 517/899/561
f 513/898/562 516/897/562 510/900/562
f 518/901/563 509/902/563 514/903/563 515/895/563
f 511/893/564 513/904/564 510/891/564
f 511/905/565 514/906/565 509/902/565 513/907/565
f 515/895/566 514/903/566 511/896/566
f 517/908/567 513/898/567 509/909/567
f 509/902/568 518/901/568 517/908/568
f 518/901/569 515/895/569 512/892/569 516/910/569
f 518/901/570 516/910/570 517/908/570
f 512/892/571 510/891/571 516/910/571
o Cube
v 0.874620 0.168957 -1.321164
v 1.041703 0.363057 -1.417016
v 1.085181 0.198298 -1.398967
v 1.131355 0.307159 -1.305330
v 0.900469 0.282768 -1.437864
v 1.017132 0.129959 -1.285589
v 1.094652 0.214924 -1.219959
v 0.979004 0.412743 -1.281292
v 0.874610 0.320300 -1.236920
v 0.975574 0.303130 -1.169477
vn 0.8063 0.1501 -0.5721
vn 0.9247 -0.3805 -0.0136
vn -0.6973 0.6831 -0.2173
vn -0.3833 0.7960 -0.4685
vn -0.2374 -0.5796 0.7795
vn 0.1792 -0.0603 -0.9820
vn -0.1352 -0.7493 -0.6483
vn 0.7288 -0.6843 0.0250
vn -0.9868 0.0788 -0.1417
vn -0.5545 -0.4048 0.7271
vn 0.5521 0.5239 0.6486
vn -0.3234 0.6807 0.6574
vn 0.5648 0.8242 -0.0408
vt 0.550384 0.206938
vt 0.375000 0.305791
vt 0.375000 0.049496
vt 0.180791 0.500000
vt 0.330928 0.574320
vt 0.125000 0.700504
vt 0.804283 0.500000
vt 0.842867 0.681766
vt 0.658516 0.626313
vt 0.875000 0.500000
vt 0.501754 0.540833
vt 0.565165 0.799791
vt 0.325310 0.750000
vt 0.604031 0.069198
vt 0.375000 1.000000
vt 0.375000 0.799690
vt 0.578028 1.000000
vt 0.615335 0.592735
vt 0.589707 0.775249
vt 0.581909 0.353207
s 0
g Cube_Material
usemtl Material
f 520/911/572 522/912/572 521/913/572
f 522/914/573 525/915/573 521/916/573
f 526/917/574 523/918/574 527/919/574
f 523/918/575 526/917/575 520/920/575
f 528/921/576 519/922/576 524/923/576 525/915/576
f 521/913/577 523/924/577 520/911/577
f 521/925/578 524/926/578 519/922/578 523/927/578
f 525/915/579 524/923/579 521/916/579
f 527/928/580 523/918/580 519/929/580
f 519/922/581 528/921/581 527/928/581
f 528/921/582 525/915/582 522/912/582 526/930/582
f 528/921/583 526/930/583 527/928/583
f 522/912/584 520/911/584 526/930/584
