# Blender 4.1.0
# www.blender.org
mtllib Explosion20030.mtl
o Circle
v -0.024615 0.096888 -1.522372
v -0.024615 0.242742 -1.522372
v 0.122545 0.096888 -1.515142
v 0.122545 0.242742 -1.515142
v 0.268288 0.096888 -1.493523
v 0.268288 0.242742 -1.493523
v 0.411211 0.096888 -1.457723
v 0.411211 0.242742 -1.457723
v 0.549936 0.096888 -1.408086
v 0.549936 0.242742 -1.408086
v 0.683127 0.096888 -1.345092
v 0.683127 0.242742 -1.345092
v 0.809503 0.096888 -1.269345
v 0.809503 0.242742 -1.269345
v 0.927846 0.096888 -1.181576
v 0.927846 0.242742 -1.181576
v 1.037016 0.096888 -1.082630
v 1.037016 0.242742 -1.082630
v 1.135962 0.096888 -0.973460
v 1.135962 0.242742 -0.973460
v 1.223731 0.096888 -0.855117
v 1.223731 0.242742 -0.855117
v 1.299478 0.096888 -0.728741
v 1.299478 0.242742 -0.728741
v 1.362473 0.096888 -0.595549
v 1.362473 0.242742 -0.595549
v 1.412110 0.096888 -0.456824
v 1.412110 0.242742 -0.456824
v 1.447910 0.096888 -0.313902
v 1.447910 0.242742 -0.313902
v 1.469529 0.096888 -0.168159
v 1.469529 0.242742 -0.168159
v 1.476758 0.096888 -0.020998
v 1.476758 0.242742 -0.020998
v 1.469529 0.096888 0.126162
v 1.469529 0.242742 0.126162
v 1.447910 0.096888 0.271905
v 1.447910 0.242742 0.271905
v 1.412110 0.096888 0.414827
v 1.412110 0.242742 0.414827
v 1.362473 0.096888 0.553553
v 1.362473 0.242742 0.553553
v 1.299478 0.096888 0.686744
v 1.299478 0.242742 0.686744
v 1.223731 0.096888 0.813120
v 1.223731 0.242742 0.813120
v 1.135962 0.096888 0.931463
v 1.135962 0.242742 0.931463
v 1.037016 0.096888 1.040633
v 1.037016 0.242742 1.040633
v 0.927846 0.096888 1.139579
v 0.927846 0.242742 1.139579
v 0.809503 0.096888 1.227348
v 0.809503 0.242742 1.227348
v 0.683127 0.096888 1.303095
v 0.683127 0.242742 1.303095
v 0.549936 0.096888 1.366090
v 0.549936 0.242742 1.366090
v 0.411211 0.096888 1.415727
v 0.411211 0.242742 1.415727
v 0.268288 0.096888 1.451527
v 0.268288 0.242742 1.451527
v 0.122545 0.096888 1.473146
v 0.122545 0.242742 1.473146
v -0.024615 0.096888 1.480376
v -0.024615 0.242742 1.480376
v -0.171775 0.096888 1.473146
v -0.171775 0.242742 1.473146
v -0.317519 0.096888 1.451527
v -0.317519 0.242742 1.451527
v -0.460441 0.096888 1.415727
v -0.460441 0.242742 1.415727
v -0.599166 0.096888 1.366090
v -0.599166 0.242742 1.366090
v -0.732358 0.096888 1.303095
v -0.732358 0.242742 1.303095
v -0.858734 0.096888 1.227348
v -0.858734 0.242742 1.227348
v -0.977076 0.096888 1.139579
v -0.977076 0.242742 1.139579
v -1.086246 0.096888 1.040633
v -1.086246 0.242742 1.040633
v -1.185192 0.096888 0.931463
v -1.185192 0.242742 0.931463
v -1.272961 0.096888 0.813120
v -1.272961 0.242742 0.813120
v -1.348708 0.096888 0.686744
v -1.348708 0.242742 0.686744
v -1.411703 0.096888 0.553553
v -1.411703 0.242742 0.553553
v -1.461340 0.096888 0.414827
v -1.461340 0.242742 0.414827
v -1.497140 0.096888 0.271905
v -1.497140 0.242742 0.271905
v -1.518759 0.096888 0.126162
v -1.518759 0.242742 0.126162
v -1.525989 0.096888 -0.020998
v -1.525989 0.242742 -0.020998
v -1.518759 0.096888 -0.168159
v -1.518759 0.242742 -0.168159
v -1.497140 0.096888 -0.313902
v -1.497140 0.242742 -0.313902
v -1.461340 0.096888 -0.456824
v -1.461340 0.242742 -0.456824
v -1.411703 0.096888 -0.595549
v -1.411703 0.242742 -0.595549
v -1.348708 0.096888 -0.728741
v -1.348708 0.242742 -0.728741
v -1.272961 0.096888 -0.855117
v -1.272961 0.242742 -0.855117
v -1.185192 0.096888 -0.973460
v -1.185192 0.242742 -0.973460
v -1.086246 0.096888 -1.082630
v -1.086246 0.242742 -1.082630
v -0.977076 0.096888 -1.181576
v -0.977076 0.242742 -1.181576
v -0.858734 0.096888 -1.269345
v -0.858734 0.242742 -1.269345
v -0.732358 0.096888 -1.345092
v -0.732358 0.242742 -1.345092
v -0.599166 0.096888 -1.408086
v -0.599166 0.242742 -1.408086
v -0.460441 0.096888 -1.457723
v -0.460441 0.242742 -1.457723
v -0.317519 0.096888 -1.493523
v -0.317519 0.242742 -1.493523
v -0.171775 0.096888 -1.515142
v -0.171775 0.242742 -1.515142
vn 0.0491 -0.0000 -0.9988
vn 0.1467 -0.0000 -0.9892
vn 0.2430 -0.0000 -0.9700
vn 0.3369 -0.0000 -0.9415
vn 0.4276 -0.0000 -0.9040
vn 0.5141 -0.0000 -0.8577
vn 0.5957 -0.0000 -0.8032
vn 0.6716 -0.0000 -0.7410
vn 0.7410 -0.0000 -0.6716
vn 0.8032 -0.0000 -0.5957
vn 0.8577 -0.0000 -0.5141
vn 0.9040 -0.0000 -0.4276
vn 0.9415 -0.0000 -0.3369
vn 0.9700 -0.0000 -0.2430
vn 0.9892 -0.0000 -0.1467
vn 0.9988 -0.0000 -0.0491
vn 0.9988 -0.0000 0.0491
vn 0.9892 -0.0000 0.1467
vn 0.9700 -0.0000 0.2430
vn 0.9415 -0.0000 0.3369
vn 0.9040 -0.0000 0.4276
vn 0.8577 -0.0000 0.5141
vn 0.8032 -0.0000 0.5957
vn 0.7410 -0.0000 0.6716
vn 0.6716 -0.0000 0.7410
vn 0.5957 -0.0000 0.8032
vn 0.5141 -0.0000 0.8577
vn 0.4276 -0.0000 0.9040
vn 0.3369 -0.0000 0.9415
vn 0.2430 -0.0000 0.9700
vn 0.1467 -0.0000 0.9892
vn 0.0491 -0.0000 0.9988
vn -0.0491 -0.0000 0.9988
vn -0.1467 -0.0000 0.9892
vn -0.2430 -0.0000 0.9700
vn -0.3369 -0.0000 0.9415
vn -0.4276 -0.0000 0.9040
vn -0.5141 -0.0000 0.8577
vn -0.5957 -0.0000 0.8032
vn -0.6716 -0.0000 0.7410
vn -0.7410 -0.0000 0.6716
vn -0.8032 -0.0000 0.5957
vn -0.8577 -0.0000 0.5141
vn -0.9040 -0.0000 0.4276
vn -0.9415 -0.0000 0.3369
vn -0.9700 -0.0000 0.2430
vn -0.9892 -0.0000 0.1467
vn -0.9988 -0.0000 0.0491
vn -0.9988 -0.0000 -0.0491
vn -0.9892 -0.0000 -0.1467
vn -0.9700 -0.0000 -0.2430
vn -0.9415 -0.0000 -0.3369
vn -0.9040 -0.0000 -0.4276
vn -0.8577 -0.0000 -0.5141
vn -0.8032 -0.0000 -0.5957
vn -0.7410 -0.0000 -0.6716
vn -0.6716 -0.0000 -0.7410
vn -0.5957 -0.0000 -0.8032
vn -0.5141 -0.0000 -0.8577
vn -0.4276 -0.0000 -0.9040
vn -0.3369 -0.0000 -0.9415
vn -0.2430 -0.0000 -0.9700
vn -0.1467 -0.0000 -0.9892
vn -0.0491 -0.0000 -0.9988
vt 1.000000 0.500000
vt 1.000000 1.000000
vt 0.984375 1.000000
vt 0.984375 0.500000
vt 0.968750 1.000000
vt 0.968750 0.500000
vt 0.953125 1.000000
vt 0.953125 0.500000
vt 0.937500 1.000000
vt 0.937500 0.500000
vt 0.921875 1.000000
vt 0.921875 0.500000
vt 0.906250 1.000000
vt 0.906250 0.500000
vt 0.890625 1.000000
vt 0.890625 0.500000
vt 0.875000 1.000000
vt 0.875000 0.500000
vt 0.859375 1.000000
vt 0.859375 0.500000
vt 0.843750 1.000000
vt 0.843750 0.500000
vt 0.828125 1.000000
vt 0.828125 0.500000
vt 0.812500 1.000000
vt 0.812500 0.500000
vt 0.796875 1.000000
vt 0.796875 0.500000
vt 0.781250 1.000000
vt 0.781250 0.500000
vt 0.765625 1.000000
vt 0.765625 0.500000
vt 0.750000 1.000000
vt 0.750000 0.500000
vt 0.734375 1.000000
vt 0.734375 0.500000
vt 0.718750 1.000000
vt 0.718750 0.500000
vt 0.703125 1.000000
vt 0.703125 0.500000
vt 0.687500 1.000000
vt 0.687500 0.500000
vt 0.671875 1.000000
vt 0.671875 0.500000
vt 0.656250 1.000000
vt 0.656250 0.500000
vt 0.640625 1.000000
vt 0.640625 0.500000
vt 0.625000 1.000000
vt 0.625000 0.500000
vt 0.609375 1.000000
vt 0.609375 0.500000
vt 0.593750 1.000000
vt 0.593750 0.500000
vt 0.578125 1.000000
vt 0.578125 0.500000
vt 0.562500 1.000000
vt 0.562500 0.500000
vt 0.546875 1.000000
vt 0.546875 0.500000
vt 0.531250 1.000000
vt 0.531250 0.500000
vt 0.515625 1.000000
vt 0.515625 0.500000
vt 0.500000 1.000000
vt 0.500000 0.500000
vt 0.484375 1.000000
vt 0.484375 0.500000
vt 0.468750 1.000000
vt 0.468750 0.500000
vt 0.453125 1.000000
vt 0.453125 0.500000
vt 0.437500 1.000000
vt 0.437500 0.500000
vt 0.421875 1.000000
vt 0.421875 0.500000
vt 0.406250 1.000000
vt 0.406250 0.500000
vt 0.390625 1.000000
vt 0.390625 0.500000
vt 0.375000 1.000000
vt 0.375000 0.500000
vt 0.359375 1.000000
vt 0.359375 0.500000
vt 0.343750 1.000000
vt 0.343750 0.500000
vt 0.328125 1.000000
vt 0.328125 0.500000
vt 0.312500 1.000000
vt 0.312500 0.500000
vt 0.296875 1.000000
vt 0.296875 0.500000
vt 0.281250 1.000000
vt 0.281250 0.500000
vt 0.265625 1.000000
vt 0.265625 0.500000
vt 0.250000 1.000000
vt 0.250000 0.500000
vt 0.234375 1.000000
vt 0.234375 0.500000
vt 0.218750 1.000000
vt 0.218750 0.500000
vt 0.203125 1.000000
vt 0.203125 0.500000
vt 0.187500 1.000000
vt 0.187500 0.500000
vt 0.171875 1.000000
vt 0.171875 0.500000
vt 0.156250 1.000000
vt 0.156250 0.500000
vt 0.140625 1.000000
vt 0.140625 0.500000
vt 0.125000 1.000000
vt 0.125000 0.500000
vt 0.109375 1.000000
vt 0.109375 0.500000
vt 0.093750 1.000000
vt 0.093750 0.500000
vt 0.078125 1.000000
vt 0.078125 0.500000
vt 0.062500 1.000000
vt 0.062500 0.500000
vt 0.046875 1.000000
vt 0.046875 0.500000
vt 0.031250 1.000000
vt 0.031250 0.500000
vt 0.015625 1.000000
vt 0.015625 0.500000
vt 0.000000 1.000000
vt 0.000000 0.500000
s 0
g Circle_Material.001
usemtl Material.001
f 1/1/1 2/2/1 4/3/1 3/4/1
f 3/4/2 4/3/2 6/5/2 5/6/2
f 5/6/3 6/5/3 8/7/3 7/8/3
f 7/8/4 8/7/4 10/9/4 9/10/4
f 9/10/5 10/9/5 12/11/5 11/12/5
f 11/12/6 12/11/6 14/13/6 13/14/6
f 13/14/7 14/13/7 16/15/7 15/16/7
f 15/16/8 16/15/8 18/17/8 17/18/8
f 17/18/9 18/17/9 20/19/9 19/20/9
f 19/20/10 20/19/10 22/21/10 21/22/10
f 21/22/11 22/21/11 24/23/11 23/24/11
f 23/24/12 24/23/12 26/25/12 25/26/12
f 25/26/13 26/25/13 28/27/13 27/28/13
f 27/28/14 28/27/14 30/29/14 29/30/14
f 29/30/15 30/29/15 32/31/15 31/32/15
f 31/32/16 32/31/16 34/33/16 33/34/16
f 33/34/17 34/33/17 36/35/17 35/36/17
f 35/36/18 36/35/18 38/37/18 37/38/18
f 37/38/19 38/37/19 40/39/19 39/40/19
f 39/40/20 40/39/20 42/41/20 41/42/20
f 41/42/21 42/41/21 44/43/21 43/44/21
f 43/44/22 44/43/22 46/45/22 45/46/22
f 45/46/23 46/45/23 48/47/23 47/48/23
f 47/48/24 48/47/24 50/49/24 49/50/24
f 49/50/25 50/49/25 52/51/25 51/52/25
f 51/52/26 52/51/26 54/53/26 53/54/26
f 53/54/27 54/53/27 56/55/27 55/56/27
f 55/56/28 56/55/28 58/57/28 57/58/28
f 57/58/29 58/57/29 60/59/29 59/60/29
f 59/60/30 60/59/30 62/61/30 61/62/30
f 61/62/31 62/61/31 64/63/31 63/64/31
f 63/64/32 64/63/32 66/65/32 65/66/32
f 65/66/33 66/65/33 68/67/33 67/68/33
f 67/68/34 68/67/34 70/69/34 69/70/34
f 69/70/35 70/69/35 72/71/35 71/72/35
f 71/72/36 72/71/36 74/73/36 73/74/36
f 73/74/37 74/73/37 76/75/37 75/76/37
f 75/76/38 76/75/38 78/77/38 77/78/38
f 77/78/39 78/77/39 80/79/39 79/80/39
f 79/80/40 80/79/40 82/81/40 81/82/40
f 81/82/41 82/81/41 84/83/41 83/84/41
f 83/84/42 84/83/42 86/85/42 85/86/42
f 85/86/43 86/85/43 88/87/43 87/88/43
f 87/88/44 88/87/44 90/89/44 89/90/44
f 89/90/45 90/89/45 92/91/45 91/92/45
f 91/92/46 92/91/46 94/93/46 93/94/46
f 93/94/47 94/93/47 96/95/47 95/96/47
f 95/96/48 96/95/48 98/97/48 97/98/48
f 97/98/49 98/97/49 100/99/49 99/100/49
f 99/100/50 100/99/50 102/101/50 101/102/50
f 101/102/51 102/101/51 104/103/51 103/104/51
f 103/104/52 104/103/52 106/105/52 105/106/52
f 105/106/53 106/105/53 108/107/53 107/108/53
f 107/108/54 108/107/54 110/109/54 109/110/54
f 109/110/55 110/109/55 112/111/55 111/112/55
f 111/112/56 112/111/56 114/113/56 113/114/56
f 113/114/57 114/113/57 116/115/57 115/116/57
f 115/116/58 116/115/58 118/117/58 117/118/58
f 117/118/59 118/117/59 120/119/59 119/120/59
f 119/120/60 120/119/60 122/121/60 121/122/60
f 121/122/61 122/121/61 124/123/61 123/124/61
f 123/124/62 124/123/62 126/125/62 125/126/62
f 125/126/63 126/125/63 128/127/63 127/128/63
f 127/128/64 128/127/64 2/129/64 1/130/64
o Cube
v 5.361292 0.024126 2.365397
v 5.675955 0.670091 2.505630
v 5.601886 0.504203 2.084403
v 5.965117 0.509442 2.260727
v 5.317295 0.422145 2.552150
v 5.619268 0.106736 2.061822
v 5.958084 0.183166 2.132828
v 5.870423 0.372514 2.732616
v 5.677129 0.032913 2.704802
v 5.947324 0.020142 2.518783
vn 0.1749 0.9052 -0.3873
vn 0.4091 0.3254 -0.8525
vn -0.3012 0.0937 0.9489
vn -0.2302 0.4906 0.8404
vn 0.1428 -0.9486 -0.2823
vn -0.5742 0.7911 -0.2106
vn -0.8234 0.0842 -0.5612
vn 0.1908 0.0640 -0.9795
vn -0.6743 -0.3735 0.6371
vn -0.0179 -0.9989 0.0425
vn 0.9904 0.0346 0.1338
vn 0.5179 -0.3584 0.7768
vn 0.6559 0.6794 0.3288
vt 0.550384 0.206938
vt 0.375000 0.305791
vt 0.375000 0.049496
vt 0.180791 0.500000
vt 0.330928 0.574320
vt 0.125000 0.700504
vt 0.804283 0.500000
vt 0.842867 0.681766
vt 0.658516 0.626313
vt 0.875000 0.500000
vt 0.501754 0.540833
vt 0.565165 0.799791
vt 0.325310 0.750000
vt 0.604031 0.069198
vt 0.375000 1.000000
vt 0.375000 0.799690
vt 0.578028 1.000000
vt 0.615335 0.592735
vt 0.589707 0.775249
vt 0.581909 0.353207
s 0
g Cube_Material
usemtl Material
f 130/131/65 132/132/65 131/133/65
f 132/134/66 135/135/66 131/136/66
f 136/137/67 133/138/67 137/139/67
f 133/138/68 136/137/68 130/140/68
f 138/141/69 129/142/69 134/143/69 135/135/69
f 131/133/70 133/144/70 130/131/70
f 131/145/71 134/146/71 129/142/71 133/147/71
f 135/135/72 134/143/72 131/136/72
f 137/148/73 133/138/73 129/149/73
f 129/142/74 138/141/74 137/148/74
f 138/141/75 135/135/75 132/132/75 136/150/75
f 138/141/76 136/150/76 137/148/76
f 132/132/77 130/131/77 136/150/77
o Cube
v 4.609921 0.318238 3.717674
v 3.951669 0.795209 3.711316
v 4.003916 0.381241 4.003505
v 3.749071 0.392756 3.634762
v 4.431204 0.769144 3.791627
v 4.251789 0.063121 3.821425
v 3.938703 0.056837 3.582881
v 4.056681 0.677806 3.270255
v 4.439178 0.471083 3.256571
v 4.169330 0.229175 3.217237
vn -0.7832 0.2896 0.5503
vn -0.7263 -0.4852 0.4868
vn 0.4153 0.7973 -0.4380
vn 0.0920 0.9675 -0.2356
vn 0.3975 -0.8695 -0.2932
vn -0.1064 0.5644 0.8186
vn 0.4198 -0.0685 0.9050
vn -0.4366 -0.6784 0.5909
vn 0.8983 0.3894 -0.2035
vn 0.6330 -0.6338 -0.4445
vn -0.7283 -0.1927 -0.6576
vn 0.0322 0.1253 -0.9916
vn -0.8199 0.4739 -0.3213
vt 0.550384 0.206938
vt 0.375000 0.305791
vt 0.375000 0.049496
vt 0.180791 0.500000
vt 0.330928 0.574320
vt 0.125000 0.700504
vt 0.804283 0.500000
vt 0.842867 0.681766
vt 0.658516 0.626313
vt 0.875000 0.500000
vt 0.501754 0.540833
vt 0.565165 0.799791
vt 0.325310 0.750000
vt 0.604031 0.069198
vt 0.375000 1.000000
vt 0.375000 0.799690
vt 0.578028 1.000000
vt 0.615335 0.592735
vt 0.589707 0.775249
vt 0.581909 0.353207
s 0
g Cube_Material
usemtl Material
f 140/151/78 142/152/78 141/153/78
f 142/154/79 145/155/79 141/156/79
f 146/157/80 143/158/80 147/159/80
f 143/158/81 146/157/81 140/160/81
f 148/161/82 139/162/82 144/163/82 145/155/82
f 141/153/83 143/164/83 140/151/83
f 141/165/84 144/166/84 139/162/84 143/167/84
f 145/155/85 144/163/85 141/156/85
f 147/168/86 143/158/86 139/169/86
f 139/162/87 148/161/87 147/168/87
f 148/161/88 145/155/88 142/152/88 146/170/88
f 148/161/89 146/170/89 147/168/89
f 142/152/90 140/151/90 146/170/90
o Cube
v 5.661038 0.463419 -0.740359
v 5.283763 -0.120847 -1.590895
v 5.580086 -0.394052 -1.032757
v 5.859354 -0.343831 -1.568233
v 5.134473 0.302946 -1.110084
v 5.996767 -0.044750 -0.783736
v 6.234214 -0.168476 -1.243495
v 5.659916 0.338426 -1.810542
v 5.806735 0.706265 -1.376046
v 6.189248 0.413180 -1.478605
vn -0.3397 -0.9034 -0.2619
vn 0.3521 -0.9310 0.0963
vn -0.5827 0.7067 -0.4013
vn -0.7559 0.3566 -0.5490
vn 0.8080 0.3638 0.4635
vn -0.8363 -0.5133 0.1927
vn -0.4304 -0.2547 0.8660
vn 0.4150 -0.8017 0.4301
vn -0.4303 0.8717 0.2344
vn 0.6226 0.6727 0.3997
vn 0.6097 -0.1742 -0.7732
vn 0.3280 0.6634 -0.6725
vn -0.1027 -0.3594 -0.9275
vt 0.550384 0.206938
vt 0.375000 0.305791
vt 0.375000 0.049496
vt 0.180791 0.500000
vt 0.330928 0.574320
vt 0.125000 0.700504
vt 0.804283 0.500000
vt 0.842867 0.681766
vt 0.658516 0.626313
vt 0.875000 0.500000
vt 0.501754 0.540833
vt 0.565165 0.799791
vt 0.325310 0.750000
vt 0.604031 0.069198
vt 0.375000 1.000000
vt 0.375000 0.799690
vt 0.578028 1.000000
vt 0.615335 0.592735
vt 0.589707 0.775249
vt 0.581909 0.353207
s 0
g Cube_Material
usemtl Material
f 150/171/91 152/172/91 151/173/91
f 152/174/92 155/175/92 151/176/92
f 156/177/93 153/178/93 157/179/93
f 153/178/94 156/177/94 150/180/94
f 158/181/95 149/182/95 154/183/95 155/175/95
f 151/173/96 153/184/96 150/171/96
f 151/185/97 154/186/97 149/182/97 153/187/97
f 155/175/98 154/183/98 151/176/98
f 157/188/99 153/178/99 149/189/99
f 149/182/100 158/181/100 157/188/100
f 158/181/101 155/175/101 152/172/101 156/190/101
f 158/181/102 156/190/102 157/188/102
f 152/172/103 150/171/103 156/190/103
o Cube
v -3.766795 0.629299 -4.070111
v -4.526169 0.380234 -3.924356
v -4.136701 0.318143 -3.602525
v -4.306590 -0.013518 -3.851346
v -4.236468 0.759872 -4.017661
v -3.745519 0.266587 -3.802131
v -3.925461 -0.066928 -3.907678
v -4.394858 0.223866 -4.345486
v -4.013208 0.398623 -4.458485
v -3.962248 0.052929 -4.355525
vn -0.6419 -0.2219 0.7340
vn 0.0315 -0.6101 0.7917
vn -0.4600 0.5582 -0.6905
vn -0.7685 0.4834 -0.4191
vn 0.9271 -0.2715 -0.2583
vn -0.4839 0.5388 0.6896
vn 0.3376 0.6383 0.6918
vn 0.3576 -0.4516 0.8174
vn 0.1584 0.8015 -0.5766
vn 0.8520 -0.0301 -0.5227
vn -0.2761 -0.9102 -0.3085
vn -0.1411 -0.3016 -0.9429
vn -0.8635 -0.4972 -0.0846
vt 0.550384 0.206938
vt 0.375000 0.305791
vt 0.375000 0.049496
vt 0.180791 0.500000
vt 0.330928 0.574320
vt 0.125000 0.700504
vt 0.804283 0.500000
vt 0.842867 0.681766
vt 0.658516 0.626313
vt 0.875000 0.500000
vt 0.501754 0.540833
vt 0.565165 0.799791
vt 0.325310 0.750000
vt 0.604031 0.069198
vt 0.375000 1.000000
vt 0.375000 0.799690
vt 0.578028 1.000000
vt 0.615335 0.592735
vt 0.589707 0.775249
vt 0.581909 0.353207
s 0
g Cube_Material
usemtl Material
f 160/191/104 162/192/104 161/193/104
f 162/194/105 165/195/105 161/196/105
f 166/197/106 163/198/106 167/199/106
f 163/198/107 166/197/107 160/200/107
f 168/201/108 159/202/108 164/203/108 165/195/108
f 161/193/109 163/204/109 160/191/109
f 161/205/110 164/206/110 159/202/110 163/207/110
f 165/195/111 164/203/111 161/196/111
f 167/208/112 163/198/112 159/209/112
f 159/202/113 168/201/113 167/208/113
f 168/201/114 165/195/114 162/192/114 166/210/114
f 168/201/115 166/210/115 167/208/115
f 162/192/116 160/191/116 166/210/116
o Cube
v -5.019792 -0.509377 1.576759
v -5.230484 0.399546 1.882008
v -4.700449 0.236951 1.615509
v -4.751466 0.328437 2.146755
v -5.382083 -0.043294 1.526125
v -4.552056 -0.266196 1.717253
v -4.505203 -0.071909 2.148583
v -5.335374 0.037400 2.303581
v -5.293765 -0.457540 2.132544
v -4.937665 -0.354448 2.369933
vn 0.2230 0.9640 -0.1446
vn 0.8517 0.5239 -0.0084
vn -0.9916 -0.1078 0.0708
vn -0.9519 0.3054 0.0255
vn 0.5079 -0.8410 0.1864
vn -0.1713 0.6521 -0.7385
vn 0.2138 -0.0408 -0.9760
vn 0.9485 0.2373 -0.2099
vn -0.7353 -0.6048 -0.3060
vn 0.1661 -0.9709 0.1724
vn 0.2095 0.2517 0.9449
vn -0.4578 -0.3245 0.8277
vn -0.2199 0.7664 0.6036
vt 0.550384 0.206938
vt 0.375000 0.305791
vt 0.375000 0.049496
vt 0.180791 0.500000
vt 0.330928 0.574320
vt 0.125000 0.700504
vt 0.804283 0.500000
vt 0.842867 0.681766
vt 0.658516 0.626313
vt 0.875000 0.500000
vt 0.501754 0.540833
vt 0.565165 0.799791
vt 0.325310 0.750000
vt 0.604031 0.069198
vt 0.375000 1.000000
vt 0.375000 0.799690
vt 0.578028 1.000000
vt 0.615335 0.592735
vt 0.589707 0.775249
vt 0.581909 0.353207
s 0
g Cube_Material
usemtl Material
f 170/211/117 172/212/117 171/213/117
f 172/214/118 175/215/118 171/216/118
f 176/217/119 173/218/119 177/219/119
f 173/218/120 176/217/120 170/220/120
f 178/221/121 169/222/121 174/223/121 175/215/121
f 171/213/122 173/224/122 170/211/122
f 171/225/123 174/226/123 169/222/123 173/227/123
f 175/215/124 174/223/124 171/216/124
f 177/228/125 173/218/125 169/229/125
f 169/222/126 178/221/126 177/228/126
f 178/221/127 175/215/127 172/212/127 176/230/127
f 178/221/128 176/230/128 177/228/128
f 172/212/129 170/211/129 176/230/129
o Cube
v -1.327591 0.604098 5.640895
v -0.867190 0.081513 5.229892
v -0.801449 0.197496 5.718779
v -0.539946 0.352205 5.392210
v -1.313479 0.189046 5.384453
v -0.916059 0.609914 5.821448
v -0.603590 0.675965 5.594822
v -0.895147 0.478744 4.988027
v -1.184523 0.744442 5.169496
v -0.849652 0.859268 5.248134
vn 0.6017 -0.7915 0.1069
vn 0.8083 -0.1899 0.5573
vn -0.6219 -0.1528 -0.7680
vn -0.3885 -0.4990 -0.7746
vn -0.0662 0.9178 0.3915
vn -0.1454 -0.9581 0.2468
vn -0.4383 -0.4143 0.7976
vn 0.5917 -0.0360 0.8053
vn -0.9592 0.1244 -0.2541
vn -0.3546 0.9201 0.1663
vn 0.7968 0.3460 -0.4953
vn 0.0004 0.5643 -0.8256
vn 0.6388 -0.3668 -0.6763
vt 0.550384 0.206938
vt 0.375000 0.305791
vt 0.375000 0.049496
vt 0.180791 0.500000
vt 0.330928 0.574320
vt 0.125000 0.700504
vt 0.804283 0.500000
vt 0.842867 0.681766
vt 0.658516 0.626313
vt 0.875000 0.500000
vt 0.501754 0.540833
vt 0.565165 0.799791
vt 0.325310 0.750000
vt 0.604031 0.069198
vt 0.375000 1.000000
vt 0.375000 0.799690
vt 0.578028 1.000000
vt 0.615335 0.592735
vt 0.589707 0.775249
vt 0.581909 0.353207
s 0
g Cube_Material
usemtl Material
f 180/231/130 182/232/130 181/233/130
f 182/234/131 185/235/131 181/236/131
f 186/237/132 183/238/132 187/239/132
f 183/238/133 186/237/133 180/240/133
f 188/241/134 179/242/134 184/243/134 185/235/134
f 181/233/135 183/244/135 180/231/135
f 181/245/136 184/246/136 179/242/136 183/247/136
f 185/235/137 184/243/137 181/236/137
f 187/248/138 183/238/138 179/249/138
f 179/242/139 188/241/139 187/248/139
f 188/241/140 185/235/140 182/232/140 186/250/140
f 188/241/141 186/250/141 187/248/141
f 182/232/142 180/231/142 186/250/142
o Cube
v 4.044624 0.832027 -0.252211
v 4.446746 0.197893 0.220087
v 3.906002 0.321228 0.256879
v 4.235768 0.451693 0.593974
v 4.323557 0.375227 -0.265387
v 3.805300 0.786548 0.176388
v 4.020763 0.814943 0.546921
v 4.713459 0.631352 0.266604
v 4.544700 0.960689 -0.030682
v 4.424447 1.042788 0.339497
vn -0.1620 -0.8565 0.4900
vn -0.6302 -0.2792 0.7245
vn 0.8228 -0.0856 -0.5619
vn 0.8079 -0.4572 -0.3720
vn -0.3842 0.9232 0.0083
vn -0.2315 -0.9312 -0.2814
vn -0.7530 -0.3506 -0.5569
vn -0.8570 -0.0980 0.5059
vn 0.3424 0.2353 -0.9096
vn -0.1331 0.9576 -0.2556
vn 0.4185 0.2431 0.8750
vn 0.8216 0.5515 0.1446
vn 0.6139 -0.4475 0.6502
vt 0.550384 0.206938
vt 0.375000 0.305791
vt 0.375000 0.049496
vt 0.180791 0.500000
vt 0.330928 0.574320
vt 0.125000 0.700504
vt 0.804283 0.500000
vt 0.842867 0.681766
vt 0.658516 0.626313
vt 0.875000 0.500000
vt 0.501754 0.540833
vt 0.565165 0.799791
vt 0.325310 0.750000
vt 0.604031 0.069198
vt 0.375000 1.000000
vt 0.375000 0.799690
vt 0.578028 1.000000
vt 0.615335 0.592735
vt 0.589707 0.775249
vt 0.581909 0.353207
s 0
g Cube_Material
usemtl Material
f 190/251/143 192/252/143 191/253/143
f 192/254/144 195/255/144 191/256/144
f 196/257/145 193/258/145 197/259/145
f 193/258/146 196/257/146 190/260/146
f 198/261/147 189/262/147 194/263/147 195/255/147
f 191/253/148 193/264/148 190/251/148
f 191/265/149 194/266/149 189/262/149 193/267/149
f 195/255/150 194/263/150 191/256/150
f 197/268/151 193/258/151 189/269/151
f 189/262/152 198/261/152 197/268/152
f 198/261/153 195/255/153 192/252/153 196/270/153
f 198/261/154 196/270/154 197/268/154
f 192/252/155 190/251/155 196/270/155
o Cube
v 0.055821 -0.117366 -4.125251
v 0.115049 0.019543 -4.956995
v 0.528753 -0.068201 -4.638376
v 0.417796 0.352664 -4.805110
v -0.073699 -0.276270 -4.592244
v 0.470141 0.087081 -4.209410
v 0.486113 0.439940 -4.415998
v -0.157697 0.371203 -4.759628
v -0.246174 0.276040 -4.326524
v 0.019499 0.545637 -4.344417
vn 0.5800 -0.1633 -0.7981
vn 0.9630 0.1717 -0.2076
vn -0.9542 -0.1847 -0.2355
vn -0.7599 -0.2533 -0.5987
vn 0.1185 0.3858 0.9149
vn 0.2392 -0.8110 -0.5339
vn 0.3915 -0.8776 0.2768
vn 0.9917 0.0284 0.1252
vn -0.8180 -0.4360 0.3752
vn -0.2353 0.2934 0.9266
vn 0.0752 0.9412 -0.3292
vn -0.7119 0.7022 0.0088
vn -0.0555 0.4556 -0.8885
vt 0.550384 0.206938
vt 0.375000 0.305791
vt 0.375000 0.049496
vt 0.180791 0.500000
vt 0.330928 0.574320
vt 0.125000 0.700504
vt 0.804283 0.500000
vt 0.842867 0.681766
vt 0.658516 0.626313
vt 0.875000 0.500000
vt 0.501754 0.540833
vt 0.565165 0.799791
vt 0.325310 0.750000
vt 0.604031 0.069198
vt 0.375000 1.000000
vt 0.375000 0.799690
vt 0.578028 1.000000
vt 0.615335 0.592735
vt 0.589707 0.775249
vt 0.581909 0.353207
s 0
g Cube_Material
usemtl Material
f 200/271/156 202/272/156 201/273/156
f 202/274/157 205/275/157 201/276/157
f 206/277/158 203/278/158 207/279/158
f 203/278/159 206/277/159 200/280/159
f 208/281/160 199/282/160 204/283/160 205/275/160
f 201/273/161 203/284/161 200/271/161
f 201/285/162 204/286/162 199/282/162 203/287/162
f 205/275/163 204/283/163 201/276/163
f 207/288/164 203/278/164 199/289/164
f 199/282/165 208/281/165 207/288/165
f 208/281/166 205/275/166 202/272/166 206/290/166
f 208/281/167 206/290/167 207/288/167
f 202/272/168 200/271/168 206/290/168
o Cube
v 3.234781 -0.492304 -2.378316
v 2.754828 -0.077962 -2.861374
v 3.226074 -0.202093 -2.970907
v 3.103819 0.202992 -2.851470
v 2.822504 -0.487933 -2.626227
v 3.487107 -0.224551 -2.625062
v 3.414346 0.154399 -2.634978
v 2.750305 0.117442 -2.445812
v 2.958187 -0.127567 -2.165291
v 3.163181 0.151494 -2.253994
vn -0.1612 0.2340 -0.9588
vn 0.5675 0.3857 -0.7274
vn -0.8677 -0.2342 0.4385
vn -0.9897 -0.1335 0.0520
vn 0.7715 0.0379 0.6351
vn -0.3200 -0.5106 -0.7981
vn 0.3353 -0.8442 -0.4183
vn 0.7949 0.1372 -0.5911
vn -0.3893 -0.6665 0.6357
vn 0.5141 -0.1072 0.8510
vn -0.0301 0.9956 0.0888
vn -0.3932 0.5281 0.7527
vn -0.5810 0.7341 -0.3515
vt 0.550384 0.206938
vt 0.375000 0.305791
vt 0.375000 0.049496
vt 0.180791 0.500000
vt 0.330928 0.574320
vt 0.125000 0.700504
vt 0.804283 0.500000
vt 0.842867 0.681766
vt 0.658516 0.626313
vt 0.875000 0.500000
vt 0.501754 0.540833
vt 0.565165 0.799791
vt 0.325310 0.750000
vt 0.604031 0.069198
vt 0.375000 1.000000
vt 0.375000 0.799690
vt 0.578028 1.000000
vt 0.615335 0.592735
vt 0.589707 0.775249
vt 0.581909 0.353207
s 0
g Cube_Material
usemtl Material
f 210/291/169 212/292/169 211/293/169
f 212/294/170 215/295/170 211/296/170
f 216/297/171 213/298/171 217/299/171
f 213/298/172 216/297/172 210/300/172
f 218/301/173 209/302/173 214/303/173 215/295/173
f 211/293/174 213/304/174 210/291/174
f 211/305/175 214/306/175 209/302/175 213/307/175
f 215/295/176 214/303/176 211/296/176
f 217/308/177 213/298/177 209/309/177
f 209/302/178 218/301/178 217/308/178
f 218/301/179 215/295/179 212/292/179 216/310/179
f 218/301/180 216/310/180 217/308/180
f 212/292/181 210/291/181 216/310/181
o Cube
v -4.137331 0.009633 0.298333
v -3.953327 -0.131191 -0.716502
v -3.581143 0.230797 -0.321653
v -3.948034 0.453854 -0.702835
v -4.017905 -0.403742 -0.159462
v -3.867310 0.480708 0.098701
v -4.052530 0.727739 -0.299755
v -4.523830 0.039753 -0.646030
v -4.657337 0.047249 -0.105294
v -4.594870 0.484723 -0.255651
vn 0.7232 0.0096 -0.6905
vn 0.6915 0.6681 -0.2747
vn -0.5788 -0.8048 -0.1317
vn -0.3070 -0.8403 -0.4468
vn -0.3389 0.6254 0.7029
vn 0.7831 -0.5896 -0.1977
vn 0.7610 -0.2978 0.5764
vn 0.7247 0.6836 0.0869
vn -0.4600 -0.7154 0.5260
vn -0.5613 0.3396 0.7548
vn -0.4249 0.6221 -0.6576
vn -0.9691 0.0559 -0.2401
vn -0.1154 0.0242 -0.9930
vt 0.550384 0.206938
vt 0.375000 0.305791
vt 0.375000 0.049496
vt 0.180791 0.500000
vt 0.330928 0.574320
vt 0.125000 0.700504
vt 0.804283 0.500000
vt 0.842867 0.681766
vt 0.658516 0.626313
vt 0.875000 0.500000
vt 0.501754 0.540833
vt 0.565165 0.799791
vt 0.325310 0.750000
vt 0.604031 0.069198
vt 0.375000 1.000000
vt 0.375000 0.799690
vt 0.578028 1.000000
vt 0.615335 0.592735
vt 0.589707 0.775249
vt 0.581909 0.353207
s 0
g Cube_Material
usemtl Material
f 220/311/182 222/312/182 221/313/182
f 222/314/183 225/315/183 221/316/183
f 226/317/184 223/318/184 227/319/184
f 223/318/185 226/317/185 220/320/185
f 228/321/186 219/322/186 224/323/186 225/315/186
f 221/313/187 223/324/187 220/311/187
f 221/325/188 224/326/188 219/322/188 223/327/188
f 225/315/189 224/323/189 221/316/189
f 227/328/190 223/318/190 219/329/190
f 219/322/191 228/321/191 227/328/191
f 228/321/192 225/315/192 222/312/192 226/330/192
f 228/321/193 226/330/193 227/328/193
f 222/312/194 220/311/194 226/330/194
o Cube
v 1.567765 -0.059252 -2.525330
v 2.675007 -0.030280 -2.286070
v 2.335770 0.458742 -2.673315
v 2.708664 0.022041 -2.920099
v 2.044272 -0.033655 -2.035395
v 1.861207 0.235682 -2.998094
v 2.281885 -0.006644 -3.253871
v 2.527525 -0.619421 -2.525597
v 1.926740 -0.678108 -2.583021
v 2.133328 -0.601114 -3.040844
vn 0.7824 0.6159 0.0924
vn 0.4165 0.6901 -0.5919
vn -0.0098 -0.6465 0.7629
vn 0.3362 -0.4257 0.8401
vn -0.6942 -0.1903 -0.6942
vn 0.2592 0.7037 0.6616
vn -0.4866 0.8129 0.3200
vn 0.0651 0.7756 -0.6278
vn -0.6363 -0.4289 0.6413
vn -0.7974 -0.4224 -0.4309
vn 0.6373 -0.4701 -0.6105
vn 0.1077 -0.9872 -0.1174
vn 0.9666 -0.2543 0.0303
vt 0.550384 0.206938
vt 0.375000 0.305791
vt 0.375000 0.049496
vt 0.180791 0.500000
vt 0.330928 0.574320
vt 0.125000 0.700504
vt 0.804283 0.500000
vt 0.842867 0.681766
vt 0.658516 0.626313
vt 0.875000 0.500000
vt 0.501754 0.540833
vt 0.565165 0.799791
vt 0.325310 0.750000
vt 0.604031 0.069198
vt 0.375000 1.000000
vt 0.375000 0.799690
vt 0.578028 1.000000
vt 0.615335 0.592735
vt 0.589707 0.775249
vt 0.581909 0.353207
s 0
g Cube_Material
usemtl Material
f 230/331/195 232/332/195 231/333/195
f 232/334/196 235/335/196 231/336/196
f 236/337/197 233/338/197 237/339/197
f 233/338/198 236/337/198 230/340/198
f 238/341/199 229/342/199 234/343/199 235/335/199
f 231/333/200 233/344/200 230/331/200
f 231/345/201 234/346/201 229/342/201 233/347/201
f 235/335/202 234/343/202 231/336/202
f 237/348/203 233/338/203 229/349/203
f 229/342/204 238/341/204 237/348/204
f 238/341/205 235/335/205 232/332/205 236/350/205
f 238/341/206 236/350/206 237/348/206
f 232/332/207 230/331/207 236/350/207
o Cube
v -3.376358 -0.049177 -0.232243
v -3.903540 0.630667 0.026066
v -4.089933 0.159658 -0.219304
v -4.052310 0.593766 -0.455105
v -3.549569 0.256219 0.180840
v -3.773242 -0.038316 -0.534840
v -3.877028 0.328347 -0.744573
v -3.516034 0.820123 -0.259854
v -3.192760 0.476179 -0.350558
v -3.413852 0.542398 -0.680673
vn -0.9349 0.2285 0.2715
vn -0.8998 -0.1455 -0.4114
vn 0.6472 0.4451 0.6188
vn 0.2801 0.5807 0.7644
vn 0.4378 -0.4643 -0.7699
vn -0.5604 -0.1973 0.8044
vn -0.2458 -0.8669 0.4336
vn -0.7522 -0.4745 -0.4573
vn 0.8496 -0.1858 0.4936
vn 0.7303 -0.3827 -0.5659
vn -0.1653 0.7512 -0.6390
vn 0.6546 0.6942 -0.2992
vn -0.4053 0.9125 0.0553
vt 0.550384 0.206938
vt 0.375000 0.305791
vt 0.375000 0.049496
vt 0.180791 0.500000
vt 0.330928 0.574320
vt 0.125000 0.700504
vt 0.804283 0.500000
vt 0.842867 0.681766
vt 0.658516 0.626313
vt 0.875000 0.500000
vt 0.501754 0.540833
vt 0.565165 0.799791
vt 0.325310 0.750000
vt 0.604031 0.069198
vt 0.375000 1.000000
vt 0.375000 0.799690
vt 0.578028 1.000000
vt 0.615335 0.592735
vt 0.589707 0.775249
vt 0.581909 0.353207
s 0
g Cube_Material
usemtl Material
f 240/351/208 242/352/208 241/353/208
f 242/354/209 245/355/209 241/356/209
f 246/357/210 243/358/210 247/359/210
f 243/358/211 246/357/211 240/360/211
f 248/361/212 239/362/212 244/363/212 245/355/212
f 241/353/213 243/364/213 240/351/213
f 241/365/214 244/366/214 239/362/214 243/367/214
f 245/355/215 244/363/215 241/356/215
f 247/368/216 243/358/216 239/369/216
f 239/362/217 248/361/217 247/368/217
f 248/361/218 245/355/218 242/352/218 246/370/218
f 248/361/219 246/370/219 247/368/219
f 242/352/220 240/351/220 246/370/220
o Cube
v -1.561753 0.299487 -1.903579
v -1.844455 0.164941 -2.955047
v -1.203275 0.103678 -2.714786
v -1.397420 0.583566 -3.028147
v -1.927371 -0.042397 -2.337030
v -1.084446 0.457375 -2.248540
v -1.142713 0.818794 -2.633541
v -2.081407 0.713743 -2.749686
v -2.005511 0.763351 -2.169666
v -1.679330 1.048969 -2.402166
vn 0.2768 -0.4444 -0.8520
vn 0.8429 -0.0103 -0.5380
vn -0.9825 -0.1242 0.1392
vn -0.9220 -0.3126 -0.2286
vn 0.4261 0.6035 0.6740
vn 0.0273 -0.9488 -0.3147
vn 0.4391 -0.8096 0.3895
vn 0.9772 -0.0596 -0.2038
vn -0.6570 -0.2139 0.7229
vn 0.0942 0.5616 0.8220
vn -0.0151 0.7992 -0.6009
vn -0.6505 0.7593 0.0202
vn -0.3368 0.1990 -0.9203
vt 0.550384 0.206938
vt 0.375000 0.305791
vt 0.375000 0.049496
vt 0.180791 0.500000
vt 0.330928 0.574320
vt 0.125000 0.700504
vt 0.804283 0.500000
vt 0.842867 0.681766
vt 0.658516 0.626313
vt 0.875000 0.500000
vt 0.501754 0.540833
vt 0.565165 0.799791
vt 0.325310 0.750000
vt 0.604031 0.069198
vt 0.375000 1.000000
vt 0.375000 0.799690
vt 0.578028 1.000000
vt 0.615335 0.592735
vt 0.589707 0.775249
vt 0.581909 0.353207
s 0
g Cube_Material
usemtl Material
f 250/371/221 252/372/221 251/373/221
f 252/374/222 255/375/222 251/376/222
f 256/377/223 253/378/223 257/379/223
f 253/378/224 256/377/224 250/380/224
f 258/381/225 249/382/225 254/383/225 255/375/225
f 251/373/226 253/384/226 250/371/226
f 251/385/227 254/386/227 249/382/227 253/387/227
f 255/375/228 254/383/228 251/376/228
f 257/388/229 253/378/229 249/389/229
f 249/382/230 258/381/230 257/388/230
f 258/381/231 255/375/231 252/372/231 256/390/231
f 258/381/232 256/390/232 257/388/232
f 252/372/233 250/371/233 256/390/233
o Cube
v -2.082407 0.274597 -1.905169
v -2.520352 0.923542 -2.545240
v -2.152725 1.094635 -2.058308
v -2.708521 1.141497 -2.055024
v -2.135557 0.459757 -2.484308
v -2.179816 0.753306 -1.627329
v -2.630480 0.944732 -1.619567
v -2.924901 0.553821 -2.347569
v -2.692616 0.157877 -2.061054
v -2.890213 0.452329 -1.778412
vn 0.0755 0.9216 -0.3808
vn 0.0794 0.9137 0.3986
vn -0.2043 -0.6497 -0.7322
vn -0.1966 -0.2863 -0.9378
vn -0.0218 -0.4070 0.9132
vn 0.6339 0.4427 -0.6342
vn 0.9958 0.0893 0.0208
vn 0.3214 0.7324 0.6002
vn 0.2554 -0.9139 -0.3156
vn -0.0449 -0.7073 0.7055
vn -0.9247 0.3240 0.2000
vn -0.8480 -0.5283 -0.0425
vn -0.7053 0.5066 -0.4959
vt 0.550384 0.206938
vt 0.375000 0.305791
vt 0.375000 0.049496
vt 0.180791 0.500000
vt 0.330928 0.574320
vt 0.125000 0.700504
vt 0.804283 0.500000
vt 0.842867 0.681766
vt 0.658516 0.626313
vt 0.875000 0.500000
vt 0.501754 0.540833
vt 0.565165 0.799791
vt 0.325310 0.750000
vt 0.604031 0.069198
vt 0.375000 1.000000
vt 0.375000 0.799690
vt 0.578028 1.000000
vt 0.615335 0.592735
vt 0.589707 0.775249
vt 0.581909 0.353207
s 0
g Cube_Material
usemtl Material
f 260/391/234 262/392/234 261/393/234
f 262/394/235 265/395/235 261/396/235
f 266/397/236 263/398/236 267/399/236
f 263/398/237 266/397/237 260/400/237
f 268/401/238 259/402/238 264/403/238 265/395/238
f 261/393/239 263/404/239 260/391/239
f 261/405/240 264/406/240 259/402/240 263/407/240
f 265/395/241 264/403/241 261/396/241
f 267/408/242 263/398/242 259/409/242
f 259/402/243 268/401/243 267/408/243
f 268/401/244 265/395/244 262/392/244 266/410/244
f 268/401/245 266/410/245 267/408/245
f 262/392/246 260/391/246 266/410/246
o Cube
v 2.543786 0.607050 0.010583
v 2.740890 0.741814 0.638580
v 2.959316 0.844802 0.293732
v 3.050471 0.563082 0.516563
v 2.457587 0.797211 0.358200
v 2.917116 0.610699 0.015967
v 3.078686 0.424029 0.227863
v 2.647153 0.366978 0.615394
v 2.495698 0.296118 0.297129
v 2.778954 0.193486 0.298225
vn 0.5699 0.6152 0.5447
vn 0.9596 0.2785 -0.0404
vn -0.8854 -0.1220 0.4485
vn -0.6851 0.1270 0.7173
vn 0.1258 -0.5841 -0.8018
vn -0.0594 0.9662 0.2509
vn -0.0862 0.8216 -0.5635
vn 0.8676 0.3073 -0.3908
vn -0.9753 -0.0479 -0.2156
vn -0.2291 -0.6402 -0.7332
vn 0.5348 -0.6851 0.4946
vn -0.3205 -0.8808 0.3486
vn 0.2962 -0.1326 0.9459
vt 0.550384 0.206938
vt 0.375000 0.305791
vt 0.375000 0.049496
vt 0.180791 0.500000
vt 0.330928 0.574320
vt 0.125000 0.700504
vt 0.804283 0.500000
vt 0.842867 0.681766
vt 0.658516 0.626313
vt 0.875000 0.500000
vt 0.501754 0.540833
vt 0.565165 0.799791
vt 0.325310 0.750000
vt 0.604031 0.069198
vt 0.375000 1.000000
vt 0.375000 0.799690
vt 0.578028 1.000000
vt 0.615335 0.592735
vt 0.589707 0.775249
vt 0.581909 0.353207
s 0
g Cube_Material
usemtl Material
f 270/411/247 272/412/247 271/413/247
f 272/414/248 275/415/248 271/416/248
f 276/417/249 273/418/249 277/419/249
f 273/418/250 276/417/250 270/420/250
f 278/421/251 269/422/251 274/423/251 275/415/251
f 271/413/252 273/424/252 270/411/252
f 271/425/253 274/426/253 269/422/253 273/427/253
f 275/415/254 274/423/254 271/416/254
f 277/428/255 273/418/255 269/429/255
f 269/422/256 278/421/256 277/428/256
f 278/421/257 275/415/257 272/412/257 276/430/257
f 278/421/258 276/430/258 277/428/258
f 272/412/259 270/411/259 276/430/259
o Cube
v -0.813141 0.228911 2.431019
v -0.142172 0.828726 2.831927
v -0.032734 0.453292 2.354209
v 0.139616 0.352658 2.859670
v -0.664636 0.790013 2.560294
v -0.320132 0.000602 2.362973
v -0.035147 -0.068646 2.739295
v -0.385083 0.524704 3.245161
v -0.793360 0.251094 3.054371
v -0.450990 -0.020951 3.117370
vn 0.8494 0.4916 -0.1918
vn 0.8941 -0.2685 -0.3583
vn -0.6316 0.6005 0.4904
vn -0.2952 0.8441 0.4475
vn -0.3269 -0.9414 -0.0836
vn 0.2360 0.7896 -0.5665
vn -0.1472 0.1789 -0.9728
vn 0.6751 -0.4400 -0.5922
vn -0.9677 0.2511 0.0218
vn -0.6268 -0.7778 0.0476
vn 0.5461 -0.3332 0.7686
vn -0.3147 -0.1802 0.9319
vn 0.6237 0.4080 0.6668
vt 0.550384 0.206938
vt 0.375000 0.305791
vt 0.375000 0.049496
vt 0.180791 0.500000
vt 0.330928 0.574320
vt 0.125000 0.700504
vt 0.804283 0.500000
vt 0.842867 0.681766
vt 0.658516 0.626313
vt 0.875000 0.500000
vt 0.501754 0.540833
vt 0.565165 0.799791
vt 0.325310 0.750000
vt 0.604031 0.069198
vt 0.375000 1.000000
vt 0.375000 0.799690
vt 0.578028 1.000000
vt 0.615335 0.592735
vt 0.589707 0.775249
vt 0.581909 0.353207
s 0
g Cube_Material
usemtl Material
f 280/431/260 282/432/260 281/433/260
f 282/434/261 285/435/261 281/436/261
f 286/437/262 283/438/262 287/439/262
f 283/438/263 286/437/263 280/440/263
f 288/441/264 279/442/264 284/443/264 285/435/264
f 281/433/265 283/444/265 280/431/265
f 281/445/266 284/446/266 279/442/266 283/447/266
f 285/435/267 284/443/267 281/436/267
f 287/448/268 283/438/268 279/449/268
f 279/442/269 288/441/269 287/448/269
f 288/441/270 285/435/270 282/432/270 286/450/270
f 288/441/271 286/450/271 287/448/271
f 282/432/272 280/431/272 286/450/272
o Cube
v -2.557081 0.734285 -0.737025
v -1.889301 0.603245 -1.023717
v -2.287358 0.465700 -1.215390
v -2.034861 0.214488 -1.017817
v -2.180107 0.911064 -0.896008
v -2.576782 0.383372 -0.948901
v -2.345961 0.119237 -0.879435
v -1.888995 0.482523 -0.615770
v -2.223780 0.596224 -0.439327
v -2.236567 0.271009 -0.500338
vn 0.4789 -0.1923 -0.8565
vn -0.1128 -0.6818 -0.7228
vn 0.5077 0.6858 0.5214
vn 0.7516 0.6326 0.1866
vn -0.7798 -0.3824 0.4956
vn 0.2085 0.5363 -0.8179
vn -0.5950 0.5096 -0.6216
vn -0.4578 -0.5778 -0.6757
vn -0.1523 0.8204 0.5511
vn -0.6867 -0.1079 0.7189
vn 0.4922 -0.8236 0.2818
vn 0.4087 -0.1838 0.8940
vn 0.9309 -0.3501 -0.1043
vt 0.550384 0.206938
vt 0.375000 0.305791
vt 0.375000 0.049496
vt 0.180791 0.500000
vt 0.330928 0.574320
vt 0.125000 0.700504
vt 0.804283 0.500000
vt 0.842867 0.681766
vt 0.658516 0.626313
vt 0.875000 0.500000
vt 0.501754 0.540833
vt 0.565165 0.799791
vt 0.325310 0.750000
vt 0.604031 0.069198
vt 0.375000 1.000000
vt 0.375000 0.799690
vt 0.578028 1.000000
vt 0.615335 0.592735
vt 0.589707 0.775249
vt 0.581909 0.353207
s 0
g Cube_Material
usemtl Material
f 290/451/273 292/452/273 291/453/273
f 292/454/274 295/455/274 291/456/274
f 296/457/275 293/458/275 297/459/275
f 293/458/276 296/457/276 290/460/276
f 298/461/277 289/462/277 294/463/277 295/455/277
f 291/453/278 293/464/278 290/451/278
f 291/465/279 294/466/279 289/462/279 293/467/279
f 295/455/280 294/463/280 291/456/280
f 297/468/281 293/458/281 289/469/281
f 289/462/282 298/461/282 297/468/282
f 298/461/283 295/455/283 292/452/283 296/470/283
f 298/461/284 296/470/284 297/468/284
f 292/452/285 290/451/285 296/470/285
o Cube
v -1.193039 -0.349114 2.292523
v -0.309131 -0.106492 1.531853
v -0.323800 -0.699074 1.985402
v 0.050297 -0.169877 2.093311
v -1.004593 -0.247189 1.606287
v -0.632512 -0.593849 2.545744
v -0.172424 -0.252302 2.611818
v -0.438040 0.454086 1.906096
v -0.962525 0.368446 2.258002
v -0.530866 0.326268 2.569752
vn 0.7427 -0.4185 -0.5227
vn 0.7700 -0.5926 0.2366
vn -0.4947 0.6475 -0.5797
vn -0.1934 0.5136 -0.8359
vn -0.2993 0.0082 0.9541
vn 0.0381 -0.6079 -0.7931
vn -0.4178 -0.8936 -0.1643
vn 0.5018 -0.7569 0.4186
vn -0.9331 0.2895 -0.2132
vn -0.5574 0.2176 0.8012
vn 0.7505 0.5865 0.3046
vn -0.0369 0.9822 0.1840
vn 0.7670 0.4688 -0.4381
vt 0.550384 0.206938
vt 0.375000 0.305791
vt 0.375000 0.049496
vt 0.180791 0.500000
vt 0.330928 0.574320
vt 0.125000 0.700504
vt 0.804283 0.500000
vt 0.842867 0.681766
vt 0.658516 0.626313
vt 0.875000 0.500000
vt 0.501754 0.540833
vt 0.565165 0.799791
vt 0.325310 0.750000
vt 0.604031 0.069198
vt 0.375000 1.000000
vt 0.375000 0.799690
vt 0.578028 1.000000
vt 0.615335 0.592735
vt 0.589707 0.775249
vt 0.581909 0.353207
s 0
g Cube_Material
usemtl Material
f 300/471/286 302/472/286 301/473/286
f 302/474/287 305/475/287 301/476/287
f 306/477/288 303/478/288 307/479/288
f 303/478/289 306/477/289 300/480/289
f 308/481/290 299/482/290 304/483/290 305/475/290
f 301/473/291 303/484/291 300/471/291
f 301/485/292 304/486/292 299/482/292 303/487/292
f 305/475/293 304/483/293 301/476/293
f 307/488/294 303/478/294 299/489/294
f 299/482/295 308/481/295 307/488/295
f 308/481/296 305/475/296 302/472/296 306/490/296
f 308/481/297 306/490/297 307/488/297
f 302/472/298 300/471/298 306/490/298
o Cube
v -1.112588 0.175740 0.366101
v -1.502059 -0.316725 0.971929
v -1.570897 -0.378502 0.433096
v -1.899117 -0.175750 0.720773
v -1.047715 -0.157297 0.768811
v -1.537662 0.026285 0.186959
v -1.894126 0.095361 0.402993
v -1.575447 0.167367 1.085681
v -1.320667 0.439691 0.804787
v -1.695128 0.450865 0.691968
vn -0.4166 -0.8956 0.1559
vn -0.7215 -0.5211 -0.4559
vn 0.6006 0.2284 0.7662
vn 0.4447 -0.1404 0.8846
vn -0.1077 0.7442 -0.6592
vn 0.3549 -0.9329 0.0616
vn 0.5549 -0.5358 -0.6363
vn -0.5297 -0.4085 -0.7433
vn 0.8978 0.3993 0.1856
vn 0.1621 0.8776 -0.4511
vn -0.8756 0.3024 0.3768
vn -0.1601 0.7773 0.6084
vn -0.5812 -0.2686 0.7681
vt 0.550384 0.206938
vt 0.375000 0.305791
vt 0.375000 0.049496
vt 0.180791 0.500000
vt 0.330928 0.574320
vt 0.125000 0.700504
vt 0.804283 0.500000
vt 0.842867 0.681766
vt 0.658516 0.626313
vt 0.875000 0.500000
vt 0.501754 0.540833
vt 0.565165 0.799791
vt 0.325310 0.750000
vt 0.604031 0.069198
vt 0.375000 1.000000
vt 0.375000 0.799690
vt 0.578028 1.000000
vt 0.615335 0.592735
vt 0.589707 0.775249
vt 0.581909 0.353207
s 0
g Cube_Material
usemtl Material
f 310/491/299 312/492/299 311/493/299
f 312/494/300 315/495/300 311/496/300
f 316/497/301 313/498/301 317/499/301
f 313/498/302 316/497/302 310/500/302
f 318/501/303 309/502/303 314/503/303 315/495/303
f 311/493/304 313/504/304 310/491/304
f 311/505/305 314/506/305 309/502/305 313/507/305
f 315/495/306 314/503/306 311/496/306
f 317/508/307 313/498/307 309/509/307
f 309/502/308 318/501/308 317/508/308
f 318/501/309 315/495/309 312/492/309 316/510/309
f 318/501/310 316/510/310 317/508/310
f 312/492/311 310/491/311 316/510/311
o Cube
v 0.017746 0.165616 1.316588
v -0.447504 0.556329 1.833410
v -0.262593 0.098458 1.910675
v -0.681956 0.175347 1.802123
v -0.035504 0.557189 1.591528
v -0.212133 -0.134651 1.547887
v -0.597332 -0.111840 1.565031
v -0.648152 0.562791 1.420042
v -0.382647 0.406607 1.124592
v -0.632125 0.162047 1.201312
vn -0.2385 0.0672 0.9688
vn -0.2995 -0.6584 0.6906
vn 0.1151 0.9172 -0.3814
vn 0.0055 0.9999 0.0130
vn 0.0514 -0.7270 -0.6847
vn 0.4774 0.3302 0.8143
vn 0.8861 -0.2508 0.3898
vn -0.0260 -0.8427 0.5378
vn 0.6020 0.5121 -0.6127
vn 0.1592 -0.4397 -0.8839
vn -0.9925 -0.0920 -0.0803
vn -0.5850 0.3704 -0.7215
vn -0.7969 0.4580 0.3940
vt 0.550384 0.206938
vt 0.375000 0.305791
vt 0.375000 0.049496
vt 0.180791 0.500000
vt 0.330928 0.574320
vt 0.125000 0.700504
vt 0.804283 0.500000
vt 0.842867 0.681766
vt 0.658516 0.626313
vt 0.875000 0.500000
vt 0.501754 0.540833
vt 0.565165 0.799791
vt 0.325310 0.750000
vt 0.604031 0.069198
vt 0.375000 1.000000
vt 0.375000 0.799690
vt 0.578028 1.000000
vt 0.615335 0.592735
vt 0.589707 0.775249
vt 0.581909 0.353207
s 0
g Cube_Material
usemtl Material
f 320/511/312 322/512/312 321/513/312
f 322/514/313 325/515/313 321/516/313
f 326/517/314 323/518/314 327/519/314
f 323/518/315 326/517/315 320/520/315
f 328/521/316 319/522/316 324/523/316 325/515/316
f 321/513/317 323/524/317 320/511/317
f 321/525/318 324/526/318 319/522/318 323/527/318
f 325/515/319 324/523/319 321/516/319
f 327/528/320 323/518/320 319/529/320
f 319/522/321 328/521/321 327/528/321
f 328/521/322 325/515/322 322/512/322 326/530/322
f 328/521/323 326/530/323 327/528/323
f 322/512/324 320/511/324 326/530/324
o Cube
v 4.774846 -0.144107 2.836745
v 5.127745 0.580356 2.994020
v 5.044675 0.394310 2.521605
v 5.452046 0.400185 2.719356
v 4.725502 0.302279 3.046192
v 5.064170 -0.051457 2.496279
v 5.444159 0.034260 2.575915
v 5.345845 0.246617 3.248589
v 5.129062 -0.134252 3.217394
v 5.432092 -0.148574 3.008770
vn 0.1749 0.9052 -0.3873
vn 0.4091 0.3254 -0.8525
vn -0.3012 0.0937 0.9489
vn -0.2302 0.4906 0.8404
vn 0.1428 -0.9486 -0.2823
vn -0.5742 0.7911 -0.2106
vn -0.8234 0.0842 -0.5612
vn 0.1908 0.0640 -0.9795
vn -0.6743 -0.3735 0.6371
vn -0.0179 -0.9989 0.0425
vn 0.9904 0.0346 0.1338
vn 0.5179 -0.3584 0.7768
vn 0.6559 0.6794 0.3288
vt 0.550384 0.206938
vt 0.375000 0.305791
vt 0.375000 0.049496
vt 0.180791 0.500000
vt 0.330928 0.574320
vt 0.125000 0.700504
vt 0.804283 0.500000
vt 0.842867 0.681766
vt 0.658516 0.626313
vt 0.875000 0.500000
vt 0.501754 0.540833
vt 0.565165 0.799791
vt 0.325310 0.750000
vt 0.604031 0.069198
vt 0.375000 1.000000
vt 0.375000 0.799690
vt 0.578028 1.000000
vt 0.615335 0.592735
vt 0.589707 0.775249
vt 0.581909 0.353207
s 0
g Cube_Material
usemtl Material
f 330/531/325 332/532/325 331/533/325
f 332/534/326 335/535/326 331/536/326
f 336/537/327 333/538/327 337/539/327
f 333/538/328 336/537/328 330/540/328
f 338/541/329 329/542/329 334/543/329 335/535/329
f 331/533/330 333/544/330 330/531/330
f 331/545/331 334/546/331 329/542/331 333/547/331
f 335/535/332 334/543/332 331/536/332
f 337/548/333 333/538/333 329/549/333
f 329/542/334 338/541/334 337/548/334
f 338/541/335 335/535/335 332/532/335 336/550/335
f 338/541/336 336/550/336 337/548/336
f 332/532/337 330/531/337 336/550/337
o Cube
v 4.958616 0.375893 3.850444
v 4.067738 1.021426 3.841839
v 4.138449 0.461161 4.237288
v 3.793541 0.476746 3.738231
v 4.716742 0.986150 3.950531
v 4.473921 0.030618 3.990860
v 4.050190 0.022113 3.668015
v 4.209862 0.862533 3.244907
v 4.727534 0.582753 3.226386
v 4.362320 0.255355 3.173152
vn -0.7832 0.2896 0.5503
vn -0.7263 -0.4852 0.4868
vn 0.4153 0.7973 -0.4380
vn 0.0920 0.9675 -0.2356
vn 0.3975 -0.8695 -0.2932
vn -0.1064 0.5644 0.8186
vn 0.4198 -0.0685 0.9050
vn -0.4366 -0.6784 0.5909
vn 0.8983 0.3894 -0.2035
vn 0.6330 -0.6338 -0.4445
vn -0.7283 -0.1927 -0.6576
vn 0.0322 0.1253 -0.9916
vn -0.8199 0.4739 -0.3213
vt 0.550384 0.206938
vt 0.375000 0.305791
vt 0.375000 0.049496
vt 0.180791 0.500000
vt 0.330928 0.574320
vt 0.125000 0.700504
vt 0.804283 0.500000
vt 0.842867 0.681766
vt 0.658516 0.626313
vt 0.875000 0.500000
vt 0.501754 0.540833
vt 0.565165 0.799791
vt 0.325310 0.750000
vt 0.604031 0.069198
vt 0.375000 1.000000
vt 0.375000 0.799690
vt 0.578028 1.000000
vt 0.615335 0.592735
vt 0.589707 0.775249
vt 0.581909 0.353207
s 0
g Cube_Material
usemtl Material
f 340/551/338 342/552/338 341/553/338
f 342/554/339 345/555/339 341/556/339
f 346/557/340 343/558/340 347/559/340
f 343/558/341 346/557/341 340/560/341
f 348/561/342 339/562/342 344/563/342 345/555/342
f 341/553/343 343/564/343 340/551/343
f 341/565/344 344/566/344 339/562/344 343/567/344
f 345/555/345 344/563/345 341/556/345
f 347/568/346 343/558/346 339/569/346
f 339/562/347 348/561/347 347/568/347
f 348/561/348 345/555/348 342/552/348 346/570/348
f 348/561/349 346/570/349 347/568/349
f 342/552/350 340/551/350 346/570/350
o Cube
v 6.086018 0.739205 -0.355041
v 5.761757 0.237040 -1.086062
v 6.016441 0.002225 -0.606352
v 6.256466 0.045389 -1.066584
v 5.633445 0.601282 -0.672813
v 6.374571 0.302444 -0.392323
v 6.578652 0.196104 -0.787477
v 6.085053 0.631776 -1.274845
v 6.211242 0.947927 -0.901403
v 6.540005 0.696026 -0.989551
vn -0.3397 -0.9034 -0.2619
vn 0.3521 -0.9310 0.0963
vn -0.5827 0.7067 -0.4013
vn -0.7559 0.3566 -0.5490
vn 0.8080 0.3638 0.4635
vn -0.8363 -0.5133 0.1927
vn -0.4304 -0.2547 0.8660
vn 0.4150 -0.8017 0.4301
vn -0.4303 0.8717 0.2344
vn 0.6226 0.6727 0.3997
vn 0.6097 -0.1742 -0.7732
vn 0.3280 0.6634 -0.6725
vn -0.1027 -0.3594 -0.9275
vt 0.550384 0.206938
vt 0.375000 0.305791
vt 0.375000 0.049496
vt 0.180791 0.500000
vt 0.330928 0.574320
vt 0.125000 0.700504
vt 0.804283 0.500000
vt 0.842867 0.681766
vt 0.658516 0.626313
vt 0.875000 0.500000
vt 0.501754 0.540833
vt 0.565165 0.799791
vt 0.325310 0.750000
vt 0.604031 0.069198
vt 0.375000 1.000000
vt 0.375000 0.799690
vt 0.578028 1.000000
vt 0.615335 0.592735
vt 0.589707 0.775249
vt 0.581909 0.353207
s 0
g Cube_Material
usemtl Material
f 350/571/351 352/572/351 351/573/351
f 352/574/352 355/575/352 351/576/352
f 356/577/353 353/578/353 357/579/353
f 353/578/354 356/577/354 350/580/354
f 358/581/355 349/582/355 354/583/355 355/575/355
f 351/573/356 353/584/356 350/571/356
f 351/585/357 354/586/357 349/582/357 353/587/357
f 355/575/358 354/583/358 351/576/358
f 357/588/359 353/578/359 349/589/359
f 349/582/360 358/581/360 357/588/360
f 358/581/361 355/575/361 352/572/361 356/590/361
f 358/581/362 356/590/362 357/588/362
f 352/572/363 350/571/363 356/590/363
o Cube
v -3.230239 0.174389 -3.950995
v -4.166604 -0.132728 -3.771269
v -3.686361 -0.209291 -3.374426
v -3.895846 -0.618254 -3.681241
v -3.809381 0.335394 -3.886320
v -3.204003 -0.272863 -3.620556
v -3.425886 -0.684113 -3.750703
v -4.004688 -0.325541 -4.290554
v -3.534084 -0.110053 -4.429890
v -3.471247 -0.536320 -4.302932
vn -0.6419 -0.2219 0.7340
vn 0.0315 -0.6101 0.7917
vn -0.4600 0.5582 -0.6905
vn -0.7685 0.4834 -0.4191
vn 0.9271 -0.2715 -0.2583
vn -0.4839 0.5388 0.6896
vn 0.3376 0.6383 0.6918
vn 0.3576 -0.4516 0.8174
vn 0.1584 0.8015 -0.5766
vn 0.8520 -0.0301 -0.5227
vn -0.2761 -0.9102 -0.3085
vn -0.1411 -0.3016 -0.9429
vn -0.8635 -0.4972 -0.0846
vt 0.550384 0.206938
vt 0.375000 0.305791
vt 0.375000 0.049496
vt 0.180791 0.500000
vt 0.330928 0.574320
vt 0.125000 0.700504
vt 0.804283 0.500000
vt 0.842867 0.681766
vt 0.658516 0.626313
vt 0.875000 0.500000
vt 0.501754 0.540833
vt 0.565165 0.799791
vt 0.325310 0.750000
vt 0.604031 0.069198
vt 0.375000 1.000000
vt 0.375000 0.799690
vt 0.578028 1.000000
vt 0.615335 0.592735
vt 0.589707 0.775249
vt 0.581909 0.353207
s 0
g Cube_Material
usemtl Material
f 360/591/364 362/592/364 361/593/364
f 362/594/365 365/595/365 361/596/365
f 366/597/366 363/598/366 367/599/366
f 363/598/367 366/597/367 360/600/367
f 368/601/368 359/602/368 364/603/368 365/595/368
f 361/593/369 363/604/369 360/591/369
f 361/605/370 364/606/370 359/602/370 363/607/370
f 365/595/371 364/603/371 361/596/371
f 367/608/372 363/598/372 359/609/372
f 359/602/373 368/601/373 367/608/373
f 368/601/374 365/595/374 362/592/374 366/610/374
f 368/601/375 366/610/375 367/608/375
f 362/592/376 360/591/376 366/610/376
o Cube
v -5.152911 0.266255 1.470796
v -5.318204 0.979330 1.710273
v -4.902378 0.851770 1.501197
v -4.942402 0.923543 1.917974
v -5.437139 0.631910 1.431072
v -4.785959 0.457037 1.581018
v -4.749202 0.609461 1.919408
v -5.400494 0.695217 2.041008
v -5.367850 0.306922 1.906825
v -5.088480 0.387801 2.093063
vn 0.2230 0.9640 -0.1446
vn 0.8517 0.5239 -0.0084
vn -0.9916 -0.1078 0.0708
vn -0.9519 0.3054 0.0255
vn 0.5079 -0.8410 0.1864
vn -0.1713 0.6521 -0.7385
vn 0.2138 -0.0408 -0.9760
vn 0.9485 0.2373 -0.2099
vn -0.7353 -0.6048 -0.3060
vn 0.1661 -0.9709 0.1724
vn 0.2095 0.2517 0.9449
vn -0.4578 -0.3245 0.8277
vn -0.2199 0.7664 0.6036
vt 0.550384 0.206938
vt 0.375000 0.305791
vt 0.375000 0.049496
vt 0.180791 0.500000
vt 0.330928 0.574320
vt 0.125000 0.700504
vt 0.804283 0.500000
vt 0.842867 0.681766
vt 0.658516 0.626313
vt 0.875000 0.500000
vt 0.501754 0.540833
vt 0.565165 0.799791
vt 0.325310 0.750000
vt 0.604031 0.069198
vt 0.375000 1.000000
vt 0.375000 0.799690
vt 0.578028 1.000000
vt 0.615335 0.592735
vt 0.589707 0.775249
vt 0.581909 0.353207
s 0
g Cube_Material
usemtl Material
f 370/611/377 372/612/377 371/613/377
f 372/614/378 375/615/378 371/616/378
f 376/617/379 373/618/379 377/619/379
f 373/618/380 376/617/380 370/620/380
f 378/621/381 369/622/381 374/623/381 375/615/381
f 371/613/382 373/624/382 370/611/382
f 371/625/383 374/626/383 369/622/383 373/627/383
f 375/615/384 374/623/384 371/616/384
f 377/628/385 373/618/385 369/629/385
f 369/622/386 378/621/386 377/628/386
f 378/621/387 375/615/387 372/612/387 376/630/387
f 378/621/388 376/630/388 377/628/388
f 372/612/389 370/611/389 376/630/389
o Cube
v -1.136977 0.113145 5.075492
v -0.691388 -0.392628 4.677711
v -0.627762 -0.280376 5.150870
v -0.374671 -0.130645 4.834806
v -1.123319 -0.288554 4.827300
v -0.738685 0.118774 5.250236
v -0.436267 0.182700 5.030901
v -0.718444 -0.008176 4.443627
v -0.998511 0.248974 4.619258
v -0.674413 0.360106 4.695366
vn 0.6017 -0.7915 0.1069
vn 0.8083 -0.1899 0.5573
vn -0.6219 -0.1528 -0.7680
vn -0.3885 -0.4990 -0.7746
vn -0.0662 0.9178 0.3915
vn -0.1454 -0.9581 0.2468
vn -0.4383 -0.4143 0.7976
vn 0.5917 -0.0360 0.8053
vn -0.9592 0.1244 -0.2541
vn -0.3546 0.9201 0.1663
vn 0.7968 0.3460 -0.4953
vn 0.0004 0.5643 -0.8256
vn 0.6388 -0.3668 -0.6763
vt 0.550384 0.206938
vt 0.375000 0.305791
vt 0.375000 0.049496
vt 0.180791 0.500000
vt 0.330928 0.574320
vt 0.125000 0.700504
vt 0.804283 0.500000
vt 0.842867 0.681766
vt 0.658516 0.626313
vt 0.875000 0.500000
vt 0.501754 0.540833
vt 0.565165 0.799791
vt 0.325310 0.750000
vt 0.604031 0.069198
vt 0.375000 1.000000
vt 0.375000 0.799690
vt 0.578028 1.000000
vt 0.615335 0.592735
vt 0.589707 0.775249
vt 0.581909 0.353207
s 0
g Cube_Material
usemtl Material
f 380/631/390 382/632/390 381/633/390
f 382/634/391 385/635/391 381/636/391
f 386/637/392 383/638/392 387/639/392
f 383/638/393 386/637/393 380/640/393
f 388/641/394 379/642/394 384/643/394 385/635/394
f 381/633/395 383/644/395 380/631/395
f 381/645/396 384/646/396 379/642/396 383/647/396
f 385/635/397 384/643/397 381/636/397
f 387/648/398 383/638/398 379/649/398
f 379/642/399 388/641/399 387/648/399
f 388/641/400 385/635/400 382/632/400 386/650/400
f 388/641/401 386/650/401 387/648/401
f 382/632/402 380/631/402 386/650/402
o Cube
v 4.398146 0.059170 -0.660037
v 4.770721 -0.528370 -0.222442
v 4.269709 -0.414097 -0.188354
v 4.575245 -0.293218 0.123973
v 4.656584 -0.364066 -0.672245
v 4.176407 0.017032 -0.262931
v 4.376039 0.043341 0.080377
v 5.017836 -0.126760 -0.179343
v 4.861478 0.178378 -0.454785
v 4.750060 0.254444 -0.111806
vn -0.1620 -0.8565 0.4900
vn -0.6302 -0.2792 0.7245
vn 0.8228 -0.0856 -0.5619
vn 0.8079 -0.4572 -0.3720
vn -0.3842 0.9232 0.0083
vn -0.2315 -0.9312 -0.2814
vn -0.7530 -0.3506 -0.5569
vn -0.8570 -0.0980 0.5059
vn 0.3424 0.2353 -0.9096
vn -0.1331 0.9576 -0.2556
vn 0.4185 0.2431 0.8750
vn 0.8216 0.5515 0.1446
vn 0.6139 -0.4475 0.6502
vt 0.550384 0.206938
vt 0.375000 0.305791
vt 0.375000 0.049496
vt 0.180791 0.500000
vt 0.330928 0.574320
vt 0.125000 0.700504
vt 0.804283 0.500000
vt 0.842867 0.681766
vt 0.658516 0.626313
vt 0.875000 0.500000
vt 0.501754 0.540833
vt 0.565165 0.799791
vt 0.325310 0.750000
vt 0.604031 0.069198
vt 0.375000 1.000000
vt 0.375000 0.799690
vt 0.578028 1.000000
vt 0.615335 0.592735
vt 0.589707 0.775249
vt 0.581909 0.353207
s 0
g Cube_Material
usemtl Material
f 390/651/403 392/652/403 391/653/403
f 392/654/404 395/655/404 391/656/404
f 396/657/405 393/658/405 397/659/405
f 393/658/406 396/657/406 390/660/406
f 398/661/407 389/662/407 394/663/407 395/655/407
f 391/653/408 393/664/408 390/651/408
f 391/665/409 394/666/409 389/662/409 393/667/409
f 395/655/410 394/663/410 391/656/410
f 397/668/411 393/658/411 389/669/411
f 389/662/412 398/661/412 397/668/412
f 398/661/413 395/655/413 392/652/413 396/670/413
f 398/661/414 396/670/414 397/668/414
f 392/652/415 390/651/415 396/670/415
o Cube
v 0.336674 -0.190167 -3.822009
v 0.390865 -0.064903 -4.583008
v 0.769381 -0.145185 -4.291490
v 0.667861 0.239883 -4.444042
v 0.218170 -0.335555 -4.249281
v 0.715753 -0.003110 -3.899010
v 0.730367 0.319737 -4.088027
v 0.141318 0.256845 -4.402428
v 0.060365 0.169777 -4.006163
v 0.303442 0.416443 -4.022533
vn 0.5800 -0.1633 -0.7981
vn 0.9630 0.1717 -0.2076
vn -0.9542 -0.1847 -0.2355
vn -0.7599 -0.2533 -0.5987
vn 0.1185 0.3858 0.9149
vn 0.2392 -0.8110 -0.5339
vn 0.3915 -0.8776 0.2768
vn 0.9917 0.0284 0.1252
vn -0.8180 -0.4360 0.3752
vn -0.2353 0.2934 0.9266
vn 0.0752 0.9412 -0.3292
vn -0.7119 0.7022 0.0088
vn -0.0555 0.4556 -0.8885
vt 0.550384 0.206938
vt 0.375000 0.305791
vt 0.375000 0.049496
vt 0.180791 0.500000
vt 0.330928 0.574320
vt 0.125000 0.700504
vt 0.804283 0.500000
vt 0.842867 0.681766
vt 0.658516 0.626313
vt 0.875000 0.500000
vt 0.501754 0.540833
vt 0.565165 0.799791
vt 0.325310 0.750000
vt 0.604031 0.069198
vt 0.375000 1.000000
vt 0.375000 0.799690
vt 0.578028 1.000000
vt 0.615335 0.592735
vt 0.589707 0.775249
vt 0.581909 0.353207
s 0
g Cube_Material
usemtl Material
f 400/671/416 402/672/416 401/673/416
f 402/674/417 405/675/417 401/676/417
f 406/677/418 403/678/418 407/679/418
f 403/678/419 406/677/419 400/680/419
f 408/681/420 399/682/420 404/683/420 405/675/420
f 401/673/421 403/684/421 400/671/421
f 401/685/422 404/686/422 399/682/422 403/687/422
f 405/675/423 404/683/423 401/676/423
f 407/688/424 403/678/424 399/689/424
f 399/682/425 408/681/425 407/688/425
f 408/681/426 405/675/426 402/672/426 406/690/426
f 408/681/427 406/690/427 407/688/427
f 402/672/428 400/671/428 406/690/428
o Cube
v 3.121064 -0.140042 -2.823543
v 2.550856 0.352218 -3.397442
v 3.110720 0.204745 -3.527572
v 2.965475 0.686007 -3.385675
v 2.631258 -0.134848 -3.118074
v 3.420842 0.178063 -3.116691
v 3.334398 0.628276 -3.128471
v 2.545482 0.584369 -2.903732
v 2.792457 0.293285 -2.570458
v 3.036000 0.624824 -2.675843
vn -0.1612 0.2340 -0.9588
vn 0.5675 0.3857 -0.7274
vn -0.8677 -0.2342 0.4385
vn -0.9897 -0.1335 0.0520
vn 0.7715 0.0378 0.6351
vn -0.3200 -0.5106 -0.7981
vn 0.3353 -0.8442 -0.4183
vn 0.7949 0.1372 -0.5911
vn -0.3893 -0.6665 0.6357
vn 0.5141 -0.1072 0.8510
vn -0.0301 0.9956 0.0888
vn -0.3932 0.5281 0.7527
vn -0.5810 0.7341 -0.3515
vt 0.550384 0.206938
vt 0.375000 0.305791
vt 0.375000 0.049496
vt 0.180791 0.500000
vt 0.330928 0.574320
vt 0.125000 0.700504
vt 0.804283 0.500000
vt 0.842867 0.681766
vt 0.658516 0.626313
vt 0.875000 0.500000
vt 0.501754 0.540833
vt 0.565165 0.799791
vt 0.325310 0.750000
vt 0.604031 0.069198
vt 0.375000 1.000000
vt 0.375000 0.799690
vt 0.578028 1.000000
vt 0.615335 0.592735
vt 0.589707 0.775249
vt 0.581909 0.353207
s 0
g Cube_Material
usemtl Material
f 410/691/429 412/692/429 411/693/429
f 412/694/430 415/695/430 411/696/430
f 416/697/431 413/698/431 417/699/431
f 413/698/432 416/697/432 410/700/432
f 418/701/433 409/702/433 414/703/433 415/695/433
f 411/693/434 413/704/434 410/691/434
f 411/705/435 414/706/435 409/702/435 413/707/435
f 415/695/436 414/703/436 411/696/436
f 417/708/437 413/698/437 409/709/437
f 409/702/438 418/701/438 417/708/438
f 418/701/439 415/695/439 412/692/439 416/710/439
f 418/701/440 416/710/440 417/708/440
f 412/692/441 410/691/441 416/710/441
o Cube
v -4.038868 0.228857 0.122856
v -3.887234 0.112807 -0.713450
v -3.580525 0.411114 -0.388062
v -3.882873 0.594932 -0.702187
v -3.940452 -0.111797 -0.254404
v -3.816349 0.617062 -0.041656
v -3.968986 0.820635 -0.370017
v -4.357376 0.253679 -0.655375
v -4.467396 0.259856 -0.209765
v -4.415918 0.620370 -0.333671
vn 0.7232 0.0096 -0.6905
vn 0.6915 0.6681 -0.2747
vn -0.5788 -0.8048 -0.1317
vn -0.3070 -0.8403 -0.4468
vn -0.3389 0.6254 0.7029
vn 0.7831 -0.5896 -0.1977
vn 0.7610 -0.2978 0.5764
vn 0.7247 0.6836 0.0869
vn -0.4600 -0.7154 0.5260
vn -0.5613 0.3396 0.7548
vn -0.4249 0.6221 -0.6576
vn -0.9691 0.0559 -0.2401
vn -0.1154 0.0242 -0.9930
vt 0.550384 0.206938
vt 0.375000 0.305791
vt 0.375000 0.049496
vt 0.180791 0.500000
vt 0.330928 0.574320
vt 0.125000 0.700504
vt 0.804283 0.500000
vt 0.842867 0.681766
vt 0.658516 0.626313
vt 0.875000 0.500000
vt 0.501754 0.540833
vt 0.565165 0.799791
vt 0.325310 0.750000
vt 0.604031 0.069198
vt 0.375000 1.000000
vt 0.375000 0.799690
vt 0.578028 1.000000
vt 0.615335 0.592735
vt 0.589707 0.775249
vt 0.581909 0.353207
s 0
g Cube_Material
usemtl Material
f 420/711/442 422/712/442 421/713/442
f 422/714/443 425/715/443 421/716/443
f 426/717/444 423/718/444 427/719/444
f 423/718/445 426/717/445 420/720/445
f 428/721/446 419/722/446 424/723/446 425/715/446
f 421/713/447 423/724/447 420/711/447
f 421/725/448 424/726/448 419/722/448 423/727/448
f 425/715/449 424/723/449 421/716/449
f 427/728/450 423/718/450 419/729/450
f 419/722/451 428/721/451 427/728/451
f 428/721/452 425/715/452 422/712/452 426/730/452
f 428/721/453 426/730/453 427/728/453
f 422/712/454 420/711/454 426/730/454
o Cube
v 1.871181 0.394313 -2.800808
v 2.892289 0.421031 -2.580161
v 2.579441 0.872011 -2.937281
v 2.923327 0.469282 -3.164868
v 2.310620 0.417918 -2.348986
v 2.141795 0.666303 -3.236795
v 2.529748 0.442828 -3.472674
v 2.756279 -0.122279 -2.801054
v 2.202230 -0.176402 -2.854012
v 2.392747 -0.105397 -3.276220
vn 0.7824 0.6159 0.0924
vn 0.4165 0.6901 -0.5919
vn -0.0098 -0.6465 0.7629
vn 0.3362 -0.4257 0.8401
vn -0.6942 -0.1903 -0.6942
vn 0.2592 0.7037 0.6616
vn -0.4866 0.8129 0.3200
vn 0.0651 0.7756 -0.6278
vn -0.6363 -0.4289 0.6413
vn -0.7974 -0.4224 -0.4309
vn 0.6373 -0.4701 -0.6105
vn 0.1077 -0.9872 -0.1174
vn 0.9666 -0.2543 0.0303
vt 0.550384 0.206938
vt 0.375000 0.305791
vt 0.375000 0.049496
vt 0.180791 0.500000
vt 0.330928 0.574320
vt 0.125000 0.700504
vt 0.804283 0.500000
vt 0.842867 0.681766
vt 0.658516 0.626313
vt 0.875000 0.500000
vt 0.501754 0.540833
vt 0.565165 0.799791
vt 0.325310 0.750000
vt 0.604031 0.069198
vt 0.375000 1.000000
vt 0.375000 0.799690
vt 0.578028 1.000000
vt 0.615335 0.592735
vt 0.589707 0.775249
vt 0.581909 0.353207
s 0
g Cube_Material
usemtl Material
f 430/731/455 432/732/455 431/733/455
f 432/734/456 435/735/456 431/736/456
f 436/737/457 433/738/457 437/739/457
f 433/738/458 436/737/458 430/740/458
f 438/741/459 429/742/459 434/743/459 435/735/459
f 431/733/460 433/744/460 430/731/460
f 431/745/461 434/746/461 429/742/461 433/747/461
f 435/735/462 434/743/462 431/736/462
f 437/748/463 433/738/463 429/749/463
f 429/742/464 438/741/464 437/748/464
f 438/741/465 435/735/465 432/732/465 436/750/465
f 438/741/466 436/750/466 437/748/466
f 432/732/467 430/731/467 436/750/467
o Cube
v -3.345086 -0.136685 -0.361569
v -3.722087 0.349489 -0.176845
v -3.855382 0.012658 -0.352316
v -3.828476 0.323100 -0.520943
v -3.468954 0.081712 -0.066163
v -3.628908 -0.128918 -0.577963
v -3.703128 0.133292 -0.727948
v -3.444972 0.484973 -0.381314
v -3.213791 0.239010 -0.446179
v -3.371899 0.286365 -0.682252
vn -0.9349 0.2285 0.2715
vn -0.8998 -0.1455 -0.4114
vn 0.6472 0.4451 0.6188
vn 0.2801 0.5807 0.7644
vn 0.4378 -0.4643 -0.7699
vn -0.5604 -0.1973 0.8044
vn -0.2458 -0.8669 0.4336
vn -0.7522 -0.4745 -0.4573
vn 0.8496 -0.1858 0.4936
vn 0.7303 -0.3827 -0.5659
vn -0.1653 0.7512 -0.6390
vn 0.6546 0.6942 -0.2992
vn -0.4053 0.9125 0.0553
vt 0.550384 0.206938
vt 0.375000 0.305791
vt 0.375000 0.049496
vt 0.180791 0.500000
vt 0.330928 0.574320
vt 0.125000 0.700504
vt 0.804283 0.500000
vt 0.842867 0.681766
vt 0.658516 0.626313
vt 0.875000 0.500000
vt 0.501754 0.540833
vt 0.565165 0.799791
vt 0.325310 0.750000
vt 0.604031 0.069198
vt 0.375000 1.000000
vt 0.375000 0.799690
vt 0.578028 1.000000
vt 0.615335 0.592735
vt 0.589707 0.775249
vt 0.581909 0.353207
s 0
g Cube_Material
usemtl Material
f 440/751/468 442/752/468 441/753/468
f 442/754/469 445/755/469 441/756/469
f 446/757/470 443/758/470 447/759/470
f 443/758/471 446/757/471 440/760/471
f 448/761/472 439/762/472 444/763/472 445/755/472
f 441/753/473 443/764/473 440/751/473
f 441/765/474 444/766/474 439/762/474 443/767/474
f 445/755/475 444/763/475 441/756/475
f 447/768/476 443/758/476 439/769/476
f 439/762/477 448/761/477 447/768/477
f 448/761/478 445/755/478 442/752/478 446/770/478
f 448/761/479 446/770/479 447/768/479
f 442/752/480 440/751/480 446/770/480
o Cube
v -1.263821 0.332670 -1.830601
v -1.509204 0.215885 -2.743265
v -0.952666 0.162709 -2.534720
v -1.121182 0.579248 -2.806715
v -1.581174 0.035917 -2.206832
v -0.849523 0.469715 -2.130023
v -0.900099 0.783423 -2.464201
v -1.714877 0.692240 -2.565014
v -1.649000 0.735299 -2.061561
v -1.365878 0.983213 -2.263370
vn 0.2768 -0.4444 -0.8520
vn 0.8429 -0.0103 -0.5380
vn -0.9825 -0.1242 0.1392
vn -0.9220 -0.3126 -0.2286
vn 0.4261 0.6035 0.6740
vn 0.0273 -0.9488 -0.3147
vn 0.4391 -0.8096 0.3895
vn 0.9772 -0.0596 -0.2038
vn -0.6570 -0.2139 0.7229
vn 0.0942 0.5616 0.8220
vn -0.0151 0.7992 -0.6009
vn -0.6505 0.7593 0.0202
vn -0.3368 0.1990 -0.9203
vt 0.550384 0.206938
vt 0.375000 0.305791
vt 0.375000 0.049496
vt 0.180791 0.500000
vt 0.330928 0.574320
vt 0.125000 0.700504
vt 0.804283 0.500000
vt 0.842867 0.681766
vt 0.658516 0.626313
vt 0.875000 0.500000
vt 0.501754 0.540833
vt 0.565165 0.799791
vt 0.325310 0.750000
vt 0.604031 0.069198
vt 0.375000 1.000000
vt 0.375000 0.799690
vt 0.578028 1.000000
vt 0.615335 0.592735
vt 0.589707 0.775249
vt 0.581909 0.353207
s 0
g Cube_Material
usemtl Material
f 450/771/481 452/772/481 451/773/481
f 452/774/482 455/775/482 451/776/482
f 456/777/483 453/778/483 457/779/483
f 453/778/484 456/777/484 450/780/484
f 458/781/485 449/782/485 454/783/485 455/775/485
f 451/773/486 453/784/486 450/771/486
f 451/785/487 454/786/487 449/782/487 453/787/487
f 455/775/488 454/783/488 451/776/488
f 457/788/489 453/778/489 449/789/489
f 449/782/490 458/781/490 457/788/490
f 458/781/491 455/775/491 452/772/491 456/790/491
f 458/781/492 456/790/492 457/788/492
f 452/772/493 450/771/493 456/790/493
o Cube
v -1.862302 -0.075909 -2.255970
v -2.222349 0.457608 -2.782190
v -1.920112 0.598269 -2.381870
v -2.377048 0.636795 -2.379169
v -1.905998 0.076317 -2.732096
v -1.942384 0.317652 -2.027549
v -2.312889 0.475029 -2.021167
v -2.554941 0.153650 -2.619679
v -2.363972 -0.171867 -2.384128
v -2.526423 0.070210 -2.151759
vn 0.0755 0.9216 -0.3808
vn 0.0794 0.9137 0.3986
vn -0.2043 -0.6497 -0.7322
vn -0.1966 -0.2863 -0.9378
vn -0.0218 -0.4070 0.9132
vn 0.6339 0.4427 -0.6342
vn 0.9958 0.0893 0.0208
vn 0.3214 0.7324 0.6002
vn 0.2554 -0.9139 -0.3156
vn -0.0449 -0.7073 0.7055
vn -0.9247 0.3240 0.2000
vn -0.8480 -0.5283 -0.0425
vn -0.7053 0.5066 -0.4959
vt 0.550384 0.206938
vt 0.375000 0.305791
vt 0.375000 0.049496
vt 0.180791 0.500000
vt 0.330928 0.574320
vt 0.125000 0.700504
vt 0.804283 0.500000
vt 0.842867 0.681766
vt 0.658516 0.626313
vt 0.875000 0.500000
vt 0.501754 0.540833
vt 0.565165 0.799791
vt 0.325310 0.750000
vt 0.604031 0.069198
vt 0.375000 1.000000
vt 0.375000 0.799690
vt 0.578028 1.000000
vt 0.615335 0.592735
vt 0.589707 0.775249
vt 0.581909 0.353207
s 0
g Cube_Material
usemtl Material
f 460/791/494 462/792/494 461/793/494
f 462/794/495 465/795/495 461/796/495
f 466/797/496 463/798/496 467/799/496
f 463/798/497 466/797/497 460/800/497
f 468/801/498 459/802/498 464/803/498 465/795/498
f 461/793/499 463/804/499 460/791/499
f 461/805/500 464/806/500 459/802/500 463/807/500
f 465/795/501 464/803/501 461/796/501
f 467/808/502 463/798/502 459/809/502
f 459/802/503 468/801/503 467/808/503
f 468/801/504 465/795/504 462/792/504 466/810/504
f 468/801/505 466/810/505 467/808/505
f 462/792/506 460/791/506 466/810/506
o Cube
v 2.761753 0.504899 -0.125303
v 3.063212 0.711012 0.835181
v 3.397282 0.868527 0.307757
v 3.536697 0.437651 0.648563
v 2.629916 0.795738 0.406357
v 3.332739 0.510479 -0.117068
v 3.579850 0.224978 0.207014
v 2.919846 0.137722 0.799720
v 2.688205 0.029346 0.312952
v 3.121428 -0.127624 0.314629
vn 0.5699 0.6152 0.5447
vn 0.9596 0.2785 -0.0404
vn -0.8854 -0.1220 0.4485
vn -0.6851 0.1270 0.7173
vn 0.1258 -0.5841 -0.8018
vn -0.0594 0.9662 0.2509
vn -0.0862 0.8216 -0.5635
vn 0.8676 0.3073 -0.3908
vn -0.9753 -0.0479 -0.2156
vn -0.2291 -0.6402 -0.7332
vn 0.5348 -0.6851 0.4946
vn -0.3205 -0.8808 0.3486
vn 0.2962 -0.1326 0.9459
vt 0.550384 0.206938
vt 0.375000 0.305791
vt 0.375000 0.049496
vt 0.180791 0.500000
vt 0.330928 0.574320
vt 0.125000 0.700504
vt 0.804283 0.500000
vt 0.842867 0.681766
vt 0.658516 0.626313
vt 0.875000 0.500000
vt 0.501754 0.540833
vt 0.565165 0.799791
vt 0.325310 0.750000
vt 0.604031 0.069198
vt 0.375000 1.000000
vt 0.375000 0.799690
vt 0.578028 1.000000
vt 0.615335 0.592735
vt 0.589707 0.775249
vt 0.581909 0.353207
s 0
g Cube_Material
usemtl Material
f 470/811/507 472/812/507 471/813/507
f 472/814/508 475/815/508 471/816/508
f 476/817/509 473/818/509 477/819/509
f 473/818/510 476/817/510 470/820/510
f 478/821/511 469/822/511 474/823/511 475/815/511
f 471/813/512 473/824/512 470/811/512
f 471/825/513 474/826/513 469/822/513 473/827/513
f 475/815/514 474/823/514 471/816/514
f 477/828/515 473/818/515 469/829/515
f 469/822/516 478/821/516 477/828/516
f 478/821/517 475/815/517 472/812/517 476/830/517
f 478/821/518 476/830/518 477/828/518
f 472/812/519 470/811/519 476/830/519
o Cube
v -0.262248 0.236858 1.963864
v 0.515839 0.932431 2.428776
v 0.642748 0.497060 1.874792
v 0.842614 0.380360 2.460948
v -0.090035 0.887538 2.113777
v 0.309468 -0.027900 1.884955
v 0.639950 -0.108203 2.321355
v 0.234148 0.579874 2.907981
v -0.239309 0.262582 2.686732
v 0.157719 -0.052894 2.759789
vn 0.8494 0.4916 -0.1918
vn 0.8941 -0.2685 -0.3583
vn -0.6316 0.6005 0.4904
vn -0.2952 0.8441 0.4475
vn -0.3269 -0.9414 -0.0836
vn 0.2360 0.7896 -0.5665
vn -0.1472 0.1789 -0.9728
vn 0.6751 -0.4400 -0.5922
vn -0.9677 0.2511 0.0218
vn -0.6268 -0.7778 0.0476
vn 0.5461 -0.3332 0.7686
vn -0.3147 -0.1802 0.9319
vn 0.6237 0.4080 0.6668
vt 0.550384 0.206938
vt 0.375000 0.305791
vt 0.375000 0.049496
vt 0.180791 0.500000
vt 0.330928 0.574320
vt 0.125000 0.700504
vt 0.804283 0.500000
vt 0.842867 0.681766
vt 0.658516 0.626313
vt 0.875000 0.500000
vt 0.501754 0.540833
vt 0.565165 0.799791
vt 0.325310 0.750000
vt 0.604031 0.069198
vt 0.375000 1.000000
vt 0.375000 0.799690
vt 0.578028 1.000000
vt 0.615335 0.592735
vt 0.589707 0.775249
vt 0.581909 0.353207
s 0
g Cube_Material
usemtl Material
f 480/831/520 482/832/520 481/833/520
f 482/834/521 485/835/521 481/836/521
f 486/837/522 483/838/522 487/839/522
f 483/838/523 486/837/523 480/840/523
f 488/841/524 479/842/524 484/843/524 485/835/524
f 481/833/525 483/844/525 480/831/525
f 481/845/526 484/846/526 479/842/526 483/847/526
f 485/835/527 484/843/527 481/836/527
f 487/848/528 483/838/528 479/849/528
f 479/842/529 488/841/529 487/848/529
f 488/841/530 485/835/530 482/832/530 486/850/530
f 488/841/531 486/850/531 487/848/531
f 482/832/532 480/831/532 486/850/532
o Cube
v -2.292530 0.326561 -0.747379
v -1.593027 0.189296 -1.047691
v -2.009994 0.045217 -1.248470
v -1.745502 -0.217929 -1.041510
v -1.897649 0.511739 -0.913915
v -2.313168 -0.041023 -0.969321
v -2.071382 -0.317704 -0.896555
v -1.592707 0.062839 -0.620364
v -1.943396 0.181941 -0.435539
v -1.956791 -0.158723 -0.499449
vn 0.4789 -0.1923 -0.8565
vn -0.1128 -0.6818 -0.7228
vn 0.5077 0.6858 0.5214
vn 0.7516 0.6326 0.1866
vn -0.7798 -0.3824 0.4956
vn 0.2085 0.5363 -0.8179
vn -0.5950 0.5096 -0.6216
vn -0.4578 -0.5778 -0.6757
vn -0.1523 0.8204 0.5511
vn -0.6867 -0.1079 0.7189
vn 0.4922 -0.8236 0.2818
vn 0.4087 -0.1838 0.8940
vn 0.9309 -0.3501 -0.1043
vt 0.550384 0.206938
vt 0.375000 0.305791
vt 0.375000 0.049496
vt 0.180791 0.500000
vt 0.330928 0.574320
vt 0.125000 0.700504
vt 0.804283 0.500000
vt 0.842867 0.681766
vt 0.658516 0.626313
vt 0.875000 0.500000
vt 0.501754 0.540833
vt 0.565165 0.799791
vt 0.325310 0.750000
vt 0.604031 0.069198
vt 0.375000 1.000000
vt 0.375000 0.799690
vt 0.578028 1.000000
vt 0.615335 0.592735
vt 0.589707 0.775249
vt 0.581909 0.353207
s 0
g Cube_Material
usemtl Material
f 490/851/533 492/852/533 491/853/533
f 492/854/534 495/855/534 491/856/534
f 496/857/535 493/858/535 497/859/535
f 493/858/536 496/857/536 490/860/536
f 498/861/537 489/862/537 494/863/537 495/855/537
f 491/853/538 493/864/538 490/851/538
f 491/865/539 494/866/539 489/862/539 493/867/539
f 495/855/540 494/863/540 491/856/540
f 497/868/541 493/858/541 489/869/541
f 489/862/542 498/861/542 497/868/542
f 498/861/543 495/855/543 492/852/543 496/870/543
f 498/861/544 496/870/544 497/868/544
f 492/852/545 490/851/545 496/870/545
o Cube
v -1.382279 0.324797 2.204058
v -0.722178 0.505987 1.635991
v -0.733132 0.063447 1.974700
v -0.453757 0.458651 2.055286
v -1.241548 0.400914 1.691577
v -0.963678 0.142029 2.393163
v -0.620085 0.397096 2.442506
v -0.818446 0.924625 1.915474
v -1.210131 0.860669 2.178277
v -0.887769 0.829171 2.411092
vn 0.7427 -0.4185 -0.5227
vn 0.7700 -0.5926 0.2366
vn -0.4947 0.6475 -0.5797
vn -0.1934 0.5136 -0.8359
vn -0.2993 0.0082 0.9541
vn 0.0381 -0.6079 -0.7931
vn -0.4178 -0.8936 -0.1643
vn 0.5018 -0.7569 0.4186
vn -0.9331 0.2895 -0.2132
vn -0.5574 0.2176 0.8012
vn 0.7505 0.5865 0.3046
vn -0.0369 0.9822 0.1840
vn 0.7670 0.4688 -0.4381
vt 0.550384 0.206938
vt 0.375000 0.305791
vt 0.375000 0.049496
vt 0.180791 0.500000
vt 0.330928 0.574320
vt 0.125000 0.700504
vt 0.804283 0.500000
vt 0.842867 0.681766
vt 0.658516 0.626313
vt 0.875000 0.500000
vt 0.501754 0.540833
vt 0.565165 0.799791
vt 0.325310 0.750000
vt 0.604031 0.069198
vt 0.375000 1.000000
vt 0.375000 0.799690
vt 0.578028 1.000000
vt 0.615335 0.592735
vt 0.589707 0.775249
vt 0.581909 0.353207
s 0
g Cube_Material
usemtl Material
f 500/871/546 502/872/546 501/873/546
f 502/874/547 505/875/547 501/876/547
f 506/877/548 503/878/548 507/879/548
f 503/878/549 506/877/549 500/880/549
f 508/881/550 499/882/550 504/883/550 505/875/550
f 501/873/551 503/884/551 500/871/551
f 501/885/552 504/886/552 499/882/552 503/887/552
f 505/875/553 504/883/553 501/876/553
f 507/888/554 503/878/554 499/889/554
f 499/882/555 508/881/555 507/888/555
f 508/881/556 505/875/556 502/872/556 506/890/556
f 508/881/557 506/890/557 507/888/557
f 502/872/558 500/871/558 506/890/558
o Cube
v -1.312821 -0.129417 0.357911
v -1.711059 -0.632966 0.977374
v -1.781445 -0.696134 0.426414
v -2.117053 -0.488818 0.720565
v -1.246488 -0.469949 0.769685
v -1.747462 -0.282236 0.174737
v -2.111949 -0.211605 0.395633
v -1.786098 -0.137978 1.093687
v -1.525584 0.140474 0.806470
v -1.908473 0.151900 0.691112
vn -0.4166 -0.8956 0.1559
vn -0.7215 -0.5211 -0.4559
vn 0.6006 0.2284 0.7662
vn 0.4447 -0.1404 0.8846
vn -0.1077 0.7442 -0.6592
vn 0.3549 -0.9329 0.0616
vn 0.5549 -0.5358 -0.6363
vn -0.5297 -0.4085 -0.7433
vn 0.8978 0.3993 0.1856
vn 0.1621 0.8776 -0.4511
vn -0.8756 0.3024 0.3768
vn -0.1601 0.7773 0.6084
vn -0.5812 -0.2686 0.7681
vt 0.550384 0.206938
vt 0.375000 0.305791
vt 0.375000 0.049496
vt 0.180791 0.500000
vt 0.330928 0.574320
vt 0.125000 0.700504
vt 0.804283 0.500000
vt 0.842867 0.681766
vt 0.658516 0.626313
vt 0.875000 0.500000
vt 0.501754 0.540833
vt 0.565165 0.799791
vt 0.325310 0.750000
vt 0.604031 0.069198
vt 0.375000 1.000000
vt 0.375000 0.799690
vt 0.578028 1.000000
vt 0.615335 0.592735
vt 0.589707 0.775249
vt 0.581909 0.353207
s 0
g Cube_Material
usemtl Material
f 510/891/559 512/892/559 511/893/559
f 512/894/560 515/895/560 511/896/560
f 516/897/561 513/898/561 517/899/561
f 513/898/562 516/897/562 510/900/562
f 518/901/563 509/902/563 514/903/563 515/895/563
f 511/893/564 513/904/564 510/891/564
f 511/905/565 514/906/565 509/902/565 513/907/565
f 515/895/566 514/903/566 511/896/566
f 517/908/567 513/898/567 509/909/567
f 509/902/568 518/901/568 517/908/568
f 518/901/569 515/895/569 512/892/569 516/910/569
f 518/901/570 516/910/570 517/908/570
f 512/892/571 510/891/571 516/910/571
o Cube
v -0.147381 0.047328 1.605985
v -0.575172 0.406583 2.081196
v -0.405148 -0.014423 2.152240
v -0.790746 0.056276 2.052428
v -0.196343 0.407374 1.858788
v -0.358751 -0.228763 1.818662
v -0.712937 -0.207789 1.834425
v -0.759665 0.412525 1.701109
v -0.515537 0.268916 1.429447
v -0.744928 0.044046 1.499991
vn -0.2385 0.0672 0.9688
vn -0.2995 -0.6584 0.6906
vn 0.1151 0.9172 -0.3814
vn 0.0055 0.9999 0.0130
vn 0.0514 -0.7270 -0.6847
vn 0.4774 0.3302 0.8143
vn 0.8861 -0.2508 0.3898
vn -0.0260 -0.8427 0.5378
vn 0.6020 0.5121 -0.6127
vn 0.1592 -0.4397 -0.8839
vn -0.9925 -0.0920 -0.0803
vn -0.5850 0.3704 -0.7215
vn -0.7969 0.4580 0.3940
vt 0.550384 0.206938
vt 0.375000 0.305791
vt 0.375000 0.049496
vt 0.180791 0.500000
vt 0.330928 0.574320
vt 0.125000 0.700504
vt 0.804283 0.500000
vt 0.842867 0.681766
vt 0.658516 0.626313
vt 0.875000 0.500000
vt 0.501754 0.540833
vt 0.565165 0.799791
vt 0.325310 0.750000
vt 0.604031 0.069198
vt 0.375000 1.000000
vt 0.375000 0.799690
vt 0.578028 1.000000
vt 0.615335 0.592735
vt 0.589707 0.775249
vt 0.581909 0.353207
s 0
g Cube_Material
usemtl Material
f 520/911/572 522/912/572 521/913/572
f 522/914/573 525/915/573 521/916/573
f 526/917/574 523/918/574 527/919/574
f 523/918/575 526/917/575 520/920/575
f 528/921/576 519/922/576 524/923/576 525/915/576
f 521/913/577 523/924/577 520/911/577
f 521/925/578 524/926/578 519/922/578 523/927/578
f 525/915/579 524/923/579 521/916/579
f 527/928/580 523/918/580 519/929/580
f 519/922/581 528/921/581 527/928/581
f 528/921/582 525/915/582 522/912/582 526/930/582
f 528/921/583 526/930/583 527/928/583
f 522/912/584 520/911/584 526/930/584
