# Blender 4.1.0
# www.blender.org
mtllib Explosion20032.mtl
o Circle
v -0.024615 0.096888 -1.522372
v -0.024615 0.242742 -1.522372
v 0.122545 0.096888 -1.515142
v 0.122545 0.242742 -1.515142
v 0.268288 0.096888 -1.493523
v 0.268288 0.242742 -1.493523
v 0.411211 0.096888 -1.457723
v 0.411211 0.242742 -1.457723
v 0.549936 0.096888 -1.408086
v 0.549936 0.242742 -1.408086
v 0.683127 0.096888 -1.345092
v 0.683127 0.242742 -1.345092
v 0.809503 0.096888 -1.269345
v 0.809503 0.242742 -1.269345
v 0.927846 0.096888 -1.181576
v 0.927846 0.242742 -1.181576
v 1.037016 0.096888 -1.082630
v 1.037016 0.242742 -1.082630
v 1.135962 0.096888 -0.973460
v 1.135962 0.242742 -0.973460
v 1.223731 0.096888 -0.855117
v 1.223731 0.242742 -0.855117
v 1.299478 0.096888 -0.728741
v 1.299478 0.242742 -0.728741
v 1.362473 0.096888 -0.595549
v 1.362473 0.242742 -0.595549
v 1.412110 0.096888 -0.456824
v 1.412110 0.242742 -0.456824
v 1.447910 0.096888 -0.313902
v 1.447910 0.242742 -0.313902
v 1.469529 0.096888 -0.168159
v 1.469529 0.242742 -0.168159
v 1.476758 0.096888 -0.020998
v 1.476758 0.242742 -0.020998
v 1.469529 0.096888 0.126162
v 1.469529 0.242742 0.126162
v 1.447910 0.096888 0.271905
v 1.447910 0.242742 0.271905
v 1.412110 0.096888 0.414827
v 1.412110 0.242742 0.414827
v 1.362473 0.096888 0.553553
v 1.362473 0.242742 0.553553
v 1.299478 0.096888 0.686744
v 1.299478 0.242742 0.686744
v 1.223731 0.096888 0.813120
v 1.223731 0.242742 0.813120
v 1.135962 0.096888 0.931463
v 1.135962 0.242742 0.931463
v 1.037016 0.096888 1.040633
v 1.037016 0.242742 1.040633
v 0.927846 0.096888 1.139579
v 0.927846 0.242742 1.139579
v 0.809503 0.096888 1.227348
v 0.809503 0.242742 1.227348
v 0.683127 0.096888 1.303095
v 0.683127 0.242742 1.303095
v 0.549936 0.096888 1.366090
v 0.549936 0.242742 1.366090
v 0.411211 0.096888 1.415727
v 0.411211 0.242742 1.415727
v 0.268288 0.096888 1.451527
v 0.268288 0.242742 1.451527
v 0.122545 0.096888 1.473146
v 0.122545 0.242742 1.473146
v -0.024615 0.096888 1.480376
v -0.024615 0.242742 1.480376
v -0.171775 0.096888 1.473146
v -0.171775 0.242742 1.473146
v -0.317519 0.096888 1.451527
v -0.317519 0.242742 1.451527
v -0.460441 0.096888 1.415727
v -0.460441 0.242742 1.415727
v -0.599166 0.096888 1.366090
v -0.599166 0.242742 1.366090
v -0.732358 0.096888 1.303095
v -0.732358 0.242742 1.303095
v -0.858734 0.096888 1.227348
v -0.858734 0.242742 1.227348
v -0.977076 0.096888 1.139579
v -0.977076 0.242742 1.139579
v -1.086246 0.096888 1.040633
v -1.086246 0.242742 1.040633
v -1.185192 0.096888 0.931463
v -1.185192 0.242742 0.931463
v -1.272961 0.096888 0.813120
v -1.272961 0.242742 0.813120
v -1.348708 0.096888 0.686744
v -1.348708 0.242742 0.686744
v -1.411703 0.096888 0.553553
v -1.411703 0.242742 0.553553
v -1.461340 0.096888 0.414827
v -1.461340 0.242742 0.414827
v -1.497140 0.096888 0.271905
v -1.497140 0.242742 0.271905
v -1.518759 0.096888 0.126162
v -1.518759 0.242742 0.126162
v -1.525989 0.096888 -0.020998
v -1.525989 0.242742 -0.020998
v -1.518759 0.096888 -0.168159
v -1.518759 0.242742 -0.168159
v -1.497140 0.096888 -0.313902
v -1.497140 0.242742 -0.313902
v -1.461340 0.096888 -0.456824
v -1.461340 0.242742 -0.456824
v -1.411703 0.096888 -0.595549
v -1.411703 0.242742 -0.595549
v -1.348708 0.096888 -0.728741
v -1.348708 0.242742 -0.728741
v -1.272961 0.096888 -0.855117
v -1.272961 0.242742 -0.855117
v -1.185192 0.096888 -0.973460
v -1.185192 0.242742 -0.973460
v -1.086246 0.096888 -1.082630
v -1.086246 0.242742 -1.082630
v -0.977076 0.096888 -1.181576
v -0.977076 0.242742 -1.181576
v -0.858734 0.096888 -1.269345
v -0.858734 0.242742 -1.269345
v -0.732358 0.096888 -1.345092
v -0.732358 0.242742 -1.345092
v -0.599166 0.096888 -1.408086
v -0.599166 0.242742 -1.408086
v -0.460441 0.096888 -1.457723
v -0.460441 0.242742 -1.457723
v -0.317519 0.096888 -1.493523
v -0.317519 0.242742 -1.493523
v -0.171775 0.096888 -1.515142
v -0.171775 0.242742 -1.515142
vn 0.0491 -0.0000 -0.9988
vn 0.1467 -0.0000 -0.9892
vn 0.2430 -0.0000 -0.9700
vn 0.3369 -0.0000 -0.9415
vn 0.4276 -0.0000 -0.9040
vn 0.5141 -0.0000 -0.8577
vn 0.5957 -0.0000 -0.8032
vn 0.6716 -0.0000 -0.7410
vn 0.7410 -0.0000 -0.6716
vn 0.8032 -0.0000 -0.5957
vn 0.8577 -0.0000 -0.5141
vn 0.9040 -0.0000 -0.4276
vn 0.9415 -0.0000 -0.3369
vn 0.9700 -0.0000 -0.2430
vn 0.9892 -0.0000 -0.1467
vn 0.9988 -0.0000 -0.0491
vn 0.9988 -0.0000 0.0491
vn 0.9892 -0.0000 0.1467
vn 0.9700 -0.0000 0.2430
vn 0.9415 -0.0000 0.3369
vn 0.9040 -0.0000 0.4276
vn 0.8577 -0.0000 0.5141
vn 0.8032 -0.0000 0.5957
vn 0.7410 -0.0000 0.6716
vn 0.6716 -0.0000 0.7410
vn 0.5957 -0.0000 0.8032
vn 0.5141 -0.0000 0.8577
vn 0.4276 -0.0000 0.9040
vn 0.3369 -0.0000 0.9415
vn 0.2430 -0.0000 0.9700
vn 0.1467 -0.0000 0.9892
vn 0.0491 -0.0000 0.9988
vn -0.0491 -0.0000 0.9988
vn -0.1467 -0.0000 0.9892
vn -0.2430 -0.0000 0.9700
vn -0.3369 -0.0000 0.9415
vn -0.4276 -0.0000 0.9040
vn -0.5141 -0.0000 0.8577
vn -0.5957 -0.0000 0.8032
vn -0.6716 -0.0000 0.7410
vn -0.7410 -0.0000 0.6716
vn -0.8032 -0.0000 0.5957
vn -0.8577 -0.0000 0.5141
vn -0.9040 -0.0000 0.4276
vn -0.9415 -0.0000 0.3369
vn -0.9700 -0.0000 0.2430
vn -0.9892 -0.0000 0.1467
vn -0.9988 -0.0000 0.0491
vn -0.9988 -0.0000 -0.0491
vn -0.9892 -0.0000 -0.1467
vn -0.9700 -0.0000 -0.2430
vn -0.9415 -0.0000 -0.3369
vn -0.9040 -0.0000 -0.4276
vn -0.8577 -0.0000 -0.5141
vn -0.8032 -0.0000 -0.5957
vn -0.7410 -0.0000 -0.6716
vn -0.6716 -0.0000 -0.7410
vn -0.5957 -0.0000 -0.8032
vn -0.5141 -0.0000 -0.8577
vn -0.4276 -0.0000 -0.9040
vn -0.3369 -0.0000 -0.9415
vn -0.2430 -0.0000 -0.9700
vn -0.1467 -0.0000 -0.9892
vn -0.0491 -0.0000 -0.9988
vt 1.000000 0.500000
vt 1.000000 1.000000
vt 0.984375 1.000000
vt 0.984375 0.500000
vt 0.968750 1.000000
vt 0.968750 0.500000
vt 0.953125 1.000000
vt 0.953125 0.500000
vt 0.937500 1.000000
vt 0.937500 0.500000
vt 0.921875 1.000000
vt 0.921875 0.500000
vt 0.906250 1.000000
vt 0.906250 0.500000
vt 0.890625 1.000000
vt 0.890625 0.500000
vt 0.875000 1.000000
vt 0.875000 0.500000
vt 0.859375 1.000000
vt 0.859375 0.500000
vt 0.843750 1.000000
vt 0.843750 0.500000
vt 0.828125 1.000000
vt 0.828125 0.500000
vt 0.812500 1.000000
vt 0.812500 0.500000
vt 0.796875 1.000000
vt 0.796875 0.500000
vt 0.781250 1.000000
vt 0.781250 0.500000
vt 0.765625 1.000000
vt 0.765625 0.500000
vt 0.750000 1.000000
vt 0.750000 0.500000
vt 0.734375 1.000000
vt 0.734375 0.500000
vt 0.718750 1.000000
vt 0.718750 0.500000
vt 0.703125 1.000000
vt 0.703125 0.500000
vt 0.687500 1.000000
vt 0.687500 0.500000
vt 0.671875 1.000000
vt 0.671875 0.500000
vt 0.656250 1.000000
vt 0.656250 0.500000
vt 0.640625 1.000000
vt 0.640625 0.500000
vt 0.625000 1.000000
vt 0.625000 0.500000
vt 0.609375 1.000000
vt 0.609375 0.500000
vt 0.593750 1.000000
vt 0.593750 0.500000
vt 0.578125 1.000000
vt 0.578125 0.500000
vt 0.562500 1.000000
vt 0.562500 0.500000
vt 0.546875 1.000000
vt 0.546875 0.500000
vt 0.531250 1.000000
vt 0.531250 0.500000
vt 0.515625 1.000000
vt 0.515625 0.500000
vt 0.500000 1.000000
vt 0.500000 0.500000
vt 0.484375 1.000000
vt 0.484375 0.500000
vt 0.468750 1.000000
vt 0.468750 0.500000
vt 0.453125 1.000000
vt 0.453125 0.500000
vt 0.437500 1.000000
vt 0.437500 0.500000
vt 0.421875 1.000000
vt 0.421875 0.500000
vt 0.406250 1.000000
vt 0.406250 0.500000
vt 0.390625 1.000000
vt 0.390625 0.500000
vt 0.375000 1.000000
vt 0.375000 0.500000
vt 0.359375 1.000000
vt 0.359375 0.500000
vt 0.343750 1.000000
vt 0.343750 0.500000
vt 0.328125 1.000000
vt 0.328125 0.500000
vt 0.312500 1.000000
vt 0.312500 0.500000
vt 0.296875 1.000000
vt 0.296875 0.500000
vt 0.281250 1.000000
vt 0.281250 0.500000
vt 0.265625 1.000000
vt 0.265625 0.500000
vt 0.250000 1.000000
vt 0.250000 0.500000
vt 0.234375 1.000000
vt 0.234375 0.500000
vt 0.218750 1.000000
vt 0.218750 0.500000
vt 0.203125 1.000000
vt 0.203125 0.500000
vt 0.187500 1.000000
vt 0.187500 0.500000
vt 0.171875 1.000000
vt 0.171875 0.500000
vt 0.156250 1.000000
vt 0.156250 0.500000
vt 0.140625 1.000000
vt 0.140625 0.500000
vt 0.125000 1.000000
vt 0.125000 0.500000
vt 0.109375 1.000000
vt 0.109375 0.500000
vt 0.093750 1.000000
vt 0.093750 0.500000
vt 0.078125 1.000000
vt 0.078125 0.500000
vt 0.062500 1.000000
vt 0.062500 0.500000
vt 0.046875 1.000000
vt 0.046875 0.500000
vt 0.031250 1.000000
vt 0.031250 0.500000
vt 0.015625 1.000000
vt 0.015625 0.500000
vt 0.000000 1.000000
vt 0.000000 0.500000
s 0
g Circle_Material.001
usemtl Material.001
f 1/1/1 2/2/1 4/3/1 3/4/1
f 3/4/2 4/3/2 6/5/2 5/6/2
f 5/6/3 6/5/3 8/7/3 7/8/3
f 7/8/4 8/7/4 10/9/4 9/10/4
f 9/10/5 10/9/5 12/11/5 11/12/5
f 11/12/6 12/11/6 14/13/6 13/14/6
f 13/14/7 14/13/7 16/15/7 15/16/7
f 15/16/8 16/15/8 18/17/8 17/18/8
f 17/18/9 18/17/9 20/19/9 19/20/9
f 19/20/10 20/19/10 22/21/10 21/22/10
f 21/22/11 22/21/11 24/23/11 23/24/11
f 23/24/12 24/23/12 26/25/12 25/26/12
f 25/26/13 26/25/13 28/27/13 27/28/13
f 27/28/14 28/27/14 30/29/14 29/30/14
f 29/30/15 30/29/15 32/31/15 31/32/15
f 31/32/16 32/31/16 34/33/16 33/34/16
f 33/34/17 34/33/17 36/35/17 35/36/17
f 35/36/18 36/35/18 38/37/18 37/38/18
f 37/38/19 38/37/19 40/39/19 39/40/19
f 39/40/20 40/39/20 42/41/20 41/42/20
f 41/42/21 42/41/21 44/43/21 43/44/21
f 43/44/22 44/43/22 46/45/22 45/46/22
f 45/46/23 46/45/23 48/47/23 47/48/23
f 47/48/24 48/47/24 50/49/24 49/50/24
f 49/50/25 50/49/25 52/51/25 51/52/25
f 51/52/26 52/51/26 54/53/26 53/54/26
f 53/54/27 54/53/27 56/55/27 55/56/27
f 55/56/28 56/55/28 58/57/28 57/58/28
f 57/58/29 58/57/29 60/59/29 59/60/29
f 59/60/30 60/59/30 62/61/30 61/62/30
f 61/62/31 62/61/31 64/63/31 63/64/31
f 63/64/32 64/63/32 66/65/32 65/66/32
f 65/66/33 66/65/33 68/67/33 67/68/33
f 67/68/34 68/67/34 70/69/34 69/70/34
f 69/70/35 70/69/35 72/71/35 71/72/35
f 71/72/36 72/71/36 74/73/36 73/74/36
f 73/74/37 74/73/37 76/75/37 75/76/37
f 75/76/38 76/75/38 78/77/38 77/78/38
f 77/78/39 78/77/39 80/79/39 79/80/39
f 79/80/40 80/79/40 82/81/40 81/82/40
f 81/82/41 82/81/41 84/83/41 83/84/41
f 83/84/42 84/83/42 86/85/42 85/86/42
f 85/86/43 86/85/43 88/87/43 87/88/43
f 87/88/44 88/87/44 90/89/44 89/90/44
f 89/90/45 90/89/45 92/91/45 91/92/45
f 91/92/46 92/91/46 94/93/46 93/94/46
f 93/94/47 94/93/47 96/95/47 95/96/47
f 95/96/48 96/95/48 98/97/48 97/98/48
f 97/98/49 98/97/49 100/99/49 99/100/49
f 99/100/50 100/99/50 102/101/50 101/102/50
f 101/102/51 102/101/51 104/103/51 103/104/51
f 103/104/52 104/103/52 106/105/52 105/106/52
f 105/106/53 106/105/53 108/107/53 107/108/53
f 107/108/54 108/107/54 110/109/54 109/110/54
f 109/110/55 110/109/55 112/111/55 111/112/55
f 111/112/56 112/111/56 114/113/56 113/114/56
f 113/114/57 114/113/57 116/115/57 115/116/57
f 115/116/58 116/115/58 118/117/58 117/118/58
f 117/118/59 118/117/59 120/119/59 119/120/59
f 119/120/60 120/119/60 122/121/60 121/122/60
f 121/122/61 122/121/61 124/123/61 123/124/61
f 123/124/62 124/123/62 126/125/62 125/126/62
f 125/126/63 126/125/63 128/127/63 127/128/63
f 127/128/64 128/127/64 2/129/64 1/130/64
o Cube
v 6.246107 0.329361 -0.784675
v 5.980528 0.543631 -1.626697
v 6.114753 0.017272 -1.456294
v 6.415574 0.300899 -1.739477
v 5.849101 0.540324 -1.098630
v 6.461430 0.002761 -1.103918
v 6.697648 0.150865 -1.444260
v 6.368302 0.865666 -1.485603
v 6.475278 0.804167 -1.015354
v 6.762055 0.626445 -1.243738
vn -0.4230 -0.3749 -0.8249
vn 0.1927 -0.7881 -0.5846
vn -0.4032 0.8911 0.2083
vn -0.6005 0.7864 -0.1445
vn 0.7701 -0.2385 0.5917
vn -0.9221 -0.3101 -0.2314
vn -0.5930 -0.6797 0.4318
vn 0.2210 -0.9410 -0.2561
vn -0.3294 0.5365 0.7770
vn 0.6442 0.0596 0.7625
vn 0.6909 0.2798 -0.6666
vn 0.5225 0.8526 -0.0074
vn -0.0081 0.4094 -0.9123
vt 0.550384 0.206938
vt 0.375000 0.305791
vt 0.375000 0.049496
vt 0.180791 0.500000
vt 0.330928 0.574320
vt 0.125000 0.700504
vt 0.804283 0.500000
vt 0.842867 0.681766
vt 0.658516 0.626313
vt 0.875000 0.500000
vt 0.501754 0.540833
vt 0.565165 0.799791
vt 0.325310 0.750000
vt 0.604031 0.069198
vt 0.375000 1.000000
vt 0.375000 0.799690
vt 0.578028 1.000000
vt 0.615335 0.592735
vt 0.589707 0.775249
vt 0.581909 0.353207
s 0
g Cube_Material
usemtl Material
f 130/131/65 132/132/65 131/133/65
f 132/134/66 135/135/66 131/136/66
f 136/137/67 133/138/67 137/139/67
f 133/138/68 136/137/68 130/140/68
f 138/141/69 129/142/69 134/143/69 135/135/69
f 131/133/70 133/144/70 130/131/70
f 131/145/71 134/146/71 129/142/71 133/147/71
f 135/135/72 134/143/72 131/136/72
f 137/148/73 133/138/73 129/149/73
f 129/142/74 138/141/74 137/148/74
f 138/141/75 135/135/75 132/132/75 136/150/75
f 138/141/76 136/150/76 137/148/76
f 132/132/77 130/131/77 136/150/77
o Cube
v -4.112408 0.447805 -4.508483
v -4.727208 0.652030 -4.330770
v -4.400420 0.624710 -4.066855
v -4.678595 0.380029 -4.073308
v -4.407745 0.719589 -4.565882
v -4.164575 0.357910 -4.149907
v -4.424507 0.183141 -4.062083
v -4.757839 0.316432 -4.521090
v -4.440141 0.223551 -4.661298
v -4.495138 0.055022 -4.417747
vn -0.4974 0.5478 0.6727
vn -0.0343 0.0127 0.9993
vn -0.3464 0.1990 -0.9167
vn -0.5911 0.4380 -0.6773
vn 0.6653 -0.7462 0.0227
vn -0.0694 0.9798 0.1873
vn 0.7041 0.6857 0.1845
vn 0.3246 -0.0075 0.9458
vn 0.3265 0.1579 -0.9319
vn 0.6337 -0.6957 -0.3383
vn -0.6703 -0.6838 0.2882
vn -0.4528 -0.6821 -0.5742
vn -0.9844 -0.0097 0.1756
vt 0.550384 0.206938
vt 0.375000 0.305791
vt 0.375000 0.049496
vt 0.180791 0.500000
vt 0.330928 0.574320
vt 0.125000 0.700504
vt 0.804283 0.500000
vt 0.842867 0.681766
vt 0.658516 0.626313
vt 0.875000 0.500000
vt 0.501754 0.540833
vt 0.565165 0.799791
vt 0.325310 0.750000
vt 0.604031 0.069198
vt 0.375000 1.000000
vt 0.375000 0.799690
vt 0.578028 1.000000
vt 0.615335 0.592735
vt 0.589707 0.775249
vt 0.581909 0.353207
s 0
g Cube_Material
usemtl Material
f 140/151/78 142/152/78 141/153/78
f 142/154/79 145/155/79 141/156/79
f 146/157/80 143/158/80 147/159/80
f 143/158/81 146/157/81 140/160/81
f 148/161/82 139/162/82 144/163/82 145/155/82
f 141/153/83 143/164/83 140/151/83
f 141/165/84 144/166/84 139/162/84 143/167/84
f 145/155/85 144/163/85 141/156/85
f 147/168/86 143/158/86 139/169/86
f 139/162/87 148/161/87 147/168/87
f 148/161/88 145/155/88 142/152/88 146/170/88
f 148/161/89 146/170/89 147/168/89
f 142/152/90 140/151/90 146/170/90
o Cube
v -5.220328 -0.315084 2.320837
v -5.654427 0.302692 2.022657
v -5.160336 0.227076 1.928263
v -5.312549 0.539717 2.210360
v -5.603902 -0.180276 2.047426
v -4.941748 0.034632 2.260579
v -5.026103 0.383271 2.421420
v -5.720093 0.282392 2.485271
v -5.539359 -0.077985 2.647024
v -5.329757 0.208728 2.726890
vn -0.0430 0.6577 -0.7521
vn 0.6444 0.6609 -0.3847
vn -0.9093 -0.3828 0.1632
vn -0.9834 -0.1103 -0.1444
vn 0.6812 -0.2865 0.6737
vn -0.1976 -0.0708 -0.9777
vn 0.4132 -0.5636 -0.7153
vn 0.8600 0.3702 -0.3513
vn -0.4471 -0.8725 0.1970
vn 0.4027 -0.5067 0.7622
vn -0.0729 0.8408 0.5364
vn -0.5039 0.1305 0.8538
vn -0.5536 0.8317 -0.0421
vt 0.550384 0.206938
vt 0.375000 0.305791
vt 0.375000 0.049496
vt 0.180791 0.500000
vt 0.330928 0.574320
vt 0.125000 0.700504
vt 0.804283 0.500000
vt 0.842867 0.681766
vt 0.658516 0.626313
vt 0.875000 0.500000
vt 0.501754 0.540833
vt 0.565165 0.799791
vt 0.325310 0.750000
vt 0.604031 0.069198
vt 0.375000 1.000000
vt 0.375000 0.799690
vt 0.578028 1.000000
vt 0.615335 0.592735
vt 0.589707 0.775249
vt 0.581909 0.353207
s 0
g Cube_Material
usemtl Material
f 150/171/91 152/172/91 151/173/91
f 152/174/92 155/175/92 151/176/92
f 156/177/93 153/178/93 157/179/93
f 153/178/94 156/177/94 150/180/94
f 158/181/95 149/182/95 154/183/95 155/175/95
f 151/173/96 153/184/96 150/171/96
f 151/185/97 154/186/97 149/182/97 153/187/97
f 155/175/98 154/183/98 151/176/98
f 157/188/99 153/178/99 149/189/99
f 149/182/100 158/181/100 157/188/100
f 158/181/101 155/175/101 152/172/101 156/190/101
f 158/181/102 156/190/102 157/188/102
f 152/172/103 150/171/103 156/190/103
o Cube
v -1.236064 0.222243 6.232760
v -0.728550 0.165765 5.800964
v -0.688290 0.294452 6.197717
v -0.675381 0.522261 5.907901
v -1.023862 -0.024189 5.993706
v -0.978411 0.473711 6.324981
v -0.870620 0.683946 6.103504
v -1.009665 0.370743 5.635446
v -1.303236 0.365978 5.840014
v -1.167242 0.631868 5.867132
vn 0.9898 -0.1302 -0.0582
vn 0.7883 0.4662 0.4015
vn -0.4555 -0.5891 -0.6674
vn -0.0524 -0.6699 -0.7406
vn -0.6220 0.6245 0.4723
vn 0.6146 -0.7665 0.1863
vn 0.1260 -0.5575 0.8206
vn 0.5736 0.4362 0.6933
vn -0.7941 -0.6019 -0.0845
vn -0.8619 0.4105 0.2976
vn 0.2221 0.7785 -0.5870
vn -0.5387 0.3535 -0.7648
vn 0.5818 0.1529 -0.7988
vt 0.550384 0.206938
vt 0.375000 0.305791
vt 0.375000 0.049496
vt 0.180791 0.500000
vt 0.330928 0.574320
vt 0.125000 0.700504
vt 0.804283 0.500000
vt 0.842867 0.681766
vt 0.658516 0.626313
vt 0.875000 0.500000
vt 0.501754 0.540833
vt 0.565165 0.799791
vt 0.325310 0.750000
vt 0.604031 0.069198
vt 0.375000 1.000000
vt 0.375000 0.799690
vt 0.578028 1.000000
vt 0.615335 0.592735
vt 0.589707 0.775249
vt 0.581909 0.353207
s 0
g Cube_Material
usemtl Material
f 160/191/104 162/192/104 161/193/104
f 162/194/105 165/195/105 161/196/105
f 166/197/106 163/198/106 167/199/106
f 163/198/107 166/197/107 160/200/107
f 168/201/108 159/202/108 164/203/108 165/195/108
f 161/193/109 163/204/109 160/191/109
f 161/205/110 164/206/110 159/202/110 163/207/110
f 165/195/111 164/203/111 161/196/111
f 167/208/112 163/198/112 159/209/112
f 159/202/113 168/201/113 167/208/113
f 168/201/114 165/195/114 162/192/114 166/210/114
f 168/201/115 166/210/115 167/208/115
f 162/192/116 160/191/116 166/210/116
o Cube
v 4.611630 0.850349 0.285563
v 4.865782 0.172073 0.169638
v 4.430411 0.270777 0.279129
v 4.696292 0.114818 0.541219
v 4.802642 0.572038 -0.000914
v 4.390927 0.592854 0.511797
v 4.552712 0.369571 0.735745
v 5.119308 0.366648 0.446168
v 5.022696 0.745981 0.475342
v 4.913348 0.584690 0.740353
vn -0.2767 -0.9227 -0.2684
vn -0.6959 -0.6404 0.3250
vn 0.8406 0.2510 -0.4801
vn 0.7768 -0.1393 -0.6142
vn -0.2875 0.6732 0.6813
vn -0.3092 -0.4139 -0.8562
vn -0.7518 0.2419 -0.6135
vn -0.8901 -0.3335 0.3106
vn 0.4163 0.7751 -0.4754
vn -0.0195 0.8576 0.5139
vn 0.3904 -0.5062 0.7690
vn 0.8641 0.1840 0.4685
vn 0.5266 -0.8429 0.1103
vt 0.550384 0.206938
vt 0.375000 0.305791
vt 0.375000 0.049496
vt 0.180791 0.500000
vt 0.330928 0.574320
vt 0.125000 0.700504
vt 0.804283 0.500000
vt 0.842867 0.681766
vt 0.658516 0.626313
vt 0.875000 0.500000
vt 0.501754 0.540833
vt 0.565165 0.799791
vt 0.325310 0.750000
vt 0.604031 0.069198
vt 0.375000 1.000000
vt 0.375000 0.799690
vt 0.578028 1.000000
vt 0.615335 0.592735
vt 0.589707 0.775249
vt 0.581909 0.353207
s 0
g Cube_Material
usemtl Material
f 170/211/117 172/212/117 171/213/117
f 172/214/118 175/215/118 171/216/118
f 176/217/119 173/218/119 177/219/119
f 173/218/120 176/217/120 170/220/120
f 178/221/121 169/222/121 174/223/121 175/215/121
f 171/213/122 173/224/122 170/211/122
f 171/225/123 174/226/123 169/222/123 173/227/123
f 175/215/124 174/223/124 171/216/124
f 177/228/125 173/218/125 169/229/125
f 169/222/126 178/221/126 177/228/126
f 178/221/127 175/215/127 172/212/127 176/230/127
f 178/221/128 176/230/128 177/228/128
f 172/212/129 170/211/129 176/230/129
o Cube
v 0.063874 0.035538 -4.740092
v 0.363999 0.533257 -5.128011
v 0.502567 0.118386 -5.107966
v 0.680369 0.410459 -4.930111
v 0.015124 0.314754 -5.052388
v 0.441686 -0.048554 -4.771673
v 0.674161 0.181873 -4.685886
v 0.321500 0.670425 -4.751914
v 0.117671 0.431254 -4.549266
v 0.419699 0.403156 -4.470682
vn 0.5655 0.1497 -0.8111
vn 0.8845 -0.3517 -0.3067
vn -0.7594 0.6506 0.0041
vn -0.5510 0.7620 -0.3402
vn 0.0584 -0.5516 0.8321
vn -0.1517 -0.0982 -0.9835
vn -0.3079 -0.7812 -0.5431
vn 0.7258 -0.6594 -0.1959
vn -0.9808 0.0416 0.1903
vn -0.2657 -0.3892 0.8820
vn 0.7112 0.5692 0.4126
vn -0.1185 0.6988 0.7055
vn 0.4828 0.8388 -0.2514
vt 0.550384 0.206938
vt 0.375000 0.305791
vt 0.375000 0.049496
vt 0.180791 0.500000
vt 0.330928 0.574320
vt 0.125000 0.700504
vt 0.804283 0.500000
vt 0.842867 0.681766
vt 0.658516 0.626313
vt 0.875000 0.500000
vt 0.501754 0.540833
vt 0.565165 0.799791
vt 0.325310 0.750000
vt 0.604031 0.069198
vt 0.375000 1.000000
vt 0.375000 0.799690
vt 0.578028 1.000000
vt 0.615335 0.592735
vt 0.589707 0.775249
vt 0.581909 0.353207
s 0
g Cube_Material
usemtl Material
f 180/231/130 182/232/130 181/233/130
f 182/234/131 185/235/131 181/236/131
f 186/237/132 183/238/132 187/239/132
f 183/238/133 186/237/133 180/240/133
f 188/241/134 179/242/134 184/243/134 185/235/134
f 181/233/135 183/244/135 180/231/135
f 181/245/136 184/246/136 179/242/136 183/247/136
f 185/235/137 184/243/137 181/236/137
f 187/248/138 183/238/138 179/249/138
f 179/242/139 188/241/139 187/248/139
f 188/241/140 185/235/140 182/232/140 186/250/140
f 188/241/141 186/250/141 187/248/141
f 182/232/142 180/231/142 186/250/142
o Cube
v 3.464196 -0.628507 -3.519665
v 3.114430 -0.087504 -3.380152
v 3.495252 -0.084082 -3.540029
v 3.423398 -0.006870 -3.192091
v 3.131774 -0.421545 -3.589896
v 3.699267 -0.360289 -3.436021
v 3.669445 -0.201970 -3.160464
v 3.115263 -0.314187 -3.075474
v 3.259751 -0.625808 -3.155643
v 3.452657 -0.465460 -2.999296
vn -0.1080 0.9656 -0.2366
vn 0.6242 0.7800 -0.0442
vn -0.8994 -0.4328 0.0615
vn -0.9990 -0.0365 -0.0244
vn 0.7512 -0.5976 0.2803
vn -0.3418 0.4869 -0.8038
vn 0.2665 -0.0512 -0.9625
vn 0.8225 0.5270 -0.2138
vn -0.4707 -0.8437 -0.2581
vn 0.4746 -0.8369 0.2727
vn 0.0619 0.3902 0.9187
vn -0.3647 -0.3870 0.8469
vn -0.4973 0.6954 0.5188
vt 0.550384 0.206938
vt 0.375000 0.305791
vt 0.375000 0.049496
vt 0.180791 0.500000
vt 0.330928 0.574320
vt 0.125000 0.700504
vt 0.804283 0.500000
vt 0.842867 0.681766
vt 0.658516 0.626313
vt 0.875000 0.500000
vt 0.501754 0.540833
vt 0.565165 0.799791
vt 0.325310 0.750000
vt 0.604031 0.069198
vt 0.375000 1.000000
vt 0.375000 0.799690
vt 0.578028 1.000000
vt 0.615335 0.592735
vt 0.589707 0.775249
vt 0.581909 0.353207
s 0
g Cube_Material
usemtl Material
f 190/251/143 192/252/143 191/253/143
f 192/254/144 195/255/144 191/256/144
f 196/257/145 193/258/145 197/259/145
f 193/258/146 196/257/146 190/260/146
f 198/261/147 189/262/147 194/263/147 195/255/147
f 191/253/148 193/264/148 190/251/148
f 191/265/149 194/266/149 189/262/149 193/267/149
f 195/255/150 194/263/150 191/256/150
f 197/268/151 193/258/151 189/269/151
f 189/262/152 198/261/152 197/268/152
f 198/261/153 195/255/153 192/252/153 196/270/153
f 198/261/154 196/270/154 197/268/154
f 192/252/155 190/251/155 196/270/155
o Cube
v -4.787649 0.432720 -0.129575
v -4.451981 -0.212449 -0.590067
v -4.194285 0.248039 -0.478347
v -4.380939 0.149288 -0.903597
v -4.648999 -0.067928 -0.136052
v -4.476927 0.619910 -0.441455
v -4.513220 0.535660 -0.848077
v -4.898163 -0.099980 -0.775044
v -5.113164 0.201051 -0.500587
v -4.980978 0.384503 -0.813430
vn 0.8646 -0.4152 -0.2831
vn 0.8266 0.3467 -0.4433
vn -0.6381 -0.7153 0.2847
vn -0.3052 -0.9377 0.1660
vn -0.4078 0.9127 -0.0250
vn 0.7144 -0.5148 0.4739
vn 0.5446 0.2228 0.8086
vn 0.7716 0.6057 -0.1944
vn -0.6733 -0.1957 0.7130
vn -0.6749 0.7246 0.1397
vn -0.1559 -0.0191 -0.9876
vn -0.8618 -0.1847 -0.4725
vn 0.1373 -0.6640 -0.7350
vt 0.550384 0.206938
vt 0.375000 0.305791
vt 0.375000 0.049496
vt 0.180791 0.500000
vt 0.330928 0.574320
vt 0.125000 0.700504
vt 0.804283 0.500000
vt 0.842867 0.681766
vt 0.658516 0.626313
vt 0.875000 0.500000
vt 0.501754 0.540833
vt 0.565165 0.799791
vt 0.325310 0.750000
vt 0.604031 0.069198
vt 0.375000 1.000000
vt 0.375000 0.799690
vt 0.578028 1.000000
vt 0.615335 0.592735
vt 0.589707 0.775249
vt 0.581909 0.353207
s 0
g Cube_Material
usemtl Material
f 200/271/156 202/272/156 201/273/156
f 202/274/157 205/275/157 201/276/157
f 206/277/158 203/278/158 207/279/158
f 203/278/159 206/277/159 200/280/159
f 208/281/160 199/282/160 204/283/160 205/275/160
f 201/273/161 203/284/161 200/271/161
f 201/285/162 204/286/162 199/282/162 203/287/162
f 205/275/163 204/283/163 201/276/163
f 207/288/164 203/278/164 199/289/164
f 199/282/165 208/281/165 207/288/165
f 208/281/166 205/275/166 202/272/166 206/290/166
f 208/281/167 206/290/167 207/288/167
f 202/272/168 200/271/168 206/290/168
o Cube
v 1.902180 0.154931 -3.126505
v 2.552458 -0.469502 -2.870983
v 2.666197 0.089788 -3.008921
v 2.767347 -0.307375 -3.323834
v 2.084610 -0.196981 -2.723103
v 2.350008 0.285182 -3.358209
v 2.573223 -0.020276 -3.608761
v 2.252129 -0.683357 -3.265341
v 1.860169 -0.386945 -3.365024
v 2.148767 -0.343067 -3.667270
vn 0.9117 -0.0863 0.4017
vn 0.8941 0.3951 -0.2111
vn -0.6137 -0.6725 0.4136
vn -0.2511 -0.7578 0.6022
vn -0.4128 0.5051 -0.7579
vn 0.3759 0.1491 0.9146
vn -0.0238 0.8010 0.5982
vn 0.6843 0.6910 -0.2329
vn -0.9330 -0.0819 0.3505
vn -0.7061 0.3304 -0.6263
vn 0.4238 -0.5698 -0.7041
vn -0.4288 -0.7409 -0.5170
vn 0.5887 -0.8083 -0.0100
vt 0.550384 0.206938
vt 0.375000 0.305791
vt 0.375000 0.049496
vt 0.180791 0.500000
vt 0.330928 0.574320
vt 0.125000 0.700504
vt 0.804283 0.500000
vt 0.842867 0.681766
vt 0.658516 0.626313
vt 0.875000 0.500000
vt 0.501754 0.540833
vt 0.565165 0.799791
vt 0.325310 0.750000
vt 0.604031 0.069198
vt 0.375000 1.000000
vt 0.375000 0.799690
vt 0.578028 1.000000
vt 0.615335 0.592735
vt 0.589707 0.775249
vt 0.581909 0.353207
s 0
g Cube_Material
usemtl Material
f 210/291/169 212/292/169 211/293/169
f 212/294/170 215/295/170 211/296/170
f 216/297/171 213/298/171 217/299/171
f 213/298/172 216/297/172 210/300/172
f 218/301/173 209/302/173 214/303/173 215/295/173
f 211/293/174 213/304/174 210/291/174
f 211/305/175 214/306/175 209/302/175 213/307/175
f 215/295/176 214/303/176 211/296/176
f 217/308/177 213/298/177 209/309/177
f 209/302/178 218/301/178 217/308/178
f 218/301/179 215/295/179 212/292/179 216/310/179
f 218/301/180 216/310/180 217/308/180
f 212/292/181 210/291/181 216/310/181
o Cube
v -3.878493 0.154926 -0.293535
v -3.810622 0.848738 -0.549942
v -4.215162 0.622249 -0.508926
v -4.025608 0.682638 -0.867084
v -3.744243 0.573726 -0.206575
v -4.185351 0.222453 -0.561277
v -4.111863 0.338641 -0.893661
v -3.536596 0.596748 -0.760987
v -3.527106 0.235311 -0.595893
v -3.702866 0.223240 -0.878571
vn -0.4942 0.8616 -0.1163
vn -0.8724 0.2511 -0.4194
vn 0.9178 0.1846 0.3514
vn 0.7617 0.5696 0.3089
vn -0.1527 -0.9600 -0.2345
vn -0.3307 0.7044 0.6281
vn -0.5959 -0.0602 0.8008
vn -0.9723 -0.0424 -0.2298
vn 0.6558 -0.3492 0.6693
vn 0.1701 -0.9834 -0.0638
vn 0.1630 0.1389 -0.9768
vn 0.8341 -0.2109 -0.5096
vn 0.2614 0.7708 -0.5809
vt 0.550384 0.206938
vt 0.375000 0.305791
vt 0.375000 0.049496
vt 0.180791 0.500000
vt 0.330928 0.574320
vt 0.125000 0.700504
vt 0.804283 0.500000
vt 0.842867 0.681766
vt 0.658516 0.626313
vt 0.875000 0.500000
vt 0.501754 0.540833
vt 0.565165 0.799791
vt 0.325310 0.750000
vt 0.604031 0.069198
vt 0.375000 1.000000
vt 0.375000 0.799690
vt 0.578028 1.000000
vt 0.615335 0.592735
vt 0.589707 0.775249
vt 0.581909 0.353207
s 0
g Cube_Material
usemtl Material
f 220/311/182 222/312/182 221/313/182
f 222/314/183 225/315/183 221/316/183
f 226/317/184 223/318/184 227/319/184
f 223/318/185 226/317/185 220/320/185
f 228/321/186 219/322/186 224/323/186 225/315/186
f 221/313/187 223/324/187 220/311/187
f 221/325/188 224/326/188 219/322/188 223/327/188
f 225/315/189 224/323/189 221/316/189
f 227/328/190 223/318/190 219/329/190
f 219/322/191 228/321/191 227/328/191
f 228/321/192 225/315/192 222/312/192 226/330/192
f 228/321/193 226/330/193 227/328/193
f 222/312/194 220/311/194 226/330/194
o Cube
v -1.730913 0.641411 -2.493617
v -2.005757 0.301867 -3.288738
v -1.613654 0.060665 -2.955209
v -1.503099 0.309810 -3.374857
v -2.152150 0.451173 -2.787185
v -1.346678 0.383698 -2.694005
v -1.209192 0.475206 -3.101101
v -1.877199 0.803997 -3.356006
v -1.790297 1.014012 -2.927036
v -1.437374 0.941531 -3.115968
vn -0.0763 -0.8484 -0.5238
vn 0.6448 -0.7197 -0.2574
vn -0.8476 0.5239 -0.0848
vn -0.9250 0.1930 -0.3274
vn 0.7239 0.4872 0.4884
vn -0.5693 -0.8184 0.0775
vn -0.1411 -0.6333 0.7609
vn 0.7289 -0.6782 0.0937
vn -0.6312 0.5433 0.5536
vn 0.4402 0.7098 0.5499
vn 0.4637 0.2942 -0.8357
vn -0.0461 0.9008 -0.4317
vn -0.1668 -0.0888 -0.9820
vt 0.550384 0.206938
vt 0.375000 0.305791
vt 0.375000 0.049496
vt 0.180791 0.500000
vt 0.330928 0.574320
vt 0.125000 0.700504
vt 0.804283 0.500000
vt 0.842867 0.681766
vt 0.658516 0.626313
vt 0.875000 0.500000
vt 0.501754 0.540833
vt 0.565165 0.799791
vt 0.325310 0.750000
vt 0.604031 0.069198
vt 0.375000 1.000000
vt 0.375000 0.799690
vt 0.578028 1.000000
vt 0.615335 0.592735
vt 0.589707 0.775249
vt 0.581909 0.353207
s 0
g Cube_Material
usemtl Material
f 230/331/195 232/332/195 231/333/195
f 232/334/196 235/335/196 231/336/196
f 236/337/197 233/338/197 237/339/197
f 233/338/198 236/337/198 230/340/198
f 238/341/199 229/342/199 234/343/199 235/335/199
f 231/333/200 233/344/200 230/331/200
f 231/345/201 234/346/201 229/342/201 233/347/201
f 235/335/202 234/343/202 231/336/202
f 237/348/203 233/338/203 229/349/203
f 229/342/204 238/341/204 237/348/204
f 238/341/205 235/335/205 232/332/205 236/350/205
f 238/341/206 236/350/206 237/348/206
f 232/332/207 230/331/207 236/350/207
o Cube
v -2.494430 0.222261 -2.325606
v -2.592255 0.396899 -3.137526
v -2.250720 0.638623 -2.822101
v -2.646461 0.829721 -2.962161
v -2.474161 0.047481 -2.798649
v -2.389249 0.670382 -2.389683
v -2.654325 0.916726 -2.571424
v -3.024483 0.402629 -2.924798
v -2.992084 0.252853 -2.504379
v -3.028197 0.626084 -2.501199
vn 0.4667 0.3817 -0.7978
vn 0.4790 0.8588 -0.1816
vn -0.4804 -0.8372 -0.2612
vn -0.3171 -0.7133 -0.6250
vn -0.1840 0.2901 0.9391
vn 0.7539 -0.3080 -0.5803
vn 0.9340 -0.2762 0.2268
vn 0.6199 0.7717 0.1419
vn -0.1770 -0.9256 0.3344
vn -0.3400 -0.0409 0.9395
vn -0.6850 0.6774 -0.2680
vn -0.9944 -0.0966 0.0422
vn -0.4187 0.2955 -0.8587
vt 0.550384 0.206938
vt 0.375000 0.305791
vt 0.375000 0.049496
vt 0.180791 0.500000
vt 0.330928 0.574320
vt 0.125000 0.700504
vt 0.804283 0.500000
vt 0.842867 0.681766
vt 0.658516 0.626313
vt 0.875000 0.500000
vt 0.501754 0.540833
vt 0.565165 0.799791
vt 0.325310 0.750000
vt 0.604031 0.069198
vt 0.375000 1.000000
vt 0.375000 0.799690
vt 0.578028 1.000000
vt 0.615335 0.592735
vt 0.589707 0.775249
vt 0.581909 0.353207
s 0
g Cube_Material
usemtl Material
f 240/351/208 242/352/208 241/353/208
f 242/354/209 245/355/209 241/356/209
f 246/357/210 243/358/210 247/359/210
f 243/358/211 246/357/211 240/360/211
f 248/361/212 239/362/212 244/363/212 245/355/212
f 241/353/213 243/364/213 240/351/213
f 241/365/214 244/366/214 239/362/214 243/367/214
f 245/355/215 244/363/215 241/356/215
f 247/368/216 243/358/216 239/369/216
f 239/362/217 248/361/217 247/368/217
f 248/361/218 245/355/218 242/352/218 246/370/218
f 248/361/219 246/370/219 247/368/219
f 242/352/220 240/351/220 246/370/220
o Cube
v 3.087911 0.491444 0.159851
v 3.226964 0.178967 0.597677
v 3.432762 0.421415 0.456032
v 3.473853 0.120454 0.415510
v 3.013438 0.402494 0.474464
v 3.394613 0.455853 0.158018
v 3.501541 0.209112 0.166242
v 3.121979 -0.012653 0.363767
v 3.008947 0.149009 0.141339
v 3.233596 0.063602 0.075708
vn 0.5891 -0.0283 0.8075
vn 0.9822 0.1140 0.1496
vn -0.9200 -0.3059 0.2452
vn -0.7148 -0.3485 0.6063
vn 0.1215 0.1558 -0.9803
vn 0.0159 0.4943 0.8692
vn 0.0280 0.9796 0.1990
vn 0.9161 0.3946 -0.0717
vn -0.9596 0.2300 -0.1621
vn -0.2409 0.1077 -0.9646
vn 0.4349 -0.8863 -0.1592
vn -0.4238 -0.8214 -0.3817
vn 0.2210 -0.8007 0.5568
vt 0.550384 0.206938
vt 0.375000 0.305791
vt 0.375000 0.049496
vt 0.180791 0.500000
vt 0.330928 0.574320
vt 0.125000 0.700504
vt 0.804283 0.500000
vt 0.842867 0.681766
vt 0.658516 0.626313
vt 0.875000 0.500000
vt 0.501754 0.540833
vt 0.565165 0.799791
vt 0.325310 0.750000
vt 0.604031 0.069198
vt 0.375000 1.000000
vt 0.375000 0.799690
vt 0.578028 1.000000
vt 0.615335 0.592735
vt 0.589707 0.775249
vt 0.581909 0.353207
s 0
g Cube_Material
usemtl Material
f 250/371/221 252/372/221 251/373/221
f 252/374/222 255/375/222 251/376/222
f 256/377/223 253/378/223 257/379/223
f 253/378/224 256/377/224 250/380/224
f 258/381/225 249/382/225 254/383/225 255/375/225
f 251/373/226 253/384/226 250/371/226
f 251/385/227 254/386/227 249/382/227 253/387/227
f 255/375/228 254/383/228 251/376/228
f 257/388/229 253/378/229 249/389/229
f 249/382/230 258/381/230 257/388/230
f 258/381/231 255/375/231 252/372/231 256/390/231
f 258/381/232 256/390/232 257/388/232
f 252/372/233 250/371/233 256/390/233
o Cube
v -0.513433 -0.247483 2.917917
v -0.452670 0.458661 3.319729
v -0.201170 0.349667 2.889033
v -0.007930 0.351950 3.294742
v -0.749550 0.149646 3.086248
v -0.099498 -0.079615 2.843785
v 0.131308 0.018217 3.148440
v -0.385228 0.106500 3.622645
v -0.472386 -0.275553 3.431571
v -0.110512 -0.232971 3.458243
vn 0.2258 0.9676 -0.1130
vn 0.7847 0.4924 -0.3765
vn -0.8273 -0.0887 0.5547
vn -0.7700 0.3249 0.5491
vn 0.4359 -0.8750 -0.2106
vn -0.4450 0.7713 -0.4550
vn -0.3106 0.1168 -0.9433
vn 0.7348 0.2409 -0.6340
vn -0.8514 -0.5230 0.0395
vn 0.1213 -0.9906 -0.0638
vn 0.6816 0.0836 0.7269
vn -0.0137 -0.4448 0.8955
vn 0.1992 0.6607 0.7238
vt 0.550384 0.206938
vt 0.375000 0.305791
vt 0.375000 0.049496
vt 0.180791 0.500000
vt 0.330928 0.574320
vt 0.125000 0.700504
vt 0.804283 0.500000
vt 0.842867 0.681766
vt 0.658516 0.626313
vt 0.875000 0.500000
vt 0.501754 0.540833
vt 0.565165 0.799791
vt 0.325310 0.750000
vt 0.604031 0.069198
vt 0.375000 1.000000
vt 0.375000 0.799690
vt 0.578028 1.000000
vt 0.615335 0.592735
vt 0.589707 0.775249
vt 0.581909 0.353207
s 0
g Cube_Material
usemtl Material
f 260/391/234 262/392/234 261/393/234
f 262/394/235 265/395/235 261/396/235
f 266/397/236 263/398/236 267/399/236
f 263/398/237 266/397/237 260/400/237
f 268/401/238 259/402/238 264/403/238 265/395/238
f 261/393/239 263/404/239 260/391/239
f 261/405/240 264/406/240 259/402/240 263/407/240
f 265/395/241 264/403/241 261/396/241
f 267/408/242 263/398/242 259/409/242
f 259/402/243 268/401/243 267/408/243
f 268/401/244 265/395/244 262/392/244 266/410/244
f 268/401/245 266/410/245 267/408/245
f 262/392/246 260/391/246 266/410/246
o Cube
v -2.861438 0.644718 -1.221017
v -2.360425 0.299962 -1.275887
v -2.717121 0.172830 -1.330799
v -2.536179 0.104512 -1.055052
v -2.540833 0.594677 -1.395771
v -2.945016 0.325224 -1.142869
v -2.792664 0.178824 -0.935997
v -2.349310 0.467071 -0.966504
v -2.590973 0.686194 -0.947649
v -2.654392 0.467533 -0.795509
vn 0.3608 -0.8221 -0.4404
vn -0.2960 -0.9542 -0.0422
vn 0.6664 0.7416 -0.0769
vn 0.8670 0.4247 -0.2606
vn -0.7907 0.2303 0.5672
vn 0.2312 -0.2418 -0.9424
vn -0.5439 0.0288 -0.8386
vn -0.6112 -0.7845 -0.1050
vn 0.0467 0.9797 -0.1949
vn -0.6306 0.5581 0.5393
vn 0.3571 -0.4635 0.8109
vn 0.4439 0.4215 0.7908
vn 0.8396 -0.4900 0.2345
vt 0.550384 0.206938
vt 0.375000 0.305791
vt 0.375000 0.049496
vt 0.180791 0.500000
vt 0.330928 0.574320
vt 0.125000 0.700504
vt 0.804283 0.500000
vt 0.842867 0.681766
vt 0.658516 0.626313
vt 0.875000 0.500000
vt 0.501754 0.540833
vt 0.565165 0.799791
vt 0.325310 0.750000
vt 0.604031 0.069198
vt 0.375000 1.000000
vt 0.375000 0.799690
vt 0.578028 1.000000
vt 0.615335 0.592735
vt 0.589707 0.775249
vt 0.581909 0.353207
s 0
g Cube_Material
usemtl Material
f 270/411/247 272/412/247 271/413/247
f 272/414/248 275/415/248 271/416/248
f 276/417/249 273/418/249 277/419/249
f 273/418/250 276/417/250 270/420/250
f 278/421/251 269/422/251 274/423/251 275/415/251
f 271/413/252 273/424/252 270/411/252
f 271/425/253 274/426/253 269/422/253 273/427/253
f 275/415/254 274/423/254 271/416/254
f 277/428/255 273/418/255 269/429/255
f 269/422/256 278/421/256 277/428/256
f 278/421/257 275/415/257 272/412/257 276/430/257
f 278/421/258 276/430/258 277/428/258
f 272/412/259 270/411/259 276/430/259
o Cube
v -0.585928 -0.415210 2.821764
v -0.284752 0.206256 2.119442
v 0.093837 -0.119514 2.482046
v 0.002050 0.412126 2.546073
v -0.592554 -0.281785 2.242484
v -0.100915 -0.211417 2.973039
v -0.035600 0.260721 2.991122
v -0.661469 0.472946 2.449571
v -0.882560 0.132469 2.785726
v -0.586662 0.379904 3.000926
vn 0.7634 0.2055 -0.6124
vn 0.9790 0.1528 0.1348
vn -0.8608 0.0601 -0.5053
vn -0.5811 0.1656 -0.7968
vn -0.1221 -0.1466 0.9816
vn 0.3871 -0.4474 -0.8062
vn 0.3368 -0.9316 -0.1369
vn 0.9290 -0.1416 0.3420
vn -0.8721 -0.4789 -0.1003
vn -0.4650 -0.1950 0.8636
vn 0.1264 0.9645 0.2319
vn -0.7125 0.6697 0.2097
vn 0.1518 0.8464 -0.5105
vt 0.550384 0.206938
vt 0.375000 0.305791
vt 0.375000 0.049496
vt 0.180791 0.500000
vt 0.330928 0.574320
vt 0.125000 0.700504
vt 0.804283 0.500000
vt 0.842867 0.681766
vt 0.658516 0.626313
vt 0.875000 0.500000
vt 0.501754 0.540833
vt 0.565165 0.799791
vt 0.325310 0.750000
vt 0.604031 0.069198
vt 0.375000 1.000000
vt 0.375000 0.799690
vt 0.578028 1.000000
vt 0.615335 0.592735
vt 0.589707 0.775249
vt 0.581909 0.353207
s 0
g Cube_Material
usemtl Material
f 280/431/260 282/432/260 281/433/260
f 282/434/261 285/435/261 281/436/261
f 286/437/262 283/438/262 287/439/262
f 283/438/263 286/437/263 280/440/263
f 288/441/264 279/442/264 284/443/264 285/435/264
f 281/433/265 283/444/265 280/431/265
f 281/445/266 284/446/266 279/442/266 283/447/266
f 285/435/267 284/443/267 281/436/267
f 287/448/268 283/438/268 279/449/268
f 279/442/269 288/441/269 287/448/269
f 288/441/270 285/435/270 282/432/270 286/450/270
f 288/441/271 286/450/271 287/448/271
f 282/432/272 280/431/272 286/450/272
o Cube
v -1.710114 0.244077 0.542581
v -1.888597 0.207326 1.240679
v -1.912148 -0.140348 0.952655
v -2.231003 0.060947 1.079859
v -1.575483 0.289021 0.954255
v -1.994343 -0.035827 0.583130
v -2.295903 0.042862 0.741046
v -2.084377 0.531687 1.069680
v -1.956309 0.590653 0.710269
v -2.247897 0.450934 0.698880
vn -0.0916 -0.6316 0.7699
vn -0.4882 -0.8615 0.1395
vn 0.4653 0.8320 0.3023
vn 0.4408 0.6122 0.6565
vn -0.3355 0.0489 -0.9408
vn 0.6490 -0.5110 0.5637
vn 0.7218 -0.6456 -0.2496
vn -0.3380 -0.9226 -0.1858
vn 0.7030 0.6447 -0.3003
vn -0.1332 0.3534 -0.9259
vn -0.9365 0.2235 0.2703
vn -0.4319 0.9019 -0.0059
vn -0.4768 0.1672 0.8630
vt 0.550384 0.206938
vt 0.375000 0.305791
vt 0.375000 0.049496
vt 0.180791 0.500000
vt 0.330928 0.574320
vt 0.125000 0.700504
vt 0.804283 0.500000
vt 0.842867 0.681766
vt 0.658516 0.626313
vt 0.875000 0.500000
vt 0.501754 0.540833
vt 0.565165 0.799791
vt 0.325310 0.750000
vt 0.604031 0.069198
vt 0.375000 1.000000
vt 0.375000 0.799690
vt 0.578028 1.000000
vt 0.615335 0.592735
vt 0.589707 0.775249
vt 0.581909 0.353207
s 0
g Cube_Material
usemtl Material
f 290/451/273 292/452/273 291/453/273
f 292/454/274 295/455/274 291/456/274
f 296/457/275 293/458/275 297/459/275
f 293/458/276 296/457/276 290/460/276
f 298/461/277 289/462/277 294/463/277 295/455/277
f 291/453/278 293/464/278 290/451/278
f 291/465/279 294/466/279 289/462/279 293/467/279
f 295/455/280 294/463/280 291/456/280
f 297/468/281 293/458/281 289/469/281
f 289/462/282 298/461/282 297/468/282
f 298/461/283 295/455/283 292/452/283 296/470/283
f 298/461/284 296/470/284 297/468/284
f 292/452/285 290/451/285 296/470/285
o Cube
v -0.245773 0.403013 1.877810
v -0.669435 0.370288 2.382289
v -0.286819 0.214117 2.388501
v -0.585998 0.010148 2.353163
v -0.467000 0.606541 2.138799
v -0.171262 0.099039 2.068651
v -0.402474 -0.113264 2.127722
v -0.843702 0.246107 2.068258
v -0.640866 0.303652 1.785200
v -0.630837 0.016790 1.856570
vn -0.0541 -0.0929 0.9942
vn 0.3689 -0.6553 0.6591
vn -0.6281 0.7161 -0.3045
vn -0.6978 0.7083 0.1071
vn 0.4355 -0.4959 -0.7513
vn 0.2306 0.5955 0.7695
vn 0.8528 0.4638 0.2401
vn 0.6628 -0.5956 0.4538
vn -0.0441 0.7693 -0.6373
vn 0.2753 -0.2230 -0.9351
vn -0.6346 -0.7714 0.0470
vn -0.7829 -0.1758 -0.5968
vn -0.8091 -0.2311 0.5404
vt 0.550384 0.206938
vt 0.375000 0.305791
vt 0.375000 0.049496
vt 0.180791 0.500000
vt 0.330928 0.574320
vt 0.125000 0.700504
vt 0.804283 0.500000
vt 0.842867 0.681766
vt 0.658516 0.626313
vt 0.875000 0.500000
vt 0.501754 0.540833
vt 0.565165 0.799791
vt 0.325310 0.750000
vt 0.604031 0.069198
vt 0.375000 1.000000
vt 0.375000 0.799690
vt 0.578028 1.000000
vt 0.615335 0.592735
vt 0.589707 0.775249
vt 0.581909 0.353207
s 0
g Cube_Material
usemtl Material
f 300/471/286 302/472/286 301/473/286
f 302/474/287 305/475/287 301/476/287
f 306/477/288 303/478/288 307/479/288
f 303/478/289 306/477/289 300/480/289
f 308/481/290 299/482/290 304/483/290 305/475/290
f 301/473/291 303/484/291 300/471/291
f 301/485/292 304/486/292 299/482/292 303/487/292
f 305/475/293 304/483/293 301/476/293
f 307/488/294 303/478/294 299/489/294
f 299/482/295 308/481/295 307/488/295
f 308/481/296 305/475/296 302/472/296 306/490/296
f 308/481/297 306/490/297 307/488/297
f 302/472/298 300/471/298 306/490/298
o Cube
v 0.678065 0.806636 -1.734679
v 0.303683 0.550155 -1.237644
v 0.680868 0.400796 -1.352912
v 0.360210 0.234303 -1.438196
v 0.497391 0.874935 -1.377323
v 0.754066 0.441253 -1.709588
v 0.512199 0.223151 -1.722133
v 0.083634 0.582788 -1.555245
v 0.261086 0.762793 -1.811797
v 0.259611 0.468471 -1.878596
vn 0.0494 -0.5291 0.8471
vn 0.3944 -0.8855 0.2459
vn -0.6083 0.7832 0.1287
vn -0.6327 0.5920 0.4992
vn 0.3160 -0.1101 -0.9423
vn 0.3531 0.1839 0.9173
vn 0.9032 0.2974 0.3095
vn 0.6672 -0.7430 0.0527
vn -0.0622 0.9741 -0.2176
vn 0.1553 0.2179 -0.9635
vn -0.6759 -0.7035 -0.2197
vn -0.8538 0.1193 -0.5068
vn -0.7584 -0.4406 0.4802
vt 0.550384 0.206938
vt 0.375000 0.305791
vt 0.375000 0.049496
vt 0.180791 0.500000
vt 0.330928 0.574320
vt 0.125000 0.700504
vt 0.804283 0.500000
vt 0.842867 0.681766
vt 0.658516 0.626313
vt 0.875000 0.500000
vt 0.501754 0.540833
vt 0.565165 0.799791
vt 0.325310 0.750000
vt 0.604031 0.069198
vt 0.375000 1.000000
vt 0.375000 0.799690
vt 0.578028 1.000000
vt 0.615335 0.592735
vt 0.589707 0.775249
vt 0.581909 0.353207
s 0
g Cube_Material
usemtl Material
f 310/491/299 312/492/299 311/493/299
f 312/494/300 315/495/300 311/496/300
f 316/497/301 313/498/301 317/499/301
f 313/498/302 316/497/302 310/500/302
f 318/501/303 309/502/303 314/503/303 315/495/303
f 311/493/304 313/504/304 310/491/304
f 311/505/305 314/506/305 309/502/305 313/507/305
f 315/495/306 314/503/306 311/496/306
f 317/508/307 313/498/307 309/509/307
f 309/502/308 318/501/308 317/508/308
f 318/501/309 315/495/309 312/492/309 316/510/309
f 318/501/310 316/510/310 317/508/310
f 312/492/311 310/491/311 316/510/311
o Cube
v -1.387784 0.067099 0.851852
v -1.236824 0.768668 0.950603
v -0.948885 0.467563 0.770428
v -0.916737 0.606865 1.143531
v -1.496399 0.479850 0.757051
v -0.991127 0.101725 0.911314
v -0.870118 0.267202 1.195963
v -1.383649 0.611478 1.308242
v -1.515306 0.251209 1.252314
v -1.228050 0.238856 1.403472
vn 0.5764 0.7480 -0.3290
vn 0.9850 0.1154 -0.1280
vn -0.9387 0.3253 0.1143
vn -0.7408 0.6717 -0.0089
vn 0.1424 -0.9336 0.3287
vn 0.0326 0.5360 -0.8436
vn 0.0804 -0.2825 -0.9559
vn 0.9376 -0.2139 -0.2742
vn -0.9431 -0.2868 -0.1684
vn -0.2223 -0.9108 0.3480
vn 0.3865 0.2912 0.8751
vn -0.4643 0.0323 0.8851
vn 0.1687 0.8750 0.4538
vt 0.550384 0.206938
vt 0.375000 0.305791
vt 0.375000 0.049496
vt 0.180791 0.500000
vt 0.330928 0.574320
vt 0.125000 0.700504
vt 0.804283 0.500000
vt 0.842867 0.681766
vt 0.658516 0.626313
vt 0.875000 0.500000
vt 0.501754 0.540833
vt 0.565165 0.799791
vt 0.325310 0.750000
vt 0.604031 0.069198
vt 0.375000 1.000000
vt 0.375000 0.799690
vt 0.578028 1.000000
vt 0.615335 0.592735
vt 0.589707 0.775249
vt 0.581909 0.353207
s 0
g Cube_Material
usemtl Material
f 320/511/312 322/512/312 321/513/312
f 322/514/313 325/515/313 321/516/313
f 326/517/314 323/518/314 327/519/314
f 323/518/315 326/517/315 320/520/315
f 328/521/316 319/522/316 324/523/316 325/515/316
f 321/513/317 323/524/317 320/511/317
f 321/525/318 324/526/318 319/522/318 323/527/318
f 325/515/319 324/523/319 321/516/319
f 327/528/320 323/518/320 319/529/320
f 319/522/321 328/521/321 327/528/321
f 328/521/322 325/515/322 322/512/322 326/530/322
f 328/521/323 326/530/323 327/528/323
f 322/512/324 320/511/324 326/530/324
o Cube
v 6.596025 0.349364 -0.285121
v 6.367765 0.533525 -1.008824
v 6.483129 0.081129 -0.862366
v 6.741679 0.324901 -1.105757
v 6.254806 0.530683 -0.554960
v 6.781092 0.068657 -0.559505
v 6.984117 0.195949 -0.852022
v 6.701050 0.810308 -0.887557
v 6.792994 0.757451 -0.483386
v 7.039474 0.604702 -0.679678
vn -0.4230 -0.3749 -0.8249
vn 0.1927 -0.7881 -0.5846
vn -0.4032 0.8911 0.2083
vn -0.6005 0.7864 -0.1445
vn 0.7701 -0.2385 0.5917
vn -0.9221 -0.3101 -0.2314
vn -0.5930 -0.6797 0.4318
vn 0.2210 -0.9410 -0.2561
vn -0.3294 0.5365 0.7770
vn 0.6442 0.0596 0.7625
vn 0.6909 0.2798 -0.6666
vn 0.5225 0.8526 -0.0074
vn -0.0081 0.4094 -0.9123
vt 0.550384 0.206938
vt 0.375000 0.305791
vt 0.375000 0.049496
vt 0.180791 0.500000
vt 0.330928 0.574320
vt 0.125000 0.700504
vt 0.804283 0.500000
vt 0.842867 0.681766
vt 0.658516 0.626313
vt 0.875000 0.500000
vt 0.501754 0.540833
vt 0.565165 0.799791
vt 0.325310 0.750000
vt 0.604031 0.069198
vt 0.375000 1.000000
vt 0.375000 0.799690
vt 0.578028 1.000000
vt 0.615335 0.592735
vt 0.589707 0.775249
vt 0.581909 0.353207
s 0
g Cube_Material
usemtl Material
f 330/531/325 332/532/325 331/533/325
f 332/534/326 335/535/326 331/536/326
f 336/537/327 333/538/327 337/539/327
f 333/538/328 336/537/328 330/540/328
f 338/541/329 329/542/329 334/543/329 335/535/329
f 331/533/330 333/544/330 330/531/330
f 331/545/331 334/546/331 329/542/331 333/547/331
f 335/535/332 334/543/332 331/536/332
f 337/548/333 333/538/333 329/549/333
f 329/542/334 338/541/334 337/548/334
f 338/541/335 335/535/335 332/532/335 336/550/335
f 338/541/336 336/550/336 337/548/336
f 332/532/337 330/531/337 336/550/337
o Cube
v -3.735346 0.040115 -4.213582
v -4.493442 0.291940 -3.994449
v -4.090487 0.258252 -3.669021
v -4.433498 -0.043459 -3.676978
v -4.099519 0.375245 -4.284360
v -3.799671 -0.070733 -3.771430
v -4.120188 -0.286236 -3.663137
v -4.531211 -0.121878 -4.229127
v -4.139465 -0.236408 -4.402015
v -4.207281 -0.444217 -4.101697
vn -0.4974 0.5478 0.6727
vn -0.0343 0.0127 0.9993
vn -0.3464 0.1990 -0.9167
vn -0.5911 0.4380 -0.6773
vn 0.6653 -0.7462 0.0227
vn -0.0694 0.9798 0.1873
vn 0.7041 0.6857 0.1845
vn 0.3246 -0.0075 0.9458
vn 0.3265 0.1579 -0.9319
vn 0.6337 -0.6957 -0.3383
vn -0.6703 -0.6838 0.2882
vn -0.4528 -0.6821 -0.5742
vn -0.9844 -0.0097 0.1756
vt 0.550384 0.206938
vt 0.375000 0.305791
vt 0.375000 0.049496
vt 0.180791 0.500000
vt 0.330928 0.574320
vt 0.125000 0.700504
vt 0.804283 0.500000
vt 0.842867 0.681766
vt 0.658516 0.626313
vt 0.875000 0.500000
vt 0.501754 0.540833
vt 0.565165 0.799791
vt 0.325310 0.750000
vt 0.604031 0.069198
vt 0.375000 1.000000
vt 0.375000 0.799690
vt 0.578028 1.000000
vt 0.615335 0.592735
vt 0.589707 0.775249
vt 0.581909 0.353207
s 0
g Cube_Material
usemtl Material
f 340/551/338 342/552/338 341/553/338
f 342/554/339 345/555/339 341/556/339
f 346/557/340 343/558/340 347/559/340
f 343/558/341 346/557/341 340/560/341
f 348/561/342 339/562/342 344/563/342 345/555/342
f 341/553/343 343/564/343 340/551/343
f 341/565/344 344/566/344 339/562/344 343/567/344
f 345/555/345 344/563/345 341/556/345
f 347/568/346 343/558/346 339/569/346
f 339/562/347 348/561/347 347/568/347
f 348/561/348 345/555/348 342/552/348 346/570/348
f 348/561/349 346/570/349 347/568/349
f 342/552/350 340/551/350 346/570/350
o Cube
v -5.511889 0.033835 1.684451
v -5.852450 0.518498 1.450520
v -5.464823 0.459175 1.376466
v -5.584238 0.704451 1.597779
v -5.812813 0.139596 1.469953
v -5.293334 0.308197 1.637177
v -5.359514 0.581714 1.763361
v -5.903967 0.502572 1.813454
v -5.762177 0.219846 1.940354
v -5.597738 0.444780 2.003011
vn -0.0430 0.6577 -0.7521
vn 0.6444 0.6609 -0.3847
vn -0.9093 -0.3828 0.1632
vn -0.9834 -0.1103 -0.1444
vn 0.6812 -0.2865 0.6737
vn -0.1976 -0.0708 -0.9777
vn 0.4132 -0.5636 -0.7153
vn 0.8600 0.3702 -0.3513
vn -0.4471 -0.8725 0.1970
vn 0.4027 -0.5067 0.7622
vn -0.0729 0.8408 0.5364
vn -0.5039 0.1305 0.8538
vn -0.5536 0.8318 -0.0421
vt 0.550384 0.206938
vt 0.375000 0.305791
vt 0.375000 0.049496
vt 0.180791 0.500000
vt 0.330928 0.574320
vt 0.125000 0.700504
vt 0.804283 0.500000
vt 0.842867 0.681766
vt 0.658516 0.626313
vt 0.875000 0.500000
vt 0.501754 0.540833
vt 0.565165 0.799791
vt 0.325310 0.750000
vt 0.604031 0.069198
vt 0.375000 1.000000
vt 0.375000 0.799690
vt 0.578028 1.000000
vt 0.615335 0.592735
vt 0.589707 0.775249
vt 0.581909 0.353207
s 0
g Cube_Material
usemtl Material
f 350/571/351 352/572/351 351/573/351
f 352/574/352 355/575/352 351/576/352
f 356/577/353 353/578/353 357/579/353
f 353/578/354 356/577/354 350/580/354
f 358/581/355 349/582/355 354/583/355 355/575/355
f 351/573/356 353/584/356 350/571/356
f 351/585/357 354/586/357 349/582/357 353/587/357
f 355/575/358 354/583/358 351/576/358
f 357/588/359 353/578/359 349/589/359
f 349/582/360 358/581/360 357/588/360
f 358/581/361 355/575/361 352/572/361 356/590/361
f 358/581/362 356/590/362 357/588/362
f 352/572/363 350/571/363 356/590/363
o Cube
v -0.867776 0.062479 5.616246
v -0.376589 0.007818 5.198341
v -0.337624 0.132364 5.582330
v -0.325131 0.352845 5.301838
v -0.662401 -0.176026 5.384882
v -0.618412 0.305856 5.705499
v -0.514088 0.509328 5.491148
v -0.648660 0.206201 5.038147
v -0.932788 0.201589 5.236134
v -0.801168 0.458925 5.262380
vn 0.9898 -0.1302 -0.0582
vn 0.7883 0.4662 0.4015
vn -0.4555 -0.5891 -0.6674
vn -0.0524 -0.6699 -0.7406
vn -0.6220 0.6245 0.4723
vn 0.6146 -0.7665 0.1863
vn 0.1260 -0.5575 0.8206
vn 0.5736 0.4362 0.6933
vn -0.7941 -0.6019 -0.0845
vn -0.8619 0.4105 0.2976
vn 0.2221 0.7785 -0.5870
vn -0.5387 0.3535 -0.7648
vn 0.5818 0.1529 -0.7988
vt 0.550384 0.206938
vt 0.375000 0.305791
vt 0.375000 0.049496
vt 0.180791 0.500000
vt 0.330928 0.574320
vt 0.125000 0.700504
vt 0.804283 0.500000
vt 0.842867 0.681766
vt 0.658516 0.626313
vt 0.875000 0.500000
vt 0.501754 0.540833
vt 0.565165 0.799791
vt 0.325310 0.750000
vt 0.604031 0.069198
vt 0.375000 1.000000
vt 0.375000 0.799690
vt 0.578028 1.000000
vt 0.615335 0.592735
vt 0.589707 0.775249
vt 0.581909 0.353207
s 0
g Cube_Material
usemtl Material
f 360/591/364 362/592/364 361/593/364
f 362/594/365 365/595/365 361/596/365
f 366/597/366 363/598/366 367/599/366
f 363/598/367 366/597/367 360/600/367
f 368/601/368 359/602/368 364/603/368 365/595/368
f 361/593/369 363/604/369 360/591/369
f 361/605/370 364/606/370 359/602/370 363/607/370
f 365/595/371 364/603/371 361/596/371
f 367/608/372 363/598/372 359/609/372
f 359/602/373 368/601/373 367/608/373
f 368/601/374 365/595/374 362/592/374 366/610/374
f 368/601/375 366/610/375 367/608/375
f 362/592/376 360/591/376 366/610/376
o Cube
v 4.909713 0.474362 -0.526802
v 5.145191 -0.154077 -0.634209
v 4.741810 -0.062625 -0.532763
v 4.988154 -0.207125 -0.289931
v 5.086690 0.216500 -0.792230
v 4.705227 0.235786 -0.317191
v 4.855124 0.028910 -0.109698
v 5.380089 0.026202 -0.377998
v 5.290576 0.377663 -0.350967
v 5.189262 0.228223 -0.105428
vn -0.2767 -0.9227 -0.2684
vn -0.6959 -0.6404 0.3250
vn 0.8406 0.2510 -0.4801
vn 0.7768 -0.1393 -0.6142
vn -0.2875 0.6732 0.6813
vn -0.3092 -0.4139 -0.8562
vn -0.7518 0.2419 -0.6135
vn -0.8901 -0.3335 0.3106
vn 0.4163 0.7751 -0.4754
vn -0.0195 0.8576 0.5139
vn 0.3904 -0.5062 0.7690
vn 0.8641 0.1840 0.4685
vn 0.5266 -0.8429 0.1103
vt 0.550384 0.206938
vt 0.375000 0.305791
vt 0.375000 0.049496
vt 0.180791 0.500000
vt 0.330928 0.574320
vt 0.125000 0.700504
vt 0.804283 0.500000
vt 0.842867 0.681766
vt 0.658516 0.626313
vt 0.875000 0.500000
vt 0.501754 0.540833
vt 0.565165 0.799791
vt 0.325310 0.750000
vt 0.604031 0.069198
vt 0.375000 1.000000
vt 0.375000 0.799690
vt 0.578028 1.000000
vt 0.615335 0.592735
vt 0.589707 0.775249
vt 0.581909 0.353207
s 0
g Cube_Material
usemtl Material
f 370/611/377 372/612/377 371/613/377
f 372/614/378 375/615/378 371/616/378
f 376/617/379 373/618/379 377/619/379
f 373/618/380 376/617/380 370/620/380
f 378/621/381 369/622/381 374/623/381 375/615/381
f 371/613/382 373/624/382 370/611/382
f 371/625/383 374/626/383 369/622/383 373/627/383
f 375/615/384 374/623/384 371/616/384
f 377/628/385 373/618/385 369/629/385
f 369/622/386 378/621/386 377/628/386
f 378/621/387 375/615/387 372/612/387 376/630/387
f 378/621/388 376/630/388 377/628/388
f 372/612/389 370/611/389 376/630/389
o Cube
v 0.096456 -0.257597 -4.736729
v 0.371054 0.197788 -5.091652
v 0.497836 -0.181795 -5.073312
v 0.660514 0.085435 -4.910585
v 0.051852 -0.002130 -5.022462
v 0.442133 -0.334536 -4.765623
v 0.654835 -0.123708 -4.687133
v 0.332169 0.323290 -4.747545
v 0.145677 0.104461 -4.562133
v 0.422016 0.078753 -4.490233
vn 0.5655 0.1497 -0.8111
vn 0.8845 -0.3517 -0.3067
vn -0.7594 0.6506 0.0041
vn -0.5510 0.7620 -0.3402
vn 0.0584 -0.5516 0.8321
vn -0.1517 -0.0982 -0.9835
vn -0.3079 -0.7812 -0.5431
vn 0.7258 -0.6594 -0.1959
vn -0.9808 0.0416 0.1903
vn -0.2657 -0.3892 0.8820
vn 0.7112 0.5692 0.4126
vn -0.1185 0.6988 0.7055
vn 0.4828 0.8388 -0.2514
vt 0.550384 0.206938
vt 0.375000 0.305791
vt 0.375000 0.049496
vt 0.180791 0.500000
vt 0.330928 0.574320
vt 0.125000 0.700504
vt 0.804283 0.500000
vt 0.842867 0.681766
vt 0.658516 0.626313
vt 0.875000 0.500000
vt 0.501754 0.540833
vt 0.565165 0.799791
vt 0.325310 0.750000
vt 0.604031 0.069198
vt 0.375000 1.000000
vt 0.375000 0.799690
vt 0.578028 1.000000
vt 0.615335 0.592735
vt 0.589707 0.775249
vt 0.581909 0.353207
s 0
g Cube_Material
usemtl Material
f 380/631/390 382/632/390 381/633/390
f 382/634/391 385/635/391 381/636/391
f 386/637/392 383/638/392 387/639/392
f 383/638/393 386/637/393 380/640/393
f 388/641/394 379/642/394 384/643/394 385/635/394
f 381/633/395 383/644/395 380/631/395
f 381/645/396 384/646/396 379/642/396 383/647/396
f 385/635/397 384/643/397 381/636/397
f 387/648/398 383/638/398 379/649/398
f 379/642/399 388/641/399 387/648/399
f 388/641/400 385/635/400 382/632/400 386/650/400
f 388/641/401 386/650/401 387/648/401
f 382/632/402 380/631/402 386/650/402
o Cube
v 3.434616 -0.022317 -3.427531
v 3.019076 0.620422 -3.261783
v 3.471512 0.624487 -3.451726
v 3.386146 0.716219 -3.038357
v 3.039680 0.223564 -3.510970
v 3.713892 0.296340 -3.328159
v 3.678462 0.484430 -3.000782
v 3.020065 0.351110 -2.899810
v 3.191725 -0.019111 -2.995055
v 3.420907 0.171391 -2.809307
vn -0.1080 0.9656 -0.2366
vn 0.6242 0.7800 -0.0442
vn -0.8994 -0.4328 0.0615
vn -0.9990 -0.0365 -0.0244
vn 0.7512 -0.5976 0.2803
vn -0.3418 0.4869 -0.8038
vn 0.2665 -0.0512 -0.9625
vn 0.8225 0.5270 -0.2138
vn -0.4707 -0.8437 -0.2581
vn 0.4746 -0.8369 0.2727
vn 0.0619 0.3902 0.9187
vn -0.3647 -0.3870 0.8469
vn -0.4973 0.6954 0.5188
vt 0.550384 0.206938
vt 0.375000 0.305791
vt 0.375000 0.049496
vt 0.180791 0.500000
vt 0.330928 0.574320
vt 0.125000 0.700504
vt 0.804283 0.500000
vt 0.842867 0.681766
vt 0.658516 0.626313
vt 0.875000 0.500000
vt 0.501754 0.540833
vt 0.565165 0.799791
vt 0.325310 0.750000
vt 0.604031 0.069198
vt 0.375000 1.000000
vt 0.375000 0.799690
vt 0.578028 1.000000
vt 0.615335 0.592735
vt 0.589707 0.775249
vt 0.581909 0.353207
s 0
g Cube_Material
usemtl Material
f 390/651/403 392/652/403 391/653/403
f 392/654/404 395/655/404 391/656/404
f 396/657/405 393/658/405 397/659/405
f 393/658/406 396/657/406 390/660/406
f 398/661/407 389/662/407 394/663/407 395/655/407
f 391/653/408 393/664/408 390/651/408
f 391/665/409 394/666/409 389/662/409 393/667/409
f 395/655/410 394/663/410 391/656/410
f 397/668/411 393/658/411 389/669/411
f 389/662/412 398/661/412 397/668/412
f 398/661/413 395/655/413 392/652/413 396/670/413
f 398/661/414 396/670/414 397/668/414
f 392/652/415 390/651/415 396/670/415
o Cube
v -4.627994 0.564055 -0.307470
v -4.351377 0.032382 -0.686953
v -4.139014 0.411862 -0.594886
v -4.292832 0.330484 -0.945328
v -4.513735 0.151480 -0.312807
v -4.371934 0.718314 -0.564485
v -4.401842 0.648885 -0.899574
v -4.719066 0.125066 -0.839389
v -4.896245 0.373140 -0.613214
v -4.787313 0.524320 -0.871022
vn 0.8646 -0.4152 -0.2831
vn 0.8266 0.3467 -0.4433
vn -0.6381 -0.7153 0.2847
vn -0.3052 -0.9377 0.1660
vn -0.4078 0.9127 -0.0250
vn 0.7144 -0.5148 0.4739
vn 0.5446 0.2228 0.8086
vn 0.7716 0.6057 -0.1944
vn -0.6733 -0.1957 0.7130
vn -0.6749 0.7246 0.1397
vn -0.1559 -0.0191 -0.9876
vn -0.8618 -0.1847 -0.4725
vn 0.1373 -0.6640 -0.7350
vt 0.550384 0.206938
vt 0.375000 0.305791
vt 0.375000 0.049496
vt 0.180791 0.500000
vt 0.330928 0.574320
vt 0.125000 0.700504
vt 0.804283 0.500000
vt 0.842867 0.681766
vt 0.658516 0.626313
vt 0.875000 0.500000
vt 0.501754 0.540833
vt 0.565165 0.799791
vt 0.325310 0.750000
vt 0.604031 0.069198
vt 0.375000 1.000000
vt 0.375000 0.799690
vt 0.578028 1.000000
vt 0.615335 0.592735
vt 0.589707 0.775249
vt 0.581909 0.353207
s 0
g Cube_Material
usemtl Material
f 400/671/416 402/672/416 401/673/416
f 402/674/417 405/675/417 401/676/417
f 406/677/418 403/678/418 407/679/418
f 403/678/419 406/677/419 400/680/419
f 408/681/420 399/682/420 404/683/420 405/675/420
f 401/673/421 403/684/421 400/671/421
f 401/685/422 404/686/422 399/682/422 403/687/422
f 405/675/423 404/683/423 401/676/423
f 407/688/424 403/678/424 399/689/424
f 399/682/425 408/681/425 407/688/425
f 408/681/426 405/675/426 402/672/426 406/690/426
f 408/681/427 406/690/427 407/688/427
f 402/672/428 400/671/428 406/690/428
o Cube
v 2.494260 0.392060 -3.182995
v 3.093952 -0.183796 -2.947351
v 3.198843 0.331986 -3.074558
v 3.292124 -0.034281 -3.364974
v 2.662498 0.067524 -2.810974
v 2.907250 0.512179 -3.396674
v 3.113101 0.230484 -3.627736
v 2.816985 -0.381015 -3.311030
v 2.455517 -0.107662 -3.402959
v 2.721664 -0.067197 -3.681693
vn 0.9117 -0.0863 0.4017
vn 0.8941 0.3951 -0.2111
vn -0.6137 -0.6725 0.4136
vn -0.2511 -0.7578 0.6022
vn -0.4128 0.5051 -0.7579
vn 0.3759 0.1491 0.9146
vn -0.0238 0.8010 0.5982
vn 0.6843 0.6910 -0.2329
vn -0.9330 -0.0819 0.3505
vn -0.7061 0.3304 -0.6263
vn 0.4238 -0.5698 -0.7041
vn -0.4288 -0.7409 -0.5170
vn 0.5887 -0.8083 -0.0100
vt 0.550384 0.206938
vt 0.375000 0.305791
vt 0.375000 0.049496
vt 0.180791 0.500000
vt 0.330928 0.574320
vt 0.125000 0.700504
vt 0.804283 0.500000
vt 0.842867 0.681766
vt 0.658516 0.626313
vt 0.875000 0.500000
vt 0.501754 0.540833
vt 0.565165 0.799791
vt 0.325310 0.750000
vt 0.604031 0.069198
vt 0.375000 1.000000
vt 0.375000 0.799690
vt 0.578028 1.000000
vt 0.615335 0.592735
vt 0.589707 0.775249
vt 0.581909 0.353207
s 0
g Cube_Material
usemtl Material
f 410/691/429 412/692/429 411/693/429
f 412/694/430 415/695/430 411/696/430
f 416/697/431 413/698/431 417/699/431
f 413/698/432 416/697/432 410/700/432
f 418/701/433 409/702/433 414/703/433 415/695/433
f 411/693/434 413/704/434 410/691/434
f 411/705/435 414/706/435 409/702/435 413/707/435
f 415/695/436 414/703/436 411/696/436
f 417/708/437 413/698/437 409/709/437
f 409/702/438 418/701/438 417/708/438
f 418/701/439 415/695/439 412/692/439 416/710/439
f 418/701/440 416/710/440 417/708/440
f 412/692/441 410/691/441 416/710/441
o Cube
v -3.944810 0.000109 -0.352348
v -3.896274 0.496271 -0.535711
v -4.185571 0.334303 -0.506379
v -4.050015 0.377489 -0.762507
v -3.848804 0.299603 -0.290161
v -4.164252 0.048399 -0.543816
v -4.111699 0.131488 -0.781512
v -3.700311 0.316066 -0.686634
v -3.693524 0.057594 -0.568571
v -3.819215 0.048962 -0.770722
vn -0.4942 0.8616 -0.1163
vn -0.8724 0.2511 -0.4194
vn 0.9178 0.1846 0.3514
vn 0.7617 0.5696 0.3089
vn -0.1527 -0.9600 -0.2345
vn -0.3307 0.7044 0.6281
vn -0.5959 -0.0602 0.8008
vn -0.9723 -0.0424 -0.2298
vn 0.6558 -0.3492 0.6693
vn 0.1701 -0.9834 -0.0638
vn 0.1630 0.1389 -0.9768
vn 0.8341 -0.2109 -0.5096
vn 0.2614 0.7708 -0.5809
vt 0.550384 0.206938
vt 0.375000 0.305791
vt 0.375000 0.049496
vt 0.180791 0.500000
vt 0.330928 0.574320
vt 0.125000 0.700504
vt 0.804283 0.500000
vt 0.842867 0.681766
vt 0.658516 0.626313
vt 0.875000 0.500000
vt 0.501754 0.540833
vt 0.565165 0.799791
vt 0.325310 0.750000
vt 0.604031 0.069198
vt 0.375000 1.000000
vt 0.375000 0.799690
vt 0.578028 1.000000
vt 0.615335 0.592735
vt 0.589707 0.775249
vt 0.581909 0.353207
s 0
g Cube_Material
usemtl Material
f 420/711/442 422/712/442 421/713/442
f 422/714/443 425/715/443 421/716/443
f 426/717/444 423/718/444 427/719/444
f 423/718/445 426/717/445 420/720/445
f 428/721/446 419/722/446 424/723/446 425/715/446
f 421/713/447 423/724/447 420/711/447
f 421/725/448 424/726/448 419/722/448 423/727/448
f 425/715/449 424/723/449 421/716/449
f 427/728/450 423/718/450 419/729/450
f 419/722/451 428/721/451 427/728/451
f 428/721/452 425/715/452 422/712/452 426/730/452
f 428/721/453 426/730/453 427/728/453
f 422/712/454 420/711/454 426/730/454
o Cube
v -1.411229 0.588502 -2.431867
v -1.649791 0.293781 -3.122025
v -1.309450 0.084419 -2.832525
v -1.213488 0.300675 -3.196775
v -1.776859 0.423377 -2.686682
v -1.077717 0.364809 -2.605802
v -0.958380 0.444237 -2.959158
v -1.538204 0.729625 -3.180413
v -1.462773 0.911916 -2.808071
v -1.156440 0.849003 -2.972063
vn -0.0763 -0.8484 -0.5238
vn 0.6448 -0.7197 -0.2574
vn -0.8476 0.5239 -0.0848
vn -0.9250 0.1930 -0.3274
vn 0.7239 0.4872 0.4884
vn -0.5693 -0.8184 0.0775
vn -0.1411 -0.6333 0.7609
vn 0.7289 -0.6782 0.0937
vn -0.6312 0.5433 0.5536
vn 0.4402 0.7098 0.5499
vn 0.4637 0.2942 -0.8357
vn -0.0461 0.9008 -0.4317
vn -0.1668 -0.0888 -0.9820
vt 0.550384 0.206938
vt 0.375000 0.305791
vt 0.375000 0.049496
vt 0.180791 0.500000
vt 0.330928 0.574320
vt 0.125000 0.700504
vt 0.804283 0.500000
vt 0.842867 0.681766
vt 0.658516 0.626313
vt 0.875000 0.500000
vt 0.501754 0.540833
vt 0.565165 0.799791
vt 0.325310 0.750000
vt 0.604031 0.069198
vt 0.375000 1.000000
vt 0.375000 0.799690
vt 0.578028 1.000000
vt 0.615335 0.592735
vt 0.589707 0.775249
vt 0.581909 0.353207
s 0
g Cube_Material
usemtl Material
f 430/731/455 432/732/455 431/733/455
f 432/734/456 435/735/456 431/736/456
f 436/737/457 433/738/457 437/739/457
f 433/738/458 436/737/458 430/740/458
f 438/741/459 429/742/459 434/743/459 435/735/459
f 431/733/460 433/744/460 430/731/460
f 431/745/461 434/746/461 429/742/461 433/747/461
f 435/735/462 434/743/462 431/736/462
f 437/748/463 433/738/463 429/749/463
f 429/742/464 438/741/464 437/748/464
f 438/741/465 435/735/465 432/732/465 436/750/465
f 438/741/466 436/750/466 437/748/466
f 432/732/467 430/731/467 436/750/467
o Cube
v -2.490686 -0.351585 -2.225529
v -2.571111 -0.208010 -2.893032
v -2.290325 -0.009282 -2.633712
v -2.615675 0.147826 -2.748860
v -2.474022 -0.495277 -2.614432
v -2.404214 0.016829 -2.278208
v -2.622141 0.219355 -2.427624
v -2.926458 -0.203299 -2.718142
v -2.899822 -0.326434 -2.372504
v -2.929512 -0.019590 -2.369889
vn 0.4667 0.3817 -0.7978
vn 0.4790 0.8588 -0.1816
vn -0.4804 -0.8372 -0.2612
vn -0.3171 -0.7133 -0.6250
vn -0.1840 0.2901 0.9391
vn 0.7539 -0.3080 -0.5803
vn 0.9340 -0.2762 0.2268
vn 0.6199 0.7717 0.1419
vn -0.1770 -0.9256 0.3344
vn -0.3400 -0.0409 0.9395
vn -0.6850 0.6774 -0.2680
vn -0.9944 -0.0966 0.0422
vn -0.4187 0.2955 -0.8587
vt 0.550384 0.206938
vt 0.375000 0.305791
vt 0.375000 0.049496
vt 0.180791 0.500000
vt 0.330928 0.574320
vt 0.125000 0.700504
vt 0.804283 0.500000
vt 0.842867 0.681766
vt 0.658516 0.626313
vt 0.875000 0.500000
vt 0.501754 0.540833
vt 0.565165 0.799791
vt 0.325310 0.750000
vt 0.604031 0.069198
vt 0.375000 1.000000
vt 0.375000 0.799690
vt 0.578028 1.000000
vt 0.615335 0.592735
vt 0.589707 0.775249
vt 0.581909 0.353207
s 0
g Cube_Material
usemtl Material
f 440/751/468 442/752/468 441/753/468
f 442/754/469 445/755/469 441/756/469
f 446/757/470 443/758/470 447/759/470
f 443/758/471 446/757/471 440/760/471
f 448/761/472 439/762/472 444/763/472 445/755/472
f 441/753/473 443/764/473 440/751/473
f 441/765/474 444/766/474 439/762/474 443/767/474
f 445/755/475 444/763/475 441/756/475
f 447/768/476 443/758/476 439/769/476
f 439/762/477 448/761/477 447/768/477
f 448/761/478 445/755/478 442/752/478 446/770/478
f 448/761/479 446/770/479 447/768/479
f 442/752/480 440/751/480 446/770/480
o Cube
v 3.362661 0.533158 0.021169
v 3.575334 0.055243 0.690798
v 3.890089 0.426053 0.474160
v 3.952936 -0.034249 0.412184
v 3.248759 0.397114 0.502351
v 3.831743 0.478724 0.018367
v 3.995282 0.101348 0.030945
v 3.414766 -0.237829 0.333047
v 3.241889 0.009424 -0.007143
v 3.585477 -0.121201 -0.107522
vn 0.5891 -0.0283 0.8075
vn 0.9822 0.1140 0.1496
vn -0.9200 -0.3059 0.2452
vn -0.7148 -0.3485 0.6063
vn 0.1215 0.1558 -0.9803
vn 0.0159 0.4943 0.8692
vn 0.0280 0.9796 0.1990
vn 0.9161 0.3946 -0.0717
vn -0.9596 0.2300 -0.1621
vn -0.2409 0.1077 -0.9646
vn 0.4349 -0.8863 -0.1592
vn -0.4238 -0.8214 -0.3817
vn 0.2210 -0.8007 0.5568
vt 0.550384 0.206938
vt 0.375000 0.305791
vt 0.375000 0.049496
vt 0.180791 0.500000
vt 0.330928 0.574320
vt 0.125000 0.700504
vt 0.804283 0.500000
vt 0.842867 0.681766
vt 0.658516 0.626313
vt 0.875000 0.500000
vt 0.501754 0.540833
vt 0.565165 0.799791
vt 0.325310 0.750000
vt 0.604031 0.069198
vt 0.375000 1.000000
vt 0.375000 0.799690
vt 0.578028 1.000000
vt 0.615335 0.592735
vt 0.589707 0.775249
vt 0.581909 0.353207
s 0
g Cube_Material
usemtl Material
f 450/771/481 452/772/481 451/773/481
f 452/774/482 455/775/482 451/776/482
f 456/777/483 453/778/483 457/779/483
f 453/778/484 456/777/484 450/780/484
f 458/781/485 449/782/485 454/783/485 455/775/485
f 451/773/486 453/784/486 450/771/486
f 451/785/487 454/786/487 449/782/487 453/787/487
f 455/775/488 454/783/488 451/776/488
f 457/788/489 453/778/489 449/789/489
f 449/782/490 458/781/490 457/788/490
f 458/781/491 455/775/491 452/772/491 456/790/491
f 458/781/492 456/790/492 457/788/492
f 452/772/493 450/771/493 456/790/493
o Cube
v -0.141227 0.254497 2.455950
v -0.070764 1.073375 2.921910
v 0.220888 0.946980 2.422455
v 0.444978 0.949627 2.892934
v -0.415040 0.715027 2.651154
v 0.338791 0.449165 2.369983
v 0.606444 0.562615 2.723274
v 0.007445 0.664992 3.273185
v -0.093628 0.221946 3.051607
v 0.326019 0.271326 3.082537
vn 0.2258 0.9676 -0.1130
vn 0.7847 0.4924 -0.3765
vn -0.8273 -0.0887 0.5547
vn -0.7700 0.3249 0.5491
vn 0.4359 -0.8750 -0.2106
vn -0.4450 0.7713 -0.4550
vn -0.3106 0.1168 -0.9433
vn 0.7348 0.2409 -0.6340
vn -0.8514 -0.5230 0.0395
vn 0.1213 -0.9906 -0.0638
vn 0.6816 0.0836 0.7269
vn -0.0137 -0.4448 0.8955
vn 0.1992 0.6607 0.7238
vt 0.550384 0.206938
vt 0.375000 0.305791
vt 0.375000 0.049496
vt 0.180791 0.500000
vt 0.330928 0.574320
vt 0.125000 0.700504
vt 0.804283 0.500000
vt 0.842867 0.681766
vt 0.658516 0.626313
vt 0.875000 0.500000
vt 0.501754 0.540833
vt 0.565165 0.799791
vt 0.325310 0.750000
vt 0.604031 0.069198
vt 0.375000 1.000000
vt 0.375000 0.799690
vt 0.578028 1.000000
vt 0.615335 0.592735
vt 0.589707 0.775249
vt 0.581909 0.353207
s 0
g Cube_Material
usemtl Material
f 460/791/494 462/792/494 461/793/494
f 462/794/495 465/795/495 461/796/495
f 466/797/496 463/798/496 467/799/496
f 463/798/497 466/797/497 460/800/497
f 468/801/498 459/802/498 464/803/498 465/795/498
f 461/793/499 463/804/499 460/791/499
f 461/805/500 464/806/500 459/802/500 463/807/500
f 465/795/501 464/803/501 461/796/501
f 467/808/502 463/798/502 459/809/502
f 459/802/503 468/801/503 467/808/503
f 468/801/504 465/795/504 462/792/504 466/810/504
f 468/801/505 466/810/505 467/808/505
f 462/792/506 460/791/506 466/810/506
o Cube
v -2.647228 0.300403 -0.979349
v -2.122415 -0.060731 -1.036826
v -2.496055 -0.193902 -1.094346
v -2.306518 -0.265466 -0.805500
v -2.311393 0.247984 -1.162404
v -2.734777 -0.034268 -0.897488
v -2.575187 -0.187624 -0.680789
v -2.110772 0.114316 -0.712744
v -2.363915 0.343849 -0.692994
v -2.430346 0.114800 -0.533627
vn 0.3608 -0.8221 -0.4404
vn -0.2960 -0.9542 -0.0422
vn 0.6664 0.7416 -0.0769
vn 0.8670 0.4247 -0.2606
vn -0.7907 0.2303 0.5672
vn 0.2312 -0.2418 -0.9424
vn -0.5439 0.0288 -0.8386
vn -0.6112 -0.7845 -0.1050
vn 0.0467 0.9797 -0.1949
vn -0.6306 0.5581 0.5393
vn 0.3571 -0.4635 0.8109
vn 0.4439 0.4215 0.7908
vn 0.8396 -0.4900 0.2345
vt 0.550384 0.206938
vt 0.375000 0.305791
vt 0.375000 0.049496
vt 0.180791 0.500000
vt 0.330928 0.574320
vt 0.125000 0.700504
vt 0.804283 0.500000
vt 0.842867 0.681766
vt 0.658516 0.626313
vt 0.875000 0.500000
vt 0.501754 0.540833
vt 0.565165 0.799791
vt 0.325310 0.750000
vt 0.604031 0.069198
vt 0.375000 1.000000
vt 0.375000 0.799690
vt 0.578028 1.000000
vt 0.615335 0.592735
vt 0.589707 0.775249
vt 0.581909 0.353207
s 0
g Cube_Material
usemtl Material
f 470/811/507 472/812/507 471/813/507
f 472/814/508 475/815/508 471/816/508
f 476/817/509 473/818/509 477/819/509
f 473/818/510 476/817/510 470/820/510
f 478/821/511 469/822/511 474/823/511 475/815/511
f 471/813/512 473/824/512 470/811/512
f 471/825/513 474/826/513 469/822/513 473/827/513
f 475/815/514 474/823/514 471/816/514
f 477/828/515 473/818/515 469/829/515
f 469/822/516 478/821/516 477/828/516
f 478/821/517 475/815/517 472/812/517 476/830/517
f 478/821/518 476/830/518 477/828/518
f 472/812/519 470/811/519 476/830/519
o Cube
v -1.192465 -0.081167 2.775994
v -0.967547 0.382944 2.251501
v -0.684818 0.139659 2.522294
v -0.753364 0.536687 2.570109
v -1.197414 0.018476 2.343389
v -0.830259 0.071026 2.888966
v -0.781481 0.423618 2.902471
v -1.248880 0.582107 2.498041
v -1.413990 0.327839 2.749081
v -1.193014 0.512624 2.909792
vn 0.7634 0.2055 -0.6124
vn 0.9790 0.1528 0.1348
vn -0.8608 0.0601 -0.5053
vn -0.5811 0.1656 -0.7968
vn -0.1221 -0.1466 0.9816
vn 0.3871 -0.4474 -0.8062
vn 0.3368 -0.9316 -0.1369
vn 0.9290 -0.1416 0.3420
vn -0.8721 -0.4789 -0.1003
vn -0.4650 -0.1950 0.8636
vn 0.1264 0.9645 0.2319
vn -0.7125 0.6697 0.2097
vn 0.1518 0.8464 -0.5105
vt 0.550384 0.206938
vt 0.375000 0.305791
vt 0.375000 0.049496
vt 0.180791 0.500000
vt 0.330928 0.574320
vt 0.125000 0.700504
vt 0.804283 0.500000
vt 0.842867 0.681766
vt 0.658516 0.626313
vt 0.875000 0.500000
vt 0.501754 0.540833
vt 0.565165 0.799791
vt 0.325310 0.750000
vt 0.604031 0.069198
vt 0.375000 1.000000
vt 0.375000 0.799690
vt 0.578028 1.000000
vt 0.615335 0.592735
vt 0.589707 0.775249
vt 0.581909 0.353207
s 0
g Cube_Material
usemtl Material
f 480/831/520 482/832/520 481/833/520
f 482/834/521 485/835/521 481/836/521
f 486/837/522 483/838/522 487/839/522
f 483/838/523 486/837/523 480/840/523
f 488/841/524 479/842/524 484/843/524 485/835/524
f 481/833/525 483/844/525 480/831/525
f 481/845/526 484/846/526 479/842/526 483/847/526
f 485/835/527 484/843/527 481/836/527
f 487/848/528 483/838/528 479/849/528
f 479/842/529 488/841/529 487/848/529
f 488/841/530 485/835/530 482/832/530 486/850/530
f 488/841/531 486/850/531 487/848/531
f 482/832/532 480/831/532 486/850/532
o Cube
v -1.783389 -0.017473 0.762256
v -1.965890 -0.055051 1.476066
v -1.989972 -0.410551 1.181559
v -2.316003 -0.204725 1.311626
v -1.645729 0.028482 1.183196
v -2.074016 -0.303676 0.803718
v -2.382363 -0.223217 0.965188
v -2.166077 0.276610 1.301218
v -2.035126 0.336903 0.933718
v -2.333277 0.194040 0.922073
vn -0.0916 -0.6316 0.7699
vn -0.4882 -0.8615 0.1395
vn 0.4653 0.8320 0.3023
vn 0.4408 0.6122 0.6565
vn -0.3355 0.0489 -0.9408
vn 0.6490 -0.5110 0.5637
vn 0.7218 -0.6456 -0.2496
vn -0.3380 -0.9226 -0.1858
vn 0.7030 0.6447 -0.3003
vn -0.1332 0.3534 -0.9259
vn -0.9365 0.2235 0.2703
vn -0.4319 0.9019 -0.0059
vn -0.4768 0.1672 0.8630
vt 0.550384 0.206938
vt 0.375000 0.305791
vt 0.375000 0.049496
vt 0.180791 0.500000
vt 0.330928 0.574320
vt 0.125000 0.700504
vt 0.804283 0.500000
vt 0.842867 0.681766
vt 0.658516 0.626313
vt 0.875000 0.500000
vt 0.501754 0.540833
vt 0.565165 0.799791
vt 0.325310 0.750000
vt 0.604031 0.069198
vt 0.375000 1.000000
vt 0.375000 0.799690
vt 0.578028 1.000000
vt 0.615335 0.592735
vt 0.589707 0.775249
vt 0.581909 0.353207
s 0
g Cube_Material
usemtl Material
f 490/851/533 492/852/533 491/853/533
f 492/854/534 495/855/534 491/856/534
f 496/857/535 493/858/535 497/859/535
f 493/858/536 496/857/536 490/860/536
f 498/861/537 489/862/537 494/863/537 495/855/537
f 491/853/538 493/864/538 490/851/538
f 491/865/539 494/866/539 489/862/539 493/867/539
f 495/855/540 494/863/540 491/856/540
f 497/868/541 493/858/541 489/869/541
f 489/862/542 498/861/542 497/868/542
f 498/861/543 495/855/543 492/852/543 496/870/543
f 498/861/544 496/870/544 497/868/544
f 492/852/545 490/851/545 496/870/545
o Cube
v -0.245133 0.202482 2.167653
v -0.634684 0.172392 2.631513
v -0.282874 0.028795 2.637225
v -0.557965 -0.158752 2.604732
v -0.448548 0.389623 2.407628
v -0.176621 -0.077018 2.343128
v -0.389217 -0.272227 2.397442
v -0.794920 0.058209 2.342767
v -0.608415 0.111121 2.082499
v -0.599194 -0.152645 2.148122
vn -0.0541 -0.0929 0.9942
vn 0.3689 -0.6553 0.6591
vn -0.6281 0.7161 -0.3045
vn -0.6978 0.7083 0.1071
vn 0.4355 -0.4959 -0.7513
vn 0.2306 0.5955 0.7695
vn 0.8528 0.4638 0.2401
vn 0.6628 -0.5956 0.4538
vn -0.0441 0.7693 -0.6373
vn 0.2753 -0.2230 -0.9351
vn -0.6346 -0.7714 0.0470
vn -0.7829 -0.1758 -0.5968
vn -0.8091 -0.2311 0.5404
vt 0.550384 0.206938
vt 0.375000 0.305791
vt 0.375000 0.049496
vt 0.180791 0.500000
vt 0.330928 0.574320
vt 0.125000 0.700504
vt 0.804283 0.500000
vt 0.842867 0.681766
vt 0.658516 0.626313
vt 0.875000 0.500000
vt 0.501754 0.540833
vt 0.565165 0.799791
vt 0.325310 0.750000
vt 0.604031 0.069198
vt 0.375000 1.000000
vt 0.375000 0.799690
vt 0.578028 1.000000
vt 0.615335 0.592735
vt 0.589707 0.775249
vt 0.581909 0.353207
s 0
g Cube_Material
usemtl Material
f 500/871/546 502/872/546 501/873/546
f 502/874/547 505/875/547 501/876/547
f 506/877/548 503/878/548 507/879/548
f 503/878/549 506/877/549 500/880/549
f 508/881/550 499/882/550 504/883/550 505/875/550
f 501/873/551 503/884/551 500/871/551
f 501/885/552 504/886/552 499/882/552 503/887/552
f 505/875/553 504/883/553 501/876/553
f 507/888/554 503/878/554 499/889/554
f 499/882/555 508/881/555 507/888/555
f 508/881/556 505/875/556 502/872/556 506/890/556
f 508/881/557 506/890/557 507/888/557
f 502/872/558 500/871/558 506/890/558
o Cube
v 0.323630 0.312866 -1.785633
v 0.006818 0.095825 -1.365029
v 0.326002 -0.030566 -1.462572
v 0.054653 -0.171457 -1.534741
v 0.170739 0.370663 -1.483229
v 0.387944 0.003669 -1.764400
v 0.183270 -0.180894 -1.775016
v -0.179393 0.123440 -1.633791
v -0.029229 0.275766 -1.850892
v -0.030477 0.026703 -1.907418
vn 0.0494 -0.5291 0.8471
vn 0.3944 -0.8855 0.2459
vn -0.6083 0.7832 0.1287
vn -0.6327 0.5920 0.4992
vn 0.3160 -0.1101 -0.9423
vn 0.3531 0.1839 0.9173
vn 0.9032 0.2974 0.3095
vn 0.6672 -0.7430 0.0527
vn -0.0622 0.9741 -0.2176
vn 0.1553 0.2179 -0.9635
vn -0.6759 -0.7035 -0.2197
vn -0.8538 0.1193 -0.5068
vn -0.7584 -0.4406 0.4802
vt 0.550384 0.206938
vt 0.375000 0.305791
vt 0.375000 0.049496
vt 0.180791 0.500000
vt 0.330928 0.574320
vt 0.125000 0.700504
vt 0.804283 0.500000
vt 0.842867 0.681766
vt 0.658516 0.626313
vt 0.875000 0.500000
vt 0.501754 0.540833
vt 0.565165 0.799791
vt 0.325310 0.750000
vt 0.604031 0.069198
vt 0.375000 1.000000
vt 0.375000 0.799690
vt 0.578028 1.000000
vt 0.615335 0.592735
vt 0.589707 0.775249
vt 0.581909 0.353207
s 0
g Cube_Material
usemtl Material
f 510/891/559 512/892/559 511/893/559
f 512/894/560 515/895/560 511/896/560
f 516/897/561 513/898/561 517/899/561
f 513/898/562 516/897/562 510/900/562
f 518/901/563 509/902/563 514/903/563 515/895/563
f 511/893/564 513/904/564 510/891/564
f 511/905/565 514/906/565 509/902/565 513/907/565
f 515/895/566 514/903/566 511/896/566
f 517/908/567 513/898/567 509/909/567
f 509/902/568 518/901/568 517/908/568
f 518/901/569 515/895/569 512/892/569 516/910/569
f 518/901/570 516/910/570 517/908/570
f 512/892/571 510/891/571 516/910/571
o Cube
v -1.386198 -0.126759 0.966091
v -1.258848 0.465084 1.049397
v -1.015942 0.211073 0.897402
v -0.988823 0.328588 1.212152
v -1.477825 0.221438 0.886117
v -1.051578 -0.097548 1.016253
v -0.949495 0.042048 1.256383
v -1.382710 0.332479 1.351101
v -1.493775 0.028556 1.303920
v -1.251446 0.018135 1.431438
vn 0.5764 0.7480 -0.3290
vn 0.9850 0.1154 -0.1280
vn -0.9387 0.3253 0.1143
vn -0.7408 0.6717 -0.0089
vn 0.1424 -0.9336 0.3287
vn 0.0326 0.5360 -0.8436
vn 0.0804 -0.2825 -0.9559
vn 0.9376 -0.2139 -0.2742
vn -0.9431 -0.2868 -0.1684
vn -0.2223 -0.9108 0.3480
vn 0.3865 0.2912 0.8751
vn -0.4643 0.0323 0.8851
vn 0.1687 0.8750 0.4538
vt 0.550384 0.206938
vt 0.375000 0.305791
vt 0.375000 0.049496
vt 0.180791 0.500000
vt 0.330928 0.574320
vt 0.125000 0.700504
vt 0.804283 0.500000
vt 0.842867 0.681766
vt 0.658516 0.626313
vt 0.875000 0.500000
vt 0.501754 0.540833
vt 0.565165 0.799791
vt 0.325310 0.750000
vt 0.604031 0.069198
vt 0.375000 1.000000
vt 0.375000 0.799690
vt 0.578028 1.000000
vt 0.615335 0.592735
vt 0.589707 0.775249
vt 0.581909 0.353207
s 0
g Cube_Material
usemtl Material
f 520/911/572 522/912/572 521/913/572
f 522/914/573 525/915/573 521/916/573
f 526/917/574 523/918/574 527/919/574
f 523/918/575 526/917/575 520/920/575
f 528/921/576 519/922/576 524/923/576 525/915/576
f 521/913/577 523/924/577 520/911/577
f 521/925/578 524/926/578 519/922/578 523/927/578
f 525/915/579 524/923/579 521/916/579
f 527/928/580 523/918/580 519/929/580
f 519/922/581 528/921/581 527/928/581
f 528/921/582 525/915/582 522/912/582 526/930/582
f 528/921/583 526/930/583 527/928/583
f 522/912/584 520/911/584 526/930/584
