# Blender 4.1.0
# www.blender.org
mtllib Explosion20038.mtl
o Circle
v -0.024615 0.096888 -1.522372
v -0.024615 0.242742 -1.522372
v 0.122545 0.096888 -1.515142
v 0.122545 0.242742 -1.515142
v 0.268288 0.096888 -1.493523
v 0.268288 0.242742 -1.493523
v 0.411211 0.096888 -1.457723
v 0.411211 0.242742 -1.457723
v 0.549936 0.096888 -1.408086
v 0.549936 0.242742 -1.408086
v 0.683127 0.096888 -1.345092
v 0.683127 0.242742 -1.345092
v 0.809503 0.096888 -1.269345
v 0.809503 0.242742 -1.269345
v 0.927846 0.096888 -1.181576
v 0.927846 0.242742 -1.181576
v 1.037016 0.096888 -1.082630
v 1.037016 0.242742 -1.082630
v 1.135962 0.096888 -0.973460
v 1.135962 0.242742 -0.973460
v 1.223731 0.096888 -0.855117
v 1.223731 0.242742 -0.855117
v 1.299478 0.096888 -0.728741
v 1.299478 0.242742 -0.728741
v 1.362473 0.096888 -0.595549
v 1.362473 0.242742 -0.595549
v 1.412110 0.096888 -0.456824
v 1.412110 0.242742 -0.456824
v 1.447910 0.096888 -0.313902
v 1.447910 0.242742 -0.313902
v 1.469529 0.096888 -0.168159
v 1.469529 0.242742 -0.168159
v 1.476758 0.096888 -0.020998
v 1.476758 0.242742 -0.020998
v 1.469529 0.096888 0.126162
v 1.469529 0.242742 0.126162
v 1.447910 0.096888 0.271905
v 1.447910 0.242742 0.271905
v 1.412110 0.096888 0.414827
v 1.412110 0.242742 0.414827
v 1.362473 0.096888 0.553553
v 1.362473 0.242742 0.553553
v 1.299478 0.096888 0.686744
v 1.299478 0.242742 0.686744
v 1.223731 0.096888 0.813120
v 1.223731 0.242742 0.813120
v 1.135962 0.096888 0.931463
v 1.135962 0.242742 0.931463
v 1.037016 0.096888 1.040633
v 1.037016 0.242742 1.040633
v 0.927846 0.096888 1.139579
v 0.927846 0.242742 1.139579
v 0.809503 0.096888 1.227348
v 0.809503 0.242742 1.227348
v 0.683127 0.096888 1.303095
v 0.683127 0.242742 1.303095
v 0.549936 0.096888 1.366090
v 0.549936 0.242742 1.366090
v 0.411211 0.096888 1.415727
v 0.411211 0.242742 1.415727
v 0.268288 0.096888 1.451527
v 0.268288 0.242742 1.451527
v 0.122545 0.096888 1.473146
v 0.122545 0.242742 1.473146
v -0.024615 0.096888 1.480376
v -0.024615 0.242742 1.480376
v -0.171775 0.096888 1.473146
v -0.171775 0.242742 1.473146
v -0.317519 0.096888 1.451527
v -0.317519 0.242742 1.451527
v -0.460441 0.096888 1.415727
v -0.460441 0.242742 1.415727
v -0.599166 0.096888 1.366090
v -0.599166 0.242742 1.366090
v -0.732358 0.096888 1.303095
v -0.732358 0.242742 1.303095
v -0.858734 0.096888 1.227348
v -0.858734 0.242742 1.227348
v -0.977076 0.096888 1.139579
v -0.977076 0.242742 1.139579
v -1.086246 0.096888 1.040633
v -1.086246 0.242742 1.040633
v -1.185192 0.096888 0.931463
v -1.185192 0.242742 0.931463
v -1.272961 0.096888 0.813120
v -1.272961 0.242742 0.813120
v -1.348708 0.096888 0.686744
v -1.348708 0.242742 0.686744
v -1.411703 0.096888 0.553553
v -1.411703 0.242742 0.553553
v -1.461340 0.096888 0.414827
v -1.461340 0.242742 0.414827
v -1.497140 0.096888 0.271905
v -1.497140 0.242742 0.271905
v -1.518759 0.096888 0.126162
v -1.518759 0.242742 0.126162
v -1.525989 0.096888 -0.020998
v -1.525989 0.242742 -0.020998
v -1.518759 0.096888 -0.168159
v -1.518759 0.242742 -0.168159
v -1.497140 0.096888 -0.313902
v -1.497140 0.242742 -0.313902
v -1.461340 0.096888 -0.456824
v -1.461340 0.242742 -0.456824
v -1.411703 0.096888 -0.595549
v -1.411703 0.242742 -0.595549
v -1.348708 0.096888 -0.728741
v -1.348708 0.242742 -0.728741
v -1.272961 0.096888 -0.855117
v -1.272961 0.242742 -0.855117
v -1.185192 0.096888 -0.973460
v -1.185192 0.242742 -0.973460
v -1.086246 0.096888 -1.082630
v -1.086246 0.242742 -1.082630
v -0.977076 0.096888 -1.181576
v -0.977076 0.242742 -1.181576
v -0.858734 0.096888 -1.269345
v -0.858734 0.242742 -1.269345
v -0.732358 0.096888 -1.345092
v -0.732358 0.242742 -1.345092
v -0.599166 0.096888 -1.408086
v -0.599166 0.242742 -1.408086
v -0.460441 0.096888 -1.457723
v -0.460441 0.242742 -1.457723
v -0.317519 0.096888 -1.493523
v -0.317519 0.242742 -1.493523
v -0.171775 0.096888 -1.515142
v -0.171775 0.242742 -1.515142
vn 0.0491 -0.0000 -0.9988
vn 0.1467 -0.0000 -0.9892
vn 0.2430 -0.0000 -0.9700
vn 0.3369 -0.0000 -0.9415
vn 0.4276 -0.0000 -0.9040
vn 0.5141 -0.0000 -0.8577
vn 0.5957 -0.0000 -0.8032
vn 0.6716 -0.0000 -0.7410
vn 0.7410 -0.0000 -0.6716
vn 0.8032 -0.0000 -0.5957
vn 0.8577 -0.0000 -0.5141
vn 0.9040 -0.0000 -0.4276
vn 0.9415 -0.0000 -0.3369
vn 0.9700 -0.0000 -0.2430
vn 0.9892 -0.0000 -0.1467
vn 0.9988 -0.0000 -0.0491
vn 0.9988 -0.0000 0.0491
vn 0.9892 -0.0000 0.1467
vn 0.9700 -0.0000 0.2430
vn 0.9415 -0.0000 0.3369
vn 0.9040 -0.0000 0.4276
vn 0.8577 -0.0000 0.5141
vn 0.8032 -0.0000 0.5957
vn 0.7410 -0.0000 0.6716
vn 0.6716 -0.0000 0.7410
vn 0.5957 -0.0000 0.8032
vn 0.5141 -0.0000 0.8577
vn 0.4276 -0.0000 0.9040
vn 0.3369 -0.0000 0.9415
vn 0.2430 -0.0000 0.9700
vn 0.1467 -0.0000 0.9892
vn 0.0491 -0.0000 0.9988
vn -0.0491 -0.0000 0.9988
vn -0.1467 -0.0000 0.9892
vn -0.2430 -0.0000 0.9700
vn -0.3369 -0.0000 0.9415
vn -0.4276 -0.0000 0.9040
vn -0.5141 -0.0000 0.8577
vn -0.5957 -0.0000 0.8032
vn -0.6716 -0.0000 0.7410
vn -0.7410 -0.0000 0.6716
vn -0.8032 -0.0000 0.5957
vn -0.8577 -0.0000 0.5141
vn -0.9040 -0.0000 0.4276
vn -0.9415 -0.0000 0.3369
vn -0.9700 -0.0000 0.2430
vn -0.9892 -0.0000 0.1467
vn -0.9988 -0.0000 0.0491
vn -0.9988 -0.0000 -0.0491
vn -0.9892 -0.0000 -0.1467
vn -0.9700 -0.0000 -0.2430
vn -0.9415 -0.0000 -0.3369
vn -0.9040 -0.0000 -0.4276
vn -0.8577 -0.0000 -0.5141
vn -0.8032 -0.0000 -0.5957
vn -0.7410 -0.0000 -0.6716
vn -0.6716 -0.0000 -0.7410
vn -0.5957 -0.0000 -0.8032
vn -0.5141 -0.0000 -0.8577
vn -0.4276 -0.0000 -0.9040
vn -0.3369 -0.0000 -0.9415
vn -0.2430 -0.0000 -0.9700
vn -0.1467 -0.0000 -0.9892
vn -0.0491 -0.0000 -0.9988
vt 1.000000 0.500000
vt 1.000000 1.000000
vt 0.984375 1.000000
vt 0.984375 0.500000
vt 0.968750 1.000000
vt 0.968750 0.500000
vt 0.953125 1.000000
vt 0.953125 0.500000
vt 0.937500 1.000000
vt 0.937500 0.500000
vt 0.921875 1.000000
vt 0.921875 0.500000
vt 0.906250 1.000000
vt 0.906250 0.500000
vt 0.890625 1.000000
vt 0.890625 0.500000
vt 0.875000 1.000000
vt 0.875000 0.500000
vt 0.859375 1.000000
vt 0.859375 0.500000
vt 0.843750 1.000000
vt 0.843750 0.500000
vt 0.828125 1.000000
vt 0.828125 0.500000
vt 0.812500 1.000000
vt 0.812500 0.500000
vt 0.796875 1.000000
vt 0.796875 0.500000
vt 0.781250 1.000000
vt 0.781250 0.500000
vt 0.765625 1.000000
vt 0.765625 0.500000
vt 0.750000 1.000000
vt 0.750000 0.500000
vt 0.734375 1.000000
vt 0.734375 0.500000
vt 0.718750 1.000000
vt 0.718750 0.500000
vt 0.703125 1.000000
vt 0.703125 0.500000
vt 0.687500 1.000000
vt 0.687500 0.500000
vt 0.671875 1.000000
vt 0.671875 0.500000
vt 0.656250 1.000000
vt 0.656250 0.500000
vt 0.640625 1.000000
vt 0.640625 0.500000
vt 0.625000 1.000000
vt 0.625000 0.500000
vt 0.609375 1.000000
vt 0.609375 0.500000
vt 0.593750 1.000000
vt 0.593750 0.500000
vt 0.578125 1.000000
vt 0.578125 0.500000
vt 0.562500 1.000000
vt 0.562500 0.500000
vt 0.546875 1.000000
vt 0.546875 0.500000
vt 0.531250 1.000000
vt 0.531250 0.500000
vt 0.515625 1.000000
vt 0.515625 0.500000
vt 0.500000 1.000000
vt 0.500000 0.500000
vt 0.484375 1.000000
vt 0.484375 0.500000
vt 0.468750 1.000000
vt 0.468750 0.500000
vt 0.453125 1.000000
vt 0.453125 0.500000
vt 0.437500 1.000000
vt 0.437500 0.500000
vt 0.421875 1.000000
vt 0.421875 0.500000
vt 0.406250 1.000000
vt 0.406250 0.500000
vt 0.390625 1.000000
vt 0.390625 0.500000
vt 0.375000 1.000000
vt 0.375000 0.500000
vt 0.359375 1.000000
vt 0.359375 0.500000
vt 0.343750 1.000000
vt 0.343750 0.500000
vt 0.328125 1.000000
vt 0.328125 0.500000
vt 0.312500 1.000000
vt 0.312500 0.500000
vt 0.296875 1.000000
vt 0.296875 0.500000
vt 0.281250 1.000000
vt 0.281250 0.500000
vt 0.265625 1.000000
vt 0.265625 0.500000
vt 0.250000 1.000000
vt 0.250000 0.500000
vt 0.234375 1.000000
vt 0.234375 0.500000
vt 0.218750 1.000000
vt 0.218750 0.500000
vt 0.203125 1.000000
vt 0.203125 0.500000
vt 0.187500 1.000000
vt 0.187500 0.500000
vt 0.171875 1.000000
vt 0.171875 0.500000
vt 0.156250 1.000000
vt 0.156250 0.500000
vt 0.140625 1.000000
vt 0.140625 0.500000
vt 0.125000 1.000000
vt 0.125000 0.500000
vt 0.109375 1.000000
vt 0.109375 0.500000
vt 0.093750 1.000000
vt 0.093750 0.500000
vt 0.078125 1.000000
vt 0.078125 0.500000
vt 0.062500 1.000000
vt 0.062500 0.500000
vt 0.046875 1.000000
vt 0.046875 0.500000
vt 0.031250 1.000000
vt 0.031250 0.500000
vt 0.015625 1.000000
vt 0.015625 0.500000
vt 0.000000 1.000000
vt 0.000000 0.500000
s 0
g Circle_Material.001
usemtl Material.001
f 1/1/1 2/2/1 4/3/1 3/4/1
f 3/4/2 4/3/2 6/5/2 5/6/2
f 5/6/3 6/5/3 8/7/3 7/8/3
f 7/8/4 8/7/4 10/9/4 9/10/4
f 9/10/5 10/9/5 12/11/5 11/12/5
f 11/12/6 12/11/6 14/13/6 13/14/6
f 13/14/7 14/13/7 16/15/7 15/16/7
f 15/16/8 16/15/8 18/17/8 17/18/8
f 17/18/9 18/17/9 20/19/9 19/20/9
f 19/20/10 20/19/10 22/21/10 21/22/10
f 21/22/11 22/21/11 24/23/11 23/24/11
f 23/24/12 24/23/12 26/25/12 25/26/12
f 25/26/13 26/25/13 28/27/13 27/28/13
f 27/28/14 28/27/14 30/29/14 29/30/14
f 29/30/15 30/29/15 32/31/15 31/32/15
f 31/32/16 32/31/16 34/33/16 33/34/16
f 33/34/17 34/33/17 36/35/17 35/36/17
f 35/36/18 36/35/18 38/37/18 37/38/18
f 37/38/19 38/37/19 40/39/19 39/40/19
f 39/40/20 40/39/20 42/41/20 41/42/20
f 41/42/21 42/41/21 44/43/21 43/44/21
f 43/44/22 44/43/22 46/45/22 45/46/22
f 45/46/23 46/45/23 48/47/23 47/48/23
f 47/48/24 48/47/24 50/49/24 49/50/24
f 49/50/25 50/49/25 52/51/25 51/52/25
f 51/52/26 52/51/26 54/53/26 53/54/26
f 53/54/27 54/53/27 56/55/27 55/56/27
f 55/56/28 56/55/28 58/57/28 57/58/28
f 57/58/29 58/57/29 60/59/29 59/60/29
f 59/60/30 60/59/30 62/61/30 61/62/30
f 61/62/31 62/61/31 64/63/31 63/64/31
f 63/64/32 64/63/32 66/65/32 65/66/32
f 65/66/33 66/65/33 68/67/33 67/68/33
f 67/68/34 68/67/34 70/69/34 69/70/34
f 69/70/35 70/69/35 72/71/35 71/72/35
f 71/72/36 72/71/36 74/73/36 73/74/36
f 73/74/37 74/73/37 76/75/37 75/76/37
f 75/76/38 76/75/38 78/77/38 77/78/38
f 77/78/39 78/77/39 80/79/39 79/80/39
f 79/80/40 80/79/40 82/81/40 81/82/40
f 81/82/41 82/81/41 84/83/41 83/84/41
f 83/84/42 84/83/42 86/85/42 85/86/42
f 85/86/43 86/85/43 88/87/43 87/88/43
f 87/88/44 88/87/44 90/89/44 89/90/44
f 89/90/45 90/89/45 92/91/45 91/92/45
f 91/92/46 92/91/46 94/93/46 93/94/46
f 93/94/47 94/93/47 96/95/47 95/96/47
f 95/96/48 96/95/48 98/97/48 97/98/48
f 97/98/49 98/97/49 100/99/49 99/100/49
f 99/100/50 100/99/50 102/101/50 101/102/50
f 101/102/51 102/101/51 104/103/51 103/104/51
f 103/104/52 104/103/52 106/105/52 105/106/52
f 105/106/53 106/105/53 108/107/53 107/108/53
f 107/108/54 108/107/54 110/109/54 109/110/54
f 109/110/55 110/109/55 112/111/55 111/112/55
f 111/112/56 112/111/56 114/113/56 113/114/56
f 113/114/57 114/113/57 116/115/57 115/116/57
f 115/116/58 116/115/58 118/117/58 117/118/58
f 117/118/59 118/117/59 120/119/59 119/120/59
f 119/120/60 120/119/60 122/121/60 121/122/60
f 121/122/61 122/121/61 124/123/61 123/124/61
f 123/124/62 124/123/62 126/125/62 125/126/62
f 125/126/63 126/125/63 128/127/63 127/128/63
f 127/128/64 128/127/64 2/129/64 1/130/64
o Cube
v 3.914985 0.772424 -4.546679
v 3.972773 0.709063 -4.469921
v 3.986904 0.710221 -4.540631
v 3.956906 0.662311 -4.511743
v 3.954270 0.772550 -4.489392
v 3.936472 0.720060 -4.576468
v 3.924836 0.669560 -4.555964
v 3.907845 0.698289 -4.461874
v 3.875298 0.737439 -4.496527
v 3.874949 0.690739 -4.518494
vn 0.8779 -0.4483 0.1681
vn 0.5559 -0.6559 -0.5107
vn -0.2909 0.4870 0.8235
vn 0.0661 0.3101 0.9484
vn -0.6858 -0.0000 -0.7278
vn 0.9253 0.3280 0.1903
vn 0.5895 0.6328 -0.5020
vn 0.4686 -0.4229 -0.7756
vn -0.4110 0.8676 0.2799
vn -0.8356 0.2389 -0.4946
vn -0.3358 -0.9161 0.2191
vn -0.8267 -0.2345 0.5115
vn 0.2007 -0.6901 0.6953
vt 0.550384 0.206938
vt 0.375000 0.305791
vt 0.375000 0.049496
vt 0.180791 0.500000
vt 0.330928 0.574320
vt 0.125000 0.700504
vt 0.804283 0.500000
vt 0.842867 0.681766
vt 0.658516 0.626313
vt 0.875000 0.500000
vt 0.501754 0.540833
vt 0.565165 0.799791
vt 0.325310 0.750000
vt 0.604031 0.069198
vt 0.375000 1.000000
vt 0.375000 0.799690
vt 0.578028 1.000000
vt 0.615335 0.592735
vt 0.589707 0.775249
vt 0.581909 0.353207
s 0
g Cube_Material
usemtl Material
f 130/131/65 132/132/65 131/133/65
f 132/134/66 135/135/66 131/136/66
f 136/137/67 133/138/67 137/139/67
f 133/138/68 136/137/68 130/140/68
f 138/141/69 129/142/69 134/143/69 135/135/69
f 131/133/70 133/144/70 130/131/70
f 131/145/71 134/146/71 129/142/71 133/147/71
f 135/135/72 134/143/72 131/136/72
f 137/148/73 133/138/73 129/149/73
f 129/142/74 138/141/74 137/148/74
f 138/141/75 135/135/75 132/132/75 136/150/75
f 138/141/76 136/150/76 137/148/76
f 132/132/77 130/131/77 136/150/77
o Cube
v -5.686754 0.301010 -1.565786
v -5.724356 0.328734 -1.422934
v -5.644289 0.286976 -1.449676
v -5.708308 0.246018 -1.416562
v -5.707692 0.364075 -1.504036
v -5.651278 0.242445 -1.517948
v -5.692032 0.203263 -1.472111
v -5.790349 0.288254 -1.461718
v -5.776615 0.282044 -1.540719
v -5.766181 0.222254 -1.511414
vn 0.3803 0.1442 0.9136
vn 0.6301 -0.5151 0.5811
vn -0.7130 0.6784 -0.1773
vn -0.5989 0.7719 0.2133
vn 0.0808 -0.6919 -0.7174
vn 0.5262 0.7347 0.4283
vn 0.8632 0.4305 -0.2637
vn 0.8059 -0.5302 0.2633
vn -0.3299 0.6023 -0.7269
vn -0.1485 -0.4560 -0.8775
vn -0.5364 -0.6814 0.4980
vn -0.9594 -0.2399 -0.1479
vn -0.4933 -0.0287 0.8694
vt 0.550384 0.206938
vt 0.375000 0.305791
vt 0.375000 0.049496
vt 0.180791 0.500000
vt 0.330928 0.574320
vt 0.125000 0.700504
vt 0.804283 0.500000
vt 0.842867 0.681766
vt 0.658516 0.626313
vt 0.875000 0.500000
vt 0.501754 0.540833
vt 0.565165 0.799791
vt 0.325310 0.750000
vt 0.604031 0.069198
vt 0.375000 1.000000
vt 0.375000 0.799690
vt 0.578028 1.000000
vt 0.615335 0.592735
vt 0.589707 0.775249
vt 0.581909 0.353207
s 0
g Cube_Material
usemtl Material
f 140/151/78 142/152/78 141/153/78
f 142/154/79 145/155/79 141/156/79
f 146/157/80 143/158/80 147/159/80
f 143/158/81 146/157/81 140/160/81
f 148/161/82 139/162/82 144/163/82 145/155/82
f 141/153/83 143/164/83 140/151/83
f 141/165/84 144/166/84 139/162/84 143/167/84
f 145/155/85 144/163/85 141/156/85
f 147/168/86 143/158/86 139/169/86
f 139/162/87 148/161/87 147/168/87
f 148/161/88 145/155/88 142/152/88 146/170/88
f 148/161/89 146/170/89 147/168/89
f 142/152/90 140/151/90 146/170/90
o Cube
v 3.469764 0.609717 -4.272940
v 3.398028 0.599579 -4.419638
v 3.451126 0.523609 -4.375821
v 3.483136 0.574069 -4.443447
v 3.385136 0.614326 -4.323617
v 3.517732 0.551476 -4.323684
v 3.544570 0.573693 -4.394842
v 3.450634 0.677751 -4.416988
v 3.480616 0.691343 -4.335862
v 3.534854 0.665289 -4.377841
vn -0.3790 -0.6467 -0.6619
vn 0.3497 -0.8227 -0.4483
vn -0.6173 0.7807 0.0973
vn -0.8109 0.5522 -0.1937
vn 0.8612 0.1069 0.4969
vn -0.8140 -0.5805 -0.0201
vn -0.3287 -0.6941 0.6405
vn 0.4530 -0.8853 -0.1055
vn -0.3891 0.5943 0.7038
vn 0.6734 0.3931 0.6261
vn 0.5124 0.2906 -0.8081
vn 0.2547 0.9340 -0.2506
vn -0.2154 0.1775 -0.9603
vt 0.550384 0.206938
vt 0.375000 0.305791
vt 0.375000 0.049496
vt 0.180791 0.500000
vt 0.330928 0.574320
vt 0.125000 0.700504
vt 0.804283 0.500000
vt 0.842867 0.681766
vt 0.658516 0.626313
vt 0.875000 0.500000
vt 0.501754 0.540833
vt 0.565165 0.799791
vt 0.325310 0.750000
vt 0.604031 0.069198
vt 0.375000 1.000000
vt 0.375000 0.799690
vt 0.578028 1.000000
vt 0.615335 0.592735
vt 0.589707 0.775249
vt 0.581909 0.353207
s 0
g Cube_Material
usemtl Material
f 150/171/91 152/172/91 151/173/91
f 152/174/92 155/175/92 151/176/92
f 156/177/93 153/178/93 157/179/93
f 153/178/94 156/177/94 150/180/94
f 158/181/95 149/182/95 154/183/95 155/175/95
f 151/173/96 153/184/96 150/171/96
f 151/185/97 154/186/97 149/182/97 153/187/97
f 155/175/98 154/183/98 151/176/98
f 157/188/99 153/178/99 149/189/99
f 149/182/100 158/181/100 157/188/100
f 158/181/101 155/175/101 152/172/101 156/190/101
f 158/181/102 156/190/102 157/188/102
f 152/172/103 150/171/103 156/190/103
o Cube
v -5.210883 0.175017 -1.090659
v -5.237981 0.058059 -1.139715
v -5.293737 0.114636 -1.122550
v -5.282493 0.056802 -1.081978
v -5.200171 0.125130 -1.150019
v -5.276639 0.156079 -1.068019
v -5.285172 0.101217 -1.038665
v -5.194182 0.049401 -1.079802
v -5.171192 0.111060 -1.057760
v -5.213302 0.092337 -1.022284
vn -0.6777 -0.5060 -0.5335
vn -0.9875 -0.1366 0.0790
vn 0.9187 -0.2270 -0.3232
vn 0.6791 -0.4695 -0.5643
vn -0.0053 0.5795 0.8150
vn -0.2829 0.0122 -0.9591
vn -0.3210 0.7476 -0.5815
vn -0.9658 0.2220 0.1341
vn 0.8754 0.4360 -0.2085
vn 0.3497 0.5910 0.7270
vn -0.1504 -0.7631 0.6286
vn 0.6830 -0.4581 0.5690
vn -0.0812 -0.9931 -0.0842
vt 0.550384 0.206938
vt 0.375000 0.305791
vt 0.375000 0.049496
vt 0.180791 0.500000
vt 0.330928 0.574320
vt 0.125000 0.700504
vt 0.804283 0.500000
vt 0.842867 0.681766
vt 0.658516 0.626313
vt 0.875000 0.500000
vt 0.501754 0.540833
vt 0.565165 0.799791
vt 0.325310 0.750000
vt 0.604031 0.069198
vt 0.375000 1.000000
vt 0.375000 0.799690
vt 0.578028 1.000000
vt 0.615335 0.592735
vt 0.589707 0.775249
vt 0.581909 0.353207
s 0
g Cube_Material
usemtl Material
f 160/191/104 162/192/104 161/193/104
f 162/194/105 165/195/105 161/196/105
f 166/197/106 163/198/106 167/199/106
f 163/198/107 166/197/107 160/200/107
f 168/201/108 159/202/108 164/203/108 165/195/108
f 161/193/109 163/204/109 160/191/109
f 161/205/110 164/206/110 159/202/110 163/207/110
f 165/195/111 164/203/111 161/196/111
f 167/208/112 163/198/112 159/209/112
f 159/202/113 168/201/113 167/208/113
f 168/201/114 165/195/114 162/192/114 166/210/114
f 168/201/115 166/210/115 167/208/115
f 162/192/116 160/191/116 166/210/116
o Cube
v -1.924741 0.276680 -4.240802
v -2.015496 0.322231 -4.362376
v -2.044368 0.323348 -4.267416
v -2.070791 0.263236 -4.325054
v -1.934990 0.336887 -4.314356
v -2.008713 0.261331 -4.219284
v -2.053181 0.219452 -4.265682
v -1.980998 0.239781 -4.380820
v -1.923390 0.218373 -4.322443
v -1.983534 0.182517 -4.310499
vn -0.7798 0.5766 -0.2439
vn -0.9364 0.0851 0.3405
vn 0.7280 0.1174 -0.6754
vn 0.4274 0.3639 -0.8276
vn 0.1892 -0.7166 0.6714
vn -0.1463 0.9876 -0.0561
vn 0.1317 0.7238 0.6773
vn -0.7528 0.0748 0.6540
vn 0.9933 0.1010 -0.0557
vn 0.5139 -0.6940 0.5042
vn -0.5560 -0.6858 -0.4697
vn 0.3235 -0.7394 -0.5904
vn -0.5337 -0.0343 -0.8450
vt 0.550384 0.206938
vt 0.375000 0.305791
vt 0.375000 0.049496
vt 0.180791 0.500000
vt 0.330928 0.574320
vt 0.125000 0.700504
vt 0.804283 0.500000
vt 0.842867 0.681766
vt 0.658516 0.626313
vt 0.875000 0.500000
vt 0.501754 0.540833
vt 0.565165 0.799791
vt 0.325310 0.750000
vt 0.604031 0.069198
vt 0.375000 1.000000
vt 0.375000 0.799690
vt 0.578028 1.000000
vt 0.615335 0.592735
vt 0.589707 0.775249
vt 0.581909 0.353207
s 0
g Cube_Material
usemtl Material
f 170/211/117 172/212/117 171/213/117
f 172/214/118 175/215/118 171/216/118
f 176/217/119 173/218/119 177/219/119
f 173/218/120 176/217/120 170/220/120
f 178/221/121 169/222/121 174/223/121 175/215/121
f 171/213/122 173/224/122 170/211/122
f 171/225/123 174/226/123 169/222/123 173/227/123
f 175/215/124 174/223/124 171/216/124
f 177/228/125 173/218/125 169/229/125
f 169/222/126 178/221/126 177/228/126
f 178/221/127 175/215/127 172/212/127 176/230/127
f 178/221/128 176/230/128 177/228/128
f 172/212/129 170/211/129 176/230/129
o Cube
v -3.893842 -0.131413 -3.545201
v -4.001828 -0.214206 -3.598144
v -3.928635 -0.246837 -3.554001
v -3.938163 -0.251789 -3.633816
v -3.980026 -0.149699 -3.543264
v -3.862698 -0.203770 -3.564668
v -3.871897 -0.229898 -3.629721
v -3.975106 -0.162540 -3.658911
v -3.924648 -0.110448 -3.629845
v -3.891857 -0.156072 -3.663460
vn -0.4591 -0.8816 0.1095
vn 0.3124 -0.9497 0.0216
vn -0.6828 0.7224 -0.1093
vn -0.9211 0.3806 -0.0814
vn 0.9403 0.3166 -0.1247
vn -0.5970 -0.3931 0.6993
vn 0.1274 -0.1135 0.9853
vn 0.5578 -0.7945 0.2402
vn -0.1914 0.9342 0.3011
vn 0.7622 0.6361 -0.1199
vn 0.0580 -0.3208 -0.9454
vn -0.0881 0.5491 -0.8311
vn -0.6224 -0.4397 -0.6475
vt 0.550384 0.206938
vt 0.375000 0.305791
vt 0.375000 0.049496
vt 0.180791 0.500000
vt 0.330928 0.574320
vt 0.125000 0.700504
vt 0.804283 0.500000
vt 0.842867 0.681766
vt 0.658516 0.626313
vt 0.875000 0.500000
vt 0.501754 0.540833
vt 0.565165 0.799791
vt 0.325310 0.750000
vt 0.604031 0.069198
vt 0.375000 1.000000
vt 0.375000 0.799690
vt 0.578028 1.000000
vt 0.615335 0.592735
vt 0.589707 0.775249
vt 0.581909 0.353207
s 0
g Cube_Material
usemtl Material
f 180/231/130 182/232/130 181/233/130
f 182/234/131 185/235/131 181/236/131
f 186/237/132 183/238/132 187/239/132
f 183/238/133 186/237/133 180/240/133
f 188/241/134 179/242/134 184/243/134 185/235/134
f 181/233/135 183/244/135 180/231/135
f 181/245/136 184/246/136 179/242/136 183/247/136
f 185/235/137 184/243/137 181/236/137
f 187/248/138 183/238/138 179/249/138
f 179/242/139 188/241/139 187/248/139
f 188/241/140 185/235/140 182/232/140 186/250/140
f 188/241/141 186/250/141 187/248/141
f 182/232/142 180/231/142 186/250/142
o Cube
v 4.690355 -0.101605 -0.362844
v 4.711801 -0.125984 -0.454255
v 4.733395 -0.154582 -0.405156
v 4.762448 -0.120745 -0.434717
v 4.669761 -0.119349 -0.414699
v 4.739745 -0.123214 -0.363158
v 4.772725 -0.106052 -0.391871
v 4.720434 -0.071146 -0.447800
v 4.702863 -0.055527 -0.401520
v 4.746281 -0.057971 -0.400417
vn 0.3006 -0.7607 -0.5753
vn 0.7721 -0.6346 0.0324
vn -0.7522 0.4828 -0.4485
vn -0.6569 0.1893 -0.7299
vn 0.3188 0.4457 0.8365
vn -0.4249 -0.8510 -0.3088
vn -0.4188 -0.7496 0.5125
vn 0.6651 -0.6430 0.3797
vn -0.8850 0.4158 0.2092
vn 0.0165 0.6402 0.7680
vn 0.7758 0.4445 -0.4479
vn 0.0612 0.9525 -0.2982
vn 0.3545 0.0541 -0.9335
vt 0.550384 0.206938
vt 0.375000 0.305791
vt 0.375000 0.049496
vt 0.180791 0.500000
vt 0.330928 0.574320
vt 0.125000 0.700504
vt 0.804283 0.500000
vt 0.842867 0.681766
vt 0.658516 0.626313
vt 0.875000 0.500000
vt 0.501754 0.540833
vt 0.565165 0.799791
vt 0.325310 0.750000
vt 0.604031 0.069198
vt 0.375000 1.000000
vt 0.375000 0.799690
vt 0.578028 1.000000
vt 0.615335 0.592735
vt 0.589707 0.775249
vt 0.581909 0.353207
s 0
g Cube_Material
usemtl Material
f 190/251/143 192/252/143 191/253/143
f 192/254/144 195/255/144 191/256/144
f 196/257/145 193/258/145 197/259/145
f 193/258/146 196/257/146 190/260/146
f 198/261/147 189/262/147 194/263/147 195/255/147
f 191/253/148 193/264/148 190/251/148
f 191/265/149 194/266/149 189/262/149 193/267/149
f 195/255/150 194/263/150 191/256/150
f 197/268/151 193/258/151 189/269/151
f 189/262/152 198/261/152 197/268/152
f 198/261/153 195/255/153 192/252/153 196/270/153
f 198/261/154 196/270/154 197/268/154
f 192/252/155 190/251/155 196/270/155
o Cube
v 0.392404 -0.119830 4.434034
v 0.300457 -0.224508 4.462747
v 0.281818 -0.153724 4.411876
v 0.255868 -0.162117 4.485447
v 0.375591 -0.203829 4.428290
v 0.319479 -0.089331 4.432633
v 0.277623 -0.097586 4.486720
v 0.332724 -0.197752 4.533172
v 0.389404 -0.148876 4.519276
v 0.337759 -0.116592 4.538244
vn -0.8190 -0.4611 -0.3415
vn -0.9068 0.3113 -0.2843
vn 0.6633 -0.6809 0.3105
vn 0.3416 -0.9198 0.1929
vn 0.2725 0.9420 0.1960
vn -0.1881 -0.6054 -0.7734
vn 0.1608 0.1160 -0.9801
vn -0.6971 0.5543 -0.4548
vn 0.9805 -0.1941 -0.0316
vn 0.5808 0.7641 0.2808
vn -0.5672 0.0686 0.8207
vn 0.3004 -0.0780 0.9506
vn -0.6016 -0.6153 0.5094
vt 0.550384 0.206938
vt 0.375000 0.305791
vt 0.375000 0.049496
vt 0.180791 0.500000
vt 0.330928 0.574320
vt 0.125000 0.700504
vt 0.804283 0.500000
vt 0.842867 0.681766
vt 0.658516 0.626313
vt 0.875000 0.500000
vt 0.501754 0.540833
vt 0.565165 0.799791
vt 0.325310 0.750000
vt 0.604031 0.069198
vt 0.375000 1.000000
vt 0.375000 0.799690
vt 0.578028 1.000000
vt 0.615335 0.592735
vt 0.589707 0.775249
vt 0.581909 0.353207
s 0
g Cube_Material
usemtl Material
f 200/271/156 202/272/156 201/273/156
f 202/274/157 205/275/157 201/276/157
f 206/277/158 203/278/158 207/279/158
f 203/278/159 206/277/159 200/280/159
f 208/281/160 199/282/160 204/283/160 205/275/160
f 201/273/161 203/284/161 200/271/161
f 201/285/162 204/286/162 199/282/162 203/287/162
f 205/275/163 204/283/163 201/276/163
f 207/288/164 203/278/164 199/289/164
f 199/282/165 208/281/165 207/288/165
f 208/281/166 205/275/166 202/272/166 206/290/166
f 208/281/167 206/290/167 207/288/167
f 202/272/168 200/271/168 206/290/168
o Cube
v -4.068996 -0.161734 -1.587384
v -4.031624 -0.173212 -1.488191
v -4.075687 -0.126535 -1.506717
v -4.018922 -0.115201 -1.496342
v -4.063469 -0.200525 -1.536339
v -4.069198 -0.108444 -1.561477
v -4.025983 -0.089934 -1.540134
v -3.984118 -0.171365 -1.527088
v -4.002693 -0.172872 -1.581012
v -3.989191 -0.128323 -1.570106
vn -0.2117 0.1813 0.9604
vn -0.2573 0.8185 0.5137
vn 0.3532 -0.9307 -0.0956
vn 0.2944 -0.9017 0.3168
vn 0.0410 0.5320 -0.8457
vn -0.6646 -0.3697 0.6493
vn -0.9959 -0.0755 -0.0497
vn -0.4753 0.8506 0.2247
vn -0.0766 -0.7978 -0.5980
vn 0.1269 0.1994 -0.9717
vn 0.8426 0.4741 0.2553
vn 0.9273 -0.2042 -0.3137
vn 0.6339 -0.0302 0.7728
vt 0.550384 0.206938
vt 0.375000 0.305791
vt 0.375000 0.049496
vt 0.180791 0.500000
vt 0.330928 0.574320
vt 0.125000 0.700504
vt 0.804283 0.500000
vt 0.842867 0.681766
vt 0.658516 0.626313
vt 0.875000 0.500000
vt 0.501754 0.540833
vt 0.565165 0.799791
vt 0.325310 0.750000
vt 0.604031 0.069198
vt 0.375000 1.000000
vt 0.375000 0.799690
vt 0.578028 1.000000
vt 0.615335 0.592735
vt 0.589707 0.775249
vt 0.581909 0.353207
s 0
g Cube_Material
usemtl Material
f 210/291/169 212/292/169 211/293/169
f 212/294/170 215/295/170 211/296/170
f 216/297/171 213/298/171 217/299/171
f 213/298/172 216/297/172 210/300/172
f 218/301/173 209/302/173 214/303/173 215/295/173
f 211/293/174 213/304/174 210/291/174
f 211/305/175 214/306/175 209/302/175 213/307/175
f 215/295/176 214/303/176 211/296/176
f 217/308/177 213/298/177 209/309/177
f 209/302/178 218/301/178 217/308/178
f 218/301/179 215/295/179 212/292/179 216/310/179
f 218/301/180 216/310/180 217/308/180
f 212/292/181 210/291/181 216/310/181
o Cube
v -0.899282 0.671677 4.203660
v -0.976790 0.641575 4.053115
v -1.004095 0.720864 4.120798
v -1.054593 0.641223 4.110518
v -0.888431 0.664903 4.100652
v -0.990197 0.700231 4.211044
v -1.052034 0.647591 4.192575
v -0.972920 0.556898 4.104420
v -0.921237 0.567681 4.179798
v -0.995746 0.567125 4.199690
vn -0.5363 0.4335 -0.7242
vn -0.8435 0.5368 -0.0154
vn 0.7126 -0.5716 -0.4068
vn 0.5132 -0.4275 -0.7442
vn -0.0592 -0.0824 0.9948
vn 0.2032 0.6752 -0.7091
vn 0.3848 0.9210 0.0600
vn -0.6697 0.6948 0.2620
vn 0.9660 -0.2308 0.1169
vn 0.2505 -0.2664 0.9307
vn -0.7664 -0.6418 -0.0275
vn 0.0383 -0.9925 0.1157
vn -0.5264 -0.4581 -0.7163
vt 0.550384 0.206938
vt 0.375000 0.305791
vt 0.375000 0.049496
vt 0.180791 0.500000
vt 0.330928 0.574320
vt 0.125000 0.700504
vt 0.804283 0.500000
vt 0.842867 0.681766
vt 0.658516 0.626313
vt 0.875000 0.500000
vt 0.501754 0.540833
vt 0.565165 0.799791
vt 0.325310 0.750000
vt 0.604031 0.069198
vt 0.375000 1.000000
vt 0.375000 0.799690
vt 0.578028 1.000000
vt 0.615335 0.592735
vt 0.589707 0.775249
vt 0.581909 0.353207
s 0
g Cube_Material
usemtl Material
f 220/311/182 222/312/182 221/313/182
f 222/314/183 225/315/183 221/316/183
f 226/317/184 223/318/184 227/319/184
f 223/318/185 226/317/185 220/320/185
f 228/321/186 219/322/186 224/323/186 225/315/186
f 221/313/187 223/324/187 220/311/187
f 221/325/188 224/326/188 219/322/188 223/327/188
f 225/315/189 224/323/189 221/316/189
f 227/328/190 223/318/190 219/329/190
f 219/322/191 228/321/191 227/328/191
f 228/321/192 225/315/192 222/312/192 226/330/192
f 228/321/193 226/330/193 227/328/193
f 222/312/194 220/311/194 226/330/194
o Cube
v -3.474599 0.275951 0.989754
v -3.577552 0.333339 0.945292
v -3.545322 0.348022 1.015838
v -3.603345 0.310767 1.007269
v -3.504128 0.319449 0.934829
v -3.514745 0.293651 1.044311
v -3.573119 0.276040 1.046236
v -3.586179 0.261578 0.938712
v -3.528686 0.229713 0.953650
v -3.564872 0.224290 0.996688
vn -0.5467 0.8339 0.0762
vn -0.4251 0.4865 0.7633
vn 0.1202 -0.2352 -0.9645
vn -0.1208 0.1050 -0.9871
vn 0.3592 -0.6906 0.6277
vn 0.1429 0.9539 -0.2638
vn 0.7349 0.6407 0.2222
vn -0.0965 0.4186 0.9030
vn 0.7013 -0.3250 -0.6344
vn 0.4901 -0.8149 0.3094
vn -0.8935 -0.4177 0.1647
vn -0.3593 -0.8394 -0.4078
vn -0.9311 0.1427 -0.3355
vt 0.550384 0.206938
vt 0.375000 0.305791
vt 0.375000 0.049496
vt 0.180791 0.500000
vt 0.330928 0.574320
vt 0.125000 0.700504
vt 0.804283 0.500000
vt 0.842867 0.681766
vt 0.658516 0.626313
vt 0.875000 0.500000
vt 0.501754 0.540833
vt 0.565165 0.799791
vt 0.325310 0.750000
vt 0.604031 0.069198
vt 0.375000 1.000000
vt 0.375000 0.799690
vt 0.578028 1.000000
vt 0.615335 0.592735
vt 0.589707 0.775249
vt 0.581909 0.353207
s 0
g Cube_Material
usemtl Material
f 230/331/195 232/332/195 231/333/195
f 232/334/196 235/335/196 231/336/196
f 236/337/197 233/338/197 237/339/197
f 233/338/198 236/337/198 230/340/198
f 238/341/199 229/342/199 234/343/199 235/335/199
f 231/333/200 233/344/200 230/331/200
f 231/345/201 234/346/201 229/342/201 233/347/201
f 235/335/202 234/343/202 231/336/202
f 237/348/203 233/338/203 229/349/203
f 229/342/204 238/341/204 237/348/204
f 238/341/205 235/335/205 232/332/205 236/350/205
f 238/341/206 236/350/206 237/348/206
f 232/332/207 230/331/207 236/350/207
o Cube
v -0.587429 0.120431 3.578039
v -0.534163 0.072014 3.667937
v -0.565897 0.136808 3.669463
v -0.502938 0.128727 3.667007
v -0.585164 0.066492 3.621821
v -0.564013 0.167343 3.614748
v -0.509984 0.167629 3.628568
v -0.493588 0.069956 3.615479
v -0.523481 0.087970 3.564688
v -0.492327 0.125946 3.580634
vn 0.0384 -0.0047 0.9993
vn 0.1181 0.7087 0.6956
vn 0.0120 -0.9402 -0.3405
vn 0.0427 -0.9965 0.0721
vn 0.0529 0.6880 -0.7238
vn -0.6165 -0.3189 0.7199
vn -0.9586 0.2142 0.1874
vn -0.1274 0.8680 0.4800
vn -0.4372 -0.5778 -0.6892
vn 0.0028 0.3852 -0.9228
vn 0.9820 0.1493 0.1158
vn 0.7382 -0.3683 -0.5651
vn 0.7216 -0.3879 0.5734
vt 0.550384 0.206938
vt 0.375000 0.305791
vt 0.375000 0.049496
vt 0.180791 0.500000
vt 0.330928 0.574320
vt 0.125000 0.700504
vt 0.804283 0.500000
vt 0.842867 0.681766
vt 0.658516 0.626313
vt 0.875000 0.500000
vt 0.501754 0.540833
vt 0.565165 0.799791
vt 0.325310 0.750000
vt 0.604031 0.069198
vt 0.375000 1.000000
vt 0.375000 0.799690
vt 0.578028 1.000000
vt 0.615335 0.592735
vt 0.589707 0.775249
vt 0.581909 0.353207
s 0
g Cube_Material
usemtl Material
f 240/351/208 242/352/208 241/353/208
f 242/354/209 245/355/209 241/356/209
f 246/357/210 243/358/210 247/359/210
f 243/358/211 246/357/211 240/360/211
f 248/361/212 239/362/212 244/363/212 245/355/212
f 241/353/213 243/364/213 240/351/213
f 241/365/214 244/366/214 239/362/214 243/367/214
f 245/355/215 244/363/215 241/356/215
f 247/368/216 243/358/216 239/369/216
f 239/362/217 248/361/217 247/368/217
f 248/361/218 245/355/218 242/352/218 246/370/218
f 248/361/219 246/370/219 247/368/219
f 242/352/220 240/351/220 246/370/220
o Cube
v 0.169400 -0.127799 -3.005148
v 0.193440 -0.061880 -2.910879
v 0.125829 -0.083837 -2.930090
v 0.147625 -0.023440 -2.938957
v 0.204331 -0.123248 -2.943588
v 0.117501 -0.089992 -2.993213
v 0.123751 -0.033595 -2.988885
v 0.222866 -0.033908 -2.965059
v 0.218021 -0.072248 -3.014667
v 0.183559 -0.032698 -3.019680
vn -0.3402 0.2556 0.9050
vn -0.8672 0.3630 0.3408
vn 0.9802 -0.1909 0.0518
vn 0.8925 -0.0784 0.4442
vn -0.3613 -0.0141 -0.9323
vn -0.0916 -0.4810 0.8719
vn -0.4613 -0.8559 0.2336
vn -0.9876 0.1002 0.1205
vn 0.6791 -0.6521 -0.3371
vn -0.0252 -0.1473 -0.9888
vn 0.0276 0.9944 -0.1018
vn 0.6892 0.5392 -0.4840
vn 0.3020 0.7702 0.5617
vt 0.550384 0.206938
vt 0.375000 0.305791
vt 0.375000 0.049496
vt 0.180791 0.500000
vt 0.330928 0.574320
vt 0.125000 0.700504
vt 0.804283 0.500000
vt 0.842867 0.681766
vt 0.658516 0.626313
vt 0.875000 0.500000
vt 0.501754 0.540833
vt 0.565165 0.799791
vt 0.325310 0.750000
vt 0.604031 0.069198
vt 0.375000 1.000000
vt 0.375000 0.799690
vt 0.578028 1.000000
vt 0.615335 0.592735
vt 0.589707 0.775249
vt 0.581909 0.353207
s 0
g Cube_Material
usemtl Material
f 250/371/221 252/372/221 251/373/221
f 252/374/222 255/375/222 251/376/222
f 256/377/223 253/378/223 257/379/223
f 253/378/224 256/377/224 250/380/224
f 258/381/225 249/382/225 254/383/225 255/375/225
f 251/373/226 253/384/226 250/371/226
f 251/385/227 254/386/227 249/382/227 253/387/227
f 255/375/228 254/383/228 251/376/228
f 257/388/229 253/378/229 249/389/229
f 249/382/230 258/381/230 257/388/230
f 258/381/231 255/375/231 252/372/231 256/390/231
f 258/381/232 256/390/232 257/388/232
f 252/372/233 250/371/233 256/390/233
o Cube
v -2.526543 0.228373 1.976024
v -2.619914 0.162182 1.922193
v -2.555899 0.188659 1.883693
v -2.618964 0.217957 1.878095
v -2.565876 0.162954 1.975283
v -2.530784 0.247730 1.908583
v -2.584166 0.266960 1.885520
v -2.648977 0.217840 1.959170
v -2.601379 0.248968 1.995861
v -2.613611 0.280433 1.950285
vn -0.2123 -0.6038 -0.7683
vn 0.1186 0.0659 -0.9908
vn -0.4050 -0.3675 0.8372
vn -0.5318 -0.6435 0.5506
vn 0.4161 0.9015 0.1194
vn 0.2462 -0.9398 -0.2369
vn 0.8919 -0.4425 -0.0932
vn 0.4442 0.1808 -0.8775
vn 0.2171 -0.1415 0.9658
vn 0.3476 0.8126 0.4677
vn -0.7897 0.4917 -0.3670
vn -0.7107 0.4752 0.5188
vn -0.9078 -0.2505 -0.3364
vt 0.550384 0.206938
vt 0.375000 0.305791
vt 0.375000 0.049496
vt 0.180791 0.500000
vt 0.330928 0.574320
vt 0.125000 0.700504
vt 0.804283 0.500000
vt 0.842867 0.681766
vt 0.658516 0.626313
vt 0.875000 0.500000
vt 0.501754 0.540833
vt 0.565165 0.799791
vt 0.325310 0.750000
vt 0.604031 0.069198
vt 0.375000 1.000000
vt 0.375000 0.799690
vt 0.578028 1.000000
vt 0.615335 0.592735
vt 0.589707 0.775249
vt 0.581909 0.353207
s 0
g Cube_Material
usemtl Material
f 260/391/234 262/392/234 261/393/234
f 262/394/235 265/395/235 261/396/235
f 266/397/236 263/398/236 267/399/236
f 263/398/237 266/397/237 260/400/237
f 268/401/238 259/402/238 264/403/238 265/395/238
f 261/393/239 263/404/239 260/391/239
f 261/405/240 264/406/240 259/402/240 263/407/240
f 265/395/241 264/403/241 261/396/241
f 267/408/242 263/398/242 259/409/242
f 259/402/243 268/401/243 267/408/243
f 268/401/244 265/395/244 262/392/244 266/410/244
f 268/401/245 266/410/245 267/408/245
f 262/392/246 260/391/246 266/410/246
o Cube
v 1.415366 0.289481 2.189894
v 1.293871 0.350670 2.093864
v 1.301926 0.367520 2.196519
v 1.241327 0.309338 2.159397
v 1.392067 0.347178 2.110975
v 1.339609 0.298904 2.242198
v 1.270166 0.265057 2.219093
v 1.300927 0.256282 2.078238
v 1.372777 0.223496 2.119493
v 1.311485 0.204827 2.157837
vn -0.6686 0.7404 -0.0691
vn -0.7117 0.3542 0.6066
vn 0.4481 -0.1308 -0.8844
vn 0.1750 0.1735 -0.9691
vn 0.2526 -0.6867 0.6816
vn 0.0640 0.9840 -0.1665
vn 0.5187 0.7141 0.4701
vn -0.4360 0.3204 0.8410
vn 0.9053 -0.1681 -0.3901
vn 0.4934 -0.7633 0.4170
vn -0.8225 -0.5499 -0.1454
vn -0.0776 -0.8419 -0.5340
vn -0.7921 0.0416 -0.6089
vt 0.550384 0.206938
vt 0.375000 0.305791
vt 0.375000 0.049496
vt 0.180791 0.500000
vt 0.330928 0.574320
vt 0.125000 0.700504
vt 0.804283 0.500000
vt 0.842867 0.681766
vt 0.658516 0.626313
vt 0.875000 0.500000
vt 0.501754 0.540833
vt 0.565165 0.799791
vt 0.325310 0.750000
vt 0.604031 0.069198
vt 0.375000 1.000000
vt 0.375000 0.799690
vt 0.578028 1.000000
vt 0.615335 0.592735
vt 0.589707 0.775249
vt 0.581909 0.353207
s 0
g Cube_Material
usemtl Material
f 270/411/247 272/412/247 271/413/247
f 272/414/248 275/415/248 271/416/248
f 276/417/249 273/418/249 277/419/249
f 273/418/250 276/417/250 270/420/250
f 278/421/251 269/422/251 274/423/251 275/415/251
f 271/413/252 273/424/252 270/411/252
f 271/425/253 274/426/253 269/422/253 273/427/253
f 275/415/254 274/423/254 271/416/254
f 277/428/255 273/418/255 269/429/255
f 269/422/256 278/421/256 277/428/256
f 278/421/257 275/415/257 272/412/257 276/430/257
f 278/421/258 276/430/258 277/428/258
f 272/412/259 270/411/259 276/430/259
o Cube
v 0.773973 0.327970 -2.560503
v 0.757685 0.346048 -2.436886
v 0.789004 0.399366 -2.485967
v 0.826637 0.361627 -2.441370
v 0.724341 0.331493 -2.503001
v 0.823757 0.371936 -2.538339
v 0.859671 0.356300 -2.491563
v 0.792105 0.282930 -2.446888
v 0.793706 0.267376 -2.512468
v 0.844572 0.285933 -2.496336
vn -0.1148 0.7085 0.6964
vn 0.5179 0.8168 0.2542
vn -0.6585 -0.7357 0.1584
vn -0.7376 -0.4778 0.4772
vn 0.6534 -0.1987 -0.7305
vn -0.7329 0.6409 0.2285
vn -0.4751 0.6813 -0.5568
vn 0.5112 0.8527 -0.1074
vn -0.6233 -0.6003 -0.5012
vn 0.4189 -0.4764 -0.7730
vn 0.7243 -0.2845 0.6281
vn 0.2689 -0.9357 0.2285
vn 0.0889 -0.1084 0.9901
vt 0.550384 0.206938
vt 0.375000 0.305791
vt 0.375000 0.049496
vt 0.180791 0.500000
vt 0.330928 0.574320
vt 0.125000 0.700504
vt 0.804283 0.500000
vt 0.842867 0.681766
vt 0.658516 0.626313
vt 0.875000 0.500000
vt 0.501754 0.540833
vt 0.565165 0.799791
vt 0.325310 0.750000
vt 0.604031 0.069198
vt 0.375000 1.000000
vt 0.375000 0.799690
vt 0.578028 1.000000
vt 0.615335 0.592735
vt 0.589707 0.775249
vt 0.581909 0.353207
s 0
g Cube_Material
usemtl Material
f 280/431/260 282/432/260 281/433/260
f 282/434/261 285/435/261 281/436/261
f 286/437/262 283/438/262 287/439/262
f 283/438/263 286/437/263 280/440/263
f 288/441/264 279/442/264 284/443/264 285/435/264
f 281/433/265 283/444/265 280/431/265
f 281/445/266 284/446/266 279/442/266 283/447/266
f 285/435/267 284/443/267 281/436/267
f 287/448/268 283/438/268 279/449/268
f 279/442/269 288/441/269 287/448/269
f 288/441/270 285/435/270 282/432/270 286/450/270
f 288/441/271 286/450/271 287/448/271
f 282/432/272 280/431/272 286/450/272
o Cube
v -1.644749 0.059815 -1.652312
v -1.786851 0.114958 -1.719910
v -1.714248 0.176533 -1.676849
v -1.793858 0.155702 -1.635774
v -1.701443 0.065517 -1.735265
v -1.668958 0.137755 -1.608418
v -1.742469 0.144531 -1.575706
v -1.807480 0.044697 -1.657730
v -1.732461 0.005701 -1.629222
v -1.759069 0.050527 -1.575617
vn -0.4272 0.7993 -0.4226
vn -0.1099 0.9560 0.2718
vn -0.2251 -0.8190 -0.5278
vn -0.4342 -0.5221 -0.7340
vn 0.4957 -0.1937 0.8466
vn 0.1168 0.4730 -0.8733
vn 0.8120 0.3928 -0.4316
vn 0.2405 0.9041 0.3532
vn 0.4244 -0.8361 -0.3475
vn 0.5037 -0.5231 0.6875
vn -0.8160 0.0590 0.5750
vn -0.5353 -0.7596 0.3695
vn -0.9765 0.1503 -0.1541
vt 0.550384 0.206938
vt 0.375000 0.305791
vt 0.375000 0.049496
vt 0.180791 0.500000
vt 0.330928 0.574320
vt 0.125000 0.700504
vt 0.804283 0.500000
vt 0.842867 0.681766
vt 0.658516 0.626313
vt 0.875000 0.500000
vt 0.501754 0.540833
vt 0.565165 0.799791
vt 0.325310 0.750000
vt 0.604031 0.069198
vt 0.375000 1.000000
vt 0.375000 0.799690
vt 0.578028 1.000000
vt 0.615335 0.592735
vt 0.589707 0.775249
vt 0.581909 0.353207
s 0
g Cube_Material
usemtl Material
f 290/451/273 292/452/273 291/453/273
f 292/454/274 295/455/274 291/456/274
f 296/457/275 293/458/275 297/459/275
f 293/458/276 296/457/276 290/460/276
f 298/461/277 289/462/277 294/463/277 295/455/277
f 291/453/278 293/464/278 290/451/278
f 291/465/279 294/466/279 289/462/279 293/467/279
f 295/455/280 294/463/280 291/456/280
f 297/468/281 293/458/281 289/469/281
f 289/462/282 298/461/282 297/468/282
f 298/461/283 295/455/283 292/452/283 296/470/283
f 298/461/284 296/470/284 297/468/284
f 292/452/285 290/451/285 296/470/285
o Cube
v 0.501433 0.171295 -1.703712
v 0.615725 0.196672 -1.747059
v 0.578593 0.128637 -1.757642
v 0.629997 0.137198 -1.712630
v 0.543412 0.215694 -1.747801
v 0.536926 0.111753 -1.706685
v 0.590588 0.107126 -1.679230
v 0.613422 0.212962 -1.677042
v 0.550771 0.208413 -1.654306
v 0.580066 0.163909 -1.637123
vn 0.6610 -0.2508 -0.7072
vn 0.4057 -0.8637 -0.2990
vn -0.0429 0.9958 0.0809
vn 0.2507 0.9447 -0.2115
vn -0.5366 -0.4810 0.6934
vn 0.0443 0.1299 -0.9905
vn -0.6431 -0.2467 -0.7250
vn 0.0564 -0.9606 -0.2722
vn -0.6655 0.7383 0.1099
vn -0.6476 -0.1369 0.7496
vn 0.7892 -0.1824 0.5864
vn 0.2647 0.4940 0.8282
vn 0.9747 0.2225 -0.0197
vt 0.550384 0.206938
vt 0.375000 0.305791
vt 0.375000 0.049496
vt 0.180791 0.500000
vt 0.330928 0.574320
vt 0.125000 0.700504
vt 0.804283 0.500000
vt 0.842867 0.681766
vt 0.658516 0.626313
vt 0.875000 0.500000
vt 0.501754 0.540833
vt 0.565165 0.799791
vt 0.325310 0.750000
vt 0.604031 0.069198
vt 0.375000 1.000000
vt 0.375000 0.799690
vt 0.578028 1.000000
vt 0.615335 0.592735
vt 0.589707 0.775249
vt 0.581909 0.353207
s 0
g Cube_Material
usemtl Material
f 300/471/286 302/472/286 301/473/286
f 302/474/287 305/475/287 301/476/287
f 306/477/288 303/478/288 307/479/288
f 303/478/289 306/477/289 300/480/289
f 308/481/290 299/482/290 304/483/290 305/475/290
f 301/473/291 303/484/291 300/471/291
f 301/485/292 304/486/292 299/482/292 303/487/292
f 305/475/293 304/483/293 301/476/293
f 307/488/294 303/478/294 299/489/294
f 299/482/295 308/481/295 307/488/295
f 308/481/296 305/475/296 302/472/296 306/490/296
f 308/481/297 306/490/297 307/488/297
f 302/472/298 300/471/298 306/490/298
o Cube
v -0.438285 0.440054 1.501181
v -0.339154 0.356065 1.500017
v -0.331346 0.436199 1.512118
v -0.314330 0.403727 1.450537
v -0.406215 0.376395 1.533874
v -0.379568 0.475185 1.478108
v -0.346471 0.452686 1.429556
v -0.380317 0.345542 1.438385
v -0.438729 0.383101 1.441772
v -0.401324 0.408747 1.405194
vn 0.9327 -0.1410 0.3321
vn 0.8443 0.5337 -0.0481
vn -0.5313 -0.8377 0.1266
vn -0.1544 -0.9516 0.2656
vn -0.4901 0.7121 -0.5027
vn 0.4010 -0.1749 0.8992
vn -0.0698 0.5046 0.8605
vn 0.6078 0.7927 0.0470
vn -0.9053 -0.3033 0.2975
vn -0.7602 0.4718 -0.4466
vn 0.4421 -0.2115 -0.8717
vn -0.3823 -0.5260 -0.7597
vn 0.6586 -0.6792 -0.3239
vt 0.550384 0.206938
vt 0.375000 0.305791
vt 0.375000 0.049496
vt 0.180791 0.500000
vt 0.330928 0.574320
vt 0.125000 0.700504
vt 0.804283 0.500000
vt 0.842867 0.681766
vt 0.658516 0.626313
vt 0.875000 0.500000
vt 0.501754 0.540833
vt 0.565165 0.799791
vt 0.325310 0.750000
vt 0.604031 0.069198
vt 0.375000 1.000000
vt 0.375000 0.799690
vt 0.578028 1.000000
vt 0.615335 0.592735
vt 0.589707 0.775249
vt 0.581909 0.353207
s 0
g Cube_Material
usemtl Material
f 310/491/299 312/492/299 311/493/299
f 312/494/300 315/495/300 311/496/300
f 316/497/301 313/498/301 317/499/301
f 313/498/302 316/497/302 310/500/302
f 318/501/303 309/502/303 314/503/303 315/495/303
f 311/493/304 313/504/304 310/491/304
f 311/505/305 314/506/305 309/502/305 313/507/305
f 315/495/306 314/503/306 311/496/306
f 317/508/307 313/498/307 309/509/307
f 309/502/308 318/501/308 317/508/308
f 318/501/309 315/495/309 312/492/309 316/510/309
f 318/501/310 316/510/310 317/508/310
f 312/492/311 310/491/311 316/510/311
o Cube
v 0.046163 0.177887 1.679444
v -0.026330 0.334221 1.706125
v 0.011647 0.299497 1.609733
v 0.057859 0.363163 1.665070
v -0.039644 0.230694 1.709861
v 0.085476 0.240232 1.616521
v 0.120412 0.311912 1.644302
v 0.045077 0.319534 1.775249
v 0.076744 0.231873 1.770822
v 0.129152 0.280082 1.738516
vn -0.4806 0.7475 -0.4586
vn 0.1920 0.5607 -0.8054
vn -0.4523 -0.2072 0.8675
vn -0.6789 0.1135 0.7254
vn 0.8504 -0.5075 -0.1387
vn -0.9122 0.1030 -0.3965
vn -0.4786 -0.5349 -0.6962
vn 0.2708 0.2303 -0.9347
vn -0.2835 -0.7811 0.5563
vn 0.7196 -0.6760 0.1586
vn 0.5833 0.7582 0.2914
vn 0.4425 0.1149 0.8894
vn -0.1478 0.9253 0.3493
vt 0.550384 0.206938
vt 0.375000 0.305791
vt 0.375000 0.049496
vt 0.180791 0.500000
vt 0.330928 0.574320
vt 0.125000 0.700504
vt 0.804283 0.500000
vt 0.842867 0.681766
vt 0.658516 0.626313
vt 0.875000 0.500000
vt 0.501754 0.540833
vt 0.565165 0.799791
vt 0.325310 0.750000
vt 0.604031 0.069198
vt 0.375000 1.000000
vt 0.375000 0.799690
vt 0.578028 1.000000
vt 0.615335 0.592735
vt 0.589707 0.775249
vt 0.581909 0.353207
s 0
g Cube_Material
usemtl Material
f 320/511/312 322/512/312 321/513/312
f 322/514/313 325/515/313 321/516/313
f 326/517/314 323/518/314 327/519/314
f 323/518/315 326/517/315 320/520/315
f 328/521/316 319/522/316 324/523/316 325/515/316
f 321/513/317 323/524/317 320/511/317
f 321/525/318 324/526/318 319/522/318 323/527/318
f 325/515/319 324/523/319 321/516/319
f 327/528/320 323/518/320 319/529/320
f 319/522/321 328/521/321 327/528/321
f 328/521/322 325/515/322 322/512/322 326/530/322
f 328/521/323 326/530/323 327/528/323
f 322/512/324 320/511/324 326/530/324
o Cube
v 4.548743 0.316348 -4.245351
v 4.617399 0.241072 -4.154159
v 4.634187 0.242448 -4.238166
v 4.598547 0.185527 -4.203846
v 4.595416 0.316498 -4.177291
v 4.574271 0.254137 -4.280743
v 4.560446 0.194140 -4.256382
v 4.540260 0.228272 -4.144598
v 4.501593 0.274784 -4.185768
v 4.501179 0.219302 -4.211866
vn 0.8779 -0.4483 0.1681
vn 0.5559 -0.6559 -0.5107
vn -0.2909 0.4870 0.8235
vn 0.0661 0.3101 0.9484
vn -0.6858 -0.0000 -0.7278
vn 0.9253 0.3280 0.1903
vn 0.5895 0.6328 -0.5020
vn 0.4686 -0.4229 -0.7756
vn -0.4110 0.8676 0.2799
vn -0.8356 0.2389 -0.4946
vn -0.3358 -0.9161 0.2191
vn -0.8267 -0.2345 0.5115
vn 0.2007 -0.6901 0.6953
vt 0.550384 0.206938
vt 0.375000 0.305791
vt 0.375000 0.049496
vt 0.180791 0.500000
vt 0.330928 0.574320
vt 0.125000 0.700504
vt 0.804283 0.500000
vt 0.842867 0.681766
vt 0.658516 0.626313
vt 0.875000 0.500000
vt 0.501754 0.540833
vt 0.565165 0.799791
vt 0.325310 0.750000
vt 0.604031 0.069198
vt 0.375000 1.000000
vt 0.375000 0.799690
vt 0.578028 1.000000
vt 0.615335 0.592735
vt 0.589707 0.775249
vt 0.581909 0.353207
s 0
g Cube_Material
usemtl Material
f 330/531/325 332/532/325 331/533/325
f 332/534/326 335/535/326 331/536/326
f 336/537/327 333/538/327 337/539/327
f 333/538/328 336/537/328 330/540/328
f 338/541/329 329/542/329 334/543/329 335/535/329
f 331/533/330 333/544/330 330/531/330
f 331/545/331 334/546/331 329/542/331 333/547/331
f 335/535/332 334/543/332 331/536/332
f 337/548/333 333/538/333 329/549/333
f 329/542/334 338/541/334 337/548/334
f 338/541/335 335/535/335 332/532/335 336/550/335
f 338/541/336 336/550/336 337/548/336
f 332/532/337 330/531/337 336/550/337
o Cube
v -5.621417 0.522112 -1.445650
v -5.652404 0.544958 -1.327927
v -5.586422 0.510547 -1.349965
v -5.639179 0.476794 -1.322677
v -5.638670 0.574082 -1.394762
v -5.592181 0.473850 -1.406226
v -5.625766 0.441561 -1.368453
v -5.706788 0.511600 -1.359889
v -5.695469 0.506482 -1.424992
v -5.686871 0.457211 -1.400843
vn 0.3803 0.1442 0.9136
vn 0.6301 -0.5151 0.5811
vn -0.7130 0.6784 -0.1773
vn -0.5989 0.7719 0.2133
vn 0.0808 -0.6919 -0.7174
vn 0.5262 0.7347 0.4283
vn 0.8632 0.4305 -0.2637
vn 0.8059 -0.5302 0.2633
vn -0.3299 0.6023 -0.7269
vn -0.1485 -0.4560 -0.8775
vn -0.5364 -0.6814 0.4980
vn -0.9594 -0.2399 -0.1479
vn -0.4933 -0.0287 0.8694
vt 0.550384 0.206938
vt 0.375000 0.305791
vt 0.375000 0.049496
vt 0.180791 0.500000
vt 0.330928 0.574320
vt 0.125000 0.700504
vt 0.804283 0.500000
vt 0.842867 0.681766
vt 0.658516 0.626313
vt 0.875000 0.500000
vt 0.501754 0.540833
vt 0.565165 0.799791
vt 0.325310 0.750000
vt 0.604031 0.069198
vt 0.375000 1.000000
vt 0.375000 0.799690
vt 0.578028 1.000000
vt 0.615335 0.592735
vt 0.589707 0.775249
vt 0.581909 0.353207
s 0
g Cube_Material
usemtl Material
f 340/551/338 342/552/338 341/553/338
f 342/554/339 345/555/339 341/556/339
f 346/557/340 343/558/340 347/559/340
f 343/558/341 346/557/341 340/560/341
f 348/561/342 339/562/342 344/563/342 345/555/342
f 341/553/343 343/564/343 340/551/343
f 341/565/344 344/566/344 339/562/344 343/567/344
f 345/555/345 344/563/345 341/556/345
f 347/568/346 343/558/346 339/569/346
f 339/562/347 348/561/347 347/568/347
f 348/561/348 345/555/348 342/552/348 346/570/348
f 348/561/349 346/570/349 347/568/349
f 342/552/350 340/551/350 346/570/350
o Cube
v 3.582244 0.059568 -4.668172
v 3.516089 0.050219 -4.803458
v 3.565056 -0.019841 -4.763050
v 3.594576 0.026693 -4.825415
v 3.504200 0.063818 -4.714907
v 3.626481 0.005858 -4.714969
v 3.651231 0.026346 -4.780591
v 3.564602 0.122310 -4.801015
v 3.592252 0.134845 -4.726200
v 3.642271 0.110817 -4.764913
vn -0.3790 -0.6467 -0.6619
vn 0.3497 -0.8227 -0.4483
vn -0.6173 0.7807 0.0973
vn -0.8109 0.5522 -0.1937
vn 0.8612 0.1069 0.4969
vn -0.8140 -0.5805 -0.0201
vn -0.3287 -0.6941 0.6405
vn 0.4530 -0.8853 -0.1055
vn -0.3891 0.5943 0.7038
vn 0.6734 0.3931 0.6261
vn 0.5124 0.2906 -0.8081
vn 0.2547 0.9340 -0.2506
vn -0.2154 0.1775 -0.9603
vt 0.550384 0.206938
vt 0.375000 0.305791
vt 0.375000 0.049496
vt 0.180791 0.500000
vt 0.330928 0.574320
vt 0.125000 0.700504
vt 0.804283 0.500000
vt 0.842867 0.681766
vt 0.658516 0.626313
vt 0.875000 0.500000
vt 0.501754 0.540833
vt 0.565165 0.799791
vt 0.325310 0.750000
vt 0.604031 0.069198
vt 0.375000 1.000000
vt 0.375000 0.799690
vt 0.578028 1.000000
vt 0.615335 0.592735
vt 0.589707 0.775249
vt 0.581909 0.353207
s 0
g Cube_Material
usemtl Material
f 350/571/351 352/572/351 351/573/351
f 352/574/352 355/575/352 351/576/352
f 356/577/353 353/578/353 357/579/353
f 353/578/354 356/577/354 350/580/354
f 358/581/355 349/582/355 354/583/355 355/575/355
f 351/573/356 353/584/356 350/571/356
f 351/585/357 354/586/357 349/582/357 353/587/357
f 355/575/358 354/583/358 351/576/358
f 357/588/359 353/578/359 349/589/359
f 349/582/360 358/581/360 357/588/360
f 358/581/361 355/575/361 352/572/361 356/590/361
f 358/581/362 356/590/362 357/588/362
f 352/572/363 350/571/363 356/590/363
o Cube
v -5.306798 0.370948 -1.113337
v -5.326177 0.287308 -1.148418
v -5.366050 0.327767 -1.136143
v -5.358008 0.286409 -1.107129
v -5.299138 0.335272 -1.155787
v -5.353822 0.357404 -1.097146
v -5.359925 0.318171 -1.076155
v -5.294855 0.281116 -1.105573
v -5.278414 0.325210 -1.089810
v -5.308528 0.311821 -1.064440
vn -0.6777 -0.5060 -0.5335
vn -0.9875 -0.1366 0.0790
vn 0.9187 -0.2270 -0.3232
vn 0.6791 -0.4695 -0.5643
vn -0.0053 0.5795 0.8150
vn -0.2829 0.0122 -0.9591
vn -0.3210 0.7476 -0.5815
vn -0.9658 0.2220 0.1341
vn 0.8754 0.4360 -0.2085
vn 0.3497 0.5910 0.7270
vn -0.1504 -0.7631 0.6286
vn 0.6830 -0.4581 0.5690
vn -0.0812 -0.9931 -0.0842
vt 0.550384 0.206938
vt 0.375000 0.305791
vt 0.375000 0.049496
vt 0.180791 0.500000
vt 0.330928 0.574320
vt 0.125000 0.700504
vt 0.804283 0.500000
vt 0.842867 0.681766
vt 0.658516 0.626313
vt 0.875000 0.500000
vt 0.501754 0.540833
vt 0.565165 0.799791
vt 0.325310 0.750000
vt 0.604031 0.069198
vt 0.375000 1.000000
vt 0.375000 0.799690
vt 0.578028 1.000000
vt 0.615335 0.592735
vt 0.589707 0.775249
vt 0.581909 0.353207
s 0
g Cube_Material
usemtl Material
f 360/591/364 362/592/364 361/593/364
f 362/594/365 365/595/365 361/596/365
f 366/597/366 363/598/366 367/599/366
f 363/598/367 366/597/367 360/600/367
f 368/601/368 359/602/368 364/603/368 365/595/368
f 361/593/369 363/604/369 360/591/369
f 361/605/370 364/606/370 359/602/370 363/607/370
f 365/595/371 364/603/371 361/596/371
f 367/608/372 363/598/372 359/609/372
f 359/602/373 368/601/373 367/608/373
f 368/601/374 365/595/374 362/592/374 366/610/374
f 368/601/375 366/610/375 367/608/375
f 362/592/376 360/591/376 366/610/376
o Cube
v -1.786982 -0.028842 -4.106257
v -1.865756 0.010696 -4.211782
v -1.890816 0.011666 -4.129358
v -1.913751 -0.040511 -4.179387
v -1.795878 0.023418 -4.170101
v -1.859868 -0.042165 -4.087580
v -1.898467 -0.078515 -4.127852
v -1.835812 -0.060870 -4.227791
v -1.785809 -0.079452 -4.177121
v -1.838013 -0.110574 -4.166753
vn -0.7798 0.5766 -0.2439
vn -0.9364 0.0851 0.3405
vn 0.7280 0.1174 -0.6754
vn 0.4274 0.3639 -0.8276
vn 0.1892 -0.7166 0.6714
vn -0.1463 0.9876 -0.0561
vn 0.1317 0.7238 0.6773
vn -0.7528 0.0748 0.6540
vn 0.9933 0.1010 -0.0557
vn 0.5139 -0.6940 0.5042
vn -0.5560 -0.6858 -0.4697
vn 0.3235 -0.7394 -0.5904
vn -0.5337 -0.0343 -0.8450
vt 0.550384 0.206938
vt 0.375000 0.305791
vt 0.375000 0.049496
vt 0.180791 0.500000
vt 0.330928 0.574320
vt 0.125000 0.700504
vt 0.804283 0.500000
vt 0.842867 0.681766
vt 0.658516 0.626313
vt 0.875000 0.500000
vt 0.501754 0.540833
vt 0.565165 0.799791
vt 0.325310 0.750000
vt 0.604031 0.069198
vt 0.375000 1.000000
vt 0.375000 0.799690
vt 0.578028 1.000000
vt 0.615335 0.592735
vt 0.589707 0.775249
vt 0.581909 0.353207
s 0
g Cube_Material
usemtl Material
f 370/611/377 372/612/377 371/613/377
f 372/614/378 375/615/378 371/616/378
f 376/617/379 373/618/379 377/619/379
f 373/618/380 376/617/380 370/620/380
f 378/621/381 369/622/381 374/623/381 375/615/381
f 371/613/382 373/624/382 370/611/382
f 371/625/383 374/626/383 369/622/383 373/627/383
f 375/615/384 374/623/384 371/616/384
f 377/628/385 373/618/385 369/629/385
f 369/622/386 378/621/386 377/628/386
f 378/621/387 375/615/387 372/612/387 376/630/387
f 378/621/388 376/630/388 377/628/388
f 372/612/389 370/611/389 376/630/389
o Cube
v -4.190979 0.457750 -3.020784
v -4.279757 0.389683 -3.064310
v -4.219583 0.362856 -3.028019
v -4.227416 0.358785 -3.093638
v -4.261833 0.442716 -3.019192
v -4.165374 0.398263 -3.036789
v -4.172937 0.376782 -3.090271
v -4.257789 0.432159 -3.114269
v -4.216306 0.474985 -3.090373
v -4.189347 0.437476 -3.118009
vn -0.4591 -0.8816 0.1095
vn 0.3124 -0.9497 0.0216
vn -0.6828 0.7224 -0.1093
vn -0.9211 0.3806 -0.0814
vn 0.9403 0.3166 -0.1247
vn -0.5970 -0.3931 0.6993
vn 0.1274 -0.1135 0.9853
vn 0.5578 -0.7945 0.2402
vn -0.1914 0.9342 0.3011
vn 0.7622 0.6361 -0.1199
vn 0.0580 -0.3208 -0.9454
vn -0.0881 0.5491 -0.8311
vn -0.6224 -0.4397 -0.6475
vt 0.550384 0.206938
vt 0.375000 0.305791
vt 0.375000 0.049496
vt 0.180791 0.500000
vt 0.330928 0.574320
vt 0.125000 0.700504
vt 0.804283 0.500000
vt 0.842867 0.681766
vt 0.658516 0.626313
vt 0.875000 0.500000
vt 0.501754 0.540833
vt 0.565165 0.799791
vt 0.325310 0.750000
vt 0.604031 0.069198
vt 0.375000 1.000000
vt 0.375000 0.799690
vt 0.578028 1.000000
vt 0.615335 0.592735
vt 0.589707 0.775249
vt 0.581909 0.353207
s 0
g Cube_Material
usemtl Material
f 380/631/390 382/632/390 381/633/390
f 382/634/391 385/635/391 381/636/391
f 386/637/392 383/638/392 387/639/392
f 383/638/393 386/637/393 380/640/393
f 388/641/394 379/642/394 384/643/394 385/635/394
f 381/633/395 383/644/395 380/631/395
f 381/645/396 384/646/396 379/642/396 383/647/396
f 385/635/397 384/643/397 381/636/397
f 387/648/398 383/638/398 379/649/398
f 379/642/399 388/641/399 387/648/399
f 388/641/400 385/635/400 382/632/400 386/650/400
f 388/641/401 386/650/401 387/648/401
f 382/632/402 380/631/402 386/650/402
o Cube
v 5.146604 0.010873 -0.223879
v 5.179404 -0.026414 -0.363686
v 5.212432 -0.070153 -0.288593
v 5.256866 -0.018400 -0.333805
v 5.115107 -0.016265 -0.303188
v 5.222143 -0.022177 -0.224360
v 5.272584 0.004071 -0.268275
v 5.192608 0.057458 -0.353814
v 5.165735 0.081346 -0.283031
v 5.232139 0.077608 -0.281345
vn 0.3006 -0.7607 -0.5753
vn 0.7721 -0.6346 0.0324
vn -0.7522 0.4828 -0.4485
vn -0.6569 0.1893 -0.7299
vn 0.3188 0.4457 0.8365
vn -0.4249 -0.8510 -0.3088
vn -0.4188 -0.7496 0.5125
vn 0.6651 -0.6430 0.3797
vn -0.8850 0.4158 0.2092
vn 0.0165 0.6402 0.7680
vn 0.7758 0.4445 -0.4479
vn 0.0612 0.9525 -0.2982
vn 0.3545 0.0541 -0.9335
vt 0.550384 0.206938
vt 0.375000 0.305791
vt 0.375000 0.049496
vt 0.180791 0.500000
vt 0.330928 0.574320
vt 0.125000 0.700504
vt 0.804283 0.500000
vt 0.842867 0.681766
vt 0.658516 0.626313
vt 0.875000 0.500000
vt 0.501754 0.540833
vt 0.565165 0.799791
vt 0.325310 0.750000
vt 0.604031 0.069198
vt 0.375000 1.000000
vt 0.375000 0.799690
vt 0.578028 1.000000
vt 0.615335 0.592735
vt 0.589707 0.775249
vt 0.581909 0.353207
s 0
g Cube_Material
usemtl Material
f 390/651/403 392/652/403 391/653/403
f 392/654/404 395/655/404 391/656/404
f 396/657/405 393/658/405 397/659/405
f 393/658/406 396/657/406 390/660/406
f 398/661/407 389/662/407 394/663/407 395/655/407
f 391/653/408 393/664/408 390/651/408
f 391/665/409 394/666/409 389/662/409 393/667/409
f 395/655/410 394/663/410 391/656/410
f 397/668/411 393/658/411 389/669/411
f 389/662/412 398/661/412 397/668/412
f 398/661/413 395/655/413 392/652/413 396/670/413
f 398/661/414 396/670/414 397/668/414
f 392/652/415 390/651/415 396/670/415
o Cube
v -0.242103 0.100510 3.998656
v -0.348729 -0.020880 4.031952
v -0.370344 0.061204 3.972960
v -0.400437 0.051472 4.058277
v -0.261601 0.003101 3.991994
v -0.326671 0.135878 3.997031
v -0.375209 0.126304 4.059752
v -0.311311 0.010148 4.113621
v -0.245582 0.066827 4.097507
v -0.305472 0.104265 4.119503
vn -0.8190 -0.4611 -0.3415
vn -0.9068 0.3113 -0.2843
vn 0.6633 -0.6809 0.3105
vn 0.3416 -0.9198 0.1929
vn 0.2725 0.9420 0.1960
vn -0.1881 -0.6054 -0.7734
vn 0.1608 0.1160 -0.9801
vn -0.6971 0.5543 -0.4548
vn 0.9805 -0.1941 -0.0316
vn 0.5808 0.7641 0.2808
vn -0.5672 0.0686 0.8207
vn 0.3004 -0.0780 0.9506
vn -0.6016 -0.6153 0.5094
vt 0.550384 0.206938
vt 0.375000 0.305791
vt 0.375000 0.049496
vt 0.180791 0.500000
vt 0.330928 0.574320
vt 0.125000 0.700504
vt 0.804283 0.500000
vt 0.842867 0.681766
vt 0.658516 0.626313
vt 0.875000 0.500000
vt 0.501754 0.540833
vt 0.565165 0.799791
vt 0.325310 0.750000
vt 0.604031 0.069198
vt 0.375000 1.000000
vt 0.375000 0.799690
vt 0.578028 1.000000
vt 0.615335 0.592735
vt 0.589707 0.775249
vt 0.581909 0.353207
s 0
g Cube_Material
usemtl Material
f 400/671/416 402/672/416 401/673/416
f 402/674/417 405/675/417 401/676/417
f 406/677/418 403/678/418 407/679/418
f 403/678/419 406/677/419 400/680/419
f 408/681/420 399/682/420 404/683/420 405/675/420
f 401/673/421 403/684/421 400/671/421
f 401/685/422 404/686/422 399/682/422 403/687/422
f 405/675/423 404/683/423 401/676/423
f 407/688/424 403/678/424 399/689/424
f 399/682/425 408/681/425 407/688/425
f 408/681/426 405/675/426 402/672/426 406/690/426
f 408/681/427 406/690/427 407/688/427
f 402/672/428 400/671/428 406/690/428
o Cube
v -3.694927 0.078148 -1.449926
v -3.655779 0.066124 -1.346021
v -3.701936 0.115018 -1.365426
v -3.642473 0.126891 -1.354559
v -3.689137 0.037513 -1.396456
v -3.695138 0.133969 -1.422788
v -3.649870 0.153359 -1.400431
v -3.606017 0.068059 -1.386766
v -3.625474 0.066480 -1.443251
v -3.611331 0.113146 -1.431827
vn -0.2117 0.1813 0.9604
vn -0.2573 0.8185 0.5137
vn 0.3532 -0.9307 -0.0956
vn 0.2944 -0.9017 0.3168
vn 0.0410 0.5320 -0.8457
vn -0.6646 -0.3697 0.6493
vn -0.9959 -0.0755 -0.0497
vn -0.4753 0.8506 0.2247
vn -0.0766 -0.7978 -0.5980
vn 0.1269 0.1994 -0.9717
vn 0.8426 0.4741 0.2553
vn 0.9273 -0.2042 -0.3137
vn 0.6339 -0.0302 0.7728
vt 0.550384 0.206938
vt 0.375000 0.305791
vt 0.375000 0.049496
vt 0.180791 0.500000
vt 0.330928 0.574320
vt 0.125000 0.700504
vt 0.804283 0.500000
vt 0.842867 0.681766
vt 0.658516 0.626313
vt 0.875000 0.500000
vt 0.501754 0.540833
vt 0.565165 0.799791
vt 0.325310 0.750000
vt 0.604031 0.069198
vt 0.375000 1.000000
vt 0.375000 0.799690
vt 0.578028 1.000000
vt 0.615335 0.592735
vt 0.589707 0.775249
vt 0.581909 0.353207
s 0
g Cube_Material
usemtl Material
f 410/691/429 412/692/429 411/693/429
f 412/694/430 415/695/430 411/696/430
f 416/697/431 413/698/431 417/699/431
f 413/698/432 416/697/432 410/700/432
f 418/701/433 409/702/433 414/703/433 415/695/433
f 411/693/434 413/704/434 410/691/434
f 411/705/435 414/706/435 409/702/435 413/707/435
f 415/695/436 414/703/436 411/696/436
f 417/708/437 413/698/437 409/709/437
f 409/702/438 418/701/438 417/708/438
f 418/701/439 415/695/439 412/692/439 416/710/439
f 418/701/440 416/710/440 417/708/440
f 412/692/441 410/691/441 416/710/441
o Cube
v -0.500021 0.097290 4.202773
v -0.557904 0.074810 4.090346
v -0.578295 0.134023 4.140892
v -0.616007 0.074547 4.133215
v -0.491918 0.092232 4.125847
v -0.567916 0.118614 4.208287
v -0.614096 0.079303 4.194495
v -0.555014 0.011573 4.128660
v -0.516417 0.019626 4.184953
v -0.572061 0.019211 4.199808
vn -0.5363 0.4335 -0.7242
vn -0.8435 0.5368 -0.0154
vn 0.7126 -0.5716 -0.4068
vn 0.5132 -0.4275 -0.7442
vn -0.0592 -0.0824 0.9948
vn 0.2032 0.6752 -0.7091
vn 0.3848 0.9210 0.0600
vn -0.6697 0.6948 0.2620
vn 0.9660 -0.2308 0.1169
vn 0.2505 -0.2664 0.9307
vn -0.7664 -0.6418 -0.0275
vn 0.0383 -0.9925 0.1157
vn -0.5264 -0.4581 -0.7163
vt 0.550384 0.206938
vt 0.375000 0.305791
vt 0.375000 0.049496
vt 0.180791 0.500000
vt 0.330928 0.574320
vt 0.125000 0.700504
vt 0.804283 0.500000
vt 0.842867 0.681766
vt 0.658516 0.626313
vt 0.875000 0.500000
vt 0.501754 0.540833
vt 0.565165 0.799791
vt 0.325310 0.750000
vt 0.604031 0.069198
vt 0.375000 1.000000
vt 0.375000 0.799690
vt 0.578028 1.000000
vt 0.615335 0.592735
vt 0.589707 0.775249
vt 0.581909 0.353207
s 0
g Cube_Material
usemtl Material
f 420/711/442 422/712/442 421/713/442
f 422/714/443 425/715/443 421/716/443
f 426/717/444 423/718/444 427/719/444
f 423/718/445 426/717/445 420/720/445
f 428/721/446 419/722/446 424/723/446 425/715/446
f 421/713/447 423/724/447 420/711/447
f 421/725/448 424/726/448 419/722/448 423/727/448
f 425/715/449 424/723/449 421/716/449
f 427/728/450 423/718/450 419/729/450
f 419/722/451 428/721/451 427/728/451
f 428/721/452 425/715/452 422/712/452 426/730/452
f 428/721/453 426/730/453 427/728/453
f 422/712/454 420/711/454 426/730/454
o Cube
v -3.615226 0.605201 1.071003
v -3.720496 0.663881 1.025540
v -3.687541 0.678894 1.097674
v -3.746870 0.640800 1.088911
v -3.645420 0.649678 1.014841
v -3.656276 0.623300 1.126788
v -3.715963 0.605292 1.128756
v -3.729318 0.590505 1.018811
v -3.670530 0.557922 1.034086
v -3.707531 0.552378 1.078092
vn -0.5467 0.8339 0.0762
vn -0.4251 0.4865 0.7633
vn 0.1202 -0.2352 -0.9645
vn -0.1208 0.1050 -0.9871
vn 0.3592 -0.6906 0.6277
vn 0.1429 0.9539 -0.2638
vn 0.7349 0.6407 0.2222
vn -0.0965 0.4186 0.9030
vn 0.7013 -0.3250 -0.6344
vn 0.4901 -0.8149 0.3094
vn -0.8935 -0.4177 0.1647
vn -0.3593 -0.8394 -0.4078
vn -0.9311 0.1427 -0.3355
vt 0.550384 0.206938
vt 0.375000 0.305791
vt 0.375000 0.049496
vt 0.180791 0.500000
vt 0.330928 0.574320
vt 0.125000 0.700504
vt 0.804283 0.500000
vt 0.842867 0.681766
vt 0.658516 0.626313
vt 0.875000 0.500000
vt 0.501754 0.540833
vt 0.565165 0.799791
vt 0.325310 0.750000
vt 0.604031 0.069198
vt 0.375000 1.000000
vt 0.375000 0.799690
vt 0.578028 1.000000
vt 0.615335 0.592735
vt 0.589707 0.775249
vt 0.581909 0.353207
s 0
g Cube_Material
usemtl Material
f 430/731/455 432/732/455 431/733/455
f 432/734/456 435/735/456 431/736/456
f 436/737/457 433/738/457 437/739/457
f 433/738/458 436/737/458 430/740/458
f 438/741/459 429/742/459 434/743/459 435/735/459
f 431/733/460 433/744/460 430/731/460
f 431/745/461 434/746/461 429/742/461 433/747/461
f 435/735/462 434/743/462 431/736/462
f 437/748/463 433/738/463 429/749/463
f 429/742/464 438/741/464 437/748/464
f 438/741/465 435/735/465 432/732/465 436/750/465
f 438/741/466 436/750/466 437/748/466
f 432/732/467 430/731/467 436/750/467
o Cube
v -0.534661 0.283623 3.823007
v -0.485683 0.239104 3.905668
v -0.514863 0.298682 3.907070
v -0.456973 0.291251 3.904812
v -0.532578 0.234027 3.863264
v -0.513131 0.326758 3.856760
v -0.463452 0.327021 3.869468
v -0.448376 0.237212 3.857433
v -0.475862 0.253776 3.810731
v -0.447216 0.288694 3.825393
vn 0.0384 -0.0047 0.9993
vn 0.1181 0.7087 0.6956
vn 0.0120 -0.9402 -0.3405
vn 0.0427 -0.9965 0.0721
vn 0.0529 0.6880 -0.7238
vn -0.6165 -0.3189 0.7199
vn -0.9586 0.2142 0.1874
vn -0.1274 0.8680 0.4800
vn -0.4372 -0.5778 -0.6892
vn 0.0028 0.3852 -0.9228
vn 0.9820 0.1493 0.1158
vn 0.7382 -0.3683 -0.5651
vn 0.7216 -0.3879 0.5734
vt 0.550384 0.206938
vt 0.375000 0.305791
vt 0.375000 0.049496
vt 0.180791 0.500000
vt 0.330928 0.574320
vt 0.125000 0.700504
vt 0.804283 0.500000
vt 0.842867 0.681766
vt 0.658516 0.626313
vt 0.875000 0.500000
vt 0.501754 0.540833
vt 0.565165 0.799791
vt 0.325310 0.750000
vt 0.604031 0.069198
vt 0.375000 1.000000
vt 0.375000 0.799690
vt 0.578028 1.000000
vt 0.615335 0.592735
vt 0.589707 0.775249
vt 0.581909 0.353207
s 0
g Cube_Material
usemtl Material
f 440/751/468 442/752/468 441/753/468
f 442/754/469 445/755/469 441/756/469
f 446/757/470 443/758/470 447/759/470
f 443/758/471 446/757/471 440/760/471
f 448/761/472 439/762/472 444/763/472 445/755/472
f 441/753/473 443/764/473 440/751/473
f 441/765/474 444/766/474 439/762/474 443/767/474
f 445/755/475 444/763/475 441/756/475
f 447/768/476 443/758/476 439/769/476
f 439/762/477 448/761/477 447/768/477
f 448/761/478 445/755/478 442/752/478 446/770/478
f 448/761/479 446/770/479 447/768/479
f 442/752/480 440/751/480 446/770/480
o Cube
v 0.155578 0.414298 -3.042481
v 0.175921 0.470081 -2.962707
v 0.118707 0.451500 -2.978965
v 0.137152 0.502609 -2.986468
v 0.185138 0.418150 -2.990387
v 0.111660 0.446292 -3.032380
v 0.116949 0.494017 -3.028718
v 0.200822 0.493752 -3.008556
v 0.196723 0.461307 -3.050535
v 0.167560 0.494776 -3.054778
vn -0.3402 0.2556 0.9050
vn -0.8672 0.3630 0.3408
vn 0.9802 -0.1909 0.0518
vn 0.8925 -0.0784 0.4442
vn -0.3613 -0.0141 -0.9323
vn -0.0916 -0.4810 0.8719
vn -0.4613 -0.8559 0.2336
vn -0.9876 0.1002 0.1205
vn 0.6791 -0.6521 -0.3371
vn -0.0252 -0.1473 -0.9888
vn 0.0276 0.9944 -0.1018
vn 0.6892 0.5392 -0.4840
vn 0.3020 0.7702 0.5617
vt 0.550384 0.206938
vt 0.375000 0.305791
vt 0.375000 0.049496
vt 0.180791 0.500000
vt 0.330928 0.574320
vt 0.125000 0.700504
vt 0.804283 0.500000
vt 0.842867 0.681766
vt 0.658516 0.626313
vt 0.875000 0.500000
vt 0.501754 0.540833
vt 0.565165 0.799791
vt 0.325310 0.750000
vt 0.604031 0.069198
vt 0.375000 1.000000
vt 0.375000 0.799690
vt 0.578028 1.000000
vt 0.615335 0.592735
vt 0.589707 0.775249
vt 0.581909 0.353207
s 0
g Cube_Material
usemtl Material
f 450/771/481 452/772/481 451/773/481
f 452/774/482 455/775/482 451/776/482
f 456/777/483 453/778/483 457/779/483
f 453/778/484 456/777/484 450/780/484
f 458/781/485 449/782/485 454/783/485 455/775/485
f 451/773/486 453/784/486 450/771/486
f 451/785/487 454/786/487 449/782/487 453/787/487
f 455/775/488 454/783/488 451/776/488
f 457/788/489 453/778/489 449/789/489
f 449/782/490 458/781/490 457/788/490
f 458/781/491 455/775/491 452/772/491 456/790/491
f 458/781/492 456/790/492 457/788/492
f 452/772/493 450/771/493 456/790/493
o Cube
v -2.428703 0.472779 1.999017
v -2.507472 0.416941 1.953605
v -2.453468 0.439277 1.921127
v -2.506670 0.463992 1.916405
v -2.461885 0.417592 1.998392
v -2.432281 0.489110 1.942124
v -2.477314 0.505331 1.922668
v -2.531989 0.463894 1.984800
v -2.491835 0.490154 2.015752
v -2.502154 0.516697 1.977304
vn -0.2123 -0.6038 -0.7683
vn 0.1186 0.0659 -0.9908
vn -0.4050 -0.3675 0.8372
vn -0.5318 -0.6435 0.5506
vn 0.4161 0.9015 0.1194
vn 0.2462 -0.9398 -0.2369
vn 0.8919 -0.4425 -0.0932
vn 0.4442 0.1808 -0.8775
vn 0.2171 -0.1415 0.9658
vn 0.3476 0.8126 0.4677
vn -0.7897 0.4917 -0.3670
vn -0.7107 0.4752 0.5188
vn -0.9078 -0.2505 -0.3364
vt 0.550384 0.206938
vt 0.375000 0.305791
vt 0.375000 0.049496
vt 0.180791 0.500000
vt 0.330928 0.574320
vt 0.125000 0.700504
vt 0.804283 0.500000
vt 0.842867 0.681766
vt 0.658516 0.626313
vt 0.875000 0.500000
vt 0.501754 0.540833
vt 0.565165 0.799791
vt 0.325310 0.750000
vt 0.604031 0.069198
vt 0.375000 1.000000
vt 0.375000 0.799690
vt 0.578028 1.000000
vt 0.615335 0.592735
vt 0.589707 0.775249
vt 0.581909 0.353207
s 0
g Cube_Material
usemtl Material
f 460/791/494 462/792/494 461/793/494
f 462/794/495 465/795/495 461/796/495
f 466/797/496 463/798/496 467/799/496
f 463/798/497 466/797/497 460/800/497
f 468/801/498 459/802/498 464/803/498 465/795/498
f 461/793/499 463/804/499 460/791/499
f 461/805/500 464/806/500 459/802/500 463/807/500
f 465/795/501 464/803/501 461/796/501
f 467/808/502 463/798/502 459/809/502
f 459/802/503 468/801/503 467/808/503
f 468/801/504 465/795/504 462/792/504 466/810/504
f 468/801/505 466/810/505 467/808/505
f 462/792/506 460/791/506 466/810/506
o Cube
v 1.805688 0.600916 2.238195
v 1.684129 0.662138 2.142116
v 1.692188 0.678997 2.244824
v 1.631557 0.620784 2.207682
v 1.782376 0.658643 2.159235
v 1.729891 0.610344 2.290528
v 1.660411 0.576479 2.267410
v 1.691188 0.567700 2.126481
v 1.763076 0.534897 2.167758
v 1.701753 0.516218 2.206121
vn -0.6686 0.7404 -0.0691
vn -0.7117 0.3542 0.6066
vn 0.4481 -0.1308 -0.8844
vn 0.1750 0.1735 -0.9691
vn 0.2526 -0.6867 0.6816
vn 0.0640 0.9840 -0.1665
vn 0.5187 0.7141 0.4701
vn -0.4360 0.3204 0.8410
vn 0.9053 -0.1681 -0.3901
vn 0.4934 -0.7633 0.4170
vn -0.8225 -0.5499 -0.1454
vn -0.0776 -0.8419 -0.5340
vn -0.7921 0.0416 -0.6089
vt 0.550384 0.206938
vt 0.375000 0.305791
vt 0.375000 0.049496
vt 0.180791 0.500000
vt 0.330928 0.574320
vt 0.125000 0.700504
vt 0.804283 0.500000
vt 0.842867 0.681766
vt 0.658516 0.626313
vt 0.875000 0.500000
vt 0.501754 0.540833
vt 0.565165 0.799791
vt 0.325310 0.750000
vt 0.604031 0.069198
vt 0.375000 1.000000
vt 0.375000 0.799690
vt 0.578028 1.000000
vt 0.615335 0.592735
vt 0.589707 0.775249
vt 0.581909 0.353207
s 0
g Cube_Material
usemtl Material
f 470/811/507 472/812/507 471/813/507
f 472/814/508 475/815/508 471/816/508
f 476/817/509 473/818/509 477/819/509
f 473/818/510 476/817/510 470/820/510
f 478/821/511 469/822/511 474/823/511 475/815/511
f 471/813/512 473/824/512 470/811/512
f 471/825/513 474/826/513 469/822/513 473/827/513
f 475/815/514 474/823/514 471/816/514
f 477/828/515 473/818/515 469/829/515
f 469/822/516 478/821/516 477/828/516
f 478/821/517 475/815/517 472/812/517 476/830/517
f 478/821/518 476/830/518 477/828/518
f 472/812/519 470/811/519 476/830/519
o Cube
v 0.588293 -0.182656 -2.604437
v 0.575420 -0.168369 -2.506743
v 0.600172 -0.126233 -2.545531
v 0.629913 -0.156058 -2.510287
v 0.549069 -0.179872 -2.558993
v 0.627637 -0.147911 -2.586921
v 0.656019 -0.160267 -2.549954
v 0.602623 -0.218251 -2.514647
v 0.603888 -0.230544 -2.566475
v 0.644087 -0.215878 -2.553726
vn -0.1148 0.7085 0.6964
vn 0.5179 0.8168 0.2542
vn -0.6585 -0.7357 0.1584
vn -0.7376 -0.4778 0.4772
vn 0.6534 -0.1987 -0.7305
vn -0.7329 0.6409 0.2285
vn -0.4751 0.6813 -0.5568
vn 0.5112 0.8527 -0.1074
vn -0.6233 -0.6003 -0.5012
vn 0.4189 -0.4764 -0.7730
vn 0.7243 -0.2845 0.6281
vn 0.2689 -0.9357 0.2285
vn 0.0889 -0.1084 0.9901
vt 0.550384 0.206938
vt 0.375000 0.305791
vt 0.375000 0.049496
vt 0.180791 0.500000
vt 0.330928 0.574320
vt 0.125000 0.700504
vt 0.804283 0.500000
vt 0.842867 0.681766
vt 0.658516 0.626313
vt 0.875000 0.500000
vt 0.501754 0.540833
vt 0.565165 0.799791
vt 0.325310 0.750000
vt 0.604031 0.069198
vt 0.375000 1.000000
vt 0.375000 0.799690
vt 0.578028 1.000000
vt 0.615335 0.592735
vt 0.589707 0.775249
vt 0.581909 0.353207
s 0
g Cube_Material
usemtl Material
f 480/831/520 482/832/520 481/833/520
f 482/834/521 485/835/521 481/836/521
f 486/837/522 483/838/522 487/839/522
f 483/838/523 486/837/523 480/840/523
f 488/841/524 479/842/524 484/843/524 485/835/524
f 481/833/525 483/844/525 480/831/525
f 481/845/526 484/846/526 479/842/526 483/847/526
f 485/835/527 484/843/527 481/836/527
f 487/848/528 483/838/528 479/849/528
f 479/842/529 488/841/529 487/848/529
f 488/841/530 485/835/530 482/832/530 486/850/530
f 488/841/531 486/850/531 487/848/531
f 482/832/532 480/831/532 486/850/532
o Cube
v -1.232121 0.202283 -1.974164
v -1.381361 0.260196 -2.045157
v -1.305111 0.324863 -1.999933
v -1.388719 0.302987 -1.956795
v -1.291662 0.208271 -2.061284
v -1.257546 0.284137 -1.928066
v -1.334749 0.291254 -1.893710
v -1.403026 0.186406 -1.979854
v -1.324238 0.145451 -1.949914
v -1.352183 0.192528 -1.893616
vn -0.4272 0.7993 -0.4226
vn -0.1099 0.9560 0.2718
vn -0.2251 -0.8190 -0.5278
vn -0.4342 -0.5221 -0.7340
vn 0.4957 -0.1937 0.8466
vn 0.1168 0.4730 -0.8733
vn 0.8120 0.3928 -0.4316
vn 0.2405 0.9041 0.3532
vn 0.4244 -0.8361 -0.3475
vn 0.5037 -0.5231 0.6875
vn -0.8160 0.0590 0.5750
vn -0.5353 -0.7596 0.3695
vn -0.9765 0.1503 -0.1541
vt 0.550384 0.206938
vt 0.375000 0.305791
vt 0.375000 0.049496
vt 0.180791 0.500000
vt 0.330928 0.574320
vt 0.125000 0.700504
vt 0.804283 0.500000
vt 0.842867 0.681766
vt 0.658516 0.626313
vt 0.875000 0.500000
vt 0.501754 0.540833
vt 0.565165 0.799791
vt 0.325310 0.750000
vt 0.604031 0.069198
vt 0.375000 1.000000
vt 0.375000 0.799690
vt 0.578028 1.000000
vt 0.615335 0.592735
vt 0.589707 0.775249
vt 0.581909 0.353207
s 0
g Cube_Material
usemtl Material
f 490/851/533 492/852/533 491/853/533
f 492/854/534 495/855/534 491/856/534
f 496/857/535 493/858/535 497/859/535
f 493/858/536 496/857/536 490/860/536
f 498/861/537 489/862/537 494/863/537 495/855/537
f 491/853/538 493/864/538 490/851/538
f 491/865/539 494/866/539 489/862/539 493/867/539
f 495/855/540 494/863/540 491/856/540
f 497/868/541 493/858/541 489/869/541
f 489/862/542 498/861/542 497/868/542
f 498/861/543 495/855/543 492/852/543 496/870/543
f 498/861/544 496/870/544 497/868/544
f 492/852/545 490/851/545 496/870/545
o Cube
v 1.157323 0.120133 -1.699933
v 1.259880 0.142905 -1.738829
v 1.226560 0.081855 -1.748325
v 1.272686 0.089537 -1.707935
v 1.194992 0.159973 -1.739495
v 1.189172 0.066705 -1.702600
v 1.237324 0.062553 -1.677965
v 1.257814 0.157522 -1.676001
v 1.201595 0.153440 -1.655599
v 1.227882 0.113505 -1.640181
vn 0.6610 -0.2508 -0.7072
vn 0.4057 -0.8637 -0.2990
vn -0.0429 0.9958 0.0809
vn 0.2507 0.9447 -0.2115
vn -0.5366 -0.4810 0.6934
vn 0.0443 0.1299 -0.9905
vn -0.6431 -0.2467 -0.7250
vn 0.0564 -0.9606 -0.2722
vn -0.6655 0.7383 0.1099
vn -0.6476 -0.1369 0.7496
vn 0.7892 -0.1824 0.5864
vn 0.2647 0.4940 0.8282
vn 0.9747 0.2225 -0.0197
vt 0.550384 0.206938
vt 0.375000 0.305791
vt 0.375000 0.049496
vt 0.180791 0.500000
vt 0.330928 0.574320
vt 0.125000 0.700504
vt 0.804283 0.500000
vt 0.842867 0.681766
vt 0.658516 0.626313
vt 0.875000 0.500000
vt 0.501754 0.540833
vt 0.565165 0.799791
vt 0.325310 0.750000
vt 0.604031 0.069198
vt 0.375000 1.000000
vt 0.375000 0.799690
vt 0.578028 1.000000
vt 0.615335 0.592735
vt 0.589707 0.775249
vt 0.581909 0.353207
s 0
g Cube_Material
usemtl Material
f 500/871/546 502/872/546 501/873/546
f 502/874/547 505/875/547 501/876/547
f 506/877/548 503/878/548 507/879/548
f 503/878/549 506/877/549 500/880/549
f 508/881/550 499/882/550 504/883/550 505/875/550
f 501/873/551 503/884/551 500/871/551
f 501/885/552 504/886/552 499/882/552 503/887/552
f 505/875/553 504/883/553 501/876/553
f 507/888/554 503/878/554 499/889/554
f 499/882/555 508/881/555 507/888/555
f 508/881/556 505/875/556 502/872/556 506/890/556
f 508/881/557 506/890/557 507/888/557
f 502/872/558 500/871/558 506/890/558
o Cube
v -0.486884 0.129819 1.594786
v -0.405167 0.060585 1.593826
v -0.398730 0.126641 1.603802
v -0.384704 0.099874 1.553038
v -0.460447 0.077343 1.621736
v -0.438481 0.158779 1.575766
v -0.411198 0.140232 1.535743
v -0.439099 0.051910 1.543021
v -0.487250 0.082871 1.545813
v -0.456416 0.104012 1.515660
vn 0.9327 -0.1410 0.3321
vn 0.8443 0.5337 -0.0481
vn -0.5313 -0.8377 0.1266
vn -0.1544 -0.9516 0.2656
vn -0.4901 0.7121 -0.5027
vn 0.4010 -0.1749 0.8992
vn -0.0698 0.5046 0.8605
vn 0.6078 0.7927 0.0470
vn -0.9053 -0.3033 0.2975
vn -0.7602 0.4718 -0.4466
vn 0.4421 -0.2115 -0.8717
vn -0.3823 -0.5260 -0.7597
vn 0.6586 -0.6792 -0.3239
vt 0.550384 0.206938
vt 0.375000 0.305791
vt 0.375000 0.049496
vt 0.180791 0.500000
vt 0.330928 0.574320
vt 0.125000 0.700504
vt 0.804283 0.500000
vt 0.842867 0.681766
vt 0.658516 0.626313
vt 0.875000 0.500000
vt 0.501754 0.540833
vt 0.565165 0.799791
vt 0.325310 0.750000
vt 0.604031 0.069198
vt 0.375000 1.000000
vt 0.375000 0.799690
vt 0.578028 1.000000
vt 0.615335 0.592735
vt 0.589707 0.775249
vt 0.581909 0.353207
s 0
g Cube_Material
usemtl Material
f 510/891/559 512/892/559 511/893/559
f 512/894/560 515/895/560 511/896/560
f 516/897/561 513/898/561 517/899/561
f 513/898/562 516/897/562 510/900/562
f 518/901/563 509/902/563 514/903/563 515/895/563
f 511/893/564 513/904/564 510/891/564
f 511/905/565 514/906/565 509/902/565 513/907/565
f 515/895/566 514/903/566 511/896/566
f 517/908/567 513/898/567 509/909/567
f 509/902/568 518/901/568 517/908/568
f 518/901/569 515/895/569 512/892/569 516/910/569
f 518/901/570 516/910/570 517/908/570
f 512/892/571 510/891/571 516/910/571
o Cube
v 0.105335 -0.057255 1.709521
v 0.032381 0.100074 1.736371
v 0.070600 0.065129 1.639367
v 0.117106 0.129200 1.695055
v 0.018982 -0.004112 1.740131
v 0.144898 0.005486 1.646198
v 0.180057 0.077623 1.674156
v 0.104242 0.085293 1.805935
v 0.136110 -0.002926 1.801480
v 0.188852 0.045590 1.768969
vn -0.4806 0.7475 -0.4586
vn 0.1920 0.5607 -0.8054
vn -0.4523 -0.2072 0.8675
vn -0.6789 0.1135 0.7254
vn 0.8504 -0.5075 -0.1387
vn -0.9122 0.1030 -0.3965
vn -0.4786 -0.5349 -0.6962
vn 0.2708 0.2303 -0.9347
vn -0.2835 -0.7811 0.5563
vn 0.7196 -0.6760 0.1586
vn 0.5833 0.7582 0.2914
vn 0.4425 0.1149 0.8894
vn -0.1478 0.9253 0.3493
vt 0.550384 0.206938
vt 0.375000 0.305791
vt 0.375000 0.049496
vt 0.180791 0.500000
vt 0.330928 0.574320
vt 0.125000 0.700504
vt 0.804283 0.500000
vt 0.842867 0.681766
vt 0.658516 0.626313
vt 0.875000 0.500000
vt 0.501754 0.540833
vt 0.565165 0.799791
vt 0.325310 0.750000
vt 0.604031 0.069198
vt 0.375000 1.000000
vt 0.375000 0.799690
vt 0.578028 1.000000
vt 0.615335 0.592735
vt 0.589707 0.775249
vt 0.581909 0.353207
s 0
g Cube_Material
usemtl Material
f 520/911/572 522/912/572 521/913/572
f 522/914/573 525/915/573 521/916/573
f 526/917/574 523/918/574 527/919/574
f 523/918/575 526/917/575 520/920/575
f 528/921/576 519/922/576 524/923/576 525/915/576
f 521/913/577 523/924/577 520/911/577
f 521/925/578 524/926/578 519/922/578 523/927/578
f 525/915/579 524/923/579 521/916/579
f 527/928/580 523/918/580 519/929/580
f 519/922/581 528/921/581 527/928/581
f 528/921/582 525/915/582 522/912/582 526/930/582
f 528/921/583 526/930/583 527/928/583
f 522/912/584 520/911/584 526/930/584
