# Blender 4.1.0
# www.blender.org
mtllib Explosion20028.mtl
o Circle
v -0.024615 0.096888 -1.522372
v -0.024615 0.242742 -1.522372
v 0.122545 0.096888 -1.515142
v 0.122545 0.242742 -1.515142
v 0.268288 0.096888 -1.493523
v 0.268288 0.242742 -1.493523
v 0.411211 0.096888 -1.457723
v 0.411211 0.242742 -1.457723
v 0.549936 0.096888 -1.408086
v 0.549936 0.242742 -1.408086
v 0.683127 0.096888 -1.345092
v 0.683127 0.242742 -1.345092
v 0.809503 0.096888 -1.269345
v 0.809503 0.242742 -1.269345
v 0.927846 0.096888 -1.181576
v 0.927846 0.242742 -1.181576
v 1.037016 0.096888 -1.082630
v 1.037016 0.242742 -1.082630
v 1.135962 0.096888 -0.973460
v 1.135962 0.242742 -0.973460
v 1.223731 0.096888 -0.855117
v 1.223731 0.242742 -0.855117
v 1.299478 0.096888 -0.728741
v 1.299478 0.242742 -0.728741
v 1.362473 0.096888 -0.595549
v 1.362473 0.242742 -0.595549
v 1.412110 0.096888 -0.456824
v 1.412110 0.242742 -0.456824
v 1.447910 0.096888 -0.313902
v 1.447910 0.242742 -0.313902
v 1.469529 0.096888 -0.168159
v 1.469529 0.242742 -0.168159
v 1.476758 0.096888 -0.020998
v 1.476758 0.242742 -0.020998
v 1.469529 0.096888 0.126162
v 1.469529 0.242742 0.126162
v 1.447910 0.096888 0.271905
v 1.447910 0.242742 0.271905
v 1.412110 0.096888 0.414827
v 1.412110 0.242742 0.414827
v 1.362473 0.096888 0.553553
v 1.362473 0.242742 0.553553
v 1.299478 0.096888 0.686744
v 1.299478 0.242742 0.686744
v 1.223731 0.096888 0.813120
v 1.223731 0.242742 0.813120
v 1.135962 0.096888 0.931463
v 1.135962 0.242742 0.931463
v 1.037016 0.096888 1.040633
v 1.037016 0.242742 1.040633
v 0.927846 0.096888 1.139579
v 0.927846 0.242742 1.139579
v 0.809503 0.096888 1.227348
v 0.809503 0.242742 1.227348
v 0.683127 0.096888 1.303095
v 0.683127 0.242742 1.303095
v 0.549936 0.096888 1.366090
v 0.549936 0.242742 1.366090
v 0.411211 0.096888 1.415727
v 0.411211 0.242742 1.415727
v 0.268288 0.096888 1.451527
v 0.268288 0.242742 1.451527
v 0.122545 0.096888 1.473146
v 0.122545 0.242742 1.473146
v -0.024615 0.096888 1.480376
v -0.024615 0.242742 1.480376
v -0.171775 0.096888 1.473146
v -0.171775 0.242742 1.473146
v -0.317519 0.096888 1.451527
v -0.317519 0.242742 1.451527
v -0.460441 0.096888 1.415727
v -0.460441 0.242742 1.415727
v -0.599166 0.096888 1.366090
v -0.599166 0.242742 1.366090
v -0.732358 0.096888 1.303095
v -0.732358 0.242742 1.303095
v -0.858734 0.096888 1.227348
v -0.858734 0.242742 1.227348
v -0.977076 0.096888 1.139579
v -0.977076 0.242742 1.139579
v -1.086246 0.096888 1.040633
v -1.086246 0.242742 1.040633
v -1.185192 0.096888 0.931463
v -1.185192 0.242742 0.931463
v -1.272961 0.096888 0.813120
v -1.272961 0.242742 0.813120
v -1.348708 0.096888 0.686744
v -1.348708 0.242742 0.686744
v -1.411703 0.096888 0.553553
v -1.411703 0.242742 0.553553
v -1.461340 0.096888 0.414827
v -1.461340 0.242742 0.414827
v -1.497140 0.096888 0.271905
v -1.497140 0.242742 0.271905
v -1.518759 0.096888 0.126162
v -1.518759 0.242742 0.126162
v -1.525989 0.096888 -0.020998
v -1.525989 0.242742 -0.020998
v -1.518759 0.096888 -0.168159
v -1.518759 0.242742 -0.168159
v -1.497140 0.096888 -0.313902
v -1.497140 0.242742 -0.313902
v -1.461340 0.096888 -0.456824
v -1.461340 0.242742 -0.456824
v -1.411703 0.096888 -0.595549
v -1.411703 0.242742 -0.595549
v -1.348708 0.096888 -0.728741
v -1.348708 0.242742 -0.728741
v -1.272961 0.096888 -0.855117
v -1.272961 0.242742 -0.855117
v -1.185192 0.096888 -0.973460
v -1.185192 0.242742 -0.973460
v -1.086246 0.096888 -1.082630
v -1.086246 0.242742 -1.082630
v -0.977076 0.096888 -1.181576
v -0.977076 0.242742 -1.181576
v -0.858734 0.096888 -1.269345
v -0.858734 0.242742 -1.269345
v -0.732358 0.096888 -1.345092
v -0.732358 0.242742 -1.345092
v -0.599166 0.096888 -1.408086
v -0.599166 0.242742 -1.408086
v -0.460441 0.096888 -1.457723
v -0.460441 0.242742 -1.457723
v -0.317519 0.096888 -1.493523
v -0.317519 0.242742 -1.493523
v -0.171775 0.096888 -1.515142
v -0.171775 0.242742 -1.515142
vn 0.0491 -0.0000 -0.9988
vn 0.1467 -0.0000 -0.9892
vn 0.2430 -0.0000 -0.9700
vn 0.3369 -0.0000 -0.9415
vn 0.4276 -0.0000 -0.9040
vn 0.5141 -0.0000 -0.8577
vn 0.5957 -0.0000 -0.8032
vn 0.6716 -0.0000 -0.7410
vn 0.7410 -0.0000 -0.6716
vn 0.8032 -0.0000 -0.5957
vn 0.8577 -0.0000 -0.5141
vn 0.9040 -0.0000 -0.4276
vn 0.9415 -0.0000 -0.3369
vn 0.9700 -0.0000 -0.2430
vn 0.9892 -0.0000 -0.1467
vn 0.9988 -0.0000 -0.0491
vn 0.9988 -0.0000 0.0491
vn 0.9892 -0.0000 0.1467
vn 0.9700 -0.0000 0.2430
vn 0.9415 -0.0000 0.3369
vn 0.9040 -0.0000 0.4276
vn 0.8577 -0.0000 0.5141
vn 0.8032 -0.0000 0.5957
vn 0.7410 -0.0000 0.6716
vn 0.6716 -0.0000 0.7410
vn 0.5957 -0.0000 0.8032
vn 0.5141 -0.0000 0.8577
vn 0.4276 -0.0000 0.9040
vn 0.3369 -0.0000 0.9415
vn 0.2430 -0.0000 0.9700
vn 0.1467 -0.0000 0.9892
vn 0.0491 -0.0000 0.9988
vn -0.0491 -0.0000 0.9988
vn -0.1467 -0.0000 0.9892
vn -0.2430 -0.0000 0.9700
vn -0.3369 -0.0000 0.9415
vn -0.4276 -0.0000 0.9040
vn -0.5141 -0.0000 0.8577
vn -0.5957 -0.0000 0.8032
vn -0.6716 -0.0000 0.7410
vn -0.7410 -0.0000 0.6716
vn -0.8032 -0.0000 0.5957
vn -0.8577 -0.0000 0.5141
vn -0.9040 -0.0000 0.4276
vn -0.9415 -0.0000 0.3369
vn -0.9700 -0.0000 0.2430
vn -0.9892 -0.0000 0.1467
vn -0.9988 -0.0000 0.0491
vn -0.9988 -0.0000 -0.0491
vn -0.9892 -0.0000 -0.1467
vn -0.9700 -0.0000 -0.2430
vn -0.9415 -0.0000 -0.3369
vn -0.9040 -0.0000 -0.4276
vn -0.8577 -0.0000 -0.5141
vn -0.8032 -0.0000 -0.5957
vn -0.7410 -0.0000 -0.6716
vn -0.6716 -0.0000 -0.7410
vn -0.5957 -0.0000 -0.8032
vn -0.5141 -0.0000 -0.8577
vn -0.4276 -0.0000 -0.9040
vn -0.3369 -0.0000 -0.9415
vn -0.2430 -0.0000 -0.9700
vn -0.1467 -0.0000 -0.9892
vn -0.0491 -0.0000 -0.9988
vt 1.000000 0.500000
vt 1.000000 1.000000
vt 0.984375 1.000000
vt 0.984375 0.500000
vt 0.968750 1.000000
vt 0.968750 0.500000
vt 0.953125 1.000000
vt 0.953125 0.500000
vt 0.937500 1.000000
vt 0.937500 0.500000
vt 0.921875 1.000000
vt 0.921875 0.500000
vt 0.906250 1.000000
vt 0.906250 0.500000
vt 0.890625 1.000000
vt 0.890625 0.500000
vt 0.875000 1.000000
vt 0.875000 0.500000
vt 0.859375 1.000000
vt 0.859375 0.500000
vt 0.843750 1.000000
vt 0.843750 0.500000
vt 0.828125 1.000000
vt 0.828125 0.500000
vt 0.812500 1.000000
vt 0.812500 0.500000
vt 0.796875 1.000000
vt 0.796875 0.500000
vt 0.781250 1.000000
vt 0.781250 0.500000
vt 0.765625 1.000000
vt 0.765625 0.500000
vt 0.750000 1.000000
vt 0.750000 0.500000
vt 0.734375 1.000000
vt 0.734375 0.500000
vt 0.718750 1.000000
vt 0.718750 0.500000
vt 0.703125 1.000000
vt 0.703125 0.500000
vt 0.687500 1.000000
vt 0.687500 0.500000
vt 0.671875 1.000000
vt 0.671875 0.500000
vt 0.656250 1.000000
vt 0.656250 0.500000
vt 0.640625 1.000000
vt 0.640625 0.500000
vt 0.625000 1.000000
vt 0.625000 0.500000
vt 0.609375 1.000000
vt 0.609375 0.500000
vt 0.593750 1.000000
vt 0.593750 0.500000
vt 0.578125 1.000000
vt 0.578125 0.500000
vt 0.562500 1.000000
vt 0.562500 0.500000
vt 0.546875 1.000000
vt 0.546875 0.500000
vt 0.531250 1.000000
vt 0.531250 0.500000
vt 0.515625 1.000000
vt 0.515625 0.500000
vt 0.500000 1.000000
vt 0.500000 0.500000
vt 0.484375 1.000000
vt 0.484375 0.500000
vt 0.468750 1.000000
vt 0.468750 0.500000
vt 0.453125 1.000000
vt 0.453125 0.500000
vt 0.437500 1.000000
vt 0.437500 0.500000
vt 0.421875 1.000000
vt 0.421875 0.500000
vt 0.406250 1.000000
vt 0.406250 0.500000
vt 0.390625 1.000000
vt 0.390625 0.500000
vt 0.375000 1.000000
vt 0.375000 0.500000
vt 0.359375 1.000000
vt 0.359375 0.500000
vt 0.343750 1.000000
vt 0.343750 0.500000
vt 0.328125 1.000000
vt 0.328125 0.500000
vt 0.312500 1.000000
vt 0.312500 0.500000
vt 0.296875 1.000000
vt 0.296875 0.500000
vt 0.281250 1.000000
vt 0.281250 0.500000
vt 0.265625 1.000000
vt 0.265625 0.500000
vt 0.250000 1.000000
vt 0.250000 0.500000
vt 0.234375 1.000000
vt 0.234375 0.500000
vt 0.218750 1.000000
vt 0.218750 0.500000
vt 0.203125 1.000000
vt 0.203125 0.500000
vt 0.187500 1.000000
vt 0.187500 0.500000
vt 0.171875 1.000000
vt 0.171875 0.500000
vt 0.156250 1.000000
vt 0.156250 0.500000
vt 0.140625 1.000000
vt 0.140625 0.500000
vt 0.125000 1.000000
vt 0.125000 0.500000
vt 0.109375 1.000000
vt 0.109375 0.500000
vt 0.093750 1.000000
vt 0.093750 0.500000
vt 0.078125 1.000000
vt 0.078125 0.500000
vt 0.062500 1.000000
vt 0.062500 0.500000
vt 0.046875 1.000000
vt 0.046875 0.500000
vt 0.031250 1.000000
vt 0.031250 0.500000
vt 0.015625 1.000000
vt 0.015625 0.500000
vt 0.000000 1.000000
vt 0.000000 0.500000
s 0
g Circle_Material.001
usemtl Material.001
f 1/1/1 2/2/1 4/3/1 3/4/1
f 3/4/2 4/3/2 6/5/2 5/6/2
f 5/6/3 6/5/3 8/7/3 7/8/3
f 7/8/4 8/7/4 10/9/4 9/10/4
f 9/10/5 10/9/5 12/11/5 11/12/5
f 11/12/6 12/11/6 14/13/6 13/14/6
f 13/14/7 14/13/7 16/15/7 15/16/7
f 15/16/8 16/15/8 18/17/8 17/18/8
f 17/18/9 18/17/9 20/19/9 19/20/9
f 19/20/10 20/19/10 22/21/10 21/22/10
f 21/22/11 22/21/11 24/23/11 23/24/11
f 23/24/12 24/23/12 26/25/12 25/26/12
f 25/26/13 26/25/13 28/27/13 27/28/13
f 27/28/14 28/27/14 30/29/14 29/30/14
f 29/30/15 30/29/15 32/31/15 31/32/15
f 31/32/16 32/31/16 34/33/16 33/34/16
f 33/34/17 34/33/17 36/35/17 35/36/17
f 35/36/18 36/35/18 38/37/18 37/38/18
f 37/38/19 38/37/19 40/39/19 39/40/19
f 39/40/20 40/39/20 42/41/20 41/42/20
f 41/42/21 42/41/21 44/43/21 43/44/21
f 43/44/22 44/43/22 46/45/22 45/46/22
f 45/46/23 46/45/23 48/47/23 47/48/23
f 47/48/24 48/47/24 50/49/24 49/50/24
f 49/50/25 50/49/25 52/51/25 51/52/25
f 51/52/26 52/51/26 54/53/26 53/54/26
f 53/54/27 54/53/27 56/55/27 55/56/27
f 55/56/28 56/55/28 58/57/28 57/58/28
f 57/58/29 58/57/29 60/59/29 59/60/29
f 59/60/30 60/59/30 62/61/30 61/62/30
f 61/62/31 62/61/31 64/63/31 63/64/31
f 63/64/32 64/63/32 66/65/32 65/66/32
f 65/66/33 66/65/33 68/67/33 67/68/33
f 67/68/34 68/67/34 70/69/34 69/70/34
f 69/70/35 70/69/35 72/71/35 71/72/35
f 71/72/36 72/71/36 74/73/36 73/74/36
f 73/74/37 74/73/37 76/75/37 75/76/37
f 75/76/38 76/75/38 78/77/38 77/78/38
f 77/78/39 78/77/39 80/79/39 79/80/39
f 79/80/40 80/79/40 82/81/40 81/82/40
f 81/82/41 82/81/41 84/83/41 83/84/41
f 83/84/42 84/83/42 86/85/42 85/86/42
f 85/86/43 86/85/43 88/87/43 87/88/43
f 87/88/44 88/87/44 90/89/44 89/90/44
f 89/90/45 90/89/45 92/91/45 91/92/45
f 91/92/46 92/91/46 94/93/46 93/94/46
f 93/94/47 94/93/47 96/95/47 95/96/47
f 95/96/48 96/95/48 98/97/48 97/98/48
f 97/98/49 98/97/49 100/99/49 99/100/49
f 99/100/50 100/99/50 102/101/50 101/102/50
f 101/102/51 102/101/51 104/103/51 103/104/51
f 103/104/52 104/103/52 106/105/52 105/106/52
f 105/106/53 106/105/53 108/107/53 107/108/53
f 107/108/54 108/107/54 110/109/54 109/110/54
f 109/110/55 110/109/55 112/111/55 111/112/55
f 111/112/56 112/111/56 114/113/56 113/114/56
f 113/114/57 114/113/57 116/115/57 115/116/57
f 115/116/58 116/115/58 118/117/58 117/118/58
f 117/118/59 118/117/59 120/119/59 119/120/59
f 119/120/60 120/119/60 122/121/60 121/122/60
f 121/122/61 122/121/61 124/123/61 123/124/61
f 123/124/62 124/123/62 126/125/62 125/126/62
f 125/126/63 126/125/63 128/127/63 127/128/63
f 127/128/64 128/127/64 2/129/64 1/130/64
o Cube
v 4.285380 0.308401 -3.627895
v 5.009331 0.151093 -3.783088
v 4.664695 -0.173644 -3.756032
v 4.951240 -0.116966 -3.457725
v 4.637455 0.376764 -3.910870
v 4.367069 -0.079505 -3.487132
v 4.648554 -0.136451 -3.259370
v 4.993446 0.397558 -3.423682
v 4.616249 0.531819 -3.362425
v 4.683032 0.280038 -3.144811
vn 0.5954 -0.6690 -0.4449
vn 0.1148 -0.9903 0.0779
vn 0.2884 0.9243 -0.2502
vn 0.5713 0.6884 -0.4468
vn -0.7241 -0.0200 0.6894
vn 0.1695 -0.2591 -0.9509
vn -0.6245 -0.2997 -0.7212
vn -0.2476 -0.9667 0.0643
vn -0.3846 0.8843 -0.2649
vn -0.7171 0.3371 0.6101
vn 0.6288 -0.1728 0.7582
vn 0.3442 0.6645 0.6632
vn 0.9906 -0.0882 0.1042
vt 0.550384 0.206938
vt 0.375000 0.305791
vt 0.375000 0.049496
vt 0.180791 0.500000
vt 0.330928 0.574320
vt 0.125000 0.700504
vt 0.804283 0.500000
vt 0.842867 0.681766
vt 0.658516 0.626313
vt 0.875000 0.500000
vt 0.501754 0.540833
vt 0.565165 0.799791
vt 0.325310 0.750000
vt 0.604031 0.069198
vt 0.375000 1.000000
vt 0.375000 0.799690
vt 0.578028 1.000000
vt 0.615335 0.592735
vt 0.589707 0.775249
vt 0.581909 0.353207
s 0
g Cube_Material
usemtl Material
f 130/131/65 132/132/65 131/133/65
f 132/134/66 135/135/66 131/136/66
f 136/137/67 133/138/67 137/139/67
f 133/138/68 136/137/68 130/140/68
f 138/141/69 129/142/69 134/143/69 135/135/69
f 131/133/70 133/144/70 130/131/70
f 131/145/71 134/146/71 129/142/71 133/147/71
f 135/135/72 134/143/72 131/136/72
f 137/148/73 133/138/73 129/149/73
f 129/142/74 138/141/74 137/148/74
f 138/141/75 135/135/75 132/132/75 136/150/75
f 138/141/76 136/150/76 137/148/76
f 132/132/77 130/131/77 136/150/77
o Cube
v -5.978113 -0.134459 -1.940553
v -5.205366 -0.499636 -2.193979
v -5.308613 -0.304641 -1.680795
v -5.031125 -0.067203 -2.010043
v -5.730944 -0.571769 -2.133324
v -5.616429 0.070343 -1.670927
v -5.276853 0.251070 -1.866850
v -5.335510 -0.136729 -2.533309
v -5.776512 0.021879 -2.444298
v -5.510267 0.292386 -2.318816
vn 0.8116 -0.4729 0.3430
vn 0.6735 0.1998 0.7117
vn -0.3311 -0.4577 -0.8252
vn 0.0090 -0.6812 -0.7320
vn -0.4879 0.8472 0.2104
vn 0.1687 -0.9097 0.3796
vn -0.4207 -0.4795 0.7701
vn 0.3655 0.2767 0.8887
vn -0.8533 -0.2918 -0.4321
vn -0.6980 0.7138 -0.0578
vn 0.7012 0.5877 -0.4037
vn -0.0232 0.4394 -0.8980
vn 0.8637 -0.1424 -0.4835
vt 0.550384 0.206938
vt 0.375000 0.305791
vt 0.375000 0.049496
vt 0.180791 0.500000
vt 0.330928 0.574320
vt 0.125000 0.700504
vt 0.804283 0.500000
vt 0.842867 0.681766
vt 0.658516 0.626313
vt 0.875000 0.500000
vt 0.501754 0.540833
vt 0.565165 0.799791
vt 0.325310 0.750000
vt 0.604031 0.069198
vt 0.375000 1.000000
vt 0.375000 0.799690
vt 0.578028 1.000000
vt 0.615335 0.592735
vt 0.589707 0.775249
vt 0.581909 0.353207
s 0
g Cube_Material
usemtl Material
f 140/151/78 142/152/78 141/153/78
f 142/154/79 145/155/79 141/156/79
f 146/157/80 143/158/80 147/159/80
f 143/158/81 146/157/81 140/160/81
f 148/161/82 139/162/82 144/163/82 145/155/82
f 141/153/83 143/164/83 140/151/83
f 141/165/84 144/166/84 139/162/84 143/167/84
f 145/155/85 144/163/85 141/156/85
f 147/168/86 143/158/86 139/169/86
f 139/162/87 148/161/87 147/168/87
f 148/161/88 145/155/88 142/152/88 146/170/88
f 148/161/89 146/170/89 147/168/89
f 142/152/90 140/151/90 146/170/90
o Cube
v 4.834242 -0.197609 2.440165
v 5.352814 0.326182 2.179182
v 5.243296 -0.092569 1.949593
v 5.607550 -0.032019 2.172434
v 4.906895 0.246537 2.298157
v 5.136532 -0.410402 2.211750
v 5.502958 -0.368963 2.297679
v 5.447232 0.230932 2.609233
v 5.144196 -0.005135 2.775087
v 5.423711 -0.205505 2.706798
vn 0.4503 0.3358 -0.8273
vn 0.5214 -0.4348 -0.7342
vn -0.2985 0.7748 0.5574
vn -0.1090 0.9652 0.2377
vn -0.1326 -0.8863 0.4437
vn -0.3057 0.5180 -0.7989
vn -0.7381 -0.1722 -0.6523
vn 0.2410 -0.6644 -0.7074
vn -0.7799 0.3027 0.5478
vn -0.3141 -0.6681 0.6746
vn 0.9500 -0.0697 0.3042
vn 0.3567 0.1855 0.9156
vn 0.8135 0.5794 -0.0503
vt 0.550384 0.206938
vt 0.375000 0.305791
vt 0.375000 0.049496
vt 0.180791 0.500000
vt 0.330928 0.574320
vt 0.125000 0.700504
vt 0.804283 0.500000
vt 0.842867 0.681766
vt 0.658516 0.626313
vt 0.875000 0.500000
vt 0.501754 0.540833
vt 0.565165 0.799791
vt 0.325310 0.750000
vt 0.604031 0.069198
vt 0.375000 1.000000
vt 0.375000 0.799690
vt 0.578028 1.000000
vt 0.615335 0.592735
vt 0.589707 0.775249
vt 0.581909 0.353207
s 0
g Cube_Material
usemtl Material
f 150/171/91 152/172/91 151/173/91
f 152/174/92 155/175/92 151/176/92
f 156/177/93 153/178/93 157/179/93
f 153/178/94 156/177/94 150/180/94
f 158/181/95 149/182/95 154/183/95 155/175/95
f 151/173/96 153/184/96 150/171/96
f 151/185/97 154/186/97 149/182/97 153/187/97
f 155/175/98 154/183/98 151/176/98
f 157/188/99 153/178/99 149/189/99
f 149/182/100 158/181/100 157/188/100
f 158/181/101 155/175/101 152/172/101 156/190/101
f 158/181/102 156/190/102 157/188/102
f 152/172/103 150/171/103 156/190/103
o Cube
v 4.262217 0.142561 3.451409
v 3.808625 0.782959 3.079931
v 3.764390 0.638516 3.602593
v 3.438551 0.527393 3.269683
v 4.281177 0.601534 3.199235
v 3.839584 0.178644 3.681442
v 3.479875 0.162415 3.464363
v 3.764869 0.371248 2.799221
v 4.051899 0.040165 2.953684
v 3.687535 -0.043503 3.062438
vn -0.4882 0.8509 0.1938
vn -0.7322 0.2541 0.6319
vn 0.5741 0.1198 -0.8100
vn 0.3858 0.4914 -0.7808
vn -0.0182 -0.9396 0.3417
vn 0.2824 0.9182 0.2777
vn 0.5476 0.3131 0.7760
vn -0.5177 0.0617 0.8533
vn 0.9133 -0.2244 -0.3398
vn 0.2491 -0.9640 0.0930
vn -0.8700 -0.2191 -0.4416
vn -0.1353 -0.5128 -0.8478
vn -0.6392 0.4785 -0.6021
vt 0.550384 0.206938
vt 0.375000 0.305791
vt 0.375000 0.049496
vt 0.180791 0.500000
vt 0.330928 0.574320
vt 0.125000 0.700504
vt 0.804283 0.500000
vt 0.842867 0.681766
vt 0.658516 0.626313
vt 0.875000 0.500000
vt 0.501754 0.540833
vt 0.565165 0.799791
vt 0.325310 0.750000
vt 0.604031 0.069198
vt 0.375000 1.000000
vt 0.375000 0.799690
vt 0.578028 1.000000
vt 0.615335 0.592735
vt 0.589707 0.775249
vt 0.581909 0.353207
s 0
g Cube_Material
usemtl Material
f 160/191/104 162/192/104 161/193/104
f 162/194/105 165/195/105 161/196/105
f 166/197/106 163/198/106 167/199/106
f 163/198/107 166/197/107 160/200/107
f 168/201/108 159/202/108 164/203/108 165/195/108
f 161/193/109 163/204/109 160/191/109
f 161/205/110 164/206/110 159/202/110 163/207/110
f 165/195/111 164/203/111 161/196/111
f 167/208/112 163/198/112 159/209/112
f 159/202/113 168/201/113 167/208/113
f 168/201/114 165/195/114 162/192/114 166/210/114
f 168/201/115 166/210/115 167/208/115
f 162/192/116 160/191/116 166/210/116
o Cube
v 5.057184 0.421660 -0.822282
v 4.846976 -0.718834 -1.001463
v 5.162263 -0.445049 -0.396223
v 5.490658 -0.753365 -0.861021
v 4.568167 -0.076313 -0.942676
v 5.510180 0.080403 -0.500341
v 5.821791 -0.307809 -0.774386
v 5.171233 -0.470476 -1.540201
v 5.217199 0.154287 -1.497096
v 5.682856 -0.063408 -1.384527
vn -0.1494 -0.8693 0.4711
vn 0.5052 -0.5107 0.6957
vn -0.6666 0.1000 -0.7387
vn -0.7616 -0.2768 -0.5860
vn 0.6896 0.7240 0.0169
vn -0.7428 -0.3732 0.5558
vn -0.4452 0.3510 0.8238
vn 0.5170 -0.1763 0.8376
vn -0.5975 0.6868 -0.4138
vn 0.4574 0.8585 -0.2317
vn 0.6908 -0.5492 -0.4702
vn 0.2558 0.0478 -0.9656
vn 0.0380 -0.9160 -0.3994
vt 0.550384 0.206938
vt 0.375000 0.305791
vt 0.375000 0.049496
vt 0.180791 0.500000
vt 0.330928 0.574320
vt 0.125000 0.700504
vt 0.804283 0.500000
vt 0.842867 0.681766
vt 0.658516 0.626313
vt 0.875000 0.500000
vt 0.501754 0.540833
vt 0.565165 0.799791
vt 0.325310 0.750000
vt 0.604031 0.069198
vt 0.375000 1.000000
vt 0.375000 0.799690
vt 0.578028 1.000000
vt 0.615335 0.592735
vt 0.589707 0.775249
vt 0.581909 0.353207
s 0
g Cube_Material
usemtl Material
f 170/211/117 172/212/117 171/213/117
f 172/214/118 175/215/118 171/216/118
f 176/217/119 173/218/119 177/219/119
f 173/218/120 176/217/120 170/220/120
f 178/221/121 169/222/121 174/223/121 175/215/121
f 171/213/122 173/224/122 170/211/122
f 171/225/123 174/226/123 169/222/123 173/227/123
f 175/215/124 174/223/124 171/216/124
f 177/228/125 173/218/125 169/229/125
f 169/222/126 178/221/126 177/228/126
f 178/221/127 175/215/127 172/212/127 176/230/127
f 178/221/128 176/230/128 177/228/128
f 172/212/129 170/211/129 176/230/129
o Cube
v -3.552487 0.605059 -3.468243
v -4.150134 0.034803 -3.733644
v -3.760323 -0.075612 -3.371093
v -3.748892 -0.227158 -3.824894
v -4.062634 0.491805 -3.502184
v -3.359504 0.163956 -3.441774
v -3.360668 -0.086589 -3.779056
v -3.936489 0.242132 -4.135198
v -3.659664 0.592167 -4.007111
v -3.442471 0.283158 -4.100496
vn -0.4838 -0.8337 0.2662
vn 0.2912 -0.9052 0.3096
vn -0.6488 0.6549 -0.3876
vn -0.8939 0.3266 -0.3070
vn 0.9533 0.2944 -0.0668
vn -0.6971 -0.2132 0.6845
vn -0.0168 0.1463 0.9891
vn 0.5051 -0.6936 0.5135
vn -0.2180 0.9758 0.0200
vn 0.7814 0.6005 -0.1698
vn 0.1877 -0.5516 -0.8127
vn 0.0404 0.3150 -0.9482
vn -0.5300 -0.6049 -0.5943
vt 0.550384 0.206938
vt 0.375000 0.305791
vt 0.375000 0.049496
vt 0.180791 0.500000
vt 0.330928 0.574320
vt 0.125000 0.700504
vt 0.804283 0.500000
vt 0.842867 0.681766
vt 0.658516 0.626313
vt 0.875000 0.500000
vt 0.501754 0.540833
vt 0.565165 0.799791
vt 0.325310 0.750000
vt 0.604031 0.069198
vt 0.375000 1.000000
vt 0.375000 0.799690
vt 0.578028 1.000000
vt 0.615335 0.592735
vt 0.589707 0.775249
vt 0.581909 0.353207
s 0
g Cube_Material
usemtl Material
f 180/231/130 182/232/130 181/233/130
f 182/234/131 185/235/131 181/236/131
f 186/237/132 183/238/132 187/239/132
f 183/238/133 186/237/133 180/240/133
f 188/241/134 179/242/134 184/243/134 185/235/134
f 181/233/135 183/244/135 180/231/135
f 181/245/136 184/246/136 179/242/136 183/247/136
f 185/235/137 184/243/137 181/236/137
f 187/248/138 183/238/138 179/249/138
f 179/242/139 188/241/139 187/248/139
f 188/241/140 185/235/140 182/232/140 186/250/140
f 188/241/141 186/250/141 187/248/141
f 182/232/142 180/231/142 186/250/142
o Cube
v -4.844750 -0.209747 0.871423
v -4.785152 0.323679 1.772122
v -4.273027 0.200929 1.379291
v -4.367969 -0.079608 1.876028
v -5.039184 0.295937 1.198445
v -4.312696 -0.291984 1.094365
v -4.260014 -0.462425 1.569730
v -5.075037 -0.196510 1.873458
v -5.179976 -0.457929 1.388236
v -4.821766 -0.670802 1.606033
vn 0.5398 0.6846 0.4898
vn 0.9685 0.0861 0.2337
vn -0.9734 0.2067 0.0991
vn -0.7965 0.5078 0.3282
vn 0.1792 -0.8675 -0.4640
vn 0.1486 0.9824 -0.1133
vn 0.3169 0.5308 -0.7860
vn 0.9933 -0.0135 -0.1149
vn -0.8437 0.0225 -0.5364
vn -0.1811 -0.8355 -0.5187
vn 0.1520 -0.5048 0.8498
vn -0.6439 -0.6067 0.4661
vn -0.0386 0.2117 0.9766
vt 0.550384 0.206938
vt 0.375000 0.305791
vt 0.375000 0.049496
vt 0.180791 0.500000
vt 0.330928 0.574320
vt 0.125000 0.700504
vt 0.804283 0.500000
vt 0.842867 0.681766
vt 0.658516 0.626313
vt 0.875000 0.500000
vt 0.501754 0.540833
vt 0.565165 0.799791
vt 0.325310 0.750000
vt 0.604031 0.069198
vt 0.375000 1.000000
vt 0.375000 0.799690
vt 0.578028 1.000000
vt 0.615335 0.592735
vt 0.589707 0.775249
vt 0.581909 0.353207
s 0
g Cube_Material
usemtl Material
f 190/251/143 192/252/143 191/253/143
f 192/254/144 195/255/144 191/256/144
f 196/257/145 193/258/145 197/259/145
f 193/258/146 196/257/146 190/260/146
f 198/261/147 189/262/147 194/263/147 195/255/147
f 191/253/148 193/264/148 190/251/148
f 191/265/149 194/266/149 189/262/149 193/267/149
f 195/255/150 194/263/150 191/256/150
f 197/268/151 193/258/151 189/269/151
f 189/262/152 198/261/152 197/268/152
f 198/261/153 195/255/153 192/252/153 196/270/153
f 198/261/154 196/270/154 197/268/154
f 192/252/155 190/251/155 196/270/155
o Cube
v -1.051285 0.359127 5.383268
v -0.931520 0.043628 4.588186
v -0.914493 -0.253268 5.040392
v -0.526053 -0.122315 4.797623
v -1.255571 0.288075 4.908947
v -0.757470 -0.019009 5.416563
v -0.409706 -0.034857 5.184715
v -0.635283 0.438703 4.649717
v -0.734390 0.652463 5.047344
v -0.406673 0.450114 5.088267
vn -0.0598 -0.8355 -0.5463
vn 0.3718 -0.9233 0.0969
vn -0.3981 0.7629 -0.5094
vn -0.4352 0.4479 -0.7810
vn 0.4345 0.2753 0.8576
vn -0.7569 -0.5591 -0.3386
vn -0.7597 -0.4385 0.4802
vn 0.2502 -0.8653 0.4344
vn -0.5917 0.7947 0.1358
vn 0.2670 0.5869 0.7644
vn 0.9225 0.0035 -0.3859
vn 0.5283 0.7957 -0.2961
vn 0.4006 -0.1599 -0.9022
vt 0.550384 0.206938
vt 0.375000 0.305791
vt 0.375000 0.049496
vt 0.180791 0.500000
vt 0.330928 0.574320
vt 0.125000 0.700504
vt 0.804283 0.500000
vt 0.842867 0.681766
vt 0.658516 0.626313
vt 0.875000 0.500000
vt 0.501754 0.540833
vt 0.565165 0.799791
vt 0.325310 0.750000
vt 0.604031 0.069198
vt 0.375000 1.000000
vt 0.375000 0.799690
vt 0.578028 1.000000
vt 0.615335 0.592735
vt 0.589707 0.775249
vt 0.581909 0.353207
s 0
g Cube_Material
usemtl Material
f 200/271/156 202/272/156 201/273/156
f 202/274/157 205/275/157 201/276/157
f 206/277/158 203/278/158 207/279/158
f 203/278/159 206/277/159 200/280/159
f 208/281/160 199/282/160 204/283/160 205/275/160
f 201/273/161 203/284/161 200/271/161
f 201/285/162 204/286/162 199/282/162 203/287/162
f 205/275/163 204/283/163 201/276/163
f 207/288/164 203/278/164 199/289/164
f 199/282/165 208/281/165 207/288/165
f 208/281/166 205/275/166 202/272/166 206/290/166
f 208/281/167 206/290/167 207/288/167
f 202/272/168 200/271/168 206/290/168
o Cube
v 3.561121 0.263705 -0.639139
v 3.967526 0.211484 0.215120
v 3.382004 0.248645 0.124342
v 3.673786 0.649603 0.289244
v 3.891645 -0.042227 -0.286792
v 3.252137 0.517206 -0.296333
v 3.426134 0.850498 -0.033389
v 4.210503 0.607967 -0.070734
v 4.049005 0.601921 -0.551273
v 3.864413 0.923845 -0.344402
vn -0.1642 -0.2706 0.9486
vn -0.6981 0.2290 0.6784
vn 0.8929 -0.3396 -0.2958
vn 0.8793 -0.4652 0.1022
vn -0.4455 0.5914 -0.6721
vn -0.1274 -0.8773 0.4627
vn -0.6478 -0.7434 -0.1666
vn -0.9066 0.1679 0.3871
vn 0.4406 -0.4310 -0.7875
vn -0.1652 0.4644 -0.8701
vn 0.2831 0.8462 0.4514
vn 0.7553 0.6010 -0.2614
vn 0.5538 0.2362 0.7984
vt 0.550384 0.206938
vt 0.375000 0.305791
vt 0.375000 0.049496
vt 0.180791 0.500000
vt 0.330928 0.574320
vt 0.125000 0.700504
vt 0.804283 0.500000
vt 0.842867 0.681766
vt 0.658516 0.626313
vt 0.875000 0.500000
vt 0.501754 0.540833
vt 0.565165 0.799791
vt 0.325310 0.750000
vt 0.604031 0.069198
vt 0.375000 1.000000
vt 0.375000 0.799690
vt 0.578028 1.000000
vt 0.615335 0.592735
vt 0.589707 0.775249
vt 0.581909 0.353207
s 0
g Cube_Material
usemtl Material
f 210/291/169 212/292/169 211/293/169
f 212/294/170 215/295/170 211/296/170
f 216/297/171 213/298/171 217/299/171
f 213/298/172 216/297/172 210/300/172
f 218/301/173 209/302/173 214/303/173 215/295/173
f 211/293/174 213/304/174 210/291/174
f 211/305/175 214/306/175 209/302/175 213/307/175
f 215/295/176 214/303/176 211/296/176
f 217/308/177 213/298/177 209/309/177
f 209/302/178 218/301/178 217/308/178
f 218/301/179 215/295/179 212/292/179 216/310/179
f 218/301/180 216/310/180 217/308/180
f 212/292/181 210/291/181 216/310/181
o Cube
v 0.271630 -0.049831 -3.596844
v -0.017525 0.047909 -4.446190
v 0.440869 0.302099 -4.233840
v 0.009631 0.537252 -4.314790
v 0.158409 -0.296949 -4.068896
v 0.407031 0.406501 -3.754995
v 0.107134 0.679181 -3.918455
v -0.415856 0.133757 -4.123188
v -0.290707 0.022198 -3.670271
v -0.293185 0.424556 -3.713822
vn 0.3001 0.2318 -0.9253
vn 0.4956 0.7718 -0.3983
vn -0.5977 -0.8010 -0.0321
vn -0.5131 -0.7391 -0.4363
vn 0.0641 0.4149 0.9076
vn 0.5698 -0.4568 -0.6832
vn 0.9339 -0.3536 0.0528
vn 0.6997 0.7068 -0.1047
vn -0.1734 -0.8548 0.4891
vn -0.1154 0.1062 0.9876
vn -0.6679 0.7163 -0.2022
vn -0.9621 0.0235 0.2716
vn -0.5793 0.2412 -0.7786
vt 0.550384 0.206938
vt 0.375000 0.305791
vt 0.375000 0.049496
vt 0.180791 0.500000
vt 0.330928 0.574320
vt 0.125000 0.700504
vt 0.804283 0.500000
vt 0.842867 0.681766
vt 0.658516 0.626313
vt 0.875000 0.500000
vt 0.501754 0.540833
vt 0.565165 0.799791
vt 0.325310 0.750000
vt 0.604031 0.069198
vt 0.375000 1.000000
vt 0.375000 0.799690
vt 0.578028 1.000000
vt 0.615335 0.592735
vt 0.589707 0.775249
vt 0.581909 0.353207
s 0
g Cube_Material
usemtl Material
f 220/311/182 222/312/182 221/313/182
f 222/314/183 225/315/183 221/316/183
f 226/317/184 223/318/184 227/319/184
f 223/318/185 226/317/185 220/320/185
f 228/321/186 219/322/186 224/323/186 225/315/186
f 221/313/187 223/324/187 220/311/187
f 221/325/188 224/326/188 219/322/188 223/327/188
f 225/315/189 224/323/189 221/316/189
f 227/328/190 223/318/190 219/329/190
f 219/322/191 228/321/191 227/328/191
f 228/321/192 225/315/192 222/312/192 226/330/192
f 228/321/193 226/330/193 227/328/193
f 222/312/194 220/311/194 226/330/194
o Cube
v 3.273846 0.242517 -1.997251
v 2.563500 0.051092 -2.425709
v 3.032096 0.163492 -2.654569
v 2.671875 0.464454 -2.641306
v 2.907226 -0.106953 -2.083788
v 3.291046 0.463995 -2.415004
v 2.980006 0.707944 -2.532093
v 2.461654 0.405177 -2.101931
v 2.817686 0.473628 -1.826069
v 2.799379 0.756319 -2.081998
vn -0.3366 -0.3646 -0.8682
vn 0.1577 0.2311 -0.9601
vn -0.5065 -0.4139 0.7564
vn -0.6908 -0.5860 0.4236
vn 0.6257 0.7252 0.2873
vn 0.0086 -0.9044 -0.4266
vn 0.7544 -0.6245 -0.2024
vn 0.4986 0.2354 -0.8342
vn 0.1488 -0.3819 0.9121
vn 0.5279 0.5885 0.6123
vn -0.6308 0.7375 -0.2411
vn -0.5822 0.5247 0.6212
vn -0.9323 0.0582 -0.3570
vt 0.550384 0.206938
vt 0.375000 0.305791
vt 0.375000 0.049496
vt 0.180791 0.500000
vt 0.330928 0.574320
vt 0.125000 0.700504
vt 0.804283 0.500000
vt 0.842867 0.681766
vt 0.658516 0.626313
vt 0.875000 0.500000
vt 0.501754 0.540833
vt 0.565165 0.799791
vt 0.325310 0.750000
vt 0.604031 0.069198
vt 0.375000 1.000000
vt 0.375000 0.799690
vt 0.578028 1.000000
vt 0.615335 0.592735
vt 0.589707 0.775249
vt 0.581909 0.353207
s 0
g Cube_Material
usemtl Material
f 230/331/195 232/332/195 231/333/195
f 232/334/196 235/335/196 231/336/196
f 236/337/197 233/338/197 237/339/197
f 233/338/198 236/337/198 230/340/198
f 238/341/199 229/342/199 234/343/199 235/335/199
f 231/333/200 233/344/200 230/331/200
f 231/345/201 234/346/201 229/342/201 233/347/201
f 235/335/202 234/343/202 231/336/202
f 237/348/203 233/338/203 229/349/203
f 229/342/204 238/341/204 237/348/204
f 238/341/205 235/335/205 232/332/205 236/350/205
f 238/341/206 236/350/206 237/348/206
f 232/332/207 230/331/207 236/350/207
o Cube
v -3.509679 -0.521672 0.055315
v -3.531248 0.149323 -0.830910
v -3.046103 0.173055 -0.331493
v -3.500092 0.582310 -0.381187
v -3.494899 -0.479313 -0.614209
v -3.249591 0.015233 0.216155
v -3.515929 0.476950 0.140366
v -4.107594 0.158742 -0.551583
v -4.135876 -0.254064 -0.124103
v -4.084336 0.196205 0.083653
vn 0.5765 0.5683 -0.5871
vn 0.6496 0.7412 0.1694
vn -0.6223 -0.5421 -0.5647
vn -0.4177 -0.3176 -0.8512
vn -0.1741 -0.0846 0.9811
vn 0.7084 -0.1931 -0.6789
vn 0.8464 -0.5287 0.0648
vn 0.7523 0.5037 0.4247
vn -0.3759 -0.9243 -0.0668
vn -0.3926 -0.3479 0.8514
vn -0.5207 0.8521 0.0534
vn -0.9945 0.0998 0.0305
vn -0.3036 0.6968 -0.6498
vt 0.550384 0.206938
vt 0.375000 0.305791
vt 0.375000 0.049496
vt 0.180791 0.500000
vt 0.330928 0.574320
vt 0.125000 0.700504
vt 0.804283 0.500000
vt 0.842867 0.681766
vt 0.658516 0.626313
vt 0.875000 0.500000
vt 0.501754 0.540833
vt 0.565165 0.799791
vt 0.325310 0.750000
vt 0.604031 0.069198
vt 0.375000 1.000000
vt 0.375000 0.799690
vt 0.578028 1.000000
vt 0.615335 0.592735
vt 0.589707 0.775249
vt 0.581909 0.353207
s 0
g Cube_Material
usemtl Material
f 240/351/208 242/352/208 241/353/208
f 242/354/209 245/355/209 241/356/209
f 246/357/210 243/358/210 247/359/210
f 243/358/211 246/357/211 240/360/211
f 248/361/212 239/362/212 244/363/212 245/355/212
f 241/353/213 243/364/213 240/351/213
f 241/365/214 244/366/214 239/362/214 243/367/214
f 245/355/215 244/363/215 241/356/215
f 247/368/216 243/358/216 239/369/216
f 239/362/217 248/361/217 247/368/217
f 248/361/218 245/355/218 242/352/218 246/370/218
f 248/361/219 246/370/219 247/368/219
f 242/352/220 240/351/220 246/370/220
o Cube
v 1.515560 -0.203660 -1.888296
v 2.400419 0.619055 -1.958807
v 1.793594 0.603111 -2.413403
v 2.401841 0.405588 -2.604887
v 1.881532 0.327269 -1.545122
v 1.561747 -0.002686 -2.528529
v 2.076411 -0.028885 -2.807688
v 2.685924 -0.017068 -1.952954
v 2.234090 -0.464287 -1.829347
v 2.357834 -0.474280 -2.357684
vn 0.2053 0.9294 -0.3066
vn -0.1136 0.4888 -0.8650
vn 0.3956 -0.1492 0.9062
vn 0.5188 0.2404 0.8204
vn -0.4015 -0.8232 -0.4014
vn -0.2608 0.9121 0.3162
vn -0.8987 0.4103 0.1546
vn -0.4377 0.3267 -0.8377
vn -0.2232 -0.4160 0.8816
vn -0.3359 -0.9399 -0.0609
vn 0.7992 -0.1993 -0.5671
vn 0.7164 -0.6739 0.1805
vn 0.9048 0.4049 -0.1318
vt 0.550384 0.206938
vt 0.375000 0.305791
vt 0.375000 0.049496
vt 0.180791 0.500000
vt 0.330928 0.574320
vt 0.125000 0.700504
vt 0.804283 0.500000
vt 0.842867 0.681766
vt 0.658516 0.626313
vt 0.875000 0.500000
vt 0.501754 0.540833
vt 0.565165 0.799791
vt 0.325310 0.750000
vt 0.604031 0.069198
vt 0.375000 1.000000
vt 0.375000 0.799690
vt 0.578028 1.000000
vt 0.615335 0.592735
vt 0.589707 0.775249
vt 0.581909 0.353207
s 0
g Cube_Material
usemtl Material
f 250/371/221 252/372/221 251/373/221
f 252/374/222 255/375/222 251/376/222
f 256/377/223 253/378/223 257/379/223
f 253/378/224 256/377/224 250/380/224
f 258/381/225 249/382/225 254/383/225 255/375/225
f 251/373/226 253/384/226 250/371/226
f 251/385/227 254/386/227 249/382/227 253/387/227
f 255/375/228 254/383/228 251/376/228
f 257/388/229 253/378/229 249/389/229
f 249/382/230 258/381/230 257/388/230
f 258/381/231 255/375/231 252/372/231 256/390/231
f 258/381/232 256/390/232 257/388/232
f 252/372/233 250/371/233 256/390/233
o Cube
v -2.909948 -0.077061 -0.401178
v -3.388082 0.193660 0.385266
v -3.649170 0.009265 -0.123870
v -3.627632 0.516423 0.025608
v -3.007728 -0.174214 0.161206
v -3.378469 0.125682 -0.554990
v -3.504879 0.550482 -0.415717
v -3.018527 0.584700 0.258713
v -2.710310 0.422380 -0.118386
v -2.995505 0.702426 -0.277499
vn -0.8688 -0.1057 0.4838
vn -0.9591 0.1167 -0.2578
vn 0.7567 -0.0727 0.6497
vn 0.4238 -0.1095 0.8991
vn 0.2889 0.2525 -0.9235
vn -0.4352 -0.7517 0.4954
vn -0.2145 -0.9355 -0.2807
vn -0.8361 -0.0704 -0.5440
vn 0.9072 -0.4117 0.0866
vn 0.6134 0.1890 -0.7668
vn -0.2288 0.9665 0.1160
vn 0.6309 0.7517 0.1921
vn -0.3486 0.5702 0.7439
vt 0.550384 0.206938
vt 0.375000 0.305791
vt 0.375000 0.049496
vt 0.180791 0.500000
vt 0.330928 0.574320
vt 0.125000 0.700504
vt 0.804283 0.500000
vt 0.842867 0.681766
vt 0.658516 0.626313
vt 0.875000 0.500000
vt 0.501754 0.540833
vt 0.565165 0.799791
vt 0.325310 0.750000
vt 0.604031 0.069198
vt 0.375000 1.000000
vt 0.375000 0.799690
vt 0.578028 1.000000
vt 0.615335 0.592735
vt 0.589707 0.775249
vt 0.581909 0.353207
s 0
g Cube_Material
usemtl Material
f 260/391/234 262/392/234 261/393/234
f 262/394/235 265/395/235 261/396/235
f 266/397/236 263/398/236 267/399/236
f 263/398/237 266/397/237 260/400/237
f 268/401/238 259/402/238 264/403/238 265/395/238
f 261/393/239 263/404/239 260/391/239
f 261/405/240 264/406/240 259/402/240 263/407/240
f 265/395/241 264/403/241 261/396/241
f 267/408/242 263/398/242 259/409/242
f 259/402/243 268/401/243 267/408/243
f 268/401/244 265/395/244 262/392/244 266/410/244
f 268/401/245 266/410/245 267/408/245
f 262/392/246 260/391/246 266/410/246
o Cube
v -1.153239 -0.113205 -1.604822
v -1.493341 0.068810 -2.711266
v -0.870327 0.327502 -2.421369
v -1.391297 0.694065 -2.530654
v -1.324081 -0.407786 -2.224650
v -0.909774 0.458889 -1.798486
v -1.254075 0.856466 -2.011468
v -2.002232 0.231126 -2.298449
v -1.866841 0.061534 -1.710179
v -1.811550 0.581783 -1.758946
vn 0.3397 0.2094 -0.9169
vn 0.5844 0.7176 -0.3789
vn -0.6817 -0.7297 -0.0535
vn -0.5838 -0.6722 -0.4553
vn 0.0937 0.3933 0.9146
vn 0.5277 -0.5078 -0.6809
vn 0.8882 -0.4552 0.0621
vn 0.7749 0.6266 -0.0831
vn -0.2748 -0.8368 0.4735
vn -0.1200 0.1053 0.9872
vn -0.5814 0.7882 -0.2019
vn -0.9582 0.1259 0.2568
vn -0.5358 0.3139 -0.7839
vt 0.550384 0.206938
vt 0.375000 0.305791
vt 0.375000 0.049496
vt 0.180791 0.500000
vt 0.330928 0.574320
vt 0.125000 0.700504
vt 0.804283 0.500000
vt 0.842867 0.681766
vt 0.658516 0.626313
vt 0.875000 0.500000
vt 0.501754 0.540833
vt 0.565165 0.799791
vt 0.325310 0.750000
vt 0.604031 0.069198
vt 0.375000 1.000000
vt 0.375000 0.799690
vt 0.578028 1.000000
vt 0.615335 0.592735
vt 0.589707 0.775249
vt 0.581909 0.353207
s 0
g Cube_Material
usemtl Material
f 270/411/247 272/412/247 271/413/247
f 272/414/248 275/415/248 271/416/248
f 276/417/249 273/418/249 277/419/249
f 273/418/250 276/417/250 270/420/250
f 278/421/251 269/422/251 274/423/251 275/415/251
f 271/413/252 273/424/252 270/411/252
f 271/425/253 274/426/253 269/422/253 273/427/253
f 275/415/254 274/423/254 271/416/254
f 277/428/255 273/418/255 269/429/255
f 269/422/256 278/421/256 277/428/256
f 278/421/257 275/415/257 272/412/257 276/430/257
f 278/421/258 276/430/258 277/428/258
f 272/412/259 270/411/259 276/430/259
o Cube
v -1.687465 0.334109 -1.510078
v -2.501876 1.024532 -1.673185
v -2.123987 1.005324 -1.112051
v -2.679514 0.792124 -1.141067
v -1.926713 0.813698 -1.881155
v -1.926125 0.468695 -0.976007
v -2.439049 0.405870 -0.895280
v -2.701663 0.447664 -1.793654
v -2.258482 0.076780 -1.785298
v -2.516770 0.027999 -1.378499
vn -0.3572 0.8938 0.2711
vn -0.2103 0.4283 0.8788
vn -0.0649 -0.0999 -0.9929
vn -0.2357 0.2762 -0.9318
vn 0.3023 -0.8312 0.4666
vn 0.2877 0.9440 -0.1614
vn 0.8696 0.4616 0.1754
vn 0.1151 0.2838 0.9520
vn 0.5281 -0.3390 -0.7786
vn 0.3603 -0.9254 0.1178
vn -0.9256 -0.2772 0.2577
vn -0.5699 -0.6910 -0.4447
vn -0.9232 0.3520 -0.1545
vt 0.550384 0.206938
vt 0.375000 0.305791
vt 0.375000 0.049496
vt 0.180791 0.500000
vt 0.330928 0.574320
vt 0.125000 0.700504
vt 0.804283 0.500000
vt 0.842867 0.681766
vt 0.658516 0.626313
vt 0.875000 0.500000
vt 0.501754 0.540833
vt 0.565165 0.799791
vt 0.325310 0.750000
vt 0.604031 0.069198
vt 0.375000 1.000000
vt 0.375000 0.799690
vt 0.578028 1.000000
vt 0.615335 0.592735
vt 0.589707 0.775249
vt 0.581909 0.353207
s 0
g Cube_Material
usemtl Material
f 280/431/260 282/432/260 281/433/260
f 282/434/261 285/435/261 281/436/261
f 286/437/262 283/438/262 287/439/262
f 283/438/263 286/437/263 280/440/263
f 288/441/264 279/442/264 284/443/264 285/435/264
f 281/433/265 283/444/265 280/431/265
f 281/445/266 284/446/266 279/442/266 283/447/266
f 285/435/267 284/443/267 281/436/267
f 287/448/268 283/438/268 279/449/268
f 279/442/269 288/441/269 287/448/269
f 288/441/270 285/435/270 282/432/270 286/450/270
f 288/441/271 286/450/271 287/448/271
f 282/432/272 280/431/272 286/450/272
o Cube
v 2.038825 0.474454 -0.152328
v 2.162214 1.077299 0.216831
v 2.426378 0.922938 -0.112672
v 2.518420 0.895909 0.271328
v 1.891344 0.866371 -0.041771
v 2.433078 0.533436 -0.141069
v 2.593514 0.578324 0.163881
v 2.095096 0.769205 0.484205
v 1.978183 0.454579 0.297692
v 2.285921 0.419058 0.384753
vn 0.4590 0.8871 -0.0476
vn 0.9351 0.2900 -0.2037
vn -0.9185 0.1175 0.3775
vn -0.7682 0.5068 0.3912
vn 0.2568 -0.9568 -0.1362
vn -0.1576 0.8397 -0.5197
vn -0.0829 0.1586 -0.9839
vn 0.8809 0.0495 -0.4707
vn -0.9391 -0.3138 -0.1404
vn -0.0985 -0.9935 -0.0572
vn 0.5251 -0.0540 0.8493
vn -0.2919 -0.4052 0.8664
vn 0.1980 0.6175 0.7612
vt 0.550384 0.206938
vt 0.375000 0.305791
vt 0.375000 0.049496
vt 0.180791 0.500000
vt 0.330928 0.574320
vt 0.125000 0.700504
vt 0.804283 0.500000
vt 0.842867 0.681766
vt 0.658516 0.626313
vt 0.875000 0.500000
vt 0.501754 0.540833
vt 0.565165 0.799791
vt 0.325310 0.750000
vt 0.604031 0.069198
vt 0.375000 1.000000
vt 0.375000 0.799690
vt 0.578028 1.000000
vt 0.615335 0.592735
vt 0.589707 0.775249
vt 0.581909 0.353207
s 0
g Cube_Material
usemtl Material
f 290/451/273 292/452/273 291/453/273
f 292/454/274 295/455/274 291/456/274
f 296/457/275 293/458/275 297/459/275
f 293/458/276 296/457/276 290/460/276
f 298/461/277 289/462/277 294/463/277 295/455/277
f 291/453/278 293/464/278 290/451/278
f 291/465/279 294/466/279 289/462/279 293/467/279
f 295/455/280 294/463/280 291/456/280
f 297/468/281 293/458/281 289/469/281
f 289/462/282 298/461/282 297/468/282
f 298/461/283 295/455/283 292/452/283 296/470/283
f 298/461/284 296/470/284 297/468/284
f 292/452/285 290/451/285 296/470/285
o Cube
v -0.595287 0.747183 1.796511
v 0.325464 0.767992 2.305548
v 0.163034 0.321522 1.848307
v 0.170471 0.208130 2.417497
v -0.069073 1.078864 1.924799
v -0.396139 0.198464 1.832006
v -0.269679 0.001929 2.284831
v -0.122874 0.794741 2.712764
v -0.618262 0.859751 2.453068
v -0.575988 0.413516 2.600569
vn 0.9579 -0.2788 -0.0681
vn 0.4611 -0.8691 -0.1792
vn -0.0525 0.9406 0.3356
vn 0.3591 0.8699 0.3382
vn -0.8917 -0.4448 -0.0842
vn 0.7735 0.2938 -0.5616
vn 0.1047 0.0657 -0.9923
vn 0.2054 -0.8755 -0.4374
vn -0.4972 0.8521 -0.1635
vn -0.9948 -0.1001 -0.0177
vn 0.0802 -0.4849 0.8709
vn -0.4241 0.2477 0.8711
vn 0.6706 -0.0375 0.7408
vt 0.550384 0.206938
vt 0.375000 0.305791
vt 0.375000 0.049496
vt 0.180791 0.500000
vt 0.330928 0.574320
vt 0.125000 0.700504
vt 0.804283 0.500000
vt 0.842867 0.681766
vt 0.658516 0.626313
vt 0.875000 0.500000
vt 0.501754 0.540833
vt 0.565165 0.799791
vt 0.325310 0.750000
vt 0.604031 0.069198
vt 0.375000 1.000000
vt 0.375000 0.799690
vt 0.578028 1.000000
vt 0.615335 0.592735
vt 0.589707 0.775249
vt 0.581909 0.353207
s 0
g Cube_Material
usemtl Material
f 300/471/286 302/472/286 301/473/286
f 302/474/287 305/475/287 301/476/287
f 306/477/288 303/478/288 307/479/288
f 303/478/289 306/477/289 300/480/289
f 308/481/290 299/482/290 304/483/290 305/475/290
f 301/473/291 303/484/291 300/471/291
f 301/485/292 304/486/292 299/482/292 303/487/292
f 305/475/293 304/483/293 301/476/293
f 307/488/294 303/478/294 299/489/294
f 299/482/295 308/481/295 307/488/295
f 308/481/296 305/475/296 302/472/296 306/490/296
f 308/481/297 306/490/297 307/488/297
f 302/472/298 300/471/298 306/490/298
o Cube
v -2.202373 0.484739 -0.376560
v -1.467854 0.704170 -0.561971
v -1.842939 0.685752 -0.883241
v -1.525416 0.388762 -0.868267
v -1.848428 0.792811 -0.296504
v -2.131821 0.380299 -0.796370
v -1.829964 0.166756 -0.892027
v -1.450299 0.307728 -0.340621
v -1.831107 0.208794 -0.187926
v -1.763996 0.011050 -0.473369
vn 0.5333 0.5372 -0.6534
vn 0.0644 0.0185 -0.9978
vn 0.3248 0.1822 0.9281
vn 0.5835 0.4154 0.6978
vn -0.6863 -0.7257 -0.0481
vn 0.1041 0.9786 -0.1776
vn -0.6776 0.7077 -0.1999
vn -0.2964 0.0088 -0.9550
vn -0.3491 0.1613 0.9231
vn -0.6640 -0.6786 0.3140
vn 0.6579 -0.7016 -0.2736
vn 0.4150 -0.6993 0.5820
vn 0.9885 -0.0381 -0.1466
vt 0.550384 0.206938
vt 0.375000 0.305791
vt 0.375000 0.049496
vt 0.180791 0.500000
vt 0.330928 0.574320
vt 0.125000 0.700504
vt 0.804283 0.500000
vt 0.842867 0.681766
vt 0.658516 0.626313
vt 0.875000 0.500000
vt 0.501754 0.540833
vt 0.565165 0.799791
vt 0.325310 0.750000
vt 0.604031 0.069198
vt 0.375000 1.000000
vt 0.375000 0.799690
vt 0.578028 1.000000
vt 0.615335 0.592735
vt 0.589707 0.775249
vt 0.581909 0.353207
s 0
g Cube_Material
usemtl Material
f 310/491/299 312/492/299 311/493/299
f 312/494/300 315/495/300 311/496/300
f 316/497/301 313/498/301 317/499/301
f 313/498/302 316/497/302 310/500/302
f 318/501/303 309/502/303 314/503/303 315/495/303
f 311/493/304 313/504/304 310/491/304
f 311/505/305 314/506/305 309/502/305 313/507/305
f 315/495/306 314/503/306 311/496/306
f 317/508/307 313/498/307 309/509/307
f 309/502/308 318/501/308 317/508/308
f 318/501/309 315/495/309 312/492/309 316/510/309
f 318/501/310 316/510/310 317/508/310
f 312/492/311 310/491/311 316/510/311
o Cube
v -1.379627 0.194218 1.582217
v -0.386410 -0.327082 0.982016
v -0.932988 -0.739972 1.389765
v -0.286704 -0.611107 1.630821
v -1.019954 0.090461 0.911818
v -1.201048 -0.396180 1.927794
v -0.621785 -0.476743 2.121428
v -0.144358 0.217479 1.408713
v -0.669400 0.565302 1.667148
v -0.447907 0.228712 2.071005
vn 0.3257 -0.8467 -0.4207
vn 0.0735 -0.9480 0.3098
vn 0.2228 0.7754 -0.5909
vn 0.3887 0.4550 -0.8012
vn -0.3898 0.2678 0.8811
vn -0.2395 -0.5030 -0.8304
vn -0.8775 -0.3525 -0.3253
vn -0.2622 -0.8671 0.4235
vn -0.4015 0.8477 -0.3466
vn -0.3923 0.5893 0.7063
vn 0.8662 -0.0913 0.4913
vn 0.6209 0.7351 0.2721
vn 0.9426 -0.2275 -0.2444
vt 0.550384 0.206938
vt 0.375000 0.305791
vt 0.375000 0.049496
vt 0.180791 0.500000
vt 0.330928 0.574320
vt 0.125000 0.700504
vt 0.804283 0.500000
vt 0.842867 0.681766
vt 0.658516 0.626313
vt 0.875000 0.500000
vt 0.501754 0.540833
vt 0.565165 0.799791
vt 0.325310 0.750000
vt 0.604031 0.069198
vt 0.375000 1.000000
vt 0.375000 0.799690
vt 0.578028 1.000000
vt 0.615335 0.592735
vt 0.589707 0.775249
vt 0.581909 0.353207
s 0
g Cube_Material
usemtl Material
f 320/511/312 322/512/312 321/513/312
f 322/514/313 325/515/313 321/516/313
f 326/517/314 323/518/314 327/519/314
f 323/518/315 326/517/315 320/520/315
f 328/521/316 319/522/316 324/523/316 325/515/316
f 321/513/317 323/524/317 320/511/317
f 321/525/318 324/526/318 319/522/318 323/527/318
f 325/515/319 324/523/319 321/516/319
f 327/528/320 323/518/320 319/529/320
f 319/522/321 328/521/321 327/528/321
f 328/521/322 325/515/322 322/512/322 326/530/322
f 328/521/323 326/530/323 327/528/323
f 322/512/324 320/511/324 326/530/324
o Cube
v 4.055865 1.056329 -4.039950
v 5.009799 0.849048 -4.244444
v 4.555680 0.421149 -4.208794
v 4.933254 0.495833 -3.815721
v 4.519786 1.146410 -4.412819
v 4.163505 0.545195 -3.854470
v 4.534412 0.470159 -3.554352
v 4.988868 1.173810 -3.770864
v 4.491844 1.350723 -3.690145
v 4.579843 1.018957 -3.403400
vn 0.5954 -0.6690 -0.4449
vn 0.1148 -0.9903 0.0779
vn 0.2884 0.9243 -0.2502
vn 0.5713 0.6884 -0.4468
vn -0.7241 -0.0200 0.6894
vn 0.1695 -0.2591 -0.9509
vn -0.6245 -0.2997 -0.7212
vn -0.2476 -0.9667 0.0643
vn -0.3846 0.8843 -0.2649
vn -0.7171 0.3371 0.6101
vn 0.6288 -0.1728 0.7582
vn 0.3442 0.6645 0.6632
vn 0.9906 -0.0882 0.1042
vt 0.550384 0.206938
vt 0.375000 0.305791
vt 0.375000 0.049496
vt 0.180791 0.500000
vt 0.330928 0.574320
vt 0.125000 0.700504
vt 0.804283 0.500000
vt 0.842867 0.681766
vt 0.658516 0.626313
vt 0.875000 0.500000
vt 0.501754 0.540833
vt 0.565165 0.799791
vt 0.325310 0.750000
vt 0.604031 0.069198
vt 0.375000 1.000000
vt 0.375000 0.799690
vt 0.578028 1.000000
vt 0.615335 0.592735
vt 0.589707 0.775249
vt 0.581909 0.353207
s 0
g Cube_Material
usemtl Material
f 330/531/325 332/532/325 331/533/325
f 332/534/326 335/535/326 331/536/326
f 336/537/327 333/538/327 337/539/327
f 333/538/328 336/537/328 330/540/328
f 338/541/329 329/542/329 334/543/329 335/535/329
f 331/533/330 333/544/330 330/531/330
f 331/545/331 334/546/331 329/542/331 333/547/331
f 335/535/332 334/543/332 331/536/332
f 337/548/333 333/538/333 329/549/333
f 329/542/334 338/541/334 337/548/334
f 338/541/335 335/535/335 332/532/335 336/550/335
f 338/541/336 336/550/336 337/548/336
f 332/532/337 330/531/337 336/550/337
o Cube
v -5.937201 -0.106083 -1.725737
v -5.242054 -0.434588 -1.953714
v -5.334933 -0.259175 -1.492064
v -5.085310 -0.045581 -1.788249
v -5.714853 -0.499478 -1.899150
v -5.611837 0.078152 -1.483187
v -5.306362 0.240731 -1.659436
v -5.359129 -0.108125 -2.258967
v -5.755845 0.034555 -2.178895
v -5.516336 0.277897 -2.066015
vn 0.8116 -0.4729 0.3430
vn 0.6735 0.1998 0.7117
vn -0.3311 -0.4577 -0.8252
vn 0.0090 -0.6812 -0.7320
vn -0.4879 0.8472 0.2104
vn 0.1687 -0.9097 0.3796
vn -0.4207 -0.4795 0.7701
vn 0.3655 0.2767 0.8887
vn -0.8533 -0.2918 -0.4321
vn -0.6980 0.7138 -0.0578
vn 0.7012 0.5877 -0.4037
vn -0.0232 0.4394 -0.8980
vn 0.8637 -0.1424 -0.4835
vt 0.550384 0.206938
vt 0.375000 0.305791
vt 0.375000 0.049496
vt 0.180791 0.500000
vt 0.330928 0.574320
vt 0.125000 0.700504
vt 0.804283 0.500000
vt 0.842867 0.681766
vt 0.658516 0.626313
vt 0.875000 0.500000
vt 0.501754 0.540833
vt 0.565165 0.799791
vt 0.325310 0.750000
vt 0.604031 0.069198
vt 0.375000 1.000000
vt 0.375000 0.799690
vt 0.578028 1.000000
vt 0.615335 0.592735
vt 0.589707 0.775249
vt 0.581909 0.353207
s 0
g Cube_Material
usemtl Material
f 340/551/338 342/552/338 341/553/338
f 342/554/339 345/555/339 341/556/339
f 346/557/340 343/558/340 347/559/340
f 343/558/341 346/557/341 340/560/341
f 348/561/342 339/562/342 344/563/342 345/555/342
f 341/553/343 343/564/343 340/551/343
f 341/565/344 344/566/344 339/562/344 343/567/344
f 345/555/345 344/563/345 341/556/345
f 347/568/346 343/558/346 339/569/346
f 339/562/347 348/561/347 347/568/347
f 348/561/348 345/555/348 342/552/348 346/570/348
f 348/561/349 346/570/349 347/568/349
f 342/552/350 340/551/350 346/570/350
o Cube
v 4.123609 0.031039 2.889009
v 4.705197 0.618481 2.596311
v 4.582370 0.148844 2.338824
v 4.990889 0.216752 2.588743
v 4.205090 0.529158 2.729744
v 4.462633 -0.207612 2.632837
v 4.873587 -0.161138 2.729208
v 4.811089 0.511656 3.078623
v 4.471228 0.246903 3.264631
v 4.784710 0.022184 3.188043
vn 0.4503 0.3358 -0.8273
vn 0.5214 -0.4348 -0.7342
vn -0.2985 0.7748 0.5574
vn -0.1090 0.9652 0.2377
vn -0.1326 -0.8863 0.4437
vn -0.3057 0.5180 -0.7989
vn -0.7381 -0.1722 -0.6523
vn 0.2410 -0.6644 -0.7074
vn -0.7799 0.3027 0.5478
vn -0.3141 -0.6681 0.6746
vn 0.9500 -0.0697 0.3042
vn 0.3567 0.1855 0.9156
vn 0.8135 0.5794 -0.0503
vt 0.550384 0.206938
vt 0.375000 0.305791
vt 0.375000 0.049496
vt 0.180791 0.500000
vt 0.330928 0.574320
vt 0.125000 0.700504
vt 0.804283 0.500000
vt 0.842867 0.681766
vt 0.658516 0.626313
vt 0.875000 0.500000
vt 0.501754 0.540833
vt 0.565165 0.799791
vt 0.325310 0.750000
vt 0.604031 0.069198
vt 0.375000 1.000000
vt 0.375000 0.799690
vt 0.578028 1.000000
vt 0.615335 0.592735
vt 0.589707 0.775249
vt 0.581909 0.353207
s 0
g Cube_Material
usemtl Material
f 350/571/351 352/572/351 351/573/351
f 352/574/352 355/575/352 351/576/352
f 356/577/353 353/578/353 357/579/353
f 353/578/354 356/577/354 350/580/354
f 358/581/355 349/582/355 354/583/355 355/575/355
f 351/573/356 353/584/356 350/571/356
f 351/585/357 354/586/357 349/582/357 353/587/357
f 355/575/358 354/583/358 351/576/358
f 357/588/359 353/578/359 349/589/359
f 349/582/360 358/581/360 357/588/360
f 358/581/361 355/575/361 352/572/361 356/590/361
f 358/581/362 356/590/362 357/588/362
f 352/572/363 350/571/363 356/590/363
o Cube
v 4.698326 0.115684 3.408841
v 4.084433 0.982400 2.906083
v 4.024567 0.786910 3.613454
v 3.583575 0.636516 3.162893
v 4.723985 0.736859 3.067549
v 4.126334 0.164520 3.720168
v 3.639503 0.142555 3.426373
v 4.025214 0.425189 2.526169
v 4.413681 -0.022898 2.735220
v 3.920550 -0.136136 2.882406
vn -0.4882 0.8509 0.1938
vn -0.7322 0.2541 0.6319
vn 0.5741 0.1198 -0.8100
vn 0.3858 0.4914 -0.7808
vn -0.0182 -0.9396 0.3417
vn 0.2824 0.9182 0.2777
vn 0.5476 0.3131 0.7760
vn -0.5177 0.0617 0.8533
vn 0.9133 -0.2244 -0.3398
vn 0.2491 -0.9640 0.0930
vn -0.8700 -0.2191 -0.4416
vn -0.1353 -0.5128 -0.8478
vn -0.6392 0.4785 -0.6021
vt 0.550384 0.206938
vt 0.375000 0.305791
vt 0.375000 0.049496
vt 0.180791 0.500000
vt 0.330928 0.574320
vt 0.125000 0.700504
vt 0.804283 0.500000
vt 0.842867 0.681766
vt 0.658516 0.626313
vt 0.875000 0.500000
vt 0.501754 0.540833
vt 0.565165 0.799791
vt 0.325310 0.750000
vt 0.604031 0.069198
vt 0.375000 1.000000
vt 0.375000 0.799690
vt 0.578028 1.000000
vt 0.615335 0.592735
vt 0.589707 0.775249
vt 0.581909 0.353207
s 0
g Cube_Material
usemtl Material
f 360/591/364 362/592/364 361/593/364
f 362/594/365 365/595/365 361/596/365
f 366/597/366 363/598/366 367/599/366
f 363/598/367 366/597/367 360/600/367
f 368/601/368 359/602/368 364/603/368 365/595/368
f 361/593/369 363/604/369 360/591/369
f 361/605/370 364/606/370 359/602/370 363/607/370
f 365/595/371 364/603/371 361/596/371
f 367/608/372 363/598/372 359/609/372
f 359/602/373 368/601/373 367/608/373
f 368/601/374 365/595/374 362/592/374 366/610/374
f 368/601/375 366/610/375 367/608/375
f 362/592/376 360/591/376 366/610/376
o Cube
v 5.462058 0.866493 -0.698060
v 5.281388 -0.113741 -0.852063
v 5.552372 0.121573 -0.331870
v 5.834620 -0.143420 -0.731355
v 5.041756 0.438494 -0.801536
v 5.851399 0.573189 -0.421358
v 6.119223 0.239528 -0.656894
v 5.560081 0.099718 -1.315098
v 5.599587 0.636691 -1.278050
v 5.999811 0.449586 -1.181300
vn -0.1494 -0.8693 0.4711
vn 0.5052 -0.5107 0.6957
vn -0.6666 0.1000 -0.7387
vn -0.7616 -0.2768 -0.5860
vn 0.6896 0.7240 0.0169
vn -0.7428 -0.3732 0.5558
vn -0.4452 0.3510 0.8238
vn 0.5170 -0.1763 0.8376
vn -0.5975 0.6868 -0.4138
vn 0.4574 0.8585 -0.2317
vn 0.6908 -0.5492 -0.4702
vn 0.2558 0.0478 -0.9656
vn 0.0380 -0.9160 -0.3994
vt 0.550384 0.206938
vt 0.375000 0.305791
vt 0.375000 0.049496
vt 0.180791 0.500000
vt 0.330928 0.574320
vt 0.125000 0.700504
vt 0.804283 0.500000
vt 0.842867 0.681766
vt 0.658516 0.626313
vt 0.875000 0.500000
vt 0.501754 0.540833
vt 0.565165 0.799791
vt 0.325310 0.750000
vt 0.604031 0.069198
vt 0.375000 1.000000
vt 0.375000 0.799690
vt 0.578028 1.000000
vt 0.615335 0.592735
vt 0.589707 0.775249
vt 0.581909 0.353207
s 0
g Cube_Material
usemtl Material
f 370/611/377 372/612/377 371/613/377
f 372/614/378 375/615/378 371/616/378
f 376/617/379 373/618/379 377/619/379
f 373/618/380 376/617/380 370/620/380
f 378/621/381 369/622/381 374/623/381 375/615/381
f 371/613/382 373/624/382 370/611/382
f 371/625/383 374/626/383 369/622/383 373/627/383
f 375/615/384 374/623/384 371/616/384
f 377/628/385 373/618/385 369/629/385
f 369/622/386 378/621/386 377/628/386
f 378/621/387 375/615/387 372/612/387 376/630/387
f 378/621/388 376/630/388 377/628/388
f 372/612/389 370/611/389 376/630/389
o Cube
v -2.920449 0.301676 -3.435402
v -3.657393 -0.401493 -3.762662
v -3.176726 -0.537642 -3.315609
v -3.162631 -0.724511 -3.875180
v -3.549499 0.162025 -3.477254
v -2.682485 -0.242237 -3.402764
v -2.683921 -0.551179 -3.818658
v -3.393952 -0.145841 -4.257808
v -3.052606 0.285779 -4.099867
v -2.784791 -0.095252 -4.215018
vn -0.4838 -0.8337 0.2662
vn 0.2912 -0.9052 0.3096
vn -0.6488 0.6549 -0.3876
vn -0.8939 0.3266 -0.3070
vn 0.9533 0.2944 -0.0668
vn -0.6971 -0.2132 0.6845
vn -0.0168 0.1463 0.9891
vn 0.5051 -0.6936 0.5135
vn -0.2180 0.9758 0.0200
vn 0.7814 0.6005 -0.1698
vn 0.1877 -0.5516 -0.8127
vn 0.0404 0.3150 -0.9482
vn -0.5300 -0.6049 -0.5943
vt 0.550384 0.206938
vt 0.375000 0.305791
vt 0.375000 0.049496
vt 0.180791 0.500000
vt 0.330928 0.574320
vt 0.125000 0.700504
vt 0.804283 0.500000
vt 0.842867 0.681766
vt 0.658516 0.626313
vt 0.875000 0.500000
vt 0.501754 0.540833
vt 0.565165 0.799791
vt 0.325310 0.750000
vt 0.604031 0.069198
vt 0.375000 1.000000
vt 0.375000 0.799690
vt 0.578028 1.000000
vt 0.615335 0.592735
vt 0.589707 0.775249
vt 0.581909 0.353207
s 0
g Cube_Material
usemtl Material
f 380/631/390 382/632/390 381/633/390
f 382/634/391 385/635/391 381/636/391
f 386/637/392 383/638/392 387/639/392
f 383/638/393 386/637/393 380/640/393
f 388/641/394 379/642/394 384/643/394 385/635/394
f 381/633/395 383/644/395 380/631/395
f 381/645/396 384/646/396 379/642/396 383/647/396
f 385/635/397 384/643/397 381/636/397
f 387/648/398 383/638/398 379/649/398
f 379/642/399 388/641/399 387/648/399
f 388/641/400 385/635/400 382/632/400 386/650/400
f 388/641/401 386/650/401 387/648/401
f 382/632/402 380/631/402 386/650/402
o Cube
v -4.692915 0.532816 1.329352
v -4.646159 0.951303 2.035975
v -4.244383 0.855002 1.727789
v -4.318867 0.634913 2.117493
v -4.845454 0.929539 1.585910
v -4.275504 0.468299 1.504257
v -4.234173 0.334583 1.877193
v -4.873582 0.543201 2.115476
v -4.955909 0.338111 1.734806
v -4.674884 0.171106 1.905674
vn 0.5398 0.6846 0.4898
vn 0.9685 0.0861 0.2337
vn -0.9734 0.2067 0.0991
vn -0.7965 0.5078 0.3282
vn 0.1792 -0.8675 -0.4640
vn 0.1486 0.9824 -0.1133
vn 0.3169 0.5308 -0.7860
vn 0.9933 -0.0135 -0.1149
vn -0.8437 0.0225 -0.5364
vn -0.1811 -0.8355 -0.5187
vn 0.1520 -0.5048 0.8498
vn -0.6439 -0.6067 0.4661
vn -0.0386 0.2117 0.9766
vt 0.550384 0.206938
vt 0.375000 0.305791
vt 0.375000 0.049496
vt 0.180791 0.500000
vt 0.330928 0.574320
vt 0.125000 0.700504
vt 0.804283 0.500000
vt 0.842867 0.681766
vt 0.658516 0.626313
vt 0.875000 0.500000
vt 0.501754 0.540833
vt 0.565165 0.799791
vt 0.325310 0.750000
vt 0.604031 0.069198
vt 0.375000 1.000000
vt 0.375000 0.799690
vt 0.578028 1.000000
vt 0.615335 0.592735
vt 0.589707 0.775249
vt 0.581909 0.353207
s 0
g Cube_Material
usemtl Material
f 390/651/403 392/652/403 391/653/403
f 392/654/404 395/655/404 391/656/404
f 396/657/405 393/658/405 397/659/405
f 393/658/406 396/657/406 390/660/406
f 398/661/407 389/662/407 394/663/407 395/655/407
f 391/653/408 393/664/408 390/651/408
f 391/665/409 394/666/409 389/662/409 393/667/409
f 395/655/410 394/663/410 391/656/410
f 397/668/411 393/658/411 389/669/411
f 389/662/412 398/661/412 397/668/412
f 398/661/413 395/655/413 392/652/413 396/670/413
f 398/661/414 396/670/414 397/668/414
f 392/652/415 390/651/415 396/670/415
o Cube
v -1.121589 0.222452 4.606854
v -1.005677 -0.082897 3.837351
v -0.989197 -0.370242 4.275009
v -0.613254 -0.243502 4.040050
v -1.319302 0.153686 4.147792
v -0.837226 -0.143518 4.639078
v -0.500649 -0.158857 4.414688
v -0.718970 0.299468 3.896902
v -0.814888 0.506351 4.281737
v -0.497715 0.310512 4.321343
vn -0.0598 -0.8355 -0.5463
vn 0.3718 -0.9233 0.0969
vn -0.3981 0.7629 -0.5094
vn -0.4352 0.4479 -0.7810
vn 0.4345 0.2753 0.8576
vn -0.7569 -0.5591 -0.3386
vn -0.7597 -0.4385 0.4802
vn 0.2502 -0.8653 0.4344
vn -0.5917 0.7947 0.1358
vn 0.2670 0.5869 0.7644
vn 0.9225 0.0035 -0.3859
vn 0.5283 0.7957 -0.2961
vn 0.4006 -0.1599 -0.9022
vt 0.550384 0.206938
vt 0.375000 0.305791
vt 0.375000 0.049496
vt 0.180791 0.500000
vt 0.330928 0.574320
vt 0.125000 0.700504
vt 0.804283 0.500000
vt 0.842867 0.681766
vt 0.658516 0.626313
vt 0.875000 0.500000
vt 0.501754 0.540833
vt 0.565165 0.799791
vt 0.325310 0.750000
vt 0.604031 0.069198
vt 0.375000 1.000000
vt 0.375000 0.799690
vt 0.578028 1.000000
vt 0.615335 0.592735
vt 0.589707 0.775249
vt 0.581909 0.353207
s 0
g Cube_Material
usemtl Material
f 400/671/416 402/672/416 401/673/416
f 402/674/417 405/675/417 401/676/417
f 406/677/418 403/678/418 407/679/418
f 403/678/419 406/677/419 400/680/419
f 408/681/420 399/682/420 404/683/420 405/675/420
f 401/673/421 403/684/421 400/671/421
f 401/685/422 404/686/422 399/682/422 403/687/422
f 405/675/423 404/683/423 401/676/423
f 407/688/424 403/678/424 399/689/424
f 399/682/425 408/681/425 407/688/425
f 408/681/426 405/675/426 402/672/426 406/690/426
f 408/681/427 406/690/427 407/688/427
f 402/672/428 400/671/428 406/690/428
o Cube
v 3.969971 -0.459248 -0.406602
v 4.346515 -0.507632 0.384889
v 3.804015 -0.473202 0.300781
v 4.074358 -0.101705 0.453566
v 4.276209 -0.742702 -0.080144
v 3.683690 -0.224374 -0.088984
v 3.844902 0.084429 0.154640
v 4.571638 -0.140281 0.120038
v 4.422007 -0.145883 -0.325192
v 4.250978 0.152387 -0.133522
vn -0.1642 -0.2706 0.9486
vn -0.6981 0.2290 0.6784
vn 0.8929 -0.3396 -0.2958
vn 0.8793 -0.4652 0.1022
vn -0.4455 0.5914 -0.6721
vn -0.1274 -0.8773 0.4627
vn -0.6478 -0.7434 -0.1666
vn -0.9066 0.1679 0.3871
vn 0.4406 -0.4310 -0.7875
vn -0.1652 0.4644 -0.8701
vn 0.2831 0.8462 0.4514
vn 0.7553 0.6010 -0.2614
vn 0.5538 0.2362 0.7984
vt 0.550384 0.206938
vt 0.375000 0.305791
vt 0.375000 0.049496
vt 0.180791 0.500000
vt 0.330928 0.574320
vt 0.125000 0.700504
vt 0.804283 0.500000
vt 0.842867 0.681766
vt 0.658516 0.626313
vt 0.875000 0.500000
vt 0.501754 0.540833
vt 0.565165 0.799791
vt 0.325310 0.750000
vt 0.604031 0.069198
vt 0.375000 1.000000
vt 0.375000 0.799690
vt 0.578028 1.000000
vt 0.615335 0.592735
vt 0.589707 0.775249
vt 0.581909 0.353207
s 0
g Cube_Material
usemtl Material
f 410/691/429 412/692/429 411/693/429
f 412/694/430 415/695/430 411/696/430
f 416/697/431 413/698/431 417/699/431
f 413/698/432 416/697/432 410/700/432
f 418/701/433 409/702/433 414/703/433 415/695/433
f 411/693/434 413/704/434 410/691/434
f 411/705/435 414/706/435 409/702/435 413/707/435
f 415/695/436 414/703/436 411/696/436
f 417/708/437 413/698/437 409/709/437
f 409/702/438 418/701/438 417/708/438
f 418/701/439 415/695/439 412/692/439 416/710/439
f 418/701/440 416/710/440 417/708/440
f 412/692/441 410/691/441 416/710/441
o Cube
v 0.606146 0.142523 -3.434930
v 0.341585 0.231949 -4.212035
v 0.760990 0.464519 -4.017746
v 0.366432 0.679671 -4.091811
v 0.502556 -0.083577 -3.866831
v 0.730031 0.560041 -3.579630
v 0.455642 0.809528 -3.729186
v -0.022865 0.310495 -3.916506
v 0.091639 0.208425 -3.502112
v 0.089372 0.576561 -3.541959
vn 0.3001 0.2318 -0.9253
vn 0.4956 0.7718 -0.3983
vn -0.5977 -0.8010 -0.0321
vn -0.5131 -0.7391 -0.4363
vn 0.0641 0.4149 0.9076
vn 0.5698 -0.4568 -0.6832
vn 0.9339 -0.3536 0.0528
vn 0.6997 0.7068 -0.1047
vn -0.1734 -0.8548 0.4891
vn -0.1154 0.1062 0.9876
vn -0.6679 0.7163 -0.2022
vn -0.9621 0.0235 0.2716
vn -0.5793 0.2412 -0.7786
vt 0.550384 0.206938
vt 0.375000 0.305791
vt 0.375000 0.049496
vt 0.180791 0.500000
vt 0.330928 0.574320
vt 0.125000 0.700504
vt 0.804283 0.500000
vt 0.842867 0.681766
vt 0.658516 0.626313
vt 0.875000 0.500000
vt 0.501754 0.540833
vt 0.565165 0.799791
vt 0.325310 0.750000
vt 0.604031 0.069198
vt 0.375000 1.000000
vt 0.375000 0.799690
vt 0.578028 1.000000
vt 0.615335 0.592735
vt 0.589707 0.775249
vt 0.581909 0.353207
s 0
g Cube_Material
usemtl Material
f 420/711/442 422/712/442 421/713/442
f 422/714/443 425/715/443 421/716/443
f 426/717/444 423/718/444 427/719/444
f 423/718/445 426/717/445 420/720/445
f 428/721/446 419/722/446 424/723/446 425/715/446
f 421/713/447 423/724/447 420/711/447
f 421/725/448 424/726/448 419/722/448 423/727/448
f 425/715/449 424/723/449 421/716/449
f 427/728/450 423/718/450 419/729/450
f 419/722/451 428/721/451 427/728/451
f 428/721/452 425/715/452 422/712/452 426/730/452
f 428/721/453 426/730/453 427/728/453
f 422/712/454 420/711/454 426/730/454
o Cube
v 2.977150 0.130579 -2.375353
v 2.133222 -0.096844 -2.884383
v 2.689939 0.036693 -3.156282
v 2.261977 0.394251 -3.140525
v 2.541585 -0.284610 -2.478164
v 2.997584 0.393706 -2.871666
v 2.628052 0.683531 -3.010774
v 2.012224 0.323828 -2.499719
v 2.435208 0.405151 -2.171980
v 2.413458 0.741002 -2.476038
vn -0.3366 -0.3646 -0.8682
vn 0.1577 0.2311 -0.9601
vn -0.5065 -0.4139 0.7564
vn -0.6908 -0.5860 0.4236
vn 0.6257 0.7252 0.2873
vn 0.0086 -0.9044 -0.4266
vn 0.7544 -0.6245 -0.2024
vn 0.4986 0.2354 -0.8342
vn 0.1488 -0.3819 0.9121
vn 0.5279 0.5885 0.6123
vn -0.6308 0.7375 -0.2411
vn -0.5822 0.5247 0.6212
vn -0.9323 0.0582 -0.3570
vt 0.550384 0.206938
vt 0.375000 0.305791
vt 0.375000 0.049496
vt 0.180791 0.500000
vt 0.330928 0.574320
vt 0.125000 0.700504
vt 0.804283 0.500000
vt 0.842867 0.681766
vt 0.658516 0.626313
vt 0.875000 0.500000
vt 0.501754 0.540833
vt 0.565165 0.799791
vt 0.325310 0.750000
vt 0.604031 0.069198
vt 0.375000 1.000000
vt 0.375000 0.799690
vt 0.578028 1.000000
vt 0.615335 0.592735
vt 0.589707 0.775249
vt 0.581909 0.353207
s 0
g Cube_Material
usemtl Material
f 430/731/455 432/732/455 431/733/455
f 432/734/456 435/735/456 431/736/456
f 436/737/457 433/738/457 437/739/457
f 433/738/458 436/737/458 430/740/458
f 438/741/459 429/742/459 434/743/459 435/735/459
f 431/733/460 433/744/460 430/731/460
f 431/745/461 434/746/461 429/742/461 433/747/461
f 435/735/462 434/743/462 431/736/462
f 437/748/463 433/738/463 429/749/463
f 429/742/464 438/741/464 437/748/464
f 438/741/465 435/735/465 432/732/465 436/750/465
f 438/741/466 436/750/466 437/748/466
f 432/732/467 430/731/467 436/750/467
o Cube
v -3.472606 -0.229776 -0.013882
v -3.490380 0.323179 -0.744204
v -3.090582 0.342736 -0.332643
v -3.464705 0.679995 -0.373595
v -3.460426 -0.194869 -0.565624
v -3.258272 0.212678 0.118663
v -3.477756 0.593170 0.056207
v -3.965336 0.330940 -0.514015
v -3.988643 -0.009245 -0.161737
v -3.946170 0.361814 0.009471
vn 0.5765 0.5683 -0.5871
vn 0.6496 0.7412 0.1694
vn -0.6223 -0.5421 -0.5647
vn -0.4177 -0.3176 -0.8512
vn -0.1741 -0.0846 0.9811
vn 0.7084 -0.1931 -0.6789
vn 0.8464 -0.5287 0.0648
vn 0.7523 0.5037 0.4247
vn -0.3759 -0.9243 -0.0668
vn -0.3926 -0.3479 0.8514
vn -0.5207 0.8521 0.0534
vn -0.9945 0.0998 0.0305
vn -0.3036 0.6968 -0.6498
vt 0.550384 0.206938
vt 0.375000 0.305791
vt 0.375000 0.049496
vt 0.180791 0.500000
vt 0.330928 0.574320
vt 0.125000 0.700504
vt 0.804283 0.500000
vt 0.842867 0.681766
vt 0.658516 0.626313
vt 0.875000 0.500000
vt 0.501754 0.540833
vt 0.565165 0.799791
vt 0.325310 0.750000
vt 0.604031 0.069198
vt 0.375000 1.000000
vt 0.375000 0.799690
vt 0.578028 1.000000
vt 0.615335 0.592735
vt 0.589707 0.775249
vt 0.581909 0.353207
s 0
g Cube_Material
usemtl Material
f 440/751/468 442/752/468 441/753/468
f 442/754/469 445/755/469 441/756/469
f 446/757/470 443/758/470 447/759/470
f 443/758/471 446/757/471 440/760/471
f 448/761/472 439/762/472 444/763/472 445/755/472
f 441/753/473 443/764/473 440/751/473
f 441/765/474 444/766/474 439/762/474 443/767/474
f 445/755/475 444/763/475 441/756/475
f 447/768/476 443/758/476 439/769/476
f 439/762/477 448/761/477 447/768/477
f 448/761/478 445/755/478 442/752/478 446/770/478
f 448/761/479 446/770/479 447/768/479
f 442/752/480 440/751/480 446/770/480
o Cube
v 1.444236 0.146479 -2.330683
v 2.260260 0.905194 -2.395709
v 1.700640 0.890489 -2.814940
v 2.261571 0.708333 -2.991529
v 1.781738 0.636106 -2.014205
v 1.486830 0.331819 -2.921111
v 1.961457 0.307658 -3.178554
v 2.523555 0.318556 -2.390311
v 2.106870 -0.093873 -2.276320
v 2.220987 -0.103089 -2.763556
vn 0.2053 0.9294 -0.3066
vn -0.1136 0.4888 -0.8650
vn 0.3956 -0.1492 0.9062
vn 0.5188 0.2404 0.8204
vn -0.4015 -0.8232 -0.4014
vn -0.2608 0.9121 0.3162
vn -0.8987 0.4103 0.1546
vn -0.4377 0.3267 -0.8377
vn -0.2232 -0.4160 0.8816
vn -0.3359 -0.9399 -0.0609
vn 0.7992 -0.1993 -0.5671
vn 0.7164 -0.6739 0.1805
vn 0.9048 0.4049 -0.1318
vt 0.550384 0.206938
vt 0.375000 0.305791
vt 0.375000 0.049496
vt 0.180791 0.500000
vt 0.330928 0.574320
vt 0.125000 0.700504
vt 0.804283 0.500000
vt 0.842867 0.681766
vt 0.658516 0.626313
vt 0.875000 0.500000
vt 0.501754 0.540833
vt 0.565165 0.799791
vt 0.325310 0.750000
vt 0.604031 0.069198
vt 0.375000 1.000000
vt 0.375000 0.799690
vt 0.578028 1.000000
vt 0.615335 0.592735
vt 0.589707 0.775249
vt 0.581909 0.353207
s 0
g Cube_Material
usemtl Material
f 450/771/481 452/772/481 451/773/481
f 452/774/482 455/775/482 451/776/482
f 456/777/483 453/778/483 457/779/483
f 453/778/484 456/777/484 450/780/484
f 458/781/485 449/782/485 454/783/485 455/775/485
f 451/773/486 453/784/486 450/771/486
f 451/785/487 454/786/487 449/782/487 453/787/487
f 455/775/488 454/783/488 451/776/488
f 457/788/489 453/778/489 449/789/489
f 449/782/490 458/781/490 457/788/490
f 458/781/491 455/775/491 452/772/491 456/790/491
f 458/781/492 456/790/492 457/788/492
f 452/772/493 450/771/493 456/790/493
o Cube
v -2.865530 -0.114084 -0.546215
v -3.207456 0.079515 0.016190
v -3.394167 -0.052351 -0.347906
v -3.378764 0.310331 -0.241010
v -2.935456 -0.183561 -0.144041
v -3.200582 0.030902 -0.656211
v -3.290981 0.334687 -0.556613
v -2.943178 0.359157 -0.074311
v -2.722765 0.243078 -0.343984
v -2.926715 0.443346 -0.457770
vn -0.8688 -0.1057 0.4838
vn -0.9591 0.1167 -0.2578
vn 0.7567 -0.0727 0.6497
vn 0.4238 -0.1095 0.8991
vn 0.2889 0.2525 -0.9235
vn -0.4352 -0.7517 0.4954
vn -0.2145 -0.9355 -0.2807
vn -0.8361 -0.0704 -0.5440
vn 0.9072 -0.4117 0.0866
vn 0.6134 0.1890 -0.7668
vn -0.2288 0.9665 0.1160
vn 0.6309 0.7517 0.1921
vn -0.3486 0.5702 0.7439
vt 0.550384 0.206938
vt 0.375000 0.305791
vt 0.375000 0.049496
vt 0.180791 0.500000
vt 0.330928 0.574320
vt 0.125000 0.700504
vt 0.804283 0.500000
vt 0.842867 0.681766
vt 0.658516 0.626313
vt 0.875000 0.500000
vt 0.501754 0.540833
vt 0.565165 0.799791
vt 0.325310 0.750000
vt 0.604031 0.069198
vt 0.375000 1.000000
vt 0.375000 0.799690
vt 0.578028 1.000000
vt 0.615335 0.592735
vt 0.589707 0.775249
vt 0.581909 0.353207
s 0
g Cube_Material
usemtl Material
f 460/791/494 462/792/494 461/793/494
f 462/794/495 465/795/495 461/796/495
f 466/797/496 463/798/496 467/799/496
f 463/798/497 466/797/497 460/800/497
f 468/801/498 459/802/498 464/803/498 465/795/498
f 461/793/499 463/804/499 460/791/499
f 461/805/500 464/806/500 459/802/500 463/807/500
f 465/795/501 464/803/501 461/796/501
f 467/808/502 463/798/502 459/809/502
f 459/802/503 468/801/503 467/808/503
f 468/801/504 465/795/504 462/792/504 466/810/504
f 468/801/505 466/810/505 467/808/505
f 462/792/506 460/791/506 466/810/506
o Cube
v -0.972362 0.001828 -1.445142
v -1.267568 0.159815 -2.405526
v -0.726797 0.384357 -2.153898
v -1.178994 0.702531 -2.248756
v -1.120651 -0.253866 -1.983148
v -0.761037 0.498400 -1.613241
v -1.059886 0.843493 -1.798108
v -1.709280 0.300704 -2.047204
v -1.591762 0.153499 -1.536591
v -1.543770 0.605071 -1.578921
vn 0.3397 0.2094 -0.9169
vn 0.5844 0.7176 -0.3789
vn -0.6817 -0.7297 -0.0535
vn -0.5838 -0.6722 -0.4553
vn 0.0937 0.3933 0.9146
vn 0.5277 -0.5078 -0.6809
vn 0.8882 -0.4552 0.0621
vn 0.7749 0.6266 -0.0831
vn -0.2748 -0.8368 0.4735
vn -0.1200 0.1053 0.9872
vn -0.5814 0.7882 -0.2019
vn -0.9582 0.1259 0.2568
vn -0.5358 0.3139 -0.7839
vt 0.550384 0.206938
vt 0.375000 0.305791
vt 0.375000 0.049496
vt 0.180791 0.500000
vt 0.330928 0.574320
vt 0.125000 0.700504
vt 0.804283 0.500000
vt 0.842867 0.681766
vt 0.658516 0.626313
vt 0.875000 0.500000
vt 0.501754 0.540833
vt 0.565165 0.799791
vt 0.325310 0.750000
vt 0.604031 0.069198
vt 0.375000 1.000000
vt 0.375000 0.799690
vt 0.578028 1.000000
vt 0.615335 0.592735
vt 0.589707 0.775249
vt 0.581909 0.353207
s 0
g Cube_Material
usemtl Material
f 470/811/507 472/812/507 471/813/507
f 472/814/508 475/815/508 471/816/508
f 476/817/509 473/818/509 477/819/509
f 473/818/510 476/817/510 470/820/510
f 478/821/511 469/822/511 474/823/511 475/815/511
f 471/813/512 473/824/512 470/811/512
f 471/825/513 474/826/513 469/822/513 473/827/513
f 475/815/514 474/823/514 471/816/514
f 477/828/515 473/818/515 469/829/515
f 469/822/516 478/821/516 477/828/516
f 478/821/517 475/815/517 472/812/517 476/830/517
f 478/821/518 476/830/518 477/828/518
f 472/812/519 470/811/519 476/830/519
o Cube
v -1.411817 0.443512 -2.061731
v -2.081368 1.011128 -2.195827
v -1.770695 0.995337 -1.734502
v -2.227410 0.820059 -1.758356
v -1.608509 0.837795 -2.366805
v -1.608026 0.554158 -1.622656
v -2.029716 0.502508 -1.556288
v -2.245619 0.536868 -2.294868
v -1.881268 0.231953 -2.287998
v -2.093614 0.191849 -1.953557
vn -0.3572 0.8938 0.2711
vn -0.2103 0.4283 0.8788
vn -0.0649 -0.0999 -0.9929
vn -0.2357 0.2762 -0.9318
vn 0.3023 -0.8312 0.4666
vn 0.2877 0.9440 -0.1614
vn 0.8696 0.4616 0.1754
vn 0.1151 0.2838 0.9520
vn 0.5281 -0.3390 -0.7786
vn 0.3603 -0.9254 0.1178
vn -0.9256 -0.2772 0.2577
vn -0.5699 -0.6910 -0.4447
vn -0.9232 0.3520 -0.1545
vt 0.550384 0.206938
vt 0.375000 0.305791
vt 0.375000 0.049496
vt 0.180791 0.500000
vt 0.330928 0.574320
vt 0.125000 0.700504
vt 0.804283 0.500000
vt 0.842867 0.681766
vt 0.658516 0.626313
vt 0.875000 0.500000
vt 0.501754 0.540833
vt 0.565165 0.799791
vt 0.325310 0.750000
vt 0.604031 0.069198
vt 0.375000 1.000000
vt 0.375000 0.799690
vt 0.578028 1.000000
vt 0.615335 0.592735
vt 0.589707 0.775249
vt 0.581909 0.353207
s 0
g Cube_Material
usemtl Material
f 480/831/520 482/832/520 481/833/520
f 482/834/521 485/835/521 481/836/521
f 486/837/522 483/838/522 487/839/522
f 483/838/523 486/837/523 480/840/523
f 488/841/524 479/842/524 484/843/524 485/835/524
f 481/833/525 483/844/525 480/831/525
f 481/845/526 484/846/526 479/842/526 483/847/526
f 485/835/527 484/843/527 481/836/527
f 487/848/528 483/838/528 479/849/528
f 479/842/529 488/841/529 487/848/529
f 488/841/530 485/835/530 482/832/530 486/850/530
f 488/841/531 486/850/531 487/848/531
f 482/832/532 480/831/532 486/850/532
o Cube
v 2.234185 0.295835 -0.160253
v 2.422900 1.217851 0.404355
v 2.826925 0.981766 -0.099601
v 2.967697 0.940426 0.487705
v 2.008620 0.895250 0.008838
v 2.837170 0.386045 -0.143033
v 3.082548 0.454698 0.323371
v 2.320248 0.746641 0.813287
v 2.141436 0.265439 0.528026
v 2.612103 0.211111 0.661180
vn 0.4590 0.8871 -0.0476
vn 0.9351 0.2900 -0.2037
vn -0.9185 0.1175 0.3775
vn -0.7682 0.5068 0.3912
vn 0.2568 -0.9568 -0.1362
vn -0.1576 0.8397 -0.5197
vn -0.0829 0.1586 -0.9839
vn 0.8809 0.0495 -0.4707
vn -0.9391 -0.3138 -0.1404
vn -0.0985 -0.9935 -0.0572
vn 0.5251 -0.0540 0.8493
vn -0.2919 -0.4052 0.8664
vn 0.1980 0.6175 0.7612
vt 0.550384 0.206938
vt 0.375000 0.305791
vt 0.375000 0.049496
vt 0.180791 0.500000
vt 0.330928 0.574320
vt 0.125000 0.700504
vt 0.804283 0.500000
vt 0.842867 0.681766
vt 0.658516 0.626313
vt 0.875000 0.500000
vt 0.501754 0.540833
vt 0.565165 0.799791
vt 0.325310 0.750000
vt 0.604031 0.069198
vt 0.375000 1.000000
vt 0.375000 0.799690
vt 0.578028 1.000000
vt 0.615335 0.592735
vt 0.589707 0.775249
vt 0.581909 0.353207
s 0
g Cube_Material
usemtl Material
f 490/851/533 492/852/533 491/853/533
f 492/854/534 495/855/534 491/856/534
f 496/857/535 493/858/535 497/859/535
f 493/858/536 496/857/536 490/860/536
f 498/861/537 489/862/537 494/863/537 495/855/537
f 491/853/538 493/864/538 490/851/538
f 491/865/539 494/866/539 489/862/539 493/867/539
f 495/855/540 494/863/540 491/856/540
f 497/868/541 493/858/541 489/869/541
f 489/862/542 498/861/542 497/868/542
f 498/861/543 495/855/543 492/852/543 496/870/543
f 498/861/544 496/870/544 497/868/544
f 492/852/545 490/851/545 496/870/545
o Cube
v -0.202475 0.245134 1.458098
v 0.865270 0.269265 2.048401
v 0.676909 -0.248483 1.518164
v 0.685533 -0.379977 2.178223
v 0.407747 0.629766 1.606867
v 0.028466 -0.391186 1.499260
v 0.175115 -0.619097 2.024376
v 0.345357 0.300284 2.520628
v -0.229118 0.375673 2.219473
v -0.180096 -0.141802 2.390522
vn 0.9579 -0.2788 -0.0681
vn 0.4611 -0.8691 -0.1792
vn -0.0525 0.9406 0.3356
vn 0.3591 0.8699 0.3382
vn -0.8917 -0.4448 -0.0842
vn 0.7735 0.2938 -0.5616
vn 0.1047 0.0657 -0.9923
vn 0.2054 -0.8755 -0.4374
vn -0.4972 0.8521 -0.1635
vn -0.9948 -0.1001 -0.0177
vn 0.0802 -0.4849 0.8709
vn -0.4241 0.2477 0.8711
vn 0.6706 -0.0375 0.7408
vt 0.550384 0.206938
vt 0.375000 0.305791
vt 0.375000 0.049496
vt 0.180791 0.500000
vt 0.330928 0.574320
vt 0.125000 0.700504
vt 0.804283 0.500000
vt 0.842867 0.681766
vt 0.658516 0.626313
vt 0.875000 0.500000
vt 0.501754 0.540833
vt 0.565165 0.799791
vt 0.325310 0.750000
vt 0.604031 0.069198
vt 0.375000 1.000000
vt 0.375000 0.799690
vt 0.578028 1.000000
vt 0.615335 0.592735
vt 0.589707 0.775249
vt 0.581909 0.353207
s 0
g Cube_Material
usemtl Material
f 500/871/546 502/872/546 501/873/546
f 502/874/547 505/875/547 501/876/547
f 506/877/548 503/878/548 507/879/548
f 503/878/549 506/877/549 500/880/549
f 508/881/550 499/882/550 504/883/550 505/875/550
f 501/873/551 503/884/551 500/871/551
f 501/885/552 504/886/552 499/882/552 503/887/552
f 505/875/553 504/883/553 501/876/553
f 507/888/554 503/878/554 499/889/554
f 499/882/555 508/881/555 507/888/555
f 508/881/556 505/875/556 502/872/556 506/890/556
f 508/881/557 506/890/557 507/888/557
f 502/872/558 500/871/558 506/890/558
o Cube
v -1.886751 0.247589 -0.574634
v -1.117338 0.477444 -0.768853
v -1.510242 0.458150 -1.105385
v -1.177634 0.147052 -1.089700
v -1.515992 0.570295 -0.490775
v -1.812848 0.138187 -1.014387
v -1.496650 -0.085500 -1.114589
v -1.098949 0.062168 -0.536988
v -1.497847 -0.041466 -0.377039
v -1.427549 -0.248604 -0.676042
vn 0.5333 0.5372 -0.6534
vn 0.0644 0.0185 -0.9978
vn 0.3248 0.1822 0.9281
vn 0.5835 0.4154 0.6978
vn -0.6863 -0.7257 -0.0481
vn 0.1041 0.9786 -0.1776
vn -0.6776 0.7077 -0.1999
vn -0.2964 0.0088 -0.9550
vn -0.3491 0.1613 0.9231
vn -0.6640 -0.6786 0.3140
vn 0.6579 -0.7016 -0.2736
vn 0.4150 -0.6993 0.5820
vn 0.9885 -0.0381 -0.1466
vt 0.550384 0.206938
vt 0.375000 0.305791
vt 0.375000 0.049496
vt 0.180791 0.500000
vt 0.330928 0.574320
vt 0.125000 0.700504
vt 0.804283 0.500000
vt 0.842867 0.681766
vt 0.658516 0.626313
vt 0.875000 0.500000
vt 0.501754 0.540833
vt 0.565165 0.799791
vt 0.325310 0.750000
vt 0.604031 0.069198
vt 0.375000 1.000000
vt 0.375000 0.799690
vt 0.578028 1.000000
vt 0.615335 0.592735
vt 0.589707 0.775249
vt 0.581909 0.353207
s 0
g Cube_Material
usemtl Material
f 510/891/559 512/892/559 511/893/559
f 512/894/560 515/895/560 511/896/560
f 516/897/561 513/898/561 517/899/561
f 513/898/562 516/897/562 510/900/562
f 518/901/563 509/902/563 514/903/563 515/895/563
f 511/893/564 513/904/564 510/891/564
f 511/905/565 514/906/565 509/902/565 513/907/565
f 515/895/566 514/903/566 511/896/566
f 517/908/567 513/898/567 509/909/567
f 509/902/568 518/901/568 517/908/568
f 518/901/569 515/895/569 512/892/569 516/910/569
f 518/901/570 516/910/570 517/908/570
f 512/892/571 510/891/571 516/910/571
o Cube
v -1.009640 0.782141 1.522639
v -0.267907 0.392835 1.074409
v -0.676090 0.084489 1.378916
v -0.193446 0.180726 1.558936
v -0.741037 0.704656 1.021985
v -0.876277 0.341233 1.780715
v -0.443684 0.281068 1.925320
v -0.087142 0.799513 1.393066
v -0.479243 1.059266 1.586065
v -0.313833 0.807901 1.887664
vn 0.3257 -0.8467 -0.4207
vn 0.0735 -0.9480 0.3098
vn 0.2228 0.7754 -0.5909
vn 0.3887 0.4550 -0.8012
vn -0.3898 0.2678 0.8811
vn -0.2395 -0.5030 -0.8304
vn -0.8775 -0.3525 -0.3253
vn -0.2622 -0.8671 0.4235
vn -0.4015 0.8477 -0.3466
vn -0.3923 0.5893 0.7063
vn 0.8662 -0.0913 0.4913
vn 0.6209 0.7351 0.2721
vn 0.9426 -0.2275 -0.2444
vt 0.550384 0.206938
vt 0.375000 0.305791
vt 0.375000 0.049496
vt 0.180791 0.500000
vt 0.330928 0.574320
vt 0.125000 0.700504
vt 0.804283 0.500000
vt 0.842867 0.681766
vt 0.658516 0.626313
vt 0.875000 0.500000
vt 0.501754 0.540833
vt 0.565165 0.799791
vt 0.325310 0.750000
vt 0.604031 0.069198
vt 0.375000 1.000000
vt 0.375000 0.799690
vt 0.578028 1.000000
vt 0.615335 0.592735
vt 0.589707 0.775249
vt 0.581909 0.353207
s 0
g Cube_Material
usemtl Material
f 520/911/572 522/912/572 521/913/572
f 522/914/573 525/915/573 521/916/573
f 526/917/574 523/918/574 527/919/574
f 523/918/575 526/917/575 520/920/575
f 528/921/576 519/922/576 524/923/576 525/915/576
f 521/913/577 523/924/577 520/911/577
f 521/925/578 524/926/578 519/922/578 523/927/578
f 525/915/579 524/923/579 521/916/579
f 527/928/580 523/918/580 519/929/580
f 519/922/581 528/921/581 527/928/581
f 528/921/582 525/915/582 522/912/582 526/930/582
f 528/921/583 526/930/583 527/928/583
f 522/912/584 520/911/584 526/930/584
