# Blender 4.1.0
# www.blender.org
mtllib Explosion20016.mtl
o Circle
v -0.024615 0.096888 -1.522372
v -0.024615 0.242742 -1.522372
v 0.122545 0.096888 -1.515142
v 0.122545 0.242742 -1.515142
v 0.268288 0.096888 -1.493523
v 0.268288 0.242742 -1.493523
v 0.411211 0.096888 -1.457723
v 0.411211 0.242742 -1.457723
v 0.549936 0.096888 -1.408086
v 0.549936 0.242742 -1.408086
v 0.683127 0.096888 -1.345092
v 0.683127 0.242742 -1.345092
v 0.809503 0.096888 -1.269345
v 0.809503 0.242742 -1.269345
v 0.927846 0.096888 -1.181576
v 0.927846 0.242742 -1.181576
v 1.037016 0.096888 -1.082630
v 1.037016 0.242742 -1.082630
v 1.135962 0.096888 -0.973460
v 1.135962 0.242742 -0.973460
v 1.223731 0.096888 -0.855117
v 1.223731 0.242742 -0.855117
v 1.299478 0.096888 -0.728741
v 1.299478 0.242742 -0.728741
v 1.362473 0.096888 -0.595549
v 1.362473 0.242742 -0.595549
v 1.412110 0.096888 -0.456824
v 1.412110 0.242742 -0.456824
v 1.447910 0.096888 -0.313902
v 1.447910 0.242742 -0.313902
v 1.469529 0.096888 -0.168159
v 1.469529 0.242742 -0.168159
v 1.476758 0.096888 -0.020998
v 1.476758 0.242742 -0.020998
v 1.469529 0.096888 0.126162
v 1.469529 0.242742 0.126162
v 1.447910 0.096888 0.271905
v 1.447910 0.242742 0.271905
v 1.412110 0.096888 0.414827
v 1.412110 0.242742 0.414827
v 1.362473 0.096888 0.553553
v 1.362473 0.242742 0.553553
v 1.299478 0.096888 0.686744
v 1.299478 0.242742 0.686744
v 1.223731 0.096888 0.813120
v 1.223731 0.242742 0.813120
v 1.135962 0.096888 0.931463
v 1.135962 0.242742 0.931463
v 1.037016 0.096888 1.040633
v 1.037016 0.242742 1.040633
v 0.927846 0.096888 1.139579
v 0.927846 0.242742 1.139579
v 0.809503 0.096888 1.227348
v 0.809503 0.242742 1.227348
v 0.683127 0.096888 1.303095
v 0.683127 0.242742 1.303095
v 0.549936 0.096888 1.366090
v 0.549936 0.242742 1.366090
v 0.411211 0.096888 1.415727
v 0.411211 0.242742 1.415727
v 0.268288 0.096888 1.451527
v 0.268288 0.242742 1.451527
v 0.122545 0.096888 1.473146
v 0.122545 0.242742 1.473146
v -0.024615 0.096888 1.480376
v -0.024615 0.242742 1.480376
v -0.171775 0.096888 1.473146
v -0.171775 0.242742 1.473146
v -0.317519 0.096888 1.451527
v -0.317519 0.242742 1.451527
v -0.460441 0.096888 1.415727
v -0.460441 0.242742 1.415727
v -0.599166 0.096888 1.366090
v -0.599166 0.242742 1.366090
v -0.732358 0.096888 1.303095
v -0.732358 0.242742 1.303095
v -0.858734 0.096888 1.227348
v -0.858734 0.242742 1.227348
v -0.977076 0.096888 1.139579
v -0.977076 0.242742 1.139579
v -1.086246 0.096888 1.040633
v -1.086246 0.242742 1.040633
v -1.185192 0.096888 0.931463
v -1.185192 0.242742 0.931463
v -1.272961 0.096888 0.813120
v -1.272961 0.242742 0.813120
v -1.348708 0.096888 0.686744
v -1.348708 0.242742 0.686744
v -1.411703 0.096888 0.553553
v -1.411703 0.242742 0.553553
v -1.461340 0.096888 0.414827
v -1.461340 0.242742 0.414827
v -1.497140 0.096888 0.271905
v -1.497140 0.242742 0.271905
v -1.518759 0.096888 0.126162
v -1.518759 0.242742 0.126162
v -1.525989 0.096888 -0.020998
v -1.525989 0.242742 -0.020998
v -1.518759 0.096888 -0.168159
v -1.518759 0.242742 -0.168159
v -1.497140 0.096888 -0.313902
v -1.497140 0.242742 -0.313902
v -1.461340 0.096888 -0.456824
v -1.461340 0.242742 -0.456824
v -1.411703 0.096888 -0.595549
v -1.411703 0.242742 -0.595549
v -1.348708 0.096888 -0.728741
v -1.348708 0.242742 -0.728741
v -1.272961 0.096888 -0.855117
v -1.272961 0.242742 -0.855117
v -1.185192 0.096888 -0.973460
v -1.185192 0.242742 -0.973460
v -1.086246 0.096888 -1.082630
v -1.086246 0.242742 -1.082630
v -0.977076 0.096888 -1.181576
v -0.977076 0.242742 -1.181576
v -0.858734 0.096888 -1.269345
v -0.858734 0.242742 -1.269345
v -0.732358 0.096888 -1.345092
v -0.732358 0.242742 -1.345092
v -0.599166 0.096888 -1.408086
v -0.599166 0.242742 -1.408086
v -0.460441 0.096888 -1.457723
v -0.460441 0.242742 -1.457723
v -0.317519 0.096888 -1.493523
v -0.317519 0.242742 -1.493523
v -0.171775 0.096888 -1.515142
v -0.171775 0.242742 -1.515142
vn 0.0491 -0.0000 -0.9988
vn 0.1467 -0.0000 -0.9892
vn 0.2430 -0.0000 -0.9700
vn 0.3369 -0.0000 -0.9415
vn 0.4276 -0.0000 -0.9040
vn 0.5141 -0.0000 -0.8577
vn 0.5957 -0.0000 -0.8032
vn 0.6716 -0.0000 -0.7410
vn 0.7410 -0.0000 -0.6716
vn 0.8032 -0.0000 -0.5957
vn 0.8577 -0.0000 -0.5141
vn 0.9040 -0.0000 -0.4276
vn 0.9415 -0.0000 -0.3369
vn 0.9700 -0.0000 -0.2430
vn 0.9892 -0.0000 -0.1467
vn 0.9988 -0.0000 -0.0491
vn 0.9988 -0.0000 0.0491
vn 0.9892 -0.0000 0.1467
vn 0.9700 -0.0000 0.2430
vn 0.9415 -0.0000 0.3369
vn 0.9040 -0.0000 0.4276
vn 0.8577 -0.0000 0.5141
vn 0.8032 -0.0000 0.5957
vn 0.7410 -0.0000 0.6716
vn 0.6716 -0.0000 0.7410
vn 0.5957 -0.0000 0.8032
vn 0.5141 -0.0000 0.8577
vn 0.4276 -0.0000 0.9040
vn 0.3369 -0.0000 0.9415
vn 0.2430 -0.0000 0.9700
vn 0.1467 -0.0000 0.9892
vn 0.0491 -0.0000 0.9988
vn -0.0491 -0.0000 0.9988
vn -0.1467 -0.0000 0.9892
vn -0.2430 -0.0000 0.9700
vn -0.3369 -0.0000 0.9415
vn -0.4276 -0.0000 0.9040
vn -0.5141 -0.0000 0.8577
vn -0.5957 -0.0000 0.8032
vn -0.6716 -0.0000 0.7410
vn -0.7410 -0.0000 0.6716
vn -0.8032 -0.0000 0.5957
vn -0.8577 -0.0000 0.5141
vn -0.9040 -0.0000 0.4276
vn -0.9415 -0.0000 0.3369
vn -0.9700 -0.0000 0.2430
vn -0.9892 -0.0000 0.1467
vn -0.9988 -0.0000 0.0491
vn -0.9988 -0.0000 -0.0491
vn -0.9892 -0.0000 -0.1467
vn -0.9700 -0.0000 -0.2430
vn -0.9415 -0.0000 -0.3369
vn -0.9040 -0.0000 -0.4276
vn -0.8577 -0.0000 -0.5141
vn -0.8032 -0.0000 -0.5957
vn -0.7410 -0.0000 -0.6716
vn -0.6716 -0.0000 -0.7410
vn -0.5957 -0.0000 -0.8032
vn -0.5141 -0.0000 -0.8577
vn -0.4276 -0.0000 -0.9040
vn -0.3369 -0.0000 -0.9415
vn -0.2430 -0.0000 -0.9700
vn -0.1467 -0.0000 -0.9892
vn -0.0491 -0.0000 -0.9988
vt 1.000000 0.500000
vt 1.000000 1.000000
vt 0.984375 1.000000
vt 0.984375 0.500000
vt 0.968750 1.000000
vt 0.968750 0.500000
vt 0.953125 1.000000
vt 0.953125 0.500000
vt 0.937500 1.000000
vt 0.937500 0.500000
vt 0.921875 1.000000
vt 0.921875 0.500000
vt 0.906250 1.000000
vt 0.906250 0.500000
vt 0.890625 1.000000
vt 0.890625 0.500000
vt 0.875000 1.000000
vt 0.875000 0.500000
vt 0.859375 1.000000
vt 0.859375 0.500000
vt 0.843750 1.000000
vt 0.843750 0.500000
vt 0.828125 1.000000
vt 0.828125 0.500000
vt 0.812500 1.000000
vt 0.812500 0.500000
vt 0.796875 1.000000
vt 0.796875 0.500000
vt 0.781250 1.000000
vt 0.781250 0.500000
vt 0.765625 1.000000
vt 0.765625 0.500000
vt 0.750000 1.000000
vt 0.750000 0.500000
vt 0.734375 1.000000
vt 0.734375 0.500000
vt 0.718750 1.000000
vt 0.718750 0.500000
vt 0.703125 1.000000
vt 0.703125 0.500000
vt 0.687500 1.000000
vt 0.687500 0.500000
vt 0.671875 1.000000
vt 0.671875 0.500000
vt 0.656250 1.000000
vt 0.656250 0.500000
vt 0.640625 1.000000
vt 0.640625 0.500000
vt 0.625000 1.000000
vt 0.625000 0.500000
vt 0.609375 1.000000
vt 0.609375 0.500000
vt 0.593750 1.000000
vt 0.593750 0.500000
vt 0.578125 1.000000
vt 0.578125 0.500000
vt 0.562500 1.000000
vt 0.562500 0.500000
vt 0.546875 1.000000
vt 0.546875 0.500000
vt 0.531250 1.000000
vt 0.531250 0.500000
vt 0.515625 1.000000
vt 0.515625 0.500000
vt 0.500000 1.000000
vt 0.500000 0.500000
vt 0.484375 1.000000
vt 0.484375 0.500000
vt 0.468750 1.000000
vt 0.468750 0.500000
vt 0.453125 1.000000
vt 0.453125 0.500000
vt 0.437500 1.000000
vt 0.437500 0.500000
vt 0.421875 1.000000
vt 0.421875 0.500000
vt 0.406250 1.000000
vt 0.406250 0.500000
vt 0.390625 1.000000
vt 0.390625 0.500000
vt 0.375000 1.000000
vt 0.375000 0.500000
vt 0.359375 1.000000
vt 0.359375 0.500000
vt 0.343750 1.000000
vt 0.343750 0.500000
vt 0.328125 1.000000
vt 0.328125 0.500000
vt 0.312500 1.000000
vt 0.312500 0.500000
vt 0.296875 1.000000
vt 0.296875 0.500000
vt 0.281250 1.000000
vt 0.281250 0.500000
vt 0.265625 1.000000
vt 0.265625 0.500000
vt 0.250000 1.000000
vt 0.250000 0.500000
vt 0.234375 1.000000
vt 0.234375 0.500000
vt 0.218750 1.000000
vt 0.218750 0.500000
vt 0.203125 1.000000
vt 0.203125 0.500000
vt 0.187500 1.000000
vt 0.187500 0.500000
vt 0.171875 1.000000
vt 0.171875 0.500000
vt 0.156250 1.000000
vt 0.156250 0.500000
vt 0.140625 1.000000
vt 0.140625 0.500000
vt 0.125000 1.000000
vt 0.125000 0.500000
vt 0.109375 1.000000
vt 0.109375 0.500000
vt 0.093750 1.000000
vt 0.093750 0.500000
vt 0.078125 1.000000
vt 0.078125 0.500000
vt 0.062500 1.000000
vt 0.062500 0.500000
vt 0.046875 1.000000
vt 0.046875 0.500000
vt 0.031250 1.000000
vt 0.031250 0.500000
vt 0.015625 1.000000
vt 0.015625 0.500000
vt 0.000000 1.000000
vt 0.000000 0.500000
s 0
g Circle_Material.001
usemtl Material.001
f 1/1/1 2/2/1 4/3/1 3/4/1
f 3/4/2 4/3/2 6/5/2 5/6/2
f 5/6/3 6/5/3 8/7/3 7/8/3
f 7/8/4 8/7/4 10/9/4 9/10/4
f 9/10/5 10/9/5 12/11/5 11/12/5
f 11/12/6 12/11/6 14/13/6 13/14/6
f 13/14/7 14/13/7 16/15/7 15/16/7
f 15/16/8 16/15/8 18/17/8 17/18/8
f 17/18/9 18/17/9 20/19/9 19/20/9
f 19/20/10 20/19/10 22/21/10 21/22/10
f 21/22/11 22/21/11 24/23/11 23/24/11
f 23/24/12 24/23/12 26/25/12 25/26/12
f 25/26/13 26/25/13 28/27/13 27/28/13
f 27/28/14 28/27/14 30/29/14 29/30/14
f 29/30/15 30/29/15 32/31/15 31/32/15
f 31/32/16 32/31/16 34/33/16 33/34/16
f 33/34/17 34/33/17 36/35/17 35/36/17
f 35/36/18 36/35/18 38/37/18 37/38/18
f 37/38/19 38/37/19 40/39/19 39/40/19
f 39/40/20 40/39/20 42/41/20 41/42/20
f 41/42/21 42/41/21 44/43/21 43/44/21
f 43/44/22 44/43/22 46/45/22 45/46/22
f 45/46/23 46/45/23 48/47/23 47/48/23
f 47/48/24 48/47/24 50/49/24 49/50/24
f 49/50/25 50/49/25 52/51/25 51/52/25
f 51/52/26 52/51/26 54/53/26 53/54/26
f 53/54/27 54/53/27 56/55/27 55/56/27
f 55/56/28 56/55/28 58/57/28 57/58/28
f 57/58/29 58/57/29 60/59/29 59/60/29
f 59/60/30 60/59/30 62/61/30 61/62/30
f 61/62/31 62/61/31 64/63/31 63/64/31
f 63/64/32 64/63/32 66/65/32 65/66/32
f 65/66/33 66/65/33 68/67/33 67/68/33
f 67/68/34 68/67/34 70/69/34 69/70/34
f 69/70/35 70/69/35 72/71/35 71/72/35
f 71/72/36 72/71/36 74/73/36 73/74/36
f 73/74/37 74/73/37 76/75/37 75/76/37
f 75/76/38 76/75/38 78/77/38 77/78/38
f 77/78/39 78/77/39 80/79/39 79/80/39
f 79/80/40 80/79/40 82/81/40 81/82/40
f 81/82/41 82/81/41 84/83/41 83/84/41
f 83/84/42 84/83/42 86/85/42 85/86/42
f 85/86/43 86/85/43 88/87/43 87/88/43
f 87/88/44 88/87/44 90/89/44 89/90/44
f 89/90/45 90/89/45 92/91/45 91/92/45
f 91/92/46 92/91/46 94/93/46 93/94/46
f 93/94/47 94/93/47 96/95/47 95/96/47
f 95/96/48 96/95/48 98/97/48 97/98/48
f 97/98/49 98/97/49 100/99/49 99/100/49
f 99/100/50 100/99/50 102/101/50 101/102/50
f 101/102/51 102/101/51 104/103/51 103/104/51
f 103/104/52 104/103/52 106/105/52 105/106/52
f 105/106/53 106/105/53 108/107/53 107/108/53
f 107/108/54 108/107/54 110/109/54 109/110/54
f 109/110/55 110/109/55 112/111/55 111/112/55
f 111/112/56 112/111/56 114/113/56 113/114/56
f 113/114/57 114/113/57 116/115/57 115/116/57
f 115/116/58 116/115/58 118/117/58 117/118/58
f 117/118/59 118/117/59 120/119/59 119/120/59
f 119/120/60 120/119/60 122/121/60 121/122/60
f 121/122/61 122/121/61 124/123/61 123/124/61
f 123/124/62 124/123/62 126/125/62 125/126/62
f 125/126/63 126/125/63 128/127/63 127/128/63
f 127/128/64 128/127/64 2/129/64 1/130/64
o Cube
v 4.592435 0.370284 3.942449
v 3.528682 0.108192 3.702510
v 4.026201 -0.361303 3.863539
v 3.818862 -0.268243 3.288189
v 3.941316 0.445312 4.111590
v 4.587254 -0.198114 3.686728
v 4.349286 -0.277175 3.204980
v 3.757329 0.494190 3.237508
v 4.297030 0.707037 3.391104
v 4.352157 0.344991 3.046406
vn -0.7032 -0.6969 0.1407
vn -0.0395 -0.9885 -0.1457
vn -0.3964 0.9082 0.1342
vn -0.7272 0.6596 0.1900
vn 0.9440 0.0205 -0.3292
vn -0.5374 -0.2990 0.7885
vn 0.2816 -0.3157 0.9061
vn 0.2842 -0.9586 0.0170
vn 0.2117 0.8804 0.4243
vn 0.8931 0.3740 -0.2500
vn -0.2545 -0.1550 -0.9546
vn -0.0624 0.6832 -0.7276
vn -0.8562 -0.1028 -0.5063
vt 0.550384 0.206938
vt 0.375000 0.305791
vt 0.375000 0.049496
vt 0.180791 0.500000
vt 0.330928 0.574320
vt 0.125000 0.700504
vt 0.804283 0.500000
vt 0.842867 0.681766
vt 0.658516 0.626313
vt 0.875000 0.500000
vt 0.501754 0.540833
vt 0.565165 0.799791
vt 0.325310 0.750000
vt 0.604031 0.069198
vt 0.375000 1.000000
vt 0.375000 0.799690
vt 0.578028 1.000000
vt 0.615335 0.592735
vt 0.589707 0.775249
vt 0.581909 0.353207
s 0
g Cube_Material
usemtl Material
f 130/131/65 132/132/65 131/133/65
f 132/134/66 135/135/66 131/136/66
f 136/137/67 133/138/67 137/139/67
f 133/138/68 136/137/68 130/140/68
f 138/141/69 129/142/69 134/143/69 135/135/69
f 131/133/70 133/144/70 130/131/70
f 131/145/71 134/146/71 129/142/71 133/147/71
f 135/135/72 134/143/72 131/136/72
f 137/148/73 133/138/73 129/149/73
f 129/142/74 138/141/74 137/148/74
f 138/141/75 135/135/75 132/132/75 136/150/75
f 138/141/76 136/150/76 137/148/76
f 132/132/77 130/131/77 136/150/77
o Cube
v 4.247205 -0.041240 -1.092686
v 4.949497 0.064378 -1.690276
v 4.788523 -0.444679 -1.459614
v 5.203566 -0.185498 -1.309088
v 4.403432 0.123964 -1.604658
v 4.597036 -0.407136 -0.993604
v 5.025189 -0.293999 -0.916786
v 5.007368 0.417605 -1.293003
v 4.604731 0.416602 -1.002207
v 4.914150 0.214665 -0.810599
vn 0.5489 -0.4828 -0.6823
vn 0.5283 -0.8491 0.0054
vn -0.2563 0.9003 -0.3517
vn -0.0222 0.7487 -0.6625
vn -0.2632 -0.1464 0.9536
vn -0.1826 -0.3573 -0.9160
vn -0.6978 -0.6352 -0.3310
vn 0.2233 -0.9600 0.1691
vn -0.7838 0.6198 -0.0392
vn -0.4378 0.1673 0.8834
vn 0.9094 0.2120 0.3578
vn 0.3002 0.8571 0.4186
vn 0.8730 0.2944 -0.3889
vt 0.550384 0.206938
vt 0.375000 0.305791
vt 0.375000 0.049496
vt 0.180791 0.500000
vt 0.330928 0.574320
vt 0.125000 0.700504
vt 0.804283 0.500000
vt 0.842867 0.681766
vt 0.658516 0.626313
vt 0.875000 0.500000
vt 0.501754 0.540833
vt 0.565165 0.799791
vt 0.325310 0.750000
vt 0.604031 0.069198
vt 0.375000 1.000000
vt 0.375000 0.799690
vt 0.578028 1.000000
vt 0.615335 0.592735
vt 0.589707 0.775249
vt 0.581909 0.353207
s 0
g Cube_Material
usemtl Material
f 140/151/78 142/152/78 141/153/78
f 142/154/79 145/155/79 141/156/79
f 146/157/80 143/158/80 147/159/80
f 143/158/81 146/157/81 140/160/81
f 148/161/82 139/162/82 144/163/82 145/155/82
f 141/153/83 143/164/83 140/151/83
f 141/165/84 144/166/84 139/162/84 143/167/84
f 145/155/85 144/163/85 141/156/85
f 147/168/86 143/158/86 139/169/86
f 139/162/87 148/161/87 147/168/87
f 148/161/88 145/155/88 142/152/88 146/170/88
f 148/161/89 146/170/89 147/168/89
f 142/152/90 140/151/90 146/170/90
o Cube
v 0.232913 -0.006263 4.557365
v 1.512611 0.423077 4.849944
v 0.794134 0.754220 5.200840
v 1.196434 1.105743 4.657762
v 0.983637 -0.212944 4.854968
v 0.196355 0.737059 4.745271
v 0.581351 1.181944 4.427188
v 1.421472 0.410959 4.059559
v 0.779193 0.091805 3.881138
v 0.729656 0.705485 3.813852
vn 0.5510 0.4526 0.7011
vn -0.0802 0.8628 0.4991
vn 0.4931 -0.7954 -0.3524
vn 0.7662 -0.6378 -0.0786
vn -0.8483 0.1948 -0.4923
vn 0.3234 -0.2618 0.9093
vn -0.4960 -0.3177 0.8081
vn -0.4212 0.7397 0.5248
vn -0.1570 -0.9514 -0.2648
vn -0.7618 -0.1311 -0.6344
vn 0.4093 0.7158 -0.5658
vn 0.3033 -0.0796 -0.9495
vn 0.9133 0.3917 -0.1113
vt 0.550384 0.206938
vt 0.375000 0.305791
vt 0.375000 0.049496
vt 0.180791 0.500000
vt 0.330928 0.574320
vt 0.125000 0.700504
vt 0.804283 0.500000
vt 0.842867 0.681766
vt 0.658516 0.626313
vt 0.875000 0.500000
vt 0.501754 0.540833
vt 0.565165 0.799791
vt 0.325310 0.750000
vt 0.604031 0.069198
vt 0.375000 1.000000
vt 0.375000 0.799690
vt 0.578028 1.000000
vt 0.615335 0.592735
vt 0.589707 0.775249
vt 0.581909 0.353207
s 0
g Cube_Material
usemtl Material
f 150/171/91 152/172/91 151/173/91
f 152/174/92 155/175/92 151/176/92
f 156/177/93 153/178/93 157/179/93
f 153/178/94 156/177/94 150/180/94
f 158/181/95 149/182/95 154/183/95 155/175/95
f 151/173/96 153/184/96 150/171/96
f 151/185/97 154/186/97 149/182/97 153/187/97
f 155/175/98 154/183/98 151/176/98
f 157/188/99 153/178/99 149/189/99
f 149/182/100 158/181/100 157/188/100
f 158/181/101 155/175/101 152/172/101 156/190/101
f 158/181/102 156/190/102 157/188/102
f 152/172/103 150/171/103 156/190/103
o Cube
v -3.336725 -0.109228 3.732279
v -3.063215 0.083456 3.160165
v -2.849304 0.003676 3.507075
v -2.916162 0.341687 3.384950
v -3.281265 -0.192072 3.344894
v -3.029514 0.078286 3.810554
v -2.987262 0.373738 3.692543
v -3.347328 0.323246 3.247208
v -3.529460 0.201549 3.526124
v -3.354519 0.425687 3.612638
vn 0.8486 -0.0231 -0.5286
vn 0.9472 0.2568 0.1922
vn -0.7732 -0.2124 -0.5976
vn -0.4519 -0.2217 -0.8641
vn -0.2712 0.2722 0.9232
vn 0.5050 -0.7194 -0.4769
vn 0.3518 -0.8795 0.3205
vn 0.8654 0.0742 0.4956
vn -0.8475 -0.5308 -0.0078
vn -0.5921 0.1571 0.7904
vn 0.0915 0.9785 -0.1849
vn -0.7347 0.6493 -0.1965
vn 0.2300 0.5612 -0.7951
vt 0.550384 0.206938
vt 0.375000 0.305791
vt 0.375000 0.049496
vt 0.180791 0.500000
vt 0.330928 0.574320
vt 0.125000 0.700504
vt 0.804283 0.500000
vt 0.842867 0.681766
vt 0.658516 0.626313
vt 0.875000 0.500000
vt 0.501754 0.540833
vt 0.565165 0.799791
vt 0.325310 0.750000
vt 0.604031 0.069198
vt 0.375000 1.000000
vt 0.375000 0.799690
vt 0.578028 1.000000
vt 0.615335 0.592735
vt 0.589707 0.775249
vt 0.581909 0.353207
s 0
g Cube_Material
usemtl Material
f 160/191/104 162/192/104 161/193/104
f 162/194/105 165/195/105 161/196/105
f 166/197/106 163/198/106 167/199/106
f 163/198/107 166/197/107 160/200/107
f 168/201/108 159/202/108 164/203/108 165/195/108
f 161/193/109 163/204/109 160/191/109
f 161/205/110 164/206/110 159/202/110 163/207/110
f 165/195/111 164/203/111 161/196/111
f 167/208/112 163/198/112 159/209/112
f 159/202/113 168/201/113 167/208/113
f 168/201/114 165/195/114 162/192/114 166/210/114
f 168/201/115 166/210/115 167/208/115
f 162/192/116 160/191/116 166/210/116
o Cube
v 3.759260 0.306859 1.931710
v 3.088914 0.107175 1.540780
v 3.510011 -0.166281 1.539208
v 3.380249 0.082916 1.198031
v 3.288581 0.201464 1.966915
v 3.874831 0.070431 1.572470
v 3.751111 0.178455 1.220920
v 3.198759 0.542655 1.433984
v 3.522335 0.678663 1.680259
v 3.645667 0.605598 1.350774
vn -0.5059 -0.7768 -0.3750
vn 0.2300 -0.7421 -0.6295
vn -0.6279 0.6031 0.4919
vn -0.8858 0.3085 0.3468
vn 0.9277 0.3655 -0.0767
vn -0.4974 -0.7682 0.4030
vn 0.2868 -0.6966 0.6576
vn 0.5219 -0.7463 -0.4130
vn -0.0566 0.5343 0.8434
vn 0.7807 0.6045 0.1582
vn -0.1346 0.3403 -0.9306
vn -0.1845 0.9427 -0.2781
vn -0.7604 0.0327 -0.6486
vt 0.550384 0.206938
vt 0.375000 0.305791
vt 0.375000 0.049496
vt 0.180791 0.500000
vt 0.330928 0.574320
vt 0.125000 0.700504
vt 0.804283 0.500000
vt 0.842867 0.681766
vt 0.658516 0.626313
vt 0.875000 0.500000
vt 0.501754 0.540833
vt 0.565165 0.799791
vt 0.325310 0.750000
vt 0.604031 0.069198
vt 0.375000 1.000000
vt 0.375000 0.799690
vt 0.578028 1.000000
vt 0.615335 0.592735
vt 0.589707 0.775249
vt 0.581909 0.353207
s 0
g Cube_Material
usemtl Material
f 170/211/117 172/212/117 171/213/117
f 172/214/118 175/215/118 171/216/118
f 176/217/119 173/218/119 177/219/119
f 173/218/120 176/217/120 170/220/120
f 178/221/121 169/222/121 174/223/121 175/215/121
f 171/213/122 173/224/122 170/211/122
f 171/225/123 174/226/123 169/222/123 173/227/123
f 175/215/124 174/223/124 171/216/124
f 177/228/125 173/218/125 169/229/125
f 169/222/126 178/221/126 177/228/126
f 178/221/127 175/215/127 172/212/127 176/230/127
f 178/221/128 176/230/128 177/228/128
f 172/212/129 170/211/129 176/230/129
o Cube
v 3.962581 0.097358 -1.834187
v 3.465839 -0.372504 -1.141616
v 3.267121 0.127605 -1.428506
v 3.457472 0.130558 -0.926586
v 3.711648 -0.407407 -1.669036
v 3.653549 0.458535 -1.576123
v 3.679118 0.498494 -1.107229
v 3.985216 -0.273421 -0.955017
v 4.281830 -0.084968 -1.339365
v 4.170982 0.239518 -1.069391
vn -0.9219 -0.1652 0.3506
vn -0.7541 0.5929 0.2825
vn 0.5060 -0.8619 -0.0321
vn 0.1404 -0.9815 0.1304
vn 0.5575 0.7995 -0.2237
vn -0.7931 -0.5079 -0.3360
vn -0.5011 0.0590 -0.8634
vn -0.6564 0.7538 -0.0284
vn 0.6280 -0.5057 -0.5915
vn 0.7881 0.5299 -0.3132
vn 0.1533 0.2493 0.9562
vn 0.8191 -0.1748 0.5464
vn -0.2463 -0.3844 0.8897
vt 0.550384 0.206938
vt 0.375000 0.305791
vt 0.375000 0.049496
vt 0.180791 0.500000
vt 0.330928 0.574320
vt 0.125000 0.700504
vt 0.804283 0.500000
vt 0.842867 0.681766
vt 0.658516 0.626313
vt 0.875000 0.500000
vt 0.501754 0.540833
vt 0.565165 0.799791
vt 0.325310 0.750000
vt 0.604031 0.069198
vt 0.375000 1.000000
vt 0.375000 0.799690
vt 0.578028 1.000000
vt 0.615335 0.592735
vt 0.589707 0.775249
vt 0.581909 0.353207
s 0
g Cube_Material
usemtl Material
f 180/231/130 182/232/130 181/233/130
f 182/234/131 185/235/131 181/236/131
f 186/237/132 183/238/132 187/239/132
f 183/238/133 186/237/133 180/240/133
f 188/241/134 179/242/134 184/243/134 185/235/134
f 181/233/135 183/244/135 180/231/135
f 181/245/136 184/246/136 179/242/136 183/247/136
f 185/235/137 184/243/137 181/236/137
f 187/248/138 183/238/138 179/249/138
f 179/242/139 188/241/139 187/248/139
f 188/241/140 185/235/140 182/232/140 186/250/140
f 188/241/141 186/250/141 187/248/141
f 182/232/142 180/231/142 186/250/142
o Cube
v -2.320537 0.671290 2.361322
v -3.169828 0.408964 2.355761
v -2.792294 0.243929 2.730562
v -2.949527 -0.039549 2.362721
v -2.834839 0.821443 2.389162
v -2.341476 0.218078 2.556781
v -2.529226 -0.102047 2.338703
v -2.972993 0.339134 1.888166
v -2.539707 0.533543 1.861324
v -2.505542 0.137465 1.890333
vn -0.7325 -0.3507 0.5834
vn -0.0790 -0.7730 0.6295
vn -0.3597 0.7198 -0.5937
vn -0.7010 0.6005 -0.3848
vn 0.9469 -0.2496 -0.2029
vn -0.5560 0.3922 0.7328
vn 0.2605 0.4503 0.8540
vn 0.2442 -0.6397 0.7288
vn 0.2442 0.9022 -0.3556
vn 0.9098 0.0483 -0.4121
vn -0.2525 -0.8039 -0.5385
vn -0.0279 -0.0754 -0.9968
vn -0.8553 -0.4247 -0.2966
vt 0.550384 0.206938
vt 0.375000 0.305791
vt 0.375000 0.049496
vt 0.180791 0.500000
vt 0.330928 0.574320
vt 0.125000 0.700504
vt 0.804283 0.500000
vt 0.842867 0.681766
vt 0.658516 0.626313
vt 0.875000 0.500000
vt 0.501754 0.540833
vt 0.565165 0.799791
vt 0.325310 0.750000
vt 0.604031 0.069198
vt 0.375000 1.000000
vt 0.375000 0.799690
vt 0.578028 1.000000
vt 0.615335 0.592735
vt 0.589707 0.775249
vt 0.581909 0.353207
s 0
g Cube_Material
usemtl Material
f 190/251/143 192/252/143 191/253/143
f 192/254/144 195/255/144 191/256/144
f 196/257/145 193/258/145 197/259/145
f 193/258/146 196/257/146 190/260/146
f 198/261/147 189/262/147 194/263/147 195/255/147
f 191/253/148 193/264/148 190/251/148
f 191/265/149 194/266/149 189/262/149 193/267/149
f 195/255/150 194/263/150 191/256/150
f 197/268/151 193/258/151 189/269/151
f 189/262/152 198/261/152 197/268/152
f 198/261/153 195/255/153 192/252/153 196/270/153
f 198/261/154 196/270/154 197/268/154
f 192/252/155 190/251/155 196/270/155
o Cube
v -1.480317 0.399937 3.435647
v -2.380393 0.127569 3.126791
v -2.275102 0.533048 3.584152
v -2.438066 0.019026 3.669521
v -1.863919 0.377898 2.978213
v -1.824615 0.435677 3.863172
v -2.090409 0.057279 3.989311
v -2.072141 -0.341180 3.228984
v -1.568107 -0.211249 3.326972
v -1.770093 -0.316064 3.708052
vn -0.9544 0.2956 -0.0423
vn -0.6599 0.3220 0.6789
vn 0.2709 -0.3860 -0.8818
vn -0.1307 -0.2925 -0.9473
vn 0.6979 -0.0958 0.7097
vn -0.4894 0.7054 -0.5127
vn 0.1518 0.9858 -0.0711
vn -0.3676 0.5161 0.7736
vn 0.7661 0.0042 -0.6427
vn 0.8873 -0.2012 0.4150
vn -0.4275 -0.8049 0.4115
vn 0.2696 -0.9555 -0.1199
vn -0.7985 -0.5684 -0.1985
vt 0.550384 0.206938
vt 0.375000 0.305791
vt 0.375000 0.049496
vt 0.180791 0.500000
vt 0.330928 0.574320
vt 0.125000 0.700504
vt 0.804283 0.500000
vt 0.842867 0.681766
vt 0.658516 0.626313
vt 0.875000 0.500000
vt 0.501754 0.540833
vt 0.565165 0.799791
vt 0.325310 0.750000
vt 0.604031 0.069198
vt 0.375000 1.000000
vt 0.375000 0.799690
vt 0.578028 1.000000
vt 0.615335 0.592735
vt 0.589707 0.775249
vt 0.581909 0.353207
s 0
g Cube_Material
usemtl Material
f 200/271/156 202/272/156 201/273/156
f 202/274/157 205/275/157 201/276/157
f 206/277/158 203/278/158 207/279/158
f 203/278/159 206/277/159 200/280/159
f 208/281/160 199/282/160 204/283/160 205/275/160
f 201/273/161 203/284/161 200/271/161
f 201/285/162 204/286/162 199/282/162 203/287/162
f 205/275/163 204/283/163 201/276/163
f 207/288/164 203/278/164 199/289/164
f 199/282/165 208/281/165 207/288/165
f 208/281/166 205/275/166 202/272/166 206/290/166
f 208/281/167 206/290/167 207/288/167
f 202/272/168 200/271/168 206/290/168
o Cube
v 1.971866 0.420309 -1.802984
v 2.373838 -0.018110 -2.271112
v 1.960295 0.185054 -2.383663
v 2.000386 -0.220804 -2.294334
v 2.368083 0.360994 -2.022525
v 1.703461 0.229261 -2.064551
v 1.708111 -0.135753 -2.097649
v 2.324769 -0.226734 -1.891325
v 2.158185 0.019829 -1.616529
v 1.924286 -0.199651 -1.727567
vn 0.1666 -0.1962 -0.9663
vn -0.5884 -0.2288 -0.7755
vn 0.8716 0.0448 0.4882
vn 0.9936 -0.0508 0.1005
vn -0.7978 0.0605 0.5999
vn 0.4462 0.4955 -0.7453
vn -0.1583 0.9162 -0.3680
vn -0.7749 0.0473 -0.6303
vn 0.4678 0.5425 0.6977
vn -0.5303 0.1424 0.8357
vn -0.1514 -0.9883 0.0166
vn 0.2540 -0.6383 0.7267
vn 0.4592 -0.8023 -0.3814
vt 0.550384 0.206938
vt 0.375000 0.305791
vt 0.375000 0.049496
vt 0.180791 0.500000
vt 0.330928 0.574320
vt 0.125000 0.700504
vt 0.804283 0.500000
vt 0.842867 0.681766
vt 0.658516 0.626313
vt 0.875000 0.500000
vt 0.501754 0.540833
vt 0.565165 0.799791
vt 0.325310 0.750000
vt 0.604031 0.069198
vt 0.375000 1.000000
vt 0.375000 0.799690
vt 0.578028 1.000000
vt 0.615335 0.592735
vt 0.589707 0.775249
vt 0.581909 0.353207
s 0
g Cube_Material
usemtl Material
f 210/291/169 212/292/169 211/293/169
f 212/294/170 215/295/170 211/296/170
f 216/297/171 213/298/171 217/299/171
f 213/298/172 216/297/172 210/300/172
f 218/301/173 209/302/173 214/303/173 215/295/173
f 211/293/174 213/304/174 210/291/174
f 211/305/175 214/306/175 209/302/175 213/307/175
f 215/295/176 214/303/176 211/296/176
f 217/308/177 213/298/177 209/309/177
f 209/302/178 218/301/178 217/308/178
f 218/301/179 215/295/179 212/292/179 216/310/179
f 218/301/180 216/310/180 217/308/180
f 212/292/181 210/291/181 216/310/181
o Cube
v -3.409878 0.300296 -0.978188
v -3.042515 -0.175158 -0.319625
v -2.946528 0.368036 -0.407763
v -2.624909 0.014090 -0.522064
v -3.496137 0.000593 -0.539746
v -2.967762 0.498471 -0.874664
v -2.614166 0.250833 -0.877060
v -2.972030 -0.425083 -0.762742
v -3.217995 -0.213510 -1.112456
v -2.830372 -0.122911 -1.149151
vn 0.4069 0.0758 0.9103
vn 0.7410 0.5481 0.3879
vn -0.6354 -0.7719 -0.0200
vn -0.4861 -0.7920 0.3694
vn 0.1401 0.4258 -0.8939
vn -0.3594 0.2110 0.9090
vn -0.5256 0.7824 0.3340
vn 0.5631 0.8022 0.1985
vn -0.9047 -0.2472 -0.3470
vn -0.1389 0.2015 -0.9696
vn 0.8575 -0.4837 -0.1753
vn 0.1330 -0.8038 -0.5798
vn 0.5439 -0.6909 0.4762
vt 0.550384 0.206938
vt 0.375000 0.305791
vt 0.375000 0.049496
vt 0.180791 0.500000
vt 0.330928 0.574320
vt 0.125000 0.700504
vt 0.804283 0.500000
vt 0.842867 0.681766
vt 0.658516 0.626313
vt 0.875000 0.500000
vt 0.501754 0.540833
vt 0.565165 0.799791
vt 0.325310 0.750000
vt 0.604031 0.069198
vt 0.375000 1.000000
vt 0.375000 0.799690
vt 0.578028 1.000000
vt 0.615335 0.592735
vt 0.589707 0.775249
vt 0.581909 0.353207
s 0
g Cube_Material
usemtl Material
f 220/311/182 222/312/182 221/313/182
f 222/314/183 225/315/183 221/316/183
f 226/317/184 223/318/184 227/319/184
f 223/318/185 226/317/185 220/320/185
f 228/321/186 219/322/186 224/323/186 225/315/186
f 221/313/187 223/324/187 220/311/187
f 221/325/188 224/326/188 219/322/188 223/327/188
f 225/315/189 224/323/189 221/316/189
f 227/328/190 223/318/190 219/329/190
f 219/322/191 228/321/191 227/328/191
f 228/321/192 225/315/192 222/312/192 226/330/192
f 228/321/193 226/330/193 227/328/193
f 222/312/194 220/311/194 226/330/194
o Cube
v 2.230181 0.262567 0.733810
v 2.425042 0.796765 1.270510
v 2.325815 0.899163 0.801761
v 2.725202 0.894121 0.964455
v 2.119343 0.464664 1.145614
v 2.432980 0.588917 0.530827
v 2.775247 0.701105 0.647599
v 2.728107 0.463644 1.281189
v 2.603590 0.146839 1.037887
v 2.858335 0.325046 0.875750
vn -0.0811 0.9700 0.2291
vn 0.2082 0.8496 -0.4847
vn -0.1820 -0.5529 0.8131
vn -0.2147 -0.1645 0.9627
vn 0.3062 -0.5353 -0.7872
vn -0.7561 0.5875 0.2884
vn -0.8906 0.1784 -0.4183
vn 0.0368 0.6645 -0.7464
vn -0.4833 -0.8304 0.2774
vn 0.2062 -0.8032 -0.5589
vn 0.9678 0.2033 0.1482
vn 0.6845 -0.5938 0.4229
vn 0.5307 0.5046 0.6810
vt 0.550384 0.206938
vt 0.375000 0.305791
vt 0.375000 0.049496
vt 0.180791 0.500000
vt 0.330928 0.574320
vt 0.125000 0.700504
vt 0.804283 0.500000
vt 0.842867 0.681766
vt 0.658516 0.626313
vt 0.875000 0.500000
vt 0.501754 0.540833
vt 0.565165 0.799791
vt 0.325310 0.750000
vt 0.604031 0.069198
vt 0.375000 1.000000
vt 0.375000 0.799690
vt 0.578028 1.000000
vt 0.615335 0.592735
vt 0.589707 0.775249
vt 0.581909 0.353207
s 0
g Cube_Material
usemtl Material
f 230/331/195 232/332/195 231/333/195
f 232/334/196 235/335/196 231/336/196
f 236/337/197 233/338/197 237/339/197
f 233/338/198 236/337/198 230/340/198
f 238/341/199 229/342/199 234/343/199 235/335/199
f 231/333/200 233/344/200 230/331/200
f 231/345/201 234/346/201 229/342/201 233/347/201
f 235/335/202 234/343/202 231/336/202
f 237/348/203 233/338/203 229/349/203
f 229/342/204 238/341/204 237/348/204
f 238/341/205 235/335/205 232/332/205 236/350/205
f 238/341/206 236/350/206 237/348/206
f 232/332/207 230/331/207 236/350/207
o Cube
v 2.175781 0.534020 1.783070
v 1.309312 0.530079 1.838461
v 1.628929 0.118938 1.995954
v 1.371949 0.113491 1.591874
v 1.750192 0.764147 1.984374
v 2.026011 0.077064 1.743119
v 1.738611 -0.025585 1.453910
v 1.440048 0.661209 1.373775
v 1.899314 0.726750 1.348479
v 1.808063 0.385913 1.183882
vn -0.7680 -0.4078 0.4939
vn -0.2836 -0.9393 0.1930
vn -0.1456 0.9850 -0.0921
vn -0.4932 0.8636 0.1049
vn 0.8012 -0.3338 -0.4966
vn -0.3525 0.0830 0.9321
vn 0.4452 -0.1323 0.8856
vn 0.0709 -0.9602 0.2703
vn 0.4986 0.8643 0.0661
vn 0.8489 0.0276 -0.5278
vn -0.5314 -0.3224 -0.7833
vn -0.1138 0.4566 -0.8824
vn -0.9635 0.0134 -0.2673
vt 0.550384 0.206938
vt 0.375000 0.305791
vt 0.375000 0.049496
vt 0.180791 0.500000
vt 0.330928 0.574320
vt 0.125000 0.700504
vt 0.804283 0.500000
vt 0.842867 0.681766
vt 0.658516 0.626313
vt 0.875000 0.500000
vt 0.501754 0.540833
vt 0.565165 0.799791
vt 0.325310 0.750000
vt 0.604031 0.069198
vt 0.375000 1.000000
vt 0.375000 0.799690
vt 0.578028 1.000000
vt 0.615335 0.592735
vt 0.589707 0.775249
vt 0.581909 0.353207
s 0
g Cube_Material
usemtl Material
f 240/351/208 242/352/208 241/353/208
f 242/354/209 245/355/209 241/356/209
f 246/357/210 243/358/210 247/359/210
f 243/358/211 246/357/211 240/360/211
f 248/361/212 239/362/212 244/363/212 245/355/212
f 241/353/213 243/364/213 240/351/213
f 241/365/214 244/366/214 239/362/214 243/367/214
f 245/355/215 244/363/215 241/356/215
f 247/368/216 243/358/216 239/369/216
f 239/362/217 248/361/217 247/368/217
f 248/361/218 245/355/218 242/352/218 246/370/218
f 248/361/219 246/370/219 247/368/219
f 242/352/220 240/351/220 246/370/220
o Cube
v 1.965522 0.328395 -0.034714
v 1.566793 0.403010 -1.135835
v 1.924289 -0.178480 -0.862440
v 2.195742 0.250522 -1.263949
v 1.399765 0.408770 -0.453126
v 2.355272 -0.030711 -0.414774
v 2.597018 0.201159 -0.873800
v 1.927434 0.957829 -0.997358
v 2.077583 0.972773 -0.387824
v 2.500275 0.833486 -0.668590
vn -0.2925 -0.5482 -0.7835
vn 0.4132 -0.7478 -0.5196
vn -0.6413 0.7545 0.1395
vn -0.7979 0.5686 -0.2000
vn 0.8013 0.0409 0.5969
vn -0.7942 -0.5773 -0.1894
vn -0.3790 -0.7807 0.4969
vn 0.4811 -0.8580 -0.1800
vn -0.4744 0.4851 0.7346
vn 0.5946 0.3044 0.7442
vn 0.5884 0.4065 -0.6990
vn 0.2589 0.9619 -0.0874
vn -0.1167 0.3112 -0.9431
vt 0.550384 0.206938
vt 0.375000 0.305791
vt 0.375000 0.049496
vt 0.180791 0.500000
vt 0.330928 0.574320
vt 0.125000 0.700504
vt 0.804283 0.500000
vt 0.842867 0.681766
vt 0.658516 0.626313
vt 0.875000 0.500000
vt 0.501754 0.540833
vt 0.565165 0.799791
vt 0.325310 0.750000
vt 0.604031 0.069198
vt 0.375000 1.000000
vt 0.375000 0.799690
vt 0.578028 1.000000
vt 0.615335 0.592735
vt 0.589707 0.775249
vt 0.581909 0.353207
s 0
g Cube_Material
usemtl Material
f 250/371/221 252/372/221 251/373/221
f 252/374/222 255/375/222 251/376/222
f 256/377/223 253/378/223 257/379/223
f 253/378/224 256/377/224 250/380/224
f 258/381/225 249/382/225 254/383/225 255/375/225
f 251/373/226 253/384/226 250/371/226
f 251/385/227 254/386/227 249/382/227 253/387/227
f 255/375/228 254/383/228 251/376/228
f 257/388/229 253/378/229 249/389/229
f 249/382/230 258/381/230 257/388/230
f 258/381/231 255/375/231 252/372/231 256/390/231
f 258/381/232 256/390/232 257/388/232
f 252/372/233 250/371/233 256/390/233
o Cube
v -1.307563 0.365044 -1.871834
v -2.090765 0.619719 -1.598800
v -1.679024 0.487377 -1.269341
v -2.054971 0.202192 -1.349128
v -1.667258 0.745633 -1.872420
v -1.391614 0.156487 -1.445273
v -1.741771 -0.068160 -1.386474
v -2.148734 0.252160 -1.932588
v -1.741711 0.149887 -2.131171
v -1.831704 -0.125612 -1.871592
vn -0.4813 0.4191 0.7699
vn -0.0559 -0.1999 0.9782
vn -0.3143 0.4110 -0.8558
vn -0.5506 0.6071 -0.5729
vn 0.6223 -0.7716 -0.1319
vn -0.0192 0.9192 0.3933
vn 0.7367 0.5875 0.3349
vn 0.3024 -0.2292 0.9252
vn 0.3555 0.3346 -0.8727
vn 0.6017 -0.6430 -0.4738
vn -0.7134 -0.6891 0.1275
vn -0.4769 -0.5152 -0.7121
vn -0.9871 0.0108 0.1596
vt 0.550384 0.206938
vt 0.375000 0.305791
vt 0.375000 0.049496
vt 0.180791 0.500000
vt 0.330928 0.574320
vt 0.125000 0.700504
vt 0.804283 0.500000
vt 0.842867 0.681766
vt 0.658516 0.626313
vt 0.875000 0.500000
vt 0.501754 0.540833
vt 0.565165 0.799791
vt 0.325310 0.750000
vt 0.604031 0.069198
vt 0.375000 1.000000
vt 0.375000 0.799690
vt 0.578028 1.000000
vt 0.615335 0.592735
vt 0.589707 0.775249
vt 0.581909 0.353207
s 0
g Cube_Material
usemtl Material
f 260/391/234 262/392/234 261/393/234
f 262/394/235 265/395/235 261/396/235
f 266/397/236 263/398/236 267/399/236
f 263/398/237 266/397/237 260/400/237
f 268/401/238 259/402/238 264/403/238 265/395/238
f 261/393/239 263/404/239 260/391/239
f 261/405/240 264/406/240 259/402/240 263/407/240
f 265/395/241 264/403/241 261/396/241
f 267/408/242 263/398/242 259/409/242
f 259/402/243 268/401/243 267/408/243
f 268/401/244 265/395/244 262/392/244 266/410/244
f 268/401/245 266/410/245 267/408/245
f 262/392/246 260/391/246 266/410/246
o Cube
v -1.893437 -0.538093 1.038274
v -2.121558 0.410280 0.653690
v -1.564001 0.084913 0.531533
v -1.598339 0.532516 0.896136
v -2.290194 -0.193844 0.685370
v -1.392774 -0.250268 0.960548
v -1.328532 0.208440 1.168533
v -2.210006 0.416749 1.251214
v -2.164011 -0.102048 1.459843
v -1.776098 0.142754 1.563089
vn 0.2017 0.6278 -0.7518
vn 0.8422 0.3779 -0.3846
vn -0.9863 -0.0218 0.1633
vn -0.9550 0.2590 -0.1442
vn 0.5282 -0.5172 0.6734
vn -0.2099 0.0073 -0.9777
vn 0.1770 -0.6757 -0.7157
vn 0.9358 0.0283 -0.3514
vn -0.7365 -0.6472 0.1967
vn 0.1883 -0.6197 0.7619
vn 0.2414 0.8084 0.5368
vn -0.4205 0.3062 0.8541
vn -0.2090 0.9770 -0.0415
vt 0.550384 0.206938
vt 0.375000 0.305791
vt 0.375000 0.049496
vt 0.180791 0.500000
vt 0.330928 0.574320
vt 0.125000 0.700504
vt 0.804283 0.500000
vt 0.842867 0.681766
vt 0.658516 0.626313
vt 0.875000 0.500000
vt 0.501754 0.540833
vt 0.565165 0.799791
vt 0.325310 0.750000
vt 0.604031 0.069198
vt 0.375000 1.000000
vt 0.375000 0.799690
vt 0.578028 1.000000
vt 0.615335 0.592735
vt 0.589707 0.775249
vt 0.581909 0.353207
s 0
g Cube_Material
usemtl Material
f 270/411/247 272/412/247 271/413/247
f 272/414/248 275/415/248 271/416/248
f 276/417/249 273/418/249 277/419/249
f 273/418/250 276/417/250 270/420/250
f 278/421/251 269/422/251 274/423/251 275/415/251
f 271/413/252 273/424/252 270/411/252
f 271/425/253 274/426/253 269/422/253 273/427/253
f 275/415/254 274/423/254 271/416/254
f 277/428/255 273/418/255 269/429/255
f 269/422/256 278/421/256 277/428/256
f 278/421/257 275/415/257 272/412/257 276/430/257
f 278/421/258 276/430/258 277/428/258
f 272/412/259 270/411/259 276/430/259
o Cube
v -0.867826 0.097700 2.202547
v -0.216800 -0.140654 1.687385
v -0.153442 0.091423 2.172209
v -0.090260 0.322449 1.760376
v -0.632395 -0.295343 1.953850
v -0.497244 0.390985 2.286664
v -0.317418 0.597037 1.970199
v -0.537069 0.134062 1.423596
v -0.918916 0.215892 1.670819
v -0.699874 0.535228 1.662927
vn 0.9646 -0.2636 0.0001
vn 0.8351 0.4151 0.3610
vn -0.5164 -0.6177 -0.5931
vn -0.1262 -0.7597 -0.6379
vn -0.5427 0.7623 0.3526
vn 0.5033 -0.8032 0.3187
vn 0.0342 -0.4415 0.8966
vn 0.6126 0.4565 0.6453
vn -0.8653 -0.5005 -0.0281
vn -0.8054 0.5574 0.2013
vn 0.3355 0.6481 -0.6837
vn -0.4714 0.3029 -0.8283
vn 0.6129 -0.0431 -0.7890
vt 0.550384 0.206938
vt 0.375000 0.305791
vt 0.375000 0.049496
vt 0.180791 0.500000
vt 0.330928 0.574320
vt 0.125000 0.700504
vt 0.804283 0.500000
vt 0.842867 0.681766
vt 0.658516 0.626313
vt 0.875000 0.500000
vt 0.501754 0.540833
vt 0.565165 0.799791
vt 0.325310 0.750000
vt 0.604031 0.069198
vt 0.375000 1.000000
vt 0.375000 0.799690
vt 0.578028 1.000000
vt 0.615335 0.592735
vt 0.589707 0.775249
vt 0.581909 0.353207
s 0
g Cube_Material
usemtl Material
f 280/431/260 282/432/260 281/433/260
f 282/434/261 285/435/261 281/436/261
f 286/437/262 283/438/262 287/439/262
f 283/438/263 286/437/263 280/440/263
f 288/441/264 279/442/264 284/443/264 285/435/264
f 281/433/265 283/444/265 280/431/265
f 281/445/266 284/446/266 279/442/266 283/447/266
f 285/435/267 284/443/267 281/436/267
f 287/448/268 283/438/268 279/449/268
f 279/442/269 288/441/269 287/448/269
f 288/441/270 285/435/270 282/432/270 286/450/270
f 288/441/271 286/450/271 287/448/271
f 282/432/272 280/431/272 286/450/272
o Cube
v 4.452857 0.036653 3.575470
v 3.653584 -0.160275 3.395187
v 4.027406 -0.513041 3.516179
v 3.871617 -0.443118 3.083877
v 3.963625 0.093027 3.702558
v 4.448965 -0.390425 3.383328
v 4.270162 -0.449829 3.021357
v 3.825383 0.129753 3.045797
v 4.230899 0.289680 3.161205
v 4.272320 0.017649 2.902209
vn -0.7032 -0.6969 0.1407
vn -0.0395 -0.9885 -0.1457
vn -0.3964 0.9082 0.1342
vn -0.7272 0.6596 0.1900
vn 0.9440 0.0205 -0.3292
vn -0.5374 -0.2990 0.7885
vn 0.2816 -0.3157 0.9061
vn 0.2842 -0.9586 0.0170
vn 0.2117 0.8804 0.4243
vn 0.8931 0.3740 -0.2500
vn -0.2545 -0.1550 -0.9546
vn -0.0624 0.6832 -0.7276
vn -0.8562 -0.1028 -0.5063
vt 0.550384 0.206938
vt 0.375000 0.305791
vt 0.375000 0.049496
vt 0.180791 0.500000
vt 0.330928 0.574320
vt 0.125000 0.700504
vt 0.804283 0.500000
vt 0.842867 0.681766
vt 0.658516 0.626313
vt 0.875000 0.500000
vt 0.501754 0.540833
vt 0.565165 0.799791
vt 0.325310 0.750000
vt 0.604031 0.069198
vt 0.375000 1.000000
vt 0.375000 0.799690
vt 0.578028 1.000000
vt 0.615335 0.592735
vt 0.589707 0.775249
vt 0.581909 0.353207
s 0
g Cube_Material
usemtl Material
f 290/451/273 292/452/273 291/453/273
f 292/454/274 295/455/274 291/456/274
f 296/457/275 293/458/275 297/459/275
f 293/458/276 296/457/276 290/460/276
f 298/461/277 289/462/277 294/463/277 295/455/277
f 291/453/278 293/464/278 290/451/278
f 291/465/279 294/466/279 289/462/279 293/467/279
f 295/455/280 294/463/280 291/456/280
f 297/468/281 293/458/281 289/469/281
f 289/462/282 298/461/282 297/468/282
f 298/461/283 295/455/283 292/452/283 296/470/283
f 298/461/284 296/470/284 297/468/284
f 292/452/285 290/451/285 296/470/285
o Cube
v 3.730312 0.212830 -1.423531
v 4.752628 0.366576 -2.293433
v 4.518301 -0.374451 -1.957662
v 5.122472 0.002836 -1.738543
v 3.957729 0.453314 -2.168800
v 4.239556 -0.319799 -1.279298
v 4.862813 -0.155107 -1.167476
v 4.836871 0.880762 -1.715128
v 4.250758 0.879303 -1.291822
v 4.701174 0.585347 -1.012900
vn 0.5489 -0.4828 -0.6823
vn 0.5283 -0.8491 0.0054
vn -0.2563 0.9003 -0.3517
vn -0.0222 0.7487 -0.6625
vn -0.2632 -0.1464 0.9536
vn -0.1826 -0.3573 -0.9160
vn -0.6978 -0.6352 -0.3310
vn 0.2233 -0.9600 0.1691
vn -0.7838 0.6198 -0.0392
vn -0.4378 0.1673 0.8834
vn 0.9094 0.2120 0.3578
vn 0.3002 0.8571 0.4186
vn 0.8730 0.2944 -0.3889
vt 0.550384 0.206938
vt 0.375000 0.305791
vt 0.375000 0.049496
vt 0.180791 0.500000
vt 0.330928 0.574320
vt 0.125000 0.700504
vt 0.804283 0.500000
vt 0.842867 0.681766
vt 0.658516 0.626313
vt 0.875000 0.500000
vt 0.501754 0.540833
vt 0.565165 0.799791
vt 0.325310 0.750000
vt 0.604031 0.069198
vt 0.375000 1.000000
vt 0.375000 0.799690
vt 0.578028 1.000000
vt 0.615335 0.592735
vt 0.589707 0.775249
vt 0.581909 0.353207
s 0
g Cube_Material
usemtl Material
f 300/471/286 302/472/286 301/473/286
f 302/474/287 305/475/287 301/476/287
f 306/477/288 303/478/288 307/479/288
f 303/478/289 306/477/289 300/480/289
f 308/481/290 299/482/290 304/483/290 305/475/290
f 301/473/291 303/484/291 300/471/291
f 301/485/292 304/486/292 299/482/292 303/487/292
f 305/475/293 304/483/293 301/476/293
f 307/488/294 303/478/294 299/489/294
f 299/482/295 308/481/295 307/488/295
f 308/481/296 305/475/296 302/472/296 306/490/296
f 308/481/297 306/490/297 307/488/297
f 302/472/298 300/471/298 306/490/298
o Cube
v 0.847943 -0.579419 4.671247
v 1.837517 -0.247416 4.897495
v 1.281928 0.008653 5.168839
v 1.593022 0.280481 4.748883
v 1.428469 -0.739243 4.901380
v 0.819674 -0.004618 4.816553
v 1.117386 0.339406 4.570583
v 1.767041 -0.256786 4.286301
v 1.270375 -0.503584 4.148330
v 1.232069 -0.029034 4.096299
vn 0.5510 0.4526 0.7011
vn -0.0802 0.8628 0.4991
vn 0.4931 -0.7954 -0.3524
vn 0.7662 -0.6378 -0.0786
vn -0.8483 0.1948 -0.4923
vn 0.3234 -0.2618 0.9093
vn -0.4960 -0.3177 0.8081
vn -0.4212 0.7397 0.5248
vn -0.1570 -0.9514 -0.2648
vn -0.7618 -0.1311 -0.6344
vn 0.4093 0.7158 -0.5658
vn 0.3033 -0.0796 -0.9495
vn 0.9133 0.3917 -0.1113
vt 0.550384 0.206938
vt 0.375000 0.305791
vt 0.375000 0.049496
vt 0.180791 0.500000
vt 0.330928 0.574320
vt 0.125000 0.700504
vt 0.804283 0.500000
vt 0.842867 0.681766
vt 0.658516 0.626313
vt 0.875000 0.500000
vt 0.501754 0.540833
vt 0.565165 0.799791
vt 0.325310 0.750000
vt 0.604031 0.069198
vt 0.375000 1.000000
vt 0.375000 0.799690
vt 0.578028 1.000000
vt 0.615335 0.592735
vt 0.589707 0.775249
vt 0.581909 0.353207
s 0
g Cube_Material
usemtl Material
f 310/491/299 312/492/299 311/493/299
f 312/494/300 315/495/300 311/496/300
f 316/497/301 313/498/301 317/499/301
f 313/498/302 316/497/302 310/500/302
f 318/501/303 309/502/303 314/503/303 315/495/303
f 311/493/304 313/504/304 310/491/304
f 311/505/305 314/506/305 309/502/305 313/507/305
f 315/495/306 314/503/306 311/496/306
f 317/508/307 313/498/307 309/509/307
f 309/502/308 318/501/308 317/508/308
f 318/501/309 315/495/309 312/492/309 316/510/309
f 318/501/310 316/510/310 317/508/310
f 312/492/311 310/491/311 316/510/311
o Cube
v -3.458700 -0.498134 3.304136
v -3.059272 -0.216743 2.468634
v -2.746882 -0.333252 2.975253
v -2.844520 0.160371 2.796906
v -3.377707 -0.619118 2.738408
v -3.010056 -0.224294 3.418448
v -2.948353 0.207177 3.246107
v -3.474185 0.133440 2.595751
v -3.740166 -0.044283 3.003072
v -3.484685 0.283042 3.129416
vn 0.8486 -0.0231 -0.5286
vn 0.9472 0.2568 0.1922
vn -0.7732 -0.2124 -0.5976
vn -0.4519 -0.2217 -0.8641
vn -0.2712 0.2722 0.9232
vn 0.5050 -0.7194 -0.4769
vn 0.3518 -0.8795 0.3205
vn 0.8654 0.0742 0.4956
vn -0.8475 -0.5308 -0.0078
vn -0.5921 0.1571 0.7904
vn 0.0915 0.9785 -0.1849
vn -0.7347 0.6493 -0.1965
vn 0.2300 0.5612 -0.7951
vt 0.550384 0.206938
vt 0.375000 0.305791
vt 0.375000 0.049496
vt 0.180791 0.500000
vt 0.330928 0.574320
vt 0.125000 0.700504
vt 0.804283 0.500000
vt 0.842867 0.681766
vt 0.658516 0.626313
vt 0.875000 0.500000
vt 0.501754 0.540833
vt 0.565165 0.799791
vt 0.325310 0.750000
vt 0.604031 0.069198
vt 0.375000 1.000000
vt 0.375000 0.799690
vt 0.578028 1.000000
vt 0.615335 0.592735
vt 0.589707 0.775249
vt 0.581909 0.353207
s 0
g Cube_Material
usemtl Material
f 320/511/312 322/512/312 321/513/312
f 322/514/313 325/515/313 321/516/313
f 326/517/314 323/518/314 327/519/314
f 323/518/315 326/517/315 320/520/315
f 328/521/316 319/522/316 324/523/316 325/515/316
f 321/513/317 323/524/317 320/511/317
f 321/525/318 324/526/318 319/522/318 323/527/318
f 325/515/319 324/523/319 321/516/319
f 327/528/320 323/518/320 319/529/320
f 319/522/321 328/521/321 327/528/321
f 328/521/322 325/515/322 322/512/322 326/530/322
f 328/521/323 326/530/323 327/528/323
f 322/512/324 320/511/324 326/530/324
o Cube
v 4.383245 0.658185 2.138378
v 3.466045 0.384966 1.603488
v 4.042211 0.010812 1.601337
v 3.864663 0.351775 1.134523
v 3.739239 0.513978 2.186547
v 4.541375 0.334691 1.646847
v 4.372094 0.482495 1.165840
v 3.616340 0.980812 1.457365
v 4.059072 1.166904 1.794330
v 4.227822 1.066934 1.343512
vn -0.5059 -0.7768 -0.3750
vn 0.2300 -0.7421 -0.6295
vn -0.6279 0.6031 0.4919
vn -0.8858 0.3085 0.3468
vn 0.9277 0.3655 -0.0767
vn -0.4974 -0.7682 0.4030
vn 0.2868 -0.6966 0.6576
vn 0.5219 -0.7463 -0.4130
vn -0.0566 0.5343 0.8434
vn 0.7807 0.6045 0.1582
vn -0.1346 0.3403 -0.9306
vn -0.1845 0.9427 -0.2781
vn -0.7604 0.0327 -0.6486
vt 0.550384 0.206938
vt 0.375000 0.305791
vt 0.375000 0.049496
vt 0.180791 0.500000
vt 0.330928 0.574320
vt 0.125000 0.700504
vt 0.804283 0.500000
vt 0.842867 0.681766
vt 0.658516 0.626313
vt 0.875000 0.500000
vt 0.501754 0.540833
vt 0.565165 0.799791
vt 0.325310 0.750000
vt 0.604031 0.069198
vt 0.375000 1.000000
vt 0.375000 0.799690
vt 0.578028 1.000000
vt 0.615335 0.592735
vt 0.589707 0.775249
vt 0.581909 0.353207
s 0
g Cube_Material
usemtl Material
f 330/531/325 332/532/325 331/533/325
f 332/534/326 335/535/326 331/536/326
f 336/537/327 333/538/327 337/539/327
f 333/538/328 336/537/328 330/540/328
f 338/541/329 329/542/329 334/543/329 335/535/329
f 331/533/330 333/544/330 330/531/330
f 331/545/331 334/546/331 329/542/331 333/547/331
f 335/535/332 334/543/332 331/536/332
f 337/548/333 333/538/333 329/549/333
f 329/542/334 338/541/334 337/548/334
f 338/541/335 335/535/335 332/532/335 336/550/335
f 338/541/336 336/550/336 337/548/336
f 332/532/337 330/531/337 336/550/337
o Cube
v 3.857407 -0.146323 -1.913581
v 3.279271 -0.693176 -1.107529
v 3.047992 -0.111120 -1.441427
v 3.269533 -0.107683 -0.857265
v 3.565357 -0.733798 -1.721370
v 3.497738 0.274035 -1.613232
v 3.527497 0.320541 -1.067507
v 3.883751 -0.577857 -0.890355
v 4.228967 -0.358524 -1.337679
v 4.099956 0.019130 -1.023469
vn -0.9219 -0.1652 0.3506
vn -0.7541 0.5929 0.2825
vn 0.5060 -0.8619 -0.0321
vn 0.1404 -0.9815 0.1304
vn 0.5575 0.7995 -0.2237
vn -0.7931 -0.5079 -0.3360
vn -0.5011 0.0590 -0.8634
vn -0.6564 0.7538 -0.0284
vn 0.6280 -0.5057 -0.5915
vn 0.7881 0.5299 -0.3132
vn 0.1533 0.2493 0.9562
vn 0.8191 -0.1748 0.5464
vn -0.2463 -0.3844 0.8897
vt 0.550384 0.206938
vt 0.375000 0.305791
vt 0.375000 0.049496
vt 0.180791 0.500000
vt 0.330928 0.574320
vt 0.125000 0.700504
vt 0.804283 0.500000
vt 0.842867 0.681766
vt 0.658516 0.626313
vt 0.875000 0.500000
vt 0.501754 0.540833
vt 0.565165 0.799791
vt 0.325310 0.750000
vt 0.604031 0.069198
vt 0.375000 1.000000
vt 0.375000 0.799690
vt 0.578028 1.000000
vt 0.615335 0.592735
vt 0.589707 0.775249
vt 0.581909 0.353207
s 0
g Cube_Material
usemtl Material
f 340/551/338 342/552/338 341/553/338
f 342/554/339 345/555/339 341/556/339
f 346/557/340 343/558/340 347/559/340
f 343/558/341 346/557/341 340/560/341
f 348/561/342 339/562/342 344/563/342 345/555/342
f 341/553/343 343/564/343 340/551/343
f 341/565/344 344/566/344 339/562/344 343/567/344
f 345/555/345 344/563/345 341/556/345
f 347/568/346 343/558/346 339/569/346
f 339/562/347 348/561/347 347/568/347
f 348/561/348 345/555/348 342/552/348 346/570/348
f 348/561/349 346/570/349 347/568/349
f 342/552/350 340/551/350 346/570/350
o Cube
v -1.997787 0.063533 2.671928
v -3.013463 -0.250187 2.665277
v -2.561965 -0.447553 3.113506
v -2.750002 -0.786567 2.673601
v -2.612845 0.243102 2.705222
v -2.022828 -0.478469 2.905679
v -2.247359 -0.861309 2.644878
v -2.778065 -0.333696 2.106076
v -2.259894 -0.101201 2.073975
v -2.219036 -0.574874 2.108667
vn -0.7325 -0.3507 0.5834
vn -0.0790 -0.7730 0.6295
vn -0.3597 0.7198 -0.5937
vn -0.7010 0.6005 -0.3848
vn 0.9469 -0.2496 -0.2029
vn -0.5560 0.3922 0.7328
vn 0.2605 0.4503 0.8540
vn 0.2442 -0.6397 0.7288
vn 0.2442 0.9022 -0.3556
vn 0.9098 0.0483 -0.4121
vn -0.2525 -0.8039 -0.5385
vn -0.0279 -0.0754 -0.9968
vn -0.8553 -0.4247 -0.2966
vt 0.550384 0.206938
vt 0.375000 0.305791
vt 0.375000 0.049496
vt 0.180791 0.500000
vt 0.330928 0.574320
vt 0.125000 0.700504
vt 0.804283 0.500000
vt 0.842867 0.681766
vt 0.658516 0.626313
vt 0.875000 0.500000
vt 0.501754 0.540833
vt 0.565165 0.799791
vt 0.325310 0.750000
vt 0.604031 0.069198
vt 0.375000 1.000000
vt 0.375000 0.799690
vt 0.578028 1.000000
vt 0.615335 0.592735
vt 0.589707 0.775249
vt 0.581909 0.353207
s 0
g Cube_Material
usemtl Material
f 350/571/351 352/572/351 351/573/351
f 352/574/352 355/575/352 351/576/352
f 356/577/353 353/578/353 357/579/353
f 353/578/354 356/577/354 350/580/354
f 358/581/355 349/582/355 354/583/355 355/575/355
f 351/573/356 353/584/356 350/571/356
f 351/585/357 354/586/357 349/582/357 353/587/357
f 355/575/358 354/583/358 351/576/358
f 357/588/359 353/578/359 349/589/359
f 349/582/360 358/581/360 357/588/360
f 358/581/361 355/575/361 352/572/361 356/590/361
f 358/581/362 356/590/362 357/588/362
f 352/572/363 350/571/363 356/590/363
o Cube
v -1.754150 0.284183 3.154074
v -2.461494 0.070136 2.911352
v -2.378749 0.388790 3.270780
v -2.506818 -0.015165 3.337868
v -2.055612 0.266862 2.794590
v -2.024724 0.312269 3.490054
v -2.233604 0.014898 3.589182
v -2.219247 -0.298240 2.991663
v -1.823141 -0.196131 3.068669
v -1.981876 -0.278502 3.368149
vn -0.9544 0.2956 -0.0423
vn -0.6599 0.3220 0.6789
vn 0.2709 -0.3860 -0.8818
vn -0.1307 -0.2925 -0.9473
vn 0.6979 -0.0958 0.7097
vn -0.4894 0.7054 -0.5127
vn 0.1518 0.9858 -0.0711
vn -0.3676 0.5161 0.7736
vn 0.7661 0.0042 -0.6427
vn 0.8873 -0.2012 0.4150
vn -0.4275 -0.8049 0.4115
vn 0.2696 -0.9555 -0.1199
vn -0.7985 -0.5684 -0.1985
vt 0.550384 0.206938
vt 0.375000 0.305791
vt 0.375000 0.049496
vt 0.180791 0.500000
vt 0.330928 0.574320
vt 0.125000 0.700504
vt 0.804283 0.500000
vt 0.842867 0.681766
vt 0.658516 0.626313
vt 0.875000 0.500000
vt 0.501754 0.540833
vt 0.565165 0.799791
vt 0.325310 0.750000
vt 0.604031 0.069198
vt 0.375000 1.000000
vt 0.375000 0.799690
vt 0.578028 1.000000
vt 0.615335 0.592735
vt 0.589707 0.775249
vt 0.581909 0.353207
s 0
g Cube_Material
usemtl Material
f 360/591/364 362/592/364 361/593/364
f 362/594/365 365/595/365 361/596/365
f 366/597/366 363/598/366 367/599/366
f 363/598/367 366/597/367 360/600/367
f 368/601/368 359/602/368 364/603/368 365/595/368
f 361/593/369 363/604/369 360/591/369
f 361/605/370 364/606/370 359/602/370 363/607/370
f 365/595/371 364/603/371 361/596/371
f 367/608/372 363/598/372 359/609/372
f 359/602/373 368/601/373 367/608/373
f 368/601/374 365/595/374 362/592/374 366/610/374
f 368/601/375 366/610/375 367/608/375
f 362/592/376 360/591/376 366/610/376
o Cube
v 2.529000 0.670013 -1.395225
v 3.058670 0.092318 -2.012067
v 2.513754 0.360022 -2.160373
v 2.566580 -0.174768 -2.042666
v 3.051087 0.591855 -1.684510
v 2.175329 0.418273 -1.739886
v 2.181457 -0.062698 -1.783499
v 2.994013 -0.182582 -1.511630
v 2.774509 0.142309 -1.149538
v 2.466305 -0.146895 -1.295849
vn 0.1666 -0.1962 -0.9663
vn -0.5884 -0.2288 -0.7755
vn 0.8716 0.0448 0.4882
vn 0.9936 -0.0508 0.1005
vn -0.7978 0.0605 0.5999
vn 0.4462 0.4955 -0.7453
vn -0.1583 0.9162 -0.3680
vn -0.7749 0.0473 -0.6303
vn 0.4678 0.5425 0.6977
vn -0.5303 0.1424 0.8357
vn -0.1514 -0.9883 0.0166
vn 0.2540 -0.6383 0.7267
vn 0.4592 -0.8023 -0.3814
vt 0.550384 0.206938
vt 0.375000 0.305791
vt 0.375000 0.049496
vt 0.180791 0.500000
vt 0.330928 0.574320
vt 0.125000 0.700504
vt 0.804283 0.500000
vt 0.842867 0.681766
vt 0.658516 0.626313
vt 0.875000 0.500000
vt 0.501754 0.540833
vt 0.565165 0.799791
vt 0.325310 0.750000
vt 0.604031 0.069198
vt 0.375000 1.000000
vt 0.375000 0.799690
vt 0.578028 1.000000
vt 0.615335 0.592735
vt 0.589707 0.775249
vt 0.581909 0.353207
s 0
g Cube_Material
usemtl Material
f 370/611/377 372/612/377 371/613/377
f 372/614/378 375/615/378 371/616/378
f 376/617/379 373/618/379 377/619/379
f 373/618/380 376/617/380 370/620/380
f 378/621/381 369/622/381 374/623/381 375/615/381
f 371/613/382 373/624/382 370/611/382
f 371/625/383 374/626/383 369/622/383 373/627/383
f 375/615/384 374/623/384 371/616/384
f 377/628/385 373/618/385 369/629/385
f 369/622/386 378/621/386 377/628/386
f 378/621/387 375/615/387 372/612/387 376/630/387
f 378/621/388 376/630/388 377/628/388
f 372/612/389 370/611/389 376/630/389
o Cube
v -3.262212 0.466207 -1.070737
v -2.931739 0.038499 -0.478308
v -2.845392 0.527144 -0.557595
v -2.556070 0.208742 -0.660417
v -3.339808 0.196600 -0.676324
v -2.864493 0.644480 -0.977609
v -2.546407 0.421710 -0.979764
v -2.868332 -0.186329 -0.876927
v -3.089597 0.003998 -1.191521
v -2.740900 0.085499 -1.224531
vn 0.4069 0.0758 0.9103
vn 0.7410 0.5481 0.3879
vn -0.6354 -0.7719 -0.0200
vn -0.4861 -0.7920 0.3694
vn 0.1401 0.4258 -0.8939
vn -0.3594 0.2110 0.9090
vn -0.5256 0.7824 0.3340
vn 0.5631 0.8022 0.1985
vn -0.9047 -0.2472 -0.3470
vn -0.1389 0.2015 -0.9696
vn 0.8575 -0.4837 -0.1753
vn 0.1330 -0.8038 -0.5798
vn 0.5439 -0.6909 0.4762
vt 0.550384 0.206938
vt 0.375000 0.305791
vt 0.375000 0.049496
vt 0.180791 0.500000
vt 0.330928 0.574320
vt 0.125000 0.700504
vt 0.804283 0.500000
vt 0.842867 0.681766
vt 0.658516 0.626313
vt 0.875000 0.500000
vt 0.501754 0.540833
vt 0.565165 0.799791
vt 0.325310 0.750000
vt 0.604031 0.069198
vt 0.375000 1.000000
vt 0.375000 0.799690
vt 0.578028 1.000000
vt 0.615335 0.592735
vt 0.589707 0.775249
vt 0.581909 0.353207
s 0
g Cube_Material
usemtl Material
f 380/631/390 382/632/390 381/633/390
f 382/634/391 385/635/391 381/636/391
f 386/637/392 383/638/392 387/639/392
f 383/638/393 386/637/393 380/640/393
f 388/641/394 379/642/394 384/643/394 385/635/394
f 381/633/395 383/644/395 380/631/395
f 381/645/396 384/646/396 379/642/396 383/647/396
f 385/635/397 384/643/397 381/636/397
f 387/648/398 383/638/398 379/649/398
f 379/642/399 388/641/399 387/648/399
f 388/641/400 385/635/400 382/632/400 386/650/400
f 388/641/401 386/650/401 387/648/401
f 382/632/402 380/631/402 386/650/402
o Cube
v 1.817709 -0.227504 0.806668
v 2.036251 0.371609 1.408588
v 1.924965 0.486451 0.882877
v 2.372886 0.480796 1.065342
v 1.693403 -0.000848 1.268515
v 2.045152 0.138504 0.579019
v 2.429012 0.264325 0.709982
v 2.376144 -0.001992 1.420565
v 2.236495 -0.357295 1.147696
v 2.522197 -0.157432 0.965857
vn -0.0811 0.9700 0.2291
vn 0.2082 0.8496 -0.4847
vn -0.1820 -0.5529 0.8131
vn -0.2147 -0.1645 0.9627
vn 0.3062 -0.5353 -0.7872
vn -0.7561 0.5875 0.2884
vn -0.8906 0.1784 -0.4183
vn 0.0368 0.6645 -0.7464
vn -0.4833 -0.8304 0.2774
vn 0.2062 -0.8032 -0.5589
vn 0.9678 0.2033 0.1482
vn 0.6845 -0.5938 0.4229
vn 0.5307 0.5046 0.6810
vt 0.550384 0.206938
vt 0.375000 0.305791
vt 0.375000 0.049496
vt 0.180791 0.500000
vt 0.330928 0.574320
vt 0.125000 0.700504
vt 0.804283 0.500000
vt 0.842867 0.681766
vt 0.658516 0.626313
vt 0.875000 0.500000
vt 0.501754 0.540833
vt 0.565165 0.799791
vt 0.325310 0.750000
vt 0.604031 0.069198
vt 0.375000 1.000000
vt 0.375000 0.799690
vt 0.578028 1.000000
vt 0.615335 0.592735
vt 0.589707 0.775249
vt 0.581909 0.353207
s 0
g Cube_Material
usemtl Material
f 390/651/403 392/652/403 391/653/403
f 392/654/404 395/655/404 391/656/404
f 396/657/405 393/658/405 397/659/405
f 393/658/406 396/657/406 390/660/406
f 398/661/407 389/662/407 394/663/407 395/655/407
f 391/653/408 393/664/408 390/651/408
f 391/665/409 394/666/409 389/662/409 393/667/409
f 395/655/410 394/663/410 391/656/410
f 397/668/411 393/658/411 389/669/411
f 389/662/412 398/661/412 397/668/412
f 398/661/413 395/655/413 392/652/413 396/670/413
f 398/661/414 396/670/414 397/668/414
f 392/652/415 390/651/415 396/670/415
o Cube
v 2.326539 0.774174 2.049014
v 1.153859 0.768840 2.123980
v 1.586429 0.212402 2.337131
v 1.238633 0.205029 1.790249
v 1.750547 1.085628 2.321459
v 2.123840 0.155729 1.994944
v 1.734873 0.016804 1.603528
v 1.330798 0.946311 1.495074
v 1.952368 1.035015 1.460837
v 1.828869 0.573726 1.238072
vn -0.7680 -0.4078 0.4939
vn -0.2836 -0.9393 0.1930
vn -0.1456 0.9850 -0.0921
vn -0.4932 0.8636 0.1049
vn 0.8012 -0.3338 -0.4966
vn -0.3525 0.0830 0.9321
vn 0.4452 -0.1323 0.8856
vn 0.0709 -0.9602 0.2703
vn 0.4986 0.8643 0.0661
vn 0.8489 0.0276 -0.5278
vn -0.5314 -0.3224 -0.7833
vn -0.1138 0.4566 -0.8824
vn -0.9635 0.0134 -0.2673
vt 0.550384 0.206938
vt 0.375000 0.305791
vt 0.375000 0.049496
vt 0.180791 0.500000
vt 0.330928 0.574320
vt 0.125000 0.700504
vt 0.804283 0.500000
vt 0.842867 0.681766
vt 0.658516 0.626313
vt 0.875000 0.500000
vt 0.501754 0.540833
vt 0.565165 0.799791
vt 0.325310 0.750000
vt 0.604031 0.069198
vt 0.375000 1.000000
vt 0.375000 0.799690
vt 0.578028 1.000000
vt 0.615335 0.592735
vt 0.589707 0.775249
vt 0.581909 0.353207
s 0
g Cube_Material
usemtl Material
f 400/671/416 402/672/416 401/673/416
f 402/674/417 405/675/417 401/676/417
f 406/677/418 403/678/418 407/679/418
f 403/678/419 406/677/419 400/680/419
f 408/681/420 399/682/420 404/683/420 405/675/420
f 401/673/421 403/684/421 400/671/421
f 401/685/422 404/686/422 399/682/422 403/687/422
f 405/675/423 404/683/423 401/676/423
f 407/688/424 403/678/424 399/689/424
f 399/682/425 408/681/425 407/688/425
f 408/681/426 405/675/426 402/672/426 406/690/426
f 408/681/427 406/690/427 407/688/427
f 402/672/428 400/671/428 406/690/428
o Cube
v 2.431078 0.362502 0.230815
v 2.088378 0.426632 -0.715578
v 2.395640 -0.073148 -0.480600
v 2.628948 0.295571 -0.825690
v 1.944820 0.431583 -0.128802
v 2.766062 0.053857 -0.095839
v 2.973837 0.253145 -0.490364
v 2.398342 0.903489 -0.596560
v 2.527392 0.916333 -0.072676
v 2.890688 0.796618 -0.313989
vn -0.2925 -0.5482 -0.7835
vn 0.4132 -0.7478 -0.5196
vn -0.6413 0.7545 0.1395
vn -0.7979 0.5686 -0.2000
vn 0.8013 0.0409 0.5969
vn -0.7942 -0.5773 -0.1894
vn -0.3790 -0.7807 0.4969
vn 0.4811 -0.8580 -0.1800
vn -0.4744 0.4851 0.7346
vn 0.5946 0.3044 0.7442
vn 0.5884 0.4065 -0.6990
vn 0.2589 0.9619 -0.0874
vn -0.1167 0.3112 -0.9431
vt 0.550384 0.206938
vt 0.375000 0.305791
vt 0.375000 0.049496
vt 0.180791 0.500000
vt 0.330928 0.574320
vt 0.125000 0.700504
vt 0.804283 0.500000
vt 0.842867 0.681766
vt 0.658516 0.626313
vt 0.875000 0.500000
vt 0.501754 0.540833
vt 0.565165 0.799791
vt 0.325310 0.750000
vt 0.604031 0.069198
vt 0.375000 1.000000
vt 0.375000 0.799690
vt 0.578028 1.000000
vt 0.615335 0.592735
vt 0.589707 0.775249
vt 0.581909 0.353207
s 0
g Cube_Material
usemtl Material
f 410/691/429 412/692/429 411/693/429
f 412/694/430 415/695/430 411/696/430
f 416/697/431 413/698/431 417/699/431
f 413/698/432 416/697/432 410/700/432
f 418/701/433 409/702/433 414/703/433 415/695/433
f 411/693/434 413/704/434 410/691/434
f 411/705/435 414/706/435 409/702/435 413/707/435
f 415/695/436 414/703/436 411/696/436
f 417/708/437 413/698/437 409/709/437
f 409/702/438 418/701/438 417/708/438
f 418/701/439 415/695/439 412/692/439 416/710/439
f 418/701/440 416/710/440 417/708/440
f 412/692/441 410/691/441 416/710/441
o Cube
v -0.980391 -0.066168 -1.467751
v -1.946138 0.247865 -1.131079
v -1.438430 0.084678 -0.724831
v -1.902001 -0.266977 -0.823215
v -1.423921 0.403127 -1.468473
v -1.084032 -0.323335 -0.941769
v -1.515802 -0.600341 -0.869265
v -2.017618 -0.205362 -1.542665
v -1.515728 -0.331473 -1.787533
v -1.626696 -0.671185 -1.467453
vn -0.4813 0.4191 0.7699
vn -0.0559 -0.1999 0.9782
vn -0.3143 0.4110 -0.8558
vn -0.5506 0.6071 -0.5729
vn 0.6223 -0.7716 -0.1319
vn -0.0192 0.9192 0.3933
vn 0.7367 0.5875 0.3349
vn 0.3024 -0.2292 0.9252
vn 0.3555 0.3346 -0.8727
vn 0.6017 -0.6430 -0.4738
vn -0.7134 -0.6891 0.1275
vn -0.4769 -0.5152 -0.7121
vn -0.9871 0.0108 0.1596
vt 0.550384 0.206938
vt 0.375000 0.305791
vt 0.375000 0.049496
vt 0.180791 0.500000
vt 0.330928 0.574320
vt 0.125000 0.700504
vt 0.804283 0.500000
vt 0.842867 0.681766
vt 0.658516 0.626313
vt 0.875000 0.500000
vt 0.501754 0.540833
vt 0.565165 0.799791
vt 0.325310 0.750000
vt 0.604031 0.069198
vt 0.375000 1.000000
vt 0.375000 0.799690
vt 0.578028 1.000000
vt 0.615335 0.592735
vt 0.589707 0.775249
vt 0.581909 0.353207
s 0
g Cube_Material
usemtl Material
f 420/711/442 422/712/442 421/713/442
f 422/714/443 425/715/443 421/716/443
f 426/717/444 423/718/444 427/719/444
f 423/718/445 426/717/445 420/720/445
f 428/721/446 419/722/446 424/723/446 425/715/446
f 421/713/447 423/724/447 420/711/447
f 421/725/448 424/726/448 419/722/448 423/727/448
f 425/715/449 424/723/449 421/716/449
f 427/728/450 423/718/450 419/729/450
f 419/722/451 428/721/451 427/728/451
f 428/721/452 425/715/452 422/712/452 426/730/452
f 428/721/453 426/730/453 427/728/453
f 422/712/454 420/711/454 426/730/454
o Cube
v -2.086246 -0.050795 0.428857
v -2.265213 0.693229 0.127140
v -1.827795 0.437970 0.031304
v -1.854734 0.789127 0.317345
v -2.397513 0.219278 0.151994
v -1.693462 0.175012 0.367878
v -1.643063 0.534880 0.531048
v -2.334603 0.698304 0.595914
v -2.298519 0.291294 0.759589
v -1.994191 0.483348 0.840589
vn 0.2017 0.6278 -0.7518
vn 0.8422 0.3779 -0.3846
vn -0.9863 -0.0218 0.1633
vn -0.9550 0.2590 -0.1442
vn 0.5282 -0.5172 0.6734
vn -0.2099 0.0073 -0.9777
vn 0.1770 -0.6757 -0.7157
vn 0.9358 0.0283 -0.3514
vn -0.7365 -0.6472 0.1967
vn 0.1883 -0.6197 0.7619
vn 0.2414 0.8084 0.5368
vn -0.4205 0.3062 0.8541
vn -0.2090 0.9770 -0.0415
vt 0.550384 0.206938
vt 0.375000 0.305791
vt 0.375000 0.049496
vt 0.180791 0.500000
vt 0.330928 0.574320
vt 0.125000 0.700504
vt 0.804283 0.500000
vt 0.842867 0.681766
vt 0.658516 0.626313
vt 0.875000 0.500000
vt 0.501754 0.540833
vt 0.565165 0.799791
vt 0.325310 0.750000
vt 0.604031 0.069198
vt 0.375000 1.000000
vt 0.375000 0.799690
vt 0.578028 1.000000
vt 0.615335 0.592735
vt 0.589707 0.775249
vt 0.581909 0.353207
s 0
g Cube_Material
usemtl Material
f 430/731/455 432/732/455 431/733/455
f 432/734/456 435/735/456 431/736/456
f 436/737/457 433/738/457 437/739/457
f 433/738/458 436/737/458 430/740/458
f 438/741/459 429/742/459 434/743/459 435/735/459
f 431/733/460 433/744/460 430/731/460
f 431/745/461 434/746/461 429/742/461 433/747/461
f 435/735/462 434/743/462 431/736/462
f 437/748/463 433/738/463 429/749/463
f 429/742/464 438/741/464 437/748/464
f 438/741/465 435/735/465 432/732/465 436/750/465
f 438/741/466 436/750/466 437/748/466
f 432/732/467 430/731/467 436/750/467
o Cube
v -0.417244 -0.215319 1.745814
v 0.212838 -0.446005 1.247225
v 0.274158 -0.221394 1.716452
v 0.335307 0.002200 1.317868
v -0.189387 -0.595717 1.505117
v -0.058584 0.068531 1.827225
v 0.115457 0.267955 1.520940
v -0.097128 -0.180126 0.991922
v -0.466691 -0.100929 1.231192
v -0.254695 0.208134 1.223554
vn 0.9646 -0.2636 0.0001
vn 0.8351 0.4151 0.3610
vn -0.5164 -0.6177 -0.5931
vn -0.1262 -0.7597 -0.6379
vn -0.5427 0.7623 0.3526
vn 0.5033 -0.8032 0.3187
vn 0.0342 -0.4415 0.8966
vn 0.6126 0.4565 0.6453
vn -0.8653 -0.5005 -0.0281
vn -0.8054 0.5574 0.2013
vn 0.3355 0.6481 -0.6837
vn -0.4714 0.3029 -0.8283
vn 0.6129 -0.0431 -0.7890
vt 0.550384 0.206938
vt 0.375000 0.305791
vt 0.375000 0.049496
vt 0.180791 0.500000
vt 0.330928 0.574320
vt 0.125000 0.700504
vt 0.804283 0.500000
vt 0.842867 0.681766
vt 0.658516 0.626313
vt 0.875000 0.500000
vt 0.501754 0.540833
vt 0.565165 0.799791
vt 0.325310 0.750000
vt 0.604031 0.069198
vt 0.375000 1.000000
vt 0.375000 0.799690
vt 0.578028 1.000000
vt 0.615335 0.592735
vt 0.589707 0.775249
vt 0.581909 0.353207
s 0
g Cube_Material
usemtl Material
f 440/751/468 442/752/468 441/753/468
f 442/754/469 445/755/469 441/756/469
f 446/757/470 443/758/470 447/759/470
f 443/758/471 446/757/471 440/760/471
f 448/761/472 439/762/472 444/763/472 445/755/472
f 441/753/473 443/764/473 440/751/473
f 441/765/474 444/766/474 439/762/474 443/767/474
f 445/755/475 444/763/475 441/756/475
f 447/768/476 443/758/476 439/769/476
f 439/762/477 448/761/477 447/768/477
f 448/761/478 445/755/478 442/752/478 446/770/478
f 448/761/479 446/770/479 447/768/479
f 442/752/480 440/751/480 446/770/480
