# Blender 4.1.0
# www.blender.org
mtllib Explosion20012.mtl
o Circle
v -0.024615 0.096888 -1.522372
v -0.024615 0.242742 -1.522372
v 0.122545 0.096888 -1.515142
v 0.122545 0.242742 -1.515142
v 0.268288 0.096888 -1.493523
v 0.268288 0.242742 -1.493523
v 0.411211 0.096888 -1.457723
v 0.411211 0.242742 -1.457723
v 0.549936 0.096888 -1.408086
v 0.549936 0.242742 -1.408086
v 0.683127 0.096888 -1.345092
v 0.683127 0.242742 -1.345092
v 0.809503 0.096888 -1.269345
v 0.809503 0.242742 -1.269345
v 0.927846 0.096888 -1.181576
v 0.927846 0.242742 -1.181576
v 1.037016 0.096888 -1.082630
v 1.037016 0.242742 -1.082630
v 1.135962 0.096888 -0.973460
v 1.135962 0.242742 -0.973460
v 1.223731 0.096888 -0.855117
v 1.223731 0.242742 -0.855117
v 1.299478 0.096888 -0.728741
v 1.299478 0.242742 -0.728741
v 1.362473 0.096888 -0.595549
v 1.362473 0.242742 -0.595549
v 1.412110 0.096888 -0.456824
v 1.412110 0.242742 -0.456824
v 1.447910 0.096888 -0.313902
v 1.447910 0.242742 -0.313902
v 1.469529 0.096888 -0.168159
v 1.469529 0.242742 -0.168159
v 1.476758 0.096888 -0.020998
v 1.476758 0.242742 -0.020998
v 1.469529 0.096888 0.126162
v 1.469529 0.242742 0.126162
v 1.447910 0.096888 0.271905
v 1.447910 0.242742 0.271905
v 1.412110 0.096888 0.414827
v 1.412110 0.242742 0.414827
v 1.362473 0.096888 0.553553
v 1.362473 0.242742 0.553553
v 1.299478 0.096888 0.686744
v 1.299478 0.242742 0.686744
v 1.223731 0.096888 0.813120
v 1.223731 0.242742 0.813120
v 1.135962 0.096888 0.931463
v 1.135962 0.242742 0.931463
v 1.037016 0.096888 1.040633
v 1.037016 0.242742 1.040633
v 0.927846 0.096888 1.139579
v 0.927846 0.242742 1.139579
v 0.809503 0.096888 1.227348
v 0.809503 0.242742 1.227348
v 0.683127 0.096888 1.303095
v 0.683127 0.242742 1.303095
v 0.549936 0.096888 1.366090
v 0.549936 0.242742 1.366090
v 0.411211 0.096888 1.415727
v 0.411211 0.242742 1.415727
v 0.268288 0.096888 1.451527
v 0.268288 0.242742 1.451527
v 0.122545 0.096888 1.473146
v 0.122545 0.242742 1.473146
v -0.024615 0.096888 1.480376
v -0.024615 0.242742 1.480376
v -0.171775 0.096888 1.473146
v -0.171775 0.242742 1.473146
v -0.317519 0.096888 1.451527
v -0.317519 0.242742 1.451527
v -0.460441 0.096888 1.415727
v -0.460441 0.242742 1.415727
v -0.599166 0.096888 1.366090
v -0.599166 0.242742 1.366090
v -0.732358 0.096888 1.303095
v -0.732358 0.242742 1.303095
v -0.858734 0.096888 1.227348
v -0.858734 0.242742 1.227348
v -0.977076 0.096888 1.139579
v -0.977076 0.242742 1.139579
v -1.086246 0.096888 1.040633
v -1.086246 0.242742 1.040633
v -1.185192 0.096888 0.931463
v -1.185192 0.242742 0.931463
v -1.272961 0.096888 0.813120
v -1.272961 0.242742 0.813120
v -1.348708 0.096888 0.686744
v -1.348708 0.242742 0.686744
v -1.411703 0.096888 0.553553
v -1.411703 0.242742 0.553553
v -1.461340 0.096888 0.414827
v -1.461340 0.242742 0.414827
v -1.497140 0.096888 0.271905
v -1.497140 0.242742 0.271905
v -1.518759 0.096888 0.126162
v -1.518759 0.242742 0.126162
v -1.525989 0.096888 -0.020998
v -1.525989 0.242742 -0.020998
v -1.518759 0.096888 -0.168159
v -1.518759 0.242742 -0.168159
v -1.497140 0.096888 -0.313902
v -1.497140 0.242742 -0.313902
v -1.461340 0.096888 -0.456824
v -1.461340 0.242742 -0.456824
v -1.411703 0.096888 -0.595549
v -1.411703 0.242742 -0.595549
v -1.348708 0.096888 -0.728741
v -1.348708 0.242742 -0.728741
v -1.272961 0.096888 -0.855117
v -1.272961 0.242742 -0.855117
v -1.185192 0.096888 -0.973460
v -1.185192 0.242742 -0.973460
v -1.086246 0.096888 -1.082630
v -1.086246 0.242742 -1.082630
v -0.977076 0.096888 -1.181576
v -0.977076 0.242742 -1.181576
v -0.858734 0.096888 -1.269345
v -0.858734 0.242742 -1.269345
v -0.732358 0.096888 -1.345092
v -0.732358 0.242742 -1.345092
v -0.599166 0.096888 -1.408086
v -0.599166 0.242742 -1.408086
v -0.460441 0.096888 -1.457723
v -0.460441 0.242742 -1.457723
v -0.317519 0.096888 -1.493523
v -0.317519 0.242742 -1.493523
v -0.171775 0.096888 -1.515142
v -0.171775 0.242742 -1.515142
vn 0.0491 -0.0000 -0.9988
vn 0.1467 -0.0000 -0.9892
vn 0.2430 -0.0000 -0.9700
vn 0.3369 -0.0000 -0.9415
vn 0.4276 -0.0000 -0.9040
vn 0.5141 -0.0000 -0.8577
vn 0.5957 -0.0000 -0.8032
vn 0.6716 -0.0000 -0.7410
vn 0.7410 -0.0000 -0.6716
vn 0.8032 -0.0000 -0.5957
vn 0.8577 -0.0000 -0.5141
vn 0.9040 -0.0000 -0.4276
vn 0.9415 -0.0000 -0.3369
vn 0.9700 -0.0000 -0.2430
vn 0.9892 -0.0000 -0.1467
vn 0.9988 -0.0000 -0.0491
vn 0.9988 -0.0000 0.0491
vn 0.9892 -0.0000 0.1467
vn 0.9700 -0.0000 0.2430
vn 0.9415 -0.0000 0.3369
vn 0.9040 -0.0000 0.4276
vn 0.8577 -0.0000 0.5141
vn 0.8032 -0.0000 0.5957
vn 0.7410 -0.0000 0.6716
vn 0.6716 -0.0000 0.7410
vn 0.5957 -0.0000 0.8032
vn 0.5141 -0.0000 0.8577
vn 0.4276 -0.0000 0.9040
vn 0.3369 -0.0000 0.9415
vn 0.2430 -0.0000 0.9700
vn 0.1467 -0.0000 0.9892
vn 0.0491 -0.0000 0.9988
vn -0.0491 -0.0000 0.9988
vn -0.1467 -0.0000 0.9892
vn -0.2430 -0.0000 0.9700
vn -0.3369 -0.0000 0.9415
vn -0.4276 -0.0000 0.9040
vn -0.5141 -0.0000 0.8577
vn -0.5957 -0.0000 0.8032
vn -0.6716 -0.0000 0.7410
vn -0.7410 -0.0000 0.6716
vn -0.8032 -0.0000 0.5957
vn -0.8577 -0.0000 0.5141
vn -0.9040 -0.0000 0.4276
vn -0.9415 -0.0000 0.3369
vn -0.9700 -0.0000 0.2430
vn -0.9892 -0.0000 0.1467
vn -0.9988 -0.0000 0.0491
vn -0.9988 -0.0000 -0.0491
vn -0.9892 -0.0000 -0.1467
vn -0.9700 -0.0000 -0.2430
vn -0.9415 -0.0000 -0.3369
vn -0.9040 -0.0000 -0.4276
vn -0.8577 -0.0000 -0.5141
vn -0.8032 -0.0000 -0.5957
vn -0.7410 -0.0000 -0.6716
vn -0.6716 -0.0000 -0.7410
vn -0.5957 -0.0000 -0.8032
vn -0.5141 -0.0000 -0.8577
vn -0.4276 -0.0000 -0.9040
vn -0.3369 -0.0000 -0.9415
vn -0.2430 -0.0000 -0.9700
vn -0.1467 -0.0000 -0.9892
vn -0.0491 -0.0000 -0.9988
vt 1.000000 0.500000
vt 1.000000 1.000000
vt 0.984375 1.000000
vt 0.984375 0.500000
vt 0.968750 1.000000
vt 0.968750 0.500000
vt 0.953125 1.000000
vt 0.953125 0.500000
vt 0.937500 1.000000
vt 0.937500 0.500000
vt 0.921875 1.000000
vt 0.921875 0.500000
vt 0.906250 1.000000
vt 0.906250 0.500000
vt 0.890625 1.000000
vt 0.890625 0.500000
vt 0.875000 1.000000
vt 0.875000 0.500000
vt 0.859375 1.000000
vt 0.859375 0.500000
vt 0.843750 1.000000
vt 0.843750 0.500000
vt 0.828125 1.000000
vt 0.828125 0.500000
vt 0.812500 1.000000
vt 0.812500 0.500000
vt 0.796875 1.000000
vt 0.796875 0.500000
vt 0.781250 1.000000
vt 0.781250 0.500000
vt 0.765625 1.000000
vt 0.765625 0.500000
vt 0.750000 1.000000
vt 0.750000 0.500000
vt 0.734375 1.000000
vt 0.734375 0.500000
vt 0.718750 1.000000
vt 0.718750 0.500000
vt 0.703125 1.000000
vt 0.703125 0.500000
vt 0.687500 1.000000
vt 0.687500 0.500000
vt 0.671875 1.000000
vt 0.671875 0.500000
vt 0.656250 1.000000
vt 0.656250 0.500000
vt 0.640625 1.000000
vt 0.640625 0.500000
vt 0.625000 1.000000
vt 0.625000 0.500000
vt 0.609375 1.000000
vt 0.609375 0.500000
vt 0.593750 1.000000
vt 0.593750 0.500000
vt 0.578125 1.000000
vt 0.578125 0.500000
vt 0.562500 1.000000
vt 0.562500 0.500000
vt 0.546875 1.000000
vt 0.546875 0.500000
vt 0.531250 1.000000
vt 0.531250 0.500000
vt 0.515625 1.000000
vt 0.515625 0.500000
vt 0.500000 1.000000
vt 0.500000 0.500000
vt 0.484375 1.000000
vt 0.484375 0.500000
vt 0.468750 1.000000
vt 0.468750 0.500000
vt 0.453125 1.000000
vt 0.453125 0.500000
vt 0.437500 1.000000
vt 0.437500 0.500000
vt 0.421875 1.000000
vt 0.421875 0.500000
vt 0.406250 1.000000
vt 0.406250 0.500000
vt 0.390625 1.000000
vt 0.390625 0.500000
vt 0.375000 1.000000
vt 0.375000 0.500000
vt 0.359375 1.000000
vt 0.359375 0.500000
vt 0.343750 1.000000
vt 0.343750 0.500000
vt 0.328125 1.000000
vt 0.328125 0.500000
vt 0.312500 1.000000
vt 0.312500 0.500000
vt 0.296875 1.000000
vt 0.296875 0.500000
vt 0.281250 1.000000
vt 0.281250 0.500000
vt 0.265625 1.000000
vt 0.265625 0.500000
vt 0.250000 1.000000
vt 0.250000 0.500000
vt 0.234375 1.000000
vt 0.234375 0.500000
vt 0.218750 1.000000
vt 0.218750 0.500000
vt 0.203125 1.000000
vt 0.203125 0.500000
vt 0.187500 1.000000
vt 0.187500 0.500000
vt 0.171875 1.000000
vt 0.171875 0.500000
vt 0.156250 1.000000
vt 0.156250 0.500000
vt 0.140625 1.000000
vt 0.140625 0.500000
vt 0.125000 1.000000
vt 0.125000 0.500000
vt 0.109375 1.000000
vt 0.109375 0.500000
vt 0.093750 1.000000
vt 0.093750 0.500000
vt 0.078125 1.000000
vt 0.078125 0.500000
vt 0.062500 1.000000
vt 0.062500 0.500000
vt 0.046875 1.000000
vt 0.046875 0.500000
vt 0.031250 1.000000
vt 0.031250 0.500000
vt 0.015625 1.000000
vt 0.015625 0.500000
vt 0.000000 1.000000
vt 0.000000 0.500000
s 0
g Circle_Material.001
usemtl Material.001
f 1/1/1 2/2/1 4/3/1 3/4/1
f 3/4/2 4/3/2 6/5/2 5/6/2
f 5/6/3 6/5/3 8/7/3 7/8/3
f 7/8/4 8/7/4 10/9/4 9/10/4
f 9/10/5 10/9/5 12/11/5 11/12/5
f 11/12/6 12/11/6 14/13/6 13/14/6
f 13/14/7 14/13/7 16/15/7 15/16/7
f 15/16/8 16/15/8 18/17/8 17/18/8
f 17/18/9 18/17/9 20/19/9 19/20/9
f 19/20/10 20/19/10 22/21/10 21/22/10
f 21/22/11 22/21/11 24/23/11 23/24/11
f 23/24/12 24/23/12 26/25/12 25/26/12
f 25/26/13 26/25/13 28/27/13 27/28/13
f 27/28/14 28/27/14 30/29/14 29/30/14
f 29/30/15 30/29/15 32/31/15 31/32/15
f 31/32/16 32/31/16 34/33/16 33/34/16
f 33/34/17 34/33/17 36/35/17 35/36/17
f 35/36/18 36/35/18 38/37/18 37/38/18
f 37/38/19 38/37/19 40/39/19 39/40/19
f 39/40/20 40/39/20 42/41/20 41/42/20
f 41/42/21 42/41/21 44/43/21 43/44/21
f 43/44/22 44/43/22 46/45/22 45/46/22
f 45/46/23 46/45/23 48/47/23 47/48/23
f 47/48/24 48/47/24 50/49/24 49/50/24
f 49/50/25 50/49/25 52/51/25 51/52/25
f 51/52/26 52/51/26 54/53/26 53/54/26
f 53/54/27 54/53/27 56/55/27 55/56/27
f 55/56/28 56/55/28 58/57/28 57/58/28
f 57/58/29 58/57/29 60/59/29 59/60/29
f 59/60/30 60/59/30 62/61/30 61/62/30
f 61/62/31 62/61/31 64/63/31 63/64/31
f 63/64/32 64/63/32 66/65/32 65/66/32
f 65/66/33 66/65/33 68/67/33 67/68/33
f 67/68/34 68/67/34 70/69/34 69/70/34
f 69/70/35 70/69/35 72/71/35 71/72/35
f 71/72/36 72/71/36 74/73/36 73/74/36
f 73/74/37 74/73/37 76/75/37 75/76/37
f 75/76/38 76/75/38 78/77/38 77/78/38
f 77/78/39 78/77/39 80/79/39 79/80/39
f 79/80/40 80/79/40 82/81/40 81/82/40
f 81/82/41 82/81/41 84/83/41 83/84/41
f 83/84/42 84/83/42 86/85/42 85/86/42
f 85/86/43 86/85/43 88/87/43 87/88/43
f 87/88/44 88/87/44 90/89/44 89/90/44
f 89/90/45 90/89/45 92/91/45 91/92/45
f 91/92/46 92/91/46 94/93/46 93/94/46
f 93/94/47 94/93/47 96/95/47 95/96/47
f 95/96/48 96/95/48 98/97/48 97/98/48
f 97/98/49 98/97/49 100/99/49 99/100/49
f 99/100/50 100/99/50 102/101/50 101/102/50
f 101/102/51 102/101/51 104/103/51 103/104/51
f 103/104/52 104/103/52 106/105/52 105/106/52
f 105/106/53 106/105/53 108/107/53 107/108/53
f 107/108/54 108/107/54 110/109/54 109/110/54
f 109/110/55 110/109/55 112/111/55 111/112/55
f 111/112/56 112/111/56 114/113/56 113/114/56
f 113/114/57 114/113/57 116/115/57 115/116/57
f 115/116/58 116/115/58 118/117/58 117/118/58
f 117/118/59 118/117/59 120/119/59 119/120/59
f 119/120/60 120/119/60 122/121/60 121/122/60
f 121/122/61 122/121/61 124/123/61 123/124/61
f 123/124/62 124/123/62 126/125/62 125/126/62
f 125/126/63 126/125/63 128/127/63 127/128/63
f 127/128/64 128/127/64 2/129/64 1/130/64
o Cube
v 3.887563 -0.098590 3.240440
v 3.256712 0.706598 2.780514
v 3.135255 0.418500 3.409902
v 2.804109 0.285500 2.904598
v 3.868025 0.533303 2.998525
v 3.305008 -0.166420 3.451450
v 2.892018 -0.206475 3.101028
v 3.330990 0.230041 2.350540
v 3.730279 -0.170442 2.551421
v 3.266195 -0.357625 2.601638
vn -0.6320 0.7436 0.2184
vn -0.8423 0.0632 0.5353
vn 0.6562 0.3089 -0.6884
vn 0.4123 0.6449 -0.6435
vn 0.0753 -0.9736 0.2156
vn 0.1009 0.8971 0.4301
vn 0.3820 0.2656 0.8852
vn -0.6341 -0.1299 0.7622
vn 0.9747 -0.0529 -0.2170
vn 0.3751 -0.9269 0.0110
vn -0.7580 -0.2635 -0.5967
vn 0.0614 -0.3979 -0.9154
vn -0.6140 0.4739 -0.6313
vt 0.550384 0.206938
vt 0.375000 0.305791
vt 0.375000 0.049496
vt 0.180791 0.500000
vt 0.330928 0.574320
vt 0.125000 0.700504
vt 0.804283 0.500000
vt 0.842867 0.681766
vt 0.658516 0.626313
vt 0.875000 0.500000
vt 0.501754 0.540833
vt 0.565165 0.799791
vt 0.325310 0.750000
vt 0.604031 0.069198
vt 0.375000 1.000000
vt 0.375000 0.799690
vt 0.578028 1.000000
vt 0.615335 0.592735
vt 0.589707 0.775249
vt 0.581909 0.353207
s 0
g Cube_Material
usemtl Material
f 130/131/65 132/132/65 131/133/65
f 132/134/66 135/135/66 131/136/66
f 136/137/67 133/138/67 137/139/67
f 133/138/68 136/137/68 130/140/68
f 138/141/69 129/142/69 134/143/69 135/135/69
f 131/133/70 133/144/70 130/131/70
f 131/145/71 134/146/71 129/142/71 133/147/71
f 135/135/72 134/143/72 131/136/72
f 137/148/73 133/138/73 129/149/73
f 129/142/74 138/141/74 137/148/74
f 138/141/75 135/135/75 132/132/75 136/150/75
f 138/141/76 136/150/76 137/148/76
f 132/132/77 130/131/77 136/150/77
o Cube
v 3.254014 0.031385 -0.623081
v 4.123783 -0.064875 -0.932465
v 3.982220 0.038740 -0.377956
v 4.173292 0.395385 -0.691627
v 3.625019 -0.303794 -0.875717
v 3.562517 0.314271 -0.321618
v 3.837866 0.618862 -0.504440
v 3.870718 0.292274 -1.239625
v 3.387249 0.304213 -1.126514
v 3.575124 0.639061 -0.965855
vn 0.9266 -0.2477 0.2828
vn 0.6126 0.3109 0.7267
vn -0.2146 -0.4430 -0.8705
vn 0.1792 -0.5654 -0.8051
vn -0.7052 0.6386 0.3081
vn 0.4407 -0.8553 0.2723
vn -0.2331 -0.6621 0.7122
vn 0.3026 0.2743 0.9128
vn -0.7471 -0.4813 -0.4585
vn -0.8773 0.4791 0.0274
vn 0.4836 0.8077 -0.3372
vn -0.1844 0.5073 -0.8418
vn 0.8486 0.1707 -0.5007
vt 0.550384 0.206938
vt 0.375000 0.305791
vt 0.375000 0.049496
vt 0.180791 0.500000
vt 0.330928 0.574320
vt 0.125000 0.700504
vt 0.804283 0.500000
vt 0.842867 0.681766
vt 0.658516 0.626313
vt 0.875000 0.500000
vt 0.501754 0.540833
vt 0.565165 0.799791
vt 0.325310 0.750000
vt 0.604031 0.069198
vt 0.375000 1.000000
vt 0.375000 0.799690
vt 0.578028 1.000000
vt 0.615335 0.592735
vt 0.589707 0.775249
vt 0.581909 0.353207
s 0
g Cube_Material
usemtl Material
f 140/151/78 142/152/78 141/153/78
f 142/154/79 145/155/79 141/156/79
f 146/157/80 143/158/80 147/159/80
f 143/158/81 146/157/81 140/160/81
f 148/161/82 139/162/82 144/163/82 145/155/82
f 141/153/83 143/164/83 140/151/83
f 141/165/84 144/166/84 139/162/84 143/167/84
f 145/155/85 144/163/85 141/156/85
f 147/168/86 143/158/86 139/169/86
f 139/162/87 148/161/87 147/168/87
f 148/161/88 145/155/88 142/152/88 146/170/88
f 148/161/89 146/170/89 147/168/89
f 142/152/90 140/151/90 146/170/90
o Cube
v 0.712696 0.987428 3.622389
v 0.962816 -0.326129 3.968173
v 1.306237 0.358770 4.370626
v 1.694860 -0.080964 3.884875
v 0.389312 0.263454 3.879597
v 1.418464 0.951494 3.922008
v 1.866213 0.521568 3.672998
v 1.080784 -0.240798 3.185893
v 0.858146 0.428516 2.965287
v 1.476746 0.416263 2.992988
vn 0.2830 -0.5874 0.7582
vn 0.7801 -0.0018 0.6257
vn -0.7772 -0.4146 -0.4734
vn -0.6913 -0.6996 -0.1806
vn 0.3512 0.8207 -0.4508
vn -0.4286 -0.2883 0.8563
vn -0.3866 0.5318 0.7535
vn 0.6890 0.3499 0.6347
vn -0.8794 0.2485 -0.4061
vn 0.0439 0.7658 -0.6416
vn 0.7495 -0.4830 -0.4526
vn 0.0367 -0.3018 -0.9527
vn 0.3113 -0.9486 -0.0565
vt 0.550384 0.206938
vt 0.375000 0.305791
vt 0.375000 0.049496
vt 0.180791 0.500000
vt 0.330928 0.574320
vt 0.125000 0.700504
vt 0.804283 0.500000
vt 0.842867 0.681766
vt 0.658516 0.626313
vt 0.875000 0.500000
vt 0.501754 0.540833
vt 0.565165 0.799791
vt 0.325310 0.750000
vt 0.604031 0.069198
vt 0.375000 1.000000
vt 0.375000 0.799690
vt 0.578028 1.000000
vt 0.615335 0.592735
vt 0.589707 0.775249
vt 0.581909 0.353207
s 0
g Cube_Material
usemtl Material
f 150/171/91 152/172/91 151/173/91
f 152/174/92 155/175/92 151/176/92
f 156/177/93 153/178/93 157/179/93
f 153/178/94 156/177/94 150/180/94
f 158/181/95 149/182/95 154/183/95 155/175/95
f 151/173/96 153/184/96 150/171/96
f 151/185/97 154/186/97 149/182/97 153/187/97
f 155/175/98 154/183/98 151/176/98
f 157/188/99 153/178/99 149/189/99
f 149/182/100 158/181/100 157/188/100
f 158/181/101 155/175/101 152/172/101 156/190/101
f 158/181/102 156/190/102 157/188/102
f 152/172/103 150/171/103 156/190/103
o Cube
v -2.863620 -0.046377 2.899403
v -2.470982 0.270151 2.469409
v -2.542564 -0.138894 2.464193
v -2.231541 0.009585 2.586069
v -2.837780 0.236077 2.617342
v -2.601727 -0.281287 2.790331
v -2.292299 -0.200154 2.816317
v -2.369826 0.369452 2.823955
v -2.603627 0.242341 3.058382
v -2.356264 0.077806 3.066532
vn 0.3874 -0.0561 -0.9202
vn 0.5246 -0.6937 -0.4935
vn -0.3374 0.9266 0.1660
vn -0.1772 0.9597 -0.2182
vn -0.0419 -0.5910 0.8056
vn -0.3791 0.0781 -0.9220
vn -0.7477 -0.4907 -0.4473
vn 0.2651 -0.9004 -0.3450
vn -0.7789 0.4774 0.4067
vn -0.2310 -0.3014 0.9251
vn 0.9642 0.1281 0.2321
vn 0.3776 0.6025 0.7032
vn 0.7610 0.5350 -0.3670
vt 0.550384 0.206938
vt 0.375000 0.305791
vt 0.375000 0.049496
vt 0.180791 0.500000
vt 0.330928 0.574320
vt 0.125000 0.700504
vt 0.804283 0.500000
vt 0.842867 0.681766
vt 0.658516 0.626313
vt 0.875000 0.500000
vt 0.501754 0.540833
vt 0.565165 0.799791
vt 0.325310 0.750000
vt 0.604031 0.069198
vt 0.375000 1.000000
vt 0.375000 0.799690
vt 0.578028 1.000000
vt 0.615335 0.592735
vt 0.589707 0.775249
vt 0.581909 0.353207
s 0
g Cube_Material
usemtl Material
f 160/191/104 162/192/104 161/193/104
f 162/194/105 165/195/105 161/196/105
f 166/197/106 163/198/106 167/199/106
f 163/198/107 166/197/107 160/200/107
f 168/201/108 159/202/108 164/203/108 165/195/108
f 161/193/109 163/204/109 160/191/109
f 161/205/110 164/206/110 159/202/110 163/207/110
f 165/195/111 164/203/111 161/196/111
f 167/208/112 163/198/112 159/209/112
f 159/202/113 168/201/113 167/208/113
f 168/201/114 165/195/114 162/192/114 166/210/114
f 168/201/115 166/210/115 167/208/115
f 162/192/116 160/191/116 166/210/116
o Cube
v 3.076628 0.987380 0.997901
v 2.306520 0.869551 1.185293
v 2.693195 0.718789 1.467882
v 2.452795 0.444728 1.218007
v 2.649142 1.192661 1.092776
v 3.049361 0.613963 1.238994
v 2.808259 0.329971 1.130451
v 2.377883 0.724206 0.752977
v 2.771265 0.834172 0.622561
v 2.765005 0.483423 0.700319
vn -0.6216 -0.1549 0.7679
vn -0.0281 -0.6599 0.7508
vn -0.3950 0.6782 -0.6197
vn -0.6933 0.6407 -0.3299
vn 0.8427 -0.4135 -0.3447
vn -0.3306 0.5667 0.7547
vn 0.4936 0.5179 0.6987
vn 0.3224 -0.5642 0.7601
vn 0.2637 0.7989 -0.5406
vn 0.7956 -0.1446 -0.5883
vn -0.4576 -0.8226 -0.3375
vn -0.2559 -0.2049 -0.9447
vn -0.9435 -0.3283 -0.0453
vt 0.550384 0.206938
vt 0.375000 0.305791
vt 0.375000 0.049496
vt 0.180791 0.500000
vt 0.330928 0.574320
vt 0.125000 0.700504
vt 0.804283 0.500000
vt 0.842867 0.681766
vt 0.658516 0.626313
vt 0.875000 0.500000
vt 0.501754 0.540833
vt 0.565165 0.799791
vt 0.325310 0.750000
vt 0.604031 0.069198
vt 0.375000 1.000000
vt 0.375000 0.799690
vt 0.578028 1.000000
vt 0.615335 0.592735
vt 0.589707 0.775249
vt 0.581909 0.353207
s 0
g Cube_Material
usemtl Material
f 170/211/117 172/212/117 171/213/117
f 172/214/118 175/215/118 171/216/118
f 176/217/119 173/218/119 177/219/119
f 173/218/120 176/217/120 170/220/120
f 178/221/121 169/222/121 174/223/121 175/215/121
f 171/213/122 173/224/122 170/211/122
f 171/225/123 174/226/123 169/222/123 173/227/123
f 175/215/124 174/223/124 171/216/124
f 177/228/125 173/218/125 169/229/125
f 169/222/126 178/221/126 177/228/126
f 178/221/127 175/215/127 172/212/127 176/230/127
f 178/221/128 176/230/128 177/228/128
f 172/212/129 170/211/129 176/230/129
o Cube
v 2.971634 0.063039 -1.380191
v 2.739089 0.551392 -0.571110
v 2.348701 0.208463 -0.890331
v 2.349562 0.745125 -0.902947
v 3.076697 0.139016 -0.807286
v 2.448460 0.196899 -1.410472
v 2.316557 0.646194 -1.357105
v 2.995641 0.901929 -0.925641
v 3.186567 0.638837 -1.332516
v 2.825360 0.851525 -1.453998
vn -0.6429 0.0190 0.7657
vn -0.9974 0.0033 0.0718
vn 0.9289 0.1511 0.3381
vn 0.7028 0.1814 0.6879
vn -0.0623 -0.0305 -0.9976
vn -0.1467 -0.5793 0.8018
vn -0.1669 -0.9828 0.0795
vn -0.9499 -0.2579 -0.1765
vn 0.9327 -0.3377 -0.1263
vn 0.3009 -0.0334 -0.9531
vn -0.3058 0.9486 -0.0809
vn 0.5528 0.7937 -0.2539
vn -0.1617 0.7577 0.6322
vt 0.550384 0.206938
vt 0.375000 0.305791
vt 0.375000 0.049496
vt 0.180791 0.500000
vt 0.330928 0.574320
vt 0.125000 0.700504
vt 0.804283 0.500000
vt 0.842867 0.681766
vt 0.658516 0.626313
vt 0.875000 0.500000
vt 0.501754 0.540833
vt 0.565165 0.799791
vt 0.325310 0.750000
vt 0.604031 0.069198
vt 0.375000 1.000000
vt 0.375000 0.799690
vt 0.578028 1.000000
vt 0.615335 0.592735
vt 0.589707 0.775249
vt 0.581909 0.353207
s 0
g Cube_Material
usemtl Material
f 180/231/130 182/232/130 181/233/130
f 182/234/131 185/235/131 181/236/131
f 186/237/132 183/238/132 187/239/132
f 183/238/133 186/237/133 180/240/133
f 188/241/134 179/242/134 184/243/134 185/235/134
f 181/233/135 183/244/135 180/231/135
f 181/245/136 184/246/136 179/242/136 183/247/136
f 185/235/137 184/243/137 181/236/137
f 187/248/138 183/238/138 179/249/138
f 179/242/139 188/241/139 187/248/139
f 188/241/140 185/235/140 182/232/140 186/250/140
f 188/241/141 186/250/141 187/248/141
f 182/232/142 180/231/142 186/250/142
o Cube
v -1.459074 0.100587 1.747568
v -1.966132 0.693925 2.172991
v -2.114172 0.165720 2.076408
v -2.293281 0.546697 1.825080
v -1.503273 0.430846 2.168047
v -1.931998 -0.017527 1.667338
v -2.203488 0.276474 1.508769
v -1.807529 0.899477 1.731564
v -1.485356 0.617064 1.524926
v -1.834189 0.580711 1.335504
vn -0.7439 0.0873 0.6626
vn -0.9196 -0.3867 0.0693
vn 0.7176 0.6634 0.2121
vn 0.4310 0.7488 0.5035
vn 0.1558 -0.4985 -0.8528
vn -0.0792 -0.1578 0.9843
vn 0.1979 -0.8084 0.5544
vn -0.7295 -0.6837 -0.0186
vn 0.9963 0.0716 0.0485
vn 0.4770 -0.3273 -0.8157
vn -0.6134 0.5811 -0.5348
vn 0.2571 0.7443 -0.6164
vn -0.5554 0.8121 0.1786
vt 0.550384 0.206938
vt 0.375000 0.305791
vt 0.375000 0.049496
vt 0.180791 0.500000
vt 0.330928 0.574320
vt 0.125000 0.700504
vt 0.804283 0.500000
vt 0.842867 0.681766
vt 0.658516 0.626313
vt 0.875000 0.500000
vt 0.501754 0.540833
vt 0.565165 0.799791
vt 0.325310 0.750000
vt 0.604031 0.069198
vt 0.375000 1.000000
vt 0.375000 0.799690
vt 0.578028 1.000000
vt 0.615335 0.592735
vt 0.589707 0.775249
vt 0.581909 0.353207
s 0
g Cube_Material
usemtl Material
f 190/251/143 192/252/143 191/253/143
f 192/254/144 195/255/144 191/256/144
f 196/257/145 193/258/145 197/259/145
f 193/258/146 196/257/146 190/260/146
f 198/261/147 189/262/147 194/263/147 195/255/147
f 191/253/148 193/264/148 190/251/148
f 191/265/149 194/266/149 189/262/149 193/267/149
f 195/255/150 194/263/150 191/256/150
f 197/268/151 193/258/151 189/269/151
f 189/262/152 198/261/152 197/268/152
f 198/261/153 195/255/153 192/252/153 196/270/153
f 198/261/154 196/270/154 197/268/154
f 192/252/155 190/251/155 196/270/155
o Cube
v -1.369721 -0.079498 2.436332
v -1.604927 0.881423 2.404336
v -1.382145 0.592087 2.905667
v -1.906485 0.732719 2.847748
v -1.265745 0.450005 2.180016
v -1.525859 0.074039 2.940953
v -1.949728 0.288133 3.006077
v -2.044370 0.578460 2.203610
v -1.906691 0.069907 2.149266
v -2.161733 0.115899 2.509606
vn 0.1902 0.8845 0.4260
vn -0.0137 0.3366 0.9415
vn -0.0132 0.1027 -0.9946
vn 0.0553 0.4945 -0.8674
vn -0.2713 -0.9107 0.3115
vn 0.7875 0.6162 0.0057
vn 0.9557 -0.1566 0.2493
vn 0.1627 0.0221 0.9864
vn 0.3143 -0.4629 -0.8288
vn -0.2435 -0.9687 -0.0487
vn -0.9387 0.2735 0.2097
vn -0.8151 -0.1612 -0.5564
vn -0.5388 0.8381 -0.0854
vt 0.550384 0.206938
vt 0.375000 0.305791
vt 0.375000 0.049496
vt 0.180791 0.500000
vt 0.330928 0.574320
vt 0.125000 0.700504
vt 0.804283 0.500000
vt 0.842867 0.681766
vt 0.658516 0.626313
vt 0.875000 0.500000
vt 0.501754 0.540833
vt 0.565165 0.799791
vt 0.325310 0.750000
vt 0.604031 0.069198
vt 0.375000 1.000000
vt 0.375000 0.799690
vt 0.578028 1.000000
vt 0.615335 0.592735
vt 0.589707 0.775249
vt 0.581909 0.353207
s 0
g Cube_Material
usemtl Material
f 200/271/156 202/272/156 201/273/156
f 202/274/157 205/275/157 201/276/157
f 206/277/158 203/278/158 207/279/158
f 203/278/159 206/277/159 200/280/159
f 208/281/160 199/282/160 204/283/160 205/275/160
f 201/273/161 203/284/161 200/271/161
f 201/285/162 204/286/162 199/282/162 203/287/162
f 205/275/163 204/283/163 201/276/163
f 207/288/164 203/278/164 199/289/164
f 199/282/165 208/281/165 207/288/165
f 208/281/166 205/275/166 202/272/166 206/290/166
f 208/281/167 206/290/167 207/288/167
f 202/272/168 200/271/168 206/290/168
o Cube
v 1.293539 0.103712 -1.147333
v 2.034147 0.127445 -1.301841
v 1.774759 -0.269580 -1.294804
v 2.040313 -0.162921 -0.990810
v 1.619840 0.266469 -1.422547
v 1.463501 -0.261121 -1.024993
v 1.750604 -0.262411 -0.797126
v 1.961377 0.344873 -0.930898
v 1.563296 0.384294 -0.867386
v 1.687050 0.144290 -0.661736
vn 0.7348 -0.4884 -0.4706
vn 0.3426 -0.9390 0.0302
vn 0.0648 0.9775 -0.2009
vn 0.3948 0.8243 -0.4057
vn -0.6992 -0.2231 0.6793
vn 0.2248 -0.1639 -0.9605
vn -0.5377 -0.4000 -0.7422
vn -0.0153 -0.9998 0.0137
vn -0.5803 0.7826 -0.2252
vn -0.7757 0.1294 0.6178
vn 0.6520 -0.0598 0.7558
vn 0.1801 0.6919 0.6992
vn 0.9839 0.1398 0.1111
vt 0.550384 0.206938
vt 0.375000 0.305791
vt 0.375000 0.049496
vt 0.180791 0.500000
vt 0.330928 0.574320
vt 0.125000 0.700504
vt 0.804283 0.500000
vt 0.842867 0.681766
vt 0.658516 0.626313
vt 0.875000 0.500000
vt 0.501754 0.540833
vt 0.565165 0.799791
vt 0.325310 0.750000
vt 0.604031 0.069198
vt 0.375000 1.000000
vt 0.375000 0.799690
vt 0.578028 1.000000
vt 0.615335 0.592735
vt 0.589707 0.775249
vt 0.581909 0.353207
s 0
g Cube_Material
usemtl Material
f 210/291/169 212/292/169 211/293/169
f 212/294/170 215/295/170 211/296/170
f 216/297/171 213/298/171 217/299/171
f 213/298/172 216/297/172 210/300/172
f 218/301/173 209/302/173 214/303/173 215/295/173
f 211/293/174 213/304/174 210/291/174
f 211/305/175 214/306/175 209/302/175 213/307/175
f 215/295/176 214/303/176 211/296/176
f 217/308/177 213/298/177 209/309/177
f 209/302/178 218/301/178 217/308/178
f 218/301/179 215/295/179 212/292/179 216/310/179
f 218/301/180 216/310/180 217/308/180
f 212/292/181 210/291/181 216/310/181
o Cube
v -2.494420 0.004525 -0.560387
v -1.881337 -0.522028 -0.936669
v -1.930130 -0.438219 -0.386545
v -1.578149 -0.232810 -0.661678
v -2.402303 -0.427459 -0.867629
v -2.094167 0.002912 -0.268408
v -1.707260 0.102823 -0.431751
v -1.870534 -0.064090 -1.168960
v -2.235294 0.204999 -1.020287
v -1.897974 0.330881 -0.846576
vn 0.5935 -0.7861 0.1724
vn 0.6773 -0.2203 0.7020
vn -0.4379 -0.1000 -0.8934
vn -0.1960 -0.4399 -0.8764
vn -0.1815 0.8805 0.4379
vn -0.1597 -0.9779 0.1348
vn -0.5829 -0.4877 0.6500
vn 0.4073 -0.0919 0.9086
vn -0.8868 0.1269 -0.4443
vn -0.4151 0.8962 0.1567
vn 0.8710 0.4011 -0.2837
vn 0.1558 0.6311 -0.7599
vn 0.7813 -0.2969 -0.5491
vt 0.550384 0.206938
vt 0.375000 0.305791
vt 0.375000 0.049496
vt 0.180791 0.500000
vt 0.330928 0.574320
vt 0.125000 0.700504
vt 0.804283 0.500000
vt 0.842867 0.681766
vt 0.658516 0.626313
vt 0.875000 0.500000
vt 0.501754 0.540833
vt 0.565165 0.799791
vt 0.325310 0.750000
vt 0.604031 0.069198
vt 0.375000 1.000000
vt 0.375000 0.799690
vt 0.578028 1.000000
vt 0.615335 0.592735
vt 0.589707 0.775249
vt 0.581909 0.353207
s 0
g Cube_Material
usemtl Material
f 220/311/182 222/312/182 221/313/182
f 222/314/183 225/315/183 221/316/183
f 226/317/184 223/318/184 227/319/184
f 223/318/185 226/317/185 220/320/185
f 228/321/186 219/322/186 224/323/186 225/315/186
f 221/313/187 223/324/187 220/311/187
f 221/325/188 224/326/188 219/322/188 223/327/188
f 225/315/189 224/323/189 221/316/189
f 227/328/190 223/318/190 219/329/190
f 219/322/191 228/321/191 227/328/191
f 228/321/192 225/315/192 222/312/192 226/330/192
f 228/321/193 226/330/193 227/328/193
f 222/312/194 220/311/194 226/330/194
o Cube
v 1.237387 -0.200445 0.748467
v 1.771586 0.282252 0.443473
v 1.662921 -0.159846 0.262369
v 2.020993 -0.076989 0.488033
v 1.321060 0.222523 0.556614
v 1.543349 -0.442575 0.557172
v 1.907530 -0.395203 0.649351
v 1.851242 0.238435 0.884683
v 1.539715 0.027475 1.067749
v 1.818160 -0.182784 1.033107
vn 0.4806 0.2287 -0.8466
vn 0.5373 -0.5259 -0.6594
vn -0.3039 0.8395 0.4504
vn -0.1017 0.9880 0.1165
vn -0.1595 -0.8249 0.5424
vn -0.2730 0.4214 -0.8648
vn -0.7201 -0.2412 -0.6506
vn 0.2527 -0.7475 -0.6143
vn -0.7918 0.3752 0.4819
vn -0.3448 -0.5784 0.7393
vn 0.9391 -0.0432 0.3410
vn 0.3310 0.2904 0.8979
vn 0.8232 0.5600 -0.0930
vt 0.550384 0.206938
vt 0.375000 0.305791
vt 0.375000 0.049496
vt 0.180791 0.500000
vt 0.330928 0.574320
vt 0.125000 0.700504
vt 0.804283 0.500000
vt 0.842867 0.681766
vt 0.658516 0.626313
vt 0.875000 0.500000
vt 0.501754 0.540833
vt 0.565165 0.799791
vt 0.325310 0.750000
vt 0.604031 0.069198
vt 0.375000 1.000000
vt 0.375000 0.799690
vt 0.578028 1.000000
vt 0.615335 0.592735
vt 0.589707 0.775249
vt 0.581909 0.353207
s 0
g Cube_Material
usemtl Material
f 230/331/195 232/332/195 231/333/195
f 232/334/196 235/335/196 231/336/196
f 236/337/197 233/338/197 237/339/197
f 233/338/198 236/337/198 230/340/198
f 238/341/199 229/342/199 234/343/199 235/335/199
f 231/333/200 233/344/200 230/331/200
f 231/345/201 234/346/201 229/342/201 233/347/201
f 235/335/202 234/343/202 231/336/202
f 237/348/203 233/338/203 229/349/203
f 229/342/204 238/341/204 237/348/204
f 238/341/205 235/335/205 232/332/205 236/350/205
f 238/341/206 236/350/206 237/348/206
f 232/332/207 230/331/207 236/350/207
o Cube
v 1.727815 0.089304 1.080904
v 1.186379 0.488122 0.531683
v 1.144345 0.509030 1.073709
v 0.858593 0.242309 0.797025
v 1.677478 0.441748 0.696382
v 1.295348 0.118526 1.292928
v 0.954354 -0.029589 1.096554
v 1.228376 0.008478 0.396047
v 1.561666 -0.199976 0.643685
v 1.213044 -0.309832 0.777787
vn -0.6382 0.7658 -0.0790
vn -0.7935 0.3023 0.5281
vn 0.5806 -0.0380 -0.8133
vn 0.3289 0.2835 -0.9008
vn 0.1313 -0.7725 0.6213
vn 0.1040 0.9941 -0.0303
vn 0.4481 0.6338 0.6305
vn -0.5589 0.2309 0.7964
vn 0.9531 -0.1504 -0.2627
vn 0.4098 -0.8246 0.3899
vn -0.7970 -0.4999 -0.3389
vn -0.0044 -0.7679 -0.6405
vn -0.6850 0.1421 -0.7146
vt 0.550384 0.206938
vt 0.375000 0.305791
vt 0.375000 0.049496
vt 0.180791 0.500000
vt 0.330928 0.574320
vt 0.125000 0.700504
vt 0.804283 0.500000
vt 0.842867 0.681766
vt 0.658516 0.626313
vt 0.875000 0.500000
vt 0.501754 0.540833
vt 0.565165 0.799791
vt 0.325310 0.750000
vt 0.604031 0.069198
vt 0.375000 1.000000
vt 0.375000 0.799690
vt 0.578028 1.000000
vt 0.615335 0.592735
vt 0.589707 0.775249
vt 0.581909 0.353207
s 0
g Cube_Material
usemtl Material
f 240/351/208 242/352/208 241/353/208
f 242/354/209 245/355/209 241/356/209
f 246/357/210 243/358/210 247/359/210
f 243/358/211 246/357/211 240/360/211
f 248/361/212 239/362/212 244/363/212 245/355/212
f 241/353/213 243/364/213 240/351/213
f 241/365/214 244/366/214 239/362/214 243/367/214
f 245/355/215 244/363/215 241/356/215
f 247/368/216 243/358/216 239/369/216
f 239/362/217 248/361/217 247/368/217
f 248/361/218 245/355/218 242/352/218 246/370/218
f 248/361/219 246/370/219 247/368/219
f 242/352/220 240/351/220 246/370/220
o Cube
v 3.251446 -0.218923 3.256457
v 2.777442 0.386072 2.910882
v 2.686183 0.169603 3.383785
v 2.437369 0.069671 3.004115
v 3.236765 0.255863 3.074689
v 2.813731 -0.269889 3.415004
v 2.503422 -0.299985 3.151707
v 2.833252 0.028000 2.587811
v 3.133267 -0.272911 2.738748
v 2.784568 -0.413555 2.776479
vn -0.6320 0.7436 0.2184
vn -0.8423 0.0632 0.5353
vn 0.6562 0.3089 -0.6884
vn 0.4123 0.6449 -0.6435
vn 0.0753 -0.9736 0.2156
vn 0.1009 0.8971 0.4301
vn 0.3820 0.2656 0.8852
vn -0.6341 -0.1299 0.7622
vn 0.9747 -0.0529 -0.2170
vn 0.3751 -0.9269 0.0110
vn -0.7580 -0.2635 -0.5967
vn 0.0614 -0.3979 -0.9154
vn -0.6140 0.4739 -0.6313
vt 0.550384 0.206938
vt 0.375000 0.305791
vt 0.375000 0.049496
vt 0.180791 0.500000
vt 0.330928 0.574320
vt 0.125000 0.700504
vt 0.804283 0.500000
vt 0.842867 0.681766
vt 0.658516 0.626313
vt 0.875000 0.500000
vt 0.501754 0.540833
vt 0.565165 0.799791
vt 0.325310 0.750000
vt 0.604031 0.069198
vt 0.375000 1.000000
vt 0.375000 0.799690
vt 0.578028 1.000000
vt 0.615335 0.592735
vt 0.589707 0.775249
vt 0.581909 0.353207
s 0
g Cube_Material
usemtl Material
f 250/371/221 252/372/221 251/373/221
f 252/374/222 255/375/222 251/376/222
f 256/377/223 253/378/223 257/379/223
f 253/378/224 256/377/224 250/380/224
f 258/381/225 249/382/225 254/383/225 255/375/225
f 251/373/226 253/384/226 250/371/226
f 251/385/227 254/386/227 249/382/227 253/387/227
f 255/375/228 254/383/228 251/376/228
f 257/388/229 253/378/229 249/389/229
f 249/382/230 258/381/230 257/388/230
f 258/381/231 255/375/231 252/372/231 256/390/231
f 258/381/232 256/390/232 257/388/232
f 252/372/233 250/371/233 256/390/233
o Cube
v 2.918221 -0.544357 -0.986089
v 4.184331 -0.684481 -1.436455
v 3.978259 -0.533650 -0.629264
v 4.256400 -0.014487 -1.085870
v 3.458288 -1.032271 -1.353847
v 3.367304 -0.132564 -0.547254
v 3.768126 0.310824 -0.813386
v 3.815948 -0.164585 -1.883583
v 3.112169 -0.147206 -1.718928
v 3.385657 0.340228 -1.485060
vn 0.9266 -0.2477 0.2828
vn 0.6126 0.3109 0.7267
vn -0.2146 -0.4430 -0.8705
vn 0.1792 -0.5654 -0.8051
vn -0.7052 0.6386 0.3081
vn 0.4407 -0.8553 0.2723
vn -0.2331 -0.6621 0.7122
vn 0.3026 0.2743 0.9128
vn -0.7471 -0.4813 -0.4585
vn -0.8773 0.4791 0.0274
vn 0.4836 0.8077 -0.3372
vn -0.1844 0.5073 -0.8418
vn 0.8486 0.1707 -0.5007
vt 0.550384 0.206938
vt 0.375000 0.305791
vt 0.375000 0.049496
vt 0.180791 0.500000
vt 0.330928 0.574320
vt 0.125000 0.700504
vt 0.804283 0.500000
vt 0.842867 0.681766
vt 0.658516 0.626313
vt 0.875000 0.500000
vt 0.501754 0.540833
vt 0.565165 0.799791
vt 0.325310 0.750000
vt 0.604031 0.069198
vt 0.375000 1.000000
vt 0.375000 0.799690
vt 0.578028 1.000000
vt 0.615335 0.592735
vt 0.589707 0.775249
vt 0.581909 0.353207
s 0
g Cube_Material
usemtl Material
f 260/391/234 262/392/234 261/393/234
f 262/394/235 265/395/235 261/396/235
f 266/397/236 263/398/236 267/399/236
f 263/398/237 266/397/237 260/400/237
f 268/401/238 259/402/238 264/403/238 265/395/238
f 261/393/239 263/404/239 260/391/239
f 261/405/240 264/406/240 259/402/240 263/407/240
f 265/395/241 264/403/241 261/396/241
f 267/408/242 263/398/242 259/409/242
f 259/402/243 268/401/243 267/408/243
f 268/401/244 265/395/244 262/392/244 266/410/244
f 268/401/245 266/410/245 267/408/245
f 262/392/246 260/391/246 266/410/246
o Cube
v 0.127325 0.433768 3.570687
v 0.320740 -0.581990 3.838078
v 0.586304 -0.052366 4.149290
v 0.886821 -0.392407 3.773664
v -0.122743 -0.126072 3.769583
v 0.673087 0.405980 3.802379
v 1.019325 0.073524 3.609823
v 0.411964 -0.516004 3.233150
v 0.239800 0.001568 3.062558
v 0.718156 -0.007907 3.083979
vn 0.2830 -0.5874 0.7582
vn 0.7801 -0.0018 0.6257
vn -0.7772 -0.4146 -0.4734
vn -0.6913 -0.6996 -0.1806
vn 0.3512 0.8207 -0.4508
vn -0.4286 -0.2883 0.8563
vn -0.3866 0.5318 0.7535
vn 0.6890 0.3499 0.6347
vn -0.8794 0.2485 -0.4061
vn 0.0439 0.7658 -0.6416
vn 0.7495 -0.4830 -0.4526
vn 0.0367 -0.3018 -0.9527
vn 0.3113 -0.9486 -0.0565
vt 0.550384 0.206938
vt 0.375000 0.305791
vt 0.375000 0.049496
vt 0.180791 0.500000
vt 0.330928 0.574320
vt 0.125000 0.700504
vt 0.804283 0.500000
vt 0.842867 0.681766
vt 0.658516 0.626313
vt 0.875000 0.500000
vt 0.501754 0.540833
vt 0.565165 0.799791
vt 0.325310 0.750000
vt 0.604031 0.069198
vt 0.375000 1.000000
vt 0.375000 0.799690
vt 0.578028 1.000000
vt 0.615335 0.592735
vt 0.589707 0.775249
vt 0.581909 0.353207
s 0
g Cube_Material
usemtl Material
f 270/411/247 272/412/247 271/413/247
f 272/414/248 275/415/248 271/416/248
f 276/417/249 273/418/249 277/419/249
f 273/418/250 276/417/250 270/420/250
f 278/421/251 269/422/251 274/423/251 275/415/251
f 271/413/252 273/424/252 270/411/252
f 271/425/253 274/426/253 269/422/253 273/427/253
f 275/415/254 274/423/254 271/416/254
f 277/428/255 273/418/255 269/429/255
f 269/422/256 278/421/256 277/428/256
f 278/421/257 275/415/257 272/412/257 276/430/257
f 278/421/258 276/430/258 277/428/258
f 272/412/259 270/411/259 276/430/259
o Cube
v -3.129227 0.432762 2.534489
v -2.555827 0.895013 1.906537
v -2.660365 0.297653 1.898920
v -2.206153 0.514488 2.076904
v -3.091491 0.845251 2.122574
v -2.746765 0.089706 2.375204
v -2.294883 0.208191 2.413152
v -2.408102 1.040030 2.424308
v -2.749540 0.854400 2.766658
v -2.388296 0.614117 2.778560
vn 0.3874 -0.0561 -0.9202
vn 0.5246 -0.6937 -0.4935
vn -0.3374 0.9266 0.1660
vn -0.1772 0.9597 -0.2182
vn -0.0419 -0.5910 0.8056
vn -0.3791 0.0781 -0.9220
vn -0.7477 -0.4907 -0.4473
vn 0.2651 -0.9004 -0.3450
vn -0.7789 0.4774 0.4067
vn -0.2310 -0.3014 0.9251
vn 0.9642 0.1281 0.2321
vn 0.3776 0.6025 0.7032
vn 0.7610 0.5350 -0.3670
vt 0.550384 0.206938
vt 0.375000 0.305791
vt 0.375000 0.049496
vt 0.180791 0.500000
vt 0.330928 0.574320
vt 0.125000 0.700504
vt 0.804283 0.500000
vt 0.842867 0.681766
vt 0.658516 0.626313
vt 0.875000 0.500000
vt 0.501754 0.540833
vt 0.565165 0.799791
vt 0.325310 0.750000
vt 0.604031 0.069198
vt 0.375000 1.000000
vt 0.375000 0.799690
vt 0.578028 1.000000
vt 0.615335 0.592735
vt 0.589707 0.775249
vt 0.581909 0.353207
s 0
g Cube_Material
usemtl Material
f 280/431/260 282/432/260 281/433/260
f 282/434/261 285/435/261 281/436/261
f 286/437/262 283/438/262 287/439/262
f 283/438/263 286/437/263 280/440/263
f 288/441/264 279/442/264 284/443/264 285/435/264
f 281/433/265 283/444/265 280/431/265
f 281/445/266 284/446/266 279/442/266 283/447/266
f 285/435/267 284/443/267 281/436/267
f 287/448/268 283/438/268 279/449/268
f 279/442/269 288/441/269 287/448/269
f 288/441/270 285/435/270 282/432/270 286/450/270
f 288/441/271 286/450/271 287/448/271
f 282/432/272 280/431/272 286/450/272
o Cube
v 3.639027 0.890283 0.688343
v 2.585329 0.729064 0.944742
v 3.114395 0.522783 1.331395
v 2.785468 0.147801 0.989503
v 3.054120 1.171159 0.818156
v 3.601719 0.379357 1.018219
v 3.271832 -0.009215 0.869704
v 2.682970 0.530196 0.353227
v 3.221215 0.680657 0.174784
v 3.212650 0.200745 0.281177
vn -0.6216 -0.1549 0.7679
vn -0.0281 -0.6599 0.7508
vn -0.3950 0.6782 -0.6197
vn -0.6933 0.6407 -0.3299
vn 0.8427 -0.4135 -0.3447
vn -0.3306 0.5667 0.7547
vn 0.4936 0.5179 0.6987
vn 0.3224 -0.5642 0.7601
vn 0.2637 0.7989 -0.5406
vn 0.7956 -0.1446 -0.5883
vn -0.4576 -0.8226 -0.3375
vn -0.2559 -0.2049 -0.9447
vn -0.9435 -0.3283 -0.0453
vt 0.550384 0.206938
vt 0.375000 0.305791
vt 0.375000 0.049496
vt 0.180791 0.500000
vt 0.330928 0.574320
vt 0.125000 0.700504
vt 0.804283 0.500000
vt 0.842867 0.681766
vt 0.658516 0.626313
vt 0.875000 0.500000
vt 0.501754 0.540833
vt 0.565165 0.799791
vt 0.325310 0.750000
vt 0.604031 0.069198
vt 0.375000 1.000000
vt 0.375000 0.799690
vt 0.578028 1.000000
vt 0.615335 0.592735
vt 0.589707 0.775249
vt 0.581909 0.353207
s 0
g Cube_Material
usemtl Material
f 290/451/273 292/452/273 291/453/273
f 292/454/274 295/455/274 291/456/274
f 296/457/275 293/458/275 297/459/275
f 293/458/276 296/457/276 290/460/276
f 298/461/277 289/462/277 294/463/277 295/455/277
f 291/453/278 293/464/278 290/451/278
f 291/465/279 294/466/279 289/462/279 293/467/279
f 295/455/280 294/463/280 291/456/280
f 297/468/281 293/458/281 289/469/281
f 289/462/282 298/461/282 297/468/282
f 298/461/283 295/455/283 292/452/283 296/470/283
f 298/461/284 296/470/284 297/468/284
f 292/452/285 290/451/285 296/470/285
o Cube
v 3.140944 0.089925 -1.163543
v 2.870294 0.658297 -0.221890
v 2.415940 0.259178 -0.593417
v 2.416941 0.883775 -0.608101
v 3.263222 0.178352 -0.496765
v 2.532045 0.245719 -1.198786
v 2.378528 0.768633 -1.136675
v 3.168885 1.066273 -0.634513
v 3.391094 0.760071 -1.108057
v 2.970702 1.007609 -1.249444
vn -0.6429 0.0190 0.7657
vn -0.9974 0.0033 0.0718
vn 0.9289 0.1511 0.3381
vn 0.7028 0.1814 0.6879
vn -0.0623 -0.0305 -0.9976
vn -0.1467 -0.5793 0.8018
vn -0.1669 -0.9828 0.0795
vn -0.9499 -0.2579 -0.1765
vn 0.9327 -0.3377 -0.1263
vn 0.3009 -0.0334 -0.9531
vn -0.3058 0.9486 -0.0809
vn 0.5528 0.7937 -0.2539
vn -0.1617 0.7577 0.6322
vt 0.550384 0.206938
vt 0.375000 0.305791
vt 0.375000 0.049496
vt 0.180791 0.500000
vt 0.330928 0.574320
vt 0.125000 0.700504
vt 0.804283 0.500000
vt 0.842867 0.681766
vt 0.658516 0.626313
vt 0.875000 0.500000
vt 0.501754 0.540833
vt 0.565165 0.799791
vt 0.325310 0.750000
vt 0.604031 0.069198
vt 0.375000 1.000000
vt 0.375000 0.799690
vt 0.578028 1.000000
vt 0.615335 0.592735
vt 0.589707 0.775249
vt 0.581909 0.353207
s 0
g Cube_Material
usemtl Material
f 300/471/286 302/472/286 301/473/286
f 302/474/287 305/475/287 301/476/287
f 306/477/288 303/478/288 307/479/288
f 303/478/289 306/477/289 300/480/289
f 308/481/290 299/482/290 304/483/290 305/475/290
f 301/473/291 303/484/291 300/471/291
f 301/485/292 304/486/292 299/482/292 303/487/292
f 305/475/293 304/483/293 301/476/293
f 307/488/294 303/478/294 299/489/294
f 299/482/295 308/481/295 307/488/295
f 308/481/296 305/475/296 302/472/296 306/490/296
f 308/481/297 306/490/297 307/488/297
f 302/472/298 300/471/298 306/490/298
o Cube
v -1.918483 -0.301558 1.557730
v -2.524878 0.408021 2.066497
v -2.701921 -0.223665 1.950992
v -2.916119 0.231949 1.650427
v -1.971341 0.093402 2.060585
v -2.484057 -0.442812 1.461782
v -2.808734 -0.091213 1.272148
v -2.335204 0.653843 1.538590
v -1.949914 0.316101 1.291471
v -2.367086 0.272627 1.064938
vn -0.7439 0.0873 0.6626
vn -0.9196 -0.3867 0.0693
vn 0.7176 0.6634 0.2121
vn 0.4310 0.7488 0.5035
vn 0.1558 -0.4985 -0.8528
vn -0.0792 -0.1578 0.9843
vn 0.1979 -0.8084 0.5544
vn -0.7295 -0.6837 -0.0186
vn 0.9963 0.0716 0.0485
vn 0.4770 -0.3273 -0.8157
vn -0.6134 0.5811 -0.5348
vn 0.2571 0.7443 -0.6164
vn -0.5554 0.8121 0.1786
vt 0.550384 0.206938
vt 0.375000 0.305791
vt 0.375000 0.049496
vt 0.180791 0.500000
vt 0.330928 0.574320
vt 0.125000 0.700504
vt 0.804283 0.500000
vt 0.842867 0.681766
vt 0.658516 0.626313
vt 0.875000 0.500000
vt 0.501754 0.540833
vt 0.565165 0.799791
vt 0.325310 0.750000
vt 0.604031 0.069198
vt 0.375000 1.000000
vt 0.375000 0.799690
vt 0.578028 1.000000
vt 0.615335 0.592735
vt 0.589707 0.775249
vt 0.581909 0.353207
s 0
g Cube_Material
usemtl Material
f 310/491/299 312/492/299 311/493/299
f 312/494/300 315/495/300 311/496/300
f 316/497/301 313/498/301 317/499/301
f 313/498/302 316/497/302 310/500/302
f 318/501/303 309/502/303 314/503/303 315/495/303
f 311/493/304 313/504/304 310/491/304
f 311/505/305 314/506/305 309/502/305 313/507/305
f 315/495/306 314/503/306 311/496/306
f 317/508/307 313/498/307 309/509/307
f 309/502/308 318/501/308 317/508/308
f 318/501/309 315/495/309 312/492/309 316/510/309
f 318/501/310 316/510/310 317/508/310
f 312/492/311 310/491/311 316/510/311
o Cube
v -1.481304 0.292694 2.158392
v -1.666146 1.047854 2.133248
v -1.491068 0.820473 2.527229
v -1.903131 0.930992 2.481712
v -1.399592 0.708815 1.956961
v -1.604008 0.413355 2.554960
v -1.937115 0.581604 2.606138
v -2.011491 0.809764 1.975503
v -1.903293 0.410107 1.932795
v -2.103723 0.446251 2.215976
vn 0.1902 0.8845 0.4260
vn -0.0137 0.3366 0.9415
vn -0.0132 0.1027 -0.9946
vn 0.0553 0.4945 -0.8674
vn -0.2713 -0.9107 0.3115
vn 0.7875 0.6162 0.0057
vn 0.9557 -0.1566 0.2493
vn 0.1627 0.0221 0.9864
vn 0.3143 -0.4629 -0.8288
vn -0.2435 -0.9687 -0.0487
vn -0.9387 0.2735 0.2097
vn -0.8151 -0.1612 -0.5564
vn -0.5388 0.8381 -0.0854
vt 0.550384 0.206938
vt 0.375000 0.305791
vt 0.375000 0.049496
vt 0.180791 0.500000
vt 0.330928 0.574320
vt 0.125000 0.700504
vt 0.804283 0.500000
vt 0.842867 0.681766
vt 0.658516 0.626313
vt 0.875000 0.500000
vt 0.501754 0.540833
vt 0.565165 0.799791
vt 0.325310 0.750000
vt 0.604031 0.069198
vt 0.375000 1.000000
vt 0.375000 0.799690
vt 0.578028 1.000000
vt 0.615335 0.592735
vt 0.589707 0.775249
vt 0.581909 0.353207
s 0
g Cube_Material
usemtl Material
f 320/511/312 322/512/312 321/513/312
f 322/514/313 325/515/313 321/516/313
f 326/517/314 323/518/314 327/519/314
f 323/518/315 326/517/315 320/520/315
f 328/521/316 319/522/316 324/523/316 325/515/316
f 321/513/317 323/524/317 320/511/317
f 321/525/318 324/526/318 319/522/318 323/527/318
f 325/515/319 324/523/319 321/516/319
f 327/528/320 323/518/320 319/529/320
f 319/522/321 328/521/321 327/528/321
f 328/521/322 325/515/322 322/512/322 326/530/322
f 328/521/323 326/530/323 327/528/323
f 322/512/324 320/511/324 326/530/324
o Cube
v 1.091832 0.815890 -1.440968
v 2.067716 0.847162 -1.644560
v 1.725925 0.324011 -1.635287
v 2.075840 0.464553 -1.234720
v 1.521792 1.030351 -1.803612
v 1.315788 0.335157 -1.279763
v 1.694097 0.333457 -0.979508
v 1.971828 1.133662 -1.155776
v 1.447285 1.185606 -1.072088
v 1.610353 0.869358 -0.801107
vn 0.7348 -0.4884 -0.4706
vn 0.3426 -0.9390 0.0302
vn 0.0648 0.9775 -0.2009
vn 0.3948 0.8243 -0.4057
vn -0.6992 -0.2231 0.6793
vn 0.2248 -0.1639 -0.9605
vn -0.5377 -0.4000 -0.7422
vn -0.0153 -0.9998 0.0137
vn -0.5803 0.7826 -0.2252
vn -0.7757 0.1294 0.6178
vn 0.6520 -0.0598 0.7558
vn 0.1801 0.6919 0.6992
vn 0.9839 0.1398 0.1111
vt 0.550384 0.206938
vt 0.375000 0.305791
vt 0.375000 0.049496
vt 0.180791 0.500000
vt 0.330928 0.574320
vt 0.125000 0.700504
vt 0.804283 0.500000
vt 0.842867 0.681766
vt 0.658516 0.626313
vt 0.875000 0.500000
vt 0.501754 0.540833
vt 0.565165 0.799791
vt 0.325310 0.750000
vt 0.604031 0.069198
vt 0.375000 1.000000
vt 0.375000 0.799690
vt 0.578028 1.000000
vt 0.615335 0.592735
vt 0.589707 0.775249
vt 0.581909 0.353207
s 0
g Cube_Material
usemtl Material
f 330/531/325 332/532/325 331/533/325
f 332/534/326 335/535/326 331/536/326
f 336/537/327 333/538/327 337/539/327
f 333/538/328 336/537/328 330/540/328
f 338/541/329 329/542/329 334/543/329 335/535/329
f 331/533/330 333/544/330 330/531/330
f 331/545/331 334/546/331 329/542/331 333/547/331
f 335/535/332 334/543/332 331/536/332
f 337/548/333 333/538/333 329/549/333
f 329/542/334 338/541/334 337/548/334
f 338/541/335 335/535/335 332/532/335 336/550/335
f 338/541/336 336/550/336 337/548/336
f 332/532/337 330/531/337 336/550/337
o Cube
v -2.470823 0.199494 -0.329965
v -1.919307 -0.274182 -0.668460
v -1.963200 -0.198789 -0.173580
v -1.646566 -0.014008 -0.421084
v -2.387956 -0.189110 -0.606352
v -2.110764 0.198042 -0.067306
v -1.762711 0.287920 -0.214246
v -1.909589 0.137770 -0.877424
v -2.237718 0.379836 -0.743680
v -1.934273 0.493077 -0.587414
vn 0.5935 -0.7861 0.1724
vn 0.6773 -0.2203 0.7020
vn -0.4379 -0.1000 -0.8934
vn -0.1960 -0.4399 -0.8764
vn -0.1815 0.8805 0.4379
vn -0.1597 -0.9779 0.1348
vn -0.5829 -0.4877 0.6500
vn 0.4073 -0.0919 0.9086
vn -0.8868 0.1269 -0.4443
vn -0.4151 0.8962 0.1567
vn 0.8710 0.4011 -0.2837
vn 0.1558 0.6311 -0.7599
vn 0.7813 -0.2969 -0.5491
vt 0.550384 0.206938
vt 0.375000 0.305791
vt 0.375000 0.049496
vt 0.180791 0.500000
vt 0.330928 0.574320
vt 0.125000 0.700504
vt 0.804283 0.500000
vt 0.842867 0.681766
vt 0.658516 0.626313
vt 0.875000 0.500000
vt 0.501754 0.540833
vt 0.565165 0.799791
vt 0.325310 0.750000
vt 0.604031 0.069198
vt 0.375000 1.000000
vt 0.375000 0.799690
vt 0.578028 1.000000
vt 0.615335 0.592735
vt 0.589707 0.775249
vt 0.581909 0.353207
s 0
g Cube_Material
usemtl Material
f 340/551/338 342/552/338 341/553/338
f 342/554/339 345/555/339 341/556/339
f 346/557/340 343/558/340 347/559/340
f 343/558/341 346/557/341 340/560/341
f 348/561/342 339/562/342 344/563/342 345/555/342
f 341/553/343 343/564/343 340/551/343
f 341/565/344 344/566/344 339/562/344 343/567/344
f 345/555/345 344/563/345 341/556/345
f 347/568/346 343/558/346 339/569/346
f 339/562/347 348/561/347 347/568/347
f 348/561/348 345/555/348 342/552/348 346/570/348
f 348/561/349 346/570/349 347/568/349
f 342/552/350 340/551/350 346/570/350
o Cube
v 0.676026 -0.025364 0.982118
v 1.275140 0.515991 0.640061
v 1.153270 0.020169 0.436949
v 1.554854 0.113094 0.690036
v 0.769866 0.449004 0.766951
v 1.019167 -0.296918 0.767577
v 1.427603 -0.243788 0.870958
v 1.364476 0.466848 1.134887
v 1.015092 0.230253 1.340199
v 1.327374 -0.005557 1.301347
vn 0.4806 0.2287 -0.8466
vn 0.5373 -0.5259 -0.6594
vn -0.3039 0.8395 0.4504
vn -0.1017 0.9880 0.1165
vn -0.1595 -0.8249 0.5424
vn -0.2730 0.4214 -0.8648
vn -0.7201 -0.2412 -0.6506
vn 0.2527 -0.7475 -0.6143
vn -0.7918 0.3752 0.4819
vn -0.3448 -0.5784 0.7393
vn 0.9391 -0.0432 0.3410
vn 0.3310 0.2904 0.8979
vn 0.8232 0.5600 -0.0930
vt 0.550384 0.206938
vt 0.375000 0.305791
vt 0.375000 0.049496
vt 0.180791 0.500000
vt 0.330928 0.574320
vt 0.125000 0.700504
vt 0.804283 0.500000
vt 0.842867 0.681766
vt 0.658516 0.626313
vt 0.875000 0.500000
vt 0.501754 0.540833
vt 0.565165 0.799791
vt 0.325310 0.750000
vt 0.604031 0.069198
vt 0.375000 1.000000
vt 0.375000 0.799690
vt 0.578028 1.000000
vt 0.615335 0.592735
vt 0.589707 0.775249
vt 0.581909 0.353207
s 0
g Cube_Material
usemtl Material
f 350/571/351 352/572/351 351/573/351
f 352/574/352 355/575/352 351/576/352
f 356/577/353 353/578/353 357/579/353
f 353/578/354 356/577/354 350/580/354
f 358/581/355 349/582/355 354/583/355 355/575/355
f 351/573/356 353/584/356 350/571/356
f 351/585/357 354/586/357 349/582/357 353/587/357
f 355/575/358 354/583/358 351/576/358
f 357/588/359 353/578/359 349/589/359
f 349/582/360 358/581/360 357/588/360
f 358/581/361 355/575/361 352/572/361 356/590/361
f 358/581/362 356/590/362 357/588/362
f 352/572/363 350/571/363 356/590/363
o Cube
v 2.048710 0.244809 1.044251
v 1.315931 0.784570 0.300935
v 1.259042 0.812867 1.034513
v 0.872304 0.451887 0.660049
v 1.980584 0.721807 0.523839
v 1.463409 0.284358 1.331205
v 1.001908 0.083899 1.065432
v 1.372768 0.135419 0.117365
v 1.823844 -0.146703 0.452519
v 1.352019 -0.295383 0.634012
vn -0.6382 0.7658 -0.0790
vn -0.7935 0.3023 0.5281
vn 0.5806 -0.0380 -0.8133
vn 0.3289 0.2835 -0.9008
vn 0.1313 -0.7725 0.6213
vn 0.1040 0.9941 -0.0303
vn 0.4481 0.6338 0.6305
vn -0.5589 0.2309 0.7964
vn 0.9531 -0.1504 -0.2627
vn 0.4098 -0.8246 0.3899
vn -0.7970 -0.4999 -0.3389
vn -0.0044 -0.7679 -0.6405
vn -0.6850 0.1421 -0.7146
vt 0.550384 0.206938
vt 0.375000 0.305791
vt 0.375000 0.049496
vt 0.180791 0.500000
vt 0.330928 0.574320
vt 0.125000 0.700504
vt 0.804283 0.500000
vt 0.842867 0.681766
vt 0.658516 0.626313
vt 0.875000 0.500000
vt 0.501754 0.540833
vt 0.565165 0.799791
vt 0.325310 0.750000
vt 0.604031 0.069198
vt 0.375000 1.000000
vt 0.375000 0.799690
vt 0.578028 1.000000
vt 0.615335 0.592735
vt 0.589707 0.775249
vt 0.581909 0.353207
s 0
g Cube_Material
usemtl Material
f 360/591/364 362/592/364 361/593/364
f 362/594/365 365/595/365 361/596/365
f 366/597/366 363/598/366 367/599/366
f 363/598/367 366/597/367 360/600/367
f 368/601/368 359/602/368 364/603/368 365/595/368
f 361/593/369 363/604/369 360/591/369
f 361/605/370 364/606/370 359/602/370 363/607/370
f 365/595/371 364/603/371 361/596/371
f 367/608/372 363/598/372 359/609/372
f 359/602/373 368/601/373 367/608/373
f 368/601/374 365/595/374 362/592/374 366/610/374
f 368/601/375 366/610/375 367/608/375
f 362/592/376 360/591/376 366/610/376
