# Blender 4.1.0
# www.blender.org
mtllib Explosion20039.mtl
o Circle
v -0.024615 0.096888 -1.522372
v -0.024615 0.242742 -1.522372
v 0.122545 0.096888 -1.515142
v 0.122545 0.242742 -1.515142
v 0.268288 0.096888 -1.493523
v 0.268288 0.242742 -1.493523
v 0.411211 0.096888 -1.457723
v 0.411211 0.242742 -1.457723
v 0.549936 0.096888 -1.408086
v 0.549936 0.242742 -1.408086
v 0.683127 0.096888 -1.345092
v 0.683127 0.242742 -1.345092
v 0.809503 0.096888 -1.269345
v 0.809503 0.242742 -1.269345
v 0.927846 0.096888 -1.181576
v 0.927846 0.242742 -1.181576
v 1.037016 0.096888 -1.082630
v 1.037016 0.242742 -1.082630
v 1.135962 0.096888 -0.973460
v 1.135962 0.242742 -0.973460
v 1.223731 0.096888 -0.855117
v 1.223731 0.242742 -0.855117
v 1.299478 0.096888 -0.728741
v 1.299478 0.242742 -0.728741
v 1.362473 0.096888 -0.595549
v 1.362473 0.242742 -0.595549
v 1.412110 0.096888 -0.456824
v 1.412110 0.242742 -0.456824
v 1.447910 0.096888 -0.313902
v 1.447910 0.242742 -0.313902
v 1.469529 0.096888 -0.168159
v 1.469529 0.242742 -0.168159
v 1.476758 0.096888 -0.020998
v 1.476758 0.242742 -0.020998
v 1.469529 0.096888 0.126162
v 1.469529 0.242742 0.126162
v 1.447910 0.096888 0.271905
v 1.447910 0.242742 0.271905
v 1.412110 0.096888 0.414827
v 1.412110 0.242742 0.414827
v 1.362473 0.096888 0.553553
v 1.362473 0.242742 0.553553
v 1.299478 0.096888 0.686744
v 1.299478 0.242742 0.686744
v 1.223731 0.096888 0.813120
v 1.223731 0.242742 0.813120
v 1.135962 0.096888 0.931463
v 1.135962 0.242742 0.931463
v 1.037016 0.096888 1.040633
v 1.037016 0.242742 1.040633
v 0.927846 0.096888 1.139579
v 0.927846 0.242742 1.139579
v 0.809503 0.096888 1.227348
v 0.809503 0.242742 1.227348
v 0.683127 0.096888 1.303095
v 0.683127 0.242742 1.303095
v 0.549936 0.096888 1.366090
v 0.549936 0.242742 1.366090
v 0.411211 0.096888 1.415727
v 0.411211 0.242742 1.415727
v 0.268288 0.096888 1.451527
v 0.268288 0.242742 1.451527
v 0.122545 0.096888 1.473146
v 0.122545 0.242742 1.473146
v -0.024615 0.096888 1.480376
v -0.024615 0.242742 1.480376
v -0.171775 0.096888 1.473146
v -0.171775 0.242742 1.473146
v -0.317519 0.096888 1.451527
v -0.317519 0.242742 1.451527
v -0.460441 0.096888 1.415727
v -0.460441 0.242742 1.415727
v -0.599166 0.096888 1.366090
v -0.599166 0.242742 1.366090
v -0.732358 0.096888 1.303095
v -0.732358 0.242742 1.303095
v -0.858734 0.096888 1.227348
v -0.858734 0.242742 1.227348
v -0.977076 0.096888 1.139579
v -0.977076 0.242742 1.139579
v -1.086246 0.096888 1.040633
v -1.086246 0.242742 1.040633
v -1.185192 0.096888 0.931463
v -1.185192 0.242742 0.931463
v -1.272961 0.096888 0.813120
v -1.272961 0.242742 0.813120
v -1.348708 0.096888 0.686744
v -1.348708 0.242742 0.686744
v -1.411703 0.096888 0.553553
v -1.411703 0.242742 0.553553
v -1.461340 0.096888 0.414827
v -1.461340 0.242742 0.414827
v -1.497140 0.096888 0.271905
v -1.497140 0.242742 0.271905
v -1.518759 0.096888 0.126162
v -1.518759 0.242742 0.126162
v -1.525989 0.096888 -0.020998
v -1.525989 0.242742 -0.020998
v -1.518759 0.096888 -0.168159
v -1.518759 0.242742 -0.168159
v -1.497140 0.096888 -0.313902
v -1.497140 0.242742 -0.313902
v -1.461340 0.096888 -0.456824
v -1.461340 0.242742 -0.456824
v -1.411703 0.096888 -0.595549
v -1.411703 0.242742 -0.595549
v -1.348708 0.096888 -0.728741
v -1.348708 0.242742 -0.728741
v -1.272961 0.096888 -0.855117
v -1.272961 0.242742 -0.855117
v -1.185192 0.096888 -0.973460
v -1.185192 0.242742 -0.973460
v -1.086246 0.096888 -1.082630
v -1.086246 0.242742 -1.082630
v -0.977076 0.096888 -1.181576
v -0.977076 0.242742 -1.181576
v -0.858734 0.096888 -1.269345
v -0.858734 0.242742 -1.269345
v -0.732358 0.096888 -1.345092
v -0.732358 0.242742 -1.345092
v -0.599166 0.096888 -1.408086
v -0.599166 0.242742 -1.408086
v -0.460441 0.096888 -1.457723
v -0.460441 0.242742 -1.457723
v -0.317519 0.096888 -1.493523
v -0.317519 0.242742 -1.493523
v -0.171775 0.096888 -1.515142
v -0.171775 0.242742 -1.515142
vn 0.0491 -0.0000 -0.9988
vn 0.1467 -0.0000 -0.9892
vn 0.2430 -0.0000 -0.9700
vn 0.3369 -0.0000 -0.9415
vn 0.4276 -0.0000 -0.9040
vn 0.5141 -0.0000 -0.8577
vn 0.5957 -0.0000 -0.8032
vn 0.6716 -0.0000 -0.7410
vn 0.7410 -0.0000 -0.6716
vn 0.8032 -0.0000 -0.5957
vn 0.8577 -0.0000 -0.5141
vn 0.9040 -0.0000 -0.4276
vn 0.9415 -0.0000 -0.3369
vn 0.9700 -0.0000 -0.2430
vn 0.9892 -0.0000 -0.1467
vn 0.9988 -0.0000 -0.0491
vn 0.9988 -0.0000 0.0491
vn 0.9892 -0.0000 0.1467
vn 0.9700 -0.0000 0.2430
vn 0.9415 -0.0000 0.3369
vn 0.9040 -0.0000 0.4276
vn 0.8577 -0.0000 0.5141
vn 0.8032 -0.0000 0.5957
vn 0.7410 -0.0000 0.6716
vn 0.6716 -0.0000 0.7410
vn 0.5957 -0.0000 0.8032
vn 0.5141 -0.0000 0.8577
vn 0.4276 -0.0000 0.9040
vn 0.3369 -0.0000 0.9415
vn 0.2430 -0.0000 0.9700
vn 0.1467 -0.0000 0.9892
vn 0.0491 -0.0000 0.9988
vn -0.0491 -0.0000 0.9988
vn -0.1467 -0.0000 0.9892
vn -0.2430 -0.0000 0.9700
vn -0.3369 -0.0000 0.9415
vn -0.4276 -0.0000 0.9040
vn -0.5141 -0.0000 0.8577
vn -0.5957 -0.0000 0.8032
vn -0.6716 -0.0000 0.7410
vn -0.7410 -0.0000 0.6716
vn -0.8032 -0.0000 0.5957
vn -0.8577 -0.0000 0.5141
vn -0.9040 -0.0000 0.4276
vn -0.9415 -0.0000 0.3369
vn -0.9700 -0.0000 0.2430
vn -0.9892 -0.0000 0.1467
vn -0.9988 -0.0000 0.0491
vn -0.9988 -0.0000 -0.0491
vn -0.9892 -0.0000 -0.1467
vn -0.9700 -0.0000 -0.2430
vn -0.9415 -0.0000 -0.3369
vn -0.9040 -0.0000 -0.4276
vn -0.8577 -0.0000 -0.5141
vn -0.8032 -0.0000 -0.5957
vn -0.7410 -0.0000 -0.6716
vn -0.6716 -0.0000 -0.7410
vn -0.5957 -0.0000 -0.8032
vn -0.5141 -0.0000 -0.8577
vn -0.4276 -0.0000 -0.9040
vn -0.3369 -0.0000 -0.9415
vn -0.2430 -0.0000 -0.9700
vn -0.1467 -0.0000 -0.9892
vn -0.0491 -0.0000 -0.9988
vt 1.000000 0.500000
vt 1.000000 1.000000
vt 0.984375 1.000000
vt 0.984375 0.500000
vt 0.968750 1.000000
vt 0.968750 0.500000
vt 0.953125 1.000000
vt 0.953125 0.500000
vt 0.937500 1.000000
vt 0.937500 0.500000
vt 0.921875 1.000000
vt 0.921875 0.500000
vt 0.906250 1.000000
vt 0.906250 0.500000
vt 0.890625 1.000000
vt 0.890625 0.500000
vt 0.875000 1.000000
vt 0.875000 0.500000
vt 0.859375 1.000000
vt 0.859375 0.500000
vt 0.843750 1.000000
vt 0.843750 0.500000
vt 0.828125 1.000000
vt 0.828125 0.500000
vt 0.812500 1.000000
vt 0.812500 0.500000
vt 0.796875 1.000000
vt 0.796875 0.500000
vt 0.781250 1.000000
vt 0.781250 0.500000
vt 0.765625 1.000000
vt 0.765625 0.500000
vt 0.750000 1.000000
vt 0.750000 0.500000
vt 0.734375 1.000000
vt 0.734375 0.500000
vt 0.718750 1.000000
vt 0.718750 0.500000
vt 0.703125 1.000000
vt 0.703125 0.500000
vt 0.687500 1.000000
vt 0.687500 0.500000
vt 0.671875 1.000000
vt 0.671875 0.500000
vt 0.656250 1.000000
vt 0.656250 0.500000
vt 0.640625 1.000000
vt 0.640625 0.500000
vt 0.625000 1.000000
vt 0.625000 0.500000
vt 0.609375 1.000000
vt 0.609375 0.500000
vt 0.593750 1.000000
vt 0.593750 0.500000
vt 0.578125 1.000000
vt 0.578125 0.500000
vt 0.562500 1.000000
vt 0.562500 0.500000
vt 0.546875 1.000000
vt 0.546875 0.500000
vt 0.531250 1.000000
vt 0.531250 0.500000
vt 0.515625 1.000000
vt 0.515625 0.500000
vt 0.500000 1.000000
vt 0.500000 0.500000
vt 0.484375 1.000000
vt 0.484375 0.500000
vt 0.468750 1.000000
vt 0.468750 0.500000
vt 0.453125 1.000000
vt 0.453125 0.500000
vt 0.437500 1.000000
vt 0.437500 0.500000
vt 0.421875 1.000000
vt 0.421875 0.500000
vt 0.406250 1.000000
vt 0.406250 0.500000
vt 0.390625 1.000000
vt 0.390625 0.500000
vt 0.375000 1.000000
vt 0.375000 0.500000
vt 0.359375 1.000000
vt 0.359375 0.500000
vt 0.343750 1.000000
vt 0.343750 0.500000
vt 0.328125 1.000000
vt 0.328125 0.500000
vt 0.312500 1.000000
vt 0.312500 0.500000
vt 0.296875 1.000000
vt 0.296875 0.500000
vt 0.281250 1.000000
vt 0.281250 0.500000
vt 0.265625 1.000000
vt 0.265625 0.500000
vt 0.250000 1.000000
vt 0.250000 0.500000
vt 0.234375 1.000000
vt 0.234375 0.500000
vt 0.218750 1.000000
vt 0.218750 0.500000
vt 0.203125 1.000000
vt 0.203125 0.500000
vt 0.187500 1.000000
vt 0.187500 0.500000
vt 0.171875 1.000000
vt 0.171875 0.500000
vt 0.156250 1.000000
vt 0.156250 0.500000
vt 0.140625 1.000000
vt 0.140625 0.500000
vt 0.125000 1.000000
vt 0.125000 0.500000
vt 0.109375 1.000000
vt 0.109375 0.500000
vt 0.093750 1.000000
vt 0.093750 0.500000
vt 0.078125 1.000000
vt 0.078125 0.500000
vt 0.062500 1.000000
vt 0.062500 0.500000
vt 0.046875 1.000000
vt 0.046875 0.500000
vt 0.031250 1.000000
vt 0.031250 0.500000
vt 0.015625 1.000000
vt 0.015625 0.500000
vt 0.000000 1.000000
vt 0.000000 0.500000
s 0
g Circle_Material.001
usemtl Material.001
f 1/1/1 2/2/1 4/3/1 3/4/1
f 3/4/2 4/3/2 6/5/2 5/6/2
f 5/6/3 6/5/3 8/7/3 7/8/3
f 7/8/4 8/7/4 10/9/4 9/10/4
f 9/10/5 10/9/5 12/11/5 11/12/5
f 11/12/6 12/11/6 14/13/6 13/14/6
f 13/14/7 14/13/7 16/15/7 15/16/7
f 15/16/8 16/15/8 18/17/8 17/18/8
f 17/18/9 18/17/9 20/19/9 19/20/9
f 19/20/10 20/19/10 22/21/10 21/22/10
f 21/22/11 22/21/11 24/23/11 23/24/11
f 23/24/12 24/23/12 26/25/12 25/26/12
f 25/26/13 26/25/13 28/27/13 27/28/13
f 27/28/14 28/27/14 30/29/14 29/30/14
f 29/30/15 30/29/15 32/31/15 31/32/15
f 31/32/16 32/31/16 34/33/16 33/34/16
f 33/34/17 34/33/17 36/35/17 35/36/17
f 35/36/18 36/35/18 38/37/18 37/38/18
f 37/38/19 38/37/19 40/39/19 39/40/19
f 39/40/20 40/39/20 42/41/20 41/42/20
f 41/42/21 42/41/21 44/43/21 43/44/21
f 43/44/22 44/43/22 46/45/22 45/46/22
f 45/46/23 46/45/23 48/47/23 47/48/23
f 47/48/24 48/47/24 50/49/24 49/50/24
f 49/50/25 50/49/25 52/51/25 51/52/25
f 51/52/26 52/51/26 54/53/26 53/54/26
f 53/54/27 54/53/27 56/55/27 55/56/27
f 55/56/28 56/55/28 58/57/28 57/58/28
f 57/58/29 58/57/29 60/59/29 59/60/29
f 59/60/30 60/59/30 62/61/30 61/62/30
f 61/62/31 62/61/31 64/63/31 63/64/31
f 63/64/32 64/63/32 66/65/32 65/66/32
f 65/66/33 66/65/33 68/67/33 67/68/33
f 67/68/34 68/67/34 70/69/34 69/70/34
f 69/70/35 70/69/35 72/71/35 71/72/35
f 71/72/36 72/71/36 74/73/36 73/74/36
f 73/74/37 74/73/37 76/75/37 75/76/37
f 75/76/38 76/75/38 78/77/38 77/78/38
f 77/78/39 78/77/39 80/79/39 79/80/39
f 79/80/40 80/79/40 82/81/40 81/82/40
f 81/82/41 82/81/41 84/83/41 83/84/41
f 83/84/42 84/83/42 86/85/42 85/86/42
f 85/86/43 86/85/43 88/87/43 87/88/43
f 87/88/44 88/87/44 90/89/44 89/90/44
f 89/90/45 90/89/45 92/91/45 91/92/45
f 91/92/46 92/91/46 94/93/46 93/94/46
f 93/94/47 94/93/47 96/95/47 95/96/47
f 95/96/48 96/95/48 98/97/48 97/98/48
f 97/98/49 98/97/49 100/99/49 99/100/49
f 99/100/50 100/99/50 102/101/50 101/102/50
f 101/102/51 102/101/51 104/103/51 103/104/51
f 103/104/52 104/103/52 106/105/52 105/106/52
f 105/106/53 106/105/53 108/107/53 107/108/53
f 107/108/54 108/107/54 110/109/54 109/110/54
f 109/110/55 110/109/55 112/111/55 111/112/55
f 111/112/56 112/111/56 114/113/56 113/114/56
f 113/114/57 114/113/57 116/115/57 115/116/57
f 115/116/58 116/115/58 118/117/58 117/118/58
f 117/118/59 118/117/59 120/119/59 119/120/59
f 119/120/60 120/119/60 122/121/60 121/122/60
f 121/122/61 122/121/61 124/123/61 123/124/61
f 123/124/62 124/123/62 126/125/62 125/126/62
f 125/126/63 126/125/63 128/127/63 127/128/63
f 127/128/64 128/127/64 2/129/64 1/130/64
o Cube
v -5.940632 0.131640 -1.530589
v -5.955605 0.170501 -1.473273
v -5.918561 0.146565 -1.478338
v -5.948281 0.135650 -1.455432
v -5.949093 0.170630 -1.515206
v -5.923294 0.114712 -1.499555
v -5.941816 0.106663 -1.471821
v -5.987572 0.146515 -1.481571
v -5.982578 0.129056 -1.514851
v -5.977380 0.108447 -1.491238
vn 0.4169 0.4821 0.7706
vn 0.6476 -0.2604 0.7161
vn -0.7132 0.5710 -0.4066
vn -0.5831 0.8076 -0.0881
vn 0.0466 -0.9197 -0.3899
vn 0.5491 0.8312 0.0878
vn 0.8561 0.2720 -0.4393
vn 0.8108 -0.4032 0.4244
vn -0.3525 0.2763 -0.8941
vn -0.1867 -0.7601 -0.6224
vn -0.5227 -0.4184 0.7427
vn -0.9666 -0.2560 -0.0107
vn -0.4593 0.3264 0.8261
vt 0.550384 0.206938
vt 0.375000 0.305791
vt 0.375000 0.049496
vt 0.180791 0.500000
vt 0.330928 0.574320
vt 0.125000 0.700504
vt 0.804283 0.500000
vt 0.842867 0.681766
vt 0.658516 0.626313
vt 0.875000 0.500000
vt 0.501754 0.540833
vt 0.565165 0.799791
vt 0.325310 0.750000
vt 0.604031 0.069198
vt 0.375000 1.000000
vt 0.375000 0.799690
vt 0.578028 1.000000
vt 0.615335 0.592735
vt 0.589707 0.775249
vt 0.581909 0.353207
s 0
g Cube_Material
usemtl Material
f 130/131/65 132/132/65 131/133/65
f 132/134/66 135/135/66 131/136/66
f 136/137/67 133/138/67 137/139/67
f 133/138/68 136/137/68 130/140/68
f 138/141/69 129/142/69 134/143/69 135/135/69
f 131/133/70 133/144/70 130/131/70
f 131/145/71 134/146/71 129/142/71 133/147/71
f 135/135/72 134/143/72 131/136/72
f 137/148/73 133/138/73 129/149/73
f 129/142/74 138/141/74 137/148/74
f 138/141/75 135/135/75 132/132/75 136/150/75
f 138/141/76 136/150/76 137/148/76
f 132/132/77 130/131/77 136/150/77
o Cube
v 3.754959 0.602990 -4.454231
v 3.724236 0.623692 -4.521874
v 3.734755 0.578181 -4.509484
v 3.758263 0.601144 -4.536497
v 3.719146 0.623285 -4.475963
v 3.767775 0.574723 -4.483792
v 3.784522 0.586606 -4.514987
v 3.760033 0.648858 -4.514154
v 3.774014 0.642429 -4.475861
v 3.794615 0.626290 -4.498472
vn -0.5507 -0.3354 -0.7643
vn 0.0656 -0.7877 -0.6125
vn -0.3177 0.9093 0.2687
vn -0.5662 0.8224 -0.0555
vn 0.8262 -0.2931 0.4811
vn -0.9616 -0.2519 -0.1089
vn -0.5699 -0.6514 0.5009
vn 0.1281 -0.9477 -0.2922
vn -0.1903 0.5412 0.8191
vn 0.7423 0.0088 0.6700
vn 0.6116 0.2506 -0.7504
vn 0.5670 0.8208 -0.0692
vn -0.1048 0.4249 -0.8991
vt 0.550384 0.206938
vt 0.375000 0.305791
vt 0.375000 0.049496
vt 0.180791 0.500000
vt 0.330928 0.574320
vt 0.125000 0.700504
vt 0.804283 0.500000
vt 0.842867 0.681766
vt 0.658516 0.626313
vt 0.875000 0.500000
vt 0.501754 0.540833
vt 0.565165 0.799791
vt 0.325310 0.750000
vt 0.604031 0.069198
vt 0.375000 1.000000
vt 0.375000 0.799690
vt 0.578028 1.000000
vt 0.615335 0.592735
vt 0.589707 0.775249
vt 0.581909 0.353207
s 0
g Cube_Material
usemtl Material
f 140/151/78 142/152/78 141/153/78
f 142/154/79 145/155/79 141/156/79
f 146/157/80 143/158/80 147/159/80
f 143/158/81 146/157/81 140/160/81
f 148/161/82 139/162/82 144/163/82 145/155/82
f 141/153/83 143/164/83 140/151/83
f 141/165/84 144/166/84 139/162/84 143/167/84
f 145/155/85 144/163/85 141/156/85
f 147/168/86 143/158/86 139/169/86
f 139/162/87 148/161/87 147/168/87
f 148/161/88 145/155/88 142/152/88 146/170/88
f 148/161/89 146/170/89 147/168/89
f 142/152/90 140/151/90 146/170/90
o Cube
v -5.433960 0.034858 -1.010022
v -5.446748 -0.024923 -1.009905
v -5.472939 0.002780 -1.013653
v -5.468381 -0.014750 -0.985210
v -5.428486 0.002224 -1.026346
v -5.465294 0.030858 -0.997511
v -5.469916 0.012534 -0.974723
v -5.426828 -0.017557 -0.981807
v -5.415942 0.013250 -0.983416
v -5.436278 0.011723 -0.965094
vn -0.6700 -0.6751 -0.3088
vn -0.9904 -0.0944 0.1005
vn 0.9238 -0.3360 -0.1836
vn 0.6875 -0.6538 -0.3160
vn -0.0188 0.8536 0.5207
vn -0.2597 -0.3664 -0.8935
vn -0.2992 0.4583 -0.8370
vn -0.9664 0.2570 0.0106
vn 0.8847 0.3186 -0.3403
vn 0.3383 0.8294 0.4446
vn -0.1733 -0.4539 0.8740
vn 0.6644 -0.1971 0.7210
vn -0.0894 -0.9461 0.3114
vt 0.550384 0.206938
vt 0.375000 0.305791
vt 0.375000 0.049496
vt 0.180791 0.500000
vt 0.330928 0.574320
vt 0.125000 0.700504
vt 0.804283 0.500000
vt 0.842867 0.681766
vt 0.658516 0.626313
vt 0.875000 0.500000
vt 0.501754 0.540833
vt 0.565165 0.799791
vt 0.325310 0.750000
vt 0.604031 0.069198
vt 0.375000 1.000000
vt 0.375000 0.799690
vt 0.578028 1.000000
vt 0.615335 0.592735
vt 0.589707 0.775249
vt 0.581909 0.353207
s 0
g Cube_Material
usemtl Material
f 150/171/91 152/172/91 151/173/91
f 152/174/92 155/175/92 151/176/92
f 156/177/93 153/178/93 157/179/93
f 153/178/94 156/177/94 150/180/94
f 158/181/95 149/182/95 154/183/95 155/175/95
f 151/173/96 153/184/96 150/171/96
f 151/185/97 154/186/97 149/182/97 153/187/97
f 155/175/98 154/183/98 151/176/98
f 157/188/99 153/178/99 149/189/99
f 149/182/100 158/181/100 157/188/100
f 158/181/101 155/175/101 152/172/101 156/190/101
f 158/181/102 156/190/102 157/188/102
f 152/172/103 150/171/103 156/190/103
o Cube
v -2.104070 0.269821 -4.469070
v -2.144991 0.291554 -4.527624
v -2.152195 0.305778 -4.483637
v -2.175910 0.278003 -4.502672
v -2.104261 0.290350 -4.509189
v -2.142420 0.278083 -4.455542
v -2.170908 0.262100 -4.471046
v -2.142510 0.248607 -4.527674
v -2.116546 0.236231 -4.499940
v -2.147777 0.230993 -4.489062
vn -0.5913 0.7339 -0.3342
vn -0.8170 0.4529 0.3570
vn 0.6406 -0.2684 -0.7195
vn 0.4128 0.0249 -0.9105
vn 0.0433 -0.5826 0.8116
vn 0.1551 0.9471 -0.2809
vn 0.4275 0.7664 0.4794
vn -0.6082 0.4492 0.6544
vn 0.9623 -0.2402 -0.1275
vn 0.3364 -0.7019 0.6278
vn -0.7914 -0.5505 -0.2657
vn 0.0084 -0.9102 -0.4141
vn -0.6183 -0.0348 -0.7851
vt 0.550384 0.206938
vt 0.375000 0.305791
vt 0.375000 0.049496
vt 0.180791 0.500000
vt 0.330928 0.574320
vt 0.125000 0.700504
vt 0.804283 0.500000
vt 0.842867 0.681766
vt 0.658516 0.626313
vt 0.875000 0.500000
vt 0.501754 0.540833
vt 0.565165 0.799791
vt 0.325310 0.750000
vt 0.604031 0.069198
vt 0.375000 1.000000
vt 0.375000 0.799690
vt 0.578028 1.000000
vt 0.615335 0.592735
vt 0.589707 0.775249
vt 0.581909 0.353207
s 0
g Cube_Material
usemtl Material
f 160/191/104 162/192/104 161/193/104
f 162/194/105 165/195/105 161/196/105
f 166/197/106 163/198/106 167/199/106
f 163/198/107 166/197/107 160/200/107
f 168/201/108 159/202/108 164/203/108 165/195/108
f 161/193/109 163/204/109 160/191/109
f 161/205/110 164/206/110 159/202/110 163/207/110
f 165/195/111 164/203/111 161/196/111
f 167/208/112 163/198/112 159/209/112
f 159/202/113 168/201/113 167/208/113
f 168/201/114 165/195/114 162/192/114 166/210/114
f 168/201/115 166/210/115 167/208/115
f 162/192/116 160/191/116 166/210/116
o Cube
v -4.191452 -0.079389 -3.630929
v -4.251454 -0.111826 -3.640117
v -4.218885 -0.127157 -3.616365
v -4.227503 -0.140219 -3.650952
v -4.232680 -0.077917 -3.626075
v -4.184994 -0.117024 -3.628701
v -4.194790 -0.137115 -3.653424
v -4.237112 -0.101288 -3.675551
v -4.207588 -0.079662 -3.671426
v -4.198485 -0.107972 -3.679683
vn -0.6151 -0.6746 0.4081
vn 0.1137 -0.9385 0.3261
vn -0.5294 0.7844 -0.3231
vn -0.8281 0.5318 -0.1770
vn 0.9677 0.0410 -0.2488
vn -0.5913 -0.0066 0.8065
vn 0.1998 0.1789 0.9634
vn 0.4061 -0.7813 0.4740
vn 0.0333 0.9992 -0.0200
vn 0.8595 0.3770 -0.3450
vn -0.1034 -0.6082 -0.7870
vn -0.0576 0.2624 -0.9632
vn -0.7604 -0.4705 -0.4477
vt 0.550384 0.206938
vt 0.375000 0.305791
vt 0.375000 0.049496
vt 0.180791 0.500000
vt 0.330928 0.574320
vt 0.125000 0.700504
vt 0.804283 0.500000
vt 0.842867 0.681766
vt 0.658516 0.626313
vt 0.875000 0.500000
vt 0.501754 0.540833
vt 0.565165 0.799791
vt 0.325310 0.750000
vt 0.604031 0.069198
vt 0.375000 1.000000
vt 0.375000 0.799690
vt 0.578028 1.000000
vt 0.615335 0.592735
vt 0.589707 0.775249
vt 0.581909 0.353207
s 0
g Cube_Material
usemtl Material
f 170/211/117 172/212/117 171/213/117
f 172/214/118 175/215/118 171/216/118
f 176/217/119 173/218/119 177/219/119
f 173/218/120 176/217/120 170/220/120
f 178/221/121 169/222/121 174/223/121 175/215/121
f 171/213/122 173/224/122 170/211/122
f 171/225/123 174/226/123 169/222/123 173/227/123
f 175/215/124 174/223/124 171/216/124
f 177/228/125 173/218/125 169/229/125
f 169/222/126 178/221/126 177/228/126
f 178/221/127 175/215/127 172/212/127 176/230/127
f 178/221/128 176/230/128 177/228/128
f 172/212/129 170/211/129 176/230/129
o Cube
v 5.015206 0.180562 -0.427207
v 5.023959 0.196100 -0.469313
v 5.043962 0.186810 -0.451021
v 5.039979 0.211204 -0.456042
v 5.010866 0.177327 -0.454270
v 5.038433 0.190872 -0.427096
v 5.041370 0.211639 -0.434197
v 5.008829 0.213656 -0.456788
v 5.001124 0.204493 -0.435448
v 5.016092 0.218082 -0.432018
vn 0.6625 -0.0457 -0.7477
vn 0.9869 0.1476 -0.0658
vn -0.9267 -0.0774 -0.3678
vn -0.6941 -0.0884 -0.7145
vn 0.0259 0.1985 0.9798
vn 0.2672 -0.7092 -0.6524
vn 0.3207 -0.9366 0.1415
vn 0.9706 -0.0573 0.2340
vn -0.8732 -0.4472 0.1935
vn -0.3303 0.1277 0.9352
vn 0.1512 0.9799 -0.1302
vn -0.6792 0.7308 0.0686
vn 0.0674 0.6173 -0.7839
vt 0.550384 0.206938
vt 0.375000 0.305791
vt 0.375000 0.049496
vt 0.180791 0.500000
vt 0.330928 0.574320
vt 0.125000 0.700504
vt 0.804283 0.500000
vt 0.842867 0.681766
vt 0.658516 0.626313
vt 0.875000 0.500000
vt 0.501754 0.540833
vt 0.565165 0.799791
vt 0.325310 0.750000
vt 0.604031 0.069198
vt 0.375000 1.000000
vt 0.375000 0.799690
vt 0.578028 1.000000
vt 0.615335 0.592735
vt 0.589707 0.775249
vt 0.581909 0.353207
s 0
g Cube_Material
usemtl Material
f 180/231/130 182/232/130 181/233/130
f 182/234/131 185/235/131 181/236/131
f 186/237/132 183/238/132 187/239/132
f 183/238/133 186/237/133 180/240/133
f 188/241/134 179/242/134 184/243/134 185/235/134
f 181/233/135 183/244/135 180/231/135
f 181/245/136 184/246/136 179/242/136 183/247/136
f 185/235/137 184/243/137 181/236/137
f 187/248/138 183/238/138 179/249/138
f 179/242/139 188/241/139 187/248/139
f 188/241/140 185/235/140 182/232/140 186/250/140
f 188/241/141 186/250/141 187/248/141
f 182/232/142 180/231/142 186/250/142
o Cube
v 0.334209 0.201643 4.642443
v 0.309926 0.163489 4.691952
v 0.293562 0.165426 4.653299
v 0.278375 0.181936 4.682706
v 0.341537 0.171585 4.668534
v 0.297506 0.197926 4.637161
v 0.276809 0.205538 4.660996
v 0.314286 0.199561 4.705079
v 0.331626 0.219571 4.680861
v 0.302376 0.226533 4.680470
vn -0.5359 -0.8236 0.1856
vn -0.9027 -0.3223 -0.2853
vn 0.8070 0.0150 0.5903
vn 0.6148 -0.3343 0.7143
vn -0.1173 0.8347 -0.5381
vn 0.1633 -0.9795 -0.1182
vn 0.2575 -0.5310 -0.8073
vn -0.7705 -0.2060 -0.6032
vn 0.9771 0.2101 -0.0324
vn 0.2172 0.8901 -0.4007
vn -0.6733 0.3937 0.6258
vn 0.1580 0.7027 0.6937
vn -0.4116 -0.2673 0.8713
vt 0.550384 0.206938
vt 0.375000 0.305791
vt 0.375000 0.049496
vt 0.180791 0.500000
vt 0.330928 0.574320
vt 0.125000 0.700504
vt 0.804283 0.500000
vt 0.842867 0.681766
vt 0.658516 0.626313
vt 0.875000 0.500000
vt 0.501754 0.540833
vt 0.565165 0.799791
vt 0.325310 0.750000
vt 0.604031 0.069198
vt 0.375000 1.000000
vt 0.375000 0.799690
vt 0.578028 1.000000
vt 0.615335 0.592735
vt 0.589707 0.775249
vt 0.581909 0.353207
s 0
g Cube_Material
usemtl Material
f 190/251/143 192/252/143 191/253/143
f 192/254/144 195/255/144 191/256/144
f 196/257/145 193/258/145 197/259/145
f 193/258/146 196/257/146 190/260/146
f 198/261/147 189/262/147 194/263/147 195/255/147
f 191/253/148 193/264/148 190/251/148
f 191/265/149 194/266/149 189/262/149 193/267/149
f 195/255/150 194/263/150 191/256/150
f 197/268/151 193/258/151 189/269/151
f 189/262/152 198/261/152 197/268/152
f 198/261/153 195/255/153 192/252/153 196/270/153
f 198/261/154 196/270/154 197/268/154
f 192/252/155 190/251/155 196/270/155
o Cube
v -4.266859 -0.050755 -1.583307
v -4.242605 -0.041598 -1.540251
v -4.262896 -0.021687 -1.553802
v -4.235396 -0.018249 -1.554437
v -4.261824 -0.059668 -1.554753
v -4.263302 -0.023138 -1.581118
v -4.241055 -0.013980 -1.577432
v -4.223330 -0.049892 -1.560204
v -4.235961 -0.058363 -1.582385
v -4.227426 -0.037823 -1.586013
vn -0.0466 0.5291 0.8473
vn -0.1166 0.9710 0.2089
vn 0.2682 -0.9409 0.2066
vn 0.2765 -0.7630 0.5843
vn -0.0541 0.1944 -0.9794
vn -0.5797 -0.0367 0.8140
vn -0.9943 0.0328 0.1012
vn -0.3741 0.9264 -0.0436
vn -0.2241 -0.9408 -0.2542
vn -0.0122 -0.1690 -0.9855
vn 0.9031 0.4279 -0.0373
vn 0.8507 -0.4113 -0.3273
vn 0.7427 0.1649 0.6489
vt 0.550384 0.206938
vt 0.375000 0.305791
vt 0.375000 0.049496
vt 0.180791 0.500000
vt 0.330928 0.574320
vt 0.125000 0.700504
vt 0.804283 0.500000
vt 0.842867 0.681766
vt 0.658516 0.626313
vt 0.875000 0.500000
vt 0.501754 0.540833
vt 0.565165 0.799791
vt 0.325310 0.750000
vt 0.604031 0.069198
vt 0.375000 1.000000
vt 0.375000 0.799690
vt 0.578028 1.000000
vt 0.615335 0.592735
vt 0.589707 0.775249
vt 0.581909 0.353207
s 0
g Cube_Material
usemtl Material
f 200/271/156 202/272/156 201/273/156
f 202/274/157 205/275/157 201/276/157
f 206/277/158 203/278/158 207/279/158
f 203/278/159 206/277/159 200/280/159
f 208/281/160 199/282/160 204/283/160 205/275/160
f 201/273/161 203/284/161 200/271/161
f 201/285/162 204/286/162 199/282/162 203/287/162
f 205/275/163 204/283/163 201/276/163
f 207/288/164 203/278/164 199/289/164
f 199/282/165 208/281/165 207/288/165
f 208/281/166 205/275/166 202/272/166 206/290/166
f 208/281/167 206/290/167 207/288/167
f 202/272/168 200/271/168 206/290/168
o Cube
v -1.141132 0.534060 4.399740
v -1.160662 0.508147 4.325449
v -1.190383 0.537568 4.354285
v -1.197670 0.493912 4.347922
v -1.129234 0.533645 4.352282
v -1.185990 0.530450 4.397612
v -1.202462 0.496644 4.386343
v -1.147085 0.471507 4.351034
v -1.130972 0.484879 4.389026
v -1.164329 0.471365 4.394143
vn -0.5653 0.2106 -0.7975
vn -0.9740 0.1822 -0.1345
vn 0.9188 -0.2579 -0.2989
vn 0.7234 -0.1945 -0.6624
vn -0.1467 -0.1115 0.9829
vn 0.0226 0.7114 -0.7025
vn 0.0029 0.9973 0.0739
vn -0.9074 0.3901 0.1561
vn 0.9599 0.1462 0.2394
vn 0.2146 -0.1654 0.9626
vn -0.4619 -0.8816 -0.0969
vn 0.3912 -0.9074 0.1535
vn -0.2246 -0.6125 -0.7579
vt 0.550384 0.206938
vt 0.375000 0.305791
vt 0.375000 0.049496
vt 0.180791 0.500000
vt 0.330928 0.574320
vt 0.125000 0.700504
vt 0.804283 0.500000
vt 0.842867 0.681766
vt 0.658516 0.626313
vt 0.875000 0.500000
vt 0.501754 0.540833
vt 0.565165 0.799791
vt 0.325310 0.750000
vt 0.604031 0.069198
vt 0.375000 1.000000
vt 0.375000 0.799690
vt 0.578028 1.000000
vt 0.615335 0.592735
vt 0.589707 0.775249
vt 0.581909 0.353207
s 0
g Cube_Material
usemtl Material
f 210/291/169 212/292/169 211/293/169
f 212/294/170 215/295/170 211/296/170
f 216/297/171 213/298/171 217/299/171
f 213/298/172 216/297/172 210/300/172
f 218/301/173 209/302/173 214/303/173 215/295/173
f 211/293/174 213/304/174 210/291/174
f 211/305/175 214/306/175 209/302/175 213/307/175
f 215/295/176 214/303/176 211/296/176
f 217/308/177 213/298/177 209/309/177
f 209/302/178 218/301/178 217/308/178
f 218/301/179 215/295/179 212/292/179 216/310/179
f 218/301/180 216/310/180 217/308/180
f 212/292/181 210/291/181 216/310/181
o Cube
v -3.713142 -0.023370 1.011310
v -3.747043 0.007180 0.973315
v -3.725859 0.022674 0.999691
v -3.758426 0.020017 1.001954
v -3.720003 -0.015631 0.976994
v -3.722584 0.004512 1.026227
v -3.750496 0.011243 1.027809
v -3.766083 -0.017257 0.987832
v -3.747766 -0.036673 1.005072
v -3.761153 -0.020384 1.021337
vn -0.1034 0.8917 -0.4408
vn -0.0534 0.9405 0.3356
vn -0.1332 -0.7254 -0.6753
vn -0.1989 -0.3814 -0.9028
vn 0.0998 -0.3384 0.9357
vn 0.5126 0.4944 -0.7021
vn 0.9659 0.2534 -0.0530
vn 0.2270 0.8165 0.5308
vn 0.3876 -0.8796 -0.2759
vn 0.1158 -0.6525 0.7489
vn -0.9531 0.1808 0.2427
vn -0.7476 -0.6624 0.0482
vn -0.8080 0.3465 -0.4765
vt 0.550384 0.206938
vt 0.375000 0.305791
vt 0.375000 0.049496
vt 0.180791 0.500000
vt 0.330928 0.574320
vt 0.125000 0.700504
vt 0.804283 0.500000
vt 0.842867 0.681766
vt 0.658516 0.626313
vt 0.875000 0.500000
vt 0.501754 0.540833
vt 0.565165 0.799791
vt 0.325310 0.750000
vt 0.604031 0.069198
vt 0.375000 1.000000
vt 0.375000 0.799690
vt 0.578028 1.000000
vt 0.615335 0.592735
vt 0.589707 0.775249
vt 0.581909 0.353207
s 0
g Cube_Material
usemtl Material
f 220/311/182 222/312/182 221/313/182
f 222/314/183 225/315/183 221/316/183
f 226/317/184 223/318/184 227/319/184
f 223/318/185 226/317/185 220/320/185
f 228/321/186 219/322/186 224/323/186 225/315/186
f 221/313/187 223/324/187 220/311/187
f 221/325/188 224/326/188 219/322/188 223/327/188
f 225/315/189 224/323/189 221/316/189
f 227/328/190 223/318/190 219/329/190
f 219/322/191 228/321/191 227/328/191
f 228/321/192 225/315/192 222/312/192 226/330/192
f 228/321/193 226/330/193 227/328/193
f 222/312/194 220/311/194 226/330/194
o Cube
v -0.571603 0.074264 3.842379
v -0.543594 0.061110 3.886983
v -0.569093 0.083614 3.886266
v -0.540240 0.091429 3.888008
v -0.562754 0.050389 3.862999
v -0.571462 0.098236 3.860698
v -0.548677 0.107801 3.869668
v -0.523412 0.068434 3.864240
v -0.537466 0.071833 3.839044
v -0.531480 0.093674 3.847975
vn -0.0527 -0.0279 0.9982
vn -0.2249 0.6732 0.7044
vn 0.4011 -0.8512 -0.3386
vn 0.4138 -0.9073 0.0750
vn -0.1494 0.6835 -0.7145
vn -0.5097 -0.5566 0.6560
vn -0.9803 -0.1739 0.0931
vn -0.4921 0.7352 0.4661
vn -0.1192 -0.6739 -0.7291
vn -0.0617 0.3922 -0.9178
vn 0.8356 0.5071 0.2113
vn 0.8705 -0.0379 -0.4907
vn 0.7604 -0.1058 0.6407
vt 0.550384 0.206938
vt 0.375000 0.305791
vt 0.375000 0.049496
vt 0.180791 0.500000
vt 0.330928 0.574320
vt 0.125000 0.700504
vt 0.804283 0.500000
vt 0.842867 0.681766
vt 0.658516 0.626313
vt 0.875000 0.500000
vt 0.501754 0.540833
vt 0.565165 0.799791
vt 0.325310 0.750000
vt 0.604031 0.069198
vt 0.375000 1.000000
vt 0.375000 0.799690
vt 0.578028 1.000000
vt 0.615335 0.592735
vt 0.589707 0.775249
vt 0.581909 0.353207
s 0
g Cube_Material
usemtl Material
f 230/331/195 232/332/195 231/333/195
f 232/334/196 235/335/196 231/336/196
f 236/337/197 233/338/197 237/339/197
f 233/338/198 236/337/198 230/340/198
f 238/341/199 229/342/199 234/343/199 235/335/199
f 231/333/200 233/344/200 230/331/200
f 231/345/201 234/346/201 229/342/201 233/347/201
f 235/335/202 234/343/202 231/336/202
f 237/348/203 233/338/203 229/349/203
f 229/342/204 238/341/204 237/348/204
f 238/341/205 235/335/205 232/332/205 236/350/205
f 238/341/206 236/350/206 237/348/206
f 232/332/207 230/331/207 236/350/207
o Cube
v 0.017553 -0.080969 -3.215004
v 0.037608 -0.054603 -3.170606
v 0.004773 -0.052247 -3.181616
v 0.025524 -0.030199 -3.185718
v 0.031929 -0.083968 -3.184969
v 0.001676 -0.054827 -3.211497
v 0.014612 -0.031385 -3.209863
v 0.056900 -0.049045 -3.195414
v 0.049062 -0.065927 -3.218483
v 0.041503 -0.042590 -3.222392
vn -0.2633 0.4103 0.8731
vn -0.6751 0.6859 0.2715
vn 0.8243 -0.5523 0.1241
vn 0.7657 -0.3960 0.5068
vn -0.2863 0.0820 -0.9546
vn -0.3194 -0.3658 0.8742
vn -0.7700 -0.5988 0.2204
vn -0.8759 0.4799 0.0494
vn 0.3895 -0.8793 -0.2742
vn -0.0260 -0.1733 -0.9845
vn 0.4177 0.9003 -0.1222
vn 0.8702 0.2069 -0.4471
vn 0.5463 0.6195 0.5637
vt 0.550384 0.206938
vt 0.375000 0.305791
vt 0.375000 0.049496
vt 0.180791 0.500000
vt 0.330928 0.574320
vt 0.125000 0.700504
vt 0.804283 0.500000
vt 0.842867 0.681766
vt 0.658516 0.626313
vt 0.875000 0.500000
vt 0.501754 0.540833
vt 0.565165 0.799791
vt 0.325310 0.750000
vt 0.604031 0.069198
vt 0.375000 1.000000
vt 0.375000 0.799690
vt 0.578028 1.000000
vt 0.615335 0.592735
vt 0.589707 0.775249
vt 0.581909 0.353207
s 0
g Cube_Material
usemtl Material
f 240/351/208 242/352/208 241/353/208
f 242/354/209 245/355/209 241/356/209
f 246/357/210 243/358/210 247/359/210
f 243/358/211 246/357/211 240/360/211
f 248/361/212 239/362/212 244/363/212 245/355/212
f 241/353/213 243/364/213 240/351/213
f 241/365/214 244/366/214 239/362/214 243/367/214
f 245/355/215 244/363/215 241/356/215
f 247/368/216 243/358/216 239/369/216
f 239/362/217 248/361/217 247/368/217
f 248/361/218 245/355/218 242/352/218 246/370/218
f 248/361/219 246/370/219 247/368/219
f 242/352/220 240/351/220 246/370/220
o Cube
v -2.693819 0.170909 2.153459
v -2.725107 0.122523 2.138152
v -2.699108 0.138506 2.116605
v -2.731418 0.141559 2.111295
v -2.702271 0.136882 2.161553
v -2.696755 0.170643 2.120457
v -2.722862 0.168627 2.108294
v -2.746916 0.146916 2.148602
v -2.730830 0.171554 2.160934
v -2.739607 0.178006 2.136519
vn 0.0186 -0.8136 -0.5811
vn 0.1460 -0.1545 -0.9771
vn -0.3209 -0.2480 0.9141
vn -0.3441 -0.6125 0.7116
vn 0.1213 0.9844 -0.1277
vn 0.5276 -0.8495 0.0064
vn 0.9869 -0.1612 0.0001
vn 0.4161 0.0781 -0.9060
vn 0.1977 0.1801 0.9636
vn 0.0640 0.9703 0.2334
vn -0.8797 0.1207 -0.4600
vn -0.8466 0.3536 0.3978
vn -0.7725 -0.5894 -0.2363
vt 0.550384 0.206938
vt 0.375000 0.305791
vt 0.375000 0.049496
vt 0.180791 0.500000
vt 0.330928 0.574320
vt 0.125000 0.700504
vt 0.804283 0.500000
vt 0.842867 0.681766
vt 0.658516 0.626313
vt 0.875000 0.500000
vt 0.501754 0.540833
vt 0.565165 0.799791
vt 0.325310 0.750000
vt 0.604031 0.069198
vt 0.375000 1.000000
vt 0.375000 0.799690
vt 0.578028 1.000000
vt 0.615335 0.592735
vt 0.589707 0.775249
vt 0.581909 0.353207
s 0
g Cube_Material
usemtl Material
f 250/371/221 252/372/221 251/373/221
f 252/374/222 255/375/222 251/376/222
f 256/377/223 253/378/223 257/379/223
f 253/378/224 256/377/224 250/380/224
f 258/381/225 249/382/225 254/383/225 255/375/225
f 251/373/226 253/384/226 250/371/226
f 251/385/227 254/386/227 249/382/227 253/387/227
f 255/375/228 254/383/228 251/376/228
f 257/388/229 253/378/229 249/389/229
f 249/382/230 258/381/230 257/388/230
f 258/381/231 255/375/231 252/372/231 256/390/231
f 258/381/232 256/390/232 257/388/232
f 252/372/233 250/371/233 256/390/233
o Cube
v 1.552457 0.257775 2.307680
v 1.487921 0.283065 2.270852
v 1.491483 0.276869 2.319513
v 1.470266 0.249546 2.293481
v 1.533356 0.291061 2.279906
v 1.517827 0.245285 2.331082
v 1.489896 0.225453 2.314612
v 1.502294 0.245243 2.250656
v 1.539753 0.233950 2.265934
v 1.514852 0.213018 2.279374
vn -0.8389 0.5288 0.1287
vn -0.7540 -0.0392 0.6557
vn 0.4308 0.2597 -0.8643
vn 0.0854 0.4944 -0.8651
vn 0.4481 -0.7698 0.4546
vn -0.1983 0.9704 0.1381
vn 0.3358 0.6492 0.6825
vn -0.4697 -0.0694 0.8801
vn 0.9016 0.1954 -0.3859
vn 0.6897 -0.6990 0.1891
vn -0.6582 -0.6736 -0.3361
vn 0.1205 -0.6339 -0.7640
vn -0.7999 0.0163 -0.5999
vt 0.550384 0.206938
vt 0.375000 0.305791
vt 0.375000 0.049496
vt 0.180791 0.500000
vt 0.330928 0.574320
vt 0.125000 0.700504
vt 0.804283 0.500000
vt 0.842867 0.681766
vt 0.658516 0.626313
vt 0.875000 0.500000
vt 0.501754 0.540833
vt 0.565165 0.799791
vt 0.325310 0.750000
vt 0.604031 0.069198
vt 0.375000 1.000000
vt 0.375000 0.799690
vt 0.578028 1.000000
vt 0.615335 0.592735
vt 0.589707 0.775249
vt 0.581909 0.353207
s 0
g Cube_Material
usemtl Material
f 260/391/234 262/392/234 261/393/234
f 262/394/235 265/395/235 261/396/235
f 266/397/236 263/398/236 267/399/236
f 263/398/237 266/397/237 260/400/237
f 268/401/238 259/402/238 264/403/238 265/395/238
f 261/393/239 263/404/239 260/391/239
f 261/405/240 264/406/240 259/402/240 263/407/240
f 265/395/241 264/403/241 261/396/241
f 267/408/242 263/398/242 259/409/242
f 259/402/243 268/401/243 267/408/243
f 268/401/244 265/395/244 262/392/244 266/410/244
f 268/401/245 266/410/245 267/408/245
f 262/392/246 260/391/246 266/410/246
o Cube
v 0.941009 0.345993 -2.737245
v 0.935271 0.351881 -2.678427
v 0.959286 0.371256 -2.699231
v 0.968158 0.346315 -2.679935
v 0.919157 0.354235 -2.710053
v 0.970268 0.355146 -2.725017
v 0.982349 0.340010 -2.703756
v 0.939009 0.318688 -2.685840
v 0.937913 0.314255 -2.717290
v 0.963148 0.312441 -2.708975
vn 0.1425 0.6369 0.7577
vn 0.7826 0.5305 0.3258
vn -0.8949 -0.4366 0.0927
vn -0.8796 -0.1959 0.4336
vn 0.5511 -0.3724 -0.7468
vn -0.4386 0.8517 0.2869
vn -0.1593 0.8558 -0.4921
vn 0.8020 0.5965 -0.0311
vn -0.7888 -0.2701 -0.5521
vn 0.2297 -0.5340 -0.8137
vn 0.5390 -0.5928 0.5984
vn -0.1177 -0.9828 0.1426
vn 0.0080 -0.2171 0.9761
vt 0.550384 0.206938
vt 0.375000 0.305791
vt 0.375000 0.049496
vt 0.180791 0.500000
vt 0.330928 0.574320
vt 0.125000 0.700504
vt 0.804283 0.500000
vt 0.842867 0.681766
vt 0.658516 0.626313
vt 0.875000 0.500000
vt 0.501754 0.540833
vt 0.565165 0.799791
vt 0.325310 0.750000
vt 0.604031 0.069198
vt 0.375000 1.000000
vt 0.375000 0.799690
vt 0.578028 1.000000
vt 0.615335 0.592735
vt 0.589707 0.775249
vt 0.581909 0.353207
s 0
g Cube_Material
usemtl Material
f 270/411/247 272/412/247 271/413/247
f 272/414/248 275/415/248 271/416/248
f 276/417/249 273/418/249 277/419/249
f 273/418/250 276/417/250 270/420/250
f 278/421/251 269/422/251 274/423/251 275/415/251
f 271/413/252 273/424/252 270/411/252
f 271/425/253 274/426/253 269/422/253 273/427/253
f 275/415/254 274/423/254 271/416/254
f 277/428/255 273/418/255 269/429/255
f 269/422/256 278/421/256 277/428/256
f 278/421/257 275/415/257 272/412/257 276/430/257
f 278/421/258 276/430/258 277/428/258
f 272/412/259 270/411/259 276/430/259
o Cube
v -1.839970 0.228004 -1.798528
v -1.899547 0.261037 -1.837737
v -1.857629 0.284183 -1.826208
v -1.895105 0.290902 -1.805472
v -1.867458 0.226594 -1.837166
v -1.839886 0.270776 -1.789659
v -1.871394 0.287546 -1.776441
v -1.915822 0.241613 -1.800209
v -1.885822 0.218927 -1.781386
v -1.890674 0.248969 -1.763603
vn -0.2259 0.7302 -0.6448
vn 0.1652 0.9860 -0.0209
vn -0.4675 -0.8419 -0.2696
vn -0.6030 -0.5710 -0.5571
vn 0.4794 -0.0715 0.8747
vn 0.1823 0.1537 -0.9712
vn 0.8580 0.0167 -0.5135
vn 0.4937 0.8661 0.0780
vn 0.1643 -0.9831 -0.0810
vn 0.3896 -0.4217 0.8188
vn -0.7328 0.4404 0.5186
vn -0.6929 -0.4469 0.5658
vn -0.9094 0.3600 -0.2080
vt 0.550384 0.206938
vt 0.375000 0.305791
vt 0.375000 0.049496
vt 0.180791 0.500000
vt 0.330928 0.574320
vt 0.125000 0.700504
vt 0.804283 0.500000
vt 0.842867 0.681766
vt 0.658516 0.626313
vt 0.875000 0.500000
vt 0.501754 0.540833
vt 0.565165 0.799791
vt 0.325310 0.750000
vt 0.604031 0.069198
vt 0.375000 1.000000
vt 0.375000 0.799690
vt 0.578028 1.000000
vt 0.615335 0.592735
vt 0.589707 0.775249
vt 0.581909 0.353207
s 0
g Cube_Material
usemtl Material
f 280/431/260 282/432/260 281/433/260
f 282/434/261 285/435/261 281/436/261
f 286/437/262 283/438/262 287/439/262
f 283/438/263 286/437/263 280/440/263
f 288/441/264 279/442/264 284/443/264 285/435/264
f 281/433/265 283/444/265 280/431/265
f 281/445/266 284/446/266 279/442/266 283/447/266
f 285/435/267 284/443/267 281/436/267
f 287/448/268 283/438/268 279/449/268
f 279/442/269 288/441/269 287/448/269
f 288/441/270 285/435/270 282/432/270 286/450/270
f 288/441/271 286/450/271 287/448/271
f 282/432/272 280/431/272 286/450/272
o Cube
v 0.646961 0.332022 -1.870075
v 0.701147 0.325925 -1.892207
v 0.672866 0.303566 -1.899953
v 0.697107 0.295462 -1.879946
v 0.672881 0.346788 -1.889352
v 0.651970 0.300233 -1.875905
v 0.674774 0.287142 -1.864917
v 0.703416 0.328909 -1.858511
v 0.675357 0.336374 -1.846322
v 0.680422 0.310892 -1.841699
vn 0.5106 -0.3784 -0.7720
vn 0.0497 -0.9033 -0.4261
vn 0.3334 0.9205 0.2036
vn 0.5830 0.8049 -0.1105
vn -0.6689 -0.3385 0.6618
vn 0.0775 0.2375 -0.9683
vn -0.6975 0.1087 -0.7083
vn -0.3101 -0.8672 -0.3896
vn -0.3399 0.9094 0.2397
vn -0.6426 0.0113 0.7661
vn 0.6710 -0.5383 0.5099
vn 0.4403 0.2443 0.8640
vn 0.9869 -0.1522 -0.0530
vt 0.550384 0.206938
vt 0.375000 0.305791
vt 0.375000 0.049496
vt 0.180791 0.500000
vt 0.330928 0.574320
vt 0.125000 0.700504
vt 0.804283 0.500000
vt 0.842867 0.681766
vt 0.658516 0.626313
vt 0.875000 0.500000
vt 0.501754 0.540833
vt 0.565165 0.799791
vt 0.325310 0.750000
vt 0.604031 0.069198
vt 0.375000 1.000000
vt 0.375000 0.799690
vt 0.578028 1.000000
vt 0.615335 0.592735
vt 0.589707 0.775249
vt 0.581909 0.353207
s 0
g Cube_Material
usemtl Material
f 290/451/273 292/452/273 291/453/273
f 292/454/274 295/455/274 291/456/274
f 296/457/275 293/458/275 297/459/275
f 293/458/276 296/457/276 290/460/276
f 298/461/277 289/462/277 294/463/277 295/455/277
f 291/453/278 293/464/278 290/451/278
f 291/465/279 294/466/279 289/462/279 293/467/279
f 295/455/280 294/463/280 291/456/280
f 297/468/281 293/458/281 289/469/281
f 289/462/282 298/461/282 297/468/282
f 298/461/283 295/455/283 292/452/283 296/470/283
f 298/461/284 296/470/284 297/468/284
f 292/452/285 290/451/285 296/470/285
o Cube
v -0.647103 0.516236 1.691411
v -0.588823 0.497454 1.690052
v -0.599693 0.534142 1.693006
v -0.587639 0.520539 1.664530
v -0.620988 0.495687 1.707604
v -0.628391 0.541036 1.677504
v -0.610892 0.535177 1.654285
v -0.606037 0.482971 1.662867
v -0.638166 0.488970 1.665301
v -0.627271 0.505281 1.646077
vn 0.9284 0.2532 0.2721
vn 0.5718 0.8077 -0.1438
vn -0.1630 -0.9620 0.2190
vn 0.2342 -0.9118 0.3374
vn -0.7467 0.4258 -0.5110
vn 0.4749 0.0701 0.8773
vn -0.2219 0.5138 0.8287
vn 0.2582 0.9649 -0.0489
vn -0.7060 -0.5967 0.3814
vn -0.9012 0.1069 -0.4201
vn 0.4523 -0.1036 -0.8858
vn -0.1826 -0.6962 -0.6942
vn 0.8547 -0.4042 -0.3259
vt 0.550384 0.206938
vt 0.375000 0.305791
vt 0.375000 0.049496
vt 0.180791 0.500000
vt 0.330928 0.574320
vt 0.125000 0.700504
vt 0.804283 0.500000
vt 0.842867 0.681766
vt 0.658516 0.626313
vt 0.875000 0.500000
vt 0.501754 0.540833
vt 0.565165 0.799791
vt 0.325310 0.750000
vt 0.604031 0.069198
vt 0.375000 1.000000
vt 0.375000 0.799690
vt 0.578028 1.000000
vt 0.615335 0.592735
vt 0.589707 0.775249
vt 0.581909 0.353207
s 0
g Cube_Material
usemtl Material
f 300/471/286 302/472/286 301/473/286
f 302/474/287 305/475/287 301/476/287
f 306/477/288 303/478/288 307/479/288
f 303/478/289 306/477/289 300/480/289
f 308/481/290 299/482/290 304/483/290 305/475/290
f 301/473/291 303/484/291 300/471/291
f 301/485/292 304/486/292 299/482/292 303/487/292
f 305/475/293 304/483/293 301/476/293
f 307/488/294 303/478/294 299/489/294
f 299/482/295 308/481/295 307/488/295
f 308/481/296 305/475/296 302/472/296 306/490/296
f 308/481/297 306/490/297 307/488/297
f 302/472/298 300/471/298 306/490/298
o Cube
v -0.016717 0.324176 1.968168
v -0.075084 0.379160 1.986237
v -0.056631 0.370859 1.938872
v -0.045609 0.406951 1.964000
v -0.062068 0.331682 1.986827
v -0.013668 0.358394 1.938057
v -0.010192 0.395927 1.950847
v -0.038439 0.385696 2.015512
v -0.009139 0.353246 2.010691
v 0.003480 0.383689 1.994180
vn -0.7701 0.5058 -0.3887
vn -0.1128 0.5907 -0.7990
vn -0.2556 -0.3639 0.8957
vn -0.5997 -0.1546 0.7852
vn 0.9627 -0.1430 -0.2297
vn -0.9153 -0.2548 -0.3119
vn -0.3012 -0.6782 -0.6703
vn 0.0736 0.3156 -0.9460
vn 0.0895 -0.8296 0.5512
vn 0.9346 -0.3485 0.0717
vn 0.2743 0.9241 0.2660
vn 0.4463 0.2766 0.8511
vn -0.4563 0.7984 0.3929
vt 0.550384 0.206938
vt 0.375000 0.305791
vt 0.375000 0.049496
vt 0.180791 0.500000
vt 0.330928 0.574320
vt 0.125000 0.700504
vt 0.804283 0.500000
vt 0.842867 0.681766
vt 0.658516 0.626313
vt 0.875000 0.500000
vt 0.501754 0.540833
vt 0.565165 0.799791
vt 0.325310 0.750000
vt 0.604031 0.069198
vt 0.375000 1.000000
vt 0.375000 0.799690
vt 0.578028 1.000000
vt 0.615335 0.592735
vt 0.589707 0.775249
vt 0.581909 0.353207
s 0
g Cube_Material
usemtl Material
f 310/491/299 312/492/299 311/493/299
f 312/494/300 315/495/300 311/496/300
f 316/497/301 313/498/301 317/499/301
f 313/498/302 316/497/302 310/500/302
f 318/501/303 309/502/303 314/503/303 315/495/303
f 311/493/304 313/504/304 310/491/304
f 311/505/305 314/506/305 309/502/305 313/507/305
f 315/495/306 314/503/306 311/496/306
f 317/508/307 313/498/307 309/509/307
f 309/502/308 318/501/308 317/508/308
f 318/501/309 315/495/309 312/492/309 316/510/309
f 318/501/310 316/510/310 317/508/310
f 312/492/311 310/491/311 316/510/311
o Cube
v -1.546748 0.217943 0.404027
v -1.546303 0.166651 0.408552
v -1.552717 0.187012 0.432747
v -1.528024 0.173249 0.430010
v -1.559000 0.191009 0.394525
v -1.539223 0.211506 0.430876
v -1.520128 0.196040 0.435114
v -1.521068 0.175293 0.395568
v -1.522175 0.202152 0.389516
v -1.508788 0.199016 0.408067
vn -0.3625 -0.7582 0.5419
vn -0.0114 -0.2148 0.9766
vn -0.0652 -0.2219 -0.9729
vn -0.2138 -0.5688 -0.7942
vn 0.4878 0.8534 0.1836
vn -0.9054 -0.4110 0.1058
vn -0.8799 0.4032 0.2514
vn -0.1090 0.1353 0.9848
vn -0.2459 0.4201 -0.8735
vn 0.4542 0.8725 -0.1803
vn 0.8621 -0.4569 0.2192
vn 0.7986 -0.1008 -0.5933
vn 0.3287 -0.9444 0.0103
vt 0.550384 0.206938
vt 0.375000 0.305791
vt 0.375000 0.049496
vt 0.180791 0.500000
vt 0.330928 0.574320
vt 0.125000 0.700504
vt 0.804283 0.500000
vt 0.842867 0.681766
vt 0.658516 0.626313
vt 0.875000 0.500000
vt 0.501754 0.540833
vt 0.565165 0.799791
vt 0.325310 0.750000
vt 0.604031 0.069198
vt 0.375000 1.000000
vt 0.375000 0.799690
vt 0.578028 1.000000
vt 0.615335 0.592735
vt 0.589707 0.775249
vt 0.581909 0.353207
s 0
g Cube_Material
usemtl Material
f 320/511/312 322/512/312 321/513/312
f 322/514/313 325/515/313 321/516/313
f 326/517/314 323/518/314 327/519/314
f 323/518/315 326/517/315 320/520/315
f 328/521/316 319/522/316 324/523/316 325/515/316
f 321/513/317 323/524/317 320/511/317
f 321/525/318 324/526/318 319/522/318 323/527/318
f 325/515/319 324/523/319 321/516/319
f 327/528/320 323/518/320 319/529/320
f 319/522/321 328/521/321 327/528/321
f 328/521/322 325/515/322 322/512/322 326/530/322
f 328/521/323 326/530/323 327/528/323
f 322/512/324 320/511/324 326/530/324
o Cube
v -5.863410 0.394340 -1.405533
v -5.875748 0.426364 -1.358300
v -5.845221 0.406639 -1.362474
v -5.869712 0.397644 -1.343598
v -5.870382 0.426471 -1.392856
v -5.849121 0.380390 -1.379958
v -5.864385 0.373756 -1.357103
v -5.902091 0.406598 -1.365138
v -5.897976 0.392210 -1.392563
v -5.893692 0.375227 -1.373104
vn 0.4169 0.4821 0.7706
vn 0.6476 -0.2604 0.7161
vn -0.7132 0.5710 -0.4066
vn -0.5831 0.8076 -0.0881
vn 0.0466 -0.9197 -0.3899
vn 0.5491 0.8312 0.0878
vn 0.8561 0.2720 -0.4393
vn 0.8108 -0.4032 0.4244
vn -0.3525 0.2763 -0.8941
vn -0.1867 -0.7601 -0.6224
vn -0.5227 -0.4184 0.7427
vn -0.9666 -0.2560 -0.0107
vn -0.4593 0.3264 0.8261
vt 0.550384 0.206938
vt 0.375000 0.305791
vt 0.375000 0.049496
vt 0.180791 0.500000
vt 0.330928 0.574320
vt 0.125000 0.700504
vt 0.804283 0.500000
vt 0.842867 0.681766
vt 0.658516 0.626313
vt 0.875000 0.500000
vt 0.501754 0.540833
vt 0.565165 0.799791
vt 0.325310 0.750000
vt 0.604031 0.069198
vt 0.375000 1.000000
vt 0.375000 0.799690
vt 0.578028 1.000000
vt 0.615335 0.592735
vt 0.589707 0.775249
vt 0.581909 0.353207
s 0
g Cube_Material
usemtl Material
f 330/531/325 332/532/325 331/533/325
f 332/534/326 335/535/326 331/536/326
f 336/537/327 333/538/327 337/539/327
f 333/538/328 336/537/328 330/540/328
f 338/541/329 329/542/329 334/543/329 335/535/329
f 331/533/330 333/544/330 330/531/330
f 331/545/331 334/546/331 329/542/331 333/547/331
f 335/535/332 334/543/332 331/536/332
f 337/548/333 333/538/333 329/549/333
f 329/542/334 338/541/334 337/548/334
f 338/541/335 335/535/335 332/532/335 336/550/335
f 338/541/336 336/550/336 337/548/336
f 332/532/337 330/531/337 336/550/337
o Cube
v 3.673632 0.130335 -4.940284
v 3.645299 0.149427 -5.002666
v 3.655000 0.107456 -4.991239
v 3.676679 0.128633 -5.016150
v 3.640605 0.149052 -4.960326
v 3.685451 0.104267 -4.967546
v 3.700895 0.115226 -4.996314
v 3.678311 0.172635 -4.995546
v 3.691205 0.166706 -4.960232
v 3.710202 0.151823 -4.981084
vn -0.5507 -0.3354 -0.7643
vn 0.0656 -0.7877 -0.6125
vn -0.3177 0.9093 0.2687
vn -0.5662 0.8224 -0.0555
vn 0.8262 -0.2931 0.4811
vn -0.9616 -0.2519 -0.1089
vn -0.5699 -0.6514 0.5009
vn 0.1281 -0.9477 -0.2922
vn -0.1903 0.5412 0.8191
vn 0.7423 0.0088 0.6700
vn 0.6116 0.2506 -0.7504
vn 0.5670 0.8208 -0.0692
vn -0.1048 0.4249 -0.8991
vt 0.550384 0.206938
vt 0.375000 0.305791
vt 0.375000 0.049496
vt 0.180791 0.500000
vt 0.330928 0.574320
vt 0.125000 0.700504
vt 0.804283 0.500000
vt 0.842867 0.681766
vt 0.658516 0.626313
vt 0.875000 0.500000
vt 0.501754 0.540833
vt 0.565165 0.799791
vt 0.325310 0.750000
vt 0.604031 0.069198
vt 0.375000 1.000000
vt 0.375000 0.799690
vt 0.578028 1.000000
vt 0.615335 0.592735
vt 0.589707 0.775249
vt 0.581909 0.353207
s 0
g Cube_Material
usemtl Material
f 340/551/338 342/552/338 341/553/338
f 342/554/339 345/555/339 341/556/339
f 346/557/340 343/558/340 347/559/340
f 343/558/341 346/557/341 340/560/341
f 348/561/342 339/562/342 344/563/342 345/555/342
f 341/553/343 343/564/343 340/551/343
f 341/565/344 344/566/344 339/562/344 343/567/344
f 345/555/345 344/563/345 341/556/345
f 347/568/346 343/558/346 339/569/346
f 339/562/347 348/561/347 347/568/347
f 348/561/348 345/555/348 342/552/348 346/570/348
f 348/561/349 346/570/349 347/568/349
f 342/552/350 340/551/350 346/570/350
o Cube
v -5.523767 0.285944 -1.140395
v -5.532912 0.243192 -1.140311
v -5.551641 0.263004 -1.142992
v -5.548383 0.250467 -1.122652
v -5.519853 0.262606 -1.152069
v -5.546175 0.283083 -1.131448
v -5.549480 0.269979 -1.115152
v -5.518667 0.248460 -1.120218
v -5.510882 0.270491 -1.121369
v -5.525425 0.269399 -1.108266
vn -0.6700 -0.6751 -0.3088
vn -0.9905 -0.0944 0.1005
vn 0.9238 -0.3360 -0.1836
vn 0.6875 -0.6538 -0.3160
vn -0.0188 0.8536 0.5207
vn -0.2597 -0.3664 -0.8935
vn -0.2992 0.4583 -0.8370
vn -0.9664 0.2570 0.0106
vn 0.8847 0.3186 -0.3403
vn 0.3383 0.8294 0.4446
vn -0.1733 -0.4539 0.8740
vn 0.6644 -0.1971 0.7210
vn -0.0894 -0.9461 0.3114
vt 0.550384 0.206938
vt 0.375000 0.305791
vt 0.375000 0.049496
vt 0.180791 0.500000
vt 0.330928 0.574320
vt 0.125000 0.700504
vt 0.804283 0.500000
vt 0.842867 0.681766
vt 0.658516 0.626313
vt 0.875000 0.500000
vt 0.501754 0.540833
vt 0.565165 0.799791
vt 0.325310 0.750000
vt 0.604031 0.069198
vt 0.375000 1.000000
vt 0.375000 0.799690
vt 0.578028 1.000000
vt 0.615335 0.592735
vt 0.589707 0.775249
vt 0.581909 0.353207
s 0
g Cube_Material
usemtl Material
f 350/571/351 352/572/351 351/573/351
f 352/574/352 355/575/352 351/576/352
f 356/577/353 353/578/353 357/579/353
f 353/578/354 356/577/354 350/580/354
f 358/581/355 349/582/355 354/583/355 355/575/355
f 351/573/356 353/584/356 350/571/356
f 351/585/357 354/586/357 349/582/357 353/587/357
f 355/575/358 354/583/358 351/576/358
f 357/588/359 353/578/359 349/589/359
f 349/582/360 358/581/360 357/588/360
f 358/581/361 355/575/361 352/572/361 356/590/361
f 358/581/362 356/590/362 357/588/362
f 352/572/363 350/571/363 356/590/363
o Cube
v -1.951235 0.039511 -4.301543
v -1.986753 0.058375 -4.352366
v -1.993007 0.070722 -4.314186
v -2.013591 0.046613 -4.330709
v -1.951400 0.057330 -4.336365
v -1.984522 0.046683 -4.289800
v -2.009249 0.032810 -4.303257
v -1.984600 0.021098 -4.352410
v -1.962064 0.010355 -4.328337
v -1.989172 0.005809 -4.318895
vn -0.5913 0.7339 -0.3342
vn -0.8170 0.4529 0.3570
vn 0.6406 -0.2684 -0.7195
vn 0.4128 0.0249 -0.9105
vn 0.0433 -0.5826 0.8116
vn 0.1551 0.9471 -0.2809
vn 0.4275 0.7664 0.4794
vn -0.6082 0.4492 0.6544
vn 0.9623 -0.2402 -0.1275
vn 0.3364 -0.7019 0.6278
vn -0.7914 -0.5505 -0.2657
vn 0.0084 -0.9102 -0.4141
vn -0.6183 -0.0348 -0.7851
vt 0.550384 0.206938
vt 0.375000 0.305791
vt 0.375000 0.049496
vt 0.180791 0.500000
vt 0.330928 0.574320
vt 0.125000 0.700504
vt 0.804283 0.500000
vt 0.842867 0.681766
vt 0.658516 0.626313
vt 0.875000 0.500000
vt 0.501754 0.540833
vt 0.565165 0.799791
vt 0.325310 0.750000
vt 0.604031 0.069198
vt 0.375000 1.000000
vt 0.375000 0.799690
vt 0.578028 1.000000
vt 0.615335 0.592735
vt 0.589707 0.775249
vt 0.581909 0.353207
s 0
g Cube_Material
usemtl Material
f 360/591/364 362/592/364 361/593/364
f 362/594/365 365/595/365 361/596/365
f 366/597/366 363/598/366 367/599/366
f 363/598/367 366/597/367 360/600/367
f 368/601/368 359/602/368 364/603/368 365/595/368
f 361/593/369 363/604/369 360/591/369
f 361/605/370 364/606/370 359/602/370 363/607/370
f 365/595/371 364/603/371 361/596/371
f 367/608/372 363/598/372 359/609/372
f 359/602/373 368/601/373 367/608/373
f 368/601/374 365/595/374 362/592/374 366/610/374
f 368/601/375 366/610/375 367/608/375
f 362/592/376 360/591/376 366/610/376
o Cube
v -4.320928 0.647738 -3.261155
v -4.370258 0.621071 -3.268709
v -4.343482 0.608466 -3.249182
v -4.350568 0.597727 -3.277617
v -4.354824 0.648948 -3.257164
v -4.315619 0.616797 -3.259324
v -4.323673 0.600280 -3.279649
v -4.358467 0.629734 -3.297840
v -4.334195 0.647514 -3.294449
v -4.326711 0.624239 -3.301237
vn -0.6151 -0.6746 0.4081
vn 0.1137 -0.9385 0.3261
vn -0.5294 0.7844 -0.3231
vn -0.8281 0.5318 -0.1770
vn 0.9677 0.0410 -0.2488
vn -0.5913 -0.0066 0.8065
vn 0.1998 0.1789 0.9634
vn 0.4061 -0.7813 0.4740
vn 0.0333 0.9992 -0.0200
vn 0.8595 0.3770 -0.3450
vn -0.1034 -0.6082 -0.7870
vn -0.0576 0.2624 -0.9632
vn -0.7604 -0.4705 -0.4477
vt 0.550384 0.206938
vt 0.375000 0.305791
vt 0.375000 0.049496
vt 0.180791 0.500000
vt 0.330928 0.574320
vt 0.125000 0.700504
vt 0.804283 0.500000
vt 0.842867 0.681766
vt 0.658516 0.626313
vt 0.875000 0.500000
vt 0.501754 0.540833
vt 0.565165 0.799791
vt 0.325310 0.750000
vt 0.604031 0.069198
vt 0.375000 1.000000
vt 0.375000 0.799690
vt 0.578028 1.000000
vt 0.615335 0.592735
vt 0.589707 0.775249
vt 0.581909 0.353207
s 0
g Cube_Material
usemtl Material
f 370/611/377 372/612/377 371/613/377
f 372/614/378 375/615/378 371/616/378
f 376/617/379 373/618/379 377/619/379
f 373/618/380 376/617/380 370/620/380
f 378/621/381 369/622/381 374/623/381 375/615/381
f 371/613/382 373/624/382 370/611/382
f 371/625/383 374/626/383 369/622/383 373/627/383
f 375/615/384 374/623/384 371/616/384
f 377/628/385 373/618/385 369/629/385
f 369/622/386 378/621/386 377/628/386
f 378/621/387 375/615/387 372/612/387 376/630/387
f 378/621/388 376/630/388 377/628/388
f 372/612/389 370/611/389 376/630/389
o Cube
v 5.386908 0.484156 -0.209482
v 5.400296 0.507920 -0.273881
v 5.430889 0.493712 -0.245904
v 5.424798 0.531021 -0.253584
v 5.380270 0.479209 -0.250873
v 5.422433 0.499925 -0.209311
v 5.426926 0.531686 -0.220173
v 5.377156 0.534772 -0.254724
v 5.365372 0.520757 -0.222086
v 5.388263 0.541541 -0.216840
vn 0.6625 -0.0457 -0.7477
vn 0.9869 0.1476 -0.0658
vn -0.9267 -0.0774 -0.3678
vn -0.6941 -0.0884 -0.7145
vn 0.0259 0.1985 0.9798
vn 0.2672 -0.7092 -0.6524
vn 0.3207 -0.9366 0.1415
vn 0.9706 -0.0573 0.2340
vn -0.8732 -0.4472 0.1935
vn -0.3303 0.1277 0.9352
vn 0.1512 0.9799 -0.1302
vn -0.6792 0.7308 0.0686
vn 0.0674 0.6173 -0.7839
vt 0.550384 0.206938
vt 0.375000 0.305791
vt 0.375000 0.049496
vt 0.180791 0.500000
vt 0.330928 0.574320
vt 0.125000 0.700504
vt 0.804283 0.500000
vt 0.842867 0.681766
vt 0.658516 0.626313
vt 0.875000 0.500000
vt 0.501754 0.540833
vt 0.565165 0.799791
vt 0.325310 0.750000
vt 0.604031 0.069198
vt 0.375000 1.000000
vt 0.375000 0.799690
vt 0.578028 1.000000
vt 0.615335 0.592735
vt 0.589707 0.775249
vt 0.581909 0.353207
s 0
g Cube_Material
usemtl Material
f 380/631/390 382/632/390 381/633/390
f 382/634/391 385/635/391 381/636/391
f 386/637/392 383/638/392 387/639/392
f 383/638/393 386/637/393 380/640/393
f 388/641/394 379/642/394 384/643/394 385/635/394
f 381/633/395 383/644/395 380/631/395
f 381/645/396 384/646/396 379/642/396 383/647/396
f 385/635/397 384/643/397 381/636/397
f 387/648/398 383/638/398 379/649/398
f 379/642/399 388/641/399 387/648/399
f 388/641/400 385/635/400 382/632/400 386/650/400
f 388/641/401 386/650/401 387/648/401
f 382/632/402 380/631/402 386/650/402
o Cube
v -0.209917 -0.101707 4.352747
v -0.238077 -0.145953 4.410160
v -0.257053 -0.143706 4.365336
v -0.274665 -0.124561 4.399438
v -0.201419 -0.136565 4.383003
v -0.252479 -0.106018 4.346622
v -0.276480 -0.097191 4.374262
v -0.233021 -0.104122 4.425382
v -0.212913 -0.080917 4.397299
v -0.246832 -0.072843 4.396844
vn -0.5359 -0.8236 0.1856
vn -0.9027 -0.3223 -0.2853
vn 0.8070 0.0150 0.5903
vn 0.6148 -0.3343 0.7143
vn -0.1173 0.8347 -0.5381
vn 0.1633 -0.9795 -0.1182
vn 0.2575 -0.5310 -0.8073
vn -0.7705 -0.2060 -0.6032
vn 0.9771 0.2101 -0.0324
vn 0.2172 0.8901 -0.4007
vn -0.6733 0.3937 0.6258
vn 0.1580 0.7027 0.6937
vn -0.4116 -0.2673 0.8713
vt 0.550384 0.206938
vt 0.375000 0.305791
vt 0.375000 0.049496
vt 0.180791 0.500000
vt 0.330928 0.574320
vt 0.125000 0.700504
vt 0.804283 0.500000
vt 0.842867 0.681766
vt 0.658516 0.626313
vt 0.875000 0.500000
vt 0.501754 0.540833
vt 0.565165 0.799791
vt 0.325310 0.750000
vt 0.604031 0.069198
vt 0.375000 1.000000
vt 0.375000 0.799690
vt 0.578028 1.000000
vt 0.615335 0.592735
vt 0.589707 0.775249
vt 0.581909 0.353207
s 0
g Cube_Material
usemtl Material
f 390/651/403 392/652/403 391/653/403
f 392/654/404 395/655/404 391/656/404
f 396/657/405 393/658/405 397/659/405
f 393/658/406 396/657/406 390/660/406
f 398/661/407 389/662/407 394/663/407 395/655/407
f 391/653/408 393/664/408 390/651/408
f 391/665/409 394/666/409 389/662/409 393/667/409
f 395/655/410 394/663/410 391/656/410
f 397/668/411 393/658/411 389/669/411
f 389/662/412 398/661/412 397/668/412
f 398/661/413 395/655/413 392/652/413 396/670/413
f 398/661/414 396/670/414 397/668/414
f 392/652/415 390/651/415 396/670/415
o Cube
v -3.846031 0.224079 -1.601953
v -3.820624 0.233670 -1.556852
v -3.841879 0.254527 -1.571047
v -3.813073 0.258129 -1.571712
v -3.840757 0.214742 -1.572043
v -3.842304 0.253008 -1.599660
v -3.819001 0.262600 -1.595799
v -3.800434 0.224982 -1.577753
v -3.813665 0.216109 -1.600987
v -3.804724 0.237626 -1.604788
vn -0.0466 0.5291 0.8473
vn -0.1166 0.9710 0.2089
vn 0.2682 -0.9409 0.2066
vn 0.2765 -0.7630 0.5843
vn -0.0541 0.1944 -0.9794
vn -0.5797 -0.0367 0.8140
vn -0.9943 0.0328 0.1012
vn -0.3741 0.9264 -0.0436
vn -0.2241 -0.9408 -0.2542
vn -0.0122 -0.1690 -0.9855
vn 0.9031 0.4279 -0.0373
vn 0.8507 -0.4113 -0.3273
vn 0.7427 0.1649 0.6489
vt 0.550384 0.206938
vt 0.375000 0.305791
vt 0.375000 0.049496
vt 0.180791 0.500000
vt 0.330928 0.574320
vt 0.125000 0.700504
vt 0.804283 0.500000
vt 0.842867 0.681766
vt 0.658516 0.626313
vt 0.875000 0.500000
vt 0.501754 0.540833
vt 0.565165 0.799791
vt 0.325310 0.750000
vt 0.604031 0.069198
vt 0.375000 1.000000
vt 0.375000 0.799690
vt 0.578028 1.000000
vt 0.615335 0.592735
vt 0.589707 0.775249
vt 0.581909 0.353207
s 0
g Cube_Material
usemtl Material
f 400/671/416 402/672/416 401/673/416
f 402/674/417 405/675/417 401/676/417
f 406/677/418 403/678/418 407/679/418
f 403/678/419 406/677/419 400/680/419
f 408/681/420 399/682/420 404/683/420 405/675/420
f 401/673/421 403/684/421 400/671/421
f 401/685/422 404/686/422 399/682/422 403/687/422
f 405/675/423 404/683/423 401/676/423
f 407/688/424 403/678/424 399/689/424
f 399/682/425 408/681/425 407/688/425
f 408/681/426 405/675/426 402/672/426 406/690/426
f 408/681/427 406/690/427 407/688/427
f 402/672/428 400/671/428 406/690/428
o Cube
v -0.551547 0.146969 4.469982
v -0.566132 0.127618 4.414501
v -0.588328 0.149589 4.436036
v -0.593770 0.116987 4.431284
v -0.542662 0.146660 4.434540
v -0.585048 0.144273 4.468392
v -0.597349 0.119027 4.459977
v -0.555993 0.100255 4.433608
v -0.543960 0.110241 4.461980
v -0.568871 0.100149 4.465802
vn -0.5653 0.2106 -0.7975
vn -0.9740 0.1822 -0.1345
vn 0.9188 -0.2579 -0.2989
vn 0.7234 -0.1945 -0.6624
vn -0.1467 -0.1115 0.9829
vn 0.0226 0.7114 -0.7025
vn 0.0029 0.9973 0.0739
vn -0.9074 0.3901 0.1561
vn 0.9599 0.1462 0.2394
vn 0.2146 -0.1654 0.9626
vn -0.4619 -0.8816 -0.0969
vn 0.3912 -0.9074 0.1535
vn -0.2246 -0.6125 -0.7579
vt 0.550384 0.206938
vt 0.375000 0.305791
vt 0.375000 0.049496
vt 0.180791 0.500000
vt 0.330928 0.574320
vt 0.125000 0.700504
vt 0.804283 0.500000
vt 0.842867 0.681766
vt 0.658516 0.626313
vt 0.875000 0.500000
vt 0.501754 0.540833
vt 0.565165 0.799791
vt 0.325310 0.750000
vt 0.604031 0.069198
vt 0.375000 1.000000
vt 0.375000 0.799690
vt 0.578028 1.000000
vt 0.615335 0.592735
vt 0.589707 0.775249
vt 0.581909 0.353207
s 0
g Cube_Material
usemtl Material
f 410/691/429 412/692/429 411/693/429
f 412/694/430 415/695/430 411/696/430
f 416/697/431 413/698/431 417/699/431
f 413/698/432 416/697/432 410/700/432
f 418/701/433 409/702/433 414/703/433 415/695/433
f 411/693/434 413/704/434 410/691/434
f 411/705/435 414/706/435 409/702/435 413/707/435
f 415/695/436 414/703/436 411/696/436
f 417/708/437 413/698/437 409/709/437
f 409/702/438 418/701/438 417/708/438
f 418/701/439 415/695/439 412/692/439 416/710/439
f 418/701/440 416/710/440 417/708/440
f 412/692/441 410/691/441 416/710/441
o Cube
v -3.693619 0.372810 0.907737
v -3.728283 0.404048 0.868887
v -3.706622 0.419890 0.895857
v -3.739922 0.417174 0.898171
v -3.700634 0.380724 0.872650
v -3.703273 0.401320 0.922991
v -3.731814 0.408202 0.924608
v -3.747751 0.379060 0.883731
v -3.729022 0.359207 0.901360
v -3.742710 0.375863 0.917991
vn -0.1034 0.8917 -0.4408
vn -0.0534 0.9405 0.3356
vn -0.1332 -0.7254 -0.6753
vn -0.1989 -0.3814 -0.9028
vn 0.0998 -0.3384 0.9357
vn 0.5126 0.4944 -0.7021
vn 0.9659 0.2534 -0.0530
vn 0.2270 0.8165 0.5308
vn 0.3876 -0.8796 -0.2759
vn 0.1158 -0.6525 0.7489
vn -0.9531 0.1808 0.2427
vn -0.7476 -0.6624 0.0482
vn -0.8080 0.3465 -0.4765
vt 0.550384 0.206938
vt 0.375000 0.305791
vt 0.375000 0.049496
vt 0.180791 0.500000
vt 0.330928 0.574320
vt 0.125000 0.700504
vt 0.804283 0.500000
vt 0.842867 0.681766
vt 0.658516 0.626313
vt 0.875000 0.500000
vt 0.501754 0.540833
vt 0.565165 0.799791
vt 0.325310 0.750000
vt 0.604031 0.069198
vt 0.375000 1.000000
vt 0.375000 0.799690
vt 0.578028 1.000000
vt 0.615335 0.592735
vt 0.589707 0.775249
vt 0.581909 0.353207
s 0
g Cube_Material
usemtl Material
f 420/711/442 422/712/442 421/713/442
f 422/714/443 425/715/443 421/716/443
f 426/717/444 423/718/444 427/719/444
f 423/718/445 426/717/445 420/720/445
f 428/721/446 419/722/446 424/723/446 425/715/446
f 421/713/447 423/724/447 420/711/447
f 421/725/448 424/726/448 419/722/448 423/727/448
f 425/715/449 424/723/449 421/716/449
f 427/728/450 423/718/450 419/729/450
f 419/722/451 428/721/451 427/728/451
f 428/721/452 425/715/452 422/712/452 426/730/452
f 428/721/453 426/730/453 427/728/453
f 422/712/454 420/711/454 426/730/454
o Cube
v -0.597799 0.257817 4.119517
v -0.572044 0.245722 4.160530
v -0.595491 0.266413 4.159871
v -0.568961 0.273599 4.161472
v -0.589662 0.235863 4.138477
v -0.597669 0.279858 4.136361
v -0.576719 0.288653 4.144608
v -0.553487 0.252456 4.139617
v -0.566410 0.255581 4.116451
v -0.560906 0.275664 4.124662
vn -0.0527 -0.0279 0.9982
vn -0.2249 0.6732 0.7044
vn 0.4011 -0.8512 -0.3386
vn 0.4138 -0.9073 0.0750
vn -0.1494 0.6835 -0.7145
vn -0.5097 -0.5566 0.6560
vn -0.9803 -0.1739 0.0931
vn -0.4921 0.7352 0.4661
vn -0.1192 -0.6739 -0.7291
vn -0.0617 0.3922 -0.9178
vn 0.8356 0.5071 0.2113
vn 0.8705 -0.0379 -0.4907
vn 0.7604 -0.1058 0.6407
vt 0.550384 0.206938
vt 0.375000 0.305791
vt 0.375000 0.049496
vt 0.180791 0.500000
vt 0.330928 0.574320
vt 0.125000 0.700504
vt 0.804283 0.500000
vt 0.842867 0.681766
vt 0.658516 0.626313
vt 0.875000 0.500000
vt 0.501754 0.540833
vt 0.565165 0.799791
vt 0.325310 0.750000
vt 0.604031 0.069198
vt 0.375000 1.000000
vt 0.375000 0.799690
vt 0.578028 1.000000
vt 0.615335 0.592735
vt 0.589707 0.775249
vt 0.581909 0.353207
s 0
g Cube_Material
usemtl Material
f 430/731/455 432/732/455 431/733/455
f 432/734/456 435/735/456 431/736/456
f 436/737/457 433/738/457 437/739/457
f 433/738/458 436/737/458 430/740/458
f 438/741/459 429/742/459 434/743/459 435/735/459
f 431/733/460 433/744/460 430/731/460
f 431/745/461 434/746/461 429/742/461 433/747/461
f 435/735/462 434/743/462 431/736/462
f 437/748/463 433/738/463 429/749/463
f 429/742/464 438/741/464 437/748/464
f 438/741/465 435/735/465 432/732/465 436/750/465
f 438/741/466 436/750/466 437/748/466
f 432/732/467 430/731/467 436/750/467
o Cube
v 0.227331 0.434988 -3.278313
v 0.244301 0.457300 -3.240742
v 0.216516 0.459293 -3.250058
v 0.234076 0.477950 -3.253530
v 0.239496 0.432449 -3.252896
v 0.213895 0.457109 -3.275345
v 0.224842 0.476947 -3.273962
v 0.260627 0.462003 -3.261735
v 0.253994 0.447716 -3.281257
v 0.247598 0.467465 -3.284564
vn -0.2633 0.4103 0.8731
vn -0.6751 0.6859 0.2715
vn 0.8243 -0.5523 0.1241
vn 0.7657 -0.3960 0.5068
vn -0.2863 0.0820 -0.9546
vn -0.3194 -0.3658 0.8742
vn -0.7700 -0.5988 0.2204
vn -0.8759 0.4799 0.0494
vn 0.3895 -0.8793 -0.2742
vn -0.0260 -0.1733 -0.9845
vn 0.4177 0.9003 -0.1222
vn 0.8702 0.2069 -0.4471
vn 0.5463 0.6195 0.5637
vt 0.550384 0.206938
vt 0.375000 0.305791
vt 0.375000 0.049496
vt 0.180791 0.500000
vt 0.330928 0.574320
vt 0.125000 0.700504
vt 0.804283 0.500000
vt 0.842867 0.681766
vt 0.658516 0.626313
vt 0.875000 0.500000
vt 0.501754 0.540833
vt 0.565165 0.799791
vt 0.325310 0.750000
vt 0.604031 0.069198
vt 0.375000 1.000000
vt 0.375000 0.799690
vt 0.578028 1.000000
vt 0.615335 0.592735
vt 0.589707 0.775249
vt 0.581909 0.353207
s 0
g Cube_Material
usemtl Material
f 440/751/468 442/752/468 441/753/468
f 442/754/469 445/755/469 441/756/469
f 446/757/470 443/758/470 447/759/470
f 443/758/471 446/757/471 440/760/471
f 448/761/472 439/762/472 444/763/472 445/755/472
f 441/753/473 443/764/473 440/751/473
f 441/765/474 444/766/474 439/762/474 443/767/474
f 445/755/475 444/763/475 441/756/475
f 447/768/476 443/758/476 439/769/476
f 439/762/477 448/761/477 447/768/477
f 448/761/478 445/755/478 442/752/478 446/770/478
f 448/761/479 446/770/479 447/768/479
f 442/752/480 440/751/480 446/770/480
o Cube
v -2.655880 0.453696 2.107619
v -2.682276 0.412877 2.094706
v -2.660342 0.426360 2.076529
v -2.687599 0.428936 2.072049
v -2.663011 0.424990 2.114447
v -2.658358 0.453471 2.079778
v -2.680381 0.451770 2.069517
v -2.700673 0.433455 2.103522
v -2.687103 0.454239 2.113925
v -2.694507 0.459682 2.093328
vn 0.0186 -0.8136 -0.5811
vn 0.1460 -0.1545 -0.9771
vn -0.3209 -0.2480 0.9141
vn -0.3441 -0.6125 0.7116
vn 0.1213 0.9844 -0.1277
vn 0.5276 -0.8495 0.0064
vn 0.9869 -0.1612 0.0001
vn 0.4161 0.0781 -0.9060
vn 0.1977 0.1801 0.9636
vn 0.0640 0.9703 0.2334
vn -0.8797 0.1207 -0.4600
vn -0.8466 0.3536 0.3978
vn -0.7725 -0.5894 -0.2363
vt 0.550384 0.206938
vt 0.375000 0.305791
vt 0.375000 0.049496
vt 0.180791 0.500000
vt 0.330928 0.574320
vt 0.125000 0.700504
vt 0.804283 0.500000
vt 0.842867 0.681766
vt 0.658516 0.626313
vt 0.875000 0.500000
vt 0.501754 0.540833
vt 0.565165 0.799791
vt 0.325310 0.750000
vt 0.604031 0.069198
vt 0.375000 1.000000
vt 0.375000 0.799690
vt 0.578028 1.000000
vt 0.615335 0.592735
vt 0.589707 0.775249
vt 0.581909 0.353207
s 0
g Cube_Material
usemtl Material
f 450/771/481 452/772/481 451/773/481
f 452/774/482 455/775/482 451/776/482
f 456/777/483 453/778/483 457/779/483
f 453/778/484 456/777/484 450/780/484
f 458/781/485 449/782/485 454/783/485 455/775/485
f 451/773/486 453/784/486 450/771/486
f 451/785/487 454/786/487 449/782/487 453/787/487
f 455/775/488 454/783/488 451/776/488
f 457/788/489 453/778/489 449/789/489
f 449/782/490 458/781/490 457/788/490
f 458/781/491 455/775/491 452/772/491 456/790/491
f 458/781/492 456/790/492 457/788/492
f 452/772/493 450/771/493 456/790/493
o Cube
v 1.860569 0.619246 2.463057
v 1.795999 0.644550 2.426209
v 1.799563 0.638351 2.474896
v 1.778335 0.611014 2.448851
v 1.841458 0.652550 2.435268
v 1.825920 0.606750 2.486471
v 1.797975 0.586907 2.469993
v 1.810380 0.606708 2.406003
v 1.847858 0.595409 2.421288
v 1.822944 0.574466 2.434736
vn -0.8389 0.5288 0.1287
vn -0.7540 -0.0392 0.6557
vn 0.4308 0.2597 -0.8643
vn 0.0854 0.4944 -0.8651
vn 0.4481 -0.7698 0.4546
vn -0.1983 0.9704 0.1381
vn 0.3358 0.6492 0.6825
vn -0.4697 -0.0694 0.8801
vn 0.9016 0.1954 -0.3859
vn 0.6897 -0.6990 0.1891
vn -0.6582 -0.6736 -0.3361
vn 0.1205 -0.6339 -0.7640
vn -0.7999 0.0163 -0.5999
vt 0.550384 0.206938
vt 0.375000 0.305791
vt 0.375000 0.049496
vt 0.180791 0.500000
vt 0.330928 0.574320
vt 0.125000 0.700504
vt 0.804283 0.500000
vt 0.842867 0.681766
vt 0.658516 0.626313
vt 0.875000 0.500000
vt 0.501754 0.540833
vt 0.565165 0.799791
vt 0.325310 0.750000
vt 0.604031 0.069198
vt 0.375000 1.000000
vt 0.375000 0.799690
vt 0.578028 1.000000
vt 0.615335 0.592735
vt 0.589707 0.775249
vt 0.581909 0.353207
s 0
g Cube_Material
usemtl Material
f 460/791/494 462/792/494 461/793/494
f 462/794/495 465/795/495 461/796/495
f 466/797/496 463/798/496 467/799/496
f 463/798/497 466/797/497 460/800/497
f 468/801/498 459/802/498 464/803/498 465/795/498
f 461/793/499 463/804/499 460/791/499
f 461/805/500 464/806/500 459/802/500 463/807/500
f 465/795/501 464/803/501 461/796/501
f 467/808/502 463/798/502 459/809/502
f 459/802/503 468/801/503 467/808/503
f 468/801/504 465/795/504 462/792/504 466/810/504
f 468/801/505 466/810/505 467/808/505
f 462/792/506 460/791/506 466/810/506
o Cube
v 0.578155 -0.040546 -2.831202
v 0.573620 -0.035893 -2.784719
v 0.592600 -0.020581 -2.801160
v 0.599611 -0.040291 -2.785910
v 0.560886 -0.034032 -2.809713
v 0.601278 -0.033312 -2.821538
v 0.610826 -0.045275 -2.804736
v 0.576574 -0.062125 -2.790577
v 0.575708 -0.065628 -2.815431
v 0.595651 -0.067062 -2.808860
vn 0.1425 0.6369 0.7577
vn 0.7826 0.5305 0.3258
vn -0.8949 -0.4366 0.0927
vn -0.8796 -0.1959 0.4336
vn 0.5511 -0.3724 -0.7468
vn -0.4386 0.8517 0.2869
vn -0.1593 0.8558 -0.4921
vn 0.8020 0.5965 -0.0311
vn -0.7888 -0.2701 -0.5521
vn 0.2297 -0.5340 -0.8137
vn 0.5390 -0.5928 0.5984
vn -0.1177 -0.9828 0.1426
vn 0.0080 -0.2171 0.9761
vt 0.550384 0.206938
vt 0.375000 0.305791
vt 0.375000 0.049496
vt 0.180791 0.500000
vt 0.330928 0.574320
vt 0.125000 0.700504
vt 0.804283 0.500000
vt 0.842867 0.681766
vt 0.658516 0.626313
vt 0.875000 0.500000
vt 0.501754 0.540833
vt 0.565165 0.799791
vt 0.325310 0.750000
vt 0.604031 0.069198
vt 0.375000 1.000000
vt 0.375000 0.799690
vt 0.578028 1.000000
vt 0.615335 0.592735
vt 0.589707 0.775249
vt 0.581909 0.353207
s 0
g Cube_Material
usemtl Material
f 470/811/507 472/812/507 471/813/507
f 472/814/508 475/815/508 471/816/508
f 476/817/509 473/818/509 477/819/509
f 473/818/510 476/817/510 470/820/510
f 478/821/511 469/822/511 474/823/511 475/815/511
f 471/813/512 473/824/512 470/811/512
f 471/825/513 474/826/513 469/822/513 473/827/513
f 475/815/514 474/823/514 471/816/514
f 477/828/515 473/818/515 469/829/515
f 469/822/516 478/821/516 477/828/516
f 478/821/517 475/815/517 472/812/517 476/830/517
f 478/821/518 476/830/518 477/828/518
f 472/812/519 470/811/519 476/830/519
o Cube
v -1.428272 0.164969 -2.161449
v -1.490841 0.199661 -2.202628
v -1.446818 0.223969 -2.190519
v -1.486175 0.231025 -2.168741
v -1.457139 0.163488 -2.202028
v -1.428183 0.209889 -2.152135
v -1.461274 0.227501 -2.138252
v -1.507933 0.179261 -2.163214
v -1.476426 0.155435 -2.143445
v -1.481522 0.186986 -2.124770
vn -0.2259 0.7302 -0.6448
vn 0.1652 0.9860 -0.0209
vn -0.4675 -0.8419 -0.2696
vn -0.6030 -0.5710 -0.5571
vn 0.4794 -0.0715 0.8747
vn 0.1823 0.1537 -0.9712
vn 0.8580 0.0167 -0.5135
vn 0.4937 0.8661 0.0780
vn 0.1643 -0.9831 -0.0810
vn 0.3896 -0.4217 0.8188
vn -0.7328 0.4404 0.5186
vn -0.6929 -0.4469 0.5658
vn -0.9094 0.3600 -0.2080
vt 0.550384 0.206938
vt 0.375000 0.305791
vt 0.375000 0.049496
vt 0.180791 0.500000
vt 0.330928 0.574320
vt 0.125000 0.700504
vt 0.804283 0.500000
vt 0.842867 0.681766
vt 0.658516 0.626313
vt 0.875000 0.500000
vt 0.501754 0.540833
vt 0.565165 0.799791
vt 0.325310 0.750000
vt 0.604031 0.069198
vt 0.375000 1.000000
vt 0.375000 0.799690
vt 0.578028 1.000000
vt 0.615335 0.592735
vt 0.589707 0.775249
vt 0.581909 0.353207
s 0
g Cube_Material
usemtl Material
f 480/831/520 482/832/520 481/833/520
f 482/834/521 485/835/521 481/836/521
f 486/837/522 483/838/522 487/839/522
f 483/838/523 486/837/523 480/840/523
f 488/841/524 479/842/524 484/843/524 485/835/524
f 481/833/525 483/844/525 480/831/525
f 481/845/526 484/846/526 479/842/526 483/847/526
f 485/835/527 484/843/527 481/836/527
f 487/848/528 483/838/528 479/849/528
f 479/842/529 488/841/529 487/848/529
f 488/841/530 485/835/530 482/832/530 486/850/530
f 488/841/531 486/850/531 487/848/531
f 482/832/532 480/831/532 486/850/532
o Cube
v 1.251380 0.048265 -1.910521
v 1.300002 0.042795 -1.930380
v 1.274624 0.022732 -1.937331
v 1.296377 0.015460 -1.919379
v 1.274638 0.061516 -1.927819
v 1.255875 0.019741 -1.915752
v 1.276337 0.007994 -1.905892
v 1.302038 0.045472 -1.900144
v 1.276860 0.052171 -1.889207
v 1.281405 0.029305 -1.885059
vn 0.5106 -0.3784 -0.7720
vn 0.0497 -0.9033 -0.4261
vn 0.3334 0.9205 0.2036
vn 0.5830 0.8049 -0.1105
vn -0.6689 -0.3385 0.6618
vn 0.0775 0.2375 -0.9683
vn -0.6975 0.1087 -0.7083
vn -0.3101 -0.8672 -0.3896
vn -0.3399 0.9094 0.2397
vn -0.6426 0.0113 0.7661
vn 0.6710 -0.5383 0.5099
vn 0.4403 0.2443 0.8640
vn 0.9869 -0.1522 -0.0530
vt 0.550384 0.206938
vt 0.375000 0.305791
vt 0.375000 0.049496
vt 0.180791 0.500000
vt 0.330928 0.574320
vt 0.125000 0.700504
vt 0.804283 0.500000
vt 0.842867 0.681766
vt 0.658516 0.626313
vt 0.875000 0.500000
vt 0.501754 0.540833
vt 0.565165 0.799791
vt 0.325310 0.750000
vt 0.604031 0.069198
vt 0.375000 1.000000
vt 0.375000 0.799690
vt 0.578028 1.000000
vt 0.615335 0.592735
vt 0.589707 0.775249
vt 0.581909 0.353207
s 0
g Cube_Material
usemtl Material
f 490/851/533 492/852/533 491/853/533
f 492/854/534 495/855/534 491/856/534
f 496/857/535 493/858/535 497/859/535
f 493/858/536 496/857/536 490/860/536
f 498/861/537 489/862/537 494/863/537 495/855/537
f 491/853/538 493/864/538 490/851/538
f 491/865/539 494/866/539 489/862/539 493/867/539
f 495/855/540 494/863/540 491/856/540
f 497/868/541 493/858/541 489/869/541
f 489/862/542 498/861/542 497/868/542
f 498/861/543 495/855/543 492/852/543 496/870/543
f 498/861/544 496/870/544 497/868/544
f 492/852/545 490/851/545 496/870/545
o Cube
v -0.559124 0.230129 1.821756
v -0.511081 0.214646 1.820636
v -0.520041 0.244890 1.823071
v -0.510105 0.233676 1.799597
v -0.537596 0.213190 1.835105
v -0.543698 0.250572 1.810292
v -0.529273 0.245743 1.791152
v -0.525271 0.202708 1.798226
v -0.551756 0.207653 1.800233
v -0.542775 0.221099 1.784385
vn 0.9284 0.2532 0.2721
vn 0.5718 0.8077 -0.1438
vn -0.1630 -0.9620 0.2190
vn 0.2342 -0.9118 0.3374
vn -0.7467 0.4258 -0.5110
vn 0.4749 0.0701 0.8773
vn -0.2219 0.5138 0.8287
vn 0.2582 0.9649 -0.0489
vn -0.7060 -0.5967 0.3814
vn -0.9012 0.1069 -0.4201
vn 0.4523 -0.1036 -0.8858
vn -0.1826 -0.6962 -0.6942
vn 0.8547 -0.4042 -0.3259
vt 0.550384 0.206938
vt 0.375000 0.305791
vt 0.375000 0.049496
vt 0.180791 0.500000
vt 0.330928 0.574320
vt 0.125000 0.700504
vt 0.804283 0.500000
vt 0.842867 0.681766
vt 0.658516 0.626313
vt 0.875000 0.500000
vt 0.501754 0.540833
vt 0.565165 0.799791
vt 0.325310 0.750000
vt 0.604031 0.069198
vt 0.375000 1.000000
vt 0.375000 0.799690
vt 0.578028 1.000000
vt 0.615335 0.592735
vt 0.589707 0.775249
vt 0.581909 0.353207
s 0
g Cube_Material
usemtl Material
f 500/871/546 502/872/546 501/873/546
f 502/874/547 505/875/547 501/876/547
f 506/877/548 503/878/548 507/879/548
f 503/878/549 506/877/549 500/880/549
f 508/881/550 499/882/550 504/883/550 505/875/550
f 501/873/551 503/884/551 500/871/551
f 501/885/552 504/886/552 499/882/552 503/887/552
f 505/875/553 504/883/553 501/876/553
f 507/888/554 503/878/554 499/889/554
f 499/882/555 508/881/555 507/888/555
f 508/881/556 505/875/556 502/872/556 506/890/556
f 508/881/557 506/890/557 507/888/557
f 502/872/558 500/871/558 506/890/558
o Cube
v 0.137616 0.138715 1.954639
v 0.078877 0.194049 1.972823
v 0.097448 0.185694 1.925157
v 0.108540 0.222016 1.950445
v 0.091976 0.146268 1.973417
v 0.140684 0.173150 1.924337
v 0.144182 0.210922 1.937209
v 0.115756 0.200626 2.002284
v 0.145242 0.167970 1.997433
v 0.157942 0.198606 1.980817
vn -0.7701 0.5058 -0.3887
vn -0.1128 0.5907 -0.7990
vn -0.2556 -0.3639 0.8957
vn -0.5997 -0.1546 0.7852
vn 0.9627 -0.1430 -0.2297
vn -0.9153 -0.2548 -0.3119
vn -0.3012 -0.6782 -0.6703
vn 0.0736 0.3156 -0.9460
vn 0.0895 -0.8296 0.5512
vn 0.9346 -0.3485 0.0717
vn 0.2743 0.9241 0.2660
vn 0.4463 0.2766 0.8511
vn -0.4563 0.7984 0.3929
vt 0.550384 0.206938
vt 0.375000 0.305791
vt 0.375000 0.049496
vt 0.180791 0.500000
vt 0.330928 0.574320
vt 0.125000 0.700504
vt 0.804283 0.500000
vt 0.842867 0.681766
vt 0.658516 0.626313
vt 0.875000 0.500000
vt 0.501754 0.540833
vt 0.565165 0.799791
vt 0.325310 0.750000
vt 0.604031 0.069198
vt 0.375000 1.000000
vt 0.375000 0.799690
vt 0.578028 1.000000
vt 0.615335 0.592735
vt 0.589707 0.775249
vt 0.581909 0.353207
s 0
g Cube_Material
usemtl Material
f 510/891/559 512/892/559 511/893/559
f 512/894/560 515/895/560 511/896/560
f 516/897/561 513/898/561 517/899/561
f 513/898/562 516/897/562 510/900/562
f 518/901/563 509/902/563 514/903/563 515/895/563
f 511/893/564 513/904/564 510/891/564
f 511/905/565 514/906/565 509/902/565 513/907/565
f 515/895/566 514/903/566 511/896/566
f 517/908/567 513/898/567 509/909/567
f 509/902/568 518/901/568 517/908/568
f 518/901/569 515/895/569 512/892/569 516/910/569
f 518/901/570 516/910/570 517/908/570
f 512/892/571 510/891/571 516/910/571
o Cube
v -1.960154 0.068085 0.113247
v -1.959572 0.001040 0.119162
v -1.967957 0.027654 0.150789
v -1.935679 0.009664 0.147210
v -1.976169 0.032878 0.100827
v -1.950318 0.059671 0.148343
v -1.925358 0.039455 0.153882
v -1.926586 0.012336 0.102191
v -1.928033 0.047444 0.094279
v -1.910535 0.043345 0.118528
vn -0.3625 -0.7582 0.5419
vn -0.0114 -0.2148 0.9766
vn -0.0652 -0.2219 -0.9729
vn -0.2138 -0.5688 -0.7942
vn 0.4878 0.8534 0.1836
vn -0.9054 -0.4110 0.1058
vn -0.8799 0.4032 0.2514
vn -0.1090 0.1353 0.9848
vn -0.2459 0.4201 -0.8735
vn 0.4542 0.8725 -0.1803
vn 0.8621 -0.4569 0.2192
vn 0.7986 -0.1008 -0.5933
vn 0.3287 -0.9444 0.0103
vt 0.550384 0.206938
vt 0.375000 0.305791
vt 0.375000 0.049496
vt 0.180791 0.500000
vt 0.330928 0.574320
vt 0.125000 0.700504
vt 0.804283 0.500000
vt 0.842867 0.681766
vt 0.658516 0.626313
vt 0.875000 0.500000
vt 0.501754 0.540833
vt 0.565165 0.799791
vt 0.325310 0.750000
vt 0.604031 0.069198
vt 0.375000 1.000000
vt 0.375000 0.799690
vt 0.578028 1.000000
vt 0.615335 0.592735
vt 0.589707 0.775249
vt 0.581909 0.353207
s 0
g Cube_Material
usemtl Material
f 520/911/572 522/912/572 521/913/572
f 522/914/573 525/915/573 521/916/573
f 526/917/574 523/918/574 527/919/574
f 523/918/575 526/917/575 520/920/575
f 528/921/576 519/922/576 524/923/576 525/915/576
f 521/913/577 523/924/577 520/911/577
f 521/925/578 524/926/578 519/922/578 523/927/578
f 525/915/579 524/923/579 521/916/579
f 527/928/580 523/918/580 519/929/580
f 519/922/581 528/921/581 527/928/581
f 528/921/582 525/915/582 522/912/582 526/930/582
f 528/921/583 526/930/583 527/928/583
f 522/912/584 520/911/584 526/930/584
