# Blender 4.1.0
# www.blender.org
mtllib Explosion20027.mtl
o Circle
v -0.024615 0.096888 -1.522372
v -0.024615 0.242742 -1.522372
v 0.122545 0.096888 -1.515142
v 0.122545 0.242742 -1.515142
v 0.268288 0.096888 -1.493523
v 0.268288 0.242742 -1.493523
v 0.411211 0.096888 -1.457723
v 0.411211 0.242742 -1.457723
v 0.549936 0.096888 -1.408086
v 0.549936 0.242742 -1.408086
v 0.683127 0.096888 -1.345092
v 0.683127 0.242742 -1.345092
v 0.809503 0.096888 -1.269345
v 0.809503 0.242742 -1.269345
v 0.927846 0.096888 -1.181576
v 0.927846 0.242742 -1.181576
v 1.037016 0.096888 -1.082630
v 1.037016 0.242742 -1.082630
v 1.135962 0.096888 -0.973460
v 1.135962 0.242742 -0.973460
v 1.223731 0.096888 -0.855117
v 1.223731 0.242742 -0.855117
v 1.299478 0.096888 -0.728741
v 1.299478 0.242742 -0.728741
v 1.362473 0.096888 -0.595549
v 1.362473 0.242742 -0.595549
v 1.412110 0.096888 -0.456824
v 1.412110 0.242742 -0.456824
v 1.447910 0.096888 -0.313902
v 1.447910 0.242742 -0.313902
v 1.469529 0.096888 -0.168159
v 1.469529 0.242742 -0.168159
v 1.476758 0.096888 -0.020998
v 1.476758 0.242742 -0.020998
v 1.469529 0.096888 0.126162
v 1.469529 0.242742 0.126162
v 1.447910 0.096888 0.271905
v 1.447910 0.242742 0.271905
v 1.412110 0.096888 0.414827
v 1.412110 0.242742 0.414827
v 1.362473 0.096888 0.553553
v 1.362473 0.242742 0.553553
v 1.299478 0.096888 0.686744
v 1.299478 0.242742 0.686744
v 1.223731 0.096888 0.813120
v 1.223731 0.242742 0.813120
v 1.135962 0.096888 0.931463
v 1.135962 0.242742 0.931463
v 1.037016 0.096888 1.040633
v 1.037016 0.242742 1.040633
v 0.927846 0.096888 1.139579
v 0.927846 0.242742 1.139579
v 0.809503 0.096888 1.227348
v 0.809503 0.242742 1.227348
v 0.683127 0.096888 1.303095
v 0.683127 0.242742 1.303095
v 0.549936 0.096888 1.366090
v 0.549936 0.242742 1.366090
v 0.411211 0.096888 1.415727
v 0.411211 0.242742 1.415727
v 0.268288 0.096888 1.451527
v 0.268288 0.242742 1.451527
v 0.122545 0.096888 1.473146
v 0.122545 0.242742 1.473146
v -0.024615 0.096888 1.480376
v -0.024615 0.242742 1.480376
v -0.171775 0.096888 1.473146
v -0.171775 0.242742 1.473146
v -0.317519 0.096888 1.451527
v -0.317519 0.242742 1.451527
v -0.460441 0.096888 1.415727
v -0.460441 0.242742 1.415727
v -0.599166 0.096888 1.366090
v -0.599166 0.242742 1.366090
v -0.732358 0.096888 1.303095
v -0.732358 0.242742 1.303095
v -0.858734 0.096888 1.227348
v -0.858734 0.242742 1.227348
v -0.977076 0.096888 1.139579
v -0.977076 0.242742 1.139579
v -1.086246 0.096888 1.040633
v -1.086246 0.242742 1.040633
v -1.185192 0.096888 0.931463
v -1.185192 0.242742 0.931463
v -1.272961 0.096888 0.813120
v -1.272961 0.242742 0.813120
v -1.348708 0.096888 0.686744
v -1.348708 0.242742 0.686744
v -1.411703 0.096888 0.553553
v -1.411703 0.242742 0.553553
v -1.461340 0.096888 0.414827
v -1.461340 0.242742 0.414827
v -1.497140 0.096888 0.271905
v -1.497140 0.242742 0.271905
v -1.518759 0.096888 0.126162
v -1.518759 0.242742 0.126162
v -1.525989 0.096888 -0.020998
v -1.525989 0.242742 -0.020998
v -1.518759 0.096888 -0.168159
v -1.518759 0.242742 -0.168159
v -1.497140 0.096888 -0.313902
v -1.497140 0.242742 -0.313902
v -1.461340 0.096888 -0.456824
v -1.461340 0.242742 -0.456824
v -1.411703 0.096888 -0.595549
v -1.411703 0.242742 -0.595549
v -1.348708 0.096888 -0.728741
v -1.348708 0.242742 -0.728741
v -1.272961 0.096888 -0.855117
v -1.272961 0.242742 -0.855117
v -1.185192 0.096888 -0.973460
v -1.185192 0.242742 -0.973460
v -1.086246 0.096888 -1.082630
v -1.086246 0.242742 -1.082630
v -0.977076 0.096888 -1.181576
v -0.977076 0.242742 -1.181576
v -0.858734 0.096888 -1.269345
v -0.858734 0.242742 -1.269345
v -0.732358 0.096888 -1.345092
v -0.732358 0.242742 -1.345092
v -0.599166 0.096888 -1.408086
v -0.599166 0.242742 -1.408086
v -0.460441 0.096888 -1.457723
v -0.460441 0.242742 -1.457723
v -0.317519 0.096888 -1.493523
v -0.317519 0.242742 -1.493523
v -0.171775 0.096888 -1.515142
v -0.171775 0.242742 -1.515142
vn 0.0491 -0.0000 -0.9988
vn 0.1467 -0.0000 -0.9892
vn 0.2430 -0.0000 -0.9700
vn 0.3369 -0.0000 -0.9415
vn 0.4276 -0.0000 -0.9040
vn 0.5141 -0.0000 -0.8577
vn 0.5957 -0.0000 -0.8032
vn 0.6716 -0.0000 -0.7410
vn 0.7410 -0.0000 -0.6716
vn 0.8032 -0.0000 -0.5957
vn 0.8577 -0.0000 -0.5141
vn 0.9040 -0.0000 -0.4276
vn 0.9415 -0.0000 -0.3369
vn 0.9700 -0.0000 -0.2430
vn 0.9892 -0.0000 -0.1467
vn 0.9988 -0.0000 -0.0491
vn 0.9988 -0.0000 0.0491
vn 0.9892 -0.0000 0.1467
vn 0.9700 -0.0000 0.2430
vn 0.9415 -0.0000 0.3369
vn 0.9040 -0.0000 0.4276
vn 0.8577 -0.0000 0.5141
vn 0.8032 -0.0000 0.5957
vn 0.7410 -0.0000 0.6716
vn 0.6716 -0.0000 0.7410
vn 0.5957 -0.0000 0.8032
vn 0.5141 -0.0000 0.8577
vn 0.4276 -0.0000 0.9040
vn 0.3369 -0.0000 0.9415
vn 0.2430 -0.0000 0.9700
vn 0.1467 -0.0000 0.9892
vn 0.0491 -0.0000 0.9988
vn -0.0491 -0.0000 0.9988
vn -0.1467 -0.0000 0.9892
vn -0.2430 -0.0000 0.9700
vn -0.3369 -0.0000 0.9415
vn -0.4276 -0.0000 0.9040
vn -0.5141 -0.0000 0.8577
vn -0.5957 -0.0000 0.8032
vn -0.6716 -0.0000 0.7410
vn -0.7410 -0.0000 0.6716
vn -0.8032 -0.0000 0.5957
vn -0.8577 -0.0000 0.5141
vn -0.9040 -0.0000 0.4276
vn -0.9415 -0.0000 0.3369
vn -0.9700 -0.0000 0.2430
vn -0.9892 -0.0000 0.1467
vn -0.9988 -0.0000 0.0491
vn -0.9988 -0.0000 -0.0491
vn -0.9892 -0.0000 -0.1467
vn -0.9700 -0.0000 -0.2430
vn -0.9415 -0.0000 -0.3369
vn -0.9040 -0.0000 -0.4276
vn -0.8577 -0.0000 -0.5141
vn -0.8032 -0.0000 -0.5957
vn -0.7410 -0.0000 -0.6716
vn -0.6716 -0.0000 -0.7410
vn -0.5957 -0.0000 -0.8032
vn -0.5141 -0.0000 -0.8577
vn -0.4276 -0.0000 -0.9040
vn -0.3369 -0.0000 -0.9415
vn -0.2430 -0.0000 -0.9700
vn -0.1467 -0.0000 -0.9892
vn -0.0491 -0.0000 -0.9988
vt 1.000000 0.500000
vt 1.000000 1.000000
vt 0.984375 1.000000
vt 0.984375 0.500000
vt 0.968750 1.000000
vt 0.968750 0.500000
vt 0.953125 1.000000
vt 0.953125 0.500000
vt 0.937500 1.000000
vt 0.937500 0.500000
vt 0.921875 1.000000
vt 0.921875 0.500000
vt 0.906250 1.000000
vt 0.906250 0.500000
vt 0.890625 1.000000
vt 0.890625 0.500000
vt 0.875000 1.000000
vt 0.875000 0.500000
vt 0.859375 1.000000
vt 0.859375 0.500000
vt 0.843750 1.000000
vt 0.843750 0.500000
vt 0.828125 1.000000
vt 0.828125 0.500000
vt 0.812500 1.000000
vt 0.812500 0.500000
vt 0.796875 1.000000
vt 0.796875 0.500000
vt 0.781250 1.000000
vt 0.781250 0.500000
vt 0.765625 1.000000
vt 0.765625 0.500000
vt 0.750000 1.000000
vt 0.750000 0.500000
vt 0.734375 1.000000
vt 0.734375 0.500000
vt 0.718750 1.000000
vt 0.718750 0.500000
vt 0.703125 1.000000
vt 0.703125 0.500000
vt 0.687500 1.000000
vt 0.687500 0.500000
vt 0.671875 1.000000
vt 0.671875 0.500000
vt 0.656250 1.000000
vt 0.656250 0.500000
vt 0.640625 1.000000
vt 0.640625 0.500000
vt 0.625000 1.000000
vt 0.625000 0.500000
vt 0.609375 1.000000
vt 0.609375 0.500000
vt 0.593750 1.000000
vt 0.593750 0.500000
vt 0.578125 1.000000
vt 0.578125 0.500000
vt 0.562500 1.000000
vt 0.562500 0.500000
vt 0.546875 1.000000
vt 0.546875 0.500000
vt 0.531250 1.000000
vt 0.531250 0.500000
vt 0.515625 1.000000
vt 0.515625 0.500000
vt 0.500000 1.000000
vt 0.500000 0.500000
vt 0.484375 1.000000
vt 0.484375 0.500000
vt 0.468750 1.000000
vt 0.468750 0.500000
vt 0.453125 1.000000
vt 0.453125 0.500000
vt 0.437500 1.000000
vt 0.437500 0.500000
vt 0.421875 1.000000
vt 0.421875 0.500000
vt 0.406250 1.000000
vt 0.406250 0.500000
vt 0.390625 1.000000
vt 0.390625 0.500000
vt 0.375000 1.000000
vt 0.375000 0.500000
vt 0.359375 1.000000
vt 0.359375 0.500000
vt 0.343750 1.000000
vt 0.343750 0.500000
vt 0.328125 1.000000
vt 0.328125 0.500000
vt 0.312500 1.000000
vt 0.312500 0.500000
vt 0.296875 1.000000
vt 0.296875 0.500000
vt 0.281250 1.000000
vt 0.281250 0.500000
vt 0.265625 1.000000
vt 0.265625 0.500000
vt 0.250000 1.000000
vt 0.250000 0.500000
vt 0.234375 1.000000
vt 0.234375 0.500000
vt 0.218750 1.000000
vt 0.218750 0.500000
vt 0.203125 1.000000
vt 0.203125 0.500000
vt 0.187500 1.000000
vt 0.187500 0.500000
vt 0.171875 1.000000
vt 0.171875 0.500000
vt 0.156250 1.000000
vt 0.156250 0.500000
vt 0.140625 1.000000
vt 0.140625 0.500000
vt 0.125000 1.000000
vt 0.125000 0.500000
vt 0.109375 1.000000
vt 0.109375 0.500000
vt 0.093750 1.000000
vt 0.093750 0.500000
vt 0.078125 1.000000
vt 0.078125 0.500000
vt 0.062500 1.000000
vt 0.062500 0.500000
vt 0.046875 1.000000
vt 0.046875 0.500000
vt 0.031250 1.000000
vt 0.031250 0.500000
vt 0.015625 1.000000
vt 0.015625 0.500000
vt 0.000000 1.000000
vt 0.000000 0.500000
s 0
g Circle_Material.001
usemtl Material.001
f 1/1/1 2/2/1 4/3/1 3/4/1
f 3/4/2 4/3/2 6/5/2 5/6/2
f 5/6/3 6/5/3 8/7/3 7/8/3
f 7/8/4 8/7/4 10/9/4 9/10/4
f 9/10/5 10/9/5 12/11/5 11/12/5
f 11/12/6 12/11/6 14/13/6 13/14/6
f 13/14/7 14/13/7 16/15/7 15/16/7
f 15/16/8 16/15/8 18/17/8 17/18/8
f 17/18/9 18/17/9 20/19/9 19/20/9
f 19/20/10 20/19/10 22/21/10 21/22/10
f 21/22/11 22/21/11 24/23/11 23/24/11
f 23/24/12 24/23/12 26/25/12 25/26/12
f 25/26/13 26/25/13 28/27/13 27/28/13
f 27/28/14 28/27/14 30/29/14 29/30/14
f 29/30/15 30/29/15 32/31/15 31/32/15
f 31/32/16 32/31/16 34/33/16 33/34/16
f 33/34/17 34/33/17 36/35/17 35/36/17
f 35/36/18 36/35/18 38/37/18 37/38/18
f 37/38/19 38/37/19 40/39/19 39/40/19
f 39/40/20 40/39/20 42/41/20 41/42/20
f 41/42/21 42/41/21 44/43/21 43/44/21
f 43/44/22 44/43/22 46/45/22 45/46/22
f 45/46/23 46/45/23 48/47/23 47/48/23
f 47/48/24 48/47/24 50/49/24 49/50/24
f 49/50/25 50/49/25 52/51/25 51/52/25
f 51/52/26 52/51/26 54/53/26 53/54/26
f 53/54/27 54/53/27 56/55/27 55/56/27
f 55/56/28 56/55/28 58/57/28 57/58/28
f 57/58/29 58/57/29 60/59/29 59/60/29
f 59/60/30 60/59/30 62/61/30 61/62/30
f 61/62/31 62/61/31 64/63/31 63/64/31
f 63/64/32 64/63/32 66/65/32 65/66/32
f 65/66/33 66/65/33 68/67/33 67/68/33
f 67/68/34 68/67/34 70/69/34 69/70/34
f 69/70/35 70/69/35 72/71/35 71/72/35
f 71/72/36 72/71/36 74/73/36 73/74/36
f 73/74/37 74/73/37 76/75/37 75/76/37
f 75/76/38 76/75/38 78/77/38 77/78/38
f 77/78/39 78/77/39 80/79/39 79/80/39
f 79/80/40 80/79/40 82/81/40 81/82/40
f 81/82/41 82/81/41 84/83/41 83/84/41
f 83/84/42 84/83/42 86/85/42 85/86/42
f 85/86/43 86/85/43 88/87/43 87/88/43
f 87/88/44 88/87/44 90/89/44 89/90/44
f 89/90/45 90/89/45 92/91/45 91/92/45
f 91/92/46 92/91/46 94/93/46 93/94/46
f 93/94/47 94/93/47 96/95/47 95/96/47
f 95/96/48 96/95/48 98/97/48 97/98/48
f 97/98/49 98/97/49 100/99/49 99/100/49
f 99/100/50 100/99/50 102/101/50 101/102/50
f 101/102/51 102/101/51 104/103/51 103/104/51
f 103/104/52 104/103/52 106/105/52 105/106/52
f 105/106/53 106/105/53 108/107/53 107/108/53
f 107/108/54 108/107/54 110/109/54 109/110/54
f 109/110/55 110/109/55 112/111/55 111/112/55
f 111/112/56 112/111/56 114/113/56 113/114/56
f 113/114/57 114/113/57 116/115/57 115/116/57
f 115/116/58 116/115/58 118/117/58 117/118/58
f 117/118/59 118/117/59 120/119/59 119/120/59
f 119/120/60 120/119/60 122/121/60 121/122/60
f 121/122/61 122/121/61 124/123/61 123/124/61
f 123/124/62 124/123/62 126/125/62 125/126/62
f 125/126/63 126/125/63 128/127/63 127/128/63
f 127/128/64 128/127/64 2/129/64 1/130/64
o Cube
v -3.221676 -0.076399 5.552375
v -3.228520 0.906294 5.670618
v -3.102418 0.500266 6.122192
v -3.577141 0.766781 6.081305
v -2.986862 0.446658 5.384576
v -3.362589 0.031036 6.073142
v -3.728725 0.325929 6.166544
v -3.715515 0.748607 5.419304
v -3.695625 0.236256 5.286509
v -3.950391 0.285434 5.646623
vn 0.3671 0.7403 0.5631
vn 0.0185 0.1837 0.9828
vn 0.0586 0.2526 -0.9658
vn 0.2089 0.5935 -0.7772
vn -0.4875 -0.8584 0.1598
vn 0.9066 0.4067 0.1125
vn 0.8812 -0.4118 0.2323
vn 0.1157 -0.1665 0.9792
vn 0.2394 -0.3924 -0.8881
vn -0.4564 -0.8659 -0.2046
vn -0.8600 0.4505 0.2396
vn -0.8026 0.1203 -0.5842
vn -0.3276 0.9439 0.0426
vt 0.550384 0.206938
vt 0.375000 0.305791
vt 0.375000 0.049496
vt 0.180791 0.500000
vt 0.330928 0.574320
vt 0.125000 0.700504
vt 0.804283 0.500000
vt 0.842867 0.681766
vt 0.658516 0.626313
vt 0.875000 0.500000
vt 0.501754 0.540833
vt 0.565165 0.799791
vt 0.325310 0.750000
vt 0.604031 0.069198
vt 0.375000 1.000000
vt 0.375000 0.799690
vt 0.578028 1.000000
vt 0.615335 0.592735
vt 0.589707 0.775249
vt 0.581909 0.353207
s 0
g Cube_Material
usemtl Material
f 130/131/65 132/132/65 131/133/65
f 132/134/66 135/135/66 131/136/66
f 136/137/67 133/138/67 137/139/67
f 133/138/68 136/137/68 130/140/68
f 138/141/69 129/142/69 134/143/69 135/135/69
f 131/133/70 133/144/70 130/131/70
f 131/145/71 134/146/71 129/142/71 133/147/71
f 135/135/72 134/143/72 131/136/72
f 137/148/73 133/138/73 129/149/73
f 129/142/74 138/141/74 137/148/74
f 138/141/75 135/135/75 132/132/75 136/150/75
f 138/141/76 136/150/76 137/148/76
f 132/132/77 130/131/77 136/150/77
o Cube
v 4.140709 0.279951 -3.452004
v 4.882461 0.315203 -3.598628
v 4.652683 -0.080674 -3.474354
v 4.899167 0.133493 -3.214189
v 4.463482 0.377795 -3.760143
v 4.332582 -0.016257 -3.223085
v 4.611038 0.074130 -3.002528
v 4.781337 0.627725 -3.311794
v 4.379498 0.652469 -3.267411
v 4.513340 0.496273 -2.997413
vn 0.7843 -0.5471 -0.2927
vn 0.4091 -0.8557 0.3169
vn -0.0000 0.8735 -0.4869
vn 0.3472 0.6926 -0.6322
vn -0.7039 -0.0633 0.7075
vn 0.2690 -0.4271 -0.8633
vn -0.4813 -0.6466 -0.5918
vn 0.0573 -0.9471 0.3158
vn -0.6279 0.6294 -0.4579
vn -0.8037 0.2470 0.5413
vn 0.6284 0.2230 0.7452
vn 0.1050 0.8825 0.4585
vn 0.9667 0.2450 0.0738
vt 0.550384 0.206938
vt 0.375000 0.305791
vt 0.375000 0.049496
vt 0.180791 0.500000
vt 0.330928 0.574320
vt 0.125000 0.700504
vt 0.804283 0.500000
vt 0.842867 0.681766
vt 0.658516 0.626313
vt 0.875000 0.500000
vt 0.501754 0.540833
vt 0.565165 0.799791
vt 0.325310 0.750000
vt 0.604031 0.069198
vt 0.375000 1.000000
vt 0.375000 0.799690
vt 0.578028 1.000000
vt 0.615335 0.592735
vt 0.589707 0.775249
vt 0.581909 0.353207
s 0
g Cube_Material
usemtl Material
f 140/151/78 142/152/78 141/153/78
f 142/154/79 145/155/79 141/156/79
f 146/157/80 143/158/80 147/159/80
f 143/158/81 146/157/81 140/160/81
f 148/161/82 139/162/82 144/163/82 145/155/82
f 141/153/83 143/164/83 140/151/83
f 141/165/84 144/166/84 139/162/84 143/167/84
f 145/155/85 144/163/85 141/156/85
f 147/168/86 143/158/86 139/169/86
f 139/162/87 148/161/87 147/168/87
f 148/161/88 145/155/88 142/152/88 146/170/88
f 148/161/89 146/170/89 147/168/89
f 142/152/90 140/151/90 146/170/90
o Cube
v -5.724396 -0.133999 -1.932195
v -4.966818 -0.303777 -2.370337
v -5.020643 -0.322629 -1.814649
v -4.797282 0.045003 -2.052846
v -5.476817 -0.443447 -2.296118
v -5.346072 -0.009216 -1.637648
v -5.042418 0.262811 -1.779620
v -5.155976 0.144317 -2.535305
v -5.591951 0.215673 -2.355316
v -5.328761 0.445154 -2.160699
vn 0.8716 -0.4855 0.0680
vn 0.7392 -0.0128 0.6734
vn -0.3982 -0.1508 -0.9048
vn -0.0374 -0.3591 -0.9326
vn -0.5075 0.6587 0.5554
vn 0.2631 -0.9647 -0.0072
vn -0.3003 -0.7678 0.5660
vn 0.4500 -0.0367 0.8923
vn -0.8797 -0.1927 -0.4346
vn -0.7395 0.6140 0.2760
vn 0.6149 0.7597 -0.2115
vn -0.1524 0.7351 -0.6606
vn 0.8083 0.1298 -0.5742
vt 0.550384 0.206938
vt 0.375000 0.305791
vt 0.375000 0.049496
vt 0.180791 0.500000
vt 0.330928 0.574320
vt 0.125000 0.700504
vt 0.804283 0.500000
vt 0.842867 0.681766
vt 0.658516 0.626313
vt 0.875000 0.500000
vt 0.501754 0.540833
vt 0.565165 0.799791
vt 0.325310 0.750000
vt 0.604031 0.069198
vt 0.375000 1.000000
vt 0.375000 0.799690
vt 0.578028 1.000000
vt 0.615335 0.592735
vt 0.589707 0.775249
vt 0.581909 0.353207
s 0
g Cube_Material
usemtl Material
f 150/171/91 152/172/91 151/173/91
f 152/174/92 155/175/92 151/176/92
f 156/177/93 153/178/93 157/179/93
f 153/178/94 156/177/94 150/180/94
f 158/181/95 149/182/95 154/183/95 155/175/95
f 151/173/96 153/184/96 150/171/96
f 151/185/97 154/186/97 149/182/97 153/187/97
f 155/175/98 154/183/98 151/176/98
f 157/188/99 153/178/99 149/189/99
f 149/182/100 158/181/100 157/188/100
f 158/181/101 155/175/101 152/172/101 156/190/101
f 158/181/102 156/190/102 157/188/102
f 152/172/103 150/171/103 156/190/103
o Cube
v 4.572983 -0.240504 2.463450
v 5.183352 0.093791 2.106966
v 5.033047 -0.365377 2.025539
v 5.382093 -0.267551 2.259211
v 4.722119 0.111190 2.186358
v 4.858778 -0.552871 2.365567
v 5.218718 -0.522683 2.479151
v 5.225986 0.151656 2.551674
v 4.878510 0.025956 2.747954
v 5.130161 -0.214320 2.791316
vn 0.5632 -0.0380 -0.8254
vn 0.5118 -0.7250 -0.4609
vn -0.2269 0.9515 0.2076
vn 0.0149 0.9913 -0.1304
vn -0.2989 -0.6449 0.7034
vn -0.1573 0.2221 -0.9623
vn -0.6976 -0.3170 -0.6425
vn 0.1993 -0.8977 -0.3929
vn -0.7702 0.5629 0.2999
vn -0.4651 -0.3396 0.8175
vn 0.9002 -0.0561 0.4318
vn 0.3014 0.4658 0.8319
vn 0.8914 0.4306 -0.1415
vt 0.550384 0.206938
vt 0.375000 0.305791
vt 0.375000 0.049496
vt 0.180791 0.500000
vt 0.330928 0.574320
vt 0.125000 0.700504
vt 0.804283 0.500000
vt 0.842867 0.681766
vt 0.658516 0.626313
vt 0.875000 0.500000
vt 0.501754 0.540833
vt 0.565165 0.799791
vt 0.325310 0.750000
vt 0.604031 0.069198
vt 0.375000 1.000000
vt 0.375000 0.799690
vt 0.578028 1.000000
vt 0.615335 0.592735
vt 0.589707 0.775249
vt 0.581909 0.353207
s 0
g Cube_Material
usemtl Material
f 160/191/104 162/192/104 161/193/104
f 162/194/105 165/195/105 161/196/105
f 166/197/106 163/198/106 167/199/106
f 163/198/107 166/197/107 160/200/107
f 168/201/108 159/202/108 164/203/108 165/195/108
f 161/193/109 163/204/109 160/191/109
f 161/205/110 164/206/110 159/202/110 163/207/110
f 165/195/111 164/203/111 161/196/111
f 167/208/112 163/198/112 159/209/112
f 159/202/113 168/201/113 167/208/113
f 168/201/114 165/195/114 162/192/114 166/210/114
f 168/201/115 166/210/115 167/208/115
f 162/192/116 160/191/116 166/210/116
o Cube
v 4.038703 0.061059 3.384095
v 3.717945 0.620482 2.802707
v 3.662287 0.671921 3.341457
v 3.309043 0.527005 3.052377
v 4.145391 0.394350 2.994040
v 3.641403 0.260028 3.572242
v 3.279098 0.248152 3.359235
v 3.578620 0.157575 2.674159
v 3.794462 -0.155263 2.941376
v 3.424622 -0.119123 3.057571
vn -0.2907 0.9492 -0.1207
vn -0.6399 0.5988 0.4817
vn 0.5581 -0.2816 -0.7805
vn 0.4536 0.1091 -0.8845
vn -0.2043 -0.7451 0.6349
vn 0.4793 0.8770 -0.0342
vn 0.6277 0.4320 0.6475
vn -0.4633 0.4509 0.7629
vn 0.8331 -0.5119 -0.2095
vn 0.0431 -0.9068 0.4193
vn -0.9114 -0.1661 -0.3765
vn -0.2696 -0.7262 -0.6324
vn -0.5442 0.3725 -0.7517
vt 0.550384 0.206938
vt 0.375000 0.305791
vt 0.375000 0.049496
vt 0.180791 0.500000
vt 0.330928 0.574320
vt 0.125000 0.700504
vt 0.804283 0.500000
vt 0.842867 0.681766
vt 0.658516 0.626313
vt 0.875000 0.500000
vt 0.501754 0.540833
vt 0.565165 0.799791
vt 0.325310 0.750000
vt 0.604031 0.069198
vt 0.375000 1.000000
vt 0.375000 0.799690
vt 0.578028 1.000000
vt 0.615335 0.592735
vt 0.589707 0.775249
vt 0.581909 0.353207
s 0
g Cube_Material
usemtl Material
f 170/211/117 172/212/117 171/213/117
f 172/214/118 175/215/118 171/216/118
f 176/217/119 173/218/119 177/219/119
f 173/218/120 176/217/120 170/220/120
f 178/221/121 169/222/121 174/223/121 175/215/121
f 171/213/122 173/224/122 170/211/122
f 171/225/123 174/226/123 169/222/123 173/227/123
f 175/215/124 174/223/124 171/216/124
f 177/228/125 173/218/125 169/229/125
f 169/222/126 178/221/126 177/228/126
f 178/221/127 175/215/127 172/212/127 176/230/127
f 178/221/128 176/230/128 177/228/128
f 172/212/129 170/211/129 176/230/129
o Cube
v 4.774561 0.302045 -0.865564
v 4.682192 -0.837467 -0.600987
v 4.935175 -0.323568 -0.139916
v 5.317117 -0.746783 -0.446425
v 4.341818 -0.254307 -0.796160
v 5.238055 0.158267 -0.429891
v 5.599755 -0.268435 -0.529930
v 5.012429 -0.776805 -1.187780
v 4.997434 -0.180789 -1.384858
v 5.474075 -0.288362 -1.189563
vn -0.0947 -0.6386 0.7637
vn 0.5096 -0.1533 0.8467
vn -0.6293 -0.2582 -0.7330
vn -0.6974 -0.5577 -0.4501
vn 0.6171 0.7470 -0.2475
vn -0.7357 -0.2143 0.6425
vn -0.5227 0.5850 0.6201
vn 0.4820 0.2091 0.8509
vn -0.6340 0.4115 -0.6547
vn 0.3880 0.7521 -0.5327
vn 0.7650 -0.6077 -0.2133
vn 0.3055 -0.2920 -0.9063
vn 0.1461 -0.9891 -0.0200
vt 0.550384 0.206938
vt 0.375000 0.305791
vt 0.375000 0.049496
vt 0.180791 0.500000
vt 0.330928 0.574320
vt 0.125000 0.700504
vt 0.804283 0.500000
vt 0.842867 0.681766
vt 0.658516 0.626313
vt 0.875000 0.500000
vt 0.501754 0.540833
vt 0.565165 0.799791
vt 0.325310 0.750000
vt 0.604031 0.069198
vt 0.375000 1.000000
vt 0.375000 0.799690
vt 0.578028 1.000000
vt 0.615335 0.592735
vt 0.589707 0.775249
vt 0.581909 0.353207
s 0
g Cube_Material
usemtl Material
f 180/231/130 182/232/130 181/233/130
f 182/234/131 185/235/131 181/236/131
f 186/237/132 183/238/132 187/239/132
f 183/238/133 186/237/133 180/240/133
f 188/241/134 179/242/134 184/243/134 185/235/134
f 181/233/135 183/244/135 180/231/135
f 181/245/136 184/246/136 179/242/136 183/247/136
f 185/235/137 184/243/137 181/236/137
f 187/248/138 183/238/138 179/249/138
f 179/242/139 188/241/139 187/248/139
f 188/241/140 185/235/140 182/232/140 186/250/140
f 188/241/141 186/250/141 187/248/141
f 182/232/142 180/231/142 186/250/142
o Cube
v -3.477144 0.476983 -3.189888
v -3.897228 -0.085025 -3.700269
v -3.526333 -0.226070 -3.328609
v -3.439011 -0.219979 -3.799109
v -3.941043 0.282368 -3.335326
v -3.188691 0.097462 -3.262503
v -3.100599 -0.027809 -3.653758
v -3.703568 0.277049 -3.985351
v -3.529716 0.615387 -3.719145
v -3.238304 0.401265 -3.862710
vn -0.2952 -0.9531 -0.0671
vn 0.4677 -0.8807 0.0754
vn -0.7477 0.6030 -0.2781
vn -0.9147 0.2247 -0.3360
vn 0.8590 0.4819 0.1729
vn -0.6853 -0.5527 0.4742
vn -0.1390 -0.1823 0.9734
vn 0.6066 -0.7073 0.3630
vn -0.4429 0.8557 0.2678
vn 0.6296 0.7647 0.1374
vn 0.3844 -0.2161 -0.8975
vn 0.0495 0.6018 -0.7971
vn -0.3172 -0.4761 -0.8202
vt 0.550384 0.206938
vt 0.375000 0.305791
vt 0.375000 0.049496
vt 0.180791 0.500000
vt 0.330928 0.574320
vt 0.125000 0.700504
vt 0.804283 0.500000
vt 0.842867 0.681766
vt 0.658516 0.626313
vt 0.875000 0.500000
vt 0.501754 0.540833
vt 0.565165 0.799791
vt 0.325310 0.750000
vt 0.604031 0.069198
vt 0.375000 1.000000
vt 0.375000 0.799690
vt 0.578028 1.000000
vt 0.615335 0.592735
vt 0.589707 0.775249
vt 0.581909 0.353207
s 0
g Cube_Material
usemtl Material
f 190/251/143 192/252/143 191/253/143
f 192/254/144 195/255/144 191/256/144
f 196/257/145 193/258/145 197/259/145
f 193/258/146 196/257/146 190/260/146
f 198/261/147 189/262/147 194/263/147 195/255/147
f 191/253/148 193/264/148 190/251/148
f 191/265/149 194/266/149 189/262/149 193/267/149
f 195/255/150 194/263/150 191/256/150
f 197/268/151 193/258/151 189/269/151
f 189/262/152 198/261/152 197/268/152
f 198/261/153 195/255/153 192/252/153 196/270/153
f 198/261/154 196/270/154 197/268/154
f 192/252/155 190/251/155 196/270/155
o Cube
v -4.652070 0.066940 0.671416
v -4.569360 0.236024 1.702883
v -4.057964 0.163181 1.296899
v -4.236173 -0.248521 1.661872
v -4.780981 0.455620 1.153883
v -4.159998 -0.184670 0.856096
v -4.172760 -0.515203 1.241300
v -4.950635 -0.223518 1.611509
v -5.062311 -0.277172 1.064296
v -4.762987 -0.614823 1.196438
vn 0.6109 0.3604 0.7049
vn 0.9488 -0.1817 0.2583
vn -0.9283 0.3373 0.1564
vn -0.7202 0.5024 0.4785
vn 0.0623 -0.6715 -0.7384
vn 0.3223 0.9152 0.2418
vn 0.4606 0.7003 -0.5453
vn 0.9821 -0.1578 -0.1028
vn -0.7851 0.3628 -0.5020
vn -0.2822 -0.5561 -0.7817
vn -0.0002 -0.7857 0.6186
vn -0.7711 -0.5990 0.2161
vn -0.0744 -0.1348 0.9881
vt 0.550384 0.206938
vt 0.375000 0.305791
vt 0.375000 0.049496
vt 0.180791 0.500000
vt 0.330928 0.574320
vt 0.125000 0.700504
vt 0.804283 0.500000
vt 0.842867 0.681766
vt 0.658516 0.626313
vt 0.875000 0.500000
vt 0.501754 0.540833
vt 0.565165 0.799791
vt 0.325310 0.750000
vt 0.604031 0.069198
vt 0.375000 1.000000
vt 0.375000 0.799690
vt 0.578028 1.000000
vt 0.615335 0.592735
vt 0.589707 0.775249
vt 0.581909 0.353207
s 0
g Cube_Material
usemtl Material
f 200/271/156 202/272/156 201/273/156
f 202/274/157 205/275/157 201/276/157
f 206/277/158 203/278/158 207/279/158
f 203/278/159 206/277/159 200/280/159
f 208/281/160 199/282/160 204/283/160 205/275/160
f 201/273/161 203/284/161 200/271/161
f 201/285/162 204/286/162 199/282/162 203/287/162
f 205/275/163 204/283/163 201/276/163
f 207/288/164 203/278/164 199/289/164
f 199/282/165 208/281/165 207/288/165
f 208/281/166 205/275/166 202/272/166 206/290/166
f 208/281/167 206/290/167 207/288/167
f 202/272/168 200/271/168 206/290/168
o Cube
v -0.789326 0.567290 5.177604
v -0.900868 0.243654 4.384600
v -0.935303 -0.046138 4.840409
v -0.561697 -0.064443 4.545359
v -1.066114 0.585286 4.736213
v -0.654578 0.106631 5.185218
v -0.371233 -0.033080 4.911098
v -0.474185 0.499532 4.394289
v -0.433759 0.727905 4.794083
v -0.201810 0.417755 4.799064
vn -0.4361 -0.7441 -0.5060
vn 0.0132 -0.9968 0.0786
vn -0.1512 0.8648 -0.4787
vn -0.3377 0.5908 -0.7327
vn 0.6146 0.0796 0.7848
vn -0.9475 -0.2325 -0.2194
vn -0.7974 -0.1337 0.5884
vn -0.0326 -0.9037 0.4269
vn -0.2323 0.9550 0.1846
vn 0.5635 0.4327 0.7037
vn 0.7988 -0.3323 -0.5016
vn 0.7411 0.5480 -0.3880
vn 0.1901 -0.2814 -0.9406
vt 0.550384 0.206938
vt 0.375000 0.305791
vt 0.375000 0.049496
vt 0.180791 0.500000
vt 0.330928 0.574320
vt 0.125000 0.700504
vt 0.804283 0.500000
vt 0.842867 0.681766
vt 0.658516 0.626313
vt 0.875000 0.500000
vt 0.501754 0.540833
vt 0.565165 0.799791
vt 0.325310 0.750000
vt 0.604031 0.069198
vt 0.375000 1.000000
vt 0.375000 0.799690
vt 0.578028 1.000000
vt 0.615335 0.592735
vt 0.589707 0.775249
vt 0.581909 0.353207
s 0
g Cube_Material
usemtl Material
f 210/291/169 212/292/169 211/293/169
f 212/294/170 215/295/170 211/296/170
f 216/297/171 213/298/171 217/299/171
f 213/298/172 216/297/172 210/300/172
f 218/301/173 209/302/173 214/303/173 215/295/173
f 211/293/174 213/304/174 210/291/174
f 211/305/175 214/306/175 209/302/175 213/307/175
f 215/295/176 214/303/176 211/296/176
f 217/308/177 213/298/177 209/309/177
f 209/302/178 218/301/178 217/308/178
f 218/301/179 215/295/179 212/292/179 216/310/179
f 218/301/180 216/310/180 217/308/180
f 212/292/181 210/291/181 216/310/181
o Cube
v 3.395503 -0.105778 -0.674471
v 3.719386 0.199422 0.161953
v 3.144323 0.155457 0.021142
v 3.401998 0.609676 0.040783
v 3.702852 -0.230099 -0.208562
v 3.044662 0.234527 -0.478631
v 3.178540 0.654523 -0.351438
v 3.972208 0.475475 -0.235319
v 3.858225 0.276144 -0.687327
v 3.641376 0.637544 -0.633736
vn -0.2437 0.0965 0.9650
vn -0.7692 0.4153 0.4857
vn 0.9305 -0.3581 -0.0767
vn 0.8838 -0.3246 0.3369
vn -0.4027 0.2582 -0.8782
vn -0.1351 -0.6442 0.7528
vn -0.5974 -0.7976 0.0838
vn -0.9459 0.2332 0.2255
vn 0.5320 -0.6623 -0.5276
vn -0.0996 0.0872 -0.9912
vn 0.2030 0.9727 0.1122
vn 0.7515 0.5125 -0.4155
vn 0.4639 0.5613 0.6853
vt 0.550384 0.206938
vt 0.375000 0.305791
vt 0.375000 0.049496
vt 0.180791 0.500000
vt 0.330928 0.574320
vt 0.125000 0.700504
vt 0.804283 0.500000
vt 0.842867 0.681766
vt 0.658516 0.626313
vt 0.875000 0.500000
vt 0.501754 0.540833
vt 0.565165 0.799791
vt 0.325310 0.750000
vt 0.604031 0.069198
vt 0.375000 1.000000
vt 0.375000 0.799690
vt 0.578028 1.000000
vt 0.615335 0.592735
vt 0.589707 0.775249
vt 0.581909 0.353207
s 0
g Cube_Material
usemtl Material
f 220/311/182 222/312/182 221/313/182
f 222/314/183 225/315/183 221/316/183
f 226/317/184 223/318/184 227/319/184
f 223/318/185 226/317/185 220/320/185
f 228/321/186 219/322/186 224/323/186 225/315/186
f 221/313/187 223/324/187 220/311/187
f 221/325/188 224/326/188 219/322/188 223/327/188
f 225/315/189 224/323/189 221/316/189
f 227/328/190 223/318/190 219/329/190
f 219/322/191 228/321/191 227/328/191
f 228/321/192 225/315/192 222/312/192 226/330/192
f 228/321/193 226/330/193 227/328/193
f 222/312/194 220/311/194 226/330/194
o Cube
v 0.381169 0.045261 -3.374173
v -0.011287 0.031618 -4.186789
v 0.336287 0.439914 -4.007020
v -0.157828 0.493283 -4.035622
v 0.320899 -0.222811 -3.844517
v 0.316124 0.519901 -3.522734
v -0.080147 0.658702 -3.644042
v -0.375989 -0.043486 -3.823857
v -0.170898 -0.102233 -3.390581
v -0.330186 0.269038 -3.414681
vn 0.0905 0.3357 -0.9376
vn 0.1213 0.9055 -0.4066
vn -0.2495 -0.9683 -0.0132
vn -0.2378 -0.8757 -0.4202
vn -0.0025 0.4011 0.9160
vn 0.6249 -0.1996 -0.7548
vn 0.9982 0.0292 -0.0526
vn 0.3645 0.9211 -0.1369
vn 0.2160 -0.8599 0.4624
vn -0.0421 0.0467 0.9980
vn -0.9067 0.4087 -0.1041
vn -0.8649 -0.3475 0.3623
vn -0.7062 0.0077 -0.7080
vt 0.550384 0.206938
vt 0.375000 0.305791
vt 0.375000 0.049496
vt 0.180791 0.500000
vt 0.330928 0.574320
vt 0.125000 0.700504
vt 0.804283 0.500000
vt 0.842867 0.681766
vt 0.658516 0.626313
vt 0.875000 0.500000
vt 0.501754 0.540833
vt 0.565165 0.799791
vt 0.325310 0.750000
vt 0.604031 0.069198
vt 0.375000 1.000000
vt 0.375000 0.799690
vt 0.578028 1.000000
vt 0.615335 0.592735
vt 0.589707 0.775249
vt 0.581909 0.353207
s 0
g Cube_Material
usemtl Material
f 230/331/195 232/332/195 231/333/195
f 232/334/196 235/335/196 231/336/196
f 236/337/197 233/338/197 237/339/197
f 233/338/198 236/337/198 230/340/198
f 238/341/199 229/342/199 234/343/199 235/335/199
f 231/333/200 233/344/200 230/331/200
f 231/345/201 234/346/201 229/342/201 233/347/201
f 235/335/202 234/343/202 231/336/202
f 237/348/203 233/338/203 229/349/203
f 229/342/204 238/341/204 237/348/204
f 238/341/205 235/335/205 232/332/205 236/350/205
f 238/341/206 236/350/206 237/348/206
f 232/332/207 230/331/207 236/350/207
o Cube
v 3.100622 0.640901 -1.919325
v 2.475859 0.144948 -2.216837
v 2.872567 0.340841 -2.514901
v 2.434506 0.509763 -2.523912
v 2.865450 0.184964 -1.890260
v 3.028079 0.753694 -2.373067
v 2.650017 0.855098 -2.502503
v 2.276484 0.514871 -1.963881
v 2.601003 0.752252 -1.749680
v 2.481225 0.947965 -2.054801
vn -0.2324 -0.6416 -0.7310
vn 0.0358 0.0396 -0.9986
vn -0.3133 -0.3634 0.8774
vn -0.4439 -0.6564 0.6100
vn 0.3647 0.9292 0.0595
vn 0.2873 -0.9301 -0.2288
vn 0.9087 -0.3889 -0.1520
vn 0.3612 0.1784 -0.9153
vn 0.3011 -0.0948 0.9489
vn 0.3298 0.8482 0.4146
vn -0.8463 0.4287 -0.3161
vn -0.6971 0.4472 0.5605
vn -0.9132 -0.3180 -0.2548
vt 0.550384 0.206938
vt 0.375000 0.305791
vt 0.375000 0.049496
vt 0.180791 0.500000
vt 0.330928 0.574320
vt 0.125000 0.700504
vt 0.804283 0.500000
vt 0.842867 0.681766
vt 0.658516 0.626313
vt 0.875000 0.500000
vt 0.501754 0.540833
vt 0.565165 0.799791
vt 0.325310 0.750000
vt 0.604031 0.069198
vt 0.375000 1.000000
vt 0.375000 0.799690
vt 0.578028 1.000000
vt 0.615335 0.592735
vt 0.589707 0.775249
vt 0.581909 0.353207
s 0
g Cube_Material
usemtl Material
f 240/351/208 242/352/208 241/353/208
f 242/354/209 245/355/209 241/356/209
f 246/357/210 243/358/210 247/359/210
f 243/358/211 246/357/211 240/360/211
f 248/361/212 239/362/212 244/363/212 245/355/212
f 241/353/213 243/364/213 240/351/213
f 241/365/214 244/366/214 239/362/214 243/367/214
f 245/355/215 244/363/215 241/356/215
f 247/368/216 243/358/216 239/369/216
f 239/362/217 248/361/217 247/368/217
f 248/361/218 245/355/218 242/352/218 246/370/218
f 248/361/219 246/370/219 247/368/219
f 242/352/220 240/351/220 246/370/220
o Cube
v -3.245682 -0.642780 -0.259650
v -3.325531 0.319344 -0.811046
v -2.810351 0.160675 -0.369730
v -3.268468 0.543826 -0.230485
v -3.272813 -0.342745 -0.859249
v -2.978606 -0.203624 0.083271
v -3.251309 0.243355 0.208596
v -3.883406 0.202799 -0.518678
v -3.883082 -0.344472 -0.285350
v -3.820821 -0.009310 0.078451
vn 0.5362 0.7682 -0.3497
vn 0.6554 0.6350 0.4089
vn -0.6537 -0.2971 -0.6960
vn -0.4684 0.0270 -0.8831
vn -0.1123 -0.4648 0.8783
vn 0.6656 0.1068 -0.7386
vn 0.8512 -0.4878 -0.1937
vn 0.7749 0.3199 0.5451
vn -0.3749 -0.8357 -0.4012
vn -0.3372 -0.6629 0.6684
vn -0.5203 0.7488 0.4105
vn -0.9912 0.0515 0.1222
vn -0.3467 0.8858 -0.3084
vt 0.550384 0.206938
vt 0.375000 0.305791
vt 0.375000 0.049496
vt 0.180791 0.500000
vt 0.330928 0.574320
vt 0.125000 0.700504
vt 0.804283 0.500000
vt 0.842867 0.681766
vt 0.658516 0.626313
vt 0.875000 0.500000
vt 0.501754 0.540833
vt 0.565165 0.799791
vt 0.325310 0.750000
vt 0.604031 0.069198
vt 0.375000 1.000000
vt 0.375000 0.799690
vt 0.578028 1.000000
vt 0.615335 0.592735
vt 0.589707 0.775249
vt 0.581909 0.353207
s 0
g Cube_Material
usemtl Material
f 250/371/221 252/372/221 251/373/221
f 252/374/222 255/375/222 251/376/222
f 256/377/223 253/378/223 257/379/223
f 253/378/224 256/377/224 250/380/224
f 258/381/225 249/382/225 254/383/225 255/375/225
f 251/373/226 253/384/226 250/371/226
f 251/385/227 254/386/227 249/382/227 253/387/227
f 255/375/228 254/383/228 251/376/228
f 257/388/229 253/378/229 249/389/229
f 249/382/230 258/381/230 257/388/230
f 258/381/231 255/375/231 252/372/231 256/390/231
f 258/381/232 256/390/232 257/388/232
f 252/372/233 250/371/233 256/390/233
o Cube
v 1.534500 -0.175281 -1.588168
v 2.083991 0.865335 -1.870987
v 1.521978 0.554654 -2.274431
v 2.162141 0.539356 -2.463119
v 1.694305 0.505457 -1.376870
v 1.512559 -0.103822 -2.256625
v 2.006560 -0.010737 -2.557945
v 2.570272 0.377643 -1.761951
v 2.298494 -0.161022 -1.526549
v 2.421119 -0.234930 -2.050050
vn -0.1241 0.8622 -0.4911
vn -0.2694 0.2371 -0.9334
vn 0.4177 0.1786 0.8909
vn 0.4004 0.5612 0.7244
vn -0.0926 -0.9733 -0.2102
vn -0.5596 0.8147 0.1521
vn -0.9858 0.1057 0.1304
vn -0.5185 -0.0157 -0.8549
vn -0.0720 -0.2802 0.9572
vn 0.0071 -0.9899 0.1414
vn 0.8222 -0.0283 -0.5685
vn 0.9030 -0.3421 0.2598
vn 0.7119 0.6507 -0.2643
vt 0.550384 0.206938
vt 0.375000 0.305791
vt 0.375000 0.049496
vt 0.180791 0.500000
vt 0.330928 0.574320
vt 0.125000 0.700504
vt 0.804283 0.500000
vt 0.842867 0.681766
vt 0.658516 0.626313
vt 0.875000 0.500000
vt 0.501754 0.540833
vt 0.565165 0.799791
vt 0.325310 0.750000
vt 0.604031 0.069198
vt 0.375000 1.000000
vt 0.375000 0.799690
vt 0.578028 1.000000
vt 0.615335 0.592735
vt 0.589707 0.775249
vt 0.581909 0.353207
s 0
g Cube_Material
usemtl Material
f 260/391/234 262/392/234 261/393/234
f 262/394/235 265/395/235 261/396/235
f 266/397/236 263/398/236 267/399/236
f 263/398/237 266/397/237 260/400/237
f 268/401/238 259/402/238 264/403/238 265/395/238
f 261/393/239 263/404/239 260/391/239
f 261/405/240 264/406/240 259/402/240 263/407/240
f 265/395/241 264/403/241 261/396/241
f 267/408/242 263/398/242 259/409/242
f 259/402/243 268/401/243 267/408/243
f 268/401/244 265/395/244 262/392/244 266/410/244
f 268/401/245 266/410/245 267/408/245
f 262/392/246 260/391/246 266/410/246
o Cube
v -2.694262 -0.026071 -0.495157
v -3.135138 -0.092070 0.354354
v -3.419785 -0.066061 -0.174502
v -3.389661 0.342262 0.160733
v -2.766688 -0.337183 -0.012209
v -3.168575 0.213872 -0.536757
v -3.287002 0.548270 -0.236782
v -2.770337 0.322633 0.375355
v -2.480184 0.325522 -0.048145
v -2.771327 0.641329 -0.072244
vn -0.8462 -0.2994 0.4407
vn -0.9694 0.1944 -0.1496
vn 0.7852 -0.3104 0.5358
vn 0.4639 -0.4468 0.7650
vn 0.2475 0.5982 -0.7621
vn -0.4149 -0.8920 0.1794
vn -0.2304 -0.7538 -0.6154
vn -0.8603 0.1361 -0.4914
vn 0.9087 -0.3994 -0.1210
vn 0.5785 0.4832 -0.6571
vn -0.2198 0.8404 0.4953
vn 0.6417 0.6254 0.4439
vn -0.3123 0.2281 0.9222
vt 0.550384 0.206938
vt 0.375000 0.305791
vt 0.375000 0.049496
vt 0.180791 0.500000
vt 0.330928 0.574320
vt 0.125000 0.700504
vt 0.804283 0.500000
vt 0.842867 0.681766
vt 0.658516 0.626313
vt 0.875000 0.500000
vt 0.501754 0.540833
vt 0.565165 0.799791
vt 0.325310 0.750000
vt 0.604031 0.069198
vt 0.375000 1.000000
vt 0.375000 0.799690
vt 0.578028 1.000000
vt 0.615335 0.592735
vt 0.589707 0.775249
vt 0.581909 0.353207
s 0
g Cube_Material
usemtl Material
f 270/411/247 272/412/247 271/413/247
f 272/414/248 275/415/248 271/416/248
f 276/417/249 273/418/249 277/419/249
f 273/418/250 276/417/250 270/420/250
f 278/421/251 269/422/251 274/423/251 275/415/251
f 271/413/252 273/424/252 270/411/252
f 271/425/253 274/426/253 269/422/253 273/427/253
f 275/415/254 274/423/254 271/416/254
f 277/428/255 273/418/255 269/429/255
f 269/422/256 278/421/256 277/428/256
f 278/421/257 275/415/257 272/412/257 276/430/257
f 278/421/258 276/430/258 277/428/258
f 272/412/259 270/411/259 276/430/259
o Cube
v -0.911450 -0.226332 -1.517382
v -1.300628 0.092065 -2.575769
v -0.792853 0.459381 -2.193210
v -1.405310 0.656886 -2.253284
v -0.982357 -0.406245 -2.197644
v -0.867981 0.421962 -1.560947
v -1.324149 0.728189 -1.702751
v -1.831487 -0.016477 -2.173100
v -1.643955 -0.267088 -1.629795
v -1.760596 0.240055 -1.557024
vn 0.2465 0.5146 -0.8212
vn 0.3174 0.9333 -0.1677
vn -0.4088 -0.8742 -0.2621
vn -0.3379 -0.6963 -0.6332
vn -0.0318 0.1773 0.9836
vn 0.6586 -0.1404 -0.7393
vn 0.9883 -0.1516 0.0196
vn 0.5294 0.8408 0.1127
vn 0.0148 -0.9670 0.2542
vn -0.1401 -0.1721 0.9751
vn -0.8069 0.5876 -0.0600
vn -0.9453 -0.2478 0.2120
vn -0.6145 0.3022 -0.7287
vt 0.550384 0.206938
vt 0.375000 0.305791
vt 0.375000 0.049496
vt 0.180791 0.500000
vt 0.330928 0.574320
vt 0.125000 0.700504
vt 0.804283 0.500000
vt 0.842867 0.681766
vt 0.658516 0.626313
vt 0.875000 0.500000
vt 0.501754 0.540833
vt 0.565165 0.799791
vt 0.325310 0.750000
vt 0.604031 0.069198
vt 0.375000 1.000000
vt 0.375000 0.799690
vt 0.578028 1.000000
vt 0.615335 0.592735
vt 0.589707 0.775249
vt 0.581909 0.353207
s 0
g Cube_Material
usemtl Material
f 280/431/260 282/432/260 281/433/260
f 282/434/261 285/435/261 281/436/261
f 286/437/262 283/438/262 287/439/262
f 283/438/263 286/437/263 280/440/263
f 288/441/264 279/442/264 284/443/264 285/435/264
f 281/433/265 283/444/265 280/431/265
f 281/445/266 284/446/266 279/442/266 283/447/266
f 285/435/267 284/443/267 281/436/267
f 287/448/268 283/438/268 279/449/268
f 279/442/269 288/441/269 287/448/269
f 288/441/270 285/435/270 282/432/270 286/450/270
f 288/441/271 286/450/271 287/448/271
f 282/432/272 280/431/272 286/450/272
o Cube
v -1.509484 0.349386 -1.305892
v -2.458490 0.864243 -1.276558
v -2.073417 0.741817 -0.733631
v -2.569391 0.436835 -0.859735
v -1.855816 0.861869 -1.511702
v -1.760107 0.245720 -0.770407
v -2.245005 0.051822 -0.741562
v -2.529902 0.331047 -1.589298
v -2.016284 0.081878 -1.679549
v -2.248738 -0.152508 -1.325141
vn -0.5380 0.6559 0.5295
vn -0.2796 0.0585 0.9583
vn -0.0631 0.2223 -0.9729
vn -0.3106 0.5115 -0.8012
vn 0.4868 -0.8539 0.1842
vn 0.0707 0.9827 0.1714
vn 0.7513 0.5520 0.3618
vn 0.0709 -0.0291 0.9971
vn 0.5723 0.0583 -0.8180
vn 0.5563 -0.8128 -0.1727
vn -0.8368 -0.5375 0.1042
vn -0.4146 -0.6100 -0.6753
vn -0.9809 0.1776 -0.0789
vt 0.550384 0.206938
vt 0.375000 0.305791
vt 0.375000 0.049496
vt 0.180791 0.500000
vt 0.330928 0.574320
vt 0.125000 0.700504
vt 0.804283 0.500000
vt 0.842867 0.681766
vt 0.658516 0.626313
vt 0.875000 0.500000
vt 0.501754 0.540833
vt 0.565165 0.799791
vt 0.325310 0.750000
vt 0.604031 0.069198
vt 0.375000 1.000000
vt 0.375000 0.799690
vt 0.578028 1.000000
vt 0.615335 0.592735
vt 0.589707 0.775249
vt 0.581909 0.353207
s 0
g Cube_Material
usemtl Material
f 290/451/273 292/452/273 291/453/273
f 292/454/274 295/455/274 291/456/274
f 296/457/275 293/458/275 297/459/275
f 293/458/276 296/457/276 290/460/276
f 298/461/277 289/462/277 294/463/277 295/455/277
f 291/453/278 293/464/278 290/451/278
f 291/465/279 294/466/279 289/462/279 293/467/279
f 295/455/280 294/463/280 291/456/280
f 297/468/281 293/458/281 289/469/281
f 289/462/282 298/461/282 297/468/282
f 298/461/283 295/455/283 292/452/283 296/470/283
f 298/461/284 296/470/284 297/468/284
f 292/452/285 290/451/285 296/470/285
o Cube
v 1.813837 0.360114 -0.202524
v 1.880371 1.065192 -0.086921
v 2.177497 0.816246 -0.314791
v 2.238062 0.943964 0.054910
v 1.641254 0.753079 -0.260544
v 2.202926 0.446773 -0.190667
v 2.335190 0.615582 0.082754
v 1.804079 0.878079 0.273750
v 1.716554 0.508710 0.215861
v 2.017127 0.530930 0.328584
vn 0.4237 0.8325 -0.3570
vn 0.9359 0.2563 -0.2419
vn -0.9511 0.1868 0.2461
vn -0.8189 0.5616 0.1182
vn 0.3074 -0.9158 0.2584
vn -0.1487 0.5653 -0.8114
vn -0.0067 -0.2340 -0.9722
vn 0.9144 -0.0710 -0.3985
vn -0.9100 -0.4094 -0.0662
vn -0.0515 -0.9448 0.3236
vn 0.4539 0.3106 0.8352
vn -0.3462 -0.0646 0.9359
vn 0.1073 0.8731 0.4756
vt 0.550384 0.206938
vt 0.375000 0.305791
vt 0.375000 0.049496
vt 0.180791 0.500000
vt 0.330928 0.574320
vt 0.125000 0.700504
vt 0.804283 0.500000
vt 0.842867 0.681766
vt 0.658516 0.626313
vt 0.875000 0.500000
vt 0.501754 0.540833
vt 0.565165 0.799791
vt 0.325310 0.750000
vt 0.604031 0.069198
vt 0.375000 1.000000
vt 0.375000 0.799690
vt 0.578028 1.000000
vt 0.615335 0.592735
vt 0.589707 0.775249
vt 0.581909 0.353207
s 0
g Cube_Material
usemtl Material
f 300/471/286 302/472/286 301/473/286
f 302/474/287 305/475/287 301/476/287
f 306/477/288 303/478/288 307/479/288
f 303/478/289 306/477/289 300/480/289
f 308/481/290 299/482/290 304/483/290 305/475/290
f 301/473/291 303/484/291 300/471/291
f 301/485/292 304/486/292 299/482/292 303/487/292
f 305/475/293 304/483/293 301/476/293
f 307/488/294 303/478/294 299/489/294
f 299/482/295 308/481/295 307/488/295
f 308/481/296 305/475/296 302/472/296 306/490/296
f 308/481/297 306/490/297 307/488/297
f 302/472/298 300/471/298 306/490/298
o Cube
v -0.306719 0.876692 1.451841
v 0.500842 0.596294 2.065483
v 0.226137 0.206012 1.610504
v 0.136061 0.144990 2.180638
v 0.291003 0.998960 1.628336
v -0.333825 0.298139 1.532802
v -0.334596 0.106539 2.004985
v 0.059262 0.820619 2.415101
v -0.347804 1.043142 2.095948
v -0.491363 0.626735 2.265256
vn 0.7836 -0.6186 0.0576
vn 0.1137 -0.9896 -0.0880
vn 0.2749 0.9171 0.2888
vn 0.6270 0.6993 0.3432
vn -0.9812 -0.0878 -0.1717
vn 0.8768 -0.0610 -0.4770
vn 0.2156 -0.0593 -0.9747
vn -0.0997 -0.9219 -0.3743
vn -0.1207 0.9592 -0.2556
vn -0.9524 0.2748 -0.1318
vn -0.1920 -0.4070 0.8930
vn -0.3799 0.4578 0.8038
vn 0.5331 -0.2226 0.8162
vt 0.550384 0.206938
vt 0.375000 0.305791
vt 0.375000 0.049496
vt 0.180791 0.500000
vt 0.330928 0.574320
vt 0.125000 0.700504
vt 0.804283 0.500000
vt 0.842867 0.681766
vt 0.658516 0.626313
vt 0.875000 0.500000
vt 0.501754 0.540833
vt 0.565165 0.799791
vt 0.325310 0.750000
vt 0.604031 0.069198
vt 0.375000 1.000000
vt 0.375000 0.799690
vt 0.578028 1.000000
vt 0.615335 0.592735
vt 0.589707 0.775249
vt 0.581909 0.353207
s 0
g Cube_Material
usemtl Material
f 310/491/299 312/492/299 311/493/299
f 312/494/300 315/495/300 311/496/300
f 316/497/301 313/498/301 317/499/301
f 313/498/302 316/497/302 310/500/302
f 318/501/303 309/502/303 314/503/303 315/495/303
f 311/493/304 313/504/304 310/491/304
f 311/505/305 314/506/305 309/502/305 313/507/305
f 315/495/306 314/503/306 311/496/306
f 317/508/307 313/498/307 309/509/307
f 309/502/308 318/501/308 317/508/308
f 318/501/309 315/495/309 312/492/309 316/510/309
f 318/501/310 316/510/310 317/508/310
f 312/492/311 310/491/311 316/510/311
o Cube
v -2.002178 0.291812 -0.307601
v -1.286002 0.622043 -0.316802
v -1.631645 0.695872 -0.662234
v -1.284112 0.441024 -0.721576
v -1.692857 0.574306 -0.081522
v -1.889185 0.358341 -0.725850
v -1.558553 0.220817 -0.858659
v -1.239500 0.174250 -0.255249
v -1.616693 -0.004473 -0.192782
v -1.506354 -0.074782 -0.521365
vn 0.5150 0.7834 -0.3479
vn 0.1356 0.3963 -0.9080
vn 0.2321 -0.1541 0.9604
vn 0.4786 0.1682 0.8618
vn -0.5930 -0.7065 -0.3863
vn 0.0039 0.9787 0.2053
vn -0.7377 0.6751 -0.0015
vn -0.2239 0.3428 -0.9123
vn -0.4328 -0.2248 0.8730
vn -0.6031 -0.7970 -0.0320
vn 0.7526 -0.4935 -0.4360
vn 0.4483 -0.8314 0.3284
vn 0.9944 0.0979 -0.0391
vt 0.550384 0.206938
vt 0.375000 0.305791
vt 0.375000 0.049496
vt 0.180791 0.500000
vt 0.330928 0.574320
vt 0.125000 0.700504
vt 0.804283 0.500000
vt 0.842867 0.681766
vt 0.658516 0.626313
vt 0.875000 0.500000
vt 0.501754 0.540833
vt 0.565165 0.799791
vt 0.325310 0.750000
vt 0.604031 0.069198
vt 0.375000 1.000000
vt 0.375000 0.799690
vt 0.578028 1.000000
vt 0.615335 0.592735
vt 0.589707 0.775249
vt 0.581909 0.353207
s 0
g Cube_Material
usemtl Material
f 320/511/312 322/512/312 321/513/312
f 322/514/313 325/515/313 321/516/313
f 326/517/314 323/518/314 327/519/314
f 323/518/315 326/517/315 320/520/315
f 328/521/316 319/522/316 324/523/316 325/515/316
f 321/513/317 323/524/317 320/511/317
f 321/525/318 324/526/318 319/522/318 323/527/318
f 325/515/319 324/523/319 321/516/319
f 327/528/320 323/518/320 319/529/320
f 319/522/321 328/521/321 327/528/321
f 328/521/322 325/515/322 322/512/322 326/530/322
f 328/521/323 326/530/323 327/528/323
f 322/512/324 320/511/324 326/530/324
o Cube
v -3.223827 0.391797 5.484239
v -3.229206 1.164068 5.577162
v -3.130106 0.844982 5.932041
v -3.503177 1.054428 5.899909
v -3.039294 0.802853 5.352370
v -3.334567 0.476227 5.893494
v -3.622302 0.707975 5.966897
v -3.611921 1.040146 5.379662
v -3.596290 0.637504 5.275302
v -3.796504 0.676152 5.558306
vn 0.3671 0.7403 0.5631
vn 0.0185 0.1837 0.9828
vn 0.0586 0.2526 -0.9658
vn 0.2089 0.5935 -0.7772
vn -0.4875 -0.8584 0.1598
vn 0.9066 0.4067 0.1125
vn 0.8812 -0.4118 0.2323
vn 0.1157 -0.1665 0.9792
vn 0.2394 -0.3924 -0.8881
vn -0.4564 -0.8659 -0.2046
vn -0.8600 0.4505 0.2396
vn -0.8026 0.1203 -0.5842
vn -0.3276 0.9439 0.0426
vt 0.550384 0.206938
vt 0.375000 0.305791
vt 0.375000 0.049496
vt 0.180791 0.500000
vt 0.330928 0.574320
vt 0.125000 0.700504
vt 0.804283 0.500000
vt 0.842867 0.681766
vt 0.658516 0.626313
vt 0.875000 0.500000
vt 0.501754 0.540833
vt 0.565165 0.799791
vt 0.325310 0.750000
vt 0.604031 0.069198
vt 0.375000 1.000000
vt 0.375000 0.799690
vt 0.578028 1.000000
vt 0.615335 0.592735
vt 0.589707 0.775249
vt 0.581909 0.353207
s 0
g Cube_Material
usemtl Material
f 330/531/325 332/532/325 331/533/325
f 332/534/326 335/535/326 331/536/326
f 336/537/327 333/538/327 337/539/327
f 333/538/328 336/537/328 330/540/328
f 338/541/329 329/542/329 334/543/329 335/535/329
f 331/533/330 333/544/330 330/531/330
f 331/545/331 334/546/331 329/542/331 333/547/331
f 335/535/332 334/543/332 331/536/332
f 337/548/333 333/538/333 329/549/333
f 329/542/334 338/541/334 337/548/334
f 338/541/335 335/535/335 332/532/335 336/550/335
f 338/541/336 336/550/336 337/548/336
f 332/532/337 330/531/337 336/550/337
o Cube
v 3.694390 0.860629 -4.018446
v 4.671780 0.907081 -4.211649
v 4.369007 0.385443 -4.047895
v 4.693793 0.667646 -3.705082
v 4.119700 0.989556 -4.424474
v 3.947216 0.470323 -3.716804
v 4.314131 0.589424 -3.426182
v 4.538531 1.318884 -3.833694
v 4.009037 1.351488 -3.775212
v 4.185397 1.145673 -3.419441
vn 0.7843 -0.5471 -0.2927
vn 0.4091 -0.8557 0.3169
vn -0.0000 0.8735 -0.4869
vn 0.3472 0.6926 -0.6322
vn -0.7039 -0.0633 0.7075
vn 0.2690 -0.4271 -0.8633
vn -0.4813 -0.6466 -0.5918
vn 0.0573 -0.9471 0.3158
vn -0.6279 0.6294 -0.4579
vn -0.8037 0.2470 0.5413
vn 0.6284 0.2230 0.7452
vn 0.1050 0.8825 0.4585
vn 0.9667 0.2450 0.0738
vt 0.550384 0.206938
vt 0.375000 0.305791
vt 0.375000 0.049496
vt 0.180791 0.500000
vt 0.330928 0.574320
vt 0.125000 0.700504
vt 0.804283 0.500000
vt 0.842867 0.681766
vt 0.658516 0.626313
vt 0.875000 0.500000
vt 0.501754 0.540833
vt 0.565165 0.799791
vt 0.325310 0.750000
vt 0.604031 0.069198
vt 0.375000 1.000000
vt 0.375000 0.799690
vt 0.578028 1.000000
vt 0.615335 0.592735
vt 0.589707 0.775249
vt 0.581909 0.353207
s 0
g Cube_Material
usemtl Material
f 340/551/338 342/552/338 341/553/338
f 342/554/339 345/555/339 341/556/339
f 346/557/340 343/558/340 347/559/340
f 343/558/341 346/557/341 340/560/341
f 348/561/342 339/562/342 344/563/342 345/555/342
f 341/553/343 343/564/343 340/551/343
f 341/565/344 344/566/344 339/562/344 343/567/344
f 345/555/345 344/563/345 341/556/345
f 347/568/346 343/558/346 339/569/346
f 339/562/347 348/561/347 347/568/347
f 348/561/348 345/555/348 342/552/348 346/570/348
f 348/561/349 346/570/349 347/568/349
f 342/552/350 340/551/350 346/570/350
o Cube
v -5.691120 -0.183861 -1.635205
v -5.009619 -0.336590 -2.029347
v -5.058039 -0.353548 -1.529463
v -4.857108 -0.022835 -1.743740
v -5.468403 -0.462234 -1.962582
v -5.350788 -0.071609 -1.370237
v -5.077628 0.173100 -1.497952
v -5.179781 0.066506 -2.177749
v -5.571975 0.130696 -2.015836
v -5.335215 0.337132 -1.840763
vn 0.8716 -0.4855 0.0680
vn 0.7392 -0.0128 0.6734
vn -0.3982 -0.1508 -0.9048
vn -0.0374 -0.3591 -0.9326
vn -0.5075 0.6587 0.5554
vn 0.2631 -0.9647 -0.0072
vn -0.3003 -0.7678 0.5660
vn 0.4500 -0.0367 0.8923
vn -0.8797 -0.1927 -0.4346
vn -0.7395 0.6140 0.2760
vn 0.6149 0.7597 -0.2115
vn -0.1524 0.7351 -0.6606
vn 0.8083 0.1298 -0.5742
vt 0.550384 0.206938
vt 0.375000 0.305791
vt 0.375000 0.049496
vt 0.180791 0.500000
vt 0.330928 0.574320
vt 0.125000 0.700504
vt 0.804283 0.500000
vt 0.842867 0.681766
vt 0.658516 0.626313
vt 0.875000 0.500000
vt 0.501754 0.540833
vt 0.565165 0.799791
vt 0.325310 0.750000
vt 0.604031 0.069198
vt 0.375000 1.000000
vt 0.375000 0.799690
vt 0.578028 1.000000
vt 0.615335 0.592735
vt 0.589707 0.775249
vt 0.581909 0.353207
s 0
g Cube_Material
usemtl Material
f 350/571/351 352/572/351 351/573/351
f 352/574/352 355/575/352 351/576/352
f 356/577/353 353/578/353 357/579/353
f 353/578/354 356/577/354 350/580/354
f 358/581/355 349/582/355 354/583/355 355/575/355
f 351/573/356 353/584/356 350/571/356
f 351/585/357 354/586/357 349/582/357 353/587/357
f 355/575/358 354/583/358 351/576/358
f 357/588/359 353/578/359 349/589/359
f 349/582/360 358/581/360 357/588/360
f 358/581/361 355/575/361 352/572/361 356/590/361
f 358/581/362 356/590/362 357/588/362
f 352/572/363 350/571/363 356/590/363
o Cube
v 3.834828 0.159808 2.770325
v 4.519370 0.534727 2.370521
v 4.350800 0.019761 2.279200
v 4.742261 0.129475 2.541267
v 4.002088 0.554240 2.459561
v 4.155354 -0.190518 2.660548
v 4.559033 -0.156660 2.787934
v 4.567185 0.599624 2.869271
v 4.177484 0.458649 3.089402
v 4.459715 0.189174 3.138033
vn 0.5632 -0.0380 -0.8254
vn 0.5118 -0.7250 -0.4609
vn -0.2269 0.9515 0.2076
vn 0.0149 0.9913 -0.1304
vn -0.2989 -0.6449 0.7034
vn -0.1573 0.2221 -0.9623
vn -0.6976 -0.3170 -0.6425
vn 0.1993 -0.8977 -0.3929
vn -0.7702 0.5629 0.2999
vn -0.4651 -0.3396 0.8175
vn 0.9002 -0.0561 0.4318
vn 0.3014 0.4658 0.8319
vn 0.8914 0.4306 -0.1415
vt 0.550384 0.206938
vt 0.375000 0.305791
vt 0.375000 0.049496
vt 0.180791 0.500000
vt 0.330928 0.574320
vt 0.125000 0.700504
vt 0.804283 0.500000
vt 0.842867 0.681766
vt 0.658516 0.626313
vt 0.875000 0.500000
vt 0.501754 0.540833
vt 0.565165 0.799791
vt 0.325310 0.750000
vt 0.604031 0.069198
vt 0.375000 1.000000
vt 0.375000 0.799690
vt 0.578028 1.000000
vt 0.615335 0.592735
vt 0.589707 0.775249
vt 0.581909 0.353207
s 0
g Cube_Material
usemtl Material
f 360/591/364 362/592/364 361/593/364
f 362/594/365 365/595/365 361/596/365
f 366/597/366 363/598/366 367/599/366
f 363/598/367 366/597/367 360/600/367
f 368/601/368 359/602/368 364/603/368 365/595/368
f 361/593/369 363/604/369 360/591/369
f 361/605/370 364/606/370 359/602/370 363/607/370
f 365/595/371 364/603/371 361/596/371
f 367/608/372 363/598/372 359/609/372
f 359/602/373 368/601/373 367/608/373
f 368/601/374 365/595/374 362/592/374 366/610/374
f 368/601/375 366/610/375 367/608/375
f 362/592/376 360/591/376 366/610/376
o Cube
v 4.482588 -0.037894 3.316769
v 4.048474 0.719230 2.529917
v 3.973146 0.788846 3.259063
v 3.495066 0.592717 2.867822
v 4.626979 0.413182 2.788869
v 3.944881 0.231391 3.571407
v 3.454538 0.215318 3.283123
v 3.859910 0.092730 2.355940
v 4.152032 -0.330664 2.717592
v 3.651490 -0.281753 2.874851
vn -0.2907 0.9492 -0.1207
vn -0.6399 0.5988 0.4817
vn 0.5581 -0.2816 -0.7805
vn 0.4536 0.1091 -0.8845
vn -0.2043 -0.7451 0.6349
vn 0.4793 0.8770 -0.0342
vn 0.6277 0.4320 0.6475
vn -0.4633 0.4509 0.7629
vn 0.8331 -0.5119 -0.2095
vn 0.0431 -0.9068 0.4193
vn -0.9114 -0.1661 -0.3765
vn -0.2696 -0.7262 -0.6324
vn -0.5442 0.3725 -0.7517
vt 0.550384 0.206938
vt 0.375000 0.305791
vt 0.375000 0.049496
vt 0.180791 0.500000
vt 0.330928 0.574320
vt 0.125000 0.700504
vt 0.804283 0.500000
vt 0.842867 0.681766
vt 0.658516 0.626313
vt 0.875000 0.500000
vt 0.501754 0.540833
vt 0.565165 0.799791
vt 0.325310 0.750000
vt 0.604031 0.069198
vt 0.375000 1.000000
vt 0.375000 0.799690
vt 0.578028 1.000000
vt 0.615335 0.592735
vt 0.589707 0.775249
vt 0.581909 0.353207
s 0
g Cube_Material
usemtl Material
f 370/611/377 372/612/377 371/613/377
f 372/614/378 375/615/378 371/616/378
f 376/617/379 373/618/379 377/619/379
f 373/618/380 376/617/380 370/620/380
f 378/621/381 369/622/381 374/623/381 375/615/381
f 371/613/382 373/624/382 370/611/382
f 371/625/383 374/626/383 369/622/383 373/627/383
f 375/615/384 374/623/384 371/616/384
f 377/628/385 373/618/385 369/629/385
f 369/622/386 378/621/386 377/628/386
f 378/621/387 375/615/387 372/612/387 376/630/387
f 378/621/388 376/630/388 377/628/388
f 372/612/389 370/611/389 376/630/389
o Cube
v 5.143177 0.777580 -0.871037
v 5.063788 -0.201810 -0.643638
v 5.281222 0.239877 -0.247355
v 5.609494 -0.123869 -0.510794
v 4.771243 0.299406 -0.811386
v 5.541541 0.654005 -0.496584
v 5.852417 0.287263 -0.582566
v 5.347620 -0.149672 -1.147975
v 5.334732 0.362593 -1.317360
v 5.744397 0.270135 -1.149508
vn -0.0947 -0.6386 0.7637
vn 0.5096 -0.1533 0.8467
vn -0.6293 -0.2582 -0.7330
vn -0.6974 -0.5577 -0.4501
vn 0.6171 0.7470 -0.2475
vn -0.7357 -0.2143 0.6425
vn -0.5227 0.5850 0.6201
vn 0.4820 0.2091 0.8509
vn -0.6340 0.4115 -0.6547
vn 0.3880 0.7521 -0.5327
vn 0.7650 -0.6077 -0.2133
vn 0.3055 -0.2920 -0.9063
vn 0.1461 -0.9891 -0.0200
vt 0.550384 0.206938
vt 0.375000 0.305791
vt 0.375000 0.049496
vt 0.180791 0.500000
vt 0.330928 0.574320
vt 0.125000 0.700504
vt 0.804283 0.500000
vt 0.842867 0.681766
vt 0.658516 0.626313
vt 0.875000 0.500000
vt 0.501754 0.540833
vt 0.565165 0.799791
vt 0.325310 0.750000
vt 0.604031 0.069198
vt 0.375000 1.000000
vt 0.375000 0.799690
vt 0.578028 1.000000
vt 0.615335 0.592735
vt 0.589707 0.775249
vt 0.581909 0.353207
s 0
g Cube_Material
usemtl Material
f 380/631/390 382/632/390 381/633/390
f 382/634/391 385/635/391 381/636/391
f 386/637/392 383/638/392 387/639/392
f 383/638/393 386/637/393 380/640/393
f 388/641/394 379/642/394 384/643/394 385/635/394
f 381/633/395 383/644/395 380/631/395
f 381/645/396 384/646/396 379/642/396 383/647/396
f 385/635/397 384/643/397 381/636/397
f 387/648/398 383/638/398 379/649/398
f 379/642/399 388/641/399 387/648/399
f 388/641/400 385/635/400 382/632/400 386/650/400
f 388/641/401 386/650/401 387/648/401
f 382/632/402 380/631/402 386/650/402
o Cube
v -2.842473 0.262557 -3.131506
v -3.360468 -0.430442 -3.760844
v -2.903126 -0.604361 -3.302560
v -2.795451 -0.596850 -3.882722
v -3.414495 0.022582 -3.310842
v -2.486788 -0.205422 -3.221045
v -2.378163 -0.359890 -3.703493
v -3.121670 0.016023 -4.112372
v -2.907297 0.433219 -3.784120
v -2.547965 0.169191 -3.961147
vn -0.2952 -0.9531 -0.0671
vn 0.4677 -0.8807 0.0754
vn -0.7477 0.6030 -0.2781
vn -0.9147 0.2247 -0.3360
vn 0.8590 0.4819 0.1729
vn -0.6853 -0.5527 0.4742
vn -0.1390 -0.1823 0.9734
vn 0.6066 -0.7073 0.3630
vn -0.4429 0.8557 0.2678
vn 0.6296 0.7647 0.1374
vn 0.3844 -0.2161 -0.8975
vn 0.0495 0.6018 -0.7971
vn -0.3172 -0.4761 -0.8202
vt 0.550384 0.206938
vt 0.375000 0.305791
vt 0.375000 0.049496
vt 0.180791 0.500000
vt 0.330928 0.574320
vt 0.125000 0.700504
vt 0.804283 0.500000
vt 0.842867 0.681766
vt 0.658516 0.626313
vt 0.875000 0.500000
vt 0.501754 0.540833
vt 0.565165 0.799791
vt 0.325310 0.750000
vt 0.604031 0.069198
vt 0.375000 1.000000
vt 0.375000 0.799690
vt 0.578028 1.000000
vt 0.615335 0.592735
vt 0.589707 0.775249
vt 0.581909 0.353207
s 0
g Cube_Material
usemtl Material
f 390/651/403 392/652/403 391/653/403
f 392/654/404 395/655/404 391/656/404
f 396/657/405 393/658/405 397/659/405
f 393/658/406 396/657/406 390/660/406
f 398/661/407 389/662/407 394/663/407 395/655/407
f 391/653/408 393/664/408 390/651/408
f 391/665/409 394/666/409 389/662/409 393/667/409
f 395/655/410 394/663/410 391/656/410
f 397/668/411 393/658/411 389/669/411
f 389/662/412 398/661/412 397/668/412
f 398/661/413 395/655/413 392/652/413 396/670/413
f 398/661/414 396/670/414 397/668/414
f 392/652/415 390/651/415 396/670/415
o Cube
v -4.423066 0.588859 1.313639
v -4.358179 0.721510 2.122853
v -3.956974 0.664363 1.804347
v -4.096785 0.341371 2.090679
v -4.524201 0.893789 1.692147
v -4.037023 0.391464 1.458525
v -4.047035 0.132152 1.760728
v -4.657300 0.360987 2.051167
v -4.744912 0.318893 1.621863
v -4.510085 0.053997 1.725533
vn 0.6109 0.3604 0.7049
vn 0.9488 -0.1817 0.2583
vn -0.9283 0.3373 0.1564
vn -0.7202 0.5024 0.4785
vn 0.0623 -0.6715 -0.7384
vn 0.3223 0.9152 0.2418
vn 0.4606 0.7003 -0.5453
vn 0.9821 -0.1578 -0.1028
vn -0.7851 0.3628 -0.5020
vn -0.2822 -0.5561 -0.7817
vn -0.0002 -0.7857 0.6186
vn -0.7711 -0.5990 0.2161
vn -0.0744 -0.1348 0.9881
vt 0.550384 0.206938
vt 0.375000 0.305791
vt 0.375000 0.049496
vt 0.180791 0.500000
vt 0.330928 0.574320
vt 0.125000 0.700504
vt 0.804283 0.500000
vt 0.842867 0.681766
vt 0.658516 0.626313
vt 0.875000 0.500000
vt 0.501754 0.540833
vt 0.565165 0.799791
vt 0.325310 0.750000
vt 0.604031 0.069198
vt 0.375000 1.000000
vt 0.375000 0.799690
vt 0.578028 1.000000
vt 0.615335 0.592735
vt 0.589707 0.775249
vt 0.581909 0.353207
s 0
g Cube_Material
usemtl Material
f 400/671/416 402/672/416 401/673/416
f 402/674/417 405/675/417 401/676/417
f 406/677/418 403/678/418 407/679/418
f 403/678/419 406/677/419 400/680/419
f 408/681/420 399/682/420 404/683/420 405/675/420
f 401/673/421 403/684/421 400/671/421
f 401/685/422 404/686/422 399/682/422 403/687/422
f 405/675/423 404/683/423 401/676/423
f 407/688/424 403/678/424 399/689/424
f 399/682/425 408/681/425 407/688/425
f 408/681/426 405/675/426 402/672/426 406/690/426
f 408/681/427 406/690/427 407/688/427
f 402/672/428 400/671/428 406/690/428
o Cube
v -1.001671 0.445061 4.433850
v -1.109624 0.131836 3.666357
v -1.142951 -0.148633 4.107503
v -0.781364 -0.166349 3.821945
v -1.269554 0.462478 4.006660
v -0.871258 -0.000779 4.441220
v -0.597028 -0.135995 4.175919
v -0.696668 0.379483 3.675735
v -0.657542 0.600508 4.062667
v -0.433055 0.300337 4.067489
vn -0.4361 -0.7441 -0.5060
vn 0.0132 -0.9968 0.0786
vn -0.1512 0.8648 -0.4787
vn -0.3377 0.5908 -0.7327
vn 0.6146 0.0796 0.7848
vn -0.9475 -0.2325 -0.2194
vn -0.7974 -0.1337 0.5884
vn -0.0326 -0.9037 0.4269
vn -0.2323 0.9550 0.1846
vn 0.5635 0.4327 0.7037
vn 0.7988 -0.3323 -0.5016
vn 0.7411 0.5480 -0.3880
vn 0.1901 -0.2814 -0.9406
vt 0.550384 0.206938
vt 0.375000 0.305791
vt 0.375000 0.049496
vt 0.180791 0.500000
vt 0.330928 0.574320
vt 0.125000 0.700504
vt 0.804283 0.500000
vt 0.842867 0.681766
vt 0.658516 0.626313
vt 0.875000 0.500000
vt 0.501754 0.540833
vt 0.565165 0.799791
vt 0.325310 0.750000
vt 0.604031 0.069198
vt 0.375000 1.000000
vt 0.375000 0.799690
vt 0.578028 1.000000
vt 0.615335 0.592735
vt 0.589707 0.775249
vt 0.581909 0.353207
s 0
g Cube_Material
usemtl Material
f 410/691/429 412/692/429 411/693/429
f 412/694/430 415/695/430 411/696/430
f 416/697/431 413/698/431 417/699/431
f 413/698/432 416/697/432 410/700/432
f 418/701/433 409/702/433 414/703/433 415/695/433
f 411/693/434 413/704/434 410/691/434
f 411/705/435 414/706/435 409/702/435 413/707/435
f 415/695/436 414/703/436 411/696/436
f 417/708/437 413/698/437 409/709/437
f 409/702/438 418/701/438 417/708/438
f 418/701/439 415/695/439 412/692/439 416/710/439
f 418/701/440 416/710/440 417/708/440
f 412/692/441 410/691/441 416/710/441
o Cube
v 3.786805 -0.646630 -0.164725
v 4.086890 -0.363855 0.610240
v 3.554080 -0.404590 0.479776
v 3.792823 0.016255 0.497974
v 4.071570 -0.761817 0.266950
v 3.461743 -0.331330 0.016724
v 3.585783 0.057806 0.134572
v 4.321135 -0.108086 0.242158
v 4.215527 -0.292770 -0.176637
v 4.014612 0.042075 -0.126984
vn -0.2437 0.0965 0.9650
vn -0.7692 0.4153 0.4857
vn 0.9305 -0.3581 -0.0767
vn 0.8838 -0.3246 0.3369
vn -0.4027 0.2582 -0.8782
vn -0.1351 -0.6442 0.7528
vn -0.5974 -0.7976 0.0838
vn -0.9459 0.2332 0.2255
vn 0.5320 -0.6623 -0.5276
vn -0.0996 0.0872 -0.9912
vn 0.2030 0.9727 0.1122
vn 0.7515 0.5125 -0.4155
vn 0.4639 0.5613 0.6853
vt 0.550384 0.206938
vt 0.375000 0.305791
vt 0.375000 0.049496
vt 0.180791 0.500000
vt 0.330928 0.574320
vt 0.125000 0.700504
vt 0.804283 0.500000
vt 0.842867 0.681766
vt 0.658516 0.626313
vt 0.875000 0.500000
vt 0.501754 0.540833
vt 0.565165 0.799791
vt 0.325310 0.750000
vt 0.604031 0.069198
vt 0.375000 1.000000
vt 0.375000 0.799690
vt 0.578028 1.000000
vt 0.615335 0.592735
vt 0.589707 0.775249
vt 0.581909 0.353207
s 0
g Cube_Material
usemtl Material
f 420/711/442 422/712/442 421/713/442
f 422/714/443 425/715/443 421/716/443
f 426/717/444 423/718/444 427/719/444
f 423/718/445 426/717/445 420/720/445
f 428/721/446 419/722/446 424/723/446 425/715/446
f 421/713/447 423/724/447 420/711/447
f 421/725/448 424/726/448 419/722/448 423/727/448
f 425/715/449 424/723/449 421/716/449
f 427/728/450 423/718/450 419/729/450
f 419/722/451 428/721/451 427/728/451
f 428/721/452 425/715/452 422/712/452 426/730/452
f 428/721/453 426/730/453 427/728/453
f 422/712/454 420/711/454 426/730/454
o Cube
v 0.647259 0.365160 -3.265789
v 0.288184 0.352677 -4.009287
v 0.606194 0.726245 -3.844809
v 0.154106 0.775075 -3.870978
v 0.592115 0.119889 -3.696128
v 0.587746 0.799429 -3.401714
v 0.225181 0.926423 -3.512704
v -0.045498 0.283961 -3.677225
v 0.142148 0.230211 -3.280801
v -0.003591 0.569903 -3.302852
vn 0.0905 0.3357 -0.9376
vn 0.1213 0.9055 -0.4066
vn -0.2495 -0.9683 -0.0132
vn -0.2378 -0.8757 -0.4202
vn -0.0025 0.4011 0.9160
vn 0.6249 -0.1996 -0.7548
vn 0.9982 0.0292 -0.0526
vn 0.3645 0.9211 -0.1369
vn 0.2160 -0.8599 0.4624
vn -0.0421 0.0467 0.9980
vn -0.9067 0.4087 -0.1041
vn -0.8649 -0.3475 0.3623
vn -0.7062 0.0077 -0.7080
vt 0.550384 0.206938
vt 0.375000 0.305791
vt 0.375000 0.049496
vt 0.180791 0.500000
vt 0.330928 0.574320
vt 0.125000 0.700504
vt 0.804283 0.500000
vt 0.842867 0.681766
vt 0.658516 0.626313
vt 0.875000 0.500000
vt 0.501754 0.540833
vt 0.565165 0.799791
vt 0.325310 0.750000
vt 0.604031 0.069198
vt 0.375000 1.000000
vt 0.375000 0.799690
vt 0.578028 1.000000
vt 0.615335 0.592735
vt 0.589707 0.775249
vt 0.581909 0.353207
s 0
g Cube_Material
usemtl Material
f 430/731/455 432/732/455 431/733/455
f 432/734/456 435/735/456 431/736/456
f 436/737/457 433/738/457 437/739/457
f 433/738/458 436/737/458 430/740/458
f 438/741/459 429/742/459 434/743/459 435/735/459
f 431/733/460 433/744/460 430/731/460
f 431/745/461 434/746/461 429/742/461 433/747/461
f 435/735/462 434/743/462 431/736/462
f 437/748/463 433/738/463 429/749/463
f 429/742/464 438/741/464 437/748/464
f 438/741/465 435/735/465 432/732/465 436/750/465
f 438/741/466 436/750/466 437/748/466
f 432/732/467 430/731/467 436/750/467
o Cube
v 2.830775 0.307268 -2.203758
v 2.088524 -0.281949 -2.557218
v 2.559834 -0.049218 -2.911333
v 2.039394 0.151470 -2.922039
v 2.551378 -0.234408 -2.169227
v 2.744590 0.441272 -2.742827
v 2.295433 0.561746 -2.896604
v 1.851656 0.157539 -2.256693
v 2.237202 0.439559 -2.002211
v 2.094900 0.672076 -2.364711
vn -0.2324 -0.6416 -0.7310
vn 0.0358 0.0396 -0.9986
vn -0.3133 -0.3634 0.8774
vn -0.4439 -0.6564 0.6100
vn 0.3647 0.9292 0.0595
vn 0.2873 -0.9301 -0.2288
vn 0.9087 -0.3889 -0.1520
vn 0.3612 0.1784 -0.9153
vn 0.3011 -0.0948 0.9489
vn 0.3298 0.8482 0.4146
vn -0.8463 0.4287 -0.3161
vn -0.6971 0.4472 0.5605
vn -0.9132 -0.3180 -0.2548
vt 0.550384 0.206938
vt 0.375000 0.305791
vt 0.375000 0.049496
vt 0.180791 0.500000
vt 0.330928 0.574320
vt 0.125000 0.700504
vt 0.804283 0.500000
vt 0.842867 0.681766
vt 0.658516 0.626313
vt 0.875000 0.500000
vt 0.501754 0.540833
vt 0.565165 0.799791
vt 0.325310 0.750000
vt 0.604031 0.069198
vt 0.375000 1.000000
vt 0.375000 0.799690
vt 0.578028 1.000000
vt 0.615335 0.592735
vt 0.589707 0.775249
vt 0.581909 0.353207
s 0
g Cube_Material
usemtl Material
f 440/751/468 442/752/468 441/753/468
f 442/754/469 445/755/469 441/756/469
f 446/757/470 443/758/470 447/759/470
f 443/758/471 446/757/471 440/760/471
f 448/761/472 439/762/472 444/763/472 445/755/472
f 441/753/473 443/764/473 440/751/473
f 441/765/474 444/766/474 439/762/474 443/767/474
f 445/755/475 444/763/475 441/756/475
f 447/768/476 443/758/476 439/769/476
f 439/762/477 448/761/477 447/768/477
f 448/761/478 445/755/478 442/752/478 446/770/478
f 448/761/479 446/770/479 447/768/479
f 442/752/480 440/751/480 446/770/480
o Cube
v -3.214252 -0.365986 -0.258144
v -3.280054 0.426882 -0.712539
v -2.855504 0.296126 -0.348858
v -3.233029 0.611873 -0.234109
v -3.236610 -0.118733 -0.752262
v -2.994159 -0.004086 0.024451
v -3.218889 0.364261 0.127729
v -3.739789 0.330839 -0.471603
v -3.739522 -0.120156 -0.279322
v -3.688213 0.156045 0.020479
vn 0.5362 0.7682 -0.3497
vn 0.6554 0.6350 0.4089
vn -0.6537 -0.2971 -0.6960
vn -0.4684 0.0270 -0.8831
vn -0.1123 -0.4648 0.8783
vn 0.6656 0.1068 -0.7386
vn 0.8512 -0.4878 -0.1937
vn 0.7749 0.3199 0.5451
vn -0.3749 -0.8357 -0.4012
vn -0.3372 -0.6629 0.6684
vn -0.5203 0.7488 0.4105
vn -0.9912 0.0515 0.1222
vn -0.3467 0.8858 -0.3084
vt 0.550384 0.206938
vt 0.375000 0.305791
vt 0.375000 0.049496
vt 0.180791 0.500000
vt 0.330928 0.574320
vt 0.125000 0.700504
vt 0.804283 0.500000
vt 0.842867 0.681766
vt 0.658516 0.626313
vt 0.875000 0.500000
vt 0.501754 0.540833
vt 0.565165 0.799791
vt 0.325310 0.750000
vt 0.604031 0.069198
vt 0.375000 1.000000
vt 0.375000 0.799690
vt 0.578028 1.000000
vt 0.615335 0.592735
vt 0.589707 0.775249
vt 0.581909 0.353207
s 0
g Cube_Material
usemtl Material
f 450/771/481 452/772/481 451/773/481
f 452/774/482 455/775/482 451/776/482
f 456/777/483 453/778/483 457/779/483
f 453/778/484 456/777/484 450/780/484
f 458/781/485 449/782/485 454/783/485 455/775/485
f 451/773/486 453/784/486 450/771/486
f 451/785/487 454/786/487 449/782/487 453/787/487
f 455/775/488 454/783/488 451/776/488
f 457/788/489 453/778/489 449/789/489
f 449/782/490 458/781/490 457/788/490
f 458/781/491 455/775/491 452/772/491 456/790/491
f 458/781/492 456/790/492 457/788/492
f 452/772/493 450/771/493 456/790/493
o Cube
v 1.322205 0.028571 -2.064970
v 1.828950 0.988234 -2.325788
v 1.310657 0.701722 -2.697848
v 1.901021 0.687615 -2.871857
v 1.469579 0.656353 -1.870110
v 1.301971 0.094470 -2.681427
v 1.757542 0.180314 -2.959306
v 2.277402 0.538481 -2.225235
v 2.026767 0.041720 -2.008145
v 2.139852 -0.026438 -2.490921
vn -0.1241 0.8622 -0.4911
vn -0.2694 0.2371 -0.9334
vn 0.4177 0.1786 0.8909
vn 0.4004 0.5612 0.7244
vn -0.0926 -0.9733 -0.2102
vn -0.5596 0.8147 0.1521
vn -0.9858 0.1057 0.1304
vn -0.5185 -0.0157 -0.8549
vn -0.0720 -0.2802 0.9572
vn 0.0071 -0.9899 0.1414
vn 0.8222 -0.0283 -0.5685
vn 0.9030 -0.3421 0.2598
vn 0.7119 0.6507 -0.2643
vt 0.550384 0.206938
vt 0.375000 0.305791
vt 0.375000 0.049496
vt 0.180791 0.500000
vt 0.330928 0.574320
vt 0.125000 0.700504
vt 0.804283 0.500000
vt 0.842867 0.681766
vt 0.658516 0.626313
vt 0.875000 0.500000
vt 0.501754 0.540833
vt 0.565165 0.799791
vt 0.325310 0.750000
vt 0.604031 0.069198
vt 0.375000 1.000000
vt 0.375000 0.799690
vt 0.578028 1.000000
vt 0.615335 0.592735
vt 0.589707 0.775249
vt 0.581909 0.353207
s 0
g Cube_Material
usemtl Material
f 460/791/494 462/792/494 461/793/494
f 462/794/495 465/795/495 461/796/495
f 466/797/496 463/798/496 467/799/496
f 463/798/497 466/797/497 460/800/497
f 468/801/498 459/802/498 464/803/498 465/795/498
f 461/793/499 463/804/499 460/791/499
f 461/805/500 464/806/500 459/802/500 463/807/500
f 465/795/501 464/803/501 461/796/501
f 467/808/502 463/798/502 459/809/502
f 459/802/503 468/801/503 467/808/503
f 468/801/504 465/795/504 462/792/504 466/810/504
f 468/801/505 466/810/505 467/808/505
f 462/792/506 460/791/506 466/810/506
o Cube
v -2.638132 -0.027279 -0.628938
v -2.953413 -0.074477 -0.021431
v -3.156971 -0.055877 -0.399629
v -3.135429 0.236125 -0.159894
v -2.689925 -0.249763 -0.283570
v -2.977325 0.144310 -0.658687
v -3.062015 0.383446 -0.444167
v -2.692535 0.222088 -0.006413
v -2.485039 0.224154 -0.309268
v -2.693243 0.449995 -0.326502
vn -0.8462 -0.2994 0.4407
vn -0.9694 0.1944 -0.1496
vn 0.7852 -0.3104 0.5358
vn 0.4639 -0.4468 0.7650
vn 0.2475 0.5982 -0.7621
vn -0.4149 -0.8920 0.1794
vn -0.2304 -0.7538 -0.6154
vn -0.8603 0.1361 -0.4914
vn 0.9087 -0.3994 -0.1210
vn 0.5785 0.4832 -0.6571
vn -0.2198 0.8404 0.4953
vn 0.6417 0.6254 0.4439
vn -0.3123 0.2281 0.9222
vt 0.550384 0.206938
vt 0.375000 0.305791
vt 0.375000 0.049496
vt 0.180791 0.500000
vt 0.330928 0.574320
vt 0.125000 0.700504
vt 0.804283 0.500000
vt 0.842867 0.681766
vt 0.658516 0.626313
vt 0.875000 0.500000
vt 0.501754 0.540833
vt 0.565165 0.799791
vt 0.325310 0.750000
vt 0.604031 0.069198
vt 0.375000 1.000000
vt 0.375000 0.799690
vt 0.578028 1.000000
vt 0.615335 0.592735
vt 0.589707 0.775249
vt 0.581909 0.353207
s 0
g Cube_Material
usemtl Material
f 470/811/507 472/812/507 471/813/507
f 472/814/508 475/815/508 471/816/508
f 476/817/509 473/818/509 477/819/509
f 473/818/510 476/817/510 470/820/510
f 478/821/511 469/822/511 474/823/511 475/815/511
f 471/813/512 473/824/512 470/811/512
f 471/825/513 474/826/513 469/822/513 473/827/513
f 475/815/514 474/823/514 471/816/514
f 477/828/515 473/818/515 469/829/515
f 469/822/516 478/821/516 477/828/516
f 478/821/517 475/815/517 472/812/517 476/830/517
f 478/821/518 476/830/518 477/828/518
f 472/812/519 470/811/519 476/830/519
o Cube
v -0.790229 -0.123900 -1.307499
v -1.128032 0.152465 -2.226169
v -0.687287 0.471292 -1.894112
v -1.218895 0.642725 -1.946255
v -0.851775 -0.280063 -1.897960
v -0.752499 0.438813 -1.345313
v -1.148447 0.704615 -1.468397
v -1.588813 0.058252 -1.876656
v -1.426037 -0.159276 -1.405072
v -1.527279 0.280919 -1.341908
vn 0.2465 0.5146 -0.8212
vn 0.3174 0.9333 -0.1677
vn -0.4088 -0.8742 -0.2621
vn -0.3379 -0.6963 -0.6332
vn -0.0318 0.1773 0.9836
vn 0.6586 -0.1404 -0.7393
vn 0.9883 -0.1516 0.0196
vn 0.5294 0.8408 0.1127
vn 0.0148 -0.9670 0.2542
vn -0.1401 -0.1721 0.9751
vn -0.8069 0.5876 -0.0600
vn -0.9453 -0.2478 0.2120
vn -0.6145 0.3022 -0.7287
vt 0.550384 0.206938
vt 0.375000 0.305791
vt 0.375000 0.049496
vt 0.180791 0.500000
vt 0.330928 0.574320
vt 0.125000 0.700504
vt 0.804283 0.500000
vt 0.842867 0.681766
vt 0.658516 0.626313
vt 0.875000 0.500000
vt 0.501754 0.540833
vt 0.565165 0.799791
vt 0.325310 0.750000
vt 0.604031 0.069198
vt 0.375000 1.000000
vt 0.375000 0.799690
vt 0.578028 1.000000
vt 0.615335 0.592735
vt 0.589707 0.775249
vt 0.581909 0.353207
s 0
g Cube_Material
usemtl Material
f 480/831/520 482/832/520 481/833/520
f 482/834/521 485/835/521 481/836/521
f 486/837/522 483/838/522 487/839/522
f 483/838/523 486/837/523 480/840/523
f 488/841/524 479/842/524 484/843/524 485/835/524
f 481/833/525 483/844/525 480/831/525
f 481/845/526 484/846/526 479/842/526 483/847/526
f 485/835/527 484/843/527 481/836/527
f 487/848/528 483/838/528 479/849/528
f 479/842/529 488/841/529 487/848/529
f 488/841/530 485/835/530 482/832/530 486/850/530
f 488/841/531 486/850/531 487/848/531
f 482/832/532 480/831/532 486/850/532
o Cube
v -1.261639 0.695916 -1.814664
v -2.041845 1.119195 -1.790548
v -1.725265 1.018545 -1.344191
v -2.133020 0.767811 -1.447865
v -1.546368 1.117244 -1.983867
v -1.467683 0.610689 -1.374426
v -1.866333 0.451280 -1.350712
v -2.100554 0.680839 -2.047660
v -1.678294 0.475990 -2.121859
v -1.869401 0.283295 -1.830489
vn -0.5380 0.6559 0.5295
vn -0.2796 0.0585 0.9583
vn -0.0631 0.2223 -0.9729
vn -0.3106 0.5115 -0.8012
vn 0.4868 -0.8539 0.1842
vn 0.0707 0.9827 0.1714
vn 0.7513 0.5520 0.3618
vn 0.0709 -0.0291 0.9971
vn 0.5723 0.0583 -0.8180
vn 0.5563 -0.8128 -0.1727
vn -0.8368 -0.5375 0.1042
vn -0.4146 -0.6100 -0.6753
vn -0.9809 0.1776 -0.0789
vt 0.550384 0.206938
vt 0.375000 0.305791
vt 0.375000 0.049496
vt 0.180791 0.500000
vt 0.330928 0.574320
vt 0.125000 0.700504
vt 0.804283 0.500000
vt 0.842867 0.681766
vt 0.658516 0.626313
vt 0.875000 0.500000
vt 0.501754 0.540833
vt 0.565165 0.799791
vt 0.325310 0.750000
vt 0.604031 0.069198
vt 0.375000 1.000000
vt 0.375000 0.799690
vt 0.578028 1.000000
vt 0.615335 0.592735
vt 0.589707 0.775249
vt 0.581909 0.353207
s 0
g Cube_Material
usemtl Material
f 490/851/533 492/852/533 491/853/533
f 492/854/534 495/855/534 491/856/534
f 496/857/535 493/858/535 497/859/535
f 493/858/536 496/857/536 490/860/536
f 498/861/537 489/862/537 494/863/537 495/855/537
f 491/853/538 493/864/538 490/851/538
f 491/865/539 494/866/539 489/862/539 493/867/539
f 495/855/540 494/863/540 491/856/540
f 497/868/541 493/858/541 489/869/541
f 489/862/542 498/861/542 497/868/542
f 498/861/543 495/855/543 492/852/543 496/870/543
f 498/861/544 496/870/544 497/868/544
f 492/852/545 490/851/545 496/870/545
o Cube
v 1.999034 0.192201 -0.124182
v 2.100794 1.270576 0.052626
v 2.555231 0.889828 -0.295887
v 2.647862 1.085165 0.269548
v 1.735079 0.793218 -0.212920
v 2.594123 0.324741 -0.106048
v 2.796414 0.582924 0.312134
v 1.984110 0.984398 0.604250
v 1.850246 0.419470 0.515713
v 2.309954 0.453455 0.688117
vn 0.4237 0.8325 -0.3570
vn 0.9359 0.2563 -0.2419
vn -0.9511 0.1868 0.2461
vn -0.8189 0.5616 0.1182
vn 0.3074 -0.9158 0.2584
vn -0.1487 0.5653 -0.8114
vn -0.0067 -0.2340 -0.9722
vn 0.9144 -0.0710 -0.3985
vn -0.9100 -0.4094 -0.0662
vn -0.0515 -0.9448 0.3236
vn 0.4539 0.3106 0.8352
vn -0.3462 -0.0646 0.9359
vn 0.1073 0.8731 0.4756
vt 0.550384 0.206938
vt 0.375000 0.305791
vt 0.375000 0.049496
vt 0.180791 0.500000
vt 0.330928 0.574320
vt 0.125000 0.700504
vt 0.804283 0.500000
vt 0.842867 0.681766
vt 0.658516 0.626313
vt 0.875000 0.500000
vt 0.501754 0.540833
vt 0.565165 0.799791
vt 0.325310 0.750000
vt 0.604031 0.069198
vt 0.375000 1.000000
vt 0.375000 0.799690
vt 0.578028 1.000000
vt 0.615335 0.592735
vt 0.589707 0.775249
vt 0.581909 0.353207
s 0
g Cube_Material
usemtl Material
f 500/871/546 502/872/546 501/873/546
f 502/874/547 505/875/547 501/876/547
f 506/877/548 503/878/548 507/879/548
f 503/878/549 506/877/549 500/880/549
f 508/881/550 499/882/550 504/883/550 505/875/550
f 501/873/551 503/884/551 500/871/551
f 501/885/552 504/886/552 499/882/552 503/887/552
f 505/875/553 504/883/553 501/876/553
f 507/888/554 503/878/554 499/889/554
f 499/882/555 508/881/555 507/888/555
f 508/881/556 505/875/556 502/872/556 506/890/556
f 508/881/557 506/890/557 507/888/557
f 502/872/558 500/871/558 506/890/558
o Cube
v -0.091650 0.227345 1.196550
v 0.844835 -0.097817 1.908158
v 0.526274 -0.550406 1.380543
v 0.421818 -0.621170 2.041697
v 0.601496 0.369133 1.401221
v -0.123084 -0.443571 1.290435
v -0.123978 -0.665759 1.838001
v 0.332758 0.162321 2.313591
v -0.139294 0.420369 1.943486
v -0.305773 -0.062516 2.139824
vn 0.7836 -0.6186 0.0576
vn 0.1137 -0.9896 -0.0880
vn 0.2749 0.9171 0.2888
vn 0.6270 0.6993 0.3432
vn -0.9812 -0.0878 -0.1717
vn 0.8768 -0.0610 -0.4770
vn 0.2156 -0.0593 -0.9747
vn -0.0997 -0.9219 -0.3743
vn -0.1207 0.9592 -0.2556
vn -0.9524 0.2748 -0.1318
vn -0.1920 -0.4070 0.8930
vn -0.3799 0.4578 0.8038
vn 0.5331 -0.2226 0.8162
vt 0.550384 0.206938
vt 0.375000 0.305791
vt 0.375000 0.049496
vt 0.180791 0.500000
vt 0.330928 0.574320
vt 0.125000 0.700504
vt 0.804283 0.500000
vt 0.842867 0.681766
vt 0.658516 0.626313
vt 0.875000 0.500000
vt 0.501754 0.540833
vt 0.565165 0.799791
vt 0.325310 0.750000
vt 0.604031 0.069198
vt 0.375000 1.000000
vt 0.375000 0.799690
vt 0.578028 1.000000
vt 0.615335 0.592735
vt 0.589707 0.775249
vt 0.581909 0.353207
s 0
g Cube_Material
usemtl Material
f 510/891/559 512/892/559 511/893/559
f 512/894/560 515/895/560 511/896/560
f 516/897/561 513/898/561 517/899/561
f 513/898/562 516/897/562 510/900/562
f 518/901/563 509/902/563 514/903/563 515/895/563
f 511/893/564 513/904/564 510/891/564
f 511/905/565 514/906/565 509/902/565 513/907/565
f 515/895/566 514/903/566 511/896/566
f 517/908/567 513/898/567 509/909/567
f 509/902/568 518/901/568 517/908/568
f 518/901/569 515/895/569 512/892/569 516/910/569
f 518/901/570 516/910/570 517/908/570
f 512/892/571 510/891/571 516/910/571
o Cube
v -1.646448 0.195641 -0.553230
v -0.896250 0.541560 -0.562869
v -1.258313 0.618896 -0.924711
v -0.894270 0.351941 -0.986871
v -1.322433 0.491555 -0.316412
v -1.528088 0.265331 -0.991348
v -1.181749 0.121273 -1.130466
v -0.847539 0.072494 -0.498391
v -1.242650 -0.114720 -0.432957
v -1.127070 -0.188369 -0.777149
vn 0.5150 0.7834 -0.3479
vn 0.1356 0.3963 -0.9080
vn 0.2321 -0.1541 0.9604
vn 0.4786 0.1682 0.8618
vn -0.5930 -0.7065 -0.3863
vn 0.0039 0.9787 0.2053
vn -0.7377 0.6751 -0.0015
vn -0.2239 0.3428 -0.9123
vn -0.4328 -0.2248 0.8730
vn -0.6031 -0.7970 -0.0320
vn 0.7526 -0.4935 -0.4360
vn 0.4483 -0.8314 0.3284
vn 0.9944 0.0979 -0.0391
vt 0.550384 0.206938
vt 0.375000 0.305791
vt 0.375000 0.049496
vt 0.180791 0.500000
vt 0.330928 0.574320
vt 0.125000 0.700504
vt 0.804283 0.500000
vt 0.842867 0.681766
vt 0.658516 0.626313
vt 0.875000 0.500000
vt 0.501754 0.540833
vt 0.565165 0.799791
vt 0.325310 0.750000
vt 0.604031 0.069198
vt 0.375000 1.000000
vt 0.375000 0.799690
vt 0.578028 1.000000
vt 0.615335 0.592735
vt 0.589707 0.775249
vt 0.581909 0.353207
s 0
g Cube_Material
usemtl Material
f 520/911/572 522/912/572 521/913/572
f 522/914/573 525/915/573 521/916/573
f 526/917/574 523/918/574 527/919/574
f 523/918/575 526/917/575 520/920/575
f 528/921/576 519/922/576 524/923/576 525/915/576
f 521/913/577 523/924/577 520/911/577
f 521/925/578 524/926/578 519/922/578 523/927/578
f 525/915/579 524/923/579 521/916/579
f 527/928/580 523/918/580 519/929/580
f 519/922/581 528/921/581 527/928/581
f 528/921/582 525/915/582 522/912/582 526/930/582
f 528/921/583 526/930/583 527/928/583
f 522/912/584 520/911/584 526/930/584
