# Blender 4.1.0
# www.blender.org
mtllib Explosion20034.mtl
o Circle
v -0.024615 0.096888 -1.522372
v -0.024615 0.242742 -1.522372
v 0.122545 0.096888 -1.515142
v 0.122545 0.242742 -1.515142
v 0.268288 0.096888 -1.493523
v 0.268288 0.242742 -1.493523
v 0.411211 0.096888 -1.457723
v 0.411211 0.242742 -1.457723
v 0.549936 0.096888 -1.408086
v 0.549936 0.242742 -1.408086
v 0.683127 0.096888 -1.345092
v 0.683127 0.242742 -1.345092
v 0.809503 0.096888 -1.269345
v 0.809503 0.242742 -1.269345
v 0.927846 0.096888 -1.181576
v 0.927846 0.242742 -1.181576
v 1.037016 0.096888 -1.082630
v 1.037016 0.242742 -1.082630
v 1.135962 0.096888 -0.973460
v 1.135962 0.242742 -0.973460
v 1.223731 0.096888 -0.855117
v 1.223731 0.242742 -0.855117
v 1.299478 0.096888 -0.728741
v 1.299478 0.242742 -0.728741
v 1.362473 0.096888 -0.595549
v 1.362473 0.242742 -0.595549
v 1.412110 0.096888 -0.456824
v 1.412110 0.242742 -0.456824
v 1.447910 0.096888 -0.313902
v 1.447910 0.242742 -0.313902
v 1.469529 0.096888 -0.168159
v 1.469529 0.242742 -0.168159
v 1.476758 0.096888 -0.020998
v 1.476758 0.242742 -0.020998
v 1.469529 0.096888 0.126162
v 1.469529 0.242742 0.126162
v 1.447910 0.096888 0.271905
v 1.447910 0.242742 0.271905
v 1.412110 0.096888 0.414827
v 1.412110 0.242742 0.414827
v 1.362473 0.096888 0.553553
v 1.362473 0.242742 0.553553
v 1.299478 0.096888 0.686744
v 1.299478 0.242742 0.686744
v 1.223731 0.096888 0.813120
v 1.223731 0.242742 0.813120
v 1.135962 0.096888 0.931463
v 1.135962 0.242742 0.931463
v 1.037016 0.096888 1.040633
v 1.037016 0.242742 1.040633
v 0.927846 0.096888 1.139579
v 0.927846 0.242742 1.139579
v 0.809503 0.096888 1.227348
v 0.809503 0.242742 1.227348
v 0.683127 0.096888 1.303095
v 0.683127 0.242742 1.303095
v 0.549936 0.096888 1.366090
v 0.549936 0.242742 1.366090
v 0.411211 0.096888 1.415727
v 0.411211 0.242742 1.415727
v 0.268288 0.096888 1.451527
v 0.268288 0.242742 1.451527
v 0.122545 0.096888 1.473146
v 0.122545 0.242742 1.473146
v -0.024615 0.096888 1.480376
v -0.024615 0.242742 1.480376
v -0.171775 0.096888 1.473146
v -0.171775 0.242742 1.473146
v -0.317519 0.096888 1.451527
v -0.317519 0.242742 1.451527
v -0.460441 0.096888 1.415727
v -0.460441 0.242742 1.415727
v -0.599166 0.096888 1.366090
v -0.599166 0.242742 1.366090
v -0.732358 0.096888 1.303095
v -0.732358 0.242742 1.303095
v -0.858734 0.096888 1.227348
v -0.858734 0.242742 1.227348
v -0.977076 0.096888 1.139579
v -0.977076 0.242742 1.139579
v -1.086246 0.096888 1.040633
v -1.086246 0.242742 1.040633
v -1.185192 0.096888 0.931463
v -1.185192 0.242742 0.931463
v -1.272961 0.096888 0.813120
v -1.272961 0.242742 0.813120
v -1.348708 0.096888 0.686744
v -1.348708 0.242742 0.686744
v -1.411703 0.096888 0.553553
v -1.411703 0.242742 0.553553
v -1.461340 0.096888 0.414827
v -1.461340 0.242742 0.414827
v -1.497140 0.096888 0.271905
v -1.497140 0.242742 0.271905
v -1.518759 0.096888 0.126162
v -1.518759 0.242742 0.126162
v -1.525989 0.096888 -0.020998
v -1.525989 0.242742 -0.020998
v -1.518759 0.096888 -0.168159
v -1.518759 0.242742 -0.168159
v -1.497140 0.096888 -0.313902
v -1.497140 0.242742 -0.313902
v -1.461340 0.096888 -0.456824
v -1.461340 0.242742 -0.456824
v -1.411703 0.096888 -0.595549
v -1.411703 0.242742 -0.595549
v -1.348708 0.096888 -0.728741
v -1.348708 0.242742 -0.728741
v -1.272961 0.096888 -0.855117
v -1.272961 0.242742 -0.855117
v -1.185192 0.096888 -0.973460
v -1.185192 0.242742 -0.973460
v -1.086246 0.096888 -1.082630
v -1.086246 0.242742 -1.082630
v -0.977076 0.096888 -1.181576
v -0.977076 0.242742 -1.181576
v -0.858734 0.096888 -1.269345
v -0.858734 0.242742 -1.269345
v -0.732358 0.096888 -1.345092
v -0.732358 0.242742 -1.345092
v -0.599166 0.096888 -1.408086
v -0.599166 0.242742 -1.408086
v -0.460441 0.096888 -1.457723
v -0.460441 0.242742 -1.457723
v -0.317519 0.096888 -1.493523
v -0.317519 0.242742 -1.493523
v -0.171775 0.096888 -1.515142
v -0.171775 0.242742 -1.515142
vn 0.0491 -0.0000 -0.9988
vn 0.1467 -0.0000 -0.9892
vn 0.2430 -0.0000 -0.9700
vn 0.3369 -0.0000 -0.9415
vn 0.4276 -0.0000 -0.9040
vn 0.5141 -0.0000 -0.8577
vn 0.5957 -0.0000 -0.8032
vn 0.6716 -0.0000 -0.7410
vn 0.7410 -0.0000 -0.6716
vn 0.8032 -0.0000 -0.5957
vn 0.8577 -0.0000 -0.5141
vn 0.9040 -0.0000 -0.4276
vn 0.9415 -0.0000 -0.3369
vn 0.9700 -0.0000 -0.2430
vn 0.9892 -0.0000 -0.1467
vn 0.9988 -0.0000 -0.0491
vn 0.9988 -0.0000 0.0491
vn 0.9892 -0.0000 0.1467
vn 0.9700 -0.0000 0.2430
vn 0.9415 -0.0000 0.3369
vn 0.9040 -0.0000 0.4276
vn 0.8577 -0.0000 0.5141
vn 0.8032 -0.0000 0.5957
vn 0.7410 -0.0000 0.6716
vn 0.6716 -0.0000 0.7410
vn 0.5957 -0.0000 0.8032
vn 0.5141 -0.0000 0.8577
vn 0.4276 -0.0000 0.9040
vn 0.3369 -0.0000 0.9415
vn 0.2430 -0.0000 0.9700
vn 0.1467 -0.0000 0.9892
vn 0.0491 -0.0000 0.9988
vn -0.0491 -0.0000 0.9988
vn -0.1467 -0.0000 0.9892
vn -0.2430 -0.0000 0.9700
vn -0.3369 -0.0000 0.9415
vn -0.4276 -0.0000 0.9040
vn -0.5141 -0.0000 0.8577
vn -0.5957 -0.0000 0.8032
vn -0.6716 -0.0000 0.7410
vn -0.7410 -0.0000 0.6716
vn -0.8032 -0.0000 0.5957
vn -0.8577 -0.0000 0.5141
vn -0.9040 -0.0000 0.4276
vn -0.9415 -0.0000 0.3369
vn -0.9700 -0.0000 0.2430
vn -0.9892 -0.0000 0.1467
vn -0.9988 -0.0000 0.0491
vn -0.9988 -0.0000 -0.0491
vn -0.9892 -0.0000 -0.1467
vn -0.9700 -0.0000 -0.2430
vn -0.9415 -0.0000 -0.3369
vn -0.9040 -0.0000 -0.4276
vn -0.8577 -0.0000 -0.5141
vn -0.8032 -0.0000 -0.5957
vn -0.7410 -0.0000 -0.6716
vn -0.6716 -0.0000 -0.7410
vn -0.5957 -0.0000 -0.8032
vn -0.5141 -0.0000 -0.8577
vn -0.4276 -0.0000 -0.9040
vn -0.3369 -0.0000 -0.9415
vn -0.2430 -0.0000 -0.9700
vn -0.1467 -0.0000 -0.9892
vn -0.0491 -0.0000 -0.9988
vt 1.000000 0.500000
vt 1.000000 1.000000
vt 0.984375 1.000000
vt 0.984375 0.500000
vt 0.968750 1.000000
vt 0.968750 0.500000
vt 0.953125 1.000000
vt 0.953125 0.500000
vt 0.937500 1.000000
vt 0.937500 0.500000
vt 0.921875 1.000000
vt 0.921875 0.500000
vt 0.906250 1.000000
vt 0.906250 0.500000
vt 0.890625 1.000000
vt 0.890625 0.500000
vt 0.875000 1.000000
vt 0.875000 0.500000
vt 0.859375 1.000000
vt 0.859375 0.500000
vt 0.843750 1.000000
vt 0.843750 0.500000
vt 0.828125 1.000000
vt 0.828125 0.500000
vt 0.812500 1.000000
vt 0.812500 0.500000
vt 0.796875 1.000000
vt 0.796875 0.500000
vt 0.781250 1.000000
vt 0.781250 0.500000
vt 0.765625 1.000000
vt 0.765625 0.500000
vt 0.750000 1.000000
vt 0.750000 0.500000
vt 0.734375 1.000000
vt 0.734375 0.500000
vt 0.718750 1.000000
vt 0.718750 0.500000
vt 0.703125 1.000000
vt 0.703125 0.500000
vt 0.687500 1.000000
vt 0.687500 0.500000
vt 0.671875 1.000000
vt 0.671875 0.500000
vt 0.656250 1.000000
vt 0.656250 0.500000
vt 0.640625 1.000000
vt 0.640625 0.500000
vt 0.625000 1.000000
vt 0.625000 0.500000
vt 0.609375 1.000000
vt 0.609375 0.500000
vt 0.593750 1.000000
vt 0.593750 0.500000
vt 0.578125 1.000000
vt 0.578125 0.500000
vt 0.562500 1.000000
vt 0.562500 0.500000
vt 0.546875 1.000000
vt 0.546875 0.500000
vt 0.531250 1.000000
vt 0.531250 0.500000
vt 0.515625 1.000000
vt 0.515625 0.500000
vt 0.500000 1.000000
vt 0.500000 0.500000
vt 0.484375 1.000000
vt 0.484375 0.500000
vt 0.468750 1.000000
vt 0.468750 0.500000
vt 0.453125 1.000000
vt 0.453125 0.500000
vt 0.437500 1.000000
vt 0.437500 0.500000
vt 0.421875 1.000000
vt 0.421875 0.500000
vt 0.406250 1.000000
vt 0.406250 0.500000
vt 0.390625 1.000000
vt 0.390625 0.500000
vt 0.375000 1.000000
vt 0.375000 0.500000
vt 0.359375 1.000000
vt 0.359375 0.500000
vt 0.343750 1.000000
vt 0.343750 0.500000
vt 0.328125 1.000000
vt 0.328125 0.500000
vt 0.312500 1.000000
vt 0.312500 0.500000
vt 0.296875 1.000000
vt 0.296875 0.500000
vt 0.281250 1.000000
vt 0.281250 0.500000
vt 0.265625 1.000000
vt 0.265625 0.500000
vt 0.250000 1.000000
vt 0.250000 0.500000
vt 0.234375 1.000000
vt 0.234375 0.500000
vt 0.218750 1.000000
vt 0.218750 0.500000
vt 0.203125 1.000000
vt 0.203125 0.500000
vt 0.187500 1.000000
vt 0.187500 0.500000
vt 0.171875 1.000000
vt 0.171875 0.500000
vt 0.156250 1.000000
vt 0.156250 0.500000
vt 0.140625 1.000000
vt 0.140625 0.500000
vt 0.125000 1.000000
vt 0.125000 0.500000
vt 0.109375 1.000000
vt 0.109375 0.500000
vt 0.093750 1.000000
vt 0.093750 0.500000
vt 0.078125 1.000000
vt 0.078125 0.500000
vt 0.062500 1.000000
vt 0.062500 0.500000
vt 0.046875 1.000000
vt 0.046875 0.500000
vt 0.031250 1.000000
vt 0.031250 0.500000
vt 0.015625 1.000000
vt 0.015625 0.500000
vt 0.000000 1.000000
vt 0.000000 0.500000
s 0
g Circle_Material.001
usemtl Material.001
f 1/1/1 2/2/1 4/3/1 3/4/1
f 3/4/2 4/3/2 6/5/2 5/6/2
f 5/6/3 6/5/3 8/7/3 7/8/3
f 7/8/4 8/7/4 10/9/4 9/10/4
f 9/10/5 10/9/5 12/11/5 11/12/5
f 11/12/6 12/11/6 14/13/6 13/14/6
f 13/14/7 14/13/7 16/15/7 15/16/7
f 15/16/8 16/15/8 18/17/8 17/18/8
f 17/18/9 18/17/9 20/19/9 19/20/9
f 19/20/10 20/19/10 22/21/10 21/22/10
f 21/22/11 22/21/11 24/23/11 23/24/11
f 23/24/12 24/23/12 26/25/12 25/26/12
f 25/26/13 26/25/13 28/27/13 27/28/13
f 27/28/14 28/27/14 30/29/14 29/30/14
f 29/30/15 30/29/15 32/31/15 31/32/15
f 31/32/16 32/31/16 34/33/16 33/34/16
f 33/34/17 34/33/17 36/35/17 35/36/17
f 35/36/18 36/35/18 38/37/18 37/38/18
f 37/38/19 38/37/19 40/39/19 39/40/19
f 39/40/20 40/39/20 42/41/20 41/42/20
f 41/42/21 42/41/21 44/43/21 43/44/21
f 43/44/22 44/43/22 46/45/22 45/46/22
f 45/46/23 46/45/23 48/47/23 47/48/23
f 47/48/24 48/47/24 50/49/24 49/50/24
f 49/50/25 50/49/25 52/51/25 51/52/25
f 51/52/26 52/51/26 54/53/26 53/54/26
f 53/54/27 54/53/27 56/55/27 55/56/27
f 55/56/28 56/55/28 58/57/28 57/58/28
f 57/58/29 58/57/29 60/59/29 59/60/29
f 59/60/30 60/59/30 62/61/30 61/62/30
f 61/62/31 62/61/31 64/63/31 63/64/31
f 63/64/32 64/63/32 66/65/32 65/66/32
f 65/66/33 66/65/33 68/67/33 67/68/33
f 67/68/34 68/67/34 70/69/34 69/70/34
f 69/70/35 70/69/35 72/71/35 71/72/35
f 71/72/36 72/71/36 74/73/36 73/74/36
f 73/74/37 74/73/37 76/75/37 75/76/37
f 75/76/38 76/75/38 78/77/38 77/78/38
f 77/78/39 78/77/39 80/79/39 79/80/39
f 79/80/40 80/79/40 82/81/40 81/82/40
f 81/82/41 82/81/41 84/83/41 83/84/41
f 83/84/42 84/83/42 86/85/42 85/86/42
f 85/86/43 86/85/43 88/87/43 87/88/43
f 87/88/44 88/87/44 90/89/44 89/90/44
f 89/90/45 90/89/45 92/91/45 91/92/45
f 91/92/46 92/91/46 94/93/46 93/94/46
f 93/94/47 94/93/47 96/95/47 95/96/47
f 95/96/48 96/95/48 98/97/48 97/98/48
f 97/98/49 98/97/49 100/99/49 99/100/49
f 99/100/50 100/99/50 102/101/50 101/102/50
f 101/102/51 102/101/51 104/103/51 103/104/51
f 103/104/52 104/103/52 106/105/52 105/106/52
f 105/106/53 106/105/53 108/107/53 107/108/53
f 107/108/54 108/107/54 110/109/54 109/110/54
f 109/110/55 110/109/55 112/111/55 111/112/55
f 111/112/56 112/111/56 114/113/56 113/114/56
f 113/114/57 114/113/57 116/115/57 115/116/57
f 115/116/58 116/115/58 118/117/58 117/118/58
f 117/118/59 118/117/59 120/119/59 119/120/59
f 119/120/60 120/119/60 122/121/60 121/122/60
f 121/122/61 122/121/61 124/123/61 123/124/61
f 123/124/62 124/123/62 126/125/62 125/126/62
f 125/126/63 126/125/63 128/127/63 127/128/63
f 127/128/64 128/127/64 2/129/64 1/130/64
o Cube
v -5.711186 0.102765 2.645041
v -6.049569 0.171380 2.173267
v -5.687466 0.226694 2.177791
v -5.903692 0.465905 2.175176
v -5.934038 -0.050411 2.418379
v -5.576273 0.330922 2.457142
v -5.728647 0.554822 2.374689
v -6.185659 0.342024 2.429791
v -6.033989 0.277034 2.695572
v -5.962726 0.514542 2.610488
vn 0.0124 0.0003 -0.9999
vn 0.5411 0.4816 -0.6894
vn -0.7917 -0.5171 0.3253
vn -0.8397 -0.5358 -0.0890
vn 0.5071 0.4567 0.7310
vn 0.1169 -0.7084 -0.6961
vn 0.7291 -0.6698 -0.1406
vn 0.8035 0.3772 -0.4606
vn -0.2516 -0.6689 0.6995
vn 0.2793 0.2485 0.9275
vn -0.4324 0.8878 -0.1578
vn -0.7445 0.4117 0.5255
vn -0.7077 0.3545 -0.6112
vt 0.550384 0.206938
vt 0.375000 0.305791
vt 0.375000 0.049496
vt 0.180791 0.500000
vt 0.330928 0.574320
vt 0.125000 0.700504
vt 0.804283 0.500000
vt 0.842867 0.681766
vt 0.658516 0.626313
vt 0.875000 0.500000
vt 0.501754 0.540833
vt 0.565165 0.799791
vt 0.325310 0.750000
vt 0.604031 0.069198
vt 0.375000 1.000000
vt 0.375000 0.799690
vt 0.578028 1.000000
vt 0.615335 0.592735
vt 0.589707 0.775249
vt 0.581909 0.353207
s 0
g Cube_Material
usemtl Material
f 130/131/65 132/132/65 131/133/65
f 132/134/66 135/135/66 131/136/66
f 136/137/67 133/138/67 137/139/67
f 133/138/68 136/137/68 130/140/68
f 138/141/69 129/142/69 134/143/69 135/135/69
f 131/133/70 133/144/70 130/131/70
f 131/145/71 134/146/71 129/142/71 133/147/71
f 135/135/72 134/143/72 131/136/72
f 137/148/73 133/138/73 129/149/73
f 129/142/74 138/141/74 137/148/74
f 138/141/75 135/135/75 132/132/75 136/150/75
f 138/141/76 136/150/76 137/148/76
f 132/132/77 130/131/77 136/150/77
o Cube
v -0.918067 0.054082 6.686355
v -0.664589 0.282720 6.346631
v -0.685228 0.373420 6.633714
v -0.815404 0.490055 6.433678
v -0.700750 0.037417 6.494041
v -0.913865 0.314584 6.747656
v -0.983319 0.472514 6.590737
v -0.921104 0.237370 6.251087
v -1.051327 0.085766 6.413788
v -1.119326 0.289574 6.435652
vn 0.7717 0.6203 -0.1405
vn 0.2462 0.8984 0.3636
vn 0.0478 -0.7496 -0.6602
vn 0.3775 -0.5172 -0.7681
vn -0.8350 -0.0045 0.5502
vn 0.9913 -0.0868 0.0987
vn 0.5612 -0.2809 0.7786
vn 0.1458 0.7288 0.6690
vn -0.1242 -0.9908 -0.0545
vn -0.8629 -0.3290 0.3836
vn -0.4583 0.6893 -0.5611
vn -0.6948 -0.1565 -0.7020
vn 0.2199 0.5093 -0.8320
vt 0.550384 0.206938
vt 0.375000 0.305791
vt 0.375000 0.049496
vt 0.180791 0.500000
vt 0.330928 0.574320
vt 0.125000 0.700504
vt 0.804283 0.500000
vt 0.842867 0.681766
vt 0.658516 0.626313
vt 0.875000 0.500000
vt 0.501754 0.540833
vt 0.565165 0.799791
vt 0.325310 0.750000
vt 0.604031 0.069198
vt 0.375000 1.000000
vt 0.375000 0.799690
vt 0.578028 1.000000
vt 0.615335 0.592735
vt 0.589707 0.775249
vt 0.581909 0.353207
s 0
g Cube_Material
usemtl Material
f 140/151/78 142/152/78 141/153/78
f 142/154/79 145/155/79 141/156/79
f 146/157/80 143/158/80 147/159/80
f 143/158/81 146/157/81 140/160/81
f 148/161/82 139/162/82 144/163/82 145/155/82
f 141/153/83 143/164/83 140/151/83
f 141/165/84 144/166/84 139/162/84 143/167/84
f 145/155/85 144/163/85 141/156/85
f 147/168/86 143/158/86 139/169/86
f 139/162/87 148/161/87 147/168/87
f 148/161/88 145/155/88 142/152/88 146/170/88
f 148/161/89 146/170/89 147/168/89
f 142/152/90 140/151/90 146/170/90
o Cube
v 5.096955 0.349206 0.568593
v 5.261232 0.040305 0.172781
v 4.944122 0.081554 0.258318
v 5.097596 -0.157923 0.321568
v 5.252191 0.333865 0.290519
v 4.904317 0.129636 0.539011
v 4.985140 -0.113034 0.543638
v 5.419337 -0.029423 0.423323
v 5.363720 0.156433 0.628932
v 5.250056 -0.046573 0.673509
vn -0.2869 -0.4122 -0.8647
vn -0.7741 -0.5693 -0.2769
vn 0.9173 0.3854 -0.1002
vn 0.8516 0.2175 -0.4769
vn -0.3475 0.0335 0.9371
vn -0.1991 0.3595 -0.9116
vn -0.6338 0.7121 -0.3021
vn -0.9453 -0.3164 -0.0799
vn 0.5291 0.8107 0.2507
vn -0.0466 0.2391 0.9699
vn 0.2379 -0.9509 0.1978
vn 0.7920 -0.3307 0.5132
vn 0.4526 -0.7433 -0.4925
vt 0.550384 0.206938
vt 0.375000 0.305791
vt 0.375000 0.049496
vt 0.180791 0.500000
vt 0.330928 0.574320
vt 0.125000 0.700504
vt 0.804283 0.500000
vt 0.842867 0.681766
vt 0.658516 0.626313
vt 0.875000 0.500000
vt 0.501754 0.540833
vt 0.565165 0.799791
vt 0.325310 0.750000
vt 0.604031 0.069198
vt 0.375000 1.000000
vt 0.375000 0.799690
vt 0.578028 1.000000
vt 0.615335 0.592735
vt 0.589707 0.775249
vt 0.581909 0.353207
s 0
g Cube_Material
usemtl Material
f 150/171/91 152/172/91 151/173/91
f 152/174/92 155/175/92 151/176/92
f 156/177/93 153/178/93 157/179/93
f 153/178/94 156/177/94 150/180/94
f 158/181/95 149/182/95 154/183/95 155/175/95
f 151/173/96 153/184/96 150/171/96
f 151/185/97 154/186/97 149/182/97 153/187/97
f 155/175/98 154/183/98 151/176/98
f 157/188/99 153/178/99 149/189/99
f 149/182/100 158/181/100 157/188/100
f 158/181/101 155/175/101 152/172/101 156/190/101
f 158/181/102 156/190/102 157/188/102
f 152/172/103 150/171/103 156/190/103
o Cube
v 0.309357 0.423283 -5.182858
v 0.619273 0.557312 -5.555991
v 0.493406 0.269997 -5.523723
v 0.757870 0.328749 -5.463294
v 0.355987 0.608971 -5.418641
v 0.450845 0.195911 -5.263473
v 0.694418 0.199795 -5.269906
v 0.739709 0.632681 -5.303265
v 0.564369 0.596625 -5.102096
v 0.717172 0.430600 -5.099000
vn 0.2636 -0.2209 -0.9390
vn 0.2917 -0.8372 -0.4626
vn -0.0908 0.9910 0.0984
vn 0.0310 0.9537 -0.2992
vn -0.0939 -0.4977 0.8623
vn -0.4457 0.0953 -0.8901
vn -0.8851 -0.3275 -0.3307
vn 0.0081 -0.9621 -0.2726
vn -0.5974 0.6832 0.4199
vn -0.1959 -0.1623 0.9671
vn 0.9863 -0.0927 0.1361
vn 0.5808 0.5458 0.6040
vn 0.8221 0.3030 -0.4821
vt 0.550384 0.206938
vt 0.375000 0.305791
vt 0.375000 0.049496
vt 0.180791 0.500000
vt 0.330928 0.574320
vt 0.125000 0.700504
vt 0.804283 0.500000
vt 0.842867 0.681766
vt 0.658516 0.626313
vt 0.875000 0.500000
vt 0.501754 0.540833
vt 0.565165 0.799791
vt 0.325310 0.750000
vt 0.604031 0.069198
vt 0.375000 1.000000
vt 0.375000 0.799690
vt 0.578028 1.000000
vt 0.615335 0.592735
vt 0.589707 0.775249
vt 0.581909 0.353207
s 0
g Cube_Material
usemtl Material
f 160/191/104 162/192/104 161/193/104
f 162/194/105 165/195/105 161/196/105
f 166/197/106 163/198/106 167/199/106
f 163/198/107 166/197/107 160/200/107
f 168/201/108 159/202/108 164/203/108 165/195/108
f 161/193/109 163/204/109 160/191/109
f 161/205/110 164/206/110 159/202/110 163/207/110
f 165/195/111 164/203/111 161/196/111
f 167/208/112 163/198/112 159/209/112
f 159/202/113 168/201/113 167/208/113
f 168/201/114 165/195/114 162/192/114 166/210/114
f 168/201/115 166/210/115 167/208/115
f 162/192/116 160/191/116 166/210/116
o Cube
v 3.311795 -0.205463 -4.068836
v 3.364788 0.155676 -3.765341
v 3.567772 0.074864 -3.967195
v 3.589792 0.022608 -3.711577
v 3.210068 0.046250 -3.977310
v 3.569375 -0.178337 -4.018683
v 3.644933 -0.178678 -3.801583
v 3.290172 -0.066850 -3.624951
v 3.227563 -0.254430 -3.784382
v 3.419750 -0.293268 -3.701507
vn 0.4801 0.8666 0.1358
vn 0.9610 0.2751 -0.0265
vn -0.9617 0.1062 0.2527
vn -0.8067 0.4842 0.3388
vn 0.2535 -0.9416 -0.2216
vn -0.0604 0.9042 -0.4227
vn 0.0679 0.2847 -0.9562
vn 0.9420 0.0726 -0.3277
vn -0.9143 -0.2551 -0.3146
vn -0.1104 -0.9735 -0.2003
vn 0.3917 -0.1821 0.9019
vn -0.4262 -0.4990 0.7545
vn 0.0958 0.5079 0.8560
vt 0.550384 0.206938
vt 0.375000 0.305791
vt 0.375000 0.049496
vt 0.180791 0.500000
vt 0.330928 0.574320
vt 0.125000 0.700504
vt 0.804283 0.500000
vt 0.842867 0.681766
vt 0.658516 0.626313
vt 0.875000 0.500000
vt 0.501754 0.540833
vt 0.565165 0.799791
vt 0.325310 0.750000
vt 0.604031 0.069198
vt 0.375000 1.000000
vt 0.375000 0.799690
vt 0.578028 1.000000
vt 0.615335 0.592735
vt 0.589707 0.775249
vt 0.581909 0.353207
s 0
g Cube_Material
usemtl Material
f 170/211/117 172/212/117 171/213/117
f 172/214/118 175/215/118 171/216/118
f 176/217/119 173/218/119 177/219/119
f 173/218/120 176/217/120 170/220/120
f 178/221/121 169/222/121 174/223/121 175/215/121
f 171/213/122 173/224/122 170/211/122
f 171/225/123 174/226/123 169/222/123 173/227/123
f 175/215/124 174/223/124 171/216/124
f 177/228/125 173/218/125 169/229/125
f 169/222/126 178/221/126 177/228/126
f 178/221/127 175/215/127 172/212/127 176/230/127
f 178/221/128 176/230/128 177/228/128
f 172/212/129 170/211/129 176/230/129
o Cube
v -4.613965 0.827142 -0.750261
v -4.895761 0.276035 -0.716099
v -4.513517 0.324103 -0.765807
v -4.726051 0.231906 -1.017293
v -4.823316 0.596456 -0.543032
v -4.431798 0.602717 -0.937724
v -4.566570 0.442396 -1.152783
v -5.066166 0.477308 -0.956945
v -4.949792 0.787868 -0.949908
v -4.848882 0.656488 -1.173140
vn 0.1504 -0.9625 0.2258
vn 0.6566 -0.6914 -0.3014
vn -0.8560 0.3114 0.4126
vn -0.8473 -0.0911 0.5233
vn 0.4254 0.6787 -0.5987
vn 0.1731 -0.4981 0.8497
vn 0.7040 0.1189 0.7002
vn 0.8787 -0.4093 -0.2456
vn -0.3819 0.7849 0.4880
vn 0.1617 0.8807 -0.4452
vn -0.3574 -0.4112 -0.8385
vn -0.7864 0.3068 -0.5361
vn -0.5961 -0.7714 -0.2229
vt 0.550384 0.206938
vt 0.375000 0.305791
vt 0.375000 0.049496
vt 0.180791 0.500000
vt 0.330928 0.574320
vt 0.125000 0.700504
vt 0.804283 0.500000
vt 0.842867 0.681766
vt 0.658516 0.626313
vt 0.875000 0.500000
vt 0.501754 0.540833
vt 0.565165 0.799791
vt 0.325310 0.750000
vt 0.604031 0.069198
vt 0.375000 1.000000
vt 0.375000 0.799690
vt 0.578028 1.000000
vt 0.615335 0.592735
vt 0.589707 0.775249
vt 0.581909 0.353207
s 0
g Cube_Material
usemtl Material
f 180/231/130 182/232/130 181/233/130
f 182/234/131 185/235/131 181/236/131
f 186/237/132 183/238/132 187/239/132
f 183/238/133 186/237/133 180/240/133
f 188/241/134 179/242/134 184/243/134 185/235/134
f 181/233/135 183/244/135 180/231/135
f 181/245/136 184/246/136 179/242/136 183/247/136
f 185/235/137 184/243/137 181/236/137
f 187/248/138 183/238/138 179/249/138
f 179/242/139 188/241/139 187/248/139
f 188/241/140 185/235/140 182/232/140 186/250/140
f 188/241/141 186/250/141 187/248/141
f 182/232/142 180/231/142 186/250/142
o Cube
v 2.351517 0.167308 -3.518925
v 2.673183 -0.345327 -3.817481
v 2.857856 -0.065138 -3.560187
v 2.897406 -0.060824 -3.930276
v 2.377204 -0.236604 -3.564586
v 2.708154 0.270057 -3.572853
v 2.840283 0.251652 -3.871171
v 2.472805 -0.149602 -4.087105
v 2.260050 0.096544 -3.930428
v 2.499882 0.234443 -4.053063
vn 0.7978 -0.5978 0.0783
vn 0.9815 0.1592 0.1067
vn -0.8046 -0.5441 -0.2378
vn -0.5031 -0.8329 -0.2307
vn -0.1697 0.9855 0.0005
vn 0.2584 -0.7403 0.6207
vn 0.0683 -0.0283 0.9973
vn 0.8496 0.3927 0.3521
vn -0.9691 -0.0877 0.2305
vn -0.5112 0.8588 -0.0341
vn 0.3848 0.1386 -0.9125
vn -0.5025 0.1114 -0.8574
vn 0.3857 -0.5864 -0.7123
vt 0.550384 0.206938
vt 0.375000 0.305791
vt 0.375000 0.049496
vt 0.180791 0.500000
vt 0.330928 0.574320
vt 0.125000 0.700504
vt 0.804283 0.500000
vt 0.842867 0.681766
vt 0.658516 0.626313
vt 0.875000 0.500000
vt 0.501754 0.540833
vt 0.565165 0.799791
vt 0.325310 0.750000
vt 0.604031 0.069198
vt 0.375000 1.000000
vt 0.375000 0.799690
vt 0.578028 1.000000
vt 0.615335 0.592735
vt 0.589707 0.775249
vt 0.581909 0.353207
s 0
g Cube_Material
usemtl Material
f 190/251/143 192/252/143 191/253/143
f 192/254/144 195/255/144 191/256/144
f 196/257/145 193/258/145 197/259/145
f 193/258/146 196/257/146 190/260/146
f 198/261/147 189/262/147 194/263/147 195/255/147
f 191/253/148 193/264/148 190/251/148
f 191/265/149 194/266/149 189/262/149 193/267/149
f 195/255/150 194/263/150 191/256/150
f 197/268/151 193/258/151 189/269/151
f 189/262/152 198/261/152 197/268/152
f 198/261/153 195/255/153 192/252/153 196/270/153
f 198/261/154 196/270/154 197/268/154
f 192/252/155 190/251/155 196/270/155
o Cube
v -4.303263 0.504406 -0.644566
v -4.329224 0.729698 -1.129040
v -4.595611 0.663616 -0.936622
v -4.521462 0.502532 -1.172439
v -4.215789 0.753548 -0.830339
v -4.563532 0.429172 -0.766955
v -4.569469 0.318381 -1.001029
v -4.157764 0.474292 -1.147674
v -4.107866 0.369231 -0.886125
v -4.274665 0.235690 -0.995143
vn -0.5643 0.5882 -0.5793
vn -0.9574 -0.0187 -0.2882
vn 0.9576 0.2792 -0.0706
vn 0.7705 0.5418 -0.3359
vn -0.1350 -0.8335 0.5358
vn -0.2333 0.9723 0.0110
vn -0.4029 0.5716 0.7148
vn -0.9939 -0.0877 0.0667
vn 0.8072 0.1436 0.5726
vn 0.2179 -0.7659 0.6049
vn -0.0623 -0.5916 -0.8038
vn 0.7161 -0.5896 -0.3735
vn 0.0770 0.1239 -0.9893
vt 0.550384 0.206938
vt 0.375000 0.305791
vt 0.375000 0.049496
vt 0.180791 0.500000
vt 0.330928 0.574320
vt 0.125000 0.700504
vt 0.804283 0.500000
vt 0.842867 0.681766
vt 0.658516 0.626313
vt 0.875000 0.500000
vt 0.501754 0.540833
vt 0.565165 0.799791
vt 0.325310 0.750000
vt 0.604031 0.069198
vt 0.375000 1.000000
vt 0.375000 0.799690
vt 0.578028 1.000000
vt 0.615335 0.592735
vt 0.589707 0.775249
vt 0.581909 0.353207
s 0
g Cube_Material
usemtl Material
f 200/271/156 202/272/156 201/273/156
f 202/274/157 205/275/157 201/276/157
f 206/277/158 203/278/158 207/279/158
f 203/278/159 206/277/159 200/280/159
f 208/281/160 199/282/160 204/283/160 205/275/160
f 201/273/161 203/284/161 200/271/161
f 201/285/162 204/286/162 199/282/162 203/287/162
f 205/275/163 204/283/163 201/276/163
f 207/288/164 203/278/164 199/289/164
f 199/282/165 208/281/165 207/288/165
f 208/281/166 205/275/166 202/272/166 206/290/166
f 208/281/167 206/290/167 207/288/167
f 202/272/168 200/271/168 206/290/168
o Cube
v -1.717068 0.645435 -3.241535
v -1.979673 0.306918 -3.734797
v -1.884461 0.147402 -3.369975
v -1.688295 0.093645 -3.667458
v -2.023033 0.606924 -3.487293
v -1.604474 0.301347 -3.213834
v -1.464034 0.160458 -3.459854
v -1.679940 0.494937 -3.863225
v -1.560886 0.714412 -3.618508
v -1.384054 0.481369 -3.634557
vn -0.5447 -0.8113 -0.2126
vn 0.0787 -0.9706 0.2273
vn -0.3325 0.7768 -0.5349
vn -0.5793 0.4673 -0.6679
vn 0.8305 0.1991 0.5203
vn -0.9574 -0.2532 0.1392
vn -0.5597 -0.0255 0.8283
vn 0.1436 -0.8212 0.5522
vn -0.1996 0.9752 0.0957
vn 0.7416 0.5348 0.4051
vn 0.6081 -0.4200 -0.6737
vn 0.5538 0.4677 -0.6889
vn -0.1109 -0.4339 -0.8941
vt 0.550384 0.206938
vt 0.375000 0.305791
vt 0.375000 0.049496
vt 0.180791 0.500000
vt 0.330928 0.574320
vt 0.125000 0.700504
vt 0.804283 0.500000
vt 0.842867 0.681766
vt 0.658516 0.626313
vt 0.875000 0.500000
vt 0.501754 0.540833
vt 0.565165 0.799791
vt 0.325310 0.750000
vt 0.604031 0.069198
vt 0.375000 1.000000
vt 0.375000 0.799690
vt 0.578028 1.000000
vt 0.615335 0.592735
vt 0.589707 0.775249
vt 0.581909 0.353207
s 0
g Cube_Material
usemtl Material
f 210/291/169 212/292/169 211/293/169
f 212/294/170 215/295/170 211/296/170
f 216/297/171 213/298/171 217/299/171
f 213/298/172 216/297/172 210/300/172
f 218/301/173 209/302/173 214/303/173 215/295/173
f 211/293/174 213/304/174 210/291/174
f 211/305/175 214/306/175 209/302/175 213/307/175
f 215/295/176 214/303/176 211/296/176
f 217/308/177 213/298/177 209/309/177
f 209/302/178 218/301/178 217/308/178
f 218/301/179 215/295/179 212/292/179 216/310/179
f 218/301/180 216/310/180 217/308/180
f 212/292/181 210/291/181 216/310/181
o Cube
v -2.836733 0.069856 -2.770643
v -2.799702 -0.181012 -3.316873
v -2.518429 0.006433 -3.149090
v -2.700999 0.133033 -3.396028
v -2.856798 -0.236587 -2.965070
v -2.618825 0.248084 -2.951659
v -2.697629 0.354547 -3.211471
v -3.084822 0.016264 -3.303910
v -3.135178 0.119756 -3.002907
v -3.035612 0.321877 -3.151776
vn 0.6455 -0.3711 -0.6675
vn 0.8301 0.3494 -0.4346
vn -0.7896 -0.6087 0.0772
vn -0.5621 -0.7980 -0.2173
vn -0.0982 0.8498 0.5178
vn 0.5695 -0.8212 -0.0373
vn 0.6856 -0.3542 0.6360
vn 0.8920 0.4432 -0.0889
vn -0.6039 -0.3985 0.6903
vn -0.3877 0.6628 0.6406
vn -0.2786 0.5366 -0.7965
vn -0.9289 0.2738 -0.2495
vn -0.1745 -0.1887 -0.9664
vt 0.550384 0.206938
vt 0.375000 0.305791
vt 0.375000 0.049496
vt 0.180791 0.500000
vt 0.330928 0.574320
vt 0.125000 0.700504
vt 0.804283 0.500000
vt 0.842867 0.681766
vt 0.658516 0.626313
vt 0.875000 0.500000
vt 0.501754 0.540833
vt 0.565165 0.799791
vt 0.325310 0.750000
vt 0.604031 0.069198
vt 0.375000 1.000000
vt 0.375000 0.799690
vt 0.578028 1.000000
vt 0.615335 0.592735
vt 0.589707 0.775249
vt 0.581909 0.353207
s 0
g Cube_Material
usemtl Material
f 220/311/182 222/312/182 221/313/182
f 222/314/183 225/315/183 221/316/183
f 226/317/184 223/318/184 227/319/184
f 223/318/185 226/317/185 220/320/185
f 228/321/186 219/322/186 224/323/186 225/315/186
f 221/313/187 223/324/187 220/311/187
f 221/325/188 224/326/188 219/322/188 223/327/188
f 225/315/189 224/323/189 221/316/189
f 227/328/190 223/318/190 219/329/190
f 219/322/191 228/321/191 227/328/191
f 228/321/192 225/315/192 222/312/192 226/330/192
f 228/321/193 226/330/193 227/328/193
f 222/312/194 220/311/194 226/330/194
o Cube
v 3.590810 0.210189 0.114688
v 3.629687 -0.182615 0.180114
v 3.800987 -0.010944 0.243696
v 3.822641 -0.145944 0.070461
v 3.500170 0.014383 0.223130
v 3.807605 0.160953 0.110135
v 3.872916 0.021622 -0.007599
v 3.572855 -0.149605 -0.040832
v 3.523089 0.055877 -0.074599
v 3.686509 0.022497 -0.140712
vn 0.4581 -0.6725 0.5813
vn 0.9531 -0.1691 0.2509
vn -0.9619 -0.2509 -0.1090
vn -0.8161 -0.5640 0.1257
vn 0.2764 0.7787 -0.5632
vn -0.0881 -0.2675 0.9595
vn 0.0517 0.5395 0.8404
vn 0.9367 0.1916 0.2930
vn -0.9100 0.4144 -0.0123
vn -0.0863 0.7871 -0.6108
vn 0.4044 -0.5699 -0.7153
vn -0.4060 -0.2431 -0.8809
vn 0.0900 -0.9814 -0.1698
vt 0.550384 0.206938
vt 0.375000 0.305791
vt 0.375000 0.049496
vt 0.180791 0.500000
vt 0.330928 0.574320
vt 0.125000 0.700504
vt 0.804283 0.500000
vt 0.842867 0.681766
vt 0.658516 0.626313
vt 0.875000 0.500000
vt 0.501754 0.540833
vt 0.565165 0.799791
vt 0.325310 0.750000
vt 0.604031 0.069198
vt 0.375000 1.000000
vt 0.375000 0.799690
vt 0.578028 1.000000
vt 0.615335 0.592735
vt 0.589707 0.775249
vt 0.581909 0.353207
s 0
g Cube_Material
usemtl Material
f 230/331/195 232/332/195 231/333/195
f 232/334/196 235/335/196 231/336/196
f 236/337/197 233/338/197 237/339/197
f 233/338/198 236/337/198 230/340/198
f 238/341/199 229/342/199 234/343/199 235/335/199
f 231/333/200 233/344/200 230/331/200
f 231/345/201 234/346/201 229/342/201 233/347/201
f 235/335/202 234/343/202 231/336/202
f 237/348/203 233/338/203 229/349/203
f 229/342/204 238/341/204 237/348/204
f 238/341/205 235/335/205 232/332/205 236/350/205
f 238/341/206 236/350/206 237/348/206
f 232/332/207 230/331/207 236/350/207
o Cube
v -0.002723 -0.378925 3.353834
v -0.341065 -0.037457 3.690268
v -0.154085 0.080649 3.396563
v -0.062505 0.138874 3.701457
v -0.328049 -0.318889 3.480184
v 0.119094 -0.076578 3.345062
v 0.181235 0.058721 3.587058
v -0.128511 -0.209366 3.889105
v 0.027030 -0.424502 3.721472
v 0.186370 -0.221404 3.772350
vn -0.5348 0.8450 -0.0007
vn 0.1991 0.9498 -0.2412
vn -0.5209 -0.7262 0.4487
vn -0.7775 -0.3989 0.4862
vn 0.9342 -0.2662 -0.2373
vn -0.8566 0.2826 -0.4317
vn -0.2866 -0.0053 -0.9580
vn 0.3485 0.7772 -0.5240
vn -0.2189 -0.9703 -0.1026
vn 0.7957 -0.5898 -0.1375
vn 0.4045 0.4375 0.8031
vn 0.2965 -0.4444 0.8454
vn -0.3454 0.4951 0.7972
vt 0.550384 0.206938
vt 0.375000 0.305791
vt 0.375000 0.049496
vt 0.180791 0.500000
vt 0.330928 0.574320
vt 0.125000 0.700504
vt 0.804283 0.500000
vt 0.842867 0.681766
vt 0.658516 0.626313
vt 0.875000 0.500000
vt 0.501754 0.540833
vt 0.565165 0.799791
vt 0.325310 0.750000
vt 0.604031 0.069198
vt 0.375000 1.000000
vt 0.375000 0.799690
vt 0.578028 1.000000
vt 0.615335 0.592735
vt 0.589707 0.775249
vt 0.581909 0.353207
s 0
g Cube_Material
usemtl Material
f 240/351/208 242/352/208 241/353/208
f 242/354/209 245/355/209 241/356/209
f 246/357/210 243/358/210 247/359/210
f 243/358/211 246/357/211 240/360/211
f 248/361/212 239/362/212 244/363/212 245/355/212
f 241/353/213 243/364/213 240/351/213
f 241/365/214 244/366/214 239/362/214 243/367/214
f 245/355/215 244/363/215 241/356/215
f 247/368/216 243/358/216 239/369/216
f 239/362/217 248/361/217 247/368/217
f 248/361/218 245/355/218 242/352/218 246/370/218
f 248/361/219 246/370/219 247/368/219
f 242/352/220 240/351/220 246/370/220
o Cube
v -3.159037 0.282395 -1.528386
v -2.861155 0.028421 -1.328002
v -3.131487 -0.024587 -1.334621
v -3.016995 0.061736 -1.138979
v -2.940531 0.134235 -1.555783
v -3.268770 0.171421 -1.340305
v -3.186245 0.186862 -1.144599
v -2.828997 0.267699 -1.251175
v -2.964281 0.412734 -1.377820
v -3.044407 0.387512 -1.199405
vn 0.1757 -0.9345 0.3095
vn -0.4978 -0.6475 0.5770
vn 0.8136 0.3607 -0.4560
vn 0.9415 -0.0184 -0.3366
vn -0.7261 0.6775 0.1172
vn 0.1813 -0.8662 -0.4656
vn -0.5166 -0.4897 -0.7024
vn -0.7675 -0.5269 0.3652
vn 0.2624 0.5354 -0.8028
vn -0.4978 0.8613 -0.1018
vn 0.2392 0.1965 0.9509
vn 0.5182 0.7833 0.3435
vn 0.7094 -0.3001 0.6377
vt 0.550384 0.206938
vt 0.375000 0.305791
vt 0.375000 0.049496
vt 0.180791 0.500000
vt 0.330928 0.574320
vt 0.125000 0.700504
vt 0.804283 0.500000
vt 0.842867 0.681766
vt 0.658516 0.626313
vt 0.875000 0.500000
vt 0.501754 0.540833
vt 0.565165 0.799791
vt 0.325310 0.750000
vt 0.604031 0.069198
vt 0.375000 1.000000
vt 0.375000 0.799690
vt 0.578028 1.000000
vt 0.615335 0.592735
vt 0.589707 0.775249
vt 0.581909 0.353207
s 0
g Cube_Material
usemtl Material
f 250/371/221 252/372/221 251/373/221
f 252/374/222 255/375/222 251/376/222
f 256/377/223 253/378/223 257/379/223
f 253/378/224 256/377/224 250/380/224
f 258/381/225 249/382/225 254/383/225 255/375/225
f 251/373/226 253/384/226 250/371/226
f 251/385/227 254/386/227 249/382/227 253/387/227
f 255/375/228 254/383/228 251/376/228
f 257/388/229 253/378/229 249/389/229
f 249/382/230 258/381/230 257/388/230
f 258/381/231 255/375/231 252/372/231 256/390/231
f 258/381/232 256/390/232 257/388/232
f 252/372/233 250/371/233 256/390/233
o Cube
v -0.192410 0.047123 3.277760
v -0.369459 0.499735 2.761068
v -0.010041 0.541822 3.019168
v -0.332461 0.759395 3.061482
v -0.267601 0.099169 2.859514
v -0.056939 0.403864 3.376729
v -0.270455 0.672847 3.383996
v -0.694333 0.442187 3.002231
v -0.625410 0.164095 3.251220
v -0.606415 0.445205 3.398861
vn 0.3746 0.6781 -0.6323
vn 0.5659 0.8171 0.1105
vn -0.6404 -0.5943 -0.4865
vn -0.5254 -0.3267 -0.7857
vn 0.0274 -0.1640 0.9861
vn 0.5864 -0.0496 -0.8085
vn 0.9058 -0.4027 -0.1317
vn 0.7455 0.5831 0.3228
vn -0.2559 -0.9639 -0.0739
vn -0.1749 -0.4485 0.8765
vn -0.6094 0.7630 0.2157
vn -0.9751 -0.0478 0.2165
vn -0.5106 0.6806 -0.5254
vt 0.550384 0.206938
vt 0.375000 0.305791
vt 0.375000 0.049496
vt 0.180791 0.500000
vt 0.330928 0.574320
vt 0.125000 0.700504
vt 0.804283 0.500000
vt 0.842867 0.681766
vt 0.658516 0.626313
vt 0.875000 0.500000
vt 0.501754 0.540833
vt 0.565165 0.799791
vt 0.325310 0.750000
vt 0.604031 0.069198
vt 0.375000 1.000000
vt 0.375000 0.799690
vt 0.578028 1.000000
vt 0.615335 0.592735
vt 0.589707 0.775249
vt 0.581909 0.353207
s 0
g Cube_Material
usemtl Material
f 260/391/234 262/392/234 261/393/234
f 262/394/235 265/395/235 261/396/235
f 266/397/236 263/398/236 267/399/236
f 263/398/237 266/397/237 260/400/237
f 268/401/238 259/402/238 264/403/238 265/395/238
f 261/393/239 263/404/239 260/391/239
f 261/405/240 264/406/240 259/402/240 263/407/240
f 265/395/241 264/403/241 261/396/241
f 267/408/242 263/398/242 259/409/242
f 259/402/243 268/401/243 267/408/243
f 268/401/244 265/395/244 262/392/244 266/410/244
f 268/401/245 266/410/245 267/408/245
f 262/392/246 260/391/246 266/410/246
o Cube
v -2.282759 0.311654 0.749577
v -2.455966 0.582827 1.157547
v -2.369853 0.269035 1.168657
v -2.642244 0.358133 1.169621
v -2.236707 0.558009 0.938078
v -2.417142 0.128483 0.927830
v -2.653156 0.174980 1.001614
v -2.646423 0.619855 0.929587
v -2.541571 0.508186 0.697549
v -2.707660 0.368552 0.782430
vn 0.0166 0.0399 0.9991
vn -0.2113 -0.6539 0.7265
vn 0.1460 0.9156 -0.3747
vn 0.1484 0.9883 0.0365
vn -0.2193 -0.6857 -0.6941
vn 0.7028 0.2168 0.6776
vn 0.9103 -0.3860 0.1499
vn -0.0118 -0.8626 0.5058
vn 0.5001 0.4653 -0.7303
vn -0.1241 -0.4034 -0.9065
vn -0.9850 0.0420 0.1675
vn -0.6854 0.4851 -0.5431
vn -0.6047 0.5331 0.5918
vt 0.550384 0.206938
vt 0.375000 0.305791
vt 0.375000 0.049496
vt 0.180791 0.500000
vt 0.330928 0.574320
vt 0.125000 0.700504
vt 0.804283 0.500000
vt 0.842867 0.681766
vt 0.658516 0.626313
vt 0.875000 0.500000
vt 0.501754 0.540833
vt 0.565165 0.799791
vt 0.325310 0.750000
vt 0.604031 0.069198
vt 0.375000 1.000000
vt 0.375000 0.799690
vt 0.578028 1.000000
vt 0.615335 0.592735
vt 0.589707 0.775249
vt 0.581909 0.353207
s 0
g Cube_Material
usemtl Material
f 270/411/247 272/412/247 271/413/247
f 272/414/248 275/415/248 271/416/248
f 276/417/249 273/418/249 277/419/249
f 273/418/250 276/417/250 270/420/250
f 278/421/251 269/422/251 274/423/251 275/415/251
f 271/413/252 273/424/252 270/411/252
f 271/425/253 274/426/253 269/422/253 273/427/253
f 275/415/254 274/423/254 271/416/254
f 277/428/255 273/418/255 269/429/255
f 269/422/256 278/421/256 277/428/256
f 278/421/257 275/415/257 272/412/257 276/430/257
f 278/421/258 276/430/258 277/428/258
f 272/412/259 270/411/259 276/430/259
o Cube
v -0.516720 0.409837 2.461677
v -0.681755 0.170769 2.837506
v -0.410174 0.291493 2.821239
v -0.455581 0.034557 2.797384
v -0.717171 0.395094 2.666116
v -0.311446 0.295818 2.582312
v -0.313306 0.069504 2.623422
v -0.722233 0.020023 2.612714
v -0.667262 0.155603 2.404853
v -0.509778 0.017288 2.442802
vn 0.1085 -0.1109 0.9879
vn 0.7782 -0.1930 0.5977
vn -0.9727 0.0455 -0.2275
vn -0.9825 -0.0132 0.1858
vn 0.5974 -0.0239 -0.8016
vn -0.2072 0.5731 0.7929
vn 0.2753 0.9344 0.2260
vn 0.9220 0.0618 0.3821
vn -0.6338 0.5061 -0.5850
vn 0.2761 0.0510 -0.9598
vn 0.1193 -0.9924 0.0301
vn -0.4622 -0.6818 -0.5670
vn -0.3501 -0.7476 0.5644
vt 0.550384 0.206938
vt 0.375000 0.305791
vt 0.375000 0.049496
vt 0.180791 0.500000
vt 0.330928 0.574320
vt 0.125000 0.700504
vt 0.804283 0.500000
vt 0.842867 0.681766
vt 0.658516 0.626313
vt 0.875000 0.500000
vt 0.501754 0.540833
vt 0.565165 0.799791
vt 0.325310 0.750000
vt 0.604031 0.069198
vt 0.375000 1.000000
vt 0.375000 0.799690
vt 0.578028 1.000000
vt 0.615335 0.592735
vt 0.589707 0.775249
vt 0.581909 0.353207
s 0
g Cube_Material
usemtl Material
f 280/431/260 282/432/260 281/433/260
f 282/434/261 285/435/261 281/436/261
f 286/437/262 283/438/262 287/439/262
f 283/438/263 286/437/263 280/440/263
f 288/441/264 279/442/264 284/443/264 285/435/264
f 281/433/265 283/444/265 280/431/265
f 281/445/266 284/446/266 279/442/266 283/447/266
f 285/435/267 284/443/267 281/436/267
f 287/448/268 283/438/268 279/449/268
f 279/442/269 288/441/269 287/448/269
f 288/441/270 285/435/270 282/432/270 286/450/270
f 288/441/271 286/450/271 287/448/271
f 282/432/272 280/431/272 286/450/272
o Cube
v 0.795310 0.336129 -2.219682
v 0.540399 0.397395 -1.812001
v 0.638604 0.128702 -1.914014
v 0.384250 0.209051 -1.932008
v 0.783821 0.462616 -1.956148
v 0.651604 0.112319 -2.177016
v 0.419368 0.126033 -2.145860
v 0.408191 0.527320 -2.020858
v 0.555966 0.527877 -2.234012
v 0.398271 0.379902 -2.255878
vn -0.1923 -0.4090 0.8921
vn -0.3066 -0.9032 0.3003
vn 0.1508 0.9827 0.1071
vn 0.0632 0.8649 0.4980
vn -0.0197 -0.2998 -0.9538
vn 0.5301 -0.1247 0.8387
vn 0.8863 -0.4349 0.1592
vn -0.0509 -0.9969 0.0596
vn 0.6033 0.7289 -0.3235
vn 0.0956 0.0450 -0.9944
vn -0.9987 -0.0123 -0.0497
vn -0.5934 0.6929 -0.4096
vn -0.7517 0.2292 0.6184
vt 0.550384 0.206938
vt 0.375000 0.305791
vt 0.375000 0.049496
vt 0.180791 0.500000
vt 0.330928 0.574320
vt 0.125000 0.700504
vt 0.804283 0.500000
vt 0.842867 0.681766
vt 0.658516 0.626313
vt 0.875000 0.500000
vt 0.501754 0.540833
vt 0.565165 0.799791
vt 0.325310 0.750000
vt 0.604031 0.069198
vt 0.375000 1.000000
vt 0.375000 0.799690
vt 0.578028 1.000000
vt 0.615335 0.592735
vt 0.589707 0.775249
vt 0.581909 0.353207
s 0
g Cube_Material
usemtl Material
f 290/451/273 292/452/273 291/453/273
f 292/454/274 295/455/274 291/456/274
f 296/457/275 293/458/275 297/459/275
f 293/458/276 296/457/276 290/460/276
f 298/461/277 289/462/277 294/463/277 295/455/277
f 291/453/278 293/464/278 290/451/278
f 291/465/279 294/466/279 289/462/279 293/467/279
f 295/455/280 294/463/280 291/456/280
f 297/468/281 293/458/281 289/469/281
f 289/462/282 298/461/282 297/468/282
f 298/461/283 295/455/283 292/452/283 296/470/283
f 298/461/284 296/470/284 297/468/284
f 292/452/285 290/451/285 296/470/285
o Cube
v -1.732655 0.164502 1.299882
v -1.930284 0.614972 1.126192
v -1.647077 0.486654 1.025266
v -1.664503 0.709433 1.206549
v -1.973333 0.306840 1.155140
v -1.511497 0.335995 1.224145
v -1.492951 0.568553 1.321054
v -1.930055 0.619122 1.426716
v -1.860549 0.367927 1.526705
v -1.678544 0.513282 1.548419
vn 0.0099 0.6316 -0.7752
vn 0.7234 0.4690 -0.5068
vn -0.9413 -0.1377 0.3083
vn -0.9904 0.1383 -0.0012
vn 0.6813 -0.4350 0.5888
vn -0.3510 -0.0389 -0.9356
vn 0.1513 -0.6642 -0.7321
vn 0.8631 0.1340 -0.4869
vn -0.6142 -0.7274 0.3060
vn 0.3733 -0.5761 0.7272
vn 0.2166 0.8429 0.4925
vn -0.3245 0.2709 0.9062
vn -0.3314 0.9434 -0.0128
vt 0.550384 0.206938
vt 0.375000 0.305791
vt 0.375000 0.049496
vt 0.180791 0.500000
vt 0.330928 0.574320
vt 0.125000 0.700504
vt 0.804283 0.500000
vt 0.842867 0.681766
vt 0.658516 0.626313
vt 0.875000 0.500000
vt 0.501754 0.540833
vt 0.565165 0.799791
vt 0.325310 0.750000
vt 0.604031 0.069198
vt 0.375000 1.000000
vt 0.375000 0.799690
vt 0.578028 1.000000
vt 0.615335 0.592735
vt 0.589707 0.775249
vt 0.581909 0.353207
s 0
g Cube_Material
usemtl Material
f 300/471/286 302/472/286 301/473/286
f 302/474/287 305/475/287 301/476/287
f 306/477/288 303/478/288 307/479/288
f 303/478/289 306/477/289 300/480/289
f 308/481/290 299/482/290 304/483/290 305/475/290
f 301/473/291 303/484/291 300/471/291
f 301/485/292 304/486/292 299/482/292 303/487/292
f 305/475/293 304/483/293 301/476/293
f 307/488/294 303/478/294 299/489/294
f 299/482/295 308/481/295 307/488/295
f 308/481/296 305/475/296 302/472/296 306/490/296
f 308/481/297 306/490/297 307/488/297
f 302/472/298 300/471/298 306/490/298
o Cube
v 0.993232 0.305167 1.655561
v 0.807128 0.243112 0.997380
v 1.024480 0.578130 1.157776
v 0.656118 0.590916 1.070306
v 1.022478 0.080986 1.308127
v 0.941993 0.655913 1.514005
v 0.655036 0.735244 1.365773
v 0.490082 0.180201 1.225607
v 0.589272 0.163011 1.579062
v 0.455985 0.435001 1.523332
vn 0.2304 0.2945 -0.9274
vn 0.1341 0.8906 -0.4346
vn -0.1838 -0.9830 0.0038
vn -0.1076 -0.9101 -0.4003
vn -0.1853 0.4447 0.8763
vn 0.7569 -0.1920 -0.6247
vn 0.9886 0.0971 0.1153
vn 0.3256 0.9366 -0.1291
vn 0.1851 -0.8186 0.5438
vn -0.2167 0.0929 0.9718
vn -0.8984 0.3379 -0.2806
vn -0.8915 -0.3895 0.2312
vn -0.5723 -0.0773 -0.8164
vt 0.550384 0.206938
vt 0.375000 0.305791
vt 0.375000 0.049496
vt 0.180791 0.500000
vt 0.330928 0.574320
vt 0.125000 0.700504
vt 0.804283 0.500000
vt 0.842867 0.681766
vt 0.658516 0.626313
vt 0.875000 0.500000
vt 0.501754 0.540833
vt 0.565165 0.799791
vt 0.325310 0.750000
vt 0.604031 0.069198
vt 0.375000 1.000000
vt 0.375000 0.799690
vt 0.578028 1.000000
vt 0.615335 0.592735
vt 0.589707 0.775249
vt 0.581909 0.353207
s 0
g Cube_Material
usemtl Material
f 310/491/299 312/492/299 311/493/299
f 312/494/300 315/495/300 311/496/300
f 316/497/301 313/498/301 317/499/301
f 313/498/302 316/497/302 310/500/302
f 318/501/303 309/502/303 314/503/303 315/495/303
f 311/493/304 313/504/304 310/491/304
f 311/505/305 314/506/305 309/502/305 313/507/305
f 315/495/306 314/503/306 311/496/306
f 317/508/307 313/498/307 309/509/307
f 309/502/308 318/501/308 317/508/308
f 318/501/309 315/495/309 312/492/309 316/510/309
f 318/501/310 316/510/310 317/508/310
f 312/492/311 310/491/311 316/510/311
o Cube
v 0.577301 -0.088265 -1.880839
v 0.319796 -0.086184 -1.429476
v 0.192237 0.006872 -1.714256
v 0.273273 0.190801 -1.509904
v 0.472311 -0.258379 -1.639164
v 0.379820 0.122179 -1.891809
v 0.372587 0.297571 -1.711504
v 0.580334 0.056522 -1.392234
v 0.739165 0.027423 -1.618620
v 0.648392 0.242010 -1.614816
vn -0.9166 -0.0384 0.3980
vn -0.8411 0.5231 -0.1373
vn 0.6115 -0.6074 0.5071
vn 0.2531 -0.6492 0.7172
vn 0.4671 0.5512 -0.6914
vn -0.6966 -0.7131 0.0790
vn -0.4409 -0.5683 -0.6947
vn -0.7424 0.4651 -0.4822
vn 0.7277 -0.6683 -0.1543
vn 0.7357 0.3218 -0.5961
vn 0.0513 0.8128 0.5803
vn 0.7930 0.3263 0.5144
vn -0.2595 0.2289 0.9382
vt 0.550384 0.206938
vt 0.375000 0.305791
vt 0.375000 0.049496
vt 0.180791 0.500000
vt 0.330928 0.574320
vt 0.125000 0.700504
vt 0.804283 0.500000
vt 0.842867 0.681766
vt 0.658516 0.626313
vt 0.875000 0.500000
vt 0.501754 0.540833
vt 0.565165 0.799791
vt 0.325310 0.750000
vt 0.604031 0.069198
vt 0.375000 1.000000
vt 0.375000 0.799690
vt 0.578028 1.000000
vt 0.615335 0.592735
vt 0.589707 0.775249
vt 0.581909 0.353207
s 0
g Cube_Material
usemtl Material
f 320/511/312 322/512/312 321/513/312
f 322/514/313 325/515/313 321/516/313
f 326/517/314 323/518/314 327/519/314
f 323/518/315 326/517/315 320/520/315
f 328/521/316 319/522/316 324/523/316 325/515/316
f 321/513/317 323/524/317 320/511/317
f 321/525/318 324/526/318 319/522/318 323/527/318
f 325/515/319 324/523/319 321/516/319
f 327/528/320 323/518/320 319/529/320
f 319/522/321 328/521/321 327/528/321
f 328/521/322 325/515/322 322/512/322 326/530/322
f 328/521/323 326/530/323 327/528/323
f 322/512/324 320/511/324 326/530/324
o Cube
v -5.921176 -0.146320 1.894664
v -6.186647 -0.092490 1.524543
v -5.902567 -0.049095 1.528093
v -6.072202 0.138573 1.526042
v -6.096010 -0.266491 1.716841
v -5.815333 0.032676 1.747251
v -5.934875 0.208331 1.682564
v -6.293413 0.041386 1.725794
v -6.174424 -0.009601 1.934306
v -6.118515 0.176730 1.867555
vn 0.0124 0.0003 -0.9999
vn 0.5411 0.4816 -0.6894
vn -0.7917 -0.5171 0.3253
vn -0.8397 -0.5358 -0.0890
vn 0.5071 0.4567 0.7310
vn 0.1169 -0.7084 -0.6961
vn 0.7291 -0.6698 -0.1406
vn 0.8035 0.3772 -0.4606
vn -0.2516 -0.6689 0.6995
vn 0.2793 0.2485 0.9275
vn -0.4324 0.8878 -0.1578
vn -0.7445 0.4117 0.5255
vn -0.7077 0.3545 -0.6112
vt 0.550384 0.206938
vt 0.375000 0.305791
vt 0.375000 0.049496
vt 0.180791 0.500000
vt 0.330928 0.574320
vt 0.125000 0.700504
vt 0.804283 0.500000
vt 0.842867 0.681766
vt 0.658516 0.626313
vt 0.875000 0.500000
vt 0.501754 0.540833
vt 0.565165 0.799791
vt 0.325310 0.750000
vt 0.604031 0.069198
vt 0.375000 1.000000
vt 0.375000 0.799690
vt 0.578028 1.000000
vt 0.615335 0.592735
vt 0.589707 0.775249
vt 0.581909 0.353207
s 0
g Cube_Material
usemtl Material
f 330/531/325 332/532/325 331/533/325
f 332/534/326 335/535/326 331/536/326
f 336/537/327 333/538/327 337/539/327
f 333/538/328 336/537/328 330/540/328
f 338/541/329 329/542/329 334/543/329 335/535/329
f 331/533/330 333/544/330 330/531/330
f 331/545/331 334/546/331 329/542/331 333/547/331
f 335/535/332 334/543/332 331/536/332
f 337/548/333 333/538/333 329/549/333
f 329/542/334 338/541/334 337/548/334
f 338/541/335 335/535/335 332/532/335 336/550/335
f 338/541/336 336/550/336 337/548/336
f 332/532/337 330/531/337 336/550/337
o Cube
v -0.603867 0.266221 6.046327
v -0.358544 0.487504 5.717532
v -0.378519 0.575285 5.995380
v -0.504507 0.688168 5.801779
v -0.393542 0.250092 5.860200
v -0.599801 0.518343 6.105656
v -0.667021 0.671192 5.953785
v -0.606807 0.443613 5.625062
v -0.732841 0.296885 5.782529
v -0.798652 0.494137 5.803689
vn 0.7717 0.6203 -0.1405
vn 0.2462 0.8984 0.3636
vn 0.0478 -0.7496 -0.6602
vn 0.3775 -0.5172 -0.7681
vn -0.8350 -0.0045 0.5502
vn 0.9913 -0.0868 0.0987
vn 0.5612 -0.2809 0.7786
vn 0.1458 0.7288 0.6690
vn -0.1242 -0.9908 -0.0545
vn -0.8629 -0.3290 0.3836
vn -0.4583 0.6893 -0.5611
vn -0.6948 -0.1565 -0.7020
vn 0.2199 0.5093 -0.8320
vt 0.550384 0.206938
vt 0.375000 0.305791
vt 0.375000 0.049496
vt 0.180791 0.500000
vt 0.330928 0.574320
vt 0.125000 0.700504
vt 0.804283 0.500000
vt 0.842867 0.681766
vt 0.658516 0.626313
vt 0.875000 0.500000
vt 0.501754 0.540833
vt 0.565165 0.799791
vt 0.325310 0.750000
vt 0.604031 0.069198
vt 0.375000 1.000000
vt 0.375000 0.799690
vt 0.578028 1.000000
vt 0.615335 0.592735
vt 0.589707 0.775249
vt 0.581909 0.353207
s 0
g Cube_Material
usemtl Material
f 340/551/338 342/552/338 341/553/338
f 342/554/339 345/555/339 341/556/339
f 346/557/340 343/558/340 347/559/340
f 343/558/341 346/557/341 340/560/341
f 348/561/342 339/562/342 344/563/342 345/555/342
f 341/553/343 343/564/343 340/551/343
f 341/565/344 344/566/344 339/562/344 343/567/344
f 345/555/345 344/563/345 341/556/345
f 347/568/346 343/558/346 339/569/346
f 339/562/347 348/561/347 347/568/347
f 348/561/348 345/555/348 342/552/348 346/570/348
f 348/561/349 346/570/349 347/568/349
f 342/552/350 340/551/350 346/570/350
o Cube
v 5.442506 0.571901 -0.213486
v 5.594713 0.285697 -0.580215
v 5.300903 0.323915 -0.500962
v 5.443101 0.102034 -0.442360
v 5.586337 0.557687 -0.471128
v 5.264023 0.368464 -0.240894
v 5.338908 0.143625 -0.236608
v 5.741201 0.221092 -0.348082
v 5.689671 0.393292 -0.157581
v 5.584359 0.205203 -0.116279
vn -0.2869 -0.4122 -0.8647
vn -0.7741 -0.5693 -0.2769
vn 0.9173 0.3854 -0.1002
vn 0.8516 0.2175 -0.4769
vn -0.3475 0.0335 0.9371
vn -0.1991 0.3595 -0.9116
vn -0.6338 0.7121 -0.3021
vn -0.9453 -0.3164 -0.0799
vn 0.5291 0.8107 0.2507
vn -0.0466 0.2391 0.9699
vn 0.2379 -0.9509 0.1978
vn 0.7920 -0.3307 0.5132
vn 0.4526 -0.7433 -0.4925
vt 0.550384 0.206938
vt 0.375000 0.305791
vt 0.375000 0.049496
vt 0.180791 0.500000
vt 0.330928 0.574320
vt 0.125000 0.700504
vt 0.804283 0.500000
vt 0.842867 0.681766
vt 0.658516 0.626313
vt 0.875000 0.500000
vt 0.501754 0.540833
vt 0.565165 0.799791
vt 0.325310 0.750000
vt 0.604031 0.069198
vt 0.375000 1.000000
vt 0.375000 0.799690
vt 0.578028 1.000000
vt 0.615335 0.592735
vt 0.589707 0.775249
vt 0.581909 0.353207
s 0
g Cube_Material
usemtl Material
f 350/571/351 352/572/351 351/573/351
f 352/574/352 355/575/352 351/576/352
f 356/577/353 353/578/353 357/579/353
f 353/578/354 356/577/354 350/580/354
f 358/581/355 349/582/355 354/583/355 355/575/355
f 351/573/356 353/584/356 350/571/356
f 351/585/357 354/586/357 349/582/357 353/587/357
f 355/575/358 354/583/358 351/576/358
f 357/588/359 353/578/359 349/589/359
f 349/582/360 358/581/360 357/588/360
f 358/581/361 355/575/361 352/572/361 356/590/361
f 358/581/362 356/590/362 357/588/362
f 352/572/363 350/571/363 356/590/363
o Cube
v -0.000260 0.179373 -5.137211
v 0.283295 0.302002 -5.478607
v 0.168135 0.039125 -5.449084
v 0.410104 0.092880 -5.393794
v 0.042404 0.349267 -5.352940
v 0.129194 -0.028660 -5.210969
v 0.352050 -0.025106 -5.216856
v 0.393488 0.370960 -5.247377
v 0.233061 0.337972 -5.063318
v 0.372868 0.186068 -5.060486
vn 0.2636 -0.2209 -0.9390
vn 0.2917 -0.8372 -0.4626
vn -0.0908 0.9910 0.0984
vn 0.0310 0.9537 -0.2992
vn -0.0939 -0.4977 0.8623
vn -0.4457 0.0953 -0.8901
vn -0.8851 -0.3275 -0.3307
vn 0.0081 -0.9621 -0.2726
vn -0.5974 0.6832 0.4199
vn -0.1959 -0.1623 0.9671
vn 0.9863 -0.0927 0.1361
vn 0.5808 0.5458 0.6040
vn 0.8221 0.3030 -0.4821
vt 0.550384 0.206938
vt 0.375000 0.305791
vt 0.375000 0.049496
vt 0.180791 0.500000
vt 0.330928 0.574320
vt 0.125000 0.700504
vt 0.804283 0.500000
vt 0.842867 0.681766
vt 0.658516 0.626313
vt 0.875000 0.500000
vt 0.501754 0.540833
vt 0.565165 0.799791
vt 0.325310 0.750000
vt 0.604031 0.069198
vt 0.375000 1.000000
vt 0.375000 0.799690
vt 0.578028 1.000000
vt 0.615335 0.592735
vt 0.589707 0.775249
vt 0.581909 0.353207
s 0
g Cube_Material
usemtl Material
f 360/591/364 362/592/364 361/593/364
f 362/594/365 365/595/365 361/596/365
f 366/597/366 363/598/366 367/599/366
f 363/598/367 366/597/367 360/600/367
f 368/601/368 359/602/368 364/603/368 365/595/368
f 361/593/369 363/604/369 360/591/369
f 361/605/370 364/606/370 359/602/370 363/607/370
f 365/595/371 364/603/371 361/596/371
f 367/608/372 363/598/372 359/609/372
f 359/602/373 368/601/373 367/608/373
f 368/601/374 365/595/374 362/592/374 366/610/374
f 368/601/375 366/610/375 367/608/375
f 362/592/376 360/591/376 366/610/376
o Cube
v 3.719648 0.289496 -3.727457
v 3.782607 0.718549 -3.366889
v 4.023762 0.622539 -3.606702
v 4.049922 0.560457 -3.303014
v 3.598791 0.588545 -3.618719
v 4.025666 0.321724 -3.667872
v 4.115434 0.321318 -3.409946
v 3.693959 0.454176 -3.200098
v 3.619576 0.231321 -3.389510
v 3.847905 0.185179 -3.291051
vn 0.4801 0.8666 0.1358
vn 0.9610 0.2751 -0.0265
vn -0.9617 0.1062 0.2527
vn -0.8067 0.4842 0.3388
vn 0.2535 -0.9416 -0.2216
vn -0.0604 0.9042 -0.4227
vn 0.0679 0.2847 -0.9562
vn 0.9420 0.0726 -0.3277
vn -0.9143 -0.2551 -0.3146
vn -0.1104 -0.9735 -0.2003
vn 0.3917 -0.1821 0.9019
vn -0.4262 -0.4990 0.7545
vn 0.0958 0.5079 0.8560
vt 0.550384 0.206938
vt 0.375000 0.305791
vt 0.375000 0.049496
vt 0.180791 0.500000
vt 0.330928 0.574320
vt 0.125000 0.700504
vt 0.804283 0.500000
vt 0.842867 0.681766
vt 0.658516 0.626313
vt 0.875000 0.500000
vt 0.501754 0.540833
vt 0.565165 0.799791
vt 0.325310 0.750000
vt 0.604031 0.069198
vt 0.375000 1.000000
vt 0.375000 0.799690
vt 0.578028 1.000000
vt 0.615335 0.592735
vt 0.589707 0.775249
vt 0.581909 0.353207
s 0
g Cube_Material
usemtl Material
f 370/611/377 372/612/377 371/613/377
f 372/614/378 375/615/378 371/616/378
f 376/617/379 373/618/379 377/619/379
f 373/618/380 376/617/380 370/620/380
f 378/621/381 369/622/381 374/623/381 375/615/381
f 371/613/382 373/624/382 370/611/382
f 371/625/383 374/626/383 369/622/383 373/627/383
f 375/615/384 374/623/384 371/616/384
f 377/628/385 373/618/385 369/629/385
f 369/622/386 378/621/386 377/628/386
f 378/621/387 375/615/387 372/612/387 376/630/387
f 378/621/388 376/630/388 377/628/388
f 372/612/389 370/611/389 376/630/389
o Cube
v -4.583283 0.854695 -0.844991
v -4.815506 0.400538 -0.816839
v -4.500506 0.440150 -0.857802
v -4.675652 0.364173 -1.065047
v -4.755806 0.664591 -0.674217
v -4.433163 0.669751 -0.999475
v -4.544226 0.537633 -1.176701
v -4.955935 0.566404 -1.015315
v -4.860032 0.822331 -1.009516
v -4.776874 0.714062 -1.193477
vn 0.1504 -0.9625 0.2258
vn 0.6566 -0.6914 -0.3014
vn -0.8560 0.3114 0.4126
vn -0.8473 -0.0911 0.5233
vn 0.4254 0.6787 -0.5987
vn 0.1731 -0.4981 0.8497
vn 0.7040 0.1189 0.7002
vn 0.8787 -0.4093 -0.2456
vn -0.3819 0.7849 0.4880
vn 0.1617 0.8807 -0.4452
vn -0.3574 -0.4112 -0.8385
vn -0.7864 0.3068 -0.5361
vn -0.5961 -0.7714 -0.2229
vt 0.550384 0.206938
vt 0.375000 0.305791
vt 0.375000 0.049496
vt 0.180791 0.500000
vt 0.330928 0.574320
vt 0.125000 0.700504
vt 0.804283 0.500000
vt 0.842867 0.681766
vt 0.658516 0.626313
vt 0.875000 0.500000
vt 0.501754 0.540833
vt 0.565165 0.799791
vt 0.325310 0.750000
vt 0.604031 0.069198
vt 0.375000 1.000000
vt 0.375000 0.799690
vt 0.578028 1.000000
vt 0.615335 0.592735
vt 0.589707 0.775249
vt 0.581909 0.353207
s 0
g Cube_Material
usemtl Material
f 380/631/390 382/632/390 381/633/390
f 382/634/391 385/635/391 381/636/391
f 386/637/392 383/638/392 387/639/392
f 383/638/393 386/637/393 380/640/393
f 388/641/394 379/642/394 384/643/394 385/635/394
f 381/633/395 383/644/395 380/631/395
f 381/645/396 384/646/396 379/642/396 383/647/396
f 385/635/397 384/643/397 381/636/397
f 387/648/398 383/638/398 379/649/398
f 379/642/399 388/641/399 387/648/399
f 388/641/400 385/635/400 382/632/400 386/650/400
f 388/641/401 386/650/401 387/648/401
f 382/632/402 380/631/402 386/650/402
o Cube
v 3.006363 0.088281 -3.485220
v 3.303005 -0.384476 -3.760550
v 3.473312 -0.126083 -3.523272
v 3.509785 -0.122105 -3.864571
v 3.030051 -0.284210 -3.527329
v 3.335256 0.183037 -3.534952
v 3.457106 0.166064 -3.810064
v 3.118215 -0.203976 -4.009200
v 2.922011 0.023022 -3.864711
v 3.143185 0.150193 -3.977806
vn 0.7978 -0.5978 0.0783
vn 0.9815 0.1592 0.1067
vn -0.8046 -0.5441 -0.2378
vn -0.5031 -0.8329 -0.2307
vn -0.1697 0.9855 0.0005
vn 0.2584 -0.7403 0.6207
vn 0.0683 -0.0283 0.9973
vn 0.8496 0.3927 0.3521
vn -0.9691 -0.0877 0.2305
vn -0.5112 0.8588 -0.0341
vn 0.3848 0.1386 -0.9125
vn -0.5025 0.1114 -0.8574
vn 0.3857 -0.5864 -0.7123
vt 0.550384 0.206938
vt 0.375000 0.305791
vt 0.375000 0.049496
vt 0.180791 0.500000
vt 0.330928 0.574320
vt 0.125000 0.700504
vt 0.804283 0.500000
vt 0.842867 0.681766
vt 0.658516 0.626313
vt 0.875000 0.500000
vt 0.501754 0.540833
vt 0.565165 0.799791
vt 0.325310 0.750000
vt 0.604031 0.069198
vt 0.375000 1.000000
vt 0.375000 0.799690
vt 0.578028 1.000000
vt 0.615335 0.592735
vt 0.589707 0.775249
vt 0.581909 0.353207
s 0
g Cube_Material
usemtl Material
f 390/651/403 392/652/403 391/653/403
f 392/654/404 395/655/404 391/656/404
f 396/657/405 393/658/405 397/659/405
f 393/658/406 396/657/406 390/660/406
f 398/661/407 389/662/407 394/663/407 395/655/407
f 391/653/408 393/664/408 390/651/408
f 391/665/409 394/666/409 389/662/409 393/667/409
f 395/655/410 394/663/410 391/656/410
f 397/668/411 393/658/411 389/669/411
f 389/662/412 398/661/412 397/668/412
f 398/661/413 395/655/413 392/652/413 396/670/413
f 398/661/414 396/670/414 397/668/414
f 392/652/415 390/651/415 396/670/415
o Cube
v -4.366047 0.393634 -0.571680
v -4.384613 0.554746 -0.918140
v -4.575113 0.507489 -0.780537
v -4.522087 0.392293 -0.949176
v -4.303493 0.571801 -0.704532
v -4.552172 0.339832 -0.659204
v -4.556418 0.260603 -0.826596
v -4.261997 0.372099 -0.931466
v -4.226314 0.296967 -0.744425
v -4.345596 0.201468 -0.822386
vn -0.5643 0.5882 -0.5793
vn -0.9574 -0.0187 -0.2882
vn 0.9576 0.2792 -0.0706
vn 0.7705 0.5418 -0.3359
vn -0.1350 -0.8335 0.5358
vn -0.2333 0.9723 0.0110
vn -0.4029 0.5716 0.7148
vn -0.9939 -0.0877 0.0667
vn 0.8072 0.1436 0.5726
vn 0.2179 -0.7659 0.6049
vn -0.0623 -0.5916 -0.8038
vn 0.7161 -0.5896 -0.3735
vn 0.0770 0.1239 -0.9893
vt 0.550384 0.206938
vt 0.375000 0.305791
vt 0.375000 0.049496
vt 0.180791 0.500000
vt 0.330928 0.574320
vt 0.125000 0.700504
vt 0.804283 0.500000
vt 0.842867 0.681766
vt 0.658516 0.626313
vt 0.875000 0.500000
vt 0.501754 0.540833
vt 0.565165 0.799791
vt 0.325310 0.750000
vt 0.604031 0.069198
vt 0.375000 1.000000
vt 0.375000 0.799690
vt 0.578028 1.000000
vt 0.615335 0.592735
vt 0.589707 0.775249
vt 0.581909 0.353207
s 0
g Cube_Material
usemtl Material
f 400/671/416 402/672/416 401/673/416
f 402/674/417 405/675/417 401/676/417
f 406/677/418 403/678/418 407/679/418
f 403/678/419 406/677/419 400/680/419
f 408/681/420 399/682/420 404/683/420 405/675/420
f 401/673/421 403/684/421 400/671/421
f 401/685/422 404/686/422 399/682/422 403/687/422
f 405/675/423 404/683/423 401/676/423
f 407/688/424 403/678/424 399/689/424
f 399/682/425 408/681/425 407/688/425
f 408/681/426 405/675/426 402/672/426 406/690/426
f 408/681/427 406/690/427 407/688/427
f 402/672/428 400/671/428 406/690/428
o Cube
v -1.470767 0.538007 -3.121626
v -1.698706 0.244176 -3.549774
v -1.616063 0.105719 -3.233112
v -1.445792 0.059057 -3.491324
v -1.736342 0.504579 -3.334942
v -1.373037 0.239341 -3.097583
v -1.251136 0.117051 -3.311126
v -1.438540 0.407376 -3.661248
v -1.335203 0.597878 -3.448836
v -1.181714 0.395598 -3.462766
vn -0.5447 -0.8113 -0.2126
vn 0.0787 -0.9706 0.2273
vn -0.3325 0.7768 -0.5349
vn -0.5793 0.4673 -0.6679
vn 0.8305 0.1991 0.5203
vn -0.9574 -0.2532 0.1392
vn -0.5597 -0.0255 0.8283
vn 0.1436 -0.8212 0.5522
vn -0.1996 0.9752 0.0957
vn 0.7416 0.5348 0.4051
vn 0.6081 -0.4200 -0.6737
vn 0.5538 0.4677 -0.6889
vn -0.1109 -0.4339 -0.8941
vt 0.550384 0.206938
vt 0.375000 0.305791
vt 0.375000 0.049496
vt 0.180791 0.500000
vt 0.330928 0.574320
vt 0.125000 0.700504
vt 0.804283 0.500000
vt 0.842867 0.681766
vt 0.658516 0.626313
vt 0.875000 0.500000
vt 0.501754 0.540833
vt 0.565165 0.799791
vt 0.325310 0.750000
vt 0.604031 0.069198
vt 0.375000 1.000000
vt 0.375000 0.799690
vt 0.578028 1.000000
vt 0.615335 0.592735
vt 0.589707 0.775249
vt 0.581909 0.353207
s 0
g Cube_Material
usemtl Material
f 410/691/429 412/692/429 411/693/429
f 412/694/430 415/695/430 411/696/430
f 416/697/431 413/698/431 417/699/431
f 413/698/432 416/697/432 410/700/432
f 418/701/433 409/702/433 414/703/433 415/695/433
f 411/693/434 413/704/434 410/691/434
f 411/705/435 414/706/435 409/702/435 413/707/435
f 415/695/436 414/703/436 411/696/436
f 417/708/437 413/698/437 409/709/437
f 409/702/438 418/701/438 417/708/438
f 418/701/439 415/695/439 412/692/439 416/710/439
f 418/701/440 416/710/440 417/708/440
f 412/692/441 410/691/441 416/710/441
o Cube
v -3.169203 -0.351620 -2.284424
v -3.138760 -0.557866 -2.733496
v -2.907516 -0.403762 -2.595556
v -3.057613 -0.299680 -2.798572
v -3.185699 -0.603556 -2.444269
v -2.990055 -0.205093 -2.433243
v -3.054842 -0.117567 -2.646842
v -3.373165 -0.395679 -2.722838
v -3.414564 -0.310595 -2.475375
v -3.332708 -0.144425 -2.597765
vn 0.6455 -0.3711 -0.6675
vn 0.8301 0.3494 -0.4346
vn -0.7896 -0.6087 0.0772
vn -0.5621 -0.7980 -0.2173
vn -0.0982 0.8498 0.5178
vn 0.5695 -0.8212 -0.0373
vn 0.6856 -0.3542 0.6360
vn 0.8920 0.4432 -0.0889
vn -0.6039 -0.3985 0.6903
vn -0.3877 0.6628 0.6406
vn -0.2786 0.5366 -0.7965
vn -0.9289 0.2738 -0.2495
vn -0.1745 -0.1887 -0.9664
vt 0.550384 0.206938
vt 0.375000 0.305791
vt 0.375000 0.049496
vt 0.180791 0.500000
vt 0.330928 0.574320
vt 0.125000 0.700504
vt 0.804283 0.500000
vt 0.842867 0.681766
vt 0.658516 0.626313
vt 0.875000 0.500000
vt 0.501754 0.540833
vt 0.565165 0.799791
vt 0.325310 0.750000
vt 0.604031 0.069198
vt 0.375000 1.000000
vt 0.375000 0.799690
vt 0.578028 1.000000
vt 0.615335 0.592735
vt 0.589707 0.775249
vt 0.581909 0.353207
s 0
g Cube_Material
usemtl Material
f 420/711/442 422/712/442 421/713/442
f 422/714/443 425/715/443 421/716/443
f 426/717/444 423/718/444 427/719/444
f 423/718/445 426/717/445 420/720/445
f 428/721/446 419/722/446 424/723/446 425/715/446
f 421/713/447 423/724/447 420/711/447
f 421/725/448 424/726/448 419/722/448 423/727/448
f 425/715/449 424/723/449 421/716/449
f 427/728/450 423/718/450 419/729/450
f 419/722/451 428/721/451 427/728/451
f 428/721/452 425/715/452 422/712/452 426/730/452
f 428/721/453 426/730/453 427/728/453
f 422/712/454 420/711/454 426/730/454
o Cube
v 3.963229 0.319642 0.073150
v 4.022690 -0.281129 0.173215
v 4.284682 -0.018567 0.270461
v 4.317801 -0.225042 0.005508
v 3.824601 0.020169 0.239006
v 4.294804 0.244339 0.066187
v 4.394694 0.031240 -0.113881
v 3.935768 -0.230642 -0.164708
v 3.859653 0.083631 -0.216352
v 4.109595 0.032579 -0.317468
vn 0.4581 -0.6725 0.5813
vn 0.9531 -0.1691 0.2509
vn -0.9619 -0.2509 -0.1090
vn -0.8161 -0.5640 0.1257
vn 0.2764 0.7787 -0.5632
vn -0.0881 -0.2675 0.9595
vn 0.0517 0.5395 0.8404
vn 0.9367 0.1916 0.2930
vn -0.9100 0.4144 -0.0123
vn -0.0863 0.7871 -0.6108
vn 0.4044 -0.5699 -0.7153
vn -0.4060 -0.2431 -0.8809
vn 0.0900 -0.9814 -0.1698
vt 0.550384 0.206938
vt 0.375000 0.305791
vt 0.375000 0.049496
vt 0.180791 0.500000
vt 0.330928 0.574320
vt 0.125000 0.700504
vt 0.804283 0.500000
vt 0.842867 0.681766
vt 0.658516 0.626313
vt 0.875000 0.500000
vt 0.501754 0.540833
vt 0.565165 0.799791
vt 0.325310 0.750000
vt 0.604031 0.069198
vt 0.375000 1.000000
vt 0.375000 0.799690
vt 0.578028 1.000000
vt 0.615335 0.592735
vt 0.589707 0.775249
vt 0.581909 0.353207
s 0
g Cube_Material
usemtl Material
f 430/731/455 432/732/455 431/733/455
f 432/734/456 435/735/456 431/736/456
f 436/737/457 433/738/457 437/739/457
f 433/738/458 436/737/458 430/740/458
f 438/741/459 429/742/459 434/743/459 435/735/459
f 431/733/460 433/744/460 430/731/460
f 431/745/461 434/746/461 429/742/461 433/747/461
f 435/735/462 434/743/462 431/736/462
f 437/748/463 433/738/463 429/749/463
f 429/742/464 438/741/464 437/748/464
f 438/741/465 435/735/465 432/732/465 436/750/465
f 438/741/466 436/750/466 437/748/466
f 432/732/467 430/731/467 436/750/467
o Cube
v -0.054584 0.371268 2.988031
v -0.446941 0.767249 3.378175
v -0.230110 0.904210 3.037582
v -0.123910 0.971731 3.391151
v -0.431847 0.440888 3.134552
v 0.086681 0.721883 2.977858
v 0.158742 0.878782 3.258488
v -0.200453 0.567895 3.608757
v -0.020081 0.318414 3.414361
v 0.164697 0.553936 3.473362
vn -0.5348 0.8450 -0.0007
vn 0.1991 0.9498 -0.2412
vn -0.5209 -0.7262 0.4487
vn -0.7775 -0.3989 0.4862
vn 0.9342 -0.2662 -0.2373
vn -0.8566 0.2826 -0.4317
vn -0.2866 -0.0053 -0.9580
vn 0.3485 0.7772 -0.5240
vn -0.2189 -0.9703 -0.1026
vn 0.7957 -0.5898 -0.1375
vn 0.4045 0.4375 0.8031
vn 0.2965 -0.4444 0.8454
vn -0.3454 0.4951 0.7972
vt 0.550384 0.206938
vt 0.375000 0.305791
vt 0.375000 0.049496
vt 0.180791 0.500000
vt 0.330928 0.574320
vt 0.125000 0.700504
vt 0.804283 0.500000
vt 0.842867 0.681766
vt 0.658516 0.626313
vt 0.875000 0.500000
vt 0.501754 0.540833
vt 0.565165 0.799791
vt 0.325310 0.750000
vt 0.604031 0.069198
vt 0.375000 1.000000
vt 0.375000 0.799690
vt 0.578028 1.000000
vt 0.615335 0.592735
vt 0.589707 0.775249
vt 0.581909 0.353207
s 0
g Cube_Material
usemtl Material
f 440/751/468 442/752/468 441/753/468
f 442/754/469 445/755/469 441/756/469
f 446/757/470 443/758/470 447/759/470
f 443/758/471 446/757/471 440/760/471
f 448/761/472 439/762/472 444/763/472 445/755/472
f 441/753/473 443/764/473 440/751/473
f 441/765/474 444/766/474 439/762/474 443/767/474
f 445/755/475 444/763/475 441/756/475
f 447/768/476 443/758/476 439/769/476
f 439/762/477 448/761/477 447/768/477
f 448/761/478 445/755/478 442/752/478 446/770/478
f 448/761/479 446/770/479 447/768/479
f 442/752/480 440/751/480 446/770/480
o Cube
v -3.002298 0.227626 -1.137406
v -2.690265 -0.038412 -0.927503
v -2.973440 -0.093939 -0.934437
v -2.853508 -0.003515 -0.729500
v -2.773412 0.072428 -1.166104
v -3.117244 0.111381 -0.940390
v -3.030798 0.127555 -0.735387
v -2.656579 0.212232 -0.847026
v -2.798290 0.364157 -0.979687
v -2.882222 0.337737 -0.792797
vn 0.1757 -0.9345 0.3095
vn -0.4978 -0.6475 0.5770
vn 0.8136 0.3607 -0.4560
vn 0.9415 -0.0184 -0.3366
vn -0.7261 0.6775 0.1172
vn 0.1813 -0.8662 -0.4656
vn -0.5166 -0.4897 -0.7024
vn -0.7675 -0.5269 0.3652
vn 0.2624 0.5354 -0.8028
vn -0.4978 0.8613 -0.1018
vn 0.2392 0.1965 0.9509
vn 0.5182 0.7833 0.3435
vn 0.7094 -0.3001 0.6377
vt 0.550384 0.206938
vt 0.375000 0.305791
vt 0.375000 0.049496
vt 0.180791 0.500000
vt 0.330928 0.574320
vt 0.125000 0.700504
vt 0.804283 0.500000
vt 0.842867 0.681766
vt 0.658516 0.626313
vt 0.875000 0.500000
vt 0.501754 0.540833
vt 0.565165 0.799791
vt 0.325310 0.750000
vt 0.604031 0.069198
vt 0.375000 1.000000
vt 0.375000 0.799690
vt 0.578028 1.000000
vt 0.615335 0.592735
vt 0.589707 0.775249
vt 0.581909 0.353207
s 0
g Cube_Material
usemtl Material
f 450/771/481 452/772/481 451/773/481
f 452/774/482 455/775/482 451/776/482
f 456/777/483 453/778/483 457/779/483
f 453/778/484 456/777/484 450/780/484
f 458/781/485 449/782/485 454/783/485 455/775/485
f 451/773/486 453/784/486 450/771/486
f 451/785/487 454/786/487 449/782/487 453/787/487
f 455/775/488 454/783/488 451/776/488
f 457/788/489 453/778/489 449/789/489
f 449/782/490 458/781/490 457/788/490
f 458/781/491 455/775/491 452/772/491 456/790/491
f 458/781/492 456/790/492 457/788/492
f 452/772/493 450/771/493 456/790/493
o Cube
v -0.823681 -0.183733 3.238502
v -0.955901 0.154277 2.852638
v -0.687487 0.185707 3.045387
v -0.928270 0.348191 3.076987
v -0.879833 -0.144865 2.926157
v -0.722511 0.082681 3.312412
v -0.881964 0.283557 3.317839
v -1.198516 0.111300 3.032738
v -1.147044 -0.096378 3.218682
v -1.132859 0.113554 3.328940
vn 0.3746 0.6781 -0.6323
vn 0.5659 0.8171 0.1105
vn -0.6404 -0.5943 -0.4865
vn -0.5254 -0.3267 -0.7857
vn 0.0274 -0.1640 0.9861
vn 0.5864 -0.0496 -0.8085
vn 0.9058 -0.4027 -0.1317
vn 0.7455 0.5831 0.3228
vn -0.2559 -0.9639 -0.0739
vn -0.1749 -0.4485 0.8765
vn -0.6094 0.7630 0.2157
vn -0.9751 -0.0478 0.2165
vn -0.5106 0.6806 -0.5254
vt 0.550384 0.206938
vt 0.375000 0.305791
vt 0.375000 0.049496
vt 0.180791 0.500000
vt 0.330928 0.574320
vt 0.125000 0.700504
vt 0.804283 0.500000
vt 0.842867 0.681766
vt 0.658516 0.626313
vt 0.875000 0.500000
vt 0.501754 0.540833
vt 0.565165 0.799791
vt 0.325310 0.750000
vt 0.604031 0.069198
vt 0.375000 1.000000
vt 0.375000 0.799690
vt 0.578028 1.000000
vt 0.615335 0.592735
vt 0.589707 0.775249
vt 0.581909 0.353207
s 0
g Cube_Material
usemtl Material
f 460/791/494 462/792/494 461/793/494
f 462/794/495 465/795/495 461/796/495
f 466/797/496 463/798/496 467/799/496
f 463/798/497 466/797/497 460/800/497
f 468/801/498 459/802/498 464/803/498 465/795/498
f 461/793/499 463/804/499 460/791/499
f 461/805/500 464/806/500 459/802/500 463/807/500
f 465/795/501 464/803/501 461/796/501
f 467/808/502 463/798/502 459/809/502
f 459/802/503 468/801/503 467/808/503
f 468/801/504 465/795/504 462/792/504 466/810/504
f 468/801/505 466/810/505 467/808/505
f 462/792/506 460/791/506 466/810/506
o Cube
v -2.282799 0.263223 1.099605
v -2.459905 0.540500 1.516757
v -2.371853 0.219645 1.528117
v -2.650375 0.310748 1.529103
v -2.235711 0.515123 1.292348
v -2.420207 0.075929 1.281870
v -2.661533 0.123473 1.357314
v -2.654648 0.578361 1.283666
v -2.547436 0.464179 1.046406
v -2.717264 0.321402 1.133197
vn 0.0166 0.0399 0.9991
vn -0.2113 -0.6539 0.7265
vn 0.1460 0.9156 -0.3747
vn 0.1484 0.9883 0.0365
vn -0.2193 -0.6857 -0.6941
vn 0.7028 0.2168 0.6776
vn 0.9103 -0.3860 0.1499
vn -0.0118 -0.8626 0.5058
vn 0.5001 0.4653 -0.7303
vn -0.1241 -0.4034 -0.9065
vn -0.9850 0.0420 0.1675
vn -0.6854 0.4851 -0.5431
vn -0.6047 0.5331 0.5918
vt 0.550384 0.206938
vt 0.375000 0.305791
vt 0.375000 0.049496
vt 0.180791 0.500000
vt 0.330928 0.574320
vt 0.125000 0.700504
vt 0.804283 0.500000
vt 0.842867 0.681766
vt 0.658516 0.626313
vt 0.875000 0.500000
vt 0.501754 0.540833
vt 0.565165 0.799791
vt 0.325310 0.750000
vt 0.604031 0.069198
vt 0.375000 1.000000
vt 0.375000 0.799690
vt 0.578028 1.000000
vt 0.615335 0.592735
vt 0.589707 0.775249
vt 0.581909 0.353207
s 0
g Cube_Material
usemtl Material
f 470/811/507 472/812/507 471/813/507
f 472/814/508 475/815/508 471/816/508
f 476/817/509 473/818/509 477/819/509
f 473/818/510 476/817/510 470/820/510
f 478/821/511 469/822/511 474/823/511 475/815/511
f 471/813/512 473/824/512 470/811/512
f 471/825/513 474/826/513 469/822/513 473/827/513
f 475/815/514 474/823/514 471/816/514
f 477/828/515 473/818/515 469/829/515
f 469/822/516 478/821/516 477/828/516
f 478/821/517 475/815/517 472/812/517 476/830/517
f 478/821/518 476/830/518 477/828/518
f 472/812/519 470/811/519 476/830/519
o Cube
v -0.372889 0.308740 2.719853
v -0.524636 0.088921 3.065422
v -0.274921 0.199924 3.050465
v -0.316672 -0.036325 3.028531
v -0.557200 0.295184 2.907832
v -0.184142 0.203902 2.830775
v -0.185852 -0.004191 2.868575
v -0.561855 -0.049688 2.858729
v -0.511310 0.074976 2.667604
v -0.366505 -0.052203 2.702498
vn 0.1085 -0.1109 0.9879
vn 0.7782 -0.1930 0.5977
vn -0.9727 0.0455 -0.2275
vn -0.9825 -0.0132 0.1858
vn 0.5974 -0.0239 -0.8016
vn -0.2072 0.5731 0.7929
vn 0.2753 0.9344 0.2260
vn 0.9220 0.0618 0.3821
vn -0.6338 0.5061 -0.5850
vn 0.2761 0.0510 -0.9598
vn 0.1193 -0.9924 0.0301
vn -0.4622 -0.6818 -0.5670
vn -0.3501 -0.7476 0.5644
vt 0.550384 0.206938
vt 0.375000 0.305791
vt 0.375000 0.049496
vt 0.180791 0.500000
vt 0.330928 0.574320
vt 0.125000 0.700504
vt 0.804283 0.500000
vt 0.842867 0.681766
vt 0.658516 0.626313
vt 0.875000 0.500000
vt 0.501754 0.540833
vt 0.565165 0.799791
vt 0.325310 0.750000
vt 0.604031 0.069198
vt 0.375000 1.000000
vt 0.375000 0.799690
vt 0.578028 1.000000
vt 0.615335 0.592735
vt 0.589707 0.775249
vt 0.581909 0.353207
s 0
g Cube_Material
usemtl Material
f 480/831/520 482/832/520 481/833/520
f 482/834/521 485/835/521 481/836/521
f 486/837/522 483/838/522 487/839/522
f 483/838/523 486/837/523 480/840/523
f 488/841/524 479/842/524 484/843/524 485/835/524
f 481/833/525 483/844/525 480/831/525
f 481/845/526 484/846/526 479/842/526 483/847/526
f 485/835/527 484/843/527 481/836/527
f 487/848/528 483/838/528 479/849/528
f 479/842/529 488/841/529 487/848/529
f 488/841/530 485/835/530 482/832/530 486/850/530
f 488/841/531 486/850/531 487/848/531
f 482/832/532 480/831/532 486/850/532
o Cube
v 0.227985 0.221277 -2.199239
v 0.012273 0.273122 -1.854248
v 0.095377 0.045747 -1.940574
v -0.119865 0.113740 -1.955801
v 0.218263 0.328314 -1.976229
v 0.106377 0.031883 -2.163133
v -0.090147 0.043488 -2.136768
v -0.099605 0.383068 -2.030988
v 0.025446 0.383539 -2.211365
v -0.108000 0.258319 -2.229869
vn -0.1923 -0.4090 0.8921
vn -0.3066 -0.9032 0.3003
vn 0.1508 0.9827 0.1071
vn 0.0632 0.8649 0.4980
vn -0.0197 -0.2998 -0.9538
vn 0.5301 -0.1247 0.8387
vn 0.8863 -0.4349 0.1592
vn -0.0509 -0.9969 0.0596
vn 0.6033 0.7289 -0.3235
vn 0.0956 0.0450 -0.9944
vn -0.9987 -0.0123 -0.0497
vn -0.5934 0.6929 -0.4096
vn -0.7517 0.2292 0.6184
vt 0.550384 0.206938
vt 0.375000 0.305791
vt 0.375000 0.049496
vt 0.180791 0.500000
vt 0.330928 0.574320
vt 0.125000 0.700504
vt 0.804283 0.500000
vt 0.842867 0.681766
vt 0.658516 0.626313
vt 0.875000 0.500000
vt 0.501754 0.540833
vt 0.565165 0.799791
vt 0.325310 0.750000
vt 0.604031 0.069198
vt 0.375000 1.000000
vt 0.375000 0.799690
vt 0.578028 1.000000
vt 0.615335 0.592735
vt 0.589707 0.775249
vt 0.581909 0.353207
s 0
g Cube_Material
usemtl Material
f 490/851/533 492/852/533 491/853/533
f 492/854/534 495/855/534 491/856/534
f 496/857/535 493/858/535 497/859/535
f 493/858/536 496/857/536 490/860/536
f 498/861/537 489/862/537 494/863/537 495/855/537
f 491/853/538 493/864/538 490/851/538
f 491/865/539 494/866/539 489/862/539 493/867/539
f 495/855/540 494/863/540 491/856/540
f 497/868/541 493/858/541 489/869/541
f 489/862/542 498/861/542 497/868/542
f 498/861/543 495/855/543 492/852/543 496/870/543
f 498/861/544 496/870/544 497/868/544
f 492/852/545 490/851/545 496/870/545
o Cube
v -1.626379 0.050979 1.458003
v -1.793099 0.430995 1.311479
v -1.554185 0.322746 1.226338
v -1.568886 0.510682 1.379268
v -1.829415 0.171055 1.335899
v -1.439811 0.195650 1.394112
v -1.424165 0.391836 1.475864
v -1.792906 0.434496 1.565001
v -1.734270 0.222588 1.649351
v -1.580731 0.345210 1.667669
vn 0.0099 0.6316 -0.7752
vn 0.7234 0.4690 -0.5068
vn -0.9413 -0.1377 0.3083
vn -0.9904 0.1383 -0.0012
vn 0.6813 -0.4350 0.5888
vn -0.3510 -0.0389 -0.9356
vn 0.1513 -0.6642 -0.7321
vn 0.8631 0.1340 -0.4869
vn -0.6142 -0.7274 0.3060
vn 0.3733 -0.5761 0.7272
vn 0.2166 0.8429 0.4925
vn -0.3245 0.2709 0.9062
vn -0.3314 0.9434 -0.0128
vt 0.550384 0.206938
vt 0.375000 0.305791
vt 0.375000 0.049496
vt 0.180791 0.500000
vt 0.330928 0.574320
vt 0.125000 0.700504
vt 0.804283 0.500000
vt 0.842867 0.681766
vt 0.658516 0.626313
vt 0.875000 0.500000
vt 0.501754 0.540833
vt 0.565165 0.799791
vt 0.325310 0.750000
vt 0.604031 0.069198
vt 0.375000 1.000000
vt 0.375000 0.799690
vt 0.578028 1.000000
vt 0.615335 0.592735
vt 0.589707 0.775249
vt 0.581909 0.353207
s 0
g Cube_Material
usemtl Material
f 500/871/546 502/872/546 501/873/546
f 502/874/547 505/875/547 501/876/547
f 506/877/548 503/878/548 507/879/548
f 503/878/549 506/877/549 500/880/549
f 508/881/550 499/882/550 504/883/550 505/875/550
f 501/873/551 503/884/551 500/871/551
f 501/885/552 504/886/552 499/882/552 503/887/552
f 505/875/553 504/883/553 501/876/553
f 507/888/554 503/878/554 499/889/554
f 499/882/555 508/881/555 507/888/555
f 508/881/556 505/875/556 502/872/556 506/890/556
f 508/881/557 506/890/557 507/888/557
f 502/872/558 500/871/558 506/890/558
o Cube
v 1.445497 0.157485 1.745267
v 1.259295 0.095398 1.086738
v 1.476762 0.430593 1.247219
v 1.108206 0.443384 1.159703
v 1.474759 -0.066814 1.397649
v 1.394232 0.508416 1.603635
v 1.107123 0.587789 1.455325
v 0.942083 0.032453 1.315086
v 1.041325 0.015254 1.668727
v 0.907967 0.287387 1.612967
vn 0.2304 0.2945 -0.9274
vn 0.1341 0.8906 -0.4346
vn -0.1838 -0.9830 0.0038
vn -0.1076 -0.9101 -0.4003
vn -0.1853 0.4447 0.8763
vn 0.7569 -0.1920 -0.6247
vn 0.9886 0.0971 0.1153
vn 0.3256 0.9366 -0.1291
vn 0.1851 -0.8186 0.5438
vn -0.2167 0.0929 0.9718
vn -0.8984 0.3379 -0.2806
vn -0.8915 -0.3895 0.2312
vn -0.5723 -0.0773 -0.8164
vt 0.550384 0.206938
vt 0.375000 0.305791
vt 0.375000 0.049496
vt 0.180791 0.500000
vt 0.330928 0.574320
vt 0.125000 0.700504
vt 0.804283 0.500000
vt 0.842867 0.681766
vt 0.658516 0.626313
vt 0.875000 0.500000
vt 0.501754 0.540833
vt 0.565165 0.799791
vt 0.325310 0.750000
vt 0.604031 0.069198
vt 0.375000 1.000000
vt 0.375000 0.799690
vt 0.578028 1.000000
vt 0.615335 0.592735
vt 0.589707 0.775249
vt 0.581909 0.353207
s 0
g Cube_Material
usemtl Material
f 510/891/559 512/892/559 511/893/559
f 512/894/560 515/895/560 511/896/560
f 516/897/561 513/898/561 517/899/561
f 513/898/562 516/897/562 510/900/562
f 518/901/563 509/902/563 514/903/563 515/895/563
f 511/893/564 513/904/564 510/891/564
f 511/905/565 514/906/565 509/902/565 513/907/565
f 515/895/566 514/903/566 511/896/566
f 517/908/567 513/898/567 509/909/567
f 509/902/568 518/901/568 517/908/568
f 518/901/569 515/895/569 512/892/569 516/910/569
f 518/901/570 516/910/570 517/908/570
f 512/892/571 510/891/571 516/910/571
o Cube
v 1.075485 -0.237698 -1.687920
v 0.871980 -0.236053 -1.331211
v 0.771171 -0.162511 -1.556270
v 0.835214 -0.017154 -1.394773
v 0.992512 -0.372138 -1.496926
v 0.919417 -0.071385 -1.696590
v 0.913701 0.067226 -1.554096
v 1.077883 -0.123273 -1.301779
v 1.203405 -0.146270 -1.480690
v 1.131668 0.023316 -1.477684
vn -0.9166 -0.0384 0.3980
vn -0.8411 0.5231 -0.1373
vn 0.6115 -0.6074 0.5071
vn 0.2531 -0.6492 0.7172
vn 0.4671 0.5512 -0.6914
vn -0.6966 -0.7131 0.0790
vn -0.4409 -0.5683 -0.6947
vn -0.7424 0.4651 -0.4822
vn 0.7277 -0.6683 -0.1543
vn 0.7357 0.3218 -0.5961
vn 0.0513 0.8128 0.5803
vn 0.7930 0.3263 0.5144
vn -0.2595 0.2289 0.9382
vt 0.550384 0.206938
vt 0.375000 0.305791
vt 0.375000 0.049496
vt 0.180791 0.500000
vt 0.330928 0.574320
vt 0.125000 0.700504
vt 0.804283 0.500000
vt 0.842867 0.681766
vt 0.658516 0.626313
vt 0.875000 0.500000
vt 0.501754 0.540833
vt 0.565165 0.799791
vt 0.325310 0.750000
vt 0.604031 0.069198
vt 0.375000 1.000000
vt 0.375000 0.799690
vt 0.578028 1.000000
vt 0.615335 0.592735
vt 0.589707 0.775249
vt 0.581909 0.353207
s 0
g Cube_Material
usemtl Material
f 520/911/572 522/912/572 521/913/572
f 522/914/573 525/915/573 521/916/573
f 526/917/574 523/918/574 527/919/574
f 523/918/575 526/917/575 520/920/575
f 528/921/576 519/922/576 524/923/576 525/915/576
f 521/913/577 523/924/577 520/911/577
f 521/925/578 524/926/578 519/922/578 523/927/578
f 525/915/579 524/923/579 521/916/579
f 527/928/580 523/918/580 519/929/580
f 519/922/581 528/921/581 527/928/581
f 528/921/582 525/915/582 522/912/582 526/930/582
f 528/921/583 526/930/583 527/928/583
f 522/912/584 520/911/584 526/930/584
