# Blender 4.1.0
# www.blender.org
mtllib Explosion20037.mtl
o Circle
v -0.024615 0.096888 -1.522372
v -0.024615 0.242742 -1.522372
v 0.122545 0.096888 -1.515142
v 0.122545 0.242742 -1.515142
v 0.268288 0.096888 -1.493523
v 0.268288 0.242742 -1.493523
v 0.411211 0.096888 -1.457723
v 0.411211 0.242742 -1.457723
v 0.549936 0.096888 -1.408086
v 0.549936 0.242742 -1.408086
v 0.683127 0.096888 -1.345092
v 0.683127 0.242742 -1.345092
v 0.809503 0.096888 -1.269345
v 0.809503 0.242742 -1.269345
v 0.927846 0.096888 -1.181576
v 0.927846 0.242742 -1.181576
v 1.037016 0.096888 -1.082630
v 1.037016 0.242742 -1.082630
v 1.135962 0.096888 -0.973460
v 1.135962 0.242742 -0.973460
v 1.223731 0.096888 -0.855117
v 1.223731 0.242742 -0.855117
v 1.299478 0.096888 -0.728741
v 1.299478 0.242742 -0.728741
v 1.362473 0.096888 -0.595549
v 1.362473 0.242742 -0.595549
v 1.412110 0.096888 -0.456824
v 1.412110 0.242742 -0.456824
v 1.447910 0.096888 -0.313902
v 1.447910 0.242742 -0.313902
v 1.469529 0.096888 -0.168159
v 1.469529 0.242742 -0.168159
v 1.476758 0.096888 -0.020998
v 1.476758 0.242742 -0.020998
v 1.469529 0.096888 0.126162
v 1.469529 0.242742 0.126162
v 1.447910 0.096888 0.271905
v 1.447910 0.242742 0.271905
v 1.412110 0.096888 0.414827
v 1.412110 0.242742 0.414827
v 1.362473 0.096888 0.553553
v 1.362473 0.242742 0.553553
v 1.299478 0.096888 0.686744
v 1.299478 0.242742 0.686744
v 1.223731 0.096888 0.813120
v 1.223731 0.242742 0.813120
v 1.135962 0.096888 0.931463
v 1.135962 0.242742 0.931463
v 1.037016 0.096888 1.040633
v 1.037016 0.242742 1.040633
v 0.927846 0.096888 1.139579
v 0.927846 0.242742 1.139579
v 0.809503 0.096888 1.227348
v 0.809503 0.242742 1.227348
v 0.683127 0.096888 1.303095
v 0.683127 0.242742 1.303095
v 0.549936 0.096888 1.366090
v 0.549936 0.242742 1.366090
v 0.411211 0.096888 1.415727
v 0.411211 0.242742 1.415727
v 0.268288 0.096888 1.451527
v 0.268288 0.242742 1.451527
v 0.122545 0.096888 1.473146
v 0.122545 0.242742 1.473146
v -0.024615 0.096888 1.480376
v -0.024615 0.242742 1.480376
v -0.171775 0.096888 1.473146
v -0.171775 0.242742 1.473146
v -0.317519 0.096888 1.451527
v -0.317519 0.242742 1.451527
v -0.460441 0.096888 1.415727
v -0.460441 0.242742 1.415727
v -0.599166 0.096888 1.366090
v -0.599166 0.242742 1.366090
v -0.732358 0.096888 1.303095
v -0.732358 0.242742 1.303095
v -0.858734 0.096888 1.227348
v -0.858734 0.242742 1.227348
v -0.977076 0.096888 1.139579
v -0.977076 0.242742 1.139579
v -1.086246 0.096888 1.040633
v -1.086246 0.242742 1.040633
v -1.185192 0.096888 0.931463
v -1.185192 0.242742 0.931463
v -1.272961 0.096888 0.813120
v -1.272961 0.242742 0.813120
v -1.348708 0.096888 0.686744
v -1.348708 0.242742 0.686744
v -1.411703 0.096888 0.553553
v -1.411703 0.242742 0.553553
v -1.461340 0.096888 0.414827
v -1.461340 0.242742 0.414827
v -1.497140 0.096888 0.271905
v -1.497140 0.242742 0.271905
v -1.518759 0.096888 0.126162
v -1.518759 0.242742 0.126162
v -1.525989 0.096888 -0.020998
v -1.525989 0.242742 -0.020998
v -1.518759 0.096888 -0.168159
v -1.518759 0.242742 -0.168159
v -1.497140 0.096888 -0.313902
v -1.497140 0.242742 -0.313902
v -1.461340 0.096888 -0.456824
v -1.461340 0.242742 -0.456824
v -1.411703 0.096888 -0.595549
v -1.411703 0.242742 -0.595549
v -1.348708 0.096888 -0.728741
v -1.348708 0.242742 -0.728741
v -1.272961 0.096888 -0.855117
v -1.272961 0.242742 -0.855117
v -1.185192 0.096888 -0.973460
v -1.185192 0.242742 -0.973460
v -1.086246 0.096888 -1.082630
v -1.086246 0.242742 -1.082630
v -0.977076 0.096888 -1.181576
v -0.977076 0.242742 -1.181576
v -0.858734 0.096888 -1.269345
v -0.858734 0.242742 -1.269345
v -0.732358 0.096888 -1.345092
v -0.732358 0.242742 -1.345092
v -0.599166 0.096888 -1.408086
v -0.599166 0.242742 -1.408086
v -0.460441 0.096888 -1.457723
v -0.460441 0.242742 -1.457723
v -0.317519 0.096888 -1.493523
v -0.317519 0.242742 -1.493523
v -0.171775 0.096888 -1.515142
v -0.171775 0.242742 -1.515142
vn 0.0491 -0.0000 -0.9988
vn 0.1467 -0.0000 -0.9892
vn 0.2430 -0.0000 -0.9700
vn 0.3369 -0.0000 -0.9415
vn 0.4276 -0.0000 -0.9040
vn 0.5141 -0.0000 -0.8577
vn 0.5957 -0.0000 -0.8032
vn 0.6716 -0.0000 -0.7410
vn 0.7410 -0.0000 -0.6716
vn 0.8032 -0.0000 -0.5957
vn 0.8577 -0.0000 -0.5141
vn 0.9040 -0.0000 -0.4276
vn 0.9415 -0.0000 -0.3369
vn 0.9700 -0.0000 -0.2430
vn 0.9892 -0.0000 -0.1467
vn 0.9988 -0.0000 -0.0491
vn 0.9988 -0.0000 0.0491
vn 0.9892 -0.0000 0.1467
vn 0.9700 -0.0000 0.2430
vn 0.9415 -0.0000 0.3369
vn 0.9040 -0.0000 0.4276
vn 0.8577 -0.0000 0.5141
vn 0.8032 -0.0000 0.5957
vn 0.7410 -0.0000 0.6716
vn 0.6716 -0.0000 0.7410
vn 0.5957 -0.0000 0.8032
vn 0.5141 -0.0000 0.8577
vn 0.4276 -0.0000 0.9040
vn 0.3369 -0.0000 0.9415
vn 0.2430 -0.0000 0.9700
vn 0.1467 -0.0000 0.9892
vn 0.0491 -0.0000 0.9988
vn -0.0491 -0.0000 0.9988
vn -0.1467 -0.0000 0.9892
vn -0.2430 -0.0000 0.9700
vn -0.3369 -0.0000 0.9415
vn -0.4276 -0.0000 0.9040
vn -0.5141 -0.0000 0.8577
vn -0.5957 -0.0000 0.8032
vn -0.6716 -0.0000 0.7410
vn -0.7410 -0.0000 0.6716
vn -0.8032 -0.0000 0.5957
vn -0.8577 -0.0000 0.5141
vn -0.9040 -0.0000 0.4276
vn -0.9415 -0.0000 0.3369
vn -0.9700 -0.0000 0.2430
vn -0.9892 -0.0000 0.1467
vn -0.9988 -0.0000 0.0491
vn -0.9988 -0.0000 -0.0491
vn -0.9892 -0.0000 -0.1467
vn -0.9700 -0.0000 -0.2430
vn -0.9415 -0.0000 -0.3369
vn -0.9040 -0.0000 -0.4276
vn -0.8577 -0.0000 -0.5141
vn -0.8032 -0.0000 -0.5957
vn -0.7410 -0.0000 -0.6716
vn -0.6716 -0.0000 -0.7410
vn -0.5957 -0.0000 -0.8032
vn -0.5141 -0.0000 -0.8577
vn -0.4276 -0.0000 -0.9040
vn -0.3369 -0.0000 -0.9415
vn -0.2430 -0.0000 -0.9700
vn -0.1467 -0.0000 -0.9892
vn -0.0491 -0.0000 -0.9988
vt 1.000000 0.500000
vt 1.000000 1.000000
vt 0.984375 1.000000
vt 0.984375 0.500000
vt 0.968750 1.000000
vt 0.968750 0.500000
vt 0.953125 1.000000
vt 0.953125 0.500000
vt 0.937500 1.000000
vt 0.937500 0.500000
vt 0.921875 1.000000
vt 0.921875 0.500000
vt 0.906250 1.000000
vt 0.906250 0.500000
vt 0.890625 1.000000
vt 0.890625 0.500000
vt 0.875000 1.000000
vt 0.875000 0.500000
vt 0.859375 1.000000
vt 0.859375 0.500000
vt 0.843750 1.000000
vt 0.843750 0.500000
vt 0.828125 1.000000
vt 0.828125 0.500000
vt 0.812500 1.000000
vt 0.812500 0.500000
vt 0.796875 1.000000
vt 0.796875 0.500000
vt 0.781250 1.000000
vt 0.781250 0.500000
vt 0.765625 1.000000
vt 0.765625 0.500000
vt 0.750000 1.000000
vt 0.750000 0.500000
vt 0.734375 1.000000
vt 0.734375 0.500000
vt 0.718750 1.000000
vt 0.718750 0.500000
vt 0.703125 1.000000
vt 0.703125 0.500000
vt 0.687500 1.000000
vt 0.687500 0.500000
vt 0.671875 1.000000
vt 0.671875 0.500000
vt 0.656250 1.000000
vt 0.656250 0.500000
vt 0.640625 1.000000
vt 0.640625 0.500000
vt 0.625000 1.000000
vt 0.625000 0.500000
vt 0.609375 1.000000
vt 0.609375 0.500000
vt 0.593750 1.000000
vt 0.593750 0.500000
vt 0.578125 1.000000
vt 0.578125 0.500000
vt 0.562500 1.000000
vt 0.562500 0.500000
vt 0.546875 1.000000
vt 0.546875 0.500000
vt 0.531250 1.000000
vt 0.531250 0.500000
vt 0.515625 1.000000
vt 0.515625 0.500000
vt 0.500000 1.000000
vt 0.500000 0.500000
vt 0.484375 1.000000
vt 0.484375 0.500000
vt 0.468750 1.000000
vt 0.468750 0.500000
vt 0.453125 1.000000
vt 0.453125 0.500000
vt 0.437500 1.000000
vt 0.437500 0.500000
vt 0.421875 1.000000
vt 0.421875 0.500000
vt 0.406250 1.000000
vt 0.406250 0.500000
vt 0.390625 1.000000
vt 0.390625 0.500000
vt 0.375000 1.000000
vt 0.375000 0.500000
vt 0.359375 1.000000
vt 0.359375 0.500000
vt 0.343750 1.000000
vt 0.343750 0.500000
vt 0.328125 1.000000
vt 0.328125 0.500000
vt 0.312500 1.000000
vt 0.312500 0.500000
vt 0.296875 1.000000
vt 0.296875 0.500000
vt 0.281250 1.000000
vt 0.281250 0.500000
vt 0.265625 1.000000
vt 0.265625 0.500000
vt 0.250000 1.000000
vt 0.250000 0.500000
vt 0.234375 1.000000
vt 0.234375 0.500000
vt 0.218750 1.000000
vt 0.218750 0.500000
vt 0.203125 1.000000
vt 0.203125 0.500000
vt 0.187500 1.000000
vt 0.187500 0.500000
vt 0.171875 1.000000
vt 0.171875 0.500000
vt 0.156250 1.000000
vt 0.156250 0.500000
vt 0.140625 1.000000
vt 0.140625 0.500000
vt 0.125000 1.000000
vt 0.125000 0.500000
vt 0.109375 1.000000
vt 0.109375 0.500000
vt 0.093750 1.000000
vt 0.093750 0.500000
vt 0.078125 1.000000
vt 0.078125 0.500000
vt 0.062500 1.000000
vt 0.062500 0.500000
vt 0.046875 1.000000
vt 0.046875 0.500000
vt 0.031250 1.000000
vt 0.031250 0.500000
vt 0.015625 1.000000
vt 0.015625 0.500000
vt 0.000000 1.000000
vt 0.000000 0.500000
s 0
g Circle_Material.001
usemtl Material.001
f 1/1/1 2/2/1 4/3/1 3/4/1
f 3/4/2 4/3/2 6/5/2 5/6/2
f 5/6/3 6/5/3 8/7/3 7/8/3
f 7/8/4 8/7/4 10/9/4 9/10/4
f 9/10/5 10/9/5 12/11/5 11/12/5
f 11/12/6 12/11/6 14/13/6 13/14/6
f 13/14/7 14/13/7 16/15/7 15/16/7
f 15/16/8 16/15/8 18/17/8 17/18/8
f 17/18/9 18/17/9 20/19/9 19/20/9
f 19/20/10 20/19/10 22/21/10 21/22/10
f 21/22/11 22/21/11 24/23/11 23/24/11
f 23/24/12 24/23/12 26/25/12 25/26/12
f 25/26/13 26/25/13 28/27/13 27/28/13
f 27/28/14 28/27/14 30/29/14 29/30/14
f 29/30/15 30/29/15 32/31/15 31/32/15
f 31/32/16 32/31/16 34/33/16 33/34/16
f 33/34/17 34/33/17 36/35/17 35/36/17
f 35/36/18 36/35/18 38/37/18 37/38/18
f 37/38/19 38/37/19 40/39/19 39/40/19
f 39/40/20 40/39/20 42/41/20 41/42/20
f 41/42/21 42/41/21 44/43/21 43/44/21
f 43/44/22 44/43/22 46/45/22 45/46/22
f 45/46/23 46/45/23 48/47/23 47/48/23
f 47/48/24 48/47/24 50/49/24 49/50/24
f 49/50/25 50/49/25 52/51/25 51/52/25
f 51/52/26 52/51/26 54/53/26 53/54/26
f 53/54/27 54/53/27 56/55/27 55/56/27
f 55/56/28 56/55/28 58/57/28 57/58/28
f 57/58/29 58/57/29 60/59/29 59/60/29
f 59/60/30 60/59/30 62/61/30 61/62/30
f 61/62/31 62/61/31 64/63/31 63/64/31
f 63/64/32 64/63/32 66/65/32 65/66/32
f 65/66/33 66/65/33 68/67/33 67/68/33
f 67/68/34 68/67/34 70/69/34 69/70/34
f 69/70/35 70/69/35 72/71/35 71/72/35
f 71/72/36 72/71/36 74/73/36 73/74/36
f 73/74/37 74/73/37 76/75/37 75/76/37
f 75/76/38 76/75/38 78/77/38 77/78/38
f 77/78/39 78/77/39 80/79/39 79/80/39
f 79/80/40 80/79/40 82/81/40 81/82/40
f 81/82/41 82/81/41 84/83/41 83/84/41
f 83/84/42 84/83/42 86/85/42 85/86/42
f 85/86/43 86/85/43 88/87/43 87/88/43
f 87/88/44 88/87/44 90/89/44 89/90/44
f 89/90/45 90/89/45 92/91/45 91/92/45
f 91/92/46 92/91/46 94/93/46 93/94/46
f 93/94/47 94/93/47 96/95/47 95/96/47
f 95/96/48 96/95/48 98/97/48 97/98/48
f 97/98/49 98/97/49 100/99/49 99/100/49
f 99/100/50 100/99/50 102/101/50 101/102/50
f 101/102/51 102/101/51 104/103/51 103/104/51
f 103/104/52 104/103/52 106/105/52 105/106/52
f 105/106/53 106/105/53 108/107/53 107/108/53
f 107/108/54 108/107/54 110/109/54 109/110/54
f 109/110/55 110/109/55 112/111/55 111/112/55
f 111/112/56 112/111/56 114/113/56 113/114/56
f 113/114/57 114/113/57 116/115/57 115/116/57
f 115/116/58 116/115/58 118/117/58 117/118/58
f 117/118/59 118/117/59 120/119/59 119/120/59
f 119/120/60 120/119/60 122/121/60 121/122/60
f 121/122/61 122/121/61 124/123/61 123/124/61
f 123/124/62 124/123/62 126/125/62 125/126/62
f 125/126/63 126/125/63 128/127/63 127/128/63
f 127/128/64 128/127/64 2/129/64 1/130/64
o Cube
v 0.675971 0.455359 -6.022686
v 0.733538 0.373511 -6.200178
v 0.613319 0.375170 -6.157215
v 0.678238 0.283437 -6.156009
v 0.728194 0.474804 -6.132312
v 0.604957 0.370493 -6.046721
v 0.640387 0.280476 -6.066142
v 0.802459 0.331275 -6.115053
v 0.783532 0.384043 -6.021536
v 0.744633 0.301435 -6.018180
vn -0.3293 -0.2450 -0.9119
vn -0.7654 -0.5462 -0.3404
vn 0.8893 0.4512 -0.0746
vn 0.8044 0.3594 -0.4730
vn -0.2804 -0.1773 0.9433
vn -0.2802 0.5241 -0.8043
vn -0.6855 0.7198 -0.1098
vn -0.9333 -0.3489 -0.0854
vn 0.5085 0.7730 0.3793
vn 0.0124 0.0348 0.9993
vn 0.2944 -0.9555 -0.0170
vn 0.8410 -0.3804 0.3848
vn 0.4493 -0.6003 -0.6616
vt 0.550384 0.206938
vt 0.375000 0.305791
vt 0.375000 0.049496
vt 0.180791 0.500000
vt 0.330928 0.574320
vt 0.125000 0.700504
vt 0.804283 0.500000
vt 0.842867 0.681766
vt 0.658516 0.626313
vt 0.875000 0.500000
vt 0.501754 0.540833
vt 0.565165 0.799791
vt 0.325310 0.750000
vt 0.604031 0.069198
vt 0.375000 1.000000
vt 0.375000 0.799690
vt 0.578028 1.000000
vt 0.615335 0.592735
vt 0.589707 0.775249
vt 0.581909 0.353207
s 0
g Cube_Material
usemtl Material
f 130/131/65 132/132/65 131/133/65
f 132/134/66 135/135/66 131/136/66
f 136/137/67 133/138/67 137/139/67
f 133/138/68 136/137/68 130/140/68
f 138/141/69 129/142/69 134/143/69 135/135/69
f 131/133/70 133/144/70 130/131/70
f 131/145/71 134/146/71 129/142/71 133/147/71
f 135/135/72 134/143/72 131/136/72
f 137/148/73 133/138/73 129/149/73
f 129/142/74 138/141/74 137/148/74
f 138/141/75 135/135/75 132/132/75 136/150/75
f 138/141/76 136/150/76 137/148/76
f 132/132/77 130/131/77 136/150/77
o Cube
v 3.654551 0.603654 -4.468967
v 3.771730 0.565925 -4.321359
v 3.800818 0.549714 -4.437102
v 3.776215 0.470247 -4.371383
v 3.710452 0.646187 -4.376647
v 3.719723 0.524183 -4.498071
v 3.726360 0.447740 -4.445388
v 3.674241 0.516776 -4.302855
v 3.605483 0.546464 -4.373347
v 3.632340 0.466584 -4.391417
vn 0.9631 -0.0878 0.2543
vn 0.7683 -0.5321 -0.3558
vn -0.4833 0.5318 0.6954
vn -0.0970 0.5133 0.8527
vn -0.6022 -0.3833 -0.7004
vn 0.7566 0.6463 0.0996
vn 0.3848 0.6656 -0.6394
vn 0.6276 -0.4041 -0.6655
vn -0.6851 0.7239 0.0814
vn -0.8352 -0.1620 -0.5255
vn -0.0361 -0.9045 0.4249
vn -0.7376 -0.3750 0.5615
vn 0.3681 -0.4172 0.8310
vt 0.550384 0.206938
vt 0.375000 0.305791
vt 0.375000 0.049496
vt 0.180791 0.500000
vt 0.330928 0.574320
vt 0.125000 0.700504
vt 0.804283 0.500000
vt 0.842867 0.681766
vt 0.658516 0.626313
vt 0.875000 0.500000
vt 0.501754 0.540833
vt 0.565165 0.799791
vt 0.325310 0.750000
vt 0.604031 0.069198
vt 0.375000 1.000000
vt 0.375000 0.799690
vt 0.578028 1.000000
vt 0.615335 0.592735
vt 0.589707 0.775249
vt 0.581909 0.353207
s 0
g Cube_Material
usemtl Material
f 140/151/78 142/152/78 141/153/78
f 142/154/79 145/155/79 141/156/79
f 146/157/80 143/158/80 147/159/80
f 143/158/81 146/157/81 140/160/81
f 148/161/82 139/162/82 144/163/82 145/155/82
f 141/153/83 143/164/83 140/151/83
f 141/165/84 144/166/84 139/162/84 143/167/84
f 145/155/85 144/163/85 141/156/85
f 147/168/86 143/158/86 139/169/86
f 139/162/87 148/161/87 147/168/87
f 148/161/88 145/155/88 142/152/88 146/170/88
f 148/161/89 146/170/89 147/168/89
f 142/152/90 140/151/90 146/170/90
o Cube
v -5.414785 0.498662 -1.518445
v -5.492726 0.448035 -1.285284
v -5.354650 0.401785 -1.344728
v -5.462564 0.316791 -1.327459
v -5.458775 0.555302 -1.385003
v -5.357468 0.377698 -1.479183
v -5.427939 0.287316 -1.438703
v -5.596945 0.410571 -1.378271
v -5.566052 0.452547 -1.502060
v -5.548603 0.341592 -1.494766
vn 0.3220 -0.2218 0.9204
vn 0.6099 -0.6982 0.3748
vn -0.7210 0.6908 0.0543
vn -0.6326 0.6252 0.4571
vn 0.1427 -0.3572 -0.9231
vn 0.4786 0.5118 0.7135
vn 0.8642 0.5029 -0.0187
vn 0.8043 -0.5876 0.0884
vn -0.3044 0.8366 -0.4554
vn -0.0837 -0.0785 -0.9934
vn -0.5444 -0.8238 0.1578
vn -0.9418 -0.1673 -0.2917
vn -0.5422 -0.3674 0.7557
vt 0.550384 0.206938
vt 0.375000 0.305791
vt 0.375000 0.049496
vt 0.180791 0.500000
vt 0.330928 0.574320
vt 0.125000 0.700504
vt 0.804283 0.500000
vt 0.842867 0.681766
vt 0.658516 0.626313
vt 0.875000 0.500000
vt 0.501754 0.540833
vt 0.565165 0.799791
vt 0.325310 0.750000
vt 0.604031 0.069198
vt 0.375000 1.000000
vt 0.375000 0.799690
vt 0.578028 1.000000
vt 0.615335 0.592735
vt 0.589707 0.775249
vt 0.581909 0.353207
s 0
g Cube_Material
usemtl Material
f 150/171/91 152/172/91 151/173/91
f 152/174/92 155/175/92 151/176/92
f 156/177/93 153/178/93 157/179/93
f 153/178/94 156/177/94 150/180/94
f 158/181/95 149/182/95 154/183/95 155/175/95
f 151/173/96 153/184/96 150/171/96
f 151/185/97 154/186/97 149/182/97 153/187/97
f 155/175/98 154/183/98 151/176/98
f 157/188/99 153/178/99 149/189/99
f 149/182/100 158/181/100 157/188/100
f 158/181/101 155/175/101 152/172/101 156/190/101
f 158/181/102 156/190/102 157/188/102
f 152/172/103 150/171/103 156/190/103
o Cube
v 3.180982 0.568989 -4.083147
v 3.087613 0.465124 -4.317995
v 3.209835 0.392956 -4.222245
v 3.237732 0.466964 -4.350536
v 3.050255 0.511330 -4.165501
v 3.293802 0.490646 -4.147904
v 3.329870 0.517187 -4.272412
v 3.125718 0.616108 -4.341076
v 3.157639 0.680268 -4.213629
v 3.261301 0.657760 -4.274952
vn -0.1009 -0.8521 -0.5135
vn 0.6315 -0.7231 -0.2799
vn -0.8494 0.5252 -0.0516
vn -0.9380 0.1927 -0.2882
vn 0.7456 0.4891 0.4526
vn -0.5671 -0.8165 0.1085
vn -0.1090 -0.6272 0.7712
vn 0.7309 -0.6792 0.0670
vn -0.6053 0.5490 0.5764
vn 0.4652 0.7129 0.5247
vn 0.4274 0.2869 -0.8574
vn -0.0631 0.8977 -0.4361
vn -0.2098 -0.0958 -0.9730
vt 0.550384 0.206938
vt 0.375000 0.305791
vt 0.375000 0.049496
vt 0.180791 0.500000
vt 0.330928 0.574320
vt 0.125000 0.700504
vt 0.804283 0.500000
vt 0.842867 0.681766
vt 0.658516 0.626313
vt 0.875000 0.500000
vt 0.501754 0.540833
vt 0.565165 0.799791
vt 0.325310 0.750000
vt 0.604031 0.069198
vt 0.375000 1.000000
vt 0.375000 0.799690
vt 0.578028 1.000000
vt 0.615335 0.592735
vt 0.589707 0.775249
vt 0.581909 0.353207
s 0
g Cube_Material
usemtl Material
f 160/191/104 162/192/104 161/193/104
f 162/194/105 165/195/105 161/196/105
f 166/197/106 163/198/106 167/199/106
f 163/198/107 166/197/107 160/200/107
f 168/201/108 159/202/108 164/203/108 165/195/108
f 161/193/109 163/204/109 160/191/109
f 161/205/110 164/206/110 159/202/110 163/207/110
f 165/195/111 164/203/111 161/196/111
f 167/208/112 163/198/112 159/209/112
f 159/202/113 168/201/113 167/208/113
f 168/201/114 165/195/114 162/192/114 166/210/114
f 168/201/115 166/210/115 167/208/115
f 162/192/116 160/191/116 166/210/116
o Cube
v -4.991536 0.335280 -1.099195
v -5.035738 0.187900 -1.251631
v -5.129359 0.262954 -1.188217
v -5.110068 0.147566 -1.164019
v -4.973192 0.297922 -1.223116
v -5.101182 0.290763 -1.077168
v -5.114946 0.187165 -1.068299
v -4.962522 0.135497 -1.165234
v -4.924684 0.215783 -1.090701
v -4.994843 0.163333 -1.048750
vn -0.6750 -0.2578 -0.6913
vn -0.9867 -0.1615 0.0165
vn 0.9199 -0.0766 -0.3845
vn 0.6816 -0.2055 -0.7023
vn -0.0085 0.2109 0.9775
vn -0.2829 0.3882 -0.8771
vn -0.3250 0.9147 -0.2401
vn -0.9670 0.1463 0.2087
vn 0.8731 0.4872 -0.0176
vn 0.3465 0.2579 0.9019
vn -0.1463 -0.9499 0.2762
vn 0.6854 -0.6420 0.3436
vn -0.0758 -0.8798 -0.4693
vt 0.550384 0.206938
vt 0.375000 0.305791
vt 0.375000 0.049496
vt 0.180791 0.500000
vt 0.330928 0.574320
vt 0.125000 0.700504
vt 0.804283 0.500000
vt 0.842867 0.681766
vt 0.658516 0.626313
vt 0.875000 0.500000
vt 0.501754 0.540833
vt 0.565165 0.799791
vt 0.325310 0.750000
vt 0.604031 0.069198
vt 0.375000 1.000000
vt 0.375000 0.799690
vt 0.578028 1.000000
vt 0.615335 0.592735
vt 0.589707 0.775249
vt 0.581909 0.353207
s 0
g Cube_Material
usemtl Material
f 170/211/117 172/212/117 171/213/117
f 172/214/118 175/215/118 171/216/118
f 176/217/119 173/218/119 177/219/119
f 173/218/120 176/217/120 170/220/120
f 178/221/121 169/222/121 174/223/121 175/215/121
f 171/213/122 173/224/122 170/211/122
f 171/225/123 174/226/123 169/222/123 173/227/123
f 175/215/124 174/223/124 171/216/124
f 177/228/125 173/218/125 169/229/125
f 169/222/126 178/221/126 177/228/126
f 178/221/127 175/215/127 172/212/127 176/230/127
f 178/221/128 176/230/128 177/228/128
f 172/212/129 170/211/129 176/230/129
o Cube
v -1.770820 0.271456 -3.972849
v -1.922934 0.344760 -4.176488
v -1.981073 0.294816 -4.029508
v -1.983117 0.211504 -4.149281
v -1.810004 0.388384 -4.074262
v -1.897652 0.197677 -3.963636
v -1.939361 0.129188 -4.063536
v -1.821921 0.241669 -4.225444
v -1.727016 0.214136 -4.124084
v -1.804061 0.124231 -4.131396
vn -0.9030 0.3599 -0.2349
vn -0.9370 -0.2791 0.2102
vn 0.7006 0.4837 -0.5246
vn 0.3490 0.6586 -0.6667
vn 0.3582 -0.7653 0.5349
vn -0.4516 0.8839 0.1217
vn -0.1600 0.5493 0.8202
vn -0.7842 -0.3081 0.5387
vn 0.9092 0.4012 0.1113
vn 0.6701 -0.6088 0.4248
vn -0.2685 -0.6889 -0.6733
vn 0.5880 -0.4492 -0.6726
vn -0.4286 0.0091 -0.9035
vt 0.550384 0.206938
vt 0.375000 0.305791
vt 0.375000 0.049496
vt 0.180791 0.500000
vt 0.330928 0.574320
vt 0.125000 0.700504
vt 0.804283 0.500000
vt 0.842867 0.681766
vt 0.658516 0.626313
vt 0.875000 0.500000
vt 0.501754 0.540833
vt 0.565165 0.799791
vt 0.325310 0.750000
vt 0.604031 0.069198
vt 0.375000 1.000000
vt 0.375000 0.799690
vt 0.578028 1.000000
vt 0.615335 0.592735
vt 0.589707 0.775249
vt 0.581909 0.353207
s 0
g Cube_Material
usemtl Material
f 180/231/130 182/232/130 181/233/130
f 182/234/131 185/235/131 181/236/131
f 186/237/132 183/238/132 187/239/132
f 183/238/133 186/237/133 180/240/133
f 188/241/134 179/242/134 184/243/134 185/235/134
f 181/233/135 183/244/135 180/231/135
f 181/245/136 184/246/136 179/242/136 183/247/136
f 185/235/137 184/243/137 181/236/137
f 187/248/138 183/238/138 179/249/138
f 179/242/139 188/241/139 187/248/139
f 188/241/140 185/235/140 182/232/140 186/250/140
f 188/241/141 186/250/141 187/248/141
f 182/232/142 180/231/142 186/250/142
o Cube
v -3.599917 -0.149576 -3.431182
v -3.739520 -0.283720 -3.579418
v -3.612072 -0.334191 -3.511924
v -3.618842 -0.301065 -3.642100
v -3.733177 -0.207249 -3.455148
v -3.520318 -0.240177 -3.492985
v -3.519816 -0.247718 -3.610822
v -3.710427 -0.161817 -3.642889
v -3.650631 -0.080845 -3.559863
v -3.577245 -0.121899 -3.629756
vn -0.2527 -0.9407 -0.2262
vn 0.5176 -0.8224 -0.2362
vn -0.8220 0.5682 0.0379
vn -0.9779 0.1964 -0.0710
vn 0.8495 0.5190 0.0952
vn -0.5277 -0.7112 0.4646
vn 0.0991 -0.4042 0.9093
vn 0.7100 -0.7026 0.0480
vn -0.4130 0.7256 0.5503
vn 0.6037 0.7773 0.1773
vn 0.1775 0.0266 -0.9838
vn -0.1673 0.7633 -0.6240
vn -0.4727 -0.3156 -0.8228
vt 0.550384 0.206938
vt 0.375000 0.305791
vt 0.375000 0.049496
vt 0.180791 0.500000
vt 0.330928 0.574320
vt 0.125000 0.700504
vt 0.804283 0.500000
vt 0.842867 0.681766
vt 0.658516 0.626313
vt 0.875000 0.500000
vt 0.501754 0.540833
vt 0.565165 0.799791
vt 0.325310 0.750000
vt 0.604031 0.069198
vt 0.375000 1.000000
vt 0.375000 0.799690
vt 0.578028 1.000000
vt 0.615335 0.592735
vt 0.589707 0.775249
vt 0.581909 0.353207
s 0
g Cube_Material
usemtl Material
f 190/251/143 192/252/143 191/253/143
f 192/254/144 195/255/144 191/256/144
f 196/257/145 193/258/145 197/259/145
f 193/258/146 196/257/146 190/260/146
f 198/261/147 189/262/147 194/263/147 195/255/147
f 191/253/148 193/264/148 190/251/148
f 191/265/149 194/266/149 189/262/149 193/267/149
f 195/255/150 194/263/150 191/256/150
f 197/268/151 193/258/151 189/269/151
f 189/262/152 198/261/152 197/268/152
f 198/261/153 195/255/153 192/252/153 196/270/153
f 198/261/154 196/270/154 197/268/154
f 192/252/155 190/251/155 196/270/155
o Cube
v 4.384750 -0.087460 -0.253914
v 4.400924 -0.179817 -0.386025
v 4.452207 -0.194005 -0.299574
v 4.488425 -0.158165 -0.372980
v 4.340483 -0.147054 -0.317548
v 4.468832 -0.119624 -0.255223
v 4.513899 -0.109103 -0.318569
v 4.409571 -0.090250 -0.410811
v 4.389899 -0.038618 -0.344012
v 4.461992 -0.040290 -0.352803
vn 0.2717 -0.9109 -0.3107
vn 0.8157 -0.5643 0.1270
vn -0.8451 0.2729 -0.4598
vn -0.7693 -0.1004 -0.6310
vn 0.4019 0.7241 0.5605
vn -0.3977 -0.9135 0.0860
vn -0.2796 -0.5223 0.8056
vn 0.7617 -0.4489 0.4673
vn -0.8747 0.4453 0.1914
vn 0.0786 0.8745 0.4786
vn 0.6648 0.2684 -0.6971
vn -0.0576 0.7816 -0.6211
vn 0.2089 -0.2795 -0.9371
vt 0.550384 0.206938
vt 0.375000 0.305791
vt 0.375000 0.049496
vt 0.180791 0.500000
vt 0.330928 0.574320
vt 0.125000 0.700504
vt 0.804283 0.500000
vt 0.842867 0.681766
vt 0.658516 0.626313
vt 0.875000 0.500000
vt 0.501754 0.540833
vt 0.565165 0.799791
vt 0.325310 0.750000
vt 0.604031 0.069198
vt 0.375000 1.000000
vt 0.375000 0.799690
vt 0.578028 1.000000
vt 0.615335 0.592735
vt 0.589707 0.775249
vt 0.581909 0.353207
s 0
g Cube_Material
usemtl Material
f 200/271/156 202/272/156 201/273/156
f 202/274/157 205/275/157 201/276/157
f 206/277/158 203/278/158 207/279/158
f 203/278/159 206/277/159 200/280/159
f 208/281/160 199/282/160 204/283/160 205/275/160
f 201/273/161 203/284/161 200/271/161
f 201/285/162 204/286/162 199/282/162 203/287/162
f 205/275/163 204/283/163 201/276/163
f 207/288/164 203/278/164 199/289/164
f 199/282/165 208/281/165 207/288/165
f 208/281/166 205/275/166 202/272/166 206/290/166
f 208/281/167 206/290/167 207/288/167
f 202/272/168 200/271/168 206/290/168
o Cube
v 0.402543 -0.170895 4.134643
v 0.205969 -0.275819 4.217038
v 0.206494 -0.157038 4.127308
v 0.180478 -0.150501 4.255570
v 0.325037 -0.291375 4.140689
v 0.308220 -0.079003 4.144169
v 0.252809 -0.063508 4.243791
v 0.289690 -0.250442 4.322301
v 0.402495 -0.209883 4.279983
v 0.347209 -0.127204 4.318149
vn -0.9719 -0.1393 -0.1900
vn -0.7677 0.6130 -0.1870
vn 0.4153 -0.8668 0.2762
vn 0.0154 -0.9748 0.2227
vn 0.6180 0.7822 0.0782
vn -0.5088 -0.5175 -0.6880
vn 0.0388 0.0194 -0.9991
vn -0.5138 0.7570 -0.4036
vn 0.8288 -0.5405 -0.1447
vn 0.8514 0.5065 0.1361
vn -0.3716 0.2962 0.8799
vn 0.3951 -0.1539 0.9057
vn -0.6958 -0.3366 0.6345
vt 0.550384 0.206938
vt 0.375000 0.305791
vt 0.375000 0.049496
vt 0.180791 0.500000
vt 0.330928 0.574320
vt 0.125000 0.700504
vt 0.804283 0.500000
vt 0.842867 0.681766
vt 0.658516 0.626313
vt 0.875000 0.500000
vt 0.501754 0.540833
vt 0.565165 0.799791
vt 0.325310 0.750000
vt 0.604031 0.069198
vt 0.375000 1.000000
vt 0.375000 0.799690
vt 0.578028 1.000000
vt 0.615335 0.592735
vt 0.589707 0.775249
vt 0.581909 0.353207
s 0
g Cube_Material
usemtl Material
f 210/291/169 212/292/169 211/293/169
f 212/294/170 215/295/170 211/296/170
f 216/297/171 213/298/171 217/299/171
f 213/298/172 216/297/172 210/300/172
f 218/301/173 209/302/173 214/303/173 215/295/173
f 211/293/174 213/304/174 210/291/174
f 211/305/175 214/306/175 209/302/175 213/307/175
f 215/295/176 214/303/176 211/296/176
f 217/308/177 213/298/177 209/309/177
f 209/302/178 218/301/178 217/308/178
f 218/301/179 215/295/179 212/292/179 216/310/179
f 218/301/180 216/310/180 217/308/180
f 212/292/181 210/291/181 216/310/181
o Cube
v -3.703264 -0.218111 -1.541203
v -3.643507 -0.194866 -1.375090
v -3.751384 -0.196885 -1.403497
v -3.702670 -0.114398 -1.381850
v -3.646330 -0.259407 -1.459948
v -3.769266 -0.162803 -1.492447
v -3.744011 -0.090666 -1.452532
v -3.595170 -0.128913 -1.437035
v -3.616015 -0.147861 -1.528057
v -3.656596 -0.083277 -1.504446
vn -0.2514 -0.1040 0.9623
vn -0.7717 0.3100 0.5554
vn 0.9298 -0.3395 -0.1422
vn 0.8797 -0.3921 0.2690
vn -0.3943 0.4366 -0.8087
vn -0.1439 -0.7853 0.6021
vn -0.6011 -0.7944 -0.0876
vn -0.9469 0.1866 0.2619
vn 0.5339 -0.5416 -0.6493
vn -0.0909 0.2911 -0.9524
vn 0.2057 0.9273 0.3127
vn 0.7569 0.5833 -0.2948
vn 0.4603 0.4048 0.7901
vt 0.550384 0.206938
vt 0.375000 0.305791
vt 0.375000 0.049496
vt 0.180791 0.500000
vt 0.330928 0.574320
vt 0.125000 0.700504
vt 0.804283 0.500000
vt 0.842867 0.681766
vt 0.658516 0.626313
vt 0.875000 0.500000
vt 0.501754 0.540833
vt 0.565165 0.799791
vt 0.325310 0.750000
vt 0.604031 0.069198
vt 0.375000 1.000000
vt 0.375000 0.799690
vt 0.578028 1.000000
vt 0.615335 0.592735
vt 0.589707 0.775249
vt 0.581909 0.353207
s 0
g Cube_Material
usemtl Material
f 220/311/182 222/312/182 221/313/182
f 222/314/183 225/315/183 221/316/183
f 226/317/184 223/318/184 227/319/184
f 223/318/185 226/317/185 220/320/185
f 228/321/186 219/322/186 224/323/186 225/315/186
f 221/313/187 223/324/187 220/311/187
f 221/325/188 224/326/188 219/322/188 223/327/188
f 225/315/189 224/323/189 221/316/189
f 227/328/190 223/318/190 219/329/190
f 219/322/191 228/321/191 227/328/191
f 228/321/192 225/315/192 222/312/192 226/330/192
f 228/321/193 226/330/193 227/328/193
f 222/312/194 220/311/194 226/330/194
o Cube
v -0.627016 0.687260 3.987020
v -0.789779 0.697409 3.750596
v -0.770208 0.833804 3.866367
v -0.900086 0.743378 3.859190
v -0.631499 0.675021 3.814164
v -0.747244 0.788656 4.014270
v -0.878695 0.747521 3.994970
v -0.829315 0.561665 3.836568
v -0.730779 0.541794 3.952830
v -0.842288 0.587216 3.998550
vn -0.3988 0.6260 -0.6701
vn -0.5726 0.8172 0.0653
vn 0.3976 -0.7871 -0.4715
vn 0.2363 -0.5681 -0.7883
vn 0.0115 -0.0832 0.9965
vn 0.3746 0.5682 -0.7327
vn 0.7105 0.7036 0.0114
vn -0.3255 0.8891 0.3219
vn 0.8117 -0.5838 0.0203
vn 0.2199 -0.3691 0.9030
vn -0.9518 -0.3014 0.0570
vn -0.3315 -0.9357 0.1210
vn -0.7286 -0.2023 -0.6544
vt 0.550384 0.206938
vt 0.375000 0.305791
vt 0.375000 0.049496
vt 0.180791 0.500000
vt 0.330928 0.574320
vt 0.125000 0.700504
vt 0.804283 0.500000
vt 0.842867 0.681766
vt 0.658516 0.626313
vt 0.875000 0.500000
vt 0.501754 0.540833
vt 0.565165 0.799791
vt 0.325310 0.750000
vt 0.604031 0.069198
vt 0.375000 1.000000
vt 0.375000 0.799690
vt 0.578028 1.000000
vt 0.615335 0.592735
vt 0.589707 0.775249
vt 0.581909 0.353207
s 0
g Cube_Material
usemtl Material
f 230/331/195 232/332/195 231/333/195
f 232/334/196 235/335/196 231/336/196
f 236/337/197 233/338/197 237/339/197
f 233/338/198 236/337/198 230/340/198
f 238/341/199 229/342/199 234/343/199 235/335/199
f 231/333/200 233/344/200 230/331/200
f 231/345/201 234/346/201 229/342/201 233/347/201
f 235/335/202 234/343/202 231/336/202
f 237/348/203 233/338/203 229/349/203
f 229/342/204 238/341/204 237/348/204
f 238/341/205 235/335/205 232/332/205 236/350/205
f 238/341/206 236/350/206 237/348/206
f 232/332/207 230/331/207 236/350/207
o Cube
v -3.181782 0.334122 0.956999
v -3.338775 0.473455 0.942866
v -3.272477 0.447061 1.053710
v -3.379837 0.408366 1.032682
v -3.224087 0.440609 0.902286
v -3.235147 0.339042 1.060913
v -3.335800 0.324629 1.067256
v -3.375409 0.368485 0.894594
v -3.288956 0.296760 0.887175
v -3.344300 0.271765 0.959371
vn -0.3794 0.8229 0.4229
vn -0.2700 0.2427 0.9318
vn 0.0010 0.1040 -0.9946
vn -0.1756 0.4612 -0.8697
vn 0.2759 -0.9109 0.3069
vn 0.2921 0.9549 0.0527
vn 0.8535 0.4098 0.3219
vn 0.0507 0.0839 0.9952
vn 0.5800 -0.1780 -0.7949
vn 0.3572 -0.9327 -0.0491
vn -0.9389 -0.3167 0.1349
vn -0.5354 -0.5821 -0.6120
vn -0.9131 0.3830 -0.1399
vt 0.550384 0.206938
vt 0.375000 0.305791
vt 0.375000 0.049496
vt 0.180791 0.500000
vt 0.330928 0.574320
vt 0.125000 0.700504
vt 0.804283 0.500000
vt 0.842867 0.681766
vt 0.658516 0.626313
vt 0.875000 0.500000
vt 0.501754 0.540833
vt 0.565165 0.799791
vt 0.325310 0.750000
vt 0.604031 0.069198
vt 0.375000 1.000000
vt 0.375000 0.799690
vt 0.578028 1.000000
vt 0.615335 0.592735
vt 0.589707 0.775249
vt 0.581909 0.353207
s 0
g Cube_Material
usemtl Material
f 240/351/208 242/352/208 241/353/208
f 242/354/209 245/355/209 241/356/209
f 246/357/210 243/358/210 247/359/210
f 243/358/211 246/357/211 240/360/211
f 248/361/212 239/362/212 244/363/212 245/355/212
f 241/353/213 243/364/213 240/351/213
f 241/365/214 244/366/214 239/362/214 243/367/214
f 245/355/215 244/363/215 241/356/215
f 247/368/216 243/358/216 239/369/216
f 239/362/217 248/361/217 247/368/217
f 248/361/218 245/355/218 242/352/218 246/370/218
f 248/361/219 246/370/219 247/368/219
f 242/352/220 240/351/220 246/370/220
o Cube
v -0.613395 0.181739 3.308169
v -0.551437 0.073673 3.454710
v -0.558255 0.193975 3.457039
v -0.467082 0.140803 3.446352
v -0.639131 0.097669 3.383964
v -0.542598 0.239212 3.363935
v -0.457698 0.204863 3.380867
v -0.497065 0.043733 3.362919
v -0.537776 0.090276 3.280648
v -0.463465 0.128773 3.301491
vn 0.1089 -0.0131 0.9940
vn 0.4344 0.6120 0.6609
vn -0.3772 -0.8736 -0.3075
vn -0.3395 -0.9348 0.1038
vn 0.2593 0.6094 -0.7492
vn -0.6355 -0.0509 0.7704
vn -0.7848 0.5698 0.2439
vn 0.2538 0.8525 0.4569
vn -0.6769 -0.3677 -0.6377
vn 0.0815 0.3483 -0.9338
vn 0.9693 -0.2418 0.0443
vn 0.4942 -0.6289 -0.6003
vn 0.5573 -0.6335 0.5367
vt 0.550384 0.206938
vt 0.375000 0.305791
vt 0.375000 0.049496
vt 0.180791 0.500000
vt 0.330928 0.574320
vt 0.125000 0.700504
vt 0.804283 0.500000
vt 0.842867 0.681766
vt 0.658516 0.626313
vt 0.875000 0.500000
vt 0.501754 0.540833
vt 0.565165 0.799791
vt 0.325310 0.750000
vt 0.604031 0.069198
vt 0.375000 1.000000
vt 0.375000 0.799690
vt 0.578028 1.000000
vt 0.615335 0.592735
vt 0.589707 0.775249
vt 0.581909 0.353207
s 0
g Cube_Material
usemtl Material
f 250/371/221 252/372/221 251/373/221
f 252/374/222 255/375/222 251/376/222
f 256/377/223 253/378/223 257/379/223
f 253/378/224 256/377/224 250/380/224
f 258/381/225 249/382/225 254/383/225 255/375/225
f 251/373/226 253/384/226 250/371/226
f 251/385/227 254/386/227 249/382/227 253/387/227
f 255/375/228 254/383/228 251/376/228
f 257/388/229 253/378/229 249/389/229
f 249/382/230 258/381/230 257/388/230
f 258/381/231 255/375/231 252/372/231 256/390/231
f 258/381/232 256/390/232 257/388/232
f 252/372/233 250/371/233 256/390/233
o Cube
v 0.354277 -0.119819 -2.813378
v 0.355145 -0.007373 -2.652533
v 0.264217 -0.084411 -2.682869
v 0.257659 0.023031 -2.694319
v 0.409480 -0.092924 -2.712088
v 0.250801 -0.096286 -2.788181
v 0.223947 -0.005791 -2.777158
v 0.378116 0.057438 -2.742289
v 0.392027 -0.002235 -2.827579
v 0.312947 0.036196 -2.831374
vn -0.3728 0.0758 0.9248
vn -0.9242 -0.0157 0.3816
vn 0.9782 0.2070 0.0147
vn 0.8709 0.2648 0.4141
vn -0.3678 -0.1278 -0.9211
vn 0.1420 -0.5032 0.8524
vn -0.0798 -0.9746 0.2094
vn -0.9420 -0.2983 0.1536
vn 0.8642 -0.3239 -0.3850
vn -0.0092 -0.1170 -0.9931
vn -0.3673 0.9282 -0.0590
vn 0.4020 0.7798 -0.4800
vn 0.0017 0.8105 0.5857
vt 0.550384 0.206938
vt 0.375000 0.305791
vt 0.375000 0.049496
vt 0.180791 0.500000
vt 0.330928 0.574320
vt 0.125000 0.700504
vt 0.804283 0.500000
vt 0.842867 0.681766
vt 0.658516 0.626313
vt 0.875000 0.500000
vt 0.501754 0.540833
vt 0.565165 0.799791
vt 0.325310 0.750000
vt 0.604031 0.069198
vt 0.375000 1.000000
vt 0.375000 0.799690
vt 0.578028 1.000000
vt 0.615335 0.592735
vt 0.589707 0.775249
vt 0.581909 0.353207
s 0
g Cube_Material
usemtl Material
f 260/391/234 262/392/234 261/393/234
f 262/394/235 265/395/235 261/396/235
f 266/397/236 263/398/236 267/399/236
f 263/398/237 266/397/237 260/400/237
f 268/401/238 259/402/238 264/403/238 265/395/238
f 261/393/239 263/404/239 260/391/239
f 261/405/240 264/406/240 259/402/240 263/407/240
f 265/395/241 264/403/241 261/396/241
f 267/408/242 263/398/242 259/409/242
f 259/402/243 268/401/243 267/408/243
f 268/401/244 265/395/244 262/392/244 266/410/244
f 268/401/245 266/410/245 267/408/245
f 262/392/246 260/391/246 266/410/246
o Cube
v -2.332165 0.262340 1.814147
v -2.509095 0.230566 1.703228
v -2.390672 0.255248 1.649511
v -2.475954 0.334362 1.656002
v -2.427312 0.182056 1.786686
v -2.323415 0.322733 1.713864
v -2.396789 0.388905 1.687406
v -2.530812 0.314991 1.788139
v -2.442725 0.323262 1.858481
v -2.442555 0.397010 1.799042
vn -0.3427 -0.2962 -0.8915
vn 0.1841 0.2759 -0.9434
vn -0.5392 -0.4277 0.7255
vn -0.7274 -0.5705 0.3812
vn 0.6594 0.6728 0.3356
vn -0.0336 -0.8780 -0.4774
vn 0.7227 -0.6522 -0.2287
vn 0.5229 0.2546 -0.8135
vn 0.1145 -0.4403 0.8905
vn 0.5496 0.5235 0.6511
vn -0.5867 0.7831 -0.2060
vn -0.5624 0.5197 0.6432
vn -0.9224 0.1289 -0.3641
vt 0.550384 0.206938
vt 0.375000 0.305791
vt 0.375000 0.049496
vt 0.180791 0.500000
vt 0.330928 0.574320
vt 0.125000 0.700504
vt 0.804283 0.500000
vt 0.842867 0.681766
vt 0.658516 0.626313
vt 0.875000 0.500000
vt 0.501754 0.540833
vt 0.565165 0.799791
vt 0.325310 0.750000
vt 0.604031 0.069198
vt 0.375000 1.000000
vt 0.375000 0.799690
vt 0.578028 1.000000
vt 0.615335 0.592735
vt 0.589707 0.775249
vt 0.581909 0.353207
s 0
g Cube_Material
usemtl Material
f 270/411/247 272/412/247 271/413/247
f 272/414/248 275/415/248 271/416/248
f 276/417/249 273/418/249 277/419/249
f 273/418/250 276/417/250 270/420/250
f 278/421/251 269/422/251 274/423/251 275/415/251
f 271/413/252 273/424/252 270/411/252
f 271/425/253 274/426/253 269/422/253 273/427/253
f 275/415/254 274/423/254 271/416/254
f 277/428/255 273/418/255 269/429/255
f 269/422/256 278/421/256 277/428/256
f 278/421/257 275/415/257 272/412/257 276/430/257
f 278/421/258 276/430/258 277/428/258
f 272/412/259 270/411/259 276/430/259
o Cube
v 1.299192 0.310002 2.062583
v 1.127883 0.406848 1.866106
v 1.150521 0.481054 2.022131
v 1.026631 0.398624 1.984943
v 1.285027 0.368636 1.905961
v 1.182363 0.382828 2.132807
v 1.055145 0.348554 2.104974
v 1.097738 0.251096 1.888467
v 1.200183 0.191213 1.978255
v 1.094105 0.207768 2.041684
vn -0.4529 0.8289 -0.3285
vn -0.5863 0.6887 0.4266
vn 0.3865 -0.5005 -0.7747
vn 0.2012 -0.1773 -0.9634
vn 0.0736 -0.4894 0.8689
vn 0.3165 0.8380 -0.4445
vn 0.6935 0.6671 0.2721
vn -0.3258 0.6586 0.6783
vn 0.8247 -0.5012 -0.2622
vn 0.2825 -0.7006 0.6553
vn -0.9394 -0.3414 -0.0311
vn -0.3020 -0.9155 -0.2660
vn -0.7619 0.0548 -0.6454
vt 0.550384 0.206938
vt 0.375000 0.305791
vt 0.375000 0.049496
vt 0.180791 0.500000
vt 0.330928 0.574320
vt 0.125000 0.700504
vt 0.804283 0.500000
vt 0.842867 0.681766
vt 0.658516 0.626313
vt 0.875000 0.500000
vt 0.501754 0.540833
vt 0.565165 0.799791
vt 0.325310 0.750000
vt 0.604031 0.069198
vt 0.375000 1.000000
vt 0.375000 0.799690
vt 0.578028 1.000000
vt 0.615335 0.592735
vt 0.589707 0.775249
vt 0.581909 0.353207
s 0
g Cube_Material
usemtl Material
f 280/431/260 282/432/260 281/433/260
f 282/434/261 285/435/261 281/436/261
f 286/437/262 283/438/262 287/439/262
f 283/438/263 286/437/263 280/440/263
f 288/441/264 279/442/264 284/443/264 285/435/264
f 281/433/265 283/444/265 280/431/265
f 281/445/266 284/446/266 279/442/266 283/447/266
f 285/435/267 284/443/267 281/436/267
f 287/448/268 283/438/268 279/449/268
f 279/442/269 288/441/269 287/448/269
f 288/441/270 285/435/270 282/432/270 286/450/270
f 288/441/271 286/450/271 287/448/271
f 282/432/272 280/431/272 286/450/272
o Cube
v 0.635856 0.257143 -2.392513
v 0.593748 0.292070 -2.189342
v 0.610034 0.387024 -2.279350
v 0.690270 0.359603 -2.200109
v 0.554563 0.238896 -2.296673
v 0.683477 0.359752 -2.362891
v 0.746810 0.365472 -2.283282
v 0.687681 0.215840 -2.197102
v 0.702986 0.183638 -2.303899
v 0.768813 0.247074 -2.280554
vn -0.3959 0.6666 0.6316
vn 0.1582 0.9716 0.1761
vn -0.3298 -0.9159 0.2289
vn -0.5101 -0.6820 0.5241
vn 0.6985 0.0061 -0.7156
vn -0.9283 0.3269 0.1769
vn -0.6853 0.3962 -0.6111
vn 0.1476 0.9712 -0.1872
vn -0.3320 -0.8341 -0.4404
vn 0.5897 -0.3429 -0.7312
vn 0.7612 0.0705 0.6446
vn 0.6011 -0.7373 0.3084
vn 0.0977 0.0190 0.9950
vt 0.550384 0.206938
vt 0.375000 0.305791
vt 0.375000 0.049496
vt 0.180791 0.500000
vt 0.330928 0.574320
vt 0.125000 0.700504
vt 0.804283 0.500000
vt 0.842867 0.681766
vt 0.658516 0.626313
vt 0.875000 0.500000
vt 0.501754 0.540833
vt 0.565165 0.799791
vt 0.325310 0.750000
vt 0.604031 0.069198
vt 0.375000 1.000000
vt 0.375000 0.799690
vt 0.578028 1.000000
vt 0.615335 0.592735
vt 0.589707 0.775249
vt 0.581909 0.353207
s 0
g Cube_Material
usemtl Material
f 290/451/273 292/452/273 291/453/273
f 292/454/274 295/455/274 291/456/274
f 296/457/275 293/458/275 297/459/275
f 293/458/276 296/457/276 290/460/276
f 298/461/277 289/462/277 294/463/277 295/455/277
f 291/453/278 293/464/278 290/451/278
f 291/465/279 294/466/279 289/462/279 293/467/279
f 295/455/280 294/463/280 291/456/280
f 297/468/281 293/458/281 289/469/281
f 289/462/282 298/461/282 297/468/282
f 298/461/283 295/455/283 292/452/283 296/470/283
f 298/461/284 296/470/284 297/468/284
f 292/452/285 290/451/285 296/470/285
o Cube
v -1.392103 -0.073186 -1.563218
v -1.644384 -0.016982 -1.666849
v -1.556824 0.088027 -1.558435
v -1.675815 0.001367 -1.514582
v -1.484289 -0.048380 -1.701542
v -1.467515 0.014567 -1.460443
v -1.589234 -0.022932 -1.416145
v -1.646359 -0.164347 -1.603462
v -1.508512 -0.205690 -1.564823
v -1.572751 -0.174615 -1.462350
vn -0.6259 0.7484 -0.2194
vn -0.3712 0.7713 0.5169
vn 0.0141 -0.6572 -0.7536
vn -0.2663 -0.3779 -0.8868
vn 0.5209 -0.2978 0.8000
vn -0.0085 0.7217 -0.6922
vn 0.6774 0.6989 -0.2296
vn -0.0209 0.7907 0.6118
vn 0.6414 -0.5571 -0.5274
vn 0.6208 -0.5521 0.5566
vn -0.8068 -0.3264 0.4924
vn -0.3098 -0.9463 0.0927
vn -0.9786 -0.0701 -0.1935
vt 0.550384 0.206938
vt 0.375000 0.305791
vt 0.375000 0.049496
vt 0.180791 0.500000
vt 0.330928 0.574320
vt 0.125000 0.700504
vt 0.804283 0.500000
vt 0.842867 0.681766
vt 0.658516 0.626313
vt 0.875000 0.500000
vt 0.501754 0.540833
vt 0.565165 0.799791
vt 0.325310 0.750000
vt 0.604031 0.069198
vt 0.375000 1.000000
vt 0.375000 0.799690
vt 0.578028 1.000000
vt 0.615335 0.592735
vt 0.589707 0.775249
vt 0.581909 0.353207
s 0
g Cube_Material
usemtl Material
f 300/471/286 302/472/286 301/473/286
f 302/474/287 305/475/287 301/476/287
f 306/477/288 303/478/288 307/479/288
f 303/478/289 306/477/289 300/480/289
f 308/481/290 299/482/290 304/483/290 305/475/290
f 301/473/291 303/484/291 300/471/291
f 301/485/292 304/486/292 299/482/292 303/487/292
f 305/475/293 304/483/293 301/476/293
f 307/488/294 303/478/294 299/489/294
f 299/482/295 308/481/295 307/488/295
f 308/481/296 305/475/296 302/472/296 306/490/296
f 308/481/297 306/490/297 307/488/297
f 302/472/298 300/471/298 306/490/298
o Cube
v 0.416265 -0.027122 -1.539719
v 0.584224 0.074533 -1.609891
v 0.569571 -0.055224 -1.613872
v 0.637398 -0.001422 -1.538179
v 0.460782 0.058724 -1.620235
v 0.507825 -0.097226 -1.528420
v 0.589728 -0.065701 -1.478508
v 0.560513 0.111693 -1.498155
v 0.462909 0.070170 -1.463572
v 0.532787 0.023239 -1.422885
vn 0.7662 -0.0669 -0.6390
vn 0.7165 -0.6792 -0.1593
vn -0.4090 0.9105 -0.0610
vn -0.0924 0.9388 -0.3318
vn -0.3836 -0.5623 0.7326
vn 0.0808 0.0215 -0.9965
vn -0.4432 -0.5503 -0.7077
vn 0.4254 -0.8952 -0.1326
vn -0.8952 0.4451 -0.0204
vn -0.6166 -0.2802 0.7357
vn 0.7468 0.1935 0.6362
vn -0.0068 0.6493 0.7605
vn 0.8248 0.5652 -0.0129
vt 0.550384 0.206938
vt 0.375000 0.305791
vt 0.375000 0.049496
vt 0.180791 0.500000
vt 0.330928 0.574320
vt 0.125000 0.700504
vt 0.804283 0.500000
vt 0.842867 0.681766
vt 0.658516 0.626313
vt 0.875000 0.500000
vt 0.501754 0.540833
vt 0.565165 0.799791
vt 0.325310 0.750000
vt 0.604031 0.069198
vt 0.375000 1.000000
vt 0.375000 0.799690
vt 0.578028 1.000000
vt 0.615335 0.592735
vt 0.589707 0.775249
vt 0.581909 0.353207
s 0
g Cube_Material
usemtl Material
f 310/491/299 312/492/299 311/493/299
f 312/494/300 315/495/300 311/496/300
f 316/497/301 313/498/301 317/499/301
f 313/498/302 316/497/302 310/500/302
f 318/501/303 309/502/303 314/503/303 315/495/303
f 311/493/304 313/504/304 310/491/304
f 311/505/305 314/506/305 309/502/305 313/507/305
f 315/495/306 314/503/306 311/496/306
f 317/508/307 313/498/307 309/509/307
f 309/502/308 318/501/308 317/508/308
f 318/501/309 315/495/309 312/492/309 316/510/309
f 318/501/310 316/510/310 317/508/310
f 312/492/311 310/491/311 316/510/311
o Cube
v -0.255397 0.332549 1.319696
v -0.155004 0.140221 1.315647
v -0.094805 0.257522 1.348879
v -0.079115 0.202880 1.243556
v -0.250976 0.210764 1.367661
v -0.139320 0.351688 1.293186
v -0.094692 0.300876 1.212763
v -0.215208 0.156391 1.207284
v -0.282250 0.251061 1.212321
v -0.202791 0.270495 1.159627
vn 0.7759 -0.5052 0.3777
vn 0.9831 0.1739 0.0562
vn -0.8156 -0.5784 0.0142
vn -0.5239 -0.8354 0.1664
vn -0.1377 0.8741 -0.4659
vn 0.2189 -0.3683 0.9035
vn 0.0427 0.4402 0.8969
vn 0.8529 0.4973 0.1591
vn -0.9768 0.0468 0.2088
vn -0.4822 0.7517 -0.4499
vn 0.4115 -0.3108 -0.8568
vn -0.4773 -0.2939 -0.8281
vn 0.3840 -0.8579 -0.3414
vt 0.550384 0.206938
vt 0.375000 0.305791
vt 0.375000 0.049496
vt 0.180791 0.500000
vt 0.330928 0.574320
vt 0.125000 0.700504
vt 0.804283 0.500000
vt 0.842867 0.681766
vt 0.658516 0.626313
vt 0.875000 0.500000
vt 0.501754 0.540833
vt 0.565165 0.799791
vt 0.325310 0.750000
vt 0.604031 0.069198
vt 0.375000 1.000000
vt 0.375000 0.799690
vt 0.578028 1.000000
vt 0.615335 0.592735
vt 0.589707 0.775249
vt 0.581909 0.353207
s 0
g Cube_Material
usemtl Material
f 320/511/312 322/512/312 321/513/312
f 322/514/313 325/515/313 321/516/313
f 326/517/314 323/518/314 327/519/314
f 323/518/315 326/517/315 320/520/315
f 328/521/316 319/522/316 324/523/316 325/515/316
f 321/513/317 323/524/317 320/511/317
f 321/525/318 324/526/318 319/522/318 323/527/318
f 325/515/319 324/523/319 321/516/319
f 327/528/320 323/518/320 319/529/320
f 319/522/321 328/521/321 327/528/321
f 328/521/322 325/515/322 322/512/322 326/530/322
f 328/521/323 326/530/323 327/528/323
f 322/512/324 320/511/324 326/530/324
o Cube
v 0.188233 0.696549 -5.811936
v 0.240904 0.621663 -5.974331
v 0.130910 0.623180 -5.935022
v 0.190307 0.539250 -5.933919
v 0.236015 0.714340 -5.912238
v 0.123259 0.618902 -5.833927
v 0.155676 0.536541 -5.851696
v 0.303962 0.583019 -5.896447
v 0.286645 0.631299 -5.810884
v 0.251055 0.555717 -5.807814
vn -0.3293 -0.2450 -0.9119
vn -0.7654 -0.5462 -0.3404
vn 0.8893 0.4512 -0.0746
vn 0.8044 0.3594 -0.4730
vn -0.2804 -0.1773 0.9433
vn -0.2802 0.5241 -0.8043
vn -0.6855 0.7198 -0.1098
vn -0.9333 -0.3489 -0.0854
vn 0.5085 0.7730 0.3793
vn 0.0124 0.0348 0.9993
vn 0.2944 -0.9555 -0.0170
vn 0.8410 -0.3804 0.3848
vn 0.4493 -0.6003 -0.6616
vt 0.550384 0.206938
vt 0.375000 0.305791
vt 0.375000 0.049496
vt 0.180791 0.500000
vt 0.330928 0.574320
vt 0.125000 0.700504
vt 0.804283 0.500000
vt 0.842867 0.681766
vt 0.658516 0.626313
vt 0.875000 0.500000
vt 0.501754 0.540833
vt 0.565165 0.799791
vt 0.325310 0.750000
vt 0.604031 0.069198
vt 0.375000 1.000000
vt 0.375000 0.799690
vt 0.578028 1.000000
vt 0.615335 0.592735
vt 0.589707 0.775249
vt 0.581909 0.353207
s 0
g Cube_Material
usemtl Material
f 330/531/325 332/532/325 331/533/325
f 332/534/326 335/535/326 331/536/326
f 336/537/327 333/538/327 337/539/327
f 333/538/328 336/537/328 330/540/328
f 338/541/329 329/542/329 334/543/329 335/535/329
f 331/533/330 333/544/330 330/531/330
f 331/545/331 334/546/331 329/542/331 333/547/331
f 335/535/332 334/543/332 331/536/332
f 337/548/333 333/538/333 329/549/333
f 329/542/334 338/541/334 337/548/334
f 338/541/335 335/535/335 332/532/335 336/550/335
f 338/541/336 336/550/336 337/548/336
f 332/532/337 330/531/337 336/550/337
o Cube
v 4.385035 0.379386 -4.091460
v 4.524250 0.334561 -3.916094
v 4.558808 0.315302 -4.053603
v 4.529578 0.220892 -3.975525
v 4.451449 0.429917 -3.981778
v 4.462463 0.284970 -4.126037
v 4.470348 0.194152 -4.063447
v 4.408428 0.276170 -3.894110
v 4.326740 0.311441 -3.977859
v 4.358648 0.216540 -3.999326
vn 0.9631 -0.0878 0.2543
vn 0.7683 -0.5321 -0.3558
vn -0.4833 0.5318 0.6954
vn -0.0970 0.5133 0.8527
vn -0.6022 -0.3833 -0.7004
vn 0.7566 0.6463 0.0996
vn 0.3848 0.6656 -0.6394
vn 0.6276 -0.4041 -0.6655
vn -0.6851 0.7239 0.0814
vn -0.8352 -0.1620 -0.5255
vn -0.0361 -0.9045 0.4249
vn -0.7376 -0.3750 0.5615
vn 0.3681 -0.4172 0.8310
vt 0.550384 0.206938
vt 0.375000 0.305791
vt 0.375000 0.049496
vt 0.180791 0.500000
vt 0.330928 0.574320
vt 0.125000 0.700504
vt 0.804283 0.500000
vt 0.842867 0.681766
vt 0.658516 0.626313
vt 0.875000 0.500000
vt 0.501754 0.540833
vt 0.565165 0.799791
vt 0.325310 0.750000
vt 0.604031 0.069198
vt 0.375000 1.000000
vt 0.375000 0.799690
vt 0.578028 1.000000
vt 0.615335 0.592735
vt 0.589707 0.775249
vt 0.581909 0.353207
s 0
g Cube_Material
usemtl Material
f 340/551/338 342/552/338 341/553/338
f 342/554/339 345/555/339 341/556/339
f 346/557/340 343/558/340 347/559/340
f 343/558/341 346/557/341 340/560/341
f 348/561/342 339/562/342 344/563/342 345/555/342
f 341/553/343 343/564/343 340/551/343
f 341/565/344 344/566/344 339/562/344 343/567/344
f 345/555/345 344/563/345 341/556/345
f 347/568/346 343/558/346 339/569/346
f 339/562/347 348/561/347 347/568/347
f 348/561/348 345/555/348 342/552/348 346/570/348
f 348/561/349 346/570/349 347/568/349
f 342/552/350 340/551/350 346/570/350
o Cube
v -5.364740 0.658318 -1.426986
v -5.428969 0.616598 -1.234842
v -5.315184 0.578484 -1.283829
v -5.404114 0.508442 -1.269598
v -5.400991 0.704994 -1.317019
v -5.317506 0.558635 -1.394631
v -5.375580 0.484152 -1.361273
v -5.514854 0.585725 -1.311471
v -5.489397 0.620316 -1.413484
v -5.475017 0.528880 -1.407472
vn 0.3220 -0.2218 0.9204
vn 0.6099 -0.6982 0.3748
vn -0.7210 0.6908 0.0543
vn -0.6326 0.6252 0.4571
vn 0.1427 -0.3572 -0.9231
vn 0.4786 0.5118 0.7135
vn 0.8642 0.5029 -0.0187
vn 0.8043 -0.5876 0.0884
vn -0.3044 0.8366 -0.4554
vn -0.0837 -0.0785 -0.9934
vn -0.5444 -0.8238 0.1578
vn -0.9418 -0.1673 -0.2917
vn -0.5422 -0.3674 0.7557
vt 0.550384 0.206938
vt 0.375000 0.305791
vt 0.375000 0.049496
vt 0.180791 0.500000
vt 0.330928 0.574320
vt 0.125000 0.700504
vt 0.804283 0.500000
vt 0.842867 0.681766
vt 0.658516 0.626313
vt 0.875000 0.500000
vt 0.501754 0.540833
vt 0.565165 0.799791
vt 0.325310 0.750000
vt 0.604031 0.069198
vt 0.375000 1.000000
vt 0.375000 0.799690
vt 0.578028 1.000000
vt 0.615335 0.592735
vt 0.589707 0.775249
vt 0.581909 0.353207
s 0
g Cube_Material
usemtl Material
f 350/571/351 352/572/351 351/573/351
f 352/574/352 355/575/352 351/576/352
f 356/577/353 353/578/353 357/579/353
f 353/578/354 356/577/354 350/580/354
f 358/581/355 349/582/355 354/583/355 355/575/355
f 351/573/356 353/584/356 350/571/356
f 351/585/357 354/586/357 349/582/357 353/587/357
f 355/575/358 354/583/358 351/576/358
f 357/588/359 353/578/359 349/589/359
f 349/582/360 358/581/360 357/588/360
f 358/581/361 355/575/361 352/572/361 356/590/361
f 358/581/362 356/590/362 357/588/362
f 352/572/363 350/571/363 356/590/363
o Cube
v 3.491557 0.017159 -4.366416
v 3.405451 -0.078625 -4.582994
v 3.518166 -0.145179 -4.494693
v 3.543892 -0.076929 -4.613005
v 3.371000 -0.036014 -4.442363
v 3.595600 -0.055089 -4.426136
v 3.628863 -0.030613 -4.540957
v 3.440592 0.060614 -4.604280
v 3.470030 0.119782 -4.486748
v 3.565628 0.099025 -4.543300
vn -0.1009 -0.8521 -0.5135
vn 0.6315 -0.7231 -0.2799
vn -0.8494 0.5252 -0.0516
vn -0.9380 0.1927 -0.2882
vn 0.7456 0.4891 0.4526
vn -0.5671 -0.8165 0.1085
vn -0.1090 -0.6272 0.7712
vn 0.7309 -0.6792 0.0670
vn -0.6053 0.5490 0.5764
vn 0.4652 0.7129 0.5247
vn 0.4274 0.2869 -0.8574
vn -0.0631 0.8977 -0.4361
vn -0.2098 -0.0958 -0.9730
vt 0.550384 0.206938
vt 0.375000 0.305791
vt 0.375000 0.049496
vt 0.180791 0.500000
vt 0.330928 0.574320
vt 0.125000 0.700504
vt 0.804283 0.500000
vt 0.842867 0.681766
vt 0.658516 0.626313
vt 0.875000 0.500000
vt 0.501754 0.540833
vt 0.565165 0.799791
vt 0.325310 0.750000
vt 0.604031 0.069198
vt 0.375000 1.000000
vt 0.375000 0.799690
vt 0.578028 1.000000
vt 0.615335 0.592735
vt 0.589707 0.775249
vt 0.581909 0.353207
s 0
g Cube_Material
usemtl Material
f 360/591/364 362/592/364 361/593/364
f 362/594/365 365/595/365 361/596/365
f 366/597/366 363/598/366 367/599/366
f 363/598/367 366/597/367 360/600/367
f 368/601/368 359/602/368 364/603/368 365/595/368
f 361/593/369 363/604/369 360/591/369
f 361/605/370 364/606/370 359/602/370 363/607/370
f 365/595/371 364/603/371 361/596/371
f 367/608/372 363/598/372 359/609/372
f 359/602/373 368/601/373 367/608/373
f 368/601/374 365/595/374 362/592/374 366/610/374
f 368/601/375 366/610/375 367/608/375
f 362/592/376 360/591/376 366/610/376
o Cube
v -5.076936 0.449872 -1.034503
v -5.108546 0.344477 -1.143514
v -5.175497 0.398151 -1.098165
v -5.161701 0.315634 -1.080861
v -5.063818 0.423157 -1.123122
v -5.155346 0.418037 -1.018752
v -5.165190 0.343952 -1.012409
v -5.056187 0.307003 -1.081730
v -5.029128 0.364417 -1.028429
v -5.079301 0.326909 -0.998429
vn -0.6750 -0.2578 -0.6913
vn -0.9867 -0.1615 0.0165
vn 0.9199 -0.0766 -0.3845
vn 0.6816 -0.2055 -0.7023
vn -0.0085 0.2109 0.9775
vn -0.2829 0.3882 -0.8771
vn -0.3250 0.9147 -0.2401
vn -0.9670 0.1463 0.2087
vn 0.8731 0.4872 -0.0176
vn 0.3465 0.2579 0.9019
vn -0.1463 -0.9499 0.2762
vn 0.6854 -0.6420 0.3436
vn -0.0758 -0.8798 -0.4693
vt 0.550384 0.206938
vt 0.375000 0.305791
vt 0.375000 0.049496
vt 0.180791 0.500000
vt 0.330928 0.574320
vt 0.125000 0.700504
vt 0.804283 0.500000
vt 0.842867 0.681766
vt 0.658516 0.626313
vt 0.875000 0.500000
vt 0.501754 0.540833
vt 0.565165 0.799791
vt 0.325310 0.750000
vt 0.604031 0.069198
vt 0.375000 1.000000
vt 0.375000 0.799690
vt 0.578028 1.000000
vt 0.615335 0.592735
vt 0.589707 0.775249
vt 0.581909 0.353207
s 0
g Cube_Material
usemtl Material
f 370/611/377 372/612/377 371/613/377
f 372/614/378 375/615/378 371/616/378
f 376/617/379 373/618/379 377/619/379
f 373/618/380 376/617/380 370/620/380
f 378/621/381 369/622/381 374/623/381 375/615/381
f 371/613/382 373/624/382 370/611/382
f 371/625/383 374/626/383 369/622/383 373/627/383
f 375/615/384 374/623/384 371/616/384
f 377/628/385 373/618/385 369/629/385
f 369/622/386 378/621/386 377/628/386
f 378/621/387 375/615/387 372/612/387 376/630/387
f 378/621/388 376/630/388 377/628/388
f 372/612/389 370/611/389 376/630/389
o Cube
v -1.640841 -0.079908 -3.882480
v -1.772874 -0.016282 -4.059237
v -1.823338 -0.059632 -3.931660
v -1.825112 -0.131946 -4.035622
v -1.674851 0.021584 -3.970506
v -1.750929 -0.143948 -3.874484
v -1.787132 -0.203396 -3.961196
v -1.685195 -0.105764 -4.101730
v -1.602819 -0.129662 -4.013752
v -1.669693 -0.207698 -4.020098
vn -0.9030 0.3599 -0.2349
vn -0.9370 -0.2791 0.2102
vn 0.7006 0.4837 -0.5246
vn 0.3490 0.6586 -0.6667
vn 0.3582 -0.7653 0.5349
vn -0.4516 0.8839 0.1217
vn -0.1600 0.5493 0.8202
vn -0.7842 -0.3081 0.5387
vn 0.9092 0.4012 0.1113
vn 0.6701 -0.6088 0.4248
vn -0.2685 -0.6889 -0.6733
vn 0.5880 -0.4492 -0.6726
vn -0.4286 0.0091 -0.9035
vt 0.550384 0.206938
vt 0.375000 0.305791
vt 0.375000 0.049496
vt 0.180791 0.500000
vt 0.330928 0.574320
vt 0.125000 0.700504
vt 0.804283 0.500000
vt 0.842867 0.681766
vt 0.658516 0.626313
vt 0.875000 0.500000
vt 0.501754 0.540833
vt 0.565165 0.799791
vt 0.325310 0.750000
vt 0.604031 0.069198
vt 0.375000 1.000000
vt 0.375000 0.799690
vt 0.578028 1.000000
vt 0.615335 0.592735
vt 0.589707 0.775249
vt 0.581909 0.353207
s 0
g Cube_Material
usemtl Material
f 380/631/390 382/632/390 381/633/390
f 382/634/391 385/635/391 381/636/391
f 386/637/392 383/638/392 387/639/392
f 383/638/393 386/637/393 380/640/393
f 388/641/394 379/642/394 384/643/394 385/635/394
f 381/633/395 383/644/395 380/631/395
f 381/645/396 384/646/396 379/642/396 383/647/396
f 385/635/397 384/643/397 381/636/397
f 387/648/398 383/638/398 379/649/398
f 379/642/399 388/641/399 387/648/399
f 388/641/400 385/635/400 382/632/400 386/650/400
f 388/641/401 386/650/401 387/648/401
f 382/632/402 380/631/402 386/650/402
o Cube
v -4.046416 0.232818 -2.826520
v -4.161188 0.122534 -2.948390
v -4.056409 0.081041 -2.892901
v -4.061975 0.108274 -2.999923
v -4.155973 0.185404 -2.846224
v -3.980975 0.158333 -2.877330
v -3.980563 0.152133 -2.974208
v -4.137269 0.222754 -3.000571
v -4.088109 0.289324 -2.932313
v -4.027776 0.255572 -2.989774
vn -0.2527 -0.9407 -0.2262
vn 0.5176 -0.8224 -0.2362
vn -0.8220 0.5682 0.0379
vn -0.9779 0.1964 -0.0710
vn 0.8495 0.5190 0.0952
vn -0.5277 -0.7112 0.4646
vn 0.0991 -0.4042 0.9093
vn 0.7100 -0.7026 0.0480
vn -0.4130 0.7256 0.5503
vn 0.6037 0.7773 0.1773
vn 0.1775 0.0266 -0.9838
vn -0.1673 0.7633 -0.6240
vn -0.4727 -0.3156 -0.8228
vt 0.550384 0.206938
vt 0.375000 0.305791
vt 0.375000 0.049496
vt 0.180791 0.500000
vt 0.330928 0.574320
vt 0.125000 0.700504
vt 0.804283 0.500000
vt 0.842867 0.681766
vt 0.658516 0.626313
vt 0.875000 0.500000
vt 0.501754 0.540833
vt 0.565165 0.799791
vt 0.325310 0.750000
vt 0.604031 0.069198
vt 0.375000 1.000000
vt 0.375000 0.799690
vt 0.578028 1.000000
vt 0.615335 0.592735
vt 0.589707 0.775249
vt 0.581909 0.353207
s 0
g Cube_Material
usemtl Material
f 390/651/403 392/652/403 391/653/403
f 392/654/404 395/655/404 391/656/404
f 396/657/405 393/658/405 397/659/405
f 393/658/406 396/657/406 390/660/406
f 398/661/407 389/662/407 394/663/407 395/655/407
f 391/653/408 393/664/408 390/651/408
f 391/665/409 394/666/409 389/662/409 393/667/409
f 395/655/410 394/663/410 391/656/410
f 397/668/411 393/658/411 389/669/411
f 389/662/412 398/661/412 397/668/412
f 398/661/413 395/655/413 392/652/413 396/670/413
f 398/661/414 396/670/414 397/668/414
f 392/652/415 390/651/415 396/670/415
o Cube
v 4.820843 0.039519 -0.174071
v 4.845582 -0.101737 -0.376128
v 4.924015 -0.123436 -0.243906
v 4.979409 -0.068621 -0.356176
v 4.753140 -0.051627 -0.271396
v 4.949442 -0.009675 -0.176072
v 5.018369 0.006416 -0.272956
v 4.858805 0.035250 -0.414036
v 4.828719 0.114220 -0.311870
v 4.938982 0.111662 -0.325316
vn 0.2717 -0.9109 -0.3107
vn 0.8157 -0.5643 0.1270
vn -0.8451 0.2729 -0.4598
vn -0.7693 -0.1004 -0.6310
vn 0.4019 0.7241 0.5605
vn -0.3977 -0.9135 0.0860
vn -0.2796 -0.5223 0.8056
vn 0.7617 -0.4489 0.4673
vn -0.8747 0.4453 0.1914
vn 0.0786 0.8745 0.4786
vn 0.6648 0.2684 -0.6971
vn -0.0576 0.7816 -0.6211
vn 0.2089 -0.2795 -0.9371
vt 0.550384 0.206938
vt 0.375000 0.305791
vt 0.375000 0.049496
vt 0.180791 0.500000
vt 0.330928 0.574320
vt 0.125000 0.700504
vt 0.804283 0.500000
vt 0.842867 0.681766
vt 0.658516 0.626313
vt 0.875000 0.500000
vt 0.501754 0.540833
vt 0.565165 0.799791
vt 0.325310 0.750000
vt 0.604031 0.069198
vt 0.375000 1.000000
vt 0.375000 0.799690
vt 0.578028 1.000000
vt 0.615335 0.592735
vt 0.589707 0.775249
vt 0.581909 0.353207
s 0
g Cube_Material
usemtl Material
f 400/671/416 402/672/416 401/673/416
f 402/674/417 405/675/417 401/676/417
f 406/677/418 403/678/418 407/679/418
f 403/678/419 406/677/419 400/680/419
f 408/681/420 399/682/420 404/683/420 405/675/420
f 401/673/421 403/684/421 400/671/421
f 401/685/422 404/686/422 399/682/422 403/687/422
f 405/675/423 404/683/423 401/676/423
f 407/688/424 403/678/424 399/689/424
f 399/682/425 408/681/425 407/688/425
f 408/681/426 405/675/426 402/672/426 406/690/426
f 408/681/427 406/690/427 407/688/427
f 402/672/428 400/671/428 406/690/428
o Cube
v -0.214786 0.266401 3.778066
v -0.442742 0.144727 3.873615
v -0.442134 0.282470 3.769560
v -0.472303 0.290051 3.918299
v -0.304666 0.126687 3.785078
v -0.324168 0.372964 3.789113
v -0.388424 0.390933 3.904639
v -0.345656 0.174155 3.995683
v -0.214841 0.221189 3.946609
v -0.278954 0.317068 3.990868
vn -0.9719 -0.1393 -0.1900
vn -0.7677 0.6130 -0.1870
vn 0.4153 -0.8668 0.2762
vn 0.0154 -0.9748 0.2227
vn 0.6180 0.7822 0.0782
vn -0.5088 -0.5175 -0.6880
vn 0.0388 0.0194 -0.9991
vn -0.5138 0.7570 -0.4036
vn 0.8288 -0.5405 -0.1447
vn 0.8514 0.5065 0.1361
vn -0.3716 0.2962 0.8799
vn 0.3951 -0.1539 0.9057
vn -0.6958 -0.3366 0.6345
vt 0.550384 0.206938
vt 0.375000 0.305791
vt 0.375000 0.049496
vt 0.180791 0.500000
vt 0.330928 0.574320
vt 0.125000 0.700504
vt 0.804283 0.500000
vt 0.842867 0.681766
vt 0.658516 0.626313
vt 0.875000 0.500000
vt 0.501754 0.540833
vt 0.565165 0.799791
vt 0.325310 0.750000
vt 0.604031 0.069198
vt 0.375000 1.000000
vt 0.375000 0.799690
vt 0.578028 1.000000
vt 0.615335 0.592735
vt 0.589707 0.775249
vt 0.581909 0.353207
s 0
g Cube_Material
usemtl Material
f 410/691/429 412/692/429 411/693/429
f 412/694/430 415/695/430 411/696/430
f 416/697/431 413/698/431 417/699/431
f 413/698/432 416/697/432 410/700/432
f 418/701/433 409/702/433 414/703/433 415/695/433
f 411/693/434 413/704/434 410/691/434
f 411/705/435 414/706/435 409/702/435 413/707/435
f 415/695/436 414/703/436 411/696/436
f 417/708/437 413/698/437 409/709/437
f 409/702/438 418/701/438 417/708/438
f 418/701/439 415/695/439 412/692/439 416/710/439
f 418/701/440 416/710/440 417/708/440
f 412/692/441 410/691/441 416/710/441
o Cube
v -3.614208 0.151184 -1.376826
v -3.551612 0.175533 -1.202821
v -3.664615 0.173418 -1.232578
v -3.613587 0.259823 -1.209903
v -3.554570 0.107925 -1.291710
v -3.683346 0.209119 -1.325754
v -3.656892 0.284683 -1.283942
v -3.500979 0.244619 -1.267709
v -3.522815 0.224770 -1.363055
v -3.565324 0.292422 -1.338322
vn -0.2514 -0.1040 0.9623
vn -0.7717 0.3100 0.5554
vn 0.9298 -0.3395 -0.1422
vn 0.8797 -0.3921 0.2690
vn -0.3943 0.4366 -0.8087
vn -0.1439 -0.7853 0.6021
vn -0.6011 -0.7944 -0.0876
vn -0.9469 0.1866 0.2619
vn 0.5339 -0.5416 -0.6493
vn -0.0909 0.2911 -0.9524
vn 0.2057 0.9273 0.3127
vn 0.7569 0.5833 -0.2948
vn 0.4603 0.4048 0.7901
vt 0.550384 0.206938
vt 0.375000 0.305791
vt 0.375000 0.049496
vt 0.180791 0.500000
vt 0.330928 0.574320
vt 0.125000 0.700504
vt 0.804283 0.500000
vt 0.842867 0.681766
vt 0.658516 0.626313
vt 0.875000 0.500000
vt 0.501754 0.540833
vt 0.565165 0.799791
vt 0.325310 0.750000
vt 0.604031 0.069198
vt 0.375000 1.000000
vt 0.375000 0.799690
vt 0.578028 1.000000
vt 0.615335 0.592735
vt 0.589707 0.775249
vt 0.581909 0.353207
s 0
g Cube_Material
usemtl Material
f 420/711/442 422/712/442 421/713/442
f 422/714/443 425/715/443 421/716/443
f 426/717/444 423/718/444 427/719/444
f 423/718/445 426/717/445 420/720/445
f 428/721/446 419/722/446 424/723/446 425/715/446
f 421/713/447 423/724/447 420/711/447
f 421/725/448 424/726/448 419/722/448 423/727/448
f 425/715/449 424/723/449 421/716/449
f 427/728/450 423/718/450 419/729/450
f 419/722/451 428/721/451 427/728/451
f 428/721/452 425/715/452 422/712/452 426/730/452
f 428/721/453 426/730/453 427/728/453
f 422/712/454 420/711/454 426/730/454
o Cube
v -0.492638 0.026064 3.938827
v -0.614189 0.033643 3.762265
v -0.599573 0.135503 3.848723
v -0.696566 0.067973 3.843364
v -0.495985 0.016925 3.809738
v -0.582424 0.101787 3.959177
v -0.680591 0.071067 3.944763
v -0.643714 -0.067730 3.826470
v -0.570128 -0.082569 3.913293
v -0.653403 -0.048648 3.947437
vn -0.3988 0.6260 -0.6701
vn -0.5726 0.8172 0.0653
vn 0.3976 -0.7871 -0.4715
vn 0.2363 -0.5681 -0.7883
vn 0.0115 -0.0832 0.9965
vn 0.3746 0.5682 -0.7327
vn 0.7105 0.7036 0.0114
vn -0.3255 0.8891 0.3219
vn 0.8117 -0.5838 0.0203
vn 0.2199 -0.3691 0.9030
vn -0.9518 -0.3014 0.0570
vn -0.3315 -0.9357 0.1210
vn -0.7286 -0.2023 -0.6544
vt 0.550384 0.206938
vt 0.375000 0.305791
vt 0.375000 0.049496
vt 0.180791 0.500000
vt 0.330928 0.574320
vt 0.125000 0.700504
vt 0.804283 0.500000
vt 0.842867 0.681766
vt 0.658516 0.626313
vt 0.875000 0.500000
vt 0.501754 0.540833
vt 0.565165 0.799791
vt 0.325310 0.750000
vt 0.604031 0.069198
vt 0.375000 1.000000
vt 0.375000 0.799690
vt 0.578028 1.000000
vt 0.615335 0.592735
vt 0.589707 0.775249
vt 0.581909 0.353207
s 0
g Cube_Material
usemtl Material
f 430/731/455 432/732/455 431/733/455
f 432/734/456 435/735/456 431/736/456
f 436/737/457 433/738/457 437/739/457
f 433/738/458 436/737/458 430/740/458
f 438/741/459 429/742/459 434/743/459 435/735/459
f 431/733/460 433/744/460 430/731/460
f 431/745/461 434/746/461 429/742/461 433/747/461
f 435/735/462 434/743/462 431/736/462
f 437/748/463 433/738/463 429/749/463
f 429/742/464 438/741/464 437/748/464
f 438/741/465 435/735/465 432/732/465 436/750/465
f 438/741/466 436/750/466 437/748/466
f 432/732/467 430/731/467 436/750/467
o Cube
v -3.263113 0.636168 1.169471
v -3.423640 0.778638 1.155020
v -3.355850 0.751650 1.268359
v -3.465626 0.712084 1.246858
v -3.306371 0.745052 1.113526
v -3.317680 0.641200 1.275724
v -3.420598 0.626462 1.282210
v -3.461098 0.671305 1.105662
v -3.372699 0.597966 1.098075
v -3.429289 0.572409 1.171897
vn -0.3794 0.8229 0.4229
vn -0.2700 0.2427 0.9318
vn 0.0010 0.1040 -0.9946
vn -0.1756 0.4612 -0.8697
vn 0.2759 -0.9109 0.3069
vn 0.2921 0.9549 0.0527
vn 0.8535 0.4098 0.3219
vn 0.0507 0.0839 0.9952
vn 0.5800 -0.1780 -0.7949
vn 0.3572 -0.9327 -0.0491
vn -0.9389 -0.3167 0.1349
vn -0.5354 -0.5821 -0.6120
vn -0.9131 0.3830 -0.1399
vt 0.550384 0.206938
vt 0.375000 0.305791
vt 0.375000 0.049496
vt 0.180791 0.500000
vt 0.330928 0.574320
vt 0.125000 0.700504
vt 0.804283 0.500000
vt 0.842867 0.681766
vt 0.658516 0.626313
vt 0.875000 0.500000
vt 0.501754 0.540833
vt 0.565165 0.799791
vt 0.325310 0.750000
vt 0.604031 0.069198
vt 0.375000 1.000000
vt 0.375000 0.799690
vt 0.578028 1.000000
vt 0.615335 0.592735
vt 0.589707 0.775249
vt 0.581909 0.353207
s 0
g Cube_Material
usemtl Material
f 440/751/468 442/752/468 441/753/468
f 442/754/469 445/755/469 441/756/469
f 446/757/470 443/758/470 447/759/470
f 443/758/471 446/757/471 440/760/471
f 448/761/472 439/762/472 444/763/472 445/755/472
f 441/753/473 443/764/473 440/751/473
f 441/765/474 444/766/474 439/762/474 443/767/474
f 445/755/475 444/763/475 441/756/475
f 447/768/476 443/758/476 439/769/476
f 439/762/477 448/761/477 447/768/477
f 448/761/478 445/755/478 442/752/478 446/770/478
f 448/761/479 446/770/479 447/768/479
f 442/752/480 440/751/480 446/770/480
o Cube
v -0.480400 0.299780 3.537199
v -0.423431 0.200414 3.671942
v -0.429700 0.311031 3.674083
v -0.345867 0.262140 3.664256
v -0.504064 0.222479 3.606891
v -0.415303 0.352625 3.588475
v -0.337239 0.321043 3.604044
v -0.373436 0.172886 3.587541
v -0.410869 0.215681 3.511893
v -0.342542 0.251078 3.531058
vn 0.1089 -0.0131 0.9940
vn 0.4344 0.6120 0.6609
vn -0.3772 -0.8736 -0.3075
vn -0.3395 -0.9348 0.1038
vn 0.2593 0.6094 -0.7492
vn -0.6355 -0.0509 0.7704
vn -0.7848 0.5698 0.2439
vn 0.2538 0.8525 0.4569
vn -0.6769 -0.3677 -0.6377
vn 0.0815 0.3483 -0.9338
vn 0.9693 -0.2418 0.0443
vn 0.4942 -0.6289 -0.6003
vn 0.5573 -0.6335 0.5367
vt 0.550384 0.206938
vt 0.375000 0.305791
vt 0.375000 0.049496
vt 0.180791 0.500000
vt 0.330928 0.574320
vt 0.125000 0.700504
vt 0.804283 0.500000
vt 0.842867 0.681766
vt 0.658516 0.626313
vt 0.875000 0.500000
vt 0.501754 0.540833
vt 0.565165 0.799791
vt 0.325310 0.750000
vt 0.604031 0.069198
vt 0.375000 1.000000
vt 0.375000 0.799690
vt 0.578028 1.000000
vt 0.615335 0.592735
vt 0.589707 0.775249
vt 0.581909 0.353207
s 0
g Cube_Material
usemtl Material
f 450/771/481 452/772/481 451/773/481
f 452/774/482 455/775/482 451/776/482
f 456/777/483 453/778/483 457/779/483
f 453/778/484 456/777/484 450/780/484
f 458/781/485 449/782/485 454/783/485 455/775/485
f 451/773/486 453/784/486 450/771/486
f 451/785/487 454/786/487 449/782/487 453/787/487
f 455/775/488 454/783/488 451/776/488
f 457/788/489 453/778/489 449/789/489
f 449/782/490 458/781/490 457/788/490
f 458/781/491 455/775/491 452/772/491 456/790/491
f 458/781/492 456/790/492 457/788/492
f 452/772/493 450/771/493 456/790/493
o Cube
v 0.111276 0.355155 -2.816785
v 0.112010 0.450310 -2.680674
v 0.035064 0.385118 -2.706345
v 0.029515 0.476039 -2.716034
v 0.157990 0.377914 -2.731071
v 0.023711 0.375069 -2.795462
v 0.000987 0.451648 -2.786135
v 0.131448 0.505155 -2.756628
v 0.143221 0.454658 -2.828803
v 0.076301 0.487179 -2.832013
vn -0.3728 0.0758 0.9248
vn -0.9242 -0.0157 0.3816
vn 0.9782 0.2070 0.0147
vn 0.8709 0.2648 0.4141
vn -0.3678 -0.1278 -0.9211
vn 0.1420 -0.5032 0.8524
vn -0.0798 -0.9746 0.2094
vn -0.9420 -0.2983 0.1536
vn 0.8642 -0.3239 -0.3850
vn -0.0092 -0.1170 -0.9931
vn -0.3673 0.9282 -0.0590
vn 0.4020 0.7798 -0.4800
vn 0.0017 0.8105 0.5857
vt 0.550384 0.206938
vt 0.375000 0.305791
vt 0.375000 0.049496
vt 0.180791 0.500000
vt 0.330928 0.574320
vt 0.125000 0.700504
vt 0.804283 0.500000
vt 0.842867 0.681766
vt 0.658516 0.626313
vt 0.875000 0.500000
vt 0.501754 0.540833
vt 0.565165 0.799791
vt 0.325310 0.750000
vt 0.604031 0.069198
vt 0.375000 1.000000
vt 0.375000 0.799690
vt 0.578028 1.000000
vt 0.615335 0.592735
vt 0.589707 0.775249
vt 0.581909 0.353207
s 0
g Cube_Material
usemtl Material
f 460/791/494 462/792/494 461/793/494
f 462/794/495 465/795/495 461/796/495
f 466/797/496 463/798/496 467/799/496
f 463/798/497 466/797/497 460/800/497
f 468/801/498 459/802/498 464/803/498 465/795/498
f 461/793/499 463/804/499 460/791/499
f 461/805/500 464/806/500 459/802/500 463/807/500
f 465/795/501 464/803/501 461/796/501
f 467/808/502 463/798/502 459/809/502
f 459/802/503 468/801/503 467/808/503
f 468/801/504 465/795/504 462/792/504 466/810/504
f 468/801/505 466/810/505 467/808/505
f 462/792/506 460/791/506 466/810/506
o Cube
v -2.188978 0.435443 1.894195
v -2.338236 0.408638 1.800624
v -2.238335 0.429460 1.755308
v -2.310278 0.496200 1.760784
v -2.269244 0.367715 1.871029
v -2.181596 0.486390 1.809597
v -2.243495 0.542212 1.787277
v -2.356557 0.479859 1.872255
v -2.282247 0.486836 1.931595
v -2.282103 0.549050 1.881453
vn -0.3427 -0.2962 -0.8915
vn 0.1841 0.2759 -0.9434
vn -0.5392 -0.4277 0.7255
vn -0.7274 -0.5705 0.3812
vn 0.6594 0.6728 0.3356
vn -0.0336 -0.8780 -0.4774
vn 0.7227 -0.6522 -0.2287
vn 0.5229 0.2546 -0.8135
vn 0.1145 -0.4403 0.8905
vn 0.5496 0.5235 0.6511
vn -0.5867 0.7831 -0.2060
vn -0.5624 0.5197 0.6432
vn -0.9224 0.1289 -0.3641
vt 0.550384 0.206938
vt 0.375000 0.305791
vt 0.375000 0.049496
vt 0.180791 0.500000
vt 0.330928 0.574320
vt 0.125000 0.700504
vt 0.804283 0.500000
vt 0.842867 0.681766
vt 0.658516 0.626313
vt 0.875000 0.500000
vt 0.501754 0.540833
vt 0.565165 0.799791
vt 0.325310 0.750000
vt 0.604031 0.069198
vt 0.375000 1.000000
vt 0.375000 0.799690
vt 0.578028 1.000000
vt 0.615335 0.592735
vt 0.589707 0.775249
vt 0.581909 0.353207
s 0
g Cube_Material
usemtl Material
f 470/811/507 472/812/507 471/813/507
f 472/814/508 475/815/508 471/816/508
f 476/817/509 473/818/509 477/819/509
f 473/818/510 476/817/510 470/820/510
f 478/821/511 469/822/511 474/823/511 475/815/511
f 471/813/512 473/824/512 470/811/512
f 471/825/513 474/826/513 469/822/513 473/827/513
f 475/815/514 474/823/514 471/816/514
f 477/828/515 473/818/515 469/829/515
f 469/822/516 478/821/516 477/828/516
f 478/821/517 475/815/517 472/812/517 476/830/517
f 478/821/518 476/830/518 477/828/518
f 472/812/519 470/811/519 476/830/519
o Cube
v 1.754563 0.525804 2.043646
v 1.583163 0.622702 1.847064
v 1.605813 0.696947 2.003172
v 1.481857 0.614473 1.965965
v 1.740390 0.584469 1.886941
v 1.637672 0.598669 2.113906
v 1.510387 0.564377 2.086059
v 1.553002 0.466868 1.869437
v 1.655501 0.406953 1.959272
v 1.549367 0.423517 2.022735
vn -0.4529 0.8289 -0.3285
vn -0.5863 0.6887 0.4266
vn 0.3865 -0.5005 -0.7747
vn 0.2012 -0.1773 -0.9634
vn 0.0736 -0.4894 0.8689
vn 0.3165 0.8380 -0.4445
vn 0.6935 0.6671 0.2721
vn -0.3258 0.6586 0.6783
vn 0.8247 -0.5012 -0.2622
vn 0.2825 -0.7006 0.6553
vn -0.9394 -0.3414 -0.0311
vn -0.3020 -0.9155 -0.2660
vn -0.7619 0.0548 -0.6454
vt 0.550384 0.206938
vt 0.375000 0.305791
vt 0.375000 0.049496
vt 0.180791 0.500000
vt 0.330928 0.574320
vt 0.125000 0.700504
vt 0.804283 0.500000
vt 0.842867 0.681766
vt 0.658516 0.626313
vt 0.875000 0.500000
vt 0.501754 0.540833
vt 0.565165 0.799791
vt 0.325310 0.750000
vt 0.604031 0.069198
vt 0.375000 1.000000
vt 0.375000 0.799690
vt 0.578028 1.000000
vt 0.615335 0.592735
vt 0.589707 0.775249
vt 0.581909 0.353207
s 0
g Cube_Material
usemtl Material
f 480/831/520 482/832/520 481/833/520
f 482/834/521 485/835/521 481/836/521
f 486/837/522 483/838/522 487/839/522
f 483/838/523 486/837/523 480/840/523
f 488/841/524 479/842/524 484/843/524 485/835/524
f 481/833/525 483/844/525 480/831/525
f 481/845/526 484/846/526 479/842/526 483/847/526
f 485/835/527 484/843/527 481/836/527
f 487/848/528 483/838/528 479/849/528
f 479/842/529 488/841/529 487/848/529
f 488/841/530 485/835/530 482/832/530 486/850/530
f 488/841/531 486/850/531 487/848/531
f 482/832/532 480/831/532 486/850/532
o Cube
v 0.656750 -0.294598 -2.383913
v 0.623472 -0.266995 -2.223348
v 0.636343 -0.191954 -2.294481
v 0.699753 -0.213624 -2.231857
v 0.592504 -0.309018 -2.308171
v 0.694384 -0.213507 -2.360503
v 0.744436 -0.208987 -2.297588
v 0.697707 -0.327239 -2.229481
v 0.709802 -0.352689 -2.313882
v 0.761824 -0.302556 -2.295433
vn -0.3959 0.6666 0.6316
vn 0.1582 0.9716 0.1761
vn -0.3298 -0.9159 0.2289
vn -0.5101 -0.6820 0.5241
vn 0.6985 0.0061 -0.7156
vn -0.9283 0.3269 0.1769
vn -0.6853 0.3962 -0.6111
vn 0.1476 0.9712 -0.1872
vn -0.3320 -0.8341 -0.4404
vn 0.5897 -0.3429 -0.7312
vn 0.7612 0.0705 0.6446
vn 0.6011 -0.7373 0.3084
vn 0.0977 0.0190 0.9950
vt 0.550384 0.206938
vt 0.375000 0.305791
vt 0.375000 0.049496
vt 0.180791 0.500000
vt 0.330928 0.574320
vt 0.125000 0.700504
vt 0.804283 0.500000
vt 0.842867 0.681766
vt 0.658516 0.626313
vt 0.875000 0.500000
vt 0.501754 0.540833
vt 0.565165 0.799791
vt 0.325310 0.750000
vt 0.604031 0.069198
vt 0.375000 1.000000
vt 0.375000 0.799690
vt 0.578028 1.000000
vt 0.615335 0.592735
vt 0.589707 0.775249
vt 0.581909 0.353207
s 0
g Cube_Material
usemtl Material
f 490/851/533 492/852/533 491/853/533
f 492/854/534 495/855/534 491/856/534
f 496/857/535 493/858/535 497/859/535
f 493/858/536 496/857/536 490/860/536
f 498/861/537 489/862/537 494/863/537 495/855/537
f 491/853/538 493/864/538 490/851/538
f 491/865/539 494/866/539 489/862/539 493/867/539
f 495/855/540 494/863/540 491/856/540
f 497/868/541 493/858/541 489/869/541
f 489/862/542 498/861/542 497/868/542
f 498/861/543 495/855/543 492/852/543 496/870/543
f 498/861/544 496/870/544 497/868/544
f 492/852/545 490/851/545 496/870/545
o Cube
v -1.029176 0.256713 -1.772447
v -1.294128 0.315740 -1.881283
v -1.202170 0.426023 -1.767423
v -1.327138 0.335011 -1.721368
v -1.125992 0.282765 -1.917719
v -1.108375 0.348873 -1.664509
v -1.236208 0.309491 -1.617987
v -1.296203 0.160972 -1.814712
v -1.151432 0.117553 -1.774132
v -1.218897 0.150188 -1.666512
vn -0.6259 0.7484 -0.2194
vn -0.3712 0.7713 0.5169
vn 0.0141 -0.6572 -0.7536
vn -0.2663 -0.3779 -0.8868
vn 0.5209 -0.2978 0.8000
vn -0.0085 0.7217 -0.6922
vn 0.6774 0.6989 -0.2296
vn -0.0209 0.7907 0.6118
vn 0.6414 -0.5571 -0.5274
vn 0.6208 -0.5521 0.5566
vn -0.8068 -0.3264 0.4924
vn -0.3098 -0.9463 0.0927
vn -0.9786 -0.0701 -0.1935
vt 0.550384 0.206938
vt 0.375000 0.305791
vt 0.375000 0.049496
vt 0.180791 0.500000
vt 0.330928 0.574320
vt 0.125000 0.700504
vt 0.804283 0.500000
vt 0.842867 0.681766
vt 0.658516 0.626313
vt 0.875000 0.500000
vt 0.501754 0.540833
vt 0.565165 0.799791
vt 0.325310 0.750000
vt 0.604031 0.069198
vt 0.375000 1.000000
vt 0.375000 0.799690
vt 0.578028 1.000000
vt 0.615335 0.592735
vt 0.589707 0.775249
vt 0.581909 0.353207
s 0
g Cube_Material
usemtl Material
f 500/871/546 502/872/546 501/873/546
f 502/874/547 505/875/547 501/876/547
f 506/877/548 503/878/548 507/879/548
f 503/878/549 506/877/549 500/880/549
f 508/881/550 499/882/550 504/883/550 505/875/550
f 501/873/551 503/884/551 500/871/551
f 501/885/552 504/886/552 499/882/552 503/887/552
f 505/875/553 504/883/553 501/876/553
f 507/888/554 503/878/554 499/889/554
f 499/882/555 508/881/555 507/888/555
f 508/881/556 505/875/556 502/872/556 506/890/556
f 508/881/557 506/890/557 507/888/557
f 502/872/558 500/871/558 506/890/558
o Cube
v 1.026096 0.167148 -1.504811
v 1.176810 0.258365 -1.567778
v 1.163661 0.141931 -1.571350
v 1.224524 0.190209 -1.503429
v 1.066043 0.244180 -1.577060
v 1.108255 0.104242 -1.494672
v 1.181749 0.132531 -1.449885
v 1.155533 0.291710 -1.467515
v 1.067951 0.254450 -1.436482
v 1.130654 0.212338 -1.399973
vn 0.7662 -0.0669 -0.6390
vn 0.7165 -0.6792 -0.1593
vn -0.4090 0.9105 -0.0610
vn -0.0924 0.9388 -0.3318
vn -0.3836 -0.5623 0.7326
vn 0.0808 0.0215 -0.9965
vn -0.4432 -0.5503 -0.7077
vn 0.4254 -0.8952 -0.1326
vn -0.8952 0.4451 -0.0204
vn -0.6166 -0.2802 0.7357
vn 0.7468 0.1935 0.6362
vn -0.0068 0.6493 0.7605
vn 0.8248 0.5652 -0.0129
vt 0.550384 0.206938
vt 0.375000 0.305791
vt 0.375000 0.049496
vt 0.180791 0.500000
vt 0.330928 0.574320
vt 0.125000 0.700504
vt 0.804283 0.500000
vt 0.842867 0.681766
vt 0.658516 0.626313
vt 0.875000 0.500000
vt 0.501754 0.540833
vt 0.565165 0.799791
vt 0.325310 0.750000
vt 0.604031 0.069198
vt 0.375000 1.000000
vt 0.375000 0.799690
vt 0.578028 1.000000
vt 0.615335 0.592735
vt 0.589707 0.775249
vt 0.581909 0.353207
s 0
g Cube_Material
usemtl Material
f 510/891/559 512/892/559 511/893/559
f 512/894/560 515/895/560 511/896/560
f 516/897/561 513/898/561 517/899/561
f 513/898/562 516/897/562 510/900/562
f 518/901/563 509/902/563 514/903/563 515/895/563
f 511/893/564 513/904/564 510/891/564
f 511/905/565 514/906/565 509/902/565 513/907/565
f 515/895/566 514/903/566 511/896/566
f 517/908/567 513/898/567 509/909/567
f 509/902/568 518/901/568 517/908/568
f 518/901/569 515/895/569 512/892/569 516/910/569
f 518/901/570 516/910/570 517/908/570
f 512/892/571 510/891/571 516/910/571
o Cube
v -0.436821 0.043036 1.367530
v -0.354063 -0.115507 1.364192
v -0.304440 -0.018812 1.391586
v -0.291506 -0.063855 1.304764
v -0.433176 -0.057356 1.407069
v -0.341135 0.058812 1.345676
v -0.304346 0.016927 1.279381
v -0.403692 -0.102177 1.274864
v -0.458957 -0.024137 1.279017
v -0.393456 -0.008117 1.235579
vn 0.7759 -0.5052 0.3777
vn 0.9831 0.1739 0.0562
vn -0.8156 -0.5784 0.0142
vn -0.5239 -0.8354 0.1664
vn -0.1377 0.8741 -0.4659
vn 0.2189 -0.3683 0.9035
vn 0.0427 0.4402 0.8969
vn 0.8529 0.4973 0.1591
vn -0.9768 0.0468 0.2088
vn -0.4822 0.7517 -0.4499
vn 0.4115 -0.3108 -0.8568
vn -0.4773 -0.2939 -0.8281
vn 0.3840 -0.8579 -0.3414
vt 0.550384 0.206938
vt 0.375000 0.305791
vt 0.375000 0.049496
vt 0.180791 0.500000
vt 0.330928 0.574320
vt 0.125000 0.700504
vt 0.804283 0.500000
vt 0.842867 0.681766
vt 0.658516 0.626313
vt 0.875000 0.500000
vt 0.501754 0.540833
vt 0.565165 0.799791
vt 0.325310 0.750000
vt 0.604031 0.069198
vt 0.375000 1.000000
vt 0.375000 0.799690
vt 0.578028 1.000000
vt 0.615335 0.592735
vt 0.589707 0.775249
vt 0.581909 0.353207
s 0
g Cube_Material
usemtl Material
f 520/911/572 522/912/572 521/913/572
f 522/914/573 525/915/573 521/916/573
f 526/917/574 523/918/574 527/919/574
f 523/918/575 526/917/575 520/920/575
f 528/921/576 519/922/576 524/923/576 525/915/576
f 521/913/577 523/924/577 520/911/577
f 521/925/578 524/926/578 519/922/578 523/927/578
f 525/915/579 524/923/579 521/916/579
f 527/928/580 523/918/580 519/929/580
f 519/922/581 528/921/581 527/928/581
f 528/921/582 525/915/582 522/912/582 526/930/582
f 528/921/583 526/930/583 527/928/583
f 522/912/584 520/911/584 526/930/584
