# Blender 4.1.0
# www.blender.org
mtllib Explosion20021.mtl
o Circle
v -0.024615 0.096888 -1.522372
v -0.024615 0.242742 -1.522372
v 0.122545 0.096888 -1.515142
v 0.122545 0.242742 -1.515142
v 0.268288 0.096888 -1.493523
v 0.268288 0.242742 -1.493523
v 0.411211 0.096888 -1.457723
v 0.411211 0.242742 -1.457723
v 0.549936 0.096888 -1.408086
v 0.549936 0.242742 -1.408086
v 0.683127 0.096888 -1.345092
v 0.683127 0.242742 -1.345092
v 0.809503 0.096888 -1.269345
v 0.809503 0.242742 -1.269345
v 0.927846 0.096888 -1.181576
v 0.927846 0.242742 -1.181576
v 1.037016 0.096888 -1.082630
v 1.037016 0.242742 -1.082630
v 1.135962 0.096888 -0.973460
v 1.135962 0.242742 -0.973460
v 1.223731 0.096888 -0.855117
v 1.223731 0.242742 -0.855117
v 1.299478 0.096888 -0.728741
v 1.299478 0.242742 -0.728741
v 1.362473 0.096888 -0.595549
v 1.362473 0.242742 -0.595549
v 1.412110 0.096888 -0.456824
v 1.412110 0.242742 -0.456824
v 1.447910 0.096888 -0.313902
v 1.447910 0.242742 -0.313902
v 1.469529 0.096888 -0.168159
v 1.469529 0.242742 -0.168159
v 1.476758 0.096888 -0.020998
v 1.476758 0.242742 -0.020998
v 1.469529 0.096888 0.126162
v 1.469529 0.242742 0.126162
v 1.447910 0.096888 0.271905
v 1.447910 0.242742 0.271905
v 1.412110 0.096888 0.414827
v 1.412110 0.242742 0.414827
v 1.362473 0.096888 0.553553
v 1.362473 0.242742 0.553553
v 1.299478 0.096888 0.686744
v 1.299478 0.242742 0.686744
v 1.223731 0.096888 0.813120
v 1.223731 0.242742 0.813120
v 1.135962 0.096888 0.931463
v 1.135962 0.242742 0.931463
v 1.037016 0.096888 1.040633
v 1.037016 0.242742 1.040633
v 0.927846 0.096888 1.139579
v 0.927846 0.242742 1.139579
v 0.809503 0.096888 1.227348
v 0.809503 0.242742 1.227348
v 0.683127 0.096888 1.303095
v 0.683127 0.242742 1.303095
v 0.549936 0.096888 1.366090
v 0.549936 0.242742 1.366090
v 0.411211 0.096888 1.415727
v 0.411211 0.242742 1.415727
v 0.268288 0.096888 1.451527
v 0.268288 0.242742 1.451527
v 0.122545 0.096888 1.473146
v 0.122545 0.242742 1.473146
v -0.024615 0.096888 1.480376
v -0.024615 0.242742 1.480376
v -0.171775 0.096888 1.473146
v -0.171775 0.242742 1.473146
v -0.317519 0.096888 1.451527
v -0.317519 0.242742 1.451527
v -0.460441 0.096888 1.415727
v -0.460441 0.242742 1.415727
v -0.599166 0.096888 1.366090
v -0.599166 0.242742 1.366090
v -0.732358 0.096888 1.303095
v -0.732358 0.242742 1.303095
v -0.858734 0.096888 1.227348
v -0.858734 0.242742 1.227348
v -0.977076 0.096888 1.139579
v -0.977076 0.242742 1.139579
v -1.086246 0.096888 1.040633
v -1.086246 0.242742 1.040633
v -1.185192 0.096888 0.931463
v -1.185192 0.242742 0.931463
v -1.272961 0.096888 0.813120
v -1.272961 0.242742 0.813120
v -1.348708 0.096888 0.686744
v -1.348708 0.242742 0.686744
v -1.411703 0.096888 0.553553
v -1.411703 0.242742 0.553553
v -1.461340 0.096888 0.414827
v -1.461340 0.242742 0.414827
v -1.497140 0.096888 0.271905
v -1.497140 0.242742 0.271905
v -1.518759 0.096888 0.126162
v -1.518759 0.242742 0.126162
v -1.525989 0.096888 -0.020998
v -1.525989 0.242742 -0.020998
v -1.518759 0.096888 -0.168159
v -1.518759 0.242742 -0.168159
v -1.497140 0.096888 -0.313902
v -1.497140 0.242742 -0.313902
v -1.461340 0.096888 -0.456824
v -1.461340 0.242742 -0.456824
v -1.411703 0.096888 -0.595549
v -1.411703 0.242742 -0.595549
v -1.348708 0.096888 -0.728741
v -1.348708 0.242742 -0.728741
v -1.272961 0.096888 -0.855117
v -1.272961 0.242742 -0.855117
v -1.185192 0.096888 -0.973460
v -1.185192 0.242742 -0.973460
v -1.086246 0.096888 -1.082630
v -1.086246 0.242742 -1.082630
v -0.977076 0.096888 -1.181576
v -0.977076 0.242742 -1.181576
v -0.858734 0.096888 -1.269345
v -0.858734 0.242742 -1.269345
v -0.732358 0.096888 -1.345092
v -0.732358 0.242742 -1.345092
v -0.599166 0.096888 -1.408086
v -0.599166 0.242742 -1.408086
v -0.460441 0.096888 -1.457723
v -0.460441 0.242742 -1.457723
v -0.317519 0.096888 -1.493523
v -0.317519 0.242742 -1.493523
v -0.171775 0.096888 -1.515142
v -0.171775 0.242742 -1.515142
vn 0.0491 -0.0000 -0.9988
vn 0.1467 -0.0000 -0.9892
vn 0.2430 -0.0000 -0.9700
vn 0.3369 -0.0000 -0.9415
vn 0.4276 -0.0000 -0.9040
vn 0.5141 -0.0000 -0.8577
vn 0.5957 -0.0000 -0.8032
vn 0.6716 -0.0000 -0.7410
vn 0.7410 -0.0000 -0.6716
vn 0.8032 -0.0000 -0.5957
vn 0.8577 -0.0000 -0.5141
vn 0.9040 -0.0000 -0.4276
vn 0.9415 -0.0000 -0.3369
vn 0.9700 -0.0000 -0.2430
vn 0.9892 -0.0000 -0.1467
vn 0.9988 -0.0000 -0.0491
vn 0.9988 -0.0000 0.0491
vn 0.9892 -0.0000 0.1467
vn 0.9700 -0.0000 0.2430
vn 0.9415 -0.0000 0.3369
vn 0.9040 -0.0000 0.4276
vn 0.8577 -0.0000 0.5141
vn 0.8032 -0.0000 0.5957
vn 0.7410 -0.0000 0.6716
vn 0.6716 -0.0000 0.7410
vn 0.5957 -0.0000 0.8032
vn 0.5141 -0.0000 0.8577
vn 0.4276 -0.0000 0.9040
vn 0.3369 -0.0000 0.9415
vn 0.2430 -0.0000 0.9700
vn 0.1467 -0.0000 0.9892
vn 0.0491 -0.0000 0.9988
vn -0.0491 -0.0000 0.9988
vn -0.1467 -0.0000 0.9892
vn -0.2430 -0.0000 0.9700
vn -0.3369 -0.0000 0.9415
vn -0.4276 -0.0000 0.9040
vn -0.5141 -0.0000 0.8577
vn -0.5957 -0.0000 0.8032
vn -0.6716 -0.0000 0.7410
vn -0.7410 -0.0000 0.6716
vn -0.8032 -0.0000 0.5957
vn -0.8577 -0.0000 0.5141
vn -0.9040 -0.0000 0.4276
vn -0.9415 -0.0000 0.3369
vn -0.9700 -0.0000 0.2430
vn -0.9892 -0.0000 0.1467
vn -0.9988 -0.0000 0.0491
vn -0.9988 -0.0000 -0.0491
vn -0.9892 -0.0000 -0.1467
vn -0.9700 -0.0000 -0.2430
vn -0.9415 -0.0000 -0.3369
vn -0.9040 -0.0000 -0.4276
vn -0.8577 -0.0000 -0.5141
vn -0.8032 -0.0000 -0.5957
vn -0.7410 -0.0000 -0.6716
vn -0.6716 -0.0000 -0.7410
vn -0.5957 -0.0000 -0.8032
vn -0.5141 -0.0000 -0.8577
vn -0.4276 -0.0000 -0.9040
vn -0.3369 -0.0000 -0.9415
vn -0.2430 -0.0000 -0.9700
vn -0.1467 -0.0000 -0.9892
vn -0.0491 -0.0000 -0.9988
vt 1.000000 0.500000
vt 1.000000 1.000000
vt 0.984375 1.000000
vt 0.984375 0.500000
vt 0.968750 1.000000
vt 0.968750 0.500000
vt 0.953125 1.000000
vt 0.953125 0.500000
vt 0.937500 1.000000
vt 0.937500 0.500000
vt 0.921875 1.000000
vt 0.921875 0.500000
vt 0.906250 1.000000
vt 0.906250 0.500000
vt 0.890625 1.000000
vt 0.890625 0.500000
vt 0.875000 1.000000
vt 0.875000 0.500000
vt 0.859375 1.000000
vt 0.859375 0.500000
vt 0.843750 1.000000
vt 0.843750 0.500000
vt 0.828125 1.000000
vt 0.828125 0.500000
vt 0.812500 1.000000
vt 0.812500 0.500000
vt 0.796875 1.000000
vt 0.796875 0.500000
vt 0.781250 1.000000
vt 0.781250 0.500000
vt 0.765625 1.000000
vt 0.765625 0.500000
vt 0.750000 1.000000
vt 0.750000 0.500000
vt 0.734375 1.000000
vt 0.734375 0.500000
vt 0.718750 1.000000
vt 0.718750 0.500000
vt 0.703125 1.000000
vt 0.703125 0.500000
vt 0.687500 1.000000
vt 0.687500 0.500000
vt 0.671875 1.000000
vt 0.671875 0.500000
vt 0.656250 1.000000
vt 0.656250 0.500000
vt 0.640625 1.000000
vt 0.640625 0.500000
vt 0.625000 1.000000
vt 0.625000 0.500000
vt 0.609375 1.000000
vt 0.609375 0.500000
vt 0.593750 1.000000
vt 0.593750 0.500000
vt 0.578125 1.000000
vt 0.578125 0.500000
vt 0.562500 1.000000
vt 0.562500 0.500000
vt 0.546875 1.000000
vt 0.546875 0.500000
vt 0.531250 1.000000
vt 0.531250 0.500000
vt 0.515625 1.000000
vt 0.515625 0.500000
vt 0.500000 1.000000
vt 0.500000 0.500000
vt 0.484375 1.000000
vt 0.484375 0.500000
vt 0.468750 1.000000
vt 0.468750 0.500000
vt 0.453125 1.000000
vt 0.453125 0.500000
vt 0.437500 1.000000
vt 0.437500 0.500000
vt 0.421875 1.000000
vt 0.421875 0.500000
vt 0.406250 1.000000
vt 0.406250 0.500000
vt 0.390625 1.000000
vt 0.390625 0.500000
vt 0.375000 1.000000
vt 0.375000 0.500000
vt 0.359375 1.000000
vt 0.359375 0.500000
vt 0.343750 1.000000
vt 0.343750 0.500000
vt 0.328125 1.000000
vt 0.328125 0.500000
vt 0.312500 1.000000
vt 0.312500 0.500000
vt 0.296875 1.000000
vt 0.296875 0.500000
vt 0.281250 1.000000
vt 0.281250 0.500000
vt 0.265625 1.000000
vt 0.265625 0.500000
vt 0.250000 1.000000
vt 0.250000 0.500000
vt 0.234375 1.000000
vt 0.234375 0.500000
vt 0.218750 1.000000
vt 0.218750 0.500000
vt 0.203125 1.000000
vt 0.203125 0.500000
vt 0.187500 1.000000
vt 0.187500 0.500000
vt 0.171875 1.000000
vt 0.171875 0.500000
vt 0.156250 1.000000
vt 0.156250 0.500000
vt 0.140625 1.000000
vt 0.140625 0.500000
vt 0.125000 1.000000
vt 0.125000 0.500000
vt 0.109375 1.000000
vt 0.109375 0.500000
vt 0.093750 1.000000
vt 0.093750 0.500000
vt 0.078125 1.000000
vt 0.078125 0.500000
vt 0.062500 1.000000
vt 0.062500 0.500000
vt 0.046875 1.000000
vt 0.046875 0.500000
vt 0.031250 1.000000
vt 0.031250 0.500000
vt 0.015625 1.000000
vt 0.015625 0.500000
vt 0.000000 1.000000
vt 0.000000 0.500000
s 0
g Circle_Material.001
usemtl Material.001
f 1/1/1 2/2/1 4/3/1 3/4/1
f 3/4/2 4/3/2 6/5/2 5/6/2
f 5/6/3 6/5/3 8/7/3 7/8/3
f 7/8/4 8/7/4 10/9/4 9/10/4
f 9/10/5 10/9/5 12/11/5 11/12/5
f 11/12/6 12/11/6 14/13/6 13/14/6
f 13/14/7 14/13/7 16/15/7 15/16/7
f 15/16/8 16/15/8 18/17/8 17/18/8
f 17/18/9 18/17/9 20/19/9 19/20/9
f 19/20/10 20/19/10 22/21/10 21/22/10
f 21/22/11 22/21/11 24/23/11 23/24/11
f 23/24/12 24/23/12 26/25/12 25/26/12
f 25/26/13 26/25/13 28/27/13 27/28/13
f 27/28/14 28/27/14 30/29/14 29/30/14
f 29/30/15 30/29/15 32/31/15 31/32/15
f 31/32/16 32/31/16 34/33/16 33/34/16
f 33/34/17 34/33/17 36/35/17 35/36/17
f 35/36/18 36/35/18 38/37/18 37/38/18
f 37/38/19 38/37/19 40/39/19 39/40/19
f 39/40/20 40/39/20 42/41/20 41/42/20
f 41/42/21 42/41/21 44/43/21 43/44/21
f 43/44/22 44/43/22 46/45/22 45/46/22
f 45/46/23 46/45/23 48/47/23 47/48/23
f 47/48/24 48/47/24 50/49/24 49/50/24
f 49/50/25 50/49/25 52/51/25 51/52/25
f 51/52/26 52/51/26 54/53/26 53/54/26
f 53/54/27 54/53/27 56/55/27 55/56/27
f 55/56/28 56/55/28 58/57/28 57/58/28
f 57/58/29 58/57/29 60/59/29 59/60/29
f 59/60/30 60/59/30 62/61/30 61/62/30
f 61/62/31 62/61/31 64/63/31 63/64/31
f 63/64/32 64/63/32 66/65/32 65/66/32
f 65/66/33 66/65/33 68/67/33 67/68/33
f 67/68/34 68/67/34 70/69/34 69/70/34
f 69/70/35 70/69/35 72/71/35 71/72/35
f 71/72/36 72/71/36 74/73/36 73/74/36
f 73/74/37 74/73/37 76/75/37 75/76/37
f 75/76/38 76/75/38 78/77/38 77/78/38
f 77/78/39 78/77/39 80/79/39 79/80/39
f 79/80/40 80/79/40 82/81/40 81/82/40
f 81/82/41 82/81/41 84/83/41 83/84/41
f 83/84/42 84/83/42 86/85/42 85/86/42
f 85/86/43 86/85/43 88/87/43 87/88/43
f 87/88/44 88/87/44 90/89/44 89/90/44
f 89/90/45 90/89/45 92/91/45 91/92/45
f 91/92/46 92/91/46 94/93/46 93/94/46
f 93/94/47 94/93/47 96/95/47 95/96/47
f 95/96/48 96/95/48 98/97/48 97/98/48
f 97/98/49 98/97/49 100/99/49 99/100/49
f 99/100/50 100/99/50 102/101/50 101/102/50
f 101/102/51 102/101/51 104/103/51 103/104/51
f 103/104/52 104/103/52 106/105/52 105/106/52
f 105/106/53 106/105/53 108/107/53 107/108/53
f 107/108/54 108/107/54 110/109/54 109/110/54
f 109/110/55 110/109/55 112/111/55 111/112/55
f 111/112/56 112/111/56 114/113/56 113/114/56
f 113/114/57 114/113/57 116/115/57 115/116/57
f 115/116/58 116/115/58 118/117/58 117/118/58
f 117/118/59 118/117/59 120/119/59 119/120/59
f 119/120/60 120/119/60 122/121/60 121/122/60
f 121/122/61 122/121/61 124/123/61 123/124/61
f 123/124/62 124/123/62 126/125/62 125/126/62
f 125/126/63 126/125/63 128/127/63 127/128/63
f 127/128/64 128/127/64 2/129/64 1/130/64
o Cube
v 5.349437 0.248297 -1.956020
v 6.269553 0.345482 -2.029673
v 5.892700 0.452875 -2.459446
v 6.187176 0.034521 -2.440539
v 5.808173 0.506716 -1.764720
v 5.479883 0.161873 -2.447542
v 5.794156 -0.143876 -2.546371
v 6.163383 -0.139456 -1.830908
v 5.679806 -0.179614 -1.724980
v 5.762315 -0.388187 -2.075582
vn 0.7154 0.4806 -0.5072
vn 0.2133 0.1062 -0.9712
vn 0.2126 0.0168 0.9770
vn 0.5417 0.2145 0.8127
vn -0.7958 -0.5617 -0.2264
vn 0.3113 0.9496 -0.0357
vn -0.4953 0.8477 -0.1900
vn -0.1452 0.1660 -0.9754
vn -0.4450 0.1345 0.8854
vn -0.8187 -0.5572 0.1388
vn 0.5472 -0.7896 -0.2775
vn 0.1855 -0.8247 0.5343
vn 0.9743 -0.2239 -0.0259
vt 0.550384 0.206938
vt 0.375000 0.305791
vt 0.375000 0.049496
vt 0.180791 0.500000
vt 0.330928 0.574320
vt 0.125000 0.700504
vt 0.804283 0.500000
vt 0.842867 0.681766
vt 0.658516 0.626313
vt 0.875000 0.500000
vt 0.501754 0.540833
vt 0.565165 0.799791
vt 0.325310 0.750000
vt 0.604031 0.069198
vt 0.375000 1.000000
vt 0.375000 0.799690
vt 0.578028 1.000000
vt 0.615335 0.592735
vt 0.589707 0.775249
vt 0.581909 0.353207
s 0
g Cube_Material
usemtl Material
f 130/131/65 132/132/65 131/133/65
f 132/134/66 135/135/66 131/136/66
f 136/137/67 133/138/67 137/139/67
f 133/138/68 136/137/68 130/140/68
f 138/141/69 129/142/69 134/143/69 135/135/69
f 131/133/70 133/144/70 130/131/70
f 131/145/71 134/146/71 129/142/71 133/147/71
f 135/135/72 134/143/72 131/136/72
f 137/148/73 133/138/73 129/149/73
f 129/142/74 138/141/74 137/148/74
f 138/141/75 135/135/75 132/132/75 136/150/75
f 138/141/76 136/150/76 137/148/76
f 132/132/77 130/131/77 136/150/77
o Cube
v 1.559308 -0.236023 5.616314
v 0.990179 0.806305 6.321442
v 1.163433 0.027253 6.656186
v 0.461619 0.256955 6.468993
v 1.646162 0.546775 5.889363
v 1.109768 -0.536127 6.161313
v 0.468970 -0.349975 6.206541
v 0.583160 0.702504 5.645631
v 0.930096 0.216312 5.210350
v 0.439823 -0.056054 5.473090
vn -0.1253 0.3680 0.9213
vn -0.3516 -0.3752 0.8577
vn 0.2516 0.7390 -0.6250
vn 0.1989 0.9436 -0.2647
vn -0.1565 -0.8750 -0.4580
vn 0.6092 0.4236 0.6704
vn 0.8551 -0.3214 0.4069
vn -0.1349 -0.6466 0.7508
vn 0.6265 0.1938 -0.7550
vn -0.0154 -0.6797 -0.7334
vn -0.9947 0.1024 -0.0104
vn -0.5705 0.2832 -0.7710
vn -0.6516 0.7033 0.2844
vt 0.550384 0.206938
vt 0.375000 0.305791
vt 0.375000 0.049496
vt 0.180791 0.500000
vt 0.330928 0.574320
vt 0.125000 0.700504
vt 0.804283 0.500000
vt 0.842867 0.681766
vt 0.658516 0.626313
vt 0.875000 0.500000
vt 0.501754 0.540833
vt 0.565165 0.799791
vt 0.325310 0.750000
vt 0.604031 0.069198
vt 0.375000 1.000000
vt 0.375000 0.799690
vt 0.578028 1.000000
vt 0.615335 0.592735
vt 0.589707 0.775249
vt 0.581909 0.353207
s 0
g Cube_Material
usemtl Material
f 140/151/78 142/152/78 141/153/78
f 142/154/79 145/155/79 141/156/79
f 146/157/80 143/158/80 147/159/80
f 143/158/81 146/157/81 140/160/81
f 148/161/82 139/162/82 144/163/82 145/155/82
f 141/153/83 143/164/83 140/151/83
f 141/165/84 144/166/84 139/162/84 143/167/84
f 145/155/85 144/163/85 141/156/85
f 147/168/86 143/158/86 139/169/86
f 139/162/87 148/161/87 147/168/87
f 148/161/88 145/155/88 142/152/88 146/170/88
f 148/161/89 146/170/89 147/168/89
f 142/152/90 140/151/90 146/170/90
o Cube
v -4.525861 0.714011 4.177267
v -4.018076 0.410549 3.878410
v -4.129945 0.804298 3.808293
v -4.200173 0.530633 3.576323
v -4.175021 0.527578 4.223749
v -4.483892 0.864397 3.843666
v -4.481256 0.677770 3.582578
v -4.328462 0.190451 3.846574
v -4.592722 0.321842 4.043244
v -4.643456 0.382252 3.756706
vn 0.8723 0.1659 -0.4599
vn 0.2846 0.5763 -0.7661
vn 0.0982 -0.7615 0.6407
vn 0.4784 -0.7424 0.4690
vn -0.9405 0.3276 -0.0905
vn 0.9007 0.3101 0.3043
vn 0.2789 0.8199 0.4999
vn 0.0799 0.8113 -0.5791
vn -0.2664 -0.2707 0.9251
vn -0.9759 0.1001 0.1939
vn -0.1720 -0.5104 -0.8426
vn -0.4982 -0.8620 -0.0935
vn 0.5147 -0.6439 -0.5662
vt 0.550384 0.206938
vt 0.375000 0.305791
vt 0.375000 0.049496
vt 0.180791 0.500000
vt 0.330928 0.574320
vt 0.125000 0.700504
vt 0.804283 0.500000
vt 0.842867 0.681766
vt 0.658516 0.626313
vt 0.875000 0.500000
vt 0.501754 0.540833
vt 0.565165 0.799791
vt 0.325310 0.750000
vt 0.604031 0.069198
vt 0.375000 1.000000
vt 0.375000 0.799690
vt 0.578028 1.000000
vt 0.615335 0.592735
vt 0.589707 0.775249
vt 0.581909 0.353207
s 0
g Cube_Material
usemtl Material
f 150/171/91 152/172/91 151/173/91
f 152/174/92 155/175/92 151/176/92
f 156/177/93 153/178/93 157/179/93
f 153/178/94 156/177/94 150/180/94
f 158/181/95 149/182/95 154/183/95 155/175/95
f 151/173/96 153/184/96 150/171/96
f 151/185/97 154/186/97 149/182/97 153/187/97
f 155/175/98 154/183/98 151/176/98
f 157/188/99 153/178/99 149/189/99
f 149/182/100 158/181/100 157/188/100
f 158/181/101 155/175/101 152/172/101 156/190/101
f 158/181/102 156/190/102 157/188/102
f 152/172/103 150/171/103 156/190/103
o Cube
v 5.312099 -0.223254 1.635691
v 4.711003 -0.131048 1.113919
v 5.096897 0.186759 1.160694
v 4.691664 0.271351 1.315517
v 5.072956 -0.410637 1.259414
v 5.256405 0.213004 1.565788
v 4.907166 0.374580 1.615672
v 4.533183 -0.205503 1.533384
v 4.843556 -0.312470 1.809205
v 4.743953 0.027776 1.867704
vn -0.2443 0.4249 -0.8716
vn 0.0565 0.9310 -0.3607
vn -0.3446 -0.9385 0.0238
vn -0.4819 -0.8045 -0.3471
vn 0.4011 0.3007 0.8653
vn 0.2535 -0.1676 -0.9527
vn 0.8948 -0.0450 -0.4442
vn 0.3856 0.8984 -0.2101
vn 0.2787 -0.9186 0.2803
vn 0.3561 -0.0561 0.9328
vn -0.8219 0.4883 0.2932
vn -0.6888 -0.3140 0.6534
vn -0.9204 0.1389 -0.3655
vt 0.550384 0.206938
vt 0.375000 0.305791
vt 0.375000 0.049496
vt 0.180791 0.500000
vt 0.330928 0.574320
vt 0.125000 0.700504
vt 0.804283 0.500000
vt 0.842867 0.681766
vt 0.658516 0.626313
vt 0.875000 0.500000
vt 0.501754 0.540833
vt 0.565165 0.799791
vt 0.325310 0.750000
vt 0.604031 0.069198
vt 0.375000 1.000000
vt 0.375000 0.799690
vt 0.578028 1.000000
vt 0.615335 0.592735
vt 0.589707 0.775249
vt 0.581909 0.353207
s 0
g Cube_Material
usemtl Material
f 160/191/104 162/192/104 161/193/104
f 162/194/105 165/195/105 161/196/105
f 166/197/106 163/198/106 167/199/106
f 163/198/107 166/197/107 160/200/107
f 168/201/108 159/202/108 164/203/108 165/195/108
f 161/193/109 163/204/109 160/191/109
f 161/205/110 164/206/110 159/202/110 163/207/110
f 165/195/111 164/203/111 161/196/111
f 167/208/112 163/198/112 159/209/112
f 159/202/113 168/201/113 167/208/113
f 168/201/114 165/195/114 162/192/114 166/210/114
f 168/201/115 166/210/115 167/208/115
f 162/192/116 160/191/116 166/210/116
o Cube
v 5.224812 0.370607 -2.041429
v 4.425986 0.148976 -2.551267
v 4.437244 0.229369 -1.946855
v 4.405101 -0.252860 -2.180495
v 4.857013 0.532872 -2.469709
v 4.894447 0.087929 -1.719717
v 4.732635 -0.332319 -1.858713
v 4.832919 -0.211630 -2.688228
v 5.284460 -0.062957 -2.475568
v 5.122515 -0.400244 -2.250900
vn -0.9981 0.0615 0.0104
vn -0.7074 -0.2695 0.6535
vn 0.3422 0.2544 -0.9045
vn -0.0711 0.2830 -0.9565
vn 0.7115 -0.3380 0.6161
vn -0.6532 0.7521 -0.0879
vn -0.0918 0.8544 0.5115
vn -0.4691 -0.1092 0.8763
vn 0.7323 0.5295 -0.4282
vn 0.9160 -0.2138 0.3394
vn -0.2140 -0.9626 -0.1659
vn 0.4904 -0.6339 -0.5981
vn -0.6407 -0.5024 -0.5806
vt 0.550384 0.206938
vt 0.375000 0.305791
vt 0.375000 0.049496
vt 0.180791 0.500000
vt 0.330928 0.574320
vt 0.125000 0.700504
vt 0.804283 0.500000
vt 0.842867 0.681766
vt 0.658516 0.626313
vt 0.875000 0.500000
vt 0.501754 0.540833
vt 0.565165 0.799791
vt 0.325310 0.750000
vt 0.604031 0.069198
vt 0.375000 1.000000
vt 0.375000 0.799690
vt 0.578028 1.000000
vt 0.615335 0.592735
vt 0.589707 0.775249
vt 0.581909 0.353207
s 0
g Cube_Material
usemtl Material
f 170/211/117 172/212/117 171/213/117
f 172/214/118 175/215/118 171/216/118
f 176/217/119 173/218/119 177/219/119
f 173/218/120 176/217/120 170/220/120
f 178/221/121 169/222/121 174/223/121 175/215/121
f 171/213/122 173/224/122 170/211/122
f 171/225/123 174/226/123 169/222/123 173/227/123
f 175/215/124 174/223/124 171/216/124
f 177/228/125 173/218/125 169/229/125
f 169/222/126 178/221/126 177/228/126
f 178/221/127 175/215/127 172/212/127 176/230/127
f 178/221/128 176/230/128 177/228/128
f 172/212/129 170/211/129 176/230/129
o Cube
v -3.465649 0.212592 2.637698
v -3.755976 -0.156201 3.392578
v -3.761657 0.390753 3.287442
v -3.436908 0.176406 3.585742
v -3.812287 -0.128762 2.863853
v -3.400282 0.539569 3.002194
v -3.181587 0.427323 3.355551
v -3.286237 -0.334020 3.292625
v -3.145665 -0.193611 2.860449
v -2.959814 0.024544 3.137494
vn -0.6170 0.1424 0.7740
vn -0.1245 0.7366 0.6648
vn -0.0929 -0.9377 -0.3349
vn -0.3560 -0.9344 -0.0106
vn 0.7352 0.5121 -0.4441
vn -0.9943 0.0101 0.1064
vn -0.7060 0.5320 -0.4675
vn -0.1005 0.9286 0.3572
vn -0.0542 -0.5126 -0.8569
vn 0.7256 0.2128 -0.6543
vn 0.6509 -0.1510 0.7440
vn 0.7447 -0.6669 0.0256
vn -0.0045 -0.4990 0.8666
vt 0.550384 0.206938
vt 0.375000 0.305791
vt 0.375000 0.049496
vt 0.180791 0.500000
vt 0.330928 0.574320
vt 0.125000 0.700504
vt 0.804283 0.500000
vt 0.842867 0.681766
vt 0.658516 0.626313
vt 0.875000 0.500000
vt 0.501754 0.540833
vt 0.565165 0.799791
vt 0.325310 0.750000
vt 0.604031 0.069198
vt 0.375000 1.000000
vt 0.375000 0.799690
vt 0.578028 1.000000
vt 0.615335 0.592735
vt 0.589707 0.775249
vt 0.581909 0.353207
s 0
g Cube_Material
usemtl Material
f 180/231/130 182/232/130 181/233/130
f 182/234/131 185/235/131 181/236/131
f 186/237/132 183/238/132 187/239/132
f 183/238/133 186/237/133 180/240/133
f 188/241/134 179/242/134 184/243/134 185/235/134
f 181/233/135 183/244/135 180/231/135
f 181/245/136 184/246/136 179/242/136 183/247/136
f 185/235/137 184/243/137 181/236/137
f 187/248/138 183/238/138 179/249/138
f 179/242/139 188/241/139 187/248/139
f 188/241/140 185/235/140 182/232/140 186/250/140
f 188/241/141 186/250/141 187/248/141
f 182/232/142 180/231/142 186/250/142
o Cube
v -2.761076 0.244323 4.231285
v -2.163881 -0.520976 4.424649
v -2.783384 -0.549112 4.434803
v -2.475519 -0.535159 4.885457
v -2.330773 -0.115459 4.025666
v -3.020672 -0.088889 4.583672
v -2.808453 -0.215917 4.994243
v -1.999926 -0.076044 4.741418
v -2.265107 0.359172 4.597195
v -2.430282 0.205824 4.979567
vn 0.0454 -0.9990 -0.0001
vn -0.5603 -0.7224 0.4052
vn 0.8340 0.3736 -0.4061
vn 0.9079 -0.0372 -0.4176
vn -0.6053 0.6977 0.3833
vn 0.0199 -0.6970 -0.7168
vn -0.6230 -0.1779 -0.7618
vn -0.8190 -0.5083 0.2661
vn 0.2986 0.7171 -0.6298
vn -0.3633 0.9083 0.2073
vn 0.3173 -0.1385 0.9381
vn 0.6507 0.5647 0.5076
vn 0.6876 -0.5719 0.4474
vt 0.550384 0.206938
vt 0.375000 0.305791
vt 0.375000 0.049496
vt 0.180791 0.500000
vt 0.330928 0.574320
vt 0.125000 0.700504
vt 0.804283 0.500000
vt 0.842867 0.681766
vt 0.658516 0.626313
vt 0.875000 0.500000
vt 0.501754 0.540833
vt 0.565165 0.799791
vt 0.325310 0.750000
vt 0.604031 0.069198
vt 0.375000 1.000000
vt 0.375000 0.799690
vt 0.578028 1.000000
vt 0.615335 0.592735
vt 0.589707 0.775249
vt 0.581909 0.353207
s 0
g Cube_Material
usemtl Material
f 190/251/143 192/252/143 191/253/143
f 192/254/144 195/255/144 191/256/144
f 196/257/145 193/258/145 197/259/145
f 193/258/146 196/257/146 190/260/146
f 198/261/147 189/262/147 194/263/147 195/255/147
f 191/253/148 193/264/148 190/251/148
f 191/265/149 194/266/149 189/262/149 193/267/149
f 195/255/150 194/263/150 191/256/150
f 197/268/151 193/258/151 189/269/151
f 189/262/152 198/261/152 197/268/152
f 198/261/153 195/255/153 192/252/153 196/270/153
f 198/261/154 196/270/154 197/268/154
f 192/252/155 190/251/155 196/270/155
o Cube
v 3.061705 0.012702 -2.416553
v 3.256167 0.474415 -2.983953
v 3.208465 0.610827 -2.532205
v 2.926821 0.694726 -2.828760
v 3.364136 0.103461 -2.746710
v 2.923879 0.398925 -2.322779
v 2.711854 0.580651 -2.560210
v 2.897598 0.254462 -3.098925
v 2.816096 -0.033254 -2.825734
v 2.601349 0.226217 -2.783685
vn 0.4741 0.8555 -0.2083
vn -0.0760 0.9382 0.3377
vn 0.2701 -0.7021 -0.6588
vn 0.4812 -0.3686 -0.7954
vn -0.7287 -0.2922 0.6194
vn 0.9576 0.2878 0.0142
vn 0.6840 -0.0269 0.7290
vn -0.0826 0.7544 0.6512
vn 0.2472 -0.9681 -0.0397
vn -0.6474 -0.6099 0.4571
vn -0.7228 0.4519 -0.5228
vn -0.6399 -0.4260 -0.6395
vn -0.0494 0.5248 -0.8498
vt 0.550384 0.206938
vt 0.375000 0.305791
vt 0.375000 0.049496
vt 0.180791 0.500000
vt 0.330928 0.574320
vt 0.125000 0.700504
vt 0.804283 0.500000
vt 0.842867 0.681766
vt 0.658516 0.626313
vt 0.875000 0.500000
vt 0.501754 0.540833
vt 0.565165 0.799791
vt 0.325310 0.750000
vt 0.604031 0.069198
vt 0.375000 1.000000
vt 0.375000 0.799690
vt 0.578028 1.000000
vt 0.615335 0.592735
vt 0.589707 0.775249
vt 0.581909 0.353207
s 0
g Cube_Material
usemtl Material
f 200/271/156 202/272/156 201/273/156
f 202/274/157 205/275/157 201/276/157
f 206/277/158 203/278/158 207/279/158
f 203/278/159 206/277/159 200/280/159
f 208/281/160 199/282/160 204/283/160 205/275/160
f 201/273/161 203/284/161 200/271/161
f 201/285/162 204/286/162 199/282/162 203/287/162
f 205/275/163 204/283/163 201/276/163
f 207/288/164 203/278/164 199/289/164
f 199/282/165 208/281/165 207/288/165
f 208/281/166 205/275/166 202/272/166 206/290/166
f 208/281/167 206/290/167 207/288/167
f 202/272/168 200/271/168 206/290/168
o Cube
v -4.310068 0.312270 -1.829961
v -3.852334 0.895992 -1.335527
v -3.622374 0.552277 -1.711053
v -3.594331 0.480667 -1.225392
v -4.236940 0.829201 -1.699850
v -3.855145 0.129244 -1.759226
v -3.698392 0.088878 -1.359027
v -4.153511 0.617999 -1.026019
v -4.449139 0.346458 -1.283761
v -4.155899 0.119175 -1.134902
vn 0.8455 0.5331 0.0298
vn 0.9698 -0.2271 -0.0895
vn -0.7695 0.5760 0.2758
vn -0.4461 0.8368 0.3175
vn -0.2470 -0.9597 -0.1344
vn 0.3458 0.7880 -0.5095
vn 0.1182 0.1478 -0.9819
vn 0.8318 -0.4158 -0.3677
vn -0.9469 0.1978 -0.2535
vn -0.5786 -0.8098 -0.0966
vn 0.3283 -0.2845 0.9007
vn -0.5504 -0.1755 0.8162
vn 0.3962 0.4573 0.7962
vt 0.550384 0.206938
vt 0.375000 0.305791
vt 0.375000 0.049496
vt 0.180791 0.500000
vt 0.330928 0.574320
vt 0.125000 0.700504
vt 0.804283 0.500000
vt 0.842867 0.681766
vt 0.658516 0.626313
vt 0.875000 0.500000
vt 0.501754 0.540833
vt 0.565165 0.799791
vt 0.325310 0.750000
vt 0.604031 0.069198
vt 0.375000 1.000000
vt 0.375000 0.799690
vt 0.578028 1.000000
vt 0.615335 0.592735
vt 0.589707 0.775249
vt 0.581909 0.353207
s 0
g Cube_Material
usemtl Material
f 210/291/169 212/292/169 211/293/169
f 212/294/170 215/295/170 211/296/170
f 216/297/171 213/298/171 217/299/171
f 213/298/172 216/297/172 210/300/172
f 218/301/173 209/302/173 214/303/173 215/295/173
f 211/293/174 213/304/174 210/291/174
f 211/305/175 214/306/175 209/302/175 213/307/175
f 215/295/176 214/303/176 211/296/176
f 217/308/177 213/298/177 209/309/177
f 209/302/178 218/301/178 217/308/178
f 218/301/179 215/295/179 212/292/179 216/310/179
f 218/301/180 216/310/180 217/308/180
f 212/292/181 210/291/181 216/310/181
o Cube
v 3.249693 0.742775 1.696649
v 3.366809 0.087304 2.106561
v 3.048611 0.438351 2.231355
v 3.428330 0.381139 2.427684
v 3.236090 0.271049 1.696082
v 3.168661 0.829643 2.114645
v 3.429269 0.752228 2.378197
v 3.765598 0.280504 2.025488
v 3.719932 0.601004 1.760422
v 3.766635 0.724316 2.085312
vn -0.4313 -0.6229 0.6526
vn -0.4417 0.1197 0.8891
vn 0.4554 -0.5280 -0.7168
vn 0.3062 -0.8287 -0.4685
vn 0.1704 0.9836 -0.0585
vn -0.7496 -0.6594 -0.0565
vn -0.9492 0.1072 -0.2959
vn -0.5941 0.3918 0.7025
vn 0.1336 -0.0027 -0.9910
vn 0.3138 0.8718 -0.3760
vn 0.7166 -0.0106 0.6974
vn 0.9887 0.0178 -0.1489
vn 0.4515 -0.6997 0.5537
vt 0.550384 0.206938
vt 0.375000 0.305791
vt 0.375000 0.049496
vt 0.180791 0.500000
vt 0.330928 0.574320
vt 0.125000 0.700504
vt 0.804283 0.500000
vt 0.842867 0.681766
vt 0.658516 0.626313
vt 0.875000 0.500000
vt 0.501754 0.540833
vt 0.565165 0.799791
vt 0.325310 0.750000
vt 0.604031 0.069198
vt 0.375000 1.000000
vt 0.375000 0.799690
vt 0.578028 1.000000
vt 0.615335 0.592735
vt 0.589707 0.775249
vt 0.581909 0.353207
s 0
g Cube_Material
usemtl Material
f 220/311/182 222/312/182 221/313/182
f 222/314/183 225/315/183 221/316/183
f 226/317/184 223/318/184 227/319/184
f 223/318/185 226/317/185 220/320/185
f 228/321/186 219/322/186 224/323/186 225/315/186
f 221/313/187 223/324/187 220/311/187
f 221/325/188 224/326/188 219/322/188 223/327/188
f 225/315/189 224/323/189 221/316/189
f 227/328/190 223/318/190 219/329/190
f 219/322/191 228/321/191 227/328/191
f 228/321/192 225/315/192 222/312/192 226/330/192
f 228/321/193 226/330/193 227/328/193
f 222/312/194 220/311/194 226/330/194
o Cube
v 2.629461 -0.009742 2.911874
v 2.234143 -0.383594 2.235256
v 2.754028 -0.223241 2.236922
v 2.404893 0.015908 2.012732
v 2.377950 -0.433065 2.732575
v 2.837309 0.154438 2.508538
v 2.601966 0.326883 2.205794
v 1.952134 -0.002976 2.395944
v 2.121684 0.165701 2.794266
v 2.211594 0.407585 2.502723
vn 0.1672 -0.5333 -0.8292
vn 0.5928 0.1188 -0.7965
vn -0.7794 -0.3845 0.4946
vn -0.7606 -0.6299 0.1573
vn 0.3416 0.8535 0.3936
vn 0.2906 -0.9402 -0.1776
vn 0.8028 -0.5097 0.3094
vn 0.8253 0.1982 -0.5287
vn -0.2918 -0.2208 0.9306
vn 0.1072 0.7487 0.6542
vn -0.4856 0.5793 -0.6547
vn -0.8529 0.4996 0.1515
vn -0.6350 -0.1506 -0.7577
vt 0.550384 0.206938
vt 0.375000 0.305791
vt 0.375000 0.049496
vt 0.180791 0.500000
vt 0.330928 0.574320
vt 0.125000 0.700504
vt 0.804283 0.500000
vt 0.842867 0.681766
vt 0.658516 0.626313
vt 0.875000 0.500000
vt 0.501754 0.540833
vt 0.565165 0.799791
vt 0.325310 0.750000
vt 0.604031 0.069198
vt 0.375000 1.000000
vt 0.375000 0.799690
vt 0.578028 1.000000
vt 0.615335 0.592735
vt 0.589707 0.775249
vt 0.581909 0.353207
s 0
g Cube_Material
usemtl Material
f 230/331/195 232/332/195 231/333/195
f 232/334/196 235/335/196 231/336/196
f 236/337/197 233/338/197 237/339/197
f 233/338/198 236/337/198 230/340/198
f 238/341/199 229/342/199 234/343/199 235/335/199
f 231/333/200 233/344/200 230/331/200
f 231/345/201 234/346/201 229/342/201 233/347/201
f 235/335/202 234/343/202 231/336/202
f 237/348/203 233/338/203 229/349/203
f 229/342/204 238/341/204 237/348/204
f 238/341/205 235/335/205 232/332/205 236/350/205
f 238/341/206 236/350/206 237/348/206
f 232/332/207 230/331/207 236/350/207
o Cube
v 3.208943 -0.090942 -0.373225
v 3.209536 0.934700 0.196930
v 3.384984 0.854224 -0.512592
v 3.822760 0.951226 -0.045815
v 2.827544 0.381800 -0.009001
v 3.657426 0.293112 -0.650125
v 4.063221 0.531576 -0.331731
v 3.566623 0.486549 0.555694
v 3.506868 -0.087246 0.307726
v 3.979186 0.108583 0.183364
vn -0.0787 0.9882 -0.1315
vn 0.4709 0.6649 -0.5798
vn -0.5575 -0.2797 0.7816
vn -0.6136 0.1341 0.7782
vn 0.5570 -0.7391 -0.3787
vn -0.7487 0.6121 -0.2546
vn -0.6115 -0.0028 -0.7912
vn 0.4089 0.3996 -0.8204
vn -0.6304 -0.7241 0.2797
vn 0.3458 -0.9268 -0.1463
vn 0.8304 0.2845 0.4791
vn 0.3848 -0.3996 0.8320
vn 0.2402 0.7161 0.6554
vt 0.550384 0.206938
vt 0.375000 0.305791
vt 0.375000 0.049496
vt 0.180791 0.500000
vt 0.330928 0.574320
vt 0.125000 0.700504
vt 0.804283 0.500000
vt 0.842867 0.681766
vt 0.658516 0.626313
vt 0.875000 0.500000
vt 0.501754 0.540833
vt 0.565165 0.799791
vt 0.325310 0.750000
vt 0.604031 0.069198
vt 0.375000 1.000000
vt 0.375000 0.799690
vt 0.578028 1.000000
vt 0.615335 0.592735
vt 0.589707 0.775249
vt 0.581909 0.353207
s 0
g Cube_Material
usemtl Material
f 240/351/208 242/352/208 241/353/208
f 242/354/209 245/355/209 241/356/209
f 246/357/210 243/358/210 247/359/210
f 243/358/211 246/357/211 240/360/211
f 248/361/212 239/362/212 244/363/212 245/355/212
f 241/353/213 243/364/213 240/351/213
f 241/365/214 244/366/214 239/362/214 243/367/214
f 245/355/215 244/363/215 241/356/215
f 247/368/216 243/358/216 239/369/216
f 239/362/217 248/361/217 247/368/217
f 248/361/218 245/355/218 242/352/218 246/370/218
f 248/361/219 246/370/219 247/368/219
f 242/352/220 240/351/220 246/370/220
o Cube
v -2.478068 -0.067624 -2.348221
v -2.501609 0.502043 -3.002238
v -2.129057 0.504692 -2.606276
v -2.492430 0.815336 -2.628462
v -2.460486 0.001956 -2.866948
v -2.289770 0.347492 -2.190939
v -2.507765 0.704723 -2.228326
v -2.954311 0.480884 -2.791316
v -2.970994 0.135834 -2.481115
v -2.943776 0.476158 -2.294519
vn 0.5667 0.6245 -0.5374
vn 0.6242 0.7466 0.2303
vn -0.5976 -0.5198 -0.6104
vn -0.3962 -0.2700 -0.8776
vn -0.1847 -0.1577 0.9701
vn 0.7231 -0.1244 -0.6795
vn 0.8612 -0.5065 0.0414
vn 0.7307 0.4951 0.4701
vn -0.3464 -0.9282 -0.1362
vn -0.3932 -0.4177 0.8191
vn -0.5473 0.8305 0.1039
vn -0.9975 0.0678 0.0218
vn -0.3160 0.7309 -0.6049
vt 0.550384 0.206938
vt 0.375000 0.305791
vt 0.375000 0.049496
vt 0.180791 0.500000
vt 0.330928 0.574320
vt 0.125000 0.700504
vt 0.804283 0.500000
vt 0.842867 0.681766
vt 0.658516 0.626313
vt 0.875000 0.500000
vt 0.501754 0.540833
vt 0.565165 0.799791
vt 0.325310 0.750000
vt 0.604031 0.069198
vt 0.375000 1.000000
vt 0.375000 0.799690
vt 0.578028 1.000000
vt 0.615335 0.592735
vt 0.589707 0.775249
vt 0.581909 0.353207
s 0
g Cube_Material
usemtl Material
f 250/371/221 252/372/221 251/373/221
f 252/374/222 255/375/222 251/376/222
f 256/377/223 253/378/223 257/379/223
f 253/378/224 256/377/224 250/380/224
f 258/381/225 249/382/225 254/383/225 255/375/225
f 251/373/226 253/384/226 250/371/226
f 251/385/227 254/386/227 249/382/227 253/387/227
f 255/375/228 254/383/228 251/376/228
f 257/388/229 253/378/229 249/389/229
f 249/382/230 258/381/230 257/388/230
f 258/381/231 255/375/231 252/372/231 256/390/231
f 258/381/232 256/390/232 257/388/232
f 252/372/233 250/371/233 256/390/233
o Cube
v -3.008708 0.833439 1.543615
v -3.352628 0.025614 0.970474
v -2.737514 0.255945 0.955053
v -3.125539 0.355487 0.537932
v -3.263288 0.254105 1.548589
v -2.697957 0.817156 1.050953
v -2.934213 0.815238 0.601536
v -3.730914 0.490780 0.896866
v -3.602052 0.904081 1.253754
v -3.454064 1.018436 0.822376
vn 0.2981 -0.8280 -0.4749
vn 0.6949 -0.1934 -0.6926
vn -0.8291 -0.1943 0.5243
vn -0.7556 -0.5609 0.3384
vn 0.2568 0.9665 0.0016
vn 0.3412 -0.8910 0.2994
vn 0.7665 -0.2450 0.5936
vn 0.8850 0.0171 -0.4653
vn -0.4128 0.1890 0.8910
vn -0.0087 0.9673 0.2535
vn -0.4063 0.1828 -0.8953
vn -0.8806 0.4357 -0.1866
vn -0.5174 -0.5274 -0.6739
vt 0.550384 0.206938
vt 0.375000 0.305791
vt 0.375000 0.049496
vt 0.180791 0.500000
vt 0.330928 0.574320
vt 0.125000 0.700504
vt 0.804283 0.500000
vt 0.842867 0.681766
vt 0.658516 0.626313
vt 0.875000 0.500000
vt 0.501754 0.540833
vt 0.565165 0.799791
vt 0.325310 0.750000
vt 0.604031 0.069198
vt 0.375000 1.000000
vt 0.375000 0.799690
vt 0.578028 1.000000
vt 0.615335 0.592735
vt 0.589707 0.775249
vt 0.581909 0.353207
s 0
g Cube_Material
usemtl Material
f 260/391/234 262/392/234 261/393/234
f 262/394/235 265/395/235 261/396/235
f 266/397/236 263/398/236 267/399/236
f 263/398/237 266/397/237 260/400/237
f 268/401/238 259/402/238 264/403/238 265/395/238
f 261/393/239 263/404/239 260/391/239
f 261/405/240 264/406/240 259/402/240 263/407/240
f 265/395/241 264/403/241 261/396/241
f 267/408/242 263/398/242 259/409/242
f 259/402/243 268/401/243 267/408/243
f 268/401/244 265/395/244 262/392/244 266/410/244
f 268/401/245 266/410/245 267/408/245
f 262/392/246 260/391/246 266/410/246
o Cube
v -0.042212 -0.047474 3.649014
v -0.178461 0.466442 2.968304
v -0.346426 0.574755 3.471279
v -0.636322 0.424246 3.124467
v 0.174091 0.236057 3.268772
v -0.451254 0.192328 3.723864
v -0.755671 0.181433 3.437233
v -0.323023 0.004811 2.851582
v -0.198850 -0.290628 3.184628
v -0.578943 -0.220580 3.209943
vn -0.1772 0.9483 -0.2634
vn -0.6786 0.6826 0.2710
vn 0.6915 -0.3928 -0.6063
vn 0.6452 -0.0089 -0.7639
vn -0.4005 -0.6632 0.6323
vn 0.5459 0.8378 0.0019
vn 0.5027 0.4556 0.7346
vn -0.5814 0.5533 0.5965
vn 0.8135 -0.5808 0.0297
vn -0.1258 -0.8608 0.4931
vn -0.8163 -0.1467 -0.5588
vn -0.1825 -0.7683 -0.6135
vn -0.3319 0.3276 -0.8846
vt 0.550384 0.206938
vt 0.375000 0.305791
vt 0.375000 0.049496
vt 0.180791 0.500000
vt 0.330928 0.574320
vt 0.125000 0.700504
vt 0.804283 0.500000
vt 0.842867 0.681766
vt 0.658516 0.626313
vt 0.875000 0.500000
vt 0.501754 0.540833
vt 0.565165 0.799791
vt 0.325310 0.750000
vt 0.604031 0.069198
vt 0.375000 1.000000
vt 0.375000 0.799690
vt 0.578028 1.000000
vt 0.615335 0.592735
vt 0.589707 0.775249
vt 0.581909 0.353207
s 0
g Cube_Material
usemtl Material
f 270/411/247 272/412/247 271/413/247
f 272/414/248 275/415/248 271/416/248
f 276/417/249 273/418/249 277/419/249
f 273/418/250 276/417/250 270/420/250
f 278/421/251 269/422/251 274/423/251 275/415/251
f 271/413/252 273/424/252 270/411/252
f 271/425/253 274/426/253 269/422/253 273/427/253
f 275/415/254 274/423/254 271/416/254
f 277/428/255 273/418/255 269/429/255
f 269/422/256 278/421/256 277/428/256
f 278/421/257 275/415/257 272/412/257 276/430/257
f 278/421/258 276/430/258 277/428/258
f 272/412/259 270/411/259 276/430/259
o Cube
v 2.010324 -0.275498 0.664832
v 2.417510 0.131914 -0.087408
v 1.848408 -0.035538 -0.064150
v 2.215807 -0.299791 -0.325467
v 2.283011 0.184132 0.461433
v 1.763811 -0.448514 0.232922
v 2.004726 -0.637734 -0.108624
v 2.726320 -0.288694 0.072824
v 2.556242 -0.473360 0.513288
v 2.442010 -0.733725 0.197589
vn -0.1927 0.5414 -0.8184
vn -0.6256 -0.1053 -0.7730
vn 0.8036 0.3707 0.4657
vn 0.7747 0.6187 0.1310
vn -0.3372 -0.8516 0.4013
vn -0.2847 0.9452 -0.1597
vn -0.7829 0.5181 0.3444
vn -0.8483 -0.1835 -0.4967
vn 0.3315 0.2103 0.9197
vn -0.0912 -0.7518 0.6530
vn 0.4514 -0.5811 -0.6772
vn 0.8514 -0.5119 0.1141
vn 0.6064 0.1475 -0.7814
vt 0.550384 0.206938
vt 0.375000 0.305791
vt 0.375000 0.049496
vt 0.180791 0.500000
vt 0.330928 0.574320
vt 0.125000 0.700504
vt 0.804283 0.500000
vt 0.842867 0.681766
vt 0.658516 0.626313
vt 0.875000 0.500000
vt 0.501754 0.540833
vt 0.565165 0.799791
vt 0.325310 0.750000
vt 0.604031 0.069198
vt 0.375000 1.000000
vt 0.375000 0.799690
vt 0.578028 1.000000
vt 0.615335 0.592735
vt 0.589707 0.775249
vt 0.581909 0.353207
s 0
g Cube_Material
usemtl Material
f 280/431/260 282/432/260 281/433/260
f 282/434/261 285/435/261 281/436/261
f 286/437/262 283/438/262 287/439/262
f 283/438/263 286/437/263 280/440/263
f 288/441/264 279/442/264 284/443/264 285/435/264
f 281/433/265 283/444/265 280/431/265
f 281/445/266 284/446/266 279/442/266 283/447/266
f 285/435/267 284/443/267 281/436/267
f 287/448/268 283/438/268 279/449/268
f 279/442/269 288/441/269 287/448/269
f 288/441/270 285/435/270 282/432/270 286/450/270
f 288/441/271 286/450/271 287/448/271
f 282/432/272 280/431/272 286/450/272
o Cube
v 0.099270 0.694834 -1.989531
v 0.407571 0.405331 -2.786834
v -0.124654 0.339313 -2.607368
v 0.209694 -0.029413 -2.615654
v 0.325581 0.832291 -2.465564
v -0.166067 0.289788 -2.120368
v 0.039048 -0.082459 -2.222209
v 0.727645 0.237464 -2.413014
v 0.610196 0.438403 -1.989846
v 0.483081 0.054218 -1.996117
vn -0.2840 -0.2366 -0.9292
vn -0.6889 -0.6161 -0.3819
vn 0.8294 0.5576 -0.0346
vn 0.7621 0.4764 -0.4386
vn -0.2708 -0.2567 0.9278
vn -0.3296 0.5264 -0.7837
vn -0.7656 0.6371 -0.0891
vn -0.8830 -0.4534 -0.1212
vn 0.4060 0.8083 0.4264
vn -0.0065 -0.0142 0.9999
vn 0.4077 -0.9114 -0.0569
vn 0.8750 -0.2958 0.3833
vn 0.5280 -0.5082 -0.6803
vt 0.550384 0.206938
vt 0.375000 0.305791
vt 0.375000 0.049496
vt 0.180791 0.500000
vt 0.330928 0.574320
vt 0.125000 0.700504
vt 0.804283 0.500000
vt 0.842867 0.681766
vt 0.658516 0.626313
vt 0.875000 0.500000
vt 0.501754 0.540833
vt 0.565165 0.799791
vt 0.325310 0.750000
vt 0.604031 0.069198
vt 0.375000 1.000000
vt 0.375000 0.799690
vt 0.578028 1.000000
vt 0.615335 0.592735
vt 0.589707 0.775249
vt 0.581909 0.353207
s 0
g Cube_Material
usemtl Material
f 290/451/273 292/452/273 291/453/273
f 292/454/274 295/455/274 291/456/274
f 296/457/275 293/458/275 297/459/275
f 293/458/276 296/457/276 290/460/276
f 298/461/277 289/462/277 294/463/277 295/455/277
f 291/453/278 293/464/278 290/451/278
f 291/465/279 294/466/279 289/462/279 293/467/279
f 295/455/280 294/463/280 291/456/280
f 297/468/281 293/458/281 289/469/281
f 289/462/282 298/461/282 297/468/282
f 298/461/283 295/455/283 292/452/283 296/470/283
f 298/461/284 296/470/284 297/468/284
f 292/452/285 290/451/285 296/470/285
o Cube
v 0.867131 0.628669 -1.991067
v 1.395581 0.542927 -1.329101
v 1.543839 0.502248 -1.839942
v 1.491844 0.132307 -1.555418
v 1.071471 0.850377 -1.574992
v 1.214206 0.333428 -2.118493
v 1.297221 0.001311 -1.888766
v 1.006203 0.253143 -1.258461
v 0.689118 0.335288 -1.575090
v 0.868481 0.008397 -1.657069
vn 0.9593 0.0747 0.2725
vn 0.8544 -0.3868 -0.3468
vn -0.5797 0.4301 0.6921
vn -0.1987 0.4758 0.8568
vn -0.5150 -0.4700 -0.7169
vn 0.6325 0.7648 0.1226
vn 0.2759 0.7316 -0.6234
vn 0.6993 -0.2801 -0.6577
vn -0.8006 0.5943 0.0765
vn -0.7856 -0.2946 -0.5440
vn 0.1123 -0.9038 0.4130
vn -0.6720 -0.5046 0.5420
vn 0.4196 -0.3607 0.8330
vt 0.550384 0.206938
vt 0.375000 0.305791
vt 0.375000 0.049496
vt 0.180791 0.500000
vt 0.330928 0.574320
vt 0.125000 0.700504
vt 0.804283 0.500000
vt 0.842867 0.681766
vt 0.658516 0.626313
vt 0.875000 0.500000
vt 0.501754 0.540833
vt 0.565165 0.799791
vt 0.325310 0.750000
vt 0.604031 0.069198
vt 0.375000 1.000000
vt 0.375000 0.799690
vt 0.578028 1.000000
vt 0.615335 0.592735
vt 0.589707 0.775249
vt 0.581909 0.353207
s 0
g Cube_Material
usemtl Material
f 300/471/286 302/472/286 301/473/286
f 302/474/287 305/475/287 301/476/287
f 306/477/288 303/478/288 307/479/288
f 303/478/289 306/477/289 300/480/289
f 308/481/290 299/482/290 304/483/290 305/475/290
f 301/473/291 303/484/291 300/471/291
f 301/485/292 304/486/292 299/482/292 303/487/292
f 305/475/293 304/483/293 301/476/293
f 307/488/294 303/478/294 299/489/294
f 299/482/295 308/481/295 307/488/295
f 308/481/296 305/475/296 302/472/296 306/490/296
f 308/481/297 306/490/297 307/488/297
f 302/472/298 300/471/298 306/490/298
o Cube
v -1.594102 0.899497 -1.036022
v -1.986451 0.568470 -0.049827
v -1.381641 0.357058 -0.323428
v -1.885761 0.008215 -0.308043
v -1.790776 1.084966 -0.421859
v -1.382024 0.329296 -0.927963
v -1.725634 -0.068032 -0.809954
v -2.444597 0.489788 -0.490506
v -2.278184 0.734932 -1.006412
v -2.234730 0.239212 -1.036983
vn 0.2768 -0.3607 0.8906
vn 0.5499 -0.7817 0.2942
vn -0.6750 0.7267 0.1276
vn -0.6041 0.6036 0.5203
vn 0.1483 -0.2441 -0.9583
vn 0.4883 0.3806 0.7853
vn 0.8958 0.4394 0.0674
vn 0.7604 -0.6488 0.0293
vn -0.2334 0.9076 -0.3489
vn -0.0567 0.0565 -0.9968
vn -0.6026 -0.7972 0.0359
vn -0.9409 -0.0619 -0.3329
vn -0.5893 -0.4231 0.6882
vt 0.550384 0.206938
vt 0.375000 0.305791
vt 0.375000 0.049496
vt 0.180791 0.500000
vt 0.330928 0.574320
vt 0.125000 0.700504
vt 0.804283 0.500000
vt 0.842867 0.681766
vt 0.658516 0.626313
vt 0.875000 0.500000
vt 0.501754 0.540833
vt 0.565165 0.799791
vt 0.325310 0.750000
vt 0.604031 0.069198
vt 0.375000 1.000000
vt 0.375000 0.799690
vt 0.578028 1.000000
vt 0.615335 0.592735
vt 0.589707 0.775249
vt 0.581909 0.353207
s 0
g Cube_Material
usemtl Material
f 310/491/299 312/492/299 311/493/299
f 312/494/300 315/495/300 311/496/300
f 316/497/301 313/498/301 317/499/301
f 313/498/302 316/497/302 310/500/302
f 318/501/303 309/502/303 314/503/303 315/495/303
f 311/493/304 313/504/304 310/491/304
f 311/505/305 314/506/305 309/502/305 313/507/305
f 315/495/306 314/503/306 311/496/306
f 317/508/307 313/498/307 309/509/307
f 309/502/308 318/501/308 317/508/308
f 318/501/309 315/495/309 312/492/309 316/510/309
f 318/501/310 316/510/310 317/508/310
f 312/492/311 310/491/311 316/510/311
o Cube
v 0.515901 0.377473 -0.441754
v 0.230478 -0.048684 -1.537989
v 0.826747 -0.280356 -1.130632
v 0.876954 0.127011 -1.657109
v 0.015317 0.037767 -0.851148
v 1.085200 0.187375 -0.745372
v 1.219055 0.397805 -1.275747
v 0.241118 0.648020 -1.564272
v 0.307240 0.893691 -0.968696
v 0.779750 0.931901 -1.232942
vn 0.1041 -0.7914 -0.6024
vn 0.7843 -0.5246 -0.3311
vn -0.9472 0.3194 -0.0266
vn -0.9541 0.0033 -0.2993
vn 0.6077 0.5943 0.5268
vn -0.3640 -0.9314 0.0032
vn 0.0311 -0.7158 0.6976
vn 0.8674 -0.4971 0.0217
vn -0.7216 0.3297 0.6087
vn 0.2825 0.7388 0.6119
vn 0.3582 0.4688 -0.8074
vn -0.2645 0.9015 -0.3425
vn -0.1720 -0.0345 -0.9845
vt 0.550384 0.206938
vt 0.375000 0.305791
vt 0.375000 0.049496
vt 0.180791 0.500000
vt 0.330928 0.574320
vt 0.125000 0.700504
vt 0.804283 0.500000
vt 0.842867 0.681766
vt 0.658516 0.626313
vt 0.875000 0.500000
vt 0.501754 0.540833
vt 0.565165 0.799791
vt 0.325310 0.750000
vt 0.604031 0.069198
vt 0.375000 1.000000
vt 0.375000 0.799690
vt 0.578028 1.000000
vt 0.615335 0.592735
vt 0.589707 0.775249
vt 0.581909 0.353207
s 0
g Cube_Material
usemtl Material
f 320/511/312 322/512/312 321/513/312
f 322/514/313 325/515/313 321/516/313
f 326/517/314 323/518/314 327/519/314
f 323/518/315 326/517/315 320/520/315
f 328/521/316 319/522/316 324/523/316 325/515/316
f 321/513/317 323/524/317 320/511/317
f 321/525/318 324/526/318 319/522/318 323/527/318
f 325/515/319 324/523/319 321/516/319
f 327/528/320 323/518/320 319/529/320
f 319/522/321 328/521/321 327/528/321
f 328/521/322 325/515/322 322/512/322 326/530/322
f 328/521/323 326/530/323 327/528/323
f 322/512/324 320/511/324 326/530/324
o Cube
v 5.158923 0.490048 -1.446671
v 6.498322 0.631517 -1.553886
v 5.949743 0.787848 -2.179501
v 6.378407 0.178856 -2.151978
v 5.826698 0.866224 -1.168199
v 5.348811 0.364241 -2.162171
v 5.806293 -0.080832 -2.306035
v 6.343771 -0.074399 -1.264547
v 5.639836 -0.132856 -1.110350
v 5.759943 -0.436473 -1.620715
vn 0.7154 0.4806 -0.5072
vn 0.2133 0.1062 -0.9712
vn 0.2126 0.0168 0.9770
vn 0.5417 0.2145 0.8127
vn -0.7958 -0.5617 -0.2264
vn 0.3113 0.9496 -0.0357
vn -0.4953 0.8477 -0.1900
vn -0.1452 0.1660 -0.9754
vn -0.4450 0.1345 0.8854
vn -0.8187 -0.5572 0.1388
vn 0.5472 -0.7896 -0.2775
vn 0.1855 -0.8247 0.5343
vn 0.9743 -0.2239 -0.0259
vt 0.550384 0.206938
vt 0.375000 0.305791
vt 0.375000 0.049496
vt 0.180791 0.500000
vt 0.330928 0.574320
vt 0.125000 0.700504
vt 0.804283 0.500000
vt 0.842867 0.681766
vt 0.658516 0.626313
vt 0.875000 0.500000
vt 0.501754 0.540833
vt 0.565165 0.799791
vt 0.325310 0.750000
vt 0.604031 0.069198
vt 0.375000 1.000000
vt 0.375000 0.799690
vt 0.578028 1.000000
vt 0.615335 0.592735
vt 0.589707 0.775249
vt 0.581909 0.353207
s 0
g Cube_Material
usemtl Material
f 330/531/325 332/532/325 331/533/325
f 332/534/326 335/535/326 331/536/326
f 336/537/327 333/538/327 337/539/327
f 333/538/328 336/537/328 330/540/328
f 338/541/329 329/542/329 334/543/329 335/535/329
f 331/533/330 333/544/330 330/531/330
f 331/545/331 334/546/331 329/542/331 333/547/331
f 335/535/332 334/543/332 331/536/332
f 337/548/333 333/538/333 329/549/333
f 329/542/334 338/541/334 337/548/334
f 338/541/335 335/535/335 332/532/335 336/550/335
f 338/541/336 336/550/336 337/548/336
f 332/532/337 330/531/337 336/550/337
o Cube
v 1.698765 0.500342 5.569325
v 1.258665 1.306361 6.114591
v 1.392641 0.703929 6.373444
v 0.849937 0.881555 6.228690
v 1.765928 1.105669 5.780470
v 1.351142 0.268275 5.990765
v 0.855621 0.412224 6.025740
v 0.943923 1.226093 5.591995
v 1.212204 0.850127 5.255398
v 0.833082 0.639509 5.458571
vn -0.1253 0.3680 0.9213
vn -0.3516 -0.3752 0.8577
vn 0.2516 0.7390 -0.6250
vn 0.1989 0.9436 -0.2647
vn -0.1565 -0.8750 -0.4580
vn 0.6092 0.4236 0.6704
vn 0.8551 -0.3214 0.4069
vn -0.1349 -0.6466 0.7508
vn 0.6265 0.1938 -0.7550
vn -0.0154 -0.6797 -0.7334
vn -0.9947 0.1024 -0.0104
vn -0.5705 0.2832 -0.7710
vn -0.6516 0.7033 0.2844
vt 0.550384 0.206938
vt 0.375000 0.305791
vt 0.375000 0.049496
vt 0.180791 0.500000
vt 0.330928 0.574320
vt 0.125000 0.700504
vt 0.804283 0.500000
vt 0.842867 0.681766
vt 0.658516 0.626313
vt 0.875000 0.500000
vt 0.501754 0.540833
vt 0.565165 0.799791
vt 0.325310 0.750000
vt 0.604031 0.069198
vt 0.375000 1.000000
vt 0.375000 0.799690
vt 0.578028 1.000000
vt 0.615335 0.592735
vt 0.589707 0.775249
vt 0.581909 0.353207
s 0
g Cube_Material
usemtl Material
f 340/551/338 342/552/338 341/553/338
f 342/554/339 345/555/339 341/556/339
f 346/557/340 343/558/340 347/559/340
f 343/558/341 346/557/341 340/560/341
f 348/561/342 339/562/342 344/563/342 345/555/342
f 341/553/343 343/564/343 340/551/343
f 341/565/344 344/566/344 339/562/344 343/567/344
f 345/555/345 344/563/345 341/556/345
f 347/568/346 343/558/346 339/569/346
f 339/562/347 348/561/347 347/568/347
f 348/561/348 345/555/348 342/552/348 346/570/348
f 348/561/349 346/570/349 347/568/349
f 342/552/350 340/551/350 346/570/350
o Cube
v -4.059954 0.505675 4.718120
v -3.318398 0.062508 4.281676
v -3.481767 0.637529 4.179279
v -3.584328 0.237874 3.840515
v -3.547596 0.233413 4.786001
v -3.998664 0.725296 4.230937
v -3.994814 0.452751 3.849650
v -3.771678 -0.258919 4.235183
v -4.157597 -0.067039 4.522396
v -4.231687 0.021182 4.103943
vn 0.8723 0.1659 -0.4599
vn 0.2846 0.5763 -0.7661
vn 0.0982 -0.7615 0.6407
vn 0.4784 -0.7424 0.4690
vn -0.9405 0.3276 -0.0905
vn 0.9007 0.3101 0.3043
vn 0.2789 0.8199 0.4999
vn 0.0799 0.8113 -0.5791
vn -0.2664 -0.2707 0.9251
vn -0.9759 0.1001 0.1939
vn -0.1720 -0.5104 -0.8426
vn -0.4982 -0.8620 -0.0935
vn 0.5147 -0.6439 -0.5662
vt 0.550384 0.206938
vt 0.375000 0.305791
vt 0.375000 0.049496
vt 0.180791 0.500000
vt 0.330928 0.574320
vt 0.125000 0.700504
vt 0.804283 0.500000
vt 0.842867 0.681766
vt 0.658516 0.626313
vt 0.875000 0.500000
vt 0.501754 0.540833
vt 0.565165 0.799791
vt 0.325310 0.750000
vt 0.604031 0.069198
vt 0.375000 1.000000
vt 0.375000 0.799690
vt 0.578028 1.000000
vt 0.615335 0.592735
vt 0.589707 0.775249
vt 0.581909 0.353207
s 0
g Cube_Material
usemtl Material
f 350/571/351 352/572/351 351/573/351
f 352/574/352 355/575/352 351/576/352
f 356/577/353 353/578/353 357/579/353
f 353/578/354 356/577/354 350/580/354
f 358/581/355 349/582/355 354/583/355 355/575/355
f 351/573/356 353/584/356 350/571/356
f 351/585/357 354/586/357 349/582/357 353/587/357
f 355/575/358 354/583/358 351/576/358
f 357/588/359 353/578/359 349/589/359
f 349/582/360 358/581/360 357/588/360
f 358/581/361 355/575/361 352/572/361 356/590/361
f 358/581/362 356/590/362 357/588/362
f 352/572/363 350/571/363 356/590/363
o Cube
v 5.659386 -0.334385 2.288056
v 4.836937 -0.208225 1.574142
v 5.364935 0.226614 1.638143
v 4.810477 0.342357 1.849978
v 5.332179 -0.590772 1.773216
v 5.583182 0.262524 2.192411
v 5.105337 0.483600 2.260665
v 4.593635 -0.310098 2.148075
v 5.018302 -0.456455 2.525466
v 4.882021 0.009086 2.605508
vn -0.2443 0.4249 -0.8716
vn 0.0565 0.9310 -0.3607
vn -0.3446 -0.9385 0.0238
vn -0.4819 -0.8045 -0.3471
vn 0.4011 0.3007 0.8653
vn 0.2535 -0.1676 -0.9527
vn 0.8948 -0.0450 -0.4442
vn 0.3856 0.8984 -0.2101
vn 0.2787 -0.9186 0.2803
vn 0.3561 -0.0561 0.9328
vn -0.8219 0.4883 0.2932
vn -0.6888 -0.3140 0.6534
vn -0.9204 0.1389 -0.3655
vt 0.550384 0.206938
vt 0.375000 0.305791
vt 0.375000 0.049496
vt 0.180791 0.500000
vt 0.330928 0.574320
vt 0.125000 0.700504
vt 0.804283 0.500000
vt 0.842867 0.681766
vt 0.658516 0.626313
vt 0.875000 0.500000
vt 0.501754 0.540833
vt 0.565165 0.799791
vt 0.325310 0.750000
vt 0.604031 0.069198
vt 0.375000 1.000000
vt 0.375000 0.799690
vt 0.578028 1.000000
vt 0.615335 0.592735
vt 0.589707 0.775249
vt 0.581909 0.353207
s 0
g Cube_Material
usemtl Material
f 360/591/364 362/592/364 361/593/364
f 362/594/365 365/595/365 361/596/365
f 366/597/366 363/598/366 367/599/366
f 363/598/367 366/597/367 360/600/367
f 368/601/368 359/602/368 364/603/368 365/595/368
f 361/593/369 363/604/369 360/591/369
f 361/605/370 364/606/370 359/602/370 363/607/370
f 365/595/371 364/603/371 361/596/371
f 367/608/372 363/598/372 359/609/372
f 359/602/373 368/601/373 367/608/373
f 368/601/374 365/595/374 362/592/374 366/610/374
f 368/601/375 366/610/375 367/608/375
f 362/592/376 360/591/376 366/610/376
o Cube
v 5.077419 0.671131 -2.329033
v 4.147701 0.413184 -2.922411
v 4.160803 0.506750 -2.218962
v 4.123394 -0.054494 -2.490885
v 4.649354 0.859985 -2.827489
v 4.692922 0.342135 -1.954606
v 4.504596 -0.146974 -2.116378
v 4.621312 -0.006508 -3.081814
v 5.146841 0.166525 -2.834308
v 4.958360 -0.226028 -2.572827
vn -0.9981 0.0615 0.0104
vn -0.7074 -0.2695 0.6535
vn 0.3422 0.2544 -0.9045
vn -0.0711 0.2830 -0.9565
vn 0.7115 -0.3380 0.6161
vn -0.6532 0.7521 -0.0879
vn -0.0918 0.8544 0.5115
vn -0.4691 -0.1092 0.8763
vn 0.7323 0.5295 -0.4282
vn 0.9160 -0.2138 0.3394
vn -0.2140 -0.9626 -0.1659
vn 0.4904 -0.6339 -0.5981
vn -0.6407 -0.5024 -0.5806
vt 0.550384 0.206938
vt 0.375000 0.305791
vt 0.375000 0.049496
vt 0.180791 0.500000
vt 0.330928 0.574320
vt 0.125000 0.700504
vt 0.804283 0.500000
vt 0.842867 0.681766
vt 0.658516 0.626313
vt 0.875000 0.500000
vt 0.501754 0.540833
vt 0.565165 0.799791
vt 0.325310 0.750000
vt 0.604031 0.069198
vt 0.375000 1.000000
vt 0.375000 0.799690
vt 0.578028 1.000000
vt 0.615335 0.592735
vt 0.589707 0.775249
vt 0.581909 0.353207
s 0
g Cube_Material
usemtl Material
f 370/611/377 372/612/377 371/613/377
f 372/614/378 375/615/378 371/616/378
f 376/617/379 373/618/379 377/619/379
f 373/618/380 376/617/380 370/620/380
f 378/621/381 369/622/381 374/623/381 375/615/381
f 371/613/382 373/624/382 370/611/382
f 371/625/383 374/626/383 369/622/383 373/627/383
f 375/615/384 374/623/384 371/616/384
f 377/628/385 373/618/385 369/629/385
f 369/622/386 378/621/386 377/628/386
f 378/621/387 375/615/387 372/612/387 376/630/387
f 378/621/388 376/630/388 377/628/388
f 372/612/389 370/611/389 376/630/389
o Cube
v -3.195179 0.693139 2.852384
v -3.542384 0.252095 3.755152
v -3.549178 0.906204 3.629420
v -3.160807 0.649864 3.986159
v -3.609726 0.284910 3.122845
v -3.117006 1.084174 3.288288
v -2.855466 0.949938 3.710871
v -2.980618 0.039440 3.635618
v -2.812506 0.207357 3.118774
v -2.590245 0.468251 3.450095
vn -0.6170 0.1424 0.7740
vn -0.1245 0.7366 0.6648
vn -0.0929 -0.9377 -0.3349
vn -0.3560 -0.9344 -0.0106
vn 0.7352 0.5121 -0.4441
vn -0.9943 0.0101 0.1064
vn -0.7060 0.5320 -0.4675
vn -0.1005 0.9286 0.3572
vn -0.0542 -0.5126 -0.8569
vn 0.7256 0.2128 -0.6543
vn 0.6509 -0.1510 0.7440
vn 0.7447 -0.6669 0.0256
vn -0.0045 -0.4990 0.8666
vt 0.550384 0.206938
vt 0.375000 0.305791
vt 0.375000 0.049496
vt 0.180791 0.500000
vt 0.330928 0.574320
vt 0.125000 0.700504
vt 0.804283 0.500000
vt 0.842867 0.681766
vt 0.658516 0.626313
vt 0.875000 0.500000
vt 0.501754 0.540833
vt 0.565165 0.799791
vt 0.325310 0.750000
vt 0.604031 0.069198
vt 0.375000 1.000000
vt 0.375000 0.799690
vt 0.578028 1.000000
vt 0.615335 0.592735
vt 0.589707 0.775249
vt 0.581909 0.353207
s 0
g Cube_Material
usemtl Material
f 380/631/390 382/632/390 381/633/390
f 382/634/391 385/635/391 381/636/391
f 386/637/392 383/638/392 387/639/392
f 383/638/393 386/637/393 380/640/393
f 388/641/394 379/642/394 384/643/394 385/635/394
f 381/633/395 383/644/395 380/631/395
f 381/645/396 384/646/396 379/642/396 383/647/396
f 385/635/397 384/643/397 381/636/397
f 387/648/398 383/638/398 379/649/398
f 379/642/399 388/641/399 387/648/399
f 388/641/400 385/635/400 382/632/400 386/650/400
f 388/641/401 386/650/401 387/648/401
f 382/632/402 380/631/402 386/650/402
o Cube
v -2.396535 0.208750 4.304763
v -1.927216 -0.392676 4.456722
v -2.414067 -0.414787 4.464702
v -2.172124 -0.403822 4.818858
v -2.058373 -0.073992 4.143173
v -2.600544 -0.053111 4.581693
v -2.433767 -0.152938 4.904350
v -1.798369 -0.043017 4.705662
v -2.006767 0.299007 4.592320
v -2.136574 0.178495 4.892816
vn 0.0454 -0.9990 -0.0001
vn -0.5603 -0.7224 0.4052
vn 0.8340 0.3736 -0.4061
vn 0.9079 -0.0372 -0.4176
vn -0.6053 0.6977 0.3833
vn 0.0199 -0.6970 -0.7168
vn -0.6230 -0.1779 -0.7618
vn -0.8190 -0.5083 0.2661
vn 0.2986 0.7171 -0.6298
vn -0.3633 0.9083 0.2073
vn 0.3173 -0.1385 0.9381
vn 0.6507 0.5647 0.5076
vn 0.6876 -0.5719 0.4474
vt 0.550384 0.206938
vt 0.375000 0.305791
vt 0.375000 0.049496
vt 0.180791 0.500000
vt 0.330928 0.574320
vt 0.125000 0.700504
vt 0.804283 0.500000
vt 0.842867 0.681766
vt 0.658516 0.626313
vt 0.875000 0.500000
vt 0.501754 0.540833
vt 0.565165 0.799791
vt 0.325310 0.750000
vt 0.604031 0.069198
vt 0.375000 1.000000
vt 0.375000 0.799690
vt 0.578028 1.000000
vt 0.615335 0.592735
vt 0.589707 0.775249
vt 0.581909 0.353207
s 0
g Cube_Material
usemtl Material
f 390/651/403 392/652/403 391/653/403
f 392/654/404 395/655/404 391/656/404
f 396/657/405 393/658/405 397/659/405
f 393/658/406 396/657/406 390/660/406
f 398/661/407 389/662/407 394/663/407 395/655/407
f 391/653/408 393/664/408 390/651/408
f 391/665/409 394/666/409 389/662/409 393/667/409
f 395/655/410 394/663/410 391/656/410
f 397/668/411 393/658/411 389/669/411
f 389/662/412 398/661/412 397/668/412
f 398/661/413 395/655/413 392/652/413 396/670/413
f 398/661/414 396/670/414 397/668/414
f 392/652/415 390/651/415 396/670/415
o Cube
v 3.232948 -0.743921 -2.801229
v 3.489186 -0.135533 -3.548880
v 3.426330 0.044215 -2.953621
v 3.055213 0.154766 -3.344385
v 3.631454 -0.624330 -3.236269
v 3.051337 -0.235004 -2.677665
v 2.771956 0.004453 -2.990523
v 3.016707 -0.425361 -3.700376
v 2.909313 -0.804477 -3.340397
v 2.626347 -0.462577 -3.284991
vn 0.4741 0.8555 -0.2083
vn -0.0760 0.9382 0.3377
vn 0.2701 -0.7021 -0.6588
vn 0.4812 -0.3686 -0.7954
vn -0.7287 -0.2922 0.6194
vn 0.9576 0.2878 0.0142
vn 0.6840 -0.0269 0.7290
vn -0.0826 0.7544 0.6512
vn 0.2472 -0.9681 -0.0397
vn -0.6474 -0.6099 0.4571
vn -0.7228 0.4519 -0.5228
vn -0.6399 -0.4260 -0.6395
vn -0.0494 0.5248 -0.8498
vt 0.550384 0.206938
vt 0.375000 0.305791
vt 0.375000 0.049496
vt 0.180791 0.500000
vt 0.330928 0.574320
vt 0.125000 0.700504
vt 0.804283 0.500000
vt 0.842867 0.681766
vt 0.658516 0.626313
vt 0.875000 0.500000
vt 0.501754 0.540833
vt 0.565165 0.799791
vt 0.325310 0.750000
vt 0.604031 0.069198
vt 0.375000 1.000000
vt 0.375000 0.799690
vt 0.578028 1.000000
vt 0.615335 0.592735
vt 0.589707 0.775249
vt 0.581909 0.353207
s 0
g Cube_Material
usemtl Material
f 400/671/416 402/672/416 401/673/416
f 402/674/417 405/675/417 401/676/417
f 406/677/418 403/678/418 407/679/418
f 403/678/419 406/677/419 400/680/419
f 408/681/420 399/682/420 404/683/420 405/675/420
f 401/673/421 403/684/421 400/671/421
f 401/685/422 404/686/422 399/682/422 403/687/422
f 405/675/423 404/683/423 401/676/423
f 407/688/424 403/678/424 399/689/424
f 399/682/425 408/681/425 407/688/425
f 408/681/426 405/675/426 402/672/426 406/690/426
f 408/681/427 406/690/427 407/688/427
f 402/672/428 400/671/428 406/690/428
o Cube
v -4.146186 -0.048779 -1.847299
v -3.734418 0.476324 -1.402518
v -3.527551 0.167126 -1.740333
v -3.502324 0.102706 -1.303443
v -4.080401 0.416240 -1.730255
v -3.736947 -0.213426 -1.783668
v -3.595935 -0.249738 -1.423658
v -4.005350 0.226247 -1.124091
v -4.271291 -0.018025 -1.355950
v -4.007498 -0.222484 -1.222040
vn 0.8455 0.5331 0.0298
vn 0.9698 -0.2271 -0.0895
vn -0.7695 0.5760 0.2758
vn -0.4461 0.8368 0.3175
vn -0.2470 -0.9597 -0.1344
vn 0.3458 0.7880 -0.5095
vn 0.1182 0.1478 -0.9819
vn 0.8318 -0.4158 -0.3677
vn -0.9469 0.1978 -0.2535
vn -0.5786 -0.8098 -0.0966
vn 0.3283 -0.2845 0.9007
vn -0.5504 -0.1755 0.8162
vn 0.3962 0.4573 0.7962
vt 0.550384 0.206938
vt 0.375000 0.305791
vt 0.375000 0.049496
vt 0.180791 0.500000
vt 0.330928 0.574320
vt 0.125000 0.700504
vt 0.804283 0.500000
vt 0.842867 0.681766
vt 0.658516 0.626313
vt 0.875000 0.500000
vt 0.501754 0.540833
vt 0.565165 0.799791
vt 0.325310 0.750000
vt 0.604031 0.069198
vt 0.375000 1.000000
vt 0.375000 0.799690
vt 0.578028 1.000000
vt 0.615335 0.592735
vt 0.589707 0.775249
vt 0.581909 0.353207
s 0
g Cube_Material
usemtl Material
f 410/691/429 412/692/429 411/693/429
f 412/694/430 415/695/430 411/696/430
f 416/697/431 413/698/431 417/699/431
f 413/698/432 416/697/432 410/700/432
f 418/701/433 409/702/433 414/703/433 415/695/433
f 411/693/434 413/704/434 410/691/434
f 411/705/435 414/706/435 409/702/435 413/707/435
f 415/695/436 414/703/436 411/696/436
f 417/708/437 413/698/437 409/709/437
f 409/702/438 418/701/438 417/708/438
f 418/701/439 415/695/439 412/692/439 416/710/439
f 418/701/440 416/710/440 417/708/440
f 412/692/441 410/691/441 416/710/441
o Cube
v 3.154217 0.880604 1.101439
v 3.285564 0.145481 1.561164
v 2.928699 0.539187 1.701123
v 3.354562 0.475023 1.921310
v 3.138960 0.351554 1.100804
v 3.063338 0.978029 1.570231
v 3.355614 0.891207 1.865810
v 3.732814 0.362158 1.470239
v 3.681599 0.721605 1.172962
v 3.733977 0.859902 1.537333
vn -0.4313 -0.6229 0.6526
vn -0.4417 0.1197 0.8891
vn 0.4554 -0.5280 -0.7168
vn 0.3062 -0.8287 -0.4685
vn 0.1704 0.9836 -0.0585
vn -0.7496 -0.6594 -0.0565
vn -0.9492 0.1072 -0.2959
vn -0.5941 0.3918 0.7025
vn 0.1336 -0.0027 -0.9910
vn 0.3138 0.8718 -0.3760
vn 0.7166 -0.0106 0.6974
vn 0.9887 0.0178 -0.1489
vn 0.4515 -0.6997 0.5537
vt 0.550384 0.206938
vt 0.375000 0.305791
vt 0.375000 0.049496
vt 0.180791 0.500000
vt 0.330928 0.574320
vt 0.125000 0.700504
vt 0.804283 0.500000
vt 0.842867 0.681766
vt 0.658516 0.626313
vt 0.875000 0.500000
vt 0.501754 0.540833
vt 0.565165 0.799791
vt 0.325310 0.750000
vt 0.604031 0.069198
vt 0.375000 1.000000
vt 0.375000 0.799690
vt 0.578028 1.000000
vt 0.615335 0.592735
vt 0.589707 0.775249
vt 0.581909 0.353207
s 0
g Cube_Material
usemtl Material
f 420/711/442 422/712/442 421/713/442
f 422/714/443 425/715/443 421/716/443
f 426/717/444 423/718/444 427/719/444
f 423/718/445 426/717/445 420/720/445
f 428/721/446 419/722/446 424/723/446 425/715/446
f 421/713/447 423/724/447 420/711/447
f 421/725/448 424/726/448 419/722/448 423/727/448
f 425/715/449 424/723/449 421/716/449
f 427/728/450 423/718/450 419/729/450
f 419/722/451 428/721/451 427/728/451
f 428/721/452 425/715/452 422/712/452 426/730/452
f 428/721/453 426/730/453 427/728/453
f 422/712/454 420/711/454 426/730/454
o Cube
v 2.738975 -0.337470 3.212813
v 2.203953 -0.843441 2.297078
v 2.907565 -0.626420 2.299332
v 2.435046 -0.302756 1.995913
v 2.398581 -0.910395 2.970150
v 3.020277 -0.115268 2.666938
v 2.701764 0.118120 2.257204
v 1.822280 -0.328313 2.514552
v 2.051750 -0.100025 3.053642
v 2.173434 0.227340 2.659066
vn 0.1672 -0.5333 -0.8292
vn 0.5928 0.1188 -0.7965
vn -0.7794 -0.3845 0.4946
vn -0.7606 -0.6299 0.1573
vn 0.3416 0.8535 0.3936
vn 0.2906 -0.9402 -0.1776
vn 0.8028 -0.5097 0.3094
vn 0.8253 0.1982 -0.5287
vn -0.2918 -0.2208 0.9306
vn 0.1072 0.7487 0.6542
vn -0.4856 0.5793 -0.6547
vn -0.8529 0.4996 0.1515
vn -0.6350 -0.1506 -0.7577
vt 0.550384 0.206938
vt 0.375000 0.305791
vt 0.375000 0.049496
vt 0.180791 0.500000
vt 0.330928 0.574320
vt 0.125000 0.700504
vt 0.804283 0.500000
vt 0.842867 0.681766
vt 0.658516 0.626313
vt 0.875000 0.500000
vt 0.501754 0.540833
vt 0.565165 0.799791
vt 0.325310 0.750000
vt 0.604031 0.069198
vt 0.375000 1.000000
vt 0.375000 0.799690
vt 0.578028 1.000000
vt 0.615335 0.592735
vt 0.589707 0.775249
vt 0.581909 0.353207
s 0
g Cube_Material
usemtl Material
f 430/731/455 432/732/455 431/733/455
f 432/734/456 435/735/456 431/736/456
f 436/737/457 433/738/457 437/739/457
f 433/738/458 436/737/458 430/740/458
f 438/741/459 429/742/459 434/743/459 435/735/459
f 431/733/460 433/744/460 430/731/460
f 431/745/461 434/746/461 429/742/461 433/747/461
f 435/735/462 434/743/462 431/736/462
f 437/748/463 433/738/463 429/749/463
f 429/742/464 438/741/464 437/748/464
f 438/741/465 435/735/465 432/732/465 436/750/465
f 438/741/466 436/750/466 437/748/466
f 432/732/467 430/731/467 436/750/467
o Cube
v 3.528294 -0.400245 -0.533219
v 3.528804 0.481277 -0.043181
v 3.679598 0.412109 -0.653002
v 4.055859 0.495480 -0.251816
v 3.200489 0.006069 -0.220175
v 3.913757 -0.070157 -0.771209
v 4.262530 0.134799 -0.497555
v 3.835713 0.096099 0.265170
v 3.784355 -0.397068 0.052046
v 4.190304 -0.228756 -0.054840
vn -0.0787 0.9882 -0.1315
vn 0.4709 0.6649 -0.5798
vn -0.5575 -0.2797 0.7816
vn -0.6136 0.1341 0.7782
vn 0.5570 -0.7391 -0.3787
vn -0.7487 0.6121 -0.2546
vn -0.6115 -0.0028 -0.7912
vn 0.4089 0.3996 -0.8204
vn -0.6304 -0.7241 0.2797
vn 0.3458 -0.9268 -0.1463
vn 0.8304 0.2845 0.4791
vn 0.3848 -0.3996 0.8320
vn 0.2402 0.7161 0.6554
vt 0.550384 0.206938
vt 0.375000 0.305791
vt 0.375000 0.049496
vt 0.180791 0.500000
vt 0.330928 0.574320
vt 0.125000 0.700504
vt 0.804283 0.500000
vt 0.842867 0.681766
vt 0.658516 0.626313
vt 0.875000 0.500000
vt 0.501754 0.540833
vt 0.565165 0.799791
vt 0.325310 0.750000
vt 0.604031 0.069198
vt 0.375000 1.000000
vt 0.375000 0.799690
vt 0.578028 1.000000
vt 0.615335 0.592735
vt 0.589707 0.775249
vt 0.581909 0.353207
s 0
g Cube_Material
usemtl Material
f 440/751/468 442/752/468 441/753/468
f 442/754/469 445/755/469 441/756/469
f 446/757/470 443/758/470 447/759/470
f 443/758/471 446/757/471 440/760/471
f 448/761/472 439/762/472 444/763/472 445/755/472
f 441/753/473 443/764/473 440/751/473
f 441/765/474 444/766/474 439/762/474 443/767/474
f 445/755/475 444/763/475 441/756/475
f 447/768/476 443/758/476 439/769/476
f 439/762/477 448/761/477 447/768/477
f 448/761/478 445/755/478 442/752/478 446/770/478
f 448/761/479 446/770/479 447/768/479
f 442/752/480 440/751/480 446/770/480
o Cube
v -2.205475 0.075473 -1.841815
v -2.234503 0.777915 -2.648268
v -1.775118 0.781182 -2.160017
v -2.223185 1.164230 -2.187373
v -2.183795 0.161270 -2.481445
v -1.973290 0.587343 -1.647875
v -2.242095 1.027836 -1.693976
v -2.792719 0.751825 -2.388185
v -2.813290 0.326351 -2.005684
v -2.779729 0.745998 -1.775596
vn 0.5667 0.6245 -0.5374
vn 0.6242 0.7466 0.2303
vn -0.5976 -0.5198 -0.6104
vn -0.3962 -0.2700 -0.8776
vn -0.1847 -0.1577 0.9701
vn 0.7231 -0.1244 -0.6795
vn 0.8612 -0.5065 0.0414
vn 0.7307 0.4951 0.4701
vn -0.3464 -0.9282 -0.1362
vn -0.3932 -0.4177 0.8191
vn -0.5473 0.8305 0.1039
vn -0.9975 0.0678 0.0218
vn -0.3160 0.7309 -0.6049
vt 0.550384 0.206938
vt 0.375000 0.305791
vt 0.375000 0.049496
vt 0.180791 0.500000
vt 0.330928 0.574320
vt 0.125000 0.700504
vt 0.804283 0.500000
vt 0.842867 0.681766
vt 0.658516 0.626313
vt 0.875000 0.500000
vt 0.501754 0.540833
vt 0.565165 0.799791
vt 0.325310 0.750000
vt 0.604031 0.069198
vt 0.375000 1.000000
vt 0.375000 0.799690
vt 0.578028 1.000000
vt 0.615335 0.592735
vt 0.589707 0.775249
vt 0.581909 0.353207
s 0
g Cube_Material
usemtl Material
f 450/771/481 452/772/481 451/773/481
f 452/774/482 455/775/482 451/776/482
f 456/777/483 453/778/483 457/779/483
f 453/778/484 456/777/484 450/780/484
f 458/781/485 449/782/485 454/783/485 455/775/485
f 451/773/486 453/784/486 450/771/486
f 451/785/487 454/786/487 449/782/487 453/787/487
f 455/775/488 454/783/488 451/776/488
f 457/788/489 453/778/489 449/789/489
f 449/782/490 458/781/490 457/788/490
f 458/781/491 455/775/491 452/772/491 456/790/491
f 458/781/492 456/790/492 457/788/492
f 452/772/493 450/771/493 456/790/493
o Cube
v -3.007277 0.061767 1.367293
v -3.277091 -0.571995 0.917648
v -2.794518 -0.391293 0.905550
v -3.098934 -0.313200 0.578307
v -3.207002 -0.392737 1.371196
v -2.763484 0.048992 0.980786
v -2.948834 0.047487 0.628206
v -3.573868 -0.207059 0.859901
v -3.472771 0.117187 1.139889
v -3.356671 0.206902 0.801461
vn 0.2981 -0.8280 -0.4749
vn 0.6949 -0.1934 -0.6926
vn -0.8291 -0.1943 0.5243
vn -0.7556 -0.5609 0.3384
vn 0.2568 0.9665 0.0016
vn 0.3412 -0.8910 0.2994
vn 0.7665 -0.2450 0.5936
vn 0.8850 0.0171 -0.4653
vn -0.4128 0.1890 0.8910
vn -0.0087 0.9673 0.2535
vn -0.4063 0.1828 -0.8953
vn -0.8806 0.4357 -0.1866
vn -0.5174 -0.5274 -0.6739
vt 0.550384 0.206938
vt 0.375000 0.305791
vt 0.375000 0.049496
vt 0.180791 0.500000
vt 0.330928 0.574320
vt 0.125000 0.700504
vt 0.804283 0.500000
vt 0.842867 0.681766
vt 0.658516 0.626313
vt 0.875000 0.500000
vt 0.501754 0.540833
vt 0.565165 0.799791
vt 0.325310 0.750000
vt 0.604031 0.069198
vt 0.375000 1.000000
vt 0.375000 0.799690
vt 0.578028 1.000000
vt 0.615335 0.592735
vt 0.589707 0.775249
vt 0.581909 0.353207
s 0
g Cube_Material
usemtl Material
f 460/791/494 462/792/494 461/793/494
f 462/794/495 465/795/495 461/796/495
f 466/797/496 463/798/496 467/799/496
f 463/798/497 466/797/497 460/800/497
f 468/801/498 459/802/498 464/803/498 465/795/498
f 461/793/499 463/804/499 460/791/499
f 461/805/500 464/806/500 459/802/500 463/807/500
f 465/795/501 464/803/501 461/796/501
f 467/808/502 463/798/502 459/809/502
f 459/802/503 468/801/503 467/808/503
f 468/801/504 465/795/504 462/792/504 466/810/504
f 468/801/505 466/810/505 467/808/505
f 462/792/506 460/791/506 466/810/506
o Cube
v -0.040508 0.339547 2.989309
v -0.172373 0.836930 2.330498
v -0.334936 0.941758 2.817292
v -0.615505 0.796091 2.481637
v 0.168837 0.613956 2.621299
v -0.436391 0.571634 3.061750
v -0.731014 0.561089 2.784341
v -0.312285 0.390149 2.217530
v -0.192107 0.104215 2.539862
v -0.559972 0.172009 2.564363
vn -0.1772 0.9483 -0.2634
vn -0.6786 0.6826 0.2710
vn 0.6915 -0.3928 -0.6063
vn 0.6452 -0.0089 -0.7639
vn -0.4005 -0.6632 0.6323
vn 0.5459 0.8378 0.0019
vn 0.5027 0.4556 0.7346
vn -0.5814 0.5533 0.5965
vn 0.8135 -0.5808 0.0297
vn -0.1258 -0.8608 0.4931
vn -0.8163 -0.1467 -0.5588
vn -0.1825 -0.7683 -0.6135
vn -0.3319 0.3276 -0.8846
vt 0.550384 0.206938
vt 0.375000 0.305791
vt 0.375000 0.049496
vt 0.180791 0.500000
vt 0.330928 0.574320
vt 0.125000 0.700504
vt 0.804283 0.500000
vt 0.842867 0.681766
vt 0.658516 0.626313
vt 0.875000 0.500000
vt 0.501754 0.540833
vt 0.565165 0.799791
vt 0.325310 0.750000
vt 0.604031 0.069198
vt 0.375000 1.000000
vt 0.375000 0.799690
vt 0.578028 1.000000
vt 0.615335 0.592735
vt 0.589707 0.775249
vt 0.581909 0.353207
s 0
g Cube_Material
usemtl Material
f 470/811/507 472/812/507 471/813/507
f 472/814/508 475/815/508 471/816/508
f 476/817/509 473/818/509 477/819/509
f 473/818/510 476/817/510 470/820/510
f 478/821/511 469/822/511 474/823/511 475/815/511
f 471/813/512 473/824/512 470/811/512
f 471/825/513 474/826/513 469/822/513 473/827/513
f 475/815/514 474/823/514 471/816/514
f 477/828/515 473/818/515 469/829/515
f 469/822/516 478/821/516 477/828/516
f 478/821/517 475/815/517 472/812/517 476/830/517
f 478/821/518 476/830/518 477/828/518
f 472/812/519 470/811/519 476/830/519
o Cube
v 2.188448 0.485715 0.660534
v 2.565715 0.863193 -0.036434
v 2.038429 0.708044 -0.014885
v 2.378833 0.463208 -0.257001
v 2.441099 0.911574 0.472080
v 1.960048 0.325412 0.260359
v 2.183261 0.150095 -0.056091
v 2.851835 0.473489 0.112025
v 2.694254 0.302392 0.520124
v 2.588415 0.061157 0.227622
vn -0.1927 0.5414 -0.8184
vn -0.6256 -0.1053 -0.7730
vn 0.8036 0.3707 0.4657
vn 0.7747 0.6187 0.1310
vn -0.3372 -0.8516 0.4013
vn -0.2847 0.9452 -0.1597
vn -0.7829 0.5181 0.3444
vn -0.8483 -0.1835 -0.4967
vn 0.3315 0.2103 0.9197
vn -0.0912 -0.7518 0.6530
vn 0.4514 -0.5811 -0.6772
vn 0.8514 -0.5119 0.1141
vn 0.6064 0.1475 -0.7814
vt 0.550384 0.206938
vt 0.375000 0.305791
vt 0.375000 0.049496
vt 0.180791 0.500000
vt 0.330928 0.574320
vt 0.125000 0.700504
vt 0.804283 0.500000
vt 0.842867 0.681766
vt 0.658516 0.626313
vt 0.875000 0.500000
vt 0.501754 0.540833
vt 0.565165 0.799791
vt 0.325310 0.750000
vt 0.604031 0.069198
vt 0.375000 1.000000
vt 0.375000 0.799690
vt 0.578028 1.000000
vt 0.615335 0.592735
vt 0.589707 0.775249
vt 0.581909 0.353207
s 0
g Cube_Material
usemtl Material
f 480/831/520 482/832/520 481/833/520
f 482/834/521 485/835/521 481/836/521
f 486/837/522 483/838/522 487/839/522
f 483/838/523 486/837/523 480/840/523
f 488/841/524 479/842/524 484/843/524 485/835/524
f 481/833/525 483/844/525 480/831/525
f 481/845/526 484/846/526 479/842/526 483/847/526
f 485/835/527 484/843/527 481/836/527
f 487/848/528 483/838/528 479/849/528
f 479/842/529 488/841/529 487/848/529
f 488/841/530 485/835/530 482/832/530 486/850/530
f 488/841/531 486/850/531 487/848/531
f 482/832/532 480/831/532 486/850/532
o Cube
v -0.358625 0.735847 -1.968852
v -0.076547 0.470968 -2.698339
v -0.563504 0.410565 -2.534139
v -0.257593 0.073202 -2.541719
v -0.151563 0.861613 -2.404396
v -0.601393 0.365253 -2.088560
v -0.413725 0.024667 -2.181740
v 0.216302 0.317379 -2.356315
v 0.108843 0.501227 -1.969140
v -0.007460 0.149720 -1.974878
vn -0.2840 -0.2366 -0.9292
vn -0.6889 -0.6161 -0.3819
vn 0.8294 0.5576 -0.0346
vn 0.7621 0.4764 -0.4386
vn -0.2708 -0.2567 0.9278
vn -0.3296 0.5264 -0.7837
vn -0.7656 0.6371 -0.0891
vn -0.8830 -0.4534 -0.1212
vn 0.4060 0.8083 0.4264
vn -0.0065 -0.0142 0.9999
vn 0.4077 -0.9114 -0.0569
vn 0.8750 -0.2958 0.3833
vn 0.5280 -0.5082 -0.6803
vt 0.550384 0.206938
vt 0.375000 0.305791
vt 0.375000 0.049496
vt 0.180791 0.500000
vt 0.330928 0.574320
vt 0.125000 0.700504
vt 0.804283 0.500000
vt 0.842867 0.681766
vt 0.658516 0.626313
vt 0.875000 0.500000
vt 0.501754 0.540833
vt 0.565165 0.799791
vt 0.325310 0.750000
vt 0.604031 0.069198
vt 0.375000 1.000000
vt 0.375000 0.799690
vt 0.578028 1.000000
vt 0.615335 0.592735
vt 0.589707 0.775249
vt 0.581909 0.353207
s 0
g Cube_Material
usemtl Material
f 490/851/533 492/852/533 491/853/533
f 492/854/534 495/855/534 491/856/534
f 496/857/535 493/858/535 497/859/535
f 493/858/536 496/857/536 490/860/536
f 498/861/537 489/862/537 494/863/537 495/855/537
f 491/853/538 493/864/538 490/851/538
f 491/865/539 494/866/539 489/862/539 493/867/539
f 495/855/540 494/863/540 491/856/540
f 497/868/541 493/858/541 489/869/541
f 489/862/542 498/861/542 497/868/542
f 498/861/543 495/855/543 492/852/543 496/870/543
f 498/861/544 496/870/544 497/868/544
f 492/852/545 490/851/545 496/870/545
o Cube
v 1.287238 0.514892 -1.569213
v 1.915065 0.413027 -0.782762
v 2.091202 0.364697 -1.389668
v 2.029430 -0.074811 -1.051639
v 1.530005 0.778294 -1.074893
v 1.699582 0.164130 -1.720601
v 1.798207 -0.230442 -1.447674
v 1.452463 0.068748 -0.698839
v 1.075750 0.166341 -1.075010
v 1.288842 -0.222023 -1.172405
vn 0.9593 0.0747 0.2725
vn 0.8544 -0.3868 -0.3468
vn -0.5797 0.4301 0.6921
vn -0.1987 0.4758 0.8568
vn -0.5150 -0.4700 -0.7169
vn 0.6325 0.7648 0.1226
vn 0.2759 0.7316 -0.6234
vn 0.6993 -0.2801 -0.6577
vn -0.8006 0.5943 0.0765
vn -0.7856 -0.2946 -0.5440
vn 0.1123 -0.9038 0.4130
vn -0.6720 -0.5046 0.5420
vn 0.4196 -0.3607 0.8330
vt 0.550384 0.206938
vt 0.375000 0.305791
vt 0.375000 0.049496
vt 0.180791 0.500000
vt 0.330928 0.574320
vt 0.125000 0.700504
vt 0.804283 0.500000
vt 0.842867 0.681766
vt 0.658516 0.626313
vt 0.875000 0.500000
vt 0.501754 0.540833
vt 0.565165 0.799791
vt 0.325310 0.750000
vt 0.604031 0.069198
vt 0.375000 1.000000
vt 0.375000 0.799690
vt 0.578028 1.000000
vt 0.615335 0.592735
vt 0.589707 0.775249
vt 0.581909 0.353207
s 0
g Cube_Material
usemtl Material
f 500/871/546 502/872/546 501/873/546
f 502/874/547 505/875/547 501/876/547
f 506/877/548 503/878/548 507/879/548
f 503/878/549 506/877/549 500/880/549
f 508/881/550 499/882/550 504/883/550 505/875/550
f 501/873/551 503/884/551 500/871/551
f 501/885/552 504/886/552 499/882/552 503/887/552
f 505/875/553 504/883/553 501/876/553
f 507/888/554 503/878/554 499/889/554
f 499/882/555 508/881/555 507/888/555
f 508/881/556 505/875/556 502/872/556 506/890/556
f 508/881/557 506/890/557 507/888/557
f 502/872/558 500/871/558 506/890/558
o Cube
v -1.597040 0.710814 -0.873739
v -1.920367 0.438021 -0.061034
v -1.421955 0.263800 -0.286504
v -1.837391 -0.023675 -0.273825
v -1.759116 0.863656 -0.367619
v -1.422271 0.240922 -0.784690
v -1.705433 -0.086508 -0.687441
v -2.297917 0.373181 -0.424190
v -2.160780 0.575200 -0.849338
v -2.124970 0.166686 -0.874531
vn 0.2768 -0.3607 0.8906
vn 0.5499 -0.7817 0.2942
vn -0.6750 0.7267 0.1276
vn -0.6041 0.6036 0.5203
vn 0.1483 -0.2441 -0.9583
vn 0.4883 0.3806 0.7853
vn 0.8958 0.4394 0.0674
vn 0.7604 -0.6488 0.0293
vn -0.2334 0.9076 -0.3489
vn -0.0567 0.0565 -0.9968
vn -0.6026 -0.7972 0.0359
vn -0.9409 -0.0619 -0.3329
vn -0.5893 -0.4231 0.6882
vt 0.550384 0.206938
vt 0.375000 0.305791
vt 0.375000 0.049496
vt 0.180791 0.500000
vt 0.330928 0.574320
vt 0.125000 0.700504
vt 0.804283 0.500000
vt 0.842867 0.681766
vt 0.658516 0.626313
vt 0.875000 0.500000
vt 0.501754 0.540833
vt 0.565165 0.799791
vt 0.325310 0.750000
vt 0.604031 0.069198
vt 0.375000 1.000000
vt 0.375000 0.799690
vt 0.578028 1.000000
vt 0.615335 0.592735
vt 0.589707 0.775249
vt 0.581909 0.353207
s 0
g Cube_Material
usemtl Material
f 510/891/559 512/892/559 511/893/559
f 512/894/560 515/895/560 511/896/560
f 516/897/561 513/898/561 517/899/561
f 513/898/562 516/897/562 510/900/562
f 518/901/563 509/902/563 514/903/563 515/895/563
f 511/893/564 513/904/564 510/891/564
f 511/905/565 514/906/565 509/902/565 513/907/565
f 515/895/566 514/903/566 511/896/566
f 517/908/567 513/898/567 509/909/567
f 509/902/568 518/901/568 517/908/568
f 518/901/569 515/895/569 512/892/569 516/910/569
f 518/901/570 516/910/570 517/908/570
f 512/892/571 510/891/571 516/910/571
o Cube
v 0.847271 -0.062713 -0.588531
v 0.584052 -0.455718 -1.599487
v 1.133936 -0.669369 -1.223820
v 1.180237 -0.293692 -1.709341
v 0.385629 -0.375993 -0.966077
v 1.372283 -0.238023 -0.868530
v 1.495725 -0.043963 -1.357646
v 0.593864 0.186788 -1.623726
v 0.654843 0.413347 -1.074481
v 1.090595 0.448585 -1.318171
vn 0.1041 -0.7914 -0.6024
vn 0.7843 -0.5246 -0.3311
vn -0.9472 0.3194 -0.0266
vn -0.9541 0.0033 -0.2993
vn 0.6077 0.5943 0.5268
vn -0.3640 -0.9314 0.0032
vn 0.0311 -0.7158 0.6976
vn 0.8674 -0.4971 0.0217
vn -0.7216 0.3297 0.6087
vn 0.2825 0.7388 0.6119
vn 0.3582 0.4688 -0.8074
vn -0.2645 0.9015 -0.3425
vn -0.1720 -0.0345 -0.9845
vt 0.550384 0.206938
vt 0.375000 0.305791
vt 0.375000 0.049496
vt 0.180791 0.500000
vt 0.330928 0.574320
vt 0.125000 0.700504
vt 0.804283 0.500000
vt 0.842867 0.681766
vt 0.658516 0.626313
vt 0.875000 0.500000
vt 0.501754 0.540833
vt 0.565165 0.799791
vt 0.325310 0.750000
vt 0.604031 0.069198
vt 0.375000 1.000000
vt 0.375000 0.799690
vt 0.578028 1.000000
vt 0.615335 0.592735
vt 0.589707 0.775249
vt 0.581909 0.353207
s 0
g Cube_Material
usemtl Material
f 520/911/572 522/912/572 521/913/572
f 522/914/573 525/915/573 521/916/573
f 526/917/574 523/918/574 527/919/574
f 523/918/575 526/917/575 520/920/575
f 528/921/576 519/922/576 524/923/576 525/915/576
f 521/913/577 523/924/577 520/911/577
f 521/925/578 524/926/578 519/922/578 523/927/578
f 525/915/579 524/923/579 521/916/579
f 527/928/580 523/918/580 519/929/580
f 519/922/581 528/921/581 527/928/581
f 528/921/582 525/915/582 522/912/582 526/930/582
f 528/921/583 526/930/583 527/928/583
f 522/912/584 520/911/584 526/930/584
