# Blender 4.1.0
# www.blender.org
mtllib Explosion20015.mtl
o Circle
v -0.024615 0.096888 -1.522372
v -0.024615 0.242742 -1.522372
v 0.122545 0.096888 -1.515142
v 0.122545 0.242742 -1.515142
v 0.268288 0.096888 -1.493523
v 0.268288 0.242742 -1.493523
v 0.411211 0.096888 -1.457723
v 0.411211 0.242742 -1.457723
v 0.549936 0.096888 -1.408086
v 0.549936 0.242742 -1.408086
v 0.683127 0.096888 -1.345092
v 0.683127 0.242742 -1.345092
v 0.809503 0.096888 -1.269345
v 0.809503 0.242742 -1.269345
v 0.927846 0.096888 -1.181576
v 0.927846 0.242742 -1.181576
v 1.037016 0.096888 -1.082630
v 1.037016 0.242742 -1.082630
v 1.135962 0.096888 -0.973460
v 1.135962 0.242742 -0.973460
v 1.223731 0.096888 -0.855117
v 1.223731 0.242742 -0.855117
v 1.299478 0.096888 -0.728741
v 1.299478 0.242742 -0.728741
v 1.362473 0.096888 -0.595549
v 1.362473 0.242742 -0.595549
v 1.412110 0.096888 -0.456824
v 1.412110 0.242742 -0.456824
v 1.447910 0.096888 -0.313902
v 1.447910 0.242742 -0.313902
v 1.469529 0.096888 -0.168159
v 1.469529 0.242742 -0.168159
v 1.476758 0.096888 -0.020998
v 1.476758 0.242742 -0.020998
v 1.469529 0.096888 0.126162
v 1.469529 0.242742 0.126162
v 1.447910 0.096888 0.271905
v 1.447910 0.242742 0.271905
v 1.412110 0.096888 0.414827
v 1.412110 0.242742 0.414827
v 1.362473 0.096888 0.553553
v 1.362473 0.242742 0.553553
v 1.299478 0.096888 0.686744
v 1.299478 0.242742 0.686744
v 1.223731 0.096888 0.813120
v 1.223731 0.242742 0.813120
v 1.135962 0.096888 0.931463
v 1.135962 0.242742 0.931463
v 1.037016 0.096888 1.040633
v 1.037016 0.242742 1.040633
v 0.927846 0.096888 1.139579
v 0.927846 0.242742 1.139579
v 0.809503 0.096888 1.227348
v 0.809503 0.242742 1.227348
v 0.683127 0.096888 1.303095
v 0.683127 0.242742 1.303095
v 0.549936 0.096888 1.366090
v 0.549936 0.242742 1.366090
v 0.411211 0.096888 1.415727
v 0.411211 0.242742 1.415727
v 0.268288 0.096888 1.451527
v 0.268288 0.242742 1.451527
v 0.122545 0.096888 1.473146
v 0.122545 0.242742 1.473146
v -0.024615 0.096888 1.480376
v -0.024615 0.242742 1.480376
v -0.171775 0.096888 1.473146
v -0.171775 0.242742 1.473146
v -0.317519 0.096888 1.451527
v -0.317519 0.242742 1.451527
v -0.460441 0.096888 1.415727
v -0.460441 0.242742 1.415727
v -0.599166 0.096888 1.366090
v -0.599166 0.242742 1.366090
v -0.732358 0.096888 1.303095
v -0.732358 0.242742 1.303095
v -0.858734 0.096888 1.227348
v -0.858734 0.242742 1.227348
v -0.977076 0.096888 1.139579
v -0.977076 0.242742 1.139579
v -1.086246 0.096888 1.040633
v -1.086246 0.242742 1.040633
v -1.185192 0.096888 0.931463
v -1.185192 0.242742 0.931463
v -1.272961 0.096888 0.813120
v -1.272961 0.242742 0.813120
v -1.348708 0.096888 0.686744
v -1.348708 0.242742 0.686744
v -1.411703 0.096888 0.553553
v -1.411703 0.242742 0.553553
v -1.461340 0.096888 0.414827
v -1.461340 0.242742 0.414827
v -1.497140 0.096888 0.271905
v -1.497140 0.242742 0.271905
v -1.518759 0.096888 0.126162
v -1.518759 0.242742 0.126162
v -1.525989 0.096888 -0.020998
v -1.525989 0.242742 -0.020998
v -1.518759 0.096888 -0.168159
v -1.518759 0.242742 -0.168159
v -1.497140 0.096888 -0.313902
v -1.497140 0.242742 -0.313902
v -1.461340 0.096888 -0.456824
v -1.461340 0.242742 -0.456824
v -1.411703 0.096888 -0.595549
v -1.411703 0.242742 -0.595549
v -1.348708 0.096888 -0.728741
v -1.348708 0.242742 -0.728741
v -1.272961 0.096888 -0.855117
v -1.272961 0.242742 -0.855117
v -1.185192 0.096888 -0.973460
v -1.185192 0.242742 -0.973460
v -1.086246 0.096888 -1.082630
v -1.086246 0.242742 -1.082630
v -0.977076 0.096888 -1.181576
v -0.977076 0.242742 -1.181576
v -0.858734 0.096888 -1.269345
v -0.858734 0.242742 -1.269345
v -0.732358 0.096888 -1.345092
v -0.732358 0.242742 -1.345092
v -0.599166 0.096888 -1.408086
v -0.599166 0.242742 -1.408086
v -0.460441 0.096888 -1.457723
v -0.460441 0.242742 -1.457723
v -0.317519 0.096888 -1.493523
v -0.317519 0.242742 -1.493523
v -0.171775 0.096888 -1.515142
v -0.171775 0.242742 -1.515142
vn 0.0491 -0.0000 -0.9988
vn 0.1467 -0.0000 -0.9892
vn 0.2430 -0.0000 -0.9700
vn 0.3369 -0.0000 -0.9415
vn 0.4276 -0.0000 -0.9040
vn 0.5141 -0.0000 -0.8577
vn 0.5957 -0.0000 -0.8032
vn 0.6716 -0.0000 -0.7410
vn 0.7410 -0.0000 -0.6716
vn 0.8032 -0.0000 -0.5957
vn 0.8577 -0.0000 -0.5141
vn 0.9040 -0.0000 -0.4276
vn 0.9415 -0.0000 -0.3369
vn 0.9700 -0.0000 -0.2430
vn 0.9892 -0.0000 -0.1467
vn 0.9988 -0.0000 -0.0491
vn 0.9988 -0.0000 0.0491
vn 0.9892 -0.0000 0.1467
vn 0.9700 -0.0000 0.2430
vn 0.9415 -0.0000 0.3369
vn 0.9040 -0.0000 0.4276
vn 0.8577 -0.0000 0.5141
vn 0.8032 -0.0000 0.5957
vn 0.7410 -0.0000 0.6716
vn 0.6716 -0.0000 0.7410
vn 0.5957 -0.0000 0.8032
vn 0.5141 -0.0000 0.8577
vn 0.4276 -0.0000 0.9040
vn 0.3369 -0.0000 0.9415
vn 0.2430 -0.0000 0.9700
vn 0.1467 -0.0000 0.9892
vn 0.0491 -0.0000 0.9988
vn -0.0491 -0.0000 0.9988
vn -0.1467 -0.0000 0.9892
vn -0.2430 -0.0000 0.9700
vn -0.3369 -0.0000 0.9415
vn -0.4276 -0.0000 0.9040
vn -0.5141 -0.0000 0.8577
vn -0.5957 -0.0000 0.8032
vn -0.6716 -0.0000 0.7410
vn -0.7410 -0.0000 0.6716
vn -0.8032 -0.0000 0.5957
vn -0.8577 -0.0000 0.5141
vn -0.9040 -0.0000 0.4276
vn -0.9415 -0.0000 0.3369
vn -0.9700 -0.0000 0.2430
vn -0.9892 -0.0000 0.1467
vn -0.9988 -0.0000 0.0491
vn -0.9988 -0.0000 -0.0491
vn -0.9892 -0.0000 -0.1467
vn -0.9700 -0.0000 -0.2430
vn -0.9415 -0.0000 -0.3369
vn -0.9040 -0.0000 -0.4276
vn -0.8577 -0.0000 -0.5141
vn -0.8032 -0.0000 -0.5957
vn -0.7410 -0.0000 -0.6716
vn -0.6716 -0.0000 -0.7410
vn -0.5957 -0.0000 -0.8032
vn -0.5141 -0.0000 -0.8577
vn -0.4276 -0.0000 -0.9040
vn -0.3369 -0.0000 -0.9415
vn -0.2430 -0.0000 -0.9700
vn -0.1467 -0.0000 -0.9892
vn -0.0491 -0.0000 -0.9988
vt 1.000000 0.500000
vt 1.000000 1.000000
vt 0.984375 1.000000
vt 0.984375 0.500000
vt 0.968750 1.000000
vt 0.968750 0.500000
vt 0.953125 1.000000
vt 0.953125 0.500000
vt 0.937500 1.000000
vt 0.937500 0.500000
vt 0.921875 1.000000
vt 0.921875 0.500000
vt 0.906250 1.000000
vt 0.906250 0.500000
vt 0.890625 1.000000
vt 0.890625 0.500000
vt 0.875000 1.000000
vt 0.875000 0.500000
vt 0.859375 1.000000
vt 0.859375 0.500000
vt 0.843750 1.000000
vt 0.843750 0.500000
vt 0.828125 1.000000
vt 0.828125 0.500000
vt 0.812500 1.000000
vt 0.812500 0.500000
vt 0.796875 1.000000
vt 0.796875 0.500000
vt 0.781250 1.000000
vt 0.781250 0.500000
vt 0.765625 1.000000
vt 0.765625 0.500000
vt 0.750000 1.000000
vt 0.750000 0.500000
vt 0.734375 1.000000
vt 0.734375 0.500000
vt 0.718750 1.000000
vt 0.718750 0.500000
vt 0.703125 1.000000
vt 0.703125 0.500000
vt 0.687500 1.000000
vt 0.687500 0.500000
vt 0.671875 1.000000
vt 0.671875 0.500000
vt 0.656250 1.000000
vt 0.656250 0.500000
vt 0.640625 1.000000
vt 0.640625 0.500000
vt 0.625000 1.000000
vt 0.625000 0.500000
vt 0.609375 1.000000
vt 0.609375 0.500000
vt 0.593750 1.000000
vt 0.593750 0.500000
vt 0.578125 1.000000
vt 0.578125 0.500000
vt 0.562500 1.000000
vt 0.562500 0.500000
vt 0.546875 1.000000
vt 0.546875 0.500000
vt 0.531250 1.000000
vt 0.531250 0.500000
vt 0.515625 1.000000
vt 0.515625 0.500000
vt 0.500000 1.000000
vt 0.500000 0.500000
vt 0.484375 1.000000
vt 0.484375 0.500000
vt 0.468750 1.000000
vt 0.468750 0.500000
vt 0.453125 1.000000
vt 0.453125 0.500000
vt 0.437500 1.000000
vt 0.437500 0.500000
vt 0.421875 1.000000
vt 0.421875 0.500000
vt 0.406250 1.000000
vt 0.406250 0.500000
vt 0.390625 1.000000
vt 0.390625 0.500000
vt 0.375000 1.000000
vt 0.375000 0.500000
vt 0.359375 1.000000
vt 0.359375 0.500000
vt 0.343750 1.000000
vt 0.343750 0.500000
vt 0.328125 1.000000
vt 0.328125 0.500000
vt 0.312500 1.000000
vt 0.312500 0.500000
vt 0.296875 1.000000
vt 0.296875 0.500000
vt 0.281250 1.000000
vt 0.281250 0.500000
vt 0.265625 1.000000
vt 0.265625 0.500000
vt 0.250000 1.000000
vt 0.250000 0.500000
vt 0.234375 1.000000
vt 0.234375 0.500000
vt 0.218750 1.000000
vt 0.218750 0.500000
vt 0.203125 1.000000
vt 0.203125 0.500000
vt 0.187500 1.000000
vt 0.187500 0.500000
vt 0.171875 1.000000
vt 0.171875 0.500000
vt 0.156250 1.000000
vt 0.156250 0.500000
vt 0.140625 1.000000
vt 0.140625 0.500000
vt 0.125000 1.000000
vt 0.125000 0.500000
vt 0.109375 1.000000
vt 0.109375 0.500000
vt 0.093750 1.000000
vt 0.093750 0.500000
vt 0.078125 1.000000
vt 0.078125 0.500000
vt 0.062500 1.000000
vt 0.062500 0.500000
vt 0.046875 1.000000
vt 0.046875 0.500000
vt 0.031250 1.000000
vt 0.031250 0.500000
vt 0.015625 1.000000
vt 0.015625 0.500000
vt 0.000000 1.000000
vt 0.000000 0.500000
s 0
g Circle_Material.001
usemtl Material.001
f 1/1/1 2/2/1 4/3/1 3/4/1
f 3/4/2 4/3/2 6/5/2 5/6/2
f 5/6/3 6/5/3 8/7/3 7/8/3
f 7/8/4 8/7/4 10/9/4 9/10/4
f 9/10/5 10/9/5 12/11/5 11/12/5
f 11/12/6 12/11/6 14/13/6 13/14/6
f 13/14/7 14/13/7 16/15/7 15/16/7
f 15/16/8 16/15/8 18/17/8 17/18/8
f 17/18/9 18/17/9 20/19/9 19/20/9
f 19/20/10 20/19/10 22/21/10 21/22/10
f 21/22/11 22/21/11 24/23/11 23/24/11
f 23/24/12 24/23/12 26/25/12 25/26/12
f 25/26/13 26/25/13 28/27/13 27/28/13
f 27/28/14 28/27/14 30/29/14 29/30/14
f 29/30/15 30/29/15 32/31/15 31/32/15
f 31/32/16 32/31/16 34/33/16 33/34/16
f 33/34/17 34/33/17 36/35/17 35/36/17
f 35/36/18 36/35/18 38/37/18 37/38/18
f 37/38/19 38/37/19 40/39/19 39/40/19
f 39/40/20 40/39/20 42/41/20 41/42/20
f 41/42/21 42/41/21 44/43/21 43/44/21
f 43/44/22 44/43/22 46/45/22 45/46/22
f 45/46/23 46/45/23 48/47/23 47/48/23
f 47/48/24 48/47/24 50/49/24 49/50/24
f 49/50/25 50/49/25 52/51/25 51/52/25
f 51/52/26 52/51/26 54/53/26 53/54/26
f 53/54/27 54/53/27 56/55/27 55/56/27
f 55/56/28 56/55/28 58/57/28 57/58/28
f 57/58/29 58/57/29 60/59/29 59/60/29
f 59/60/30 60/59/30 62/61/30 61/62/30
f 61/62/31 62/61/31 64/63/31 63/64/31
f 63/64/32 64/63/32 66/65/32 65/66/32
f 65/66/33 66/65/33 68/67/33 67/68/33
f 67/68/34 68/67/34 70/69/34 69/70/34
f 69/70/35 70/69/35 72/71/35 71/72/35
f 71/72/36 72/71/36 74/73/36 73/74/36
f 73/74/37 74/73/37 76/75/37 75/76/37
f 75/76/38 76/75/38 78/77/38 77/78/38
f 77/78/39 78/77/39 80/79/39 79/80/39
f 79/80/40 80/79/40 82/81/40 81/82/40
f 81/82/41 82/81/41 84/83/41 83/84/41
f 83/84/42 84/83/42 86/85/42 85/86/42
f 85/86/43 86/85/43 88/87/43 87/88/43
f 87/88/44 88/87/44 90/89/44 89/90/44
f 89/90/45 90/89/45 92/91/45 91/92/45
f 91/92/46 92/91/46 94/93/46 93/94/46
f 93/94/47 94/93/47 96/95/47 95/96/47
f 95/96/48 96/95/48 98/97/48 97/98/48
f 97/98/49 98/97/49 100/99/49 99/100/49
f 99/100/50 100/99/50 102/101/50 101/102/50
f 101/102/51 102/101/51 104/103/51 103/104/51
f 103/104/52 104/103/52 106/105/52 105/106/52
f 105/106/53 106/105/53 108/107/53 107/108/53
f 107/108/54 108/107/54 110/109/54 109/110/54
f 109/110/55 110/109/55 112/111/55 111/112/55
f 111/112/56 112/111/56 114/113/56 113/114/56
f 113/114/57 114/113/57 116/115/57 115/116/57
f 115/116/58 116/115/58 118/117/58 117/118/58
f 117/118/59 118/117/59 120/119/59 119/120/59
f 119/120/60 120/119/60 122/121/60 121/122/60
f 121/122/61 122/121/61 124/123/61 123/124/61
f 123/124/62 124/123/62 126/125/62 125/126/62
f 125/126/63 126/125/63 128/127/63 127/128/63
f 127/128/64 128/127/64 2/129/64 1/130/64
o Cube
v 4.377461 0.437033 3.771412
v 3.300374 0.293584 3.493669
v 3.680474 -0.169866 3.860575
v 3.533978 -0.245300 3.264314
v 3.745714 0.674876 3.821621
v 4.273211 -0.174849 3.714592
v 4.055721 -0.372161 3.257726
v 3.632314 0.452514 2.962577
v 4.192981 0.610009 3.107563
v 4.195388 0.148179 2.908463
vn -0.8379 -0.4765 0.2662
vn -0.2304 -0.9567 0.1776
vn -0.2110 0.9527 -0.2187
vn -0.5884 0.7982 -0.1289
vn 0.9477 -0.2541 -0.1933
vn -0.6368 0.0845 0.7664
vn 0.1524 -0.0298 0.9879
vn 0.0814 -0.9285 0.3623
vn 0.3586 0.9228 0.1408
vn 0.9647 0.1084 -0.2398
vn -0.2186 -0.4264 -0.8777
vn 0.1251 0.3933 -0.9109
vn -0.8247 -0.1225 -0.5521
vt 0.550384 0.206938
vt 0.375000 0.305791
vt 0.375000 0.049496
vt 0.180791 0.500000
vt 0.330928 0.574320
vt 0.125000 0.700504
vt 0.804283 0.500000
vt 0.842867 0.681766
vt 0.658516 0.626313
vt 0.875000 0.500000
vt 0.501754 0.540833
vt 0.565165 0.799791
vt 0.325310 0.750000
vt 0.604031 0.069198
vt 0.375000 1.000000
vt 0.375000 0.799690
vt 0.578028 1.000000
vt 0.615335 0.592735
vt 0.589707 0.775249
vt 0.581909 0.353207
s 0
g Cube_Material
usemtl Material
f 130/131/65 132/132/65 131/133/65
f 132/134/66 135/135/66 131/136/66
f 136/137/67 133/138/67 137/139/67
f 133/138/68 136/137/68 130/140/68
f 138/141/69 129/142/69 134/143/69 135/135/69
f 131/133/70 133/144/70 130/131/70
f 131/145/71 134/146/71 129/142/71 133/147/71
f 135/135/72 134/143/72 131/136/72
f 137/148/73 133/138/73 129/149/73
f 129/142/74 138/141/74 137/148/74
f 138/141/75 135/135/75 132/132/75 136/150/75
f 138/141/76 136/150/76 137/148/76
f 132/132/77 130/131/77 136/150/77
o Cube
v 4.055269 -0.014149 -0.926383
v 4.769839 -0.001878 -1.518601
v 4.678895 -0.417938 -1.122520
v 5.034815 -0.053431 -1.072032
v 4.216837 -0.013685 -1.462769
v 4.452624 -0.254207 -0.701527
v 4.850317 -0.047523 -0.667784
v 4.742089 0.472313 -1.273005
v 4.326205 0.501929 -1.003111
v 4.650710 0.437931 -0.750458
vn 0.6655 -0.5858 -0.4625
vn 0.6583 -0.6858 0.3105
vn -0.3754 0.6599 -0.6509
vn -0.0991 0.4531 -0.8860
vn -0.2999 0.1524 0.9417
vn -0.0591 -0.6815 -0.7294
vn -0.5605 -0.8236 -0.0866
vn 0.3651 -0.7844 0.5013
vn -0.8700 0.4178 -0.2617
vn -0.5183 0.3856 0.7634
vn 0.8361 0.4810 0.2637
vn 0.1270 0.9881 0.0872
vn 0.8376 0.2891 -0.4636
vt 0.550384 0.206938
vt 0.375000 0.305791
vt 0.375000 0.049496
vt 0.180791 0.500000
vt 0.330928 0.574320
vt 0.125000 0.700504
vt 0.804283 0.500000
vt 0.842867 0.681766
vt 0.658516 0.626313
vt 0.875000 0.500000
vt 0.501754 0.540833
vt 0.565165 0.799791
vt 0.325310 0.750000
vt 0.604031 0.069198
vt 0.375000 1.000000
vt 0.375000 0.799690
vt 0.578028 1.000000
vt 0.615335 0.592735
vt 0.589707 0.775249
vt 0.581909 0.353207
s 0
g Cube_Material
usemtl Material
f 140/151/78 142/152/78 141/153/78
f 142/154/79 145/155/79 141/156/79
f 146/157/80 143/158/80 147/159/80
f 143/158/81 146/157/81 140/160/81
f 148/161/82 139/162/82 144/163/82 145/155/82
f 141/153/83 143/164/83 140/151/83
f 141/165/84 144/166/84 139/162/84 143/167/84
f 145/155/85 144/163/85 141/156/85
f 147/168/86 143/158/86 139/169/86
f 139/162/87 148/161/87 147/168/87
f 148/161/88 145/155/88 142/152/88 146/170/88
f 148/161/89 146/170/89 147/168/89
f 142/152/90 140/151/90 146/170/90
o Cube
v 0.232428 0.335068 4.365779
v 1.495579 -0.155632 4.632657
v 0.980094 0.212797 5.222172
v 1.582453 0.562859 4.914005
v 0.732557 -0.331822 4.365981
v 0.529074 0.745379 4.942683
v 1.125719 1.039238 4.872103
v 1.536849 0.326679 4.001124
v 0.857962 0.521216 3.783217
v 1.121548 0.994963 4.082666
vn 0.5814 -0.3567 0.7313
vn 0.2671 0.3356 0.9033
vn 0.0979 -0.5712 -0.8150
vn 0.3656 -0.7511 -0.5497
vn -0.5590 0.8158 -0.1483
vn 0.0081 -0.8448 0.5350
vn -0.7090 -0.4323 0.5572
vn -0.0901 0.4019 0.9112
vn -0.5515 -0.4138 -0.7243
vn -0.6188 0.6359 -0.4613
vn 0.7874 0.6041 -0.1226
vn 0.3740 0.3378 -0.8637
vn 0.9935 -0.1120 -0.0206
vt 0.550384 0.206938
vt 0.375000 0.305791
vt 0.375000 0.049496
vt 0.180791 0.500000
vt 0.330928 0.574320
vt 0.125000 0.700504
vt 0.804283 0.500000
vt 0.842867 0.681766
vt 0.658516 0.626313
vt 0.875000 0.500000
vt 0.501754 0.540833
vt 0.565165 0.799791
vt 0.325310 0.750000
vt 0.604031 0.069198
vt 0.375000 1.000000
vt 0.375000 0.799690
vt 0.578028 1.000000
vt 0.615335 0.592735
vt 0.589707 0.775249
vt 0.581909 0.353207
s 0
g Cube_Material
usemtl Material
f 150/171/91 152/172/91 151/173/91
f 152/174/92 155/175/92 151/176/92
f 156/177/93 153/178/93 157/179/93
f 153/178/94 156/177/94 150/180/94
f 158/181/95 149/182/95 154/183/95 155/175/95
f 151/173/96 153/184/96 150/171/96
f 151/185/97 154/186/97 149/182/97 153/187/97
f 155/175/98 154/183/98 151/176/98
f 157/188/99 153/178/99 149/189/99
f 149/182/100 158/181/100 157/188/100
f 158/181/101 155/175/101 152/172/101 156/190/101
f 158/181/102 156/190/102 157/188/102
f 152/172/103 150/171/103 156/190/103
o Cube
v -3.152831 -0.094606 3.553594
v -2.893693 0.150532 2.995020
v -2.680137 -0.067981 3.276294
v -2.652198 0.294645 3.239453
v -3.165591 -0.091224 3.153804
v -2.796559 -0.024044 3.614905
v -2.678025 0.268047 3.554606
v -3.079967 0.429930 3.176775
v -3.260987 0.298024 3.451746
v -3.017777 0.436918 3.551166
vn 0.7415 -0.1241 -0.6594
vn 0.9947 -0.0690 0.0757
vn -0.8582 0.1625 -0.4870
vn -0.5844 0.1313 -0.8008
vn -0.0782 0.0996 0.9919
vn 0.2080 -0.6896 -0.6937
vn 0.0958 -0.9931 0.0680
vn 0.8925 -0.2910 0.3446
vn -0.9656 -0.2586 0.0286
vn -0.4308 0.1136 0.8953
vn 0.3679 0.9298 0.0070
vn -0.5161 0.8537 0.0698
vn 0.3082 0.6545 -0.6904
vt 0.550384 0.206938
vt 0.375000 0.305791
vt 0.375000 0.049496
vt 0.180791 0.500000
vt 0.330928 0.574320
vt 0.125000 0.700504
vt 0.804283 0.500000
vt 0.842867 0.681766
vt 0.658516 0.626313
vt 0.875000 0.500000
vt 0.501754 0.540833
vt 0.565165 0.799791
vt 0.325310 0.750000
vt 0.604031 0.069198
vt 0.375000 1.000000
vt 0.375000 0.799690
vt 0.578028 1.000000
vt 0.615335 0.592735
vt 0.589707 0.775249
vt 0.581909 0.353207
s 0
g Cube_Material
usemtl Material
f 160/191/104 162/192/104 161/193/104
f 162/194/105 165/195/105 161/196/105
f 166/197/106 163/198/106 167/199/106
f 163/198/107 166/197/107 160/200/107
f 168/201/108 159/202/108 164/203/108 165/195/108
f 161/193/109 163/204/109 160/191/109
f 161/205/110 164/206/110 159/202/110 163/207/110
f 165/195/111 164/203/111 161/196/111
f 167/208/112 163/198/112 159/209/112
f 159/202/113 168/201/113 167/208/113
f 168/201/114 165/195/114 162/192/114 166/210/114
f 168/201/115 166/210/115 167/208/115
f 162/192/116 160/191/116 166/210/116
o Cube
v 3.609363 0.592738 1.793356
v 2.890650 0.318105 1.569543
v 3.296866 0.029940 1.633202
v 3.139302 0.144419 1.236456
v 3.141847 0.547090 1.908385
v 3.672738 0.231174 1.541236
v 3.514027 0.210739 1.187744
v 3.005720 0.672164 1.296567
v 3.360941 0.862749 1.442671
v 3.442328 0.662682 1.155514
vn -0.5780 -0.8160 -0.0059
vn 0.1245 -0.9391 -0.3204
vn -0.5411 0.7921 0.2823
vn -0.8262 0.4870 0.2834
vn 0.9272 0.2332 -0.2930
vn -0.4796 -0.5199 0.7069
vn 0.3310 -0.4237 0.8432
vn 0.4390 -0.8866 -0.1458
vn 0.0635 0.8120 0.5802
vn 0.8185 0.5535 -0.1537
vn -0.2264 -0.0197 -0.9738
vn -0.1755 0.7838 -0.5958
vn -0.8280 -0.1480 -0.5409
vt 0.550384 0.206938
vt 0.375000 0.305791
vt 0.375000 0.049496
vt 0.180791 0.500000
vt 0.330928 0.574320
vt 0.125000 0.700504
vt 0.804283 0.500000
vt 0.842867 0.681766
vt 0.658516 0.626313
vt 0.875000 0.500000
vt 0.501754 0.540833
vt 0.565165 0.799791
vt 0.325310 0.750000
vt 0.604031 0.069198
vt 0.375000 1.000000
vt 0.375000 0.799690
vt 0.578028 1.000000
vt 0.615335 0.592735
vt 0.589707 0.775249
vt 0.581909 0.353207
s 0
g Cube_Material
usemtl Material
f 170/211/117 172/212/117 171/213/117
f 172/214/118 175/215/118 171/216/118
f 176/217/119 173/218/119 177/219/119
f 173/218/120 176/217/120 170/220/120
f 178/221/121 169/222/121 174/223/121 175/215/121
f 171/213/122 173/224/122 170/211/122
f 171/225/123 174/226/123 169/222/123 173/227/123
f 175/215/124 174/223/124 171/216/124
f 177/228/125 173/218/125 169/229/125
f 169/222/126 178/221/126 177/228/126
f 178/221/127 175/215/127 172/212/127 176/230/127
f 178/221/128 176/230/128 177/228/128
f 172/212/129 170/211/129 176/230/129
o Cube
v 3.686354 0.122127 -1.761596
v 3.352976 -0.172624 -0.896057
v 3.030832 0.158057 -1.294525
v 3.250343 0.362798 -0.849484
v 3.563286 -0.335647 -1.414714
v 3.324840 0.485658 -1.589261
v 3.373581 0.683491 -1.164292
v 3.850037 0.076169 -0.822435
v 4.071163 0.176698 -1.283103
v 3.911406 0.546502 -1.115213
vn -0.8373 -0.2046 0.5071
vn -0.8435 0.5047 0.1839
vn 0.6779 -0.7154 0.1693
vn 0.3592 -0.8387 0.4093
vn 0.3534 0.7669 -0.5357
vn -0.6851 -0.7268 -0.0493
vn -0.5606 -0.3247 -0.7618
vn -0.8050 0.5678 -0.1720
vn 0.6803 -0.5500 -0.4844
vn 0.6303 0.5299 -0.5674
vn 0.1614 0.5772 0.8005
vn 0.8734 0.1701 0.4564
vn -0.0945 -0.1042 0.9901
vt 0.550384 0.206938
vt 0.375000 0.305791
vt 0.375000 0.049496
vt 0.180791 0.500000
vt 0.330928 0.574320
vt 0.125000 0.700504
vt 0.804283 0.500000
vt 0.842867 0.681766
vt 0.658516 0.626313
vt 0.875000 0.500000
vt 0.501754 0.540833
vt 0.565165 0.799791
vt 0.325310 0.750000
vt 0.604031 0.069198
vt 0.375000 1.000000
vt 0.375000 0.799690
vt 0.578028 1.000000
vt 0.615335 0.592735
vt 0.589707 0.775249
vt 0.581909 0.353207
s 0
g Cube_Material
usemtl Material
f 180/231/130 182/232/130 181/233/130
f 182/234/131 185/235/131 181/236/131
f 186/237/132 183/238/132 187/239/132
f 183/238/133 186/237/133 180/240/133
f 188/241/134 179/242/134 184/243/134 185/235/134
f 181/233/135 183/244/135 180/231/135
f 181/245/136 184/246/136 179/242/136 183/247/136
f 185/235/137 184/243/137 181/236/137
f 187/248/138 183/238/138 179/249/138
f 179/242/139 188/241/139 187/248/139
f 188/241/140 185/235/140 182/232/140 186/250/140
f 188/241/141 186/250/141 187/248/141
f 182/232/142 180/231/142 186/250/142
o Cube
v -2.029046 0.598256 2.255753
v -2.916018 0.611395 2.312750
v -2.588354 0.257147 2.590940
v -2.852200 0.129209 2.197994
v -2.464465 0.884457 2.383526
v -2.182285 0.139372 2.355690
v -2.477024 -0.048728 2.104623
v -2.783090 0.598518 1.818352
v -2.312973 0.654828 1.772852
v -2.406577 0.271628 1.715557
vn -0.7669 -0.2429 0.5940
vn -0.2830 -0.8398 0.4634
vn -0.1462 0.9135 -0.3797
vn -0.4933 0.8559 -0.1549
vn 0.8004 -0.4662 -0.3768
vn -0.3509 0.3557 0.8662
vn 0.4468 0.1362 0.8842
vn 0.0717 -0.8368 0.5428
vn 0.4984 0.8449 -0.1941
vn 0.8479 -0.1303 -0.5138
vn -0.5327 -0.5401 -0.6515
vn -0.1155 0.1744 -0.9779
vn -0.9640 -0.0663 -0.2575
vt 0.550384 0.206938
vt 0.375000 0.305791
vt 0.375000 0.049496
vt 0.180791 0.500000
vt 0.330928 0.574320
vt 0.125000 0.700504
vt 0.804283 0.500000
vt 0.842867 0.681766
vt 0.658516 0.626313
vt 0.875000 0.500000
vt 0.501754 0.540833
vt 0.565165 0.799791
vt 0.325310 0.750000
vt 0.604031 0.069198
vt 0.375000 1.000000
vt 0.375000 0.799690
vt 0.578028 1.000000
vt 0.615335 0.592735
vt 0.589707 0.775249
vt 0.581909 0.353207
s 0
g Cube_Material
usemtl Material
f 190/251/143 192/252/143 191/253/143
f 192/254/144 195/255/144 191/256/144
f 196/257/145 193/258/145 197/259/145
f 193/258/146 196/257/146 190/260/146
f 198/261/147 189/262/147 194/263/147 195/255/147
f 191/253/148 193/264/148 190/251/148
f 191/265/149 194/266/149 189/262/149 193/267/149
f 195/255/150 194/263/150 191/256/150
f 197/268/151 193/258/151 189/269/151
f 189/262/152 198/261/152 197/268/152
f 198/261/153 195/255/153 192/252/153 196/270/153
f 198/261/154 196/270/154 197/268/154
f 192/252/155 190/251/155 196/270/155
o Cube
v -1.364653 0.256234 3.209989
v -2.305302 0.378281 2.927147
v -2.051769 0.647464 3.425084
v -2.392438 0.221821 3.454017
v -1.734702 0.441377 2.779095
v -1.665993 0.353583 3.659781
v -2.051453 0.084403 3.753082
v -2.191320 -0.180064 2.948287
v -1.673847 -0.258469 3.029583
v -1.895618 -0.335713 3.406222
vn -0.7775 0.6262 0.0574
vn -0.4854 0.4399 0.7556
vn 0.0980 -0.3278 -0.9397
vn -0.2413 -0.0859 -0.9666
vn 0.6214 -0.4444 0.6453
vn -0.1996 0.9009 -0.3854
vn 0.5052 0.8617 0.0465
vn -0.1409 0.4983 0.8555
vn 0.7053 -0.1837 -0.6847
vn 0.7547 -0.5683 0.3278
vn -0.6901 -0.6434 0.3314
vn -0.1049 -0.9603 -0.2587
vn -0.9545 -0.2031 -0.2182
vt 0.550384 0.206938
vt 0.375000 0.305791
vt 0.375000 0.049496
vt 0.180791 0.500000
vt 0.330928 0.574320
vt 0.125000 0.700504
vt 0.804283 0.500000
vt 0.842867 0.681766
vt 0.658516 0.626313
vt 0.875000 0.500000
vt 0.501754 0.540833
vt 0.565165 0.799791
vt 0.325310 0.750000
vt 0.604031 0.069198
vt 0.375000 1.000000
vt 0.375000 0.799690
vt 0.578028 1.000000
vt 0.615335 0.592735
vt 0.589707 0.775249
vt 0.581909 0.353207
s 0
g Cube_Material
usemtl Material
f 200/271/156 202/272/156 201/273/156
f 202/274/157 205/275/157 201/276/157
f 206/277/158 203/278/158 207/279/158
f 203/278/159 206/277/159 200/280/159
f 208/281/160 199/282/160 204/283/160 205/275/160
f 201/273/161 203/284/161 200/271/161
f 201/285/162 204/286/162 199/282/162 203/287/162
f 205/275/163 204/283/163 201/276/163
f 207/288/164 203/278/164 199/289/164
f 199/282/165 208/281/165 207/288/165
f 208/281/166 205/275/166 202/272/166 206/290/166
f 208/281/167 206/290/167 207/288/167
f 202/272/168 200/271/168 206/290/168
o Cube
v 1.773168 0.349017 -1.643242
v 2.294773 -0.053427 -2.015939
v 1.839953 -0.019013 -2.145995
v 2.001762 -0.357388 -1.962617
v 2.170580 0.356894 -1.868424
v 1.578866 0.026318 -1.830512
v 1.695601 -0.316359 -1.773079
v 2.308405 -0.162951 -1.594052
v 2.071557 0.084108 -1.377439
v 1.917362 -0.215982 -1.414580
vn 0.2281 -0.3773 -0.8975
vn -0.4823 -0.5843 -0.6526
vn 0.8110 0.4264 0.4005
vn 0.9603 0.2760 0.0406
vn -0.7837 -0.0297 0.6205
vn 0.2799 0.3987 -0.8733
vn -0.4282 0.7011 -0.5701
vn -0.7459 -0.3492 -0.5672
vn 0.2720 0.8168 0.5087
vn -0.5565 0.1857 0.8098
vn 0.1590 -0.9498 0.2696
vn 0.4305 -0.3254 0.8419
vn 0.6868 -0.6978 -0.2033
vt 0.550384 0.206938
vt 0.375000 0.305791
vt 0.375000 0.049496
vt 0.180791 0.500000
vt 0.330928 0.574320
vt 0.125000 0.700504
vt 0.804283 0.500000
vt 0.842867 0.681766
vt 0.658516 0.626313
vt 0.875000 0.500000
vt 0.501754 0.540833
vt 0.565165 0.799791
vt 0.325310 0.750000
vt 0.604031 0.069198
vt 0.375000 1.000000
vt 0.375000 0.799690
vt 0.578028 1.000000
vt 0.615335 0.592735
vt 0.589707 0.775249
vt 0.581909 0.353207
s 0
g Cube_Material
usemtl Material
f 210/291/169 212/292/169 211/293/169
f 212/294/170 215/295/170 211/296/170
f 216/297/171 213/298/171 217/299/171
f 213/298/172 216/297/172 210/300/172
f 218/301/173 209/302/173 214/303/173 215/295/173
f 211/293/174 213/304/174 210/291/174
f 211/305/175 214/306/175 209/302/175 213/307/175
f 215/295/176 214/303/176 211/296/176
f 217/308/177 213/298/177 209/309/177
f 209/302/178 218/301/178 217/308/178
f 218/301/179 215/295/179 212/292/179 216/310/179
f 218/301/180 216/310/180 217/308/180
f 212/292/181 210/291/181 216/310/181
o Cube
v -3.198408 0.270421 -0.801237
v -2.760916 -0.387240 -0.387957
v -2.707700 0.154449 -0.262328
v -2.369995 -0.099816 -0.513495
v -3.237769 -0.180378 -0.510163
v -2.765508 0.451165 -0.641905
v -2.396577 0.254658 -0.749771
v -2.699961 -0.441660 -0.895014
v -2.980161 -0.134433 -1.128812
v -2.602506 -0.003723 -1.138736
vn 0.4542 -0.2434 0.8570
vn 0.7236 0.4196 0.5481
vn -0.5813 -0.7571 -0.2983
vn -0.4080 -0.9117 0.0488
vn 0.0573 0.7456 -0.6639
vn -0.3183 -0.1844 0.9299
vn -0.5571 0.5469 0.6249
vn 0.5178 0.7105 0.4765
vn -0.9047 -0.1725 -0.3895
vn -0.2097 0.5442 -0.8123
vn 0.8766 -0.3042 -0.3728
vn 0.1529 -0.5063 -0.8487
vn 0.6172 -0.7710 0.1569
vt 0.550384 0.206938
vt 0.375000 0.305791
vt 0.375000 0.049496
vt 0.180791 0.500000
vt 0.330928 0.574320
vt 0.125000 0.700504
vt 0.804283 0.500000
vt 0.842867 0.681766
vt 0.658516 0.626313
vt 0.875000 0.500000
vt 0.501754 0.540833
vt 0.565165 0.799791
vt 0.325310 0.750000
vt 0.604031 0.069198
vt 0.375000 1.000000
vt 0.375000 0.799690
vt 0.578028 1.000000
vt 0.615335 0.592735
vt 0.589707 0.775249
vt 0.581909 0.353207
s 0
g Cube_Material
usemtl Material
f 220/311/182 222/312/182 221/313/182
f 222/314/183 225/315/183 221/316/183
f 226/317/184 223/318/184 227/319/184
f 223/318/185 226/317/185 220/320/185
f 228/321/186 219/322/186 224/323/186 225/315/186
f 221/313/187 223/324/187 220/311/187
f 221/325/188 224/326/188 219/322/188 223/327/188
f 225/315/189 224/323/189 221/316/189
f 227/328/190 223/318/190 219/329/190
f 219/322/191 228/321/191 227/328/191
f 228/321/192 225/315/192 222/312/192 226/330/192
f 228/321/193 226/330/193 227/328/193
f 222/312/194 220/311/194 226/330/194
o Cube
v 1.994597 0.085547 0.698942
v 2.256357 0.752613 1.011816
v 2.175825 0.684507 0.533346
v 2.569454 0.690966 0.709469
v 1.909133 0.438535 1.000282
v 2.241734 0.284970 0.402315
v 2.595178 0.389228 0.489357
v 2.510934 0.412646 1.161964
v 2.346226 0.046082 1.045482
v 2.624236 0.118027 0.844298
vn 0.0505 0.9875 -0.1491
vn 0.3262 0.5751 -0.7502
vn -0.2624 -0.1831 0.9474
vn -0.2429 0.2339 0.9414
vn 0.2364 -0.8235 -0.5157
vn -0.6709 0.7415 0.0074
vn -0.8545 0.1187 -0.5058
vn 0.1333 0.3286 -0.9350
vn -0.5945 -0.6005 0.5348
vn 0.0989 -0.9724 -0.2111
vn 0.9853 0.1223 0.1192
vn 0.5935 -0.4735 0.6508
vn 0.5892 0.6520 0.4772
vt 0.550384 0.206938
vt 0.375000 0.305791
vt 0.375000 0.049496
vt 0.180791 0.500000
vt 0.330928 0.574320
vt 0.125000 0.700504
vt 0.804283 0.500000
vt 0.842867 0.681766
vt 0.658516 0.626313
vt 0.875000 0.500000
vt 0.501754 0.540833
vt 0.565165 0.799791
vt 0.325310 0.750000
vt 0.604031 0.069198
vt 0.375000 1.000000
vt 0.375000 0.799690
vt 0.578028 1.000000
vt 0.615335 0.592735
vt 0.589707 0.775249
vt 0.581909 0.353207
s 0
g Cube_Material
usemtl Material
f 230/331/195 232/332/195 231/333/195
f 232/334/196 235/335/196 231/336/196
f 236/337/197 233/338/197 237/339/197
f 233/338/198 236/337/198 230/340/198
f 238/341/199 229/342/199 234/343/199 235/335/199
f 231/333/200 233/344/200 230/331/200
f 231/345/201 234/346/201 229/342/201 233/347/201
f 235/335/202 234/343/202 231/336/202
f 237/348/203 233/338/203 229/349/203
f 229/342/204 238/341/204 237/348/204
f 238/341/205 235/335/205 232/332/205 236/350/205
f 238/341/206 236/350/206 237/348/206
f 232/332/207 230/331/207 236/350/207
o Cube
v 2.083367 0.458265 1.542139
v 1.236680 0.650443 1.535780
v 1.460666 0.260161 1.841567
v 1.206997 0.171725 1.445108
v 1.718243 0.824558 1.626526
v 1.838374 0.055402 1.644682
v 1.534474 -0.077510 1.386309
v 1.390824 0.587884 1.064033
v 1.853311 0.545716 1.050330
v 1.690029 0.195682 1.001293
vn -0.8359 -0.0517 0.5464
vn -0.4789 -0.7405 0.4716
vn 0.0700 0.9043 -0.4212
vn -0.2948 0.9300 -0.2197
vn 0.7084 -0.6378 -0.3024
vn -0.3227 0.4620 0.8261
vn 0.4096 0.0854 0.9083
vn -0.1369 -0.8061 0.5757
vn 0.6736 0.7148 -0.1880
vn 0.8328 -0.3258 -0.4475
vn -0.5915 -0.4513 -0.6681
vn -0.0160 0.1460 -0.9892
vn -0.9390 0.1193 -0.3226
vt 0.550384 0.206938
vt 0.375000 0.305791
vt 0.375000 0.049496
vt 0.180791 0.500000
vt 0.330928 0.574320
vt 0.125000 0.700504
vt 0.804283 0.500000
vt 0.842867 0.681766
vt 0.658516 0.626313
vt 0.875000 0.500000
vt 0.501754 0.540833
vt 0.565165 0.799791
vt 0.325310 0.750000
vt 0.604031 0.069198
vt 0.375000 1.000000
vt 0.375000 0.799690
vt 0.578028 1.000000
vt 0.615335 0.592735
vt 0.589707 0.775249
vt 0.581909 0.353207
s 0
g Cube_Material
usemtl Material
f 240/351/208 242/352/208 241/353/208
f 242/354/209 245/355/209 241/356/209
f 246/357/210 243/358/210 247/359/210
f 243/358/211 246/357/211 240/360/211
f 248/361/212 239/362/212 244/363/212 245/355/212
f 241/353/213 243/364/213 240/351/213
f 241/365/214 244/366/214 239/362/214 243/367/214
f 245/355/215 244/363/215 241/356/215
f 247/368/216 243/358/216 239/369/216
f 239/362/217 248/361/217 247/368/217
f 248/361/218 245/355/218 242/352/218 246/370/218
f 248/361/219 246/370/219 247/368/219
f 242/352/220 240/351/220 246/370/220
o Cube
v 1.693582 0.367574 -0.090994
v 1.368832 -0.019892 -1.149968
v 1.756879 -0.413564 -0.665075
v 2.016437 -0.139039 -1.190626
v 1.153983 0.222650 -0.526240
v 2.140003 -0.062465 -0.293683
v 2.391853 0.005754 -0.798487
v 1.667397 0.582471 -1.221239
v 1.772001 0.840977 -0.658626
v 2.224342 0.654128 -0.851951
vn -0.1857 -0.8303 -0.5254
vn 0.5146 -0.8376 -0.1834
vn -0.7148 0.6763 -0.1779
vn -0.8296 0.3608 -0.4261
vn 0.7500 0.3493 0.5616
vn -0.7237 -0.6899 0.0190
vn -0.3415 -0.5744 0.7439
vn 0.5679 -0.8044 0.1746
vn -0.5670 0.6694 0.4800
vn 0.5106 0.6243 0.5912
vn 0.5975 0.1773 -0.7820
vn 0.1769 0.8814 -0.4379
vn -0.0770 -0.0794 -0.9939
vt 0.550384 0.206938
vt 0.375000 0.305791
vt 0.375000 0.049496
vt 0.180791 0.500000
vt 0.330928 0.574320
vt 0.125000 0.700504
vt 0.804283 0.500000
vt 0.842867 0.681766
vt 0.658516 0.626313
vt 0.875000 0.500000
vt 0.501754 0.540833
vt 0.565165 0.799791
vt 0.325310 0.750000
vt 0.604031 0.069198
vt 0.375000 1.000000
vt 0.375000 0.799690
vt 0.578028 1.000000
vt 0.615335 0.592735
vt 0.589707 0.775249
vt 0.581909 0.353207
s 0
g Cube_Material
usemtl Material
f 250/371/221 252/372/221 251/373/221
f 252/374/222 255/375/222 251/376/222
f 256/377/223 253/378/223 257/379/223
f 253/378/224 256/377/224 250/380/224
f 258/381/225 249/382/225 254/383/225 255/375/225
f 251/373/226 253/384/226 250/371/226
f 251/385/227 254/386/227 249/382/227 253/387/227
f 255/375/228 254/383/228 251/376/228
f 257/388/229 253/378/229 249/389/229
f 249/382/230 258/381/230 257/388/230
f 258/381/231 255/375/231 252/372/231 256/390/231
f 258/381/232 256/390/232 257/388/232
f 252/372/233 250/371/233 256/390/233
o Cube
v -1.115168 0.456076 -1.649758
v -1.952810 0.444823 -1.423834
v -1.544464 0.299903 -1.095446
v -1.836300 -0.014410 -1.307747
v -1.553638 0.735260 -1.586280
v -1.175986 0.108840 -1.320755
v -1.466378 -0.188869 -1.380548
v -1.899948 0.200604 -1.856775
v -1.467937 0.252518 -2.018743
v -1.507547 -0.104077 -1.868240
vn -0.6170 0.0421 0.7858
vn -0.0725 -0.5111 0.8564
vn -0.3444 0.5918 -0.7288
vn -0.6387 0.6342 -0.4357
vn 0.7942 -0.5448 -0.2691
vn -0.2618 0.7196 0.6431
vn 0.5532 0.5849 0.5932
vn 0.2854 -0.4485 0.8470
vn 0.3241 0.6625 -0.6753
vn 0.7667 -0.3200 -0.5565
vn -0.5376 -0.8230 -0.1836
vn -0.2931 -0.3439 -0.8921
vn -0.9702 -0.2416 0.0178
vt 0.550384 0.206938
vt 0.375000 0.305791
vt 0.375000 0.049496
vt 0.180791 0.500000
vt 0.330928 0.574320
vt 0.125000 0.700504
vt 0.804283 0.500000
vt 0.842867 0.681766
vt 0.658516 0.626313
vt 0.875000 0.500000
vt 0.501754 0.540833
vt 0.565165 0.799791
vt 0.325310 0.750000
vt 0.604031 0.069198
vt 0.375000 1.000000
vt 0.375000 0.799690
vt 0.578028 1.000000
vt 0.615335 0.592735
vt 0.589707 0.775249
vt 0.581909 0.353207
s 0
g Cube_Material
usemtl Material
f 260/391/234 262/392/234 261/393/234
f 262/394/235 265/395/235 261/396/235
f 266/397/236 263/398/236 267/399/236
f 263/398/237 266/397/237 260/400/237
f 268/401/238 259/402/238 264/403/238 265/395/238
f 261/393/239 263/404/239 260/391/239
f 261/405/240 264/406/240 259/402/240 263/407/240
f 265/395/241 264/403/241 261/396/241
f 267/408/242 263/398/242 259/409/242
f 259/402/243 268/401/243 267/408/243
f 268/401/244 265/395/244 262/392/244 266/410/244
f 268/401/245 266/410/245 267/408/245
f 262/392/246 260/391/246 266/410/246
o Cube
v -1.787467 -0.644923 0.639936
v -1.816038 0.402494 0.601798
v -1.307798 0.037862 0.400825
v -1.310401 0.334744 0.897128
v -2.081892 -0.133599 0.411186
v -1.241600 -0.448001 0.692843
v -1.128242 -0.106879 1.051428
v -1.968517 0.224331 1.158491
v -2.029967 -0.333146 1.173841
v -1.621801 -0.215416 1.375347
vn 0.3825 0.7938 -0.4728
vn 0.9295 0.3185 -0.1857
vn -0.9890 0.1117 0.0966
vn -0.8789 0.4682 -0.0909
vn 0.3598 -0.8035 0.4742
vn -0.0954 0.3752 -0.9220
vn 0.1451 -0.4163 -0.8976
vn 0.9615 -0.0329 -0.2727
vn -0.8481 -0.5238 -0.0793
vn 0.0001 -0.8635 0.5043
vn 0.3065 0.5197 0.7975
vn -0.4587 0.0749 0.8854
vn -0.0436 0.9549 0.2937
vt 0.550384 0.206938
vt 0.375000 0.305791
vt 0.375000 0.049496
vt 0.180791 0.500000
vt 0.330928 0.574320
vt 0.125000 0.700504
vt 0.804283 0.500000
vt 0.842867 0.681766
vt 0.658516 0.626313
vt 0.875000 0.500000
vt 0.501754 0.540833
vt 0.565165 0.799791
vt 0.325310 0.750000
vt 0.604031 0.069198
vt 0.375000 1.000000
vt 0.375000 0.799690
vt 0.578028 1.000000
vt 0.615335 0.592735
vt 0.589707 0.775249
vt 0.581909 0.353207
s 0
g Cube_Material
usemtl Material
f 270/411/247 272/412/247 271/413/247
f 272/414/248 275/415/248 271/416/248
f 276/417/249 273/418/249 277/419/249
f 273/418/250 276/417/250 270/420/250
f 278/421/251 269/422/251 274/423/251 275/415/251
f 271/413/252 273/424/252 270/411/252
f 271/425/253 274/426/253 269/422/253 273/427/253
f 275/415/254 274/423/254 271/416/254
f 277/428/255 273/418/255 269/429/255
f 269/422/256 278/421/256 277/428/256
f 278/421/257 275/415/257 272/412/257 276/430/257
f 278/421/258 276/430/258 277/428/258
f 272/412/259 270/411/259 276/430/259
o Cube
v 4.179057 -0.017479 3.552709
v 3.369765 -0.125262 3.344022
v 3.655361 -0.473485 3.619704
v 3.545289 -0.530164 3.171691
v 3.704381 0.161230 3.590435
v 4.100727 -0.477230 3.510016
v 3.937311 -0.625484 3.166740
v 3.619175 -0.005847 2.944974
v 4.040444 0.112490 3.053913
v 4.042253 -0.234515 2.904315
vn -0.8379 -0.4765 0.2662
vn -0.2304 -0.9567 0.1776
vn -0.2110 0.9527 -0.2187
vn -0.5884 0.7982 -0.1289
vn 0.9477 -0.2541 -0.1933
vn -0.6368 0.0845 0.7664
vn 0.1524 -0.0298 0.9879
vn 0.0814 -0.9285 0.3623
vn 0.3586 0.9228 0.1408
vn 0.9647 0.1084 -0.2398
vn -0.2186 -0.4264 -0.8777
vn 0.1251 0.3933 -0.9109
vn -0.8247 -0.1225 -0.5521
vt 0.550384 0.206938
vt 0.375000 0.305791
vt 0.375000 0.049496
vt 0.180791 0.500000
vt 0.330928 0.574320
vt 0.125000 0.700504
vt 0.804283 0.500000
vt 0.842867 0.681766
vt 0.658516 0.626313
vt 0.875000 0.500000
vt 0.501754 0.540833
vt 0.565165 0.799791
vt 0.325310 0.750000
vt 0.604031 0.069198
vt 0.375000 1.000000
vt 0.375000 0.799690
vt 0.578028 1.000000
vt 0.615335 0.592735
vt 0.589707 0.775249
vt 0.581909 0.353207
s 0
g Cube_Material
usemtl Material
f 280/431/260 282/432/260 281/433/260
f 282/434/261 285/435/261 281/436/261
f 286/437/262 283/438/262 287/439/262
f 283/438/263 286/437/263 280/440/263
f 288/441/264 279/442/264 284/443/264 285/435/264
f 281/433/265 283/444/265 280/431/265
f 281/445/266 284/446/266 279/442/266 283/447/266
f 285/435/267 284/443/267 281/436/267
f 287/448/268 283/438/268 279/449/268
f 279/442/269 288/441/269 287/448/269
f 288/441/270 285/435/270 282/432/270 286/450/270
f 288/441/271 286/450/271 287/448/271
f 282/432/272 280/431/272 286/450/272
o Cube
v 3.495004 0.029272 -1.358787
v 4.535193 0.047134 -2.220870
v 4.402808 -0.558518 -1.644301
v 4.920915 -0.027909 -1.570806
v 3.730196 0.029948 -2.139596
v 4.073428 -0.320177 -1.031467
v 4.652344 -0.019310 -0.982348
v 4.494798 0.737407 -1.863360
v 3.889402 0.780520 -1.470478
v 4.361778 0.687359 -1.102696
vn 0.6655 -0.5858 -0.4625
vn 0.6583 -0.6858 0.3105
vn -0.3754 0.6599 -0.6509
vn -0.0991 0.4531 -0.8860
vn -0.2999 0.1524 0.9417
vn -0.0591 -0.6815 -0.7294
vn -0.5605 -0.8236 -0.0866
vn 0.3651 -0.7844 0.5013
vn -0.8700 0.4178 -0.2617
vn -0.5183 0.3856 0.7634
vn 0.8361 0.4810 0.2637
vn 0.1270 0.9881 0.0872
vn 0.8376 0.2891 -0.4636
vt 0.550384 0.206938
vt 0.375000 0.305791
vt 0.375000 0.049496
vt 0.180791 0.500000
vt 0.330928 0.574320
vt 0.125000 0.700504
vt 0.804283 0.500000
vt 0.842867 0.681766
vt 0.658516 0.626313
vt 0.875000 0.500000
vt 0.501754 0.540833
vt 0.565165 0.799791
vt 0.325310 0.750000
vt 0.604031 0.069198
vt 0.375000 1.000000
vt 0.375000 0.799690
vt 0.578028 1.000000
vt 0.615335 0.592735
vt 0.589707 0.775249
vt 0.581909 0.353207
s 0
g Cube_Material
usemtl Material
f 290/451/273 292/452/273 291/453/273
f 292/454/274 295/455/274 291/456/274
f 296/457/275 293/458/275 297/459/275
f 293/458/276 296/457/276 290/460/276
f 298/461/277 289/462/277 294/463/277 295/455/277
f 291/453/278 293/464/278 290/451/278
f 291/465/279 294/466/279 289/462/279 293/467/279
f 295/455/280 294/463/280 291/456/280
f 297/468/281 293/458/281 289/469/281
f 289/462/282 298/461/282 297/468/282
f 298/461/283 295/455/283 292/452/283 296/470/283
f 298/461/284 296/470/284 297/468/284
f 292/452/285 290/451/285 296/470/285
o Cube
v 0.512157 -0.298767 4.089427
v 1.488936 -0.678219 4.295801
v 1.090317 -0.393318 4.751665
v 1.556114 -0.122619 4.513364
v 0.898900 -0.814465 4.089584
v 0.741549 0.018521 4.535540
v 1.202927 0.245759 4.480961
v 1.520849 -0.305254 3.807445
v 0.995874 -0.154821 3.638940
v 1.199702 0.211521 3.870500
vn 0.5814 -0.3567 0.7313
vn 0.2671 0.3356 0.9033
vn 0.0979 -0.5712 -0.8150
vn 0.3656 -0.7511 -0.5497
vn -0.5590 0.8158 -0.1483
vn 0.0081 -0.8448 0.5350
vn -0.7090 -0.4323 0.5572
vn -0.0901 0.4019 0.9112
vn -0.5515 -0.4138 -0.7243
vn -0.6188 0.6359 -0.4613
vn 0.7874 0.6041 -0.1226
vn 0.3740 0.3378 -0.8637
vn 0.9935 -0.1120 -0.0206
vt 0.550384 0.206938
vt 0.375000 0.305791
vt 0.375000 0.049496
vt 0.180791 0.500000
vt 0.330928 0.574320
vt 0.125000 0.700504
vt 0.804283 0.500000
vt 0.842867 0.681766
vt 0.658516 0.626313
vt 0.875000 0.500000
vt 0.501754 0.540833
vt 0.565165 0.799791
vt 0.325310 0.750000
vt 0.604031 0.069198
vt 0.375000 1.000000
vt 0.375000 0.799690
vt 0.578028 1.000000
vt 0.615335 0.592735
vt 0.589707 0.775249
vt 0.581909 0.353207
s 0
g Cube_Material
usemtl Material
f 300/471/286 302/472/286 301/473/286
f 302/474/287 305/475/287 301/476/287
f 306/477/288 303/478/288 307/479/288
f 303/478/289 306/477/289 300/480/289
f 308/481/290 299/482/290 304/483/290 305/475/290
f 301/473/291 303/484/291 300/471/291
f 301/485/292 304/486/292 299/482/292 303/487/292
f 305/475/293 304/483/293 301/476/293
f 307/488/294 303/478/294 299/489/294
f 299/482/295 308/481/295 307/488/295
f 308/481/296 305/475/296 302/472/296 306/490/296
f 308/481/297 306/490/297 307/488/297
f 302/472/298 300/471/298 306/490/298
o Cube
v -3.441125 -0.311732 3.053018
v -3.062686 0.046262 2.237290
v -2.750814 -0.272848 2.648056
v -2.710012 0.256722 2.594254
v -3.459760 -0.306792 2.469174
v -2.920835 -0.208685 3.142555
v -2.747730 0.217878 3.054496
v -3.334717 0.454288 2.502721
v -3.599073 0.261656 2.904282
v -3.243896 0.464495 3.049472
vn 0.7415 -0.1241 -0.6594
vn 0.9947 -0.0690 0.0757
vn -0.8582 0.1625 -0.4870
vn -0.5844 0.1313 -0.8008
vn -0.0782 0.0996 0.9919
vn 0.2080 -0.6896 -0.6937
vn 0.0958 -0.9931 0.0680
vn 0.8925 -0.2910 0.3446
vn -0.9656 -0.2586 0.0286
vn -0.4308 0.1136 0.8953
vn 0.3679 0.9298 0.0070
vn -0.5161 0.8537 0.0698
vn 0.3082 0.6545 -0.6904
vt 0.550384 0.206938
vt 0.375000 0.305791
vt 0.375000 0.049496
vt 0.180791 0.500000
vt 0.330928 0.574320
vt 0.125000 0.700504
vt 0.804283 0.500000
vt 0.842867 0.681766
vt 0.658516 0.626313
vt 0.875000 0.500000
vt 0.501754 0.540833
vt 0.565165 0.799791
vt 0.325310 0.750000
vt 0.604031 0.069198
vt 0.375000 1.000000
vt 0.375000 0.799690
vt 0.578028 1.000000
vt 0.615335 0.592735
vt 0.589707 0.775249
vt 0.581909 0.353207
s 0
g Cube_Material
usemtl Material
f 310/491/299 312/492/299 311/493/299
f 312/494/300 315/495/300 311/496/300
f 316/497/301 313/498/301 317/499/301
f 313/498/302 316/497/302 310/500/302
f 318/501/303 309/502/303 314/503/303 315/495/303
f 311/493/304 313/504/304 310/491/304
f 311/505/305 314/506/305 309/502/305 313/507/305
f 315/495/306 314/503/306 311/496/306
f 317/508/307 313/498/307 309/509/307
f 309/502/308 318/501/308 317/508/308
f 318/501/309 315/495/309 312/492/309 316/510/309
f 318/501/310 316/510/310 317/508/310
f 312/492/311 310/491/311 316/510/311
o Cube
v 4.230682 0.922000 1.797167
v 3.247303 0.546234 1.490935
v 3.803109 0.151953 1.578036
v 3.587521 0.308588 1.035190
v 3.591004 0.859543 1.954555
v 4.317395 0.427291 1.452205
v 4.100238 0.399331 0.968540
v 3.404748 1.030675 1.117437
v 3.890778 1.291442 1.317343
v 4.002137 1.017701 0.924440
vn -0.5780 -0.8160 -0.0059
vn 0.1245 -0.9391 -0.3204
vn -0.5411 0.7921 0.2823
vn -0.8262 0.4870 0.2834
vn 0.9272 0.2332 -0.2930
vn -0.4796 -0.5199 0.7069
vn 0.3310 -0.4237 0.8432
vn 0.4390 -0.8866 -0.1458
vn 0.0635 0.8120 0.5802
vn 0.8185 0.5535 -0.1537
vn -0.2264 -0.0197 -0.9738
vn -0.1755 0.7838 -0.5958
vn -0.8280 -0.1480 -0.5409
vt 0.550384 0.206938
vt 0.375000 0.305791
vt 0.375000 0.049496
vt 0.180791 0.500000
vt 0.330928 0.574320
vt 0.125000 0.700504
vt 0.804283 0.500000
vt 0.842867 0.681766
vt 0.658516 0.626313
vt 0.875000 0.500000
vt 0.501754 0.540833
vt 0.565165 0.799791
vt 0.325310 0.750000
vt 0.604031 0.069198
vt 0.375000 1.000000
vt 0.375000 0.799690
vt 0.578028 1.000000
vt 0.615335 0.592735
vt 0.589707 0.775249
vt 0.581909 0.353207
s 0
g Cube_Material
usemtl Material
f 320/511/312 322/512/312 321/513/312
f 322/514/313 325/515/313 321/516/313
f 326/517/314 323/518/314 327/519/314
f 323/518/315 326/517/315 320/520/315
f 328/521/316 319/522/316 324/523/316 325/515/316
f 321/513/317 323/524/317 320/511/317
f 321/525/318 324/526/318 319/522/318 323/527/318
f 325/515/319 324/523/319 321/516/319
f 327/528/320 323/518/320 319/529/320
f 319/522/321 328/521/321 327/528/321
f 328/521/322 325/515/322 322/512/322 326/530/322
f 328/521/323 326/530/323 327/528/323
f 322/512/324 320/511/324 326/530/324
o Cube
v 3.660125 -0.126669 -1.730808
v 3.272122 -0.469718 -0.723445
v 2.897192 -0.084852 -1.187204
v 3.152671 0.153437 -0.669241
v 3.516892 -0.659453 -1.327087
v 3.239375 0.296428 -1.530234
v 3.296103 0.526678 -1.035632
v 3.850629 -0.180158 -0.637759
v 4.107987 -0.063157 -1.173910
v 3.922053 0.367241 -0.978510
vn -0.8373 -0.2046 0.5071
vn -0.8435 0.5047 0.1839
vn 0.6779 -0.7154 0.1693
vn 0.3592 -0.8387 0.4093
vn 0.3534 0.7669 -0.5357
vn -0.6851 -0.7268 -0.0493
vn -0.5606 -0.3247 -0.7618
vn -0.8050 0.5678 -0.1720
vn 0.6803 -0.5500 -0.4844
vn 0.6303 0.5299 -0.5674
vn 0.1614 0.5772 0.8005
vn 0.8734 0.1701 0.4564
vn -0.0945 -0.1042 0.9901
vt 0.550384 0.206938
vt 0.375000 0.305791
vt 0.375000 0.049496
vt 0.180791 0.500000
vt 0.330928 0.574320
vt 0.125000 0.700504
vt 0.804283 0.500000
vt 0.842867 0.681766
vt 0.658516 0.626313
vt 0.875000 0.500000
vt 0.501754 0.540833
vt 0.565165 0.799791
vt 0.325310 0.750000
vt 0.604031 0.069198
vt 0.375000 1.000000
vt 0.375000 0.799690
vt 0.578028 1.000000
vt 0.615335 0.592735
vt 0.589707 0.775249
vt 0.581909 0.353207
s 0
g Cube_Material
usemtl Material
f 330/531/325 332/532/325 331/533/325
f 332/534/326 335/535/326 331/536/326
f 336/537/327 333/538/327 337/539/327
f 333/538/328 336/537/328 330/540/328
f 338/541/329 329/542/329 334/543/329 335/535/329
f 331/533/330 333/544/330 330/531/330
f 331/545/331 334/546/331 329/542/331 333/547/331
f 335/535/332 334/543/332 331/536/332
f 337/548/333 333/538/333 329/549/333
f 329/542/334 338/541/334 337/548/334
f 338/541/335 335/535/335 332/532/335 336/550/335
f 338/541/336 336/550/336 337/548/336
f 332/532/337 330/531/337 336/550/337
o Cube
v -1.883331 -0.107825 2.422965
v -2.944071 -0.092113 2.491128
v -2.552213 -0.515761 2.823817
v -2.867749 -0.668763 2.353890
v -2.404053 0.234446 2.575769
v -2.066592 -0.656609 2.542480
v -2.419073 -0.881559 2.242227
v -2.785101 -0.107512 1.899873
v -2.222883 -0.040170 1.845459
v -2.334825 -0.498443 1.776939
vn -0.7669 -0.2429 0.5940
vn -0.2830 -0.8398 0.4634
vn -0.1462 0.9135 -0.3797
vn -0.4933 0.8559 -0.1549
vn 0.8004 -0.4662 -0.3768
vn -0.3509 0.3557 0.8662
vn 0.4468 0.1362 0.8842
vn 0.0717 -0.8368 0.5428
vn 0.4984 0.8449 -0.1941
vn 0.8479 -0.1303 -0.5138
vn -0.5327 -0.5401 -0.6515
vn -0.1155 0.1744 -0.9779
vn -0.9640 -0.0663 -0.2575
vt 0.550384 0.206938
vt 0.375000 0.305791
vt 0.375000 0.049496
vt 0.180791 0.500000
vt 0.330928 0.574320
vt 0.125000 0.700504
vt 0.804283 0.500000
vt 0.842867 0.681766
vt 0.658516 0.626313
vt 0.875000 0.500000
vt 0.501754 0.540833
vt 0.565165 0.799791
vt 0.325310 0.750000
vt 0.604031 0.069198
vt 0.375000 1.000000
vt 0.375000 0.799690
vt 0.578028 1.000000
vt 0.615335 0.592735
vt 0.589707 0.775249
vt 0.581909 0.353207
s 0
g Cube_Material
usemtl Material
f 340/551/338 342/552/338 341/553/338
f 342/554/339 345/555/339 341/556/339
f 346/557/340 343/558/340 347/559/340
f 343/558/341 346/557/341 340/560/341
f 348/561/342 339/562/342 344/563/342 345/555/342
f 341/553/343 343/564/343 340/551/343
f 341/565/344 344/566/344 339/562/344 343/567/344
f 345/555/345 344/563/345 341/556/345
f 347/568/346 343/558/346 339/569/346
f 339/562/347 348/561/347 347/568/347
f 348/561/348 345/555/348 342/552/348 346/570/348
f 348/561/349 346/570/349 347/568/349
f 342/552/350 340/551/350 346/570/350
o Cube
v -1.682000 0.275129 2.908413
v -2.421228 0.371043 2.686136
v -2.221984 0.582586 3.077451
v -2.489706 0.248086 3.100188
v -1.972810 0.420628 2.569787
v -1.918814 0.351634 3.261892
v -2.221736 0.140093 3.335215
v -2.331653 -0.067744 2.702750
v -1.924986 -0.129360 2.766637
v -2.099270 -0.190064 3.062628
vn -0.7775 0.6262 0.0574
vn -0.4854 0.4399 0.7556
vn 0.0980 -0.3278 -0.9397
vn -0.2413 -0.0859 -0.9666
vn 0.6214 -0.4444 0.6453
vn -0.1996 0.9009 -0.3854
vn 0.5052 0.8617 0.0465
vn -0.1409 0.4983 0.8555
vn 0.7053 -0.1837 -0.6847
vn 0.7547 -0.5683 0.3278
vn -0.6901 -0.6434 0.3314
vn -0.1049 -0.9603 -0.2587
vn -0.9545 -0.2031 -0.2182
vt 0.550384 0.206938
vt 0.375000 0.305791
vt 0.375000 0.049496
vt 0.180791 0.500000
vt 0.330928 0.574320
vt 0.125000 0.700504
vt 0.804283 0.500000
vt 0.842867 0.681766
vt 0.658516 0.626313
vt 0.875000 0.500000
vt 0.501754 0.540833
vt 0.565165 0.799791
vt 0.325310 0.750000
vt 0.604031 0.069198
vt 0.375000 1.000000
vt 0.375000 0.799690
vt 0.578028 1.000000
vt 0.615335 0.592735
vt 0.589707 0.775249
vt 0.581909 0.353207
s 0
g Cube_Material
usemtl Material
f 350/571/351 352/572/351 351/573/351
f 352/574/352 355/575/352 351/576/352
f 356/577/353 353/578/353 357/579/353
f 353/578/354 356/577/354 350/580/354
f 358/581/355 349/582/355 354/583/355 355/575/355
f 351/573/356 353/584/356 350/571/356
f 351/585/357 354/586/357 349/582/357 353/587/357
f 355/575/358 354/583/358 351/576/358
f 357/588/359 353/578/359 349/589/359
f 349/582/360 358/581/360 357/588/360
f 358/581/361 355/575/361 352/572/361 356/590/361
f 358/581/362 356/590/362 357/588/362
f 352/572/363 350/571/363 356/590/363
o Cube
v 2.219865 0.882264 -1.370313
v 2.907173 0.351972 -1.861407
v 2.307866 0.397319 -2.032779
v 2.521079 -0.048551 -1.791146
v 2.743526 0.892643 -1.667030
v 1.963837 0.457051 -1.617074
v 2.117656 0.005513 -1.541397
v 2.925135 0.207655 -1.305496
v 2.613046 0.533199 -1.020070
v 2.409866 0.137777 -1.069010
vn 0.2281 -0.3773 -0.8975
vn -0.4823 -0.5843 -0.6526
vn 0.8110 0.4264 0.4005
vn 0.9603 0.2760 0.0406
vn -0.7837 -0.0297 0.6205
vn 0.2799 0.3987 -0.8733
vn -0.4282 0.7011 -0.5701
vn -0.7459 -0.3492 -0.5672
vn 0.2720 0.8168 0.5087
vn -0.5565 0.1857 0.8098
vn 0.1590 -0.9498 0.2696
vn 0.4305 -0.3254 0.8419
vn 0.6868 -0.6978 -0.2033
vt 0.550384 0.206938
vt 0.375000 0.305791
vt 0.375000 0.049496
vt 0.180791 0.500000
vt 0.330928 0.574320
vt 0.125000 0.700504
vt 0.804283 0.500000
vt 0.842867 0.681766
vt 0.658516 0.626313
vt 0.875000 0.500000
vt 0.501754 0.540833
vt 0.565165 0.799791
vt 0.325310 0.750000
vt 0.604031 0.069198
vt 0.375000 1.000000
vt 0.375000 0.799690
vt 0.578028 1.000000
vt 0.615335 0.592735
vt 0.589707 0.775249
vt 0.581909 0.353207
s 0
g Cube_Material
usemtl Material
f 360/591/364 362/592/364 361/593/364
f 362/594/365 365/595/365 361/596/365
f 366/597/366 363/598/366 367/599/366
f 363/598/367 366/597/367 360/600/367
f 368/601/368 359/602/368 364/603/368 365/595/368
f 361/593/369 363/604/369 360/591/369
f 361/605/370 364/606/370 359/602/370 363/607/370
f 365/595/371 364/603/371 361/596/371
f 367/608/372 363/598/372 359/609/372
f 359/602/373 368/601/373 367/608/373
f 368/601/374 365/595/374 362/592/374 366/610/374
f 368/601/375 366/610/375 367/608/375
f 362/592/376 360/591/376 366/610/376
o Cube
v -3.076658 0.498756 -0.817233
v -2.683099 -0.092861 -0.445455
v -2.635228 0.394430 -0.332442
v -2.331435 0.165698 -0.558386
v -3.112066 0.093226 -0.555389
v -2.687230 0.661349 -0.673901
v -2.355348 0.484576 -0.770935
v -2.628265 -0.141817 -0.901592
v -2.880327 0.134558 -1.111912
v -2.540597 0.252141 -1.120840
vn 0.4542 -0.2434 0.8570
vn 0.7236 0.4196 0.5481
vn -0.5813 -0.7571 -0.2983
vn -0.4080 -0.9117 0.0488
vn 0.0573 0.7456 -0.6639
vn -0.3183 -0.1844 0.9299
vn -0.5571 0.5469 0.6249
vn 0.5178 0.7105 0.4765
vn -0.9047 -0.1725 -0.3895
vn -0.2097 0.5442 -0.8123
vn 0.8766 -0.3042 -0.3728
vn 0.1529 -0.5063 -0.8487
vn 0.6172 -0.7710 0.1569
vt 0.550384 0.206938
vt 0.375000 0.305791
vt 0.375000 0.049496
vt 0.180791 0.500000
vt 0.330928 0.574320
vt 0.125000 0.700504
vt 0.804283 0.500000
vt 0.842867 0.681766
vt 0.658516 0.626313
vt 0.875000 0.500000
vt 0.501754 0.540833
vt 0.565165 0.799791
vt 0.325310 0.750000
vt 0.604031 0.069198
vt 0.375000 1.000000
vt 0.375000 0.799690
vt 0.578028 1.000000
vt 0.615335 0.592735
vt 0.589707 0.775249
vt 0.581909 0.353207
s 0
g Cube_Material
usemtl Material
f 370/611/377 372/612/377 371/613/377
f 372/614/378 375/615/378 371/616/378
f 376/617/379 373/618/379 377/619/379
f 373/618/380 376/617/380 370/620/380
f 378/621/381 369/622/381 374/623/381 375/615/381
f 371/613/382 373/624/382 370/611/382
f 371/625/383 374/626/383 369/622/383 373/627/383
f 375/615/384 374/623/384 371/616/384
f 377/628/385 373/618/385 369/629/385
f 369/622/386 378/621/386 377/628/386
f 378/621/387 375/615/387 372/612/387 376/630/387
f 378/621/388 376/630/388 377/628/388
f 372/612/389 370/611/389 376/630/389
o Cube
v 1.524435 -0.294707 0.927056
v 1.818004 0.453421 1.277951
v 1.727686 0.377039 0.741338
v 2.169149 0.384283 0.938863
v 1.428586 0.101176 1.265015
v 1.801604 -0.071050 0.594384
v 2.197999 0.045877 0.692003
v 2.103517 0.072141 1.446346
v 1.918794 -0.338968 1.315708
v 2.230588 -0.258280 1.090076
vn 0.0505 0.9875 -0.1491
vn 0.3262 0.5751 -0.7502
vn -0.2624 -0.1831 0.9474
vn -0.2429 0.2339 0.9414
vn 0.2364 -0.8235 -0.5157
vn -0.6709 0.7415 0.0074
vn -0.8545 0.1187 -0.5058
vn 0.1333 0.3286 -0.9350
vn -0.5945 -0.6005 0.5348
vn 0.0989 -0.9724 -0.2111
vn 0.9853 0.1223 0.1192
vn 0.5935 -0.4735 0.6508
vn 0.5892 0.6520 0.4772
vt 0.550384 0.206938
vt 0.375000 0.305791
vt 0.375000 0.049496
vt 0.180791 0.500000
vt 0.330928 0.574320
vt 0.125000 0.700504
vt 0.804283 0.500000
vt 0.842867 0.681766
vt 0.658516 0.626313
vt 0.875000 0.500000
vt 0.501754 0.540833
vt 0.565165 0.799791
vt 0.325310 0.750000
vt 0.604031 0.069198
vt 0.375000 1.000000
vt 0.375000 0.799690
vt 0.578028 1.000000
vt 0.615335 0.592735
vt 0.589707 0.775249
vt 0.581909 0.353207
s 0
g Cube_Material
usemtl Material
f 380/631/390 382/632/390 381/633/390
f 382/634/391 385/635/391 381/636/391
f 386/637/392 383/638/392 387/639/392
f 383/638/393 386/637/393 380/640/393
f 388/641/394 379/642/394 384/643/394 385/635/394
f 381/633/395 383/644/395 380/631/395
f 381/645/396 384/646/396 379/642/396 383/647/396
f 385/635/397 384/643/397 381/636/397
f 387/648/398 383/638/398 379/649/398
f 379/642/399 388/641/399 387/648/399
f 388/641/400 385/635/400 382/632/400 386/650/400
f 388/641/401 386/650/401 387/648/401
f 382/632/402 380/631/402 386/650/402
o Cube
v 2.272961 0.745047 1.726835
v 1.127054 1.005141 1.718229
v 1.430197 0.476932 2.132082
v 1.086881 0.357242 1.595514
v 1.778802 1.240788 1.841045
v 1.941388 0.199811 1.865618
v 1.530089 0.019927 1.515936
v 1.335673 0.920473 1.079767
v 1.961604 0.863402 1.061221
v 1.740617 0.389667 0.994854
vn -0.8359 -0.0517 0.5464
vn -0.4789 -0.7405 0.4716
vn 0.0700 0.9043 -0.4212
vn -0.2948 0.9300 -0.2197
vn 0.7084 -0.6378 -0.3024
vn -0.3227 0.4620 0.8261
vn 0.4096 0.0854 0.9083
vn -0.1369 -0.8061 0.5757
vn 0.6736 0.7148 -0.1880
vn 0.8328 -0.3258 -0.4475
vn -0.5915 -0.4513 -0.6681
vn -0.0160 0.1460 -0.9892
vn -0.9390 0.1193 -0.3226
vt 0.550384 0.206938
vt 0.375000 0.305791
vt 0.375000 0.049496
vt 0.180791 0.500000
vt 0.330928 0.574320
vt 0.125000 0.700504
vt 0.804283 0.500000
vt 0.842867 0.681766
vt 0.658516 0.626313
vt 0.875000 0.500000
vt 0.501754 0.540833
vt 0.565165 0.799791
vt 0.325310 0.750000
vt 0.604031 0.069198
vt 0.375000 1.000000
vt 0.375000 0.799690
vt 0.578028 1.000000
vt 0.615335 0.592735
vt 0.589707 0.775249
vt 0.581909 0.353207
s 0
g Cube_Material
usemtl Material
f 390/651/403 392/652/403 391/653/403
f 392/654/404 395/655/404 391/656/404
f 396/657/405 393/658/405 397/659/405
f 393/658/406 396/657/406 390/660/406
f 398/661/407 389/662/407 394/663/407 395/655/407
f 391/653/408 393/664/408 390/651/408
f 391/665/409 394/666/409 389/662/409 393/667/409
f 395/655/410 394/663/410 391/656/410
f 397/668/411 393/658/411 389/669/411
f 389/662/412 398/661/412 397/668/412
f 398/661/413 395/655/413 392/652/413 396/670/413
f 398/661/414 396/670/414 397/668/414
f 392/652/415 390/651/415 396/670/415
o Cube
v 2.140498 0.550265 0.158666
v 1.861381 0.217245 -0.751503
v 2.194900 -0.121109 -0.334746
v 2.417986 0.114840 -0.786448
v 1.676722 0.425705 -0.215420
v 2.524189 0.180654 -0.015541
v 2.740649 0.239287 -0.449411
v 2.117992 0.734965 -0.812759
v 2.207898 0.957146 -0.329204
v 2.596677 0.796553 -0.495363
vn -0.1857 -0.8303 -0.5254
vn 0.5146 -0.8376 -0.1834
vn -0.7148 0.6763 -0.1779
vn -0.8296 0.3608 -0.4261
vn 0.7500 0.3493 0.5616
vn -0.7237 -0.6899 0.0190
vn -0.3415 -0.5744 0.7439
vn 0.5679 -0.8044 0.1746
vn -0.5670 0.6694 0.4800
vn 0.5106 0.6243 0.5912
vn 0.5975 0.1773 -0.7820
vn 0.1769 0.8814 -0.4379
vn -0.0770 -0.0794 -0.9939
vt 0.550384 0.206938
vt 0.375000 0.305791
vt 0.375000 0.049496
vt 0.180791 0.500000
vt 0.330928 0.574320
vt 0.125000 0.700504
vt 0.804283 0.500000
vt 0.842867 0.681766
vt 0.658516 0.626313
vt 0.875000 0.500000
vt 0.501754 0.540833
vt 0.565165 0.799791
vt 0.325310 0.750000
vt 0.604031 0.069198
vt 0.375000 1.000000
vt 0.375000 0.799690
vt 0.578028 1.000000
vt 0.615335 0.592735
vt 0.589707 0.775249
vt 0.581909 0.353207
s 0
g Cube_Material
usemtl Material
f 400/671/416 402/672/416 401/673/416
f 402/674/417 405/675/417 401/676/417
f 406/677/418 403/678/418 407/679/418
f 403/678/419 406/677/419 400/680/419
f 408/681/420 399/682/420 404/683/420 405/675/420
f 401/673/421 403/684/421 400/671/421
f 401/685/422 404/686/422 399/682/422 403/687/422
f 405/675/423 404/683/423 401/676/423
f 407/688/424 403/678/424 399/689/424
f 399/682/425 408/681/425 407/688/425
f 408/681/426 405/675/426 402/672/426 406/690/426
f 408/681/427 406/690/427 407/688/427
f 402/672/428 400/671/428 406/690/428
o Cube
v -0.732436 0.010619 -1.345960
v -1.765313 -0.003257 -1.067379
v -1.261790 -0.181955 -0.662451
v -1.621647 -0.569526 -0.924234
v -1.273102 0.354874 -1.267687
v -0.807429 -0.417549 -0.940274
v -1.165504 -0.784647 -1.014004
v -1.700130 -0.304397 -1.601227
v -1.167427 -0.240383 -1.800946
v -1.216269 -0.680092 -1.615366
vn -0.6170 0.0421 0.7858
vn -0.0725 -0.5111 0.8564
vn -0.3444 0.5918 -0.7288
vn -0.6387 0.6342 -0.4357
vn 0.7942 -0.5448 -0.2691
vn -0.2618 0.7196 0.6431
vn 0.5532 0.5849 0.5932
vn 0.2854 -0.4485 0.8470
vn 0.3241 0.6625 -0.6753
vn 0.7667 -0.3200 -0.5565
vn -0.5376 -0.8230 -0.1836
vn -0.2931 -0.3439 -0.8921
vn -0.9702 -0.2416 0.0178
vt 0.550384 0.206938
vt 0.375000 0.305791
vt 0.375000 0.049496
vt 0.180791 0.500000
vt 0.330928 0.574320
vt 0.125000 0.700504
vt 0.804283 0.500000
vt 0.842867 0.681766
vt 0.658516 0.626313
vt 0.875000 0.500000
vt 0.501754 0.540833
vt 0.565165 0.799791
vt 0.325310 0.750000
vt 0.604031 0.069198
vt 0.375000 1.000000
vt 0.375000 0.799690
vt 0.578028 1.000000
vt 0.615335 0.592735
vt 0.589707 0.775249
vt 0.581909 0.353207
s 0
g Cube_Material
usemtl Material
f 410/691/429 412/692/429 411/693/429
f 412/694/430 415/695/430 411/696/430
f 416/697/431 413/698/431 417/699/431
f 413/698/432 416/697/432 410/700/432
f 418/701/433 409/702/433 414/703/433 415/695/433
f 411/693/434 413/704/434 410/691/434
f 411/705/435 414/706/435 409/702/435 413/707/435
f 415/695/436 414/703/436 411/696/436
f 417/708/437 413/698/437 409/709/437
f 409/702/438 418/701/438 417/708/438
f 418/701/439 415/695/439 412/692/439 416/710/439
f 418/701/440 416/710/440 417/708/440
f 412/692/441 410/691/441 416/710/441
o Cube
v -1.820557 0.051800 0.228621
v -1.842972 0.873527 0.198702
v -1.444243 0.587463 0.041033
v -1.446286 0.820376 0.430396
v -2.051541 0.452947 0.049161
v -1.392310 0.206291 0.270129
v -1.303377 0.473910 0.551448
v -1.962596 0.733753 0.635442
v -2.010805 0.296397 0.647485
v -1.690588 0.388760 0.805572
vn 0.3825 0.7938 -0.4728
vn 0.9295 0.3185 -0.1857
vn -0.9890 0.1117 0.0966
vn -0.8789 0.4682 -0.0909
vn 0.3598 -0.8035 0.4742
vn -0.0954 0.3752 -0.9220
vn 0.1451 -0.4163 -0.8976
vn 0.9615 -0.0329 -0.2727
vn -0.8481 -0.5238 -0.0793
vn 0.0001 -0.8635 0.5043
vn 0.3065 0.5197 0.7975
vn -0.4587 0.0749 0.8854
vn -0.0436 0.9549 0.2937
vt 0.550384 0.206938
vt 0.375000 0.305791
vt 0.375000 0.049496
vt 0.180791 0.500000
vt 0.330928 0.574320
vt 0.125000 0.700504
vt 0.804283 0.500000
vt 0.842867 0.681766
vt 0.658516 0.626313
vt 0.875000 0.500000
vt 0.501754 0.540833
vt 0.565165 0.799791
vt 0.325310 0.750000
vt 0.604031 0.069198
vt 0.375000 1.000000
vt 0.375000 0.799690
vt 0.578028 1.000000
vt 0.615335 0.592735
vt 0.589707 0.775249
vt 0.581909 0.353207
s 0
g Cube_Material
usemtl Material
f 420/711/442 422/712/442 421/713/442
f 422/714/443 425/715/443 421/716/443
f 426/717/444 423/718/444 427/719/444
f 423/718/445 426/717/445 420/720/445
f 428/721/446 419/722/446 424/723/446 425/715/446
f 421/713/447 423/724/447 420/711/447
f 421/725/448 424/726/448 419/722/448 423/727/448
f 425/715/449 424/723/449 421/716/449
f 427/728/450 423/718/450 419/729/450
f 419/722/451 428/721/451 427/728/451
f 428/721/452 425/715/452 422/712/452 426/730/452
f 428/721/453 426/730/453 427/728/453
f 422/712/454 420/711/454 426/730/454
