# Blender 4.1.0
# www.blender.org
mtllib Explosion20010.mtl
o Circle
v -0.024615 0.096888 -1.522372
v -0.024615 0.242742 -1.522372
v 0.122545 0.096888 -1.515142
v 0.122545 0.242742 -1.515142
v 0.268288 0.096888 -1.493523
v 0.268288 0.242742 -1.493523
v 0.411211 0.096888 -1.457723
v 0.411211 0.242742 -1.457723
v 0.549936 0.096888 -1.408086
v 0.549936 0.242742 -1.408086
v 0.683127 0.096888 -1.345092
v 0.683127 0.242742 -1.345092
v 0.809503 0.096888 -1.269345
v 0.809503 0.242742 -1.269345
v 0.927846 0.096888 -1.181576
v 0.927846 0.242742 -1.181576
v 1.037016 0.096888 -1.082630
v 1.037016 0.242742 -1.082630
v 1.135962 0.096888 -0.973460
v 1.135962 0.242742 -0.973460
v 1.223731 0.096888 -0.855117
v 1.223731 0.242742 -0.855117
v 1.299478 0.096888 -0.728741
v 1.299478 0.242742 -0.728741
v 1.362473 0.096888 -0.595549
v 1.362473 0.242742 -0.595549
v 1.412110 0.096888 -0.456824
v 1.412110 0.242742 -0.456824
v 1.447910 0.096888 -0.313902
v 1.447910 0.242742 -0.313902
v 1.469529 0.096888 -0.168159
v 1.469529 0.242742 -0.168159
v 1.476758 0.096888 -0.020998
v 1.476758 0.242742 -0.020998
v 1.469529 0.096888 0.126162
v 1.469529 0.242742 0.126162
v 1.447910 0.096888 0.271905
v 1.447910 0.242742 0.271905
v 1.412110 0.096888 0.414827
v 1.412110 0.242742 0.414827
v 1.362473 0.096888 0.553553
v 1.362473 0.242742 0.553553
v 1.299478 0.096888 0.686744
v 1.299478 0.242742 0.686744
v 1.223731 0.096888 0.813120
v 1.223731 0.242742 0.813120
v 1.135962 0.096888 0.931463
v 1.135962 0.242742 0.931463
v 1.037016 0.096888 1.040633
v 1.037016 0.242742 1.040633
v 0.927846 0.096888 1.139579
v 0.927846 0.242742 1.139579
v 0.809503 0.096888 1.227348
v 0.809503 0.242742 1.227348
v 0.683127 0.096888 1.303095
v 0.683127 0.242742 1.303095
v 0.549936 0.096888 1.366090
v 0.549936 0.242742 1.366090
v 0.411211 0.096888 1.415727
v 0.411211 0.242742 1.415727
v 0.268288 0.096888 1.451527
v 0.268288 0.242742 1.451527
v 0.122545 0.096888 1.473146
v 0.122545 0.242742 1.473146
v -0.024615 0.096888 1.480376
v -0.024615 0.242742 1.480376
v -0.171775 0.096888 1.473146
v -0.171775 0.242742 1.473146
v -0.317519 0.096888 1.451527
v -0.317519 0.242742 1.451527
v -0.460441 0.096888 1.415727
v -0.460441 0.242742 1.415727
v -0.599166 0.096888 1.366090
v -0.599166 0.242742 1.366090
v -0.732358 0.096888 1.303095
v -0.732358 0.242742 1.303095
v -0.858734 0.096888 1.227348
v -0.858734 0.242742 1.227348
v -0.977076 0.096888 1.139579
v -0.977076 0.242742 1.139579
v -1.086246 0.096888 1.040633
v -1.086246 0.242742 1.040633
v -1.185192 0.096888 0.931463
v -1.185192 0.242742 0.931463
v -1.272961 0.096888 0.813120
v -1.272961 0.242742 0.813120
v -1.348708 0.096888 0.686744
v -1.348708 0.242742 0.686744
v -1.411703 0.096888 0.553553
v -1.411703 0.242742 0.553553
v -1.461340 0.096888 0.414827
v -1.461340 0.242742 0.414827
v -1.497140 0.096888 0.271905
v -1.497140 0.242742 0.271905
v -1.518759 0.096888 0.126162
v -1.518759 0.242742 0.126162
v -1.525989 0.096888 -0.020998
v -1.525989 0.242742 -0.020998
v -1.518759 0.096888 -0.168159
v -1.518759 0.242742 -0.168159
v -1.497140 0.096888 -0.313902
v -1.497140 0.242742 -0.313902
v -1.461340 0.096888 -0.456824
v -1.461340 0.242742 -0.456824
v -1.411703 0.096888 -0.595549
v -1.411703 0.242742 -0.595549
v -1.348708 0.096888 -0.728741
v -1.348708 0.242742 -0.728741
v -1.272961 0.096888 -0.855117
v -1.272961 0.242742 -0.855117
v -1.185192 0.096888 -0.973460
v -1.185192 0.242742 -0.973460
v -1.086246 0.096888 -1.082630
v -1.086246 0.242742 -1.082630
v -0.977076 0.096888 -1.181576
v -0.977076 0.242742 -1.181576
v -0.858734 0.096888 -1.269345
v -0.858734 0.242742 -1.269345
v -0.732358 0.096888 -1.345092
v -0.732358 0.242742 -1.345092
v -0.599166 0.096888 -1.408086
v -0.599166 0.242742 -1.408086
v -0.460441 0.096888 -1.457723
v -0.460441 0.242742 -1.457723
v -0.317519 0.096888 -1.493523
v -0.317519 0.242742 -1.493523
v -0.171775 0.096888 -1.515142
v -0.171775 0.242742 -1.515142
vn 0.0491 -0.0000 -0.9988
vn 0.1467 -0.0000 -0.9892
vn 0.2430 -0.0000 -0.9700
vn 0.3369 -0.0000 -0.9415
vn 0.4276 -0.0000 -0.9040
vn 0.5141 -0.0000 -0.8577
vn 0.5957 -0.0000 -0.8032
vn 0.6716 -0.0000 -0.7410
vn 0.7410 -0.0000 -0.6716
vn 0.8032 -0.0000 -0.5957
vn 0.8577 -0.0000 -0.5141
vn 0.9040 -0.0000 -0.4276
vn 0.9415 -0.0000 -0.3369
vn 0.9700 -0.0000 -0.2430
vn 0.9892 -0.0000 -0.1467
vn 0.9988 -0.0000 -0.0491
vn 0.9988 -0.0000 0.0491
vn 0.9892 -0.0000 0.1467
vn 0.9700 -0.0000 0.2430
vn 0.9415 -0.0000 0.3369
vn 0.9040 -0.0000 0.4276
vn 0.8577 -0.0000 0.5141
vn 0.8032 -0.0000 0.5957
vn 0.7410 -0.0000 0.6716
vn 0.6716 -0.0000 0.7410
vn 0.5957 -0.0000 0.8032
vn 0.5141 -0.0000 0.8577
vn 0.4276 -0.0000 0.9040
vn 0.3369 -0.0000 0.9415
vn 0.2430 -0.0000 0.9700
vn 0.1467 -0.0000 0.9892
vn 0.0491 -0.0000 0.9988
vn -0.0491 -0.0000 0.9988
vn -0.1467 -0.0000 0.9892
vn -0.2430 -0.0000 0.9700
vn -0.3369 -0.0000 0.9415
vn -0.4276 -0.0000 0.9040
vn -0.5141 -0.0000 0.8577
vn -0.5957 -0.0000 0.8032
vn -0.6716 -0.0000 0.7410
vn -0.7410 -0.0000 0.6716
vn -0.8032 -0.0000 0.5957
vn -0.8577 -0.0000 0.5141
vn -0.9040 -0.0000 0.4276
vn -0.9415 -0.0000 0.3369
vn -0.9700 -0.0000 0.2430
vn -0.9892 -0.0000 0.1467
vn -0.9988 -0.0000 0.0491
vn -0.9988 -0.0000 -0.0491
vn -0.9892 -0.0000 -0.1467
vn -0.9700 -0.0000 -0.2430
vn -0.9415 -0.0000 -0.3369
vn -0.9040 -0.0000 -0.4276
vn -0.8577 -0.0000 -0.5141
vn -0.8032 -0.0000 -0.5957
vn -0.7410 -0.0000 -0.6716
vn -0.6716 -0.0000 -0.7410
vn -0.5957 -0.0000 -0.8032
vn -0.5141 -0.0000 -0.8577
vn -0.4276 -0.0000 -0.9040
vn -0.3369 -0.0000 -0.9415
vn -0.2430 -0.0000 -0.9700
vn -0.1467 -0.0000 -0.9892
vn -0.0491 -0.0000 -0.9988
vt 1.000000 0.500000
vt 1.000000 1.000000
vt 0.984375 1.000000
vt 0.984375 0.500000
vt 0.968750 1.000000
vt 0.968750 0.500000
vt 0.953125 1.000000
vt 0.953125 0.500000
vt 0.937500 1.000000
vt 0.937500 0.500000
vt 0.921875 1.000000
vt 0.921875 0.500000
vt 0.906250 1.000000
vt 0.906250 0.500000
vt 0.890625 1.000000
vt 0.890625 0.500000
vt 0.875000 1.000000
vt 0.875000 0.500000
vt 0.859375 1.000000
vt 0.859375 0.500000
vt 0.843750 1.000000
vt 0.843750 0.500000
vt 0.828125 1.000000
vt 0.828125 0.500000
vt 0.812500 1.000000
vt 0.812500 0.500000
vt 0.796875 1.000000
vt 0.796875 0.500000
vt 0.781250 1.000000
vt 0.781250 0.500000
vt 0.765625 1.000000
vt 0.765625 0.500000
vt 0.750000 1.000000
vt 0.750000 0.500000
vt 0.734375 1.000000
vt 0.734375 0.500000
vt 0.718750 1.000000
vt 0.718750 0.500000
vt 0.703125 1.000000
vt 0.703125 0.500000
vt 0.687500 1.000000
vt 0.687500 0.500000
vt 0.671875 1.000000
vt 0.671875 0.500000
vt 0.656250 1.000000
vt 0.656250 0.500000
vt 0.640625 1.000000
vt 0.640625 0.500000
vt 0.625000 1.000000
vt 0.625000 0.500000
vt 0.609375 1.000000
vt 0.609375 0.500000
vt 0.593750 1.000000
vt 0.593750 0.500000
vt 0.578125 1.000000
vt 0.578125 0.500000
vt 0.562500 1.000000
vt 0.562500 0.500000
vt 0.546875 1.000000
vt 0.546875 0.500000
vt 0.531250 1.000000
vt 0.531250 0.500000
vt 0.515625 1.000000
vt 0.515625 0.500000
vt 0.500000 1.000000
vt 0.500000 0.500000
vt 0.484375 1.000000
vt 0.484375 0.500000
vt 0.468750 1.000000
vt 0.468750 0.500000
vt 0.453125 1.000000
vt 0.453125 0.500000
vt 0.437500 1.000000
vt 0.437500 0.500000
vt 0.421875 1.000000
vt 0.421875 0.500000
vt 0.406250 1.000000
vt 0.406250 0.500000
vt 0.390625 1.000000
vt 0.390625 0.500000
vt 0.375000 1.000000
vt 0.375000 0.500000
vt 0.359375 1.000000
vt 0.359375 0.500000
vt 0.343750 1.000000
vt 0.343750 0.500000
vt 0.328125 1.000000
vt 0.328125 0.500000
vt 0.312500 1.000000
vt 0.312500 0.500000
vt 0.296875 1.000000
vt 0.296875 0.500000
vt 0.281250 1.000000
vt 0.281250 0.500000
vt 0.265625 1.000000
vt 0.265625 0.500000
vt 0.250000 1.000000
vt 0.250000 0.500000
vt 0.234375 1.000000
vt 0.234375 0.500000
vt 0.218750 1.000000
vt 0.218750 0.500000
vt 0.203125 1.000000
vt 0.203125 0.500000
vt 0.187500 1.000000
vt 0.187500 0.500000
vt 0.171875 1.000000
vt 0.171875 0.500000
vt 0.156250 1.000000
vt 0.156250 0.500000
vt 0.140625 1.000000
vt 0.140625 0.500000
vt 0.125000 1.000000
vt 0.125000 0.500000
vt 0.109375 1.000000
vt 0.109375 0.500000
vt 0.093750 1.000000
vt 0.093750 0.500000
vt 0.078125 1.000000
vt 0.078125 0.500000
vt 0.062500 1.000000
vt 0.062500 0.500000
vt 0.046875 1.000000
vt 0.046875 0.500000
vt 0.031250 1.000000
vt 0.031250 0.500000
vt 0.015625 1.000000
vt 0.015625 0.500000
vt 0.000000 1.000000
vt 0.000000 0.500000
s 0
g Circle_Material.001
usemtl Material.001
f 1/1/1 2/2/1 4/3/1 3/4/1
f 3/4/2 4/3/2 6/5/2 5/6/2
f 5/6/3 6/5/3 8/7/3 7/8/3
f 7/8/4 8/7/4 10/9/4 9/10/4
f 9/10/5 10/9/5 12/11/5 11/12/5
f 11/12/6 12/11/6 14/13/6 13/14/6
f 13/14/7 14/13/7 16/15/7 15/16/7
f 15/16/8 16/15/8 18/17/8 17/18/8
f 17/18/9 18/17/9 20/19/9 19/20/9
f 19/20/10 20/19/10 22/21/10 21/22/10
f 21/22/11 22/21/11 24/23/11 23/24/11
f 23/24/12 24/23/12 26/25/12 25/26/12
f 25/26/13 26/25/13 28/27/13 27/28/13
f 27/28/14 28/27/14 30/29/14 29/30/14
f 29/30/15 30/29/15 32/31/15 31/32/15
f 31/32/16 32/31/16 34/33/16 33/34/16
f 33/34/17 34/33/17 36/35/17 35/36/17
f 35/36/18 36/35/18 38/37/18 37/38/18
f 37/38/19 38/37/19 40/39/19 39/40/19
f 39/40/20 40/39/20 42/41/20 41/42/20
f 41/42/21 42/41/21 44/43/21 43/44/21
f 43/44/22 44/43/22 46/45/22 45/46/22
f 45/46/23 46/45/23 48/47/23 47/48/23
f 47/48/24 48/47/24 50/49/24 49/50/24
f 49/50/25 50/49/25 52/51/25 51/52/25
f 51/52/26 52/51/26 54/53/26 53/54/26
f 53/54/27 54/53/27 56/55/27 55/56/27
f 55/56/28 56/55/28 58/57/28 57/58/28
f 57/58/29 58/57/29 60/59/29 59/60/29
f 59/60/30 60/59/30 62/61/30 61/62/30
f 61/62/31 62/61/31 64/63/31 63/64/31
f 63/64/32 64/63/32 66/65/32 65/66/32
f 65/66/33 66/65/33 68/67/33 67/68/33
f 67/68/34 68/67/34 70/69/34 69/70/34
f 69/70/35 70/69/35 72/71/35 71/72/35
f 71/72/36 72/71/36 74/73/36 73/74/36
f 73/74/37 74/73/37 76/75/37 75/76/37
f 75/76/38 76/75/38 78/77/38 77/78/38
f 77/78/39 78/77/39 80/79/39 79/80/39
f 79/80/40 80/79/40 82/81/40 81/82/40
f 81/82/41 82/81/41 84/83/41 83/84/41
f 83/84/42 84/83/42 86/85/42 85/86/42
f 85/86/43 86/85/43 88/87/43 87/88/43
f 87/88/44 88/87/44 90/89/44 89/90/44
f 89/90/45 90/89/45 92/91/45 91/92/45
f 91/92/46 92/91/46 94/93/46 93/94/46
f 93/94/47 94/93/47 96/95/47 95/96/47
f 95/96/48 96/95/48 98/97/48 97/98/48
f 97/98/49 98/97/49 100/99/49 99/100/49
f 99/100/50 100/99/50 102/101/50 101/102/50
f 101/102/51 102/101/51 104/103/51 103/104/51
f 103/104/52 104/103/52 106/105/52 105/106/52
f 105/106/53 106/105/53 108/107/53 107/108/53
f 107/108/54 108/107/54 110/109/54 109/110/54
f 109/110/55 110/109/55 112/111/55 111/112/55
f 111/112/56 112/111/56 114/113/56 113/114/56
f 113/114/57 114/113/57 116/115/57 115/116/57
f 115/116/58 116/115/58 118/117/58 117/118/58
f 117/118/59 118/117/59 120/119/59 119/120/59
f 119/120/60 120/119/60 122/121/60 121/122/60
f 121/122/61 122/121/61 124/123/61 123/124/61
f 123/124/62 124/123/62 126/125/62 125/126/62
f 125/126/63 126/125/63 128/127/63 127/128/63
f 127/128/64 128/127/64 2/129/64 1/130/64
o Cube
v 3.575295 0.113452 2.862516
v 3.061185 0.705117 2.060359
v 3.091544 0.895798 2.736081
v 2.584621 0.660554 2.470812
v 3.641382 0.443435 2.275202
v 3.104560 0.425967 3.125648
v 2.601481 0.377522 2.926839
v 2.854996 0.093431 2.031575
v 3.178243 -0.252190 2.400668
v 2.727693 -0.164162 2.606066
vn -0.2987 0.9219 -0.2467
vn -0.5591 0.6950 0.4520
vn 0.4370 -0.4331 -0.7883
vn 0.3211 -0.0638 -0.9449
vn -0.1149 -0.6141 0.7808
vn 0.4751 0.8410 -0.2587
vn 0.7180 0.5189 0.4639
vn -0.3446 0.5935 0.7273
vn 0.7904 -0.5677 -0.2300
vn 0.0974 -0.8194 0.5649
vn -0.9575 -0.2002 -0.2076
vn -0.3635 -0.8173 -0.4470
vn -0.6450 0.2514 -0.7216
vt 0.550384 0.206938
vt 0.375000 0.305791
vt 0.375000 0.049496
vt 0.180791 0.500000
vt 0.330928 0.574320
vt 0.125000 0.700504
vt 0.804283 0.500000
vt 0.842867 0.681766
vt 0.658516 0.626313
vt 0.875000 0.500000
vt 0.501754 0.540833
vt 0.565165 0.799791
vt 0.325310 0.750000
vt 0.604031 0.069198
vt 0.375000 1.000000
vt 0.375000 0.799690
vt 0.578028 1.000000
vt 0.615335 0.592735
vt 0.589707 0.775249
vt 0.581909 0.353207
s 0
g Cube_Material
usemtl Material
f 130/131/65 132/132/65 131/133/65
f 132/134/66 135/135/66 131/136/66
f 136/137/67 133/138/67 137/139/67
f 133/138/68 136/137/68 130/140/68
f 138/141/69 129/142/69 134/143/69 135/135/69
f 131/133/70 133/144/70 130/131/70
f 131/145/71 134/146/71 129/142/71 133/147/71
f 135/135/72 134/143/72 131/136/72
f 137/148/73 133/138/73 129/149/73
f 129/142/74 138/141/74 137/148/74
f 138/141/75 135/135/75 132/132/75 136/150/75
f 138/141/76 136/150/76 137/148/76
f 132/132/77 130/131/77 136/150/77
o Cube
v 2.771018 0.619552 -0.713861
v 3.574299 0.154557 -0.714540
v 3.499274 0.679786 -0.476292
v 3.739940 0.603920 -0.921733
v 3.041024 0.154323 -0.557425
v 3.154654 0.964369 -0.711858
v 3.475556 0.945564 -1.025998
v 3.383213 0.168105 -1.213787
v 2.923398 0.355832 -1.216716
v 3.190671 0.642542 -1.356698
vn 0.8688 -0.0963 0.4858
vn 0.7166 0.6395 0.2783
vn -0.3683 -0.9054 -0.2110
vn -0.0068 -0.9997 -0.0245
vn -0.5254 0.7492 -0.4033
vn 0.2630 -0.3671 0.8922
vn -0.3189 0.2205 0.9218
vn 0.4204 0.8238 0.3802
vn -0.8650 -0.5017 0.0010
vn -0.7480 0.4670 -0.4716
vn 0.6217 0.1134 -0.7750
vn -0.1305 -0.3341 -0.9335
vn 0.8268 -0.4564 -0.3288
vt 0.550384 0.206938
vt 0.375000 0.305791
vt 0.375000 0.049496
vt 0.180791 0.500000
vt 0.330928 0.574320
vt 0.125000 0.700504
vt 0.804283 0.500000
vt 0.842867 0.681766
vt 0.658516 0.626313
vt 0.875000 0.500000
vt 0.501754 0.540833
vt 0.565165 0.799791
vt 0.325310 0.750000
vt 0.604031 0.069198
vt 0.375000 1.000000
vt 0.375000 0.799690
vt 0.578028 1.000000
vt 0.615335 0.592735
vt 0.589707 0.775249
vt 0.581909 0.353207
s 0
g Cube_Material
usemtl Material
f 140/151/78 142/152/78 141/153/78
f 142/154/79 145/155/79 141/156/79
f 146/157/80 143/158/80 147/159/80
f 143/158/81 146/157/81 140/160/81
f 148/161/82 139/162/82 144/163/82 145/155/82
f 141/153/83 143/164/83 140/151/83
f 141/165/84 144/166/84 139/162/84 143/167/84
f 145/155/85 144/163/85 141/156/85
f 147/168/86 143/158/86 139/169/86
f 139/162/87 148/161/87 147/168/87
f 148/161/88 145/155/88 142/152/88 146/170/88
f 148/161/89 146/170/89 147/168/89
f 142/152/90 140/151/90 146/170/90
o Cube
v 1.053625 0.854449 2.955856
v 0.435768 -0.166314 3.651455
v 1.217105 0.152483 3.843483
v 1.110863 -0.516849 3.495555
v 0.392614 0.623133 3.407995
v 1.600400 0.400739 3.246298
v 1.590668 -0.256427 3.122371
v 0.421401 -0.340686 2.875216
v 0.658478 0.236473 2.479111
v 1.103555 -0.193564 2.502728
vn -0.0320 -0.4570 0.8889
vn 0.6882 -0.4176 0.5933
vn -0.9308 0.1552 -0.3310
vn -0.9985 -0.0457 0.0288
vn 0.7064 0.2418 -0.6652
vn -0.3297 0.2617 0.9071
vn 0.2220 0.7843 0.5793
vn 0.8564 -0.1079 0.5048
vn -0.5532 0.7010 -0.4501
vn 0.4097 0.3784 -0.8301
vn 0.1329 -0.9421 -0.3078
vn -0.3630 -0.4213 -0.8311
vn -0.4128 -0.8870 0.2069
vt 0.550384 0.206938
vt 0.375000 0.305791
vt 0.375000 0.049496
vt 0.180791 0.500000
vt 0.330928 0.574320
vt 0.125000 0.700504
vt 0.804283 0.500000
vt 0.842867 0.681766
vt 0.658516 0.626313
vt 0.875000 0.500000
vt 0.501754 0.540833
vt 0.565165 0.799791
vt 0.325310 0.750000
vt 0.604031 0.069198
vt 0.375000 1.000000
vt 0.375000 0.799690
vt 0.578028 1.000000
vt 0.615335 0.592735
vt 0.589707 0.775249
vt 0.581909 0.353207
s 0
g Cube_Material
usemtl Material
f 150/171/91 152/172/91 151/173/91
f 152/174/92 155/175/92 151/176/92
f 156/177/93 153/178/93 157/179/93
f 153/178/94 156/177/94 150/180/94
f 158/181/95 149/182/95 154/183/95 155/175/95
f 151/173/96 153/184/96 150/171/96
f 151/185/97 154/186/97 149/182/97 153/187/97
f 155/175/98 154/183/98 151/176/98
f 157/188/99 153/178/99 149/189/99
f 149/182/100 158/181/100 157/188/100
f 158/181/101 155/175/101 152/172/101 156/190/101
f 158/181/102 156/190/102 157/188/102
f 152/172/103 150/171/103 156/190/103
o Cube
v -2.699646 0.132497 2.478570
v -2.160621 0.332671 2.148976
v -2.457886 0.091627 1.987729
v -2.130898 -0.034334 2.091882
v -2.488678 0.444043 2.342784
v -2.617279 -0.124870 2.228279
v -2.322816 -0.252245 2.219859
v -2.051551 0.181473 2.482201
v -2.334630 0.114747 2.685154
v -2.232784 -0.140029 2.570946
vn 0.3585 0.1718 -0.9176
vn 0.0577 -0.5429 -0.8378
vn 0.2580 0.7517 0.6069
vn 0.4395 0.8633 0.2479
vn -0.4503 -0.7582 0.4717
vn -0.1797 0.6904 -0.7008
vn -0.8513 0.2815 -0.4427
vn -0.2853 -0.6107 -0.7387
vn -0.3819 0.5742 0.7241
vn -0.4428 -0.5082 0.7387
vn 0.8313 -0.5531 0.0548
vn 0.5968 -0.1173 0.7938
vn 0.9583 0.1181 -0.2601
vt 0.550384 0.206938
vt 0.375000 0.305791
vt 0.375000 0.049496
vt 0.180791 0.500000
vt 0.330928 0.574320
vt 0.125000 0.700504
vt 0.804283 0.500000
vt 0.842867 0.681766
vt 0.658516 0.626313
vt 0.875000 0.500000
vt 0.501754 0.540833
vt 0.565165 0.799791
vt 0.325310 0.750000
vt 0.604031 0.069198
vt 0.375000 1.000000
vt 0.375000 0.799690
vt 0.578028 1.000000
vt 0.615335 0.592735
vt 0.589707 0.775249
vt 0.581909 0.353207
s 0
g Cube_Material
usemtl Material
f 160/191/104 162/192/104 161/193/104
f 162/194/105 165/195/105 161/196/105
f 166/197/106 163/198/106 167/199/106
f 163/198/107 166/197/107 160/200/107
f 168/201/108 159/202/108 164/203/108 165/195/108
f 161/193/109 163/204/109 160/191/109
f 161/205/110 164/206/110 159/202/110 163/207/110
f 165/195/111 164/203/111 161/196/111
f 167/208/112 163/198/112 159/209/112
f 159/202/113 168/201/113 167/208/113
f 168/201/114 165/195/114 162/192/114 166/210/114
f 168/201/115 166/210/115 167/208/115
f 162/192/116 160/191/116 166/210/116
o Cube
v 2.692543 0.729984 0.465107
v 1.921674 0.870954 0.632303
v 2.297357 0.924678 0.961057
v 2.015186 0.584560 0.967228
v 2.297916 0.988402 0.358446
v 2.628520 0.647914 0.898090
v 2.349941 0.402068 1.009966
v 1.957479 0.453449 0.438595
v 2.356081 0.390970 0.293462
v 2.309323 0.205354 0.597552
vn -0.6055 0.5134 0.6081
vn -0.0805 0.0848 0.9931
vn -0.3316 0.0701 -0.9408
vn -0.6207 0.2856 -0.7302
vn 0.7707 -0.6282 0.1065
vn -0.2279 0.9683 0.1022
vn 0.5810 0.8001 0.1489
vn 0.2792 0.1173 0.9530
vn 0.3396 0.1343 -0.9309
vn 0.7479 -0.6115 -0.2583
vn -0.5691 -0.7562 0.3229
vn -0.3161 -0.7874 -0.5292
vn -0.9780 -0.1508 0.1442
vt 0.550384 0.206938
vt 0.375000 0.305791
vt 0.375000 0.049496
vt 0.180791 0.500000
vt 0.330928 0.574320
vt 0.125000 0.700504
vt 0.804283 0.500000
vt 0.842867 0.681766
vt 0.658516 0.626313
vt 0.875000 0.500000
vt 0.501754 0.540833
vt 0.565165 0.799791
vt 0.325310 0.750000
vt 0.604031 0.069198
vt 0.375000 1.000000
vt 0.375000 0.799690
vt 0.578028 1.000000
vt 0.615335 0.592735
vt 0.589707 0.775249
vt 0.581909 0.353207
s 0
g Cube_Material
usemtl Material
f 170/211/117 172/212/117 171/213/117
f 172/214/118 175/215/118 171/216/118
f 176/217/119 173/218/119 177/219/119
f 173/218/120 176/217/120 170/220/120
f 178/221/121 169/222/121 174/223/121 175/215/121
f 171/213/122 173/224/122 170/211/122
f 171/225/123 174/226/123 169/222/123 173/227/123
f 175/215/124 174/223/124 171/216/124
f 177/228/125 173/218/125 169/229/125
f 169/222/126 178/221/126 177/228/126
f 178/221/127 175/215/127 172/212/127 176/230/127
f 178/221/128 176/230/128 177/228/128
f 172/212/129 170/211/129 176/230/129
o Cube
v 2.600155 0.077680 -1.026639
v 2.086707 0.822736 -0.668253
v 1.905633 0.240622 -0.652145
v 1.704472 0.603583 -0.992672
v 2.585570 0.522222 -0.642972
v 2.075449 -0.048693 -1.062135
v 1.776686 0.243709 -1.279745
v 2.238726 0.945043 -1.193914
v 2.571202 0.586586 -1.373322
v 2.177631 0.520562 -1.549978
vn -0.7041 0.2375 0.6692
vn -0.9232 -0.3352 0.1880
vn 0.7434 0.6674 0.0442
vn 0.4753 0.8166 0.3275
vn 0.0970 -0.6576 -0.7471
vn -0.0286 0.0365 0.9989
vn 0.2092 -0.6933 0.6896
vn -0.7452 -0.6498 0.1499
vn 0.9988 0.0462 -0.0156
vn 0.4237 -0.4934 -0.7596
vn -0.6282 0.4880 -0.6060
vn 0.2401 0.6033 -0.7605
vn -0.5257 0.8494 0.0456
vt 0.550384 0.206938
vt 0.375000 0.305791
vt 0.375000 0.049496
vt 0.180791 0.500000
vt 0.330928 0.574320
vt 0.125000 0.700504
vt 0.804283 0.500000
vt 0.842867 0.681766
vt 0.658516 0.626313
vt 0.875000 0.500000
vt 0.501754 0.540833
vt 0.565165 0.799791
vt 0.325310 0.750000
vt 0.604031 0.069198
vt 0.375000 1.000000
vt 0.375000 0.799690
vt 0.578028 1.000000
vt 0.615335 0.592735
vt 0.589707 0.775249
vt 0.581909 0.353207
s 0
g Cube_Material
usemtl Material
f 180/231/130 182/232/130 181/233/130
f 182/234/131 185/235/131 181/236/131
f 186/237/132 183/238/132 187/239/132
f 183/238/133 186/237/133 180/240/133
f 188/241/134 179/242/134 184/243/134 185/235/134
f 181/233/135 183/244/135 180/231/135
f 181/245/136 184/246/136 179/242/136 183/247/136
f 185/235/137 184/243/137 181/236/137
f 187/248/138 183/238/138 179/249/138
f 179/242/139 188/241/139 187/248/139
f 188/241/140 185/235/140 182/232/140 186/250/140
f 188/241/141 186/250/141 187/248/141
f 182/232/142 180/231/142 186/250/142
o Cube
v -1.352120 -0.192840 1.272015
v -1.484316 0.345709 1.966731
v -1.892242 0.109736 1.669817
v -1.767411 0.582160 1.629549
v -1.269747 -0.110570 1.795726
v -1.781591 0.041552 1.203757
v -1.797238 0.471423 1.219690
v -1.160028 0.572802 1.641875
v -1.032282 0.269791 1.298194
v -1.296241 0.530880 1.153128
vn -0.6571 0.2347 0.7163
vn -0.9668 0.2556 0.0013
vn 0.9177 -0.0589 0.3930
vn 0.6882 0.0524 0.7236
vn -0.0148 -0.0884 -0.9960
vn -0.3303 -0.4635 0.8222
vn -0.4130 -0.9021 0.1253
vn -0.9735 -0.0270 -0.2272
vn 0.8230 -0.5667 -0.0404
vn 0.3330 -0.1778 -0.9260
vn -0.0523 0.9861 -0.1579
vn 0.7475 0.6109 -0.2607
vn 0.0010 0.8191 0.5736
vt 0.550384 0.206938
vt 0.375000 0.305791
vt 0.375000 0.049496
vt 0.180791 0.500000
vt 0.330928 0.574320
vt 0.125000 0.700504
vt 0.804283 0.500000
vt 0.842867 0.681766
vt 0.658516 0.626313
vt 0.875000 0.500000
vt 0.501754 0.540833
vt 0.565165 0.799791
vt 0.325310 0.750000
vt 0.604031 0.069198
vt 0.375000 1.000000
vt 0.375000 0.799690
vt 0.578028 1.000000
vt 0.615335 0.592735
vt 0.589707 0.775249
vt 0.581909 0.353207
s 0
g Cube_Material
usemtl Material
f 190/251/143 192/252/143 191/253/143
f 192/254/144 195/255/144 191/256/144
f 196/257/145 193/258/145 197/259/145
f 193/258/146 196/257/146 190/260/146
f 198/261/147 189/262/147 194/263/147 195/255/147
f 191/253/148 193/264/148 190/251/148
f 191/265/149 194/266/149 189/262/149 193/267/149
f 195/255/150 194/263/150 191/256/150
f 197/268/151 193/258/151 189/269/151
f 189/262/152 198/261/152 197/268/152
f 198/261/153 195/255/153 192/252/153 196/270/153
f 198/261/154 196/270/154 197/268/154
f 192/252/155 190/251/155 196/270/155
o Cube
v -1.441602 -0.031417 1.857558
v -0.984059 0.808959 2.110812
v -1.122806 0.352711 2.507381
v -1.400460 0.821974 2.479736
v -0.965227 0.319804 1.776361
v -1.570528 0.081290 2.380311
v -1.755448 0.508373 2.494973
v -1.454403 0.938265 1.815441
v -1.670759 0.498839 1.613874
v -1.908504 0.633069 1.963825
vn 0.6139 0.4032 0.6787
vn -0.0060 0.0553 0.9985
vn 0.2826 0.2815 -0.9170
vn 0.5570 0.4833 -0.6754
vn -0.8573 -0.5147 0.0138
vn 0.9707 -0.1091 0.2142
vn 0.5380 -0.8144 0.2175
vn -0.0912 -0.2949 0.9512
vn 0.1176 -0.3723 -0.9206
vn -0.7928 -0.5017 -0.3462
vn -0.5542 0.7922 0.2557
vn -0.5715 0.5576 -0.6021
vn 0.1692 0.9731 0.1566
vt 0.550384 0.206938
vt 0.375000 0.305791
vt 0.375000 0.049496
vt 0.180791 0.500000
vt 0.330928 0.574320
vt 0.125000 0.700504
vt 0.804283 0.500000
vt 0.842867 0.681766
vt 0.658516 0.626313
vt 0.875000 0.500000
vt 0.501754 0.540833
vt 0.565165 0.799791
vt 0.325310 0.750000
vt 0.604031 0.069198
vt 0.375000 1.000000
vt 0.375000 0.799690
vt 0.578028 1.000000
vt 0.615335 0.592735
vt 0.589707 0.775249
vt 0.581909 0.353207
s 0
g Cube_Material
usemtl Material
f 200/271/156 202/272/156 201/273/156
f 202/274/157 205/275/157 201/276/157
f 206/277/158 203/278/158 207/279/158
f 203/278/159 206/277/159 200/280/159
f 208/281/160 199/282/160 204/283/160 205/275/160
f 201/273/161 203/284/161 200/271/161
f 201/285/162 204/286/162 199/282/162 203/287/162
f 205/275/163 204/283/163 201/276/163
f 207/288/164 203/278/164 199/289/164
f 199/282/165 208/281/165 207/288/165
f 208/281/166 205/275/166 202/272/166 206/290/166
f 208/281/167 206/290/167 207/288/167
f 202/272/168 200/271/168 206/290/168
o Cube
v 1.050520 -0.019873 -0.824570
v 1.687152 0.364901 -0.964516
v 1.672317 -0.062646 -0.759715
v 1.744076 0.290777 -0.549357
v 1.316947 0.172493 -1.141929
v 1.334266 -0.127942 -0.533421
v 1.500212 0.131033 -0.334055
v 1.408460 0.626673 -0.754812
v 1.046064 0.448625 -0.722815
v 1.204993 0.435462 -0.423185
vn 0.9822 -0.1078 -0.1539
vn 0.7384 -0.4493 0.5030
vn -0.3752 0.6439 -0.6668
vn 0.0309 0.6448 -0.7638
vn -0.6604 -0.2873 0.6938
vn 0.5520 -0.3757 -0.7444
vn -0.0156 -0.8967 -0.4423
vn 0.4826 -0.7071 0.5169
vn -0.7952 0.1214 -0.5940
vn -0.8802 -0.1087 0.4621
vn 0.3340 0.6452 0.6872
vn -0.4082 0.8766 0.2550
vn 0.6971 0.7163 0.0323
vt 0.550384 0.206938
vt 0.375000 0.305791
vt 0.375000 0.049496
vt 0.180791 0.500000
vt 0.330928 0.574320
vt 0.125000 0.700504
vt 0.804283 0.500000
vt 0.842867 0.681766
vt 0.658516 0.626313
vt 0.875000 0.500000
vt 0.501754 0.540833
vt 0.565165 0.799791
vt 0.325310 0.750000
vt 0.604031 0.069198
vt 0.375000 1.000000
vt 0.375000 0.799690
vt 0.578028 1.000000
vt 0.615335 0.592735
vt 0.589707 0.775249
vt 0.581909 0.353207
s 0
g Cube_Material
usemtl Material
f 210/291/169 212/292/169 211/293/169
f 212/294/170 215/295/170 211/296/170
f 216/297/171 213/298/171 217/299/171
f 213/298/172 216/297/172 210/300/172
f 218/301/173 209/302/173 214/303/173 215/295/173
f 211/293/174 213/304/174 210/291/174
f 211/305/175 214/306/175 209/302/175 213/307/175
f 215/295/176 214/303/176 211/296/176
f 217/308/177 213/298/177 209/309/177
f 209/302/178 218/301/178 217/308/178
f 218/301/179 215/295/179 212/292/179 216/310/179
f 218/301/180 216/310/180 217/308/180
f 212/292/181 210/291/181 216/310/181
o Cube
v -1.959350 -0.053667 -0.642356
v -1.228441 -0.099018 -1.150719
v -1.331554 -0.434569 -0.716191
v -1.009318 -0.063455 -0.701374
v -1.761332 -0.129816 -1.136808
v -1.588393 -0.224698 -0.362004
v -1.218783 -0.003376 -0.334359
v -1.293147 0.386983 -0.997749
v -1.713884 0.436312 -0.778412
v -1.421619 0.432471 -0.505700
vn 0.7252 -0.6175 -0.3048
vn 0.6566 -0.5889 0.4712
vn -0.3452 0.5225 -0.7796
vn -0.0420 0.2949 -0.9546
vn -0.3843 0.2892 0.8767
vn 0.0301 -0.7946 -0.6064
vn -0.5178 -0.8555 0.0108
vn 0.3526 -0.6704 0.6529
vn -0.8608 0.3218 -0.3943
vn -0.5960 0.4778 0.6454
vn 0.7909 0.5620 0.2421
vn 0.0795 0.9943 -0.0712
vn 0.8615 0.2532 -0.4401
vt 0.550384 0.206938
vt 0.375000 0.305791
vt 0.375000 0.049496
vt 0.180791 0.500000
vt 0.330928 0.574320
vt 0.125000 0.700504
vt 0.804283 0.500000
vt 0.842867 0.681766
vt 0.658516 0.626313
vt 0.875000 0.500000
vt 0.501754 0.540833
vt 0.565165 0.799791
vt 0.325310 0.750000
vt 0.604031 0.069198
vt 0.375000 1.000000
vt 0.375000 0.799690
vt 0.578028 1.000000
vt 0.615335 0.592735
vt 0.589707 0.775249
vt 0.581909 0.353207
s 0
g Cube_Material
usemtl Material
f 220/311/182 222/312/182 221/313/182
f 222/314/183 225/315/183 221/316/183
f 226/317/184 223/318/184 227/319/184
f 223/318/185 226/317/185 220/320/185
f 228/321/186 219/322/186 224/323/186 225/315/186
f 221/313/187 223/324/187 220/311/187
f 221/325/188 224/326/188 219/322/188 223/327/188
f 225/315/189 224/323/189 221/316/189
f 227/328/190 223/318/190 219/329/190
f 219/322/191 228/321/191 227/328/191
f 228/321/192 225/315/192 222/312/192 226/330/192
f 228/321/193 226/330/193 227/328/193
f 222/312/194 220/311/194 226/330/194
o Cube
v 2.960269 0.278892 2.983058
v 2.573982 0.723452 2.380340
v 2.596792 0.866724 2.888058
v 2.215905 0.689969 2.688743
v 3.009925 0.526832 2.541767
v 2.606572 0.513707 3.180768
v 2.228573 0.477306 3.031389
v 2.419057 0.263849 2.358713
v 2.661935 0.004159 2.636038
v 2.323405 0.070301 2.790369
vn -0.2987 0.9219 -0.2467
vn -0.5591 0.6950 0.4520
vn 0.4370 -0.4331 -0.7883
vn 0.3211 -0.0638 -0.9449
vn -0.1149 -0.6141 0.7808
vn 0.4751 0.8410 -0.2587
vn 0.7180 0.5189 0.4639
vn -0.3446 0.5935 0.7273
vn 0.7904 -0.5677 -0.2300
vn 0.0974 -0.8194 0.5649
vn -0.9575 -0.2002 -0.2076
vn -0.3635 -0.8173 -0.4470
vn -0.6450 0.2514 -0.7216
vt 0.550384 0.206938
vt 0.375000 0.305791
vt 0.375000 0.049496
vt 0.180791 0.500000
vt 0.330928 0.574320
vt 0.125000 0.700504
vt 0.804283 0.500000
vt 0.842867 0.681766
vt 0.658516 0.626313
vt 0.875000 0.500000
vt 0.501754 0.540833
vt 0.565165 0.799791
vt 0.325310 0.750000
vt 0.604031 0.069198
vt 0.375000 1.000000
vt 0.375000 0.799690
vt 0.578028 1.000000
vt 0.615335 0.592735
vt 0.589707 0.775249
vt 0.581909 0.353207
s 0
g Cube_Material
usemtl Material
f 230/331/195 232/332/195 231/333/195
f 232/334/196 235/335/196 231/336/196
f 236/337/197 233/338/197 237/339/197
f 233/338/198 236/337/198 230/340/198
f 238/341/199 229/342/199 234/343/199 235/335/199
f 231/333/200 233/344/200 230/331/200
f 231/345/201 234/346/201 229/342/201 233/347/201
f 235/335/202 234/343/202 231/336/202
f 237/348/203 233/338/203 229/349/203
f 229/342/204 238/341/204 237/348/204
f 238/341/205 235/335/205 232/332/205 236/350/205
f 238/341/206 236/350/206 237/348/206
f 232/332/207 230/331/207 236/350/207
o Cube
v 2.349456 0.078518 -0.593242
v 3.518781 -0.598369 -0.594231
v 3.409568 0.166199 -0.247417
v 3.759902 0.055762 -0.895839
v 2.742500 -0.598710 -0.365521
v 2.907909 0.580462 -0.590326
v 3.375043 0.553088 -1.047615
v 3.240620 -0.578648 -1.320976
v 2.571275 -0.305375 -1.325240
v 2.960339 0.111984 -1.529010
vn 0.8688 -0.0963 0.4858
vn 0.7166 0.6395 0.2783
vn -0.3683 -0.9054 -0.2110
vn -0.0068 -0.9997 -0.0245
vn -0.5254 0.7492 -0.4033
vn 0.2630 -0.3671 0.8922
vn -0.3189 0.2205 0.9218
vn 0.4204 0.8238 0.3802
vn -0.8650 -0.5017 0.0010
vn -0.7480 0.4670 -0.4716
vn 0.6217 0.1134 -0.7750
vn -0.1305 -0.3341 -0.9335
vn 0.8268 -0.4564 -0.3288
vt 0.550384 0.206938
vt 0.375000 0.305791
vt 0.375000 0.049496
vt 0.180791 0.500000
vt 0.330928 0.574320
vt 0.125000 0.700504
vt 0.804283 0.500000
vt 0.842867 0.681766
vt 0.658516 0.626313
vt 0.875000 0.500000
vt 0.501754 0.540833
vt 0.565165 0.799791
vt 0.325310 0.750000
vt 0.604031 0.069198
vt 0.375000 1.000000
vt 0.375000 0.799690
vt 0.578028 1.000000
vt 0.615335 0.592735
vt 0.589707 0.775249
vt 0.581909 0.353207
s 0
g Cube_Material
usemtl Material
f 240/351/208 242/352/208 241/353/208
f 242/354/209 245/355/209 241/356/209
f 246/357/210 243/358/210 247/359/210
f 243/358/211 246/357/211 240/360/211
f 248/361/212 239/362/212 244/363/212 245/355/212
f 241/353/213 243/364/213 240/351/213
f 241/365/214 244/366/214 239/362/214 243/367/214
f 245/355/215 244/363/215 241/356/215
f 247/368/216 243/358/216 239/369/216
f 239/362/217 248/361/217 247/368/217
f 248/361/218 245/355/218 242/352/218 246/370/218
f 248/361/219 246/370/219 247/368/219
f 242/352/220 240/351/220 246/370/220
o Cube
v 0.268336 0.847188 3.032568
v -0.209444 0.057845 3.570466
v 0.394753 0.304367 3.718959
v 0.312598 -0.213219 3.449910
v -0.242815 0.668315 3.382201
v 0.691150 0.496340 3.257164
v 0.683625 -0.011838 3.161332
v -0.220554 -0.076995 2.970210
v -0.037226 0.369315 2.663907
v 0.306947 0.036773 2.682170
vn -0.0320 -0.4570 0.8889
vn 0.6882 -0.4176 0.5933
vn -0.9308 0.1552 -0.3310
vn -0.9985 -0.0457 0.0288
vn 0.7064 0.2418 -0.6652
vn -0.3297 0.2617 0.9071
vn 0.2220 0.7843 0.5793
vn 0.8564 -0.1079 0.5048
vn -0.5532 0.7010 -0.4501
vn 0.4097 0.3784 -0.8301
vn 0.1329 -0.9421 -0.3078
vn -0.3630 -0.4213 -0.8311
vn -0.4128 -0.8870 0.2069
vt 0.550384 0.206938
vt 0.375000 0.305791
vt 0.375000 0.049496
vt 0.180791 0.500000
vt 0.330928 0.574320
vt 0.125000 0.700504
vt 0.804283 0.500000
vt 0.842867 0.681766
vt 0.658516 0.626313
vt 0.875000 0.500000
vt 0.501754 0.540833
vt 0.565165 0.799791
vt 0.325310 0.750000
vt 0.604031 0.069198
vt 0.375000 1.000000
vt 0.375000 0.799690
vt 0.578028 1.000000
vt 0.615335 0.592735
vt 0.589707 0.775249
vt 0.581909 0.353207
s 0
g Cube_Material
usemtl Material
f 250/371/221 252/372/221 251/373/221
f 252/374/222 255/375/222 251/376/222
f 256/377/223 253/378/223 257/379/223
f 253/378/224 256/377/224 250/380/224
f 258/381/225 249/382/225 254/383/225 255/375/225
f 251/373/226 253/384/226 250/371/226
f 251/385/227 254/386/227 249/382/227 253/387/227
f 255/375/228 254/383/228 251/376/228
f 257/388/229 253/378/229 249/389/229
f 249/382/230 258/381/230 257/388/230
f 258/381/231 255/375/231 252/372/231 256/390/231
f 258/381/232 256/390/232 257/388/232
f 252/372/233 250/371/233 256/390/233
o Cube
v -2.593887 0.811301 2.356966
v -1.806708 1.103631 1.875635
v -2.240826 0.751616 1.640153
v -1.763300 0.567666 1.792257
v -2.285794 1.266276 2.158669
v -2.473600 0.435449 1.991448
v -2.043573 0.249433 1.979151
v -1.647424 0.882825 2.362269
v -2.060826 0.785380 2.658657
v -1.912092 0.413311 2.491871
vn 0.3585 0.1718 -0.9176
vn 0.0577 -0.5429 -0.8378
vn 0.2580 0.7517 0.6069
vn 0.4395 0.8633 0.2479
vn -0.4503 -0.7582 0.4717
vn -0.1797 0.6904 -0.7008
vn -0.8513 0.2815 -0.4427
vn -0.2853 -0.6107 -0.7387
vn -0.3819 0.5742 0.7241
vn -0.4428 -0.5082 0.7387
vn 0.8313 -0.5531 0.0548
vn 0.5968 -0.1173 0.7938
vn 0.9583 0.1181 -0.2601
vt 0.550384 0.206938
vt 0.375000 0.305791
vt 0.375000 0.049496
vt 0.180791 0.500000
vt 0.330928 0.574320
vt 0.125000 0.700504
vt 0.804283 0.500000
vt 0.842867 0.681766
vt 0.658516 0.626313
vt 0.875000 0.500000
vt 0.501754 0.540833
vt 0.565165 0.799791
vt 0.325310 0.750000
vt 0.604031 0.069198
vt 0.375000 1.000000
vt 0.375000 0.799690
vt 0.578028 1.000000
vt 0.615335 0.592735
vt 0.589707 0.775249
vt 0.581909 0.353207
s 0
g Cube_Material
usemtl Material
f 260/391/234 262/392/234 261/393/234
f 262/394/235 265/395/235 261/396/235
f 266/397/236 263/398/236 267/399/236
f 263/398/237 266/397/237 260/400/237
f 268/401/238 259/402/238 264/403/238 265/395/238
f 261/393/239 263/404/239 260/391/239
f 261/405/240 264/406/240 259/402/240 263/407/240
f 265/395/241 264/403/241 261/396/241
f 267/408/242 263/398/242 259/409/242
f 259/402/243 268/401/243 267/408/243
f 268/401/244 265/395/244 262/392/244 266/410/244
f 268/401/245 266/410/245 267/408/245
f 262/392/246 260/391/246 266/410/246
o Cube
v 3.206454 0.357130 0.360017
v 2.151714 0.550012 0.588782
v 2.665741 0.623520 1.038600
v 2.279662 0.158153 1.047043
v 2.666506 0.710710 0.214079
v 3.118855 0.244838 0.952446
v 2.737689 -0.091541 1.105520
v 2.200704 -0.021238 0.323742
v 2.746090 -0.106726 0.125164
v 2.682114 -0.360695 0.541234
vn -0.6055 0.5134 0.6081
vn -0.0805 0.0848 0.9931
vn -0.3316 0.0701 -0.9408
vn -0.6207 0.2856 -0.7302
vn 0.7707 -0.6282 0.1065
vn -0.2279 0.9683 0.1022
vn 0.5810 0.8001 0.1489
vn 0.2792 0.1173 0.9530
vn 0.3396 0.1343 -0.9309
vn 0.7479 -0.6115 -0.2583
vn -0.5691 -0.7562 0.3229
vn -0.3161 -0.7874 -0.5292
vn -0.9780 -0.1508 0.1442
vt 0.550384 0.206938
vt 0.375000 0.305791
vt 0.375000 0.049496
vt 0.180791 0.500000
vt 0.330928 0.574320
vt 0.125000 0.700504
vt 0.804283 0.500000
vt 0.842867 0.681766
vt 0.658516 0.626313
vt 0.875000 0.500000
vt 0.501754 0.540833
vt 0.565165 0.799791
vt 0.325310 0.750000
vt 0.604031 0.069198
vt 0.375000 1.000000
vt 0.375000 0.799690
vt 0.578028 1.000000
vt 0.615335 0.592735
vt 0.589707 0.775249
vt 0.581909 0.353207
s 0
g Cube_Material
usemtl Material
f 270/411/247 272/412/247 271/413/247
f 272/414/248 275/415/248 271/416/248
f 276/417/249 273/418/249 277/419/249
f 273/418/250 276/417/250 270/420/250
f 278/421/251 269/422/251 274/423/251 275/415/251
f 271/413/252 273/424/252 270/411/252
f 271/425/253 274/426/253 269/422/253 273/427/253
f 275/415/254 274/423/254 271/416/254
f 277/428/255 273/418/255 269/429/255
f 269/422/256 278/421/256 277/428/256
f 278/421/257 275/415/257 272/412/257 276/430/257
f 278/421/258 276/430/258 277/428/258
f 272/412/259 270/411/259 276/430/259
o Cube
v 2.728029 0.322434 -0.890179
v 2.130450 1.189572 -0.473069
v 1.919706 0.512075 -0.454322
v 1.685583 0.934509 -0.850645
v 2.711054 0.839817 -0.443646
v 2.117346 0.175354 -0.931490
v 1.769630 0.515667 -1.184758
v 2.307378 1.331919 -1.084862
v 2.694331 0.914727 -1.293667
v 2.236272 0.837885 -1.499269
vn -0.7041 0.2375 0.6692
vn -0.9232 -0.3352 0.1880
vn 0.7434 0.6674 0.0442
vn 0.4753 0.8166 0.3275
vn 0.0970 -0.6576 -0.7471
vn -0.0286 0.0365 0.9989
vn 0.2092 -0.6933 0.6896
vn -0.7452 -0.6498 0.1499
vn 0.9988 0.0462 -0.0156
vn 0.4237 -0.4934 -0.7596
vn -0.6282 0.4880 -0.6060
vn 0.2401 0.6033 -0.7605
vn -0.5257 0.8494 0.0456
vt 0.550384 0.206938
vt 0.375000 0.305791
vt 0.375000 0.049496
vt 0.180791 0.500000
vt 0.330928 0.574320
vt 0.125000 0.700504
vt 0.804283 0.500000
vt 0.842867 0.681766
vt 0.658516 0.626313
vt 0.875000 0.500000
vt 0.501754 0.540833
vt 0.565165 0.799791
vt 0.325310 0.750000
vt 0.604031 0.069198
vt 0.375000 1.000000
vt 0.375000 0.799690
vt 0.578028 1.000000
vt 0.615335 0.592735
vt 0.589707 0.775249
vt 0.581909 0.353207
s 0
g Cube_Material
usemtl Material
f 280/431/260 282/432/260 281/433/260
f 282/434/261 285/435/261 281/436/261
f 286/437/262 283/438/262 287/439/262
f 283/438/263 286/437/263 280/440/263
f 288/441/264 279/442/264 284/443/264 285/435/264
f 281/433/265 283/444/265 280/431/265
f 281/445/266 284/446/266 279/442/266 283/447/266
f 285/435/267 284/443/267 281/436/267
f 287/448/268 283/438/268 279/449/268
f 279/442/269 288/441/269 287/448/269
f 288/441/270 285/435/270 282/432/270 286/450/270
f 288/441/271 286/450/271 287/448/271
f 282/432/272 280/431/272 286/450/272
o Cube
v -1.904251 -0.054991 1.026388
v -2.062346 0.589065 1.857206
v -2.550188 0.306862 1.502123
v -2.400903 0.871840 1.453966
v -1.805741 0.043396 1.652699
v -2.417860 0.225321 0.944757
v -2.436572 0.739407 0.963812
v -1.674527 0.860647 1.468707
v -1.521754 0.498273 1.057695
v -1.837426 0.810513 0.884209
vn -0.6571 0.2347 0.7163
vn -0.9668 0.2556 0.0013
vn 0.9177 -0.0589 0.3930
vn 0.6882 0.0524 0.7236
vn -0.0148 -0.0884 -0.9960
vn -0.3303 -0.4635 0.8222
vn -0.4130 -0.9021 0.1253
vn -0.9735 -0.0270 -0.2272
vn 0.8230 -0.5667 -0.0404
vn 0.3330 -0.1778 -0.9260
vn -0.0523 0.9861 -0.1579
vn 0.7475 0.6109 -0.2607
vn 0.0010 0.8191 0.5736
vt 0.550384 0.206938
vt 0.375000 0.305791
vt 0.375000 0.049496
vt 0.180791 0.500000
vt 0.330928 0.574320
vt 0.125000 0.700504
vt 0.804283 0.500000
vt 0.842867 0.681766
vt 0.658516 0.626313
vt 0.875000 0.500000
vt 0.501754 0.540833
vt 0.565165 0.799791
vt 0.325310 0.750000
vt 0.604031 0.069198
vt 0.375000 1.000000
vt 0.375000 0.799690
vt 0.578028 1.000000
vt 0.615335 0.592735
vt 0.589707 0.775249
vt 0.581909 0.353207
s 0
g Cube_Material
usemtl Material
f 290/451/273 292/452/273 291/453/273
f 292/454/274 295/455/274 291/456/274
f 296/457/275 293/458/275 297/459/275
f 293/458/276 296/457/276 290/460/276
f 298/461/277 289/462/277 294/463/277 295/455/277
f 291/453/278 293/464/278 290/451/278
f 291/465/279 294/466/279 289/462/279 293/467/279
f 295/455/280 294/463/280 291/456/280
f 297/468/281 293/458/281 289/469/281
f 289/462/282 298/461/282 297/468/282
f 298/461/283 295/455/283 292/452/283 296/470/283
f 298/461/284 296/470/284 297/468/284
f 292/452/285 290/451/285 296/470/285
o Cube
v -1.230596 0.322725 1.658761
v -0.871026 0.983152 1.857786
v -0.980063 0.624600 2.169438
v -1.198263 0.993381 2.147713
v -0.856226 0.598740 1.594951
v -1.331915 0.411298 2.069578
v -1.477238 0.746930 2.159687
v -1.240655 1.084770 1.625662
v -1.410683 0.739438 1.467257
v -1.597520 0.844926 1.742273
vn 0.6139 0.4032 0.6787
vn -0.0060 0.0553 0.9985
vn 0.2826 0.2815 -0.9170
vn 0.5570 0.4833 -0.6754
vn -0.8573 -0.5147 0.0138
vn 0.9707 -0.1091 0.2142
vn 0.5380 -0.8144 0.2175
vn -0.0912 -0.2949 0.9512
vn 0.1176 -0.3723 -0.9206
vn -0.7928 -0.5017 -0.3462
vn -0.5542 0.7922 0.2557
vn -0.5715 0.5576 -0.6021
vn 0.1692 0.9731 0.1566
vt 0.550384 0.206938
vt 0.375000 0.305791
vt 0.375000 0.049496
vt 0.180791 0.500000
vt 0.330928 0.574320
vt 0.125000 0.700504
vt 0.804283 0.500000
vt 0.842867 0.681766
vt 0.658516 0.626313
vt 0.875000 0.500000
vt 0.501754 0.540833
vt 0.565165 0.799791
vt 0.325310 0.750000
vt 0.604031 0.069198
vt 0.375000 1.000000
vt 0.375000 0.799690
vt 0.578028 1.000000
vt 0.615335 0.592735
vt 0.589707 0.775249
vt 0.581909 0.353207
s 0
g Cube_Material
usemtl Material
f 300/471/286 302/472/286 301/473/286
f 302/474/287 305/475/287 301/476/287
f 306/477/288 303/478/288 307/479/288
f 303/478/289 306/477/289 300/480/289
f 308/481/290 299/482/290 304/483/290 305/475/290
f 301/473/291 303/484/291 300/471/291
f 301/485/292 304/486/292 299/482/292 303/487/292
f 305/475/293 304/483/293 301/476/293
f 307/488/294 303/478/294 299/489/294
f 299/482/295 308/481/295 307/488/295
f 308/481/296 305/475/296 302/472/296 306/490/296
f 308/481/297 306/490/297 307/488/297
f 302/472/298 300/471/298 306/490/298
o Cube
v 0.602701 0.263162 -1.442460
v 1.441577 0.770171 -1.626863
v 1.422029 0.206801 -1.357001
v 1.516584 0.672500 -1.079818
v 0.953766 0.516639 -1.860637
v 0.976586 0.120763 -1.058819
v 1.195250 0.462008 -0.796119
v 1.074351 1.115103 -1.350541
v 0.596829 0.880492 -1.308379
v 0.806246 0.863148 -0.913564
vn 0.9822 -0.1078 -0.1539
vn 0.7384 -0.4493 0.5030
vn -0.3752 0.6439 -0.6668
vn 0.0309 0.6448 -0.7638
vn -0.6604 -0.2873 0.6938
vn 0.5520 -0.3757 -0.7444
vn -0.0156 -0.8967 -0.4423
vn 0.4826 -0.7071 0.5169
vn -0.7952 0.1214 -0.5940
vn -0.8802 -0.1087 0.4621
vn 0.3340 0.6452 0.6872
vn -0.4082 0.8766 0.2550
vn 0.6971 0.7163 0.0323
vt 0.550384 0.206938
vt 0.375000 0.305791
vt 0.375000 0.049496
vt 0.180791 0.500000
vt 0.330928 0.574320
vt 0.125000 0.700504
vt 0.804283 0.500000
vt 0.842867 0.681766
vt 0.658516 0.626313
vt 0.875000 0.500000
vt 0.501754 0.540833
vt 0.565165 0.799791
vt 0.325310 0.750000
vt 0.604031 0.069198
vt 0.375000 1.000000
vt 0.375000 0.799690
vt 0.578028 1.000000
vt 0.615335 0.592735
vt 0.589707 0.775249
vt 0.581909 0.353207
s 0
g Cube_Material
usemtl Material
f 310/491/299 312/492/299 311/493/299
f 312/494/300 315/495/300 311/496/300
f 316/497/301 313/498/301 317/499/301
f 313/498/302 316/497/302 310/500/302
f 318/501/303 309/502/303 314/503/303 315/495/303
f 311/493/304 313/504/304 310/491/304
f 311/505/305 314/506/305 309/502/305 313/507/305
f 315/495/306 314/503/306 311/496/306
f 317/508/307 313/498/307 309/509/307
f 309/502/308 318/501/308 317/508/308
f 318/501/309 315/495/309 312/492/309 316/510/309
f 318/501/310 316/510/310 317/508/310
f 312/492/311 310/491/311 316/510/311
o Cube
v -1.998505 -0.091980 -0.383740
v -1.340996 -0.132777 -0.841053
v -1.433753 -0.434631 -0.450161
v -1.143877 -0.100785 -0.436832
v -1.820373 -0.160482 -0.828539
v -1.664801 -0.245837 -0.131542
v -1.332307 -0.046739 -0.106673
v -1.399204 0.304419 -0.703444
v -1.777690 0.348794 -0.506134
v -1.514774 0.345339 -0.260808
vn 0.7252 -0.6175 -0.3048
vn 0.6566 -0.5889 0.4712
vn -0.3452 0.5225 -0.7796
vn -0.0420 0.2949 -0.9546
vn -0.3843 0.2892 0.8767
vn 0.0301 -0.7946 -0.6064
vn -0.5178 -0.8555 0.0108
vn 0.3526 -0.6704 0.6529
vn -0.8608 0.3218 -0.3943
vn -0.5960 0.4778 0.6454
vn 0.7909 0.5620 0.2421
vn 0.0795 0.9943 -0.0712
vn 0.8615 0.2532 -0.4401
vt 0.550384 0.206938
vt 0.375000 0.305791
vt 0.375000 0.049496
vt 0.180791 0.500000
vt 0.330928 0.574320
vt 0.125000 0.700504
vt 0.804283 0.500000
vt 0.842867 0.681766
vt 0.658516 0.626313
vt 0.875000 0.500000
vt 0.501754 0.540833
vt 0.565165 0.799791
vt 0.325310 0.750000
vt 0.604031 0.069198
vt 0.375000 1.000000
vt 0.375000 0.799690
vt 0.578028 1.000000
vt 0.615335 0.592735
vt 0.589707 0.775249
vt 0.581909 0.353207
s 0
g Cube_Material
usemtl Material
f 320/511/312 322/512/312 321/513/312
f 322/514/313 325/515/313 321/516/313
f 326/517/314 323/518/314 327/519/314
f 323/518/315 326/517/315 320/520/315
f 328/521/316 319/522/316 324/523/316 325/515/316
f 321/513/317 323/524/317 320/511/317
f 321/525/318 324/526/318 319/522/318 323/527/318
f 325/515/319 324/523/319 321/516/319
f 327/528/320 323/518/320 319/529/320
f 319/522/321 328/521/321 327/528/321
f 328/521/322 325/515/322 322/512/322 326/530/322
f 328/521/323 326/530/323 327/528/323
f 322/512/324 320/511/324 326/530/324
