# Blender 4.1.0
# www.blender.org
mtllib Explosion20018.mtl
o Circle
v -0.024615 0.096888 -1.522372
v -0.024615 0.242742 -1.522372
v 0.122545 0.096888 -1.515142
v 0.122545 0.242742 -1.515142
v 0.268288 0.096888 -1.493523
v 0.268288 0.242742 -1.493523
v 0.411211 0.096888 -1.457723
v 0.411211 0.242742 -1.457723
v 0.549936 0.096888 -1.408086
v 0.549936 0.242742 -1.408086
v 0.683127 0.096888 -1.345092
v 0.683127 0.242742 -1.345092
v 0.809503 0.096888 -1.269345
v 0.809503 0.242742 -1.269345
v 0.927846 0.096888 -1.181576
v 0.927846 0.242742 -1.181576
v 1.037016 0.096888 -1.082630
v 1.037016 0.242742 -1.082630
v 1.135962 0.096888 -0.973460
v 1.135962 0.242742 -0.973460
v 1.223731 0.096888 -0.855117
v 1.223731 0.242742 -0.855117
v 1.299478 0.096888 -0.728741
v 1.299478 0.242742 -0.728741
v 1.362473 0.096888 -0.595549
v 1.362473 0.242742 -0.595549
v 1.412110 0.096888 -0.456824
v 1.412110 0.242742 -0.456824
v 1.447910 0.096888 -0.313902
v 1.447910 0.242742 -0.313902
v 1.469529 0.096888 -0.168159
v 1.469529 0.242742 -0.168159
v 1.476758 0.096888 -0.020998
v 1.476758 0.242742 -0.020998
v 1.469529 0.096888 0.126162
v 1.469529 0.242742 0.126162
v 1.447910 0.096888 0.271905
v 1.447910 0.242742 0.271905
v 1.412110 0.096888 0.414827
v 1.412110 0.242742 0.414827
v 1.362473 0.096888 0.553553
v 1.362473 0.242742 0.553553
v 1.299478 0.096888 0.686744
v 1.299478 0.242742 0.686744
v 1.223731 0.096888 0.813120
v 1.223731 0.242742 0.813120
v 1.135962 0.096888 0.931463
v 1.135962 0.242742 0.931463
v 1.037016 0.096888 1.040633
v 1.037016 0.242742 1.040633
v 0.927846 0.096888 1.139579
v 0.927846 0.242742 1.139579
v 0.809503 0.096888 1.227348
v 0.809503 0.242742 1.227348
v 0.683127 0.096888 1.303095
v 0.683127 0.242742 1.303095
v 0.549936 0.096888 1.366090
v 0.549936 0.242742 1.366090
v 0.411211 0.096888 1.415727
v 0.411211 0.242742 1.415727
v 0.268288 0.096888 1.451527
v 0.268288 0.242742 1.451527
v 0.122545 0.096888 1.473146
v 0.122545 0.242742 1.473146
v -0.024615 0.096888 1.480376
v -0.024615 0.242742 1.480376
v -0.171775 0.096888 1.473146
v -0.171775 0.242742 1.473146
v -0.317519 0.096888 1.451527
v -0.317519 0.242742 1.451527
v -0.460441 0.096888 1.415727
v -0.460441 0.242742 1.415727
v -0.599166 0.096888 1.366090
v -0.599166 0.242742 1.366090
v -0.732358 0.096888 1.303095
v -0.732358 0.242742 1.303095
v -0.858734 0.096888 1.227348
v -0.858734 0.242742 1.227348
v -0.977076 0.096888 1.139579
v -0.977076 0.242742 1.139579
v -1.086246 0.096888 1.040633
v -1.086246 0.242742 1.040633
v -1.185192 0.096888 0.931463
v -1.185192 0.242742 0.931463
v -1.272961 0.096888 0.813120
v -1.272961 0.242742 0.813120
v -1.348708 0.096888 0.686744
v -1.348708 0.242742 0.686744
v -1.411703 0.096888 0.553553
v -1.411703 0.242742 0.553553
v -1.461340 0.096888 0.414827
v -1.461340 0.242742 0.414827
v -1.497140 0.096888 0.271905
v -1.497140 0.242742 0.271905
v -1.518759 0.096888 0.126162
v -1.518759 0.242742 0.126162
v -1.525989 0.096888 -0.020998
v -1.525989 0.242742 -0.020998
v -1.518759 0.096888 -0.168159
v -1.518759 0.242742 -0.168159
v -1.497140 0.096888 -0.313902
v -1.497140 0.242742 -0.313902
v -1.461340 0.096888 -0.456824
v -1.461340 0.242742 -0.456824
v -1.411703 0.096888 -0.595549
v -1.411703 0.242742 -0.595549
v -1.348708 0.096888 -0.728741
v -1.348708 0.242742 -0.728741
v -1.272961 0.096888 -0.855117
v -1.272961 0.242742 -0.855117
v -1.185192 0.096888 -0.973460
v -1.185192 0.242742 -0.973460
v -1.086246 0.096888 -1.082630
v -1.086246 0.242742 -1.082630
v -0.977076 0.096888 -1.181576
v -0.977076 0.242742 -1.181576
v -0.858734 0.096888 -1.269345
v -0.858734 0.242742 -1.269345
v -0.732358 0.096888 -1.345092
v -0.732358 0.242742 -1.345092
v -0.599166 0.096888 -1.408086
v -0.599166 0.242742 -1.408086
v -0.460441 0.096888 -1.457723
v -0.460441 0.242742 -1.457723
v -0.317519 0.096888 -1.493523
v -0.317519 0.242742 -1.493523
v -0.171775 0.096888 -1.515142
v -0.171775 0.242742 -1.515142
vn 0.0491 -0.0000 -0.9988
vn 0.1467 -0.0000 -0.9892
vn 0.2430 -0.0000 -0.9700
vn 0.3369 -0.0000 -0.9415
vn 0.4276 -0.0000 -0.9040
vn 0.5141 -0.0000 -0.8577
vn 0.5957 -0.0000 -0.8032
vn 0.6716 -0.0000 -0.7410
vn 0.7410 -0.0000 -0.6716
vn 0.8032 -0.0000 -0.5957
vn 0.8577 -0.0000 -0.5141
vn 0.9040 -0.0000 -0.4276
vn 0.9415 -0.0000 -0.3369
vn 0.9700 -0.0000 -0.2430
vn 0.9892 -0.0000 -0.1467
vn 0.9988 -0.0000 -0.0491
vn 0.9988 -0.0000 0.0491
vn 0.9892 -0.0000 0.1467
vn 0.9700 -0.0000 0.2430
vn 0.9415 -0.0000 0.3369
vn 0.9040 -0.0000 0.4276
vn 0.8577 -0.0000 0.5141
vn 0.8032 -0.0000 0.5957
vn 0.7410 -0.0000 0.6716
vn 0.6716 -0.0000 0.7410
vn 0.5957 -0.0000 0.8032
vn 0.5141 -0.0000 0.8577
vn 0.4276 -0.0000 0.9040
vn 0.3369 -0.0000 0.9415
vn 0.2430 -0.0000 0.9700
vn 0.1467 -0.0000 0.9892
vn 0.0491 -0.0000 0.9988
vn -0.0491 -0.0000 0.9988
vn -0.1467 -0.0000 0.9892
vn -0.2430 -0.0000 0.9700
vn -0.3369 -0.0000 0.9415
vn -0.4276 -0.0000 0.9040
vn -0.5141 -0.0000 0.8577
vn -0.5957 -0.0000 0.8032
vn -0.6716 -0.0000 0.7410
vn -0.7410 -0.0000 0.6716
vn -0.8032 -0.0000 0.5957
vn -0.8577 -0.0000 0.5141
vn -0.9040 -0.0000 0.4276
vn -0.9415 -0.0000 0.3369
vn -0.9700 -0.0000 0.2430
vn -0.9892 -0.0000 0.1467
vn -0.9988 -0.0000 0.0491
vn -0.9988 -0.0000 -0.0491
vn -0.9892 -0.0000 -0.1467
vn -0.9700 -0.0000 -0.2430
vn -0.9415 -0.0000 -0.3369
vn -0.9040 -0.0000 -0.4276
vn -0.8577 -0.0000 -0.5141
vn -0.8032 -0.0000 -0.5957
vn -0.7410 -0.0000 -0.6716
vn -0.6716 -0.0000 -0.7410
vn -0.5957 -0.0000 -0.8032
vn -0.5141 -0.0000 -0.8577
vn -0.4276 -0.0000 -0.9040
vn -0.3369 -0.0000 -0.9415
vn -0.2430 -0.0000 -0.9700
vn -0.1467 -0.0000 -0.9892
vn -0.0491 -0.0000 -0.9988
vt 1.000000 0.500000
vt 1.000000 1.000000
vt 0.984375 1.000000
vt 0.984375 0.500000
vt 0.968750 1.000000
vt 0.968750 0.500000
vt 0.953125 1.000000
vt 0.953125 0.500000
vt 0.937500 1.000000
vt 0.937500 0.500000
vt 0.921875 1.000000
vt 0.921875 0.500000
vt 0.906250 1.000000
vt 0.906250 0.500000
vt 0.890625 1.000000
vt 0.890625 0.500000
vt 0.875000 1.000000
vt 0.875000 0.500000
vt 0.859375 1.000000
vt 0.859375 0.500000
vt 0.843750 1.000000
vt 0.843750 0.500000
vt 0.828125 1.000000
vt 0.828125 0.500000
vt 0.812500 1.000000
vt 0.812500 0.500000
vt 0.796875 1.000000
vt 0.796875 0.500000
vt 0.781250 1.000000
vt 0.781250 0.500000
vt 0.765625 1.000000
vt 0.765625 0.500000
vt 0.750000 1.000000
vt 0.750000 0.500000
vt 0.734375 1.000000
vt 0.734375 0.500000
vt 0.718750 1.000000
vt 0.718750 0.500000
vt 0.703125 1.000000
vt 0.703125 0.500000
vt 0.687500 1.000000
vt 0.687500 0.500000
vt 0.671875 1.000000
vt 0.671875 0.500000
vt 0.656250 1.000000
vt 0.656250 0.500000
vt 0.640625 1.000000
vt 0.640625 0.500000
vt 0.625000 1.000000
vt 0.625000 0.500000
vt 0.609375 1.000000
vt 0.609375 0.500000
vt 0.593750 1.000000
vt 0.593750 0.500000
vt 0.578125 1.000000
vt 0.578125 0.500000
vt 0.562500 1.000000
vt 0.562500 0.500000
vt 0.546875 1.000000
vt 0.546875 0.500000
vt 0.531250 1.000000
vt 0.531250 0.500000
vt 0.515625 1.000000
vt 0.515625 0.500000
vt 0.500000 1.000000
vt 0.500000 0.500000
vt 0.484375 1.000000
vt 0.484375 0.500000
vt 0.468750 1.000000
vt 0.468750 0.500000
vt 0.453125 1.000000
vt 0.453125 0.500000
vt 0.437500 1.000000
vt 0.437500 0.500000
vt 0.421875 1.000000
vt 0.421875 0.500000
vt 0.406250 1.000000
vt 0.406250 0.500000
vt 0.390625 1.000000
vt 0.390625 0.500000
vt 0.375000 1.000000
vt 0.375000 0.500000
vt 0.359375 1.000000
vt 0.359375 0.500000
vt 0.343750 1.000000
vt 0.343750 0.500000
vt 0.328125 1.000000
vt 0.328125 0.500000
vt 0.312500 1.000000
vt 0.312500 0.500000
vt 0.296875 1.000000
vt 0.296875 0.500000
vt 0.281250 1.000000
vt 0.281250 0.500000
vt 0.265625 1.000000
vt 0.265625 0.500000
vt 0.250000 1.000000
vt 0.250000 0.500000
vt 0.234375 1.000000
vt 0.234375 0.500000
vt 0.218750 1.000000
vt 0.218750 0.500000
vt 0.203125 1.000000
vt 0.203125 0.500000
vt 0.187500 1.000000
vt 0.187500 0.500000
vt 0.171875 1.000000
vt 0.171875 0.500000
vt 0.156250 1.000000
vt 0.156250 0.500000
vt 0.140625 1.000000
vt 0.140625 0.500000
vt 0.125000 1.000000
vt 0.125000 0.500000
vt 0.109375 1.000000
vt 0.109375 0.500000
vt 0.093750 1.000000
vt 0.093750 0.500000
vt 0.078125 1.000000
vt 0.078125 0.500000
vt 0.062500 1.000000
vt 0.062500 0.500000
vt 0.046875 1.000000
vt 0.046875 0.500000
vt 0.031250 1.000000
vt 0.031250 0.500000
vt 0.015625 1.000000
vt 0.015625 0.500000
vt 0.000000 1.000000
vt 0.000000 0.500000
s 0
g Circle_Material.001
usemtl Material.001
f 1/1/1 2/2/1 4/3/1 3/4/1
f 3/4/2 4/3/2 6/5/2 5/6/2
f 5/6/3 6/5/3 8/7/3 7/8/3
f 7/8/4 8/7/4 10/9/4 9/10/4
f 9/10/5 10/9/5 12/11/5 11/12/5
f 11/12/6 12/11/6 14/13/6 13/14/6
f 13/14/7 14/13/7 16/15/7 15/16/7
f 15/16/8 16/15/8 18/17/8 17/18/8
f 17/18/9 18/17/9 20/19/9 19/20/9
f 19/20/10 20/19/10 22/21/10 21/22/10
f 21/22/11 22/21/11 24/23/11 23/24/11
f 23/24/12 24/23/12 26/25/12 25/26/12
f 25/26/13 26/25/13 28/27/13 27/28/13
f 27/28/14 28/27/14 30/29/14 29/30/14
f 29/30/15 30/29/15 32/31/15 31/32/15
f 31/32/16 32/31/16 34/33/16 33/34/16
f 33/34/17 34/33/17 36/35/17 35/36/17
f 35/36/18 36/35/18 38/37/18 37/38/18
f 37/38/19 38/37/19 40/39/19 39/40/19
f 39/40/20 40/39/20 42/41/20 41/42/20
f 41/42/21 42/41/21 44/43/21 43/44/21
f 43/44/22 44/43/22 46/45/22 45/46/22
f 45/46/23 46/45/23 48/47/23 47/48/23
f 47/48/24 48/47/24 50/49/24 49/50/24
f 49/50/25 50/49/25 52/51/25 51/52/25
f 51/52/26 52/51/26 54/53/26 53/54/26
f 53/54/27 54/53/27 56/55/27 55/56/27
f 55/56/28 56/55/28 58/57/28 57/58/28
f 57/58/29 58/57/29 60/59/29 59/60/29
f 59/60/30 60/59/30 62/61/30 61/62/30
f 61/62/31 62/61/31 64/63/31 63/64/31
f 63/64/32 64/63/32 66/65/32 65/66/32
f 65/66/33 66/65/33 68/67/33 67/68/33
f 67/68/34 68/67/34 70/69/34 69/70/34
f 69/70/35 70/69/35 72/71/35 71/72/35
f 71/72/36 72/71/36 74/73/36 73/74/36
f 73/74/37 74/73/37 76/75/37 75/76/37
f 75/76/38 76/75/38 78/77/38 77/78/38
f 77/78/39 78/77/39 80/79/39 79/80/39
f 79/80/40 80/79/40 82/81/40 81/82/40
f 81/82/41 82/81/41 84/83/41 83/84/41
f 83/84/42 84/83/42 86/85/42 85/86/42
f 85/86/43 86/85/43 88/87/43 87/88/43
f 87/88/44 88/87/44 90/89/44 89/90/44
f 89/90/45 90/89/45 92/91/45 91/92/45
f 91/92/46 92/91/46 94/93/46 93/94/46
f 93/94/47 94/93/47 96/95/47 95/96/47
f 95/96/48 96/95/48 98/97/48 97/98/48
f 97/98/49 98/97/49 100/99/49 99/100/49
f 99/100/50 100/99/50 102/101/50 101/102/50
f 101/102/51 102/101/51 104/103/51 103/104/51
f 103/104/52 104/103/52 106/105/52 105/106/52
f 105/106/53 106/105/53 108/107/53 107/108/53
f 107/108/54 108/107/54 110/109/54 109/110/54
f 109/110/55 110/109/55 112/111/55 111/112/55
f 111/112/56 112/111/56 114/113/56 113/114/56
f 113/114/57 114/113/57 116/115/57 115/116/57
f 115/116/58 116/115/58 118/117/58 117/118/58
f 117/118/59 118/117/59 120/119/59 119/120/59
f 119/120/60 120/119/60 122/121/60 121/122/60
f 121/122/61 122/121/61 124/123/61 123/124/61
f 123/124/62 124/123/62 126/125/62 125/126/62
f 125/126/63 126/125/63 128/127/63 127/128/63
f 127/128/64 128/127/64 2/129/64 1/130/64
o Cube
v 5.048598 0.221750 4.163740
v 4.093943 -0.236986 3.794920
v 4.735998 -0.464859 3.622523
v 4.376427 -0.137614 3.240035
v 4.468206 -0.083652 4.331278
v 5.157859 -0.024105 3.601500
v 4.846342 0.114968 3.178917
v 4.071020 0.400579 3.692511
v 4.538354 0.670018 3.955519
v 4.617342 0.645158 3.459459
vn -0.3957 -0.8477 -0.3533
vn 0.2349 -0.6184 -0.7499
vn -0.6133 0.3974 0.6826
vn -0.8266 0.0602 0.5596
vn 0.7809 0.5832 -0.2236
vn -0.2090 -0.8920 0.4008
vn 0.5774 -0.6511 0.4925
vn 0.5626 -0.5672 -0.6014
vn 0.0248 0.4442 0.8956
vn 0.6437 0.7626 0.0643
vn -0.4183 0.3622 -0.8329
vn -0.4465 0.8873 -0.1156
vn -0.8783 -0.1065 -0.4662
vt 0.550384 0.206938
vt 0.375000 0.305791
vt 0.375000 0.049496
vt 0.180791 0.500000
vt 0.330928 0.574320
vt 0.125000 0.700504
vt 0.804283 0.500000
vt 0.842867 0.681766
vt 0.658516 0.626313
vt 0.875000 0.500000
vt 0.501754 0.540833
vt 0.565165 0.799791
vt 0.325310 0.750000
vt 0.604031 0.069198
vt 0.375000 1.000000
vt 0.375000 0.799690
vt 0.578028 1.000000
vt 0.615335 0.592735
vt 0.589707 0.775249
vt 0.581909 0.353207
s 0
g Cube_Material
usemtl Material
f 130/131/65 132/132/65 131/133/65
f 132/134/66 135/135/66 131/136/66
f 136/137/67 133/138/67 137/139/67
f 133/138/68 136/137/68 130/140/68
f 138/141/69 129/142/69 134/143/69 135/135/69
f 131/133/70 133/144/70 130/131/70
f 131/145/71 134/146/71 129/142/71 133/147/71
f 135/135/72 134/143/72 131/136/72
f 137/148/73 133/138/73 129/149/73
f 129/142/74 138/141/74 137/148/74
f 138/141/75 135/135/75 132/132/75 136/150/75
f 138/141/76 136/150/76 137/148/76
f 132/132/77 130/131/77 136/150/77
o Cube
v 4.616949 0.002029 -1.471794
v 5.383194 0.248017 -1.934223
v 5.045764 -0.204254 -2.075109
v 5.499763 -0.252453 -1.843472
v 4.876563 0.402409 -1.765240
v 4.821365 -0.423721 -1.679229
v 5.251128 -0.528579 -1.599698
v 5.500213 0.214079 -1.413551
v 5.085582 0.148031 -1.148224
v 5.291813 -0.212539 -1.174482
vn 0.4489 -0.0571 -0.8917
vn 0.2337 -0.7532 -0.6148
vn 0.0800 0.9308 0.3567
vn 0.2906 0.9568 -0.0029
vn -0.4072 -0.6430 0.6486
vn -0.1741 0.4090 -0.8958
vn -0.8160 -0.0057 -0.5780
vn -0.1078 -0.8423 -0.5281
vn -0.5419 0.6963 0.4706
vn -0.4661 -0.3265 0.8223
vn 0.8808 -0.3696 0.2959
vn 0.4995 0.2248 0.8366
vn 0.9610 0.1869 -0.2038
vt 0.550384 0.206938
vt 0.375000 0.305791
vt 0.375000 0.049496
vt 0.180791 0.500000
vt 0.330928 0.574320
vt 0.125000 0.700504
vt 0.804283 0.500000
vt 0.842867 0.681766
vt 0.658516 0.626313
vt 0.875000 0.500000
vt 0.501754 0.540833
vt 0.565165 0.799791
vt 0.325310 0.750000
vt 0.604031 0.069198
vt 0.375000 1.000000
vt 0.375000 0.799690
vt 0.578028 1.000000
vt 0.615335 0.592735
vt 0.589707 0.775249
vt 0.581909 0.353207
s 0
g Cube_Material
usemtl Material
f 140/151/78 142/152/78 141/153/78
f 142/154/79 145/155/79 141/156/79
f 146/157/80 143/158/80 147/159/80
f 143/158/81 146/157/81 140/160/81
f 148/161/82 139/162/82 144/163/82 145/155/82
f 141/153/83 143/164/83 140/151/83
f 141/165/84 144/166/84 139/162/84 143/167/84
f 145/155/85 144/163/85 141/156/85
f 147/168/86 143/158/86 139/169/86
f 139/162/87 148/161/87 147/168/87
f 148/161/88 145/155/88 142/152/88 146/170/88
f 148/161/89 146/170/89 147/168/89
f 142/152/90 140/151/90 146/170/90
o Cube
v 0.610635 -0.278816 5.098087
v 1.353762 0.859248 5.343310
v 0.734497 0.557920 5.867434
v 0.641967 1.161773 5.412301
v 1.370582 0.041452 5.219666
v 0.177009 0.203501 5.508588
v 0.081427 0.830573 5.296540
v 1.057827 0.901139 4.605863
v 0.740036 0.259972 4.421119
v 0.301171 0.676690 4.552752
vn 0.3260 0.6004 0.7303
vn -0.4461 0.4941 0.7462
vn 0.7459 -0.1854 -0.6397
vn 0.9269 0.0747 -0.3677
vn -0.8815 -0.3675 -0.2964
vn 0.6702 -0.0975 0.7358
vn 0.0836 -0.6812 0.7274
vn -0.6075 0.1698 0.7760
vn 0.4008 -0.7526 -0.5224
vn -0.6585 -0.5224 -0.5417
vn -0.3216 0.8735 -0.3654
vn -0.0172 0.2847 -0.9585
vn 0.3809 0.9191 -0.1006
vt 0.550384 0.206938
vt 0.375000 0.305791
vt 0.375000 0.049496
vt 0.180791 0.500000
vt 0.330928 0.574320
vt 0.125000 0.700504
vt 0.804283 0.500000
vt 0.842867 0.681766
vt 0.658516 0.626313
vt 0.875000 0.500000
vt 0.501754 0.540833
vt 0.565165 0.799791
vt 0.325310 0.750000
vt 0.604031 0.069198
vt 0.375000 1.000000
vt 0.375000 0.799690
vt 0.578028 1.000000
vt 0.615335 0.592735
vt 0.589707 0.775249
vt 0.581909 0.353207
s 0
g Cube_Material
usemtl Material
f 150/171/91 152/172/91 151/173/91
f 152/174/92 155/175/92 151/176/92
f 156/177/93 153/178/93 157/179/93
f 153/178/94 156/177/94 150/180/94
f 158/181/95 149/182/95 154/183/95 155/175/95
f 151/173/96 153/184/96 150/171/96
f 151/185/97 154/186/97 149/182/97 153/187/97
f 155/175/98 154/183/98 151/176/98
f 157/188/99 153/178/99 149/189/99
f 149/182/100 158/181/100 157/188/100
f 158/181/101 155/175/101 152/172/101 156/190/101
f 158/181/102 156/190/102 157/188/102
f 152/172/103 150/171/103 156/190/103
o Cube
v -3.714442 0.547612 3.881310
v -3.432332 0.140805 3.440661
v -3.225278 0.419790 3.668181
v -3.300413 0.465176 3.313315
v -3.645681 0.168369 3.774291
v -3.416111 0.715911 3.745881
v -3.380886 0.749630 3.428665
v -3.726796 0.317396 3.273620
v -3.912117 0.500939 3.513921
v -3.747414 0.688177 3.352237
vn 0.8629 -0.4450 -0.2396
vn 0.9322 0.3268 -0.1556
vn -0.7489 -0.6584 -0.0747
vn -0.4204 -0.8860 -0.1956
vn -0.3054 0.9328 0.1913
vn 0.5423 -0.7348 0.4075
vn 0.3731 -0.1086 0.9214
vn 0.8485 0.5079 0.1482
vn -0.8282 -0.2862 0.4819
vn -0.6184 0.7491 0.2376
vn 0.0627 0.2922 -0.9543
vn -0.7511 0.0967 -0.6531
vn 0.2320 -0.4358 -0.8696
vt 0.550384 0.206938
vt 0.375000 0.305791
vt 0.375000 0.049496
vt 0.180791 0.500000
vt 0.330928 0.574320
vt 0.125000 0.700504
vt 0.804283 0.500000
vt 0.842867 0.681766
vt 0.658516 0.626313
vt 0.875000 0.500000
vt 0.501754 0.540833
vt 0.565165 0.799791
vt 0.325310 0.750000
vt 0.604031 0.069198
vt 0.375000 1.000000
vt 0.375000 0.799690
vt 0.578028 1.000000
vt 0.615335 0.592735
vt 0.589707 0.775249
vt 0.581909 0.353207
s 0
g Cube_Material
usemtl Material
f 160/191/104 162/192/104 161/193/104
f 162/194/105 165/195/105 161/196/105
f 166/197/106 163/198/106 167/199/106
f 163/198/107 166/197/107 160/200/107
f 168/201/108 159/202/108 164/203/108 165/195/108
f 161/193/109 163/204/109 160/191/109
f 161/205/110 164/206/110 159/202/110 163/207/110
f 165/195/111 164/203/111 161/196/111
f 167/208/112 163/198/112 159/209/112
f 159/202/113 168/201/113 167/208/113
f 168/201/114 165/195/114 162/192/114 166/210/114
f 168/201/115 166/210/115 167/208/115
f 162/192/116 160/191/116 166/210/116
o Cube
v 4.091645 -0.281244 1.940074
v 3.573478 -0.171934 1.338727
v 4.035187 -0.361497 1.284012
v 3.926229 0.051163 1.169212
v 3.657742 -0.391452 1.757129
v 4.325738 -0.204758 1.569049
v 4.255187 0.112387 1.356905
v 3.605759 0.220404 1.579856
v 3.835680 0.157009 1.936182
v 4.035835 0.332149 1.694575
vn -0.2394 -0.3184 -0.9172
vn 0.5074 -0.1040 -0.8554
vn -0.8296 0.0892 0.5512
vn -0.9829 -0.0308 0.1818
vn 0.8225 0.3370 0.4581
vn -0.3903 -0.8453 -0.3649
vn 0.2918 -0.9521 0.0914
vn 0.7434 -0.2497 -0.6205
vn -0.3400 -0.1904 0.9210
vn 0.5830 0.3471 0.7346
vn -0.0142 0.8829 -0.4693
vn -0.3240 0.8730 0.3644
vn -0.6024 0.4533 -0.6570
vt 0.550384 0.206938
vt 0.375000 0.305791
vt 0.375000 0.049496
vt 0.180791 0.500000
vt 0.330928 0.574320
vt 0.125000 0.700504
vt 0.804283 0.500000
vt 0.842867 0.681766
vt 0.658516 0.626313
vt 0.875000 0.500000
vt 0.501754 0.540833
vt 0.565165 0.799791
vt 0.325310 0.750000
vt 0.604031 0.069198
vt 0.375000 1.000000
vt 0.375000 0.799690
vt 0.578028 1.000000
vt 0.615335 0.592735
vt 0.589707 0.775249
vt 0.581909 0.353207
s 0
g Cube_Material
usemtl Material
f 170/211/117 172/212/117 171/213/117
f 172/214/118 175/215/118 171/216/118
f 176/217/119 173/218/119 177/219/119
f 173/218/120 176/217/120 170/220/120
f 178/221/121 169/222/121 174/223/121 175/215/121
f 171/213/122 173/224/122 170/211/122
f 171/225/123 174/226/123 169/222/123 173/227/123
f 175/215/124 174/223/124 171/216/124
f 177/228/125 173/218/125 169/229/125
f 169/222/126 178/221/126 177/228/126
f 178/221/127 175/215/127 172/212/127 176/230/127
f 178/221/128 176/230/128 177/228/128
f 172/212/129 170/211/129 176/230/129
o Cube
v 4.353789 0.313071 -1.865129
v 4.049872 -0.609904 -1.919251
v 3.723784 -0.153665 -1.679635
v 3.973326 -0.525842 -1.384037
v 4.227522 -0.140711 -2.216084
v 4.017398 0.223467 -1.451174
v 4.095262 -0.137111 -1.157861
v 4.560398 -0.601646 -1.687552
v 4.763264 -0.122822 -1.715665
v 4.628261 -0.199337 -1.307764
vn -0.8200 -0.5717 -0.0275
vn -0.8106 -0.0830 0.5797
vn 0.6530 -0.3170 -0.6878
vn 0.3412 -0.5914 -0.7306
vn 0.3606 0.7215 0.5911
vn -0.7180 -0.1571 -0.6780
vn -0.6105 0.6369 -0.4709
vn -0.7866 0.2785 0.5512
vn 0.6313 0.3569 -0.6886
vn 0.6250 0.7033 0.3388
vn 0.2251 -0.6260 0.7466
vn 0.9010 -0.3683 0.2291
vn -0.0511 -0.9877 0.1478
vt 0.550384 0.206938
vt 0.375000 0.305791
vt 0.375000 0.049496
vt 0.180791 0.500000
vt 0.330928 0.574320
vt 0.125000 0.700504
vt 0.804283 0.500000
vt 0.842867 0.681766
vt 0.658516 0.626313
vt 0.875000 0.500000
vt 0.501754 0.540833
vt 0.565165 0.799791
vt 0.325310 0.750000
vt 0.604031 0.069198
vt 0.375000 1.000000
vt 0.375000 0.799690
vt 0.578028 1.000000
vt 0.615335 0.592735
vt 0.589707 0.775249
vt 0.581909 0.353207
s 0
g Cube_Material
usemtl Material
f 180/231/130 182/232/130 181/233/130
f 182/234/131 185/235/131 181/236/131
f 186/237/132 183/238/132 187/239/132
f 183/238/133 186/237/133 180/240/133
f 188/241/134 179/242/134 184/243/134 185/235/134
f 181/233/135 183/244/135 180/231/135
f 181/245/136 184/246/136 179/242/136 183/247/136
f 185/235/137 184/243/137 181/236/137
f 187/248/138 183/238/138 179/249/138
f 179/242/139 188/241/139 187/248/139
f 188/241/140 185/235/140 182/232/140 186/250/140
f 188/241/141 186/250/141 187/248/141
f 182/232/142 180/231/142 186/250/142
o Cube
v -2.701972 0.238483 2.270930
v -3.515032 0.041282 2.571240
v -3.127283 0.310215 2.867164
v -3.244509 -0.160264 2.939942
v -3.230576 0.300042 2.202999
v -2.673652 0.179926 2.760637
v -2.819457 -0.181655 2.943086
v -3.303638 -0.383185 2.377835
v -2.895342 -0.278026 2.157637
v -2.816111 -0.447900 2.509421
vn -0.6967 0.2760 0.6621
vn 0.0004 0.1528 0.9883
vn -0.4305 -0.1803 -0.8844
vn -0.7592 -0.0840 -0.6455
vn 0.9726 -0.2310 0.0256
vn -0.6098 0.7882 0.0828
vn 0.1924 0.9811 0.0192
vn 0.3043 0.3285 0.8942
vn 0.1441 0.1602 -0.9765
vn 0.9049 -0.2659 -0.3322
vn -0.1488 -0.8842 0.4427
vn -0.0023 -0.9007 -0.4344
vn -0.7954 -0.5300 0.2939
vt 0.550384 0.206938
vt 0.375000 0.305791
vt 0.375000 0.049496
vt 0.180791 0.500000
vt 0.330928 0.574320
vt 0.125000 0.700504
vt 0.804283 0.500000
vt 0.842867 0.681766
vt 0.658516 0.626313
vt 0.875000 0.500000
vt 0.501754 0.540833
vt 0.565165 0.799791
vt 0.325310 0.750000
vt 0.604031 0.069198
vt 0.375000 1.000000
vt 0.375000 0.799690
vt 0.578028 1.000000
vt 0.615335 0.592735
vt 0.589707 0.775249
vt 0.581909 0.353207
s 0
g Cube_Material
usemtl Material
f 190/251/143 192/252/143 191/253/143
f 192/254/144 195/255/144 191/256/144
f 196/257/145 193/258/145 197/259/145
f 193/258/146 196/257/146 190/260/146
f 198/261/147 189/262/147 194/263/147 195/255/147
f 191/253/148 193/264/148 190/251/148
f 191/265/149 194/266/149 189/262/149 193/267/149
f 195/255/150 194/263/150 191/256/150
f 197/268/151 193/258/151 189/269/151
f 189/262/152 198/261/152 197/268/152
f 198/261/153 195/255/153 192/252/153 196/270/153
f 198/261/154 196/270/154 197/268/154
f 192/252/155 190/251/155 196/270/155
o Cube
v -1.931977 0.552897 3.829508
v -2.339563 -0.315671 3.586245
v -2.631103 0.131649 3.901822
v -2.438420 -0.323453 4.133813
v -2.090162 0.183948 3.387086
v -2.305575 0.427195 4.213200
v -2.284690 0.004914 4.438997
v -1.836924 -0.413086 3.837348
v -1.576601 0.042565 3.909099
v -1.745153 -0.093513 4.296501
vn -0.8754 -0.4545 -0.1645
vn -0.8466 -0.0911 0.5244
vn 0.6521 -0.2604 -0.7120
vn 0.3147 -0.4828 -0.8172
vn 0.4040 0.5516 0.7297
vn -0.6911 0.0578 -0.7204
vn -0.5082 0.7812 -0.3625
vn -0.7810 0.2640 0.5660
vn 0.7052 0.3998 -0.5855
vn 0.6787 0.5488 0.4881
vn 0.1113 -0.7754 0.6216
vn 0.8401 -0.5093 0.1866
vn -0.1686 -0.9847 -0.0444
vt 0.550384 0.206938
vt 0.375000 0.305791
vt 0.375000 0.049496
vt 0.180791 0.500000
vt 0.330928 0.574320
vt 0.125000 0.700504
vt 0.804283 0.500000
vt 0.842867 0.681766
vt 0.658516 0.626313
vt 0.875000 0.500000
vt 0.501754 0.540833
vt 0.565165 0.799791
vt 0.325310 0.750000
vt 0.604031 0.069198
vt 0.375000 1.000000
vt 0.375000 0.799690
vt 0.578028 1.000000
vt 0.615335 0.592735
vt 0.589707 0.775249
vt 0.581909 0.353207
s 0
g Cube_Material
usemtl Material
f 200/271/156 202/272/156 201/273/156
f 202/274/157 205/275/157 201/276/157
f 206/277/158 203/278/158 207/279/158
f 203/278/159 206/277/159 200/280/159
f 208/281/160 199/282/160 204/283/160 205/275/160
f 201/273/161 203/284/161 200/271/161
f 201/285/162 204/286/162 199/282/162 203/287/162
f 205/275/163 204/283/163 201/276/163
f 207/288/164 203/278/164 199/289/164
f 199/282/165 208/281/165 207/288/165
f 208/281/166 205/275/166 202/272/166 206/290/166
f 208/281/167 206/290/167 207/288/167
f 202/272/168 200/271/168 206/290/168
o Cube
v 2.422809 0.468414 -2.079631
v 2.653133 0.125546 -2.713924
v 2.450875 0.554324 -2.699710
v 2.251395 0.209998 -2.826024
v 2.774959 0.289519 -2.309179
v 2.177458 0.600138 -2.394923
v 2.003326 0.356248 -2.605988
v 2.403002 -0.151148 -2.487993
v 2.318795 0.002382 -2.122762
v 2.046047 0.031096 -2.322745
vn 0.2981 0.1717 -0.9390
vn -0.3856 0.5064 -0.7713
vn 0.6002 -0.6785 0.4236
vn 0.7562 -0.6533 0.0371
vn -0.7822 0.2529 0.5695
vn 0.8200 0.4004 -0.4090
vn 0.4403 0.8864 0.1427
vn -0.4357 0.7464 -0.5030
vn 0.4691 -0.1846 0.8636
vn -0.5865 0.0561 0.8080
vn -0.6340 -0.6099 -0.4755
vn -0.3176 -0.8981 0.3043
vn 0.0670 -0.6667 -0.7423
vt 0.550384 0.206938
vt 0.375000 0.305791
vt 0.375000 0.049496
vt 0.180791 0.500000
vt 0.330928 0.574320
vt 0.125000 0.700504
vt 0.804283 0.500000
vt 0.842867 0.681766
vt 0.658516 0.626313
vt 0.875000 0.500000
vt 0.501754 0.540833
vt 0.565165 0.799791
vt 0.325310 0.750000
vt 0.604031 0.069198
vt 0.375000 1.000000
vt 0.375000 0.799690
vt 0.578028 1.000000
vt 0.615335 0.592735
vt 0.589707 0.775249
vt 0.581909 0.353207
s 0
g Cube_Material
usemtl Material
f 210/291/169 212/292/169 211/293/169
f 212/294/170 215/295/170 211/296/170
f 216/297/171 213/298/171 217/299/171
f 213/298/172 216/297/172 210/300/172
f 218/301/173 209/302/173 214/303/173 215/295/173
f 211/293/174 213/304/174 210/291/174
f 211/305/175 214/306/175 209/302/175 213/307/175
f 215/295/176 214/303/176 211/296/176
f 217/308/177 213/298/177 209/309/177
f 209/302/178 218/301/178 217/308/178
f 218/301/179 215/295/179 212/292/179 216/310/179
f 218/301/180 216/310/180 217/308/180
f 212/292/181 210/291/181 216/310/181
o Cube
v -3.803140 0.213026 -1.390738
v -3.602477 0.312693 -0.527883
v -3.388609 0.624182 -0.939316
v -3.138369 0.267398 -0.711575
v -3.988373 0.319246 -0.896876
v -3.340612 0.387980 -1.360464
v -3.047192 0.182240 -1.119766
v -3.546012 -0.181874 -0.654367
v -3.710615 -0.259245 -1.095367
v -3.310939 -0.254311 -1.101782
vn 0.3309 0.6616 0.6729
vn 0.8008 0.5964 0.0544
vn -0.7771 -0.5029 0.3783
vn -0.6706 -0.2547 0.6967
vn 0.3044 -0.3437 -0.8884
vn -0.3875 0.8207 0.4199
vn -0.3798 0.8304 -0.4076
vn 0.6970 0.6564 -0.2887
vn -0.9016 -0.3421 -0.2646
vn -0.0070 -0.5312 -0.8472
vn 0.7509 -0.5365 0.3851
vn 0.0149 -0.9858 0.1674
vn 0.3444 -0.1955 0.9183
vt 0.550384 0.206938
vt 0.375000 0.305791
vt 0.375000 0.049496
vt 0.180791 0.500000
vt 0.330928 0.574320
vt 0.125000 0.700504
vt 0.804283 0.500000
vt 0.842867 0.681766
vt 0.658516 0.626313
vt 0.875000 0.500000
vt 0.501754 0.540833
vt 0.565165 0.799791
vt 0.325310 0.750000
vt 0.604031 0.069198
vt 0.375000 1.000000
vt 0.375000 0.799690
vt 0.578028 1.000000
vt 0.615335 0.592735
vt 0.589707 0.775249
vt 0.581909 0.353207
s 0
g Cube_Material
usemtl Material
f 220/311/182 222/312/182 221/313/182
f 222/314/183 225/315/183 221/316/183
f 226/317/184 223/318/184 227/319/184
f 223/318/185 226/317/185 220/320/185
f 228/321/186 219/322/186 224/323/186 225/315/186
f 221/313/187 223/324/187 220/311/187
f 221/325/188 224/326/188 219/322/188 223/327/188
f 225/315/189 224/323/189 221/316/189
f 227/328/190 223/318/190 219/329/190
f 219/322/191 228/321/191 227/328/191
f 228/321/192 225/315/192 222/312/192 226/330/192
f 228/321/193 226/330/193 227/328/193
f 222/312/194 220/311/194 226/330/194
o Cube
v 2.682951 0.614880 0.991486
v 2.788244 0.664385 1.764693
v 2.624148 1.030868 1.483944
v 3.025604 1.012934 1.640522
v 2.563941 0.446561 1.416005
v 2.779283 1.027566 1.087630
v 3.092453 1.108041 1.284652
v 3.163881 0.500519 1.577673
v 3.099690 0.417833 1.172570
v 3.286490 0.712995 1.203013
vn -0.2968 0.4934 0.8176
vn -0.0537 0.9672 0.2484
vn 0.0358 -0.9803 0.1944
vn -0.0780 -0.8222 0.5638
vn 0.3553 0.2417 -0.9029
vn -0.8480 0.0258 0.5294
vn -0.9416 0.1932 -0.2756
vn -0.1973 0.9766 -0.0854
vn -0.2355 -0.8790 -0.4145
vn 0.3460 -0.1230 -0.9301
vn 0.8970 0.2731 0.3476
vn 0.8459 -0.5327 -0.0253
vn 0.4498 0.0118 0.8931
vt 0.550384 0.206938
vt 0.375000 0.305791
vt 0.375000 0.049496
vt 0.180791 0.500000
vt 0.330928 0.574320
vt 0.125000 0.700504
vt 0.804283 0.500000
vt 0.842867 0.681766
vt 0.658516 0.626313
vt 0.875000 0.500000
vt 0.501754 0.540833
vt 0.565165 0.799791
vt 0.325310 0.750000
vt 0.604031 0.069198
vt 0.375000 1.000000
vt 0.375000 0.799690
vt 0.578028 1.000000
vt 0.615335 0.592735
vt 0.589707 0.775249
vt 0.581909 0.353207
s 0
g Cube_Material
usemtl Material
f 230/331/195 232/332/195 231/333/195
f 232/334/196 235/335/196 231/336/196
f 236/337/197 233/338/197 237/339/197
f 233/338/198 236/337/198 230/340/198
f 238/341/199 229/342/199 234/343/199 235/335/199
f 231/333/200 233/344/200 230/331/200
f 231/345/201 234/346/201 229/342/201 233/347/201
f 235/335/202 234/343/202 231/336/202
f 237/348/203 233/338/203 229/349/203
f 229/342/204 238/341/204 237/348/204
f 238/341/205 235/335/205 232/332/205 236/350/205
f 238/341/206 236/350/206 237/348/206
f 232/332/207 230/331/207 236/350/207
o Cube
v 2.345985 0.501652 2.314997
v 1.566742 0.130922 2.219124
v 2.040349 -0.125663 2.142598
v 1.758183 0.019853 1.784051
v 1.892928 0.372304 2.544379
v 2.386268 0.153942 1.982867
v 2.129456 0.150236 1.649984
v 1.575232 0.557135 1.957418
v 1.963576 0.794817 2.049919
v 1.995313 0.626188 1.700425
vn -0.4743 -0.8802 0.0160
vn 0.1393 -0.8745 -0.4646
vn -0.5351 0.6785 0.5033
vn -0.7782 0.3398 0.5282
vn 0.7987 0.3842 -0.4631
vn -0.2365 -0.6516 0.7208
vn 0.5684 -0.4637 0.6797
vn 0.4796 -0.7997 -0.3611
vn 0.1184 0.7465 0.6548
vn 0.6946 0.6706 -0.2605
vn -0.4534 0.0546 -0.8896
vn -0.3954 0.8127 -0.4280
vn -0.9148 -0.1979 -0.3520
vt 0.550384 0.206938
vt 0.375000 0.305791
vt 0.375000 0.049496
vt 0.180791 0.500000
vt 0.330928 0.574320
vt 0.125000 0.700504
vt 0.804283 0.500000
vt 0.842867 0.681766
vt 0.658516 0.626313
vt 0.875000 0.500000
vt 0.501754 0.540833
vt 0.565165 0.799791
vt 0.325310 0.750000
vt 0.604031 0.069198
vt 0.375000 1.000000
vt 0.375000 0.799690
vt 0.578028 1.000000
vt 0.615335 0.592735
vt 0.589707 0.775249
vt 0.581909 0.353207
s 0
g Cube_Material
usemtl Material
f 240/351/208 242/352/208 241/353/208
f 242/354/209 245/355/209 241/356/209
f 246/357/210 243/358/210 247/359/210
f 243/358/211 246/357/211 240/360/211
f 248/361/212 239/362/212 244/363/212 245/355/212
f 241/353/213 243/364/213 240/351/213
f 241/365/214 244/366/214 239/362/214 243/367/214
f 245/355/215 244/363/215 241/356/215
f 247/368/216 243/358/216 239/369/216
f 239/362/217 248/361/217 247/368/217
f 248/361/218 245/355/218 242/352/218 246/370/218
f 248/361/219 246/370/219 247/368/219
f 242/352/220 240/351/220 246/370/220
o Cube
v 2.492448 0.163795 -0.064462
v 2.166461 1.056743 -0.752500
v 2.391551 0.402246 -1.000792
v 2.759084 0.934826 -1.015514
v 1.972723 0.609250 -0.246299
v 2.822107 0.116709 -0.625190
v 3.124929 0.558535 -0.814922
v 2.621135 1.281662 -0.305572
v 2.743338 0.838187 0.121859
v 3.143369 0.867624 -0.218740
vn -0.3572 0.2214 -0.9074
vn 0.2837 -0.2216 -0.9330
vn -0.4885 0.5320 0.6916
vn -0.6626 0.6687 0.3375
vn 0.7659 -0.5270 0.3683
vn -0.8816 -0.1312 -0.4534
vn -0.5455 -0.8244 -0.1512
vn 0.3133 -0.5479 -0.7757
vn -0.4044 -0.1007 0.9090
vn 0.6077 -0.4134 0.6780
vn 0.6873 0.6724 -0.2748
vn 0.4443 0.6822 0.5808
vn -0.0109 0.8976 -0.4406
vt 0.550384 0.206938
vt 0.375000 0.305791
vt 0.375000 0.049496
vt 0.180791 0.500000
vt 0.330928 0.574320
vt 0.125000 0.700504
vt 0.804283 0.500000
vt 0.842867 0.681766
vt 0.658516 0.626313
vt 0.875000 0.500000
vt 0.501754 0.540833
vt 0.565165 0.799791
vt 0.325310 0.750000
vt 0.604031 0.069198
vt 0.375000 1.000000
vt 0.375000 0.799690
vt 0.578028 1.000000
vt 0.615335 0.592735
vt 0.589707 0.775249
vt 0.581909 0.353207
s 0
g Cube_Material
usemtl Material
f 250/371/221 252/372/221 251/373/221
f 252/374/222 255/375/222 251/376/222
f 256/377/223 253/378/223 257/379/223
f 253/378/224 256/377/224 250/380/224
f 258/381/225 249/382/225 254/383/225 255/375/225
f 251/373/226 253/384/226 250/371/226
f 251/385/227 254/386/227 249/382/227 253/387/227
f 255/375/228 254/383/228 251/376/228
f 257/388/229 253/378/229 249/389/229
f 249/382/230 258/381/230 257/388/230
f 258/381/231 255/375/231 252/372/231 256/390/231
f 258/381/232 256/390/232 257/388/232
f 252/372/233 250/371/233 256/390/233
o Cube
v -1.743032 0.126502 -2.176318
v -2.272715 0.812179 -2.130544
v -1.868009 0.713227 -1.781246
v -2.329577 0.641442 -1.677156
v -1.921873 0.556334 -2.416086
v -1.781922 0.253922 -1.712889
v -2.161244 0.289000 -1.535638
v -2.549460 0.397888 -2.171167
v -2.278080 0.031362 -2.258196
v -2.391480 0.022752 -1.886112
vn -0.0680 0.9365 0.3441
vn 0.1359 0.4244 0.8952
vn -0.3544 -0.0405 -0.9342
vn -0.4167 0.3602 -0.8347
vn 0.2321 -0.8959 0.3788
vn 0.4287 0.8679 -0.2509
vn 0.9625 0.2590 -0.0802
vn 0.4298 0.2112 0.8779
vn 0.2086 -0.4088 -0.8885
vn 0.1707 -0.9849 0.0292
vn -0.8567 -0.0860 0.5086
vn -0.8048 -0.5347 -0.2577
vn -0.8318 0.5457 0.1012
vt 0.550384 0.206938
vt 0.375000 0.305791
vt 0.375000 0.049496
vt 0.180791 0.500000
vt 0.330928 0.574320
vt 0.125000 0.700504
vt 0.804283 0.500000
vt 0.842867 0.681766
vt 0.658516 0.626313
vt 0.875000 0.500000
vt 0.501754 0.540833
vt 0.565165 0.799791
vt 0.325310 0.750000
vt 0.604031 0.069198
vt 0.375000 1.000000
vt 0.375000 0.799690
vt 0.578028 1.000000
vt 0.615335 0.592735
vt 0.589707 0.775249
vt 0.581909 0.353207
s 0
g Cube_Material
usemtl Material
f 260/391/234 262/392/234 261/393/234
f 262/394/235 265/395/235 261/396/235
f 266/397/236 263/398/236 267/399/236
f 263/398/237 266/397/237 260/400/237
f 268/401/238 259/402/238 264/403/238 265/395/238
f 261/393/239 263/404/239 260/391/239
f 261/405/240 264/406/240 259/402/240 263/407/240
f 265/395/241 264/403/241 261/396/241
f 267/408/242 263/398/242 259/409/242
f 259/402/243 268/401/243 267/408/243
f 268/401/244 265/395/244 262/392/244 266/410/244
f 268/401/245 266/410/245 267/408/245
f 262/392/246 260/391/246 266/410/246
o Cube
v -2.150642 -0.011293 1.581950
v -2.683702 0.326691 0.744713
v -2.042407 0.183885 0.743116
v -2.248476 0.724253 0.743566
v -2.628433 -0.120917 1.181748
v -1.781706 0.283837 1.240875
v -1.893034 0.757715 1.096501
v -2.793758 0.698483 1.207916
v -2.575686 0.489363 1.680680
v -2.304438 0.840721 1.525642
vn -0.0025 -0.0001 -1.0000
vn 0.6690 0.2557 -0.6979
vn -0.9205 -0.1965 0.3377
vn -0.9779 -0.1949 -0.0759
vn 0.6484 0.2391 0.7228
vn -0.1576 -0.6998 -0.6968
vn 0.4349 -0.8878 -0.1505
vn 0.8789 0.0624 -0.4729
vn -0.4669 -0.5352 0.7040
vn 0.3635 0.1266 0.9229
vn -0.0836 0.9847 -0.1526
vn -0.5373 0.6513 0.5359
vn -0.5398 0.5892 -0.6012
vt 0.550384 0.206938
vt 0.375000 0.305791
vt 0.375000 0.049496
vt 0.180791 0.500000
vt 0.330928 0.574320
vt 0.125000 0.700504
vt 0.804283 0.500000
vt 0.842867 0.681766
vt 0.658516 0.626313
vt 0.875000 0.500000
vt 0.501754 0.540833
vt 0.565165 0.799791
vt 0.325310 0.750000
vt 0.604031 0.069198
vt 0.375000 1.000000
vt 0.375000 0.799690
vt 0.578028 1.000000
vt 0.615335 0.592735
vt 0.589707 0.775249
vt 0.581909 0.353207
s 0
g Cube_Material
usemtl Material
f 270/411/247 272/412/247 271/413/247
f 272/414/248 275/415/248 271/416/248
f 276/417/249 273/418/249 277/419/249
f 273/418/250 276/417/250 270/420/250
f 278/421/251 269/422/251 274/423/251 275/415/251
f 271/413/252 273/424/252 270/411/252
f 271/425/253 274/426/253 269/422/253 273/427/253
f 275/415/254 274/423/254 271/416/254
f 277/428/255 273/418/255 269/429/255
f 269/422/256 278/421/256 277/428/256
f 278/421/257 275/415/257 272/412/257 276/430/257
f 278/421/258 276/430/258 277/428/258
f 272/412/259 270/411/259 276/430/259
o Cube
v -0.636300 -0.219881 2.882320
v -0.126658 0.026912 2.230096
v -0.144294 0.270606 2.713035
v -0.345086 0.451082 2.320502
v -0.252182 -0.354318 2.556527
v -0.566075 0.253479 2.920027
v -0.649379 0.503897 2.595533
v -0.592472 -0.017899 2.060877
v -0.862484 -0.207912 2.384313
v -0.933929 0.172229 2.364154
vn 0.8495 0.4828 -0.2126
vn 0.3637 0.9029 0.2291
vn -0.0505 -0.8421 -0.5369
vn 0.3084 -0.6753 -0.6700
vn -0.8311 0.1918 0.5220
vn 0.9698 -0.2018 0.1372
vn 0.5133 -0.2295 0.8270
vn 0.2395 0.7974 0.5539
vn -0.2572 -0.9618 0.0937
vn -0.9018 -0.1480 0.4060
vn -0.3572 0.6492 -0.6716
vn -0.7055 -0.1691 -0.6883
vn 0.2919 0.3408 -0.8937
vt 0.550384 0.206938
vt 0.375000 0.305791
vt 0.375000 0.049496
vt 0.180791 0.500000
vt 0.330928 0.574320
vt 0.125000 0.700504
vt 0.804283 0.500000
vt 0.842867 0.681766
vt 0.658516 0.626313
vt 0.875000 0.500000
vt 0.501754 0.540833
vt 0.565165 0.799791
vt 0.325310 0.750000
vt 0.604031 0.069198
vt 0.375000 1.000000
vt 0.375000 0.799690
vt 0.578028 1.000000
vt 0.615335 0.592735
vt 0.589707 0.775249
vt 0.581909 0.353207
s 0
g Cube_Material
usemtl Material
f 280/431/260 282/432/260 281/433/260
f 282/434/261 285/435/261 281/436/261
f 286/437/262 283/438/262 287/439/262
f 283/438/263 286/437/263 280/440/263
f 288/441/264 279/442/264 284/443/264 285/435/264
f 281/433/265 283/444/265 280/431/265
f 281/445/266 284/446/266 279/442/266 283/447/266
f 285/435/267 284/443/267 281/436/267
f 287/448/268 283/438/268 279/449/268
f 279/442/269 288/441/269 287/448/269
f 288/441/270 285/435/270 282/432/270 286/450/270
f 288/441/271 286/450/271 287/448/271
f 282/432/272 280/431/272 286/450/272
o Cube
v 1.309238 0.437930 0.654891
v 1.822736 -0.026695 0.008289
v 1.270077 -0.174752 0.166732
v 1.694348 -0.436763 0.323068
v 1.586762 0.467870 0.155818
v 1.157093 -0.066144 0.658053
v 1.467540 -0.399274 0.714136
v 2.121354 0.029964 0.461684
v 1.884524 0.334358 0.790761
v 1.846012 -0.068948 0.918690
vn -0.0709 -0.5933 -0.8018
vn -0.4654 -0.8651 -0.1870
vn 0.6807 0.7127 -0.1694
vn 0.6991 0.4891 -0.5216
vn -0.3539 -0.0007 0.9353
vn -0.3063 0.1349 -0.9423
vn -0.8624 0.3481 -0.3677
vn -0.7301 -0.6832 -0.0169
vn 0.1437 0.9799 0.1387
vn -0.1647 0.3125 0.9355
vn 0.6020 -0.7388 0.3029
vn 0.8449 0.0867 0.5278
vn 0.7298 -0.5452 -0.4125
vt 0.550384 0.206938
vt 0.375000 0.305791
vt 0.375000 0.049496
vt 0.180791 0.500000
vt 0.330928 0.574320
vt 0.125000 0.700504
vt 0.804283 0.500000
vt 0.842867 0.681766
vt 0.658516 0.626313
vt 0.875000 0.500000
vt 0.501754 0.540833
vt 0.565165 0.799791
vt 0.325310 0.750000
vt 0.604031 0.069198
vt 0.375000 1.000000
vt 0.375000 0.799690
vt 0.578028 1.000000
vt 0.615335 0.592735
vt 0.589707 0.775249
vt 0.581909 0.353207
s 0
g Cube_Material
usemtl Material
f 290/451/273 292/452/273 291/453/273
f 292/454/274 295/455/274 291/456/274
f 296/457/275 293/458/275 297/459/275
f 293/458/276 296/457/276 290/460/276
f 298/461/277 289/462/277 294/463/277 295/455/277
f 291/453/278 293/464/278 290/451/278
f 291/465/279 294/466/279 289/462/279 293/467/279
f 295/455/280 294/463/280 291/456/280
f 297/468/281 293/458/281 289/469/281
f 289/462/282 298/461/282 297/468/282
f 298/461/283 295/455/283 292/452/283 296/470/283
f 298/461/284 296/470/284 297/468/284
f 292/452/285 290/451/285 296/470/285
o Cube
v -0.285632 0.379722 -1.420486
v 0.263196 0.712202 -2.055150
v 0.096230 0.172540 -2.028366
v 0.550945 0.325821 -1.895870
v -0.225294 0.739281 -1.825203
v 0.018498 0.010427 -1.571184
v 0.451766 0.067350 -1.564074
v 0.445329 0.849852 -1.587980
v 0.127275 0.733367 -1.243721
v 0.433354 0.468622 -1.239105
vn 0.3218 -0.1460 -0.9355
vn 0.4029 -0.7765 -0.4845
vn -0.2078 0.9687 0.1358
vn -0.0678 0.9639 -0.2576
vn -0.0679 -0.5445 0.8360
vn -0.4205 0.0853 -0.9033
vn -0.8288 -0.4100 -0.3809
vn 0.1288 -0.9413 -0.3119
vn -0.6871 0.5910 0.4226
vn -0.2116 -0.2280 0.9504
vn 0.9848 0.0134 0.1734
vn 0.4914 0.5795 0.6501
vn 0.7990 0.4161 -0.4341
vt 0.550384 0.206938
vt 0.375000 0.305791
vt 0.375000 0.049496
vt 0.180791 0.500000
vt 0.330928 0.574320
vt 0.125000 0.700504
vt 0.804283 0.500000
vt 0.842867 0.681766
vt 0.658516 0.626313
vt 0.875000 0.500000
vt 0.501754 0.540833
vt 0.565165 0.799791
vt 0.325310 0.750000
vt 0.604031 0.069198
vt 0.375000 1.000000
vt 0.375000 0.799690
vt 0.578028 1.000000
vt 0.615335 0.592735
vt 0.589707 0.775249
vt 0.581909 0.353207
s 0
g Cube_Material
usemtl Material
f 300/471/286 302/472/286 301/473/286
f 302/474/287 305/475/287 301/476/287
f 306/477/288 303/478/288 307/479/288
f 303/478/289 306/477/289 300/480/289
f 308/481/290 299/482/290 304/483/290 305/475/290
f 301/473/291 303/484/291 300/471/291
f 301/485/292 304/486/292 299/482/292 303/487/292
f 305/475/293 304/483/293 301/476/293
f 307/488/294 303/478/294 299/489/294
f 299/482/295 308/481/295 307/488/295
f 308/481/296 305/475/296 302/472/296 306/490/296
f 308/481/297 306/490/297 307/488/297
f 302/472/298 300/471/298 306/490/298
o Cube
v 4.938061 0.258492 3.669474
v 4.220760 -0.086190 3.392354
v 4.703182 -0.257407 3.262820
v 4.433011 -0.011524 2.975429
v 4.501971 0.029021 3.795357
v 5.020157 0.073763 3.247024
v 4.786091 0.178258 2.929507
v 4.203537 0.392858 3.315406
v 4.554678 0.595307 3.513023
v 4.614028 0.576628 3.140298
vn -0.3957 -0.8477 -0.3533
vn 0.2349 -0.6184 -0.7499
vn -0.6133 0.3974 0.6826
vn -0.8266 0.0602 0.5596
vn 0.7809 0.5832 -0.2236
vn -0.2090 -0.8920 0.4008
vn 0.5774 -0.6511 0.4925
vn 0.5626 -0.5672 -0.6014
vn 0.0248 0.4442 0.8956
vn 0.6437 0.7626 0.0643
vn -0.4183 0.3622 -0.8329
vn -0.4465 0.8873 -0.1156
vn -0.8783 -0.1065 -0.4662
vt 0.550384 0.206938
vt 0.375000 0.305791
vt 0.375000 0.049496
vt 0.180791 0.500000
vt 0.330928 0.574320
vt 0.125000 0.700504
vt 0.804283 0.500000
vt 0.842867 0.681766
vt 0.658516 0.626313
vt 0.875000 0.500000
vt 0.501754 0.540833
vt 0.565165 0.799791
vt 0.325310 0.750000
vt 0.604031 0.069198
vt 0.375000 1.000000
vt 0.375000 0.799690
vt 0.578028 1.000000
vt 0.615335 0.592735
vt 0.589707 0.775249
vt 0.581909 0.353207
s 0
g Cube_Material
usemtl Material
f 310/491/299 312/492/299 311/493/299
f 312/494/300 315/495/300 311/496/300
f 316/497/301 313/498/301 317/499/301
f 313/498/302 316/497/302 310/500/302
f 318/501/303 309/502/303 314/503/303 315/495/303
f 311/493/304 313/504/304 310/491/304
f 311/505/305 314/506/305 309/502/305 313/507/305
f 315/495/306 314/503/306 311/496/306
f 317/508/307 313/498/307 309/509/307
f 309/502/308 318/501/308 317/508/308
f 318/501/309 315/495/309 312/492/309 316/510/309
f 318/501/310 316/510/310 317/508/310
f 312/492/311 310/491/311 316/510/311
o Cube
v 4.279016 0.475704 -1.465066
v 5.394429 0.833784 -2.138217
v 4.903237 0.175421 -2.343303
v 5.564116 0.105258 -2.006112
v 4.656933 1.058531 -1.892231
v 4.576582 -0.144055 -1.767026
v 5.202182 -0.296695 -1.651253
v 5.564772 0.784382 -1.380283
v 4.961199 0.688237 -0.994051
v 5.261407 0.163360 -1.032274
vn 0.4489 -0.0571 -0.8917
vn 0.2337 -0.7532 -0.6148
vn 0.0800 0.9308 0.3567
vn 0.2906 0.9568 -0.0029
vn -0.4072 -0.6430 0.6486
vn -0.1741 0.4090 -0.8958
vn -0.8160 -0.0057 -0.5780
vn -0.1078 -0.8423 -0.5281
vn -0.5419 0.6963 0.4706
vn -0.4661 -0.3265 0.8223
vn 0.8808 -0.3696 0.2959
vn 0.4995 0.2248 0.8366
vn 0.9610 0.1869 -0.2038
vt 0.550384 0.206938
vt 0.375000 0.305791
vt 0.375000 0.049496
vt 0.180791 0.500000
vt 0.330928 0.574320
vt 0.125000 0.700504
vt 0.804283 0.500000
vt 0.842867 0.681766
vt 0.658516 0.626313
vt 0.875000 0.500000
vt 0.501754 0.540833
vt 0.565165 0.799791
vt 0.325310 0.750000
vt 0.604031 0.069198
vt 0.375000 1.000000
vt 0.375000 0.799690
vt 0.578028 1.000000
vt 0.615335 0.592735
vt 0.589707 0.775249
vt 0.581909 0.353207
s 0
g Cube_Material
usemtl Material
f 320/511/312 322/512/312 321/513/312
f 322/514/313 325/515/313 321/516/313
f 326/517/314 323/518/314 327/519/314
f 323/518/315 326/517/315 320/520/315
f 328/521/316 319/522/316 324/523/316 325/515/316
f 321/513/317 323/524/317 320/511/317
f 321/525/318 324/526/318 319/522/318 323/527/318
f 325/515/319 324/523/319 321/516/319
f 327/528/320 323/518/320 319/529/320
f 319/522/321 328/521/321 327/528/321
f 328/521/322 325/515/322 322/512/322 326/530/322
f 328/521/323 326/530/323 327/528/323
f 322/512/324 320/511/324 326/530/324
o Cube
v 1.358900 -0.291127 4.990352
v 1.933551 0.588923 5.179979
v 1.454681 0.355910 5.585278
v 1.383129 0.822862 5.233329
v 1.946557 -0.043468 5.084367
v 1.023583 0.081842 5.307787
v 0.949670 0.566750 5.143813
v 1.704708 0.621317 4.609721
v 1.458964 0.125511 4.466861
v 1.119596 0.447753 4.568651
vn 0.3260 0.6004 0.7303
vn -0.4461 0.4941 0.7462
vn 0.7459 -0.1854 -0.6397
vn 0.9269 0.0747 -0.3677
vn -0.8815 -0.3675 -0.2964
vn 0.6702 -0.0975 0.7358
vn 0.0836 -0.6812 0.7274
vn -0.6075 0.1698 0.7760
vn 0.4008 -0.7526 -0.5224
vn -0.6585 -0.5224 -0.5417
vn -0.3216 0.8735 -0.3654
vn -0.0172 0.2847 -0.9585
vn 0.3809 0.9191 -0.1006
vt 0.550384 0.206938
vt 0.375000 0.305791
vt 0.375000 0.049496
vt 0.180791 0.500000
vt 0.330928 0.574320
vt 0.125000 0.700504
vt 0.804283 0.500000
vt 0.842867 0.681766
vt 0.658516 0.626313
vt 0.875000 0.500000
vt 0.501754 0.540833
vt 0.565165 0.799791
vt 0.325310 0.750000
vt 0.604031 0.069198
vt 0.375000 1.000000
vt 0.375000 0.799690
vt 0.578028 1.000000
vt 0.615335 0.592735
vt 0.589707 0.775249
vt 0.581909 0.353207
s 0
g Cube_Material
usemtl Material
f 330/531/325 332/532/325 331/533/325
f 332/534/326 335/535/326 331/536/326
f 336/537/327 333/538/327 337/539/327
f 333/538/328 336/537/328 330/540/328
f 338/541/329 329/542/329 334/543/329 335/535/329
f 331/533/330 333/544/330 330/531/330
f 331/545/331 334/546/331 329/542/331 333/547/331
f 335/535/332 334/543/332 331/536/332
f 337/548/333 333/538/333 329/549/333
f 329/542/334 338/541/334 337/548/334
f 338/541/335 335/535/335 332/532/335 336/550/335
f 338/541/336 336/550/336 337/548/336
f 332/532/337 330/531/337 336/550/337
o Cube
v -3.796238 -0.122573 4.139258
v -3.384251 -0.716664 3.495745
v -3.081875 -0.309241 3.828010
v -3.191600 -0.242961 3.309772
v -3.695821 -0.676410 3.982970
v -3.360562 0.123207 3.941481
v -3.309121 0.172450 3.478226
v -3.814280 -0.458775 3.251802
v -4.084918 -0.190734 3.602731
v -3.844390 0.082705 3.366613
vn 0.8629 -0.4450 -0.2396
vn 0.9322 0.3268 -0.1556
vn -0.7489 -0.6584 -0.0747
vn -0.4204 -0.8860 -0.1956
vn -0.3054 0.9328 0.1913
vn 0.5423 -0.7348 0.4075
vn 0.3731 -0.1086 0.9214
vn 0.8485 0.5079 0.1482
vn -0.8282 -0.2862 0.4819
vn -0.6184 0.7491 0.2376
vn 0.0627 0.2922 -0.9543
vn -0.7511 0.0967 -0.6531
vn 0.2320 -0.4358 -0.8696
vt 0.550384 0.206938
vt 0.375000 0.305791
vt 0.375000 0.049496
vt 0.180791 0.500000
vt 0.330928 0.574320
vt 0.125000 0.700504
vt 0.804283 0.500000
vt 0.842867 0.681766
vt 0.658516 0.626313
vt 0.875000 0.500000
vt 0.501754 0.540833
vt 0.565165 0.799791
vt 0.325310 0.750000
vt 0.604031 0.069198
vt 0.375000 1.000000
vt 0.375000 0.799690
vt 0.578028 1.000000
vt 0.615335 0.592735
vt 0.589707 0.775249
vt 0.581909 0.353207
s 0
g Cube_Material
usemtl Material
f 340/551/338 342/552/338 341/553/338
f 342/554/339 345/555/339 341/556/339
f 346/557/340 343/558/340 347/559/340
f 343/558/341 346/557/341 340/560/341
f 348/561/342 339/562/342 344/563/342 345/555/342
f 341/553/343 343/564/343 340/551/343
f 341/565/344 344/566/344 339/562/344 343/567/344
f 345/555/345 344/563/345 341/556/345
f 347/568/346 343/558/346 339/569/346
f 339/562/347 348/561/347 347/568/347
f 348/561/348 345/555/348 342/552/348 346/570/348
f 348/561/349 346/570/349 347/568/349
f 342/552/350 340/551/350 346/570/350
o Cube
v 4.600533 -0.119351 2.481479
v 3.891552 0.030213 1.658687
v 4.523285 -0.229156 1.583824
v 4.374203 0.335465 1.426748
v 4.006846 -0.270142 2.231165
v 4.920830 -0.014699 1.973825
v 4.824299 0.419234 1.683559
v 3.935721 0.567029 1.988612
v 4.250309 0.480289 2.476155
v 4.524172 0.719924 2.145576
vn -0.2394 -0.3184 -0.9172
vn 0.5074 -0.1040 -0.8554
vn -0.8296 0.0892 0.5512
vn -0.9829 -0.0308 0.1818
vn 0.8225 0.3370 0.4581
vn -0.3903 -0.8453 -0.3649
vn 0.2918 -0.9521 0.0914
vn 0.7434 -0.2497 -0.6205
vn -0.3400 -0.1904 0.9210
vn 0.5830 0.3471 0.7346
vn -0.0142 0.8829 -0.4693
vn -0.3240 0.8730 0.3644
vn -0.6024 0.4533 -0.6570
vt 0.550384 0.206938
vt 0.375000 0.305791
vt 0.375000 0.049496
vt 0.180791 0.500000
vt 0.330928 0.574320
vt 0.125000 0.700504
vt 0.804283 0.500000
vt 0.842867 0.681766
vt 0.658516 0.626313
vt 0.875000 0.500000
vt 0.501754 0.540833
vt 0.565165 0.799791
vt 0.325310 0.750000
vt 0.604031 0.069198
vt 0.375000 1.000000
vt 0.375000 0.799690
vt 0.578028 1.000000
vt 0.615335 0.592735
vt 0.589707 0.775249
vt 0.581909 0.353207
s 0
g Cube_Material
usemtl Material
f 350/571/351 352/572/351 351/573/351
f 352/574/352 355/575/352 351/576/352
f 356/577/353 353/578/353 357/579/353
f 353/578/354 356/577/354 350/580/354
f 358/581/355 349/582/355 354/583/355 355/575/355
f 351/573/356 353/584/356 350/571/356
f 351/585/357 354/586/357 349/582/357 353/587/357
f 355/575/358 354/583/358 351/576/358
f 357/588/359 353/578/359 349/589/359
f 349/582/360 358/581/360 357/588/360
f 358/581/361 355/575/361 352/572/361 356/590/361
f 358/581/362 356/590/362 357/588/362
f 352/572/363 350/571/363 356/590/363
o Cube
v 4.325224 0.264850 -2.195518
v 3.971509 -0.809360 -2.258508
v 3.591989 -0.278363 -1.979630
v 3.882420 -0.711524 -1.635596
v 4.178267 -0.263286 -2.603979
v 3.933713 0.160563 -1.713734
v 4.024336 -0.259097 -1.372359
v 4.565687 -0.799749 -1.988844
v 4.801794 -0.242467 -2.021563
v 4.644670 -0.331520 -1.546825
vn -0.8200 -0.5717 -0.0275
vn -0.8106 -0.0830 0.5797
vn 0.6530 -0.3170 -0.6878
vn 0.3412 -0.5914 -0.7306
vn 0.3606 0.7215 0.5911
vn -0.7180 -0.1571 -0.6780
vn -0.6105 0.6369 -0.4709
vn -0.7866 0.2785 0.5512
vn 0.6313 0.3569 -0.6886
vn 0.6250 0.7033 0.3388
vn 0.2251 -0.6260 0.7466
vn 0.9010 -0.3683 0.2291
vn -0.0511 -0.9877 0.1478
vt 0.550384 0.206938
vt 0.375000 0.305791
vt 0.375000 0.049496
vt 0.180791 0.500000
vt 0.330928 0.574320
vt 0.125000 0.700504
vt 0.804283 0.500000
vt 0.842867 0.681766
vt 0.658516 0.626313
vt 0.875000 0.500000
vt 0.501754 0.540833
vt 0.565165 0.799791
vt 0.325310 0.750000
vt 0.604031 0.069198
vt 0.375000 1.000000
vt 0.375000 0.799690
vt 0.578028 1.000000
vt 0.615335 0.592735
vt 0.589707 0.775249
vt 0.581909 0.353207
s 0
g Cube_Material
usemtl Material
f 360/591/364 362/592/364 361/593/364
f 362/594/365 365/595/365 361/596/365
f 366/597/366 363/598/366 367/599/366
f 363/598/367 366/597/367 360/600/367
f 368/601/368 359/602/368 364/603/368 365/595/368
f 361/593/369 363/604/369 360/591/369
f 361/605/370 364/606/370 359/602/370 363/607/370
f 365/595/371 364/603/371 361/596/371
f 367/608/372 363/598/372 359/609/372
f 359/602/373 368/601/373 367/608/373
f 368/601/374 365/595/374 362/592/374 366/610/374
f 368/601/375 366/610/375 367/608/375
f 362/592/376 360/591/376 366/610/376
o Cube
v -2.309574 0.170228 2.838665
v -3.281921 -0.065607 3.197809
v -2.818209 0.256013 3.551707
v -2.958400 -0.306638 3.638744
v -2.941738 0.243847 2.757426
v -2.275706 0.100198 3.424311
v -2.450077 -0.332219 3.642503
v -3.029114 -0.573231 2.966514
v -2.540828 -0.447470 2.703177
v -2.446074 -0.650625 3.123879
vn -0.6967 0.2760 0.6621
vn 0.0004 0.1528 0.9883
vn -0.4305 -0.1803 -0.8844
vn -0.7592 -0.0840 -0.6455
vn 0.9726 -0.2310 0.0256
vn -0.6098 0.7882 0.0828
vn 0.1924 0.9811 0.0192
vn 0.3043 0.3285 0.8942
vn 0.1441 0.1602 -0.9765
vn 0.9049 -0.2659 -0.3322
vn -0.1488 -0.8842 0.4427
vn -0.0023 -0.9007 -0.4344
vn -0.7954 -0.5300 0.2939
vt 0.550384 0.206938
vt 0.375000 0.305791
vt 0.375000 0.049496
vt 0.180791 0.500000
vt 0.330928 0.574320
vt 0.125000 0.700504
vt 0.804283 0.500000
vt 0.842867 0.681766
vt 0.658516 0.626313
vt 0.875000 0.500000
vt 0.501754 0.540833
vt 0.565165 0.799791
vt 0.325310 0.750000
vt 0.604031 0.069198
vt 0.375000 1.000000
vt 0.375000 0.799690
vt 0.578028 1.000000
vt 0.615335 0.592735
vt 0.589707 0.775249
vt 0.581909 0.353207
s 0
g Cube_Material
usemtl Material
f 370/611/377 372/612/377 371/613/377
f 372/614/378 375/615/378 371/616/378
f 376/617/379 373/618/379 377/619/379
f 373/618/380 376/617/380 370/620/380
f 378/621/381 369/622/381 374/623/381 375/615/381
f 371/613/382 373/624/382 370/611/382
f 371/625/383 374/626/383 369/622/383 373/627/383
f 375/615/384 374/623/384 371/616/384
f 377/628/385 373/618/385 369/629/385
f 369/622/386 378/621/386 377/628/386
f 378/621/387 375/615/387 372/612/387 376/630/387
f 378/621/388 376/630/388 377/628/388
f 372/612/389 370/611/389 376/630/389
o Cube
v -1.953909 0.309531 3.632027
v -2.274219 -0.373052 3.440854
v -2.503332 -0.021516 3.688857
v -2.351908 -0.379167 3.871171
v -2.078222 0.019584 3.284341
v -2.247509 0.210745 3.933559
v -2.231096 -0.121114 4.111007
v -1.879210 -0.449608 3.638188
v -1.674630 -0.091525 3.694576
v -1.807089 -0.198464 3.999023
vn -0.8754 -0.4545 -0.1645
vn -0.8466 -0.0911 0.5244
vn 0.6521 -0.2604 -0.7120
vn 0.3147 -0.4828 -0.8172
vn 0.4040 0.5516 0.7297
vn -0.6911 0.0578 -0.7204
vn -0.5082 0.7812 -0.3625
vn -0.7810 0.2640 0.5660
vn 0.7052 0.3998 -0.5855
vn 0.6787 0.5488 0.4881
vn 0.1113 -0.7754 0.6216
vn 0.8401 -0.5093 0.1866
vn -0.1686 -0.9847 -0.0444
vt 0.550384 0.206938
vt 0.375000 0.305791
vt 0.375000 0.049496
vt 0.180791 0.500000
vt 0.330928 0.574320
vt 0.125000 0.700504
vt 0.804283 0.500000
vt 0.842867 0.681766
vt 0.658516 0.626313
vt 0.875000 0.500000
vt 0.501754 0.540833
vt 0.565165 0.799791
vt 0.325310 0.750000
vt 0.604031 0.069198
vt 0.375000 1.000000
vt 0.375000 0.799690
vt 0.578028 1.000000
vt 0.615335 0.592735
vt 0.589707 0.775249
vt 0.581909 0.353207
s 0
g Cube_Material
usemtl Material
f 380/631/390 382/632/390 381/633/390
f 382/634/391 385/635/391 381/636/391
f 386/637/392 383/638/392 387/639/392
f 383/638/393 386/637/393 380/640/393
f 388/641/394 379/642/394 384/643/394 385/635/394
f 381/633/395 383/644/395 380/631/395
f 381/645/396 384/646/396 379/642/396 383/647/396
f 385/635/397 384/643/397 381/636/397
f 387/648/398 383/638/398 379/649/398
f 379/642/399 388/641/399 387/648/399
f 388/641/400 385/635/400 382/632/400 386/650/400
f 388/641/401 386/650/401 387/648/401
f 382/632/402 380/631/402 386/650/402
o Cube
v 2.866385 0.073004 -1.612491
v 3.169878 -0.378786 -2.448287
v 2.903367 0.186205 -2.429557
v 2.640517 -0.267505 -2.595998
v 3.330405 -0.162722 -1.914962
v 2.543092 0.246574 -2.027946
v 2.313642 -0.074795 -2.306062
v 2.840286 -0.743380 -2.150582
v 2.729328 -0.541076 -1.669325
v 2.369933 -0.503241 -1.932839
vn 0.2981 0.1717 -0.9390
vn -0.3856 0.5064 -0.7713
vn 0.6002 -0.6785 0.4236
vn 0.7562 -0.6533 0.0371
vn -0.7822 0.2529 0.5695
vn 0.8200 0.4004 -0.4090
vn 0.4403 0.8864 0.1427
vn -0.4357 0.7464 -0.5030
vn 0.4691 -0.1846 0.8636
vn -0.5865 0.0561 0.8080
vn -0.6340 -0.6099 -0.4755
vn -0.3176 -0.8981 0.3043
vn 0.0670 -0.6667 -0.7423
vt 0.550384 0.206938
vt 0.375000 0.305791
vt 0.375000 0.049496
vt 0.180791 0.500000
vt 0.330928 0.574320
vt 0.125000 0.700504
vt 0.804283 0.500000
vt 0.842867 0.681766
vt 0.658516 0.626313
vt 0.875000 0.500000
vt 0.501754 0.540833
vt 0.565165 0.799791
vt 0.325310 0.750000
vt 0.604031 0.069198
vt 0.375000 1.000000
vt 0.375000 0.799690
vt 0.578028 1.000000
vt 0.615335 0.592735
vt 0.589707 0.775249
vt 0.581909 0.353207
s 0
g Cube_Material
usemtl Material
f 390/651/403 392/652/403 391/653/403
f 392/654/404 395/655/404 391/656/404
f 396/657/405 393/658/405 397/659/405
f 393/658/406 396/657/406 390/660/406
f 398/661/407 389/662/407 394/663/407 395/655/407
f 391/653/408 393/664/408 390/651/408
f 391/665/409 394/666/409 389/662/409 393/667/409
f 395/655/410 394/663/410 391/656/410
f 397/668/411 393/658/411 389/669/411
f 389/662/412 398/661/412 397/668/412
f 398/661/413 395/655/413 392/652/413 396/670/413
f 398/661/414 396/670/414 397/668/414
f 392/652/415 390/651/415 396/670/415
o Cube
v -3.594378 0.171671 -1.530885
v -3.413866 0.261330 -0.754679
v -3.221475 0.541538 -1.124796
v -2.996364 0.220584 -0.919924
v -3.761009 0.267224 -1.086617
v -3.178298 0.329057 -1.503651
v -2.914344 0.143977 -1.287124
v -3.363071 -0.183572 -0.868461
v -3.511145 -0.253173 -1.265176
v -3.151605 -0.248734 -1.270947
vn 0.3309 0.6616 0.6729
vn 0.8008 0.5964 0.0544
vn -0.7771 -0.5029 0.3783
vn -0.6706 -0.2547 0.6967
vn 0.3044 -0.3437 -0.8884
vn -0.3875 0.8207 0.4199
vn -0.3798 0.8304 -0.4076
vn 0.6970 0.6564 -0.2887
vn -0.9016 -0.3421 -0.2646
vn -0.0070 -0.5312 -0.8472
vn 0.7509 -0.5365 0.3851
vn 0.0149 -0.9858 0.1674
vn 0.3444 -0.1955 0.9183
vt 0.550384 0.206938
vt 0.375000 0.305791
vt 0.375000 0.049496
vt 0.180791 0.500000
vt 0.330928 0.574320
vt 0.125000 0.700504
vt 0.804283 0.500000
vt 0.842867 0.681766
vt 0.658516 0.626313
vt 0.875000 0.500000
vt 0.501754 0.540833
vt 0.565165 0.799791
vt 0.325310 0.750000
vt 0.604031 0.069198
vt 0.375000 1.000000
vt 0.375000 0.799690
vt 0.578028 1.000000
vt 0.615335 0.592735
vt 0.589707 0.775249
vt 0.581909 0.353207
s 0
g Cube_Material
usemtl Material
f 400/671/416 402/672/416 401/673/416
f 402/674/417 405/675/417 401/676/417
f 406/677/418 403/678/418 407/679/418
f 403/678/419 406/677/419 400/680/419
f 408/681/420 399/682/420 404/683/420 405/675/420
f 401/673/421 403/684/421 400/671/421
f 401/685/422 404/686/422 399/682/422 403/687/422
f 405/675/423 404/683/423 401/676/423
f 407/688/424 403/678/424 399/689/424
f 399/682/425 408/681/425 407/688/425
f 408/681/426 405/675/426 402/672/426 406/690/426
f 408/681/427 406/690/427 407/688/427
f 402/672/428 400/671/428 406/690/428
o Cube
v 2.390722 0.154073 0.662089
v 2.508810 0.209594 1.529256
v 2.324773 0.620612 1.214390
v 2.775013 0.600498 1.389995
v 2.257250 -0.034700 1.138196
v 2.498760 0.616909 0.769916
v 2.849986 0.707163 0.990881
v 2.930094 0.025815 1.319510
v 2.858103 -0.066919 0.865179
v 3.067602 0.264111 0.899320
vn -0.2968 0.4934 0.8176
vn -0.0537 0.9672 0.2484
vn 0.0358 -0.9803 0.1944
vn -0.0780 -0.8222 0.5638
vn 0.3553 0.2417 -0.9029
vn -0.8480 0.0258 0.5294
vn -0.9416 0.1932 -0.2756
vn -0.1973 0.9766 -0.0854
vn -0.2355 -0.8790 -0.4145
vn 0.3460 -0.1230 -0.9301
vn 0.8970 0.2731 0.3476
vn 0.8459 -0.5327 -0.0253
vn 0.4498 0.0118 0.8931
vt 0.550384 0.206938
vt 0.375000 0.305791
vt 0.375000 0.049496
vt 0.180791 0.500000
vt 0.330928 0.574320
vt 0.125000 0.700504
vt 0.804283 0.500000
vt 0.842867 0.681766
vt 0.658516 0.626313
vt 0.875000 0.500000
vt 0.501754 0.540833
vt 0.565165 0.799791
vt 0.325310 0.750000
vt 0.604031 0.069198
vt 0.375000 1.000000
vt 0.375000 0.799690
vt 0.578028 1.000000
vt 0.615335 0.592735
vt 0.589707 0.775249
vt 0.581909 0.353207
s 0
g Cube_Material
usemtl Material
f 410/691/429 412/692/429 411/693/429
f 412/694/430 415/695/430 411/696/430
f 416/697/431 413/698/431 417/699/431
f 413/698/432 416/697/432 410/700/432
f 418/701/433 409/702/433 414/703/433 415/695/433
f 411/693/434 413/704/434 410/691/434
f 411/705/435 414/706/435 409/702/435 413/707/435
f 415/695/436 414/703/436 411/696/436
f 417/708/437 413/698/437 409/709/437
f 409/702/438 418/701/438 417/708/438
f 418/701/439 415/695/439 412/692/439 416/710/439
f 418/701/440 416/710/440 417/708/440
f 412/692/441 410/691/441 416/710/441
o Cube
v 2.423912 0.537379 2.695758
v 1.369284 0.035633 2.566002
v 2.010264 -0.311630 2.462432
v 1.628380 -0.114688 1.977175
v 1.810744 0.362320 3.006203
v 2.478431 0.066788 2.246252
v 2.130861 0.061772 1.795727
v 1.380774 0.612470 2.211810
v 1.906359 0.934149 2.337001
v 1.949312 0.705926 1.863995
vn -0.4743 -0.8802 0.0160
vn 0.1393 -0.8745 -0.4646
vn -0.5351 0.6785 0.5033
vn -0.7782 0.3398 0.5282
vn 0.7987 0.3842 -0.4631
vn -0.2365 -0.6516 0.7208
vn 0.5684 -0.4637 0.6797
vn 0.4796 -0.7997 -0.3611
vn 0.1184 0.7465 0.6548
vn 0.6946 0.6706 -0.2605
vn -0.4534 0.0546 -0.8896
vn -0.3954 0.8127 -0.4280
vn -0.9148 -0.1979 -0.3520
vt 0.550384 0.206938
vt 0.375000 0.305791
vt 0.375000 0.049496
vt 0.180791 0.500000
vt 0.330928 0.574320
vt 0.125000 0.700504
vt 0.804283 0.500000
vt 0.842867 0.681766
vt 0.658516 0.626313
vt 0.875000 0.500000
vt 0.501754 0.540833
vt 0.565165 0.799791
vt 0.325310 0.750000
vt 0.604031 0.069198
vt 0.375000 1.000000
vt 0.375000 0.799690
vt 0.578028 1.000000
vt 0.615335 0.592735
vt 0.589707 0.775249
vt 0.581909 0.353207
s 0
g Cube_Material
usemtl Material
f 420/711/442 422/712/442 421/713/442
f 422/714/443 425/715/443 421/716/443
f 426/717/444 423/718/444 427/719/444
f 423/718/445 426/717/445 420/720/445
f 428/721/446 419/722/446 424/723/446 425/715/446
f 421/713/447 423/724/447 420/711/447
f 421/725/448 424/726/448 419/722/448 423/727/448
f 425/715/449 424/723/449 421/716/449
f 427/728/450 423/718/450 419/729/450
f 419/722/451 428/721/451 427/728/451
f 428/721/452 425/715/452 422/712/452 426/730/452
f 428/721/453 426/730/453 427/728/453
f 422/712/454 420/711/454 426/730/454
o Cube
v 2.937254 -0.067451 0.118001
v 2.657073 0.700022 -0.473355
v 2.850535 0.137494 -0.686757
v 3.166423 0.595237 -0.699411
v 2.490559 0.315410 -0.038285
v 3.220590 -0.107920 -0.363935
v 3.480860 0.271822 -0.527005
v 3.047858 0.893336 -0.089228
v 3.152889 0.512178 0.278140
v 3.496709 0.537478 -0.014599
vn -0.3572 0.2214 -0.9074
vn 0.2837 -0.2216 -0.9330
vn -0.4885 0.5320 0.6916
vn -0.6626 0.6687 0.3375
vn 0.7659 -0.5270 0.3683
vn -0.8816 -0.1312 -0.4534
vn -0.5455 -0.8244 -0.1512
vn 0.3133 -0.5479 -0.7757
vn -0.4044 -0.1007 0.9090
vn 0.6077 -0.4134 0.6780
vn 0.6873 0.6724 -0.2748
vn 0.4443 0.6822 0.5808
vn -0.0109 0.8976 -0.4406
vt 0.550384 0.206938
vt 0.375000 0.305791
vt 0.375000 0.049496
vt 0.180791 0.500000
vt 0.330928 0.574320
vt 0.125000 0.700504
vt 0.804283 0.500000
vt 0.842867 0.681766
vt 0.658516 0.626313
vt 0.875000 0.500000
vt 0.501754 0.540833
vt 0.565165 0.799791
vt 0.325310 0.750000
vt 0.604031 0.069198
vt 0.375000 1.000000
vt 0.375000 0.799690
vt 0.578028 1.000000
vt 0.615335 0.592735
vt 0.589707 0.775249
vt 0.581909 0.353207
s 0
g Cube_Material
usemtl Material
f 430/731/455 432/732/455 431/733/455
f 432/734/456 435/735/456 431/736/456
f 436/737/457 433/738/457 437/739/457
f 433/738/458 436/737/458 430/740/458
f 438/741/459 429/742/459 434/743/459 435/735/459
f 431/733/460 433/744/460 430/731/460
f 431/745/461 434/746/461 429/742/461 433/747/461
f 435/735/462 434/743/462 431/736/462
f 437/748/463 433/738/463 429/749/463
f 429/742/464 438/741/464 437/748/464
f 438/741/465 435/735/465 432/732/465 436/750/465
f 438/741/466 436/750/466 437/748/466
f 432/732/467 430/731/467 436/750/467
o Cube
v -1.484665 -0.136871 -1.631267
v -2.137805 0.708621 -1.574825
v -1.638771 0.586606 -1.144114
v -2.207919 0.498090 -1.015762
v -1.705190 0.393145 -1.926920
v -1.532619 0.020248 -1.059823
v -2.000352 0.063502 -0.841260
v -2.479052 0.197769 -1.624915
v -2.144420 -0.254186 -1.732229
v -2.284250 -0.264802 -1.273421
vn -0.0680 0.9365 0.3441
vn 0.1359 0.4244 0.8952
vn -0.3544 -0.0405 -0.9342
vn -0.4167 0.3602 -0.8347
vn 0.2321 -0.8959 0.3788
vn 0.4287 0.8679 -0.2509
vn 0.9625 0.2590 -0.0802
vn 0.4298 0.2112 0.8779
vn 0.2086 -0.4088 -0.8885
vn 0.1707 -0.9849 0.0292
vn -0.8567 -0.0860 0.5086
vn -0.8048 -0.5347 -0.2577
vn -0.8318 0.5457 0.1012
vt 0.550384 0.206938
vt 0.375000 0.305791
vt 0.375000 0.049496
vt 0.180791 0.500000
vt 0.330928 0.574320
vt 0.125000 0.700504
vt 0.804283 0.500000
vt 0.842867 0.681766
vt 0.658516 0.626313
vt 0.875000 0.500000
vt 0.501754 0.540833
vt 0.565165 0.799791
vt 0.325310 0.750000
vt 0.604031 0.069198
vt 0.375000 1.000000
vt 0.375000 0.799690
vt 0.578028 1.000000
vt 0.615335 0.592735
vt 0.589707 0.775249
vt 0.581909 0.353207
s 0
g Cube_Material
usemtl Material
f 440/751/468 442/752/468 441/753/468
f 442/754/469 445/755/469 441/756/469
f 446/757/470 443/758/470 447/759/470
f 443/758/471 446/757/471 440/760/471
f 448/761/472 439/762/472 444/763/472 445/755/472
f 441/753/473 443/764/473 440/751/473
f 441/765/474 444/766/474 439/762/474 443/767/474
f 445/755/475 444/763/475 441/756/475
f 447/768/476 443/758/476 439/769/476
f 439/762/477 448/761/477 447/768/477
f 448/761/478 445/755/478 442/752/478 446/770/478
f 448/761/479 446/770/479 447/768/479
f 442/752/480 440/751/480 446/770/480
o Cube
v -2.468059 -0.127730 0.852981
v -2.886260 0.137428 0.196145
v -2.383146 0.025393 0.194893
v -2.544812 0.449327 0.195246
v -2.842900 -0.213732 0.539011
v -2.178619 0.103808 0.585398
v -2.265959 0.475578 0.472133
v -2.972601 0.429109 0.559542
v -2.801517 0.265049 0.930438
v -2.588717 0.540699 0.808806
vn -0.0025 -0.0001 -1.0000
vn 0.6690 0.2557 -0.6979
vn -0.9205 -0.1965 0.3377
vn -0.9779 -0.1949 -0.0759
vn 0.6484 0.2391 0.7228
vn -0.1576 -0.6998 -0.6968
vn 0.4349 -0.8878 -0.1505
vn 0.8789 0.0624 -0.4729
vn -0.4669 -0.5352 0.7040
vn 0.3635 0.1266 0.9229
vn -0.0836 0.9847 -0.1526
vn -0.5373 0.6513 0.5359
vn -0.5398 0.5892 -0.6012
vt 0.550384 0.206938
vt 0.375000 0.305791
vt 0.375000 0.049496
vt 0.180791 0.500000
vt 0.330928 0.574320
vt 0.125000 0.700504
vt 0.804283 0.500000
vt 0.842867 0.681766
vt 0.658516 0.626313
vt 0.875000 0.500000
vt 0.501754 0.540833
vt 0.565165 0.799791
vt 0.325310 0.750000
vt 0.604031 0.069198
vt 0.375000 1.000000
vt 0.375000 0.799690
vt 0.578028 1.000000
vt 0.615335 0.592735
vt 0.589707 0.775249
vt 0.581909 0.353207
s 0
g Cube_Material
usemtl Material
f 450/771/481 452/772/481 451/773/481
f 452/774/482 455/775/482 451/776/482
f 456/777/483 453/778/483 457/779/483
f 453/778/484 456/777/484 450/780/484
f 458/781/485 449/782/485 454/783/485 455/775/485
f 451/773/486 453/784/486 450/771/486
f 451/785/487 454/786/487 449/782/487 453/787/487
f 455/775/488 454/783/488 451/776/488
f 457/788/489 453/778/489 449/789/489
f 449/782/490 458/781/490 457/788/490
f 458/781/491 455/775/491 452/772/491 456/790/491
f 458/781/492 456/790/492 457/788/492
f 452/772/493 450/771/493 456/790/493
o Cube
v -0.195799 -0.174103 2.301234
v 0.297447 0.064751 1.669992
v 0.280379 0.300604 2.137395
v 0.086046 0.475275 1.757491
v 0.175962 -0.304215 1.985922
v -0.127833 0.284028 2.337728
v -0.208458 0.526390 2.023674
v -0.153381 0.021381 1.506217
v -0.414707 -0.162519 1.819248
v -0.483853 0.205392 1.799738
vn 0.8495 0.4828 -0.2126
vn 0.3637 0.9029 0.2291
vn -0.0505 -0.8421 -0.5369
vn 0.3084 -0.6753 -0.6700
vn -0.8311 0.1918 0.5220
vn 0.9698 -0.2018 0.1372
vn 0.5133 -0.2295 0.8270
vn 0.2395 0.7974 0.5539
vn -0.2572 -0.9618 0.0937
vn -0.9018 -0.1480 0.4060
vn -0.3572 0.6492 -0.6716
vn -0.7055 -0.1691 -0.6883
vn 0.2919 0.3408 -0.8937
vt 0.550384 0.206938
vt 0.375000 0.305791
vt 0.375000 0.049496
vt 0.180791 0.500000
vt 0.330928 0.574320
vt 0.125000 0.700504
vt 0.804283 0.500000
vt 0.842867 0.681766
vt 0.658516 0.626313
vt 0.875000 0.500000
vt 0.501754 0.540833
vt 0.565165 0.799791
vt 0.325310 0.750000
vt 0.604031 0.069198
vt 0.375000 1.000000
vt 0.375000 0.799690
vt 0.578028 1.000000
vt 0.615335 0.592735
vt 0.589707 0.775249
vt 0.581909 0.353207
s 0
g Cube_Material
usemtl Material
f 460/791/494 462/792/494 461/793/494
f 462/794/495 465/795/495 461/796/495
f 466/797/496 463/798/496 467/799/496
f 463/798/497 466/797/497 460/800/497
f 468/801/498 459/802/498 464/803/498 465/795/498
f 461/793/499 463/804/499 460/791/499
f 461/805/500 464/806/500 459/802/500 463/807/500
f 465/795/501 464/803/501 461/796/501
f 467/808/502 463/798/502 459/809/502
f 459/802/503 468/801/503 467/808/503
f 468/801/504 465/795/504 462/792/504 466/810/504
f 468/801/505 466/810/505 467/808/505
f 462/792/506 460/791/506 466/810/506
o Cube
v 1.395297 0.728336 -0.052678
v 1.871065 0.297850 -0.651770
v 1.359013 0.160671 -0.504969
v 1.752110 -0.082088 -0.360120
v 1.652429 0.756076 -0.515081
v 1.254330 0.261299 -0.049748
v 1.541967 -0.047353 0.002214
v 2.147741 0.350346 -0.231689
v 1.928312 0.632374 0.073208
v 1.892630 0.258702 0.191737
vn -0.0709 -0.5933 -0.8018
vn -0.4654 -0.8651 -0.1870
vn 0.6807 0.7127 -0.1694
vn 0.6991 0.4891 -0.5216
vn -0.3539 -0.0007 0.9353
vn -0.3063 0.1349 -0.9423
vn -0.8624 0.3481 -0.3677
vn -0.7301 -0.6832 -0.0169
vn 0.1437 0.9799 0.1387
vn -0.1647 0.3125 0.9355
vn 0.6020 -0.7388 0.3029
vn 0.8449 0.0867 0.5278
vn 0.7298 -0.5452 -0.4125
vt 0.550384 0.206938
vt 0.375000 0.305791
vt 0.375000 0.049496
vt 0.180791 0.500000
vt 0.330928 0.574320
vt 0.125000 0.700504
vt 0.804283 0.500000
vt 0.842867 0.681766
vt 0.658516 0.626313
vt 0.875000 0.500000
vt 0.501754 0.540833
vt 0.565165 0.799791
vt 0.325310 0.750000
vt 0.604031 0.069198
vt 0.375000 1.000000
vt 0.375000 0.799690
vt 0.578028 1.000000
vt 0.615335 0.592735
vt 0.589707 0.775249
vt 0.581909 0.353207
s 0
g Cube_Material
usemtl Material
f 470/811/507 472/812/507 471/813/507
f 472/814/508 475/815/508 471/816/508
f 476/817/509 473/818/509 477/819/509
f 473/818/510 476/817/510 470/820/510
f 478/821/511 469/822/511 474/823/511 475/815/511
f 471/813/512 473/824/512 470/811/512
f 471/825/513 474/826/513 469/822/513 473/827/513
f 475/815/514 474/823/514 471/816/514
f 477/828/515 473/818/515 469/829/515
f 469/822/516 478/821/516 477/828/516
f 478/821/517 475/815/517 472/812/517 476/830/517
f 478/821/518 476/830/518 477/828/518
f 472/812/519 470/811/519 476/830/519
o Cube
v -0.471172 0.019256 -1.518052
v 0.030975 0.323457 -2.098734
v -0.121790 -0.170304 -2.074228
v 0.294250 -0.030060 -1.953002
v -0.415966 0.348232 -1.888345
v -0.192910 -0.318628 -1.655932
v 0.203506 -0.266547 -1.649427
v 0.197616 0.449398 -1.671299
v -0.093385 0.342821 -1.356321
v 0.186660 0.100594 -1.352098
vn 0.3218 -0.1460 -0.9355
vn 0.4029 -0.7765 -0.4845
vn -0.2078 0.9687 0.1358
vn -0.0678 0.9639 -0.2576
vn -0.0679 -0.5445 0.8360
vn -0.4205 0.0853 -0.9033
vn -0.8288 -0.4100 -0.3809
vn 0.1288 -0.9413 -0.3119
vn -0.6871 0.5910 0.4226
vn -0.2116 -0.2280 0.9504
vn 0.9848 0.0134 0.1734
vn 0.4914 0.5795 0.6501
vn 0.7990 0.4161 -0.4341
vt 0.550384 0.206938
vt 0.375000 0.305791
vt 0.375000 0.049496
vt 0.180791 0.500000
vt 0.330928 0.574320
vt 0.125000 0.700504
vt 0.804283 0.500000
vt 0.842867 0.681766
vt 0.658516 0.626313
vt 0.875000 0.500000
vt 0.501754 0.540833
vt 0.565165 0.799791
vt 0.325310 0.750000
vt 0.604031 0.069198
vt 0.375000 1.000000
vt 0.375000 0.799690
vt 0.578028 1.000000
vt 0.615335 0.592735
vt 0.589707 0.775249
vt 0.581909 0.353207
s 0
g Cube_Material
usemtl Material
f 480/831/520 482/832/520 481/833/520
f 482/834/521 485/835/521 481/836/521
f 486/837/522 483/838/522 487/839/522
f 483/838/523 486/837/523 480/840/523
f 488/841/524 479/842/524 484/843/524 485/835/524
f 481/833/525 483/844/525 480/831/525
f 481/845/526 484/846/526 479/842/526 483/847/526
f 485/835/527 484/843/527 481/836/527
f 487/848/528 483/838/528 479/849/528
f 479/842/529 488/841/529 487/848/529
f 488/841/530 485/835/530 482/832/530 486/850/530
f 488/841/531 486/850/531 487/848/531
f 482/832/532 480/831/532 486/850/532
