# Blender 4.1.0
# www.blender.org
mtllib Explosion20022.mtl
o Circle
v -0.024615 0.096888 -1.522372
v -0.024615 0.242742 -1.522372
v 0.122545 0.096888 -1.515142
v 0.122545 0.242742 -1.515142
v 0.268288 0.096888 -1.493523
v 0.268288 0.242742 -1.493523
v 0.411211 0.096888 -1.457723
v 0.411211 0.242742 -1.457723
v 0.549936 0.096888 -1.408086
v 0.549936 0.242742 -1.408086
v 0.683127 0.096888 -1.345092
v 0.683127 0.242742 -1.345092
v 0.809503 0.096888 -1.269345
v 0.809503 0.242742 -1.269345
v 0.927846 0.096888 -1.181576
v 0.927846 0.242742 -1.181576
v 1.037016 0.096888 -1.082630
v 1.037016 0.242742 -1.082630
v 1.135962 0.096888 -0.973460
v 1.135962 0.242742 -0.973460
v 1.223731 0.096888 -0.855117
v 1.223731 0.242742 -0.855117
v 1.299478 0.096888 -0.728741
v 1.299478 0.242742 -0.728741
v 1.362473 0.096888 -0.595549
v 1.362473 0.242742 -0.595549
v 1.412110 0.096888 -0.456824
v 1.412110 0.242742 -0.456824
v 1.447910 0.096888 -0.313902
v 1.447910 0.242742 -0.313902
v 1.469529 0.096888 -0.168159
v 1.469529 0.242742 -0.168159
v 1.476758 0.096888 -0.020998
v 1.476758 0.242742 -0.020998
v 1.469529 0.096888 0.126162
v 1.469529 0.242742 0.126162
v 1.447910 0.096888 0.271905
v 1.447910 0.242742 0.271905
v 1.412110 0.096888 0.414827
v 1.412110 0.242742 0.414827
v 1.362473 0.096888 0.553553
v 1.362473 0.242742 0.553553
v 1.299478 0.096888 0.686744
v 1.299478 0.242742 0.686744
v 1.223731 0.096888 0.813120
v 1.223731 0.242742 0.813120
v 1.135962 0.096888 0.931463
v 1.135962 0.242742 0.931463
v 1.037016 0.096888 1.040633
v 1.037016 0.242742 1.040633
v 0.927846 0.096888 1.139579
v 0.927846 0.242742 1.139579
v 0.809503 0.096888 1.227348
v 0.809503 0.242742 1.227348
v 0.683127 0.096888 1.303095
v 0.683127 0.242742 1.303095
v 0.549936 0.096888 1.366090
v 0.549936 0.242742 1.366090
v 0.411211 0.096888 1.415727
v 0.411211 0.242742 1.415727
v 0.268288 0.096888 1.451527
v 0.268288 0.242742 1.451527
v 0.122545 0.096888 1.473146
v 0.122545 0.242742 1.473146
v -0.024615 0.096888 1.480376
v -0.024615 0.242742 1.480376
v -0.171775 0.096888 1.473146
v -0.171775 0.242742 1.473146
v -0.317519 0.096888 1.451527
v -0.317519 0.242742 1.451527
v -0.460441 0.096888 1.415727
v -0.460441 0.242742 1.415727
v -0.599166 0.096888 1.366090
v -0.599166 0.242742 1.366090
v -0.732358 0.096888 1.303095
v -0.732358 0.242742 1.303095
v -0.858734 0.096888 1.227348
v -0.858734 0.242742 1.227348
v -0.977076 0.096888 1.139579
v -0.977076 0.242742 1.139579
v -1.086246 0.096888 1.040633
v -1.086246 0.242742 1.040633
v -1.185192 0.096888 0.931463
v -1.185192 0.242742 0.931463
v -1.272961 0.096888 0.813120
v -1.272961 0.242742 0.813120
v -1.348708 0.096888 0.686744
v -1.348708 0.242742 0.686744
v -1.411703 0.096888 0.553553
v -1.411703 0.242742 0.553553
v -1.461340 0.096888 0.414827
v -1.461340 0.242742 0.414827
v -1.497140 0.096888 0.271905
v -1.497140 0.242742 0.271905
v -1.518759 0.096888 0.126162
v -1.518759 0.242742 0.126162
v -1.525989 0.096888 -0.020998
v -1.525989 0.242742 -0.020998
v -1.518759 0.096888 -0.168159
v -1.518759 0.242742 -0.168159
v -1.497140 0.096888 -0.313902
v -1.497140 0.242742 -0.313902
v -1.461340 0.096888 -0.456824
v -1.461340 0.242742 -0.456824
v -1.411703 0.096888 -0.595549
v -1.411703 0.242742 -0.595549
v -1.348708 0.096888 -0.728741
v -1.348708 0.242742 -0.728741
v -1.272961 0.096888 -0.855117
v -1.272961 0.242742 -0.855117
v -1.185192 0.096888 -0.973460
v -1.185192 0.242742 -0.973460
v -1.086246 0.096888 -1.082630
v -1.086246 0.242742 -1.082630
v -0.977076 0.096888 -1.181576
v -0.977076 0.242742 -1.181576
v -0.858734 0.096888 -1.269345
v -0.858734 0.242742 -1.269345
v -0.732358 0.096888 -1.345092
v -0.732358 0.242742 -1.345092
v -0.599166 0.096888 -1.408086
v -0.599166 0.242742 -1.408086
v -0.460441 0.096888 -1.457723
v -0.460441 0.242742 -1.457723
v -0.317519 0.096888 -1.493523
v -0.317519 0.242742 -1.493523
v -0.171775 0.096888 -1.515142
v -0.171775 0.242742 -1.515142
vn 0.0491 -0.0000 -0.9988
vn 0.1467 -0.0000 -0.9892
vn 0.2430 -0.0000 -0.9700
vn 0.3369 -0.0000 -0.9415
vn 0.4276 -0.0000 -0.9040
vn 0.5141 -0.0000 -0.8577
vn 0.5957 -0.0000 -0.8032
vn 0.6716 -0.0000 -0.7410
vn 0.7410 -0.0000 -0.6716
vn 0.8032 -0.0000 -0.5957
vn 0.8577 -0.0000 -0.5141
vn 0.9040 -0.0000 -0.4276
vn 0.9415 -0.0000 -0.3369
vn 0.9700 -0.0000 -0.2430
vn 0.9892 -0.0000 -0.1467
vn 0.9988 -0.0000 -0.0491
vn 0.9988 -0.0000 0.0491
vn 0.9892 -0.0000 0.1467
vn 0.9700 -0.0000 0.2430
vn 0.9415 -0.0000 0.3369
vn 0.9040 -0.0000 0.4276
vn 0.8577 -0.0000 0.5141
vn 0.8032 -0.0000 0.5957
vn 0.7410 -0.0000 0.6716
vn 0.6716 -0.0000 0.7410
vn 0.5957 -0.0000 0.8032
vn 0.5141 -0.0000 0.8577
vn 0.4276 -0.0000 0.9040
vn 0.3369 -0.0000 0.9415
vn 0.2430 -0.0000 0.9700
vn 0.1467 -0.0000 0.9892
vn 0.0491 -0.0000 0.9988
vn -0.0491 -0.0000 0.9988
vn -0.1467 -0.0000 0.9892
vn -0.2430 -0.0000 0.9700
vn -0.3369 -0.0000 0.9415
vn -0.4276 -0.0000 0.9040
vn -0.5141 -0.0000 0.8577
vn -0.5957 -0.0000 0.8032
vn -0.6716 -0.0000 0.7410
vn -0.7410 -0.0000 0.6716
vn -0.8032 -0.0000 0.5957
vn -0.8577 -0.0000 0.5141
vn -0.9040 -0.0000 0.4276
vn -0.9415 -0.0000 0.3369
vn -0.9700 -0.0000 0.2430
vn -0.9892 -0.0000 0.1467
vn -0.9988 -0.0000 0.0491
vn -0.9988 -0.0000 -0.0491
vn -0.9892 -0.0000 -0.1467
vn -0.9700 -0.0000 -0.2430
vn -0.9415 -0.0000 -0.3369
vn -0.9040 -0.0000 -0.4276
vn -0.8577 -0.0000 -0.5141
vn -0.8032 -0.0000 -0.5957
vn -0.7410 -0.0000 -0.6716
vn -0.6716 -0.0000 -0.7410
vn -0.5957 -0.0000 -0.8032
vn -0.5141 -0.0000 -0.8577
vn -0.4276 -0.0000 -0.9040
vn -0.3369 -0.0000 -0.9415
vn -0.2430 -0.0000 -0.9700
vn -0.1467 -0.0000 -0.9892
vn -0.0491 -0.0000 -0.9988
vt 1.000000 0.500000
vt 1.000000 1.000000
vt 0.984375 1.000000
vt 0.984375 0.500000
vt 0.968750 1.000000
vt 0.968750 0.500000
vt 0.953125 1.000000
vt 0.953125 0.500000
vt 0.937500 1.000000
vt 0.937500 0.500000
vt 0.921875 1.000000
vt 0.921875 0.500000
vt 0.906250 1.000000
vt 0.906250 0.500000
vt 0.890625 1.000000
vt 0.890625 0.500000
vt 0.875000 1.000000
vt 0.875000 0.500000
vt 0.859375 1.000000
vt 0.859375 0.500000
vt 0.843750 1.000000
vt 0.843750 0.500000
vt 0.828125 1.000000
vt 0.828125 0.500000
vt 0.812500 1.000000
vt 0.812500 0.500000
vt 0.796875 1.000000
vt 0.796875 0.500000
vt 0.781250 1.000000
vt 0.781250 0.500000
vt 0.765625 1.000000
vt 0.765625 0.500000
vt 0.750000 1.000000
vt 0.750000 0.500000
vt 0.734375 1.000000
vt 0.734375 0.500000
vt 0.718750 1.000000
vt 0.718750 0.500000
vt 0.703125 1.000000
vt 0.703125 0.500000
vt 0.687500 1.000000
vt 0.687500 0.500000
vt 0.671875 1.000000
vt 0.671875 0.500000
vt 0.656250 1.000000
vt 0.656250 0.500000
vt 0.640625 1.000000
vt 0.640625 0.500000
vt 0.625000 1.000000
vt 0.625000 0.500000
vt 0.609375 1.000000
vt 0.609375 0.500000
vt 0.593750 1.000000
vt 0.593750 0.500000
vt 0.578125 1.000000
vt 0.578125 0.500000
vt 0.562500 1.000000
vt 0.562500 0.500000
vt 0.546875 1.000000
vt 0.546875 0.500000
vt 0.531250 1.000000
vt 0.531250 0.500000
vt 0.515625 1.000000
vt 0.515625 0.500000
vt 0.500000 1.000000
vt 0.500000 0.500000
vt 0.484375 1.000000
vt 0.484375 0.500000
vt 0.468750 1.000000
vt 0.468750 0.500000
vt 0.453125 1.000000
vt 0.453125 0.500000
vt 0.437500 1.000000
vt 0.437500 0.500000
vt 0.421875 1.000000
vt 0.421875 0.500000
vt 0.406250 1.000000
vt 0.406250 0.500000
vt 0.390625 1.000000
vt 0.390625 0.500000
vt 0.375000 1.000000
vt 0.375000 0.500000
vt 0.359375 1.000000
vt 0.359375 0.500000
vt 0.343750 1.000000
vt 0.343750 0.500000
vt 0.328125 1.000000
vt 0.328125 0.500000
vt 0.312500 1.000000
vt 0.312500 0.500000
vt 0.296875 1.000000
vt 0.296875 0.500000
vt 0.281250 1.000000
vt 0.281250 0.500000
vt 0.265625 1.000000
vt 0.265625 0.500000
vt 0.250000 1.000000
vt 0.250000 0.500000
vt 0.234375 1.000000
vt 0.234375 0.500000
vt 0.218750 1.000000
vt 0.218750 0.500000
vt 0.203125 1.000000
vt 0.203125 0.500000
vt 0.187500 1.000000
vt 0.187500 0.500000
vt 0.171875 1.000000
vt 0.171875 0.500000
vt 0.156250 1.000000
vt 0.156250 0.500000
vt 0.140625 1.000000
vt 0.140625 0.500000
vt 0.125000 1.000000
vt 0.125000 0.500000
vt 0.109375 1.000000
vt 0.109375 0.500000
vt 0.093750 1.000000
vt 0.093750 0.500000
vt 0.078125 1.000000
vt 0.078125 0.500000
vt 0.062500 1.000000
vt 0.062500 0.500000
vt 0.046875 1.000000
vt 0.046875 0.500000
vt 0.031250 1.000000
vt 0.031250 0.500000
vt 0.015625 1.000000
vt 0.015625 0.500000
vt 0.000000 1.000000
vt 0.000000 0.500000
s 0
g Circle_Material.001
usemtl Material.001
f 1/1/1 2/2/1 4/3/1 3/4/1
f 3/4/2 4/3/2 6/5/2 5/6/2
f 5/6/3 6/5/3 8/7/3 7/8/3
f 7/8/4 8/7/4 10/9/4 9/10/4
f 9/10/5 10/9/5 12/11/5 11/12/5
f 11/12/6 12/11/6 14/13/6 13/14/6
f 13/14/7 14/13/7 16/15/7 15/16/7
f 15/16/8 16/15/8 18/17/8 17/18/8
f 17/18/9 18/17/9 20/19/9 19/20/9
f 19/20/10 20/19/10 22/21/10 21/22/10
f 21/22/11 22/21/11 24/23/11 23/24/11
f 23/24/12 24/23/12 26/25/12 25/26/12
f 25/26/13 26/25/13 28/27/13 27/28/13
f 27/28/14 28/27/14 30/29/14 29/30/14
f 29/30/15 30/29/15 32/31/15 31/32/15
f 31/32/16 32/31/16 34/33/16 33/34/16
f 33/34/17 34/33/17 36/35/17 35/36/17
f 35/36/18 36/35/18 38/37/18 37/38/18
f 37/38/19 38/37/19 40/39/19 39/40/19
f 39/40/20 40/39/20 42/41/20 41/42/20
f 41/42/21 42/41/21 44/43/21 43/44/21
f 43/44/22 44/43/22 46/45/22 45/46/22
f 45/46/23 46/45/23 48/47/23 47/48/23
f 47/48/24 48/47/24 50/49/24 49/50/24
f 49/50/25 50/49/25 52/51/25 51/52/25
f 51/52/26 52/51/26 54/53/26 53/54/26
f 53/54/27 54/53/27 56/55/27 55/56/27
f 55/56/28 56/55/28 58/57/28 57/58/28
f 57/58/29 58/57/29 60/59/29 59/60/29
f 59/60/30 60/59/30 62/61/30 61/62/30
f 61/62/31 62/61/31 64/63/31 63/64/31
f 63/64/32 64/63/32 66/65/32 65/66/32
f 65/66/33 66/65/33 68/67/33 67/68/33
f 67/68/34 68/67/34 70/69/34 69/70/34
f 69/70/35 70/69/35 72/71/35 71/72/35
f 71/72/36 72/71/36 74/73/36 73/74/36
f 73/74/37 74/73/37 76/75/37 75/76/37
f 75/76/38 76/75/38 78/77/38 77/78/38
f 77/78/39 78/77/39 80/79/39 79/80/39
f 79/80/40 80/79/40 82/81/40 81/82/40
f 81/82/41 82/81/41 84/83/41 83/84/41
f 83/84/42 84/83/42 86/85/42 85/86/42
f 85/86/43 86/85/43 88/87/43 87/88/43
f 87/88/44 88/87/44 90/89/44 89/90/44
f 89/90/45 90/89/45 92/91/45 91/92/45
f 91/92/46 92/91/46 94/93/46 93/94/46
f 93/94/47 94/93/47 96/95/47 95/96/47
f 95/96/48 96/95/48 98/97/48 97/98/48
f 97/98/49 98/97/49 100/99/49 99/100/49
f 99/100/50 100/99/50 102/101/50 101/102/50
f 101/102/51 102/101/51 104/103/51 103/104/51
f 103/104/52 104/103/52 106/105/52 105/106/52
f 105/106/53 106/105/53 108/107/53 107/108/53
f 107/108/54 108/107/54 110/109/54 109/110/54
f 109/110/55 110/109/55 112/111/55 111/112/55
f 111/112/56 112/111/56 114/113/56 113/114/56
f 113/114/57 114/113/57 116/115/57 115/116/57
f 115/116/58 116/115/58 118/117/58 117/118/58
f 117/118/59 118/117/59 120/119/59 119/120/59
f 119/120/60 120/119/60 122/121/60 121/122/60
f 121/122/61 122/121/61 124/123/61 123/124/61
f 123/124/62 124/123/62 126/125/62 125/126/62
f 125/126/63 126/125/63 128/127/63 127/128/63
f 127/128/64 128/127/64 2/129/64 1/130/64
o Cube
v 1.818864 -0.047226 5.806300
v 0.933113 0.607699 6.639414
v 1.394879 -0.087847 6.867407
v 0.651086 -0.112815 6.704631
v 1.621067 0.669030 6.184090
v 1.533735 -0.561125 6.300042
v 0.871801 -0.633800 6.362348
v 0.567035 0.449339 5.950887
v 1.051655 0.187976 5.457886
v 0.707382 -0.278718 5.675273
vn -0.2161 0.1716 0.9612
vn -0.1542 -0.5873 0.7945
vn -0.0640 0.8543 -0.5158
vn -0.1742 0.9758 -0.1318
vn 0.1599 -0.8028 -0.5744
vn 0.4355 0.5281 0.7291
vn 0.9286 -0.0311 0.3698
vn 0.1431 -0.7425 0.6544
vn 0.4804 0.5093 -0.7140
vn 0.2079 -0.5349 -0.8190
vn -0.9617 -0.2738 -0.0085
vn -0.6645 0.1491 -0.7323
vn -0.8536 0.3675 0.3693
vt 0.550384 0.206938
vt 0.375000 0.305791
vt 0.375000 0.049496
vt 0.180791 0.500000
vt 0.330928 0.574320
vt 0.125000 0.700504
vt 0.804283 0.500000
vt 0.842867 0.681766
vt 0.658516 0.626313
vt 0.875000 0.500000
vt 0.501754 0.540833
vt 0.565165 0.799791
vt 0.325310 0.750000
vt 0.604031 0.069198
vt 0.375000 1.000000
vt 0.375000 0.799690
vt 0.578028 1.000000
vt 0.615335 0.592735
vt 0.589707 0.775249
vt 0.581909 0.353207
s 0
g Cube_Material
usemtl Material
f 130/131/65 132/132/65 131/133/65
f 132/134/66 135/135/66 131/136/66
f 136/137/67 133/138/67 137/139/67
f 133/138/68 136/137/68 130/140/68
f 138/141/69 129/142/69 134/143/69 135/135/69
f 131/133/70 133/144/70 130/131/70
f 131/145/71 134/146/71 129/142/71 133/147/71
f 135/135/72 134/143/72 131/136/72
f 137/148/73 133/138/73 129/149/73
f 129/142/74 138/141/74 137/148/74
f 138/141/75 135/135/75 132/132/75 136/150/75
f 138/141/76 136/150/76 137/148/76
f 132/132/77 130/131/77 136/150/77
o Cube
v -4.777354 0.639646 4.288235
v -4.207763 0.439054 4.015145
v -4.440318 0.750935 3.869827
v -4.426466 0.420519 3.714044
v -4.384440 0.584793 4.339385
v -4.794020 0.708623 3.926805
v -4.739396 0.473131 3.715705
v -4.433268 0.135112 4.065774
v -4.720201 0.225192 4.253739
v -4.795043 0.194996 3.967708
vn 0.7624 0.3018 -0.5724
vn 0.0671 0.4278 -0.9014
vn 0.3511 -0.5142 0.7825
vn 0.7010 -0.4247 0.5729
vn -0.9979 -0.0032 -0.0652
vn 0.7640 0.6314 0.1325
vn 0.0183 0.9625 0.2707
vn -0.1964 0.6288 -0.7523
vn -0.1424 -0.1016 0.9846
vn -0.9519 -0.1533 0.2653
vn -0.0240 -0.7296 -0.6835
vn -0.2021 -0.9670 0.1550
vn 0.6767 -0.5780 -0.4560
vt 0.550384 0.206938
vt 0.375000 0.305791
vt 0.375000 0.049496
vt 0.180791 0.500000
vt 0.330928 0.574320
vt 0.125000 0.700504
vt 0.804283 0.500000
vt 0.842867 0.681766
vt 0.658516 0.626313
vt 0.875000 0.500000
vt 0.501754 0.540833
vt 0.565165 0.799791
vt 0.325310 0.750000
vt 0.604031 0.069198
vt 0.375000 1.000000
vt 0.375000 0.799690
vt 0.578028 1.000000
vt 0.615335 0.592735
vt 0.589707 0.775249
vt 0.581909 0.353207
s 0
g Cube_Material
usemtl Material
f 140/151/78 142/152/78 141/153/78
f 142/154/79 145/155/79 141/156/79
f 146/157/80 143/158/80 147/159/80
f 143/158/81 146/157/81 140/160/81
f 148/161/82 139/162/82 144/163/82 145/155/82
f 141/153/83 143/164/83 140/151/83
f 141/165/84 144/166/84 139/162/84 143/167/84
f 145/155/85 144/163/85 141/156/85
f 147/168/86 143/158/86 139/169/86
f 139/162/87 148/161/87 147/168/87
f 148/161/88 145/155/88 142/152/88 146/170/88
f 148/161/89 146/170/89 147/168/89
f 142/152/90 140/151/90 146/170/90
o Cube
v 5.552728 -0.050225 1.471491
v 4.888186 0.176816 1.085614
v 5.263734 0.486258 1.209357
v 4.877811 0.473565 1.424396
v 5.276426 -0.105259 1.078407
v 5.471182 0.374791 1.576471
v 5.124611 0.476721 1.718113
v 4.767059 -0.061500 1.461977
v 5.113389 -0.236051 1.644838
v 5.008159 0.049099 1.836478
vn -0.3678 0.6939 -0.6191
vn -0.0265 0.9996 0.0115
vn -0.3007 -0.9066 -0.2959
vn -0.4884 -0.6576 -0.5736
vn 0.4931 -0.0065 0.8699
vn 0.1396 0.2169 -0.9662
vn 0.8337 0.1970 -0.5159
vn 0.3199 0.9416 0.1051
vn 0.3483 -0.9304 -0.1146
vn 0.4713 -0.3655 0.8027
vn -0.7982 0.2752 0.5359
vn -0.5890 -0.5891 0.5532
vn -0.9635 0.1859 -0.1924
vt 0.550384 0.206938
vt 0.375000 0.305791
vt 0.375000 0.049496
vt 0.180791 0.500000
vt 0.330928 0.574320
vt 0.125000 0.700504
vt 0.804283 0.500000
vt 0.842867 0.681766
vt 0.658516 0.626313
vt 0.875000 0.500000
vt 0.501754 0.540833
vt 0.565165 0.799791
vt 0.325310 0.750000
vt 0.604031 0.069198
vt 0.375000 1.000000
vt 0.375000 0.799690
vt 0.578028 1.000000
vt 0.615335 0.592735
vt 0.589707 0.775249
vt 0.581909 0.353207
s 0
g Cube_Material
usemtl Material
f 150/171/91 152/172/91 151/173/91
f 152/174/92 155/175/92 151/176/92
f 156/177/93 153/178/93 157/179/93
f 153/178/94 156/177/94 150/180/94
f 158/181/95 149/182/95 154/183/95 155/175/95
f 151/173/96 153/184/96 150/171/96
f 151/185/97 154/186/97 149/182/97 153/187/97
f 155/175/98 154/183/98 151/176/98
f 157/188/99 153/178/99 149/189/99
f 149/182/100 158/181/100 157/188/100
f 158/181/101 155/175/101 152/172/101 156/190/101
f 158/181/102 156/190/102 157/188/102
f 152/172/103 150/171/103 156/190/103
o Cube
v 5.503928 0.296293 -2.136043
v 4.664582 0.420532 -2.612740
v 4.706846 0.289160 -2.018720
v 4.565670 -0.070135 -2.391737
v 5.170279 0.662011 -2.452206
v 5.127650 -0.007318 -1.893594
v 4.875514 -0.315866 -2.145263
v 4.980501 0.054480 -2.896621
v 5.458282 0.031193 -2.690706
v 5.232326 -0.323182 -2.573120
vn -0.9605 0.2492 0.1235
vn -0.7338 -0.3289 0.5945
vn 0.3684 0.4712 -0.8014
vn -0.0300 0.5962 -0.8022
vn 0.6353 -0.6583 0.4038
vn -0.4767 0.8506 0.2220
vn 0.1072 0.6330 0.7667
vn -0.4614 -0.3030 0.8338
vn 0.8196 0.4878 -0.3006
vn 0.8555 -0.4910 0.1643
vn -0.4212 -0.7888 -0.4477
vn 0.3276 -0.4791 -0.8143
vn -0.7474 -0.1417 -0.6491
vt 0.550384 0.206938
vt 0.375000 0.305791
vt 0.375000 0.049496
vt 0.180791 0.500000
vt 0.330928 0.574320
vt 0.125000 0.700504
vt 0.804283 0.500000
vt 0.842867 0.681766
vt 0.658516 0.626313
vt 0.875000 0.500000
vt 0.501754 0.540833
vt 0.565165 0.799791
vt 0.325310 0.750000
vt 0.604031 0.069198
vt 0.375000 1.000000
vt 0.375000 0.799690
vt 0.578028 1.000000
vt 0.615335 0.592735
vt 0.589707 0.775249
vt 0.581909 0.353207
s 0
g Cube_Material
usemtl Material
f 160/191/104 162/192/104 161/193/104
f 162/194/105 165/195/105 161/196/105
f 166/197/106 163/198/106 167/199/106
f 163/198/107 166/197/107 160/200/107
f 168/201/108 159/202/108 164/203/108 165/195/108
f 161/193/109 163/204/109 160/191/109
f 161/205/110 164/206/110 159/202/110 163/207/110
f 165/195/111 164/203/111 161/196/111
f 167/208/112 163/198/112 159/209/112
f 159/202/113 168/201/113 167/208/113
f 168/201/114 165/195/114 162/192/114 166/210/114
f 168/201/115 166/210/115 167/208/115
f 162/192/116 160/191/116 166/210/116
o Cube
v -3.604439 0.119834 2.827831
v -3.732989 -0.132292 3.670476
v -3.920030 0.345266 3.453222
v -3.533230 0.318243 3.753297
v -3.813128 -0.248706 3.157155
v -3.636734 0.527042 3.105650
v -3.381516 0.574270 3.449045
v -3.234639 -0.174461 3.560321
v -3.162243 -0.103221 3.095633
v -3.048237 0.220387 3.298529
vn -0.6030 0.1224 0.7883
vn -0.3348 0.7966 0.5033
vn 0.2061 -0.9715 -0.1168
vn -0.0325 -0.9736 0.2259
vn 0.5128 0.5947 -0.6191
vn -0.9392 -0.2730 0.2085
vn -0.8562 0.1621 -0.4905
vn -0.3852 0.9086 0.1613
vn 0.0865 -0.6906 -0.7180
vn 0.5941 0.2666 -0.7590
vn 0.6895 0.2370 0.6844
vn 0.9217 -0.3784 0.0856
vn 0.1877 -0.2575 0.9479
vt 0.550384 0.206938
vt 0.375000 0.305791
vt 0.375000 0.049496
vt 0.180791 0.500000
vt 0.330928 0.574320
vt 0.125000 0.700504
vt 0.804283 0.500000
vt 0.842867 0.681766
vt 0.658516 0.626313
vt 0.875000 0.500000
vt 0.501754 0.540833
vt 0.565165 0.799791
vt 0.325310 0.750000
vt 0.604031 0.069198
vt 0.375000 1.000000
vt 0.375000 0.799690
vt 0.578028 1.000000
vt 0.615335 0.592735
vt 0.589707 0.775249
vt 0.581909 0.353207
s 0
g Cube_Material
usemtl Material
f 170/211/117 172/212/117 171/213/117
f 172/214/118 175/215/118 171/216/118
f 176/217/119 173/218/119 177/219/119
f 173/218/120 176/217/120 170/220/120
f 178/221/121 169/222/121 174/223/121 175/215/121
f 171/213/122 173/224/122 170/211/122
f 171/225/123 174/226/123 169/222/123 173/227/123
f 175/215/124 174/223/124 171/216/124
f 177/228/125 173/218/125 169/229/125
f 169/222/126 178/221/126 177/228/126
f 178/221/127 175/215/127 172/212/127 176/230/127
f 178/221/128 176/230/128 177/228/128
f 172/212/129 170/211/129 176/230/129
o Cube
v -2.851756 0.287611 4.170314
v -2.271885 -0.053466 4.896351
v -2.891824 -0.051705 4.915106
v -2.581542 0.302013 5.192004
v -2.431074 -0.106263 4.327707
v -3.117448 0.357471 4.646888
v -2.906309 0.593273 5.006833
v -2.095934 0.469303 4.751640
v -2.351449 0.635225 4.318378
v -2.518353 0.839578 4.675294
vn 0.0217 -0.6280 0.7779
vn -0.5753 -0.1278 0.8079
vn 0.8406 -0.0970 -0.5329
vn 0.9047 -0.3652 -0.2194
vn -0.5868 0.7475 -0.3114
vn -0.0000 -0.9957 0.0925
vn -0.6307 -0.6929 -0.3496
vn -0.8295 -0.0969 0.5500
vn 0.3124 -0.0455 -0.9489
vn -0.3407 0.7383 -0.5821
vn 0.3185 0.6372 0.7018
vn 0.6664 0.7374 -0.1106
vn 0.6760 -0.0237 0.7365
vt 0.550384 0.206938
vt 0.375000 0.305791
vt 0.375000 0.049496
vt 0.180791 0.500000
vt 0.330928 0.574320
vt 0.125000 0.700504
vt 0.804283 0.500000
vt 0.842867 0.681766
vt 0.658516 0.626313
vt 0.875000 0.500000
vt 0.501754 0.540833
vt 0.565165 0.799791
vt 0.325310 0.750000
vt 0.604031 0.069198
vt 0.375000 1.000000
vt 0.375000 0.799690
vt 0.578028 1.000000
vt 0.615335 0.592735
vt 0.589707 0.775249
vt 0.581909 0.353207
s 0
g Cube_Material
usemtl Material
f 180/231/130 182/232/130 181/233/130
f 182/234/131 185/235/131 181/236/131
f 186/237/132 183/238/132 187/239/132
f 183/238/133 186/237/133 180/240/133
f 188/241/134 179/242/134 184/243/134 185/235/134
f 181/233/135 183/244/135 180/231/135
f 181/245/136 184/246/136 179/242/136 183/247/136
f 185/235/137 184/243/137 181/236/137
f 187/248/138 183/238/138 179/249/138
f 179/242/139 188/241/139 187/248/139
f 188/241/140 185/235/140 182/232/140 186/250/140
f 188/241/141 186/250/141 187/248/141
f 182/232/142 180/231/142 186/250/142
o Cube
v 3.288092 0.108484 -2.558579
v 3.553758 0.632135 -3.036228
v 3.594602 0.655007 -2.564244
v 3.322666 0.884197 -2.782944
v 3.569101 0.197674 -2.907556
v 3.282192 0.479679 -2.360747
v 3.111504 0.766020 -2.513152
v 3.136187 0.552636 -3.133613
v 3.000224 0.236524 -2.919969
v 2.878241 0.523728 -2.786388
vn 0.6848 0.7226 -0.0943
vn 0.2422 0.8047 0.5421
vn -0.0197 -0.5540 -0.8323
vn 0.2666 -0.2650 -0.9267
vn -0.7167 -0.2378 0.6556
vn 0.9962 0.0095 -0.0867
vn 0.7142 -0.3945 0.5782
vn 0.2126 0.5548 0.8044
vn -0.0588 -0.9548 -0.2914
vn -0.7508 -0.5126 0.4165
vn -0.6033 0.7465 -0.2807
vn -0.7988 -0.0609 -0.5985
vn 0.0248 0.7198 -0.6937
vt 0.550384 0.206938
vt 0.375000 0.305791
vt 0.375000 0.049496
vt 0.180791 0.500000
vt 0.330928 0.574320
vt 0.125000 0.700504
vt 0.804283 0.500000
vt 0.842867 0.681766
vt 0.658516 0.626313
vt 0.875000 0.500000
vt 0.501754 0.540833
vt 0.565165 0.799791
vt 0.325310 0.750000
vt 0.604031 0.069198
vt 0.375000 1.000000
vt 0.375000 0.799690
vt 0.578028 1.000000
vt 0.615335 0.592735
vt 0.589707 0.775249
vt 0.581909 0.353207
s 0
g Cube_Material
usemtl Material
f 190/251/143 192/252/143 191/253/143
f 192/254/144 195/255/144 191/256/144
f 196/257/145 193/258/145 197/259/145
f 193/258/146 196/257/146 190/260/146
f 198/261/147 189/262/147 194/263/147 195/255/147
f 191/253/148 193/264/148 190/251/148
f 191/265/149 194/266/149 189/262/149 193/267/149
f 195/255/150 194/263/150 191/256/150
f 197/268/151 193/258/151 189/269/151
f 189/262/152 198/261/152 197/268/152
f 198/261/153 195/255/153 192/252/153 196/270/153
f 198/261/154 196/270/154 197/268/154
f 192/252/155 190/251/155 196/270/155
o Cube
v -4.549186 0.217763 -1.932128
v -4.021864 0.903625 -1.717088
v -3.840619 0.424047 -1.938892
v -3.785651 0.540908 -1.464442
v -4.433153 0.736743 -2.013916
v -4.103914 0.036644 -1.812185
v -3.924312 0.138450 -1.433056
v -4.320068 0.792070 -1.314083
v -4.649522 0.469645 -1.436818
v -4.363066 0.291682 -1.222159
vn 0.8795 0.4283 -0.2074
vn 0.9444 -0.3276 -0.0287
vn -0.7094 0.7023 0.0591
vn -0.3671 0.9301 -0.0142
vn -0.3191 -0.9129 0.2545
vn 0.3637 0.5007 -0.7855
vn 0.0632 -0.2488 -0.9665
vn 0.7761 -0.5954 -0.2078
vn -0.9461 0.1679 -0.2770
vn -0.6368 -0.7317 0.2431
vn 0.3668 0.0530 0.9288
vn -0.5062 0.1977 0.8394
vn 0.4774 0.6899 0.5442
vt 0.550384 0.206938
vt 0.375000 0.305791
vt 0.375000 0.049496
vt 0.180791 0.500000
vt 0.330928 0.574320
vt 0.125000 0.700504
vt 0.804283 0.500000
vt 0.842867 0.681766
vt 0.658516 0.626313
vt 0.875000 0.500000
vt 0.501754 0.540833
vt 0.565165 0.799791
vt 0.325310 0.750000
vt 0.604031 0.069198
vt 0.375000 1.000000
vt 0.375000 0.799690
vt 0.578028 1.000000
vt 0.615335 0.592735
vt 0.589707 0.775249
vt 0.581909 0.353207
s 0
g Cube_Material
usemtl Material
f 200/271/156 202/272/156 201/273/156
f 202/274/157 205/275/157 201/276/157
f 206/277/158 203/278/158 207/279/158
f 203/278/159 206/277/159 200/280/159
f 208/281/160 199/282/160 204/283/160 205/275/160
f 201/273/161 203/284/161 200/271/161
f 201/285/162 204/286/162 199/282/162 203/287/162
f 205/275/163 204/283/163 201/276/163
f 207/288/164 203/278/164 199/289/164
f 199/282/165 208/281/165 207/288/165
f 208/281/166 205/275/166 202/272/166 206/290/166
f 208/281/167 206/290/167 207/288/167
f 202/272/168 200/271/168 206/290/168
o Cube
v 3.411057 0.640538 1.941336
v 3.587977 -0.102398 2.109061
v 3.211861 0.143222 2.304676
v 3.577533 0.059700 2.517545
v 3.467388 0.202608 1.774738
v 3.282390 0.560637 2.348637
v 3.527900 0.421272 2.600968
v 3.959335 0.148564 2.154269
v 3.889822 0.536521 2.013830
v 3.889643 0.537811 2.364457
vn -0.3891 -0.8596 0.3312
vn -0.5294 -0.2591 0.8078
vn 0.5884 -0.1799 -0.7883
vn 0.4645 -0.5644 -0.6824
vn 0.0276 0.9500 0.3109
vn -0.6363 -0.6702 -0.3819
vn -0.9255 0.1049 -0.3638
vn -0.7037 0.0442 0.7091
vn 0.2174 0.3714 -0.9027
vn 0.2128 0.9771 -0.0035
vn 0.6475 -0.1861 0.7390
vn 0.9843 0.1763 -0.0001
vn 0.5006 -0.8002 0.3303
vt 0.550384 0.206938
vt 0.375000 0.305791
vt 0.375000 0.049496
vt 0.180791 0.500000
vt 0.330928 0.574320
vt 0.125000 0.700504
vt 0.804283 0.500000
vt 0.842867 0.681766
vt 0.658516 0.626313
vt 0.875000 0.500000
vt 0.501754 0.540833
vt 0.565165 0.799791
vt 0.325310 0.750000
vt 0.604031 0.069198
vt 0.375000 1.000000
vt 0.375000 0.799690
vt 0.578028 1.000000
vt 0.615335 0.592735
vt 0.589707 0.775249
vt 0.581909 0.353207
s 0
g Cube_Material
usemtl Material
f 210/291/169 212/292/169 211/293/169
f 212/294/170 215/295/170 211/296/170
f 216/297/171 213/298/171 217/299/171
f 213/298/172 216/297/172 210/300/172
f 218/301/173 209/302/173 214/303/173 215/295/173
f 211/293/174 213/304/174 210/291/174
f 211/305/175 214/306/175 209/302/175 213/307/175
f 215/295/176 214/303/176 211/296/176
f 217/308/177 213/298/177 209/309/177
f 209/302/178 218/301/178 217/308/178
f 218/301/179 215/295/179 212/292/179 216/310/179
f 218/301/180 216/310/180 217/308/180
f 212/292/181 210/291/181 216/310/181
o Cube
v 2.756916 -0.229252 3.010262
v 2.519447 -0.426241 2.198686
v 2.988137 -0.183824 2.331195
v 2.616956 0.048023 2.136720
v 2.623730 -0.608772 2.674356
v 2.959627 0.092662 2.713420
v 2.721034 0.308980 2.443129
v 2.146104 -0.176960 2.419352
v 2.236036 -0.120121 2.871614
v 2.296595 0.215896 2.684492
vn 0.3581 -0.1930 -0.9135
vn 0.6230 0.4783 -0.6189
vn -0.7169 -0.6598 0.2255
vn -0.6126 -0.7735 -0.1625
vn 0.1050 0.7246 0.6811
vn 0.5078 -0.7612 -0.4034
vn 0.8637 -0.4284 0.2654
vn 0.8061 0.5064 -0.3062
vn -0.3207 -0.5622 0.7623
vn -0.1235 0.4997 0.8573
vn -0.5393 0.6634 -0.5187
vn -0.9530 0.2591 0.1569
vn -0.5122 -0.0069 -0.8588
vt 0.550384 0.206938
vt 0.375000 0.305791
vt 0.375000 0.049496
vt 0.180791 0.500000
vt 0.330928 0.574320
vt 0.125000 0.700504
vt 0.804283 0.500000
vt 0.842867 0.681766
vt 0.658516 0.626313
vt 0.875000 0.500000
vt 0.501754 0.540833
vt 0.565165 0.799791
vt 0.325310 0.750000
vt 0.604031 0.069198
vt 0.375000 1.000000
vt 0.375000 0.799690
vt 0.578028 1.000000
vt 0.615335 0.592735
vt 0.589707 0.775249
vt 0.581909 0.353207
s 0
g Cube_Material
usemtl Material
f 220/311/182 222/312/182 221/313/182
f 222/314/183 225/315/183 221/316/183
f 226/317/184 223/318/184 227/319/184
f 223/318/185 226/317/185 220/320/185
f 228/321/186 219/322/186 224/323/186 225/315/186
f 221/313/187 223/324/187 220/311/187
f 221/325/188 224/326/188 219/322/188 223/327/188
f 225/315/189 224/323/189 221/316/189
f 227/328/190 223/318/190 219/329/190
f 219/322/191 228/321/191 227/328/191
f 228/321/192 225/315/192 222/312/192 226/330/192
f 228/321/193 226/330/193 227/328/193
f 222/312/194 220/311/194 226/330/194
o Cube
v 3.450422 -0.133125 -0.515983
v 3.472213 0.605254 0.395797
v 3.715607 0.770657 -0.278058
v 4.107244 0.639300 0.220243
v 3.071364 0.213701 -0.028502
v 3.955326 0.271676 -0.596711
v 4.342504 0.328945 -0.184736
v 3.751731 0.019208 0.584166
v 3.673047 -0.413082 0.135576
v 4.170142 -0.240684 0.126909
vn 0.0153 0.9698 0.2436
vn 0.5821 0.7725 -0.2539
vn -0.6587 -0.4808 0.5788
vn -0.6806 -0.0910 0.7270
vn 0.5333 -0.6076 -0.5885
vn -0.6656 0.7440 -0.0578
vn -0.5215 0.3570 -0.7749
vn 0.5251 0.6227 -0.5801
vn -0.7128 -0.6991 -0.0568
vn 0.2840 -0.8419 -0.4588
vn 0.7944 -0.0076 0.6073
vn 0.2602 -0.7177 0.6460
vn 0.2252 0.3939 0.8911
vt 0.550384 0.206938
vt 0.375000 0.305791
vt 0.375000 0.049496
vt 0.180791 0.500000
vt 0.330928 0.574320
vt 0.125000 0.700504
vt 0.804283 0.500000
vt 0.842867 0.681766
vt 0.658516 0.626313
vt 0.875000 0.500000
vt 0.501754 0.540833
vt 0.565165 0.799791
vt 0.325310 0.750000
vt 0.604031 0.069198
vt 0.375000 1.000000
vt 0.375000 0.799690
vt 0.578028 1.000000
vt 0.615335 0.592735
vt 0.589707 0.775249
vt 0.581909 0.353207
s 0
g Cube_Material
usemtl Material
f 230/331/195 232/332/195 231/333/195
f 232/334/196 235/335/196 231/336/196
f 236/337/197 233/338/197 237/339/197
f 233/338/198 236/337/198 230/340/198
f 238/341/199 229/342/199 234/343/199 235/335/199
f 231/333/200 233/344/200 230/331/200
f 231/345/201 234/346/201 229/342/201 233/347/201
f 235/335/202 234/343/202 231/336/202
f 237/348/203 233/338/203 229/349/203
f 229/342/204 238/341/204 237/348/204
f 238/341/205 235/335/205 232/332/205 236/350/205
f 238/341/206 236/350/206 237/348/206
f 232/332/207 230/331/207 236/350/207
o Cube
v -2.731361 -0.046191 -2.403098
v -2.617446 0.269988 -3.203014
v -2.257249 0.320533 -2.798922
v -2.538441 0.678060 -2.947709
v -2.694459 -0.155010 -2.914004
v -2.452977 0.346127 -2.369876
v -2.581846 0.709992 -2.535793
v -3.064172 0.417566 -3.034103
v -3.162662 0.204772 -2.633378
v -3.058520 0.572808 -2.562077
vn 0.7000 0.2765 -0.6585
vn 0.7788 0.6264 0.0335
vn -0.6977 -0.5474 -0.4622
vn -0.4419 -0.4483 -0.7770
vn -0.2230 0.2111 0.9517
vn 0.6792 -0.4929 -0.5438
vn 0.7198 -0.6396 0.2696
vn 0.8223 0.4500 0.3483
vn -0.5513 -0.8232 0.1355
vn -0.4852 -0.0320 0.8738
vn -0.3403 0.9169 -0.2087
vn -0.9546 0.2861 -0.0827
vn -0.1335 0.5441 -0.8283
vt 0.550384 0.206938
vt 0.375000 0.305791
vt 0.375000 0.049496
vt 0.180791 0.500000
vt 0.330928 0.574320
vt 0.125000 0.700504
vt 0.804283 0.500000
vt 0.842867 0.681766
vt 0.658516 0.626313
vt 0.875000 0.500000
vt 0.501754 0.540833
vt 0.565165 0.799791
vt 0.325310 0.750000
vt 0.604031 0.069198
vt 0.375000 1.000000
vt 0.375000 0.799690
vt 0.578028 1.000000
vt 0.615335 0.592735
vt 0.589707 0.775249
vt 0.581909 0.353207
s 0
g Cube_Material
usemtl Material
f 240/351/208 242/352/208 241/353/208
f 242/354/209 245/355/209 241/356/209
f 246/357/210 243/358/210 247/359/210
f 243/358/211 246/357/211 240/360/211
f 248/361/212 239/362/212 244/363/212 245/355/212
f 241/353/213 243/364/213 240/351/213
f 241/365/214 244/366/214 239/362/214 243/367/214
f 245/355/215 244/363/215 241/356/215
f 247/368/216 243/358/216 239/369/216
f 239/362/217 248/361/217 247/368/217
f 248/361/218 245/355/218 242/352/218 246/370/218
f 248/361/219 246/370/219 247/368/219
f 242/352/220 240/351/220 246/370/220
o Cube
v -3.389413 0.920215 1.348729
v -3.537282 -0.083597 1.084440
v -2.969877 0.239416 1.011160
v -3.325491 0.116433 0.571983
v -3.544668 0.340007 1.548025
v -3.032715 0.796611 0.904841
v -3.219516 0.597782 0.476624
v -3.977551 0.248778 0.838292
v -3.954454 0.775073 1.031353
v -3.785037 0.761968 0.592957
vn 0.4758 -0.8680 -0.1422
vn 0.7827 -0.2822 -0.5547
vn -0.8340 -0.1574 0.5289
vn -0.6831 -0.5445 0.4867
vn 0.0932 0.9396 -0.3292
vn 0.4512 -0.6552 0.6059
vn 0.7334 0.1202 0.6691
vn 0.9120 0.0247 -0.4093
vn -0.5248 0.3988 0.7520
vn -0.1925 0.9758 -0.1036
vn -0.3396 -0.2120 -0.9164
vn -0.9171 0.1721 -0.3596
vn -0.3541 -0.8123 -0.4634
vt 0.550384 0.206938
vt 0.375000 0.305791
vt 0.375000 0.049496
vt 0.180791 0.500000
vt 0.330928 0.574320
vt 0.125000 0.700504
vt 0.804283 0.500000
vt 0.842867 0.681766
vt 0.658516 0.626313
vt 0.875000 0.500000
vt 0.501754 0.540833
vt 0.565165 0.799791
vt 0.325310 0.750000
vt 0.604031 0.069198
vt 0.375000 1.000000
vt 0.375000 0.799690
vt 0.578028 1.000000
vt 0.615335 0.592735
vt 0.589707 0.775249
vt 0.581909 0.353207
s 0
g Cube_Material
usemtl Material
f 250/371/221 252/372/221 251/373/221
f 252/374/222 255/375/222 251/376/222
f 256/377/223 253/378/223 257/379/223
f 253/378/224 256/377/224 250/380/224
f 258/381/225 249/382/225 254/383/225 255/375/225
f 251/373/226 253/384/226 250/371/226
f 251/385/227 254/386/227 249/382/227 253/387/227
f 255/375/228 254/383/228 251/376/228
f 257/388/229 253/378/229 249/389/229
f 249/382/230 258/381/230 257/388/230
f 258/381/231 255/375/231 252/372/231 256/390/231
f 258/381/232 256/390/232 257/388/232
f 252/372/233 250/371/233 256/390/233
o Cube
v 0.048713 0.148463 3.894638
v -0.284080 0.574538 3.221030
v -0.477168 0.602630 3.725863
v -0.687170 0.353900 3.378006
v 0.133025 0.498284 3.517441
v -0.421089 0.207132 3.973802
v -0.698900 0.080384 3.687969
v -0.236259 0.094542 3.098792
v -0.003253 -0.131734 3.427623
v -0.380037 -0.217190 3.454979
vn -0.5381 0.8048 -0.2506
vn -0.8903 0.3576 0.2818
vn 0.7855 -0.0825 -0.6133
vn 0.5907 0.2539 -0.7659
vn -0.1023 -0.7740 0.6249
vn 0.1722 0.9850 0.0111
vn 0.2887 0.6088 0.7389
vn -0.7475 0.2735 0.6053
vn 0.9766 -0.2141 0.0198
vn 0.2269 -0.8461 0.4824
vn -0.6970 -0.4501 -0.5582
vn 0.1298 -0.7715 -0.6228
vn -0.4410 0.1800 -0.8793
vt 0.550384 0.206938
vt 0.375000 0.305791
vt 0.375000 0.049496
vt 0.180791 0.500000
vt 0.330928 0.574320
vt 0.125000 0.700504
vt 0.804283 0.500000
vt 0.842867 0.681766
vt 0.658516 0.626313
vt 0.875000 0.500000
vt 0.501754 0.540833
vt 0.565165 0.799791
vt 0.325310 0.750000
vt 0.604031 0.069198
vt 0.375000 1.000000
vt 0.375000 0.799690
vt 0.578028 1.000000
vt 0.615335 0.592735
vt 0.589707 0.775249
vt 0.581909 0.353207
s 0
g Cube_Material
usemtl Material
f 260/391/234 262/392/234 261/393/234
f 262/394/235 265/395/235 261/396/235
f 266/397/236 263/398/236 267/399/236
f 263/398/237 266/397/237 260/400/237
f 268/401/238 259/402/238 264/403/238 265/395/238
f 261/393/239 263/404/239 260/391/239
f 261/405/240 264/406/240 259/402/240 263/407/240
f 265/395/241 264/403/241 261/396/241
f 267/408/242 263/398/242 259/409/242
f 259/402/243 268/401/243 267/408/243
f 268/401/244 265/395/244 262/392/244 266/410/244
f 268/401/245 266/410/245 267/408/245
f 262/392/246 260/391/246 266/410/246
o Cube
v 2.189007 -0.453841 0.455242
v 2.637630 0.187539 -0.078629
v 2.059278 0.060805 -0.122271
v 2.416778 -0.103621 -0.466154
v 2.493097 0.030363 0.447155
v 1.943354 -0.428965 -0.009822
v 2.180989 -0.485162 -0.398241
v 2.917204 -0.280978 -0.095344
v 2.725891 -0.611358 0.238249
v 2.604289 -0.720409 -0.153957
vn -0.1406 0.8284 -0.5423
vn -0.6116 0.2440 -0.7526
vn 0.8124 0.1082 0.5730
vn 0.8062 0.4682 0.3616
vn -0.3964 -0.9173 0.0374
vn -0.2247 0.9488 0.2219
vn -0.7593 0.3917 0.5197
vn -0.8453 0.0787 -0.5285
vn 0.3208 -0.1860 0.9287
vn -0.1511 -0.9393 0.3080
vn 0.4328 -0.2989 -0.8505
vn 0.8168 -0.5690 -0.0951
vn 0.6329 0.4013 -0.6622
vt 0.550384 0.206938
vt 0.375000 0.305791
vt 0.375000 0.049496
vt 0.180791 0.500000
vt 0.330928 0.574320
vt 0.125000 0.700504
vt 0.804283 0.500000
vt 0.842867 0.681766
vt 0.658516 0.626313
vt 0.875000 0.500000
vt 0.501754 0.540833
vt 0.565165 0.799791
vt 0.325310 0.750000
vt 0.604031 0.069198
vt 0.375000 1.000000
vt 0.375000 0.799690
vt 0.578028 1.000000
vt 0.615335 0.592735
vt 0.589707 0.775249
vt 0.581909 0.353207
s 0
g Cube_Material
usemtl Material
f 270/411/247 272/412/247 271/413/247
f 272/414/248 275/415/248 271/416/248
f 276/417/249 273/418/249 277/419/249
f 273/418/250 276/417/250 270/420/250
f 278/421/251 269/422/251 274/423/251 275/415/251
f 271/413/252 273/424/252 270/411/252
f 271/425/253 274/426/253 269/422/253 273/427/253
f 275/415/254 274/423/254 271/416/254
f 277/428/255 273/418/255 269/429/255
f 269/422/256 278/421/256 277/428/256
f 278/421/257 275/415/257 272/412/257 276/430/257
f 278/421/258 276/430/258 277/428/258
f 272/412/259 270/411/259 276/430/259
o Cube
v 0.252016 0.676676 -2.233081
v 0.372602 0.275651 -3.032576
v -0.130980 0.425737 -2.823509
v 0.032650 -0.044301 -2.833771
v 0.483370 0.706421 -2.725331
v -0.157506 0.404994 -2.333403
v -0.119963 -0.019533 -2.430251
v 0.625277 0.002905 -2.669075
v 0.622098 0.241259 -2.249052
v 0.355620 -0.062925 -2.233018
vn -0.4117 -0.1236 -0.9029
vn -0.8968 -0.3052 -0.3204
vn 0.9769 0.1891 -0.0999
vn 0.8579 0.1334 -0.4963
vn -0.2900 -0.1142 0.9502
vn -0.1480 0.5992 -0.7868
vn -0.4620 0.8836 -0.0759
vn -0.9955 -0.0750 -0.0571
vn 0.7141 0.5933 0.3715
vn 0.0517 0.0073 0.9986
vn 0.0172 -0.9990 -0.0402
vn 0.7137 -0.6068 0.3498
vn 0.2450 -0.6860 -0.6851
vt 0.550384 0.206938
vt 0.375000 0.305791
vt 0.375000 0.049496
vt 0.180791 0.500000
vt 0.330928 0.574320
vt 0.125000 0.700504
vt 0.804283 0.500000
vt 0.842867 0.681766
vt 0.658516 0.626313
vt 0.875000 0.500000
vt 0.501754 0.540833
vt 0.565165 0.799791
vt 0.325310 0.750000
vt 0.604031 0.069198
vt 0.375000 1.000000
vt 0.375000 0.799690
vt 0.578028 1.000000
vt 0.615335 0.592735
vt 0.589707 0.775249
vt 0.581909 0.353207
s 0
g Cube_Material
usemtl Material
f 280/431/260 282/432/260 281/433/260
f 282/434/261 285/435/261 281/436/261
f 286/437/262 283/438/262 287/439/262
f 283/438/263 286/437/263 280/440/263
f 288/441/264 279/442/264 284/443/264 285/435/264
f 281/433/265 283/444/265 280/431/265
f 281/445/266 284/446/266 279/442/266 283/447/266
f 285/435/267 284/443/267 281/436/267
f 287/448/268 283/438/268 279/449/268
f 279/442/269 288/441/269 287/448/269
f 288/441/270 285/435/270 282/432/270 286/450/270
f 288/441/271 286/450/271 287/448/271
f 282/432/272 280/431/272 286/450/272
o Cube
v 1.128180 0.958254 -2.004256
v 1.624934 0.562054 -1.437624
v 1.731631 0.596912 -1.959154
v 1.572615 0.206004 -1.753196
v 1.409915 1.002975 -1.576876
v 1.354283 0.607942 -2.227920
v 1.332969 0.222755 -2.082512
v 1.165246 0.399181 -1.385276
v 0.880374 0.646556 -1.640616
v 0.939553 0.308521 -1.807886
vn 0.9408 -0.2916 0.1730
vn 0.6666 -0.5412 -0.5126
vn -0.3795 0.4160 0.8264
vn 0.0016 0.3019 0.9533
vn -0.6680 -0.1077 -0.7363
vn 0.8522 0.4808 0.2065
vn 0.4755 0.7335 -0.4857
vn 0.5428 -0.3227 -0.7754
vn -0.5584 0.7784 0.2867
vn -0.8594 0.0978 -0.5018
vn -0.1735 -0.9639 0.2021
vn -0.7784 -0.3826 0.4978
vn 0.3107 -0.6556 0.6882
vt 0.550384 0.206938
vt 0.375000 0.305791
vt 0.375000 0.049496
vt 0.180791 0.500000
vt 0.330928 0.574320
vt 0.125000 0.700504
vt 0.804283 0.500000
vt 0.842867 0.681766
vt 0.658516 0.626313
vt 0.875000 0.500000
vt 0.501754 0.540833
vt 0.565165 0.799791
vt 0.325310 0.750000
vt 0.604031 0.069198
vt 0.375000 1.000000
vt 0.375000 0.799690
vt 0.578028 1.000000
vt 0.615335 0.592735
vt 0.589707 0.775249
vt 0.581909 0.353207
s 0
g Cube_Material
usemtl Material
f 290/451/273 292/452/273 291/453/273
f 292/454/274 295/455/274 291/456/274
f 296/457/275 293/458/275 297/459/275
f 293/458/276 296/457/276 290/460/276
f 298/461/277 289/462/277 294/463/277 295/455/277
f 291/453/278 293/464/278 290/451/278
f 291/465/279 294/466/279 289/462/279 293/467/279
f 295/455/280 294/463/280 291/456/280
f 297/468/281 293/458/281 289/469/281
f 289/462/282 298/461/282 297/468/282
f 298/461/283 295/455/283 292/452/283 296/470/283
f 298/461/284 296/470/284 297/468/284
f 292/452/285 290/451/285 296/470/285
o Cube
v -1.913275 0.583661 -1.247170
v -2.202776 0.667482 -0.177002
v -1.628494 0.345607 -0.404911
v -2.127782 0.047802 -0.209748
v -2.046887 0.995979 -0.734903
v -1.690240 0.089994 -0.949965
v -2.019331 -0.219528 -0.657120
v -2.703173 0.444129 -0.508670
v -2.590497 0.468231 -1.092340
v -2.549438 -0.003093 -0.935083
vn 0.3665 -0.0048 0.9304
vn 0.5784 -0.6308 0.5172
vn -0.6599 0.7451 -0.0966
vn -0.5493 0.7781 0.3047
vn 0.0506 -0.5956 -0.8017
vn 0.5648 0.6324 0.5302
vn 0.8971 0.3984 -0.1907
vn 0.7606 -0.6166 0.2030
vn -0.2694 0.7147 -0.6455
vn -0.1578 -0.3249 -0.9325
vn -0.5943 -0.7007 0.3947
vn -0.9697 -0.1490 -0.1934
vn -0.5156 -0.1073 0.8501
vt 0.550384 0.206938
vt 0.375000 0.305791
vt 0.375000 0.049496
vt 0.180791 0.500000
vt 0.330928 0.574320
vt 0.125000 0.700504
vt 0.804283 0.500000
vt 0.842867 0.681766
vt 0.658516 0.626313
vt 0.875000 0.500000
vt 0.501754 0.540833
vt 0.565165 0.799791
vt 0.325310 0.750000
vt 0.604031 0.069198
vt 0.375000 1.000000
vt 0.375000 0.799690
vt 0.578028 1.000000
vt 0.615335 0.592735
vt 0.589707 0.775249
vt 0.581909 0.353207
s 0
g Cube_Material
usemtl Material
f 300/471/286 302/472/286 301/473/286
f 302/474/287 305/475/287 301/476/287
f 306/477/288 303/478/288 307/479/288
f 303/478/289 306/477/289 300/480/289
f 308/481/290 299/482/290 304/483/290 305/475/290
f 301/473/291 303/484/291 300/471/291
f 301/485/292 304/486/292 299/482/292 303/487/292
f 305/475/293 304/483/293 301/476/293
f 307/488/294 303/478/294 299/489/294
f 299/482/295 308/481/295 307/488/295
f 308/481/296 305/475/296 302/472/296 306/490/296
f 308/481/297 306/490/297 307/488/297
f 302/472/298 300/471/298 306/490/298
o Cube
v 0.830167 0.391788 -0.538374
v 0.335081 0.316460 -1.640201
v 0.847724 -0.171130 -1.367067
v 0.991862 0.300211 -1.817298
v 0.214711 0.320716 -0.925350
v 1.277228 0.099828 -0.947420
v 1.433236 0.363311 -1.447153
v 0.577727 0.963538 -1.547395
v 0.767995 1.045594 -0.933798
v 1.204128 0.987259 -1.251503
vn -0.2149 -0.6394 -0.7382
vn 0.5341 -0.6636 -0.5238
vn -0.7834 0.5998 0.1627
vn -0.9172 0.3664 -0.1566
vn 0.8107 0.2484 0.5302
vn -0.6551 -0.7481 -0.1059
vn -0.1586 -0.8183 0.5525
vn 0.6482 -0.7382 -0.1868
vn -0.5197 0.4054 0.7520
vn 0.5606 0.4669 0.6839
vn 0.4324 0.4898 -0.7570
vn 0.0293 0.9895 -0.1414
vn -0.2482 0.2281 -0.9415
vt 0.550384 0.206938
vt 0.375000 0.305791
vt 0.375000 0.049496
vt 0.180791 0.500000
vt 0.330928 0.574320
vt 0.125000 0.700504
vt 0.804283 0.500000
vt 0.842867 0.681766
vt 0.658516 0.626313
vt 0.875000 0.500000
vt 0.501754 0.540833
vt 0.565165 0.799791
vt 0.325310 0.750000
vt 0.604031 0.069198
vt 0.375000 1.000000
vt 0.375000 0.799690
vt 0.578028 1.000000
vt 0.615335 0.592735
vt 0.589707 0.775249
vt 0.581909 0.353207
s 0
g Cube_Material
usemtl Material
f 310/491/299 312/492/299 311/493/299
f 312/494/300 315/495/300 311/496/300
f 316/497/301 313/498/301 317/499/301
f 313/498/302 316/497/302 310/500/302
f 318/501/303 309/502/303 314/503/303 315/495/303
f 311/493/304 313/504/304 310/491/304
f 311/505/305 314/506/305 309/502/305 313/507/305
f 315/495/306 314/503/306 311/496/306
f 317/508/307 313/498/307 309/509/307
f 309/502/308 318/501/308 317/508/308
f 318/501/309 315/495/309 312/492/309 316/510/309
f 318/501/310 316/510/310 317/508/310
f 312/492/311 310/491/311 316/510/311
o Cube
v -1.455749 0.470953 -0.425538
v -1.854893 -0.245468 -0.923355
v -2.152949 0.237958 -0.726250
v -2.190078 -0.239351 -0.500829
v -1.457088 0.169191 -0.919717
v -1.967101 0.433722 -0.279222
v -2.137447 0.027762 -0.130861
v -1.572459 -0.459699 -0.499285
v -1.298804 -0.093795 -0.265241
v -1.643742 -0.189045 -0.026444
vn -0.7648 -0.2255 -0.6035
vn -0.9922 0.1073 0.0637
vn 0.8425 -0.3976 -0.3635
vn 0.5578 -0.5296 -0.6390
vn 0.1131 0.4236 0.8988
vn -0.2384 0.2370 -0.9418
vn -0.1031 0.8877 -0.4487
vn -0.8829 0.4350 0.1766
vn 0.9634 0.2276 -0.1416
vn 0.4624 0.3587 0.8109
vn -0.3583 -0.7906 0.4965
vn 0.5265 -0.7012 0.4807
vn -0.3253 -0.9134 -0.2448
vt 0.550384 0.206938
vt 0.375000 0.305791
vt 0.375000 0.049496
vt 0.180791 0.500000
vt 0.330928 0.574320
vt 0.125000 0.700504
vt 0.804283 0.500000
vt 0.842867 0.681766
vt 0.658516 0.626313
vt 0.875000 0.500000
vt 0.501754 0.540833
vt 0.565165 0.799791
vt 0.325310 0.750000
vt 0.604031 0.069198
vt 0.375000 1.000000
vt 0.375000 0.799690
vt 0.578028 1.000000
vt 0.615335 0.592735
vt 0.589707 0.775249
vt 0.581909 0.353207
s 0
g Cube_Material
usemtl Material
f 320/511/312 322/512/312 321/513/312
f 322/514/313 325/515/313 321/516/313
f 326/517/314 323/518/314 327/519/314
f 323/518/315 326/517/315 320/520/315
f 328/521/316 319/522/316 324/523/316 325/515/316
f 321/513/317 323/524/317 320/511/317
f 321/525/318 324/526/318 319/522/318 323/527/318
f 325/515/319 324/523/319 321/516/319
f 327/528/320 323/518/320 319/529/320
f 319/522/321 328/521/321 327/528/321
f 328/521/322 325/515/322 322/512/322 326/530/322
f 328/521/323 326/530/323 327/528/323
f 322/512/324 320/511/324 326/530/324
o Cube
v 1.654260 0.734088 5.847418
v 0.969320 1.240534 6.491655
v 1.326397 0.702676 6.667959
v 0.751232 0.683369 6.542087
v 1.501306 1.287960 6.139559
v 1.433773 0.336697 6.229223
v 0.921908 0.280498 6.277403
v 0.686237 1.118075 5.959226
v 1.060987 0.915967 5.577995
v 0.794765 0.555079 5.746098
vn -0.2161 0.1716 0.9612
vn -0.1542 -0.5873 0.7945
vn -0.0640 0.8543 -0.5158
vn -0.1742 0.9758 -0.1318
vn 0.1599 -0.8028 -0.5744
vn 0.4355 0.5281 0.7291
vn 0.9286 -0.0311 0.3698
vn 0.1431 -0.7425 0.6544
vn 0.4804 0.5093 -0.7140
vn 0.2079 -0.5349 -0.8190
vn -0.9617 -0.2738 -0.0085
vn -0.6645 0.1491 -0.7323
vn -0.8536 0.3675 0.3693
vt 0.550384 0.206938
vt 0.375000 0.305791
vt 0.375000 0.049496
vt 0.180791 0.500000
vt 0.330928 0.574320
vt 0.125000 0.700504
vt 0.804283 0.500000
vt 0.842867 0.681766
vt 0.658516 0.626313
vt 0.875000 0.500000
vt 0.501754 0.540833
vt 0.565165 0.799791
vt 0.325310 0.750000
vt 0.604031 0.069198
vt 0.375000 1.000000
vt 0.375000 0.799690
vt 0.578028 1.000000
vt 0.615335 0.592735
vt 0.589707 0.775249
vt 0.581909 0.353207
s 0
g Cube_Material
usemtl Material
f 330/531/325 332/532/325 331/533/325
f 332/534/326 335/535/326 331/536/326
f 336/537/327 333/538/327 337/539/327
f 333/538/328 336/537/328 330/540/328
f 338/541/329 329/542/329 334/543/329 335/535/329
f 331/533/330 333/544/330 330/531/330
f 331/545/331 334/546/331 329/542/331 333/547/331
f 335/535/332 334/543/332 331/536/332
f 337/548/333 333/538/333 329/549/333
f 329/542/334 338/541/334 337/548/334
f 338/541/335 335/535/335 332/532/335 336/550/335
f 338/541/336 336/550/336 337/548/336
f 332/532/337 330/531/337 336/550/337
o Cube
v -4.272198 0.711184 4.831413
v -3.440381 0.418244 4.432599
v -3.779999 0.873708 4.220380
v -3.759769 0.391175 3.992878
v -3.698396 0.631078 4.906111
v -4.296537 0.811917 4.303589
v -4.216765 0.468009 3.995304
v -3.769702 -0.025626 4.506536
v -4.188733 0.105925 4.781036
v -4.298031 0.061828 4.363323
vn 0.7624 0.3018 -0.5724
vn 0.0671 0.4278 -0.9014
vn 0.3511 -0.5142 0.7825
vn 0.7010 -0.4247 0.5729
vn -0.9979 -0.0032 -0.0652
vn 0.7640 0.6314 0.1325
vn 0.0183 0.9625 0.2707
vn -0.1964 0.6288 -0.7523
vn -0.1424 -0.1016 0.9846
vn -0.9519 -0.1533 0.2653
vn -0.0240 -0.7296 -0.6835
vn -0.2021 -0.9670 0.1550
vn 0.6767 -0.5780 -0.4560
vt 0.550384 0.206938
vt 0.375000 0.305791
vt 0.375000 0.049496
vt 0.180791 0.500000
vt 0.330928 0.574320
vt 0.125000 0.700504
vt 0.804283 0.500000
vt 0.842867 0.681766
vt 0.658516 0.626313
vt 0.875000 0.500000
vt 0.501754 0.540833
vt 0.565165 0.799791
vt 0.325310 0.750000
vt 0.604031 0.069198
vt 0.375000 1.000000
vt 0.375000 0.799690
vt 0.578028 1.000000
vt 0.615335 0.592735
vt 0.589707 0.775249
vt 0.581909 0.353207
s 0
g Cube_Material
usemtl Material
f 340/551/338 342/552/338 341/553/338
f 342/554/339 345/555/339 341/556/339
f 346/557/340 343/558/340 347/559/340
f 343/558/341 346/557/341 340/560/341
f 348/561/342 339/562/342 344/563/342 345/555/342
f 341/553/343 343/564/343 340/551/343
f 341/565/344 344/566/344 339/562/344 343/567/344
f 345/555/345 344/563/345 341/556/345
f 347/568/346 343/558/346 339/569/346
f 339/562/347 348/561/347 347/568/347
f 348/561/348 345/555/348 342/552/348 346/570/348
f 348/561/349 346/570/349 347/568/349
f 342/552/350 340/551/350 346/570/350
o Cube
v 5.975543 -0.359441 2.050969
v 5.066284 -0.048793 1.522993
v 5.580128 0.374600 1.692305
v 5.052090 0.357233 1.986531
v 5.597494 -0.434742 1.513132
v 5.863969 0.222086 2.194608
v 5.389774 0.361551 2.388410
v 4.900553 -0.374868 2.037951
v 5.374418 -0.613699 2.288150
v 5.230438 -0.223542 2.550362
vn -0.3678 0.6939 -0.6191
vn -0.0265 0.9996 0.0115
vn -0.3007 -0.9066 -0.2959
vn -0.4884 -0.6576 -0.5736
vn 0.4931 -0.0065 0.8699
vn 0.1396 0.2169 -0.9662
vn 0.8337 0.1970 -0.5159
vn 0.3199 0.9416 0.1051
vn 0.3483 -0.9304 -0.1146
vn 0.4713 -0.3655 0.8027
vn -0.7982 0.2752 0.5359
vn -0.5890 -0.5891 0.5532
vn -0.9635 0.1859 -0.1924
vt 0.550384 0.206938
vt 0.375000 0.305791
vt 0.375000 0.049496
vt 0.180791 0.500000
vt 0.330928 0.574320
vt 0.125000 0.700504
vt 0.804283 0.500000
vt 0.842867 0.681766
vt 0.658516 0.626313
vt 0.875000 0.500000
vt 0.501754 0.540833
vt 0.565165 0.799791
vt 0.325310 0.750000
vt 0.604031 0.069198
vt 0.375000 1.000000
vt 0.375000 0.799690
vt 0.578028 1.000000
vt 0.615335 0.592735
vt 0.589707 0.775249
vt 0.581909 0.353207
s 0
g Cube_Material
usemtl Material
f 350/571/351 352/572/351 351/573/351
f 352/574/352 355/575/352 351/576/352
f 356/577/353 353/578/353 357/579/353
f 353/578/354 356/577/354 350/580/354
f 358/581/355 349/582/355 354/583/355 355/575/355
f 351/573/356 353/584/356 350/571/356
f 351/585/357 354/586/357 349/582/357 353/587/357
f 355/575/358 354/583/358 351/576/358
f 357/588/359 353/578/359 349/589/359
f 349/582/360 358/581/360 357/588/360
f 358/581/361 355/575/361 352/572/361 356/590/361
f 358/581/362 356/590/362 357/588/362
f 352/572/363 350/571/363 356/590/363
o Cube
v 5.379675 0.698972 -2.347064
v 4.402797 0.843569 -2.901870
v 4.451986 0.690670 -2.210517
v 4.287678 0.272503 -2.644655
v 4.991354 1.124614 -2.715032
v 4.941741 0.345613 -2.064889
v 4.648291 -0.013493 -2.357795
v 4.770481 0.417536 -3.232268
v 5.326549 0.390434 -2.992612
v 5.063569 -0.022008 -2.855759
vn -0.9605 0.2492 0.1235
vn -0.7338 -0.3289 0.5945
vn 0.3684 0.4712 -0.8014
vn -0.0300 0.5962 -0.8022
vn 0.6353 -0.6583 0.4038
vn -0.4767 0.8506 0.2220
vn 0.1072 0.6330 0.7667
vn -0.4614 -0.3030 0.8338
vn 0.8196 0.4878 -0.3006
vn 0.8555 -0.4910 0.1643
vn -0.4212 -0.7888 -0.4477
vn 0.3276 -0.4791 -0.8143
vn -0.7474 -0.1417 -0.6491
vt 0.550384 0.206938
vt 0.375000 0.305791
vt 0.375000 0.049496
vt 0.180791 0.500000
vt 0.330928 0.574320
vt 0.125000 0.700504
vt 0.804283 0.500000
vt 0.842867 0.681766
vt 0.658516 0.626313
vt 0.875000 0.500000
vt 0.501754 0.540833
vt 0.565165 0.799791
vt 0.325310 0.750000
vt 0.604031 0.069198
vt 0.375000 1.000000
vt 0.375000 0.799690
vt 0.578028 1.000000
vt 0.615335 0.592735
vt 0.589707 0.775249
vt 0.581909 0.353207
s 0
g Cube_Material
usemtl Material
f 360/591/364 362/592/364 361/593/364
f 362/594/365 365/595/365 361/596/365
f 366/597/366 363/598/366 367/599/366
f 363/598/367 366/597/367 360/600/367
f 368/601/368 359/602/368 364/603/368 365/595/368
f 361/593/369 363/604/369 360/591/369
f 361/605/370 364/606/370 359/602/370 363/607/370
f 365/595/371 364/603/371 361/596/371
f 367/608/372 363/598/372 359/609/372
f 359/602/373 368/601/373 367/608/373
f 368/601/374 365/595/374 362/592/374 366/610/374
f 368/601/375 366/610/375 367/608/375
f 362/592/376 360/591/376 366/610/376
o Cube
v -3.531223 0.667652 2.893464
v -3.684957 0.366132 3.901191
v -3.908641 0.937248 3.641375
v -3.446063 0.904931 4.000237
v -3.780796 0.226911 3.287305
v -3.569846 1.154636 3.225710
v -3.264627 1.211116 3.636380
v -3.088975 0.315701 3.769456
v -3.002396 0.400898 3.213730
v -2.866055 0.787904 3.456376
vn -0.6030 0.1224 0.7883
vn -0.3348 0.7966 0.5033
vn 0.2061 -0.9715 -0.1168
vn -0.0325 -0.9736 0.2259
vn 0.5128 0.5947 -0.6191
vn -0.9392 -0.2730 0.2085
vn -0.8562 0.1621 -0.4905
vn -0.3852 0.9086 0.1613
vn 0.0865 -0.6906 -0.7180
vn 0.5941 0.2666 -0.7590
vn 0.6895 0.2370 0.6844
vn 0.9217 -0.3784 0.0856
vn 0.1877 -0.2575 0.9479
vt 0.550384 0.206938
vt 0.375000 0.305791
vt 0.375000 0.049496
vt 0.180791 0.500000
vt 0.330928 0.574320
vt 0.125000 0.700504
vt 0.804283 0.500000
vt 0.842867 0.681766
vt 0.658516 0.626313
vt 0.875000 0.500000
vt 0.501754 0.540833
vt 0.565165 0.799791
vt 0.325310 0.750000
vt 0.604031 0.069198
vt 0.375000 1.000000
vt 0.375000 0.799690
vt 0.578028 1.000000
vt 0.615335 0.592735
vt 0.589707 0.775249
vt 0.581909 0.353207
s 0
g Cube_Material
usemtl Material
f 370/611/377 372/612/377 371/613/377
f 372/614/378 375/615/378 371/616/378
f 376/617/379 373/618/379 377/619/379
f 373/618/380 376/617/380 370/620/380
f 378/621/381 369/622/381 374/623/381 375/615/381
f 371/613/382 373/624/382 370/611/382
f 371/625/383 374/626/383 369/622/383 373/627/383
f 375/615/384 374/623/384 371/616/384
f 377/628/385 373/618/385 369/629/385
f 369/622/386 378/621/386 377/628/386
f 378/621/387 375/615/387 372/612/387 376/630/387
f 378/621/388 376/630/388 377/628/388
f 372/612/389 370/611/389 376/630/389
o Cube
v -2.506640 0.260479 4.404207
v -2.050936 -0.007563 4.974779
v -2.538128 -0.006179 4.989517
v -2.294286 0.271797 5.207124
v -2.176037 -0.049054 4.527897
v -2.715439 0.315381 4.778733
v -2.549511 0.500691 5.061603
v -1.912661 0.403266 4.861054
v -2.113463 0.533659 4.520566
v -2.244628 0.694255 4.801057
vn 0.0217 -0.6280 0.7779
vn -0.5753 -0.1278 0.8079
vn 0.8406 -0.0970 -0.5329
vn 0.9047 -0.3652 -0.2194
vn -0.5868 0.7475 -0.3114
vn -0.0000 -0.9957 0.0925
vn -0.6307 -0.6929 -0.3496
vn -0.8295 -0.0969 0.5500
vn 0.3124 -0.0455 -0.9489
vn -0.3407 0.7383 -0.5821
vn 0.3185 0.6372 0.7018
vn 0.6664 0.7374 -0.1106
vn 0.6760 -0.0237 0.7365
vt 0.550384 0.206938
vt 0.375000 0.305791
vt 0.375000 0.049496
vt 0.180791 0.500000
vt 0.330928 0.574320
vt 0.125000 0.700504
vt 0.804283 0.500000
vt 0.842867 0.681766
vt 0.658516 0.626313
vt 0.875000 0.500000
vt 0.501754 0.540833
vt 0.565165 0.799791
vt 0.325310 0.750000
vt 0.604031 0.069198
vt 0.375000 1.000000
vt 0.375000 0.799690
vt 0.578028 1.000000
vt 0.615335 0.592735
vt 0.589707 0.775249
vt 0.581909 0.353207
s 0
g Cube_Material
usemtl Material
f 380/631/390 382/632/390 381/633/390
f 382/634/391 385/635/391 381/636/391
f 386/637/392 383/638/392 387/639/392
f 383/638/393 386/637/393 380/640/393
f 388/641/394 379/642/394 384/643/394 385/635/394
f 381/633/395 383/644/395 380/631/395
f 381/645/396 384/646/396 379/642/396 383/647/396
f 385/635/397 384/643/397 381/636/397
f 387/648/398 383/638/398 379/649/398
f 379/642/399 388/641/399 387/648/399
f 388/641/400 385/635/400 382/632/400 386/650/400
f 388/641/401 386/650/401 387/648/401
f 382/632/402 380/631/402 386/650/402
o Cube
v 3.177813 -0.616336 -3.144557
v 3.527875 0.073667 -3.773944
v 3.581694 0.103804 -3.152021
v 3.223369 0.405803 -3.440198
v 3.548091 -0.498813 -3.604395
v 3.170038 -0.127221 -2.883877
v 2.945127 0.250084 -3.084698
v 2.977650 -0.031087 -3.902267
v 2.798495 -0.447621 -3.620752
v 2.637760 -0.069179 -3.444736
vn 0.6848 0.7226 -0.0943
vn 0.2422 0.8047 0.5421
vn -0.0197 -0.5540 -0.8323
vn 0.2666 -0.2650 -0.9267
vn -0.7167 -0.2378 0.6556
vn 0.9962 0.0095 -0.0867
vn 0.7142 -0.3945 0.5782
vn 0.2126 0.5548 0.8044
vn -0.0588 -0.9548 -0.2914
vn -0.7508 -0.5126 0.4165
vn -0.6033 0.7465 -0.2807
vn -0.7988 -0.0609 -0.5985
vn 0.0248 0.7198 -0.6937
vt 0.550384 0.206938
vt 0.375000 0.305791
vt 0.375000 0.049496
vt 0.180791 0.500000
vt 0.330928 0.574320
vt 0.125000 0.700504
vt 0.804283 0.500000
vt 0.842867 0.681766
vt 0.658516 0.626313
vt 0.875000 0.500000
vt 0.501754 0.540833
vt 0.565165 0.799791
vt 0.325310 0.750000
vt 0.604031 0.069198
vt 0.375000 1.000000
vt 0.375000 0.799690
vt 0.578028 1.000000
vt 0.615335 0.592735
vt 0.589707 0.775249
vt 0.581909 0.353207
s 0
g Cube_Material
usemtl Material
f 390/651/403 392/652/403 391/653/403
f 392/654/404 395/655/404 391/656/404
f 396/657/405 393/658/405 397/659/405
f 393/658/406 396/657/406 390/660/406
f 398/661/407 389/662/407 394/663/407 395/655/407
f 391/653/408 393/664/408 390/651/408
f 391/665/409 394/666/409 389/662/409 393/667/409
f 395/655/410 394/663/410 391/656/410
f 397/668/411 393/658/411 389/669/411
f 389/662/412 398/661/412 397/668/412
f 398/661/413 395/655/413 392/652/413 396/670/413
f 398/661/414 396/670/414 397/668/414
f 392/652/415 390/651/415 396/670/415
o Cube
v -4.397913 -0.189691 -1.839935
v -3.923545 0.427295 -1.646491
v -3.760501 -0.004123 -1.846020
v -3.711053 0.101003 -1.419215
v -4.293532 0.277172 -1.913510
v -3.997356 -0.352622 -1.732037
v -3.835790 -0.261040 -1.390981
v -4.191803 0.326943 -1.283956
v -4.488173 0.036896 -1.394365
v -4.230483 -0.123195 -1.201263
vn 0.8795 0.4283 -0.2074
vn 0.9444 -0.3276 -0.0287
vn -0.7094 0.7023 0.0591
vn -0.3671 0.9301 -0.0142
vn -0.3191 -0.9129 0.2545
vn 0.3637 0.5007 -0.7855
vn 0.0632 -0.2488 -0.9665
vn 0.7761 -0.5954 -0.2078
vn -0.9461 0.1679 -0.2770
vn -0.6368 -0.7317 0.2431
vn 0.3668 0.0530 0.9288
vn -0.5062 0.1977 0.8394
vn 0.4774 0.6899 0.5442
vt 0.550384 0.206938
vt 0.375000 0.305791
vt 0.375000 0.049496
vt 0.180791 0.500000
vt 0.330928 0.574320
vt 0.125000 0.700504
vt 0.804283 0.500000
vt 0.842867 0.681766
vt 0.658516 0.626313
vt 0.875000 0.500000
vt 0.501754 0.540833
vt 0.565165 0.799791
vt 0.325310 0.750000
vt 0.604031 0.069198
vt 0.375000 1.000000
vt 0.375000 0.799690
vt 0.578028 1.000000
vt 0.615335 0.592735
vt 0.589707 0.775249
vt 0.581909 0.353207
s 0
g Cube_Material
usemtl Material
f 400/671/416 402/672/416 401/673/416
f 402/674/417 405/675/417 401/676/417
f 406/677/418 403/678/418 407/679/418
f 403/678/419 406/677/419 400/680/419
f 408/681/420 399/682/420 404/683/420 405/675/420
f 401/673/421 403/684/421 400/671/421
f 401/685/422 404/686/422 399/682/422 403/687/422
f 405/675/423 404/683/423 401/676/423
f 407/688/424 403/678/424 399/689/424
f 399/682/425 408/681/425 407/688/425
f 408/681/426 405/675/426 402/672/426 406/690/426
f 408/681/427 406/690/427 407/688/427
f 402/672/428 400/671/428 406/690/428
o Cube
v 3.357244 1.012801 1.423071
v 3.555664 0.179585 1.611178
v 3.133842 0.455051 1.830564
v 3.543950 0.361380 2.069301
v 3.420421 0.521654 1.236228
v 3.212942 0.923191 1.879867
v 3.488286 0.766890 2.162862
v 3.972149 0.461043 1.661880
v 3.894188 0.896144 1.504375
v 3.893988 0.897591 1.897610
vn -0.3891 -0.8596 0.3312
vn -0.5294 -0.2591 0.8078
vn 0.5884 -0.1799 -0.7883
vn 0.4645 -0.5644 -0.6824
vn 0.0276 0.9500 0.3109
vn -0.6363 -0.6702 -0.3819
vn -0.9255 0.1049 -0.3638
vn -0.7037 0.0442 0.7091
vn 0.2174 0.3714 -0.9027
vn 0.2128 0.9771 -0.0035
vn 0.6475 -0.1861 0.7390
vn 0.9843 0.1763 -0.0001
vn 0.5006 -0.8002 0.3303
vt 0.550384 0.206938
vt 0.375000 0.305791
vt 0.375000 0.049496
vt 0.180791 0.500000
vt 0.330928 0.574320
vt 0.125000 0.700504
vt 0.804283 0.500000
vt 0.842867 0.681766
vt 0.658516 0.626313
vt 0.875000 0.500000
vt 0.501754 0.540833
vt 0.565165 0.799791
vt 0.325310 0.750000
vt 0.604031 0.069198
vt 0.375000 1.000000
vt 0.375000 0.799690
vt 0.578028 1.000000
vt 0.615335 0.592735
vt 0.589707 0.775249
vt 0.581909 0.353207
s 0
g Cube_Material
usemtl Material
f 410/691/429 412/692/429 411/693/429
f 412/694/430 415/695/430 411/696/430
f 416/697/431 413/698/431 417/699/431
f 413/698/432 416/697/432 410/700/432
f 418/701/433 409/702/433 414/703/433 415/695/433
f 411/693/434 413/704/434 410/691/434
f 411/705/435 414/706/435 409/702/435 413/707/435
f 415/695/436 414/703/436 411/696/436
f 417/708/437 413/698/437 409/709/437
f 409/702/438 418/701/438 417/708/438
f 418/701/439 415/695/439 412/692/439 416/710/439
f 418/701/440 416/710/440 417/708/440
f 412/692/441 410/691/441 416/710/441
o Cube
v 2.909306 -0.647289 3.220647
v 2.587914 -0.913894 2.122259
v 3.222241 -0.585806 2.301597
v 2.719884 -0.272025 2.038395
v 2.729052 -1.160932 2.766031
v 3.183655 -0.211610 2.818900
v 2.860743 0.081155 2.453088
v 2.082632 -0.576516 2.420908
v 2.204347 -0.499590 3.033001
v 2.286306 -0.044825 2.779749
vn 0.3581 -0.1930 -0.9135
vn 0.6230 0.4783 -0.6189
vn -0.7169 -0.6598 0.2255
vn -0.6126 -0.7735 -0.1625
vn 0.1050 0.7246 0.6811
vn 0.5078 -0.7612 -0.4034
vn 0.8637 -0.4284 0.2654
vn 0.8061 0.5064 -0.3062
vn -0.3207 -0.5622 0.7623
vn -0.1235 0.4997 0.8573
vn -0.5393 0.6634 -0.5187
vn -0.9530 0.2591 0.1569
vn -0.5122 -0.0069 -0.8588
vt 0.550384 0.206938
vt 0.375000 0.305791
vt 0.375000 0.049496
vt 0.180791 0.500000
vt 0.330928 0.574320
vt 0.125000 0.700504
vt 0.804283 0.500000
vt 0.842867 0.681766
vt 0.658516 0.626313
vt 0.875000 0.500000
vt 0.501754 0.540833
vt 0.565165 0.799791
vt 0.325310 0.750000
vt 0.604031 0.069198
vt 0.375000 1.000000
vt 0.375000 0.799690
vt 0.578028 1.000000
vt 0.615335 0.592735
vt 0.589707 0.775249
vt 0.581909 0.353207
s 0
g Cube_Material
usemtl Material
f 420/711/442 422/712/442 421/713/442
f 422/714/443 425/715/443 421/716/443
f 426/717/444 423/718/444 427/719/444
f 423/718/445 426/717/445 420/720/445
f 428/721/446 419/722/446 424/723/446 425/715/446
f 421/713/447 423/724/447 420/711/447
f 421/725/448 424/726/448 419/722/448 423/727/448
f 425/715/449 424/723/449 421/716/449
f 427/728/450 423/718/450 419/729/450
f 419/722/451 428/721/451 427/728/451
f 428/721/452 425/715/452 422/712/452 426/730/452
f 428/721/453 426/730/453 427/728/453
f 422/712/454 420/711/454 426/730/454
o Cube
v 3.744584 -0.357098 -0.756053
v 3.763313 0.277525 0.027605
v 3.972506 0.419686 -0.551561
v 4.309111 0.306788 -0.123280
v 3.418791 -0.059007 -0.337073
v 4.178539 -0.009179 -0.825437
v 4.511312 0.040043 -0.471352
v 4.003553 -0.226170 0.189505
v 3.935926 -0.597716 -0.196051
v 4.363170 -0.449543 -0.203499
vn 0.0153 0.9698 0.2436
vn 0.5821 0.7725 -0.2539
vn -0.6587 -0.4808 0.5788
vn -0.6806 -0.0910 0.7270
vn 0.5333 -0.6076 -0.5885
vn -0.6656 0.7440 -0.0578
vn -0.5215 0.3570 -0.7749
vn 0.5251 0.6227 -0.5801
vn -0.7128 -0.6991 -0.0568
vn 0.2840 -0.8419 -0.4588
vn 0.7944 -0.0076 0.6073
vn 0.2602 -0.7177 0.6460
vn 0.2252 0.3939 0.8911
vt 0.550384 0.206938
vt 0.375000 0.305791
vt 0.375000 0.049496
vt 0.180791 0.500000
vt 0.330928 0.574320
vt 0.125000 0.700504
vt 0.804283 0.500000
vt 0.842867 0.681766
vt 0.658516 0.626313
vt 0.875000 0.500000
vt 0.501754 0.540833
vt 0.565165 0.799791
vt 0.325310 0.750000
vt 0.604031 0.069198
vt 0.375000 1.000000
vt 0.375000 0.799690
vt 0.578028 1.000000
vt 0.615335 0.592735
vt 0.589707 0.775249
vt 0.581909 0.353207
s 0
g Cube_Material
usemtl Material
f 430/731/455 432/732/455 431/733/455
f 432/734/456 435/735/456 431/736/456
f 436/737/457 433/738/457 437/739/457
f 433/738/458 436/737/458 430/740/458
f 438/741/459 429/742/459 434/743/459 435/735/459
f 431/733/460 433/744/460 430/731/460
f 431/745/461 434/746/461 429/742/461 433/747/461
f 435/735/462 434/743/462 431/736/462
f 437/748/463 433/738/463 429/749/463
f 429/742/464 438/741/464 437/748/464
f 438/741/465 435/735/465 432/732/465 436/750/465
f 438/741/466 436/750/466 437/748/466
f 432/732/467 430/731/467 436/750/467
o Cube
v -2.413094 0.200036 -1.992709
v -2.272627 0.589909 -2.979067
v -1.828476 0.652235 -2.480790
v -2.175208 1.093093 -2.664257
v -2.367590 0.065854 -2.622696
v -2.069825 0.683794 -1.951745
v -2.228729 1.132468 -2.156332
v -2.823474 0.771884 -2.770787
v -2.944920 0.509493 -2.276662
v -2.816505 0.963309 -2.188742
vn 0.7000 0.2765 -0.6585
vn 0.7788 0.6264 0.0335
vn -0.6977 -0.5474 -0.4622
vn -0.4419 -0.4483 -0.7770
vn -0.2230 0.2111 0.9517
vn 0.6792 -0.4929 -0.5438
vn 0.7198 -0.6396 0.2696
vn 0.8223 0.4500 0.3483
vn -0.5513 -0.8232 0.1355
vn -0.4852 -0.0320 0.8738
vn -0.3403 0.9169 -0.2087
vn -0.9546 0.2861 -0.0827
vn -0.1335 0.5441 -0.8283
vt 0.550384 0.206938
vt 0.375000 0.305791
vt 0.375000 0.049496
vt 0.180791 0.500000
vt 0.330928 0.574320
vt 0.125000 0.700504
vt 0.804283 0.500000
vt 0.842867 0.681766
vt 0.658516 0.626313
vt 0.875000 0.500000
vt 0.501754 0.540833
vt 0.565165 0.799791
vt 0.325310 0.750000
vt 0.604031 0.069198
vt 0.375000 1.000000
vt 0.375000 0.799690
vt 0.578028 1.000000
vt 0.615335 0.592735
vt 0.589707 0.775249
vt 0.581909 0.353207
s 0
g Cube_Material
usemtl Material
f 440/751/468 442/752/468 441/753/468
f 442/754/469 445/755/469 441/756/469
f 446/757/470 443/758/470 447/759/470
f 443/758/471 446/757/471 440/760/471
f 448/761/472 439/762/472 444/763/472 445/755/472
f 441/753/473 443/764/473 440/751/473
f 441/765/474 444/766/474 439/762/474 443/767/474
f 445/755/475 444/763/475 441/756/475
f 447/768/476 443/758/476 439/769/476
f 439/762/477 448/761/477 447/768/477
f 448/761/478 445/755/478 442/752/478 446/770/478
f 448/761/479 446/770/479 447/768/479
f 442/752/480 440/751/480 446/770/480
o Cube
v -3.226057 0.144974 1.464218
v -3.342064 -0.642544 1.256876
v -2.896919 -0.389131 1.199386
v -3.175908 -0.485615 0.854840
v -3.347858 -0.310215 1.620571
v -2.946217 0.048004 1.115976
v -3.092767 -0.107983 0.780028
v -3.687467 -0.381787 1.063766
v -3.669347 0.031106 1.215228
v -3.536435 0.020825 0.871295
vn 0.4758 -0.8680 -0.1422
vn 0.7827 -0.2822 -0.5547
vn -0.8340 -0.1574 0.5289
vn -0.6831 -0.5445 0.4867
vn 0.0932 0.9396 -0.3292
vn 0.4512 -0.6552 0.6059
vn 0.7334 0.1202 0.6691
vn 0.9120 0.0247 -0.4093
vn -0.5248 0.3988 0.7520
vn -0.1925 0.9758 -0.1036
vn -0.3396 -0.2120 -0.9164
vn -0.9171 0.1721 -0.3596
vn -0.3541 -0.8123 -0.4634
vt 0.550384 0.206938
vt 0.375000 0.305791
vt 0.375000 0.049496
vt 0.180791 0.500000
vt 0.330928 0.574320
vt 0.125000 0.700504
vt 0.804283 0.500000
vt 0.842867 0.681766
vt 0.658516 0.626313
vt 0.875000 0.500000
vt 0.501754 0.540833
vt 0.565165 0.799791
vt 0.325310 0.750000
vt 0.604031 0.069198
vt 0.375000 1.000000
vt 0.375000 0.799690
vt 0.578028 1.000000
vt 0.615335 0.592735
vt 0.589707 0.775249
vt 0.581909 0.353207
s 0
g Cube_Material
usemtl Material
f 450/771/481 452/772/481 451/773/481
f 452/774/482 455/775/482 451/776/482
f 456/777/483 453/778/483 457/779/483
f 453/778/484 456/777/484 450/780/484
f 458/781/485 449/782/485 454/783/485 455/775/485
f 451/773/486 453/784/486 450/771/486
f 451/785/487 454/786/487 449/782/487 453/787/487
f 455/775/488 454/783/488 451/776/488
f 457/788/489 453/778/489 449/789/489
f 449/782/490 458/781/490 457/788/490
f 458/781/491 455/775/491 452/772/491 456/790/491
f 458/781/492 456/790/492 457/788/492
f 452/772/493 450/771/493 456/790/493
o Cube
v -0.111565 0.518379 3.225139
v -0.433651 0.930747 2.573201
v -0.620528 0.957935 3.061793
v -0.823774 0.717207 2.725128
v -0.029965 0.856946 2.860076
v -0.566252 0.575160 3.301756
v -0.835126 0.452490 3.025118
v -0.387368 0.466192 2.454895
v -0.161858 0.247195 2.773148
v -0.526521 0.164488 2.799624
vn -0.5381 0.8048 -0.2506
vn -0.8903 0.3576 0.2818
vn 0.7855 -0.0825 -0.6133
vn 0.5907 0.2539 -0.7659
vn -0.1023 -0.7740 0.6249
vn 0.1722 0.9850 0.0111
vn 0.2887 0.6088 0.7389
vn -0.7475 0.2735 0.6053
vn 0.9766 -0.2141 0.0198
vn 0.2269 -0.8461 0.4824
vn -0.6970 -0.4501 -0.5582
vn 0.1298 -0.7715 -0.6228
vn -0.4410 0.1800 -0.8793
vt 0.550384 0.206938
vt 0.375000 0.305791
vt 0.375000 0.049496
vt 0.180791 0.500000
vt 0.330928 0.574320
vt 0.125000 0.700504
vt 0.804283 0.500000
vt 0.842867 0.681766
vt 0.658516 0.626313
vt 0.875000 0.500000
vt 0.501754 0.540833
vt 0.565165 0.799791
vt 0.325310 0.750000
vt 0.604031 0.069198
vt 0.375000 1.000000
vt 0.375000 0.799690
vt 0.578028 1.000000
vt 0.615335 0.592735
vt 0.589707 0.775249
vt 0.581909 0.353207
s 0
g Cube_Material
usemtl Material
f 460/791/494 462/792/494 461/793/494
f 462/794/495 465/795/495 461/796/495
f 466/797/496 463/798/496 467/799/496
f 463/798/497 466/797/497 460/800/497
f 468/801/498 459/802/498 464/803/498 465/795/498
f 461/793/499 463/804/499 460/791/499
f 461/805/500 464/806/500 459/802/500 463/807/500
f 465/795/501 464/803/501 461/796/501
f 467/808/502 463/798/502 459/809/502
f 459/802/503 468/801/503 467/808/503
f 468/801/504 465/795/504 462/792/504 466/810/504
f 468/801/505 466/810/505 467/808/505
f 462/792/506 460/791/506 466/810/506
o Cube
v 2.431629 0.232430 0.747556
v 2.847288 0.826684 0.252911
v 2.311431 0.709261 0.212476
v 2.642663 0.556917 -0.106139
v 2.713375 0.681056 0.740062
v 2.204026 0.255478 0.316662
v 2.424200 0.203410 -0.043217
v 3.106320 0.392592 0.237425
v 2.929064 0.086487 0.546506
v 2.816396 -0.014551 0.183118
vn -0.1406 0.8284 -0.5423
vn -0.6116 0.2440 -0.7526
vn 0.8124 0.1082 0.5730
vn 0.8062 0.4682 0.3616
vn -0.3964 -0.9173 0.0374
vn -0.2247 0.9488 0.2219
vn -0.7593 0.3917 0.5197
vn -0.8453 0.0787 -0.5285
vn 0.3208 -0.1860 0.9287
vn -0.1511 -0.9393 0.3080
vn 0.4328 -0.2989 -0.8505
vn 0.8168 -0.5690 -0.0951
vn 0.6329 0.4013 -0.6622
vt 0.550384 0.206938
vt 0.375000 0.305791
vt 0.375000 0.049496
vt 0.180791 0.500000
vt 0.330928 0.574320
vt 0.125000 0.700504
vt 0.804283 0.500000
vt 0.842867 0.681766
vt 0.658516 0.626313
vt 0.875000 0.500000
vt 0.501754 0.540833
vt 0.565165 0.799791
vt 0.325310 0.750000
vt 0.604031 0.069198
vt 0.375000 1.000000
vt 0.375000 0.799690
vt 0.578028 1.000000
vt 0.615335 0.592735
vt 0.589707 0.775249
vt 0.581909 0.353207
s 0
g Cube_Material
usemtl Material
f 470/811/507 472/812/507 471/813/507
f 472/814/508 475/815/508 471/816/508
f 476/817/509 473/818/509 477/819/509
f 473/818/510 476/817/510 470/820/510
f 478/821/511 469/822/511 474/823/511 475/815/511
f 471/813/512 473/824/512 470/811/512
f 471/825/513 474/826/513 469/822/513 473/827/513
f 475/815/514 474/823/514 471/816/514
f 477/828/515 473/818/515 469/829/515
f 469/822/516 478/821/516 477/828/516
f 478/821/517 475/815/517 472/812/517 476/830/517
f 478/821/518 476/830/518 477/828/518
f 472/812/519 470/811/519 476/830/519
o Cube
v -0.159183 0.887156 -2.178399
v -0.048853 0.520241 -2.909892
v -0.509603 0.657561 -2.718607
v -0.359890 0.227502 -2.727997
v 0.052493 0.914371 -2.628780
v -0.533873 0.638582 -2.270188
v -0.499523 0.250164 -2.358799
v 0.182330 0.270694 -2.577309
v 0.179421 0.488774 -2.193012
v -0.064391 0.210463 -2.178342
vn -0.4117 -0.1236 -0.9029
vn -0.8968 -0.3052 -0.3204
vn 0.9769 0.1891 -0.0999
vn 0.8579 0.1334 -0.4963
vn -0.2900 -0.1142 0.9502
vn -0.1480 0.5992 -0.7868
vn -0.4620 0.8836 -0.0759
vn -0.9955 -0.0750 -0.0571
vn 0.7141 0.5933 0.3715
vn 0.0517 0.0073 0.9986
vn 0.0172 -0.9990 -0.0402
vn 0.7137 -0.6068 0.3498
vn 0.2450 -0.6860 -0.6851
vt 0.550384 0.206938
vt 0.375000 0.305791
vt 0.375000 0.049496
vt 0.180791 0.500000
vt 0.330928 0.574320
vt 0.125000 0.700504
vt 0.804283 0.500000
vt 0.842867 0.681766
vt 0.658516 0.626313
vt 0.875000 0.500000
vt 0.501754 0.540833
vt 0.565165 0.799791
vt 0.325310 0.750000
vt 0.604031 0.069198
vt 0.375000 1.000000
vt 0.375000 0.799690
vt 0.578028 1.000000
vt 0.615335 0.592735
vt 0.589707 0.775249
vt 0.581909 0.353207
s 0
g Cube_Material
usemtl Material
f 480/831/520 482/832/520 481/833/520
f 482/834/521 485/835/521 481/836/521
f 486/837/522 483/838/522 487/839/522
f 483/838/523 486/837/523 480/840/523
f 488/841/524 479/842/524 484/843/524 485/835/524
f 481/833/525 483/844/525 480/831/525
f 481/845/526 484/846/526 479/842/526 483/847/526
f 485/835/527 484/843/527 481/836/527
f 487/848/528 483/838/528 479/849/528
f 479/842/529 488/841/529 487/848/529
f 488/841/530 485/835/530 482/832/530 486/850/530
f 488/841/531 486/850/531 487/848/531
f 482/832/532 480/831/532 486/850/532
o Cube
v 1.526106 0.629106 -1.661955
v 2.116276 0.158400 -0.988765
v 2.243038 0.199813 -1.608370
v 2.054118 -0.264606 -1.363682
v 1.860822 0.682237 -1.154205
v 1.794729 0.212918 -1.927679
v 1.769407 -0.244705 -1.754926
v 1.570143 -0.035102 -0.926574
v 1.231700 0.258793 -1.229930
v 1.302008 -0.142811 -1.428656
vn 0.9408 -0.2916 0.1730
vn 0.6666 -0.5412 -0.5126
vn -0.3795 0.4160 0.8264
vn 0.0016 0.3019 0.9533
vn -0.6680 -0.1077 -0.7363
vn 0.8522 0.4808 0.2065
vn 0.4755 0.7335 -0.4857
vn 0.5428 -0.3227 -0.7754
vn -0.5584 0.7784 0.2867
vn -0.8594 0.0978 -0.5018
vn -0.1735 -0.9639 0.2021
vn -0.7784 -0.3826 0.4978
vn 0.3107 -0.6556 0.6882
vt 0.550384 0.206938
vt 0.375000 0.305791
vt 0.375000 0.049496
vt 0.180791 0.500000
vt 0.330928 0.574320
vt 0.125000 0.700504
vt 0.804283 0.500000
vt 0.842867 0.681766
vt 0.658516 0.626313
vt 0.875000 0.500000
vt 0.501754 0.540833
vt 0.565165 0.799791
vt 0.325310 0.750000
vt 0.604031 0.069198
vt 0.375000 1.000000
vt 0.375000 0.799690
vt 0.578028 1.000000
vt 0.615335 0.592735
vt 0.589707 0.775249
vt 0.581909 0.353207
s 0
g Cube_Material
usemtl Material
f 490/851/533 492/852/533 491/853/533
f 492/854/534 495/855/534 491/856/534
f 496/857/535 493/858/535 497/859/535
f 493/858/536 496/857/536 490/860/536
f 498/861/537 489/862/537 494/863/537 495/855/537
f 491/853/538 493/864/538 490/851/538
f 491/865/539 494/866/539 489/862/539 493/867/539
f 495/855/540 494/863/540 491/856/540
f 497/868/541 493/858/541 489/869/541
f 489/862/542 498/861/542 497/868/542
f 498/861/543 495/855/543 492/852/543 496/870/543
f 498/861/544 496/870/544 497/868/544
f 492/852/545 490/851/545 496/870/545
o Cube
v -1.917951 0.455220 -1.035188
v -2.156525 0.524295 -0.153283
v -1.683270 0.259043 -0.341099
v -2.094723 0.013628 -0.180269
v -2.028059 0.795003 -0.613039
v -1.734153 0.048398 -0.790267
v -2.005351 -0.206674 -0.548940
v -2.568892 0.340234 -0.426605
v -2.476038 0.360096 -0.907596
v -2.442202 -0.028313 -0.778004
vn 0.3665 -0.0048 0.9304
vn 0.5784 -0.6308 0.5172
vn -0.6599 0.7451 -0.0966
vn -0.5493 0.7781 0.3047
vn 0.0506 -0.5956 -0.8017
vn 0.5648 0.6324 0.5302
vn 0.8971 0.3984 -0.1907
vn 0.7606 -0.6166 0.2030
vn -0.2694 0.7147 -0.6455
vn -0.1578 -0.3249 -0.9325
vn -0.5943 -0.7007 0.3947
vn -0.9697 -0.1490 -0.1934
vn -0.5156 -0.1073 0.8501
vt 0.550384 0.206938
vt 0.375000 0.305791
vt 0.375000 0.049496
vt 0.180791 0.500000
vt 0.330928 0.574320
vt 0.125000 0.700504
vt 0.804283 0.500000
vt 0.842867 0.681766
vt 0.658516 0.626313
vt 0.875000 0.500000
vt 0.501754 0.540833
vt 0.565165 0.799791
vt 0.325310 0.750000
vt 0.604031 0.069198
vt 0.375000 1.000000
vt 0.375000 0.799690
vt 0.578028 1.000000
vt 0.615335 0.592735
vt 0.589707 0.775249
vt 0.581909 0.353207
s 0
g Cube_Material
usemtl Material
f 500/871/546 502/872/546 501/873/546
f 502/874/547 505/875/547 501/876/547
f 506/877/548 503/878/548 507/879/548
f 503/878/549 506/877/549 500/880/549
f 508/881/550 499/882/550 504/883/550 505/875/550
f 501/873/551 503/884/551 500/871/551
f 501/885/552 504/886/552 499/882/552 503/887/552
f 505/875/553 504/883/553 501/876/553
f 507/888/554 503/878/554 499/889/554
f 499/882/555 508/881/555 507/888/555
f 508/881/556 505/875/556 502/872/556 506/890/556
f 508/881/557 506/890/557 507/888/557
f 502/872/558 500/871/558 506/890/558
o Cube
v 0.963712 -0.119236 -0.772838
v 0.507140 -0.188704 -1.788952
v 0.979903 -0.638364 -1.537066
v 1.112829 -0.203689 -1.952273
v 0.396133 -0.184779 -1.129711
v 1.375995 -0.388484 -1.150064
v 1.519867 -0.145497 -1.610922
v 0.730910 0.408036 -1.703366
v 0.906377 0.483709 -1.137501
v 1.308582 0.429912 -1.430492
vn -0.2149 -0.6394 -0.7382
vn 0.5341 -0.6636 -0.5238
vn -0.7834 0.5998 0.1627
vn -0.9172 0.3664 -0.1566
vn 0.8107 0.2484 0.5302
vn -0.6551 -0.7481 -0.1059
vn -0.1586 -0.8183 0.5525
vn 0.6482 -0.7382 -0.1868
vn -0.5197 0.4054 0.7520
vn 0.5606 0.4669 0.6839
vn 0.4324 0.4898 -0.7570
vn 0.0293 0.9895 -0.1414
vn -0.2482 0.2281 -0.9415
vt 0.550384 0.206938
vt 0.375000 0.305791
vt 0.375000 0.049496
vt 0.180791 0.500000
vt 0.330928 0.574320
vt 0.125000 0.700504
vt 0.804283 0.500000
vt 0.842867 0.681766
vt 0.658516 0.626313
vt 0.875000 0.500000
vt 0.501754 0.540833
vt 0.565165 0.799791
vt 0.325310 0.750000
vt 0.604031 0.069198
vt 0.375000 1.000000
vt 0.375000 0.799690
vt 0.578028 1.000000
vt 0.615335 0.592735
vt 0.589707 0.775249
vt 0.581909 0.353207
s 0
g Cube_Material
usemtl Material
f 510/891/559 512/892/559 511/893/559
f 512/894/560 515/895/560 511/896/560
f 516/897/561 513/898/561 517/899/561
f 513/898/562 516/897/562 510/900/562
f 518/901/563 509/902/563 514/903/563 515/895/563
f 511/893/564 513/904/564 510/891/564
f 511/905/565 514/906/565 509/902/565 513/907/565
f 515/895/566 514/903/566 511/896/566
f 517/908/567 513/898/567 509/909/567
f 509/902/568 518/901/568 517/908/568
f 518/901/569 515/895/569 512/892/569 516/910/569
f 518/901/570 516/910/570 517/908/570
f 512/892/571 510/891/571 516/910/571
o Cube
v -1.363550 0.506958 -0.346751
v -1.648987 -0.005373 -0.702752
v -1.862134 0.340337 -0.561798
v -1.888687 -0.000999 -0.400594
v -1.364507 0.291160 -0.700151
v -1.729230 0.480332 -0.242117
v -1.851049 0.190021 -0.136020
v -1.447012 -0.158575 -0.399489
v -1.251314 0.103092 -0.232119
v -1.497988 0.034976 -0.061349
vn -0.7648 -0.2255 -0.6035
vn -0.9922 0.1073 0.0637
vn 0.8425 -0.3976 -0.3635
vn 0.5578 -0.5296 -0.6390
vn 0.1131 0.4236 0.8988
vn -0.2384 0.2370 -0.9418
vn -0.1031 0.8877 -0.4487
vn -0.8829 0.4350 0.1766
vn 0.9634 0.2276 -0.1416
vn 0.4624 0.3587 0.8109
vn -0.3583 -0.7906 0.4965
vn 0.5265 -0.7012 0.4807
vn -0.3253 -0.9134 -0.2448
vt 0.550384 0.206938
vt 0.375000 0.305791
vt 0.375000 0.049496
vt 0.180791 0.500000
vt 0.330928 0.574320
vt 0.125000 0.700504
vt 0.804283 0.500000
vt 0.842867 0.681766
vt 0.658516 0.626313
vt 0.875000 0.500000
vt 0.501754 0.540833
vt 0.565165 0.799791
vt 0.325310 0.750000
vt 0.604031 0.069198
vt 0.375000 1.000000
vt 0.375000 0.799690
vt 0.578028 1.000000
vt 0.615335 0.592735
vt 0.589707 0.775249
vt 0.581909 0.353207
s 0
g Cube_Material
usemtl Material
f 520/911/572 522/912/572 521/913/572
f 522/914/573 525/915/573 521/916/573
f 526/917/574 523/918/574 527/919/574
f 523/918/575 526/917/575 520/920/575
f 528/921/576 519/922/576 524/923/576 525/915/576
f 521/913/577 523/924/577 520/911/577
f 521/925/578 524/926/578 519/922/578 523/927/578
f 525/915/579 524/923/579 521/916/579
f 527/928/580 523/918/580 519/929/580
f 519/922/581 528/921/581 527/928/581
f 528/921/582 525/915/582 522/912/582 526/930/582
f 528/921/583 526/930/583 527/928/583
f 522/912/584 520/911/584 526/930/584
