# Blender 4.1.0
# www.blender.org
mtllib Explosion20033.mtl
o Circle
v -0.024615 0.096888 -1.522372
v -0.024615 0.242742 -1.522372
v 0.122545 0.096888 -1.515142
v 0.122545 0.242742 -1.515142
v 0.268288 0.096888 -1.493523
v 0.268288 0.242742 -1.493523
v 0.411211 0.096888 -1.457723
v 0.411211 0.242742 -1.457723
v 0.549936 0.096888 -1.408086
v 0.549936 0.242742 -1.408086
v 0.683127 0.096888 -1.345092
v 0.683127 0.242742 -1.345092
v 0.809503 0.096888 -1.269345
v 0.809503 0.242742 -1.269345
v 0.927846 0.096888 -1.181576
v 0.927846 0.242742 -1.181576
v 1.037016 0.096888 -1.082630
v 1.037016 0.242742 -1.082630
v 1.135962 0.096888 -0.973460
v 1.135962 0.242742 -0.973460
v 1.223731 0.096888 -0.855117
v 1.223731 0.242742 -0.855117
v 1.299478 0.096888 -0.728741
v 1.299478 0.242742 -0.728741
v 1.362473 0.096888 -0.595549
v 1.362473 0.242742 -0.595549
v 1.412110 0.096888 -0.456824
v 1.412110 0.242742 -0.456824
v 1.447910 0.096888 -0.313902
v 1.447910 0.242742 -0.313902
v 1.469529 0.096888 -0.168159
v 1.469529 0.242742 -0.168159
v 1.476758 0.096888 -0.020998
v 1.476758 0.242742 -0.020998
v 1.469529 0.096888 0.126162
v 1.469529 0.242742 0.126162
v 1.447910 0.096888 0.271905
v 1.447910 0.242742 0.271905
v 1.412110 0.096888 0.414827
v 1.412110 0.242742 0.414827
v 1.362473 0.096888 0.553553
v 1.362473 0.242742 0.553553
v 1.299478 0.096888 0.686744
v 1.299478 0.242742 0.686744
v 1.223731 0.096888 0.813120
v 1.223731 0.242742 0.813120
v 1.135962 0.096888 0.931463
v 1.135962 0.242742 0.931463
v 1.037016 0.096888 1.040633
v 1.037016 0.242742 1.040633
v 0.927846 0.096888 1.139579
v 0.927846 0.242742 1.139579
v 0.809503 0.096888 1.227348
v 0.809503 0.242742 1.227348
v 0.683127 0.096888 1.303095
v 0.683127 0.242742 1.303095
v 0.549936 0.096888 1.366090
v 0.549936 0.242742 1.366090
v 0.411211 0.096888 1.415727
v 0.411211 0.242742 1.415727
v 0.268288 0.096888 1.451527
v 0.268288 0.242742 1.451527
v 0.122545 0.096888 1.473146
v 0.122545 0.242742 1.473146
v -0.024615 0.096888 1.480376
v -0.024615 0.242742 1.480376
v -0.171775 0.096888 1.473146
v -0.171775 0.242742 1.473146
v -0.317519 0.096888 1.451527
v -0.317519 0.242742 1.451527
v -0.460441 0.096888 1.415727
v -0.460441 0.242742 1.415727
v -0.599166 0.096888 1.366090
v -0.599166 0.242742 1.366090
v -0.732358 0.096888 1.303095
v -0.732358 0.242742 1.303095
v -0.858734 0.096888 1.227348
v -0.858734 0.242742 1.227348
v -0.977076 0.096888 1.139579
v -0.977076 0.242742 1.139579
v -1.086246 0.096888 1.040633
v -1.086246 0.242742 1.040633
v -1.185192 0.096888 0.931463
v -1.185192 0.242742 0.931463
v -1.272961 0.096888 0.813120
v -1.272961 0.242742 0.813120
v -1.348708 0.096888 0.686744
v -1.348708 0.242742 0.686744
v -1.411703 0.096888 0.553553
v -1.411703 0.242742 0.553553
v -1.461340 0.096888 0.414827
v -1.461340 0.242742 0.414827
v -1.497140 0.096888 0.271905
v -1.497140 0.242742 0.271905
v -1.518759 0.096888 0.126162
v -1.518759 0.242742 0.126162
v -1.525989 0.096888 -0.020998
v -1.525989 0.242742 -0.020998
v -1.518759 0.096888 -0.168159
v -1.518759 0.242742 -0.168159
v -1.497140 0.096888 -0.313902
v -1.497140 0.242742 -0.313902
v -1.461340 0.096888 -0.456824
v -1.461340 0.242742 -0.456824
v -1.411703 0.096888 -0.595549
v -1.411703 0.242742 -0.595549
v -1.348708 0.096888 -0.728741
v -1.348708 0.242742 -0.728741
v -1.272961 0.096888 -0.855117
v -1.272961 0.242742 -0.855117
v -1.185192 0.096888 -0.973460
v -1.185192 0.242742 -0.973460
v -1.086246 0.096888 -1.082630
v -1.086246 0.242742 -1.082630
v -0.977076 0.096888 -1.181576
v -0.977076 0.242742 -1.181576
v -0.858734 0.096888 -1.269345
v -0.858734 0.242742 -1.269345
v -0.732358 0.096888 -1.345092
v -0.732358 0.242742 -1.345092
v -0.599166 0.096888 -1.408086
v -0.599166 0.242742 -1.408086
v -0.460441 0.096888 -1.457723
v -0.460441 0.242742 -1.457723
v -0.317519 0.096888 -1.493523
v -0.317519 0.242742 -1.493523
v -0.171775 0.096888 -1.515142
v -0.171775 0.242742 -1.515142
vn 0.0491 -0.0000 -0.9988
vn 0.1467 -0.0000 -0.9892
vn 0.2430 -0.0000 -0.9700
vn 0.3369 -0.0000 -0.9415
vn 0.4276 -0.0000 -0.9040
vn 0.5141 -0.0000 -0.8577
vn 0.5957 -0.0000 -0.8032
vn 0.6716 -0.0000 -0.7410
vn 0.7410 -0.0000 -0.6716
vn 0.8032 -0.0000 -0.5957
vn 0.8577 -0.0000 -0.5141
vn 0.9040 -0.0000 -0.4276
vn 0.9415 -0.0000 -0.3369
vn 0.9700 -0.0000 -0.2430
vn 0.9892 -0.0000 -0.1467
vn 0.9988 -0.0000 -0.0491
vn 0.9988 -0.0000 0.0491
vn 0.9892 -0.0000 0.1467
vn 0.9700 -0.0000 0.2430
vn 0.9415 -0.0000 0.3369
vn 0.9040 -0.0000 0.4276
vn 0.8577 -0.0000 0.5141
vn 0.8032 -0.0000 0.5957
vn 0.7410 -0.0000 0.6716
vn 0.6716 -0.0000 0.7410
vn 0.5957 -0.0000 0.8032
vn 0.5141 -0.0000 0.8577
vn 0.4276 -0.0000 0.9040
vn 0.3369 -0.0000 0.9415
vn 0.2430 -0.0000 0.9700
vn 0.1467 -0.0000 0.9892
vn 0.0491 -0.0000 0.9988
vn -0.0491 -0.0000 0.9988
vn -0.1467 -0.0000 0.9892
vn -0.2430 -0.0000 0.9700
vn -0.3369 -0.0000 0.9415
vn -0.4276 -0.0000 0.9040
vn -0.5141 -0.0000 0.8577
vn -0.5957 -0.0000 0.8032
vn -0.6716 -0.0000 0.7410
vn -0.7410 -0.0000 0.6716
vn -0.8032 -0.0000 0.5957
vn -0.8577 -0.0000 0.5141
vn -0.9040 -0.0000 0.4276
vn -0.9415 -0.0000 0.3369
vn -0.9700 -0.0000 0.2430
vn -0.9892 -0.0000 0.1467
vn -0.9988 -0.0000 0.0491
vn -0.9988 -0.0000 -0.0491
vn -0.9892 -0.0000 -0.1467
vn -0.9700 -0.0000 -0.2430
vn -0.9415 -0.0000 -0.3369
vn -0.9040 -0.0000 -0.4276
vn -0.8577 -0.0000 -0.5141
vn -0.8032 -0.0000 -0.5957
vn -0.7410 -0.0000 -0.6716
vn -0.6716 -0.0000 -0.7410
vn -0.5957 -0.0000 -0.8032
vn -0.5141 -0.0000 -0.8577
vn -0.4276 -0.0000 -0.9040
vn -0.3369 -0.0000 -0.9415
vn -0.2430 -0.0000 -0.9700
vn -0.1467 -0.0000 -0.9892
vn -0.0491 -0.0000 -0.9988
vt 1.000000 0.500000
vt 1.000000 1.000000
vt 0.984375 1.000000
vt 0.984375 0.500000
vt 0.968750 1.000000
vt 0.968750 0.500000
vt 0.953125 1.000000
vt 0.953125 0.500000
vt 0.937500 1.000000
vt 0.937500 0.500000
vt 0.921875 1.000000
vt 0.921875 0.500000
vt 0.906250 1.000000
vt 0.906250 0.500000
vt 0.890625 1.000000
vt 0.890625 0.500000
vt 0.875000 1.000000
vt 0.875000 0.500000
vt 0.859375 1.000000
vt 0.859375 0.500000
vt 0.843750 1.000000
vt 0.843750 0.500000
vt 0.828125 1.000000
vt 0.828125 0.500000
vt 0.812500 1.000000
vt 0.812500 0.500000
vt 0.796875 1.000000
vt 0.796875 0.500000
vt 0.781250 1.000000
vt 0.781250 0.500000
vt 0.765625 1.000000
vt 0.765625 0.500000
vt 0.750000 1.000000
vt 0.750000 0.500000
vt 0.734375 1.000000
vt 0.734375 0.500000
vt 0.718750 1.000000
vt 0.718750 0.500000
vt 0.703125 1.000000
vt 0.703125 0.500000
vt 0.687500 1.000000
vt 0.687500 0.500000
vt 0.671875 1.000000
vt 0.671875 0.500000
vt 0.656250 1.000000
vt 0.656250 0.500000
vt 0.640625 1.000000
vt 0.640625 0.500000
vt 0.625000 1.000000
vt 0.625000 0.500000
vt 0.609375 1.000000
vt 0.609375 0.500000
vt 0.593750 1.000000
vt 0.593750 0.500000
vt 0.578125 1.000000
vt 0.578125 0.500000
vt 0.562500 1.000000
vt 0.562500 0.500000
vt 0.546875 1.000000
vt 0.546875 0.500000
vt 0.531250 1.000000
vt 0.531250 0.500000
vt 0.515625 1.000000
vt 0.515625 0.500000
vt 0.500000 1.000000
vt 0.500000 0.500000
vt 0.484375 1.000000
vt 0.484375 0.500000
vt 0.468750 1.000000
vt 0.468750 0.500000
vt 0.453125 1.000000
vt 0.453125 0.500000
vt 0.437500 1.000000
vt 0.437500 0.500000
vt 0.421875 1.000000
vt 0.421875 0.500000
vt 0.406250 1.000000
vt 0.406250 0.500000
vt 0.390625 1.000000
vt 0.390625 0.500000
vt 0.375000 1.000000
vt 0.375000 0.500000
vt 0.359375 1.000000
vt 0.359375 0.500000
vt 0.343750 1.000000
vt 0.343750 0.500000
vt 0.328125 1.000000
vt 0.328125 0.500000
vt 0.312500 1.000000
vt 0.312500 0.500000
vt 0.296875 1.000000
vt 0.296875 0.500000
vt 0.281250 1.000000
vt 0.281250 0.500000
vt 0.265625 1.000000
vt 0.265625 0.500000
vt 0.250000 1.000000
vt 0.250000 0.500000
vt 0.234375 1.000000
vt 0.234375 0.500000
vt 0.218750 1.000000
vt 0.218750 0.500000
vt 0.203125 1.000000
vt 0.203125 0.500000
vt 0.187500 1.000000
vt 0.187500 0.500000
vt 0.171875 1.000000
vt 0.171875 0.500000
vt 0.156250 1.000000
vt 0.156250 0.500000
vt 0.140625 1.000000
vt 0.140625 0.500000
vt 0.125000 1.000000
vt 0.125000 0.500000
vt 0.109375 1.000000
vt 0.109375 0.500000
vt 0.093750 1.000000
vt 0.093750 0.500000
vt 0.078125 1.000000
vt 0.078125 0.500000
vt 0.062500 1.000000
vt 0.062500 0.500000
vt 0.046875 1.000000
vt 0.046875 0.500000
vt 0.031250 1.000000
vt 0.031250 0.500000
vt 0.015625 1.000000
vt 0.015625 0.500000
vt 0.000000 1.000000
vt 0.000000 0.500000
s 0
g Circle_Material.001
usemtl Material.001
f 1/1/1 2/2/1 4/3/1 3/4/1
f 3/4/2 4/3/2 6/5/2 5/6/2
f 5/6/3 6/5/3 8/7/3 7/8/3
f 7/8/4 8/7/4 10/9/4 9/10/4
f 9/10/5 10/9/5 12/11/5 11/12/5
f 11/12/6 12/11/6 14/13/6 13/14/6
f 13/14/7 14/13/7 16/15/7 15/16/7
f 15/16/8 16/15/8 18/17/8 17/18/8
f 17/18/9 18/17/9 20/19/9 19/20/9
f 19/20/10 20/19/10 22/21/10 21/22/10
f 21/22/11 22/21/11 24/23/11 23/24/11
f 23/24/12 24/23/12 26/25/12 25/26/12
f 25/26/13 26/25/13 28/27/13 27/28/13
f 27/28/14 28/27/14 30/29/14 29/30/14
f 29/30/15 30/29/15 32/31/15 31/32/15
f 31/32/16 32/31/16 34/33/16 33/34/16
f 33/34/17 34/33/17 36/35/17 35/36/17
f 35/36/18 36/35/18 38/37/18 37/38/18
f 37/38/19 38/37/19 40/39/19 39/40/19
f 39/40/20 40/39/20 42/41/20 41/42/20
f 41/42/21 42/41/21 44/43/21 43/44/21
f 43/44/22 44/43/22 46/45/22 45/46/22
f 45/46/23 46/45/23 48/47/23 47/48/23
f 47/48/24 48/47/24 50/49/24 49/50/24
f 49/50/25 50/49/25 52/51/25 51/52/25
f 51/52/26 52/51/26 54/53/26 53/54/26
f 53/54/27 54/53/27 56/55/27 55/56/27
f 55/56/28 56/55/28 58/57/28 57/58/28
f 57/58/29 58/57/29 60/59/29 59/60/29
f 59/60/30 60/59/30 62/61/30 61/62/30
f 61/62/31 62/61/31 64/63/31 63/64/31
f 63/64/32 64/63/32 66/65/32 65/66/32
f 65/66/33 66/65/33 68/67/33 67/68/33
f 67/68/34 68/67/34 70/69/34 69/70/34
f 69/70/35 70/69/35 72/71/35 71/72/35
f 71/72/36 72/71/36 74/73/36 73/74/36
f 73/74/37 74/73/37 76/75/37 75/76/37
f 75/76/38 76/75/38 78/77/38 77/78/38
f 77/78/39 78/77/39 80/79/39 79/80/39
f 79/80/40 80/79/40 82/81/40 81/82/40
f 81/82/41 82/81/41 84/83/41 83/84/41
f 83/84/42 84/83/42 86/85/42 85/86/42
f 85/86/43 86/85/43 88/87/43 87/88/43
f 87/88/44 88/87/44 90/89/44 89/90/44
f 89/90/45 90/89/45 92/91/45 91/92/45
f 91/92/46 92/91/46 94/93/46 93/94/46
f 93/94/47 94/93/47 96/95/47 95/96/47
f 95/96/48 96/95/48 98/97/48 97/98/48
f 97/98/49 98/97/49 100/99/49 99/100/49
f 99/100/50 100/99/50 102/101/50 101/102/50
f 101/102/51 102/101/51 104/103/51 103/104/51
f 103/104/52 104/103/52 106/105/52 105/106/52
f 105/106/53 106/105/53 108/107/53 107/108/53
f 107/108/54 108/107/54 110/109/54 109/110/54
f 109/110/55 110/109/55 112/111/55 111/112/55
f 111/112/56 112/111/56 114/113/56 113/114/56
f 113/114/57 114/113/57 116/115/57 115/116/57
f 115/116/58 116/115/58 118/117/58 117/118/58
f 117/118/59 118/117/59 120/119/59 119/120/59
f 119/120/60 120/119/60 122/121/60 121/122/60
f 121/122/61 122/121/61 124/123/61 123/124/61
f 123/124/62 124/123/62 126/125/62 125/126/62
f 125/126/63 126/125/63 128/127/63 127/128/63
f 127/128/64 128/127/64 2/129/64 1/130/64
o Cube
v -4.324103 0.359064 -4.646450
v -4.795687 0.691621 -4.576050
v -4.516032 0.679472 -4.342948
v -4.798249 0.537607 -4.287799
v -4.522063 0.617107 -4.778087
v -4.372376 0.397861 -4.329367
v -4.622147 0.334333 -4.216114
v -4.893845 0.377603 -4.638721
v -4.649467 0.202316 -4.718229
v -4.719667 0.147029 -4.473340
vn -0.3324 0.8331 0.4422
vn 0.0119 0.3417 0.9397
vn -0.3314 -0.0343 -0.9429
vn -0.5056 0.3181 -0.8020
vn 0.4807 -0.8292 0.2852
vn 0.1610 0.9767 -0.1422
vn 0.8476 0.5302 -0.0237
vn 0.3545 0.2246 0.9077
vn 0.3138 -0.2293 -0.9214
vn 0.4460 -0.8920 -0.0735
vn -0.7942 -0.3837 0.4713
vn -0.6187 -0.7094 -0.3375
vn -0.9530 0.2707 0.1362
vt 0.550384 0.206938
vt 0.375000 0.305791
vt 0.375000 0.049496
vt 0.180791 0.500000
vt 0.330928 0.574320
vt 0.125000 0.700504
vt 0.804283 0.500000
vt 0.842867 0.681766
vt 0.658516 0.626313
vt 0.875000 0.500000
vt 0.501754 0.540833
vt 0.565165 0.799791
vt 0.325310 0.750000
vt 0.604031 0.069198
vt 0.375000 1.000000
vt 0.375000 0.799690
vt 0.578028 1.000000
vt 0.615335 0.592735
vt 0.589707 0.775249
vt 0.581909 0.353207
s 0
g Cube_Material
usemtl Material
f 130/131/65 132/132/65 131/133/65
f 132/134/66 135/135/66 131/136/66
f 136/137/67 133/138/67 137/139/67
f 133/138/68 136/137/68 130/140/68
f 138/141/69 129/142/69 134/143/69 135/135/69
f 131/133/70 133/144/70 130/131/70
f 131/145/71 134/146/71 129/142/71 133/147/71
f 135/135/72 134/143/72 131/136/72
f 137/148/73 133/138/73 129/149/73
f 129/142/74 138/141/74 137/148/74
f 138/141/75 135/135/75 132/132/75 136/150/75
f 138/141/76 136/150/76 137/148/76
f 132/132/77 130/131/77 136/150/77
o Cube
v -5.427267 -0.104504 2.549098
v -5.852025 0.231018 2.101313
v -5.413033 0.224151 2.069503
v -5.613100 0.530834 2.196238
v -5.744685 -0.139152 2.270144
v -5.233401 0.202867 2.406396
v -5.369007 0.514173 2.427052
v -5.950201 0.338487 2.478960
v -5.762747 0.127343 2.727136
v -5.632401 0.413826 2.713927
vn -0.0624 0.3461 -0.9361
vn 0.5696 0.6026 -0.5589
vn -0.8489 -0.4705 0.2408
vn -0.9303 -0.3364 -0.1461
vn 0.6376 0.0909 0.7650
vn -0.0719 -0.4311 -0.8994
vn 0.5762 -0.6820 -0.4503
vn 0.8238 0.3864 -0.4148
vn -0.3210 -0.8236 0.4676
vn 0.3898 -0.1354 0.9109
vn -0.2667 0.9422 0.2030
vn -0.6116 0.3118 0.7272
vn -0.6712 0.6485 -0.3590
vt 0.550384 0.206938
vt 0.375000 0.305791
vt 0.375000 0.049496
vt 0.180791 0.500000
vt 0.330928 0.574320
vt 0.125000 0.700504
vt 0.804283 0.500000
vt 0.842867 0.681766
vt 0.658516 0.626313
vt 0.875000 0.500000
vt 0.501754 0.540833
vt 0.565165 0.799791
vt 0.325310 0.750000
vt 0.604031 0.069198
vt 0.375000 1.000000
vt 0.375000 0.799690
vt 0.578028 1.000000
vt 0.615335 0.592735
vt 0.589707 0.775249
vt 0.581909 0.353207
s 0
g Cube_Material
usemtl Material
f 140/151/78 142/152/78 141/153/78
f 142/154/79 145/155/79 141/156/79
f 146/157/80 143/158/80 147/159/80
f 143/158/81 146/157/81 140/160/81
f 148/161/82 139/162/82 144/163/82 145/155/82
f 141/153/83 143/164/83 140/151/83
f 141/165/84 144/166/84 139/162/84 143/167/84
f 145/155/85 144/163/85 141/156/85
f 147/168/86 143/158/86 139/169/86
f 139/162/87 148/161/87 147/168/87
f 148/161/88 145/155/88 142/152/88 146/170/88
f 148/161/89 146/170/89 147/168/89
f 142/152/90 140/151/90 146/170/90
o Cube
v -1.084135 0.097185 6.474938
v -0.683559 0.223038 6.076690
v -0.674426 0.339364 6.420029
v -0.755723 0.525146 6.173524
v -0.844676 -0.027813 6.253511
v -0.959024 0.384505 6.547276
v -0.955403 0.588296 6.354948
v -0.984707 0.291572 5.951095
v -1.206148 0.188915 6.141677
v -1.186030 0.446689 6.163846
vn 0.9571 0.2656 -0.1155
vn 0.5674 0.7366 0.3681
vn -0.2294 -0.7204 -0.6546
vn 0.1683 -0.6378 -0.7516
vn -0.7867 0.3332 0.5198
vn 0.8742 -0.4665 0.1348
vn 0.3814 -0.4639 0.7996
vn 0.3990 0.6256 0.6704
vn -0.5011 -0.8637 -0.0543
vn -0.9344 0.0425 0.3538
vn -0.1334 0.8033 -0.5805
vn -0.6781 0.1153 -0.7258
vn 0.4280 0.3670 -0.8259
vt 0.550384 0.206938
vt 0.375000 0.305791
vt 0.375000 0.049496
vt 0.180791 0.500000
vt 0.330928 0.574320
vt 0.125000 0.700504
vt 0.804283 0.500000
vt 0.842867 0.681766
vt 0.658516 0.626313
vt 0.875000 0.500000
vt 0.501754 0.540833
vt 0.565165 0.799791
vt 0.325310 0.750000
vt 0.604031 0.069198
vt 0.375000 1.000000
vt 0.375000 0.799690
vt 0.578028 1.000000
vt 0.615335 0.592735
vt 0.589707 0.775249
vt 0.581909 0.353207
s 0
g Cube_Material
usemtl Material
f 150/171/91 152/172/91 151/173/91
f 152/174/92 155/175/92 151/176/92
f 156/177/93 153/178/93 157/179/93
f 153/178/94 156/177/94 150/180/94
f 158/181/95 149/182/95 154/183/95 155/175/95
f 151/173/96 153/184/96 150/171/96
f 151/185/97 154/186/97 149/182/97 153/187/97
f 155/175/98 154/183/98 151/176/98
f 157/188/99 153/178/99 149/189/99
f 149/182/100 158/181/100 157/188/100
f 158/181/101 155/175/101 152/172/101 156/190/101
f 158/181/102 156/190/102 157/188/102
f 152/172/103 150/171/103 156/190/103
o Cube
v 4.869687 0.642569 0.477859
v 5.064861 0.125962 0.164833
v 4.688070 0.194230 0.272480
v 4.897354 -0.033446 0.436671
v 5.036652 0.505121 0.161602
v 4.656487 0.375351 0.565034
v 4.774911 0.113084 0.673132
v 5.278236 0.173277 0.458063
v 5.210160 0.471354 0.606051
v 5.095324 0.261071 0.759752
vn -0.3073 -0.7261 -0.6151
vn -0.7455 -0.6660 0.0267
vn 0.8788 0.3576 -0.3159
vn 0.8032 0.0547 -0.5933
vn -0.2921 0.3765 0.8792
vn -0.2794 -0.0290 -0.9597
vn -0.7014 0.5115 -0.4964
vn -0.9226 -0.3646 0.1261
vn 0.4823 0.8674 -0.1224
vn -0.0057 0.5921 0.8058
vn 0.3186 -0.7895 0.5245
vn 0.8435 -0.0716 0.5323
vn 0.4756 -0.8547 -0.2081
vt 0.550384 0.206938
vt 0.375000 0.305791
vt 0.375000 0.049496
vt 0.180791 0.500000
vt 0.330928 0.574320
vt 0.125000 0.700504
vt 0.804283 0.500000
vt 0.842867 0.681766
vt 0.658516 0.626313
vt 0.875000 0.500000
vt 0.501754 0.540833
vt 0.565165 0.799791
vt 0.325310 0.750000
vt 0.604031 0.069198
vt 0.375000 1.000000
vt 0.375000 0.799690
vt 0.578028 1.000000
vt 0.615335 0.592735
vt 0.589707 0.775249
vt 0.581909 0.353207
s 0
g Cube_Material
usemtl Material
f 160/191/104 162/192/104 161/193/104
f 162/194/105 165/195/105 161/196/105
f 166/197/106 163/198/106 167/199/106
f 163/198/107 166/197/107 160/200/107
f 168/201/108 159/202/108 164/203/108 165/195/108
f 161/193/109 163/204/109 160/191/109
f 161/205/110 164/206/110 159/202/110 163/207/110
f 165/195/111 164/203/111 161/196/111
f 167/208/112 163/198/112 159/209/112
f 159/202/113 168/201/113 167/208/113
f 168/201/114 165/195/114 162/192/114 166/210/114
f 168/201/115 166/210/115 167/208/115
f 162/192/116 160/191/116 166/210/116
o Cube
v 0.163768 0.259187 -4.947101
v 0.503910 0.568394 -5.339978
v 0.488064 0.190233 -5.322180
v 0.744773 0.369028 -5.206511
v 0.168761 0.501294 -5.220155
v 0.433997 0.072953 -5.019426
v 0.702406 0.185358 -4.986748
v 0.564423 0.690378 -5.019310
v 0.355764 0.560417 -4.808893
v 0.598224 0.442547 -4.779765
vn 0.4449 -0.0607 -0.8935
vn 0.6385 -0.6467 -0.4174
vn -0.4642 0.8817 0.0843
vn -0.2873 0.9120 -0.2927
vn -0.0121 -0.5402 0.8414
vn -0.3311 -0.0305 -0.9431
vn -0.6499 -0.6130 -0.4493
vn 0.3997 -0.8765 -0.2682
vn -0.8569 0.3934 0.3331
vn -0.2439 -0.2717 0.9310
vn 0.9240 0.2699 0.2708
vn 0.2539 0.6899 0.6779
vn 0.7053 0.6081 -0.3644
vt 0.550384 0.206938
vt 0.375000 0.305791
vt 0.375000 0.049496
vt 0.180791 0.500000
vt 0.330928 0.574320
vt 0.125000 0.700504
vt 0.804283 0.500000
vt 0.842867 0.681766
vt 0.658516 0.626313
vt 0.875000 0.500000
vt 0.501754 0.540833
vt 0.565165 0.799791
vt 0.325310 0.750000
vt 0.604031 0.069198
vt 0.375000 1.000000
vt 0.375000 0.799690
vt 0.578028 1.000000
vt 0.615335 0.592735
vt 0.589707 0.775249
vt 0.581909 0.353207
s 0
g Cube_Material
usemtl Material
f 170/211/117 172/212/117 171/213/117
f 172/214/118 175/215/118 171/216/118
f 176/217/119 173/218/119 177/219/119
f 173/218/120 176/217/120 170/220/120
f 178/221/121 169/222/121 174/223/121 175/215/121
f 171/213/122 173/224/122 170/211/122
f 171/225/123 174/226/123 169/222/123 173/227/123
f 175/215/124 174/223/124 171/216/124
f 177/228/125 173/218/125 169/229/125
f 169/222/126 178/221/126 177/228/126
f 178/221/127 175/215/127 172/212/127 176/230/127
f 178/221/128 176/230/128 177/228/128
f 172/212/129 170/211/129 176/230/129
o Cube
v 3.365053 -0.456369 -3.828474
v 3.240870 0.037146 -3.570804
v 3.537184 -0.021714 -3.761824
v 3.532782 -0.011815 -3.447385
v 3.143796 -0.193833 -3.803090
v 3.638010 -0.315163 -3.750692
v 3.683160 -0.235779 -3.490002
v 3.208607 -0.206758 -3.352933
v 3.233684 -0.477037 -3.492534
v 3.449699 -0.426889 -3.365057
vn 0.1771 0.9838 -0.0285
vn 0.8297 0.5582 -0.0060
vn -0.9775 -0.1610 0.1361
vn -0.9558 0.2559 0.1450
vn 0.5502 -0.8346 0.0269
vn -0.2568 0.7368 -0.6254
vn 0.1292 0.1001 -0.9866
vn 0.9181 0.3059 -0.2521
vn -0.7384 -0.5909 -0.3251
vn 0.2131 -0.9768 0.0232
vn 0.2825 0.1319 0.9502
vn -0.3728 -0.4529 0.8099
vn -0.1920 0.6678 0.7191
vt 0.550384 0.206938
vt 0.375000 0.305791
vt 0.375000 0.049496
vt 0.180791 0.500000
vt 0.330928 0.574320
vt 0.125000 0.700504
vt 0.804283 0.500000
vt 0.842867 0.681766
vt 0.658516 0.626313
vt 0.875000 0.500000
vt 0.501754 0.540833
vt 0.565165 0.799791
vt 0.325310 0.750000
vt 0.604031 0.069198
vt 0.375000 1.000000
vt 0.375000 0.799690
vt 0.578028 1.000000
vt 0.615335 0.592735
vt 0.589707 0.775249
vt 0.581909 0.353207
s 0
g Cube_Material
usemtl Material
f 180/231/130 182/232/130 181/233/130
f 182/234/131 185/235/131 181/236/131
f 186/237/132 183/238/132 187/239/132
f 183/238/133 186/237/133 180/240/133
f 188/241/134 179/242/134 184/243/134 185/235/134
f 181/233/135 183/244/135 180/231/135
f 181/245/136 184/246/136 179/242/136 183/247/136
f 185/235/137 184/243/137 181/236/137
f 187/248/138 183/238/138 179/249/138
f 179/242/139 188/241/139 187/248/139
f 188/241/140 185/235/140 182/232/140 186/250/140
f 188/241/141 186/250/141 187/248/141
f 182/232/142 180/231/142 186/250/142
o Cube
v -4.427172 0.698256 -0.369642
v -4.735262 0.069370 -0.623560
v -4.275589 0.140457 -0.584543
v -4.476343 0.149064 -0.942930
v -4.699786 0.352108 -0.280231
v -4.163641 0.526383 -0.638706
v -4.274800 0.441946 -0.971326
v -4.905251 0.401554 -0.835544
v -4.786759 0.744992 -0.671532
v -4.618558 0.693825 -0.955558
vn 0.1613 -0.9803 -0.1139
vn 0.7278 -0.5416 -0.4207
vn -0.9230 0.1490 0.3548
vn -0.9115 -0.2663 0.3135
vn 0.4777 0.8453 -0.2391
vn 0.0661 -0.7736 0.6302
vn 0.5827 -0.1494 0.7988
vn 0.9248 -0.3009 -0.2327
vn -0.4896 0.5585 0.6696
vn 0.1842 0.9806 -0.0676
vn -0.2053 -0.0762 -0.9757
vn -0.7099 0.4876 -0.5082
vn -0.5168 -0.6326 -0.5768
vt 0.550384 0.206938
vt 0.375000 0.305791
vt 0.375000 0.049496
vt 0.180791 0.500000
vt 0.330928 0.574320
vt 0.125000 0.700504
vt 0.804283 0.500000
vt 0.842867 0.681766
vt 0.658516 0.626313
vt 0.875000 0.500000
vt 0.501754 0.540833
vt 0.565165 0.799791
vt 0.325310 0.750000
vt 0.604031 0.069198
vt 0.375000 1.000000
vt 0.375000 0.799690
vt 0.578028 1.000000
vt 0.615335 0.592735
vt 0.589707 0.775249
vt 0.581909 0.353207
s 0
g Cube_Material
usemtl Material
f 190/251/143 192/252/143 191/253/143
f 192/254/144 195/255/144 191/256/144
f 196/257/145 193/258/145 197/259/145
f 193/258/146 196/257/146 190/260/146
f 198/261/147 189/262/147 194/263/147 195/255/147
f 191/253/148 193/264/148 190/251/148
f 191/265/149 194/266/149 189/262/149 193/267/149
f 195/255/150 194/263/150 191/256/150
f 197/268/151 193/258/151 189/269/151
f 189/262/152 198/261/152 197/268/152
f 198/261/153 195/255/153 192/252/153 196/270/153
f 198/261/154 196/270/154 197/268/154
f 192/252/155 190/251/155 196/270/155
o Cube
v 2.120377 -0.068035 -3.345015
v 2.728083 -0.569908 -3.535746
v 2.786308 -0.130410 -3.287474
v 2.892691 -0.185979 -3.718343
v 2.309879 -0.516451 -3.294590
v 2.492934 0.179371 -3.400574
v 2.700006 0.150770 -3.732991
v 2.474325 -0.488810 -3.919528
v 2.114499 -0.268660 -3.817806
v 2.353823 -0.043558 -3.973625
vn 0.9256 -0.2715 0.2636
vn 0.8557 0.4960 0.1473
vn -0.5500 -0.8154 -0.1808
vn -0.1772 -0.9801 -0.0900
vn -0.4694 0.8554 -0.2188
vn 0.3869 -0.4919 0.7800
vn -0.0692 0.1680 0.9834
vn 0.6235 0.7100 0.3273
vn -0.9147 -0.3677 0.1674
vn -0.7451 0.6173 -0.2527
vn 0.4476 0.1012 -0.8885
vn -0.3843 -0.2132 -0.8982
vn 0.6480 -0.5354 -0.5416
vt 0.550384 0.206938
vt 0.375000 0.305791
vt 0.375000 0.049496
vt 0.180791 0.500000
vt 0.330928 0.574320
vt 0.125000 0.700504
vt 0.804283 0.500000
vt 0.842867 0.681766
vt 0.658516 0.626313
vt 0.875000 0.500000
vt 0.501754 0.540833
vt 0.565165 0.799791
vt 0.325310 0.750000
vt 0.604031 0.069198
vt 0.375000 1.000000
vt 0.375000 0.799690
vt 0.578028 1.000000
vt 0.615335 0.592735
vt 0.589707 0.775249
vt 0.581909 0.353207
s 0
g Cube_Material
usemtl Material
f 200/271/156 202/272/156 201/273/156
f 202/274/157 205/275/157 201/276/157
f 206/277/158 203/278/158 207/279/158
f 203/278/159 206/277/159 200/280/159
f 208/281/160 199/282/160 204/283/160 205/275/160
f 201/273/161 203/284/161 200/271/161
f 201/285/162 204/286/162 199/282/162 203/287/162
f 205/275/163 204/283/163 201/276/163
f 207/288/164 203/278/164 199/289/164
f 199/282/165 208/281/165 207/288/165
f 208/281/166 205/275/166 202/272/166 206/290/166
f 208/281/167 206/290/167 207/288/167
f 202/272/168 200/271/168 206/290/168
o Cube
v -4.076906 0.367399 -0.438094
v -4.056581 0.839721 -0.873606
v -4.396089 0.682503 -0.724454
v -4.273571 0.610217 -1.049209
v -3.958038 0.727799 -0.518650
v -4.370616 0.343909 -0.640072
v -4.345672 0.327971 -0.949930
v -3.841011 0.561759 -0.989399
v -3.809649 0.324608 -0.742246
v -3.991360 0.228740 -0.944417
vn -0.5189 0.7718 -0.3675
vn -0.9225 0.1050 -0.3714
vn 0.9519 0.2724 0.1406
vn 0.7853 0.6186 -0.0230
vn -0.1655 -0.9728 0.1619
vn -0.2598 0.8980 0.3552
vn -0.4885 0.2617 0.8324
vn -0.9928 -0.0934 -0.0751
vn 0.7410 -0.0958 0.6646
vn 0.1766 -0.9413 0.2876
vn 0.0354 -0.2403 -0.9701
vn 0.7661 -0.4124 -0.4930
vn 0.1730 0.4901 -0.8543
vt 0.550384 0.206938
vt 0.375000 0.305791
vt 0.375000 0.049496
vt 0.180791 0.500000
vt 0.330928 0.574320
vt 0.125000 0.700504
vt 0.804283 0.500000
vt 0.842867 0.681766
vt 0.658516 0.626313
vt 0.875000 0.500000
vt 0.501754 0.540833
vt 0.565165 0.799791
vt 0.325310 0.750000
vt 0.604031 0.069198
vt 0.375000 1.000000
vt 0.375000 0.799690
vt 0.578028 1.000000
vt 0.615335 0.592735
vt 0.589707 0.775249
vt 0.581909 0.353207
s 0
g Cube_Material
usemtl Material
f 210/291/169 212/292/169 211/293/169
f 212/294/170 215/295/170 211/296/170
f 216/297/171 213/298/171 217/299/171
f 213/298/172 216/297/172 210/300/172
f 218/301/173 209/302/173 214/303/173 215/295/173
f 211/293/174 213/304/174 210/291/174
f 211/305/175 214/306/175 209/302/175 213/307/175
f 215/295/176 214/303/176 211/296/176
f 217/308/177 213/298/177 209/309/177
f 209/302/178 218/301/178 217/308/178
f 218/301/179 215/295/179 212/292/179 216/310/179
f 218/301/180 216/310/180 217/308/180
f 212/292/181 210/291/181 216/310/181
o Cube
v -1.733187 0.690119 -2.870800
v -2.006957 0.327192 -3.510870
v -1.773093 0.100810 -3.141996
v -1.589099 0.185703 -3.524692
v -2.113646 0.587076 -3.133772
v -1.479727 0.343441 -2.947879
v -1.318476 0.297816 -3.289129
v -1.757816 0.681825 -3.640276
v -1.652771 0.914992 -3.306977
v -1.373817 0.726950 -3.410735
vn -0.3112 -0.8852 -0.3460
vn 0.3936 -0.9192 -0.0147
vn -0.6256 0.7180 -0.3052
vn -0.7893 0.3780 -0.4838
vn 0.8084 0.3490 0.4741
vn -0.8068 -0.5678 0.1631
vn -0.3881 -0.3635 0.8469
vn 0.4631 -0.8230 0.3289
vn -0.4573 0.8220 0.3395
vn 0.6082 0.6543 0.4494
vn 0.5882 -0.0642 -0.8062
vn 0.2758 0.7446 -0.6078
vn -0.1211 -0.2641 -0.9569
vt 0.550384 0.206938
vt 0.375000 0.305791
vt 0.375000 0.049496
vt 0.180791 0.500000
vt 0.330928 0.574320
vt 0.125000 0.700504
vt 0.804283 0.500000
vt 0.842867 0.681766
vt 0.658516 0.626313
vt 0.875000 0.500000
vt 0.501754 0.540833
vt 0.565165 0.799791
vt 0.325310 0.750000
vt 0.604031 0.069198
vt 0.375000 1.000000
vt 0.375000 0.799690
vt 0.578028 1.000000
vt 0.615335 0.592735
vt 0.589707 0.775249
vt 0.581909 0.353207
s 0
g Cube_Material
usemtl Material
f 220/311/182 222/312/182 221/313/182
f 222/314/183 225/315/183 221/316/183
f 226/317/184 223/318/184 227/319/184
f 223/318/185 226/317/185 220/320/185
f 228/321/186 219/322/186 224/323/186 225/315/186
f 221/313/187 223/324/187 220/311/187
f 221/325/188 224/326/188 219/322/188 223/327/188
f 225/315/189 224/323/189 221/316/189
f 227/328/190 223/318/190 219/329/190
f 219/322/191 228/321/191 227/328/191
f 228/321/192 225/315/192 222/312/192 226/330/192
f 228/321/193 226/330/193 227/328/193
f 222/312/194 220/311/194 226/330/194
o Cube
v -2.669966 0.174724 -2.546028
v -2.671838 0.100696 -3.265881
v -2.355103 0.326295 -3.032640
v -2.642416 0.505863 -3.243654
v -2.660366 -0.102650 -2.883268
v -2.489915 0.497529 -2.704525
v -2.654140 0.687582 -2.948883
v -3.046254 0.238058 -3.144382
v -3.072285 0.231959 -2.758072
v -3.029569 0.537590 -2.858411
vn 0.5924 0.0012 -0.8056
vn 0.6722 0.6419 -0.3690
vn -0.6396 -0.7667 -0.0552
vn -0.4289 -0.8030 -0.4139
vn -0.1747 0.6116 0.7717
vn 0.7008 -0.6210 -0.3510
vn 0.8300 -0.3621 0.4243
vn 0.7681 0.6400 -0.0184
vn -0.4039 -0.7121 0.5742
vn -0.4013 0.3358 0.8521
vn -0.4944 0.6714 -0.5521
vn -0.9910 0.1172 -0.0649
vn -0.2835 0.0730 -0.9562
vt 0.550384 0.206938
vt 0.375000 0.305791
vt 0.375000 0.049496
vt 0.180791 0.500000
vt 0.330928 0.574320
vt 0.125000 0.700504
vt 0.804283 0.500000
vt 0.842867 0.681766
vt 0.658516 0.626313
vt 0.875000 0.500000
vt 0.501754 0.540833
vt 0.565165 0.799791
vt 0.325310 0.750000
vt 0.604031 0.069198
vt 0.375000 1.000000
vt 0.375000 0.799690
vt 0.578028 1.000000
vt 0.615335 0.592735
vt 0.589707 0.775249
vt 0.581909 0.353207
s 0
g Cube_Material
usemtl Material
f 230/331/195 232/332/195 231/333/195
f 232/334/196 235/335/196 231/336/196
f 236/337/197 233/338/197 237/339/197
f 233/338/198 236/337/198 230/340/198
f 238/341/199 229/342/199 234/343/199 235/335/199
f 231/333/200 233/344/200 230/331/200
f 231/345/201 234/346/201 229/342/201 233/347/201
f 235/335/202 234/343/202 231/336/202
f 237/348/203 233/338/203 229/349/203
f 229/342/204 238/341/204 237/348/204
f 238/341/205 235/335/205 232/332/205 236/350/205
f 238/341/206 236/350/206 237/348/206
f 232/332/207 230/331/207 236/350/207
o Cube
v 3.347208 0.360251 0.166856
v 3.431808 -0.042647 0.415189
v 3.626720 0.185693 0.390073
v 3.651704 -0.042907 0.258003
v 3.263173 0.188882 0.385428
v 3.610459 0.314665 0.162942
v 3.692020 0.109173 0.089964
v 3.345182 -0.111205 0.161180
v 3.265749 0.098268 0.034686
v 3.459382 0.039041 -0.039340
vn 0.5384 -0.3767 0.7538
vn 0.9760 -0.0188 0.2171
vn -0.9465 -0.3141 0.0742
vn -0.7652 -0.5063 0.3976
vn 0.1865 0.5128 -0.8380
vn -0.0116 0.1191 0.9928
vn 0.0634 0.8231 0.5643
vn 0.9366 0.3292 0.1199
vn -0.9362 0.3387 -0.0944
vn -0.1780 0.4868 -0.8552
vn 0.4004 -0.7836 -0.4750
vn -0.4396 -0.5806 -0.6854
vn 0.1490 -0.9663 0.2100
vt 0.550384 0.206938
vt 0.375000 0.305791
vt 0.375000 0.049496
vt 0.180791 0.500000
vt 0.330928 0.574320
vt 0.125000 0.700504
vt 0.804283 0.500000
vt 0.842867 0.681766
vt 0.658516 0.626313
vt 0.875000 0.500000
vt 0.501754 0.540833
vt 0.565165 0.799791
vt 0.325310 0.750000
vt 0.604031 0.069198
vt 0.375000 1.000000
vt 0.375000 0.799690
vt 0.578028 1.000000
vt 0.615335 0.592735
vt 0.589707 0.775249
vt 0.581909 0.353207
s 0
g Cube_Material
usemtl Material
f 240/351/208 242/352/208 241/353/208
f 242/354/209 245/355/209 241/356/209
f 246/357/210 243/358/210 247/359/210
f 243/358/211 246/357/211 240/360/211
f 248/361/212 239/362/212 244/363/212 245/355/212
f 241/353/213 243/364/213 240/351/213
f 241/365/214 244/366/214 239/362/214 243/367/214
f 245/355/215 244/363/215 241/356/215
f 247/368/216 243/358/216 239/369/216
f 239/362/217 248/361/217 247/368/217
f 248/361/218 245/355/218 242/352/218 246/370/218
f 248/361/219 246/370/219 247/368/219
f 242/352/220 240/351/220 246/370/220
o Cube
v -0.258409 -0.360683 3.133309
v -0.450602 0.196942 3.519579
v -0.210449 0.220799 3.149530
v -0.059983 0.262830 3.505656
v -0.581546 -0.134282 3.292685
v 0.015504 -0.083764 3.090660
v 0.164425 0.053003 3.365767
v -0.280310 -0.078906 3.764330
v -0.219776 -0.400418 3.576438
v 0.054145 -0.246734 3.612572
vn -0.1677 0.9848 -0.0454
vn 0.5341 0.7833 -0.3181
vn -0.7319 -0.4413 0.5193
vn -0.8401 -0.0385 0.5411
vn 0.7438 -0.6204 -0.2488
vn -0.7065 0.5683 -0.4219
vn -0.3241 0.0531 -0.9445
vn 0.5881 0.5508 -0.5922
vn -0.5810 -0.8136 -0.0223
vn 0.4978 -0.8589 -0.1204
vn 0.5895 0.2902 0.7538
vn 0.1534 -0.4769 0.8655
vn -0.0795 0.6337 0.7695
vt 0.550384 0.206938
vt 0.375000 0.305791
vt 0.375000 0.049496
vt 0.180791 0.500000
vt 0.330928 0.574320
vt 0.125000 0.700504
vt 0.804283 0.500000
vt 0.842867 0.681766
vt 0.658516 0.626313
vt 0.875000 0.500000
vt 0.501754 0.540833
vt 0.565165 0.799791
vt 0.325310 0.750000
vt 0.604031 0.069198
vt 0.375000 1.000000
vt 0.375000 0.799690
vt 0.578028 1.000000
vt 0.615335 0.592735
vt 0.589707 0.775249
vt 0.581909 0.353207
s 0
g Cube_Material
usemtl Material
f 250/371/221 252/372/221 251/373/221
f 252/374/222 255/375/222 251/376/222
f 256/377/223 253/378/223 257/379/223
f 253/378/224 256/377/224 250/380/224
f 258/381/225 249/382/225 254/383/225 255/375/225
f 251/373/226 253/384/226 250/371/226
f 251/385/227 254/386/227 249/382/227 253/387/227
f 255/375/228 254/383/228 251/376/228
f 257/388/229 253/378/229 249/389/229
f 249/382/230 258/381/230 257/388/230
f 258/381/231 255/375/231 252/372/231 256/390/231
f 258/381/232 256/390/232 257/388/232
f 252/372/233 250/371/233 256/390/233
o Cube
v -3.007505 0.482564 -1.410201
v -2.606900 0.150507 -1.318036
v -2.924681 0.059347 -1.336671
v -2.778570 0.081896 -1.085479
v -2.733983 0.359625 -1.518787
v -3.109320 0.260771 -1.246836
v -2.994029 0.200664 -1.026435
v -2.586032 0.384938 -1.124924
v -2.774387 0.584628 -1.192782
v -2.850639 0.465955 -1.002379
vn 0.2791 -0.9572 -0.0764
vn -0.3936 -0.8666 0.3068
vn 0.7414 0.5917 -0.3165
vn 0.9103 0.2119 -0.3556
vn -0.7703 0.5007 0.3949
vn 0.2181 -0.6036 -0.7669
vn -0.5259 -0.2445 -0.8147
vn -0.6884 -0.7057 0.1676
vn 0.1517 0.8222 -0.5486
vn -0.5764 0.7769 0.2534
vn 0.2951 -0.1488 0.9438
vn 0.4742 0.6493 0.5946
vn 0.7803 -0.4376 0.4469
vt 0.550384 0.206938
vt 0.375000 0.305791
vt 0.375000 0.049496
vt 0.180791 0.500000
vt 0.330928 0.574320
vt 0.125000 0.700504
vt 0.804283 0.500000
vt 0.842867 0.681766
vt 0.658516 0.626313
vt 0.875000 0.500000
vt 0.501754 0.540833
vt 0.565165 0.799791
vt 0.325310 0.750000
vt 0.604031 0.069198
vt 0.375000 1.000000
vt 0.375000 0.799690
vt 0.578028 1.000000
vt 0.615335 0.592735
vt 0.589707 0.775249
vt 0.581909 0.353207
s 0
g Cube_Material
usemtl Material
f 260/391/234 262/392/234 261/393/234
f 262/394/235 265/395/235 261/396/235
f 266/397/236 263/398/236 267/399/236
f 263/398/237 266/397/237 260/400/237
f 268/401/238 259/402/238 264/403/238 265/395/238
f 261/393/239 263/404/239 260/391/239
f 261/405/240 264/406/240 259/402/240 263/407/240
f 265/395/241 264/403/241 261/396/241
f 267/408/242 263/398/242 259/409/242
f 259/402/243 268/401/243 267/408/243
f 268/401/244 265/395/244 262/392/244 266/410/244
f 268/401/245 266/410/245 267/408/245
f 262/392/246 260/391/246 266/410/246
o Cube
v -0.324758 -0.227198 3.049617
v -0.307913 0.362182 2.434077
v 0.109889 0.235733 2.741852
v -0.143105 0.628147 2.797042
v -0.384642 -0.129520 2.548087
v -0.005948 0.101611 3.170635
v -0.114448 0.499656 3.183339
v -0.693126 0.449700 2.725808
v -0.747740 0.107193 3.022029
v -0.593201 0.407053 3.201749
vn 0.6096 0.4816 -0.6297
vn 0.8423 0.5271 0.1129
vn -0.8241 -0.2896 -0.4868
vn -0.6139 -0.0862 -0.7847
vn -0.0365 -0.1706 0.9847
vn 0.5171 -0.2691 -0.8125
vn 0.6736 -0.7257 -0.1403
vn 0.9159 0.2394 0.3223
vn -0.6150 -0.7845 -0.0794
vn -0.3348 -0.3514 0.8743
vn -0.2590 0.9393 0.2251
vn -0.9145 0.3381 0.2223
vn -0.2028 0.8315 -0.5172
vt 0.550384 0.206938
vt 0.375000 0.305791
vt 0.375000 0.049496
vt 0.180791 0.500000
vt 0.330928 0.574320
vt 0.125000 0.700504
vt 0.804283 0.500000
vt 0.842867 0.681766
vt 0.658516 0.626313
vt 0.875000 0.500000
vt 0.501754 0.540833
vt 0.565165 0.799791
vt 0.325310 0.750000
vt 0.604031 0.069198
vt 0.375000 1.000000
vt 0.375000 0.799690
vt 0.578028 1.000000
vt 0.615335 0.592735
vt 0.589707 0.775249
vt 0.581909 0.353207
s 0
g Cube_Material
usemtl Material
f 270/411/247 272/412/247 271/413/247
f 272/414/248 275/415/248 271/416/248
f 276/417/249 273/418/249 277/419/249
f 273/418/250 276/417/250 270/420/250
f 278/421/251 269/422/251 274/423/251 275/415/251
f 271/413/252 273/424/252 270/411/252
f 271/425/253 274/426/253 269/422/253 273/427/253
f 275/415/254 274/423/254 271/416/254
f 277/428/255 273/418/255 269/429/255
f 269/422/256 278/421/256 277/428/256
f 278/421/257 275/415/257 272/412/257 276/430/257
f 278/421/258 276/430/258 277/428/258
f 272/412/259 270/411/259 276/430/259
o Cube
v -1.995181 0.278278 0.645311
v -2.153407 0.438214 1.227726
v -2.116794 0.069469 1.102232
v -2.420696 0.222450 1.155505
v -1.893994 0.460450 0.959279
v -2.196305 0.026803 0.774582
v -2.467676 0.094230 0.889577
v -2.365835 0.615092 0.997555
v -2.259519 0.569863 0.684068
v -2.486977 0.412830 0.728695
vn 0.0040 -0.3218 0.9468
vn -0.3349 -0.8242 0.4566
vn 0.3089 0.9505 -0.0324
vn 0.3159 0.8705 0.3774
vn -0.3208 -0.3464 -0.8815
vn 0.7164 -0.1600 0.6791
vn 0.8270 -0.5611 -0.0363
vn -0.1702 -0.9710 0.1677
vn 0.5869 0.6038 -0.5395
vn -0.1743 -0.0272 -0.9843
vn -0.9660 0.1444 0.2144
vn -0.5808 0.7544 -0.3058
vn -0.5150 0.3809 0.7680
vt 0.550384 0.206938
vt 0.375000 0.305791
vt 0.375000 0.049496
vt 0.180791 0.500000
vt 0.330928 0.574320
vt 0.125000 0.700504
vt 0.804283 0.500000
vt 0.842867 0.681766
vt 0.658516 0.626313
vt 0.875000 0.500000
vt 0.501754 0.540833
vt 0.565165 0.799791
vt 0.325310 0.750000
vt 0.604031 0.069198
vt 0.375000 1.000000
vt 0.375000 0.799690
vt 0.578028 1.000000
vt 0.615335 0.592735
vt 0.589707 0.775249
vt 0.581909 0.353207
s 0
g Cube_Material
usemtl Material
f 280/431/260 282/432/260 281/433/260
f 282/434/261 285/435/261 281/436/261
f 286/437/262 283/438/262 287/439/262
f 283/438/263 286/437/263 280/440/263
f 288/441/264 279/442/264 284/443/264 285/435/264
f 281/433/265 283/444/265 280/431/265
f 281/445/266 284/446/266 279/442/266 283/447/266
f 285/435/267 284/443/267 281/436/267
f 287/448/268 283/438/268 279/449/268
f 279/442/269 288/441/269 287/448/269
f 288/441/270 285/435/270 282/432/270 286/450/270
f 288/441/271 286/450/271 287/448/271
f 282/432/272 280/431/272 286/450/272
o Cube
v -0.394808 0.433582 2.170981
v -0.698480 0.259154 2.621714
v -0.341083 0.264063 2.608781
v -0.511939 0.000800 2.583851
v -0.627880 0.518250 2.410124
v -0.224535 0.214716 2.325036
v -0.334304 -0.033162 2.378958
v -0.809227 0.104505 2.353461
v -0.679804 0.221793 2.102893
v -0.571922 -0.004032 2.156543
vn 0.0375 -0.1183 0.9923
vn 0.6285 -0.4668 0.6222
vn -0.8722 0.4173 -0.2552
vn -0.9121 0.3781 0.1586
vn 0.5551 -0.2775 -0.7842
vn 0.0195 0.6292 0.7770
vn 0.6158 0.7573 0.2176
vn 0.8649 -0.2946 0.4065
vn -0.3730 0.6984 -0.6108
vn 0.2920 -0.0868 -0.9525
vn -0.2805 -0.9585 0.0502
vn -0.6820 -0.4607 -0.5679
vn -0.6261 -0.5352 0.5670
vt 0.550384 0.206938
vt 0.375000 0.305791
vt 0.375000 0.049496
vt 0.180791 0.500000
vt 0.330928 0.574320
vt 0.125000 0.700504
vt 0.804283 0.500000
vt 0.842867 0.681766
vt 0.658516 0.626313
vt 0.875000 0.500000
vt 0.501754 0.540833
vt 0.565165 0.799791
vt 0.325310 0.750000
vt 0.604031 0.069198
vt 0.375000 1.000000
vt 0.375000 0.799690
vt 0.578028 1.000000
vt 0.615335 0.592735
vt 0.589707 0.775249
vt 0.581909 0.353207
s 0
g Cube_Material
usemtl Material
f 290/451/273 292/452/273 291/453/273
f 292/454/274 295/455/274 291/456/274
f 296/457/275 293/458/275 297/459/275
f 293/458/276 296/457/276 290/460/276
f 298/461/277 289/462/277 294/463/277 295/455/277
f 291/453/278 293/464/278 290/451/278
f 291/465/279 294/466/279 289/462/279 293/467/279
f 295/455/280 294/463/280 291/456/280
f 297/468/281 293/458/281 289/469/281
f 289/462/282 298/461/282 297/468/282
f 298/461/283 295/455/283 292/452/283 296/470/283
f 298/461/284 296/470/284 297/468/284
f 292/452/285 290/451/285 296/470/285
o Cube
v 0.791938 0.582815 -1.985990
v 0.452122 0.508664 -1.518811
v 0.693349 0.262661 -1.639182
v 0.376102 0.234803 -1.681426
v 0.701151 0.702109 -1.668030
v 0.734419 0.265936 -1.953523
v 0.469129 0.171677 -1.936628
v 0.260570 0.603463 -1.777497
v 0.439062 0.685032 -2.019619
v 0.335394 0.449407 -2.063755
vn -0.0719 -0.4944 0.8663
vn 0.0505 -0.9651 0.2571
vn -0.2492 0.9584 0.1392
vn -0.3076 0.7970 0.5198
vn 0.1557 -0.2374 -0.9588
vn 0.4853 0.0487 0.8730
vn 0.9742 -0.0667 0.2154
vn 0.3365 -0.9411 0.0342
vn 0.2915 0.9200 -0.2620
vn 0.1304 0.1268 -0.9833
vn -0.9106 -0.3941 -0.1242
vn -0.7899 0.4295 -0.4376
vn -0.8175 -0.1088 0.5655
vt 0.550384 0.206938
vt 0.375000 0.305791
vt 0.375000 0.049496
vt 0.180791 0.500000
vt 0.330928 0.574320
vt 0.125000 0.700504
vt 0.804283 0.500000
vt 0.842867 0.681766
vt 0.658516 0.626313
vt 0.875000 0.500000
vt 0.501754 0.540833
vt 0.565165 0.799791
vt 0.325310 0.750000
vt 0.604031 0.069198
vt 0.375000 1.000000
vt 0.375000 0.799690
vt 0.578028 1.000000
vt 0.615335 0.592735
vt 0.589707 0.775249
vt 0.581909 0.353207
s 0
g Cube_Material
usemtl Material
f 300/471/286 302/472/286 301/473/286
f 302/474/287 305/475/287 301/476/287
f 306/477/288 303/478/288 307/479/288
f 303/478/289 306/477/289 300/480/289
f 308/481/290 299/482/290 304/483/290 305/475/290
f 301/473/291 303/484/291 300/471/291
f 301/485/292 304/486/292 299/482/292 303/487/292
f 305/475/293 304/483/293 301/476/293
f 307/488/294 303/478/294 299/489/294
f 299/482/295 308/481/295 307/488/295
f 308/481/296 305/475/296 302/472/296 306/490/296
f 308/481/297 306/490/297 307/488/297
f 302/472/298 300/471/298 306/490/298
o Cube
v -1.559782 0.107164 1.085875
v -1.607741 0.727618 1.010390
v -1.308451 0.510620 0.877608
v -1.287116 0.714435 1.156098
v -1.762911 0.392466 0.942746
v -1.237628 0.239011 1.071619
v -1.157222 0.464091 1.258763
v -1.658682 0.648882 1.359156
v -1.678998 0.316726 1.401358
v -1.427192 0.406641 1.488122
vn 0.2944 0.7603 -0.5790
vn 0.8895 0.3335 -0.3122
vn -0.9776 0.0843 0.1928
vn -0.9041 0.4258 -0.0359
vn 0.4437 -0.7431 0.5010
vn -0.2083 0.2852 -0.9356
vn 0.0694 -0.4914 -0.8682
vn 0.9283 -0.0230 -0.3711
vn -0.8269 -0.5592 0.0590
vn 0.0922 -0.8130 0.5749
vn 0.3640 0.6015 0.7111
vn -0.3667 0.1393 0.9199
vn -0.0562 0.9756 0.2120
vt 0.550384 0.206938
vt 0.375000 0.305791
vt 0.375000 0.049496
vt 0.180791 0.500000
vt 0.330928 0.574320
vt 0.125000 0.700504
vt 0.804283 0.500000
vt 0.842867 0.681766
vt 0.658516 0.626313
vt 0.875000 0.500000
vt 0.501754 0.540833
vt 0.565165 0.799791
vt 0.325310 0.750000
vt 0.604031 0.069198
vt 0.375000 1.000000
vt 0.375000 0.799690
vt 0.578028 1.000000
vt 0.615335 0.592735
vt 0.589707 0.775249
vt 0.581909 0.353207
s 0
g Cube_Material
usemtl Material
f 310/491/299 312/492/299 311/493/299
f 312/494/300 315/495/300 311/496/300
f 316/497/301 313/498/301 317/499/301
f 313/498/302 316/497/302 310/500/302
f 318/501/303 309/502/303 314/503/303 315/495/303
f 311/493/304 313/504/304 310/491/304
f 311/505/305 314/506/305 309/502/305 313/507/305
f 315/495/306 314/503/306 311/496/306
f 317/508/307 313/498/307 309/509/307
f 309/502/308 318/501/308 317/508/308
f 318/501/309 315/495/309 312/492/309 316/510/309
f 318/501/310 316/510/310 317/508/310
f 312/492/311 310/491/311 316/510/311
o Cube
v 0.878857 0.305706 1.511626
v 0.715404 0.052829 0.743239
v 1.055285 0.423959 0.862262
v 0.643734 0.507738 0.686719
v 0.878892 -0.075977 1.191600
v 0.946380 0.660169 1.228508
v 0.656445 0.774202 0.978214
v 0.304975 0.150738 0.962389
v 0.375845 0.230443 1.390930
v 0.314427 0.550154 1.214953
vn 0.3824 -0.0544 -0.9224
vn 0.4031 0.6666 -0.6270
vn -0.4366 -0.8688 0.2338
vn -0.3078 -0.9383 -0.1573
vn -0.1391 0.7146 0.6856
vn 0.7322 -0.5356 -0.4208
vn 0.9646 -0.1007 0.2437
vn 0.5718 0.7563 -0.3178
vn -0.0874 -0.6400 0.7633
vn -0.2708 0.4237 0.8644
vn -0.7482 0.4345 -0.5013
vn -0.9798 -0.0898 0.1787
vn -0.4967 -0.1837 -0.8482
vt 0.550384 0.206938
vt 0.375000 0.305791
vt 0.375000 0.049496
vt 0.180791 0.500000
vt 0.330928 0.574320
vt 0.125000 0.700504
vt 0.804283 0.500000
vt 0.842867 0.681766
vt 0.658516 0.626313
vt 0.875000 0.500000
vt 0.501754 0.540833
vt 0.565165 0.799791
vt 0.325310 0.750000
vt 0.604031 0.069198
vt 0.375000 1.000000
vt 0.375000 0.799690
vt 0.578028 1.000000
vt 0.615335 0.592735
vt 0.589707 0.775249
vt 0.581909 0.353207
s 0
g Cube_Material
usemtl Material
f 320/511/312 322/512/312 321/513/312
f 322/514/313 325/515/313 321/516/313
f 326/517/314 323/518/314 327/519/314
f 323/518/315 326/517/315 320/520/315
f 328/521/316 319/522/316 324/523/316 325/515/316
f 321/513/317 323/524/317 320/511/317
f 321/525/318 324/526/318 319/522/318 323/527/318
f 325/515/319 324/523/319 321/516/319
f 327/528/320 323/518/320 319/529/320
f 319/522/321 328/521/321 327/528/321
f 328/521/322 325/515/322 322/512/322 326/530/322
f 328/521/323 326/530/323 327/528/323
f 322/512/324 320/511/324 326/530/324
o Cube
v -4.024993 0.054409 -4.267349
v -4.606493 0.464477 -4.180541
v -4.261656 0.449497 -3.893108
v -4.609652 0.274567 -3.825106
v -4.269094 0.372596 -4.429667
v -4.084518 0.102249 -3.876361
v -4.392504 0.023914 -3.736712
v -4.727528 0.077269 -4.257820
v -4.426192 -0.138873 -4.355859
v -4.512753 -0.207046 -4.053892
vn -0.3324 0.8331 0.4422
vn 0.0119 0.3417 0.9397
vn -0.3314 -0.0343 -0.9429
vn -0.5056 0.3181 -0.8020
vn 0.4807 -0.8292 0.2852
vn 0.1610 0.9767 -0.1422
vn 0.8476 0.5302 -0.0237
vn 0.3545 0.2246 0.9077
vn 0.3138 -0.2293 -0.9214
vn 0.4460 -0.8920 -0.0735
vn -0.7942 -0.3837 0.4713
vn -0.6187 -0.7094 -0.3375
vn -0.9530 0.2707 0.1362
vt 0.550384 0.206938
vt 0.375000 0.305791
vt 0.375000 0.049496
vt 0.180791 0.500000
vt 0.330928 0.574320
vt 0.125000 0.700504
vt 0.804283 0.500000
vt 0.842867 0.681766
vt 0.658516 0.626313
vt 0.875000 0.500000
vt 0.501754 0.540833
vt 0.565165 0.799791
vt 0.325310 0.750000
vt 0.604031 0.069198
vt 0.375000 1.000000
vt 0.375000 0.799690
vt 0.578028 1.000000
vt 0.615335 0.592735
vt 0.589707 0.775249
vt 0.581909 0.353207
s 0
g Cube_Material
usemtl Material
f 330/531/325 332/532/325 331/533/325
f 332/534/326 335/535/326 331/536/326
f 336/537/327 333/538/327 337/539/327
f 333/538/328 336/537/328 330/540/328
f 338/541/329 329/542/329 334/543/329 335/535/329
f 331/533/330 333/544/330 330/531/330
f 331/545/331 334/546/331 329/542/331 333/547/331
f 335/535/332 334/543/332 331/536/332
f 337/548/333 333/538/333 329/549/333
f 329/542/334 338/541/334 337/548/334
f 338/541/335 335/535/335 332/532/335 336/550/335
f 338/541/336 336/550/336 337/548/336
f 332/532/337 330/531/337 336/550/337
o Cube
v -5.707191 -0.055828 1.791216
v -6.040425 0.207399 1.439916
v -5.696024 0.202012 1.414960
v -5.852982 0.442612 1.514387
v -5.956214 -0.083010 1.572369
v -5.555098 0.185313 1.679262
v -5.661484 0.429541 1.695467
v -6.117447 0.291711 1.736190
v -5.970384 0.126063 1.930891
v -5.868124 0.350817 1.920528
vn -0.0624 0.3461 -0.9361
vn 0.5696 0.6026 -0.5589
vn -0.8489 -0.4705 0.2408
vn -0.9303 -0.3364 -0.1461
vn 0.6376 0.0909 0.7650
vn -0.0719 -0.4311 -0.8994
vn 0.5762 -0.6820 -0.4503
vn 0.8238 0.3864 -0.4148
vn -0.3210 -0.8236 0.4676
vn 0.3898 -0.1354 0.9109
vn -0.2667 0.9422 0.2030
vn -0.6116 0.3118 0.7272
vn -0.6712 0.6485 -0.3590
vt 0.550384 0.206938
vt 0.375000 0.305791
vt 0.375000 0.049496
vt 0.180791 0.500000
vt 0.330928 0.574320
vt 0.125000 0.700504
vt 0.804283 0.500000
vt 0.842867 0.681766
vt 0.658516 0.626313
vt 0.875000 0.500000
vt 0.501754 0.540833
vt 0.565165 0.799791
vt 0.325310 0.750000
vt 0.604031 0.069198
vt 0.375000 1.000000
vt 0.375000 0.799690
vt 0.578028 1.000000
vt 0.615335 0.592735
vt 0.589707 0.775249
vt 0.581909 0.353207
s 0
g Cube_Material
usemtl Material
f 340/551/338 342/552/338 341/553/338
f 342/554/339 345/555/339 341/556/339
f 346/557/340 343/558/340 347/559/340
f 343/558/341 346/557/341 340/560/341
f 348/561/342 339/562/342 344/563/342 345/555/342
f 341/553/343 343/564/343 340/551/343
f 341/565/344 344/566/344 339/562/344 343/567/344
f 345/555/345 344/563/345 341/556/345
f 347/568/346 343/558/346 339/569/346
f 339/562/347 348/561/347 347/568/347
f 348/561/348 345/555/348 342/552/348 346/570/348
f 348/561/349 346/570/349 347/568/349
f 342/552/350 340/551/350 346/570/350
o Cube
v -0.715137 0.136136 5.840690
v -0.327448 0.257940 5.455254
v -0.318608 0.370524 5.787548
v -0.397289 0.550329 5.548973
v -0.483381 0.015159 5.626387
v -0.594050 0.414212 5.910700
v -0.590546 0.611447 5.724560
v -0.618907 0.324269 5.333699
v -0.833224 0.224914 5.518151
v -0.813754 0.474396 5.539606
vn 0.9571 0.2656 -0.1155
vn 0.5674 0.7366 0.3681
vn -0.2294 -0.7204 -0.6546
vn 0.1683 -0.6378 -0.7516
vn -0.7867 0.3332 0.5198
vn 0.8742 -0.4665 0.1348
vn 0.3814 -0.4639 0.7996
vn 0.3990 0.6256 0.6704
vn -0.5011 -0.8637 -0.0543
vn -0.9344 0.0425 0.3538
vn -0.1334 0.8033 -0.5805
vn -0.6781 0.1153 -0.7258
vn 0.4280 0.3670 -0.8259
vt 0.550384 0.206938
vt 0.375000 0.305791
vt 0.375000 0.049496
vt 0.180791 0.500000
vt 0.330928 0.574320
vt 0.125000 0.700504
vt 0.804283 0.500000
vt 0.842867 0.681766
vt 0.658516 0.626313
vt 0.875000 0.500000
vt 0.501754 0.540833
vt 0.565165 0.799791
vt 0.325310 0.750000
vt 0.604031 0.069198
vt 0.375000 1.000000
vt 0.375000 0.799690
vt 0.578028 1.000000
vt 0.615335 0.592735
vt 0.589707 0.775249
vt 0.581909 0.353207
s 0
g Cube_Material
usemtl Material
f 350/571/351 352/572/351 351/573/351
f 352/574/352 355/575/352 351/576/352
f 356/577/353 353/578/353 357/579/353
f 353/578/354 356/577/354 350/580/354
f 358/581/355 349/582/355 354/583/355 355/575/355
f 351/573/356 353/584/356 350/571/356
f 351/585/357 354/586/357 349/582/357 353/587/357
f 355/575/358 354/583/358 351/576/358
f 357/588/359 353/578/359 349/589/359
f 349/582/360 358/581/360 357/588/360
f 358/581/361 355/575/361 352/572/361 356/590/361
f 358/581/362 356/590/362 357/588/362
f 352/572/363 350/571/363 356/590/363
o Cube
v 5.174076 0.568790 -0.377184
v 5.354910 0.090143 -0.667210
v 5.005804 0.153395 -0.567472
v 5.199710 -0.057553 -0.415345
v 5.328773 0.441441 -0.670203
v 4.976541 0.321207 -0.296414
v 5.086264 0.078211 -0.196258
v 5.552606 0.133981 -0.395525
v 5.489532 0.410156 -0.258410
v 5.383134 0.215324 -0.116003
vn -0.3073 -0.7261 -0.6151
vn -0.7455 -0.6660 0.0267
vn 0.8788 0.3576 -0.3159
vn 0.8032 0.0547 -0.5933
vn -0.2921 0.3765 0.8792
vn -0.2794 -0.0290 -0.9597
vn -0.7014 0.5115 -0.4964
vn -0.9226 -0.3646 0.1261
vn 0.4823 0.8674 -0.1224
vn -0.0057 0.5921 0.8058
vn 0.3186 -0.7895 0.5245
vn 0.8435 -0.0716 0.5323
vn 0.4756 -0.8547 -0.2081
vt 0.550384 0.206938
vt 0.375000 0.305791
vt 0.375000 0.049496
vt 0.180791 0.500000
vt 0.330928 0.574320
vt 0.125000 0.700504
vt 0.804283 0.500000
vt 0.842867 0.681766
vt 0.658516 0.626313
vt 0.875000 0.500000
vt 0.501754 0.540833
vt 0.565165 0.799791
vt 0.325310 0.750000
vt 0.604031 0.069198
vt 0.375000 1.000000
vt 0.375000 0.799690
vt 0.578028 1.000000
vt 0.615335 0.592735
vt 0.589707 0.775249
vt 0.581909 0.353207
s 0
g Cube_Material
usemtl Material
f 360/591/364 362/592/364 361/593/364
f 362/594/365 365/595/365 361/596/365
f 366/597/366 363/598/366 367/599/366
f 363/598/367 366/597/367 360/600/367
f 368/601/368 359/602/368 364/603/368 365/595/368
f 361/593/369 363/604/369 360/591/369
f 361/605/370 364/606/370 359/602/370 363/607/370
f 365/595/371 364/603/371 361/596/371
f 367/608/372 363/598/372 359/609/372
f 359/602/373 368/601/373 367/608/373
f 368/601/374 365/595/374 362/592/374 366/610/374
f 368/601/375 366/610/375 367/608/375
f 362/592/376 360/591/376 366/610/376
o Cube
v 0.019592 -0.044601 -4.937630
v 0.330802 0.238306 -5.297091
v 0.316305 -0.107690 -5.280806
v 0.551178 0.055898 -5.174975
v 0.024160 0.176913 -5.187459
v 0.266836 -0.214995 -5.003803
v 0.512415 -0.112150 -4.973905
v 0.386169 0.349914 -5.003697
v 0.195258 0.231008 -4.811177
v 0.417095 0.123163 -4.784527
vn 0.4449 -0.0607 -0.8935
vn 0.6385 -0.6467 -0.4174
vn -0.4642 0.8817 0.0843
vn -0.2873 0.9120 -0.2927
vn -0.0121 -0.5402 0.8414
vn -0.3311 -0.0305 -0.9431
vn -0.6499 -0.6130 -0.4493
vn 0.3997 -0.8765 -0.2682
vn -0.8569 0.3934 0.3331
vn -0.2439 -0.2717 0.9310
vn 0.9240 0.2699 0.2708
vn 0.2539 0.6899 0.6779
vn 0.7053 0.6081 -0.3644
vt 0.550384 0.206938
vt 0.375000 0.305791
vt 0.375000 0.049496
vt 0.180791 0.500000
vt 0.330928 0.574320
vt 0.125000 0.700504
vt 0.804283 0.500000
vt 0.842867 0.681766
vt 0.658516 0.626313
vt 0.875000 0.500000
vt 0.501754 0.540833
vt 0.565165 0.799791
vt 0.325310 0.750000
vt 0.604031 0.069198
vt 0.375000 1.000000
vt 0.375000 0.799690
vt 0.578028 1.000000
vt 0.615335 0.592735
vt 0.589707 0.775249
vt 0.581909 0.353207
s 0
g Cube_Material
usemtl Material
f 370/611/377 372/612/377 371/613/377
f 372/614/378 375/615/378 371/616/378
f 376/617/379 373/618/379 377/619/379
f 373/618/380 376/617/380 370/620/380
f 378/621/381 369/622/381 374/623/381 375/615/381
f 371/613/382 373/624/382 370/611/382
f 371/625/383 374/626/383 369/622/383 373/627/383
f 375/615/384 374/623/384 371/616/384
f 377/628/385 373/618/385 369/629/385
f 369/622/386 378/621/386 377/628/386
f 378/621/387 375/615/387 372/612/387 376/630/387
f 378/621/388 376/630/388 377/628/388
f 372/612/389 370/611/389 376/630/389
o Cube
v 3.556167 0.141433 -3.590292
v 3.408632 0.727754 -3.284167
v 3.760669 0.657826 -3.511109
v 3.755439 0.669587 -3.137538
v 3.293303 0.453339 -3.560134
v 3.880455 0.309193 -3.497882
v 3.934096 0.403505 -3.188169
v 3.370301 0.437984 -3.025324
v 3.400094 0.116878 -3.191177
v 3.656732 0.176457 -3.039728
vn 0.1771 0.9838 -0.0285
vn 0.8297 0.5582 -0.0060
vn -0.9775 -0.1610 0.1361
vn -0.9558 0.2559 0.1450
vn 0.5502 -0.8346 0.0269
vn -0.2568 0.7368 -0.6254
vn 0.1292 0.1001 -0.9866
vn 0.9181 0.3059 -0.2521
vn -0.7384 -0.5909 -0.3251
vn 0.2131 -0.9768 0.0232
vn 0.2825 0.1319 0.9502
vn -0.3728 -0.4529 0.8099
vn -0.1920 0.6678 0.7191
vt 0.550384 0.206938
vt 0.375000 0.305791
vt 0.375000 0.049496
vt 0.180791 0.500000
vt 0.330928 0.574320
vt 0.125000 0.700504
vt 0.804283 0.500000
vt 0.842867 0.681766
vt 0.658516 0.626313
vt 0.875000 0.500000
vt 0.501754 0.540833
vt 0.565165 0.799791
vt 0.325310 0.750000
vt 0.604031 0.069198
vt 0.375000 1.000000
vt 0.375000 0.799690
vt 0.578028 1.000000
vt 0.615335 0.592735
vt 0.589707 0.775249
vt 0.581909 0.353207
s 0
g Cube_Material
usemtl Material
f 380/631/390 382/632/390 381/633/390
f 382/634/391 385/635/391 381/636/391
f 386/637/392 383/638/392 387/639/392
f 383/638/393 386/637/393 380/640/393
f 388/641/394 379/642/394 384/643/394 385/635/394
f 381/633/395 383/644/395 380/631/395
f 381/645/396 384/646/396 379/642/396 383/647/396
f 385/635/397 384/643/397 381/636/397
f 387/648/398 383/638/398 379/649/398
f 379/642/399 388/641/399 387/648/399
f 388/641/400 385/635/400 382/632/400 386/650/400
f 388/641/401 386/650/401 387/648/401
f 382/632/402 380/631/402 386/650/402
o Cube
v -4.369312 0.719877 -0.526719
v -4.623203 0.201623 -0.735967
v -4.244395 0.260205 -0.703815
v -4.409833 0.267298 -0.999155
v -4.593969 0.434623 -0.453036
v -4.152142 0.578239 -0.748450
v -4.243745 0.508657 -1.022555
v -4.763288 0.475371 -0.910660
v -4.665642 0.758391 -0.775500
v -4.527030 0.716225 -1.009561
vn 0.1613 -0.9803 -0.1139
vn 0.7278 -0.5416 -0.4207
vn -0.9230 0.1490 0.3548
vn -0.9115 -0.2663 0.3135
vn 0.4777 0.8453 -0.2391
vn 0.0661 -0.7736 0.6302
vn 0.5827 -0.1494 0.7988
vn 0.9248 -0.3009 -0.2327
vn -0.4896 0.5585 0.6696
vn 0.1842 0.9806 -0.0676
vn -0.2053 -0.0762 -0.9757
vn -0.7099 0.4876 -0.5082
vn -0.5168 -0.6326 -0.5768
vt 0.550384 0.206938
vt 0.375000 0.305791
vt 0.375000 0.049496
vt 0.180791 0.500000
vt 0.330928 0.574320
vt 0.125000 0.700504
vt 0.804283 0.500000
vt 0.842867 0.681766
vt 0.658516 0.626313
vt 0.875000 0.500000
vt 0.501754 0.540833
vt 0.565165 0.799791
vt 0.325310 0.750000
vt 0.604031 0.069198
vt 0.375000 1.000000
vt 0.375000 0.799690
vt 0.578028 1.000000
vt 0.615335 0.592735
vt 0.589707 0.775249
vt 0.581909 0.353207
s 0
g Cube_Material
usemtl Material
f 390/651/403 392/652/403 391/653/403
f 392/654/404 395/655/404 391/656/404
f 396/657/405 393/658/405 397/659/405
f 393/658/406 396/657/406 390/660/406
f 398/661/407 389/662/407 394/663/407 395/655/407
f 391/653/408 393/664/408 390/651/408
f 391/665/409 394/666/409 389/662/409 393/667/409
f 395/655/410 394/663/410 391/656/410
f 397/668/411 393/658/411 389/669/411
f 389/662/412 398/661/412 397/668/412
f 398/661/413 395/655/413 392/652/413 396/670/413
f 398/661/414 396/670/414 397/668/414
f 392/652/415 390/651/415 396/670/415
o Cube
v 2.712626 0.086578 -3.251153
v 3.273057 -0.376253 -3.427047
v 3.326752 0.029055 -3.198089
v 3.424860 -0.022191 -3.595440
v 2.887386 -0.326955 -3.204651
v 3.056201 0.314737 -3.302391
v 3.247164 0.288362 -3.608948
v 3.039039 -0.301464 -3.780974
v 2.707205 -0.098440 -3.687165
v 2.927912 0.109150 -3.830862
vn 0.9256 -0.2715 0.2636
vn 0.8557 0.4960 0.1473
vn -0.5500 -0.8154 -0.1808
vn -0.1772 -0.9801 -0.0900
vn -0.4694 0.8554 -0.2188
vn 0.3869 -0.4919 0.7800
vn -0.0692 0.1680 0.9834
vn 0.6235 0.7100 0.3273
vn -0.9147 -0.3677 0.1674
vn -0.7451 0.6173 -0.2527
vn 0.4476 0.1012 -0.8885
vn -0.3843 -0.2132 -0.8982
vn 0.6480 -0.5354 -0.5416
vt 0.550384 0.206938
vt 0.375000 0.305791
vt 0.375000 0.049496
vt 0.180791 0.500000
vt 0.330928 0.574320
vt 0.125000 0.700504
vt 0.804283 0.500000
vt 0.842867 0.681766
vt 0.658516 0.626313
vt 0.875000 0.500000
vt 0.501754 0.540833
vt 0.565165 0.799791
vt 0.325310 0.750000
vt 0.604031 0.069198
vt 0.375000 1.000000
vt 0.375000 0.799690
vt 0.578028 1.000000
vt 0.615335 0.592735
vt 0.589707 0.775249
vt 0.581909 0.353207
s 0
g Cube_Material
usemtl Material
f 400/671/416 402/672/416 401/673/416
f 402/674/417 405/675/417 401/676/417
f 406/677/418 403/678/418 407/679/418
f 403/678/419 406/677/419 400/680/419
f 408/681/420 399/682/420 404/683/420 405/675/420
f 401/673/421 403/684/421 400/671/421
f 401/685/422 404/686/422 399/682/422 403/687/422
f 405/675/423 404/683/423 401/676/423
f 407/688/424 403/678/424 399/689/424
f 399/682/425 408/681/425 407/688/425
f 408/681/426 405/675/426 402/672/426 406/690/426
f 408/681/427 406/690/427 407/688/427
f 402/672/428 400/671/428 406/690/428
o Cube
v -4.147484 0.227349 -0.432330
v -4.132949 0.565117 -0.743776
v -4.375740 0.452687 -0.637114
v -4.288125 0.400994 -0.869354
v -4.062479 0.485080 -0.489938
v -4.357524 0.210550 -0.576770
v -4.339685 0.199153 -0.798357
v -3.978790 0.366340 -0.826582
v -3.956362 0.196748 -0.649837
v -4.086308 0.128190 -0.794414
vn -0.5189 0.7718 -0.3675
vn -0.9225 0.1050 -0.3714
vn 0.9519 0.2724 0.1406
vn 0.7853 0.6186 -0.0230
vn -0.1655 -0.9728 0.1619
vn -0.2598 0.8980 0.3552
vn -0.4885 0.2617 0.8324
vn -0.9928 -0.0934 -0.0751
vn 0.7410 -0.0958 0.6646
vn 0.1766 -0.9413 0.2876
vn 0.0354 -0.2403 -0.9701
vn 0.7661 -0.4124 -0.4930
vn 0.1730 0.4901 -0.8543
vt 0.550384 0.206938
vt 0.375000 0.305791
vt 0.375000 0.049496
vt 0.180791 0.500000
vt 0.330928 0.574320
vt 0.125000 0.700504
vt 0.804283 0.500000
vt 0.842867 0.681766
vt 0.658516 0.626313
vt 0.875000 0.500000
vt 0.501754 0.540833
vt 0.565165 0.799791
vt 0.325310 0.750000
vt 0.604031 0.069198
vt 0.375000 1.000000
vt 0.375000 0.799690
vt 0.578028 1.000000
vt 0.615335 0.592735
vt 0.589707 0.775249
vt 0.581909 0.353207
s 0
g Cube_Material
usemtl Material
f 410/691/429 412/692/429 411/693/429
f 412/694/430 415/695/430 411/696/430
f 416/697/431 413/698/431 417/699/431
f 413/698/432 416/697/432 410/700/432
f 418/701/433 409/702/433 414/703/433 415/695/433
f 411/693/434 413/704/434 410/691/434
f 411/705/435 414/706/435 409/702/435 413/707/435
f 415/695/436 414/703/436 411/696/436
f 417/708/437 413/698/437 409/709/437
f 409/702/438 418/701/438 417/708/438
f 418/701/439 415/695/439 412/692/439 416/710/439
f 418/701/440 416/710/440 417/708/440
f 412/692/441 410/691/441 416/710/441
o Cube
v -1.445757 0.607069 -2.780935
v -1.683388 0.292051 -3.336510
v -1.480396 0.095554 -3.016330
v -1.320691 0.169241 -3.348507
v -1.775993 0.517628 -3.009192
v -1.225756 0.306156 -2.847838
v -1.085792 0.266554 -3.144040
v -1.467135 0.599870 -3.448833
v -1.375957 0.802257 -3.159533
v -1.133828 0.639038 -3.249593
vn -0.3112 -0.8852 -0.3460
vn 0.3936 -0.9192 -0.0147
vn -0.6256 0.7180 -0.3052
vn -0.7893 0.3780 -0.4838
vn 0.8084 0.3490 0.4741
vn -0.8068 -0.5678 0.1631
vn -0.3881 -0.3635 0.8469
vn 0.4631 -0.8230 0.3289
vn -0.4573 0.8220 0.3395
vn 0.6082 0.6543 0.4494
vn 0.5882 -0.0642 -0.8062
vn 0.2758 0.7446 -0.6078
vn -0.1211 -0.2641 -0.9569
vt 0.550384 0.206938
vt 0.375000 0.305791
vt 0.375000 0.049496
vt 0.180791 0.500000
vt 0.330928 0.574320
vt 0.125000 0.700504
vt 0.804283 0.500000
vt 0.842867 0.681766
vt 0.658516 0.626313
vt 0.875000 0.500000
vt 0.501754 0.540833
vt 0.565165 0.799791
vt 0.325310 0.750000
vt 0.604031 0.069198
vt 0.375000 1.000000
vt 0.375000 0.799690
vt 0.578028 1.000000
vt 0.615335 0.592735
vt 0.589707 0.775249
vt 0.581909 0.353207
s 0
g Cube_Material
usemtl Material
f 420/711/442 422/712/442 421/713/442
f 422/714/443 425/715/443 421/716/443
f 426/717/444 423/718/444 427/719/444
f 423/718/445 426/717/445 420/720/445
f 428/721/446 419/722/446 424/723/446 425/715/446
f 421/713/447 423/724/447 420/711/447
f 421/725/448 424/726/448 419/722/448 423/727/448
f 425/715/449 424/723/449 421/716/449
f 427/728/450 423/718/450 419/729/450
f 419/722/451 428/721/451 427/728/451
f 428/721/452 425/715/452 422/712/452 426/730/452
f 428/721/453 426/730/453 427/728/453
f 422/712/454 420/711/454 426/730/454
o Cube
v -2.833056 -0.376004 -2.228335
v -2.834595 -0.436865 -2.820148
v -2.574199 -0.251393 -2.628393
v -2.810407 -0.103765 -2.801874
v -2.825164 -0.604041 -2.505590
v -2.685031 -0.110616 -2.358640
v -2.820046 0.045631 -2.559534
v -3.142414 -0.323936 -2.720259
v -3.163815 -0.328950 -2.402663
v -3.128697 -0.077681 -2.485155
vn 0.5924 0.0012 -0.8056
vn 0.6722 0.6419 -0.3690
vn -0.6396 -0.7667 -0.0552
vn -0.4289 -0.8030 -0.4139
vn -0.1747 0.6116 0.7717
vn 0.7008 -0.6210 -0.3510
vn 0.8300 -0.3621 0.4243
vn 0.7681 0.6400 -0.0184
vn -0.4039 -0.7121 0.5742
vn -0.4013 0.3358 0.8521
vn -0.4944 0.6714 -0.5521
vn -0.9910 0.1172 -0.0649
vn -0.2835 0.0730 -0.9562
vt 0.550384 0.206938
vt 0.375000 0.305791
vt 0.375000 0.049496
vt 0.180791 0.500000
vt 0.330928 0.574320
vt 0.125000 0.700504
vt 0.804283 0.500000
vt 0.842867 0.681766
vt 0.658516 0.626313
vt 0.875000 0.500000
vt 0.501754 0.540833
vt 0.565165 0.799791
vt 0.325310 0.750000
vt 0.604031 0.069198
vt 0.375000 1.000000
vt 0.375000 0.799690
vt 0.578028 1.000000
vt 0.615335 0.592735
vt 0.589707 0.775249
vt 0.581909 0.353207
s 0
g Cube_Material
usemtl Material
f 430/731/455 432/732/455 431/733/455
f 432/734/456 435/735/456 431/736/456
f 436/737/457 433/738/457 437/739/457
f 433/738/458 436/737/458 430/740/458
f 438/741/459 429/742/459 434/743/459 435/735/459
f 431/733/460 433/744/460 430/731/460
f 431/745/461 434/746/461 429/742/461 433/747/461
f 435/735/462 434/743/462 431/736/462
f 437/748/463 433/738/463 429/749/463
f 429/742/464 438/741/464 437/748/464
f 438/741/465 435/735/465 432/732/465 436/750/465
f 438/741/466 436/750/466 437/748/466
f 432/732/467 430/731/467 436/750/467
o Cube
v 3.672197 0.444299 0.073377
v 3.801586 -0.171910 0.453187
v 4.099693 0.177323 0.414774
v 4.137905 -0.172308 0.212780
v 3.543670 0.182200 0.407669
v 4.074823 0.374579 0.067391
v 4.199566 0.060290 -0.044225
v 3.669098 -0.276765 0.064695
v 3.547609 0.043612 -0.128769
v 3.843760 -0.046972 -0.241989
vn 0.5384 -0.3767 0.7538
vn 0.9760 -0.0188 0.2171
vn -0.9465 -0.3141 0.0742
vn -0.7652 -0.5063 0.3976
vn 0.1865 0.5128 -0.8380
vn -0.0116 0.1191 0.9928
vn 0.0634 0.8231 0.5643
vn 0.9366 0.3292 0.1199
vn -0.9362 0.3387 -0.0944
vn -0.1780 0.4868 -0.8552
vn 0.4004 -0.7836 -0.4750
vn -0.4396 -0.5806 -0.6854
vn 0.1490 -0.9663 0.2100
vt 0.550384 0.206938
vt 0.375000 0.305791
vt 0.375000 0.049496
vt 0.180791 0.500000
vt 0.330928 0.574320
vt 0.125000 0.700504
vt 0.804283 0.500000
vt 0.842867 0.681766
vt 0.658516 0.626313
vt 0.875000 0.500000
vt 0.501754 0.540833
vt 0.565165 0.799791
vt 0.325310 0.750000
vt 0.604031 0.069198
vt 0.375000 1.000000
vt 0.375000 0.799690
vt 0.578028 1.000000
vt 0.615335 0.592735
vt 0.589707 0.775249
vt 0.581909 0.353207
s 0
g Cube_Material
usemtl Material
f 440/751/468 442/752/468 441/753/468
f 442/754/469 445/755/469 441/756/469
f 446/757/470 443/758/470 447/759/470
f 443/758/471 446/757/471 440/760/471
f 448/761/472 439/762/472 444/763/472 445/755/472
f 441/753/473 443/764/473 440/751/473
f 441/765/474 444/766/474 439/762/474 443/767/474
f 445/755/475 444/763/475 441/756/475
f 447/768/476 443/758/476 439/769/476
f 439/762/477 448/761/477 447/768/477
f 448/761/478 445/755/478 442/752/478 446/770/478
f 448/761/479 446/770/479 447/768/479
f 442/752/480 440/751/480 446/770/480
o Cube
v -0.077042 0.307052 2.713523
v -0.299917 0.953701 3.161460
v -0.021425 0.981365 2.732333
v 0.153062 1.030107 3.145314
v -0.451766 0.569598 2.898343
v 0.240601 0.628181 2.664065
v 0.413296 0.786782 2.983093
v -0.102440 0.633814 3.445284
v -0.032242 0.260974 3.227396
v 0.285411 0.439192 3.269299
vn -0.1677 0.9848 -0.0454
vn 0.5341 0.7833 -0.3181
vn -0.7319 -0.4413 0.5193
vn -0.8401 -0.0385 0.5411
vn 0.7438 -0.6204 -0.2488
vn -0.7065 0.5683 -0.4219
vn -0.3241 0.0531 -0.9445
vn 0.5881 0.5508 -0.5922
vn -0.5810 -0.8136 -0.0223
vn 0.4978 -0.8589 -0.1204
vn 0.5895 0.2902 0.7538
vn 0.1534 -0.4769 0.8655
vn -0.0795 0.6337 0.7695
vt 0.550384 0.206938
vt 0.375000 0.305791
vt 0.375000 0.049496
vt 0.180791 0.500000
vt 0.330928 0.574320
vt 0.125000 0.700504
vt 0.804283 0.500000
vt 0.842867 0.681766
vt 0.658516 0.626313
vt 0.875000 0.500000
vt 0.501754 0.540833
vt 0.565165 0.799791
vt 0.325310 0.750000
vt 0.604031 0.069198
vt 0.375000 1.000000
vt 0.375000 0.799690
vt 0.578028 1.000000
vt 0.615335 0.592735
vt 0.589707 0.775249
vt 0.581909 0.353207
s 0
g Cube_Material
usemtl Material
f 450/771/481 452/772/481 451/773/481
f 452/774/482 455/775/482 451/776/482
f 456/777/483 453/778/483 457/779/483
f 453/778/484 456/777/484 450/780/484
f 458/781/485 449/782/485 454/783/485 455/775/485
f 451/773/486 453/784/486 450/771/486
f 451/785/487 454/786/487 449/782/487 453/787/487
f 455/775/488 454/783/488 451/776/488
f 457/788/489 453/778/489 449/789/489
f 449/782/490 458/781/490 457/788/490
f 458/781/491 455/775/491 452/772/491 456/790/491
f 458/781/492 456/790/492 457/788/492
f 452/772/493 450/771/493 456/790/493
o Cube
v -2.819873 0.262064 -1.063803
v -2.400238 -0.085767 -0.967260
v -2.733115 -0.181258 -0.986780
v -2.580062 -0.157637 -0.723655
v -2.533357 0.133285 -1.177547
v -2.926525 0.029735 -0.892677
v -2.805757 -0.033228 -0.661806
v -2.378378 0.159800 -0.764973
v -2.575680 0.368977 -0.836055
v -2.655555 0.244666 -0.636607
vn 0.2791 -0.9572 -0.0764
vn -0.3936 -0.8666 0.3068
vn 0.7414 0.5917 -0.3165
vn 0.9103 0.2119 -0.3556
vn -0.7703 0.5007 0.3949
vn 0.2181 -0.6036 -0.7669
vn -0.5259 -0.2445 -0.8147
vn -0.6884 -0.7057 0.1676
vn 0.1517 0.8222 -0.5486
vn -0.5764 0.7769 0.2534
vn 0.2951 -0.1488 0.9438
vn 0.4742 0.6493 0.5946
vn 0.7803 -0.4376 0.4469
vt 0.550384 0.206938
vt 0.375000 0.305791
vt 0.375000 0.049496
vt 0.180791 0.500000
vt 0.330928 0.574320
vt 0.125000 0.700504
vt 0.804283 0.500000
vt 0.842867 0.681766
vt 0.658516 0.626313
vt 0.875000 0.500000
vt 0.501754 0.540833
vt 0.565165 0.799791
vt 0.325310 0.750000
vt 0.604031 0.069198
vt 0.375000 1.000000
vt 0.375000 0.799690
vt 0.578028 1.000000
vt 0.615335 0.592735
vt 0.589707 0.775249
vt 0.581909 0.353207
s 0
g Cube_Material
usemtl Material
f 460/791/494 462/792/494 461/793/494
f 462/794/495 465/795/495 461/796/495
f 466/797/496 463/798/496 467/799/496
f 463/798/497 466/797/497 460/800/497
f 468/801/498 459/802/498 464/803/498 465/795/498
f 461/793/499 463/804/499 460/791/499
f 461/805/500 464/806/500 459/802/500 463/807/500
f 465/795/501 464/803/501 461/796/501
f 467/808/502 463/798/502 459/809/502
f 459/802/503 468/801/503 467/808/503
f 468/801/504 465/795/504 462/792/504 466/810/504
f 468/801/505 466/810/505 467/808/505
f 462/792/506 460/791/506 466/810/506
o Cube
v -1.008813 -0.174935 3.016943
v -0.996233 0.265214 2.557258
v -0.684220 0.170782 2.787104
v -0.873155 0.463836 2.828320
v -1.053534 -0.101988 2.642401
v -0.770726 0.070620 3.107318
v -0.851754 0.367879 3.116806
v -1.283910 0.330572 2.775122
v -1.324696 0.074788 2.996340
v -1.209286 0.298723 3.130554
vn 0.6096 0.4816 -0.6297
vn 0.8423 0.5271 0.1129
vn -0.8241 -0.2896 -0.4868
vn -0.6139 -0.0862 -0.7847
vn -0.0365 -0.1706 0.9847
vn 0.5171 -0.2691 -0.8125
vn 0.6736 -0.7257 -0.1403
vn 0.9159 0.2394 0.3223
vn -0.6150 -0.7845 -0.0794
vn -0.3348 -0.3514 0.8743
vn -0.2590 0.9393 0.2251
vn -0.9145 0.3381 0.2223
vn -0.2028 0.8315 -0.5172
vt 0.550384 0.206938
vt 0.375000 0.305791
vt 0.375000 0.049496
vt 0.180791 0.500000
vt 0.330928 0.574320
vt 0.125000 0.700504
vt 0.804283 0.500000
vt 0.842867 0.681766
vt 0.658516 0.626313
vt 0.875000 0.500000
vt 0.501754 0.540833
vt 0.565165 0.799791
vt 0.325310 0.750000
vt 0.604031 0.069198
vt 0.375000 1.000000
vt 0.375000 0.799690
vt 0.578028 1.000000
vt 0.615335 0.592735
vt 0.589707 0.775249
vt 0.581909 0.353207
s 0
g Cube_Material
usemtl Material
f 470/811/507 472/812/507 471/813/507
f 472/814/508 475/815/508 471/816/508
f 476/817/509 473/818/509 477/819/509
f 473/818/510 476/817/510 470/820/510
f 478/821/511 469/822/511 474/823/511 475/815/511
f 471/813/512 473/824/512 470/811/512
f 471/825/513 474/826/513 469/822/513 473/827/513
f 475/815/514 474/823/514 471/816/514
f 477/828/515 473/818/515 469/829/515
f 469/822/516 478/821/516 477/828/516
f 478/821/517 475/815/517 472/812/517 476/830/517
f 478/821/518 476/830/518 477/828/518
f 472/812/519 470/811/519 476/830/519
o Cube
v -2.021652 0.104066 0.951353
v -2.183438 0.267601 1.546877
v -2.146001 -0.109442 1.418559
v -2.456743 0.046982 1.473030
v -1.918186 0.290339 1.272388
v -2.227302 -0.153069 1.083534
v -2.504781 -0.084124 1.201118
v -2.400647 0.448460 1.311526
v -2.291939 0.402214 0.990983
v -2.524516 0.241646 1.036614
vn 0.0040 -0.3218 0.9468
vn -0.3349 -0.8242 0.4566
vn 0.3089 0.9505 -0.0324
vn 0.3159 0.8705 0.3774
vn -0.3208 -0.3464 -0.8815
vn 0.7164 -0.1600 0.6791
vn 0.8270 -0.5611 -0.0363
vn -0.1702 -0.9710 0.1677
vn 0.5869 0.6038 -0.5395
vn -0.1743 -0.0272 -0.9843
vn -0.9660 0.1444 0.2144
vn -0.5808 0.7544 -0.3058
vn -0.5150 0.3809 0.7680
vt 0.550384 0.206938
vt 0.375000 0.305791
vt 0.375000 0.049496
vt 0.180791 0.500000
vt 0.330928 0.574320
vt 0.125000 0.700504
vt 0.804283 0.500000
vt 0.842867 0.681766
vt 0.658516 0.626313
vt 0.875000 0.500000
vt 0.501754 0.540833
vt 0.565165 0.799791
vt 0.325310 0.750000
vt 0.604031 0.069198
vt 0.375000 1.000000
vt 0.375000 0.799690
vt 0.578028 1.000000
vt 0.615335 0.592735
vt 0.589707 0.775249
vt 0.581909 0.353207
s 0
g Cube_Material
usemtl Material
f 480/831/520 482/832/520 481/833/520
f 482/834/521 485/835/521 481/836/521
f 486/837/522 483/838/522 487/839/522
f 483/838/523 486/837/523 480/840/523
f 488/841/524 479/842/524 484/843/524 485/835/524
f 481/833/525 483/844/525 480/831/525
f 481/845/526 484/846/526 479/842/526 483/847/526
f 485/835/527 484/843/527 481/836/527
f 487/848/528 483/838/528 479/849/528
f 479/842/529 488/841/529 487/848/529
f 488/841/530 485/835/530 482/832/530 486/850/530
f 488/841/531 486/850/531 487/848/531
f 482/832/532 480/831/532 486/850/532
o Cube
v -0.313274 0.272498 2.439078
v -0.592497 0.112114 2.853521
v -0.263875 0.116627 2.841629
v -0.420975 -0.125439 2.818706
v -0.527581 0.350349 2.658967
v -0.156711 0.071254 2.580729
v -0.257642 -0.156666 2.630310
v -0.694327 -0.030083 2.606866
v -0.575324 0.077761 2.376472
v -0.476128 -0.129882 2.425802
vn 0.0375 -0.1183 0.9923
vn 0.6285 -0.4668 0.6222
vn -0.8722 0.4173 -0.2552
vn -0.9121 0.3781 0.1586
vn 0.5551 -0.2775 -0.7842
vn 0.0195 0.6292 0.7770
vn 0.6158 0.7573 0.2176
vn 0.8649 -0.2946 0.4065
vn -0.3730 0.6984 -0.6108
vn 0.2920 -0.0868 -0.9525
vn -0.2805 -0.9585 0.0502
vn -0.6820 -0.4607 -0.5679
vn -0.6261 -0.5352 0.5670
vt 0.550384 0.206938
vt 0.375000 0.305791
vt 0.375000 0.049496
vt 0.180791 0.500000
vt 0.330928 0.574320
vt 0.125000 0.700504
vt 0.804283 0.500000
vt 0.842867 0.681766
vt 0.658516 0.626313
vt 0.875000 0.500000
vt 0.501754 0.540833
vt 0.565165 0.799791
vt 0.325310 0.750000
vt 0.604031 0.069198
vt 0.375000 1.000000
vt 0.375000 0.799690
vt 0.578028 1.000000
vt 0.615335 0.592735
vt 0.589707 0.775249
vt 0.581909 0.353207
s 0
g Cube_Material
usemtl Material
f 490/851/533 492/852/533 491/853/533
f 492/854/534 495/855/534 491/856/534
f 496/857/535 493/858/535 497/859/535
f 493/858/536 496/857/536 490/860/536
f 498/861/537 489/862/537 494/863/537 495/855/537
f 491/853/538 493/864/538 490/851/538
f 491/865/539 494/866/539 489/862/539 493/867/539
f 495/855/540 494/863/540 491/856/540
f 497/868/541 493/858/541 489/869/541
f 489/862/542 498/861/542 497/868/542
f 498/861/543 495/855/543 492/852/543 496/870/543
f 498/861/544 496/870/544 497/868/544
f 492/852/545 490/851/545 496/870/545
o Cube
v 0.285210 0.253873 -1.986563
v -0.002352 0.191124 -1.591224
v 0.201781 -0.017049 -1.693085
v -0.066681 -0.040624 -1.728833
v 0.208383 0.354823 -1.717497
v 0.236536 -0.014278 -1.959088
v 0.012041 -0.094042 -1.944791
v -0.164447 0.271346 -1.810131
v -0.013403 0.340372 -2.015021
v -0.101130 0.140979 -2.052370
vn -0.0719 -0.4944 0.8663
vn 0.0505 -0.9651 0.2571
vn -0.2492 0.9584 0.1392
vn -0.3076 0.7970 0.5198
vn 0.1557 -0.2374 -0.9588
vn 0.4853 0.0487 0.8730
vn 0.9742 -0.0667 0.2154
vn 0.3365 -0.9411 0.0342
vn 0.2915 0.9200 -0.2620
vn 0.1304 0.1268 -0.9833
vn -0.9106 -0.3941 -0.1242
vn -0.7899 0.4295 -0.4376
vn -0.8175 -0.1088 0.5655
vt 0.550384 0.206938
vt 0.375000 0.305791
vt 0.375000 0.049496
vt 0.180791 0.500000
vt 0.330928 0.574320
vt 0.125000 0.700504
vt 0.804283 0.500000
vt 0.842867 0.681766
vt 0.658516 0.626313
vt 0.875000 0.500000
vt 0.501754 0.540833
vt 0.565165 0.799791
vt 0.325310 0.750000
vt 0.604031 0.069198
vt 0.375000 1.000000
vt 0.375000 0.799690
vt 0.578028 1.000000
vt 0.615335 0.592735
vt 0.589707 0.775249
vt 0.581909 0.353207
s 0
g Cube_Material
usemtl Material
f 500/871/546 502/872/546 501/873/546
f 502/874/547 505/875/547 501/876/547
f 506/877/548 503/878/548 507/879/548
f 503/878/549 506/877/549 500/880/549
f 508/881/550 499/882/550 504/883/550 505/875/550
f 501/873/551 503/884/551 500/871/551
f 501/885/552 504/886/552 499/882/552 503/887/552
f 505/875/553 504/883/553 501/876/553
f 507/888/554 503/878/554 499/889/554
f 499/882/555 508/881/555 507/888/555
f 508/881/556 505/875/556 502/872/556 506/890/556
f 508/881/557 506/890/557 507/888/557
f 502/872/558 500/871/558 506/890/558
o Cube
v -1.503250 -0.062940 1.231213
v -1.543709 0.460475 1.167533
v -1.291227 0.277415 1.055518
v -1.273229 0.449354 1.290453
v -1.674610 0.177741 1.110469
v -1.231481 0.048286 1.219186
v -1.163651 0.238164 1.377060
v -1.586682 0.394054 1.461752
v -1.603820 0.113846 1.497354
v -1.391397 0.189699 1.570548
vn 0.2944 0.7603 -0.5790
vn 0.8895 0.3335 -0.3122
vn -0.9776 0.0843 0.1928
vn -0.9041 0.4258 -0.0359
vn 0.4437 -0.7431 0.5010
vn -0.2083 0.2852 -0.9356
vn 0.0694 -0.4914 -0.8682
vn 0.9283 -0.0230 -0.3711
vn -0.8269 -0.5592 0.0590
vn 0.0922 -0.8130 0.5749
vn 0.3640 0.6015 0.7111
vn -0.3667 0.1393 0.9199
vn -0.0562 0.9756 0.2120
vt 0.550384 0.206938
vt 0.375000 0.305791
vt 0.375000 0.049496
vt 0.180791 0.500000
vt 0.330928 0.574320
vt 0.125000 0.700504
vt 0.804283 0.500000
vt 0.842867 0.681766
vt 0.658516 0.626313
vt 0.875000 0.500000
vt 0.501754 0.540833
vt 0.565165 0.799791
vt 0.325310 0.750000
vt 0.604031 0.069198
vt 0.375000 1.000000
vt 0.375000 0.799690
vt 0.578028 1.000000
vt 0.615335 0.592735
vt 0.589707 0.775249
vt 0.581909 0.353207
s 0
g Cube_Material
usemtl Material
f 510/891/559 512/892/559 511/893/559
f 512/894/560 515/895/560 511/896/560
f 516/897/561 513/898/561 517/899/561
f 513/898/562 516/897/562 510/900/562
f 518/901/563 509/902/563 514/903/563 515/895/563
f 511/893/564 513/904/564 510/891/564
f 511/905/565 514/906/565 509/902/565 513/907/565
f 515/895/566 514/903/566 511/896/566
f 517/908/567 513/898/567 509/909/567
f 509/902/568 518/901/568 517/908/568
f 518/901/569 515/895/569 512/892/569 516/910/569
f 518/901/570 516/910/570 517/908/570
f 512/892/571 510/891/571 516/910/571
o Cube
v 1.272985 0.092834 1.688308
v 1.109446 -0.160176 0.919517
v 1.449507 0.211149 1.038602
v 1.037738 0.294972 0.862966
v 1.273020 -0.289051 1.368113
v 1.340544 0.447484 1.405041
v 1.050456 0.561577 1.154615
v 0.698801 -0.062216 1.138782
v 0.769708 0.017531 1.567549
v 0.708257 0.337411 1.391479
vn 0.3824 -0.0544 -0.9224
vn 0.4031 0.6666 -0.6270
vn -0.4366 -0.8688 0.2338
vn -0.3078 -0.9383 -0.1573
vn -0.1391 0.7146 0.6856
vn 0.7322 -0.5356 -0.4208
vn 0.9646 -0.1007 0.2437
vn 0.5718 0.7563 -0.3178
vn -0.0874 -0.6400 0.7633
vn -0.2708 0.4237 0.8644
vn -0.7482 0.4345 -0.5013
vn -0.9798 -0.0898 0.1787
vn -0.4967 -0.1837 -0.8482
vt 0.550384 0.206938
vt 0.375000 0.305791
vt 0.375000 0.049496
vt 0.180791 0.500000
vt 0.330928 0.574320
vt 0.125000 0.700504
vt 0.804283 0.500000
vt 0.842867 0.681766
vt 0.658516 0.626313
vt 0.875000 0.500000
vt 0.501754 0.540833
vt 0.565165 0.799791
vt 0.325310 0.750000
vt 0.604031 0.069198
vt 0.375000 1.000000
vt 0.375000 0.799690
vt 0.578028 1.000000
vt 0.615335 0.592735
vt 0.589707 0.775249
vt 0.581909 0.353207
s 0
g Cube_Material
usemtl Material
f 520/911/572 522/912/572 521/913/572
f 522/914/573 525/915/573 521/916/573
f 526/917/574 523/918/574 527/919/574
f 523/918/575 526/917/575 520/920/575
f 528/921/576 519/922/576 524/923/576 525/915/576
f 521/913/577 523/924/577 520/911/577
f 521/925/578 524/926/578 519/922/578 523/927/578
f 525/915/579 524/923/579 521/916/579
f 527/928/580 523/918/580 519/929/580
f 519/922/581 528/921/581 527/928/581
f 528/921/582 525/915/582 522/912/582 526/930/582
f 528/921/583 526/930/583 527/928/583
f 522/912/584 520/911/584 526/930/584
