# Blender 4.1.0
# www.blender.org
mtllib Explosion20011.mtl
o Circle
v -0.024615 0.096888 -1.522372
v -0.024615 0.242742 -1.522372
v 0.122545 0.096888 -1.515142
v 0.122545 0.242742 -1.515142
v 0.268288 0.096888 -1.493523
v 0.268288 0.242742 -1.493523
v 0.411211 0.096888 -1.457723
v 0.411211 0.242742 -1.457723
v 0.549936 0.096888 -1.408086
v 0.549936 0.242742 -1.408086
v 0.683127 0.096888 -1.345092
v 0.683127 0.242742 -1.345092
v 0.809503 0.096888 -1.269345
v 0.809503 0.242742 -1.269345
v 0.927846 0.096888 -1.181576
v 0.927846 0.242742 -1.181576
v 1.037016 0.096888 -1.082630
v 1.037016 0.242742 -1.082630
v 1.135962 0.096888 -0.973460
v 1.135962 0.242742 -0.973460
v 1.223731 0.096888 -0.855117
v 1.223731 0.242742 -0.855117
v 1.299478 0.096888 -0.728741
v 1.299478 0.242742 -0.728741
v 1.362473 0.096888 -0.595549
v 1.362473 0.242742 -0.595549
v 1.412110 0.096888 -0.456824
v 1.412110 0.242742 -0.456824
v 1.447910 0.096888 -0.313902
v 1.447910 0.242742 -0.313902
v 1.469529 0.096888 -0.168159
v 1.469529 0.242742 -0.168159
v 1.476758 0.096888 -0.020998
v 1.476758 0.242742 -0.020998
v 1.469529 0.096888 0.126162
v 1.469529 0.242742 0.126162
v 1.447910 0.096888 0.271905
v 1.447910 0.242742 0.271905
v 1.412110 0.096888 0.414827
v 1.412110 0.242742 0.414827
v 1.362473 0.096888 0.553553
v 1.362473 0.242742 0.553553
v 1.299478 0.096888 0.686744
v 1.299478 0.242742 0.686744
v 1.223731 0.096888 0.813120
v 1.223731 0.242742 0.813120
v 1.135962 0.096888 0.931463
v 1.135962 0.242742 0.931463
v 1.037016 0.096888 1.040633
v 1.037016 0.242742 1.040633
v 0.927846 0.096888 1.139579
v 0.927846 0.242742 1.139579
v 0.809503 0.096888 1.227348
v 0.809503 0.242742 1.227348
v 0.683127 0.096888 1.303095
v 0.683127 0.242742 1.303095
v 0.549936 0.096888 1.366090
v 0.549936 0.242742 1.366090
v 0.411211 0.096888 1.415727
v 0.411211 0.242742 1.415727
v 0.268288 0.096888 1.451527
v 0.268288 0.242742 1.451527
v 0.122545 0.096888 1.473146
v 0.122545 0.242742 1.473146
v -0.024615 0.096888 1.480376
v -0.024615 0.242742 1.480376
v -0.171775 0.096888 1.473146
v -0.171775 0.242742 1.473146
v -0.317519 0.096888 1.451527
v -0.317519 0.242742 1.451527
v -0.460441 0.096888 1.415727
v -0.460441 0.242742 1.415727
v -0.599166 0.096888 1.366090
v -0.599166 0.242742 1.366090
v -0.732358 0.096888 1.303095
v -0.732358 0.242742 1.303095
v -0.858734 0.096888 1.227348
v -0.858734 0.242742 1.227348
v -0.977076 0.096888 1.139579
v -0.977076 0.242742 1.139579
v -1.086246 0.096888 1.040633
v -1.086246 0.242742 1.040633
v -1.185192 0.096888 0.931463
v -1.185192 0.242742 0.931463
v -1.272961 0.096888 0.813120
v -1.272961 0.242742 0.813120
v -1.348708 0.096888 0.686744
v -1.348708 0.242742 0.686744
v -1.411703 0.096888 0.553553
v -1.411703 0.242742 0.553553
v -1.461340 0.096888 0.414827
v -1.461340 0.242742 0.414827
v -1.497140 0.096888 0.271905
v -1.497140 0.242742 0.271905
v -1.518759 0.096888 0.126162
v -1.518759 0.242742 0.126162
v -1.525989 0.096888 -0.020998
v -1.525989 0.242742 -0.020998
v -1.518759 0.096888 -0.168159
v -1.518759 0.242742 -0.168159
v -1.497140 0.096888 -0.313902
v -1.497140 0.242742 -0.313902
v -1.461340 0.096888 -0.456824
v -1.461340 0.242742 -0.456824
v -1.411703 0.096888 -0.595549
v -1.411703 0.242742 -0.595549
v -1.348708 0.096888 -0.728741
v -1.348708 0.242742 -0.728741
v -1.272961 0.096888 -0.855117
v -1.272961 0.242742 -0.855117
v -1.185192 0.096888 -0.973460
v -1.185192 0.242742 -0.973460
v -1.086246 0.096888 -1.082630
v -1.086246 0.242742 -1.082630
v -0.977076 0.096888 -1.181576
v -0.977076 0.242742 -1.181576
v -0.858734 0.096888 -1.269345
v -0.858734 0.242742 -1.269345
v -0.732358 0.096888 -1.345092
v -0.732358 0.242742 -1.345092
v -0.599166 0.096888 -1.408086
v -0.599166 0.242742 -1.408086
v -0.460441 0.096888 -1.457723
v -0.460441 0.242742 -1.457723
v -0.317519 0.096888 -1.493523
v -0.317519 0.242742 -1.493523
v -0.171775 0.096888 -1.515142
v -0.171775 0.242742 -1.515142
vn 0.0491 -0.0000 -0.9988
vn 0.1467 -0.0000 -0.9892
vn 0.2430 -0.0000 -0.9700
vn 0.3369 -0.0000 -0.9415
vn 0.4276 -0.0000 -0.9040
vn 0.5141 -0.0000 -0.8577
vn 0.5957 -0.0000 -0.8032
vn 0.6716 -0.0000 -0.7410
vn 0.7410 -0.0000 -0.6716
vn 0.8032 -0.0000 -0.5957
vn 0.8577 -0.0000 -0.5141
vn 0.9040 -0.0000 -0.4276
vn 0.9415 -0.0000 -0.3369
vn 0.9700 -0.0000 -0.2430
vn 0.9892 -0.0000 -0.1467
vn 0.9988 -0.0000 -0.0491
vn 0.9988 -0.0000 0.0491
vn 0.9892 -0.0000 0.1467
vn 0.9700 -0.0000 0.2430
vn 0.9415 -0.0000 0.3369
vn 0.9040 -0.0000 0.4276
vn 0.8577 -0.0000 0.5141
vn 0.8032 -0.0000 0.5957
vn 0.7410 -0.0000 0.6716
vn 0.6716 -0.0000 0.7410
vn 0.5957 -0.0000 0.8032
vn 0.5141 -0.0000 0.8577
vn 0.4276 -0.0000 0.9040
vn 0.3369 -0.0000 0.9415
vn 0.2430 -0.0000 0.9700
vn 0.1467 -0.0000 0.9892
vn 0.0491 -0.0000 0.9988
vn -0.0491 -0.0000 0.9988
vn -0.1467 -0.0000 0.9892
vn -0.2430 -0.0000 0.9700
vn -0.3369 -0.0000 0.9415
vn -0.4276 -0.0000 0.9040
vn -0.5141 -0.0000 0.8577
vn -0.5957 -0.0000 0.8032
vn -0.6716 -0.0000 0.7410
vn -0.7410 -0.0000 0.6716
vn -0.8032 -0.0000 0.5957
vn -0.8577 -0.0000 0.5141
vn -0.9040 -0.0000 0.4276
vn -0.9415 -0.0000 0.3369
vn -0.9700 -0.0000 0.2430
vn -0.9892 -0.0000 0.1467
vn -0.9988 -0.0000 0.0491
vn -0.9988 -0.0000 -0.0491
vn -0.9892 -0.0000 -0.1467
vn -0.9700 -0.0000 -0.2430
vn -0.9415 -0.0000 -0.3369
vn -0.9040 -0.0000 -0.4276
vn -0.8577 -0.0000 -0.5141
vn -0.8032 -0.0000 -0.5957
vn -0.7410 -0.0000 -0.6716
vn -0.6716 -0.0000 -0.7410
vn -0.5957 -0.0000 -0.8032
vn -0.5141 -0.0000 -0.8577
vn -0.4276 -0.0000 -0.9040
vn -0.3369 -0.0000 -0.9415
vn -0.2430 -0.0000 -0.9700
vn -0.1467 -0.0000 -0.9892
vn -0.0491 -0.0000 -0.9988
vt 1.000000 0.500000
vt 1.000000 1.000000
vt 0.984375 1.000000
vt 0.984375 0.500000
vt 0.968750 1.000000
vt 0.968750 0.500000
vt 0.953125 1.000000
vt 0.953125 0.500000
vt 0.937500 1.000000
vt 0.937500 0.500000
vt 0.921875 1.000000
vt 0.921875 0.500000
vt 0.906250 1.000000
vt 0.906250 0.500000
vt 0.890625 1.000000
vt 0.890625 0.500000
vt 0.875000 1.000000
vt 0.875000 0.500000
vt 0.859375 1.000000
vt 0.859375 0.500000
vt 0.843750 1.000000
vt 0.843750 0.500000
vt 0.828125 1.000000
vt 0.828125 0.500000
vt 0.812500 1.000000
vt 0.812500 0.500000
vt 0.796875 1.000000
vt 0.796875 0.500000
vt 0.781250 1.000000
vt 0.781250 0.500000
vt 0.765625 1.000000
vt 0.765625 0.500000
vt 0.750000 1.000000
vt 0.750000 0.500000
vt 0.734375 1.000000
vt 0.734375 0.500000
vt 0.718750 1.000000
vt 0.718750 0.500000
vt 0.703125 1.000000
vt 0.703125 0.500000
vt 0.687500 1.000000
vt 0.687500 0.500000
vt 0.671875 1.000000
vt 0.671875 0.500000
vt 0.656250 1.000000
vt 0.656250 0.500000
vt 0.640625 1.000000
vt 0.640625 0.500000
vt 0.625000 1.000000
vt 0.625000 0.500000
vt 0.609375 1.000000
vt 0.609375 0.500000
vt 0.593750 1.000000
vt 0.593750 0.500000
vt 0.578125 1.000000
vt 0.578125 0.500000
vt 0.562500 1.000000
vt 0.562500 0.500000
vt 0.546875 1.000000
vt 0.546875 0.500000
vt 0.531250 1.000000
vt 0.531250 0.500000
vt 0.515625 1.000000
vt 0.515625 0.500000
vt 0.500000 1.000000
vt 0.500000 0.500000
vt 0.484375 1.000000
vt 0.484375 0.500000
vt 0.468750 1.000000
vt 0.468750 0.500000
vt 0.453125 1.000000
vt 0.453125 0.500000
vt 0.437500 1.000000
vt 0.437500 0.500000
vt 0.421875 1.000000
vt 0.421875 0.500000
vt 0.406250 1.000000
vt 0.406250 0.500000
vt 0.390625 1.000000
vt 0.390625 0.500000
vt 0.375000 1.000000
vt 0.375000 0.500000
vt 0.359375 1.000000
vt 0.359375 0.500000
vt 0.343750 1.000000
vt 0.343750 0.500000
vt 0.328125 1.000000
vt 0.328125 0.500000
vt 0.312500 1.000000
vt 0.312500 0.500000
vt 0.296875 1.000000
vt 0.296875 0.500000
vt 0.281250 1.000000
vt 0.281250 0.500000
vt 0.265625 1.000000
vt 0.265625 0.500000
vt 0.250000 1.000000
vt 0.250000 0.500000
vt 0.234375 1.000000
vt 0.234375 0.500000
vt 0.218750 1.000000
vt 0.218750 0.500000
vt 0.203125 1.000000
vt 0.203125 0.500000
vt 0.187500 1.000000
vt 0.187500 0.500000
vt 0.171875 1.000000
vt 0.171875 0.500000
vt 0.156250 1.000000
vt 0.156250 0.500000
vt 0.140625 1.000000
vt 0.140625 0.500000
vt 0.125000 1.000000
vt 0.125000 0.500000
vt 0.109375 1.000000
vt 0.109375 0.500000
vt 0.093750 1.000000
vt 0.093750 0.500000
vt 0.078125 1.000000
vt 0.078125 0.500000
vt 0.062500 1.000000
vt 0.062500 0.500000
vt 0.046875 1.000000
vt 0.046875 0.500000
vt 0.031250 1.000000
vt 0.031250 0.500000
vt 0.015625 1.000000
vt 0.015625 0.500000
vt 0.000000 1.000000
vt 0.000000 0.500000
s 0
g Circle_Material.001
usemtl Material.001
f 1/1/1 2/2/1 4/3/1 3/4/1
f 3/4/2 4/3/2 6/5/2 5/6/2
f 5/6/3 6/5/3 8/7/3 7/8/3
f 7/8/4 8/7/4 10/9/4 9/10/4
f 9/10/5 10/9/5 12/11/5 11/12/5
f 11/12/6 12/11/6 14/13/6 13/14/6
f 13/14/7 14/13/7 16/15/7 15/16/7
f 15/16/8 16/15/8 18/17/8 17/18/8
f 17/18/9 18/17/9 20/19/9 19/20/9
f 19/20/10 20/19/10 22/21/10 21/22/10
f 21/22/11 22/21/11 24/23/11 23/24/11
f 23/24/12 24/23/12 26/25/12 25/26/12
f 25/26/13 26/25/13 28/27/13 27/28/13
f 27/28/14 28/27/14 30/29/14 29/30/14
f 29/30/15 30/29/15 32/31/15 31/32/15
f 31/32/16 32/31/16 34/33/16 33/34/16
f 33/34/17 34/33/17 36/35/17 35/36/17
f 35/36/18 36/35/18 38/37/18 37/38/18
f 37/38/19 38/37/19 40/39/19 39/40/19
f 39/40/20 40/39/20 42/41/20 41/42/20
f 41/42/21 42/41/21 44/43/21 43/44/21
f 43/44/22 44/43/22 46/45/22 45/46/22
f 45/46/23 46/45/23 48/47/23 47/48/23
f 47/48/24 48/47/24 50/49/24 49/50/24
f 49/50/25 50/49/25 52/51/25 51/52/25
f 51/52/26 52/51/26 54/53/26 53/54/26
f 53/54/27 54/53/27 56/55/27 55/56/27
f 55/56/28 56/55/28 58/57/28 57/58/28
f 57/58/29 58/57/29 60/59/29 59/60/29
f 59/60/30 60/59/30 62/61/30 61/62/30
f 61/62/31 62/61/31 64/63/31 63/64/31
f 63/64/32 64/63/32 66/65/32 65/66/32
f 65/66/33 66/65/33 68/67/33 67/68/33
f 67/68/34 68/67/34 70/69/34 69/70/34
f 69/70/35 70/69/35 72/71/35 71/72/35
f 71/72/36 72/71/36 74/73/36 73/74/36
f 73/74/37 74/73/37 76/75/37 75/76/37
f 75/76/38 76/75/38 78/77/38 77/78/38
f 77/78/39 78/77/39 80/79/39 79/80/39
f 79/80/40 80/79/40 82/81/40 81/82/40
f 81/82/41 82/81/41 84/83/41 83/84/41
f 83/84/42 84/83/42 86/85/42 85/86/42
f 85/86/43 86/85/43 88/87/43 87/88/43
f 87/88/44 88/87/44 90/89/44 89/90/44
f 89/90/45 90/89/45 92/91/45 91/92/45
f 91/92/46 92/91/46 94/93/46 93/94/46
f 93/94/47 94/93/47 96/95/47 95/96/47
f 95/96/48 96/95/48 98/97/48 97/98/48
f 97/98/49 98/97/49 100/99/49 99/100/49
f 99/100/50 100/99/50 102/101/50 101/102/50
f 101/102/51 102/101/51 104/103/51 103/104/51
f 103/104/52 104/103/52 106/105/52 105/106/52
f 105/106/53 106/105/53 108/107/53 107/108/53
f 107/108/54 108/107/54 110/109/54 109/110/54
f 109/110/55 110/109/55 112/111/55 111/112/55
f 111/112/56 112/111/56 114/113/56 113/114/56
f 113/114/57 114/113/57 116/115/57 115/116/57
f 115/116/58 116/115/58 118/117/58 117/118/58
f 117/118/59 118/117/59 120/119/59 119/120/59
f 119/120/60 120/119/60 122/121/60 121/122/60
f 121/122/61 122/121/61 124/123/61 123/124/61
f 123/124/62 124/123/62 126/125/62 125/126/62
f 125/126/63 126/125/63 128/127/63 127/128/63
f 127/128/64 128/127/64 2/129/64 1/130/64
o Cube
v 3.729216 0.021707 3.051041
v 3.169778 0.756189 2.414330
v 3.107332 0.708386 3.112683
v 2.681604 0.496277 2.717154
v 3.772470 0.537570 2.614911
v 3.185373 0.143349 3.330209
v 2.720016 0.082254 3.056950
v 3.095793 0.165357 2.163440
v 3.452782 -0.226101 2.445380
v 2.979028 -0.289325 2.601881
vn -0.4604 0.8875 0.0196
vn -0.7230 0.3969 0.5654
vn 0.5768 -0.0606 -0.8146
vn 0.4006 0.3152 -0.8603
vn -0.0481 -0.8527 0.5202
vn 0.3121 0.9455 0.0926
vn 0.5581 0.4425 0.7019
vn -0.5146 0.2452 0.8216
vn 0.9053 -0.3159 -0.2839
vn 0.2180 -0.9341 0.2827
vn -0.8771 -0.2742 -0.3944
vn -0.1526 -0.6654 -0.7307
vn -0.6240 0.3703 -0.6881
vt 0.550384 0.206938
vt 0.375000 0.305791
vt 0.375000 0.049496
vt 0.180791 0.500000
vt 0.330928 0.574320
vt 0.125000 0.700504
vt 0.804283 0.500000
vt 0.842867 0.681766
vt 0.658516 0.626313
vt 0.875000 0.500000
vt 0.501754 0.540833
vt 0.565165 0.799791
vt 0.325310 0.750000
vt 0.604031 0.069198
vt 0.375000 1.000000
vt 0.375000 0.799690
vt 0.578028 1.000000
vt 0.615335 0.592735
vt 0.589707 0.775249
vt 0.581909 0.353207
s 0
g Cube_Material
usemtl Material
f 130/131/65 132/132/65 131/133/65
f 132/134/66 135/135/66 131/136/66
f 136/137/67 133/138/67 137/139/67
f 133/138/68 136/137/68 130/140/68
f 138/141/69 129/142/69 134/143/69 135/135/69
f 131/133/70 133/144/70 130/131/70
f 131/145/71 134/146/71 129/142/71 133/147/71
f 135/135/72 134/143/72 131/136/72
f 137/148/73 133/138/73 129/149/73
f 129/142/74 138/141/74 137/148/74
f 138/141/75 135/135/75 132/132/75 136/150/75
f 138/141/76 136/150/76 137/148/76
f 132/132/77 130/131/77 136/150/77
o Cube
v 3.078185 0.522399 -0.661942
v 3.798138 -0.052851 -0.772571
v 3.771631 0.366186 -0.370126
v 4.052694 0.402035 -0.796520
v 3.255115 -0.009118 -0.661752
v 3.504941 0.770849 -0.512839
v 3.856573 0.800782 -0.791183
v 3.675497 0.162022 -1.246631
v 3.252285 0.419916 -1.214044
v 3.574218 0.683457 -1.225757
vn 0.7771 -0.4097 0.4778
vn 0.7620 0.3676 0.5332
vn -0.4677 -0.6992 -0.5407
vn -0.1503 -0.9145 -0.3756
vn -0.3547 0.9232 -0.1476
vn 0.0919 -0.6867 0.7211
vn -0.3966 -0.0480 0.9167
vn 0.4856 0.5575 0.6734
vn -0.9225 -0.3072 -0.2339
vn -0.6060 0.7257 -0.3258
vn 0.7242 0.2523 -0.6418
vn -0.0595 0.0284 -0.9978
vn 0.7856 -0.4613 -0.4123
vt 0.550384 0.206938
vt 0.375000 0.305791
vt 0.375000 0.049496
vt 0.180791 0.500000
vt 0.330928 0.574320
vt 0.125000 0.700504
vt 0.804283 0.500000
vt 0.842867 0.681766
vt 0.658516 0.626313
vt 0.875000 0.500000
vt 0.501754 0.540833
vt 0.565165 0.799791
vt 0.325310 0.750000
vt 0.604031 0.069198
vt 0.375000 1.000000
vt 0.375000 0.799690
vt 0.578028 1.000000
vt 0.615335 0.592735
vt 0.589707 0.775249
vt 0.581909 0.353207
s 0
g Cube_Material
usemtl Material
f 140/151/78 142/152/78 141/153/78
f 142/154/79 145/155/79 141/156/79
f 146/157/80 143/158/80 147/159/80
f 143/158/81 146/157/81 140/160/81
f 148/161/82 139/162/82 144/163/82 145/155/82
f 141/153/83 143/164/83 140/151/83
f 141/165/84 144/166/84 139/162/84 143/167/84
f 145/155/85 144/163/85 141/156/85
f 147/168/86 143/158/86 139/169/86
f 139/162/87 148/161/87 147/168/87
f 148/161/88 145/155/88 142/152/88 146/170/88
f 148/161/89 146/170/89 147/168/89
f 142/152/90 140/151/90 146/170/90
o Cube
v 0.894745 0.982372 3.283464
v 0.686069 -0.280390 3.802546
v 1.289193 0.271169 4.087182
v 1.446045 -0.334692 3.652812
v 0.357862 0.464656 3.655751
v 1.564900 0.723516 3.553756
v 1.802313 0.132575 3.349442
v 0.753110 -0.336958 3.011682
v 0.766931 0.336451 2.707468
v 1.339268 0.099788 2.709362
vn 0.1220 -0.5573 0.8213
vn 0.7819 -0.2167 0.5845
vn -0.9150 -0.1504 -0.3744
vn -0.9106 -0.4106 -0.0478
vn 0.5794 0.5739 -0.5787
vn -0.4215 -0.0070 0.9068
vn -0.0967 0.7213 0.6858
vn 0.8249 0.1423 0.5470
vn -0.7647 0.5065 -0.3983
vn 0.2566 0.6145 -0.7460
vn 0.4794 -0.7753 -0.4113
vn -0.1638 -0.4033 -0.9003
vn -0.0581 -0.9961 0.0663
vt 0.550384 0.206938
vt 0.375000 0.305791
vt 0.375000 0.049496
vt 0.180791 0.500000
vt 0.330928 0.574320
vt 0.125000 0.700504
vt 0.804283 0.500000
vt 0.842867 0.681766
vt 0.658516 0.626313
vt 0.875000 0.500000
vt 0.501754 0.540833
vt 0.565165 0.799791
vt 0.325310 0.750000
vt 0.604031 0.069198
vt 0.375000 1.000000
vt 0.375000 0.799690
vt 0.578028 1.000000
vt 0.615335 0.592735
vt 0.589707 0.775249
vt 0.581909 0.353207
s 0
g Cube_Material
usemtl Material
f 150/171/91 152/172/91 151/173/91
f 152/174/92 155/175/92 151/176/92
f 156/177/93 153/178/93 157/179/93
f 153/178/94 156/177/94 150/180/94
f 158/181/95 149/182/95 154/183/95 155/175/95
f 151/173/96 153/184/96 150/171/96
f 151/185/97 154/186/97 149/182/97 153/187/97
f 155/175/98 154/183/98 151/176/98
f 157/188/99 153/178/99 149/189/99
f 149/182/100 158/181/100 157/188/100
f 158/181/101 155/175/101 152/172/101 156/190/101
f 158/181/102 156/190/102 157/188/102
f 152/172/103 150/171/103 156/190/103
o Cube
v -2.788162 0.028804 2.684977
v -2.318898 0.305544 2.307542
v -2.516370 -0.047760 2.214540
v -2.173383 -0.035891 2.340453
v -2.676431 0.349916 2.474239
v -2.615006 -0.240601 2.503028
v -2.295615 -0.266741 2.520630
v -2.188709 0.279240 2.665530
v -2.448874 0.176221 2.883423
v -2.266290 -0.052689 2.832531
vn 0.3424 0.0555 -0.9379
vn 0.2740 -0.6777 -0.6824
vn -0.0253 0.9151 0.4025
vn 0.1341 0.9907 0.0240
vn -0.2205 -0.7283 0.6488
vn -0.3421 0.4134 -0.8438
vn -0.8682 -0.1139 -0.4830
vn -0.0364 -0.8250 -0.5639
vn -0.5844 0.5775 0.5701
vn -0.3072 -0.4334 0.8472
vn 0.9570 -0.2332 0.1727
vn 0.5544 0.2670 0.7882
vn 0.8883 0.3499 -0.2973
vt 0.550384 0.206938
vt 0.375000 0.305791
vt 0.375000 0.049496
vt 0.180791 0.500000
vt 0.330928 0.574320
vt 0.125000 0.700504
vt 0.804283 0.500000
vt 0.842867 0.681766
vt 0.658516 0.626313
vt 0.875000 0.500000
vt 0.501754 0.540833
vt 0.565165 0.799791
vt 0.325310 0.750000
vt 0.604031 0.069198
vt 0.375000 1.000000
vt 0.375000 0.799690
vt 0.578028 1.000000
vt 0.615335 0.592735
vt 0.589707 0.775249
vt 0.581909 0.353207
s 0
g Cube_Material
usemtl Material
f 160/191/104 162/192/104 161/193/104
f 162/194/105 165/195/105 161/196/105
f 166/197/106 163/198/106 167/199/106
f 163/198/107 166/197/107 160/200/107
f 168/201/108 159/202/108 164/203/108 165/195/108
f 161/193/109 163/204/109 160/191/109
f 161/205/110 164/206/110 159/202/110 163/207/110
f 165/195/111 164/203/111 161/196/111
f 167/208/112 163/198/112 159/209/112
f 159/202/113 168/201/113 167/208/113
f 168/201/114 165/195/114 162/192/114 166/210/114
f 168/201/115 166/210/115 167/208/115
f 162/192/116 160/191/116 166/210/116
o Cube
v 2.880925 0.907521 0.705664
v 2.108750 0.921170 0.919263
v 2.490776 0.867863 1.240693
v 2.229366 0.534125 1.115703
v 2.468671 1.160326 0.710431
v 2.835455 0.659815 1.072929
v 2.575421 0.371955 1.081980
v 2.162870 0.614919 0.578094
v 2.559694 0.640205 0.417650
v 2.533474 0.348476 0.625777
vn -0.6152 0.1959 0.7637
vn -0.0541 -0.3127 0.9483
vn -0.3645 0.4075 -0.8373
vn -0.6590 0.5048 -0.5576
vn 0.8092 -0.5678 -0.1511
vn -0.2810 0.8354 0.4725
vn 0.5375 0.7162 0.4451
vn 0.3017 -0.2435 0.9218
vn 0.3017 0.5072 -0.8073
vn 0.7740 -0.4124 -0.4805
vn -0.5134 -0.8581 0.0065
vn -0.2859 -0.5394 -0.7921
vn -0.9625 -0.2593 0.0801
vt 0.550384 0.206938
vt 0.375000 0.305791
vt 0.375000 0.049496
vt 0.180791 0.500000
vt 0.330928 0.574320
vt 0.125000 0.700504
vt 0.804283 0.500000
vt 0.842867 0.681766
vt 0.658516 0.626313
vt 0.875000 0.500000
vt 0.501754 0.540833
vt 0.565165 0.799791
vt 0.325310 0.750000
vt 0.604031 0.069198
vt 0.375000 1.000000
vt 0.375000 0.799690
vt 0.578028 1.000000
vt 0.615335 0.592735
vt 0.589707 0.775249
vt 0.581909 0.353207
s 0
g Cube_Material
usemtl Material
f 170/211/117 172/212/117 171/213/117
f 172/214/118 175/215/118 171/216/118
f 176/217/119 173/218/119 177/219/119
f 173/218/120 176/217/120 170/220/120
f 178/221/121 169/222/121 174/223/121 175/215/121
f 171/213/122 173/224/122 170/211/122
f 171/225/123 174/226/123 169/222/123 173/227/123
f 175/215/124 174/223/124 171/216/124
f 177/228/125 173/218/125 169/229/125
f 169/222/126 178/221/126 177/228/126
f 178/221/127 175/215/127 172/212/127 176/230/127
f 178/221/128 176/230/128 177/228/128
f 172/212/129 170/211/129 176/230/129
o Cube
v 2.783880 0.056007 -1.208948
v 2.432133 0.727183 -0.598232
v 2.131548 0.224105 -0.766950
v 2.019399 0.713392 -0.957176
v 2.855335 0.339255 -0.699345
v 2.245225 0.060259 -1.257729
v 2.020056 0.463721 -1.350622
v 2.618167 0.984150 -1.060561
v 2.871039 0.645899 -1.365289
v 2.476409 0.725759 -1.533674
vn -0.6524 0.1400 0.7448
vn -0.9772 -0.1802 0.1127
vn 0.8667 0.4450 0.2253
vn 0.6302 0.5428 0.5552
vn -0.0280 -0.3745 -0.9268
vn -0.0422 -0.2949 0.9546
vn 0.0423 -0.9115 0.4092
vn -0.8690 -0.4934 -0.0366
vn 0.9860 -0.1589 -0.0499
vn 0.3263 -0.2869 -0.9007
vn -0.4970 0.7815 -0.3772
vn 0.3792 0.7596 -0.5285
vn -0.3347 0.8744 0.3513
vt 0.550384 0.206938
vt 0.375000 0.305791
vt 0.375000 0.049496
vt 0.180791 0.500000
vt 0.330928 0.574320
vt 0.125000 0.700504
vt 0.804283 0.500000
vt 0.842867 0.681766
vt 0.658516 0.626313
vt 0.875000 0.500000
vt 0.501754 0.540833
vt 0.565165 0.799791
vt 0.325310 0.750000
vt 0.604031 0.069198
vt 0.375000 1.000000
vt 0.375000 0.799690
vt 0.578028 1.000000
vt 0.615335 0.592735
vt 0.589707 0.775249
vt 0.581909 0.353207
s 0
g Cube_Material
usemtl Material
f 180/231/130 182/232/130 181/233/130
f 182/234/131 185/235/131 181/236/131
f 186/237/132 183/238/132 187/239/132
f 183/238/133 186/237/133 180/240/133
f 188/241/134 179/242/134 184/243/134 185/235/134
f 181/233/135 183/244/135 180/231/135
f 181/245/136 184/246/136 179/242/136 183/247/136
f 185/235/137 184/243/137 181/236/137
f 187/248/138 183/238/138 179/249/138
f 179/242/139 188/241/139 187/248/139
f 188/241/140 185/235/140 182/232/140 186/250/140
f 188/241/141 186/250/141 187/248/141
f 182/232/142 180/231/142 186/250/142
o Cube
v -1.388776 -0.069500 1.520450
v -1.694329 0.543879 2.086618
v -2.000888 0.128349 1.877809
v -2.036598 0.593123 1.725826
v -1.341507 0.153340 2.006181
v -1.870691 -0.006698 1.431808
v -2.025734 0.387159 1.353540
v -1.459451 0.780981 1.698186
v -1.237424 0.463779 1.421890
v -1.571023 0.586144 1.241266
vn -0.7029 0.1717 0.6903
vn -0.9973 -0.0729 0.0113
vn 0.8839 0.3292 0.3323
vn 0.6283 0.4347 0.6452
vn 0.0220 -0.3160 -0.9485
vn -0.1671 -0.3415 0.9249
vn -0.0973 -0.9319 0.3493
vn -0.9098 -0.3876 -0.1482
vn 0.9630 -0.2679 0.0292
vn 0.3795 -0.2712 -0.8846
vn -0.3698 0.8533 -0.3676
vn 0.5094 0.7396 -0.4398
vn -0.2703 0.8858 0.3773
vt 0.550384 0.206938
vt 0.375000 0.305791
vt 0.375000 0.049496
vt 0.180791 0.500000
vt 0.330928 0.574320
vt 0.125000 0.700504
vt 0.804283 0.500000
vt 0.842867 0.681766
vt 0.658516 0.626313
vt 0.875000 0.500000
vt 0.501754 0.540833
vt 0.565165 0.799791
vt 0.325310 0.750000
vt 0.604031 0.069198
vt 0.375000 1.000000
vt 0.375000 0.799690
vt 0.578028 1.000000
vt 0.615335 0.592735
vt 0.589707 0.775249
vt 0.581909 0.353207
s 0
g Cube_Material
usemtl Material
f 190/251/143 192/252/143 191/253/143
f 192/254/144 195/255/144 191/256/144
f 196/257/145 193/258/145 197/259/145
f 193/258/146 196/257/146 190/260/146
f 198/261/147 189/262/147 194/263/147 195/255/147
f 191/253/148 193/264/148 190/251/148
f 191/265/149 194/266/149 189/262/149 193/267/149
f 195/255/150 194/263/150 191/256/150
f 197/268/151 193/258/151 189/269/151
f 189/262/152 198/261/152 197/268/152
f 198/261/153 195/255/153 192/252/153 196/270/153
f 198/261/154 196/270/154 197/268/154
f 192/252/155 190/251/155 196/270/155
o Cube
v -1.420269 -0.083612 2.158741
v -1.289160 0.892228 2.260045
v -1.228662 0.481242 2.720599
v -1.660052 0.811531 2.666973
v -1.111087 0.397520 1.986111
v -1.552112 0.052779 2.675085
v -1.873967 0.398357 2.757101
v -1.789878 0.800346 2.003088
v -1.841038 0.287876 1.879428
v -2.091487 0.379642 2.234196
vn 0.4603 0.6916 0.5567
vn 0.0300 0.1982 0.9797
vn 0.1081 0.2230 -0.9688
vn 0.3025 0.5427 -0.7835
vn -0.6068 -0.7773 0.1660
vn 0.9535 0.2761 0.1212
vn 0.8102 -0.5280 0.2545
vn 0.0765 -0.1622 0.9838
vn 0.1942 -0.4395 -0.8770
vn -0.5718 -0.7962 -0.1977
vn -0.7907 0.5724 0.2170
vn -0.7687 0.2215 -0.6000
vn -0.1907 0.9814 0.0208
vt 0.550384 0.206938
vt 0.375000 0.305791
vt 0.375000 0.049496
vt 0.180791 0.500000
vt 0.330928 0.574320
vt 0.125000 0.700504
vt 0.804283 0.500000
vt 0.842867 0.681766
vt 0.658516 0.626313
vt 0.875000 0.500000
vt 0.501754 0.540833
vt 0.565165 0.799791
vt 0.325310 0.750000
vt 0.604031 0.069198
vt 0.375000 1.000000
vt 0.375000 0.799690
vt 0.578028 1.000000
vt 0.615335 0.592735
vt 0.589707 0.775249
vt 0.581909 0.353207
s 0
g Cube_Material
usemtl Material
f 200/271/156 202/272/156 201/273/156
f 202/274/157 205/275/157 201/276/157
f 206/277/158 203/278/158 207/279/158
f 203/278/159 206/277/159 200/280/159
f 208/281/160 199/282/160 204/283/160 205/275/160
f 201/273/161 203/284/161 200/271/161
f 201/285/162 204/286/162 199/282/162 203/287/162
f 205/275/163 204/283/163 201/276/163
f 207/288/164 203/278/164 199/289/164
f 199/282/165 208/281/165 207/288/165
f 208/281/166 205/275/166 202/272/166 206/290/166
f 208/281/167 206/290/167 207/288/167
f 202/272/168 200/271/168 206/290/168
o Cube
v 1.159745 0.031206 -0.983041
v 1.874244 0.244051 -1.113896
v 1.741421 -0.199936 -1.012931
v 1.929768 0.051874 -0.738295
v 1.453332 0.216366 -1.280071
v 1.413294 -0.223932 -0.764923
v 1.661675 -0.083015 -0.535136
v 1.701476 0.509867 -0.814458
v 1.304509 0.438934 -0.776486
v 1.468908 0.304374 -0.511767
vn 0.8917 -0.3358 -0.3036
vn 0.5937 -0.7531 0.2834
vn -0.1986 0.8734 -0.4447
vn 0.1821 0.7851 -0.5919
vn -0.6752 -0.2597 0.6904
vn 0.3667 -0.3092 -0.8774
vn -0.3143 -0.7094 -0.6308
vn 0.2726 -0.9231 0.2714
vn -0.7532 0.4898 -0.4391
vn -0.8430 0.0271 0.5373
vn 0.5543 0.3240 0.7666
vn -0.1054 0.8585 0.5018
vn 0.8832 0.4574 0.1035
vt 0.550384 0.206938
vt 0.375000 0.305791
vt 0.375000 0.049496
vt 0.180791 0.500000
vt 0.330928 0.574320
vt 0.125000 0.700504
vt 0.804283 0.500000
vt 0.842867 0.681766
vt 0.658516 0.626313
vt 0.875000 0.500000
vt 0.501754 0.540833
vt 0.565165 0.799791
vt 0.325310 0.750000
vt 0.604031 0.069198
vt 0.375000 1.000000
vt 0.375000 0.799690
vt 0.578028 1.000000
vt 0.615335 0.592735
vt 0.589707 0.775249
vt 0.581909 0.353207
s 0
g Cube_Material
usemtl Material
f 210/291/169 212/292/169 211/293/169
f 212/294/170 215/295/170 211/296/170
f 216/297/171 213/298/171 217/299/171
f 213/298/172 216/297/172 210/300/172
f 218/301/173 209/302/173 214/303/173 215/295/173
f 211/293/174 213/304/174 210/291/174
f 211/305/175 214/306/175 209/302/175 213/307/175
f 215/295/176 214/303/176 211/296/176
f 217/308/177 213/298/177 209/309/177
f 209/302/178 218/301/178 217/308/178
f 218/301/179 215/295/179 212/292/179 216/310/179
f 218/301/180 216/310/180 217/308/180
f 212/292/181 210/291/181 216/310/181
o Cube
v -2.235406 -0.045714 -0.584403
v -1.562229 -0.345830 -1.085880
v -1.642121 -0.483346 -0.550391
v -1.298150 -0.165412 -0.700001
v -2.092038 -0.319351 -1.024927
v -1.849653 -0.133286 -0.286102
v -1.466417 0.046808 -0.370101
v -1.582047 0.165864 -1.125383
v -1.975371 0.332641 -0.913148
v -1.658426 0.403825 -0.680156
vn 0.6529 -0.7514 -0.0955
vn 0.6630 -0.4285 0.6138
vn -0.3881 0.2228 -0.8943
vn -0.1179 -0.0810 -0.9897
vn -0.2778 0.6306 0.7247
vn -0.0779 -0.9628 -0.2589
vn -0.5649 -0.7370 0.3710
vn 0.3740 -0.4073 0.8332
vn -0.8744 0.2297 -0.4273
vn -0.4995 0.7378 0.4540
vn 0.8434 0.5354 -0.0447
vn 0.1320 0.8835 -0.4495
vn 0.8276 -0.0113 -0.5611
vt 0.550384 0.206938
vt 0.375000 0.305791
vt 0.375000 0.049496
vt 0.180791 0.500000
vt 0.330928 0.574320
vt 0.125000 0.700504
vt 0.804283 0.500000
vt 0.842867 0.681766
vt 0.658516 0.626313
vt 0.875000 0.500000
vt 0.501754 0.540833
vt 0.565165 0.799791
vt 0.325310 0.750000
vt 0.604031 0.069198
vt 0.375000 1.000000
vt 0.375000 0.799690
vt 0.578028 1.000000
vt 0.615335 0.592735
vt 0.589707 0.775249
vt 0.581909 0.353207
s 0
g Cube_Material
usemtl Material
f 220/311/182 222/312/182 221/313/182
f 222/314/183 225/315/183 221/316/183
f 226/317/184 223/318/184 227/319/184
f 223/318/185 226/317/185 220/320/185
f 228/321/186 219/322/186 224/323/186 225/315/186
f 221/313/187 223/324/187 220/311/187
f 221/325/188 224/326/188 219/322/188 223/327/188
f 225/315/189 224/323/189 221/316/189
f 227/328/190 223/318/190 219/329/190
f 219/322/191 228/321/191 227/328/191
f 228/321/192 225/315/192 222/312/192 226/330/192
f 228/321/193 226/330/193 227/328/193
f 222/312/194 220/311/194 226/330/194
o Cube
v 0.983697 -0.193890 0.706893
v 1.612142 0.089073 0.337605
v 1.457718 -0.374759 0.304888
v 1.799323 -0.254019 0.538839
v 1.148605 0.120949 0.396421
v 1.267955 -0.518844 0.657552
v 1.623847 -0.479555 0.780704
v 1.639092 0.198505 0.773759
v 1.282597 0.100786 0.969790
v 1.528619 -0.135537 1.050816
vn 0.5929 -0.1415 -0.7927
vn 0.5170 -0.7801 -0.3523
vn -0.2194 0.9719 0.0855
vn 0.0355 0.9688 -0.2453
vn -0.3351 -0.5540 0.7621
vn -0.1178 0.1088 -0.9871
vn -0.6781 -0.3826 -0.6275
vn 0.1995 -0.9400 -0.2767
vn -0.7718 0.6030 0.2016
vn -0.5006 -0.2355 0.8331
vn 0.8825 -0.0150 0.4701
vn 0.2776 0.5573 0.7826
vn 0.9027 0.4008 -0.1563
vt 0.550384 0.206938
vt 0.375000 0.305791
vt 0.375000 0.049496
vt 0.180791 0.500000
vt 0.330928 0.574320
vt 0.125000 0.700504
vt 0.804283 0.500000
vt 0.842867 0.681766
vt 0.658516 0.626313
vt 0.875000 0.500000
vt 0.501754 0.540833
vt 0.565165 0.799791
vt 0.325310 0.750000
vt 0.604031 0.069198
vt 0.375000 1.000000
vt 0.375000 0.799690
vt 0.578028 1.000000
vt 0.615335 0.592735
vt 0.589707 0.775249
vt 0.581909 0.353207
s 0
g Cube_Material
usemtl Material
f 230/331/195 232/332/195 231/333/195
f 232/334/196 235/335/196 231/336/196
f 236/337/197 233/338/197 237/339/197
f 233/338/198 236/337/198 230/340/198
f 238/341/199 229/342/199 234/343/199 235/335/199
f 231/333/200 233/344/200 230/331/200
f 231/345/201 234/346/201 229/342/201 233/347/201
f 235/335/202 234/343/202 231/336/202
f 237/348/203 233/338/203 229/349/203
f 229/342/204 238/341/204 237/348/204
f 238/341/205 235/335/205 232/332/205 236/350/205
f 238/341/206 236/350/206 237/348/206
f 232/332/207 230/331/207 236/350/207
o Cube
v 3.093495 0.038434 3.149665
v 2.673150 0.590303 2.671259
v 2.626230 0.554385 3.195982
v 2.306350 0.395013 2.898792
v 3.125995 0.426039 2.821970
v 2.684868 0.129833 3.359424
v 2.335212 0.083927 3.154105
v 2.617560 0.146369 2.482747
v 2.885792 -0.147761 2.694590
v 2.529826 -0.195266 2.812180
vn -0.4604 0.8875 0.0196
vn -0.7230 0.3969 0.5654
vn 0.5768 -0.0606 -0.8146
vn 0.4006 0.3152 -0.8603
vn -0.0481 -0.8527 0.5202
vn 0.3121 0.9455 0.0926
vn 0.5581 0.4425 0.7019
vn -0.5146 0.2452 0.8216
vn 0.9053 -0.3159 -0.2839
vn 0.2180 -0.9341 0.2827
vn -0.8771 -0.2742 -0.3944
vn -0.1526 -0.6654 -0.7307
vn -0.6240 0.3703 -0.6881
vt 0.550384 0.206938
vt 0.375000 0.305791
vt 0.375000 0.049496
vt 0.180791 0.500000
vt 0.330928 0.574320
vt 0.125000 0.700504
vt 0.804283 0.500000
vt 0.842867 0.681766
vt 0.658516 0.626313
vt 0.875000 0.500000
vt 0.501754 0.540833
vt 0.565165 0.799791
vt 0.325310 0.750000
vt 0.604031 0.069198
vt 0.375000 1.000000
vt 0.375000 0.799690
vt 0.578028 1.000000
vt 0.615335 0.592735
vt 0.589707 0.775249
vt 0.581909 0.353207
s 0
g Cube_Material
usemtl Material
f 240/351/208 242/352/208 241/353/208
f 242/354/209 245/355/209 241/356/209
f 246/357/210 243/358/210 247/359/210
f 243/358/211 246/357/211 240/360/211
f 248/361/212 239/362/212 244/363/212 245/355/212
f 241/353/213 243/364/213 240/351/213
f 241/365/214 244/366/214 239/362/214 243/367/214
f 245/355/215 244/363/215 241/356/215
f 247/368/216 243/358/216 239/369/216
f 239/362/217 248/361/217 247/368/217
f 248/361/218 245/355/218 242/352/218 246/370/218
f 248/361/219 246/370/219 247/368/219
f 242/352/220 240/351/220 246/370/220
o Cube
v 2.559851 0.050639 -0.766208
v 3.607875 -0.786743 -0.927250
v 3.569288 -0.176757 -0.341417
v 3.978429 -0.124573 -0.962112
v 2.817404 -0.723083 -0.765932
v 3.181072 0.412303 -0.549163
v 3.692938 0.455877 -0.954343
v 3.429348 -0.473956 -1.617332
v 2.813284 -0.098543 -1.569896
v 3.281918 0.285089 -1.586946
vn 0.7771 -0.4097 0.4778
vn 0.7620 0.3676 0.5332
vn -0.4677 -0.6992 -0.5407
vn -0.1503 -0.9145 -0.3756
vn -0.3547 0.9232 -0.1476
vn 0.0919 -0.6867 0.7211
vn -0.3966 -0.0480 0.9167
vn 0.4856 0.5575 0.6734
vn -0.9225 -0.3072 -0.2339
vn -0.6060 0.7257 -0.3258
vn 0.7242 0.2523 -0.6418
vn -0.0595 0.0284 -0.9978
vn 0.7856 -0.4613 -0.4123
vt 0.550384 0.206938
vt 0.375000 0.305791
vt 0.375000 0.049496
vt 0.180791 0.500000
vt 0.330928 0.574320
vt 0.125000 0.700504
vt 0.804283 0.500000
vt 0.842867 0.681766
vt 0.658516 0.626313
vt 0.875000 0.500000
vt 0.501754 0.540833
vt 0.565165 0.799791
vt 0.325310 0.750000
vt 0.604031 0.069198
vt 0.375000 1.000000
vt 0.375000 0.799690
vt 0.578028 1.000000
vt 0.615335 0.592735
vt 0.589707 0.775249
vt 0.581909 0.353207
s 0
g Cube_Material
usemtl Material
f 250/371/221 252/372/221 251/373/221
f 252/374/222 255/375/222 251/376/222
f 256/377/223 253/378/223 257/379/223
f 253/378/224 256/377/224 250/380/224
f 258/381/225 249/382/225 254/383/225 255/375/225
f 251/373/226 253/384/226 250/371/226
f 251/385/227 254/386/227 249/382/227 253/387/227
f 255/375/228 254/383/228 251/376/228
f 257/388/229 253/378/229 249/389/229
f 249/382/230 258/381/230 257/388/230
f 258/381/231 255/375/231 252/372/231 256/390/231
f 258/381/232 256/390/232 257/388/232
f 252/372/233 250/371/233 256/390/233
o Cube
v 0.162146 0.671595 3.323871
v 0.000780 -0.304883 3.725270
v 0.467168 0.121630 3.945376
v 0.588460 -0.346875 3.609483
v -0.253018 0.271251 3.611756
v 0.680368 0.471424 3.532884
v 0.863957 0.014457 3.374891
v 0.052622 -0.348627 3.113705
v 0.063309 0.172112 2.878460
v 0.505891 -0.010897 2.879925
vn 0.1220 -0.5573 0.8213
vn 0.7819 -0.2167 0.5845
vn -0.9150 -0.1504 -0.3744
vn -0.9106 -0.4106 -0.0478
vn 0.5794 0.5739 -0.5787
vn -0.4215 -0.0070 0.9068
vn -0.0967 0.7213 0.6858
vn 0.8249 0.1423 0.5470
vn -0.7647 0.5065 -0.3983
vn 0.2566 0.6145 -0.7460
vn 0.4794 -0.7753 -0.4113
vn -0.1638 -0.4033 -0.9003
vn -0.0581 -0.9961 0.0663
vt 0.550384 0.206938
vt 0.375000 0.305791
vt 0.375000 0.049496
vt 0.180791 0.500000
vt 0.330928 0.574320
vt 0.125000 0.700504
vt 0.804283 0.500000
vt 0.842867 0.681766
vt 0.658516 0.626313
vt 0.875000 0.500000
vt 0.501754 0.540833
vt 0.565165 0.799791
vt 0.325310 0.750000
vt 0.604031 0.069198
vt 0.375000 1.000000
vt 0.375000 0.799690
vt 0.578028 1.000000
vt 0.615335 0.592735
vt 0.589707 0.775249
vt 0.581909 0.353207
s 0
g Cube_Material
usemtl Material
f 260/391/234 262/392/234 261/393/234
f 262/394/235 265/395/235 261/396/235
f 266/397/236 263/398/236 267/399/236
f 263/398/237 266/397/237 260/400/237
f 268/401/238 259/402/238 264/403/238 265/395/238
f 261/393/239 263/404/239 260/391/239
f 261/405/240 264/406/240 259/402/240 263/407/240
f 265/395/241 264/403/241 261/396/241
f 267/408/242 263/398/242 259/409/242
f 259/402/243 268/401/243 267/408/243
f 268/401/244 265/395/244 262/392/244 266/410/244
f 268/401/245 266/410/245 267/408/245
f 262/392/246 260/391/246 266/410/246
o Cube
v -2.891228 0.652956 2.433825
v -2.205927 1.057101 1.882629
v -2.494311 0.541143 1.746810
v -1.993420 0.558476 1.930691
v -2.728060 1.121900 2.126069
v -2.638356 0.259523 2.168111
v -2.171925 0.221349 2.193817
v -2.015802 1.018686 2.405426
v -2.395741 0.868241 2.723632
v -2.129099 0.533946 2.649310
vn 0.3424 0.0555 -0.9379
vn 0.2740 -0.6777 -0.6824
vn -0.0253 0.9151 0.4025
vn 0.1341 0.9907 0.0240
vn -0.2205 -0.7283 0.6488
vn -0.3421 0.4134 -0.8438
vn -0.8682 -0.1139 -0.4830
vn -0.0364 -0.8250 -0.5639
vn -0.5844 0.5775 0.5701
vn -0.3072 -0.4334 0.8472
vn 0.9570 -0.2332 0.1727
vn 0.5544 0.2670 0.7882
vn 0.8883 0.3499 -0.2973
vt 0.550384 0.206938
vt 0.375000 0.305791
vt 0.375000 0.049496
vt 0.180791 0.500000
vt 0.330928 0.574320
vt 0.125000 0.700504
vt 0.804283 0.500000
vt 0.842867 0.681766
vt 0.658516 0.626313
vt 0.875000 0.500000
vt 0.501754 0.540833
vt 0.565165 0.799791
vt 0.325310 0.750000
vt 0.604031 0.069198
vt 0.375000 1.000000
vt 0.375000 0.799690
vt 0.578028 1.000000
vt 0.615335 0.592735
vt 0.589707 0.775249
vt 0.581909 0.353207
s 0
g Cube_Material
usemtl Material
f 270/411/247 272/412/247 271/413/247
f 272/414/248 275/415/248 271/416/248
f 276/417/249 273/418/249 277/419/249
f 273/418/250 276/417/250 270/420/250
f 278/421/251 269/422/251 274/423/251 275/415/251
f 271/413/252 273/424/252 270/411/252
f 271/425/253 274/426/253 269/422/253 273/427/253
f 275/415/254 274/423/254 271/416/254
f 277/428/255 273/418/255 269/429/255
f 269/422/256 278/421/256 277/428/256
f 278/421/257 275/415/257 272/412/257 276/430/257
f 278/421/258 276/430/258 277/428/258
f 272/412/259 270/411/259 276/430/259
o Cube
v 3.424919 0.647807 0.460574
v 2.368392 0.666483 0.752829
v 2.891099 0.593545 1.192626
v 2.533425 0.136908 1.021608
v 2.860853 0.993706 0.467096
v 3.362706 0.308884 0.963083
v 3.006914 -0.084980 0.975467
v 2.442442 0.247455 0.286026
v 2.985396 0.282052 0.066499
v 2.949520 -0.117106 0.351268
vn -0.6152 0.1959 0.7637
vn -0.0541 -0.3127 0.9483
vn -0.3645 0.4075 -0.8373
vn -0.6590 0.5048 -0.5576
vn 0.8092 -0.5678 -0.1511
vn -0.2810 0.8354 0.4725
vn 0.5375 0.7162 0.4451
vn 0.3017 -0.2435 0.9218
vn 0.3017 0.5072 -0.8073
vn 0.7740 -0.4124 -0.4805
vn -0.5134 -0.8581 0.0065
vn -0.2859 -0.5394 -0.7921
vn -0.9625 -0.2593 0.0801
vt 0.550384 0.206938
vt 0.375000 0.305791
vt 0.375000 0.049496
vt 0.180791 0.500000
vt 0.330928 0.574320
vt 0.125000 0.700504
vt 0.804283 0.500000
vt 0.842867 0.681766
vt 0.658516 0.626313
vt 0.875000 0.500000
vt 0.501754 0.540833
vt 0.565165 0.799791
vt 0.325310 0.750000
vt 0.604031 0.069198
vt 0.375000 1.000000
vt 0.375000 0.799690
vt 0.578028 1.000000
vt 0.615335 0.592735
vt 0.589707 0.775249
vt 0.581909 0.353207
s 0
g Cube_Material
usemtl Material
f 280/431/260 282/432/260 281/433/260
f 282/434/261 285/435/261 281/436/261
f 286/437/262 283/438/262 287/439/262
f 283/438/263 286/437/263 280/440/263
f 288/441/264 279/442/264 284/443/264 285/435/264
f 281/433/265 283/444/265 280/431/265
f 281/445/266 284/446/266 279/442/266 283/447/266
f 285/435/267 284/443/267 281/436/267
f 287/448/268 283/438/268 279/449/268
f 279/442/269 288/441/269 287/448/269
f 288/441/270 285/435/270 282/432/270 286/450/270
f 288/441/271 286/450/271 287/448/271
f 282/432/272 280/431/272 286/450/272
o Cube
v 2.947754 0.204299 -1.010709
v 2.538371 0.985452 -0.299923
v 2.188534 0.399942 -0.496286
v 2.058009 0.969401 -0.717681
v 3.030917 0.533959 -0.417604
v 2.320838 0.209248 -1.067482
v 2.058774 0.678820 -1.175596
v 2.754889 1.284524 -0.838006
v 3.049196 0.890849 -1.192667
v 2.589903 0.983795 -1.388643
vn -0.6524 0.1400 0.7448
vn -0.9772 -0.1802 0.1127
vn 0.8667 0.4450 0.2253
vn 0.6302 0.5428 0.5552
vn -0.0280 -0.3745 -0.9268
vn -0.0422 -0.2949 0.9546
vn 0.0423 -0.9115 0.4092
vn -0.8690 -0.4934 -0.0366
vn 0.9860 -0.1589 -0.0499
vn 0.3263 -0.2869 -0.9007
vn -0.4970 0.7815 -0.3772
vn 0.3792 0.7596 -0.5285
vn -0.3347 0.8744 0.3513
vt 0.550384 0.206938
vt 0.375000 0.305791
vt 0.375000 0.049496
vt 0.180791 0.500000
vt 0.330928 0.574320
vt 0.125000 0.700504
vt 0.804283 0.500000
vt 0.842867 0.681766
vt 0.658516 0.626313
vt 0.875000 0.500000
vt 0.501754 0.540833
vt 0.565165 0.799791
vt 0.325310 0.750000
vt 0.604031 0.069198
vt 0.375000 1.000000
vt 0.375000 0.799690
vt 0.578028 1.000000
vt 0.615335 0.592735
vt 0.589707 0.775249
vt 0.581909 0.353207
s 0
g Cube_Material
usemtl Material
f 290/451/273 292/452/273 291/453/273
f 292/454/274 295/455/274 291/456/274
f 296/457/275 293/458/275 297/459/275
f 293/458/276 296/457/276 290/460/276
f 298/461/277 289/462/277 294/463/277 295/455/277
f 291/453/278 293/464/278 290/451/278
f 291/465/279 294/466/279 289/462/279 293/467/279
f 295/455/280 294/463/280 291/456/280
f 297/468/281 293/458/281 289/469/281
f 289/462/282 298/461/282 297/468/282
f 298/461/283 295/455/283 292/452/283 296/470/283
f 298/461/284 296/470/284 297/468/284
f 292/452/285 290/451/285 296/470/285
o Cube
v -1.940810 -0.210197 1.284193
v -2.306224 0.523349 1.961279
v -2.672841 0.026412 1.711562
v -2.715548 0.582241 1.529804
v -1.884281 0.056300 1.865084
v -2.517138 -0.135091 1.178185
v -2.702555 0.335926 1.084584
v -2.025331 0.806902 1.496749
v -1.759808 0.427557 1.166324
v -2.158762 0.573894 0.950313
vn -0.7029 0.1717 0.6903
vn -0.9973 -0.0729 0.0113
vn 0.8839 0.3292 0.3323
vn 0.6283 0.4347 0.6452
vn 0.0220 -0.3160 -0.9485
vn -0.1671 -0.3415 0.9249
vn -0.0973 -0.9319 0.3493
vn -0.9098 -0.3876 -0.1482
vn 0.9630 -0.2679 0.0292
vn 0.3795 -0.2712 -0.8846
vn -0.3698 0.8533 -0.3676
vn 0.5094 0.7396 -0.4398
vn -0.2703 0.8858 0.3773
vt 0.550384 0.206938
vt 0.375000 0.305791
vt 0.375000 0.049496
vt 0.180791 0.500000
vt 0.330928 0.574320
vt 0.125000 0.700504
vt 0.804283 0.500000
vt 0.842867 0.681766
vt 0.658516 0.626313
vt 0.875000 0.500000
vt 0.501754 0.540833
vt 0.565165 0.799791
vt 0.325310 0.750000
vt 0.604031 0.069198
vt 0.375000 1.000000
vt 0.375000 0.799690
vt 0.578028 1.000000
vt 0.615335 0.592735
vt 0.589707 0.775249
vt 0.581909 0.353207
s 0
g Cube_Material
usemtl Material
f 300/471/286 302/472/286 301/473/286
f 302/474/287 305/475/287 301/476/287
f 306/477/288 303/478/288 307/479/288
f 303/478/289 306/477/289 300/480/289
f 308/481/290 299/482/290 304/483/290 305/475/290
f 301/473/291 303/484/291 300/471/291
f 301/485/292 304/486/292 299/482/292 303/487/292
f 305/475/293 304/483/293 301/476/293
f 307/488/294 303/478/294 299/489/294
f 299/482/295 308/481/295 307/488/295
f 308/481/296 305/475/296 302/472/296 306/490/296
f 308/481/297 306/490/297 307/488/297
f 302/472/298 300/471/298 306/490/298
o Cube
v -1.373602 0.309170 1.908017
v -1.270568 1.076054 1.987628
v -1.223024 0.753072 2.349564
v -1.562041 1.012636 2.307421
v -1.130625 0.687277 1.772352
v -1.477214 0.416355 2.313797
v -1.730151 0.687935 2.378250
v -1.664068 1.003846 1.785694
v -1.704272 0.601111 1.688513
v -1.901093 0.673228 1.967315
vn 0.4603 0.6916 0.5567
vn 0.0300 0.1982 0.9797
vn 0.1081 0.2230 -0.9688
vn 0.3025 0.5427 -0.7835
vn -0.6068 -0.7773 0.1660
vn 0.9535 0.2761 0.1212
vn 0.8102 -0.5280 0.2545
vn 0.0765 -0.1622 0.9838
vn 0.1942 -0.4395 -0.8770
vn -0.5718 -0.7962 -0.1977
vn -0.7907 0.5724 0.2170
vn -0.7687 0.2215 -0.6000
vn -0.1907 0.9814 0.0208
vt 0.550384 0.206938
vt 0.375000 0.305791
vt 0.375000 0.049496
vt 0.180791 0.500000
vt 0.330928 0.574320
vt 0.125000 0.700504
vt 0.804283 0.500000
vt 0.842867 0.681766
vt 0.658516 0.626313
vt 0.875000 0.500000
vt 0.501754 0.540833
vt 0.565165 0.799791
vt 0.325310 0.750000
vt 0.604031 0.069198
vt 0.375000 1.000000
vt 0.375000 0.799690
vt 0.578028 1.000000
vt 0.615335 0.592735
vt 0.589707 0.775249
vt 0.581909 0.353207
s 0
g Cube_Material
usemtl Material
f 310/491/299 312/492/299 311/493/299
f 312/494/300 315/495/300 311/496/300
f 316/497/301 313/498/301 317/499/301
f 313/498/302 316/497/302 310/500/302
f 318/501/303 309/502/303 314/503/303 315/495/303
f 311/493/304 313/504/304 310/491/304
f 311/505/305 314/506/305 309/502/305 313/507/305
f 315/495/306 314/503/306 311/496/306
f 317/508/307 313/498/307 309/509/307
f 309/502/308 318/501/308 317/508/308
f 318/501/309 315/495/309 312/492/309 316/510/309
f 318/501/310 316/510/310 317/508/310
f 312/492/311 310/491/311 316/510/311
o Cube
v 0.797946 0.572475 -1.458979
v 1.739427 0.852937 -1.631404
v 1.564408 0.267906 -1.498364
v 1.812589 0.599709 -1.136482
v 1.184800 0.816456 -1.850370
v 1.132042 0.236286 -1.171570
v 1.459329 0.421969 -0.868784
v 1.511774 1.203197 -1.236841
v 0.988699 1.109730 -1.186806
v 1.205324 0.932423 -0.837992
vn 0.8917 -0.3358 -0.3036
vn 0.5937 -0.7531 0.2834
vn -0.1986 0.8734 -0.4447
vn 0.1821 0.7851 -0.5919
vn -0.6752 -0.2597 0.6904
vn 0.3667 -0.3092 -0.8774
vn -0.3143 -0.7094 -0.6308
vn 0.2726 -0.9231 0.2714
vn -0.7532 0.4898 -0.4391
vn -0.8430 0.0271 0.5373
vn 0.5543 0.3240 0.7666
vn -0.1054 0.8585 0.5018
vn 0.8832 0.4574 0.1035
vt 0.550384 0.206938
vt 0.375000 0.305791
vt 0.375000 0.049496
vt 0.180791 0.500000
vt 0.330928 0.574320
vt 0.125000 0.700504
vt 0.804283 0.500000
vt 0.842867 0.681766
vt 0.658516 0.626313
vt 0.875000 0.500000
vt 0.501754 0.540833
vt 0.565165 0.799791
vt 0.325310 0.750000
vt 0.604031 0.069198
vt 0.375000 1.000000
vt 0.375000 0.799690
vt 0.578028 1.000000
vt 0.615335 0.592735
vt 0.589707 0.775249
vt 0.581909 0.353207
s 0
g Cube_Material
usemtl Material
f 320/511/312 322/512/312 321/513/312
f 322/514/313 325/515/313 321/516/313
f 326/517/314 323/518/314 327/519/314
f 323/518/315 326/517/315 320/520/315
f 328/521/316 319/522/316 324/523/316 325/515/316
f 321/513/317 323/524/317 320/511/317
f 321/525/318 324/526/318 319/522/318 323/527/318
f 325/515/319 324/523/319 321/516/319
f 327/528/320 323/518/320 319/529/320
f 319/522/321 328/521/321 327/528/321
f 328/521/322 325/515/322 322/512/322 326/530/322
f 328/521/323 326/530/323 327/528/323
f 322/512/324 320/511/324 326/530/324
o Cube
v -2.242252 0.045045 -0.323127
v -1.636676 -0.224933 -0.774245
v -1.708546 -0.348639 -0.292532
v -1.399117 -0.062633 -0.427117
v -2.113281 -0.201113 -0.719413
v -1.895237 -0.033733 -0.054783
v -1.550486 0.128276 -0.130346
v -1.654505 0.235375 -0.809782
v -2.008330 0.385404 -0.618859
v -1.723213 0.449440 -0.409265
vn 0.6529 -0.7514 -0.0955
vn 0.6630 -0.4285 0.6138
vn -0.3881 0.2228 -0.8943
vn -0.1179 -0.0810 -0.9897
vn -0.2778 0.6306 0.7247
vn -0.0779 -0.9628 -0.2589
vn -0.5649 -0.7370 0.3710
vn 0.3740 -0.4073 0.8332
vn -0.8744 0.2297 -0.4273
vn -0.4995 0.7378 0.4540
vn 0.8434 0.5354 -0.0447
vn 0.1320 0.8835 -0.4495
vn 0.8276 -0.0113 -0.5611
vt 0.550384 0.206938
vt 0.375000 0.305791
vt 0.375000 0.049496
vt 0.180791 0.500000
vt 0.330928 0.574320
vt 0.125000 0.700504
vt 0.804283 0.500000
vt 0.842867 0.681766
vt 0.658516 0.626313
vt 0.875000 0.500000
vt 0.501754 0.540833
vt 0.565165 0.799791
vt 0.325310 0.750000
vt 0.604031 0.069198
vt 0.375000 1.000000
vt 0.375000 0.799690
vt 0.578028 1.000000
vt 0.615335 0.592735
vt 0.589707 0.775249
vt 0.581909 0.353207
s 0
g Cube_Material
usemtl Material
f 330/531/325 332/532/325 331/533/325
f 332/534/326 335/535/326 331/536/326
f 336/537/327 333/538/327 337/539/327
f 333/538/328 336/537/328 330/540/328
f 338/541/329 329/542/329 334/543/329 335/535/329
f 331/533/330 333/544/330 330/531/330
f 331/545/331 334/546/331 329/542/331 333/547/331
f 335/535/332 334/543/332 331/536/332
f 337/548/333 333/538/333 329/549/333
f 329/542/334 338/541/334 337/548/334
f 338/541/335 335/535/335 332/532/335 336/550/335
f 338/541/336 336/550/336 337/548/336
f 332/532/337 330/531/337 336/550/337
o Cube
v 0.426166 0.115709 0.813820
v 1.130980 0.433057 0.399656
v 0.957791 -0.087139 0.362963
v 1.340907 0.048273 0.625344
v 0.611114 0.468806 0.465619
v 0.744968 -0.248735 0.758482
v 1.144108 -0.204670 0.896600
v 1.161205 0.555787 0.888811
v 0.761389 0.446194 1.108665
v 1.037308 0.181152 1.199536
vn 0.5929 -0.1415 -0.7927
vn 0.5170 -0.7801 -0.3523
vn -0.2194 0.9719 0.0855
vn 0.0355 0.9688 -0.2453
vn -0.3351 -0.5540 0.7621
vn -0.1178 0.1088 -0.9871
vn -0.6781 -0.3826 -0.6275
vn 0.1995 -0.9400 -0.2767
vn -0.7718 0.6030 0.2016
vn -0.5006 -0.2355 0.8331
vn 0.8825 -0.0150 0.4701
vn 0.2776 0.5573 0.7826
vn 0.9027 0.4008 -0.1563
vt 0.550384 0.206938
vt 0.375000 0.305791
vt 0.375000 0.049496
vt 0.180791 0.500000
vt 0.330928 0.574320
vt 0.125000 0.700504
vt 0.804283 0.500000
vt 0.842867 0.681766
vt 0.658516 0.626313
vt 0.875000 0.500000
vt 0.501754 0.540833
vt 0.565165 0.799791
vt 0.325310 0.750000
vt 0.604031 0.069198
vt 0.375000 1.000000
vt 0.375000 0.799690
vt 0.578028 1.000000
vt 0.615335 0.592735
vt 0.589707 0.775249
vt 0.581909 0.353207
s 0
g Cube_Material
usemtl Material
f 340/551/338 342/552/338 341/553/338
f 342/554/339 345/555/339 341/556/339
f 346/557/340 343/558/340 347/559/340
f 343/558/341 346/557/341 340/560/341
f 348/561/342 339/562/342 344/563/342 345/555/342
f 341/553/343 343/564/343 340/551/343
f 341/565/344 344/566/344 339/562/344 343/567/344
f 345/555/345 344/563/345 341/556/345
f 347/568/346 343/558/346 339/569/346
f 339/562/347 348/561/347 347/568/347
f 348/561/348 345/555/348 342/552/348 346/570/348
f 348/561/349 346/570/349 347/568/349
f 342/552/350 340/551/350 346/570/350
