# Blender 4.1.0
# www.blender.org
mtllib Explosion20023.mtl
o Circle
v -0.024615 0.096888 -1.522372
v -0.024615 0.242742 -1.522372
v 0.122545 0.096888 -1.515142
v 0.122545 0.242742 -1.515142
v 0.268288 0.096888 -1.493523
v 0.268288 0.242742 -1.493523
v 0.411211 0.096888 -1.457723
v 0.411211 0.242742 -1.457723
v 0.549936 0.096888 -1.408086
v 0.549936 0.242742 -1.408086
v 0.683127 0.096888 -1.345092
v 0.683127 0.242742 -1.345092
v 0.809503 0.096888 -1.269345
v 0.809503 0.242742 -1.269345
v 0.927846 0.096888 -1.181576
v 0.927846 0.242742 -1.181576
v 1.037016 0.096888 -1.082630
v 1.037016 0.242742 -1.082630
v 1.135962 0.096888 -0.973460
v 1.135962 0.242742 -0.973460
v 1.223731 0.096888 -0.855117
v 1.223731 0.242742 -0.855117
v 1.299478 0.096888 -0.728741
v 1.299478 0.242742 -0.728741
v 1.362473 0.096888 -0.595549
v 1.362473 0.242742 -0.595549
v 1.412110 0.096888 -0.456824
v 1.412110 0.242742 -0.456824
v 1.447910 0.096888 -0.313902
v 1.447910 0.242742 -0.313902
v 1.469529 0.096888 -0.168159
v 1.469529 0.242742 -0.168159
v 1.476758 0.096888 -0.020998
v 1.476758 0.242742 -0.020998
v 1.469529 0.096888 0.126162
v 1.469529 0.242742 0.126162
v 1.447910 0.096888 0.271905
v 1.447910 0.242742 0.271905
v 1.412110 0.096888 0.414827
v 1.412110 0.242742 0.414827
v 1.362473 0.096888 0.553553
v 1.362473 0.242742 0.553553
v 1.299478 0.096888 0.686744
v 1.299478 0.242742 0.686744
v 1.223731 0.096888 0.813120
v 1.223731 0.242742 0.813120
v 1.135962 0.096888 0.931463
v 1.135962 0.242742 0.931463
v 1.037016 0.096888 1.040633
v 1.037016 0.242742 1.040633
v 0.927846 0.096888 1.139579
v 0.927846 0.242742 1.139579
v 0.809503 0.096888 1.227348
v 0.809503 0.242742 1.227348
v 0.683127 0.096888 1.303095
v 0.683127 0.242742 1.303095
v 0.549936 0.096888 1.366090
v 0.549936 0.242742 1.366090
v 0.411211 0.096888 1.415727
v 0.411211 0.242742 1.415727
v 0.268288 0.096888 1.451527
v 0.268288 0.242742 1.451527
v 0.122545 0.096888 1.473146
v 0.122545 0.242742 1.473146
v -0.024615 0.096888 1.480376
v -0.024615 0.242742 1.480376
v -0.171775 0.096888 1.473146
v -0.171775 0.242742 1.473146
v -0.317519 0.096888 1.451527
v -0.317519 0.242742 1.451527
v -0.460441 0.096888 1.415727
v -0.460441 0.242742 1.415727
v -0.599166 0.096888 1.366090
v -0.599166 0.242742 1.366090
v -0.732358 0.096888 1.303095
v -0.732358 0.242742 1.303095
v -0.858734 0.096888 1.227348
v -0.858734 0.242742 1.227348
v -0.977076 0.096888 1.139579
v -0.977076 0.242742 1.139579
v -1.086246 0.096888 1.040633
v -1.086246 0.242742 1.040633
v -1.185192 0.096888 0.931463
v -1.185192 0.242742 0.931463
v -1.272961 0.096888 0.813120
v -1.272961 0.242742 0.813120
v -1.348708 0.096888 0.686744
v -1.348708 0.242742 0.686744
v -1.411703 0.096888 0.553553
v -1.411703 0.242742 0.553553
v -1.461340 0.096888 0.414827
v -1.461340 0.242742 0.414827
v -1.497140 0.096888 0.271905
v -1.497140 0.242742 0.271905
v -1.518759 0.096888 0.126162
v -1.518759 0.242742 0.126162
v -1.525989 0.096888 -0.020998
v -1.525989 0.242742 -0.020998
v -1.518759 0.096888 -0.168159
v -1.518759 0.242742 -0.168159
v -1.497140 0.096888 -0.313902
v -1.497140 0.242742 -0.313902
v -1.461340 0.096888 -0.456824
v -1.461340 0.242742 -0.456824
v -1.411703 0.096888 -0.595549
v -1.411703 0.242742 -0.595549
v -1.348708 0.096888 -0.728741
v -1.348708 0.242742 -0.728741
v -1.272961 0.096888 -0.855117
v -1.272961 0.242742 -0.855117
v -1.185192 0.096888 -0.973460
v -1.185192 0.242742 -0.973460
v -1.086246 0.096888 -1.082630
v -1.086246 0.242742 -1.082630
v -0.977076 0.096888 -1.181576
v -0.977076 0.242742 -1.181576
v -0.858734 0.096888 -1.269345
v -0.858734 0.242742 -1.269345
v -0.732358 0.096888 -1.345092
v -0.732358 0.242742 -1.345092
v -0.599166 0.096888 -1.408086
v -0.599166 0.242742 -1.408086
v -0.460441 0.096888 -1.457723
v -0.460441 0.242742 -1.457723
v -0.317519 0.096888 -1.493523
v -0.317519 0.242742 -1.493523
v -0.171775 0.096888 -1.515142
v -0.171775 0.242742 -1.515142
vn 0.0491 -0.0000 -0.9988
vn 0.1467 -0.0000 -0.9892
vn 0.2430 -0.0000 -0.9700
vn 0.3369 -0.0000 -0.9415
vn 0.4276 -0.0000 -0.9040
vn 0.5141 -0.0000 -0.8577
vn 0.5957 -0.0000 -0.8032
vn 0.6716 -0.0000 -0.7410
vn 0.7410 -0.0000 -0.6716
vn 0.8032 -0.0000 -0.5957
vn 0.8577 -0.0000 -0.5141
vn 0.9040 -0.0000 -0.4276
vn 0.9415 -0.0000 -0.3369
vn 0.9700 -0.0000 -0.2430
vn 0.9892 -0.0000 -0.1467
vn 0.9988 -0.0000 -0.0491
vn 0.9988 -0.0000 0.0491
vn 0.9892 -0.0000 0.1467
vn 0.9700 -0.0000 0.2430
vn 0.9415 -0.0000 0.3369
vn 0.9040 -0.0000 0.4276
vn 0.8577 -0.0000 0.5141
vn 0.8032 -0.0000 0.5957
vn 0.7410 -0.0000 0.6716
vn 0.6716 -0.0000 0.7410
vn 0.5957 -0.0000 0.8032
vn 0.5141 -0.0000 0.8577
vn 0.4276 -0.0000 0.9040
vn 0.3369 -0.0000 0.9415
vn 0.2430 -0.0000 0.9700
vn 0.1467 -0.0000 0.9892
vn 0.0491 -0.0000 0.9988
vn -0.0491 -0.0000 0.9988
vn -0.1467 -0.0000 0.9892
vn -0.2430 -0.0000 0.9700
vn -0.3369 -0.0000 0.9415
vn -0.4276 -0.0000 0.9040
vn -0.5141 -0.0000 0.8577
vn -0.5957 -0.0000 0.8032
vn -0.6716 -0.0000 0.7410
vn -0.7410 -0.0000 0.6716
vn -0.8032 -0.0000 0.5957
vn -0.8577 -0.0000 0.5141
vn -0.9040 -0.0000 0.4276
vn -0.9415 -0.0000 0.3369
vn -0.9700 -0.0000 0.2430
vn -0.9892 -0.0000 0.1467
vn -0.9988 -0.0000 0.0491
vn -0.9988 -0.0000 -0.0491
vn -0.9892 -0.0000 -0.1467
vn -0.9700 -0.0000 -0.2430
vn -0.9415 -0.0000 -0.3369
vn -0.9040 -0.0000 -0.4276
vn -0.8577 -0.0000 -0.5141
vn -0.8032 -0.0000 -0.5957
vn -0.7410 -0.0000 -0.6716
vn -0.6716 -0.0000 -0.7410
vn -0.5957 -0.0000 -0.8032
vn -0.5141 -0.0000 -0.8577
vn -0.4276 -0.0000 -0.9040
vn -0.3369 -0.0000 -0.9415
vn -0.2430 -0.0000 -0.9700
vn -0.1467 -0.0000 -0.9892
vn -0.0491 -0.0000 -0.9988
vt 1.000000 0.500000
vt 1.000000 1.000000
vt 0.984375 1.000000
vt 0.984375 0.500000
vt 0.968750 1.000000
vt 0.968750 0.500000
vt 0.953125 1.000000
vt 0.953125 0.500000
vt 0.937500 1.000000
vt 0.937500 0.500000
vt 0.921875 1.000000
vt 0.921875 0.500000
vt 0.906250 1.000000
vt 0.906250 0.500000
vt 0.890625 1.000000
vt 0.890625 0.500000
vt 0.875000 1.000000
vt 0.875000 0.500000
vt 0.859375 1.000000
vt 0.859375 0.500000
vt 0.843750 1.000000
vt 0.843750 0.500000
vt 0.828125 1.000000
vt 0.828125 0.500000
vt 0.812500 1.000000
vt 0.812500 0.500000
vt 0.796875 1.000000
vt 0.796875 0.500000
vt 0.781250 1.000000
vt 0.781250 0.500000
vt 0.765625 1.000000
vt 0.765625 0.500000
vt 0.750000 1.000000
vt 0.750000 0.500000
vt 0.734375 1.000000
vt 0.734375 0.500000
vt 0.718750 1.000000
vt 0.718750 0.500000
vt 0.703125 1.000000
vt 0.703125 0.500000
vt 0.687500 1.000000
vt 0.687500 0.500000
vt 0.671875 1.000000
vt 0.671875 0.500000
vt 0.656250 1.000000
vt 0.656250 0.500000
vt 0.640625 1.000000
vt 0.640625 0.500000
vt 0.625000 1.000000
vt 0.625000 0.500000
vt 0.609375 1.000000
vt 0.609375 0.500000
vt 0.593750 1.000000
vt 0.593750 0.500000
vt 0.578125 1.000000
vt 0.578125 0.500000
vt 0.562500 1.000000
vt 0.562500 0.500000
vt 0.546875 1.000000
vt 0.546875 0.500000
vt 0.531250 1.000000
vt 0.531250 0.500000
vt 0.515625 1.000000
vt 0.515625 0.500000
vt 0.500000 1.000000
vt 0.500000 0.500000
vt 0.484375 1.000000
vt 0.484375 0.500000
vt 0.468750 1.000000
vt 0.468750 0.500000
vt 0.453125 1.000000
vt 0.453125 0.500000
vt 0.437500 1.000000
vt 0.437500 0.500000
vt 0.421875 1.000000
vt 0.421875 0.500000
vt 0.406250 1.000000
vt 0.406250 0.500000
vt 0.390625 1.000000
vt 0.390625 0.500000
vt 0.375000 1.000000
vt 0.375000 0.500000
vt 0.359375 1.000000
vt 0.359375 0.500000
vt 0.343750 1.000000
vt 0.343750 0.500000
vt 0.328125 1.000000
vt 0.328125 0.500000
vt 0.312500 1.000000
vt 0.312500 0.500000
vt 0.296875 1.000000
vt 0.296875 0.500000
vt 0.281250 1.000000
vt 0.281250 0.500000
vt 0.265625 1.000000
vt 0.265625 0.500000
vt 0.250000 1.000000
vt 0.250000 0.500000
vt 0.234375 1.000000
vt 0.234375 0.500000
vt 0.218750 1.000000
vt 0.218750 0.500000
vt 0.203125 1.000000
vt 0.203125 0.500000
vt 0.187500 1.000000
vt 0.187500 0.500000
vt 0.171875 1.000000
vt 0.171875 0.500000
vt 0.156250 1.000000
vt 0.156250 0.500000
vt 0.140625 1.000000
vt 0.140625 0.500000
vt 0.125000 1.000000
vt 0.125000 0.500000
vt 0.109375 1.000000
vt 0.109375 0.500000
vt 0.093750 1.000000
vt 0.093750 0.500000
vt 0.078125 1.000000
vt 0.078125 0.500000
vt 0.062500 1.000000
vt 0.062500 0.500000
vt 0.046875 1.000000
vt 0.046875 0.500000
vt 0.031250 1.000000
vt 0.031250 0.500000
vt 0.015625 1.000000
vt 0.015625 0.500000
vt 0.000000 1.000000
vt 0.000000 0.500000
s 0
g Circle_Material.001
usemtl Material.001
f 1/1/1 2/2/1 4/3/1 3/4/1
f 3/4/2 4/3/2 6/5/2 5/6/2
f 5/6/3 6/5/3 8/7/3 7/8/3
f 7/8/4 8/7/4 10/9/4 9/10/4
f 9/10/5 10/9/5 12/11/5 11/12/5
f 11/12/6 12/11/6 14/13/6 13/14/6
f 13/14/7 14/13/7 16/15/7 15/16/7
f 15/16/8 16/15/8 18/17/8 17/18/8
f 17/18/9 18/17/9 20/19/9 19/20/9
f 19/20/10 20/19/10 22/21/10 21/22/10
f 21/22/11 22/21/11 24/23/11 23/24/11
f 23/24/12 24/23/12 26/25/12 25/26/12
f 25/26/13 26/25/13 28/27/13 27/28/13
f 27/28/14 28/27/14 30/29/14 29/30/14
f 29/30/15 30/29/15 32/31/15 31/32/15
f 31/32/16 32/31/16 34/33/16 33/34/16
f 33/34/17 34/33/17 36/35/17 35/36/17
f 35/36/18 36/35/18 38/37/18 37/38/18
f 37/38/19 38/37/19 40/39/19 39/40/19
f 39/40/20 40/39/20 42/41/20 41/42/20
f 41/42/21 42/41/21 44/43/21 43/44/21
f 43/44/22 44/43/22 46/45/22 45/46/22
f 45/46/23 46/45/23 48/47/23 47/48/23
f 47/48/24 48/47/24 50/49/24 49/50/24
f 49/50/25 50/49/25 52/51/25 51/52/25
f 51/52/26 52/51/26 54/53/26 53/54/26
f 53/54/27 54/53/27 56/55/27 55/56/27
f 55/56/28 56/55/28 58/57/28 57/58/28
f 57/58/29 58/57/29 60/59/29 59/60/29
f 59/60/30 60/59/30 62/61/30 61/62/30
f 61/62/31 62/61/31 64/63/31 63/64/31
f 63/64/32 64/63/32 66/65/32 65/66/32
f 65/66/33 66/65/33 68/67/33 67/68/33
f 67/68/34 68/67/34 70/69/34 69/70/34
f 69/70/35 70/69/35 72/71/35 71/72/35
f 71/72/36 72/71/36 74/73/36 73/74/36
f 73/74/37 74/73/37 76/75/37 75/76/37
f 75/76/38 76/75/38 78/77/38 77/78/38
f 77/78/39 78/77/39 80/79/39 79/80/39
f 79/80/40 80/79/40 82/81/40 81/82/40
f 81/82/41 82/81/41 84/83/41 83/84/41
f 83/84/42 84/83/42 86/85/42 85/86/42
f 85/86/43 86/85/43 88/87/43 87/88/43
f 87/88/44 88/87/44 90/89/44 89/90/44
f 89/90/45 90/89/45 92/91/45 91/92/45
f 91/92/46 92/91/46 94/93/46 93/94/46
f 93/94/47 94/93/47 96/95/47 95/96/47
f 95/96/48 96/95/48 98/97/48 97/98/48
f 97/98/49 98/97/49 100/99/49 99/100/49
f 99/100/50 100/99/50 102/101/50 101/102/50
f 101/102/51 102/101/51 104/103/51 103/104/51
f 103/104/52 104/103/52 106/105/52 105/106/52
f 105/106/53 106/105/53 108/107/53 107/108/53
f 107/108/54 108/107/54 110/109/54 109/110/54
f 109/110/55 110/109/55 112/111/55 111/112/55
f 111/112/56 112/111/56 114/113/56 113/114/56
f 113/114/57 114/113/57 116/115/57 115/116/57
f 115/116/58 116/115/58 118/117/58 117/118/58
f 117/118/59 118/117/59 120/119/59 119/120/59
f 119/120/60 120/119/60 122/121/60 121/122/60
f 121/122/61 122/121/61 124/123/61 123/124/61
f 123/124/62 124/123/62 126/125/62 125/126/62
f 125/126/63 126/125/63 128/127/63 127/128/63
f 127/128/64 128/127/64 2/129/64 1/130/64
o Cube
v -4.986025 0.518023 4.433335
v -4.382695 0.441406 4.169950
v -4.702266 0.621544 3.975287
v -4.584797 0.283767 3.899505
v -4.595866 0.600509 4.464620
v -5.024287 0.488098 4.068222
v -4.898286 0.236638 3.913640
v -4.500300 0.105018 4.307091
v -4.800672 0.145830 4.491177
v -4.862595 0.025248 4.226691
vn 0.6267 0.3716 -0.6849
vn -0.0733 0.1940 -0.9783
vn 0.4972 -0.1743 0.8499
vn 0.8004 -0.0359 0.5984
vn -0.9456 -0.3248 0.0162
vn 0.5251 0.8475 -0.0777
vn -0.2869 0.9572 0.0386
vn -0.3867 0.3346 -0.8594
vn -0.1012 0.1034 0.9895
vn -0.8540 -0.3681 0.3678
vn 0.2070 -0.8455 -0.4923
vn 0.1147 -0.9138 0.3897
vn 0.8241 -0.4357 -0.3619
vt 0.550384 0.206938
vt 0.375000 0.305791
vt 0.375000 0.049496
vt 0.180791 0.500000
vt 0.330928 0.574320
vt 0.125000 0.700504
vt 0.804283 0.500000
vt 0.842867 0.681766
vt 0.658516 0.626313
vt 0.875000 0.500000
vt 0.501754 0.540833
vt 0.565165 0.799791
vt 0.325310 0.750000
vt 0.604031 0.069198
vt 0.375000 1.000000
vt 0.375000 0.799690
vt 0.578028 1.000000
vt 0.615335 0.592735
vt 0.589707 0.775249
vt 0.581909 0.353207
s 0
g Cube_Material
usemtl Material
f 130/131/65 132/132/65 131/133/65
f 132/134/66 135/135/66 131/136/66
f 136/137/67 133/138/67 137/139/67
f 133/138/68 136/137/68 130/140/68
f 138/141/69 129/142/69 134/143/69 135/135/69
f 131/133/70 133/144/70 130/131/70
f 131/145/71 134/146/71 129/142/71 133/147/71
f 135/135/72 134/143/72 131/136/72
f 137/148/73 133/138/73 129/149/73
f 129/142/74 138/141/74 137/148/74
f 138/141/75 135/135/75 132/132/75 136/150/75
f 138/141/76 136/150/76 137/148/76
f 132/132/77 130/131/77 136/150/77
o Cube
v 5.771959 0.177926 1.366600
v 5.062071 0.479254 1.149058
v 5.434093 0.748606 1.351921
v 5.073059 0.625323 1.575068
v 5.459754 0.252523 1.004869
v 5.682656 0.524493 1.631602
v 5.348131 0.537749 1.827766
v 4.990705 0.108253 1.414351
v 5.361317 -0.093864 1.489491
v 5.263554 0.089126 1.782863
vn -0.4596 0.8437 -0.2774
vn -0.0697 0.9166 0.3936
vn -0.2886 -0.7503 -0.5949
vn -0.5145 -0.4311 -0.7412
vn 0.5790 -0.2931 0.7608
vn 0.0306 0.5740 -0.8183
vn 0.7671 0.4422 -0.4647
vn 0.2866 0.8557 0.4309
vn 0.3760 -0.7883 -0.4871
vn 0.5665 -0.6011 0.5637
vn -0.7508 -0.0108 0.6604
vn -0.5026 -0.7987 0.3307
vn -0.9855 0.1668 -0.0318
vt 0.550384 0.206938
vt 0.375000 0.305791
vt 0.375000 0.049496
vt 0.180791 0.500000
vt 0.330928 0.574320
vt 0.125000 0.700504
vt 0.804283 0.500000
vt 0.842867 0.681766
vt 0.658516 0.626313
vt 0.875000 0.500000
vt 0.501754 0.540833
vt 0.565165 0.799791
vt 0.325310 0.750000
vt 0.604031 0.069198
vt 0.375000 1.000000
vt 0.375000 0.799690
vt 0.578028 1.000000
vt 0.615335 0.592735
vt 0.589707 0.775249
vt 0.581909 0.353207
s 0
g Cube_Material
usemtl Material
f 140/151/78 142/152/78 141/153/78
f 142/154/79 145/155/79 141/156/79
f 146/157/80 143/158/80 147/159/80
f 143/158/81 146/157/81 140/160/81
f 148/161/82 139/162/82 144/163/82 145/155/82
f 141/153/83 143/164/83 140/151/83
f 141/165/84 144/166/84 139/162/84 143/167/84
f 145/155/85 144/163/85 141/156/85
f 147/168/86 143/158/86 139/169/86
f 139/162/87 148/161/87 147/168/87
f 148/161/88 145/155/88 142/152/88 146/170/88
f 148/161/89 146/170/89 147/168/89
f 142/152/90 140/151/90 146/170/90
o Cube
v 5.753894 0.203374 -2.251279
v 4.961366 0.647742 -2.600012
v 4.973676 0.318772 -2.086658
v 4.759221 0.142174 -2.545991
v 5.506873 0.713552 -2.405324
v 5.320929 -0.081178 -2.095980
v 5.008817 -0.229400 -2.416493
v 5.191798 0.342439 -3.009987
v 5.653189 0.155108 -2.857531
v 5.356327 -0.164625 -2.847157
vn -0.8849 0.3823 0.2662
vn -0.7880 -0.3537 0.5039
vn 0.4619 0.6281 -0.6262
vn 0.0996 0.8241 -0.5577
vn 0.4788 -0.8698 0.1192
vn -0.2834 0.8043 0.5222
vn 0.2394 0.3030 0.9224
vn -0.5168 -0.4655 0.7185
vn 0.9055 0.3838 -0.1810
vn 0.7301 -0.6800 -0.0671
vn -0.5800 -0.4899 -0.6508
vn 0.2183 -0.2334 -0.9475
vn -0.7595 0.2391 -0.6049
vt 0.550384 0.206938
vt 0.375000 0.305791
vt 0.375000 0.049496
vt 0.180791 0.500000
vt 0.330928 0.574320
vt 0.125000 0.700504
vt 0.804283 0.500000
vt 0.842867 0.681766
vt 0.658516 0.626313
vt 0.875000 0.500000
vt 0.501754 0.540833
vt 0.565165 0.799791
vt 0.325310 0.750000
vt 0.604031 0.069198
vt 0.375000 1.000000
vt 0.375000 0.799690
vt 0.578028 1.000000
vt 0.615335 0.592735
vt 0.589707 0.775249
vt 0.581909 0.353207
s 0
g Cube_Material
usemtl Material
f 150/171/91 152/172/91 151/173/91
f 152/174/92 155/175/92 151/176/92
f 156/177/93 153/178/93 157/179/93
f 153/178/94 156/177/94 150/180/94
f 158/181/95 149/182/95 154/183/95 155/175/95
f 151/173/96 153/184/96 150/171/96
f 151/185/97 154/186/97 149/182/97 153/187/97
f 155/175/98 154/183/98 151/176/98
f 157/188/99 153/178/99 149/189/99
f 149/182/100 158/181/100 157/188/100
f 158/181/101 155/175/101 152/172/101 156/190/101
f 158/181/102 156/190/102 157/188/102
f 152/172/103 150/171/103 156/190/103
o Cube
v -3.676122 0.032941 3.045049
v -3.709298 -0.043519 3.930033
v -4.043500 0.286147 3.630242
v -3.666912 0.453263 3.896030
v -3.750745 -0.295345 3.462765
v -3.837540 0.461953 3.229271
v -3.609246 0.665893 3.531888
v -3.225275 0.049446 3.790949
v -3.183432 0.029721 3.317545
v -3.179818 0.410605 3.435023
vn -0.6043 0.1056 0.7898
vn -0.5728 0.7441 0.3438
vn 0.5110 -0.8558 0.0808
vn 0.2887 -0.8533 0.4343
vn 0.2862 0.5650 -0.7739
vn -0.7971 -0.4992 0.3397
vn -0.8658 -0.2354 -0.4417
vn -0.6594 0.7517 -0.0091
vn 0.3020 -0.7750 -0.5551
vn 0.4691 0.2562 -0.8452
vn 0.5794 0.5950 0.5571
vn 0.9953 -0.0371 0.0895
vn 0.2683 0.0430 0.9624
vt 0.550384 0.206938
vt 0.375000 0.305791
vt 0.375000 0.049496
vt 0.180791 0.500000
vt 0.330928 0.574320
vt 0.125000 0.700504
vt 0.804283 0.500000
vt 0.842867 0.681766
vt 0.658516 0.626313
vt 0.875000 0.500000
vt 0.501754 0.540833
vt 0.565165 0.799791
vt 0.325310 0.750000
vt 0.604031 0.069198
vt 0.375000 1.000000
vt 0.375000 0.799690
vt 0.578028 1.000000
vt 0.615335 0.592735
vt 0.589707 0.775249
vt 0.581909 0.353207
s 0
g Cube_Material
usemtl Material
f 160/191/104 162/192/104 161/193/104
f 162/194/105 165/195/105 161/196/105
f 166/197/106 163/198/106 167/199/106
f 163/198/107 166/197/107 160/200/107
f 168/201/108 159/202/108 164/203/108 165/195/108
f 161/193/109 163/204/109 160/191/109
f 161/205/110 164/206/110 159/202/110 163/207/110
f 165/195/111 164/203/111 161/196/111
f 167/208/112 163/198/112 159/209/112
f 159/202/113 168/201/113 167/208/113
f 168/201/114 165/195/114 162/192/114 166/210/114
f 168/201/115 166/210/115 167/208/115
f 162/192/116 160/191/116 166/210/116
o Cube
v -3.037302 0.220973 4.408509
v -2.295897 0.210822 5.064200
v -2.870011 0.007751 5.181818
v -2.675532 0.483368 5.366292
v -2.489583 0.020216 4.537284
v -3.254605 0.270862 4.911387
v -3.101069 0.616570 5.205759
v -2.333764 0.733154 4.838538
v -2.678847 0.734568 4.436730
v -2.865554 0.923972 4.792080
vn 0.3305 -0.4557 0.8265
vn -0.3973 -0.1861 0.8986
vn 0.7543 0.1087 -0.6474
vn 0.9443 -0.0705 -0.3216
vn -0.8444 0.4499 -0.2908
vn 0.3625 -0.9111 0.1963
vn -0.3803 -0.9094 -0.1685
vn -0.6735 -0.2825 0.6830
vn 0.1985 -0.0849 -0.9764
vn -0.6435 0.4818 -0.5949
vn 0.1501 0.8077 0.5701
vn 0.3455 0.8913 -0.2936
vn 0.7197 0.3187 0.6169
vt 0.550384 0.206938
vt 0.375000 0.305791
vt 0.375000 0.049496
vt 0.180791 0.500000
vt 0.330928 0.574320
vt 0.125000 0.700504
vt 0.804283 0.500000
vt 0.842867 0.681766
vt 0.658516 0.626313
vt 0.875000 0.500000
vt 0.501754 0.540833
vt 0.565165 0.799791
vt 0.325310 0.750000
vt 0.604031 0.069198
vt 0.375000 1.000000
vt 0.375000 0.799690
vt 0.578028 1.000000
vt 0.615335 0.592735
vt 0.589707 0.775249
vt 0.581909 0.353207
s 0
g Cube_Material
usemtl Material
f 170/211/117 172/212/117 171/213/117
f 172/214/118 175/215/118 171/216/118
f 176/217/119 173/218/119 177/219/119
f 173/218/120 176/217/120 170/220/120
f 178/221/121 169/222/121 174/223/121 175/215/121
f 171/213/122 173/224/122 170/211/122
f 171/225/123 174/226/123 169/222/123 173/227/123
f 175/215/124 174/223/124 171/216/124
f 177/228/125 173/218/125 169/229/125
f 169/222/126 178/221/126 177/228/126
f 178/221/127 175/215/127 172/212/127 176/230/127
f 178/221/128 176/230/128 177/228/128
f 172/212/129 170/211/129 176/230/129
o Cube
v 3.497221 0.183906 -2.716609
v 3.871460 0.719682 -3.098480
v 3.953564 0.607340 -2.645050
v 3.747877 0.950886 -2.763274
v 3.764270 0.279807 -3.074649
v 3.619369 0.477993 -2.441744
v 3.532283 0.829492 -2.498462
v 3.443233 0.785908 -3.147526
v 3.234746 0.475134 -2.992577
v 3.216225 0.739954 -2.781066
vn 0.8622 0.5056 -0.0309
vn 0.5157 0.5382 0.6666
vn -0.2508 -0.2920 -0.9230
vn 0.1015 -0.0785 -0.9917
vn -0.7023 -0.1934 0.6851
vn 0.9424 -0.2421 -0.2306
vn 0.6033 -0.7112 0.3608
vn 0.4321 0.2470 0.8674
vn -0.3677 -0.7925 -0.4866
vn -0.8365 -0.3765 0.3982
vn -0.3684 0.9296 -0.0119
vn -0.8233 0.3179 -0.4702
vn 0.1882 0.8395 -0.5097
vt 0.550384 0.206938
vt 0.375000 0.305791
vt 0.375000 0.049496
vt 0.180791 0.500000
vt 0.330928 0.574320
vt 0.125000 0.700504
vt 0.804283 0.500000
vt 0.842867 0.681766
vt 0.658516 0.626313
vt 0.875000 0.500000
vt 0.501754 0.540833
vt 0.565165 0.799791
vt 0.325310 0.750000
vt 0.604031 0.069198
vt 0.375000 1.000000
vt 0.375000 0.799690
vt 0.578028 1.000000
vt 0.615335 0.592735
vt 0.589707 0.775249
vt 0.581909 0.353207
s 0
g Cube_Material
usemtl Material
f 180/231/130 182/232/130 181/233/130
f 182/234/131 185/235/131 181/236/131
f 186/237/132 183/238/132 187/239/132
f 183/238/133 186/237/133 180/240/133
f 188/241/134 179/242/134 184/243/134 185/235/134
f 181/233/135 183/244/135 180/231/135
f 181/245/136 184/246/136 179/242/136 183/247/136
f 185/235/137 184/243/137 181/236/137
f 187/248/138 183/238/138 179/249/138
f 179/242/139 188/241/139 187/248/139
f 188/241/140 185/235/140 182/232/140 186/250/140
f 188/241/141 186/250/141 187/248/141
f 182/232/142 180/231/142 186/250/142
o Cube
v -4.788980 0.118006 -1.996975
v -4.205240 0.787927 -2.068885
v -4.068198 0.246783 -2.089472
v -3.985914 0.532340 -1.697723
v -4.639107 0.554059 -2.274264
v -4.353512 -0.038919 -1.820342
v -4.151937 0.185857 -1.511791
v -4.494302 0.865038 -1.651416
v -4.850868 0.548480 -1.636827
v -4.569639 0.443975 -1.372640
vn 0.8991 0.2416 -0.3650
vn 0.9163 -0.3898 0.0917
vn -0.6538 0.7267 -0.2108
vn -0.2992 0.8797 -0.3697
vn -0.3738 -0.7150 0.5908
vn 0.3671 0.1280 -0.9213
vn 0.0062 -0.6060 -0.7955
vn 0.7220 -0.6911 0.0318
vn -0.9418 0.1254 -0.3118
vn -0.6777 -0.5267 0.5131
vn 0.4067 0.3762 0.8325
vn -0.4565 0.5465 0.7021
vn 0.5475 0.8045 0.2305
vt 0.550384 0.206938
vt 0.375000 0.305791
vt 0.375000 0.049496
vt 0.180791 0.500000
vt 0.330928 0.574320
vt 0.125000 0.700504
vt 0.804283 0.500000
vt 0.842867 0.681766
vt 0.658516 0.626313
vt 0.875000 0.500000
vt 0.501754 0.540833
vt 0.565165 0.799791
vt 0.325310 0.750000
vt 0.604031 0.069198
vt 0.375000 1.000000
vt 0.375000 0.799690
vt 0.578028 1.000000
vt 0.615335 0.592735
vt 0.589707 0.775249
vt 0.581909 0.353207
s 0
g Cube_Material
usemtl Material
f 190/251/143 192/252/143 191/253/143
f 192/254/144 195/255/144 191/256/144
f 196/257/145 193/258/145 197/259/145
f 193/258/146 196/257/146 190/260/146
f 198/261/147 189/262/147 194/263/147 195/255/147
f 191/253/148 193/264/148 190/251/148
f 191/265/149 194/266/149 189/262/149 193/267/149
f 195/255/150 194/263/150 191/256/150
f 197/268/151 193/258/151 189/269/151
f 189/262/152 198/261/152 197/268/152
f 198/261/153 195/255/153 192/252/153 196/270/153
f 198/261/154 196/270/154 197/268/154
f 192/252/155 190/251/155 196/270/155
o Cube
v 3.575058 0.468757 2.139809
v 3.842049 -0.262846 2.070111
v 3.414498 -0.143080 2.277265
v 3.763397 -0.259265 2.502598
v 3.713979 0.127394 1.845049
v 3.416574 0.235990 2.470770
v 3.651476 0.041585 2.695263
v 4.164569 -0.008026 2.254446
v 4.053337 0.395223 2.245320
v 4.015098 0.271207 2.571048
vn -0.2895 -0.9561 -0.0447
vn -0.5688 -0.5831 0.5801
vn 0.6904 0.1745 -0.7021
vn 0.6147 -0.2329 -0.7536
vn -0.1487 0.7739 0.6156
vn -0.4838 -0.5509 -0.6800
vn -0.8861 0.1327 -0.4442
vn -0.7748 -0.2841 0.5648
vn 0.2555 0.6893 -0.6779
vn 0.0632 0.9302 0.3616
vn 0.5844 -0.3705 0.7219
vn 0.9410 0.2644 0.2111
vn 0.5761 -0.8098 0.1115
vt 0.550384 0.206938
vt 0.375000 0.305791
vt 0.375000 0.049496
vt 0.180791 0.500000
vt 0.330928 0.574320
vt 0.125000 0.700504
vt 0.804283 0.500000
vt 0.842867 0.681766
vt 0.658516 0.626313
vt 0.875000 0.500000
vt 0.501754 0.540833
vt 0.565165 0.799791
vt 0.325310 0.750000
vt 0.604031 0.069198
vt 0.375000 1.000000
vt 0.375000 0.799690
vt 0.578028 1.000000
vt 0.615335 0.592735
vt 0.589707 0.775249
vt 0.581909 0.353207
s 0
g Cube_Material
usemtl Material
f 200/271/156 202/272/156 201/273/156
f 202/274/157 205/275/157 201/276/157
f 206/277/158 203/278/158 207/279/158
f 203/278/159 206/277/159 200/280/159
f 208/281/160 199/282/160 204/283/160 205/275/160
f 201/273/161 203/284/161 200/271/161
f 201/285/162 204/286/162 199/282/162 203/287/162
f 205/275/163 204/283/163 201/276/163
f 207/288/164 203/278/164 199/289/164
f 199/282/165 208/281/165 207/288/165
f 208/281/166 205/275/166 202/272/166 206/290/166
f 208/281/167 206/290/167 207/288/167
f 202/272/168 200/271/168 206/290/168
o Cube
v 3.046618 0.048277 3.189182
v 3.062275 -0.360089 2.423125
v 3.223611 0.153694 2.500546
v 2.808214 0.035991 2.293326
v 3.234112 -0.356324 2.913952
v 2.988178 0.379077 2.842784
v 2.683615 0.332528 2.556686
v 2.607554 -0.413700 2.624556
v 2.604938 -0.253071 3.060505
v 2.427669 0.003282 2.827163
vn 0.4477 -0.0058 -0.8942
vn 0.1558 0.6917 -0.7052
vn -0.0734 -0.9359 0.3444
vn 0.1044 -0.9941 -0.0289
vn -0.4679 0.6741 0.5715
vn 0.9169 -0.2398 -0.3191
vn 0.9013 0.3287 0.2820
vn 0.2486 0.8787 -0.4076
vn 0.1109 -0.5233 0.8449
vn -0.4876 0.3788 0.7866
vn -0.8148 0.0304 -0.5790
vn -0.8747 -0.4565 0.1630
vn -0.3106 -0.4700 -0.8262
vt 0.550384 0.206938
vt 0.375000 0.305791
vt 0.375000 0.049496
vt 0.180791 0.500000
vt 0.330928 0.574320
vt 0.125000 0.700504
vt 0.804283 0.500000
vt 0.842867 0.681766
vt 0.658516 0.626313
vt 0.875000 0.500000
vt 0.501754 0.540833
vt 0.565165 0.799791
vt 0.325310 0.750000
vt 0.604031 0.069198
vt 0.375000 1.000000
vt 0.375000 0.799690
vt 0.578028 1.000000
vt 0.615335 0.592735
vt 0.589707 0.775249
vt 0.581909 0.353207
s 0
g Cube_Material
usemtl Material
f 210/291/169 212/292/169 211/293/169
f 212/294/170 215/295/170 211/296/170
f 216/297/171 213/298/171 217/299/171
f 213/298/172 216/297/172 210/300/172
f 218/301/173 209/302/173 214/303/173 215/295/173
f 211/293/174 213/304/174 210/291/174
f 211/305/175 214/306/175 209/302/175 213/307/175
f 215/295/176 214/303/176 211/296/176
f 217/308/177 213/298/177 209/309/177
f 209/302/178 218/301/178 217/308/178
f 218/301/179 215/295/179 212/292/179 216/310/179
f 218/301/180 216/310/180 217/308/180
f 212/292/181 210/291/181 216/310/181
o Cube
v 3.702495 -0.153910 -0.656433
v 3.662215 0.199157 0.461933
v 4.001337 0.566510 -0.077259
v 4.315239 0.220249 0.370522
v 3.290987 0.035740 -0.112095
v 4.242177 0.191399 -0.534724
v 4.576685 0.051346 -0.097232
v 3.871150 -0.443574 0.444464
v 3.818637 -0.673299 -0.137575
v 4.324160 -0.568173 -0.036113
vn 0.0559 0.8084 0.5859
vn 0.6654 0.7391 0.1050
vn -0.7611 -0.5770 0.2964
vn -0.7728 -0.2669 0.5758
vn 0.5576 -0.4126 -0.7203
vn -0.5958 0.7868 0.1613
vn -0.3903 0.6698 -0.6317
vn 0.6397 0.7244 -0.2572
vn -0.7495 -0.5442 -0.3770
vn 0.2771 -0.6473 -0.7100
vn 0.7075 -0.3176 0.6313
vn 0.1215 -0.9270 0.3549
vn 0.1380 0.0180 0.9903
vt 0.550384 0.206938
vt 0.375000 0.305791
vt 0.375000 0.049496
vt 0.180791 0.500000
vt 0.330928 0.574320
vt 0.125000 0.700504
vt 0.804283 0.500000
vt 0.842867 0.681766
vt 0.658516 0.626313
vt 0.875000 0.500000
vt 0.501754 0.540833
vt 0.565165 0.799791
vt 0.325310 0.750000
vt 0.604031 0.069198
vt 0.375000 1.000000
vt 0.375000 0.799690
vt 0.578028 1.000000
vt 0.615335 0.592735
vt 0.589707 0.775249
vt 0.581909 0.353207
s 0
g Cube_Material
usemtl Material
f 220/311/182 222/312/182 221/313/182
f 222/314/183 225/315/183 221/316/183
f 226/317/184 223/318/184 227/319/184
f 223/318/185 226/317/185 220/320/185
f 228/321/186 219/322/186 224/323/186 225/315/186
f 221/313/187 223/324/187 220/311/187
f 221/325/188 224/326/188 219/322/188 223/327/188
f 225/315/189 224/323/189 221/316/189
f 227/328/190 223/318/190 219/329/190
f 219/322/191 228/321/191 227/328/191
f 228/321/192 225/315/192 222/312/192 226/330/192
f 228/321/193 226/330/193 227/328/193
f 222/312/194 220/311/194 226/330/194
o Cube
v -2.971761 0.010604 -2.494761
v -2.761333 0.017721 -3.336475
v -2.412469 0.119543 -2.932106
v -2.597126 0.460151 -3.213034
v -2.945025 -0.263679 -2.940051
v -2.610403 0.324095 -2.555244
v -2.645023 0.632748 -2.838208
v -3.166214 0.303189 -3.269735
v -3.324627 0.258247 -2.835629
v -3.139477 0.598608 -2.871045
vn 0.7660 -0.1075 -0.6338
vn 0.9024 0.4235 -0.0797
vn -0.7913 -0.5073 -0.3413
vn -0.5095 -0.5724 -0.6424
vn -0.1978 0.5513 0.8105
vn 0.5619 -0.7748 -0.2897
vn 0.5409 -0.6541 0.5288
vn 0.8933 0.3541 0.2770
vn -0.7330 -0.5980 0.3243
vn -0.5069 0.3574 0.7844
vn -0.1091 0.8492 -0.5168
vn -0.8578 0.4388 -0.2676
vn 0.0244 0.2603 -0.9652
vt 0.550384 0.206938
vt 0.375000 0.305791
vt 0.375000 0.049496
vt 0.180791 0.500000
vt 0.330928 0.574320
vt 0.125000 0.700504
vt 0.804283 0.500000
vt 0.842867 0.681766
vt 0.658516 0.626313
vt 0.875000 0.500000
vt 0.501754 0.540833
vt 0.565165 0.799791
vt 0.325310 0.750000
vt 0.604031 0.069198
vt 0.375000 1.000000
vt 0.375000 0.799690
vt 0.578028 1.000000
vt 0.615335 0.592735
vt 0.589707 0.775249
vt 0.581909 0.353207
s 0
g Cube_Material
usemtl Material
f 230/331/195 232/332/195 231/333/195
f 232/334/196 235/335/196 231/336/196
f 236/337/197 233/338/197 237/339/197
f 233/338/198 236/337/198 230/340/198
f 238/341/199 229/342/199 234/343/199 235/335/199
f 231/333/200 233/344/200 230/331/200
f 231/345/201 234/346/201 229/342/201 233/347/201
f 235/335/202 234/343/202 231/336/202
f 237/348/203 233/338/203 229/349/203
f 229/342/204 238/341/204 237/348/204
f 238/341/205 235/335/205 232/332/205 236/350/205
f 238/341/206 236/350/206 237/348/206
f 232/332/207 230/331/207 236/350/207
o Cube
v -3.751141 0.854943 1.120246
v -3.706056 -0.188278 1.215175
v -3.191787 0.193236 1.068103
v -3.467273 -0.134084 0.678961
v -3.836513 0.356006 1.500032
v -3.327896 0.660540 0.770075
v -3.427373 0.298827 0.427928
v -4.159632 -0.046768 0.842157
v -4.243274 0.508022 0.840037
v -4.021591 0.381999 0.445019
vn 0.6200 -0.7589 0.1994
vn 0.8792 -0.2971 -0.3725
vn -0.8572 -0.1273 0.4990
vn -0.6434 -0.4703 0.6040
vn -0.0160 0.7759 -0.6307
vn 0.4711 -0.3178 0.8229
vn 0.6180 0.4730 0.6280
vn 0.9399 0.0594 -0.3361
vn -0.6689 0.5193 0.5319
vn -0.3293 0.8303 -0.4497
vn -0.1875 -0.5655 -0.8032
vn -0.8818 -0.1347 -0.4519
vn -0.1628 -0.9718 -0.1707
vt 0.550384 0.206938
vt 0.375000 0.305791
vt 0.375000 0.049496
vt 0.180791 0.500000
vt 0.330928 0.574320
vt 0.125000 0.700504
vt 0.804283 0.500000
vt 0.842867 0.681766
vt 0.658516 0.626313
vt 0.875000 0.500000
vt 0.501754 0.540833
vt 0.565165 0.799791
vt 0.325310 0.750000
vt 0.604031 0.069198
vt 0.375000 1.000000
vt 0.375000 0.799690
vt 0.578028 1.000000
vt 0.615335 0.592735
vt 0.589707 0.775249
vt 0.581909 0.353207
s 0
g Cube_Material
usemtl Material
f 240/351/208 242/352/208 241/353/208
f 242/354/209 245/355/209 241/356/209
f 246/357/210 243/358/210 247/359/210
f 243/358/211 246/357/211 240/360/211
f 248/361/212 239/362/212 244/363/212 245/355/212
f 241/353/213 243/364/213 240/351/213
f 241/365/214 244/366/214 239/362/214 243/367/214
f 245/355/215 244/363/215 241/356/215
f 247/368/216 243/358/216 239/369/216
f 239/362/217 248/361/217 247/368/217
f 248/361/218 245/355/218 242/352/218 246/370/218
f 248/361/219 246/370/219 247/368/219
f 242/352/220 240/351/220 246/370/220
o Cube
v 0.045311 0.361951 4.154408
v -0.417280 0.633376 3.477373
v -0.613988 0.575490 3.978256
v -0.703630 0.269679 3.624115
v -0.008634 0.722572 3.781844
v -0.410932 0.230049 4.224174
v -0.611875 0.008781 3.931587
v -0.182613 0.212746 3.352364
v 0.115252 0.091161 3.684201
v -0.197973 -0.135897 3.702979
vn -0.8071 0.5324 -0.2554
vn -0.9637 -0.0255 0.2659
vn 0.7645 0.2424 -0.5974
vn 0.4556 0.4775 -0.7513
vn 0.2002 -0.7615 0.6165
vn -0.2291 0.9731 0.0225
vn 0.0140 0.6617 0.7496
vn -0.8045 -0.0517 0.5917
vn 0.9817 0.1867 0.0385
vn 0.5335 -0.6962 0.4803
vn -0.4548 -0.6791 -0.5762
vn 0.4327 -0.6487 -0.6261
vn -0.4619 0.0059 -0.8869
vt 0.550384 0.206938
vt 0.375000 0.305791
vt 0.375000 0.049496
vt 0.180791 0.500000
vt 0.330928 0.574320
vt 0.125000 0.700504
vt 0.804283 0.500000
vt 0.842867 0.681766
vt 0.658516 0.626313
vt 0.875000 0.500000
vt 0.501754 0.540833
vt 0.565165 0.799791
vt 0.325310 0.750000
vt 0.604031 0.069198
vt 0.375000 1.000000
vt 0.375000 0.799690
vt 0.578028 1.000000
vt 0.615335 0.592735
vt 0.589707 0.775249
vt 0.581909 0.353207
s 0
g Cube_Material
usemtl Material
f 250/371/221 252/372/221 251/373/221
f 252/374/222 255/375/222 251/376/222
f 256/377/223 253/378/223 257/379/223
f 253/378/224 256/377/224 250/380/224
f 258/381/225 249/382/225 254/383/225 255/375/225
f 251/373/226 253/384/226 250/371/226
f 251/385/227 254/386/227 249/382/227 253/387/227
f 255/375/228 254/383/228 251/376/228
f 257/388/229 253/378/229 249/389/229
f 249/382/230 258/381/230 257/388/230
f 258/381/231 255/375/231 252/372/231 256/390/231
f 258/381/232 256/390/232 257/388/232
f 252/372/233 250/371/233 256/390/233
o Cube
v 2.366250 -0.549259 0.181918
v 2.874627 0.216401 -0.048230
v 2.293346 0.156287 -0.152902
v 2.658640 0.113655 -0.524169
v 2.695513 -0.121645 0.370919
v 2.146157 -0.329683 -0.243048
v 2.399884 -0.247362 -0.616335
v 3.129547 -0.227106 -0.238668
v 2.904375 -0.646888 -0.065126
v 2.797230 -0.587141 -0.471888
vn -0.0690 0.9812 -0.1805
vn -0.5589 0.5574 -0.6140
vn 0.7868 -0.1777 0.5910
vn 0.8105 0.2356 0.5363
vn -0.4456 -0.8310 -0.3330
vn -0.1852 0.8021 0.5678
vn -0.7629 0.2112 0.6111
vn -0.8120 0.3346 -0.4781
vn 0.2630 -0.5522 0.7911
vn -0.2159 -0.9726 -0.0860
vn 0.4590 0.0245 -0.8881
vn 0.7894 -0.5423 -0.2876
vn 0.6860 0.5819 -0.4369
vt 0.550384 0.206938
vt 0.375000 0.305791
vt 0.375000 0.049496
vt 0.180791 0.500000
vt 0.330928 0.574320
vt 0.125000 0.700504
vt 0.804283 0.500000
vt 0.842867 0.681766
vt 0.658516 0.626313
vt 0.875000 0.500000
vt 0.501754 0.540833
vt 0.565165 0.799791
vt 0.325310 0.750000
vt 0.604031 0.069198
vt 0.375000 1.000000
vt 0.375000 0.799690
vt 0.578028 1.000000
vt 0.615335 0.592735
vt 0.589707 0.775249
vt 0.581909 0.353207
s 0
g Cube_Material
usemtl Material
f 260/391/234 262/392/234 261/393/234
f 262/394/235 265/395/235 261/396/235
f 266/397/236 263/398/236 267/399/236
f 263/398/237 266/397/237 260/400/237
f 268/401/238 259/402/238 264/403/238 265/395/238
f 261/393/239 263/404/239 260/391/239
f 261/405/240 264/406/240 259/402/240 263/407/240
f 265/395/241 264/403/241 261/396/241
f 267/408/242 263/398/242 259/409/242
f 259/402/243 268/401/243 267/408/243
f 268/401/244 265/395/244 262/392/244 266/410/244
f 268/401/245 266/410/245 267/408/245
f 262/392/246 260/391/246 266/410/246
o Cube
v 0.377953 0.598281 -2.484149
v 0.302037 0.163157 -3.271205
v -0.094331 0.503957 -3.055386
v -0.128492 0.007328 -3.052520
v 0.584054 0.522981 -2.982719
v -0.108692 0.507013 -2.564344
v -0.244132 0.099689 -2.646528
v 0.440891 -0.178159 -2.904340
v 0.546933 0.052237 -2.493348
v 0.183358 -0.122327 -2.459646
vn -0.4603 0.0265 -0.8873
vn -0.9558 0.0641 -0.2868
vn 0.9684 -0.2124 -0.1308
vn 0.8225 -0.2263 -0.5218
vn -0.2761 0.0317 0.9606
vn 0.0696 0.5902 -0.8042
vn -0.0812 0.9920 -0.0966
vn -0.9467 0.3208 -0.0297
vn 0.9027 0.2738 0.3318
vn 0.0874 0.0103 0.9961
vn -0.3772 -0.9261 -0.0041
vn 0.4313 -0.8299 0.3540
vn -0.0690 -0.7433 -0.6654
vt 0.550384 0.206938
vt 0.375000 0.305791
vt 0.375000 0.049496
vt 0.180791 0.500000
vt 0.330928 0.574320
vt 0.125000 0.700504
vt 0.804283 0.500000
vt 0.842867 0.681766
vt 0.658516 0.626313
vt 0.875000 0.500000
vt 0.501754 0.540833
vt 0.565165 0.799791
vt 0.325310 0.750000
vt 0.604031 0.069198
vt 0.375000 1.000000
vt 0.375000 0.799690
vt 0.578028 1.000000
vt 0.615335 0.592735
vt 0.589707 0.775249
vt 0.581909 0.353207
s 0
g Cube_Material
usemtl Material
f 270/411/247 272/412/247 271/413/247
f 272/414/248 275/415/248 271/416/248
f 276/417/249 273/418/249 277/419/249
f 273/418/250 276/417/250 270/420/250
f 278/421/251 269/422/251 274/423/251 275/415/251
f 271/413/252 273/424/252 270/411/252
f 271/425/253 274/426/253 269/422/253 273/427/253
f 275/415/254 274/423/254 271/416/254
f 277/428/255 273/418/255 269/429/255
f 269/422/256 278/421/256 277/428/256
f 278/421/257 275/415/257 272/412/257 276/430/257
f 278/421/258 276/430/258 277/428/258
f 272/412/259 270/411/259 276/430/259
o Cube
v 1.501648 1.183888 -1.982111
v 1.848543 0.531940 -1.558507
v 1.953601 0.649932 -2.068050
v 1.677917 0.293216 -1.936652
v 1.788290 1.037784 -1.581463
v 1.597134 0.841217 -2.294080
v 1.452554 0.460070 -2.232508
v 1.361628 0.515538 -1.501720
v 1.170271 0.891997 -1.672617
v 1.112902 0.600524 -1.912413
vn 0.7952 -0.6059 0.0237
vn 0.4449 -0.5915 -0.6725
vn -0.2105 0.3134 0.9260
vn 0.1137 0.0586 0.9918
vn -0.6764 0.2814 -0.6807
vn 0.9655 0.1254 0.2281
vn 0.6832 0.6360 -0.3587
vn 0.3961 -0.2909 -0.8709
vn -0.2680 0.8275 0.4935
vn -0.7865 0.4773 -0.3920
vn -0.4775 -0.8786 0.0073
vn -0.8539 -0.2199 0.4716
vn 0.0876 -0.8597 0.5032
vt 0.550384 0.206938
vt 0.375000 0.305791
vt 0.375000 0.049496
vt 0.180791 0.500000
vt 0.330928 0.574320
vt 0.125000 0.700504
vt 0.804283 0.500000
vt 0.842867 0.681766
vt 0.658516 0.626313
vt 0.875000 0.500000
vt 0.501754 0.540833
vt 0.565165 0.799791
vt 0.325310 0.750000
vt 0.604031 0.069198
vt 0.375000 1.000000
vt 0.375000 0.799690
vt 0.578028 1.000000
vt 0.615335 0.592735
vt 0.589707 0.775249
vt 0.581909 0.353207
s 0
g Cube_Material
usemtl Material
f 280/431/260 282/432/260 281/433/260
f 282/434/261 285/435/261 281/436/261
f 286/437/262 283/438/262 287/439/262
f 283/438/263 286/437/263 280/440/263
f 288/441/264 279/442/264 284/443/264 285/435/264
f 281/433/265 283/444/265 280/431/265
f 281/445/266 284/446/266 279/442/266 283/447/266
f 285/435/267 284/443/267 281/436/267
f 287/448/268 283/438/268 279/449/268
f 279/442/269 288/441/269 287/448/269
f 288/441/270 285/435/270 282/432/270 286/450/270
f 288/441/271 286/450/271 287/448/271
f 282/432/272 280/431/272 286/450/272
o Cube
v -2.222647 0.208659 -1.299956
v -2.429108 0.708758 -0.328684
v -1.874681 0.305764 -0.453399
v -2.358193 0.122544 -0.123685
v -2.315713 0.790951 -0.979722
v -1.978569 -0.138564 -0.850908
v -2.284925 -0.300227 -0.438750
v -2.953934 0.390559 -0.511970
v -2.886264 0.183592 -1.065624
v -2.834301 -0.191358 -0.741165
vn 0.4367 0.3436 0.8314
vn 0.6150 -0.3999 0.6796
vn -0.6637 0.6704 -0.3317
vn -0.5226 0.8524 0.0166
vn -0.0122 -0.8605 -0.5093
vn 0.6052 0.7699 0.2026
vn 0.8808 0.2651 -0.3924
vn 0.7726 -0.5140 0.3727
vn -0.3165 0.4178 -0.8516
vn -0.2295 -0.6549 -0.7200
vn -0.5639 -0.4745 0.6760
vn -0.9820 -0.1813 -0.0523
vn -0.4491 0.2460 0.8589
vt 0.550384 0.206938
vt 0.375000 0.305791
vt 0.375000 0.049496
vt 0.180791 0.500000
vt 0.330928 0.574320
vt 0.125000 0.700504
vt 0.804283 0.500000
vt 0.842867 0.681766
vt 0.658516 0.626313
vt 0.875000 0.500000
vt 0.501754 0.540833
vt 0.565165 0.799791
vt 0.325310 0.750000
vt 0.604031 0.069198
vt 0.375000 1.000000
vt 0.375000 0.799690
vt 0.578028 1.000000
vt 0.615335 0.592735
vt 0.589707 0.775249
vt 0.581909 0.353207
s 0
g Cube_Material
usemtl Material
f 290/451/273 292/452/273 291/453/273
f 292/454/274 295/455/274 291/456/274
f 296/457/275 293/458/275 297/459/275
f 293/458/276 296/457/276 290/460/276
f 298/461/277 289/462/277 294/463/277 295/455/277
f 291/453/278 293/464/278 290/451/278
f 291/465/279 294/466/279 289/462/279 293/467/279
f 295/455/280 294/463/280 291/456/280
f 297/468/281 293/458/281 289/469/281
f 289/462/282 298/461/282 297/468/282
f 298/461/283 295/455/283 292/452/283 296/470/283
f 298/461/284 296/470/284 297/468/284
f 292/452/285 290/451/285 296/470/285
o Cube
v 1.106661 0.324239 -0.672976
v 0.556846 0.643456 -1.702836
v 0.886981 -0.028972 -1.584514
v 1.158370 0.453349 -1.957825
v 0.483823 0.537632 -0.989403
v 1.405001 -0.004580 -1.178242
v 1.614156 0.292263 -1.638278
v 1.009770 1.143391 -1.526411
v 1.249385 1.030225 -0.935466
v 1.621864 0.901676 -1.308679
vn -0.4590 -0.3677 -0.8088
vn 0.2474 -0.6763 -0.6939
vn -0.5226 0.7729 0.3599
vn -0.7449 0.6668 0.0227
vn 0.8742 -0.1424 0.4643
vn -0.8752 -0.4574 -0.1574
vn -0.3975 -0.8193 0.4133
vn 0.3474 -0.8520 -0.3918
vn -0.3094 0.3857 0.8692
vn 0.7220 0.1081 0.6834
vn 0.5317 0.4702 -0.7044
vn 0.3565 0.9337 0.0342
vn -0.2062 0.4864 -0.8490
vt 0.550384 0.206938
vt 0.375000 0.305791
vt 0.375000 0.049496
vt 0.180791 0.500000
vt 0.330928 0.574320
vt 0.125000 0.700504
vt 0.804283 0.500000
vt 0.842867 0.681766
vt 0.658516 0.626313
vt 0.875000 0.500000
vt 0.501754 0.540833
vt 0.565165 0.799791
vt 0.325310 0.750000
vt 0.604031 0.069198
vt 0.375000 1.000000
vt 0.375000 0.799690
vt 0.578028 1.000000
vt 0.615335 0.592735
vt 0.589707 0.775249
vt 0.581909 0.353207
s 0
g Cube_Material
usemtl Material
f 300/471/286 302/472/286 301/473/286
f 302/474/287 305/475/287 301/476/287
f 306/477/288 303/478/288 307/479/288
f 303/478/289 306/477/289 300/480/289
f 308/481/290 299/482/290 304/483/290 305/475/290
f 301/473/291 303/484/291 300/471/291
f 301/485/292 304/486/292 299/482/292 303/487/292
f 305/475/293 304/483/293 301/476/293
f 307/488/294 303/478/294 299/489/294
f 299/482/295 308/481/295 307/488/295
f 308/481/296 305/475/296 302/472/296 306/490/296
f 308/481/297 306/490/297 307/488/297
f 302/472/298 300/471/298 306/490/298
o Cube
v -1.746618 0.403129 -0.524190
v -2.179471 -0.440082 -0.672613
v -2.464562 0.088805 -0.652866
v -2.477237 -0.264090 -0.258757
v -1.787173 -0.065357 -0.862052
v -2.243123 0.437021 -0.332855
v -2.395870 0.123452 -0.025975
v -1.859492 -0.481298 -0.223821
v -1.570614 -0.060044 -0.172394
v -1.892792 -0.048024 0.112450
vn -0.8114 -0.4223 -0.4042
vn -0.9841 0.1467 0.0997
vn 0.8123 -0.5264 -0.2510
vn 0.5065 -0.7475 -0.4298
vn 0.1854 0.7339 0.6535
vn -0.3208 -0.1379 -0.9371
vn -0.1505 0.6490 -0.7458
vn -0.8690 0.4900 0.0681
vn 0.9453 0.1330 -0.2979
vn 0.5264 0.6320 0.5687
vn -0.3062 -0.5302 0.7907
vn 0.5730 -0.4745 0.6682
vn -0.3355 -0.9294 0.1538
vt 0.550384 0.206938
vt 0.375000 0.305791
vt 0.375000 0.049496
vt 0.180791 0.500000
vt 0.330928 0.574320
vt 0.125000 0.700504
vt 0.804283 0.500000
vt 0.842867 0.681766
vt 0.658516 0.626313
vt 0.875000 0.500000
vt 0.501754 0.540833
vt 0.565165 0.799791
vt 0.325310 0.750000
vt 0.604031 0.069198
vt 0.375000 1.000000
vt 0.375000 0.799690
vt 0.578028 1.000000
vt 0.615335 0.592735
vt 0.589707 0.775249
vt 0.581909 0.353207
s 0
g Cube_Material
usemtl Material
f 310/491/299 312/492/299 311/493/299
f 312/494/300 315/495/300 311/496/300
f 316/497/301 313/498/301 317/499/301
f 313/498/302 316/497/302 310/500/302
f 318/501/303 309/502/303 314/503/303 315/495/303
f 311/493/304 313/504/304 310/491/304
f 311/505/305 314/506/305 309/502/305 313/507/305
f 315/495/306 314/503/306 311/496/306
f 317/508/307 313/498/307 309/509/307
f 309/502/308 318/501/308 317/508/308
f 318/501/309 315/495/309 312/492/309 316/510/309
f 318/501/310 316/510/310 317/508/310
f 312/492/311 310/491/311 316/510/311
o Cube
v -0.010358 -0.133822 -0.997579
v -0.632522 0.385094 -1.844135
v -0.771696 0.453348 -1.126444
v -1.124074 0.085280 -1.524032
v -0.002109 0.315593 -1.543574
v -0.621256 -0.062915 -0.783456
v -1.054606 -0.263394 -1.090029
v -0.577373 -0.272296 -1.987423
v -0.178696 -0.548239 -1.589847
v -0.671608 -0.673422 -1.457705
vn -0.5985 0.7783 -0.1901
vn -0.8380 0.3520 0.4169
vn 0.6683 -0.0971 -0.7375
vn 0.4394 0.2263 -0.8693
vn 0.0328 -0.7421 0.6695
vn 0.1407 0.9878 -0.0667
vn 0.3943 0.6532 0.6464
vn -0.6383 0.2882 0.7138
vn 0.9712 -0.1909 -0.1425
vn 0.3341 -0.8142 0.4748
vn -0.7695 -0.4943 -0.4043
vn 0.0428 -0.8001 -0.5983
vn -0.5934 0.1236 -0.7954
vt 0.550384 0.206938
vt 0.375000 0.305791
vt 0.375000 0.049496
vt 0.180791 0.500000
vt 0.330928 0.574320
vt 0.125000 0.700504
vt 0.804283 0.500000
vt 0.842867 0.681766
vt 0.658516 0.626313
vt 0.875000 0.500000
vt 0.501754 0.540833
vt 0.565165 0.799791
vt 0.325310 0.750000
vt 0.604031 0.069198
vt 0.375000 1.000000
vt 0.375000 0.799690
vt 0.578028 1.000000
vt 0.615335 0.592735
vt 0.589707 0.775249
vt 0.581909 0.353207
s 0
g Cube_Material
usemtl Material
f 320/511/312 322/512/312 321/513/312
f 322/514/313 325/515/313 321/516/313
f 326/517/314 323/518/314 327/519/314
f 323/518/315 326/517/315 320/520/315
f 328/521/316 319/522/316 324/523/316 325/515/316
f 321/513/317 323/524/317 320/511/317
f 321/525/318 324/526/318 319/522/318 323/527/318
f 325/515/319 324/523/319 321/516/319
f 327/528/320 323/518/320 319/529/320
f 319/522/321 328/521/321 327/528/321
f 328/521/322 325/515/322 322/512/322 326/530/322
f 328/521/323 326/530/323 327/528/323
f 322/512/324 320/511/324 326/530/324
o Cube
v -4.546477 0.863239 4.914941
v -3.665387 0.751349 4.530300
v -4.132082 1.014418 4.246019
v -3.960533 0.521136 4.135348
v -3.976698 0.983699 4.960629
v -4.602353 0.819536 4.381738
v -4.418344 0.452311 4.155991
v -3.837136 0.260095 4.730578
v -4.275792 0.319697 4.999412
v -4.366223 0.143601 4.613164
vn 0.6267 0.3716 -0.6849
vn -0.0733 0.1940 -0.9783
vn 0.4972 -0.1743 0.8499
vn 0.8004 -0.0359 0.5984
vn -0.9456 -0.3248 0.0162
vn 0.5251 0.8475 -0.0777
vn -0.2869 0.9572 0.0386
vn -0.3867 0.3346 -0.8594
vn -0.1012 0.1034 0.9895
vn -0.8540 -0.3681 0.3678
vn 0.2070 -0.8455 -0.4923
vn 0.1147 -0.9138 0.3897
vn 0.8241 -0.4357 -0.3619
vt 0.550384 0.206938
vt 0.375000 0.305791
vt 0.375000 0.049496
vt 0.180791 0.500000
vt 0.330928 0.574320
vt 0.125000 0.700504
vt 0.804283 0.500000
vt 0.842867 0.681766
vt 0.658516 0.626313
vt 0.875000 0.500000
vt 0.501754 0.540833
vt 0.565165 0.799791
vt 0.325310 0.750000
vt 0.604031 0.069198
vt 0.375000 1.000000
vt 0.375000 0.799690
vt 0.578028 1.000000
vt 0.615335 0.592735
vt 0.589707 0.775249
vt 0.581909 0.353207
s 0
g Cube_Material
usemtl Material
f 330/531/325 332/532/325 331/533/325
f 332/534/326 335/535/326 331/536/326
f 336/537/327 333/538/327 337/539/327
f 333/538/328 336/537/328 330/540/328
f 338/541/329 329/542/329 334/543/329 335/535/329
f 331/533/330 333/544/330 330/531/330
f 331/545/331 334/546/331 329/542/331 333/547/331
f 335/535/332 334/543/332 331/536/332
f 337/548/333 333/538/333 329/549/333
f 329/542/334 338/541/334 337/548/334
f 338/541/335 335/535/335 332/532/335 336/550/335
f 338/541/336 336/550/336 337/548/336
f 332/532/337 330/531/337 336/550/337
o Cube
v 6.261961 -0.282916 1.810324
v 5.290657 0.129375 1.512673
v 5.799674 0.497915 1.790239
v 5.305690 0.329233 2.095560
v 5.834785 -0.180849 1.315386
v 6.139771 0.191273 2.172912
v 5.682057 0.209411 2.441314
v 5.193010 -0.378246 1.875659
v 5.700100 -0.654793 1.978468
v 5.566336 -0.404417 2.379874
vn -0.4596 0.8437 -0.2774
vn -0.0697 0.9166 0.3936
vn -0.2886 -0.7503 -0.5949
vn -0.5145 -0.4311 -0.7412
vn 0.5790 -0.2931 0.7608
vn 0.0306 0.5740 -0.8183
vn 0.7671 0.4422 -0.4647
vn 0.2866 0.8557 0.4309
vn 0.3760 -0.7883 -0.4871
vn 0.5665 -0.6011 0.5637
vn -0.7508 -0.0108 0.6604
vn -0.5026 -0.7987 0.3307
vn -0.9855 0.1668 -0.0318
vt 0.550384 0.206938
vt 0.375000 0.305791
vt 0.375000 0.049496
vt 0.180791 0.500000
vt 0.330928 0.574320
vt 0.125000 0.700504
vt 0.804283 0.500000
vt 0.842867 0.681766
vt 0.658516 0.626313
vt 0.875000 0.500000
vt 0.501754 0.540833
vt 0.565165 0.799791
vt 0.325310 0.750000
vt 0.604031 0.069198
vt 0.375000 1.000000
vt 0.375000 0.799690
vt 0.578028 1.000000
vt 0.615335 0.592735
vt 0.589707 0.775249
vt 0.581909 0.353207
s 0
g Cube_Material
usemtl Material
f 340/551/338 342/552/338 341/553/338
f 342/554/339 345/555/339 341/556/339
f 346/557/340 343/558/340 347/559/340
f 343/558/341 346/557/341 340/560/341
f 348/561/342 339/562/342 344/563/342 345/555/342
f 341/553/343 343/564/343 340/551/343
f 341/565/344 344/566/344 339/562/344 343/567/344
f 345/555/345 344/563/345 341/556/345
f 347/568/346 343/558/346 339/569/346
f 339/562/347 348/561/347 347/568/347
f 348/561/348 345/555/348 342/552/348 346/570/348
f 348/561/349 346/570/349 347/568/349
f 342/552/350 340/551/350 346/570/350
o Cube
v 5.689362 0.664380 -2.371477
v 4.766974 1.181560 -2.777351
v 4.781301 0.798687 -2.179882
v 4.531706 0.593152 -2.714479
v 5.401865 1.258153 -2.550763
v 5.185453 0.333202 -2.190731
v 4.822200 0.160693 -2.563761
v 5.035163 0.826231 -3.254503
v 5.572156 0.608205 -3.077066
v 5.226651 0.236082 -3.064992
vn -0.8849 0.3823 0.2662
vn -0.7880 -0.3537 0.5039
vn 0.4619 0.6281 -0.6262
vn 0.0996 0.8241 -0.5577
vn 0.4788 -0.8698 0.1192
vn -0.2834 0.8043 0.5222
vn 0.2394 0.3030 0.9224
vn -0.5168 -0.4655 0.7185
vn 0.9055 0.3838 -0.1810
vn 0.7301 -0.6800 -0.0671
vn -0.5800 -0.4899 -0.6508
vn 0.2183 -0.2334 -0.9475
vn -0.7595 0.2391 -0.6049
vt 0.550384 0.206938
vt 0.375000 0.305791
vt 0.375000 0.049496
vt 0.180791 0.500000
vt 0.330928 0.574320
vt 0.125000 0.700504
vt 0.804283 0.500000
vt 0.842867 0.681766
vt 0.658516 0.626313
vt 0.875000 0.500000
vt 0.501754 0.540833
vt 0.565165 0.799791
vt 0.325310 0.750000
vt 0.604031 0.069198
vt 0.375000 1.000000
vt 0.375000 0.799690
vt 0.578028 1.000000
vt 0.615335 0.592735
vt 0.589707 0.775249
vt 0.581909 0.353207
s 0
g Cube_Material
usemtl Material
f 350/571/351 352/572/351 351/573/351
f 352/574/352 355/575/352 351/576/352
f 356/577/353 353/578/353 357/579/353
f 353/578/354 356/577/354 350/580/354
f 358/581/355 349/582/355 354/583/355 355/575/355
f 351/573/356 353/584/356 350/571/356
f 351/585/357 354/586/357 349/582/357 353/587/357
f 355/575/358 354/583/358 351/576/358
f 357/588/359 353/578/359 349/589/359
f 349/582/360 358/581/360 357/588/360
f 358/581/361 355/575/361 352/572/361 356/590/361
f 358/581/362 356/590/362 357/588/362
f 352/572/363 350/571/363 356/590/363
o Cube
v -3.825499 0.548402 2.965597
v -3.865174 0.456964 4.023957
v -4.264850 0.851214 3.665435
v -3.814484 1.051069 3.983293
v -3.914741 0.155802 3.465147
v -4.018540 1.061462 3.185910
v -3.745520 1.305356 3.547812
v -3.286325 0.568140 3.857626
v -3.236285 0.544552 3.291477
v -3.231964 1.000054 3.431970
vn -0.6043 0.1056 0.7898
vn -0.5728 0.7441 0.3438
vn 0.5110 -0.8558 0.0808
vn 0.2887 -0.8533 0.4343
vn 0.2862 0.5650 -0.7739
vn -0.7971 -0.4992 0.3397
vn -0.8658 -0.2354 -0.4417
vn -0.6594 0.7517 -0.0091
vn 0.3020 -0.7750 -0.5551
vn 0.4691 0.2562 -0.8452
vn 0.5794 0.5950 0.5571
vn 0.9953 -0.0371 0.0895
vn 0.2683 0.0430 0.9624
vt 0.550384 0.206938
vt 0.375000 0.305791
vt 0.375000 0.049496
vt 0.180791 0.500000
vt 0.330928 0.574320
vt 0.125000 0.700504
vt 0.804283 0.500000
vt 0.842867 0.681766
vt 0.658516 0.626313
vt 0.875000 0.500000
vt 0.501754 0.540833
vt 0.565165 0.799791
vt 0.325310 0.750000
vt 0.604031 0.069198
vt 0.375000 1.000000
vt 0.375000 0.799690
vt 0.578028 1.000000
vt 0.615335 0.592735
vt 0.589707 0.775249
vt 0.581909 0.353207
s 0
g Cube_Material
usemtl Material
f 360/591/364 362/592/364 361/593/364
f 362/594/365 365/595/365 361/596/365
f 366/597/366 363/598/366 367/599/366
f 363/598/367 366/597/367 360/600/367
f 368/601/368 359/602/368 364/603/368 365/595/368
f 361/593/369 363/604/369 360/591/369
f 361/605/370 364/606/370 359/602/370 363/607/370
f 365/595/371 364/603/371 361/596/371
f 367/608/372 363/598/372 359/609/372
f 359/602/373 368/601/373 367/608/373
f 368/601/374 365/595/374 362/592/374 366/610/374
f 368/601/375 366/610/375 367/608/375
f 362/592/376 360/591/376 366/610/376
o Cube
v -2.677214 0.348914 4.607248
v -2.094565 0.340937 5.122536
v -2.545746 0.181349 5.214969
v -2.392910 0.555122 5.359941
v -2.246778 0.191144 4.708448
v -2.847987 0.388120 5.002445
v -2.727327 0.659802 5.233783
v -2.124324 0.751422 4.945195
v -2.395515 0.752533 4.629426
v -2.542243 0.901381 4.908685
vn 0.3305 -0.4557 0.8265
vn -0.3973 -0.1861 0.8986
vn 0.7543 0.1087 -0.6474
vn 0.9443 -0.0705 -0.3216
vn -0.8444 0.4499 -0.2908
vn 0.3625 -0.9111 0.1963
vn -0.3803 -0.9094 -0.1685
vn -0.6735 -0.2825 0.6830
vn 0.1985 -0.0849 -0.9764
vn -0.6435 0.4818 -0.5949
vn 0.1501 0.8077 0.5701
vn 0.3455 0.8913 -0.2936
vn 0.7197 0.3187 0.6169
vt 0.550384 0.206938
vt 0.375000 0.305791
vt 0.375000 0.049496
vt 0.180791 0.500000
vt 0.330928 0.574320
vt 0.125000 0.700504
vt 0.804283 0.500000
vt 0.842867 0.681766
vt 0.658516 0.626313
vt 0.875000 0.500000
vt 0.501754 0.540833
vt 0.565165 0.799791
vt 0.325310 0.750000
vt 0.604031 0.069198
vt 0.375000 1.000000
vt 0.375000 0.799690
vt 0.578028 1.000000
vt 0.615335 0.592735
vt 0.589707 0.775249
vt 0.581909 0.353207
s 0
g Cube_Material
usemtl Material
f 370/611/377 372/612/377 371/613/377
f 372/614/378 375/615/378 371/616/378
f 376/617/379 373/618/379 377/619/379
f 373/618/380 376/617/380 370/620/380
f 378/621/381 369/622/381 374/623/381 375/615/381
f 371/613/382 373/624/382 370/611/382
f 371/625/383 374/626/383 369/622/383 373/627/383
f 375/615/384 374/623/384 371/616/384
f 377/628/385 373/618/385 369/629/385
f 369/622/386 378/621/386 377/628/386
f 378/621/387 375/615/387 372/612/387 376/630/387
f 378/621/388 376/630/388 377/628/388
f 372/612/389 370/611/389 376/630/389
o Cube
v 3.126907 -0.396938 -3.441284
v 3.620034 0.309042 -3.944467
v 3.728221 0.161011 -3.346992
v 3.457192 0.613694 -3.502773
v 3.478792 -0.270573 -3.913065
v 3.287859 -0.009427 -3.079100
v 3.173108 0.453736 -3.153836
v 3.055769 0.396306 -4.009093
v 2.781051 -0.013194 -3.804921
v 2.756645 0.335753 -3.526218
vn 0.8622 0.5056 -0.0309
vn 0.5157 0.5382 0.6666
vn -0.2508 -0.2920 -0.9230
vn 0.1015 -0.0785 -0.9917
vn -0.7023 -0.1934 0.6851
vn 0.9424 -0.2421 -0.2306
vn 0.6033 -0.7112 0.3608
vn 0.4321 0.2470 0.8674
vn -0.3677 -0.7925 -0.4866
vn -0.8365 -0.3765 0.3982
vn -0.3684 0.9296 -0.0119
vn -0.8233 0.3179 -0.4702
vn 0.1882 0.8395 -0.5097
vt 0.550384 0.206938
vt 0.375000 0.305791
vt 0.375000 0.049496
vt 0.180791 0.500000
vt 0.330928 0.574320
vt 0.125000 0.700504
vt 0.804283 0.500000
vt 0.842867 0.681766
vt 0.658516 0.626313
vt 0.875000 0.500000
vt 0.501754 0.540833
vt 0.565165 0.799791
vt 0.325310 0.750000
vt 0.604031 0.069198
vt 0.375000 1.000000
vt 0.375000 0.799690
vt 0.578028 1.000000
vt 0.615335 0.592735
vt 0.589707 0.775249
vt 0.581909 0.353207
s 0
g Cube_Material
usemtl Material
f 380/631/390 382/632/390 381/633/390
f 382/634/391 385/635/391 381/636/391
f 386/637/392 383/638/392 387/639/392
f 383/638/393 386/637/393 380/640/393
f 388/641/394 379/642/394 384/643/394 385/635/394
f 381/633/395 383/644/395 380/631/395
f 381/645/396 384/646/396 379/642/396 383/647/396
f 385/635/397 384/643/397 381/636/397
f 387/648/398 383/638/398 379/649/398
f 379/642/399 388/641/399 387/648/399
f 388/641/400 385/635/400 382/632/400 386/650/400
f 388/641/401 386/650/401 387/648/401
f 382/632/402 380/631/402 386/650/402
o Cube
v -4.654252 -0.291311 -1.785773
v -4.129132 0.311334 -1.850462
v -4.005852 -0.175467 -1.868982
v -3.931831 0.081414 -1.516572
v -4.519429 0.100952 -2.035216
v -4.262514 -0.432478 -1.626878
v -4.081182 -0.230274 -1.349312
v -4.389166 0.380702 -1.474916
v -4.709925 0.095933 -1.461792
v -4.456937 0.001923 -1.224135
vn 0.8991 0.2416 -0.3650
vn 0.9163 -0.3898 0.0917
vn -0.6538 0.7267 -0.2108
vn -0.2992 0.8797 -0.3697
vn -0.3738 -0.7150 0.5908
vn 0.3671 0.1280 -0.9213
vn 0.0062 -0.6060 -0.7955
vn 0.7220 -0.6911 0.0318
vn -0.9418 0.1254 -0.3118
vn -0.6777 -0.5267 0.5131
vn 0.4067 0.3762 0.8325
vn -0.4565 0.5465 0.7021
vn 0.5475 0.8045 0.2305
vt 0.550384 0.206938
vt 0.375000 0.305791
vt 0.375000 0.049496
vt 0.180791 0.500000
vt 0.330928 0.574320
vt 0.125000 0.700504
vt 0.804283 0.500000
vt 0.842867 0.681766
vt 0.658516 0.626313
vt 0.875000 0.500000
vt 0.501754 0.540833
vt 0.565165 0.799791
vt 0.325310 0.750000
vt 0.604031 0.069198
vt 0.375000 1.000000
vt 0.375000 0.799690
vt 0.578028 1.000000
vt 0.615335 0.592735
vt 0.589707 0.775249
vt 0.581909 0.353207
s 0
g Cube_Material
usemtl Material
f 390/651/403 392/652/403 391/653/403
f 392/654/404 395/655/404 391/656/404
f 396/657/405 393/658/405 397/659/405
f 393/658/406 396/657/406 390/660/406
f 398/661/407 389/662/407 394/663/407 395/655/407
f 391/653/408 393/664/408 390/651/408
f 391/665/409 394/666/409 389/662/409 393/667/409
f 395/655/410 394/663/410 391/656/410
f 397/668/411 393/658/411 389/669/411
f 389/662/412 398/661/412 397/668/412
f 398/661/413 395/655/413 392/652/413 396/670/413
f 398/661/414 396/670/414 397/668/414
f 392/652/415 390/651/415 396/670/415
o Cube
v 3.522998 1.042602 1.785931
v 3.822433 0.222094 1.707764
v 3.342926 0.356415 1.940091
v 3.734224 0.226110 2.192806
v 3.678800 0.659756 1.455353
v 3.345254 0.781549 2.157111
v 3.608701 0.563520 2.408884
v 4.184146 0.507880 1.914499
v 4.059397 0.960132 1.904264
v 4.016511 0.821045 2.269575
vn -0.2895 -0.9561 -0.0447
vn -0.5688 -0.5831 0.5801
vn 0.6904 0.1745 -0.7021
vn 0.6147 -0.2329 -0.7536
vn -0.1487 0.7739 0.6156
vn -0.4838 -0.5509 -0.6800
vn -0.8861 0.1327 -0.4442
vn -0.7748 -0.2841 0.5648
vn 0.2555 0.6893 -0.6779
vn 0.0632 0.9302 0.3616
vn 0.5844 -0.3705 0.7219
vn 0.9410 0.2644 0.2111
vn 0.5761 -0.8098 0.1115
vt 0.550384 0.206938
vt 0.375000 0.305791
vt 0.375000 0.049496
vt 0.180791 0.500000
vt 0.330928 0.574320
vt 0.125000 0.700504
vt 0.804283 0.500000
vt 0.842867 0.681766
vt 0.658516 0.626313
vt 0.875000 0.500000
vt 0.501754 0.540833
vt 0.565165 0.799791
vt 0.325310 0.750000
vt 0.604031 0.069198
vt 0.375000 1.000000
vt 0.375000 0.799690
vt 0.578028 1.000000
vt 0.615335 0.592735
vt 0.589707 0.775249
vt 0.581909 0.353207
s 0
g Cube_Material
usemtl Material
f 400/671/416 402/672/416 401/673/416
f 402/674/417 405/675/417 401/676/417
f 406/677/418 403/678/418 407/679/418
f 403/678/419 406/677/419 400/680/419
f 408/681/420 399/682/420 404/683/420 405/675/420
f 401/673/421 403/684/421 400/671/421
f 401/685/422 404/686/422 399/682/422 403/687/422
f 405/675/423 404/683/423 401/676/423
f 407/688/424 403/678/424 399/689/424
f 399/682/425 408/681/425 407/688/425
f 408/681/426 405/675/426 402/672/426 406/690/426
f 408/681/427 406/690/427 407/688/427
f 402/672/428 400/671/428 406/690/428
o Cube
v 3.391378 -0.244628 3.422674
v 3.412569 -0.797310 2.385890
v 3.630922 -0.101957 2.490673
v 3.068723 -0.261255 2.210221
v 3.645133 -0.792215 3.050177
v 3.312286 0.203077 2.953857
v 2.900090 0.140078 2.566652
v 2.797150 -0.869867 2.658507
v 2.793609 -0.652472 3.248522
v 2.553693 -0.305524 2.932717
vn 0.4477 -0.0058 -0.8942
vn 0.1558 0.6917 -0.7052
vn -0.0734 -0.9359 0.3444
vn 0.1044 -0.9941 -0.0289
vn -0.4679 0.6741 0.5715
vn 0.9169 -0.2398 -0.3191
vn 0.9013 0.3287 0.2820
vn 0.2486 0.8787 -0.4076
vn 0.1109 -0.5233 0.8449
vn -0.4876 0.3788 0.7866
vn -0.8148 0.0304 -0.5790
vn -0.8747 -0.4565 0.1630
vn -0.3106 -0.4700 -0.8262
vt 0.550384 0.206938
vt 0.375000 0.305791
vt 0.375000 0.049496
vt 0.180791 0.500000
vt 0.330928 0.574320
vt 0.125000 0.700504
vt 0.804283 0.500000
vt 0.842867 0.681766
vt 0.658516 0.626313
vt 0.875000 0.500000
vt 0.501754 0.540833
vt 0.565165 0.799791
vt 0.325310 0.750000
vt 0.604031 0.069198
vt 0.375000 1.000000
vt 0.375000 0.799690
vt 0.578028 1.000000
vt 0.615335 0.592735
vt 0.589707 0.775249
vt 0.581909 0.353207
s 0
g Cube_Material
usemtl Material
f 410/691/429 412/692/429 411/693/429
f 412/694/430 415/695/430 411/696/430
f 416/697/431 413/698/431 417/699/431
f 413/698/432 416/697/432 410/700/432
f 418/701/433 409/702/433 414/703/433 415/695/433
f 411/693/434 413/704/434 410/691/434
f 411/705/435 414/706/435 409/702/435 413/707/435
f 415/695/436 414/703/436 411/696/436
f 417/708/437 413/698/437 409/709/437
f 409/702/438 418/701/438 417/708/438
f 418/701/439 415/695/439 412/692/439 416/710/439
f 418/701/440 416/710/440 417/708/440
f 412/692/441 410/691/441 416/710/441
o Cube
v 4.004445 -0.265849 -0.928120
v 3.969824 0.037606 0.033095
v 4.261294 0.353339 -0.430330
v 4.531087 0.055734 -0.045471
v 3.650760 -0.102848 -0.460271
v 4.468292 0.030938 -0.823514
v 4.755795 -0.089435 -0.447497
v 4.149400 -0.514810 0.018081
v 4.104266 -0.712254 -0.482171
v 4.538754 -0.621900 -0.394966
vn 0.0559 0.8084 0.5859
vn 0.6654 0.7391 0.1050
vn -0.7611 -0.5770 0.2964
vn -0.7728 -0.2669 0.5758
vn 0.5576 -0.4126 -0.7203
vn -0.5958 0.7868 0.1613
vn -0.3903 0.6698 -0.6317
vn 0.6397 0.7244 -0.2572
vn -0.7495 -0.5442 -0.3770
vn 0.2771 -0.6473 -0.7100
vn 0.7075 -0.3176 0.6313
vn 0.1215 -0.9270 0.3549
vn 0.1380 0.0180 0.9903
vt 0.550384 0.206938
vt 0.375000 0.305791
vt 0.375000 0.049496
vt 0.180791 0.500000
vt 0.330928 0.574320
vt 0.125000 0.700504
vt 0.804283 0.500000
vt 0.842867 0.681766
vt 0.658516 0.626313
vt 0.875000 0.500000
vt 0.501754 0.540833
vt 0.565165 0.799791
vt 0.325310 0.750000
vt 0.604031 0.069198
vt 0.375000 1.000000
vt 0.375000 0.799690
vt 0.578028 1.000000
vt 0.615335 0.592735
vt 0.589707 0.775249
vt 0.581909 0.353207
s 0
g Cube_Material
usemtl Material
f 420/711/442 422/712/442 421/713/442
f 422/714/443 425/715/443 421/716/443
f 426/717/444 423/718/444 427/719/444
f 423/718/445 426/717/445 420/720/445
f 428/721/446 419/722/446 424/723/446 425/715/446
f 421/713/447 423/724/447 420/711/447
f 421/725/448 424/726/448 419/722/448 423/727/448
f 425/715/449 424/723/449 421/716/449
f 427/728/450 423/718/450 419/729/450
f 419/722/451 428/721/451 427/728/451
f 428/721/452 425/715/452 422/712/452 426/730/452
f 428/721/453 426/730/453 427/728/453
f 422/712/454 420/711/454 426/730/454
o Cube
v -2.596820 0.327011 -2.194396
v -2.337346 0.335788 -3.232293
v -1.907170 0.461341 -2.733676
v -2.134865 0.881337 -3.080081
v -2.563853 -0.011200 -2.743472
v -2.151238 0.713570 -2.268976
v -2.193927 1.094163 -2.617892
v -2.836595 0.687791 -3.149998
v -3.031930 0.632375 -2.614712
v -2.803627 1.052065 -2.658383
vn 0.7660 -0.1075 -0.6338
vn 0.9024 0.4235 -0.0797
vn -0.7913 -0.5073 -0.3413
vn -0.5095 -0.5724 -0.6424
vn -0.1978 0.5513 0.8105
vn 0.5619 -0.7748 -0.2897
vn 0.5409 -0.6541 0.5288
vn 0.8933 0.3541 0.2770
vn -0.7330 -0.5980 0.3243
vn -0.5069 0.3574 0.7844
vn -0.1091 0.8492 -0.5168
vn -0.8578 0.4388 -0.2676
vn 0.0244 0.2603 -0.9652
vt 0.550384 0.206938
vt 0.375000 0.305791
vt 0.375000 0.049496
vt 0.180791 0.500000
vt 0.330928 0.574320
vt 0.125000 0.700504
vt 0.804283 0.500000
vt 0.842867 0.681766
vt 0.658516 0.626313
vt 0.875000 0.500000
vt 0.501754 0.540833
vt 0.565165 0.799791
vt 0.325310 0.750000
vt 0.604031 0.069198
vt 0.375000 1.000000
vt 0.375000 0.799690
vt 0.578028 1.000000
vt 0.615335 0.592735
vt 0.589707 0.775249
vt 0.581909 0.353207
s 0
g Cube_Material
usemtl Material
f 430/731/455 432/732/455 431/733/455
f 432/734/456 435/735/456 431/736/456
f 436/737/457 433/738/457 437/739/457
f 433/738/458 436/737/458 430/740/458
f 438/741/459 429/742/459 434/743/459 435/735/459
f 431/733/460 433/744/460 430/731/460
f 431/745/461 434/746/461 429/742/461 433/747/461
f 435/735/462 434/743/462 431/736/462
f 437/748/463 433/738/463 429/749/463
f 429/742/464 438/741/464 437/748/464
f 438/741/465 435/735/465 432/732/465 436/750/465
f 438/741/466 436/750/466 437/748/466
f 432/732/467 430/731/467 436/750/467
o Cube
v -3.478716 0.202512 1.509096
v -3.443346 -0.615923 1.583570
v -3.039888 -0.316615 1.468188
v -3.256014 -0.573407 1.162896
v -3.545692 -0.188918 1.807048
v -3.146669 0.049998 1.234377
v -3.224711 -0.233776 0.965953
v -3.799189 -0.504905 1.290928
v -3.864808 -0.069657 1.289264
v -3.690892 -0.168526 0.979362
vn 0.6200 -0.7589 0.1994
vn 0.8792 -0.2971 -0.3725
vn -0.8572 -0.1273 0.4990
vn -0.6434 -0.4703 0.6040
vn -0.0160 0.7759 -0.6307
vn 0.4711 -0.3178 0.8229
vn 0.6180 0.4730 0.6280
vn 0.9399 0.0594 -0.3361
vn -0.6689 0.5193 0.5319
vn -0.3293 0.8303 -0.4497
vn -0.1875 -0.5655 -0.8032
vn -0.8818 -0.1347 -0.4519
vn -0.1628 -0.9718 -0.1707
vt 0.550384 0.206938
vt 0.375000 0.305791
vt 0.375000 0.049496
vt 0.180791 0.500000
vt 0.330928 0.574320
vt 0.125000 0.700504
vt 0.804283 0.500000
vt 0.842867 0.681766
vt 0.658516 0.626313
vt 0.875000 0.500000
vt 0.501754 0.540833
vt 0.565165 0.799791
vt 0.325310 0.750000
vt 0.604031 0.069198
vt 0.375000 1.000000
vt 0.375000 0.799690
vt 0.578028 1.000000
vt 0.615335 0.592735
vt 0.589707 0.775249
vt 0.581909 0.353207
s 0
g Cube_Material
usemtl Material
f 440/751/468 442/752/468 441/753/468
f 442/754/469 445/755/469 441/756/469
f 446/757/470 443/758/470 447/759/470
f 443/758/471 446/757/471 440/760/471
f 448/761/472 439/762/472 444/763/472 445/755/472
f 441/753/473 443/764/473 440/751/473
f 441/765/474 444/766/474 439/762/474 443/767/474
f 445/755/475 444/763/475 441/756/475
f 447/768/476 443/758/476 439/769/476
f 439/762/477 448/761/477 447/768/477
f 448/761/478 445/755/478 442/752/478 446/770/478
f 448/761/479 446/770/479 447/768/479
f 442/752/480 440/751/480 446/770/480
o Cube
v -0.248436 0.664396 3.475905
v -0.696145 0.927089 2.820650
v -0.886525 0.871066 3.305419
v -0.973282 0.575093 2.962672
v -0.300645 1.013416 3.115326
v -0.690000 0.536737 3.543426
v -0.884479 0.322588 3.260252
v -0.469027 0.519991 2.699662
v -0.180745 0.402317 3.020825
v -0.483893 0.182564 3.038998
vn -0.8071 0.5324 -0.2554
vn -0.9637 -0.0255 0.2659
vn 0.7645 0.2424 -0.5974
vn 0.4556 0.4775 -0.7513
vn 0.2002 -0.7615 0.6165
vn -0.2291 0.9731 0.0225
vn 0.0140 0.6617 0.7496
vn -0.8045 -0.0517 0.5917
vn 0.9817 0.1867 0.0385
vn 0.5335 -0.6962 0.4803
vn -0.4548 -0.6791 -0.5762
vn 0.4327 -0.6487 -0.6261
vn -0.4619 0.0059 -0.8869
vt 0.550384 0.206938
vt 0.375000 0.305791
vt 0.375000 0.049496
vt 0.180791 0.500000
vt 0.330928 0.574320
vt 0.125000 0.700504
vt 0.804283 0.500000
vt 0.842867 0.681766
vt 0.658516 0.626313
vt 0.875000 0.500000
vt 0.501754 0.540833
vt 0.565165 0.799791
vt 0.325310 0.750000
vt 0.604031 0.069198
vt 0.375000 1.000000
vt 0.375000 0.799690
vt 0.578028 1.000000
vt 0.615335 0.592735
vt 0.589707 0.775249
vt 0.581909 0.353207
s 0
g Cube_Material
usemtl Material
f 450/771/481 452/772/481 451/773/481
f 452/774/482 455/775/482 451/776/482
f 456/777/483 453/778/483 457/779/483
f 453/778/484 456/777/484 450/780/484
f 458/781/485 449/782/485 454/783/485 455/775/485
f 451/773/486 453/784/486 450/771/486
f 451/785/487 454/786/487 449/782/487 453/787/487
f 455/775/488 454/783/488 451/776/488
f 457/788/489 453/778/489 449/789/489
f 449/782/490 458/781/490 457/788/490
f 458/781/491 455/775/491 452/772/491 456/790/491
f 458/781/492 456/790/492 457/788/492
f 452/772/493 450/771/493 456/790/493
o Cube
v 2.646154 -0.046317 0.726942
v 3.117178 0.663085 0.513705
v 2.578608 0.607387 0.416724
v 2.917061 0.567888 0.072736
v 2.951224 0.349877 0.902057
v 2.442233 0.157125 0.333202
v 2.677318 0.233397 -0.012658
v 3.353367 0.252165 0.337260
v 3.144740 -0.136773 0.498050
v 3.045468 -0.081416 0.121176
vn -0.0690 0.9812 -0.1805
vn -0.5589 0.5574 -0.6140
vn 0.7868 -0.1777 0.5910
vn 0.8105 0.2356 0.5363
vn -0.4456 -0.8310 -0.3330
vn -0.1852 0.8021 0.5678
vn -0.7629 0.2112 0.6111
vn -0.8120 0.3346 -0.4781
vn 0.2630 -0.5522 0.7911
vn -0.2159 -0.9726 -0.0860
vn 0.4590 0.0245 -0.8881
vn 0.7894 -0.5423 -0.2876
vn 0.6860 0.5819 -0.4369
vt 0.550384 0.206938
vt 0.375000 0.305791
vt 0.375000 0.049496
vt 0.180791 0.500000
vt 0.330928 0.574320
vt 0.125000 0.700504
vt 0.804283 0.500000
vt 0.842867 0.681766
vt 0.658516 0.626313
vt 0.875000 0.500000
vt 0.501754 0.540833
vt 0.565165 0.799791
vt 0.325310 0.750000
vt 0.604031 0.069198
vt 0.375000 1.000000
vt 0.375000 0.799690
vt 0.578028 1.000000
vt 0.615335 0.592735
vt 0.589707 0.775249
vt 0.581909 0.353207
s 0
g Cube_Material
usemtl Material
f 460/791/494 462/792/494 461/793/494
f 462/794/495 465/795/495 461/796/495
f 466/797/496 463/798/496 467/799/496
f 463/798/497 466/797/497 460/800/497
f 468/801/498 459/802/498 464/803/498 465/795/498
f 461/793/499 463/804/499 460/791/499
f 461/805/500 464/806/500 459/802/500 463/807/500
f 465/795/501 464/803/501 461/796/501
f 467/808/502 463/798/502 459/809/502
f 459/802/503 468/801/503 467/808/503
f 468/801/504 465/795/504 462/792/504 466/810/504
f 468/801/505 466/810/505 467/808/505
f 462/792/506 460/791/506 466/810/506
o Cube
v 0.072750 0.946864 -2.406887
v 0.003291 0.548751 -3.126999
v -0.359363 0.860564 -2.929537
v -0.390618 0.406175 -2.926914
v 0.261321 0.877969 -2.863050
v -0.372502 0.863360 -2.480261
v -0.496423 0.490680 -2.555455
v 0.130335 0.236465 -2.791338
v 0.227358 0.447265 -2.415303
v -0.105293 0.287549 -2.384468
vn -0.4603 0.0265 -0.8873
vn -0.9558 0.0641 -0.2868
vn 0.9684 -0.2124 -0.1308
vn 0.8225 -0.2263 -0.5218
vn -0.2761 0.0317 0.9606
vn 0.0696 0.5902 -0.8042
vn -0.0812 0.9920 -0.0966
vn -0.9467 0.3208 -0.0297
vn 0.9027 0.2738 0.3318
vn 0.0874 0.0103 0.9961
vn -0.3772 -0.9261 -0.0041
vn 0.4313 -0.8299 0.3540
vn -0.0690 -0.7433 -0.6654
vt 0.550384 0.206938
vt 0.375000 0.305791
vt 0.375000 0.049496
vt 0.180791 0.500000
vt 0.330928 0.574320
vt 0.125000 0.700504
vt 0.804283 0.500000
vt 0.842867 0.681766
vt 0.658516 0.626313
vt 0.875000 0.500000
vt 0.501754 0.540833
vt 0.565165 0.799791
vt 0.325310 0.750000
vt 0.604031 0.069198
vt 0.375000 1.000000
vt 0.375000 0.799690
vt 0.578028 1.000000
vt 0.615335 0.592735
vt 0.589707 0.775249
vt 0.581909 0.353207
s 0
g Cube_Material
usemtl Material
f 470/811/507 472/812/507 471/813/507
f 472/814/508 475/815/508 471/816/508
f 476/817/509 473/818/509 477/819/509
f 473/818/510 476/817/510 470/820/510
f 478/821/511 469/822/511 474/823/511 475/815/511
f 471/813/512 473/824/512 470/811/512
f 471/825/513 474/826/513 469/822/513 473/827/513
f 475/815/514 474/823/514 471/816/514
f 477/828/515 473/818/515 469/829/515
f 469/822/516 478/821/516 477/828/516
f 478/821/517 475/815/517 472/812/517 476/830/517
f 478/821/518 476/830/518 477/828/518
f 472/812/519 470/811/519 476/830/519
o Cube
v 1.801221 0.686472 -1.753422
v 2.213349 -0.088076 -1.250160
v 2.338164 0.052104 -1.855523
v 2.010637 -0.371692 -1.699415
v 2.141766 0.512892 -1.277431
v 1.914662 0.279360 -2.124059
v 1.742894 -0.173462 -2.050907
v 1.634869 -0.107563 -1.182693
v 1.407527 0.339690 -1.385728
v 1.339370 -0.006594 -1.670618
vn 0.7952 -0.6059 0.0237
vn 0.4449 -0.5915 -0.6725
vn -0.2105 0.3134 0.9260
vn 0.1137 0.0586 0.9918
vn -0.6764 0.2814 -0.6807
vn 0.9655 0.1254 0.2281
vn 0.6832 0.6360 -0.3587
vn 0.3961 -0.2909 -0.8709
vn -0.2680 0.8275 0.4935
vn -0.7865 0.4773 -0.3920
vn -0.4775 -0.8786 0.0073
vn -0.8539 -0.2199 0.4716
vn 0.0876 -0.8597 0.5032
vt 0.550384 0.206938
vt 0.375000 0.305791
vt 0.375000 0.049496
vt 0.180791 0.500000
vt 0.330928 0.574320
vt 0.125000 0.700504
vt 0.804283 0.500000
vt 0.842867 0.681766
vt 0.658516 0.626313
vt 0.875000 0.500000
vt 0.501754 0.540833
vt 0.565165 0.799791
vt 0.325310 0.750000
vt 0.604031 0.069198
vt 0.375000 1.000000
vt 0.375000 0.799690
vt 0.578028 1.000000
vt 0.615335 0.592735
vt 0.589707 0.775249
vt 0.581909 0.353207
s 0
g Cube_Material
usemtl Material
f 480/831/520 482/832/520 481/833/520
f 482/834/521 485/835/521 481/836/521
f 486/837/522 483/838/522 487/839/522
f 483/838/523 486/837/523 480/840/523
f 488/841/524 479/842/524 484/843/524 485/835/524
f 481/833/525 483/844/525 480/831/525
f 481/845/526 484/846/526 479/842/526 483/847/526
f 485/835/527 484/843/527 481/836/527
f 487/848/528 483/838/528 479/849/528
f 479/842/529 488/841/529 487/848/529
f 488/841/530 485/835/530 482/832/530 486/850/530
f 488/841/531 486/850/531 487/848/531
f 482/832/532 480/831/532 486/850/532
o Cube
v -2.213692 0.177021 -1.076908
v -2.383833 0.589143 -0.276500
v -1.926940 0.257044 -0.379276
v -2.325393 0.106055 -0.107565
v -2.290387 0.656877 -0.813009
v -2.012552 -0.109119 -0.706856
v -2.265015 -0.242342 -0.367204
v -2.816332 0.326921 -0.427544
v -2.760566 0.156364 -0.883800
v -2.717745 -0.152626 -0.616419
vn 0.4367 0.3436 0.8314
vn 0.6150 -0.3999 0.6796
vn -0.6637 0.6704 -0.3317
vn -0.5226 0.8524 0.0166
vn -0.0122 -0.8605 -0.5093
vn 0.6052 0.7699 0.2026
vn 0.8808 0.2651 -0.3924
vn 0.7726 -0.5140 0.3727
vn -0.3165 0.4178 -0.8516
vn -0.2295 -0.6549 -0.7200
vn -0.5639 -0.4745 0.6760
vn -0.9820 -0.1813 -0.0523
vn -0.4491 0.2460 0.8589
vt 0.550384 0.206938
vt 0.375000 0.305791
vt 0.375000 0.049496
vt 0.180791 0.500000
vt 0.330928 0.574320
vt 0.125000 0.700504
vt 0.804283 0.500000
vt 0.842867 0.681766
vt 0.658516 0.626313
vt 0.875000 0.500000
vt 0.501754 0.540833
vt 0.565165 0.799791
vt 0.325310 0.750000
vt 0.604031 0.069198
vt 0.375000 1.000000
vt 0.375000 0.799690
vt 0.578028 1.000000
vt 0.615335 0.592735
vt 0.589707 0.775249
vt 0.581909 0.353207
s 0
g Cube_Material
usemtl Material
f 490/851/533 492/852/533 491/853/533
f 492/854/534 495/855/534 491/856/534
f 496/857/535 493/858/535 497/859/535
f 493/858/536 496/857/536 490/860/536
f 498/861/537 489/862/537 494/863/537 495/855/537
f 491/853/538 493/864/538 490/851/538
f 491/865/539 494/866/539 489/862/539 493/867/539
f 495/855/540 494/863/540 491/856/540
f 497/868/541 493/858/541 489/869/541
f 489/862/542 498/861/542 497/868/542
f 498/861/543 495/855/543 492/852/543 496/870/543
f 498/861/544 496/870/544 497/868/544
f 492/852/545 490/851/545 496/870/545
o Cube
v 1.052881 -0.160045 -0.998293
v 0.545838 0.134339 -1.948038
v 0.850292 -0.485780 -1.838920
v 1.100568 -0.040979 -2.183191
v 0.478496 0.036747 -1.290104
v 1.328013 -0.463285 -1.464253
v 1.520898 -0.189534 -1.888503
v 0.963528 0.595383 -1.785337
v 1.184503 0.491020 -1.240364
v 1.528006 0.372472 -1.584543
vn -0.4590 -0.3677 -0.8088
vn 0.2474 -0.6763 -0.6939
vn -0.5226 0.7729 0.3599
vn -0.7449 0.6668 0.0227
vn 0.8742 -0.1424 0.4643
vn -0.8752 -0.4574 -0.1574
vn -0.3975 -0.8193 0.4133
vn 0.3474 -0.8520 -0.3918
vn -0.3094 0.3857 0.8692
vn 0.7220 0.1081 0.6834
vn 0.5317 0.4702 -0.7044
vn 0.3565 0.9337 0.0342
vn -0.2062 0.4864 -0.8490
vt 0.550384 0.206938
vt 0.375000 0.305791
vt 0.375000 0.049496
vt 0.180791 0.500000
vt 0.330928 0.574320
vt 0.125000 0.700504
vt 0.804283 0.500000
vt 0.842867 0.681766
vt 0.658516 0.626313
vt 0.875000 0.500000
vt 0.501754 0.540833
vt 0.565165 0.799791
vt 0.325310 0.750000
vt 0.604031 0.069198
vt 0.375000 1.000000
vt 0.375000 0.799690
vt 0.578028 1.000000
vt 0.615335 0.592735
vt 0.589707 0.775249
vt 0.581909 0.353207
s 0
g Cube_Material
usemtl Material
f 500/871/546 502/872/546 501/873/546
f 502/874/547 505/875/547 501/876/547
f 506/877/548 503/878/548 507/879/548
f 503/878/549 506/877/549 500/880/549
f 508/881/550 499/882/550 504/883/550 505/875/550
f 501/873/551 503/884/551 500/871/551
f 501/885/552 504/886/552 499/882/552 503/887/552
f 505/875/553 504/883/553 501/876/553
f 507/888/554 503/878/554 499/889/554
f 499/882/555 508/881/555 507/888/555
f 508/881/556 505/875/556 502/872/556 506/890/556
f 508/881/557 506/890/557 507/888/557
f 502/872/558 500/871/558 506/890/558
o Cube
v -1.635339 0.443267 -0.491773
v -1.944883 -0.159734 -0.597914
v -2.148759 0.218486 -0.583793
v -2.157823 -0.033878 -0.301955
v -1.664341 0.108241 -0.733387
v -1.990402 0.467504 -0.354944
v -2.099635 0.243263 -0.135487
v -1.716058 -0.189208 -0.276972
v -1.509474 0.112040 -0.240195
v -1.739871 0.120636 -0.036496
vn -0.8114 -0.4223 -0.4042
vn -0.9841 0.1467 0.0997
vn 0.8123 -0.5264 -0.2510
vn 0.5065 -0.7475 -0.4298
vn 0.1854 0.7339 0.6535
vn -0.3208 -0.1379 -0.9371
vn -0.1505 0.6490 -0.7458
vn -0.8690 0.4900 0.0681
vn 0.9453 0.1330 -0.2979
vn 0.5264 0.6320 0.5687
vn -0.3062 -0.5302 0.7907
vn 0.5730 -0.4745 0.6682
vn -0.3355 -0.9294 0.1538
vt 0.550384 0.206938
vt 0.375000 0.305791
vt 0.375000 0.049496
vt 0.180791 0.500000
vt 0.330928 0.574320
vt 0.125000 0.700504
vt 0.804283 0.500000
vt 0.842867 0.681766
vt 0.658516 0.626313
vt 0.875000 0.500000
vt 0.501754 0.540833
vt 0.565165 0.799791
vt 0.325310 0.750000
vt 0.604031 0.069198
vt 0.375000 1.000000
vt 0.375000 0.799690
vt 0.578028 1.000000
vt 0.615335 0.592735
vt 0.589707 0.775249
vt 0.581909 0.353207
s 0
g Cube_Material
usemtl Material
f 510/891/559 512/892/559 511/893/559
f 512/894/560 515/895/560 511/896/560
f 516/897/561 513/898/561 517/899/561
f 513/898/562 516/897/562 510/900/562
f 518/901/563 509/902/563 514/903/563 515/895/563
f 511/893/564 513/904/564 510/891/564
f 511/905/565 514/906/565 509/902/565 513/907/565
f 515/895/566 514/903/566 511/896/566
f 517/908/567 513/898/567 509/909/567
f 509/902/568 518/901/568 517/908/568
f 518/901/569 515/895/569 512/892/569 516/910/569
f 518/901/570 516/910/570 517/908/570
f 512/892/571 510/891/571 516/910/571
o Cube
v -0.058082 -0.259249 -0.769034
v -0.598115 0.191164 -1.503838
v -0.718917 0.250409 -0.880888
v -1.024778 -0.069071 -1.225991
v -0.050922 0.130838 -1.242954
v -0.588336 -0.197703 -0.583178
v -0.964480 -0.371717 -0.849280
v -0.550246 -0.379444 -1.628210
v -0.204198 -0.618960 -1.283118
v -0.632041 -0.727617 -1.168419
vn -0.5985 0.7783 -0.1901
vn -0.8380 0.3520 0.4169
vn 0.6683 -0.0971 -0.7375
vn 0.4394 0.2263 -0.8693
vn 0.0328 -0.7421 0.6695
vn 0.1407 0.9878 -0.0667
vn 0.3943 0.6532 0.6464
vn -0.6383 0.2882 0.7138
vn 0.9712 -0.1909 -0.1425
vn 0.3341 -0.8142 0.4748
vn -0.7695 -0.4943 -0.4043
vn 0.0428 -0.8001 -0.5983
vn -0.5934 0.1236 -0.7954
vt 0.550384 0.206938
vt 0.375000 0.305791
vt 0.375000 0.049496
vt 0.180791 0.500000
vt 0.330928 0.574320
vt 0.125000 0.700504
vt 0.804283 0.500000
vt 0.842867 0.681766
vt 0.658516 0.626313
vt 0.875000 0.500000
vt 0.501754 0.540833
vt 0.565165 0.799791
vt 0.325310 0.750000
vt 0.604031 0.069198
vt 0.375000 1.000000
vt 0.375000 0.799690
vt 0.578028 1.000000
vt 0.615335 0.592735
vt 0.589707 0.775249
vt 0.581909 0.353207
s 0
g Cube_Material
usemtl Material
f 520/911/572 522/912/572 521/913/572
f 522/914/573 525/915/573 521/916/573
f 526/917/574 523/918/574 527/919/574
f 523/918/575 526/917/575 520/920/575
f 528/921/576 519/922/576 524/923/576 525/915/576
f 521/913/577 523/924/577 520/911/577
f 521/925/578 524/926/578 519/922/578 523/927/578
f 525/915/579 524/923/579 521/916/579
f 527/928/580 523/918/580 519/929/580
f 519/922/581 528/921/581 527/928/581
f 528/921/582 525/915/582 522/912/582 526/930/582
f 528/921/583 526/930/583 527/928/583
f 522/912/584 520/911/584 526/930/584
