# Blender 4.1.0
# www.blender.org
mtllib Explosion20040.mtl
o Circle
v -0.024615 0.096888 -1.522372
v -0.024615 0.242742 -1.522372
v 0.122545 0.096888 -1.515142
v 0.122545 0.242742 -1.515142
v 0.268288 0.096888 -1.493523
v 0.268288 0.242742 -1.493523
v 0.411211 0.096888 -1.457723
v 0.411211 0.242742 -1.457723
v 0.549936 0.096888 -1.408086
v 0.549936 0.242742 -1.408086
v 0.683127 0.096888 -1.345092
v 0.683127 0.242742 -1.345092
v 0.809503 0.096888 -1.269345
v 0.809503 0.242742 -1.269345
v 0.927846 0.096888 -1.181576
v 0.927846 0.242742 -1.181576
v 1.037016 0.096888 -1.082630
v 1.037016 0.242742 -1.082630
v 1.135962 0.096888 -0.973460
v 1.135962 0.242742 -0.973460
v 1.223731 0.096888 -0.855117
v 1.223731 0.242742 -0.855117
v 1.299478 0.096888 -0.728741
v 1.299478 0.242742 -0.728741
v 1.362473 0.096888 -0.595549
v 1.362473 0.242742 -0.595549
v 1.412110 0.096888 -0.456824
v 1.412110 0.242742 -0.456824
v 1.447910 0.096888 -0.313902
v 1.447910 0.242742 -0.313902
v 1.469529 0.096888 -0.168159
v 1.469529 0.242742 -0.168159
v 1.476758 0.096888 -0.020998
v 1.476758 0.242742 -0.020998
v 1.469529 0.096888 0.126162
v 1.469529 0.242742 0.126162
v 1.447910 0.096888 0.271905
v 1.447910 0.242742 0.271905
v 1.412110 0.096888 0.414827
v 1.412110 0.242742 0.414827
v 1.362473 0.096888 0.553553
v 1.362473 0.242742 0.553553
v 1.299478 0.096888 0.686744
v 1.299478 0.242742 0.686744
v 1.223731 0.096888 0.813120
v 1.223731 0.242742 0.813120
v 1.135962 0.096888 0.931463
v 1.135962 0.242742 0.931463
v 1.037016 0.096888 1.040633
v 1.037016 0.242742 1.040633
v 0.927846 0.096888 1.139579
v 0.927846 0.242742 1.139579
v 0.809503 0.096888 1.227348
v 0.809503 0.242742 1.227348
v 0.683127 0.096888 1.303095
v 0.683127 0.242742 1.303095
v 0.549936 0.096888 1.366090
v 0.549936 0.242742 1.366090
v 0.411211 0.096888 1.415727
v 0.411211 0.242742 1.415727
v 0.268288 0.096888 1.451527
v 0.268288 0.242742 1.451527
v 0.122545 0.096888 1.473146
v 0.122545 0.242742 1.473146
v -0.024615 0.096888 1.480376
v -0.024615 0.242742 1.480376
v -0.171775 0.096888 1.473146
v -0.171775 0.242742 1.473146
v -0.317519 0.096888 1.451527
v -0.317519 0.242742 1.451527
v -0.460441 0.096888 1.415727
v -0.460441 0.242742 1.415727
v -0.599166 0.096888 1.366090
v -0.599166 0.242742 1.366090
v -0.732358 0.096888 1.303095
v -0.732358 0.242742 1.303095
v -0.858734 0.096888 1.227348
v -0.858734 0.242742 1.227348
v -0.977076 0.096888 1.139579
v -0.977076 0.242742 1.139579
v -1.086246 0.096888 1.040633
v -1.086246 0.242742 1.040633
v -1.185192 0.096888 0.931463
v -1.185192 0.242742 0.931463
v -1.272961 0.096888 0.813120
v -1.272961 0.242742 0.813120
v -1.348708 0.096888 0.686744
v -1.348708 0.242742 0.686744
v -1.411703 0.096888 0.553553
v -1.411703 0.242742 0.553553
v -1.461340 0.096888 0.414827
v -1.461340 0.242742 0.414827
v -1.497140 0.096888 0.271905
v -1.497140 0.242742 0.271905
v -1.518759 0.096888 0.126162
v -1.518759 0.242742 0.126162
v -1.525989 0.096888 -0.020998
v -1.525989 0.242742 -0.020998
v -1.518759 0.096888 -0.168159
v -1.518759 0.242742 -0.168159
v -1.497140 0.096888 -0.313902
v -1.497140 0.242742 -0.313902
v -1.461340 0.096888 -0.456824
v -1.461340 0.242742 -0.456824
v -1.411703 0.096888 -0.595549
v -1.411703 0.242742 -0.595549
v -1.348708 0.096888 -0.728741
v -1.348708 0.242742 -0.728741
v -1.272961 0.096888 -0.855117
v -1.272961 0.242742 -0.855117
v -1.185192 0.096888 -0.973460
v -1.185192 0.242742 -0.973460
v -1.086246 0.096888 -1.082630
v -1.086246 0.242742 -1.082630
v -0.977076 0.096888 -1.181576
v -0.977076 0.242742 -1.181576
v -0.858734 0.096888 -1.269345
v -0.858734 0.242742 -1.269345
v -0.732358 0.096888 -1.345092
v -0.732358 0.242742 -1.345092
v -0.599166 0.096888 -1.408086
v -0.599166 0.242742 -1.408086
v -0.460441 0.096888 -1.457723
v -0.460441 0.242742 -1.457723
v -0.317519 0.096888 -1.493523
v -0.317519 0.242742 -1.493523
v -0.171775 0.096888 -1.515142
v -0.171775 0.242742 -1.515142
vn 0.0491 -0.0000 -0.9988
vn 0.1467 -0.0000 -0.9892
vn 0.2430 -0.0000 -0.9700
vn 0.3369 -0.0000 -0.9415
vn 0.4276 -0.0000 -0.9040
vn 0.5141 -0.0000 -0.8577
vn 0.5957 -0.0000 -0.8032
vn 0.6716 -0.0000 -0.7410
vn 0.7410 -0.0000 -0.6716
vn 0.8032 -0.0000 -0.5957
vn 0.8577 -0.0000 -0.5141
vn 0.9040 -0.0000 -0.4276
vn 0.9415 -0.0000 -0.3369
vn 0.9700 -0.0000 -0.2430
vn 0.9892 -0.0000 -0.1467
vn 0.9988 -0.0000 -0.0491
vn 0.9988 -0.0000 0.0491
vn 0.9892 -0.0000 0.1467
vn 0.9700 -0.0000 0.2430
vn 0.9415 -0.0000 0.3369
vn 0.9040 -0.0000 0.4276
vn 0.8577 -0.0000 0.5141
vn 0.8032 -0.0000 0.5957
vn 0.7410 -0.0000 0.6716
vn 0.6716 -0.0000 0.7410
vn 0.5957 -0.0000 0.8032
vn 0.5141 -0.0000 0.8577
vn 0.4276 -0.0000 0.9040
vn 0.3369 -0.0000 0.9415
vn 0.2430 -0.0000 0.9700
vn 0.1467 -0.0000 0.9892
vn 0.0491 -0.0000 0.9988
vn -0.0491 -0.0000 0.9988
vn -0.1467 -0.0000 0.9892
vn -0.2430 -0.0000 0.9700
vn -0.3369 -0.0000 0.9415
vn -0.4276 -0.0000 0.9040
vn -0.5141 -0.0000 0.8577
vn -0.5957 -0.0000 0.8032
vn -0.6716 -0.0000 0.7410
vn -0.7410 -0.0000 0.6716
vn -0.8032 -0.0000 0.5957
vn -0.8577 -0.0000 0.5141
vn -0.9040 -0.0000 0.4276
vn -0.9415 -0.0000 0.3369
vn -0.9700 -0.0000 0.2430
vn -0.9892 -0.0000 0.1467
vn -0.9988 -0.0000 0.0491
vn -0.9988 -0.0000 -0.0491
vn -0.9892 -0.0000 -0.1467
vn -0.9700 -0.0000 -0.2430
vn -0.9415 -0.0000 -0.3369
vn -0.9040 -0.0000 -0.4276
vn -0.8577 -0.0000 -0.5141
vn -0.8032 -0.0000 -0.5957
vn -0.7410 -0.0000 -0.6716
vn -0.6716 -0.0000 -0.7410
vn -0.5957 -0.0000 -0.8032
vn -0.5141 -0.0000 -0.8577
vn -0.4276 -0.0000 -0.9040
vn -0.3369 -0.0000 -0.9415
vn -0.2430 -0.0000 -0.9700
vn -0.1467 -0.0000 -0.9892
vn -0.0491 -0.0000 -0.9988
vt 1.000000 0.500000
vt 1.000000 1.000000
vt 0.984375 1.000000
vt 0.984375 0.500000
vt 0.968750 1.000000
vt 0.968750 0.500000
vt 0.953125 1.000000
vt 0.953125 0.500000
vt 0.937500 1.000000
vt 0.937500 0.500000
vt 0.921875 1.000000
vt 0.921875 0.500000
vt 0.906250 1.000000
vt 0.906250 0.500000
vt 0.890625 1.000000
vt 0.890625 0.500000
vt 0.875000 1.000000
vt 0.875000 0.500000
vt 0.859375 1.000000
vt 0.859375 0.500000
vt 0.843750 1.000000
vt 0.843750 0.500000
vt 0.828125 1.000000
vt 0.828125 0.500000
vt 0.812500 1.000000
vt 0.812500 0.500000
vt 0.796875 1.000000
vt 0.796875 0.500000
vt 0.781250 1.000000
vt 0.781250 0.500000
vt 0.765625 1.000000
vt 0.765625 0.500000
vt 0.750000 1.000000
vt 0.750000 0.500000
vt 0.734375 1.000000
vt 0.734375 0.500000
vt 0.718750 1.000000
vt 0.718750 0.500000
vt 0.703125 1.000000
vt 0.703125 0.500000
vt 0.687500 1.000000
vt 0.687500 0.500000
vt 0.671875 1.000000
vt 0.671875 0.500000
vt 0.656250 1.000000
vt 0.656250 0.500000
vt 0.640625 1.000000
vt 0.640625 0.500000
vt 0.625000 1.000000
vt 0.625000 0.500000
vt 0.609375 1.000000
vt 0.609375 0.500000
vt 0.593750 1.000000
vt 0.593750 0.500000
vt 0.578125 1.000000
vt 0.578125 0.500000
vt 0.562500 1.000000
vt 0.562500 0.500000
vt 0.546875 1.000000
vt 0.546875 0.500000
vt 0.531250 1.000000
vt 0.531250 0.500000
vt 0.515625 1.000000
vt 0.515625 0.500000
vt 0.500000 1.000000
vt 0.500000 0.500000
vt 0.484375 1.000000
vt 0.484375 0.500000
vt 0.468750 1.000000
vt 0.468750 0.500000
vt 0.453125 1.000000
vt 0.453125 0.500000
vt 0.437500 1.000000
vt 0.437500 0.500000
vt 0.421875 1.000000
vt 0.421875 0.500000
vt 0.406250 1.000000
vt 0.406250 0.500000
vt 0.390625 1.000000
vt 0.390625 0.500000
vt 0.375000 1.000000
vt 0.375000 0.500000
vt 0.359375 1.000000
vt 0.359375 0.500000
vt 0.343750 1.000000
vt 0.343750 0.500000
vt 0.328125 1.000000
vt 0.328125 0.500000
vt 0.312500 1.000000
vt 0.312500 0.500000
vt 0.296875 1.000000
vt 0.296875 0.500000
vt 0.281250 1.000000
vt 0.281250 0.500000
vt 0.265625 1.000000
vt 0.265625 0.500000
vt 0.250000 1.000000
vt 0.250000 0.500000
vt 0.234375 1.000000
vt 0.234375 0.500000
vt 0.218750 1.000000
vt 0.218750 0.500000
vt 0.203125 1.000000
vt 0.203125 0.500000
vt 0.187500 1.000000
vt 0.187500 0.500000
vt 0.171875 1.000000
vt 0.171875 0.500000
vt 0.156250 1.000000
vt 0.156250 0.500000
vt 0.140625 1.000000
vt 0.140625 0.500000
vt 0.125000 1.000000
vt 0.125000 0.500000
vt 0.109375 1.000000
vt 0.109375 0.500000
vt 0.093750 1.000000
vt 0.093750 0.500000
vt 0.078125 1.000000
vt 0.078125 0.500000
vt 0.062500 1.000000
vt 0.062500 0.500000
vt 0.046875 1.000000
vt 0.046875 0.500000
vt 0.031250 1.000000
vt 0.031250 0.500000
vt 0.015625 1.000000
vt 0.015625 0.500000
vt 0.000000 1.000000
vt 0.000000 0.500000
s 0
g Circle_Material.001
usemtl Material.001
f 1/1/1 2/2/1 4/3/1 3/4/1
f 3/4/2 4/3/2 6/5/2 5/6/2
f 5/6/3 6/5/3 8/7/3 7/8/3
f 7/8/4 8/7/4 10/9/4 9/10/4
f 9/10/5 10/9/5 12/11/5 11/12/5
f 11/12/6 12/11/6 14/13/6 13/14/6
f 13/14/7 14/13/7 16/15/7 15/16/7
f 15/16/8 16/15/8 18/17/8 17/18/8
f 17/18/9 18/17/9 20/19/9 19/20/9
f 19/20/10 20/19/10 22/21/10 21/22/10
f 21/22/11 22/21/11 24/23/11 23/24/11
f 23/24/12 24/23/12 26/25/12 25/26/12
f 25/26/13 26/25/13 28/27/13 27/28/13
f 27/28/14 28/27/14 30/29/14 29/30/14
f 29/30/15 30/29/15 32/31/15 31/32/15
f 31/32/16 32/31/16 34/33/16 33/34/16
f 33/34/17 34/33/17 36/35/17 35/36/17
f 35/36/18 36/35/18 38/37/18 37/38/18
f 37/38/19 38/37/19 40/39/19 39/40/19
f 39/40/20 40/39/20 42/41/20 41/42/20
f 41/42/21 42/41/21 44/43/21 43/44/21
f 43/44/22 44/43/22 46/45/22 45/46/22
f 45/46/23 46/45/23 48/47/23 47/48/23
f 47/48/24 48/47/24 50/49/24 49/50/24
f 49/50/25 50/49/25 52/51/25 51/52/25
f 51/52/26 52/51/26 54/53/26 53/54/26
f 53/54/27 54/53/27 56/55/27 55/56/27
f 55/56/28 56/55/28 58/57/28 57/58/28
f 57/58/29 58/57/29 60/59/29 59/60/29
f 59/60/30 60/59/30 62/61/30 61/62/30
f 61/62/31 62/61/31 64/63/31 63/64/31
f 63/64/32 64/63/32 66/65/32 65/66/32
f 65/66/33 66/65/33 68/67/33 67/68/33
f 67/68/34 68/67/34 70/69/34 69/70/34
f 69/70/35 70/69/35 72/71/35 71/72/35
f 71/72/36 72/71/36 74/73/36 73/74/36
f 73/74/37 74/73/37 76/75/37 75/76/37
f 75/76/38 76/75/38 78/77/38 77/78/38
f 77/78/39 78/77/39 80/79/39 79/80/39
f 79/80/40 80/79/40 82/81/40 81/82/40
f 81/82/41 82/81/41 84/83/41 83/84/41
f 83/84/42 84/83/42 86/85/42 85/86/42
f 85/86/43 86/85/43 88/87/43 87/88/43
f 87/88/44 88/87/44 90/89/44 89/90/44
f 89/90/45 90/89/45 92/91/45 91/92/45
f 91/92/46 92/91/46 94/93/46 93/94/46
f 93/94/47 94/93/47 96/95/47 95/96/47
f 95/96/48 96/95/48 98/97/48 97/98/48
f 97/98/49 98/97/49 100/99/49 99/100/49
f 99/100/50 100/99/50 102/101/50 101/102/50
f 101/102/51 102/101/51 104/103/51 103/104/51
f 103/104/52 104/103/52 106/105/52 105/106/52
f 105/106/53 106/105/53 108/107/53 107/108/53
f 107/108/54 108/107/54 110/109/54 109/110/54
f 109/110/55 110/109/55 112/111/55 111/112/55
f 111/112/56 112/111/56 114/113/56 113/114/56
f 113/114/57 114/113/57 116/115/57 115/116/57
f 115/116/58 116/115/58 118/117/58 117/118/58
f 117/118/59 118/117/59 120/119/59 119/120/59
f 119/120/60 120/119/60 122/121/60 121/122/60
f 121/122/61 122/121/61 124/123/61 123/124/61
f 123/124/62 124/123/62 126/125/62 125/126/62
f 125/126/63 126/125/63 128/127/63 127/128/63
f 127/128/64 128/127/64 2/129/64 1/130/64
o Cube
v 4.025721 0.543390 -4.624417
v 4.021049 0.554628 -4.640768
v 4.019401 0.541986 -4.640000
v 4.027728 0.546804 -4.645819
v 4.018995 0.552667 -4.628894
v 4.026868 0.536854 -4.633597
v 4.032598 0.539803 -4.641074
v 4.032053 0.557111 -4.637502
v 4.034322 0.552344 -4.627957
v 4.038369 0.547699 -4.634709
vn -0.5829 0.0267 -0.8121
vn -0.1659 -0.6297 -0.7589
vn -0.0085 0.8938 0.4484
vn -0.2511 0.9611 0.1153
vn 0.6474 -0.6449 0.4062
vn -0.9815 0.1189 -0.1502
vn -0.7862 -0.4996 0.3638
vn -0.1811 -0.8596 -0.4778
vn -0.0472 0.4062 0.9126
vn 0.6586 -0.3747 0.6526
vn 0.7057 0.1645 -0.6892
vn 0.8138 0.5737 0.0931
vn 0.1007 0.5989 -0.7945
vt 0.550384 0.206938
vt 0.375000 0.305791
vt 0.375000 0.049496
vt 0.180791 0.500000
vt 0.330928 0.574320
vt 0.125000 0.700504
vt 0.804283 0.500000
vt 0.842867 0.681766
vt 0.658516 0.626313
vt 0.875000 0.500000
vt 0.501754 0.540833
vt 0.565165 0.799791
vt 0.325310 0.750000
vt 0.604031 0.069198
vt 0.375000 1.000000
vt 0.375000 0.799690
vt 0.578028 1.000000
vt 0.615335 0.592735
vt 0.589707 0.775249
vt 0.581909 0.353207
s 0
g Cube_Material
usemtl Material
f 130/131/65 132/132/65 131/133/65
f 132/134/66 135/135/66 131/136/66
f 136/137/67 133/138/67 137/139/67
f 133/138/68 136/137/68 130/140/68
f 138/141/69 129/142/69 134/143/69 135/135/69
f 131/133/70 133/144/70 130/131/70
f 131/145/71 134/146/71 129/142/71 133/147/71
f 135/135/72 134/143/72 131/136/72
f 137/148/73 133/138/73 129/149/73
f 129/142/74 138/141/74 137/148/74
f 138/141/75 135/135/75 132/132/75 136/150/75
f 138/141/76 136/150/76 137/148/76
f 132/132/77 130/131/77 136/150/77
o Cube
v -5.675902 -0.045442 -0.902208
v -5.679531 -0.059986 -0.896179
v -5.686277 -0.053668 -0.900312
v -5.685523 -0.054986 -0.891530
v -5.674380 -0.055060 -0.902726
v -5.684353 -0.045161 -0.899187
v -5.685950 -0.047267 -0.891823
v -5.674612 -0.055265 -0.889842
v -5.671587 -0.047924 -0.893266
v -5.677202 -0.046427 -0.888938
vn -0.6645 -0.7453 -0.0547
vn -0.9956 -0.0522 0.0777
vn 0.9263 -0.3767 0.0107
vn 0.6918 -0.7221 0.0010
vn -0.0310 0.9891 0.1438
vn -0.2208 -0.6880 -0.6914
vn -0.2498 0.0929 -0.9638
vn -0.9615 0.2361 -0.1410
vn 0.9055 0.1643 -0.3913
vn 0.3290 0.9388 0.1019
vn -0.2238 -0.0767 0.9716
vn 0.6244 0.1038 0.7742
vn -0.1199 -0.7493 0.6513
vt 0.550384 0.206938
vt 0.375000 0.305791
vt 0.375000 0.049496
vt 0.180791 0.500000
vt 0.330928 0.574320
vt 0.125000 0.700504
vt 0.804283 0.500000
vt 0.842867 0.681766
vt 0.658516 0.626313
vt 0.875000 0.500000
vt 0.501754 0.540833
vt 0.565165 0.799791
vt 0.325310 0.750000
vt 0.604031 0.069198
vt 0.375000 1.000000
vt 0.375000 0.799690
vt 0.578028 1.000000
vt 0.615335 0.592735
vt 0.589707 0.775249
vt 0.581909 0.353207
s 0
g Cube_Material
usemtl Material
f 140/151/78 142/152/78 141/153/78
f 142/154/79 145/155/79 141/156/79
f 146/157/80 143/158/80 147/159/80
f 143/158/81 146/157/81 140/160/81
f 148/161/82 139/162/82 144/163/82 145/155/82
f 141/153/83 143/164/83 140/151/83
f 141/165/84 144/166/84 139/162/84 143/167/84
f 145/155/85 144/163/85 141/156/85
f 147/168/86 143/158/86 139/169/86
f 139/162/87 148/161/87 147/168/87
f 148/161/88 145/155/88 142/152/88 146/170/88
f 148/161/89 146/170/89 147/168/89
f 142/152/90 140/151/90 146/170/90
o Cube
v -2.295619 0.271634 -4.656873
v -2.305576 0.277090 -4.673013
v -2.305070 0.283683 -4.662564
v -2.313769 0.277873 -4.665573
v -2.295020 0.274354 -4.668453
v -2.304174 0.277710 -4.653682
v -2.313006 0.275381 -4.656491
v -2.308483 0.266424 -4.670360
v -2.302293 0.262768 -4.662625
v -2.310246 0.264796 -4.659316
vn -0.3639 0.7956 -0.4844
vn -0.5968 0.7596 0.2586
vn 0.4518 -0.6107 -0.6503
vn 0.3089 -0.3080 -0.8998
vn -0.0605 -0.3751 0.9250
vn 0.4133 0.7609 -0.5001
vn 0.6892 0.6704 0.2748
vn -0.3714 0.7527 0.5436
vn 0.8227 -0.5614 -0.0893
vn 0.1615 -0.6198 0.7679
vn -0.9453 -0.3072 -0.1098
vn -0.3153 -0.9303 -0.1874
vn -0.6724 -0.0009 -0.7402
vt 0.550384 0.206938
vt 0.375000 0.305791
vt 0.375000 0.049496
vt 0.180791 0.500000
vt 0.330928 0.574320
vt 0.125000 0.700504
vt 0.804283 0.500000
vt 0.842867 0.681766
vt 0.658516 0.626313
vt 0.875000 0.500000
vt 0.501754 0.540833
vt 0.565165 0.799791
vt 0.325310 0.750000
vt 0.604031 0.069198
vt 0.375000 1.000000
vt 0.375000 0.799690
vt 0.578028 1.000000
vt 0.615335 0.592735
vt 0.589707 0.775249
vt 0.581909 0.353207
s 0
g Cube_Material
usemtl Material
f 150/171/91 152/172/91 151/173/91
f 152/174/92 155/175/92 151/176/92
f 156/177/93 153/178/93 157/179/93
f 153/178/94 156/177/94 150/180/94
f 158/181/95 149/182/95 154/183/95 155/175/95
f 151/173/96 153/184/96 150/171/96
f 151/185/97 154/186/97 149/182/97 153/187/97
f 155/175/98 154/183/98 151/176/98
f 157/188/99 153/178/99 149/189/99
f 149/182/100 158/181/100 157/188/100
f 158/181/101 155/175/101 152/172/101 156/190/101
f 158/181/102 156/190/102 157/188/102
f 152/172/103 150/171/103 156/190/103
o Cube
v -4.468503 0.024325 -3.706070
v -4.485938 0.019177 -3.705451
v -4.477902 0.015560 -3.698222
v -4.481551 0.009943 -3.705692
v -4.478946 0.027517 -3.704942
v -4.468864 0.014983 -3.702224
v -4.473001 0.008566 -3.706617
v -4.482389 0.017879 -3.715226
v -4.473506 0.021756 -3.716125
v -4.472888 0.013633 -3.715714
vn -0.7086 -0.3525 0.6113
vn -0.0592 -0.7837 0.6183
vn -0.3779 0.7353 -0.5626
vn -0.7104 0.6163 -0.3398
vn 0.9327 -0.2575 -0.2525
vn -0.5153 0.3852 0.7656
vn 0.3068 0.4308 0.8487
vn 0.2701 -0.6563 0.7045
vn 0.2390 0.9056 -0.3503
vn 0.8898 0.0447 -0.4542
vn -0.2885 -0.7904 -0.5404
vn -0.0763 -0.0562 -0.9955
vn -0.8741 -0.4084 -0.2631
vt 0.550384 0.206938
vt 0.375000 0.305791
vt 0.375000 0.049496
vt 0.180791 0.500000
vt 0.330928 0.574320
vt 0.125000 0.700504
vt 0.804283 0.500000
vt 0.842867 0.681766
vt 0.658516 0.626313
vt 0.875000 0.500000
vt 0.501754 0.540833
vt 0.565165 0.799791
vt 0.325310 0.750000
vt 0.604031 0.069198
vt 0.375000 1.000000
vt 0.375000 0.799690
vt 0.578028 1.000000
vt 0.615335 0.592735
vt 0.589707 0.775249
vt 0.581909 0.353207
s 0
g Cube_Material
usemtl Material
f 160/191/104 162/192/104 161/193/104
f 162/194/105 165/195/105 161/196/105
f 166/197/106 163/198/106 167/199/106
f 163/198/107 166/197/107 160/200/107
f 168/201/108 159/202/108 164/203/108 165/195/108
f 161/193/109 163/204/109 160/191/109
f 161/205/110 164/206/110 159/202/110 163/207/110
f 165/195/111 164/203/111 161/196/111
f 167/208/112 163/198/112 159/209/112
f 159/202/113 168/201/113 167/208/113
f 168/201/114 165/195/114 162/192/114 166/210/114
f 168/201/115 166/210/115 167/208/115
f 162/192/116 160/191/116 166/210/116
o Cube
v 5.226467 0.429575 -0.432470
v 5.227635 0.437426 -0.441583
v 5.233296 0.433235 -0.438800
v 5.232583 0.439743 -0.437543
v 5.224344 0.431438 -0.439195
v 5.232750 0.431945 -0.432372
v 5.233700 0.437718 -0.432239
v 5.224469 0.440622 -0.436269
v 5.222996 0.436347 -0.431645
v 5.227301 0.439255 -0.430104
vn 0.5549 0.2159 -0.8034
vn 0.9786 0.1369 -0.1539
vn -0.9696 0.0862 -0.2292
vn -0.7852 0.1976 -0.5869
vn 0.1674 -0.1762 0.9700
vn 0.1251 -0.4261 -0.8960
vn 0.2628 -0.9306 -0.2546
vn 0.9853 -0.1633 0.0509
vn -0.8729 -0.4653 0.1467
vn -0.1960 -0.2169 0.9563
vn 0.2085 0.9551 0.2106
vn -0.6061 0.6710 0.4272
vn 0.0132 0.8603 -0.5096
vt 0.550384 0.206938
vt 0.375000 0.305791
vt 0.375000 0.049496
vt 0.180791 0.500000
vt 0.330928 0.574320
vt 0.125000 0.700504
vt 0.804283 0.500000
vt 0.842867 0.681766
vt 0.658516 0.626313
vt 0.875000 0.500000
vt 0.501754 0.540833
vt 0.565165 0.799791
vt 0.325310 0.750000
vt 0.604031 0.069198
vt 0.375000 1.000000
vt 0.375000 0.799690
vt 0.578028 1.000000
vt 0.615335 0.592735
vt 0.589707 0.775249
vt 0.581909 0.353207
s 0
g Cube_Material
usemtl Material
f 170/211/117 172/212/117 171/213/117
f 172/214/118 175/215/118 171/216/118
f 176/217/119 173/218/119 177/219/119
f 173/218/120 176/217/120 170/220/120
f 178/221/121 169/222/121 174/223/121 175/215/121
f 171/213/122 173/224/122 170/211/122
f 171/225/123 174/226/123 169/222/123 173/227/123
f 175/215/124 174/223/124 171/216/124
f 177/228/125 173/218/125 169/229/125
f 169/222/126 178/221/126 177/228/126
f 178/221/127 175/215/127 172/212/127 176/230/127
f 178/221/128 176/230/128 177/228/128
f 172/212/129 170/211/129 176/230/129
o Cube
v 0.245462 0.404021 4.862898
v 0.245083 0.391852 4.875776
v 0.239443 0.391066 4.866242
v 0.235287 0.393376 4.874783
v 0.251113 0.397133 4.868817
v 0.236682 0.399568 4.862617
v 0.231823 0.399205 4.869681
v 0.243196 0.401016 4.879865
v 0.244582 0.407832 4.873420
v 0.236781 0.406686 4.874413
vn -0.1690 -0.9691 0.1799
vn -0.7559 -0.6236 -0.1992
vn 0.8230 0.2929 0.4868
vn 0.7901 -0.1066 0.6036
vn -0.4875 0.7494 -0.4481
vn 0.4877 -0.8452 -0.2188
vn 0.3130 -0.3711 -0.8742
vn -0.7221 -0.4563 -0.5200
vn 0.8194 0.5575 -0.1334
vn -0.1796 0.9200 -0.3483
vn -0.6725 0.0959 0.7339
vn -0.0087 0.6880 0.7257
vn -0.1569 -0.4292 0.8895
vt 0.550384 0.206938
vt 0.375000 0.305791
vt 0.375000 0.049496
vt 0.180791 0.500000
vt 0.330928 0.574320
vt 0.125000 0.700504
vt 0.804283 0.500000
vt 0.842867 0.681766
vt 0.658516 0.626313
vt 0.875000 0.500000
vt 0.501754 0.540833
vt 0.565165 0.799791
vt 0.325310 0.750000
vt 0.604031 0.069198
vt 0.375000 1.000000
vt 0.375000 0.799690
vt 0.578028 1.000000
vt 0.615335 0.592735
vt 0.589707 0.775249
vt 0.581909 0.353207
s 0
g Cube_Material
usemtl Material
f 180/231/130 182/232/130 181/233/130
f 182/234/131 185/235/131 181/236/131
f 186/237/132 183/238/132 187/239/132
f 183/238/133 186/237/133 180/240/133
f 188/241/134 179/242/134 184/243/134 185/235/134
f 181/233/135 183/244/135 180/231/135
f 181/245/136 184/246/136 179/242/136 183/247/136
f 185/235/137 184/243/137 181/236/137
f 187/248/138 183/238/138 179/249/138
f 179/242/139 188/241/139 187/248/139
f 188/241/140 185/235/140 182/232/140 186/250/140
f 188/241/141 186/250/141 187/248/141
f 182/232/142 180/231/142 186/250/142
o Cube
v -4.453198 0.071609 -1.609964
v -4.445157 0.077164 -1.600970
v -4.450547 0.081391 -1.605698
v -4.443320 0.081314 -1.606900
v -4.451046 0.071970 -1.602251
v -4.451650 0.078466 -1.612218
v -4.445530 0.080362 -1.612787
v -4.440994 0.072646 -1.605531
v -4.445246 0.068869 -1.609795
v -4.442742 0.073288 -1.612907
vn 0.1069 0.7988 0.5921
vn -0.0151 0.9879 -0.1542
vn 0.2230 -0.8294 0.5123
vn 0.2951 -0.5304 0.7947
vn -0.1705 -0.1639 -0.9716
vn -0.4663 0.3257 0.8225
vn -0.9665 0.1841 0.1787
vn -0.3068 0.8867 -0.3459
vn -0.3254 -0.9360 0.1346
vn -0.1569 -0.5077 -0.8471
vn 0.9191 0.2763 -0.2808
vn 0.7662 -0.5986 -0.2338
vn 0.8333 0.2972 0.4661
vt 0.550384 0.206938
vt 0.375000 0.305791
vt 0.375000 0.049496
vt 0.180791 0.500000
vt 0.330928 0.574320
vt 0.125000 0.700504
vt 0.804283 0.500000
vt 0.842867 0.681766
vt 0.658516 0.626313
vt 0.875000 0.500000
vt 0.501754 0.540833
vt 0.565165 0.799791
vt 0.325310 0.750000
vt 0.604031 0.069198
vt 0.375000 1.000000
vt 0.375000 0.799690
vt 0.578028 1.000000
vt 0.615335 0.592735
vt 0.589707 0.775249
vt 0.581909 0.353207
s 0
g Cube_Material
usemtl Material
f 190/251/143 192/252/143 191/253/143
f 192/254/144 195/255/144 191/256/144
f 196/257/145 193/258/145 197/259/145
f 193/258/146 196/257/146 190/260/146
f 198/261/147 189/262/147 194/263/147 195/255/147
f 191/253/148 193/264/148 190/251/148
f 191/265/149 194/266/149 189/262/149 193/267/149
f 195/255/150 194/263/150 191/256/150
f 197/268/151 193/258/151 189/269/151
f 189/262/152 198/261/152 197/268/152
f 198/261/153 195/255/153 192/252/153 196/270/153
f 198/261/154 196/270/154 197/268/154
f 192/252/155 190/251/155 196/270/155
o Cube
v -1.318579 0.310827 4.576654
v -1.317992 0.302869 4.556770
v -1.329156 0.307101 4.562911
v -1.326470 0.295689 4.561423
v -1.313838 0.312074 4.564688
v -1.329053 0.305598 4.574475
v -1.329364 0.295737 4.571265
v -1.312132 0.295073 4.564336
v -1.310955 0.299766 4.574729
v -1.317953 0.293189 4.574972
vn -0.4817 0.0009 -0.8763
vn -0.9429 -0.1858 -0.2763
vn 0.9823 0.1018 -0.1572
vn 0.8319 0.0948 -0.5467
vn -0.2360 -0.1728 0.9563
vn -0.1376 0.6809 -0.7193
vn -0.3722 0.9275 0.0350
vn -0.9995 0.0275 0.0124
vn 0.7949 0.4844 0.3655
vn 0.1189 -0.0901 0.9888
vn -0.0889 -0.9880 -0.1264
vn 0.6690 -0.7029 0.2416
vn 0.1264 -0.6403 -0.7577
vt 0.550384 0.206938
vt 0.375000 0.305791
vt 0.375000 0.049496
vt 0.180791 0.500000
vt 0.330928 0.574320
vt 0.125000 0.700504
vt 0.804283 0.500000
vt 0.842867 0.681766
vt 0.658516 0.626313
vt 0.875000 0.500000
vt 0.501754 0.540833
vt 0.565165 0.799791
vt 0.325310 0.750000
vt 0.604031 0.069198
vt 0.375000 1.000000
vt 0.375000 0.799690
vt 0.578028 1.000000
vt 0.615335 0.592735
vt 0.589707 0.775249
vt 0.581909 0.353207
s 0
g Cube_Material
usemtl Material
f 200/271/156 202/272/156 201/273/156
f 202/274/157 205/275/157 201/276/157
f 206/277/158 203/278/158 207/279/158
f 203/278/159 206/277/159 200/280/159
f 208/281/160 199/282/160 204/283/160 205/275/160
f 201/273/161 203/284/161 200/271/161
f 201/285/162 204/286/162 199/282/162 203/287/162
f 205/275/163 204/283/163 201/276/163
f 207/288/164 203/278/164 199/289/164
f 199/282/165 208/281/165 207/288/165
f 208/281/166 205/275/166 202/272/166 206/290/166
f 208/281/167 206/290/167 207/288/167
f 202/272/168 200/271/168 206/290/168
o Cube
v -3.986099 0.033907 1.064926
v -3.997243 0.036645 1.054221
v -3.991866 0.043649 1.058552
v -4.000115 0.042014 1.060607
v -3.989067 0.032387 1.056061
v -3.989516 0.041767 1.066546
v -3.997024 0.042539 1.067436
v -4.000657 0.031301 1.060665
v -3.994576 0.028805 1.065892
v -3.998428 0.033805 1.069005
vn -0.3022 0.6583 -0.6894
vn -0.1917 0.9814 0.0113
vn -0.0608 -0.9264 -0.3716
vn -0.2078 -0.6960 -0.6873
vn 0.2437 0.0267 0.9695
vn 0.3490 0.2843 -0.8930
vn 0.8954 0.3502 -0.2750
vn 0.1230 0.9735 0.1930
vn 0.5134 -0.8578 -0.0249
vn 0.2992 -0.3275 0.8962
vn -0.9441 0.1202 0.3071
vn -0.6082 -0.7008 0.3729
vn -0.8972 0.0430 -0.4396
vt 0.550384 0.206938
vt 0.375000 0.305791
vt 0.375000 0.049496
vt 0.180791 0.500000
vt 0.330928 0.574320
vt 0.125000 0.700504
vt 0.804283 0.500000
vt 0.842867 0.681766
vt 0.658516 0.626313
vt 0.875000 0.500000
vt 0.501754 0.540833
vt 0.565165 0.799791
vt 0.325310 0.750000
vt 0.604031 0.069198
vt 0.375000 1.000000
vt 0.375000 0.799690
vt 0.578028 1.000000
vt 0.615335 0.592735
vt 0.589707 0.775249
vt 0.581909 0.353207
s 0
g Cube_Material
usemtl Material
f 210/291/169 212/292/169 211/293/169
f 212/294/170 215/295/170 211/296/170
f 216/297/171 213/298/171 217/299/171
f 213/298/172 216/297/172 210/300/172
f 218/301/173 209/302/173 214/303/173 215/295/173
f 211/293/174 213/304/174 210/291/174
f 211/305/175 214/306/175 209/302/175 213/307/175
f 215/295/176 214/303/176 211/296/176
f 217/308/177 213/298/177 209/309/177
f 209/302/178 218/301/178 217/308/178
f 218/301/179 215/295/179 212/292/179 216/310/179
f 218/301/180 216/310/180 217/308/180
f 212/292/181 210/291/181 216/310/181
o Cube
v -0.582271 0.027149 4.101975
v -0.575469 0.026216 4.114574
v -0.583885 0.029212 4.113561
v -0.577700 0.033960 4.114915
v -0.578353 0.021955 4.107690
v -0.585161 0.032835 4.106761
v -0.580839 0.037333 4.109819
v -0.570621 0.030251 4.109231
v -0.573633 0.029966 4.102174
v -0.574614 0.035809 4.104682
vn -0.1494 -0.0864 0.9850
vn -0.5388 0.5108 0.6699
vn 0.7270 -0.6246 -0.2850
vn 0.7137 -0.6888 0.1274
vn -0.3149 0.6066 -0.7300
vn -0.3325 -0.7332 0.5931
vn -0.8466 -0.5318 -0.0233
vn -0.7814 0.4780 0.4013
vn 0.2254 -0.6391 -0.7353
vn -0.1020 0.3778 -0.9203
vn 0.5540 0.7739 0.3069
vn 0.8697 0.3107 -0.3837
vn 0.6677 0.1603 0.7270
vt 0.550384 0.206938
vt 0.375000 0.305791
vt 0.375000 0.049496
vt 0.180791 0.500000
vt 0.330928 0.574320
vt 0.125000 0.700504
vt 0.804283 0.500000
vt 0.842867 0.681766
vt 0.658516 0.626313
vt 0.875000 0.500000
vt 0.501754 0.540833
vt 0.565165 0.799791
vt 0.325310 0.750000
vt 0.604031 0.069198
vt 0.375000 1.000000
vt 0.375000 0.799690
vt 0.578028 1.000000
vt 0.615335 0.592735
vt 0.589707 0.775249
vt 0.581909 0.353207
s 0
g Cube_Material
usemtl Material
f 220/311/182 222/312/182 221/313/182
f 222/314/183 225/315/183 221/316/183
f 226/317/184 223/318/184 227/319/184
f 223/318/185 226/317/185 220/320/185
f 228/321/186 219/322/186 224/323/186 225/315/186
f 221/313/187 223/324/187 220/311/187
f 221/325/188 224/326/188 219/322/188 223/327/188
f 225/315/189 224/323/189 221/316/189
f 227/328/190 223/318/190 219/329/190
f 219/322/191 228/321/191 227/328/191
f 228/321/192 225/315/192 222/312/192 226/330/192
f 228/321/193 226/330/193 227/328/193
f 222/312/194 220/311/194 226/330/194
o Cube
v -0.084282 -0.002511 -3.453479
v -0.077672 0.002505 -3.441417
v -0.085180 0.006238 -3.445139
v -0.077809 0.009470 -3.445800
v -0.081730 -0.004282 -3.445207
v -0.085560 0.005514 -3.453066
v -0.080069 0.009952 -3.452418
v -0.071891 0.001579 -3.447489
v -0.075021 -0.002064 -3.453678
v -0.074405 0.004338 -3.454997
vn -0.1546 0.5241 0.8375
vn -0.3791 0.9045 0.1953
vn 0.5359 -0.8177 0.2102
vn 0.5113 -0.6313 0.5831
vn -0.1551 0.1357 -0.9785
vn -0.5045 -0.1709 0.8463
vn -0.9560 -0.2478 0.1570
vn -0.6251 0.7795 -0.0412
vn 0.0423 -0.9742 -0.2217
vn -0.0114 -0.2008 -0.9796
vn 0.7400 0.6655 -0.0974
vn 0.9158 -0.1638 -0.3668
vn 0.6953 0.3926 0.6021
vt 0.550384 0.206938
vt 0.375000 0.305791
vt 0.375000 0.049496
vt 0.180791 0.500000
vt 0.330928 0.574320
vt 0.125000 0.700504
vt 0.804283 0.500000
vt 0.842867 0.681766
vt 0.658516 0.626313
vt 0.875000 0.500000
vt 0.501754 0.540833
vt 0.565165 0.799791
vt 0.325310 0.750000
vt 0.604031 0.069198
vt 0.375000 1.000000
vt 0.375000 0.799690
vt 0.578028 1.000000
vt 0.615335 0.592735
vt 0.589707 0.775249
vt 0.581909 0.353207
s 0
g Cube_Material
usemtl Material
f 230/331/195 232/332/195 231/333/195
f 232/334/196 235/335/196 231/336/196
f 236/337/197 233/338/197 237/339/197
f 233/338/198 236/337/198 230/340/198
f 238/341/199 229/342/199 234/343/199 235/335/199
f 231/333/200 233/344/200 230/331/200
f 231/345/201 234/346/201 229/342/201 233/347/201
f 235/335/202 234/343/202 231/336/202
f 237/348/203 233/338/203 229/349/203
f 229/342/204 238/341/204 237/348/204
f 238/341/205 235/335/205 232/332/205 236/350/205
f 238/341/206 236/350/206 237/348/206
f 232/332/207 230/331/207 236/350/207
o Cube
v -2.832809 0.112902 2.351040
v -2.836620 0.097624 2.350473
v -2.830869 0.102181 2.343867
v -2.839132 0.099982 2.342312
v -2.832465 0.104483 2.355449
v -2.832849 0.110435 2.342638
v -2.839015 0.107052 2.339682
v -2.844219 0.102490 2.351469
v -2.842333 0.110580 2.352915
v -2.844541 0.109841 2.346244
vn 0.3018 -0.8871 -0.3493
vn 0.2606 -0.3405 -0.9034
vn -0.3042 -0.0985 0.9475
vn -0.2036 -0.4911 0.8470
vn -0.1634 0.9106 -0.3797
vn 0.7515 -0.6196 0.2267
vn 0.9876 0.1514 0.0408
vn 0.4441 -0.0269 -0.8956
vn 0.0605 0.4650 0.8832
vn -0.2419 0.9699 -0.0273
vn -0.8377 -0.2704 -0.4744
vn -0.9414 0.1670 0.2930
vn -0.5446 -0.8354 -0.0738
vt 0.550384 0.206938
vt 0.375000 0.305791
vt 0.375000 0.049496
vt 0.180791 0.500000
vt 0.330928 0.574320
vt 0.125000 0.700504
vt 0.804283 0.500000
vt 0.842867 0.681766
vt 0.658516 0.626313
vt 0.875000 0.500000
vt 0.501754 0.540833
vt 0.565165 0.799791
vt 0.325310 0.750000
vt 0.604031 0.069198
vt 0.375000 1.000000
vt 0.375000 0.799690
vt 0.578028 1.000000
vt 0.615335 0.592735
vt 0.589707 0.775249
vt 0.581909 0.353207
s 0
g Cube_Material
usemtl Material
f 240/351/208 242/352/208 241/353/208
f 242/354/209 245/355/209 241/356/209
f 246/357/210 243/358/210 247/359/210
f 243/358/211 246/357/211 240/360/211
f 248/361/212 239/362/212 244/363/212 245/355/212
f 241/353/213 243/364/213 240/351/213
f 241/365/214 244/366/214 239/362/214 243/367/214
f 245/355/215 244/363/215 241/356/215
f 247/368/216 243/358/216 239/369/216
f 239/362/217 248/361/217 247/368/217
f 248/361/218 245/355/218 242/352/218 246/370/218
f 248/361/219 246/370/219 247/368/219
f 242/352/220 240/351/220 246/370/220
o Cube
v 1.714729 0.225835 2.419491
v 1.696390 0.230603 2.411049
v 1.697899 0.225454 2.422889
v 1.694280 0.219475 2.413829
v 1.707460 0.234860 2.414751
v 1.706840 0.218619 2.423806
v 1.701025 0.213248 2.417621
v 1.702595 0.223986 2.403267
v 1.712984 0.222528 2.406894
v 1.708125 0.214706 2.408213
vn -0.9461 0.2350 0.2228
vn -0.7087 -0.4246 0.5634
vn 0.3363 0.6085 -0.7187
vn -0.0583 0.7371 -0.6733
vn 0.6396 -0.7315 0.2363
vn -0.4429 0.8002 0.4044
vn 0.1637 0.4756 0.8643
vn -0.4234 -0.4482 0.7873
vn 0.8140 0.5241 -0.2504
vn 0.8508 -0.5252 0.0200
vn -0.4639 -0.6843 -0.5626
vn 0.2715 -0.3216 -0.9071
vn -0.7844 -0.0063 -0.6202
vt 0.550384 0.206938
vt 0.375000 0.305791
vt 0.375000 0.049496
vt 0.180791 0.500000
vt 0.330928 0.574320
vt 0.125000 0.700504
vt 0.804283 0.500000
vt 0.842867 0.681766
vt 0.658516 0.626313
vt 0.875000 0.500000
vt 0.501754 0.540833
vt 0.565165 0.799791
vt 0.325310 0.750000
vt 0.604031 0.069198
vt 0.375000 1.000000
vt 0.375000 0.799690
vt 0.578028 1.000000
vt 0.615335 0.592735
vt 0.589707 0.775249
vt 0.581909 0.353207
s 0
g Cube_Material
usemtl Material
f 250/371/221 252/372/221 251/373/221
f 252/374/222 255/375/222 251/376/222
f 256/377/223 253/378/223 257/379/223
f 253/378/224 256/377/224 250/380/224
f 258/381/225 249/382/225 254/383/225 255/375/225
f 251/373/226 253/384/226 250/371/226
f 251/385/227 254/386/227 249/382/227 253/387/227
f 255/375/228 254/383/228 251/376/228
f 257/388/229 253/378/229 249/389/229
f 249/382/230 258/381/230 257/388/230
f 258/381/231 255/375/231 252/372/231 256/390/231
f 258/381/232 256/390/232 257/388/232
f 252/372/233 250/371/233 256/390/233
o Cube
v 1.111938 0.310651 -2.925153
v 1.110247 0.311434 -2.909568
v 1.118365 0.314145 -2.914413
v 1.117734 0.306777 -2.909911
v 1.107026 0.314303 -2.917922
v 1.119813 0.309654 -2.921535
v 1.120920 0.304303 -2.916252
v 1.107935 0.303139 -2.912328
v 1.107694 0.302830 -2.920718
v 1.113544 0.299656 -2.918428
vn 0.3306 0.4713 0.8176
vn 0.9056 0.1619 0.3919
vn -0.9974 -0.0656 0.0310
vn -0.9111 0.1230 0.3934
vn 0.4096 -0.4950 -0.7663
vn -0.0974 0.9292 0.3566
vn 0.2062 0.8875 -0.4121
vn 0.9689 0.2435 0.0434
vn -0.7996 0.0979 -0.5925
vn 0.0553 -0.5151 -0.8554
vn 0.2383 -0.7995 0.5513
vn -0.4903 -0.8703 0.0461
vn -0.1306 -0.2800 0.9511
vt 0.550384 0.206938
vt 0.375000 0.305791
vt 0.375000 0.049496
vt 0.180791 0.500000
vt 0.330928 0.574320
vt 0.125000 0.700504
vt 0.804283 0.500000
vt 0.842867 0.681766
vt 0.658516 0.626313
vt 0.875000 0.500000
vt 0.501754 0.540833
vt 0.565165 0.799791
vt 0.325310 0.750000
vt 0.604031 0.069198
vt 0.375000 1.000000
vt 0.375000 0.799690
vt 0.578028 1.000000
vt 0.615335 0.592735
vt 0.589707 0.775249
vt 0.581909 0.353207
s 0
g Cube_Material
usemtl Material
f 260/391/234 262/392/234 261/393/234
f 262/394/235 265/395/235 261/396/235
f 266/397/236 263/398/236 267/399/236
f 263/398/237 266/397/237 260/400/237
f 268/401/238 259/402/238 264/403/238 265/395/238
f 261/393/239 263/404/239 260/391/239
f 261/405/240 264/406/240 259/402/240 263/407/240
f 265/395/241 264/403/241 261/396/241
f 267/408/242 263/398/242 259/409/242
f 259/402/243 268/401/243 267/408/243
f 268/401/244 265/395/244 262/392/244 266/410/244
f 268/401/245 266/410/245 267/408/245
f 262/392/246 260/391/246 266/410/246
o Cube
v -1.971619 0.384644 -2.014813
v -1.984789 0.393890 -2.027950
v -1.972369 0.397417 -2.026304
v -1.981221 0.403296 -2.022019
v -1.979080 0.383294 -2.024798
v -1.968462 0.395702 -2.015832
v -1.975152 0.403022 -2.014143
v -1.989954 0.393203 -2.017175
v -1.983762 0.387007 -2.010331
v -1.982683 0.396007 -2.008185
vn -0.0437 0.5446 -0.8375
vn 0.4242 0.8554 -0.2972
vn -0.6867 -0.7260 -0.0359
vn -0.7545 -0.5241 -0.3951
vn 0.4738 0.0591 0.8787
vn 0.1816 -0.1892 -0.9650
vn 0.8114 -0.3638 -0.4574
vn 0.7116 0.6857 -0.1532
vn -0.1101 -0.9707 0.2136
vn 0.2908 -0.2548 0.9222
vn -0.5675 0.7517 0.3361
vn -0.7668 -0.0605 0.6390
vn -0.7855 0.5147 -0.3437
vt 0.550384 0.206938
vt 0.375000 0.305791
vt 0.375000 0.049496
vt 0.180791 0.500000
vt 0.330928 0.574320
vt 0.125000 0.700504
vt 0.804283 0.500000
vt 0.842867 0.681766
vt 0.658516 0.626313
vt 0.875000 0.500000
vt 0.501754 0.540833
vt 0.565165 0.799791
vt 0.325310 0.750000
vt 0.604031 0.069198
vt 0.375000 1.000000
vt 0.375000 0.799690
vt 0.578028 1.000000
vt 0.615335 0.592735
vt 0.589707 0.775249
vt 0.581909 0.353207
s 0
g Cube_Material
usemtl Material
f 270/411/247 272/412/247 271/413/247
f 272/414/248 275/415/248 271/416/248
f 276/417/249 273/418/249 277/419/249
f 273/418/250 276/417/250 270/420/250
f 278/421/251 269/422/251 274/423/251 275/415/251
f 271/413/252 273/424/252 270/411/252
f 271/425/253 274/426/253 269/422/253 273/427/253
f 275/415/254 274/423/254 271/416/254
f 277/428/255 273/418/255 269/429/255
f 269/422/256 278/421/256 277/428/256
f 278/421/257 275/415/257 272/412/257 276/430/257
f 278/421/258 276/430/258 277/428/258
f 272/412/259 270/411/259 276/430/259
o Cube
v 0.836108 0.447103 -2.040666
v 0.848871 0.441056 -2.047179
v 0.839761 0.438677 -2.049691
v 0.844826 0.433632 -2.044949
v 0.843993 0.448805 -2.045466
v 0.834218 0.439092 -2.043305
v 0.838473 0.433289 -2.041080
v 0.849594 0.440393 -2.038272
v 0.843407 0.444545 -2.034565
v 0.842114 0.437698 -2.034255
vn 0.3433 -0.4368 -0.8315
vn -0.2853 -0.7928 -0.5387
vn 0.6502 0.6951 0.3066
vn 0.8431 0.5371 -0.0283
vn -0.7564 -0.1486 0.6370
vn 0.1746 0.3160 -0.9325
vn -0.5961 0.4522 -0.6635
vn -0.6060 -0.6304 -0.4851
vn 0.0212 0.9308 0.3649
vn -0.6028 0.1493 0.7838
vn 0.4138 -0.8112 0.4133
vn 0.4871 -0.0525 0.8717
vn 0.8592 -0.5003 -0.1070
vt 0.550384 0.206938
vt 0.375000 0.305791
vt 0.375000 0.049496
vt 0.180791 0.500000
vt 0.330928 0.574320
vt 0.125000 0.700504
vt 0.804283 0.500000
vt 0.842867 0.681766
vt 0.658516 0.626313
vt 0.875000 0.500000
vt 0.501754 0.540833
vt 0.565165 0.799791
vt 0.325310 0.750000
vt 0.604031 0.069198
vt 0.375000 1.000000
vt 0.375000 0.799690
vt 0.578028 1.000000
vt 0.615335 0.592735
vt 0.589707 0.775249
vt 0.581909 0.353207
s 0
g Cube_Material
usemtl Material
f 280/431/260 282/432/260 281/433/260
f 282/434/261 285/435/261 281/436/261
f 286/437/262 283/438/262 287/439/262
f 283/438/263 286/437/263 280/440/263
f 288/441/264 279/442/264 284/443/264 285/435/264
f 281/433/265 283/444/265 280/431/265
f 281/445/266 284/446/266 279/442/266 283/447/266
f 285/435/267 284/443/267 281/436/267
f 287/448/268 283/438/268 279/449/268
f 279/442/269 288/441/269 287/448/269
f 288/441/270 285/435/270 282/432/270 286/450/270
f 288/441/271 286/450/271 287/448/271
f 282/432/272 280/431/272 286/450/272
o Cube
v -0.872909 0.548406 1.890349
v -0.856793 0.549713 1.889579
v -0.863171 0.557597 1.889822
v -0.858984 0.554883 1.882418
v -0.864367 0.546413 1.894652
v -0.870945 0.556024 1.885986
v -0.866196 0.555861 1.879752
v -0.859645 0.543850 1.882912
v -0.868077 0.542108 1.883860
v -0.867179 0.546753 1.878356
vn 0.7636 0.6114 0.2077
vn 0.2130 0.9501 -0.2278
vn 0.2250 -0.9292 0.2933
vn 0.5742 -0.7208 0.3883
vn -0.8625 0.0629 -0.5021
vn 0.4272 0.3196 0.8458
vn -0.3876 0.4567 0.8007
vn -0.1352 0.9824 -0.1287
vn -0.4138 -0.7877 0.4564
vn -0.8802 -0.2821 -0.3816
vn 0.4407 0.0042 -0.8976
vn 0.0874 -0.7683 -0.6341
vn 0.9382 -0.0714 -0.3386
vt 0.550384 0.206938
vt 0.375000 0.305791
vt 0.375000 0.049496
vt 0.180791 0.500000
vt 0.330928 0.574320
vt 0.125000 0.700504
vt 0.804283 0.500000
vt 0.842867 0.681766
vt 0.658516 0.626313
vt 0.875000 0.500000
vt 0.501754 0.540833
vt 0.565165 0.799791
vt 0.325310 0.750000
vt 0.604031 0.069198
vt 0.375000 1.000000
vt 0.375000 0.799690
vt 0.578028 1.000000
vt 0.615335 0.592735
vt 0.589707 0.775249
vt 0.581909 0.353207
s 0
g Cube_Material
usemtl Material
f 290/451/273 292/452/273 291/453/273
f 292/454/274 295/455/274 291/456/274
f 296/457/275 293/458/275 297/459/275
f 293/458/276 296/457/276 290/460/276
f 298/461/277 289/462/277 294/463/277 295/455/277
f 291/453/278 293/464/278 290/451/278
f 291/465/279 294/466/279 289/462/279 293/467/279
f 295/455/280 294/463/280 291/456/280
f 297/468/281 293/458/281 289/469/281
f 289/462/282 298/461/282 297/468/282
f 298/461/283 295/455/283 292/452/283 296/470/283
f 298/461/284 296/470/284 297/468/284
f 292/452/285 290/451/285 296/470/285
o Cube
v -0.115195 0.420312 2.248049
v -0.134656 0.427703 2.254260
v -0.130216 0.427626 2.241392
v -0.130751 0.437519 2.248131
v -0.126631 0.417471 2.253799
v -0.118517 0.428994 2.240346
v -0.121266 0.438479 2.243972
v -0.125867 0.433018 2.261411
v -0.115522 0.428122 2.259374
v -0.115877 0.436850 2.255062
vn -0.9314 0.1692 -0.3224
vn -0.3891 0.5041 -0.7710
vn -0.0305 -0.4383 0.8983
vn -0.4356 -0.3785 0.8167
vn 0.9241 0.2425 -0.2953
vn -0.7654 -0.5885 -0.2606
vn -0.0626 -0.7390 -0.6708
vn -0.1217 0.3235 -0.9384
vn 0.4423 -0.7323 0.5178
vn 0.9992 0.0409 0.0007
vn -0.0860 0.9570 0.2770
vn 0.3642 0.4244 0.8290
vn -0.7002 0.5572 0.4464
vt 0.550384 0.206938
vt 0.375000 0.305791
vt 0.375000 0.049496
vt 0.180791 0.500000
vt 0.330928 0.574320
vt 0.125000 0.700504
vt 0.804283 0.500000
vt 0.842867 0.681766
vt 0.658516 0.626313
vt 0.875000 0.500000
vt 0.501754 0.540833
vt 0.565165 0.799791
vt 0.325310 0.750000
vt 0.604031 0.069198
vt 0.375000 1.000000
vt 0.375000 0.799690
vt 0.578028 1.000000
vt 0.615335 0.592735
vt 0.589707 0.775249
vt 0.581909 0.353207
s 0
g Cube_Material
usemtl Material
f 300/471/286 302/472/286 301/473/286
f 302/474/287 305/475/287 301/476/287
f 306/477/288 303/478/288 307/479/288
f 303/478/289 306/477/289 300/480/289
f 308/481/290 299/482/290 304/483/290 305/475/290
f 301/473/291 303/484/291 300/471/291
f 301/485/292 304/486/292 299/482/292 303/487/292
f 305/475/293 304/483/293 301/476/293
f 307/488/294 303/478/294 299/489/294
f 299/482/295 308/481/295 307/488/295
f 308/481/296 305/475/296 302/472/296 306/490/296
f 308/481/297 306/490/297 307/488/297
f 302/472/298 300/471/298 306/490/298
o Cube
v -1.816476 0.347554 0.443825
v -1.814412 0.335428 0.449647
v -1.816157 0.342590 0.453934
v -1.809308 0.339536 0.453598
v -1.818964 0.339751 0.444449
v -1.813564 0.348732 0.450705
v -1.807925 0.345799 0.452445
v -1.808496 0.336894 0.444716
v -1.809904 0.342869 0.440799
v -1.805805 0.344198 0.445121
vn -0.1999 -0.5386 0.8185
vn 0.1172 0.1547 0.9810
vn -0.1334 -0.5651 -0.8141
vn -0.2150 -0.8352 -0.5063
vn 0.3845 0.9017 -0.1978
vn -0.8263 -0.4235 0.3714
vn -0.8960 0.3867 0.2182
vn -0.0253 0.4735 0.8804
vn -0.3880 0.0502 -0.9203
vn 0.3117 0.7841 -0.5366
vn 0.9336 -0.2671 0.2388
vn 0.7403 -0.2378 -0.6288
vn 0.4523 -0.8427 0.2920
vt 0.550384 0.206938
vt 0.375000 0.305791
vt 0.375000 0.049496
vt 0.180791 0.500000
vt 0.330928 0.574320
vt 0.125000 0.700504
vt 0.804283 0.500000
vt 0.842867 0.681766
vt 0.658516 0.626313
vt 0.875000 0.500000
vt 0.501754 0.540833
vt 0.565165 0.799791
vt 0.325310 0.750000
vt 0.604031 0.069198
vt 0.375000 1.000000
vt 0.375000 0.799690
vt 0.578028 1.000000
vt 0.615335 0.592735
vt 0.589707 0.775249
vt 0.581909 0.353207
s 0
g Cube_Material
usemtl Material
f 310/491/299 312/492/299 311/493/299
f 312/494/300 315/495/300 311/496/300
f 316/497/301 313/498/301 317/499/301
f 313/498/302 316/497/302 310/500/302
f 318/501/303 309/502/303 314/503/303 315/495/303
f 311/493/304 313/504/304 310/491/304
f 311/505/305 314/506/305 309/502/305 313/507/305
f 315/495/306 314/503/306 311/496/306
f 317/508/307 313/498/307 309/509/307
f 309/502/308 318/501/308 317/508/308
f 318/501/309 315/495/309 312/492/309 316/510/309
f 318/501/310 316/510/310 317/508/310
f 312/492/311 310/491/311 316/510/311
o Cube
v -1.042572 0.273204 0.971129
v -1.023647 0.280379 0.980579
v -1.024684 0.275961 0.967338
v -1.019639 0.269252 0.976356
v -1.036211 0.283449 0.977157
v -1.033095 0.267344 0.965658
v -1.025881 0.261954 0.971650
v -1.028978 0.271504 0.988222
v -1.039877 0.268630 0.984243
v -1.033452 0.261301 0.981934
vn 0.8941 0.3992 -0.2032
vn 0.7528 -0.2516 -0.6083
vn -0.4096 0.4740 0.7794
vn -0.0402 0.6658 0.7450
vn -0.5255 -0.7938 -0.3063
vn 0.3067 0.8954 -0.3228
vn -0.2532 0.5292 -0.8098
vn 0.4696 -0.2961 -0.8317
vn -0.8788 0.3646 0.3078
vn -0.7608 -0.6453 -0.0687
vn 0.5751 -0.6577 0.4866
vn -0.1995 -0.4492 0.8709
vn 0.7895 0.0523 0.6115
vt 0.550384 0.206938
vt 0.375000 0.305791
vt 0.375000 0.049496
vt 0.180791 0.500000
vt 0.330928 0.574320
vt 0.125000 0.700504
vt 0.804283 0.500000
vt 0.842867 0.681766
vt 0.658516 0.626313
vt 0.875000 0.500000
vt 0.501754 0.540833
vt 0.565165 0.799791
vt 0.325310 0.750000
vt 0.604031 0.069198
vt 0.375000 1.000000
vt 0.375000 0.799690
vt 0.578028 1.000000
vt 0.615335 0.592735
vt 0.589707 0.775249
vt 0.581909 0.353207
s 0
g Cube_Material
usemtl Material
f 320/511/312 322/512/312 321/513/312
f 322/514/313 325/515/313 321/516/313
f 326/517/314 323/518/314 327/519/314
f 323/518/315 326/517/315 320/520/315
f 328/521/316 319/522/316 324/523/316 325/515/316
f 321/513/317 323/524/317 320/511/317
f 321/525/318 324/526/318 319/522/318 323/527/318
f 325/515/319 324/523/319 321/516/319
f 327/528/320 323/518/320 319/529/320
f 319/522/321 328/521/321 327/528/321
f 328/521/322 325/515/322 322/512/322 326/530/322
f 328/521/323 326/530/323 327/528/323
f 322/512/324 320/511/324 326/530/324
o Cube
v 3.793425 0.210019 -5.181864
v 3.789118 0.220383 -5.196942
v 3.787598 0.208724 -5.196235
v 3.795276 0.213168 -5.201601
v 3.787223 0.218575 -5.185992
v 3.794484 0.203991 -5.190330
v 3.799767 0.206711 -5.197225
v 3.799265 0.222673 -5.193930
v 3.801358 0.218276 -5.185129
v 3.805090 0.213993 -5.191355
vn -0.5829 0.0267 -0.8121
vn -0.1659 -0.6297 -0.7589
vn -0.0085 0.8938 0.4484
vn -0.2511 0.9611 0.1153
vn 0.6474 -0.6449 0.4062
vn -0.9815 0.1189 -0.1502
vn -0.7862 -0.4996 0.3638
vn -0.1811 -0.8596 -0.4778
vn -0.0472 0.4062 0.9126
vn 0.6586 -0.3747 0.6526
vn 0.7057 0.1645 -0.6892
vn 0.8138 0.5737 0.0931
vn 0.1007 0.5989 -0.7945
vt 0.550384 0.206938
vt 0.375000 0.305791
vt 0.375000 0.049496
vt 0.180791 0.500000
vt 0.330928 0.574320
vt 0.125000 0.700504
vt 0.804283 0.500000
vt 0.842867 0.681766
vt 0.658516 0.626313
vt 0.875000 0.500000
vt 0.501754 0.540833
vt 0.565165 0.799791
vt 0.325310 0.750000
vt 0.604031 0.069198
vt 0.375000 1.000000
vt 0.375000 0.799690
vt 0.578028 1.000000
vt 0.615335 0.592735
vt 0.589707 0.775249
vt 0.581909 0.353207
s 0
g Cube_Material
usemtl Material
f 330/531/325 332/532/325 331/533/325
f 332/534/326 335/535/326 331/536/326
f 336/537/327 333/538/327 337/539/327
f 333/538/328 336/537/328 330/540/328
f 338/541/329 329/542/329 334/543/329 335/535/329
f 331/533/330 333/544/330 330/531/330
f 331/545/331 334/546/331 329/542/331 333/547/331
f 335/535/332 334/543/332 331/536/332
f 337/548/333 333/538/333 329/549/333
f 329/542/334 338/541/334 337/548/334
f 338/541/335 335/535/335 332/532/335 336/550/335
f 338/541/336 336/550/336 337/548/336
f 332/532/337 330/531/337 336/550/337
o Cube
v -5.733113 0.214780 -1.127704
v -5.735709 0.204379 -1.123392
v -5.740533 0.208897 -1.126348
v -5.739994 0.207955 -1.120068
v -5.732025 0.207901 -1.128074
v -5.739157 0.214981 -1.125543
v -5.740299 0.213474 -1.120277
v -5.732191 0.207755 -1.118860
v -5.730028 0.213004 -1.121309
v -5.734043 0.214075 -1.118214
vn -0.6645 -0.7453 -0.0547
vn -0.9956 -0.0522 0.0777
vn 0.9263 -0.3767 0.0107
vn 0.6918 -0.7221 0.0010
vn -0.0310 0.9891 0.1438
vn -0.2208 -0.6880 -0.6914
vn -0.2498 0.0929 -0.9638
vn -0.9615 0.2361 -0.1410
vn 0.9055 0.1643 -0.3913
vn 0.3290 0.9388 0.1019
vn -0.2238 -0.0767 0.9716
vn 0.6244 0.1038 0.7742
vn -0.1199 -0.7493 0.6513
vt 0.550384 0.206938
vt 0.375000 0.305791
vt 0.375000 0.049496
vt 0.180791 0.500000
vt 0.330928 0.574320
vt 0.125000 0.700504
vt 0.804283 0.500000
vt 0.842867 0.681766
vt 0.658516 0.626313
vt 0.875000 0.500000
vt 0.501754 0.540833
vt 0.565165 0.799791
vt 0.325310 0.750000
vt 0.604031 0.069198
vt 0.375000 1.000000
vt 0.375000 0.799690
vt 0.578028 1.000000
vt 0.615335 0.592735
vt 0.589707 0.775249
vt 0.581909 0.353207
s 0
g Cube_Material
usemtl Material
f 340/551/338 342/552/338 341/553/338
f 342/554/339 345/555/339 341/556/339
f 346/557/340 343/558/340 347/559/340
f 343/558/341 346/557/341 340/560/341
f 348/561/342 339/562/342 344/563/342 345/555/342
f 341/553/343 343/564/343 340/551/343
f 341/565/344 344/566/344 339/562/344 343/567/344
f 345/555/345 344/563/345 341/556/345
f 347/568/346 343/558/346 339/569/346
f 339/562/347 348/561/347 347/568/347
f 348/561/348 345/555/348 342/552/348 346/570/348
f 348/561/349 346/570/349 347/568/349
f 342/552/350 340/551/350 346/570/350
o Cube
v -2.116907 0.124458 -4.487606
v -2.125550 0.129195 -4.501616
v -2.125110 0.134917 -4.492546
v -2.132661 0.129874 -4.495157
v -2.116387 0.126819 -4.497657
v -2.124332 0.129732 -4.484836
v -2.131998 0.127711 -4.487274
v -2.128073 0.119936 -4.499312
v -2.122700 0.116763 -4.492599
v -2.129602 0.118523 -4.489726
vn -0.3639 0.7956 -0.4844
vn -0.5968 0.7596 0.2586
vn 0.4518 -0.6107 -0.6503
vn 0.3089 -0.3080 -0.8998
vn -0.0605 -0.3751 0.9250
vn 0.4133 0.7609 -0.5001
vn 0.6892 0.6704 0.2748
vn -0.3714 0.7527 0.5436
vn 0.8227 -0.5614 -0.0893
vn 0.1615 -0.6198 0.7679
vn -0.9453 -0.3072 -0.1098
vn -0.3153 -0.9303 -0.1874
vn -0.6724 -0.0009 -0.7402
vt 0.550384 0.206938
vt 0.375000 0.305791
vt 0.375000 0.049496
vt 0.180791 0.500000
vt 0.330928 0.574320
vt 0.125000 0.700504
vt 0.804283 0.500000
vt 0.842867 0.681766
vt 0.658516 0.626313
vt 0.875000 0.500000
vt 0.501754 0.540833
vt 0.565165 0.799791
vt 0.325310 0.750000
vt 0.604031 0.069198
vt 0.375000 1.000000
vt 0.375000 0.799690
vt 0.578028 1.000000
vt 0.615335 0.592735
vt 0.589707 0.775249
vt 0.581909 0.353207
s 0
g Cube_Material
usemtl Material
f 350/571/351 352/572/351 351/573/351
f 352/574/352 355/575/352 351/576/352
f 356/577/353 353/578/353 357/579/353
f 353/578/354 356/577/354 350/580/354
f 358/581/355 349/582/355 354/583/355 355/575/355
f 351/573/356 353/584/356 350/571/356
f 351/585/357 354/586/357 349/582/357 353/587/357
f 355/575/358 354/583/358 351/576/358
f 357/588/359 353/578/359 349/589/359
f 349/582/360 358/581/360 357/588/360
f 358/581/361 355/575/361 352/572/361 356/590/361
f 358/581/362 356/590/362 357/588/362
f 352/572/363 350/571/363 356/590/363
o Cube
v -4.436934 0.790244 -3.543811
v -4.451268 0.786011 -3.543302
v -4.444661 0.783037 -3.537359
v -4.447661 0.778419 -3.543500
v -4.445519 0.792868 -3.542883
v -4.437231 0.782563 -3.540649
v -4.440632 0.777288 -3.544261
v -4.448350 0.784944 -3.551338
v -4.441048 0.788131 -3.552078
v -4.440539 0.781453 -3.551739
vn -0.7086 -0.3525 0.6113
vn -0.0592 -0.7837 0.6183
vn -0.3779 0.7353 -0.5626
vn -0.7104 0.6163 -0.3398
vn 0.9327 -0.2575 -0.2525
vn -0.5153 0.3852 0.7656
vn 0.3068 0.4308 0.8487
vn 0.2701 -0.6563 0.7045
vn 0.2390 0.9056 -0.3503
vn 0.8898 0.0447 -0.4542
vn -0.2885 -0.7904 -0.5404
vn -0.0763 -0.0562 -0.9955
vn -0.8741 -0.4084 -0.2631
vt 0.550384 0.206938
vt 0.375000 0.305791
vt 0.375000 0.049496
vt 0.180791 0.500000
vt 0.330928 0.574320
vt 0.125000 0.700504
vt 0.804283 0.500000
vt 0.842867 0.681766
vt 0.658516 0.626313
vt 0.875000 0.500000
vt 0.501754 0.540833
vt 0.565165 0.799791
vt 0.325310 0.750000
vt 0.604031 0.069198
vt 0.375000 1.000000
vt 0.375000 0.799690
vt 0.578028 1.000000
vt 0.615335 0.592735
vt 0.589707 0.775249
vt 0.581909 0.353207
s 0
g Cube_Material
usemtl Material
f 360/591/364 362/592/364 361/593/364
f 362/594/365 365/595/365 361/596/365
f 366/597/366 363/598/366 367/599/366
f 363/598/367 366/597/367 360/600/367
f 368/601/368 359/602/368 364/603/368 365/595/368
f 361/593/369 363/604/369 360/591/369
f 361/605/370 364/606/370 359/602/370 363/607/370
f 365/595/371 364/603/371 361/596/371
f 367/608/372 363/598/372 359/609/372
f 359/602/373 368/601/373 367/608/373
f 368/601/374 365/595/374 362/592/374 366/610/374
f 368/601/375 366/610/375 367/608/375
f 362/592/376 360/591/376 366/610/376
o Cube
v 5.649798 0.660158 -0.140571
v 5.651585 0.672166 -0.154509
v 5.660242 0.665756 -0.150252
v 5.659152 0.675709 -0.148330
v 5.646551 0.663007 -0.150856
v 5.659408 0.663783 -0.140421
v 5.660861 0.672613 -0.140218
v 5.646741 0.677053 -0.146382
v 5.644489 0.670516 -0.139310
v 5.651074 0.674963 -0.136952
vn 0.5549 0.2159 -0.8034
vn 0.9786 0.1369 -0.1539
vn -0.9696 0.0862 -0.2292
vn -0.7852 0.1976 -0.5869
vn 0.1674 -0.1762 0.9700
vn 0.1251 -0.4261 -0.8960
vn 0.2628 -0.9306 -0.2546
vn 0.9853 -0.1633 0.0509
vn -0.8729 -0.4653 0.1467
vn -0.1960 -0.2169 0.9563
vn 0.2085 0.9551 0.2106
vn -0.6061 0.6710 0.4272
vn 0.0132 0.8603 -0.5096
vt 0.550384 0.206938
vt 0.375000 0.305791
vt 0.375000 0.049496
vt 0.180791 0.500000
vt 0.330928 0.574320
vt 0.125000 0.700504
vt 0.804283 0.500000
vt 0.842867 0.681766
vt 0.658516 0.626313
vt 0.875000 0.500000
vt 0.501754 0.540833
vt 0.565165 0.799791
vt 0.325310 0.750000
vt 0.604031 0.069198
vt 0.375000 1.000000
vt 0.375000 0.799690
vt 0.578028 1.000000
vt 0.615335 0.592735
vt 0.589707 0.775249
vt 0.581909 0.353207
s 0
g Cube_Material
usemtl Material
f 370/611/377 372/612/377 371/613/377
f 372/614/378 375/615/378 371/616/378
f 376/617/379 373/618/379 377/619/379
f 373/618/380 376/617/380 370/620/380
f 378/621/381 369/622/381 374/623/381 375/615/381
f 371/613/382 373/624/382 370/611/382
f 371/625/383 374/626/383 369/622/383 373/627/383
f 375/615/384 374/623/384 371/616/384
f 377/628/385 373/618/385 369/629/385
f 369/622/386 378/621/386 377/628/386
f 378/621/387 375/615/387 372/612/387 376/630/387
f 378/621/388 376/630/388 377/628/388
f 372/612/389 370/611/389 376/630/389
o Cube
v -0.116706 -0.065728 4.604801
v -0.117146 -0.079839 4.619735
v -0.123687 -0.080751 4.608679
v -0.128506 -0.078072 4.618584
v -0.110154 -0.073715 4.611665
v -0.126888 -0.070892 4.604474
v -0.132523 -0.071313 4.612667
v -0.119335 -0.069213 4.624477
v -0.117727 -0.061308 4.617002
v -0.126773 -0.062638 4.618154
vn -0.1690 -0.9691 0.1799
vn -0.7559 -0.6236 -0.1992
vn 0.8230 0.2929 0.4868
vn 0.7901 -0.1066 0.6036
vn -0.4875 0.7494 -0.4481
vn 0.4877 -0.8452 -0.2188
vn 0.3130 -0.3711 -0.8742
vn -0.7221 -0.4563 -0.5200
vn 0.8194 0.5575 -0.1334
vn -0.1796 0.9200 -0.3483
vn -0.6725 0.0959 0.7339
vn -0.0087 0.6880 0.7257
vn -0.1569 -0.4292 0.8895
vt 0.550384 0.206938
vt 0.375000 0.305791
vt 0.375000 0.049496
vt 0.180791 0.500000
vt 0.330928 0.574320
vt 0.125000 0.700504
vt 0.804283 0.500000
vt 0.842867 0.681766
vt 0.658516 0.626313
vt 0.875000 0.500000
vt 0.501754 0.540833
vt 0.565165 0.799791
vt 0.325310 0.750000
vt 0.604031 0.069198
vt 0.375000 1.000000
vt 0.375000 0.799690
vt 0.578028 1.000000
vt 0.615335 0.592735
vt 0.589707 0.775249
vt 0.581909 0.353207
s 0
g Cube_Material
usemtl Material
f 380/631/390 382/632/390 381/633/390
f 382/634/391 385/635/391 381/636/391
f 386/637/392 383/638/392 387/639/392
f 383/638/393 386/637/393 380/640/393
f 388/641/394 379/642/394 384/643/394 385/635/394
f 381/633/395 383/644/395 380/631/395
f 381/645/396 384/646/396 379/642/396 383/647/396
f 385/635/397 384/643/397 381/636/397
f 387/648/398 383/638/398 379/649/398
f 379/642/399 388/641/399 387/648/399
f 388/641/400 385/635/400 382/632/400 386/650/400
f 388/641/401 386/650/401 387/648/401
f 382/632/402 380/631/402 386/650/402
o Cube
v -4.007474 0.332093 -1.793156
v -3.999051 0.337912 -1.783734
v -4.004696 0.342340 -1.788688
v -3.997126 0.342259 -1.789946
v -4.005219 0.332470 -1.785076
v -4.005853 0.339276 -1.795517
v -3.999442 0.341261 -1.796113
v -3.994690 0.333178 -1.788512
v -3.999144 0.329223 -1.792979
v -3.996522 0.333851 -1.796239
vn 0.1069 0.7988 0.5921
vn -0.0151 0.9879 -0.1542
vn 0.2230 -0.8294 0.5123
vn 0.2951 -0.5304 0.7947
vn -0.1705 -0.1639 -0.9716
vn -0.4663 0.3257 0.8225
vn -0.9665 0.1841 0.1787
vn -0.3068 0.8867 -0.3459
vn -0.3254 -0.9360 0.1346
vn -0.1569 -0.5077 -0.8471
vn 0.9191 0.2763 -0.2808
vn 0.7662 -0.5986 -0.2338
vn 0.8333 0.2972 0.4661
vt 0.550384 0.206938
vt 0.375000 0.305791
vt 0.375000 0.049496
vt 0.180791 0.500000
vt 0.330928 0.574320
vt 0.125000 0.700504
vt 0.804283 0.500000
vt 0.842867 0.681766
vt 0.658516 0.626313
vt 0.875000 0.500000
vt 0.501754 0.540833
vt 0.565165 0.799791
vt 0.325310 0.750000
vt 0.604031 0.069198
vt 0.375000 1.000000
vt 0.375000 0.799690
vt 0.578028 1.000000
vt 0.615335 0.592735
vt 0.589707 0.775249
vt 0.581909 0.353207
s 0
g Cube_Material
usemtl Material
f 390/651/403 392/652/403 391/653/403
f 392/654/404 395/655/404 391/656/404
f 396/657/405 393/658/405 397/659/405
f 393/658/406 396/657/406 390/660/406
f 398/661/407 389/662/407 394/663/407 395/655/407
f 391/653/408 393/664/408 390/651/408
f 391/665/409 394/666/409 389/662/409 393/667/409
f 395/655/410 394/663/410 391/656/410
f 397/668/411 393/658/411 389/669/411
f 389/662/412 398/661/412 397/668/412
f 398/661/413 395/655/413 392/652/413 396/670/413
f 398/661/414 396/670/414 397/668/414
f 392/652/415 390/651/415 396/670/415
o Cube
v -0.632675 0.168107 4.740458
v -0.632237 0.162165 4.725608
v -0.640574 0.165325 4.730194
v -0.638569 0.156802 4.729083
v -0.629134 0.169039 4.731522
v -0.640497 0.164203 4.738831
v -0.640730 0.156839 4.736433
v -0.627860 0.156343 4.731258
v -0.626981 0.159848 4.739020
v -0.632208 0.154935 4.739202
vn -0.4817 0.0009 -0.8763
vn -0.9429 -0.1858 -0.2763
vn 0.9823 0.1018 -0.1572
vn 0.8319 0.0948 -0.5467
vn -0.2360 -0.1728 0.9563
vn -0.1376 0.6809 -0.7193
vn -0.3722 0.9275 0.0350
vn -0.9995 0.0275 0.0124
vn 0.7949 0.4844 0.3655
vn 0.1189 -0.0901 0.9888
vn -0.0889 -0.9880 -0.1264
vn 0.6690 -0.7029 0.2416
vn 0.1264 -0.6403 -0.7577
vt 0.550384 0.206938
vt 0.375000 0.305791
vt 0.375000 0.049496
vt 0.180791 0.500000
vt 0.330928 0.574320
vt 0.125000 0.700504
vt 0.804283 0.500000
vt 0.842867 0.681766
vt 0.658516 0.626313
vt 0.875000 0.500000
vt 0.501754 0.540833
vt 0.565165 0.799791
vt 0.325310 0.750000
vt 0.604031 0.069198
vt 0.375000 1.000000
vt 0.375000 0.799690
vt 0.578028 1.000000
vt 0.615335 0.592735
vt 0.589707 0.775249
vt 0.581909 0.353207
s 0
g Cube_Material
usemtl Material
f 400/671/416 402/672/416 401/673/416
f 402/674/417 405/675/417 401/676/417
f 406/677/418 403/678/418 407/679/418
f 403/678/419 406/677/419 400/680/419
f 408/681/420 399/682/420 404/683/420 405/675/420
f 401/673/421 403/684/421 400/671/421
f 401/685/422 404/686/422 399/682/422 403/687/422
f 405/675/423 404/683/423 401/676/423
f 407/688/424 403/678/424 399/689/424
f 399/682/425 408/681/425 407/688/425
f 408/681/426 405/675/426 402/672/426 406/690/426
f 408/681/427 406/690/427 407/688/427
f 402/672/428 400/671/428 406/690/428
o Cube
v -4.027772 0.394317 0.877977
v -4.039167 0.397117 0.867030
v -4.033670 0.404278 0.871459
v -4.042104 0.402606 0.873560
v -4.030807 0.392763 0.868911
v -4.031266 0.402353 0.879633
v -4.038943 0.403143 0.880542
v -4.042658 0.391652 0.873620
v -4.036440 0.389100 0.878964
v -4.040379 0.394212 0.882147
vn -0.3022 0.6583 -0.6894
vn -0.1917 0.9814 0.0113
vn -0.0608 -0.9264 -0.3716
vn -0.2078 -0.6960 -0.6873
vn 0.2437 0.0267 0.9695
vn 0.3490 0.2843 -0.8930
vn 0.8954 0.3502 -0.2750
vn 0.1230 0.9735 0.1930
vn 0.5134 -0.8578 -0.0249
vn 0.2992 -0.3275 0.8962
vn -0.9441 0.1202 0.3071
vn -0.6082 -0.7008 0.3729
vn -0.8972 0.0430 -0.4396
vt 0.550384 0.206938
vt 0.375000 0.305791
vt 0.375000 0.049496
vt 0.180791 0.500000
vt 0.330928 0.574320
vt 0.125000 0.700504
vt 0.804283 0.500000
vt 0.842867 0.681766
vt 0.658516 0.626313
vt 0.875000 0.500000
vt 0.501754 0.540833
vt 0.565165 0.799791
vt 0.325310 0.750000
vt 0.604031 0.069198
vt 0.375000 1.000000
vt 0.375000 0.799690
vt 0.578028 1.000000
vt 0.615335 0.592735
vt 0.589707 0.775249
vt 0.581909 0.353207
s 0
g Cube_Material
usemtl Material
f 410/691/429 412/692/429 411/693/429
f 412/694/430 415/695/430 411/696/430
f 416/697/431 413/698/431 417/699/431
f 413/698/432 416/697/432 410/700/432
f 418/701/433 409/702/433 414/703/433 415/695/433
f 411/693/434 413/704/434 410/691/434
f 411/705/435 414/706/435 409/702/435 413/707/435
f 415/695/436 414/703/436 411/696/436
f 417/708/437 413/698/437 409/709/437
f 409/702/438 418/701/438 417/708/438
f 418/701/439 415/695/439 412/692/439 416/710/439
f 418/701/440 416/710/440 417/708/440
f 412/692/441 410/691/441 416/710/441
o Cube
v -0.678605 0.205010 4.396621
v -0.672351 0.204153 4.408205
v -0.680089 0.206907 4.407273
v -0.674402 0.211273 4.408519
v -0.675002 0.200235 4.401876
v -0.681263 0.210238 4.401021
v -0.677288 0.214374 4.403833
v -0.667893 0.207863 4.403293
v -0.670662 0.207600 4.396804
v -0.671564 0.212973 4.399110
vn -0.1494 -0.0864 0.9850
vn -0.5388 0.5108 0.6699
vn 0.7270 -0.6246 -0.2850
vn 0.7137 -0.6888 0.1274
vn -0.3149 0.6066 -0.7300
vn -0.3325 -0.7332 0.5931
vn -0.8466 -0.5318 -0.0233
vn -0.7814 0.4780 0.4013
vn 0.2254 -0.6391 -0.7353
vn -0.1020 0.3778 -0.9203
vn 0.5540 0.7739 0.3069
vn 0.8697 0.3107 -0.3837
vn 0.6677 0.1603 0.7270
vt 0.550384 0.206938
vt 0.375000 0.305791
vt 0.375000 0.049496
vt 0.180791 0.500000
vt 0.330928 0.574320
vt 0.125000 0.700504
vt 0.804283 0.500000
vt 0.842867 0.681766
vt 0.658516 0.626313
vt 0.875000 0.500000
vt 0.501754 0.540833
vt 0.565165 0.799791
vt 0.325310 0.750000
vt 0.604031 0.069198
vt 0.375000 1.000000
vt 0.375000 0.799690
vt 0.578028 1.000000
vt 0.615335 0.592735
vt 0.589707 0.775249
vt 0.581909 0.353207
s 0
g Cube_Material
usemtl Material
f 420/711/442 422/712/442 421/713/442
f 422/714/443 425/715/443 421/716/443
f 426/717/444 423/718/444 427/719/444
f 423/718/445 426/717/445 420/720/445
f 428/721/446 419/722/446 424/723/446 425/715/446
f 421/713/447 423/724/447 420/711/447
f 421/725/448 424/726/448 419/722/448 423/727/448
f 425/715/449 424/723/449 421/716/449
f 427/728/450 423/718/450 419/729/450
f 419/722/451 428/721/451 427/728/451
f 428/721/452 425/715/452 422/712/452 426/730/452
f 428/721/453 426/730/453 427/728/453
f 422/712/454 420/711/454 426/730/454
o Cube
v 0.304515 0.414657 -3.522788
v 0.310109 0.418901 -3.512581
v 0.303755 0.422060 -3.515731
v 0.309992 0.424795 -3.516290
v 0.306674 0.413158 -3.515788
v 0.303433 0.421448 -3.522439
v 0.308080 0.425203 -3.521890
v 0.315000 0.418118 -3.517719
v 0.312351 0.415036 -3.522957
v 0.312873 0.420453 -3.524073
vn -0.1546 0.5241 0.8375
vn -0.3791 0.9045 0.1953
vn 0.5359 -0.8177 0.2102
vn 0.5113 -0.6313 0.5831
vn -0.1551 0.1357 -0.9785
vn -0.5045 -0.1709 0.8463
vn -0.9560 -0.2478 0.1570
vn -0.6251 0.7795 -0.0412
vn 0.0423 -0.9742 -0.2217
vn -0.0114 -0.2008 -0.9796
vn 0.7400 0.6655 -0.0974
vn 0.9158 -0.1638 -0.3668
vn 0.6953 0.3926 0.6021
vt 0.550384 0.206938
vt 0.375000 0.305791
vt 0.375000 0.049496
vt 0.180791 0.500000
vt 0.330928 0.574320
vt 0.125000 0.700504
vt 0.804283 0.500000
vt 0.842867 0.681766
vt 0.658516 0.626313
vt 0.875000 0.500000
vt 0.501754 0.540833
vt 0.565165 0.799791
vt 0.325310 0.750000
vt 0.604031 0.069198
vt 0.375000 1.000000
vt 0.375000 0.799690
vt 0.578028 1.000000
vt 0.615335 0.592735
vt 0.589707 0.775249
vt 0.581909 0.353207
s 0
g Cube_Material
usemtl Material
f 430/731/455 432/732/455 431/733/455
f 432/734/456 435/735/456 431/736/456
f 436/737/457 433/738/457 437/739/457
f 433/738/458 436/737/458 430/740/458
f 438/741/459 429/742/459 434/743/459 435/735/459
f 431/733/460 433/744/460 430/731/460
f 431/745/461 434/746/461 429/742/461 433/747/461
f 435/735/462 434/743/462 431/736/462
f 437/748/463 433/738/463 429/749/463
f 429/742/464 438/741/464 437/748/464
f 438/741/465 435/735/465 432/732/465 436/750/465
f 438/741/466 436/750/466 437/748/466
f 432/732/467 430/731/467 436/750/467
o Cube
v -2.858119 0.395415 2.233081
v -2.861334 0.382526 2.232603
v -2.856482 0.386371 2.227030
v -2.863453 0.384516 2.225718
v -2.857829 0.388313 2.236801
v -2.858152 0.393334 2.225993
v -2.863355 0.390480 2.223499
v -2.867744 0.386631 2.233443
v -2.866153 0.393456 2.234663
v -2.868016 0.392833 2.229035
vn 0.3018 -0.8871 -0.3493
vn 0.2606 -0.3405 -0.9034
vn -0.3042 -0.0985 0.9475
vn -0.2036 -0.4911 0.8470
vn -0.1634 0.9106 -0.3797
vn 0.7515 -0.6196 0.2267
vn 0.9876 0.1514 0.0408
vn 0.4441 -0.0269 -0.8956
vn 0.0605 0.4650 0.8832
vn -0.2419 0.9699 -0.0273
vn -0.8377 -0.2704 -0.4744
vn -0.9414 0.1670 0.2930
vn -0.5446 -0.8354 -0.0738
vt 0.550384 0.206938
vt 0.375000 0.305791
vt 0.375000 0.049496
vt 0.180791 0.500000
vt 0.330928 0.574320
vt 0.125000 0.700504
vt 0.804283 0.500000
vt 0.842867 0.681766
vt 0.658516 0.626313
vt 0.875000 0.500000
vt 0.501754 0.540833
vt 0.565165 0.799791
vt 0.325310 0.750000
vt 0.604031 0.069198
vt 0.375000 1.000000
vt 0.375000 0.799690
vt 0.578028 1.000000
vt 0.615335 0.592735
vt 0.589707 0.775249
vt 0.581909 0.353207
s 0
g Cube_Material
usemtl Material
f 440/751/468 442/752/468 441/753/468
f 442/754/469 445/755/469 441/756/469
f 446/757/470 443/758/470 447/759/470
f 443/758/471 446/757/471 440/760/471
f 448/761/472 439/762/472 444/763/472 445/755/472
f 441/753/473 443/764/473 440/751/473
f 441/765/474 444/766/474 439/762/474 443/767/474
f 445/755/475 444/763/475 441/756/475
f 447/768/476 443/758/476 439/769/476
f 439/762/477 448/761/477 447/768/477
f 448/761/478 445/755/478 442/752/478 446/770/478
f 448/761/479 446/770/479 447/768/479
f 442/752/480 440/751/480 446/770/480
o Cube
v 1.930248 0.583828 2.683788
v 1.911899 0.588598 2.675342
v 1.913409 0.583447 2.687188
v 1.909788 0.577465 2.678124
v 1.922975 0.592858 2.679046
v 1.922355 0.576609 2.688106
v 1.916538 0.571235 2.681918
v 1.918108 0.581978 2.667556
v 1.928502 0.580519 2.671185
v 1.923640 0.572694 2.672505
vn -0.9461 0.2350 0.2228
vn -0.7087 -0.4246 0.5634
vn 0.3363 0.6085 -0.7187
vn -0.0583 0.7371 -0.6733
vn 0.6396 -0.7315 0.2363
vn -0.4429 0.8002 0.4044
vn 0.1637 0.4756 0.8643
vn -0.4234 -0.4482 0.7873
vn 0.8140 0.5241 -0.2504
vn 0.8508 -0.5252 0.0200
vn -0.4639 -0.6843 -0.5626
vn 0.2715 -0.3216 -0.9071
vn -0.7844 -0.0063 -0.6202
vt 0.550384 0.206938
vt 0.375000 0.305791
vt 0.375000 0.049496
vt 0.180791 0.500000
vt 0.330928 0.574320
vt 0.125000 0.700504
vt 0.804283 0.500000
vt 0.842867 0.681766
vt 0.658516 0.626313
vt 0.875000 0.500000
vt 0.501754 0.540833
vt 0.565165 0.799791
vt 0.325310 0.750000
vt 0.604031 0.069198
vt 0.375000 1.000000
vt 0.375000 0.799690
vt 0.578028 1.000000
vt 0.615335 0.592735
vt 0.589707 0.775249
vt 0.581909 0.353207
s 0
g Cube_Material
usemtl Material
f 450/771/481 452/772/481 451/773/481
f 452/774/482 455/775/482 451/776/482
f 456/777/483 453/778/483 457/779/483
f 453/778/484 456/777/484 450/780/484
f 458/781/485 449/782/485 454/783/485 455/775/485
f 451/773/486 453/784/486 450/771/486
f 451/785/487 454/786/487 449/782/487 453/787/487
f 455/775/488 454/783/488 451/776/488
f 457/788/489 453/778/489 449/789/489
f 449/782/490 458/781/490 457/788/490
f 458/781/491 455/775/491 452/772/491 456/790/491
f 458/781/492 456/790/492 457/788/492
f 452/772/493 450/771/493 456/790/493
o Cube
v 0.631092 0.111143 -3.071006
v 0.629755 0.111762 -3.058690
v 0.636171 0.113905 -3.062519
v 0.635672 0.108082 -3.058961
v 0.627210 0.114029 -3.065292
v 0.637315 0.110355 -3.068147
v 0.638190 0.106126 -3.063972
v 0.627928 0.105207 -3.060871
v 0.627738 0.104963 -3.067501
v 0.632361 0.102454 -3.065692
vn 0.3306 0.4713 0.8176
vn 0.9056 0.1619 0.3919
vn -0.9974 -0.0656 0.0310
vn -0.9111 0.1230 0.3934
vn 0.4096 -0.4950 -0.7663
vn -0.0974 0.9292 0.3566
vn 0.2062 0.8875 -0.4121
vn 0.9689 0.2435 0.0434
vn -0.7996 0.0979 -0.5925
vn 0.0553 -0.5151 -0.8554
vn 0.2383 -0.7995 0.5513
vn -0.4903 -0.8703 0.0461
vn -0.1306 -0.2800 0.9511
vt 0.550384 0.206938
vt 0.375000 0.305791
vt 0.375000 0.049496
vt 0.180791 0.500000
vt 0.330928 0.574320
vt 0.125000 0.700504
vt 0.804283 0.500000
vt 0.842867 0.681766
vt 0.658516 0.626313
vt 0.875000 0.500000
vt 0.501754 0.540833
vt 0.565165 0.799791
vt 0.325310 0.750000
vt 0.604031 0.069198
vt 0.375000 1.000000
vt 0.375000 0.799690
vt 0.578028 1.000000
vt 0.615335 0.592735
vt 0.589707 0.775249
vt 0.581909 0.353207
s 0
g Cube_Material
usemtl Material
f 460/791/494 462/792/494 461/793/494
f 462/794/495 465/795/495 461/796/495
f 466/797/496 463/798/496 467/799/496
f 463/798/497 466/797/497 460/800/497
f 468/801/498 459/802/498 464/803/498 465/795/498
f 461/793/499 463/804/499 460/791/499
f 461/805/500 464/806/500 459/802/500 463/807/500
f 465/795/501 464/803/501 461/796/501
f 467/808/502 463/798/502 459/809/502
f 459/802/503 468/801/503 467/808/503
f 468/801/504 465/795/504 462/792/504 466/810/504
f 468/801/505 466/810/505 467/808/505
f 462/792/506 460/791/506 466/810/506
o Cube
v -1.608793 0.122282 -2.333698
v -1.622625 0.131992 -2.347494
v -1.609580 0.135697 -2.345766
v -1.618877 0.141871 -2.341266
v -1.616629 0.120863 -2.344184
v -1.605477 0.133895 -2.334769
v -1.612504 0.141583 -2.332995
v -1.628049 0.131270 -2.336179
v -1.621546 0.124764 -2.328991
v -1.620413 0.134216 -2.326737
vn -0.0437 0.5446 -0.8375
vn 0.4242 0.8554 -0.2972
vn -0.6867 -0.7260 -0.0359
vn -0.7545 -0.5241 -0.3951
vn 0.4738 0.0591 0.8787
vn 0.1816 -0.1892 -0.9650
vn 0.8114 -0.3638 -0.4574
vn 0.7116 0.6857 -0.1532
vn -0.1101 -0.9707 0.2136
vn 0.2908 -0.2548 0.9222
vn -0.5675 0.7517 0.3361
vn -0.7668 -0.0605 0.6390
vn -0.7855 0.5147 -0.3437
vt 0.550384 0.206938
vt 0.375000 0.305791
vt 0.375000 0.049496
vt 0.180791 0.500000
vt 0.330928 0.574320
vt 0.125000 0.700504
vt 0.804283 0.500000
vt 0.842867 0.681766
vt 0.658516 0.626313
vt 0.875000 0.500000
vt 0.501754 0.540833
vt 0.565165 0.799791
vt 0.325310 0.750000
vt 0.604031 0.069198
vt 0.375000 1.000000
vt 0.375000 0.799690
vt 0.578028 1.000000
vt 0.615335 0.592735
vt 0.589707 0.775249
vt 0.581909 0.353207
s 0
g Cube_Material
usemtl Material
f 470/811/507 472/812/507 471/813/507
f 472/814/508 475/815/508 471/816/508
f 476/817/509 473/818/509 477/819/509
f 473/818/510 476/817/510 470/820/510
f 478/821/511 469/822/511 474/823/511 475/815/511
f 471/813/512 473/824/512 470/811/512
f 471/825/513 474/826/513 469/822/513 473/827/513
f 475/815/514 474/823/514 471/816/514
f 477/828/515 473/818/515 469/829/515
f 469/822/516 478/821/516 477/828/516
f 478/821/517 475/815/517 472/812/517 476/830/517
f 478/821/518 476/830/518 477/828/518
f 472/812/519 470/811/519 476/830/519
o Cube
v 1.304279 -0.020650 -2.136289
v 1.315733 -0.026076 -2.142133
v 1.307557 -0.028211 -2.144387
v 1.312102 -0.032737 -2.140132
v 1.311355 -0.019122 -2.140596
v 1.302584 -0.027838 -2.138657
v 1.306402 -0.033045 -2.136660
v 1.316381 -0.026671 -2.134141
v 1.310829 -0.022945 -2.130814
v 1.309669 -0.029089 -2.130536
vn 0.3433 -0.4368 -0.8315
vn -0.2853 -0.7928 -0.5387
vn 0.6502 0.6951 0.3066
vn 0.8431 0.5371 -0.0283
vn -0.7564 -0.1486 0.6370
vn 0.1746 0.3160 -0.9325
vn -0.5961 0.4522 -0.6635
vn -0.6060 -0.6304 -0.4851
vn 0.0212 0.9308 0.3649
vn -0.6028 0.1493 0.7838
vn 0.4138 -0.8112 0.4133
vn 0.4871 -0.0525 0.8717
vn 0.8592 -0.5003 -0.1070
vt 0.550384 0.206938
vt 0.375000 0.305791
vt 0.375000 0.049496
vt 0.180791 0.500000
vt 0.330928 0.574320
vt 0.125000 0.700504
vt 0.804283 0.500000
vt 0.842867 0.681766
vt 0.658516 0.626313
vt 0.875000 0.500000
vt 0.501754 0.540833
vt 0.565165 0.799791
vt 0.325310 0.750000
vt 0.604031 0.069198
vt 0.375000 1.000000
vt 0.375000 0.799690
vt 0.578028 1.000000
vt 0.615335 0.592735
vt 0.589707 0.775249
vt 0.581909 0.353207
s 0
g Cube_Material
usemtl Material
f 480/831/520 482/832/520 481/833/520
f 482/834/521 485/835/521 481/836/521
f 486/837/522 483/838/522 487/839/522
f 483/838/523 486/837/523 480/840/523
f 488/841/524 479/842/524 484/843/524 485/835/524
f 481/833/525 483/844/525 480/831/525
f 481/845/526 484/846/526 479/842/526 483/847/526
f 485/835/527 484/843/527 481/836/527
f 487/848/528 483/838/528 479/849/528
f 479/842/529 488/841/529 487/848/529
f 488/841/530 485/835/530 482/832/530 486/850/530
f 488/841/531 486/850/531 487/848/531
f 482/832/532 480/831/532 486/850/532
o Cube
v -0.668007 0.328001 2.050843
v -0.654723 0.329079 2.050208
v -0.659980 0.335577 2.050408
v -0.656529 0.333340 2.044305
v -0.660966 0.326358 2.054390
v -0.666389 0.334281 2.047246
v -0.662474 0.334146 2.042108
v -0.657074 0.324245 2.044712
v -0.664024 0.322809 2.045494
v -0.663284 0.326638 2.040956
vn 0.7636 0.6114 0.2077
vn 0.2130 0.9501 -0.2278
vn 0.2250 -0.9292 0.2933
vn 0.5742 -0.7208 0.3883
vn -0.8625 0.0629 -0.5021
vn 0.4272 0.3196 0.8458
vn -0.3876 0.4567 0.8007
vn -0.1352 0.9824 -0.1287
vn -0.4138 -0.7877 0.4564
vn -0.8802 -0.2821 -0.3816
vn 0.4407 0.0042 -0.8976
vn 0.0874 -0.7683 -0.6341
vn 0.9382 -0.0714 -0.3386
vt 0.550384 0.206938
vt 0.375000 0.305791
vt 0.375000 0.049496
vt 0.180791 0.500000
vt 0.330928 0.574320
vt 0.125000 0.700504
vt 0.804283 0.500000
vt 0.842867 0.681766
vt 0.658516 0.626313
vt 0.875000 0.500000
vt 0.501754 0.540833
vt 0.565165 0.799791
vt 0.325310 0.750000
vt 0.604031 0.069198
vt 0.375000 1.000000
vt 0.375000 0.799690
vt 0.578028 1.000000
vt 0.615335 0.592735
vt 0.589707 0.775249
vt 0.581909 0.353207
s 0
g Cube_Material
usemtl Material
f 490/851/533 492/852/533 491/853/533
f 492/854/534 495/855/534 491/856/534
f 496/857/535 493/858/535 497/859/535
f 493/858/536 496/857/536 490/860/536
f 498/861/537 489/862/537 494/863/537 495/855/537
f 491/853/538 493/864/538 490/851/538
f 491/865/539 494/866/539 489/862/539 493/867/539
f 495/855/540 494/863/540 491/856/540
f 497/868/541 493/858/541 489/869/541
f 489/862/542 498/861/542 497/868/542
f 498/861/543 495/855/543 492/852/543 496/870/543
f 498/861/544 496/870/544 497/868/544
f 492/852/545 490/851/545 496/870/545
o Cube
v 0.099175 0.313927 2.204849
v 0.079590 0.321365 2.211099
v 0.084058 0.321288 2.198149
v 0.083519 0.331244 2.204931
v 0.087666 0.311068 2.210635
v 0.095831 0.322664 2.197096
v 0.093065 0.332210 2.200746
v 0.088435 0.326714 2.218296
v 0.098845 0.321787 2.216245
v 0.098489 0.330570 2.211906
vn -0.9314 0.1692 -0.3224
vn -0.3891 0.5041 -0.7710
vn -0.0305 -0.4383 0.8983
vn -0.4356 -0.3785 0.8167
vn 0.9241 0.2425 -0.2953
vn -0.7654 -0.5885 -0.2606
vn -0.0626 -0.7390 -0.6708
vn -0.1217 0.3235 -0.9384
vn 0.4423 -0.7323 0.5178
vn 0.9992 0.0409 0.0007
vn -0.0860 0.9570 0.2770
vn 0.3642 0.4244 0.8290
vn -0.7002 0.5572 0.4464
vt 0.550384 0.206938
vt 0.375000 0.305791
vt 0.375000 0.049496
vt 0.180791 0.500000
vt 0.330928 0.574320
vt 0.125000 0.700504
vt 0.804283 0.500000
vt 0.842867 0.681766
vt 0.658516 0.626313
vt 0.875000 0.500000
vt 0.501754 0.540833
vt 0.565165 0.799791
vt 0.325310 0.750000
vt 0.604031 0.069198
vt 0.375000 1.000000
vt 0.375000 0.799690
vt 0.578028 1.000000
vt 0.615335 0.592735
vt 0.589707 0.775249
vt 0.581909 0.353207
s 0
g Cube_Material
usemtl Material
f 500/871/546 502/872/546 501/873/546
f 502/874/547 505/875/547 501/876/547
f 506/877/548 503/878/548 507/879/548
f 503/878/549 506/877/549 500/880/549
f 508/881/550 499/882/550 504/883/550 505/875/550
f 501/873/551 503/884/551 500/871/551
f 501/885/552 504/886/552 499/882/552 503/887/552
f 505/875/553 504/883/553 501/876/553
f 507/888/554 503/878/554 499/889/554
f 499/882/555 508/881/555 507/888/555
f 508/881/556 505/875/556 502/872/556 506/890/556
f 508/881/557 506/890/557 507/888/557
f 502/872/558 500/871/558 506/890/558
o Cube
v -2.198192 0.065546 0.280925
v -2.195493 0.049696 0.288535
v -2.197774 0.059058 0.294138
v -2.188822 0.055066 0.293698
v -2.201444 0.055347 0.281739
v -2.194386 0.067086 0.289918
v -2.187015 0.063252 0.292192
v -2.187760 0.051612 0.282089
v -2.189600 0.059423 0.276969
v -2.184244 0.061160 0.282618
vn -0.1999 -0.5386 0.8185
vn 0.1172 0.1547 0.9810
vn -0.1334 -0.5651 -0.8141
vn -0.2150 -0.8352 -0.5063
vn 0.3845 0.9017 -0.1978
vn -0.8263 -0.4235 0.3714
vn -0.8960 0.3867 0.2182
vn -0.0253 0.4735 0.8804
vn -0.3880 0.0502 -0.9203
vn 0.3117 0.7841 -0.5366
vn 0.9336 -0.2671 0.2388
vn 0.7403 -0.2378 -0.6288
vn 0.4523 -0.8427 0.2920
vt 0.550384 0.206938
vt 0.375000 0.305791
vt 0.375000 0.049496
vt 0.180791 0.500000
vt 0.330928 0.574320
vt 0.125000 0.700504
vt 0.804283 0.500000
vt 0.842867 0.681766
vt 0.658516 0.626313
vt 0.875000 0.500000
vt 0.501754 0.540833
vt 0.565165 0.799791
vt 0.325310 0.750000
vt 0.604031 0.069198
vt 0.375000 1.000000
vt 0.375000 0.799690
vt 0.578028 1.000000
vt 0.615335 0.592735
vt 0.589707 0.775249
vt 0.581909 0.353207
s 0
g Cube_Material
usemtl Material
f 510/891/559 512/892/559 511/893/559
f 512/894/560 515/895/560 511/896/560
f 516/897/561 513/898/561 517/899/561
f 513/898/562 516/897/562 510/900/562
f 518/901/563 509/902/563 514/903/563 515/895/563
f 511/893/564 513/904/564 510/891/564
f 511/905/565 514/906/565 509/902/565 513/907/565
f 515/895/566 514/903/566 511/896/566
f 517/908/567 513/898/567 509/909/567
f 509/902/568 518/901/568 517/908/568
f 518/901/569 515/895/569 512/892/569 516/910/569
f 518/901/570 516/910/570 517/908/570
f 512/892/571 510/891/571 516/910/571
o Cube
v -1.133381 -0.015322 1.054470
v -1.116212 -0.008814 1.063043
v -1.117153 -0.012821 1.051031
v -1.112576 -0.018908 1.059212
v -1.127610 -0.006028 1.059939
v -1.124783 -0.020639 1.049507
v -1.118239 -0.025529 1.054943
v -1.121049 -0.016865 1.069977
v -1.130936 -0.019472 1.066368
v -1.125108 -0.026121 1.064273
vn 0.8941 0.3992 -0.2032
vn 0.7528 -0.2516 -0.6083
vn -0.4096 0.4740 0.7794
vn -0.0402 0.6658 0.7450
vn -0.5255 -0.7938 -0.3063
vn 0.3067 0.8954 -0.3228
vn -0.2532 0.5292 -0.8098
vn 0.4696 -0.2961 -0.8317
vn -0.8788 0.3646 0.3078
vn -0.7608 -0.6453 -0.0687
vn 0.5751 -0.6577 0.4866
vn -0.1995 -0.4492 0.8709
vn 0.7895 0.0523 0.6115
vt 0.550384 0.206938
vt 0.375000 0.305791
vt 0.375000 0.049496
vt 0.180791 0.500000
vt 0.330928 0.574320
vt 0.125000 0.700504
vt 0.804283 0.500000
vt 0.842867 0.681766
vt 0.658516 0.626313
vt 0.875000 0.500000
vt 0.501754 0.540833
vt 0.565165 0.799791
vt 0.325310 0.750000
vt 0.604031 0.069198
vt 0.375000 1.000000
vt 0.375000 0.799690
vt 0.578028 1.000000
vt 0.615335 0.592735
vt 0.589707 0.775249
vt 0.581909 0.353207
s 0
g Cube_Material
usemtl Material
f 520/911/572 522/912/572 521/913/572
f 522/914/573 525/915/573 521/916/573
f 526/917/574 523/918/574 527/919/574
f 523/918/575 526/917/575 520/920/575
f 528/921/576 519/922/576 524/923/576 525/915/576
f 521/913/577 523/924/577 520/911/577
f 521/925/578 524/926/578 519/922/578 523/927/578
f 525/915/579 524/923/579 521/916/579
f 527/928/580 523/918/580 519/929/580
f 519/922/581 528/921/581 527/928/581
f 528/921/582 525/915/582 522/912/582 526/930/582
f 528/921/583 526/930/583 527/928/583
f 522/912/584 520/911/584 526/930/584
