# Blender 4.1.0
# www.blender.org
mtllib Explosion20013.mtl
o Circle
v -0.024615 0.096888 -1.522372
v -0.024615 0.242742 -1.522372
v 0.122545 0.096888 -1.515142
v 0.122545 0.242742 -1.515142
v 0.268288 0.096888 -1.493523
v 0.268288 0.242742 -1.493523
v 0.411211 0.096888 -1.457723
v 0.411211 0.242742 -1.457723
v 0.549936 0.096888 -1.408086
v 0.549936 0.242742 -1.408086
v 0.683127 0.096888 -1.345092
v 0.683127 0.242742 -1.345092
v 0.809503 0.096888 -1.269345
v 0.809503 0.242742 -1.269345
v 0.927846 0.096888 -1.181576
v 0.927846 0.242742 -1.181576
v 1.037016 0.096888 -1.082630
v 1.037016 0.242742 -1.082630
v 1.135962 0.096888 -0.973460
v 1.135962 0.242742 -0.973460
v 1.223731 0.096888 -0.855117
v 1.223731 0.242742 -0.855117
v 1.299478 0.096888 -0.728741
v 1.299478 0.242742 -0.728741
v 1.362473 0.096888 -0.595549
v 1.362473 0.242742 -0.595549
v 1.412110 0.096888 -0.456824
v 1.412110 0.242742 -0.456824
v 1.447910 0.096888 -0.313902
v 1.447910 0.242742 -0.313902
v 1.469529 0.096888 -0.168159
v 1.469529 0.242742 -0.168159
v 1.476758 0.096888 -0.020998
v 1.476758 0.242742 -0.020998
v 1.469529 0.096888 0.126162
v 1.469529 0.242742 0.126162
v 1.447910 0.096888 0.271905
v 1.447910 0.242742 0.271905
v 1.412110 0.096888 0.414827
v 1.412110 0.242742 0.414827
v 1.362473 0.096888 0.553553
v 1.362473 0.242742 0.553553
v 1.299478 0.096888 0.686744
v 1.299478 0.242742 0.686744
v 1.223731 0.096888 0.813120
v 1.223731 0.242742 0.813120
v 1.135962 0.096888 0.931463
v 1.135962 0.242742 0.931463
v 1.037016 0.096888 1.040633
v 1.037016 0.242742 1.040633
v 0.927846 0.096888 1.139579
v 0.927846 0.242742 1.139579
v 0.809503 0.096888 1.227348
v 0.809503 0.242742 1.227348
v 0.683127 0.096888 1.303095
v 0.683127 0.242742 1.303095
v 0.549936 0.096888 1.366090
v 0.549936 0.242742 1.366090
v 0.411211 0.096888 1.415727
v 0.411211 0.242742 1.415727
v 0.268288 0.096888 1.451527
v 0.268288 0.242742 1.451527
v 0.122545 0.096888 1.473146
v 0.122545 0.242742 1.473146
v -0.024615 0.096888 1.480376
v -0.024615 0.242742 1.480376
v -0.171775 0.096888 1.473146
v -0.171775 0.242742 1.473146
v -0.317519 0.096888 1.451527
v -0.317519 0.242742 1.451527
v -0.460441 0.096888 1.415727
v -0.460441 0.242742 1.415727
v -0.599166 0.096888 1.366090
v -0.599166 0.242742 1.366090
v -0.732358 0.096888 1.303095
v -0.732358 0.242742 1.303095
v -0.858734 0.096888 1.227348
v -0.858734 0.242742 1.227348
v -0.977076 0.096888 1.139579
v -0.977076 0.242742 1.139579
v -1.086246 0.096888 1.040633
v -1.086246 0.242742 1.040633
v -1.185192 0.096888 0.931463
v -1.185192 0.242742 0.931463
v -1.272961 0.096888 0.813120
v -1.272961 0.242742 0.813120
v -1.348708 0.096888 0.686744
v -1.348708 0.242742 0.686744
v -1.411703 0.096888 0.553553
v -1.411703 0.242742 0.553553
v -1.461340 0.096888 0.414827
v -1.461340 0.242742 0.414827
v -1.497140 0.096888 0.271905
v -1.497140 0.242742 0.271905
v -1.518759 0.096888 0.126162
v -1.518759 0.242742 0.126162
v -1.525989 0.096888 -0.020998
v -1.525989 0.242742 -0.020998
v -1.518759 0.096888 -0.168159
v -1.518759 0.242742 -0.168159
v -1.497140 0.096888 -0.313902
v -1.497140 0.242742 -0.313902
v -1.461340 0.096888 -0.456824
v -1.461340 0.242742 -0.456824
v -1.411703 0.096888 -0.595549
v -1.411703 0.242742 -0.595549
v -1.348708 0.096888 -0.728741
v -1.348708 0.242742 -0.728741
v -1.272961 0.096888 -0.855117
v -1.272961 0.242742 -0.855117
v -1.185192 0.096888 -0.973460
v -1.185192 0.242742 -0.973460
v -1.086246 0.096888 -1.082630
v -1.086246 0.242742 -1.082630
v -0.977076 0.096888 -1.181576
v -0.977076 0.242742 -1.181576
v -0.858734 0.096888 -1.269345
v -0.858734 0.242742 -1.269345
v -0.732358 0.096888 -1.345092
v -0.732358 0.242742 -1.345092
v -0.599166 0.096888 -1.408086
v -0.599166 0.242742 -1.408086
v -0.460441 0.096888 -1.457723
v -0.460441 0.242742 -1.457723
v -0.317519 0.096888 -1.493523
v -0.317519 0.242742 -1.493523
v -0.171775 0.096888 -1.515142
v -0.171775 0.242742 -1.515142
vn 0.0491 -0.0000 -0.9988
vn 0.1467 -0.0000 -0.9892
vn 0.2430 -0.0000 -0.9700
vn 0.3369 -0.0000 -0.9415
vn 0.4276 -0.0000 -0.9040
vn 0.5141 -0.0000 -0.8577
vn 0.5957 -0.0000 -0.8032
vn 0.6716 -0.0000 -0.7410
vn 0.7410 -0.0000 -0.6716
vn 0.8032 -0.0000 -0.5957
vn 0.8577 -0.0000 -0.5141
vn 0.9040 -0.0000 -0.4276
vn 0.9415 -0.0000 -0.3369
vn 0.9700 -0.0000 -0.2430
vn 0.9892 -0.0000 -0.1467
vn 0.9988 -0.0000 -0.0491
vn 0.9988 -0.0000 0.0491
vn 0.9892 -0.0000 0.1467
vn 0.9700 -0.0000 0.2430
vn 0.9415 -0.0000 0.3369
vn 0.9040 -0.0000 0.4276
vn 0.8577 -0.0000 0.5141
vn 0.8032 -0.0000 0.5957
vn 0.7410 -0.0000 0.6716
vn 0.6716 -0.0000 0.7410
vn 0.5957 -0.0000 0.8032
vn 0.5141 -0.0000 0.8577
vn 0.4276 -0.0000 0.9040
vn 0.3369 -0.0000 0.9415
vn 0.2430 -0.0000 0.9700
vn 0.1467 -0.0000 0.9892
vn 0.0491 -0.0000 0.9988
vn -0.0491 -0.0000 0.9988
vn -0.1467 -0.0000 0.9892
vn -0.2430 -0.0000 0.9700
vn -0.3369 -0.0000 0.9415
vn -0.4276 -0.0000 0.9040
vn -0.5141 -0.0000 0.8577
vn -0.5957 -0.0000 0.8032
vn -0.6716 -0.0000 0.7410
vn -0.7410 -0.0000 0.6716
vn -0.8032 -0.0000 0.5957
vn -0.8577 -0.0000 0.5141
vn -0.9040 -0.0000 0.4276
vn -0.9415 -0.0000 0.3369
vn -0.9700 -0.0000 0.2430
vn -0.9892 -0.0000 0.1467
vn -0.9988 -0.0000 0.0491
vn -0.9988 -0.0000 -0.0491
vn -0.9892 -0.0000 -0.1467
vn -0.9700 -0.0000 -0.2430
vn -0.9415 -0.0000 -0.3369
vn -0.9040 -0.0000 -0.4276
vn -0.8577 -0.0000 -0.5141
vn -0.8032 -0.0000 -0.5957
vn -0.7410 -0.0000 -0.6716
vn -0.6716 -0.0000 -0.7410
vn -0.5957 -0.0000 -0.8032
vn -0.5141 -0.0000 -0.8577
vn -0.4276 -0.0000 -0.9040
vn -0.3369 -0.0000 -0.9415
vn -0.2430 -0.0000 -0.9700
vn -0.1467 -0.0000 -0.9892
vn -0.0491 -0.0000 -0.9988
vt 1.000000 0.500000
vt 1.000000 1.000000
vt 0.984375 1.000000
vt 0.984375 0.500000
vt 0.968750 1.000000
vt 0.968750 0.500000
vt 0.953125 1.000000
vt 0.953125 0.500000
vt 0.937500 1.000000
vt 0.937500 0.500000
vt 0.921875 1.000000
vt 0.921875 0.500000
vt 0.906250 1.000000
vt 0.906250 0.500000
vt 0.890625 1.000000
vt 0.890625 0.500000
vt 0.875000 1.000000
vt 0.875000 0.500000
vt 0.859375 1.000000
vt 0.859375 0.500000
vt 0.843750 1.000000
vt 0.843750 0.500000
vt 0.828125 1.000000
vt 0.828125 0.500000
vt 0.812500 1.000000
vt 0.812500 0.500000
vt 0.796875 1.000000
vt 0.796875 0.500000
vt 0.781250 1.000000
vt 0.781250 0.500000
vt 0.765625 1.000000
vt 0.765625 0.500000
vt 0.750000 1.000000
vt 0.750000 0.500000
vt 0.734375 1.000000
vt 0.734375 0.500000
vt 0.718750 1.000000
vt 0.718750 0.500000
vt 0.703125 1.000000
vt 0.703125 0.500000
vt 0.687500 1.000000
vt 0.687500 0.500000
vt 0.671875 1.000000
vt 0.671875 0.500000
vt 0.656250 1.000000
vt 0.656250 0.500000
vt 0.640625 1.000000
vt 0.640625 0.500000
vt 0.625000 1.000000
vt 0.625000 0.500000
vt 0.609375 1.000000
vt 0.609375 0.500000
vt 0.593750 1.000000
vt 0.593750 0.500000
vt 0.578125 1.000000
vt 0.578125 0.500000
vt 0.562500 1.000000
vt 0.562500 0.500000
vt 0.546875 1.000000
vt 0.546875 0.500000
vt 0.531250 1.000000
vt 0.531250 0.500000
vt 0.515625 1.000000
vt 0.515625 0.500000
vt 0.500000 1.000000
vt 0.500000 0.500000
vt 0.484375 1.000000
vt 0.484375 0.500000
vt 0.468750 1.000000
vt 0.468750 0.500000
vt 0.453125 1.000000
vt 0.453125 0.500000
vt 0.437500 1.000000
vt 0.437500 0.500000
vt 0.421875 1.000000
vt 0.421875 0.500000
vt 0.406250 1.000000
vt 0.406250 0.500000
vt 0.390625 1.000000
vt 0.390625 0.500000
vt 0.375000 1.000000
vt 0.375000 0.500000
vt 0.359375 1.000000
vt 0.359375 0.500000
vt 0.343750 1.000000
vt 0.343750 0.500000
vt 0.328125 1.000000
vt 0.328125 0.500000
vt 0.312500 1.000000
vt 0.312500 0.500000
vt 0.296875 1.000000
vt 0.296875 0.500000
vt 0.281250 1.000000
vt 0.281250 0.500000
vt 0.265625 1.000000
vt 0.265625 0.500000
vt 0.250000 1.000000
vt 0.250000 0.500000
vt 0.234375 1.000000
vt 0.234375 0.500000
vt 0.218750 1.000000
vt 0.218750 0.500000
vt 0.203125 1.000000
vt 0.203125 0.500000
vt 0.187500 1.000000
vt 0.187500 0.500000
vt 0.171875 1.000000
vt 0.171875 0.500000
vt 0.156250 1.000000
vt 0.156250 0.500000
vt 0.140625 1.000000
vt 0.140625 0.500000
vt 0.125000 1.000000
vt 0.125000 0.500000
vt 0.109375 1.000000
vt 0.109375 0.500000
vt 0.093750 1.000000
vt 0.093750 0.500000
vt 0.078125 1.000000
vt 0.078125 0.500000
vt 0.062500 1.000000
vt 0.062500 0.500000
vt 0.046875 1.000000
vt 0.046875 0.500000
vt 0.031250 1.000000
vt 0.031250 0.500000
vt 0.015625 1.000000
vt 0.015625 0.500000
vt 0.000000 1.000000
vt 0.000000 0.500000
s 0
g Circle_Material.001
usemtl Material.001
f 1/1/1 2/2/1 4/3/1 3/4/1
f 3/4/2 4/3/2 6/5/2 5/6/2
f 5/6/3 6/5/3 8/7/3 7/8/3
f 7/8/4 8/7/4 10/9/4 9/10/4
f 9/10/5 10/9/5 12/11/5 11/12/5
f 11/12/6 12/11/6 14/13/6 13/14/6
f 13/14/7 14/13/7 16/15/7 15/16/7
f 15/16/8 16/15/8 18/17/8 17/18/8
f 17/18/9 18/17/9 20/19/9 19/20/9
f 19/20/10 20/19/10 22/21/10 21/22/10
f 21/22/11 22/21/11 24/23/11 23/24/11
f 23/24/12 24/23/12 26/25/12 25/26/12
f 25/26/13 26/25/13 28/27/13 27/28/13
f 27/28/14 28/27/14 30/29/14 29/30/14
f 29/30/15 30/29/15 32/31/15 31/32/15
f 31/32/16 32/31/16 34/33/16 33/34/16
f 33/34/17 34/33/17 36/35/17 35/36/17
f 35/36/18 36/35/18 38/37/18 37/38/18
f 37/38/19 38/37/19 40/39/19 39/40/19
f 39/40/20 40/39/20 42/41/20 41/42/20
f 41/42/21 42/41/21 44/43/21 43/44/21
f 43/44/22 44/43/22 46/45/22 45/46/22
f 45/46/23 46/45/23 48/47/23 47/48/23
f 47/48/24 48/47/24 50/49/24 49/50/24
f 49/50/25 50/49/25 52/51/25 51/52/25
f 51/52/26 52/51/26 54/53/26 53/54/26
f 53/54/27 54/53/27 56/55/27 55/56/27
f 55/56/28 56/55/28 58/57/28 57/58/28
f 57/58/29 58/57/29 60/59/29 59/60/29
f 59/60/30 60/59/30 62/61/30 61/62/30
f 61/62/31 62/61/31 64/63/31 63/64/31
f 63/64/32 64/63/32 66/65/32 65/66/32
f 65/66/33 66/65/33 68/67/33 67/68/33
f 67/68/34 68/67/34 70/69/34 69/70/34
f 69/70/35 70/69/35 72/71/35 71/72/35
f 71/72/36 72/71/36 74/73/36 73/74/36
f 73/74/37 74/73/37 76/75/37 75/76/37
f 75/76/38 76/75/38 78/77/38 77/78/38
f 77/78/39 78/77/39 80/79/39 79/80/39
f 79/80/40 80/79/40 82/81/40 81/82/40
f 81/82/41 82/81/41 84/83/41 83/84/41
f 83/84/42 84/83/42 86/85/42 85/86/42
f 85/86/43 86/85/43 88/87/43 87/88/43
f 87/88/44 88/87/44 90/89/44 89/90/44
f 89/90/45 90/89/45 92/91/45 91/92/45
f 91/92/46 92/91/46 94/93/46 93/94/46
f 93/94/47 94/93/47 96/95/47 95/96/47
f 95/96/48 96/95/48 98/97/48 97/98/48
f 97/98/49 98/97/49 100/99/49 99/100/49
f 99/100/50 100/99/50 102/101/50 101/102/50
f 101/102/51 102/101/51 104/103/51 103/104/51
f 103/104/52 104/103/52 106/105/52 105/106/52
f 105/106/53 106/105/53 108/107/53 107/108/53
f 107/108/54 108/107/54 110/109/54 109/110/54
f 109/110/55 110/109/55 112/111/55 111/112/55
f 111/112/56 112/111/56 114/113/56 113/114/56
f 113/114/57 114/113/57 116/115/57 115/116/57
f 115/116/58 116/115/58 118/117/58 117/118/58
f 117/118/59 118/117/59 120/119/59 119/120/59
f 119/120/60 120/119/60 122/121/60 121/122/60
f 121/122/61 122/121/61 124/123/61 123/124/61
f 123/124/62 124/123/62 126/125/62 125/126/62
f 125/126/63 126/125/63 128/127/63 127/128/63
f 127/128/64 128/127/64 2/129/64 1/130/64
o Cube
v 3.953393 0.479777 3.349988
v 2.957980 0.475276 2.833301
v 3.059922 0.276295 3.499556
v 2.966898 -0.121925 3.035394
v 3.480610 0.846705 3.033705
v 3.607527 0.026893 3.602514
v 3.382672 -0.352252 3.285261
v 3.386207 0.165491 2.461607
v 3.939360 0.228109 2.685823
v 3.769625 -0.234450 2.786628
vn -0.9858 0.0404 0.1629
vn -0.6328 -0.5204 0.5733
vn 0.2394 0.6047 -0.7596
vn -0.1756 0.6473 -0.7418
vn 0.7666 -0.5514 0.3289
vn -0.6268 0.7150 0.3095
vn 0.0074 0.5708 0.8210
vn -0.3626 -0.4621 0.8093
vn 0.6960 0.6664 -0.2672
vn 0.9409 -0.3229 0.1025
vn -0.2730 -0.8139 -0.5128
vn 0.3865 -0.3295 -0.8614
vn -0.7274 -0.2297 -0.6466
vt 0.550384 0.206938
vt 0.375000 0.305791
vt 0.375000 0.049496
vt 0.180791 0.500000
vt 0.330928 0.574320
vt 0.125000 0.700504
vt 0.804283 0.500000
vt 0.842867 0.681766
vt 0.658516 0.626313
vt 0.875000 0.500000
vt 0.501754 0.540833
vt 0.565165 0.799791
vt 0.325310 0.750000
vt 0.604031 0.069198
vt 0.375000 1.000000
vt 0.375000 0.799690
vt 0.578028 1.000000
vt 0.615335 0.592735
vt 0.589707 0.775249
vt 0.581909 0.353207
s 0
g Cube_Material
usemtl Material
f 130/131/65 132/132/65 131/133/65
f 132/134/66 135/135/66 131/136/66
f 136/137/67 133/138/67 137/139/67
f 133/138/68 136/137/68 130/140/68
f 138/141/69 129/142/69 134/143/69 135/135/69
f 131/133/70 133/144/70 130/131/70
f 131/145/71 134/146/71 129/142/71 133/147/71
f 135/135/72 134/143/72 131/136/72
f 137/148/73 133/138/73 129/149/73
f 129/142/74 138/141/74 137/148/74
f 138/141/75 135/135/75 132/132/75 136/150/75
f 138/141/76 136/150/76 137/148/76
f 132/132/77 130/131/77 136/150/77
o Cube
v 3.556426 0.033185 -0.686584
v 4.368077 -0.072471 -1.124238
v 4.290430 -0.150859 -0.553201
v 4.518534 0.261724 -0.752795
v 3.840051 -0.241661 -1.083863
v 3.933247 0.144709 -0.352447
v 4.244524 0.451070 -0.458589
v 4.161327 0.402217 -1.257918
v 3.698124 0.443147 -1.083425
v 3.955358 0.669533 -0.847179
vn 0.8851 -0.4618 0.0570
vn 0.7125 -0.0556 0.6994
vn -0.3572 -0.0734 -0.9311
vn 0.0116 -0.2664 -0.9638
vn -0.5519 0.5842 0.5951
vn 0.2977 -0.9504 -0.0900
vn -0.2943 -0.8291 0.4754
vn 0.4162 -0.1101 0.9026
vn -0.8548 -0.1768 -0.4879
vn -0.7711 0.5599 0.3031
vn 0.5950 0.7961 -0.1106
vn -0.1530 0.7914 -0.5918
vn 0.8248 0.2115 -0.5244
vt 0.550384 0.206938
vt 0.375000 0.305791
vt 0.375000 0.049496
vt 0.180791 0.500000
vt 0.330928 0.574320
vt 0.125000 0.700504
vt 0.804283 0.500000
vt 0.842867 0.681766
vt 0.658516 0.626313
vt 0.875000 0.500000
vt 0.501754 0.540833
vt 0.565165 0.799791
vt 0.325310 0.750000
vt 0.604031 0.069198
vt 0.375000 1.000000
vt 0.375000 0.799690
vt 0.578028 1.000000
vt 0.615335 0.592735
vt 0.589707 0.775249
vt 0.581909 0.353207
s 0
g Cube_Material
usemtl Material
f 140/151/78 142/152/78 141/153/78
f 142/154/79 145/155/79 141/156/79
f 146/157/80 143/158/80 147/159/80
f 143/158/81 146/157/81 140/160/81
f 148/161/82 139/162/82 144/163/82 145/155/82
f 141/153/83 143/164/83 140/151/83
f 141/165/84 144/166/84 139/162/84 143/167/84
f 145/155/85 144/163/85 141/156/85
f 147/168/86 143/158/86 139/169/86
f 139/162/87 148/161/87 147/168/87
f 148/161/88 145/155/88 142/152/88 146/170/88
f 148/161/89 146/170/89 147/168/89
f 142/152/90 140/151/90 146/170/90
o Cube
v 0.517493 0.863276 3.934374
v 1.207836 -0.311661 4.159122
v 1.248303 0.384353 4.671879
v 1.802861 0.186348 4.188551
v 0.465490 0.042567 4.070770
v 1.165382 1.036750 4.307629
v 1.755255 0.834415 4.065906
v 1.338740 -0.077535 3.409982
v 0.901642 0.493852 3.240633
v 1.478288 0.697756 3.338031
vn 0.4269 -0.5523 0.7160
vn 0.6823 0.1840 0.7075
vn -0.5373 -0.5897 -0.6029
vn -0.3729 -0.8651 -0.3355
vn 0.0554 0.9480 -0.3135
vn -0.3497 -0.5424 0.7639
vn -0.6045 0.2449 0.7580
vn 0.4683 0.4754 0.7448
vn -0.8798 -0.0232 -0.4748
vn -0.1968 0.8160 -0.5435
vn 0.9031 -0.1149 -0.4137
vn 0.2089 -0.1276 -0.9696
vn 0.6404 -0.7578 -0.1249
vt 0.550384 0.206938
vt 0.375000 0.305791
vt 0.375000 0.049496
vt 0.180791 0.500000
vt 0.330928 0.574320
vt 0.125000 0.700504
vt 0.804283 0.500000
vt 0.842867 0.681766
vt 0.658516 0.626313
vt 0.875000 0.500000
vt 0.501754 0.540833
vt 0.565165 0.799791
vt 0.325310 0.750000
vt 0.604031 0.069198
vt 0.375000 1.000000
vt 0.375000 0.799690
vt 0.578028 1.000000
vt 0.615335 0.592735
vt 0.589707 0.775249
vt 0.581909 0.353207
s 0
g Cube_Material
usemtl Material
f 150/171/91 152/172/91 151/173/91
f 152/174/92 155/175/92 151/176/92
f 156/177/93 153/178/93 157/179/93
f 153/178/94 156/177/94 150/180/94
f 158/181/95 149/182/95 154/183/95 155/175/95
f 151/173/96 153/184/96 150/171/96
f 151/185/97 154/186/97 149/182/97 153/187/97
f 155/175/98 154/183/98 151/176/98
f 157/188/99 153/178/99 149/189/99
f 149/182/100 158/181/100 157/188/100
f 158/181/101 155/175/101 152/172/101 156/190/101
f 158/181/102 156/190/102 157/188/102
f 152/172/103 150/171/103 156/190/103
o Cube
v -2.937688 -0.085643 3.118993
v -2.613544 0.233889 2.637247
v -2.558560 -0.166976 2.730804
v -2.321244 0.095578 2.822360
v -2.967125 0.119652 2.776949
v -2.607357 -0.243817 3.079883
v -2.341050 -0.065348 3.095136
v -2.585670 0.436911 2.959429
v -2.794695 0.298365 3.210207
v -2.511858 0.226750 3.266787
vn 0.4835 -0.1355 -0.8648
vn 0.7581 -0.5843 -0.2896
vn -0.6148 0.7847 -0.0790
vn -0.4313 0.7797 -0.4540
vn 0.0498 -0.3774 0.9247
vn -0.2831 -0.2546 -0.9247
vn -0.5139 -0.7891 -0.3365
vn 0.5578 -0.8235 -0.1033
vn -0.9252 0.2850 0.2507
vn -0.2289 -0.1435 0.9628
vn 0.8508 0.4751 0.2247
vn 0.1018 0.8324 0.5447
vn 0.6013 0.6515 -0.4626
vt 0.550384 0.206938
vt 0.375000 0.305791
vt 0.375000 0.049496
vt 0.180791 0.500000
vt 0.330928 0.574320
vt 0.125000 0.700504
vt 0.804283 0.500000
vt 0.842867 0.681766
vt 0.658516 0.626313
vt 0.875000 0.500000
vt 0.501754 0.540833
vt 0.565165 0.799791
vt 0.325310 0.750000
vt 0.604031 0.069198
vt 0.375000 1.000000
vt 0.375000 0.799690
vt 0.578028 1.000000
vt 0.615335 0.592735
vt 0.589707 0.775249
vt 0.581909 0.353207
s 0
g Cube_Material
usemtl Material
f 160/191/104 162/192/104 161/193/104
f 162/194/105 165/195/105 161/196/105
f 166/197/106 163/198/106 167/199/106
f 163/198/107 166/197/107 160/200/107
f 168/201/108 159/202/108 164/203/108 165/195/108
f 161/193/109 163/204/109 160/191/109
f 161/205/110 164/206/110 159/202/110 163/207/110
f 165/195/111 164/203/111 161/196/111
f 167/208/112 163/198/112 159/209/112
f 159/202/113 168/201/113 167/208/113
f 168/201/114 165/195/114 162/192/114 166/210/114
f 168/201/115 166/210/115 167/208/115
f 162/192/116 160/191/116 166/210/116
o Cube
v 3.269548 0.958843 1.300587
v 2.505991 0.734427 1.393772
v 2.896758 0.507594 1.612750
v 2.680491 0.339245 1.266014
v 2.827257 1.086750 1.448591
v 3.263511 0.520175 1.377026
v 3.044581 0.287699 1.156600
v 2.595260 0.772871 0.942476
v 2.982523 0.946772 0.882172
v 2.998940 0.593638 0.817852
vn -0.6237 -0.4759 0.6201
vn 0.0033 -0.9004 0.4351
vn -0.4290 0.8425 -0.3258
vn -0.7294 0.6786 -0.0865
vn 0.8755 -0.1990 -0.4404
vn -0.3829 0.2091 0.8998
vn 0.4437 0.2323 0.8656
vn 0.3461 -0.7963 0.4961
vn 0.2182 0.9597 -0.1774
vn 0.8146 0.1404 -0.5628
vn -0.3935 -0.6510 -0.6491
vn -0.2235 0.1646 -0.9607
vn -0.9176 -0.3372 -0.2102
vt 0.550384 0.206938
vt 0.375000 0.305791
vt 0.375000 0.049496
vt 0.180791 0.500000
vt 0.330928 0.574320
vt 0.125000 0.700504
vt 0.804283 0.500000
vt 0.842867 0.681766
vt 0.658516 0.626313
vt 0.875000 0.500000
vt 0.501754 0.540833
vt 0.565165 0.799791
vt 0.325310 0.750000
vt 0.604031 0.069198
vt 0.375000 1.000000
vt 0.375000 0.799690
vt 0.578028 1.000000
vt 0.615335 0.592735
vt 0.589707 0.775249
vt 0.581909 0.353207
s 0
g Cube_Material
usemtl Material
f 170/211/117 172/212/117 171/213/117
f 172/214/118 175/215/118 171/216/118
f 176/217/119 173/218/119 177/219/119
f 173/218/120 176/217/120 170/220/120
f 178/221/121 169/222/121 174/223/121 175/215/121
f 171/213/122 173/224/122 170/211/122
f 171/225/123 174/226/123 169/222/123 173/227/123
f 175/215/124 174/223/124 171/216/124
f 177/228/125 173/218/125 169/229/125
f 169/222/126 178/221/126 177/228/126
f 178/221/127 175/215/127 172/212/127 176/230/127
f 178/221/128 176/230/128 177/228/128
f 172/212/129 170/211/129 176/230/129
o Cube
v 3.181264 0.090104 -1.535033
v 2.996358 0.323346 -0.608434
v 2.567942 0.196491 -1.023491
v 2.678412 0.694088 -0.855092
v 3.259112 -0.050761 -0.970119
v 2.699505 0.335353 -1.517495
v 2.657969 0.759376 -1.316021
v 3.342829 0.707254 -0.825137
v 3.504529 0.557994 -1.297146
v 3.203339 0.870988 -1.339365
vn -0.6777 -0.0962 0.7290
vn -0.9786 0.1933 0.0708
vn 0.9142 -0.1712 0.3673
vn 0.6750 -0.2098 0.7074
vn 0.0029 0.3131 -0.9497
vn -0.3169 -0.7648 0.5609
vn -0.3677 -0.8943 -0.2549
vn -0.9677 0.0244 -0.2509
vn 0.8515 -0.4691 -0.2343
vn 0.3539 0.2179 -0.9095
vn -0.1008 0.9647 0.2431
vn 0.7185 0.6950 0.0264
vn -0.0487 0.5240 0.8503
vt 0.550384 0.206938
vt 0.375000 0.305791
vt 0.375000 0.049496
vt 0.180791 0.500000
vt 0.330928 0.574320
vt 0.125000 0.700504
vt 0.804283 0.500000
vt 0.842867 0.681766
vt 0.658516 0.626313
vt 0.875000 0.500000
vt 0.501754 0.540833
vt 0.565165 0.799791
vt 0.325310 0.750000
vt 0.604031 0.069198
vt 0.375000 1.000000
vt 0.375000 0.799690
vt 0.578028 1.000000
vt 0.615335 0.592735
vt 0.589707 0.775249
vt 0.581909 0.353207
s 0
g Cube_Material
usemtl Material
f 180/231/130 182/232/130 181/233/130
f 182/234/131 185/235/131 181/236/131
f 186/237/132 183/238/132 187/239/132
f 183/238/133 186/237/133 180/240/133
f 188/241/134 179/242/134 184/243/134 185/235/134
f 181/233/135 183/244/135 180/231/135
f 181/245/136 184/246/136 179/242/136 183/247/136
f 185/235/137 184/243/137 181/236/137
f 187/248/138 183/238/138 179/249/138
f 179/242/139 188/241/139 187/248/139
f 188/241/140 185/235/140 182/232/140 186/250/140
f 188/241/141 186/250/141 187/248/141
f 182/232/142 180/231/142 186/250/142
o Cube
v -1.586669 0.287808 1.948622
v -2.282036 0.762508 2.233695
v -2.246975 0.207408 2.263363
v -2.522884 0.443394 1.933857
v -1.759928 0.670341 2.282503
v -1.991039 0.007447 1.904731
v -2.332118 0.154022 1.686858
v -2.170876 0.905005 1.754526
v -1.763233 0.704457 1.613603
v -2.069779 0.515387 1.442816
vn -0.7718 -0.0148 0.6357
vn -0.7499 -0.6394 0.1700
vn 0.4530 0.8905 0.0432
vn 0.1369 0.9404 0.3114
vn 0.3591 -0.5968 -0.7175
vn -0.0846 0.0479 0.9953
vn 0.4120 -0.5553 0.7224
vn -0.4697 -0.8700 0.1499
vn 0.9160 0.4010 0.0159
vn 0.6057 -0.3267 -0.7255
vn -0.7332 0.2155 -0.6450
vn 0.0425 0.6309 -0.7747
vn -0.7960 0.6052 -0.0047
vt 0.550384 0.206938
vt 0.375000 0.305791
vt 0.375000 0.049496
vt 0.180791 0.500000
vt 0.330928 0.574320
vt 0.125000 0.700504
vt 0.804283 0.500000
vt 0.842867 0.681766
vt 0.658516 0.626313
vt 0.875000 0.500000
vt 0.501754 0.540833
vt 0.565165 0.799791
vt 0.325310 0.750000
vt 0.604031 0.069198
vt 0.375000 1.000000
vt 0.375000 0.799690
vt 0.578028 1.000000
vt 0.615335 0.592735
vt 0.589707 0.775249
vt 0.581909 0.353207
s 0
g Cube_Material
usemtl Material
f 190/251/143 192/252/143 191/253/143
f 192/254/144 195/255/144 191/256/144
f 196/257/145 193/258/145 197/259/145
f 193/258/146 196/257/146 190/260/146
f 198/261/147 189/262/147 194/263/147 195/255/147
f 191/253/148 193/264/148 190/251/148
f 191/265/149 194/266/149 189/262/149 193/267/149
f 195/255/150 194/263/150 191/256/150
f 197/268/151 193/258/151 189/269/151
f 189/262/152 198/261/152 197/268/152
f 198/261/153 195/255/153 192/252/153 196/270/153
f 198/261/154 196/270/154 197/268/154
f 192/252/155 190/251/155 196/270/155
o Cube
v -1.328842 -0.013552 2.705585
v -1.903501 0.779798 2.563894
v -1.585283 0.666484 3.084064
v -2.124874 0.595919 3.040178
v -1.430502 0.475014 2.377178
v -1.526592 0.142456 3.194618
v -1.999062 0.193712 3.256962
v -2.201102 0.311900 2.430880
v -1.885297 -0.113292 2.434523
v -2.136263 -0.112909 2.800614
vn -0.1475 0.9438 0.2958
vn -0.1297 0.4387 0.8892
vn -0.0585 -0.0520 -0.9969
vn -0.1389 0.3516 -0.9258
vn 0.0879 -0.8925 0.4424
vn 0.5033 0.8555 -0.1215
vn 0.9477 0.2408 0.2094
vn 0.1511 0.2202 0.9637
vn 0.4566 -0.4289 -0.7795
vn 0.1322 -0.9870 0.0917
vn -0.9715 -0.0617 0.2288
vn -0.7020 -0.5255 -0.4807
vn -0.8116 0.5618 -0.1603
vt 0.550384 0.206938
vt 0.375000 0.305791
vt 0.375000 0.049496
vt 0.180791 0.500000
vt 0.330928 0.574320
vt 0.125000 0.700504
vt 0.804283 0.500000
vt 0.842867 0.681766
vt 0.658516 0.626313
vt 0.875000 0.500000
vt 0.501754 0.540833
vt 0.565165 0.799791
vt 0.325310 0.750000
vt 0.604031 0.069198
vt 0.375000 1.000000
vt 0.375000 0.799690
vt 0.578028 1.000000
vt 0.615335 0.592735
vt 0.589707 0.775249
vt 0.581909 0.353207
s 0
g Cube_Material
usemtl Material
f 200/271/156 202/272/156 201/273/156
f 202/274/157 205/275/157 201/276/157
f 206/277/158 203/278/158 207/279/158
f 203/278/159 206/277/159 200/280/159
f 208/281/160 199/282/160 204/283/160 205/275/160
f 201/273/161 203/284/161 200/271/161
f 201/285/162 204/286/162 199/282/162 203/287/162
f 205/275/163 204/283/163 201/276/163
f 207/288/164 203/278/164 199/289/164
f 199/282/165 208/281/165 207/288/165
f 208/281/166 205/275/166 202/272/166 206/290/166
f 208/281/167 206/290/167 207/288/167
f 202/272/168 200/271/168 206/290/168
o Cube
v 1.444934 0.185266 -1.312303
v 2.155784 0.028094 -1.519488
v 1.786944 -0.262437 -1.586635
v 2.074691 -0.320862 -1.289826
v 1.803406 0.309405 -1.566845
v 1.495390 -0.232085 -1.297108
v 1.769881 -0.376635 -1.101882
v 2.156166 0.154305 -1.102067
v 1.789978 0.291820 -0.996938
v 1.835472 -0.018435 -0.867008
vn 0.5455 -0.5455 -0.6363
vn 0.0375 -0.9730 -0.2279
vn 0.3607 0.9319 0.0373
vn 0.6261 0.7462 -0.2262
vn -0.7288 -0.1734 0.6624
vn 0.1564 0.0297 -0.9873
vn -0.6402 -0.0184 -0.7680
vn -0.3219 -0.9190 -0.2278
vn -0.3132 0.9494 0.0219
vn -0.6937 0.1893 0.6950
vn 0.6077 -0.4419 0.6599
vn 0.3893 0.4038 0.8279
vn 0.9801 -0.1904 0.0567
vt 0.550384 0.206938
vt 0.375000 0.305791
vt 0.375000 0.049496
vt 0.180791 0.500000
vt 0.330928 0.574320
vt 0.125000 0.700504
vt 0.804283 0.500000
vt 0.842867 0.681766
vt 0.658516 0.626313
vt 0.875000 0.500000
vt 0.501754 0.540833
vt 0.565165 0.799791
vt 0.325310 0.750000
vt 0.604031 0.069198
vt 0.375000 1.000000
vt 0.375000 0.799690
vt 0.578028 1.000000
vt 0.615335 0.592735
vt 0.589707 0.775249
vt 0.581909 0.353207
s 0
g Cube_Material
usemtl Material
f 210/291/169 212/292/169 211/293/169
f 212/294/170 215/295/170 211/296/170
f 216/297/171 213/298/171 217/299/171
f 213/298/172 216/297/172 210/300/172
f 218/301/173 209/302/173 214/303/173 215/295/173
f 211/293/174 213/304/174 210/291/174
f 211/305/175 214/306/175 209/302/175 213/307/175
f 215/295/176 214/303/176 211/296/176
f 217/308/177 213/298/177 209/309/177
f 209/302/178 218/301/178 217/308/178
f 218/301/179 215/295/179 212/292/179 216/310/179
f 218/301/180 216/310/180 217/308/180
f 212/292/181 210/291/181 216/310/181
o Cube
v -2.738948 0.096783 -0.590550
v -2.183665 -0.583327 -0.744913
v -2.199456 -0.290958 -0.269191
v -1.847749 -0.237250 -0.608600
v -2.692662 -0.426135 -0.708485
v -2.326002 0.173804 -0.327871
v -1.941468 0.170489 -0.524041
v -2.151974 -0.252325 -1.136341
v -2.489139 0.082808 -1.096756
v -2.135690 0.236942 -0.991293
vn 0.5443 -0.7065 0.4523
vn 0.6936 0.0100 0.7203
vn -0.4871 -0.3982 -0.7773
vn -0.2692 -0.7245 -0.6345
vn -0.0973 0.9930 0.0666
vn -0.2214 -0.8341 0.5053
vn -0.5833 -0.1500 0.7983
vn 0.4438 0.2302 0.8661
vn -0.8963 0.0205 -0.4429
vn -0.3428 0.9191 -0.1945
vn 0.8822 0.1868 -0.4323
vn 0.1626 0.2755 -0.9475
vn 0.7306 -0.5494 -0.4055
vt 0.550384 0.206938
vt 0.375000 0.305791
vt 0.375000 0.049496
vt 0.180791 0.500000
vt 0.330928 0.574320
vt 0.125000 0.700504
vt 0.804283 0.500000
vt 0.842867 0.681766
vt 0.658516 0.626313
vt 0.875000 0.500000
vt 0.501754 0.540833
vt 0.565165 0.799791
vt 0.325310 0.750000
vt 0.604031 0.069198
vt 0.375000 1.000000
vt 0.375000 0.799690
vt 0.578028 1.000000
vt 0.615335 0.592735
vt 0.589707 0.775249
vt 0.581909 0.353207
s 0
g Cube_Material
usemtl Material
f 220/311/182 222/312/182 221/313/182
f 222/314/183 225/315/183 221/316/183
f 226/317/184 223/318/184 227/319/184
f 223/318/185 226/317/185 220/320/185
f 228/321/186 219/322/186 224/323/186 225/315/186
f 221/313/187 223/324/187 220/311/187
f 221/325/188 224/326/188 219/322/188 223/327/188
f 225/315/189 224/323/189 221/316/189
f 227/328/190 223/318/190 219/329/190
f 219/322/191 228/321/191 227/328/191
f 228/321/192 225/315/192 222/312/192 226/330/192
f 228/321/193 226/330/193 227/328/193
f 222/312/194 220/311/194 226/330/194
o Cube
v 1.491188 -0.158223 0.746838
v 1.926723 0.473680 0.597195
v 1.844569 0.112260 0.276753
v 2.217282 0.162445 0.487872
v 1.503391 0.312547 0.716228
v 1.794827 -0.270157 0.456825
v 2.160456 -0.205109 0.530671
v 2.066073 0.290221 0.984307
v 1.805088 -0.014867 1.102093
v 2.098042 -0.156272 0.971235
vn 0.3415 0.5789 -0.7405
vn 0.5030 -0.1763 -0.8461
vn -0.3335 0.5740 0.7478
vn -0.1927 0.8580 0.4760
vn 0.0012 -0.9765 0.2155
vn -0.4248 0.6527 -0.6273
vn -0.7665 -0.1010 -0.6343
vn 0.2523 -0.4389 -0.8624
vn -0.7602 0.0618 0.6468
vn -0.1832 -0.8448 0.5028
vn 0.9739 -0.0215 0.2261
vn 0.4089 0.0026 0.9126
vn 0.7391 0.6716 0.0522
vt 0.550384 0.206938
vt 0.375000 0.305791
vt 0.375000 0.049496
vt 0.180791 0.500000
vt 0.330928 0.574320
vt 0.125000 0.700504
vt 0.804283 0.500000
vt 0.842867 0.681766
vt 0.658516 0.626313
vt 0.875000 0.500000
vt 0.501754 0.540833
vt 0.565165 0.799791
vt 0.325310 0.750000
vt 0.604031 0.069198
vt 0.375000 1.000000
vt 0.375000 0.799690
vt 0.578028 1.000000
vt 0.615335 0.592735
vt 0.589707 0.775249
vt 0.581909 0.353207
s 0
g Cube_Material
usemtl Material
f 230/331/195 232/332/195 231/333/195
f 232/334/196 235/335/196 231/336/196
f 236/337/197 233/338/197 237/339/197
f 233/338/198 236/337/198 230/340/198
f 238/341/199 229/342/199 234/343/199 235/335/199
f 231/333/200 233/344/200 230/331/200
f 231/345/201 234/346/201 229/342/201 233/347/201
f 235/335/202 234/343/202 231/336/202
f 237/348/203 233/338/203 229/349/203
f 229/342/204 238/341/204 237/348/204
f 238/341/205 235/335/205 232/332/205 236/350/205
f 238/341/206 236/350/206 237/348/206
f 232/332/207 230/331/207 236/350/207
o Cube
v 1.866915 0.217682 1.187174
v 1.187178 0.634864 0.844000
v 1.220906 0.478555 1.364025
v 0.952622 0.253074 1.037635
v 1.696928 0.650628 0.945783
v 1.471865 0.083493 1.429588
v 1.139508 -0.069154 1.222188
v 1.297365 0.241949 0.554698
v 1.695823 0.047179 0.693104
v 1.396791 -0.173160 0.809808
vn -0.7739 0.5910 0.2278
vn -0.7509 -0.0588 0.6578
vn 0.4536 0.3435 -0.8224
vn 0.1366 0.6119 -0.7790
vn 0.3609 -0.8763 0.3192
vn -0.0877 0.9524 0.2920
vn 0.4092 0.4927 0.7680
vn -0.4708 -0.1549 0.8685
vn 0.9162 0.1533 -0.3702
vn 0.6078 -0.7916 0.0627
vn -0.7310 -0.5358 -0.4226
vn 0.0455 -0.5151 -0.8559
vn -0.7956 0.1984 -0.5725
vt 0.550384 0.206938
vt 0.375000 0.305791
vt 0.375000 0.049496
vt 0.180791 0.500000
vt 0.330928 0.574320
vt 0.125000 0.700504
vt 0.804283 0.500000
vt 0.842867 0.681766
vt 0.658516 0.626313
vt 0.875000 0.500000
vt 0.501754 0.540833
vt 0.565165 0.799791
vt 0.325310 0.750000
vt 0.604031 0.069198
vt 0.375000 1.000000
vt 0.375000 0.799690
vt 0.578028 1.000000
vt 0.615335 0.592735
vt 0.589707 0.775249
vt 0.581909 0.353207
s 0
g Cube_Material
usemtl Material
f 240/351/208 242/352/208 241/353/208
f 242/354/209 245/355/209 241/356/209
f 246/357/210 243/358/210 247/359/210
f 243/358/211 246/357/211 240/360/211
f 248/361/212 239/362/212 244/363/212 245/355/212
f 241/353/213 243/364/213 240/351/213
f 241/365/214 244/366/214 239/362/214 243/367/214
f 245/355/215 244/363/215 241/356/215
f 247/368/216 243/358/216 239/369/216
f 239/362/217 248/361/217 247/368/217
f 248/361/218 245/355/218 242/352/218 246/370/218
f 248/361/219 246/370/219 247/368/219
f 242/352/220 240/351/220 246/370/220
o Cube
v 1.172616 0.307232 -0.290372
v 1.142366 -0.750354 -0.797932
v 1.451702 -0.611920 -0.145378
v 1.791438 -0.707180 -0.688004
v 0.765692 -0.214140 -0.543736
v 1.698671 -0.025020 -0.094968
v 2.049335 -0.253808 -0.479156
v 1.379948 -0.301822 -1.244514
v 1.324409 0.281005 -1.017515
v 1.826837 0.127973 -0.985165
vn 0.0326 -0.9807 0.1926
vn 0.6332 -0.5906 0.5002
vn -0.7268 0.1880 -0.6606
vn -0.7462 -0.2276 -0.6256
vn 0.5589 0.8001 0.2180
vn -0.6271 -0.6465 0.4344
vn -0.4351 0.0099 0.9003
vn 0.5998 -0.3155 0.7353
vn -0.7325 0.6575 -0.1766
vn 0.2897 0.9568 0.0260
vn 0.7358 -0.2545 -0.6276
vn 0.1720 0.3717 -0.9123
vn 0.1601 -0.7378 -0.6558
vt 0.550384 0.206938
vt 0.375000 0.305791
vt 0.375000 0.049496
vt 0.180791 0.500000
vt 0.330928 0.574320
vt 0.125000 0.700504
vt 0.804283 0.500000
vt 0.842867 0.681766
vt 0.658516 0.626313
vt 0.875000 0.500000
vt 0.501754 0.540833
vt 0.565165 0.799791
vt 0.325310 0.750000
vt 0.604031 0.069198
vt 0.375000 1.000000
vt 0.375000 0.799690
vt 0.578028 1.000000
vt 0.615335 0.592735
vt 0.589707 0.775249
vt 0.581909 0.353207
s 0
g Cube_Material
usemtl Material
f 250/371/221 252/372/221 251/373/221
f 252/374/222 255/375/222 251/376/222
f 256/377/223 253/378/223 257/379/223
f 253/378/224 256/377/224 250/380/224
f 258/381/225 249/382/225 254/383/225 255/375/225
f 251/373/226 253/384/226 250/371/226
f 251/385/227 254/386/227 249/382/227 253/387/227
f 255/375/228 254/383/228 251/376/228
f 257/388/229 253/378/229 249/389/229
f 249/382/230 258/381/230 257/388/230
f 258/381/231 255/375/231 252/372/231 256/390/231
f 258/381/232 256/390/232 257/388/232
f 252/372/233 250/371/233 256/390/233
o Cube
v 3.595702 -0.004503 3.433539
v 2.847777 -0.007885 3.045315
v 2.924373 -0.157394 3.545920
v 2.854477 -0.456605 3.197163
v 3.240466 0.271196 3.195894
v 3.335828 -0.344787 3.623280
v 3.166878 -0.629666 3.384905
v 3.169534 -0.240649 2.766036
v 3.585158 -0.193599 2.934505
v 3.457624 -0.541153 3.010246
vn -0.9858 0.0404 0.1629
vn -0.6328 -0.5204 0.5733
vn 0.2394 0.6047 -0.7596
vn -0.1756 0.6473 -0.7418
vn 0.7666 -0.5514 0.3289
vn -0.6268 0.7150 0.3095
vn 0.0074 0.5708 0.8210
vn -0.3626 -0.4621 0.8093
vn 0.6960 0.6664 -0.2672
vn 0.9409 -0.3229 0.1025
vn -0.2730 -0.8139 -0.5128
vn 0.3865 -0.3295 -0.8614
vn -0.7274 -0.2297 -0.6466
vt 0.550384 0.206938
vt 0.375000 0.305791
vt 0.375000 0.049496
vt 0.180791 0.500000
vt 0.330928 0.574320
vt 0.125000 0.700504
vt 0.804283 0.500000
vt 0.842867 0.681766
vt 0.658516 0.626313
vt 0.875000 0.500000
vt 0.501754 0.540833
vt 0.565165 0.799791
vt 0.325310 0.750000
vt 0.604031 0.069198
vt 0.375000 1.000000
vt 0.375000 0.799690
vt 0.578028 1.000000
vt 0.615335 0.592735
vt 0.589707 0.775249
vt 0.581909 0.353207
s 0
g Cube_Material
usemtl Material
f 260/391/234 262/392/234 261/393/234
f 262/394/235 265/395/235 261/396/235
f 266/397/236 263/398/236 267/399/236
f 263/398/237 266/397/237 260/400/237
f 268/401/238 259/402/238 264/403/238 265/395/238
f 261/393/239 263/404/239 260/391/239
f 261/405/240 264/406/240 259/402/240 263/407/240
f 265/395/241 264/403/241 261/396/241
f 267/408/242 263/398/242 259/409/242
f 259/402/243 268/401/243 267/408/243
f 268/401/244 265/395/244 262/392/244 266/410/244
f 268/401/245 266/410/245 267/408/245
f 262/392/246 260/391/246 266/410/246
o Cube
v 3.097265 -0.364866 -1.136112
v 4.278774 -0.518667 -1.773199
v 4.165743 -0.632775 -0.941949
v 4.497791 -0.032184 -1.232494
v 3.510133 -0.764955 -1.714425
v 3.645797 -0.202522 -0.649715
v 4.098918 0.243444 -0.804223
v 3.977811 0.172329 -1.967795
v 3.303534 0.231910 -1.713789
v 3.677985 0.561456 -1.369888
vn 0.8851 -0.4618 0.0570
vn 0.7125 -0.0556 0.6994
vn -0.3572 -0.0734 -0.9311
vn 0.0116 -0.2664 -0.9638
vn -0.5519 0.5842 0.5951
vn 0.2977 -0.9504 -0.0900
vn -0.2943 -0.8291 0.4754
vn 0.4162 -0.1101 0.9026
vn -0.8548 -0.1768 -0.4879
vn -0.7711 0.5599 0.3031
vn 0.5950 0.7961 -0.1106
vn -0.1530 0.7914 -0.5918
vn 0.8248 0.2115 -0.5244
vt 0.550384 0.206938
vt 0.375000 0.305791
vt 0.375000 0.049496
vt 0.180791 0.500000
vt 0.330928 0.574320
vt 0.125000 0.700504
vt 0.804283 0.500000
vt 0.842867 0.681766
vt 0.658516 0.626313
vt 0.875000 0.500000
vt 0.501754 0.540833
vt 0.565165 0.799791
vt 0.325310 0.750000
vt 0.604031 0.069198
vt 0.375000 1.000000
vt 0.375000 0.799690
vt 0.578028 1.000000
vt 0.615335 0.592735
vt 0.589707 0.775249
vt 0.581909 0.353207
s 0
g Cube_Material
usemtl Material
f 270/411/247 272/412/247 271/413/247
f 272/414/248 275/415/248 271/416/248
f 276/417/249 273/418/249 277/419/249
f 273/418/250 276/417/250 270/420/250
f 278/421/251 269/422/251 274/423/251 275/415/251
f 271/413/252 273/424/252 270/411/252
f 271/425/253 274/426/253 269/422/253 273/427/253
f 275/415/254 274/423/254 271/416/254
f 277/428/255 273/418/255 269/429/255
f 269/422/256 278/421/256 277/428/256
f 278/421/257 275/415/257 272/412/257 276/430/257
f 278/421/258 276/430/258 277/428/258
f 272/412/259 270/411/259 276/430/259
o Cube
v 0.175977 0.169284 3.771955
v 0.709810 -0.739279 3.945749
v 0.741103 -0.201060 4.342257
v 1.169936 -0.354176 3.968506
v 0.135764 -0.465360 3.877428
v 0.676981 0.303430 4.060587
v 1.133123 0.146966 3.873666
v 0.811037 -0.558233 3.366449
v 0.473034 -0.116387 3.235493
v 0.918947 0.041290 3.310810
vn 0.4269 -0.5523 0.7160
vn 0.6823 0.1840 0.7075
vn -0.5373 -0.5897 -0.6029
vn -0.3729 -0.8651 -0.3355
vn 0.0554 0.9480 -0.3135
vn -0.3497 -0.5424 0.7639
vn -0.6045 0.2449 0.7580
vn 0.4683 0.4754 0.7448
vn -0.8798 -0.0232 -0.4748
vn -0.1968 0.8160 -0.5435
vn 0.9031 -0.1149 -0.4137
vn 0.2089 -0.1276 -0.9696
vn 0.6404 -0.7578 -0.1249
vt 0.550384 0.206938
vt 0.375000 0.305791
vt 0.375000 0.049496
vt 0.180791 0.500000
vt 0.330928 0.574320
vt 0.125000 0.700504
vt 0.804283 0.500000
vt 0.842867 0.681766
vt 0.658516 0.626313
vt 0.875000 0.500000
vt 0.501754 0.540833
vt 0.565165 0.799791
vt 0.325310 0.750000
vt 0.604031 0.069198
vt 0.375000 1.000000
vt 0.375000 0.799690
vt 0.578028 1.000000
vt 0.615335 0.592735
vt 0.589707 0.775249
vt 0.581909 0.353207
s 0
g Cube_Material
usemtl Material
f 280/431/260 282/432/260 281/433/260
f 282/434/261 285/435/261 281/436/261
f 286/437/262 283/438/262 287/439/262
f 283/438/263 286/437/263 280/440/263
f 288/441/264 279/442/264 284/443/264 285/435/264
f 281/433/265 283/444/265 280/431/265
f 281/445/266 284/446/266 279/442/266 283/447/266
f 285/435/267 284/443/267 281/436/267
f 287/448/268 283/438/268 279/449/268
f 279/442/269 288/441/269 287/448/269
f 288/441/270 285/435/270 282/432/270 286/450/270
f 288/441/271 286/450/271 287/448/271
f 282/432/272 280/431/272 286/450/272
o Cube
v -3.296525 0.178438 2.667848
v -2.823153 0.645075 1.964317
v -2.742856 0.059661 2.100946
v -2.396286 0.443088 2.234652
v -3.339514 0.478245 2.168335
v -2.814118 -0.052556 2.610733
v -2.425209 0.208076 2.633007
v -2.782447 0.941563 2.434824
v -3.087702 0.739234 2.801055
v -2.674653 0.634649 2.883682
vn 0.4835 -0.1355 -0.8648
vn 0.7581 -0.5843 -0.2896
vn -0.6148 0.7847 -0.0790
vn -0.4313 0.7797 -0.4540
vn 0.0498 -0.3774 0.9247
vn -0.2831 -0.2546 -0.9247
vn -0.5139 -0.7891 -0.3365
vn 0.5578 -0.8235 -0.1033
vn -0.9252 0.2850 0.2507
vn -0.2289 -0.1435 0.9628
vn 0.8508 0.4751 0.2247
vn 0.1018 0.8324 0.5447
vn 0.6013 0.6515 -0.4626
vt 0.550384 0.206938
vt 0.375000 0.305791
vt 0.375000 0.049496
vt 0.180791 0.500000
vt 0.330928 0.574320
vt 0.125000 0.700504
vt 0.804283 0.500000
vt 0.842867 0.681766
vt 0.658516 0.626313
vt 0.875000 0.500000
vt 0.501754 0.540833
vt 0.565165 0.799791
vt 0.325310 0.750000
vt 0.604031 0.069198
vt 0.375000 1.000000
vt 0.375000 0.799690
vt 0.578028 1.000000
vt 0.615335 0.592735
vt 0.589707 0.775249
vt 0.581909 0.353207
s 0
g Cube_Material
usemtl Material
f 290/451/273 292/452/273 291/453/273
f 292/454/274 295/455/274 291/456/274
f 296/457/275 293/458/275 297/459/275
f 293/458/276 296/457/276 290/460/276
f 298/461/277 289/462/277 294/463/277 295/455/277
f 291/453/278 293/464/278 290/451/278
f 291/465/279 294/466/279 289/462/279 293/467/279
f 295/455/280 294/463/280 291/456/280
f 297/468/281 293/458/281 289/469/281
f 289/462/282 298/461/282 297/468/282
f 298/461/283 295/455/283 292/452/283 296/470/283
f 298/461/284 296/470/284 297/468/284
f 292/452/285 290/451/285 296/470/285
o Cube
v 3.848799 1.036904 1.016047
v 2.804064 0.729846 1.143547
v 3.338730 0.419482 1.443164
v 3.042823 0.189139 0.968742
v 3.243636 1.211912 1.218553
v 3.840540 0.436697 1.120635
v 3.540989 0.118611 0.819037
v 2.926206 0.782447 0.526062
v 3.456078 1.020387 0.443552
v 3.478540 0.537212 0.355546
vn -0.6237 -0.4759 0.6201
vn 0.0033 -0.9004 0.4351
vn -0.4290 0.8425 -0.3258
vn -0.7294 0.6786 -0.0865
vn 0.8755 -0.1990 -0.4404
vn -0.3829 0.2091 0.8998
vn 0.4437 0.2323 0.8656
vn 0.3461 -0.7963 0.4961
vn 0.2182 0.9597 -0.1774
vn 0.8146 0.1404 -0.5628
vn -0.3935 -0.6510 -0.6491
vn -0.2235 0.1646 -0.9607
vn -0.9176 -0.3372 -0.2102
vt 0.550384 0.206938
vt 0.375000 0.305791
vt 0.375000 0.049496
vt 0.180791 0.500000
vt 0.330928 0.574320
vt 0.125000 0.700504
vt 0.804283 0.500000
vt 0.842867 0.681766
vt 0.658516 0.626313
vt 0.875000 0.500000
vt 0.501754 0.540833
vt 0.565165 0.799791
vt 0.325310 0.750000
vt 0.604031 0.069198
vt 0.375000 1.000000
vt 0.375000 0.799690
vt 0.578028 1.000000
vt 0.615335 0.592735
vt 0.589707 0.775249
vt 0.581909 0.353207
s 0
g Cube_Material
usemtl Material
f 300/471/286 302/472/286 301/473/286
f 302/474/287 305/475/287 301/476/287
f 306/477/288 303/478/288 307/479/288
f 303/478/289 306/477/289 300/480/289
f 308/481/290 299/482/290 304/483/290 305/475/290
f 301/473/291 303/484/291 300/471/291
f 301/485/292 304/486/292 299/482/292 303/487/292
f 305/475/293 304/483/293 301/476/293
f 307/488/294 303/478/294 299/489/294
f 299/482/295 308/481/295 307/488/295
f 308/481/296 305/475/296 302/472/296 306/490/296
f 308/481/297 306/490/297 307/488/297
f 302/472/298 300/471/298 306/490/298
o Cube
v 3.313986 -0.009582 -1.341437
v 3.098783 0.261878 -0.263010
v 2.600169 0.114237 -0.746076
v 2.728740 0.693369 -0.550084
v 3.404591 -0.173528 -0.683959
v 2.753289 0.275853 -1.321026
v 2.704947 0.769354 -1.086539
v 3.502026 0.708691 -0.515221
v 3.690221 0.534974 -1.064572
v 3.339678 0.899255 -1.113709
vn -0.6777 -0.0962 0.7290
vn -0.9786 0.1933 0.0708
vn 0.9142 -0.1712 0.3673
vn 0.6750 -0.2098 0.7074
vn 0.0029 0.3131 -0.9497
vn -0.3169 -0.7648 0.5609
vn -0.3677 -0.8943 -0.2549
vn -0.9677 0.0244 -0.2509
vn 0.8515 -0.4691 -0.2343
vn 0.3539 0.2179 -0.9095
vn -0.1008 0.9647 0.2431
vn 0.7185 0.6950 0.0264
vn -0.0487 0.5240 0.8503
vt 0.550384 0.206938
vt 0.375000 0.305791
vt 0.375000 0.049496
vt 0.180791 0.500000
vt 0.330928 0.574320
vt 0.125000 0.700504
vt 0.804283 0.500000
vt 0.842867 0.681766
vt 0.658516 0.626313
vt 0.875000 0.500000
vt 0.501754 0.540833
vt 0.565165 0.799791
vt 0.325310 0.750000
vt 0.604031 0.069198
vt 0.375000 1.000000
vt 0.375000 0.799690
vt 0.578028 1.000000
vt 0.615335 0.592735
vt 0.589707 0.775249
vt 0.581909 0.353207
s 0
g Cube_Material
usemtl Material
f 310/491/299 312/492/299 311/493/299
f 312/494/300 315/495/300 311/496/300
f 316/497/301 313/498/301 317/499/301
f 313/498/302 316/497/302 310/500/302
f 318/501/303 309/502/303 314/503/303 315/495/303
f 311/493/304 313/504/304 310/491/304
f 311/505/305 314/506/305 309/502/305 313/507/305
f 315/495/306 314/503/306 311/496/306
f 317/508/307 313/498/307 309/509/307
f 309/502/308 318/501/308 317/508/308
f 318/501/309 315/495/309 312/492/309 316/510/309
f 318/501/310 316/510/310 317/508/310
f 312/492/311 310/491/311 316/510/311
o Cube
v -1.876287 -0.312804 1.846734
v -2.707883 0.254894 2.187656
v -2.665953 -0.408955 2.223136
v -2.995915 -0.126738 1.829076
v -2.083489 0.144670 2.246026
v -2.359877 -0.648091 1.794245
v -2.767776 -0.472801 1.533688
v -2.574945 0.425308 1.614613
v -2.087441 0.185470 1.446082
v -2.454043 -0.040640 1.241836
vn -0.7718 -0.0148 0.6357
vn -0.7499 -0.6394 0.1700
vn 0.4530 0.8905 0.0432
vn 0.1369 0.9404 0.3114
vn 0.3591 -0.5968 -0.7175
vn -0.0846 0.0479 0.9953
vn 0.4120 -0.5553 0.7224
vn -0.4697 -0.8700 0.1499
vn 0.9160 0.4010 0.0159
vn 0.6057 -0.3267 -0.7255
vn -0.7332 0.2155 -0.6450
vn 0.0425 0.6309 -0.7747
vn -0.7960 0.6052 -0.0047
vt 0.550384 0.206938
vt 0.375000 0.305791
vt 0.375000 0.049496
vt 0.180791 0.500000
vt 0.330928 0.574320
vt 0.125000 0.700504
vt 0.804283 0.500000
vt 0.842867 0.681766
vt 0.658516 0.626313
vt 0.875000 0.500000
vt 0.501754 0.540833
vt 0.565165 0.799791
vt 0.325310 0.750000
vt 0.604031 0.069198
vt 0.375000 1.000000
vt 0.375000 0.799690
vt 0.578028 1.000000
vt 0.615335 0.592735
vt 0.589707 0.775249
vt 0.581909 0.353207
s 0
g Cube_Material
usemtl Material
f 320/511/312 322/512/312 321/513/312
f 322/514/313 325/515/313 321/516/313
f 326/517/314 323/518/314 327/519/314
f 323/518/315 326/517/315 320/520/315
f 328/521/316 319/522/316 324/523/316 325/515/316
f 321/513/317 323/524/317 320/511/317
f 321/525/318 324/526/318 319/522/318 323/527/318
f 325/515/319 324/523/319 321/516/319
f 327/528/320 323/518/320 319/529/320
f 319/522/321 328/521/321 327/528/321
f 328/521/322 325/515/322 322/512/322 326/530/322
f 328/521/323 326/530/323 327/528/323
f 322/512/324 320/511/324 326/530/324
o Cube
v -1.559362 0.279952 2.409127
v -2.010971 0.903423 2.297776
v -1.760892 0.814372 2.706562
v -2.184941 0.758918 2.672073
v -1.639254 0.663902 2.151041
v -1.714769 0.402554 2.793443
v -2.086069 0.442835 2.842438
v -2.244847 0.535715 2.193244
v -1.996665 0.201569 2.196106
v -2.193892 0.201870 2.483807
vn -0.1475 0.9438 0.2958
vn -0.1297 0.4387 0.8892
vn -0.0585 -0.0520 -0.9969
vn -0.1389 0.3516 -0.9258
vn 0.0879 -0.8925 0.4424
vn 0.5033 0.8555 -0.1215
vn 0.9477 0.2408 0.2094
vn 0.1511 0.2202 0.9637
vn 0.4566 -0.4289 -0.7795
vn 0.1322 -0.9870 0.0917
vn -0.9715 -0.0617 0.2288
vn -0.7020 -0.5255 -0.4807
vn -0.8116 0.5618 -0.1603
vt 0.550384 0.206938
vt 0.375000 0.305791
vt 0.375000 0.049496
vt 0.180791 0.500000
vt 0.330928 0.574320
vt 0.125000 0.700504
vt 0.804283 0.500000
vt 0.842867 0.681766
vt 0.658516 0.626313
vt 0.875000 0.500000
vt 0.501754 0.540833
vt 0.565165 0.799791
vt 0.325310 0.750000
vt 0.604031 0.069198
vt 0.375000 1.000000
vt 0.375000 0.799690
vt 0.578028 1.000000
vt 0.615335 0.592735
vt 0.589707 0.775249
vt 0.581909 0.353207
s 0
g Cube_Material
usemtl Material
f 330/531/325 332/532/325 331/533/325
f 332/534/326 335/535/326 331/536/326
f 336/537/327 333/538/327 337/539/327
f 333/538/328 336/537/328 330/540/328
f 338/541/329 329/542/329 334/543/329 335/535/329
f 331/533/330 333/544/330 330/531/330
f 331/545/331 334/546/331 329/542/331 333/547/331
f 335/535/332 334/543/332 331/536/332
f 337/548/333 333/538/333 329/549/333
f 329/542/334 338/541/334 337/548/334
f 338/541/335 335/535/335 332/532/335 336/550/335
f 338/541/336 336/550/336 337/548/336
f 332/532/337 330/531/337 336/550/337
o Cube
v 1.456285 0.960477 -1.408878
v 2.392956 0.753376 -1.681881
v 1.906944 0.370549 -1.770359
v 2.286102 0.293564 -1.379260
v 1.928636 1.124052 -1.744282
v 1.522770 0.410544 -1.388855
v 1.884460 0.220073 -1.131611
v 2.393461 0.919681 -1.131854
v 1.910942 1.100881 -0.993328
v 1.970888 0.692065 -0.822122
vn 0.5455 -0.5455 -0.6363
vn 0.0375 -0.9730 -0.2279
vn 0.3607 0.9319 0.0373
vn 0.6261 0.7462 -0.2262
vn -0.7288 -0.1734 0.6624
vn 0.1564 0.0297 -0.9873
vn -0.6402 -0.0184 -0.7680
vn -0.3219 -0.9190 -0.2278
vn -0.3132 0.9494 0.0219
vn -0.6937 0.1893 0.6950
vn 0.6077 -0.4419 0.6599
vn 0.3893 0.4038 0.8279
vn 0.9801 -0.1904 0.0567
vt 0.550384 0.206938
vt 0.375000 0.305791
vt 0.375000 0.049496
vt 0.180791 0.500000
vt 0.330928 0.574320
vt 0.125000 0.700504
vt 0.804283 0.500000
vt 0.842867 0.681766
vt 0.658516 0.626313
vt 0.875000 0.500000
vt 0.501754 0.540833
vt 0.565165 0.799791
vt 0.325310 0.750000
vt 0.604031 0.069198
vt 0.375000 1.000000
vt 0.375000 0.799690
vt 0.578028 1.000000
vt 0.615335 0.592735
vt 0.589707 0.775249
vt 0.581909 0.353207
s 0
g Cube_Material
usemtl Material
f 340/551/338 342/552/338 341/553/338
f 342/554/339 345/555/339 341/556/339
f 346/557/340 343/558/340 347/559/340
f 343/558/341 346/557/341 340/560/341
f 348/561/342 339/562/342 344/563/342 345/555/342
f 341/553/343 343/564/343 340/551/343
f 341/565/344 344/566/344 339/562/344 343/567/344
f 345/555/345 344/563/345 341/556/345
f 347/568/346 343/558/346 339/569/346
f 339/562/347 348/561/347 347/568/347
f 348/561/348 345/555/348 342/552/348 346/570/348
f 348/561/349 346/570/349 347/568/349
f 342/552/350 340/551/350 346/570/350
o Cube
v -2.684064 0.345492 -0.419444
v -2.184544 -0.266320 -0.558306
v -2.198749 -0.003311 -0.130356
v -1.882361 0.045003 -0.435681
v -2.642426 -0.124913 -0.525535
v -2.312587 0.414779 -0.183143
v -1.966668 0.411797 -0.359614
v -2.156035 0.031443 -0.910426
v -2.459342 0.332921 -0.874816
v -2.141386 0.471577 -0.779944
vn 0.5443 -0.7065 0.4523
vn 0.6936 0.0100 0.7203
vn -0.4871 -0.3982 -0.7773
vn -0.2692 -0.7245 -0.6345
vn -0.0973 0.9930 0.0666
vn -0.2214 -0.8341 0.5053
vn -0.5833 -0.1500 0.7983
vn 0.4438 0.2302 0.8661
vn -0.8963 0.0205 -0.4429
vn -0.3428 0.9191 -0.1945
vn 0.8822 0.1868 -0.4323
vn 0.1626 0.2755 -0.9475
vn 0.7306 -0.5494 -0.4055
vt 0.550384 0.206938
vt 0.375000 0.305791
vt 0.375000 0.049496
vt 0.180791 0.500000
vt 0.330928 0.574320
vt 0.125000 0.700504
vt 0.804283 0.500000
vt 0.842867 0.681766
vt 0.658516 0.626313
vt 0.875000 0.500000
vt 0.501754 0.540833
vt 0.565165 0.799791
vt 0.325310 0.750000
vt 0.604031 0.069198
vt 0.375000 1.000000
vt 0.375000 0.799690
vt 0.578028 1.000000
vt 0.615335 0.592735
vt 0.589707 0.775249
vt 0.581909 0.353207
s 0
g Cube_Material
usemtl Material
f 350/571/351 352/572/351 351/573/351
f 352/574/352 355/575/352 351/576/352
f 356/577/353 353/578/353 357/579/353
f 353/578/354 356/577/354 350/580/354
f 358/581/355 349/582/355 354/583/355 355/575/355
f 351/573/356 353/584/356 350/571/356
f 351/585/357 354/586/357 349/582/357 353/587/357
f 355/575/358 354/583/358 351/576/358
f 357/588/359 353/578/359 349/589/359
f 349/582/360 358/581/360 357/588/360
f 358/581/361 355/575/361 352/572/361 356/590/361
f 358/581/362 356/590/362 357/588/362
f 352/572/363 350/571/363 356/590/363
o Cube
v 0.947708 -0.168039 1.048045
v 1.436169 0.540653 0.880218
v 1.344032 0.135312 0.520836
v 1.762038 0.191597 0.757610
v 0.961395 0.359939 1.013716
v 1.288245 -0.293575 0.722790
v 1.698305 -0.220623 0.805610
v 1.592454 0.334900 1.314372
v 1.299753 -0.007263 1.446471
v 1.628307 -0.165851 1.299711
vn 0.3415 0.5789 -0.7405
vn 0.5030 -0.1763 -0.8461
vn -0.3335 0.5740 0.7478
vn -0.1927 0.8580 0.4760
vn 0.0012 -0.9765 0.2155
vn -0.4248 0.6527 -0.6273
vn -0.7665 -0.1010 -0.6343
vn 0.2523 -0.4389 -0.8624
vn -0.7602 0.0618 0.6468
vn -0.1832 -0.8448 0.5028
vn 0.9739 -0.0215 0.2261
vn 0.4089 0.0026 0.9126
vn 0.7391 0.6716 0.0522
vt 0.550384 0.206938
vt 0.375000 0.305791
vt 0.375000 0.049496
vt 0.180791 0.500000
vt 0.330928 0.574320
vt 0.125000 0.700504
vt 0.804283 0.500000
vt 0.842867 0.681766
vt 0.658516 0.626313
vt 0.875000 0.500000
vt 0.501754 0.540833
vt 0.565165 0.799791
vt 0.325310 0.750000
vt 0.604031 0.069198
vt 0.375000 1.000000
vt 0.375000 0.799690
vt 0.578028 1.000000
vt 0.615335 0.592735
vt 0.589707 0.775249
vt 0.581909 0.353207
s 0
g Cube_Material
usemtl Material
f 360/591/364 362/592/364 361/593/364
f 362/594/365 365/595/365 361/596/365
f 366/597/366 363/598/366 367/599/366
f 363/598/367 366/597/367 360/600/367
f 368/601/368 359/602/368 364/603/368 365/595/368
f 361/593/369 363/604/369 360/591/369
f 361/605/370 364/606/370 359/602/370 363/607/370
f 365/595/371 364/603/371 361/596/371
f 367/608/372 363/598/372 359/609/372
f 359/602/373 368/601/373 367/608/373
f 368/601/374 365/595/374 362/592/374 366/610/374
f 368/601/375 366/610/375 367/608/375
f 362/592/376 360/591/376 366/610/376
o Cube
v 2.143480 0.449071 1.205179
v 1.223523 1.013685 0.740727
v 1.269171 0.802137 1.444529
v 0.906076 0.496970 1.002792
v 1.913420 1.035020 0.878480
v 1.608819 0.267460 1.533262
v 1.159007 0.060866 1.252566
v 1.372651 0.481913 0.349185
v 1.911925 0.218312 0.536504
v 1.507215 -0.079895 0.694451
vn -0.7739 0.5910 0.2278
vn -0.7509 -0.0588 0.6578
vn 0.4536 0.3435 -0.8224
vn 0.1366 0.6119 -0.7790
vn 0.3609 -0.8763 0.3192
vn -0.0877 0.9524 0.2920
vn 0.4092 0.4927 0.7680
vn -0.4708 -0.1549 0.8685
vn 0.9162 0.1533 -0.3702
vn 0.6078 -0.7916 0.0627
vn -0.7310 -0.5358 -0.4226
vn 0.0455 -0.5151 -0.8559
vn -0.7956 0.1984 -0.5725
vt 0.550384 0.206938
vt 0.375000 0.305791
vt 0.375000 0.049496
vt 0.180791 0.500000
vt 0.330928 0.574320
vt 0.125000 0.700504
vt 0.804283 0.500000
vt 0.842867 0.681766
vt 0.658516 0.626313
vt 0.875000 0.500000
vt 0.501754 0.540833
vt 0.565165 0.799791
vt 0.325310 0.750000
vt 0.604031 0.069198
vt 0.375000 1.000000
vt 0.375000 0.799690
vt 0.578028 1.000000
vt 0.615335 0.592735
vt 0.589707 0.775249
vt 0.581909 0.353207
s 0
g Cube_Material
usemtl Material
f 370/611/377 372/612/377 371/613/377
f 372/614/378 375/615/378 371/616/378
f 376/617/379 373/618/379 377/619/379
f 373/618/380 376/617/380 370/620/380
f 378/621/381 369/622/381 374/623/381 375/615/381
f 371/613/382 373/624/382 370/611/382
f 371/625/383 374/626/383 369/622/383 373/627/383
f 375/615/384 374/623/384 371/616/384
f 377/628/385 373/618/385 369/629/385
f 369/622/386 378/621/386 377/628/386
f 378/621/387 375/615/387 372/612/387 376/630/387
f 378/621/388 376/630/388 377/628/388
f 372/612/389 370/611/389 376/630/389
o Cube
v 1.554407 0.729652 -0.184551
v 1.528408 -0.179324 -0.620789
v 1.794276 -0.060343 -0.059931
v 2.086273 -0.142218 -0.526308
v 1.204664 0.281541 -0.402312
v 2.006542 0.444087 -0.016604
v 2.307931 0.247447 -0.346807
v 1.732605 0.206181 -1.004619
v 1.684871 0.707110 -0.809517
v 2.116699 0.575582 -0.781712
vn 0.0326 -0.9807 0.1926
vn 0.6332 -0.5906 0.5002
vn -0.7268 0.1880 -0.6606
vn -0.7462 -0.2276 -0.6256
vn 0.5589 0.8001 0.2180
vn -0.6271 -0.6465 0.4344
vn -0.4351 0.0099 0.9003
vn 0.5998 -0.3155 0.7353
vn -0.7325 0.6575 -0.1766
vn 0.2897 0.9568 0.0260
vn 0.7358 -0.2545 -0.6276
vn 0.1720 0.3717 -0.9123
vn 0.1601 -0.7378 -0.6558
vt 0.550384 0.206938
vt 0.375000 0.305791
vt 0.375000 0.049496
vt 0.180791 0.500000
vt 0.330928 0.574320
vt 0.125000 0.700504
vt 0.804283 0.500000
vt 0.842867 0.681766
vt 0.658516 0.626313
vt 0.875000 0.500000
vt 0.501754 0.540833
vt 0.565165 0.799791
vt 0.325310 0.750000
vt 0.604031 0.069198
vt 0.375000 1.000000
vt 0.375000 0.799690
vt 0.578028 1.000000
vt 0.615335 0.592735
vt 0.589707 0.775249
vt 0.581909 0.353207
s 0
g Cube_Material
usemtl Material
f 380/631/390 382/632/390 381/633/390
f 382/634/391 385/635/391 381/636/391
f 386/637/392 383/638/392 387/639/392
f 383/638/393 386/637/393 380/640/393
f 388/641/394 379/642/394 384/643/394 385/635/394
f 381/633/395 383/644/395 380/631/395
f 381/645/396 384/646/396 379/642/396 383/647/396
f 385/635/397 384/643/397 381/636/397
f 387/648/398 383/638/398 379/649/398
f 379/642/399 388/641/399 387/648/399
f 388/641/400 385/635/400 382/632/400 386/650/400
f 388/641/401 386/650/401 387/648/401
f 382/632/402 380/631/402 386/650/402
