# Blender 4.1.0
# www.blender.org
mtllib Explosion20025.mtl
o Circle
v -0.024615 0.096888 -1.522372
v -0.024615 0.242742 -1.522372
v 0.122545 0.096888 -1.515142
v 0.122545 0.242742 -1.515142
v 0.268288 0.096888 -1.493523
v 0.268288 0.242742 -1.493523
v 0.411211 0.096888 -1.457723
v 0.411211 0.242742 -1.457723
v 0.549936 0.096888 -1.408086
v 0.549936 0.242742 -1.408086
v 0.683127 0.096888 -1.345092
v 0.683127 0.242742 -1.345092
v 0.809503 0.096888 -1.269345
v 0.809503 0.242742 -1.269345
v 0.927846 0.096888 -1.181576
v 0.927846 0.242742 -1.181576
v 1.037016 0.096888 -1.082630
v 1.037016 0.242742 -1.082630
v 1.135962 0.096888 -0.973460
v 1.135962 0.242742 -0.973460
v 1.223731 0.096888 -0.855117
v 1.223731 0.242742 -0.855117
v 1.299478 0.096888 -0.728741
v 1.299478 0.242742 -0.728741
v 1.362473 0.096888 -0.595549
v 1.362473 0.242742 -0.595549
v 1.412110 0.096888 -0.456824
v 1.412110 0.242742 -0.456824
v 1.447910 0.096888 -0.313902
v 1.447910 0.242742 -0.313902
v 1.469529 0.096888 -0.168159
v 1.469529 0.242742 -0.168159
v 1.476758 0.096888 -0.020998
v 1.476758 0.242742 -0.020998
v 1.469529 0.096888 0.126162
v 1.469529 0.242742 0.126162
v 1.447910 0.096888 0.271905
v 1.447910 0.242742 0.271905
v 1.412110 0.096888 0.414827
v 1.412110 0.242742 0.414827
v 1.362473 0.096888 0.553553
v 1.362473 0.242742 0.553553
v 1.299478 0.096888 0.686744
v 1.299478 0.242742 0.686744
v 1.223731 0.096888 0.813120
v 1.223731 0.242742 0.813120
v 1.135962 0.096888 0.931463
v 1.135962 0.242742 0.931463
v 1.037016 0.096888 1.040633
v 1.037016 0.242742 1.040633
v 0.927846 0.096888 1.139579
v 0.927846 0.242742 1.139579
v 0.809503 0.096888 1.227348
v 0.809503 0.242742 1.227348
v 0.683127 0.096888 1.303095
v 0.683127 0.242742 1.303095
v 0.549936 0.096888 1.366090
v 0.549936 0.242742 1.366090
v 0.411211 0.096888 1.415727
v 0.411211 0.242742 1.415727
v 0.268288 0.096888 1.451527
v 0.268288 0.242742 1.451527
v 0.122545 0.096888 1.473146
v 0.122545 0.242742 1.473146
v -0.024615 0.096888 1.480376
v -0.024615 0.242742 1.480376
v -0.171775 0.096888 1.473146
v -0.171775 0.242742 1.473146
v -0.317519 0.096888 1.451527
v -0.317519 0.242742 1.451527
v -0.460441 0.096888 1.415727
v -0.460441 0.242742 1.415727
v -0.599166 0.096888 1.366090
v -0.599166 0.242742 1.366090
v -0.732358 0.096888 1.303095
v -0.732358 0.242742 1.303095
v -0.858734 0.096888 1.227348
v -0.858734 0.242742 1.227348
v -0.977076 0.096888 1.139579
v -0.977076 0.242742 1.139579
v -1.086246 0.096888 1.040633
v -1.086246 0.242742 1.040633
v -1.185192 0.096888 0.931463
v -1.185192 0.242742 0.931463
v -1.272961 0.096888 0.813120
v -1.272961 0.242742 0.813120
v -1.348708 0.096888 0.686744
v -1.348708 0.242742 0.686744
v -1.411703 0.096888 0.553553
v -1.411703 0.242742 0.553553
v -1.461340 0.096888 0.414827
v -1.461340 0.242742 0.414827
v -1.497140 0.096888 0.271905
v -1.497140 0.242742 0.271905
v -1.518759 0.096888 0.126162
v -1.518759 0.242742 0.126162
v -1.525989 0.096888 -0.020998
v -1.525989 0.242742 -0.020998
v -1.518759 0.096888 -0.168159
v -1.518759 0.242742 -0.168159
v -1.497140 0.096888 -0.313902
v -1.497140 0.242742 -0.313902
v -1.461340 0.096888 -0.456824
v -1.461340 0.242742 -0.456824
v -1.411703 0.096888 -0.595549
v -1.411703 0.242742 -0.595549
v -1.348708 0.096888 -0.728741
v -1.348708 0.242742 -0.728741
v -1.272961 0.096888 -0.855117
v -1.272961 0.242742 -0.855117
v -1.185192 0.096888 -0.973460
v -1.185192 0.242742 -0.973460
v -1.086246 0.096888 -1.082630
v -1.086246 0.242742 -1.082630
v -0.977076 0.096888 -1.181576
v -0.977076 0.242742 -1.181576
v -0.858734 0.096888 -1.269345
v -0.858734 0.242742 -1.269345
v -0.732358 0.096888 -1.345092
v -0.732358 0.242742 -1.345092
v -0.599166 0.096888 -1.408086
v -0.599166 0.242742 -1.408086
v -0.460441 0.096888 -1.457723
v -0.460441 0.242742 -1.457723
v -0.317519 0.096888 -1.493523
v -0.317519 0.242742 -1.493523
v -0.171775 0.096888 -1.515142
v -0.171775 0.242742 -1.515142
vn 0.0491 -0.0000 -0.9988
vn 0.1467 -0.0000 -0.9892
vn 0.2430 -0.0000 -0.9700
vn 0.3369 -0.0000 -0.9415
vn 0.4276 -0.0000 -0.9040
vn 0.5141 -0.0000 -0.8577
vn 0.5957 -0.0000 -0.8032
vn 0.6716 -0.0000 -0.7410
vn 0.7410 -0.0000 -0.6716
vn 0.8032 -0.0000 -0.5957
vn 0.8577 -0.0000 -0.5141
vn 0.9040 -0.0000 -0.4276
vn 0.9415 -0.0000 -0.3369
vn 0.9700 -0.0000 -0.2430
vn 0.9892 -0.0000 -0.1467
vn 0.9988 -0.0000 -0.0491
vn 0.9988 -0.0000 0.0491
vn 0.9892 -0.0000 0.1467
vn 0.9700 -0.0000 0.2430
vn 0.9415 -0.0000 0.3369
vn 0.9040 -0.0000 0.4276
vn 0.8577 -0.0000 0.5141
vn 0.8032 -0.0000 0.5957
vn 0.7410 -0.0000 0.6716
vn 0.6716 -0.0000 0.7410
vn 0.5957 -0.0000 0.8032
vn 0.5141 -0.0000 0.8577
vn 0.4276 -0.0000 0.9040
vn 0.3369 -0.0000 0.9415
vn 0.2430 -0.0000 0.9700
vn 0.1467 -0.0000 0.9892
vn 0.0491 -0.0000 0.9988
vn -0.0491 -0.0000 0.9988
vn -0.1467 -0.0000 0.9892
vn -0.2430 -0.0000 0.9700
vn -0.3369 -0.0000 0.9415
vn -0.4276 -0.0000 0.9040
vn -0.5141 -0.0000 0.8577
vn -0.5957 -0.0000 0.8032
vn -0.6716 -0.0000 0.7410
vn -0.7410 -0.0000 0.6716
vn -0.8032 -0.0000 0.5957
vn -0.8577 -0.0000 0.5141
vn -0.9040 -0.0000 0.4276
vn -0.9415 -0.0000 0.3369
vn -0.9700 -0.0000 0.2430
vn -0.9892 -0.0000 0.1467
vn -0.9988 -0.0000 0.0491
vn -0.9988 -0.0000 -0.0491
vn -0.9892 -0.0000 -0.1467
vn -0.9700 -0.0000 -0.2430
vn -0.9415 -0.0000 -0.3369
vn -0.9040 -0.0000 -0.4276
vn -0.8577 -0.0000 -0.5141
vn -0.8032 -0.0000 -0.5957
vn -0.7410 -0.0000 -0.6716
vn -0.6716 -0.0000 -0.7410
vn -0.5957 -0.0000 -0.8032
vn -0.5141 -0.0000 -0.8577
vn -0.4276 -0.0000 -0.9040
vn -0.3369 -0.0000 -0.9415
vn -0.2430 -0.0000 -0.9700
vn -0.1467 -0.0000 -0.9892
vn -0.0491 -0.0000 -0.9988
vt 1.000000 0.500000
vt 1.000000 1.000000
vt 0.984375 1.000000
vt 0.984375 0.500000
vt 0.968750 1.000000
vt 0.968750 0.500000
vt 0.953125 1.000000
vt 0.953125 0.500000
vt 0.937500 1.000000
vt 0.937500 0.500000
vt 0.921875 1.000000
vt 0.921875 0.500000
vt 0.906250 1.000000
vt 0.906250 0.500000
vt 0.890625 1.000000
vt 0.890625 0.500000
vt 0.875000 1.000000
vt 0.875000 0.500000
vt 0.859375 1.000000
vt 0.859375 0.500000
vt 0.843750 1.000000
vt 0.843750 0.500000
vt 0.828125 1.000000
vt 0.828125 0.500000
vt 0.812500 1.000000
vt 0.812500 0.500000
vt 0.796875 1.000000
vt 0.796875 0.500000
vt 0.781250 1.000000
vt 0.781250 0.500000
vt 0.765625 1.000000
vt 0.765625 0.500000
vt 0.750000 1.000000
vt 0.750000 0.500000
vt 0.734375 1.000000
vt 0.734375 0.500000
vt 0.718750 1.000000
vt 0.718750 0.500000
vt 0.703125 1.000000
vt 0.703125 0.500000
vt 0.687500 1.000000
vt 0.687500 0.500000
vt 0.671875 1.000000
vt 0.671875 0.500000
vt 0.656250 1.000000
vt 0.656250 0.500000
vt 0.640625 1.000000
vt 0.640625 0.500000
vt 0.625000 1.000000
vt 0.625000 0.500000
vt 0.609375 1.000000
vt 0.609375 0.500000
vt 0.593750 1.000000
vt 0.593750 0.500000
vt 0.578125 1.000000
vt 0.578125 0.500000
vt 0.562500 1.000000
vt 0.562500 0.500000
vt 0.546875 1.000000
vt 0.546875 0.500000
vt 0.531250 1.000000
vt 0.531250 0.500000
vt 0.515625 1.000000
vt 0.515625 0.500000
vt 0.500000 1.000000
vt 0.500000 0.500000
vt 0.484375 1.000000
vt 0.484375 0.500000
vt 0.468750 1.000000
vt 0.468750 0.500000
vt 0.453125 1.000000
vt 0.453125 0.500000
vt 0.437500 1.000000
vt 0.437500 0.500000
vt 0.421875 1.000000
vt 0.421875 0.500000
vt 0.406250 1.000000
vt 0.406250 0.500000
vt 0.390625 1.000000
vt 0.390625 0.500000
vt 0.375000 1.000000
vt 0.375000 0.500000
vt 0.359375 1.000000
vt 0.359375 0.500000
vt 0.343750 1.000000
vt 0.343750 0.500000
vt 0.328125 1.000000
vt 0.328125 0.500000
vt 0.312500 1.000000
vt 0.312500 0.500000
vt 0.296875 1.000000
vt 0.296875 0.500000
vt 0.281250 1.000000
vt 0.281250 0.500000
vt 0.265625 1.000000
vt 0.265625 0.500000
vt 0.250000 1.000000
vt 0.250000 0.500000
vt 0.234375 1.000000
vt 0.234375 0.500000
vt 0.218750 1.000000
vt 0.218750 0.500000
vt 0.203125 1.000000
vt 0.203125 0.500000
vt 0.187500 1.000000
vt 0.187500 0.500000
vt 0.171875 1.000000
vt 0.171875 0.500000
vt 0.156250 1.000000
vt 0.156250 0.500000
vt 0.140625 1.000000
vt 0.140625 0.500000
vt 0.125000 1.000000
vt 0.125000 0.500000
vt 0.109375 1.000000
vt 0.109375 0.500000
vt 0.093750 1.000000
vt 0.093750 0.500000
vt 0.078125 1.000000
vt 0.078125 0.500000
vt 0.062500 1.000000
vt 0.062500 0.500000
vt 0.046875 1.000000
vt 0.046875 0.500000
vt 0.031250 1.000000
vt 0.031250 0.500000
vt 0.015625 1.000000
vt 0.015625 0.500000
vt 0.000000 1.000000
vt 0.000000 0.500000
s 0
g Circle_Material.001
usemtl Material.001
f 1/1/1 2/2/1 4/3/1 3/4/1
f 3/4/2 4/3/2 6/5/2 5/6/2
f 5/6/3 6/5/3 8/7/3 7/8/3
f 7/8/4 8/7/4 10/9/4 9/10/4
f 9/10/5 10/9/5 12/11/5 11/12/5
f 11/12/6 12/11/6 14/13/6 13/14/6
f 13/14/7 14/13/7 16/15/7 15/16/7
f 15/16/8 16/15/8 18/17/8 17/18/8
f 17/18/9 18/17/9 20/19/9 19/20/9
f 19/20/10 20/19/10 22/21/10 21/22/10
f 21/22/11 22/21/11 24/23/11 23/24/11
f 23/24/12 24/23/12 26/25/12 25/26/12
f 25/26/13 26/25/13 28/27/13 27/28/13
f 27/28/14 28/27/14 30/29/14 29/30/14
f 29/30/15 30/29/15 32/31/15 31/32/15
f 31/32/16 32/31/16 34/33/16 33/34/16
f 33/34/17 34/33/17 36/35/17 35/36/17
f 35/36/18 36/35/18 38/37/18 37/38/18
f 37/38/19 38/37/19 40/39/19 39/40/19
f 39/40/20 40/39/20 42/41/20 41/42/20
f 41/42/21 42/41/21 44/43/21 43/44/21
f 43/44/22 44/43/22 46/45/22 45/46/22
f 45/46/23 46/45/23 48/47/23 47/48/23
f 47/48/24 48/47/24 50/49/24 49/50/24
f 49/50/25 50/49/25 52/51/25 51/52/25
f 51/52/26 52/51/26 54/53/26 53/54/26
f 53/54/27 54/53/27 56/55/27 55/56/27
f 55/56/28 56/55/28 58/57/28 57/58/28
f 57/58/29 58/57/29 60/59/29 59/60/29
f 59/60/30 60/59/30 62/61/30 61/62/30
f 61/62/31 62/61/31 64/63/31 63/64/31
f 63/64/32 64/63/32 66/65/32 65/66/32
f 65/66/33 66/65/33 68/67/33 67/68/33
f 67/68/34 68/67/34 70/69/34 69/70/34
f 69/70/35 70/69/35 72/71/35 71/72/35
f 71/72/36 72/71/36 74/73/36 73/74/36
f 73/74/37 74/73/37 76/75/37 75/76/37
f 75/76/38 76/75/38 78/77/38 77/78/38
f 77/78/39 78/77/39 80/79/39 79/80/39
f 79/80/40 80/79/40 82/81/40 81/82/40
f 81/82/41 82/81/41 84/83/41 83/84/41
f 83/84/42 84/83/42 86/85/42 85/86/42
f 85/86/43 86/85/43 88/87/43 87/88/43
f 87/88/44 88/87/44 90/89/44 89/90/44
f 89/90/45 90/89/45 92/91/45 91/92/45
f 91/92/46 92/91/46 94/93/46 93/94/46
f 93/94/47 94/93/47 96/95/47 95/96/47
f 95/96/48 96/95/48 98/97/48 97/98/48
f 97/98/49 98/97/49 100/99/49 99/100/49
f 99/100/50 100/99/50 102/101/50 101/102/50
f 101/102/51 102/101/51 104/103/51 103/104/51
f 103/104/52 104/103/52 106/105/52 105/106/52
f 105/106/53 106/105/53 108/107/53 107/108/53
f 107/108/54 108/107/54 110/109/54 109/110/54
f 109/110/55 110/109/55 112/111/55 111/112/55
f 111/112/56 112/111/56 114/113/56 113/114/56
f 113/114/57 114/113/57 116/115/57 115/116/57
f 115/116/58 116/115/58 118/117/58 117/118/58
f 117/118/59 118/117/59 120/119/59 119/120/59
f 119/120/60 120/119/60 122/121/60 121/122/60
f 121/122/61 122/121/61 124/123/61 123/124/61
f 123/124/62 124/123/62 126/125/62 125/126/62
f 125/126/63 126/125/63 128/127/63 127/128/63
f 127/128/64 128/127/64 2/129/64 1/130/64
o Cube
v 6.155935 0.030837 -2.534849
v 5.649754 0.854656 -2.424031
v 5.463373 0.307422 -2.229864
v 5.265147 0.549775 -2.665910
v 6.145872 0.571994 -2.306640
v 5.630052 -0.095558 -2.530625
v 5.333726 0.118378 -2.828172
v 5.802272 0.807864 -2.961559
v 6.131239 0.408589 -3.021373
v 5.736875 0.294976 -3.169808
vn -0.7011 0.4383 0.5624
vn -0.9260 -0.2527 0.2805
vn 0.7495 0.6418 -0.1621
vn 0.4832 0.8734 0.0611
vn 0.0901 -0.8565 -0.5082
vn -0.0271 0.3425 0.9391
vn 0.2037 -0.4492 0.8699
vn -0.7509 -0.5653 0.3413
vn 0.9992 0.0301 -0.0273
vn 0.4183 -0.7070 -0.5702
vn -0.6244 0.2835 -0.7279
vn 0.2448 0.3378 -0.9088
vn -0.5179 0.8270 -0.2189
vt 0.550384 0.206938
vt 0.375000 0.305791
vt 0.375000 0.049496
vt 0.180791 0.500000
vt 0.330928 0.574320
vt 0.125000 0.700504
vt 0.804283 0.500000
vt 0.842867 0.681766
vt 0.658516 0.626313
vt 0.875000 0.500000
vt 0.501754 0.540833
vt 0.565165 0.799791
vt 0.325310 0.750000
vt 0.604031 0.069198
vt 0.375000 1.000000
vt 0.375000 0.799690
vt 0.578028 1.000000
vt 0.615335 0.592735
vt 0.589707 0.775249
vt 0.581909 0.353207
s 0
g Cube_Material
usemtl Material
f 130/131/65 132/132/65 131/133/65
f 132/134/66 135/135/66 131/136/66
f 136/137/67 133/138/67 137/139/67
f 133/138/68 136/137/68 130/140/68
f 138/141/69 129/142/69 134/143/69 135/135/69
f 131/133/70 133/144/70 130/131/70
f 131/145/71 134/146/71 129/142/71 133/147/71
f 135/135/72 134/143/72 131/136/72
f 137/148/73 133/138/73 129/149/73
f 129/142/74 138/141/74 137/148/74
f 138/141/75 135/135/75 132/132/75 136/150/75
f 138/141/76 136/150/76 137/148/76
f 132/132/77 130/131/77 136/150/77
o Cube
v -3.715467 -0.012042 3.537797
v -3.819013 0.290022 4.367362
v -4.238084 0.193380 4.013407
v -4.075425 0.642691 4.123186
v -3.637742 -0.105405 4.060358
v -4.123517 0.266193 3.548996
v -4.105401 0.669082 3.699462
v -3.471078 0.580340 4.128780
v -3.360612 0.391205 3.706551
v -3.599994 0.705289 3.652383
vn -0.6512 0.0508 0.7572
vn -0.9433 0.3203 0.0867
vn 0.9017 -0.2541 0.3497
vn 0.6750 -0.2339 0.6998
vn -0.0010 0.2304 -0.9731
vn -0.3830 -0.6696 0.6363
vn -0.4857 -0.8589 -0.1627
vn -0.9676 0.1253 -0.2191
vn 0.7762 -0.5906 -0.2210
vn 0.3371 0.0954 -0.9366
vn 0.0292 0.9866 0.1607
vn 0.7988 0.5986 -0.0592
vn 0.0539 0.5946 0.8022
vt 0.550384 0.206938
vt 0.375000 0.305791
vt 0.375000 0.049496
vt 0.180791 0.500000
vt 0.330928 0.574320
vt 0.125000 0.700504
vt 0.804283 0.500000
vt 0.842867 0.681766
vt 0.658516 0.626313
vt 0.875000 0.500000
vt 0.501754 0.540833
vt 0.565165 0.799791
vt 0.325310 0.750000
vt 0.604031 0.069198
vt 0.375000 1.000000
vt 0.375000 0.799690
vt 0.578028 1.000000
vt 0.615335 0.592735
vt 0.589707 0.775249
vt 0.581909 0.353207
s 0
g Cube_Material
usemtl Material
f 140/151/78 142/152/78 141/153/78
f 142/154/79 145/155/79 141/156/79
f 146/157/80 143/158/80 147/159/80
f 143/158/81 146/157/81 140/160/81
f 148/161/82 139/162/82 144/163/82 145/155/82
f 141/153/83 143/164/83 140/151/83
f 141/165/84 144/166/84 139/162/84 143/167/84
f 145/155/85 144/163/85 141/156/85
f 147/168/86 143/158/86 139/169/86
f 139/162/87 148/161/87 147/168/87
f 148/161/88 145/155/88 142/152/88 146/170/88
f 148/161/89 146/170/89 147/168/89
f 142/152/90 140/151/90 146/170/90
o Cube
v -3.240275 0.036859 4.968662
v -2.629404 0.702548 5.372902
v -2.897641 0.238617 5.685147
v -3.060903 0.758432 5.719816
v -2.692797 0.275908 4.966153
v -3.382722 0.099742 5.496252
v -3.476748 0.536927 5.668793
v -3.033817 0.978689 5.080696
v -3.325411 0.635273 4.802176
v -3.554850 0.769048 5.157800
vn 0.6313 0.1475 0.7614
vn -0.0742 -0.0895 0.9932
vn 0.4112 0.3375 -0.8467
vn 0.7032 0.4331 -0.5639
vn -0.9484 -0.2982 -0.1074
vn 0.9016 -0.3610 0.2382
vn 0.3241 -0.9396 0.1096
vn -0.2310 -0.3998 0.8870
vn 0.1059 -0.2525 -0.9618
vn -0.8538 -0.2487 -0.4573
vn -0.3831 0.8537 0.3528
vn -0.3827 0.7558 -0.5313
vn 0.3680 0.8742 0.3169
vt 0.550384 0.206938
vt 0.375000 0.305791
vt 0.375000 0.049496
vt 0.180791 0.500000
vt 0.330928 0.574320
vt 0.125000 0.700504
vt 0.804283 0.500000
vt 0.842867 0.681766
vt 0.658516 0.626313
vt 0.875000 0.500000
vt 0.501754 0.540833
vt 0.565165 0.799791
vt 0.325310 0.750000
vt 0.604031 0.069198
vt 0.375000 1.000000
vt 0.375000 0.799690
vt 0.578028 1.000000
vt 0.615335 0.592735
vt 0.589707 0.775249
vt 0.581909 0.353207
s 0
g Cube_Material
usemtl Material
f 150/171/91 152/172/91 151/173/91
f 152/174/92 155/175/92 151/176/92
f 156/177/93 153/178/93 157/179/93
f 153/178/94 156/177/94 150/180/94
f 158/181/95 149/182/95 154/183/95 155/175/95
f 151/173/96 153/184/96 150/171/96
f 151/185/97 154/186/97 149/182/97 153/187/97
f 155/175/98 154/183/98 151/176/98
f 157/188/99 153/178/99 149/189/99
f 149/182/100 158/181/100 157/188/100
f 158/181/101 155/175/101 152/172/101 156/190/101
f 158/181/102 156/190/102 157/188/102
f 152/172/103 150/171/103 156/190/103
o Cube
v 3.846013 0.249474 -3.083599
v 4.463046 0.629603 -3.302023
v 4.463269 0.281066 -2.980337
v 4.495928 0.685365 -2.881428
v 4.120070 0.362683 -3.431135
v 4.115571 0.256086 -2.760718
v 4.249186 0.575300 -2.639878
v 4.153229 0.916355 -3.192678
v 3.802500 0.725053 -3.125979
v 3.940761 0.813823 -2.828972
vn 0.9956 -0.0634 -0.0694
vn 0.7306 -0.2174 0.6473
vn -0.3711 0.3860 -0.8446
vn 0.0398 0.3932 -0.9186
vn -0.6858 -0.1273 0.7166
vn 0.6268 -0.5283 -0.5728
vn 0.0765 -0.9848 -0.1561
vn 0.4927 -0.4808 0.7253
vn -0.7585 -0.1264 -0.6393
vn -0.9006 -0.0439 0.4324
vn 0.2406 0.8442 0.4791
vn -0.4838 0.8744 -0.0361
vn 0.6426 0.7514 -0.1499
vt 0.550384 0.206938
vt 0.375000 0.305791
vt 0.375000 0.049496
vt 0.180791 0.500000
vt 0.330928 0.574320
vt 0.125000 0.700504
vt 0.804283 0.500000
vt 0.842867 0.681766
vt 0.658516 0.626313
vt 0.875000 0.500000
vt 0.501754 0.540833
vt 0.565165 0.799791
vt 0.325310 0.750000
vt 0.604031 0.069198
vt 0.375000 1.000000
vt 0.375000 0.799690
vt 0.578028 1.000000
vt 0.615335 0.592735
vt 0.589707 0.775249
vt 0.581909 0.353207
s 0
g Cube_Material
usemtl Material
f 160/191/104 162/192/104 161/193/104
f 162/194/105 165/195/105 161/196/105
f 166/197/106 163/198/106 167/199/106
f 163/198/107 166/197/107 160/200/107
f 168/201/108 159/202/108 164/203/108 165/195/108
f 161/193/109 163/204/109 160/191/109
f 161/205/110 164/206/110 159/202/110 163/207/110
f 165/195/111 164/203/111 161/196/111
f 167/208/112 163/198/112 159/209/112
f 159/202/113 168/201/113 167/208/113
f 168/201/114 165/195/114 162/192/114 166/210/114
f 168/201/115 166/210/115 167/208/115
f 162/192/116 160/191/116 166/210/116
o Cube
v -5.256860 -0.055971 -2.009737
v -4.577684 0.275547 -2.482529
v -4.528541 -0.130897 -2.102491
v -4.388358 0.333504 -2.022108
v -5.050038 0.027132 -2.499443
v -4.845593 -0.097717 -1.736653
v -4.600238 0.249380 -1.661255
v -4.835927 0.664954 -2.269322
v -5.237216 0.505477 -2.066603
v -4.966775 0.583117 -1.782631
vn 0.9124 -0.2152 -0.3481
vn 0.8460 -0.3281 0.4203
vn -0.5381 0.4400 -0.7189
vn -0.1696 0.3844 -0.9075
vn -0.4606 -0.0221 0.8873
vn 0.3497 -0.6169 -0.7050
vn -0.1178 -0.9845 -0.1296
vn 0.6046 -0.5521 0.5741
vn -0.9207 -0.0073 -0.3901
vn -0.7336 0.0938 0.6730
vn 0.4903 0.7963 0.3542
vn -0.3393 0.9383 0.0666
vn 0.6754 0.6443 -0.3588
vt 0.550384 0.206938
vt 0.375000 0.305791
vt 0.375000 0.049496
vt 0.180791 0.500000
vt 0.330928 0.574320
vt 0.125000 0.700504
vt 0.804283 0.500000
vt 0.842867 0.681766
vt 0.658516 0.626313
vt 0.875000 0.500000
vt 0.501754 0.540833
vt 0.565165 0.799791
vt 0.325310 0.750000
vt 0.604031 0.069198
vt 0.375000 1.000000
vt 0.375000 0.799690
vt 0.578028 1.000000
vt 0.615335 0.592735
vt 0.589707 0.775249
vt 0.581909 0.353207
s 0
g Cube_Material
usemtl Material
f 170/211/117 172/212/117 171/213/117
f 172/214/118 175/215/118 171/216/118
f 176/217/119 173/218/119 177/219/119
f 173/218/120 176/217/120 170/220/120
f 178/221/121 169/222/121 174/223/121 175/215/121
f 171/213/122 173/224/122 170/211/122
f 171/225/123 174/226/123 169/222/123 173/227/123
f 175/215/124 174/223/124 171/216/124
f 177/228/125 173/218/125 169/229/125
f 169/222/126 178/221/126 177/228/126
f 178/221/127 175/215/127 172/212/127 176/230/127
f 178/221/128 176/230/128 177/228/128
f 172/212/129 170/211/129 176/230/129
o Cube
v 3.987397 -0.240509 2.370922
v 4.724741 -0.319161 2.122883
v 4.447281 -0.688223 2.286793
v 4.764365 -0.508711 2.517528
v 4.288728 -0.189598 2.011313
v 4.166208 -0.573633 2.585138
v 4.491324 -0.525356 2.773122
v 4.708475 0.014678 2.424907
v 4.311167 0.102187 2.522655
v 4.458255 -0.079084 2.784279
vn 0.6497 -0.6577 -0.3811
vn 0.3136 -0.9086 0.2759
vn 0.0684 0.8652 -0.4967
vn 0.3632 0.6348 -0.6821
vn -0.6091 0.0408 0.7920
vn 0.0895 -0.4597 -0.8836
vn -0.6443 -0.5649 -0.5156
vn -0.0451 -0.9460 0.3209
vn -0.5800 0.7182 -0.3844
vn -0.6819 0.3631 0.6350
vn 0.7447 0.1234 0.6558
vn 0.2935 0.8551 0.4274
vn 0.9939 0.0967 -0.0533
vt 0.550384 0.206938
vt 0.375000 0.305791
vt 0.375000 0.049496
vt 0.180791 0.500000
vt 0.330928 0.574320
vt 0.125000 0.700504
vt 0.804283 0.500000
vt 0.842867 0.681766
vt 0.658516 0.626313
vt 0.875000 0.500000
vt 0.501754 0.540833
vt 0.565165 0.799791
vt 0.325310 0.750000
vt 0.604031 0.069198
vt 0.375000 1.000000
vt 0.375000 0.799690
vt 0.578028 1.000000
vt 0.615335 0.592735
vt 0.589707 0.775249
vt 0.581909 0.353207
s 0
g Cube_Material
usemtl Material
f 180/231/130 182/232/130 181/233/130
f 182/234/131 185/235/131 181/236/131
f 186/237/132 183/238/132 187/239/132
f 183/238/133 186/237/133 180/240/133
f 188/241/134 179/242/134 184/243/134 185/235/134
f 181/233/135 183/244/135 180/231/135
f 181/245/136 184/246/136 179/242/136 183/247/136
f 185/235/137 184/243/137 181/236/137
f 187/248/138 183/238/138 179/249/138
f 179/242/139 188/241/139 187/248/139
f 188/241/140 185/235/140 182/232/140 186/250/140
f 188/241/141 186/250/141 187/248/141
f 182/232/142 180/231/142 186/250/142
o Cube
v 3.547098 -0.008390 3.317260
v 3.455099 0.131156 2.465253
v 3.458724 0.523602 2.842041
v 3.060483 0.370104 2.624805
v 3.759561 -0.060032 2.841024
v 3.281543 0.390320 3.259409
v 2.935310 0.379721 3.021108
v 3.127513 -0.219294 2.606999
v 3.208517 -0.346687 3.046396
v 2.895427 -0.115559 3.034384
vn 0.1261 0.6864 -0.7162
vn -0.3005 0.9465 -0.1179
vn 0.3410 -0.8842 -0.3192
vn 0.4033 -0.6411 -0.6530
vn -0.4583 -0.0451 0.8877
vn 0.7990 0.4126 -0.4374
vn 0.7887 0.4772 0.3875
vn -0.1853 0.9562 0.2267
vn 0.5285 -0.7859 0.3210
vn -0.3147 -0.3811 0.8693
vn -0.9183 -0.0213 -0.3954
vn -0.5862 -0.8006 -0.1240
vn -0.3829 -0.0156 -0.9236
vt 0.550384 0.206938
vt 0.375000 0.305791
vt 0.375000 0.049496
vt 0.180791 0.500000
vt 0.330928 0.574320
vt 0.125000 0.700504
vt 0.804283 0.500000
vt 0.842867 0.681766
vt 0.658516 0.626313
vt 0.875000 0.500000
vt 0.501754 0.540833
vt 0.565165 0.799791
vt 0.325310 0.750000
vt 0.604031 0.069198
vt 0.375000 1.000000
vt 0.375000 0.799690
vt 0.578028 1.000000
vt 0.615335 0.592735
vt 0.589707 0.775249
vt 0.581909 0.353207
s 0
g Cube_Material
usemtl Material
f 190/251/143 192/252/143 191/253/143
f 192/254/144 195/255/144 191/256/144
f 196/257/145 193/258/145 197/259/145
f 193/258/146 196/257/146 190/260/146
f 198/261/147 189/262/147 194/263/147 195/255/147
f 191/253/148 193/264/148 190/251/148
f 191/265/149 194/266/149 189/262/149 193/267/149
f 195/255/150 194/263/150 191/256/150
f 197/268/151 193/258/151 189/269/151
f 189/262/152 198/261/152 197/268/152
f 198/261/153 195/255/153 192/252/153 196/270/153
f 198/261/154 196/270/154 197/268/154
f 192/252/155 190/251/155 196/270/155
o Cube
v 4.273918 -0.038378 -0.855447
v 4.270248 -0.680370 0.126822
v 4.358264 0.049419 0.108363
v 4.843982 -0.365824 0.211272
v 3.907944 -0.481709 -0.441766
v 4.652469 0.261726 -0.417332
v 5.076682 -0.021389 -0.166736
v 4.703617 -0.957271 -0.312016
v 4.656079 -0.675692 -0.871260
v 5.092165 -0.509278 -0.628290
vn -0.1698 0.0454 0.9844
vn 0.3403 0.5813 0.7391
vn -0.4292 -0.8209 -0.3768
vn -0.5164 -0.8558 0.0300
vn 0.5580 0.4995 -0.6627
vn -0.8196 0.1131 0.5617
vn -0.7065 0.7077 -0.0026
vn 0.2681 0.8318 0.4860
vn -0.5322 -0.2995 -0.7918
vn 0.3933 0.2578 -0.8825
vn 0.8613 -0.3933 0.3218
vn 0.5181 -0.7454 -0.4194
vn 0.2677 -0.6733 0.6892
vt 0.550384 0.206938
vt 0.375000 0.305791
vt 0.375000 0.049496
vt 0.180791 0.500000
vt 0.330928 0.574320
vt 0.125000 0.700504
vt 0.804283 0.500000
vt 0.842867 0.681766
vt 0.658516 0.626313
vt 0.875000 0.500000
vt 0.501754 0.540833
vt 0.565165 0.799791
vt 0.325310 0.750000
vt 0.604031 0.069198
vt 0.375000 1.000000
vt 0.375000 0.799690
vt 0.578028 1.000000
vt 0.615335 0.592735
vt 0.589707 0.775249
vt 0.581909 0.353207
s 0
g Cube_Material
usemtl Material
f 200/271/156 202/272/156 201/273/156
f 202/274/157 205/275/157 201/276/157
f 206/277/158 203/278/158 207/279/158
f 203/278/159 206/277/159 200/280/159
f 208/281/160 199/282/160 204/283/160 205/275/160
f 201/273/161 203/284/161 200/271/161
f 201/285/162 204/286/162 199/282/162 203/287/162
f 205/275/163 204/283/163 201/276/163
f 207/288/164 203/278/164 199/289/164
f 199/282/165 208/281/165 207/288/165
f 208/281/166 205/275/166 202/272/166 206/290/166
f 208/281/167 206/290/167 207/288/167
f 202/272/168 200/271/168 206/290/168
o Cube
v -3.373204 0.139410 -2.831858
v -3.138887 -0.443429 -3.430362
v -2.805647 -0.242673 -3.050577
v -2.792797 -0.109008 -3.509926
v -3.454561 -0.337935 -3.031235
v -2.904168 0.201751 -2.924776
v -2.774099 0.260000 -3.320026
v -3.364789 -0.060515 -3.658877
v -3.548990 0.227786 -3.345005
v -3.223866 0.385001 -3.489771
vn 0.6584 -0.7274 -0.1932
vn 0.9983 -0.0565 0.0115
vn -0.9171 -0.2992 -0.2634
vn -0.6832 -0.6267 -0.3747
vn 0.0413 0.9570 0.2871
vn 0.1460 -0.9218 0.3591
vn 0.1400 -0.3271 0.9346
vn 0.9383 0.1158 0.3258
vn -0.9445 0.0241 0.3277
vn -0.3209 0.9089 0.2664
vn 0.3315 0.3254 -0.8856
vn -0.5346 0.4424 -0.7201
vn 0.1963 -0.4145 -0.8886
vt 0.550384 0.206938
vt 0.375000 0.305791
vt 0.375000 0.049496
vt 0.180791 0.500000
vt 0.330928 0.574320
vt 0.125000 0.700504
vt 0.804283 0.500000
vt 0.842867 0.681766
vt 0.658516 0.626313
vt 0.875000 0.500000
vt 0.501754 0.540833
vt 0.565165 0.799791
vt 0.325310 0.750000
vt 0.604031 0.069198
vt 0.375000 1.000000
vt 0.375000 0.799690
vt 0.578028 1.000000
vt 0.615335 0.592735
vt 0.589707 0.775249
vt 0.581909 0.353207
s 0
g Cube_Material
usemtl Material
f 210/291/169 212/292/169 211/293/169
f 212/294/170 215/295/170 211/296/170
f 216/297/171 213/298/171 217/299/171
f 213/298/172 216/297/172 210/300/172
f 218/301/173 209/302/173 214/303/173 215/295/173
f 211/293/174 213/304/174 210/291/174
f 211/305/175 214/306/175 209/302/175 213/307/175
f 215/295/176 214/303/176 211/296/176
f 217/308/177 213/298/177 209/309/177
f 209/302/178 218/301/178 217/308/178
f 218/301/179 215/295/179 212/292/179 216/310/179
f 218/301/180 216/310/180 217/308/180
f 212/292/181 210/291/181 216/310/181
o Cube
v -4.017873 0.592681 0.630276
v -4.167708 0.054555 1.517588
v -3.605579 0.059785 1.177530
v -3.975536 -0.384722 1.174682
v -4.161826 0.620719 1.245870
v -3.676139 0.120964 0.614505
v -3.876459 -0.340299 0.684548
v -4.618755 -0.071060 1.135913
v -4.592674 0.264943 0.687344
v -4.438704 -0.163683 0.570566
vn 0.4767 -0.4018 0.7819
vn 0.7647 -0.6371 0.0968
vn -0.8137 0.4870 0.3175
vn -0.6616 0.3300 0.6733
vn 0.0748 -0.0466 -0.9961
vn 0.4770 0.3762 0.7943
vn 0.7556 0.6517 0.0654
vn 0.8969 -0.4134 -0.1573
vn -0.5009 0.8513 -0.1559
vn -0.2031 0.1888 -0.9608
vn -0.3701 -0.9273 -0.0555
vn -0.9304 -0.2653 -0.2528
vn -0.3644 -0.6668 0.6501
vt 0.550384 0.206938
vt 0.375000 0.305791
vt 0.375000 0.049496
vt 0.180791 0.500000
vt 0.330928 0.574320
vt 0.125000 0.700504
vt 0.804283 0.500000
vt 0.842867 0.681766
vt 0.658516 0.626313
vt 0.875000 0.500000
vt 0.501754 0.540833
vt 0.565165 0.799791
vt 0.325310 0.750000
vt 0.604031 0.069198
vt 0.375000 1.000000
vt 0.375000 0.799690
vt 0.578028 1.000000
vt 0.615335 0.592735
vt 0.589707 0.775249
vt 0.581909 0.353207
s 0
g Cube_Material
usemtl Material
f 220/311/182 222/312/182 221/313/182
f 222/314/183 225/315/183 221/316/183
f 226/317/184 223/318/184 227/319/184
f 223/318/185 226/317/185 220/320/185
f 228/321/186 219/322/186 224/323/186 225/315/186
f 221/313/187 223/324/187 220/311/187
f 221/325/188 224/326/188 219/322/188 223/327/188
f 225/315/189 224/323/189 221/316/189
f 227/328/190 223/318/190 219/329/190
f 219/322/191 228/321/191 227/328/191
f 228/321/192 225/315/192 222/312/192 226/330/192
f 228/321/193 226/330/193 227/328/193
f 222/312/194 220/311/194 226/330/194
o Cube
v -0.256786 0.661392 4.701108
v -0.708435 0.558718 3.972061
v -0.849036 0.348652 4.450634
v -0.658899 0.092110 4.097073
v -0.518291 0.895512 4.315668
v -0.483734 0.239115 4.725578
v -0.436794 -0.041748 4.419217
v -0.233116 0.440943 3.883594
v 0.029171 0.550127 4.248159
v -0.026041 0.166857 4.239566
vn -0.9157 -0.1918 -0.3532
vn -0.6718 -0.7225 0.1630
vn 0.4093 0.7503 -0.5192
vn 0.0416 0.7019 -0.7110
vn 0.6275 -0.4228 0.6538
vn -0.8583 0.5124 -0.0273
vn -0.5342 0.4274 0.7294
vn -0.5732 -0.6459 0.5043
vn 0.5406 0.8300 0.1374
vn 0.8235 -0.1310 0.5520
vn 0.2262 -0.7648 -0.6032
vn 0.8219 -0.1059 -0.5596
vn -0.2413 -0.2750 -0.9307
vt 0.550384 0.206938
vt 0.375000 0.305791
vt 0.375000 0.049496
vt 0.180791 0.500000
vt 0.330928 0.574320
vt 0.125000 0.700504
vt 0.804283 0.500000
vt 0.842867 0.681766
vt 0.658516 0.626313
vt 0.875000 0.500000
vt 0.501754 0.540833
vt 0.565165 0.799791
vt 0.325310 0.750000
vt 0.604031 0.069198
vt 0.375000 1.000000
vt 0.375000 0.799690
vt 0.578028 1.000000
vt 0.615335 0.592735
vt 0.589707 0.775249
vt 0.581909 0.353207
s 0
g Cube_Material
usemtl Material
f 230/331/195 232/332/195 231/333/195
f 232/334/196 235/335/196 231/336/196
f 236/337/197 233/338/197 237/339/197
f 233/338/198 236/337/198 230/340/198
f 238/341/199 229/342/199 234/343/199 235/335/199
f 231/333/200 233/344/200 230/331/200
f 231/345/201 234/346/201 229/342/201 233/347/201
f 235/335/202 234/343/202 231/336/202
f 237/348/203 233/338/203 229/349/203
f 229/342/204 238/341/204 237/348/204
f 238/341/205 235/335/205 232/332/205 236/350/205
f 238/341/206 236/350/206 237/348/206
f 232/332/207 230/331/207 236/350/207
o Cube
v 2.780540 -0.441941 -0.391347
v 3.355974 0.172422 0.043492
v 2.801862 0.297064 -0.129374
v 3.227077 0.465816 -0.381986
v 3.087908 -0.326647 0.076864
v 2.652468 0.042732 -0.552404
v 2.974036 0.318566 -0.728496
v 3.621762 -0.047604 -0.379467
v 3.350126 -0.425991 -0.579651
v 3.322533 -0.084314 -0.830650
vn 0.0089 0.8245 0.5658
vn -0.4110 0.9076 -0.0855
vn 0.6558 -0.6624 0.3622
vn 0.7074 -0.3384 0.6206
vn -0.4129 -0.2793 -0.8669
vn -0.2510 0.1982 0.9475
vn -0.8524 -0.1527 0.5002
vn -0.6944 0.6981 -0.1745
vn 0.0880 -0.9791 0.1833
vn -0.2392 -0.5873 -0.7732
vn 0.6154 0.5595 -0.5551
vn 0.8041 -0.3084 -0.5082
vn 0.7798 0.6003 0.1777
vt 0.550384 0.206938
vt 0.375000 0.305791
vt 0.375000 0.049496
vt 0.180791 0.500000
vt 0.330928 0.574320
vt 0.125000 0.700504
vt 0.804283 0.500000
vt 0.842867 0.681766
vt 0.658516 0.626313
vt 0.875000 0.500000
vt 0.501754 0.540833
vt 0.565165 0.799791
vt 0.325310 0.750000
vt 0.604031 0.069198
vt 0.375000 1.000000
vt 0.375000 0.799690
vt 0.578028 1.000000
vt 0.615335 0.592735
vt 0.589707 0.775249
vt 0.581909 0.353207
s 0
g Cube_Material
usemtl Material
f 240/351/208 242/352/208 241/353/208
f 242/354/209 245/355/209 241/356/209
f 246/357/210 243/358/210 247/359/210
f 243/358/211 246/357/211 240/360/211
f 248/361/212 239/362/212 244/363/212 245/355/212
f 241/353/213 243/364/213 240/351/213
f 241/365/214 244/366/214 239/362/214 243/367/214
f 245/355/215 244/363/215 241/356/215
f 247/368/216 243/358/216 239/369/216
f 239/362/217 248/361/217 247/368/217
f 248/361/218 245/355/218 242/352/218 246/370/218
f 248/361/219 246/370/219 247/368/219
f 242/352/220 240/351/220 246/370/220
o Cube
v 0.484103 0.322989 -2.949274
v 0.113223 0.032335 -3.719028
v 0.087271 0.566056 -3.533829
v -0.295672 0.248825 -3.510707
v 0.569568 0.093183 -3.435694
v 0.081826 0.607110 -3.044316
v -0.306783 0.419629 -3.113926
v -0.036251 -0.281757 -3.332542
v 0.205546 -0.175771 -2.928138
v -0.171547 -0.031330 -2.901062
vn -0.3026 0.2993 -0.9049
vn -0.6146 0.7181 -0.3264
vn 0.5141 -0.8537 -0.0836
vn 0.4015 -0.7806 -0.4791
vn -0.1632 0.2772 0.9468
vn 0.4715 0.3095 -0.8258
vn 0.6613 0.7364 -0.1428
vn -0.4214 0.9033 -0.0804
vn 0.8227 -0.4444 0.3545
vn 0.0723 0.0019 0.9974
vn -0.9305 -0.3656 0.0215
vn -0.3013 -0.8627 0.4062
vn -0.5885 -0.5009 -0.6347
vt 0.550384 0.206938
vt 0.375000 0.305791
vt 0.375000 0.049496
vt 0.180791 0.500000
vt 0.330928 0.574320
vt 0.125000 0.700504
vt 0.804283 0.500000
vt 0.842867 0.681766
vt 0.658516 0.626313
vt 0.875000 0.500000
vt 0.501754 0.540833
vt 0.565165 0.799791
vt 0.325310 0.750000
vt 0.604031 0.069198
vt 0.375000 1.000000
vt 0.375000 0.799690
vt 0.578028 1.000000
vt 0.615335 0.592735
vt 0.589707 0.775249
vt 0.581909 0.353207
s 0
g Cube_Material
usemtl Material
f 250/371/221 252/372/221 251/373/221
f 252/374/222 255/375/222 251/376/222
f 256/377/223 253/378/223 257/379/223
f 253/378/224 256/377/224 250/380/224
f 258/381/225 249/382/225 254/383/225 255/375/225
f 251/373/226 253/384/226 250/371/226
f 251/385/227 254/386/227 249/382/227 253/387/227
f 255/375/228 254/383/228 251/376/228
f 257/388/229 253/378/229 249/389/229
f 249/382/230 258/381/230 257/388/230
f 258/381/231 255/375/231 252/372/231 256/390/231
f 258/381/232 256/390/232 257/388/232
f 252/372/233 250/371/233 256/390/233
o Cube
v 2.395568 1.195382 -1.909281
v 2.226431 0.363058 -1.850613
v 2.442370 0.596966 -2.278691
v 1.994256 0.458083 -2.258241
v 2.485493 0.757106 -1.656582
v 2.303151 1.034062 -2.344369
v 1.952452 0.830462 -2.418696
v 1.824938 0.614758 -1.723997
v 1.920703 1.059079 -1.693129
v 1.729480 0.992765 -2.016835
vn 0.2615 -0.8964 -0.3579
vn 0.0780 -0.3871 -0.9187
vn -0.0908 -0.0495 0.9946
vn 0.0042 -0.4440 0.8960
vn -0.2825 0.8791 -0.3840
vn 0.8104 -0.5785 0.0927
vn 0.9656 0.1871 -0.1807
vn 0.2442 -0.0676 -0.9674
vn 0.2252 0.5209 0.8233
vn -0.2870 0.9576 -0.0266
vn -0.9060 -0.3276 -0.2680
vn -0.8643 0.1530 0.4792
vn -0.5085 -0.8564 0.0900
vt 0.550384 0.206938
vt 0.375000 0.305791
vt 0.375000 0.049496
vt 0.180791 0.500000
vt 0.330928 0.574320
vt 0.125000 0.700504
vt 0.804283 0.500000
vt 0.842867 0.681766
vt 0.658516 0.626313
vt 0.875000 0.500000
vt 0.501754 0.540833
vt 0.565165 0.799791
vt 0.325310 0.750000
vt 0.604031 0.069198
vt 0.375000 1.000000
vt 0.375000 0.799690
vt 0.578028 1.000000
vt 0.615335 0.592735
vt 0.589707 0.775249
vt 0.581909 0.353207
s 0
g Cube_Material
usemtl Material
f 260/391/234 262/392/234 261/393/234
f 262/394/235 265/395/235 261/396/235
f 266/397/236 263/398/236 267/399/236
f 263/398/237 266/397/237 260/400/237
f 268/401/238 259/402/238 264/403/238 265/395/238
f 261/393/239 263/404/239 260/391/239
f 261/405/240 264/406/240 259/402/240 263/407/240
f 265/395/241 264/403/241 261/396/241
f 267/408/242 263/398/242 259/409/242
f 259/402/243 268/401/243 267/408/243
f 268/401/244 265/395/244 262/392/244 266/410/244
f 268/401/245 266/410/245 267/408/245
f 262/392/246 260/391/246 266/410/246
o Cube
v -2.763412 -0.450902 -0.948146
v -2.889768 0.606889 -0.630015
v -2.350033 0.204328 -0.451195
v -2.808005 0.344989 -0.068390
v -2.826546 0.187877 -1.143723
v -2.488108 -0.382585 -0.399217
v -2.762891 -0.178597 0.016411
v -3.429840 0.287403 -0.501413
v -3.407034 -0.258502 -0.736819
v -3.333154 -0.287200 -0.244600
vn 0.5027 0.8092 0.3041
vn 0.6625 0.1750 0.7283
vn -0.6819 0.2654 -0.6816
vn -0.5127 0.6333 -0.5797
vn -0.0588 -0.9607 0.2713
vn 0.6254 0.6406 -0.4455
vn 0.8498 -0.1538 -0.5041
vn 0.7949 -0.1346 0.5916
vn -0.3782 -0.3050 -0.8741
vn -0.2901 -0.9569 -0.0123
vn -0.5136 0.1937 0.8359
vn -0.9846 -0.1023 0.1418
vn -0.3791 0.8163 0.4358
vt 0.550384 0.206938
vt 0.375000 0.305791
vt 0.375000 0.049496
vt 0.180791 0.500000
vt 0.330928 0.574320
vt 0.125000 0.700504
vt 0.804283 0.500000
vt 0.842867 0.681766
vt 0.658516 0.626313
vt 0.875000 0.500000
vt 0.501754 0.540833
vt 0.565165 0.799791
vt 0.325310 0.750000
vt 0.604031 0.069198
vt 0.375000 1.000000
vt 0.375000 0.799690
vt 0.578028 1.000000
vt 0.615335 0.592735
vt 0.589707 0.775249
vt 0.581909 0.353207
s 0
g Cube_Material
usemtl Material
f 270/411/247 272/412/247 271/413/247
f 272/414/248 275/415/248 271/416/248
f 276/417/249 273/418/249 277/419/249
f 273/418/250 276/417/250 270/420/250
f 278/421/251 269/422/251 274/423/251 275/415/251
f 271/413/252 273/424/252 270/411/252
f 271/425/253 274/426/253 269/422/253 273/427/253
f 275/415/254 274/423/254 271/416/254
f 277/428/255 273/418/255 269/429/255
f 269/422/256 278/421/256 277/428/256
f 278/421/257 275/415/257 272/412/257 276/430/257
f 278/421/258 276/430/258 277/428/258
f 272/412/259 270/411/259 276/430/259
o Cube
v 1.459010 0.052363 -1.061260
v 1.276209 1.013232 -1.774086
v 1.096138 0.300787 -1.961553
v 1.625827 0.623374 -2.208560
v 1.127720 0.698853 -1.137976
v 1.495698 -0.153361 -1.700599
v 1.862060 0.111786 -2.073387
v 1.937579 1.020657 -1.553323
v 2.028896 0.563338 -1.103926
v 2.245940 0.400186 -1.573846
vn -0.5596 0.3403 -0.7557
vn -0.2179 -0.3421 -0.9140
vn 0.0797 0.7067 0.7030
vn -0.1471 0.8999 0.4104
vn 0.5647 -0.8060 0.1775
vn -0.9594 0.2667 -0.0921
vn -0.8433 -0.4978 0.2025
vn -0.2638 -0.6445 -0.7177
vn -0.0215 0.1070 0.9940
vn 0.6002 -0.6281 0.4953
vn 0.7335 0.2906 -0.6144
vn 0.8694 0.4236 0.2545
vn 0.1818 0.8001 -0.5716
vt 0.550384 0.206938
vt 0.375000 0.305791
vt 0.375000 0.049496
vt 0.180791 0.500000
vt 0.330928 0.574320
vt 0.125000 0.700504
vt 0.804283 0.500000
vt 0.842867 0.681766
vt 0.658516 0.626313
vt 0.875000 0.500000
vt 0.501754 0.540833
vt 0.565165 0.799791
vt 0.325310 0.750000
vt 0.604031 0.069198
vt 0.375000 1.000000
vt 0.375000 0.799690
vt 0.578028 1.000000
vt 0.615335 0.592735
vt 0.589707 0.775249
vt 0.581909 0.353207
s 0
g Cube_Material
usemtl Material
f 280/431/260 282/432/260 281/433/260
f 282/434/261 285/435/261 281/436/261
f 286/437/262 283/438/262 287/439/262
f 283/438/263 286/437/263 280/440/263
f 288/441/264 279/442/264 284/443/264 285/435/264
f 281/433/265 283/444/265 280/431/265
f 281/445/266 284/446/266 279/442/266 283/447/266
f 285/435/267 284/443/267 281/436/267
f 287/448/268 283/438/268 279/449/268
f 279/442/269 288/441/269 287/448/269
f 288/441/270 285/435/270 282/432/270 286/450/270
f 288/441/271 286/450/271 287/448/271
f 282/432/272 280/431/272 286/450/272
o Cube
v -2.258913 0.177529 -0.600659
v -2.685471 -0.491595 -0.061477
v -2.978776 -0.095847 -0.406070
v -2.947494 -0.056783 0.120725
v -2.320425 -0.388072 -0.493018
v -2.736265 0.364165 -0.453767
v -2.853312 0.375065 -0.004308
v -2.324655 -0.214250 0.252195
v -2.041344 0.099953 -0.038597
v -2.336059 0.329600 0.174673
vn -0.8360 -0.5414 0.0898
vn -0.9737 0.2243 0.0412
vn 0.7968 -0.5874 0.1415
vn 0.4806 -0.8534 0.2018
vn 0.2291 0.9690 -0.0926
vn -0.4028 -0.7524 -0.5212
vn -0.2325 -0.0779 -0.9695
vn -0.8693 0.4337 -0.2369
vn 0.9107 -0.1706 -0.3761
vn 0.5630 0.8198 -0.1048
vn -0.2205 0.2162 0.9511
vn 0.6422 0.1213 0.7568
vn -0.2999 -0.5167 0.8019
vt 0.550384 0.206938
vt 0.375000 0.305791
vt 0.375000 0.049496
vt 0.180791 0.500000
vt 0.330928 0.574320
vt 0.125000 0.700504
vt 0.804283 0.500000
vt 0.842867 0.681766
vt 0.658516 0.626313
vt 0.875000 0.500000
vt 0.501754 0.540833
vt 0.565165 0.799791
vt 0.325310 0.750000
vt 0.604031 0.069198
vt 0.375000 1.000000
vt 0.375000 0.799690
vt 0.578028 1.000000
vt 0.615335 0.592735
vt 0.589707 0.775249
vt 0.581909 0.353207
s 0
g Cube_Material
usemtl Material
f 290/451/273 292/452/273 291/453/273
f 292/454/274 295/455/274 291/456/274
f 296/457/275 293/458/275 297/459/275
f 293/458/276 296/457/276 290/460/276
f 298/461/277 289/462/277 294/463/277 295/455/277
f 291/453/278 293/464/278 290/451/278
f 291/465/279 294/466/279 289/462/279 293/467/279
f 295/455/280 294/463/280 291/456/280
f 297/468/281 293/458/281 289/469/281
f 289/462/282 298/461/282 297/468/282
f 298/461/283 295/455/283 292/452/283 296/470/283
f 298/461/284 296/470/284 297/468/284
f 292/452/285 290/451/285 296/470/285
o Cube
v -0.431836 -0.277159 -1.331859
v -0.947823 0.210294 -2.264149
v -0.768945 0.574220 -1.652047
v -1.373904 0.400775 -1.799229
v -0.385542 -0.133456 -2.022770
v -0.797156 0.219663 -1.122619
v -1.346900 0.245706 -1.260729
v -1.294279 -0.341833 -2.088483
v -0.985405 -0.659743 -1.644992
v -1.388553 -0.402883 -1.426842
vn -0.1328 0.8685 -0.4776
vn -0.3264 0.9038 0.2766
vn 0.2126 -0.7180 -0.6628
vn 0.1543 -0.3862 -0.9094
vn -0.1218 -0.3400 0.9325
vn 0.5961 0.6015 -0.5318
vn 0.8723 0.4317 0.2295
vn -0.0989 0.8292 0.5501
vn 0.6101 -0.7829 -0.1220
vn 0.0079 -0.6401 0.7682
vn -0.9983 -0.0084 -0.0575
vn -0.5897 -0.7922 -0.1571
vn -0.6794 0.2019 -0.7054
vt 0.550384 0.206938
vt 0.375000 0.305791
vt 0.375000 0.049496
vt 0.180791 0.500000
vt 0.330928 0.574320
vt 0.125000 0.700504
vt 0.804283 0.500000
vt 0.842867 0.681766
vt 0.658516 0.626313
vt 0.875000 0.500000
vt 0.501754 0.540833
vt 0.565165 0.799791
vt 0.325310 0.750000
vt 0.604031 0.069198
vt 0.375000 1.000000
vt 0.375000 0.799690
vt 0.578028 1.000000
vt 0.615335 0.592735
vt 0.589707 0.775249
vt 0.581909 0.353207
s 0
g Cube_Material
usemtl Material
f 300/471/286 302/472/286 301/473/286
f 302/474/287 305/475/287 301/476/287
f 306/477/288 303/478/288 307/479/288
f 303/478/289 306/477/289 300/480/289
f 308/481/290 299/482/290 304/483/290 305/475/290
f 301/473/291 303/484/291 300/471/291
f 301/485/292 304/486/292 299/482/292 303/487/292
f 305/475/293 304/483/293 301/476/293
f 307/488/294 303/478/294 299/489/294
f 299/482/295 308/481/295 307/488/295
f 308/481/296 305/475/296 302/472/296 306/490/296
f 308/481/297 306/490/297 307/488/297
f 302/472/298 300/471/298 306/490/298
o Cube
v -1.151216 0.305718 -0.898068
v -2.226849 0.298769 -0.800510
v -1.801113 0.018665 -0.355167
v -2.122601 -0.296859 -0.745034
v -1.694031 0.662873 -0.845767
v -1.306728 -0.189157 -0.596046
v -1.658699 -0.519170 -0.797943
v -2.076345 0.095123 -1.368911
v -1.510462 0.165383 -1.463112
v -1.601927 -0.301814 -1.374017
vn -0.7421 -0.0678 0.6668
vn -0.2313 -0.6541 0.7201
vn -0.1993 0.7332 -0.6501
vn -0.5387 0.7377 -0.4069
vn 0.8155 -0.5299 -0.2327
vn -0.3516 0.6035 0.7157
vn 0.4563 0.4349 0.7763
vn 0.1242 -0.6109 0.7819
vn 0.4514 0.7556 -0.4747
vn 0.8434 -0.2553 -0.4728
vn -0.5173 -0.7443 -0.4224
vn -0.1430 -0.1583 -0.9770
vn -0.9642 -0.1863 -0.1886
vt 0.550384 0.206938
vt 0.375000 0.305791
vt 0.375000 0.049496
vt 0.180791 0.500000
vt 0.330928 0.574320
vt 0.125000 0.700504
vt 0.804283 0.500000
vt 0.842867 0.681766
vt 0.658516 0.626313
vt 0.875000 0.500000
vt 0.501754 0.540833
vt 0.565165 0.799791
vt 0.325310 0.750000
vt 0.604031 0.069198
vt 0.375000 1.000000
vt 0.375000 0.799690
vt 0.578028 1.000000
vt 0.615335 0.592735
vt 0.589707 0.775249
vt 0.581909 0.353207
s 0
g Cube_Material
usemtl Material
f 310/491/299 312/492/299 311/493/299
f 312/494/300 315/495/300 311/496/300
f 316/497/301 313/498/301 317/499/301
f 313/498/302 316/497/302 310/500/302
f 318/501/303 309/502/303 314/503/303 315/495/303
f 311/493/304 313/504/304 310/491/304
f 311/505/305 314/506/305 309/502/305 313/507/305
f 315/495/306 314/503/306 311/496/306
f 317/508/307 313/498/307 309/509/307
f 309/502/308 318/501/308 317/508/308
f 318/501/309 315/495/309 312/492/309 316/510/309
f 318/501/310 316/510/310 317/508/310
f 312/492/311 310/491/311 316/510/311
o Cube
v 1.416343 0.121210 -0.252670
v 1.442796 0.714353 -0.655667
v 1.788880 0.434071 -0.593613
v 1.759291 0.786625 -0.416162
v 1.255889 0.332052 -0.595268
v 1.790448 0.259113 -0.244399
v 1.852420 0.588197 -0.151591
v 1.287273 0.812219 -0.285330
v 1.221587 0.494094 -0.080569
v 1.487081 0.638981 0.029271
vn 0.4821 0.4258 -0.7656
vn 0.9623 0.1824 -0.2019
vn -0.9851 0.1340 -0.1078
vn -0.8326 0.3377 -0.4389
vn 0.2529 -0.4244 0.8694
vn 0.0362 -0.1732 -0.9842
vn 0.2246 -0.8278 -0.5142
vn 0.9832 -0.1611 -0.0852
vn -0.8626 -0.4961 0.0987
vn -0.1107 -0.4636 0.8791
vn 0.2410 0.8676 0.4349
vn -0.5544 0.5284 0.6430
vn -0.0208 0.9644 -0.2636
vt 0.550384 0.206938
vt 0.375000 0.305791
vt 0.375000 0.049496
vt 0.180791 0.500000
vt 0.330928 0.574320
vt 0.125000 0.700504
vt 0.804283 0.500000
vt 0.842867 0.681766
vt 0.658516 0.626313
vt 0.875000 0.500000
vt 0.501754 0.540833
vt 0.565165 0.799791
vt 0.325310 0.750000
vt 0.604031 0.069198
vt 0.375000 1.000000
vt 0.375000 0.799690
vt 0.578028 1.000000
vt 0.615335 0.592735
vt 0.589707 0.775249
vt 0.581909 0.353207
s 0
g Cube_Material
usemtl Material
f 320/511/312 322/512/312 321/513/312
f 322/514/313 325/515/313 321/516/313
f 326/517/314 323/518/314 327/519/314
f 323/518/315 326/517/315 320/520/315
f 328/521/316 319/522/316 324/523/316 325/515/316
f 321/513/317 323/524/317 320/511/317
f 321/525/318 324/526/318 319/522/318 323/527/318
f 325/515/319 324/523/319 321/516/319
f 327/528/320 323/518/320 319/529/320
f 319/522/321 328/521/321 327/528/321
f 328/521/322 325/515/322 322/512/322 326/530/322
f 328/521/323 326/530/323 327/528/323
f 322/512/324 320/511/324 326/530/324
o Cube
v 6.255134 0.458386 -2.474006
v 5.666012 1.417192 -2.345030
v 5.449092 0.780290 -2.119047
v 5.218386 1.062355 -2.626542
v 6.243422 1.088214 -2.208404
v 5.643082 0.311280 -2.469090
v 5.298202 0.560271 -2.815392
v 5.843522 1.362733 -2.970635
v 6.226392 0.898034 -3.040250
v 5.767409 0.765806 -3.213006
vn -0.7011 0.4383 0.5624
vn -0.9260 -0.2527 0.2805
vn 0.7495 0.6418 -0.1621
vn 0.4832 0.8734 0.0611
vn 0.0901 -0.8565 -0.5082
vn -0.0271 0.3425 0.9391
vn 0.2037 -0.4492 0.8699
vn -0.7509 -0.5653 0.3413
vn 0.9992 0.0301 -0.0273
vn 0.4183 -0.7070 -0.5702
vn -0.6244 0.2835 -0.7279
vn 0.2448 0.3378 -0.9088
vn -0.5179 0.8270 -0.2189
vt 0.550384 0.206938
vt 0.375000 0.305791
vt 0.375000 0.049496
vt 0.180791 0.500000
vt 0.330928 0.574320
vt 0.125000 0.700504
vt 0.804283 0.500000
vt 0.842867 0.681766
vt 0.658516 0.626313
vt 0.875000 0.500000
vt 0.501754 0.540833
vt 0.565165 0.799791
vt 0.325310 0.750000
vt 0.604031 0.069198
vt 0.375000 1.000000
vt 0.375000 0.799690
vt 0.578028 1.000000
vt 0.615335 0.592735
vt 0.589707 0.775249
vt 0.581909 0.353207
s 0
g Cube_Material
usemtl Material
f 330/531/325 332/532/325 331/533/325
f 332/534/326 335/535/326 331/536/326
f 336/537/327 333/538/327 337/539/327
f 333/538/328 336/537/328 330/540/328
f 338/541/329 329/542/329 334/543/329 335/535/329
f 331/533/330 333/544/330 330/531/330
f 331/545/331 334/546/331 329/542/331 333/547/331
f 335/535/332 334/543/332 331/536/332
f 337/548/333 333/538/333 329/549/333
f 329/542/334 338/541/334 337/548/334
f 338/541/335 335/535/335 332/532/335 336/550/335
f 338/541/336 336/550/336 337/548/336
f 332/532/337 330/531/337 336/550/337
o Cube
v -4.183583 0.145071 3.218861
v -4.307414 0.506312 4.210946
v -4.808586 0.390738 3.787646
v -4.614060 0.928072 3.918932
v -4.090631 0.033417 3.843796
v -4.671574 0.477815 3.232253
v -4.649909 0.959633 3.412197
v -3.891315 0.853507 3.925622
v -3.759209 0.627319 3.420675
v -4.045488 1.002934 3.355894
vn -0.6512 0.0508 0.7572
vn -0.9433 0.3203 0.0867
vn 0.9017 -0.2541 0.3497
vn 0.6750 -0.2339 0.6998
vn -0.0010 0.2304 -0.9731
vn -0.3830 -0.6696 0.6363
vn -0.4857 -0.8589 -0.1627
vn -0.9676 0.1253 -0.2191
vn 0.7762 -0.5906 -0.2210
vn 0.3371 0.0954 -0.9366
vn 0.0292 0.9866 0.1607
vn 0.7988 0.5986 -0.0592
vn 0.0539 0.5946 0.8022
vt 0.550384 0.206938
vt 0.375000 0.305791
vt 0.375000 0.049496
vt 0.180791 0.500000
vt 0.330928 0.574320
vt 0.125000 0.700504
vt 0.804283 0.500000
vt 0.842867 0.681766
vt 0.658516 0.626313
vt 0.875000 0.500000
vt 0.501754 0.540833
vt 0.565165 0.799791
vt 0.325310 0.750000
vt 0.604031 0.069198
vt 0.375000 1.000000
vt 0.375000 0.799690
vt 0.578028 1.000000
vt 0.615335 0.592735
vt 0.589707 0.775249
vt 0.581909 0.353207
s 0
g Cube_Material
usemtl Material
f 340/551/338 342/552/338 341/553/338
f 342/554/339 345/555/339 341/556/339
f 346/557/340 343/558/340 347/559/340
f 343/558/341 346/557/341 340/560/341
f 348/561/342 339/562/342 344/563/342 345/555/342
f 341/553/343 343/564/343 340/551/343
f 341/565/344 344/566/344 339/562/344 343/567/344
f 345/555/345 344/563/345 341/556/345
f 347/568/346 343/558/346 339/569/346
f 339/562/347 348/561/347 347/568/347
f 348/561/348 345/555/348 342/552/348 346/570/348
f 348/561/349 346/570/349 347/568/349
f 342/552/350 340/551/350 346/570/350
o Cube
v -2.993827 0.413435 5.030482
v -2.513762 0.936581 5.348163
v -2.724561 0.571992 5.593547
v -2.852864 0.980499 5.620793
v -2.563580 0.601298 5.028510
v -3.105772 0.462853 5.445100
v -3.179664 0.806424 5.580695
v -2.831578 1.153592 5.118526
v -3.060733 0.883712 4.899646
v -3.241043 0.988842 5.179121
vn 0.6313 0.1475 0.7614
vn -0.0742 -0.0895 0.9932
vn 0.4112 0.3375 -0.8467
vn 0.7032 0.4331 -0.5639
vn -0.9484 -0.2982 -0.1074
vn 0.9016 -0.3610 0.2382
vn 0.3241 -0.9396 0.1096
vn -0.2310 -0.3998 0.8870
vn 0.1059 -0.2525 -0.9618
vn -0.8538 -0.2487 -0.4573
vn -0.3831 0.8537 0.3528
vn -0.3827 0.7558 -0.5313
vn 0.3680 0.8742 0.3169
vt 0.550384 0.206938
vt 0.375000 0.305791
vt 0.375000 0.049496
vt 0.180791 0.500000
vt 0.330928 0.574320
vt 0.125000 0.700504
vt 0.804283 0.500000
vt 0.842867 0.681766
vt 0.658516 0.626313
vt 0.875000 0.500000
vt 0.501754 0.540833
vt 0.565165 0.799791
vt 0.325310 0.750000
vt 0.604031 0.069198
vt 0.375000 1.000000
vt 0.375000 0.799690
vt 0.578028 1.000000
vt 0.615335 0.592735
vt 0.589707 0.775249
vt 0.581909 0.353207
s 0
g Cube_Material
usemtl Material
f 350/571/351 352/572/351 351/573/351
f 352/574/352 355/575/352 351/576/352
f 356/577/353 353/578/353 357/579/353
f 353/578/354 356/577/354 350/580/354
f 358/581/355 349/582/355 354/583/355 355/575/355
f 351/573/356 353/584/356 350/571/356
f 351/585/357 354/586/357 349/582/357 353/587/357
f 355/575/358 354/583/358 351/576/358
f 357/588/359 353/578/359 349/589/359
f 349/582/360 358/581/360 357/588/360
f 358/581/361 355/575/361 352/572/361 356/590/361
f 358/581/362 356/590/362 357/588/362
f 352/572/363 350/571/363 356/590/363
o Cube
v 3.217079 0.235618 -3.848705
v 4.030129 0.736506 -4.136518
v 4.030424 0.277246 -3.712638
v 4.073458 0.809983 -3.582308
v 3.578198 0.384791 -4.306645
v 3.572269 0.244330 -3.423251
v 3.748330 0.664952 -3.264023
v 3.621890 1.114353 -3.992435
v 3.159742 0.862278 -3.904547
v 3.341926 0.979248 -3.513188
vn 0.9956 -0.0634 -0.0694
vn 0.7306 -0.2174 0.6473
vn -0.3711 0.3860 -0.8446
vn 0.0398 0.3932 -0.9186
vn -0.6858 -0.1273 0.7166
vn 0.6268 -0.5283 -0.5728
vn 0.0765 -0.9848 -0.1561
vn 0.4927 -0.4808 0.7253
vn -0.7585 -0.1264 -0.6393
vn -0.9006 -0.0439 0.4324
vn 0.2406 0.8442 0.4791
vn -0.4838 0.8744 -0.0361
vn 0.6426 0.7514 -0.1499
vt 0.550384 0.206938
vt 0.375000 0.305791
vt 0.375000 0.049496
vt 0.180791 0.500000
vt 0.330928 0.574320
vt 0.125000 0.700504
vt 0.804283 0.500000
vt 0.842867 0.681766
vt 0.658516 0.626313
vt 0.875000 0.500000
vt 0.501754 0.540833
vt 0.565165 0.799791
vt 0.325310 0.750000
vt 0.604031 0.069198
vt 0.375000 1.000000
vt 0.375000 0.799690
vt 0.578028 1.000000
vt 0.615335 0.592735
vt 0.589707 0.775249
vt 0.581909 0.353207
s 0
g Cube_Material
usemtl Material
f 360/591/364 362/592/364 361/593/364
f 362/594/365 365/595/365 361/596/365
f 366/597/366 363/598/366 367/599/366
f 363/598/367 366/597/367 360/600/367
f 368/601/368 359/602/368 364/603/368 365/595/368
f 361/593/369 363/604/369 360/591/369
f 361/605/370 364/606/370 359/602/370 363/607/370
f 365/595/371 364/603/371 361/596/371
f 367/608/372 363/598/372 359/609/372
f 359/602/373 368/601/373 367/608/373
f 368/601/374 365/595/374 362/592/374 366/610/374
f 368/601/375 366/610/375 367/608/375
f 362/592/376 360/591/376 366/610/376
o Cube
v -5.177682 -0.321728 -1.643616
v -4.566711 -0.023501 -2.068929
v -4.522502 -0.389130 -1.727055
v -4.396397 0.028635 -1.654745
v -4.991631 -0.246970 -2.084145
v -4.807716 -0.359282 -1.397956
v -4.587000 -0.047041 -1.330129
v -4.799020 0.326800 -1.877133
v -5.160012 0.183339 -1.694772
v -4.916729 0.253182 -1.439317
vn 0.9124 -0.2152 -0.3481
vn 0.8460 -0.3281 0.4203
vn -0.5381 0.4400 -0.7189
vn -0.1696 0.3844 -0.9075
vn -0.4606 -0.0221 0.8873
vn 0.3497 -0.6169 -0.7050
vn -0.1178 -0.9845 -0.1296
vn 0.6046 -0.5521 0.5741
vn -0.9207 -0.0073 -0.3901
vn -0.7336 0.0938 0.6730
vn 0.4903 0.7963 0.3542
vn -0.3393 0.9383 0.0666
vn 0.6754 0.6443 -0.3588
vt 0.550384 0.206938
vt 0.375000 0.305791
vt 0.375000 0.049496
vt 0.180791 0.500000
vt 0.330928 0.574320
vt 0.125000 0.700504
vt 0.804283 0.500000
vt 0.842867 0.681766
vt 0.658516 0.626313
vt 0.875000 0.500000
vt 0.501754 0.540833
vt 0.565165 0.799791
vt 0.325310 0.750000
vt 0.604031 0.069198
vt 0.375000 1.000000
vt 0.375000 0.799690
vt 0.578028 1.000000
vt 0.615335 0.592735
vt 0.589707 0.775249
vt 0.581909 0.353207
s 0
g Cube_Material
usemtl Material
f 370/611/377 372/612/377 371/613/377
f 372/614/378 375/615/378 371/616/378
f 376/617/379 373/618/379 377/619/379
f 373/618/380 376/617/380 370/620/380
f 378/621/381 369/622/381 374/623/381 375/615/381
f 371/613/382 373/624/382 370/611/382
f 371/625/383 374/626/383 369/622/383 373/627/383
f 375/615/384 374/623/384 371/616/384
f 377/628/385 373/618/385 369/629/385
f 369/622/386 378/621/386 377/628/386
f 378/621/387 375/615/387 372/612/387 376/630/387
f 378/621/388 376/630/388 377/628/388
f 372/612/389 370/611/389 376/630/389
o Cube
v 3.361689 0.279890 2.250341
v 4.188635 0.191681 1.972161
v 3.877458 -0.222230 2.155989
v 4.233074 -0.020904 2.414763
v 3.699637 0.336988 1.847033
v 3.562229 -0.093715 2.490589
v 3.926853 -0.039572 2.701418
v 4.170391 0.566088 2.310887
v 3.724803 0.664231 2.420514
v 3.889765 0.460931 2.713930
vn 0.6497 -0.6577 -0.3811
vn 0.3136 -0.9086 0.2759
vn 0.0684 0.8652 -0.4967
vn 0.3632 0.6348 -0.6821
vn -0.6091 0.0408 0.7920
vn 0.0895 -0.4597 -0.8836
vn -0.6443 -0.5649 -0.5156
vn -0.0451 -0.9460 0.3209
vn -0.5800 0.7182 -0.3844
vn -0.6819 0.3631 0.6350
vn 0.7447 0.1234 0.6558
vn 0.2935 0.8551 0.4274
vn 0.9939 0.0967 -0.0533
vt 0.550384 0.206938
vt 0.375000 0.305791
vt 0.375000 0.049496
vt 0.180791 0.500000
vt 0.330928 0.574320
vt 0.125000 0.700504
vt 0.804283 0.500000
vt 0.842867 0.681766
vt 0.658516 0.626313
vt 0.875000 0.500000
vt 0.501754 0.540833
vt 0.565165 0.799791
vt 0.325310 0.750000
vt 0.604031 0.069198
vt 0.375000 1.000000
vt 0.375000 0.799690
vt 0.578028 1.000000
vt 0.615335 0.592735
vt 0.589707 0.775249
vt 0.581909 0.353207
s 0
g Cube_Material
usemtl Material
f 380/631/390 382/632/390 381/633/390
f 382/634/391 385/635/391 381/636/391
f 386/637/392 383/638/392 387/639/392
f 383/638/393 386/637/393 380/640/393
f 388/641/394 379/642/394 384/643/394 385/635/394
f 381/633/395 383/644/395 380/631/395
f 381/645/396 384/646/396 379/642/396 383/647/396
f 385/635/397 384/643/397 381/636/397
f 387/648/398 383/638/398 379/649/398
f 379/642/399 388/641/399 387/648/399
f 388/641/400 385/635/400 382/632/400 386/650/400
f 388/641/401 386/650/401 387/648/401
f 382/632/402 380/631/402 386/650/402
o Cube
v 3.968401 -0.259751 3.343556
v 3.843889 -0.070888 2.190450
v 3.848794 0.460249 2.700395
v 3.309815 0.252504 2.406388
v 4.255948 -0.329643 2.699019
v 3.608999 0.279864 3.265261
v 3.140405 0.265520 2.942744
v 3.400534 -0.545188 2.382289
v 3.510164 -0.717601 2.976970
v 3.086429 -0.404793 2.960712
vn 0.1261 0.6864 -0.7162
vn -0.3005 0.9465 -0.1179
vn 0.3410 -0.8842 -0.3192
vn 0.4033 -0.6411 -0.6530
vn -0.4583 -0.0451 0.8877
vn 0.7990 0.4126 -0.4374
vn 0.7887 0.4772 0.3875
vn -0.1853 0.9562 0.2267
vn 0.5285 -0.7859 0.3210
vn -0.3147 -0.3811 0.8693
vn -0.9183 -0.0213 -0.3954
vn -0.5862 -0.8006 -0.1240
vn -0.3829 -0.0156 -0.9236
vt 0.550384 0.206938
vt 0.375000 0.305791
vt 0.375000 0.049496
vt 0.180791 0.500000
vt 0.330928 0.574320
vt 0.125000 0.700504
vt 0.804283 0.500000
vt 0.842867 0.681766
vt 0.658516 0.626313
vt 0.875000 0.500000
vt 0.501754 0.540833
vt 0.565165 0.799791
vt 0.325310 0.750000
vt 0.604031 0.069198
vt 0.375000 1.000000
vt 0.375000 0.799690
vt 0.578028 1.000000
vt 0.615335 0.592735
vt 0.589707 0.775249
vt 0.581909 0.353207
s 0
g Cube_Material
usemtl Material
f 390/651/403 392/652/403 391/653/403
f 392/654/404 395/655/404 391/656/404
f 396/657/405 393/658/405 397/659/405
f 393/658/406 396/657/406 390/660/406
f 398/661/407 389/662/407 394/663/407 395/655/407
f 391/653/408 393/664/408 390/651/408
f 391/665/409 394/666/409 389/662/409 393/667/409
f 395/655/410 394/663/410 391/656/410
f 397/668/411 393/658/411 389/669/411
f 389/662/412 398/661/412 397/668/412
f 398/661/413 395/655/413 392/652/413 396/670/413
f 398/661/414 396/670/414 397/668/414
f 392/652/415 390/651/415 396/670/415
o Cube
v 4.592595 0.363664 -1.054557
v 4.589441 -0.188116 -0.210314
v 4.665089 0.439124 -0.226180
v 5.082555 0.082231 -0.137731
v 4.278048 -0.017370 -0.699006
v 4.917953 0.621599 -0.678005
v 5.282557 0.378266 -0.462622
v 4.961914 -0.426107 -0.587488
v 4.921056 -0.184095 -1.068148
v 5.295864 -0.041065 -0.859320
vn -0.1698 0.0454 0.9844
vn 0.3403 0.5813 0.7391
vn -0.4292 -0.8209 -0.3768
vn -0.5164 -0.8558 0.0300
vn 0.5580 0.4995 -0.6627
vn -0.8196 0.1131 0.5617
vn -0.7065 0.7077 -0.0026
vn 0.2681 0.8318 0.4860
vn -0.5322 -0.2995 -0.7918
vn 0.3933 0.2578 -0.8825
vn 0.8613 -0.3933 0.3218
vn 0.5181 -0.7454 -0.4194
vn 0.2677 -0.6733 0.6892
vt 0.550384 0.206938
vt 0.375000 0.305791
vt 0.375000 0.049496
vt 0.180791 0.500000
vt 0.330928 0.574320
vt 0.125000 0.700504
vt 0.804283 0.500000
vt 0.842867 0.681766
vt 0.658516 0.626313
vt 0.875000 0.500000
vt 0.501754 0.540833
vt 0.565165 0.799791
vt 0.325310 0.750000
vt 0.604031 0.069198
vt 0.375000 1.000000
vt 0.375000 0.799690
vt 0.578028 1.000000
vt 0.615335 0.592735
vt 0.589707 0.775249
vt 0.581909 0.353207
s 0
g Cube_Material
usemtl Material
f 400/671/416 402/672/416 401/673/416
f 402/674/417 405/675/417 401/676/417
f 406/677/418 403/678/418 407/679/418
f 403/678/419 406/677/419 400/680/419
f 408/681/420 399/682/420 404/683/420 405/675/420
f 401/673/421 403/684/421 400/671/421
f 401/685/422 404/686/422 399/682/422 403/687/422
f 405/675/423 404/683/423 401/676/423
f 407/688/424 403/678/424 399/689/424
f 399/682/425 408/681/425 407/688/425
f 408/681/426 405/675/426 402/672/426 406/690/426
f 408/681/427 406/690/427 407/688/427
f 402/672/428 400/671/428 406/690/428
o Cube
v -2.885714 0.496077 -2.724742
v -2.596784 -0.222608 -3.462743
v -2.185874 0.024939 -2.994440
v -2.170029 0.189758 -3.560852
v -2.986034 -0.092526 -2.970590
v -2.307357 0.572948 -2.839318
v -2.146973 0.644773 -3.326692
v -2.875339 0.249554 -3.744520
v -3.102473 0.605050 -3.357492
v -2.701569 0.798909 -3.536000
vn 0.6584 -0.7274 -0.1932
vn 0.9983 -0.0565 0.0115
vn -0.9171 -0.2992 -0.2634
vn -0.6832 -0.6267 -0.3747
vn 0.0413 0.9570 0.2871
vn 0.1460 -0.9218 0.3591
vn 0.1400 -0.3271 0.9346
vn 0.9383 0.1158 0.3258
vn -0.9445 0.0241 0.3277
vn -0.3209 0.9089 0.2664
vn 0.3315 0.3254 -0.8856
vn -0.5346 0.4424 -0.7201
vn 0.1963 -0.4145 -0.8886
vt 0.550384 0.206938
vt 0.375000 0.305791
vt 0.375000 0.049496
vt 0.180791 0.500000
vt 0.330928 0.574320
vt 0.125000 0.700504
vt 0.804283 0.500000
vt 0.842867 0.681766
vt 0.658516 0.626313
vt 0.875000 0.500000
vt 0.501754 0.540833
vt 0.565165 0.799791
vt 0.325310 0.750000
vt 0.604031 0.069198
vt 0.375000 1.000000
vt 0.375000 0.799690
vt 0.578028 1.000000
vt 0.615335 0.592735
vt 0.589707 0.775249
vt 0.581909 0.353207
s 0
g Cube_Material
usemtl Material
f 410/691/429 412/692/429 411/693/429
f 412/694/430 415/695/430 411/696/430
f 416/697/431 413/698/431 417/699/431
f 413/698/432 416/697/432 410/700/432
f 418/701/433 409/702/433 414/703/433 415/695/433
f 411/693/434 413/704/434 410/691/434
f 411/705/435 414/706/435 409/702/435 413/707/435
f 415/695/436 414/703/436 411/696/436
f 417/708/437 413/698/437 409/709/437
f 409/702/438 418/701/438 417/708/438
f 418/701/439 415/695/439 412/692/439 416/710/439
f 418/701/440 416/710/440 417/708/440
f 412/692/441 410/691/441 416/710/441
o Cube
v -3.866312 0.497915 1.382939
v -3.983862 0.075740 2.079060
v -3.542857 0.079843 1.812274
v -3.833098 -0.268885 1.810040
v -3.979248 0.519911 1.865889
v -3.598213 0.127840 1.370566
v -3.755369 -0.234033 1.425516
v -4.337721 -0.022808 1.779625
v -4.317259 0.240796 1.427710
v -4.196466 -0.095474 1.336095
vn 0.4767 -0.4018 0.7819
vn 0.7647 -0.6371 0.0968
vn -0.8137 0.4870 0.3175
vn -0.6616 0.3300 0.6733
vn 0.0748 -0.0466 -0.9961
vn 0.4770 0.3762 0.7943
vn 0.7556 0.6517 0.0654
vn 0.8969 -0.4134 -0.1573
vn -0.5009 0.8513 -0.1559
vn -0.2031 0.1888 -0.9608
vn -0.3701 -0.9273 -0.0555
vn -0.9304 -0.2653 -0.2528
vn -0.3644 -0.6668 0.6501
vt 0.550384 0.206938
vt 0.375000 0.305791
vt 0.375000 0.049496
vt 0.180791 0.500000
vt 0.330928 0.574320
vt 0.125000 0.700504
vt 0.804283 0.500000
vt 0.842867 0.681766
vt 0.658516 0.626313
vt 0.875000 0.500000
vt 0.501754 0.540833
vt 0.565165 0.799791
vt 0.325310 0.750000
vt 0.604031 0.069198
vt 0.375000 1.000000
vt 0.375000 0.799690
vt 0.578028 1.000000
vt 0.615335 0.592735
vt 0.589707 0.775249
vt 0.581909 0.353207
s 0
g Cube_Material
usemtl Material
f 420/711/442 422/712/442 421/713/442
f 422/714/443 425/715/443 421/716/443
f 426/717/444 423/718/444 427/719/444
f 423/718/445 426/717/445 420/720/445
f 428/721/446 419/722/446 424/723/446 425/715/446
f 421/713/447 423/724/447 420/711/447
f 421/725/448 424/726/448 419/722/448 423/727/448
f 425/715/449 424/723/449 421/716/449
f 427/728/450 423/718/450 419/729/450
f 419/722/451 428/721/451 427/728/451
f 428/721/452 425/715/452 422/712/452 426/730/452
f 428/721/453 426/730/453 427/728/453
f 422/712/454 420/711/454 426/730/454
o Cube
v -0.642216 0.725516 3.991442
v -1.079335 0.626145 3.285849
v -1.215412 0.422837 3.749026
v -1.031392 0.174548 3.406839
v -0.895308 0.952104 3.618402
v -0.861863 0.316824 4.015125
v -0.816433 0.044996 3.718620
v -0.619307 0.512159 3.200228
v -0.365459 0.617830 3.553065
v -0.418894 0.246891 3.544748
vn -0.9157 -0.1918 -0.3532
vn -0.6718 -0.7225 0.1630
vn 0.4093 0.7503 -0.5192
vn 0.0416 0.7019 -0.7110
vn 0.6275 -0.4228 0.6538
vn -0.8583 0.5124 -0.0273
vn -0.5342 0.4274 0.7294
vn -0.5732 -0.6459 0.5043
vn 0.5406 0.8300 0.1374
vn 0.8235 -0.1310 0.5520
vn 0.2262 -0.7648 -0.6032
vn 0.8219 -0.1059 -0.5596
vn -0.2413 -0.2750 -0.9307
vt 0.550384 0.206938
vt 0.375000 0.305791
vt 0.375000 0.049496
vt 0.180791 0.500000
vt 0.330928 0.574320
vt 0.125000 0.700504
vt 0.804283 0.500000
vt 0.842867 0.681766
vt 0.658516 0.626313
vt 0.875000 0.500000
vt 0.501754 0.540833
vt 0.565165 0.799791
vt 0.325310 0.750000
vt 0.604031 0.069198
vt 0.375000 1.000000
vt 0.375000 0.799690
vt 0.578028 1.000000
vt 0.615335 0.592735
vt 0.589707 0.775249
vt 0.581909 0.353207
s 0
g Cube_Material
usemtl Material
f 430/731/455 432/732/455 431/733/455
f 432/734/456 435/735/456 431/736/456
f 436/737/457 433/738/457 437/739/457
f 433/738/458 436/737/458 430/740/458
f 438/741/459 429/742/459 434/743/459 435/735/459
f 431/733/460 433/744/460 430/731/460
f 431/745/461 434/746/461 429/742/461 433/747/461
f 435/735/462 434/743/462 431/736/462
f 437/748/463 433/738/463 429/749/463
f 429/742/464 438/741/464 437/748/464
f 438/741/465 435/735/465 432/732/465 436/750/465
f 438/741/466 436/750/466 437/748/466
f 432/732/467 430/731/467 436/750/467
o Cube
v 2.992863 -0.517396 0.366856
v 3.526016 0.051825 0.769744
v 3.012619 0.167309 0.609580
v 3.406590 0.323662 0.375530
v 3.277647 -0.410574 0.800664
v 2.874202 -0.068335 0.217633
v 3.172142 0.187231 0.054480
v 3.772275 -0.152034 0.377863
v 3.520598 -0.502618 0.192388
v 3.495033 -0.186046 -0.040169
vn 0.0089 0.8245 0.5658
vn -0.4110 0.9076 -0.0855
vn 0.6558 -0.6624 0.3622
vn 0.7074 -0.3384 0.6206
vn -0.4129 -0.2793 -0.8669
vn -0.2510 0.1982 0.9475
vn -0.8524 -0.1527 0.5002
vn -0.6944 0.6981 -0.1745
vn 0.0880 -0.9791 0.1833
vn -0.2392 -0.5873 -0.7732
vn 0.6154 0.5595 -0.5551
vn 0.8041 -0.3084 -0.5082
vn 0.7798 0.6003 0.1777
vt 0.550384 0.206938
vt 0.375000 0.305791
vt 0.375000 0.049496
vt 0.180791 0.500000
vt 0.330928 0.574320
vt 0.125000 0.700504
vt 0.804283 0.500000
vt 0.842867 0.681766
vt 0.658516 0.626313
vt 0.875000 0.500000
vt 0.501754 0.540833
vt 0.565165 0.799791
vt 0.325310 0.750000
vt 0.604031 0.069198
vt 0.375000 1.000000
vt 0.375000 0.799690
vt 0.578028 1.000000
vt 0.615335 0.592735
vt 0.589707 0.775249
vt 0.581909 0.353207
s 0
g Cube_Material
usemtl Material
f 440/751/468 442/752/468 441/753/468
f 442/754/469 445/755/469 441/756/469
f 446/757/470 443/758/470 447/759/470
f 443/758/471 446/757/471 440/760/471
f 448/761/472 439/762/472 444/763/472 445/755/472
f 441/753/473 443/764/473 440/751/473
f 441/765/474 444/766/474 439/762/474 443/767/474
f 445/755/475 444/763/475 441/756/475
f 447/768/476 443/758/476 439/769/476
f 439/762/477 448/761/477 447/768/477
f 448/761/478 445/755/478 442/752/478 446/770/478
f 448/761/479 446/770/479 447/768/479
f 442/752/480 440/751/480 446/770/480
o Cube
v 0.481672 0.777789 -2.868542
v 0.142337 0.511857 -3.572824
v 0.118593 1.000181 -3.403377
v -0.231780 0.709933 -3.382221
v 0.559867 0.567529 -3.313589
v 0.113611 1.037743 -2.955500
v -0.241945 0.866209 -3.019189
v 0.005577 0.224480 -3.219210
v 0.226807 0.321451 -2.849203
v -0.118211 0.453607 -2.824430
vn -0.3026 0.2993 -0.9049
vn -0.6146 0.7181 -0.3264
vn 0.5141 -0.8537 -0.0836
vn 0.4015 -0.7806 -0.4791
vn -0.1632 0.2772 0.9468
vn 0.4715 0.3095 -0.8258
vn 0.6613 0.7364 -0.1428
vn -0.4214 0.9033 -0.0804
vn 0.8227 -0.4444 0.3545
vn 0.0723 0.0019 0.9974
vn -0.9305 -0.3656 0.0215
vn -0.3013 -0.8627 0.4062
vn -0.5885 -0.5009 -0.6347
vt 0.550384 0.206938
vt 0.375000 0.305791
vt 0.375000 0.049496
vt 0.180791 0.500000
vt 0.330928 0.574320
vt 0.125000 0.700504
vt 0.804283 0.500000
vt 0.842867 0.681766
vt 0.658516 0.626313
vt 0.875000 0.500000
vt 0.501754 0.540833
vt 0.565165 0.799791
vt 0.325310 0.750000
vt 0.604031 0.069198
vt 0.375000 1.000000
vt 0.375000 0.799690
vt 0.578028 1.000000
vt 0.615335 0.592735
vt 0.589707 0.775249
vt 0.581909 0.353207
s 0
g Cube_Material
usemtl Material
f 450/771/481 452/772/481 451/773/481
f 452/774/482 455/775/482 451/776/482
f 456/777/483 453/778/483 457/779/483
f 453/778/484 456/777/484 450/780/484
f 458/781/485 449/782/485 454/783/485 455/775/485
f 451/773/486 453/784/486 450/771/486
f 451/785/487 454/786/487 449/782/487 453/787/487
f 455/775/488 454/783/488 451/776/488
f 457/788/489 453/778/489 449/789/489
f 449/782/490 458/781/490 457/788/490
f 458/781/491 455/775/491 452/772/491 456/790/491
f 458/781/492 456/790/492 457/788/492
f 452/772/493 450/771/493 456/790/493
o Cube
v 2.366765 0.608771 -1.948632
v 2.165821 -0.380072 -1.878931
v 2.422369 -0.102178 -2.387510
v 1.889985 -0.267178 -2.363214
v 2.473600 0.088077 -1.648412
v 2.256969 0.417115 -2.465539
v 1.840320 0.175228 -2.553843
v 1.688827 -0.081040 -1.728505
v 1.802600 0.446836 -1.691831
v 1.575418 0.368052 -2.076411
vn 0.2615 -0.8964 -0.3579
vn 0.0780 -0.3871 -0.9187
vn -0.0908 -0.0495 0.9946
vn 0.0042 -0.4440 0.8960
vn -0.2825 0.8791 -0.3840
vn 0.8104 -0.5785 0.0927
vn 0.9656 0.1871 -0.1807
vn 0.2442 -0.0676 -0.9674
vn 0.2252 0.5209 0.8233
vn -0.2870 0.9576 -0.0266
vn -0.9060 -0.3276 -0.2680
vn -0.8643 0.1530 0.4792
vn -0.5085 -0.8564 0.0900
vt 0.550384 0.206938
vt 0.375000 0.305791
vt 0.375000 0.049496
vt 0.180791 0.500000
vt 0.330928 0.574320
vt 0.125000 0.700504
vt 0.804283 0.500000
vt 0.842867 0.681766
vt 0.658516 0.626313
vt 0.875000 0.500000
vt 0.501754 0.540833
vt 0.565165 0.799791
vt 0.325310 0.750000
vt 0.604031 0.069198
vt 0.375000 1.000000
vt 0.375000 0.799690
vt 0.578028 1.000000
vt 0.615335 0.592735
vt 0.589707 0.775249
vt 0.581909 0.353207
s 0
g Cube_Material
usemtl Material
f 460/791/494 462/792/494 461/793/494
f 462/794/495 465/795/495 461/796/495
f 466/797/496 463/798/496 467/799/496
f 463/798/497 466/797/497 460/800/497
f 468/801/498 459/802/498 464/803/498 465/795/498
f 461/793/499 463/804/499 460/791/499
f 461/805/500 464/806/500 459/802/500 463/807/500
f 465/795/501 464/803/501 461/796/501
f 467/808/502 463/798/502 459/809/502
f 459/802/503 468/801/503 467/808/503
f 468/801/504 465/795/504 462/792/504 466/810/504
f 468/801/505 466/810/505 467/808/505
f 462/792/506 460/791/506 466/810/506
o Cube
v -2.734867 -0.292422 -0.797529
v -2.838995 0.579284 -0.535363
v -2.394209 0.247541 -0.388001
v -2.771616 0.363457 -0.072538
v -2.786895 0.233984 -0.958701
v -2.507994 -0.236122 -0.345167
v -2.734438 -0.068020 -0.002656
v -3.284058 0.316002 -0.429385
v -3.265264 -0.133868 -0.623378
v -3.204381 -0.157518 -0.217750
vn 0.5027 0.8092 0.3041
vn 0.6625 0.1750 0.7283
vn -0.6819 0.2654 -0.6816
vn -0.5127 0.6333 -0.5797
vn -0.0588 -0.9607 0.2713
vn 0.6254 0.6406 -0.4455
vn 0.8498 -0.1538 -0.5041
vn 0.7949 -0.1346 0.5916
vn -0.3782 -0.3050 -0.8741
vn -0.2901 -0.9569 -0.0123
vn -0.5136 0.1937 0.8359
vn -0.9846 -0.1023 0.1418
vn -0.3791 0.8163 0.4358
vt 0.550384 0.206938
vt 0.375000 0.305791
vt 0.375000 0.049496
vt 0.180791 0.500000
vt 0.330928 0.574320
vt 0.125000 0.700504
vt 0.804283 0.500000
vt 0.842867 0.681766
vt 0.658516 0.626313
vt 0.875000 0.500000
vt 0.501754 0.540833
vt 0.565165 0.799791
vt 0.325310 0.750000
vt 0.604031 0.069198
vt 0.375000 1.000000
vt 0.375000 0.799690
vt 0.578028 1.000000
vt 0.615335 0.592735
vt 0.589707 0.775249
vt 0.581909 0.353207
s 0
g Cube_Material
usemtl Material
f 470/811/507 472/812/507 471/813/507
f 472/814/508 475/815/508 471/816/508
f 476/817/509 473/818/509 477/819/509
f 473/818/510 476/817/510 470/820/510
f 478/821/511 469/822/511 474/823/511 475/815/511
f 471/813/512 473/824/512 470/811/512
f 471/825/513 474/826/513 469/822/513 473/827/513
f 475/815/514 474/823/514 471/816/514
f 477/828/515 473/818/515 469/829/515
f 469/822/516 478/821/516 477/828/516
f 478/821/517 475/815/517 472/812/517 476/830/517
f 478/821/518 476/830/518 477/828/518
f 472/812/519 470/811/519 476/830/519
o Cube
v 1.175298 -0.141358 -1.528795
v 1.006718 0.744764 -2.186168
v 0.840655 0.087741 -2.359052
v 1.329139 0.385234 -2.586844
v 0.869781 0.454841 -1.599544
v 1.209133 -0.331078 -2.118398
v 1.546995 -0.086557 -2.462187
v 1.616639 0.751611 -1.982580
v 1.700852 0.329868 -1.568142
v 1.901012 0.179407 -2.001506
vn -0.5596 0.3403 -0.7557
vn -0.2179 -0.3421 -0.9140
vn 0.0797 0.7067 0.7030
vn -0.1471 0.8999 0.4104
vn 0.5647 -0.8060 0.1775
vn -0.9594 0.2667 -0.0921
vn -0.8433 -0.4978 0.2025
vn -0.2638 -0.6445 -0.7177
vn -0.0215 0.1070 0.9940
vn 0.6002 -0.6281 0.4953
vn 0.7335 0.2906 -0.6144
vn 0.8694 0.4236 0.2545
vn 0.1818 0.8001 -0.5716
vt 0.550384 0.206938
vt 0.375000 0.305791
vt 0.375000 0.049496
vt 0.180791 0.500000
vt 0.330928 0.574320
vt 0.125000 0.700504
vt 0.804283 0.500000
vt 0.842867 0.681766
vt 0.658516 0.626313
vt 0.875000 0.500000
vt 0.501754 0.540833
vt 0.565165 0.799791
vt 0.325310 0.750000
vt 0.604031 0.069198
vt 0.375000 1.000000
vt 0.375000 0.799690
vt 0.578028 1.000000
vt 0.615335 0.592735
vt 0.589707 0.775249
vt 0.581909 0.353207
s 0
g Cube_Material
usemtl Material
f 480/831/520 482/832/520 481/833/520
f 482/834/521 485/835/521 481/836/521
f 486/837/522 483/838/522 487/839/522
f 483/838/523 486/837/523 480/840/523
f 488/841/524 479/842/524 484/843/524 485/835/524
f 481/833/525 483/844/525 480/831/525
f 481/845/526 484/846/526 479/842/526 483/847/526
f 485/835/527 484/843/527 481/836/527
f 487/848/528 483/838/528 479/849/528
f 479/842/529 488/841/529 487/848/529
f 488/841/530 485/835/530 482/832/530 486/850/530
f 488/841/531 486/850/531 487/848/531
f 482/832/532 480/831/532 486/850/532
o Cube
v -2.161582 0.206310 -0.664131
v -2.466625 -0.272197 -0.278548
v -2.676374 0.010812 -0.524976
v -2.654004 0.038747 -0.148252
v -2.205571 -0.198166 -0.587155
v -2.502949 0.339778 -0.559085
v -2.586652 0.347573 -0.237666
v -2.208596 -0.073861 -0.054234
v -2.005993 0.150834 -0.262187
v -2.216751 0.315060 -0.109672
vn -0.8360 -0.5414 0.0898
vn -0.9737 0.2243 0.0412
vn 0.7968 -0.5874 0.1415
vn 0.4806 -0.8534 0.2018
vn 0.2291 0.9690 -0.0926
vn -0.4028 -0.7524 -0.5212
vn -0.2325 -0.0779 -0.9695
vn -0.8693 0.4337 -0.2369
vn 0.9107 -0.1706 -0.3761
vn 0.5630 0.8198 -0.1048
vn -0.2205 0.2162 0.9511
vn 0.6422 0.1213 0.7568
vn -0.2999 -0.5167 0.8019
vt 0.550384 0.206938
vt 0.375000 0.305791
vt 0.375000 0.049496
vt 0.180791 0.500000
vt 0.330928 0.574320
vt 0.125000 0.700504
vt 0.804283 0.500000
vt 0.842867 0.681766
vt 0.658516 0.626313
vt 0.875000 0.500000
vt 0.501754 0.540833
vt 0.565165 0.799791
vt 0.325310 0.750000
vt 0.604031 0.069198
vt 0.375000 1.000000
vt 0.375000 0.799690
vt 0.578028 1.000000
vt 0.615335 0.592735
vt 0.589707 0.775249
vt 0.581909 0.353207
s 0
g Cube_Material
usemtl Material
f 490/851/533 492/852/533 491/853/533
f 492/854/534 495/855/534 491/856/534
f 496/857/535 493/858/535 497/859/535
f 493/858/536 496/857/536 490/860/536
f 498/861/537 489/862/537 494/863/537 495/855/537
f 491/853/538 493/864/538 490/851/538
f 491/865/539 494/866/539 489/862/539 493/867/539
f 495/855/540 494/863/540 491/856/540
f 497/868/541 493/858/541 489/869/541
f 489/862/542 498/861/542 497/868/542
f 498/861/543 495/855/543 492/852/543 496/870/543
f 498/861/544 496/870/544 497/868/544
f 492/852/545 490/851/545 496/870/545
o Cube
v -0.401684 -0.254306 -1.059803
v -0.849557 0.168799 -1.869023
v -0.694292 0.484683 -1.337724
v -1.219390 0.334134 -1.465477
v -0.361502 -0.129573 -1.659508
v -0.718779 0.176931 -0.878185
v -1.195951 0.199536 -0.998064
v -1.150277 -0.310442 -1.716547
v -0.882177 -0.586385 -1.331601
v -1.232106 -0.363433 -1.142248
vn -0.1328 0.8685 -0.4776
vn -0.3264 0.9038 0.2766
vn 0.2126 -0.7180 -0.6628
vn 0.1543 -0.3862 -0.9094
vn -0.1218 -0.3400 0.9325
vn 0.5961 0.6015 -0.5318
vn 0.8723 0.4317 0.2295
vn -0.0989 0.8292 0.5501
vn 0.6101 -0.7829 -0.1220
vn 0.0079 -0.6401 0.7682
vn -0.9983 -0.0084 -0.0575
vn -0.5897 -0.7922 -0.1571
vn -0.6794 0.2019 -0.7054
vt 0.550384 0.206938
vt 0.375000 0.305791
vt 0.375000 0.049496
vt 0.180791 0.500000
vt 0.330928 0.574320
vt 0.125000 0.700504
vt 0.804283 0.500000
vt 0.842867 0.681766
vt 0.658516 0.626313
vt 0.875000 0.500000
vt 0.501754 0.540833
vt 0.565165 0.799791
vt 0.325310 0.750000
vt 0.604031 0.069198
vt 0.375000 1.000000
vt 0.375000 0.799690
vt 0.578028 1.000000
vt 0.615335 0.592735
vt 0.589707 0.775249
vt 0.581909 0.353207
s 0
g Cube_Material
usemtl Material
f 500/871/546 502/872/546 501/873/546
f 502/874/547 505/875/547 501/876/547
f 506/877/548 503/878/548 507/879/548
f 503/878/549 506/877/549 500/880/549
f 508/881/550 499/882/550 504/883/550 505/875/550
f 501/873/551 503/884/551 500/871/551
f 501/885/552 504/886/552 499/882/552 503/887/552
f 505/875/553 504/883/553 501/876/553
f 507/888/554 503/878/554 499/889/554
f 499/882/555 508/881/555 507/888/555
f 508/881/556 505/875/556 502/872/556 506/890/556
f 508/881/557 506/890/557 507/888/557
f 502/872/558 500/871/558 506/890/558
o Cube
v -1.065094 0.950628 -1.098748
v -1.949404 0.944915 -1.018543
v -1.599393 0.714633 -0.652413
v -1.863698 0.455232 -0.972934
v -1.511358 1.244256 -1.055750
v -1.192945 0.543777 -0.850446
v -1.482311 0.272464 -1.016432
v -1.825670 0.777492 -1.485842
v -1.360441 0.835255 -1.563287
v -1.435637 0.451158 -1.490040
vn -0.7421 -0.0678 0.6668
vn -0.2313 -0.6541 0.7201
vn -0.1993 0.7332 -0.6501
vn -0.5387 0.7377 -0.4069
vn 0.8155 -0.5299 -0.2327
vn -0.3516 0.6035 0.7157
vn 0.4563 0.4349 0.7763
vn 0.1242 -0.6109 0.7819
vn 0.4514 0.7556 -0.4747
vn 0.8434 -0.2553 -0.4728
vn -0.5173 -0.7443 -0.4224
vn -0.1430 -0.1583 -0.9770
vn -0.9642 -0.1863 -0.1886
vt 0.550384 0.206938
vt 0.375000 0.305791
vt 0.375000 0.049496
vt 0.180791 0.500000
vt 0.330928 0.574320
vt 0.125000 0.700504
vt 0.804283 0.500000
vt 0.842867 0.681766
vt 0.658516 0.626313
vt 0.875000 0.500000
vt 0.501754 0.540833
vt 0.565165 0.799791
vt 0.325310 0.750000
vt 0.604031 0.069198
vt 0.375000 1.000000
vt 0.375000 0.799690
vt 0.578028 1.000000
vt 0.615335 0.592735
vt 0.589707 0.775249
vt 0.581909 0.353207
s 0
g Cube_Material
usemtl Material
f 510/891/559 512/892/559 511/893/559
f 512/894/560 515/895/560 511/896/560
f 516/897/561 513/898/561 517/899/561
f 513/898/562 516/897/562 510/900/562
f 518/901/563 509/902/563 514/903/563 515/895/563
f 511/893/564 513/904/564 510/891/564
f 511/905/565 514/906/565 509/902/565 513/907/565
f 515/895/566 514/903/566 511/896/566
f 517/908/567 513/898/567 509/909/567
f 509/902/568 518/901/568 517/908/568
f 518/901/569 515/895/569 512/892/569 516/910/569
f 518/901/570 516/910/570 517/908/570
f 512/892/571 510/891/571 516/910/571
o Cube
v 1.596782 0.060083 -0.039596
v 1.637241 0.967260 -0.655957
v 2.166556 0.538586 -0.561049
v 2.121302 1.077796 -0.289648
v 1.351379 0.382554 -0.563580
v 2.168954 0.270998 -0.026947
v 2.263737 0.774311 0.114997
v 1.399378 1.116940 -0.089548
v 1.298915 0.630386 0.223621
v 1.704973 0.851983 0.391615
vn 0.4821 0.4258 -0.7656
vn 0.9623 0.1824 -0.2019
vn -0.9851 0.1340 -0.1078
vn -0.8326 0.3377 -0.4389
vn 0.2529 -0.4244 0.8694
vn 0.0362 -0.1732 -0.9842
vn 0.2246 -0.8278 -0.5142
vn 0.9832 -0.1611 -0.0852
vn -0.8626 -0.4961 0.0987
vn -0.1107 -0.4636 0.8791
vn 0.2410 0.8676 0.4349
vn -0.5544 0.5284 0.6430
vn -0.0208 0.9644 -0.2636
vt 0.550384 0.206938
vt 0.375000 0.305791
vt 0.375000 0.049496
vt 0.180791 0.500000
vt 0.330928 0.574320
vt 0.125000 0.700504
vt 0.804283 0.500000
vt 0.842867 0.681766
vt 0.658516 0.626313
vt 0.875000 0.500000
vt 0.501754 0.540833
vt 0.565165 0.799791
vt 0.325310 0.750000
vt 0.604031 0.069198
vt 0.375000 1.000000
vt 0.375000 0.799690
vt 0.578028 1.000000
vt 0.615335 0.592735
vt 0.589707 0.775249
vt 0.581909 0.353207
s 0
g Cube_Material
usemtl Material
f 520/911/572 522/912/572 521/913/572
f 522/914/573 525/915/573 521/916/573
f 526/917/574 523/918/574 527/919/574
f 523/918/575 526/917/575 520/920/575
f 528/921/576 519/922/576 524/923/576 525/915/576
f 521/913/577 523/924/577 520/911/577
f 521/925/578 524/926/578 519/922/578 523/927/578
f 525/915/579 524/923/579 521/916/579
f 527/928/580 523/918/580 519/929/580
f 519/922/581 528/921/581 527/928/581
f 528/921/582 525/915/582 522/912/582 526/930/582
f 528/921/583 526/930/583 527/928/583
f 522/912/584 520/911/584 526/930/584
