# Blender 4.1.0
# www.blender.org
mtllib Explosion20019.mtl
o Circle
v -0.024615 0.096888 -1.522372
v -0.024615 0.242742 -1.522372
v 0.122545 0.096888 -1.515142
v 0.122545 0.242742 -1.515142
v 0.268288 0.096888 -1.493523
v 0.268288 0.242742 -1.493523
v 0.411211 0.096888 -1.457723
v 0.411211 0.242742 -1.457723
v 0.549936 0.096888 -1.408086
v 0.549936 0.242742 -1.408086
v 0.683127 0.096888 -1.345092
v 0.683127 0.242742 -1.345092
v 0.809503 0.096888 -1.269345
v 0.809503 0.242742 -1.269345
v 0.927846 0.096888 -1.181576
v 0.927846 0.242742 -1.181576
v 1.037016 0.096888 -1.082630
v 1.037016 0.242742 -1.082630
v 1.135962 0.096888 -0.973460
v 1.135962 0.242742 -0.973460
v 1.223731 0.096888 -0.855117
v 1.223731 0.242742 -0.855117
v 1.299478 0.096888 -0.728741
v 1.299478 0.242742 -0.728741
v 1.362473 0.096888 -0.595549
v 1.362473 0.242742 -0.595549
v 1.412110 0.096888 -0.456824
v 1.412110 0.242742 -0.456824
v 1.447910 0.096888 -0.313902
v 1.447910 0.242742 -0.313902
v 1.469529 0.096888 -0.168159
v 1.469529 0.242742 -0.168159
v 1.476758 0.096888 -0.020998
v 1.476758 0.242742 -0.020998
v 1.469529 0.096888 0.126162
v 1.469529 0.242742 0.126162
v 1.447910 0.096888 0.271905
v 1.447910 0.242742 0.271905
v 1.412110 0.096888 0.414827
v 1.412110 0.242742 0.414827
v 1.362473 0.096888 0.553553
v 1.362473 0.242742 0.553553
v 1.299478 0.096888 0.686744
v 1.299478 0.242742 0.686744
v 1.223731 0.096888 0.813120
v 1.223731 0.242742 0.813120
v 1.135962 0.096888 0.931463
v 1.135962 0.242742 0.931463
v 1.037016 0.096888 1.040633
v 1.037016 0.242742 1.040633
v 0.927846 0.096888 1.139579
v 0.927846 0.242742 1.139579
v 0.809503 0.096888 1.227348
v 0.809503 0.242742 1.227348
v 0.683127 0.096888 1.303095
v 0.683127 0.242742 1.303095
v 0.549936 0.096888 1.366090
v 0.549936 0.242742 1.366090
v 0.411211 0.096888 1.415727
v 0.411211 0.242742 1.415727
v 0.268288 0.096888 1.451527
v 0.268288 0.242742 1.451527
v 0.122545 0.096888 1.473146
v 0.122545 0.242742 1.473146
v -0.024615 0.096888 1.480376
v -0.024615 0.242742 1.480376
v -0.171775 0.096888 1.473146
v -0.171775 0.242742 1.473146
v -0.317519 0.096888 1.451527
v -0.317519 0.242742 1.451527
v -0.460441 0.096888 1.415727
v -0.460441 0.242742 1.415727
v -0.599166 0.096888 1.366090
v -0.599166 0.242742 1.366090
v -0.732358 0.096888 1.303095
v -0.732358 0.242742 1.303095
v -0.858734 0.096888 1.227348
v -0.858734 0.242742 1.227348
v -0.977076 0.096888 1.139579
v -0.977076 0.242742 1.139579
v -1.086246 0.096888 1.040633
v -1.086246 0.242742 1.040633
v -1.185192 0.096888 0.931463
v -1.185192 0.242742 0.931463
v -1.272961 0.096888 0.813120
v -1.272961 0.242742 0.813120
v -1.348708 0.096888 0.686744
v -1.348708 0.242742 0.686744
v -1.411703 0.096888 0.553553
v -1.411703 0.242742 0.553553
v -1.461340 0.096888 0.414827
v -1.461340 0.242742 0.414827
v -1.497140 0.096888 0.271905
v -1.497140 0.242742 0.271905
v -1.518759 0.096888 0.126162
v -1.518759 0.242742 0.126162
v -1.525989 0.096888 -0.020998
v -1.525989 0.242742 -0.020998
v -1.518759 0.096888 -0.168159
v -1.518759 0.242742 -0.168159
v -1.497140 0.096888 -0.313902
v -1.497140 0.242742 -0.313902
v -1.461340 0.096888 -0.456824
v -1.461340 0.242742 -0.456824
v -1.411703 0.096888 -0.595549
v -1.411703 0.242742 -0.595549
v -1.348708 0.096888 -0.728741
v -1.348708 0.242742 -0.728741
v -1.272961 0.096888 -0.855117
v -1.272961 0.242742 -0.855117
v -1.185192 0.096888 -0.973460
v -1.185192 0.242742 -0.973460
v -1.086246 0.096888 -1.082630
v -1.086246 0.242742 -1.082630
v -0.977076 0.096888 -1.181576
v -0.977076 0.242742 -1.181576
v -0.858734 0.096888 -1.269345
v -0.858734 0.242742 -1.269345
v -0.732358 0.096888 -1.345092
v -0.732358 0.242742 -1.345092
v -0.599166 0.096888 -1.408086
v -0.599166 0.242742 -1.408086
v -0.460441 0.096888 -1.457723
v -0.460441 0.242742 -1.457723
v -0.317519 0.096888 -1.493523
v -0.317519 0.242742 -1.493523
v -0.171775 0.096888 -1.515142
v -0.171775 0.242742 -1.515142
vn 0.0491 -0.0000 -0.9988
vn 0.1467 -0.0000 -0.9892
vn 0.2430 -0.0000 -0.9700
vn 0.3369 -0.0000 -0.9415
vn 0.4276 -0.0000 -0.9040
vn 0.5141 -0.0000 -0.8577
vn 0.5957 -0.0000 -0.8032
vn 0.6716 -0.0000 -0.7410
vn 0.7410 -0.0000 -0.6716
vn 0.8032 -0.0000 -0.5957
vn 0.8577 -0.0000 -0.5141
vn 0.9040 -0.0000 -0.4276
vn 0.9415 -0.0000 -0.3369
vn 0.9700 -0.0000 -0.2430
vn 0.9892 -0.0000 -0.1467
vn 0.9988 -0.0000 -0.0491
vn 0.9988 -0.0000 0.0491
vn 0.9892 -0.0000 0.1467
vn 0.9700 -0.0000 0.2430
vn 0.9415 -0.0000 0.3369
vn 0.9040 -0.0000 0.4276
vn 0.8577 -0.0000 0.5141
vn 0.8032 -0.0000 0.5957
vn 0.7410 -0.0000 0.6716
vn 0.6716 -0.0000 0.7410
vn 0.5957 -0.0000 0.8032
vn 0.5141 -0.0000 0.8577
vn 0.4276 -0.0000 0.9040
vn 0.3369 -0.0000 0.9415
vn 0.2430 -0.0000 0.9700
vn 0.1467 -0.0000 0.9892
vn 0.0491 -0.0000 0.9988
vn -0.0491 -0.0000 0.9988
vn -0.1467 -0.0000 0.9892
vn -0.2430 -0.0000 0.9700
vn -0.3369 -0.0000 0.9415
vn -0.4276 -0.0000 0.9040
vn -0.5141 -0.0000 0.8577
vn -0.5957 -0.0000 0.8032
vn -0.6716 -0.0000 0.7410
vn -0.7410 -0.0000 0.6716
vn -0.8032 -0.0000 0.5957
vn -0.8577 -0.0000 0.5141
vn -0.9040 -0.0000 0.4276
vn -0.9415 -0.0000 0.3369
vn -0.9700 -0.0000 0.2430
vn -0.9892 -0.0000 0.1467
vn -0.9988 -0.0000 0.0491
vn -0.9988 -0.0000 -0.0491
vn -0.9892 -0.0000 -0.1467
vn -0.9700 -0.0000 -0.2430
vn -0.9415 -0.0000 -0.3369
vn -0.9040 -0.0000 -0.4276
vn -0.8577 -0.0000 -0.5141
vn -0.8032 -0.0000 -0.5957
vn -0.7410 -0.0000 -0.6716
vn -0.6716 -0.0000 -0.7410
vn -0.5957 -0.0000 -0.8032
vn -0.5141 -0.0000 -0.8577
vn -0.4276 -0.0000 -0.9040
vn -0.3369 -0.0000 -0.9415
vn -0.2430 -0.0000 -0.9700
vn -0.1467 -0.0000 -0.9892
vn -0.0491 -0.0000 -0.9988
vt 1.000000 0.500000
vt 1.000000 1.000000
vt 0.984375 1.000000
vt 0.984375 0.500000
vt 0.968750 1.000000
vt 0.968750 0.500000
vt 0.953125 1.000000
vt 0.953125 0.500000
vt 0.937500 1.000000
vt 0.937500 0.500000
vt 0.921875 1.000000
vt 0.921875 0.500000
vt 0.906250 1.000000
vt 0.906250 0.500000
vt 0.890625 1.000000
vt 0.890625 0.500000
vt 0.875000 1.000000
vt 0.875000 0.500000
vt 0.859375 1.000000
vt 0.859375 0.500000
vt 0.843750 1.000000
vt 0.843750 0.500000
vt 0.828125 1.000000
vt 0.828125 0.500000
vt 0.812500 1.000000
vt 0.812500 0.500000
vt 0.796875 1.000000
vt 0.796875 0.500000
vt 0.781250 1.000000
vt 0.781250 0.500000
vt 0.765625 1.000000
vt 0.765625 0.500000
vt 0.750000 1.000000
vt 0.750000 0.500000
vt 0.734375 1.000000
vt 0.734375 0.500000
vt 0.718750 1.000000
vt 0.718750 0.500000
vt 0.703125 1.000000
vt 0.703125 0.500000
vt 0.687500 1.000000
vt 0.687500 0.500000
vt 0.671875 1.000000
vt 0.671875 0.500000
vt 0.656250 1.000000
vt 0.656250 0.500000
vt 0.640625 1.000000
vt 0.640625 0.500000
vt 0.625000 1.000000
vt 0.625000 0.500000
vt 0.609375 1.000000
vt 0.609375 0.500000
vt 0.593750 1.000000
vt 0.593750 0.500000
vt 0.578125 1.000000
vt 0.578125 0.500000
vt 0.562500 1.000000
vt 0.562500 0.500000
vt 0.546875 1.000000
vt 0.546875 0.500000
vt 0.531250 1.000000
vt 0.531250 0.500000
vt 0.515625 1.000000
vt 0.515625 0.500000
vt 0.500000 1.000000
vt 0.500000 0.500000
vt 0.484375 1.000000
vt 0.484375 0.500000
vt 0.468750 1.000000
vt 0.468750 0.500000
vt 0.453125 1.000000
vt 0.453125 0.500000
vt 0.437500 1.000000
vt 0.437500 0.500000
vt 0.421875 1.000000
vt 0.421875 0.500000
vt 0.406250 1.000000
vt 0.406250 0.500000
vt 0.390625 1.000000
vt 0.390625 0.500000
vt 0.375000 1.000000
vt 0.375000 0.500000
vt 0.359375 1.000000
vt 0.359375 0.500000
vt 0.343750 1.000000
vt 0.343750 0.500000
vt 0.328125 1.000000
vt 0.328125 0.500000
vt 0.312500 1.000000
vt 0.312500 0.500000
vt 0.296875 1.000000
vt 0.296875 0.500000
vt 0.281250 1.000000
vt 0.281250 0.500000
vt 0.265625 1.000000
vt 0.265625 0.500000
vt 0.250000 1.000000
vt 0.250000 0.500000
vt 0.234375 1.000000
vt 0.234375 0.500000
vt 0.218750 1.000000
vt 0.218750 0.500000
vt 0.203125 1.000000
vt 0.203125 0.500000
vt 0.187500 1.000000
vt 0.187500 0.500000
vt 0.171875 1.000000
vt 0.171875 0.500000
vt 0.156250 1.000000
vt 0.156250 0.500000
vt 0.140625 1.000000
vt 0.140625 0.500000
vt 0.125000 1.000000
vt 0.125000 0.500000
vt 0.109375 1.000000
vt 0.109375 0.500000
vt 0.093750 1.000000
vt 0.093750 0.500000
vt 0.078125 1.000000
vt 0.078125 0.500000
vt 0.062500 1.000000
vt 0.062500 0.500000
vt 0.046875 1.000000
vt 0.046875 0.500000
vt 0.031250 1.000000
vt 0.031250 0.500000
vt 0.015625 1.000000
vt 0.015625 0.500000
vt 0.000000 1.000000
vt 0.000000 0.500000
s 0
g Circle_Material.001
usemtl Material.001
f 1/1/1 2/2/1 4/3/1 3/4/1
f 3/4/2 4/3/2 6/5/2 5/6/2
f 5/6/3 6/5/3 8/7/3 7/8/3
f 7/8/4 8/7/4 10/9/4 9/10/4
f 9/10/5 10/9/5 12/11/5 11/12/5
f 11/12/6 12/11/6 14/13/6 13/14/6
f 13/14/7 14/13/7 16/15/7 15/16/7
f 15/16/8 16/15/8 18/17/8 17/18/8
f 17/18/9 18/17/9 20/19/9 19/20/9
f 19/20/10 20/19/10 22/21/10 21/22/10
f 21/22/11 22/21/11 24/23/11 23/24/11
f 23/24/12 24/23/12 26/25/12 25/26/12
f 25/26/13 26/25/13 28/27/13 27/28/13
f 27/28/14 28/27/14 30/29/14 29/30/14
f 29/30/15 30/29/15 32/31/15 31/32/15
f 31/32/16 32/31/16 34/33/16 33/34/16
f 33/34/17 34/33/17 36/35/17 35/36/17
f 35/36/18 36/35/18 38/37/18 37/38/18
f 37/38/19 38/37/19 40/39/19 39/40/19
f 39/40/20 40/39/20 42/41/20 41/42/20
f 41/42/21 42/41/21 44/43/21 43/44/21
f 43/44/22 44/43/22 46/45/22 45/46/22
f 45/46/23 46/45/23 48/47/23 47/48/23
f 47/48/24 48/47/24 50/49/24 49/50/24
f 49/50/25 50/49/25 52/51/25 51/52/25
f 51/52/26 52/51/26 54/53/26 53/54/26
f 53/54/27 54/53/27 56/55/27 55/56/27
f 55/56/28 56/55/28 58/57/28 57/58/28
f 57/58/29 58/57/29 60/59/29 59/60/29
f 59/60/30 60/59/30 62/61/30 61/62/30
f 61/62/31 62/61/31 64/63/31 63/64/31
f 63/64/32 64/63/32 66/65/32 65/66/32
f 65/66/33 66/65/33 68/67/33 67/68/33
f 67/68/34 68/67/34 70/69/34 69/70/34
f 69/70/35 70/69/35 72/71/35 71/72/35
f 71/72/36 72/71/36 74/73/36 73/74/36
f 73/74/37 74/73/37 76/75/37 75/76/37
f 75/76/38 76/75/38 78/77/38 77/78/38
f 77/78/39 78/77/39 80/79/39 79/80/39
f 79/80/40 80/79/40 82/81/40 81/82/40
f 81/82/41 82/81/41 84/83/41 83/84/41
f 83/84/42 84/83/42 86/85/42 85/86/42
f 85/86/43 86/85/43 88/87/43 87/88/43
f 87/88/44 88/87/44 90/89/44 89/90/44
f 89/90/45 90/89/45 92/91/45 91/92/45
f 91/92/46 92/91/46 94/93/46 93/94/46
f 93/94/47 94/93/47 96/95/47 95/96/47
f 95/96/48 96/95/48 98/97/48 97/98/48
f 97/98/49 98/97/49 100/99/49 99/100/49
f 99/100/50 100/99/50 102/101/50 101/102/50
f 101/102/51 102/101/51 104/103/51 103/104/51
f 103/104/52 104/103/52 106/105/52 105/106/52
f 105/106/53 106/105/53 108/107/53 107/108/53
f 107/108/54 108/107/54 110/109/54 109/110/54
f 109/110/55 110/109/55 112/111/55 111/112/55
f 111/112/56 112/111/56 114/113/56 113/114/56
f 113/114/57 114/113/57 116/115/57 115/116/57
f 115/116/58 116/115/58 118/117/58 117/118/58
f 117/118/59 118/117/59 120/119/59 119/120/59
f 119/120/60 120/119/60 122/121/60 121/122/60
f 121/122/61 122/121/61 124/123/61 123/124/61
f 123/124/62 124/123/62 126/125/62 125/126/62
f 125/126/63 126/125/63 128/127/63 127/128/63
f 127/128/64 128/127/64 2/129/64 1/130/64
o Cube
v 5.266109 0.169305 4.234123
v 4.393225 -0.313511 3.721485
v 5.054943 -0.338656 3.486158
v 4.618349 0.022315 3.237635
v 4.763936 -0.282177 4.280820
v 5.385247 0.156314 3.622458
v 5.028426 0.367330 3.271585
v 4.245786 0.303163 3.845896
v 4.669689 0.552662 4.189739
v 4.721942 0.714389 3.716403
vn -0.2514 -0.7364 -0.6281
vn 0.3005 -0.2670 -0.9157
vn -0.6344 0.0127 0.7729
vn -0.7881 -0.2972 0.5390
vn 0.6437 0.7653 -0.0015
vn -0.0146 -0.9977 0.0656
vn 0.7172 -0.6537 0.2415
vn 0.6213 -0.2064 -0.7559
vn -0.0046 0.1079 0.9941
vn 0.4930 0.8052 0.3295
vn -0.5278 0.5352 -0.6595
vn -0.6102 0.7679 0.1950
vn -0.8695 -0.1108 -0.4814
vt 0.550384 0.206938
vt 0.375000 0.305791
vt 0.375000 0.049496
vt 0.180791 0.500000
vt 0.330928 0.574320
vt 0.125000 0.700504
vt 0.804283 0.500000
vt 0.842867 0.681766
vt 0.658516 0.626313
vt 0.875000 0.500000
vt 0.501754 0.540833
vt 0.565165 0.799791
vt 0.325310 0.750000
vt 0.604031 0.069198
vt 0.375000 1.000000
vt 0.375000 0.799690
vt 0.578028 1.000000
vt 0.615335 0.592735
vt 0.589707 0.775249
vt 0.581909 0.353207
s 0
g Cube_Material
usemtl Material
f 130/131/65 132/132/65 131/133/65
f 132/134/66 135/135/66 131/136/66
f 136/137/67 133/138/67 137/139/67
f 133/138/68 136/137/68 130/140/68
f 138/141/69 129/142/69 134/143/69 135/135/69
f 131/133/70 133/144/70 130/131/70
f 131/145/71 134/146/71 129/142/71 133/147/71
f 135/135/72 134/143/72 131/136/72
f 137/148/73 133/138/73 129/149/73
f 129/142/74 138/141/74 137/148/74
f 138/141/75 135/135/75 132/132/75 136/150/75
f 138/141/76 136/150/76 137/148/76
f 132/132/77 130/131/77 136/150/77
o Cube
v 4.830078 0.077452 -1.655389
v 5.655461 0.330202 -1.996480
v 5.258777 0.023118 -2.290755
v 5.682231 -0.182549 -2.089556
v 5.170758 0.502608 -1.785750
v 4.975501 -0.277702 -2.000058
v 5.376013 -0.477956 -1.961273
v 5.730227 0.096023 -1.521596
v 5.293557 0.015659 -1.299019
v 5.439302 -0.343284 -1.451173
vn 0.4922 0.1803 -0.8516
vn 0.1480 -0.5190 -0.8419
vn 0.2071 0.7173 0.6653
vn 0.4428 0.8299 0.3395
vn -0.5494 -0.7466 0.3751
vn -0.0445 0.7206 -0.6919
vn -0.7654 0.3414 -0.5456
vn -0.2086 -0.5709 -0.7941
vn -0.4509 0.5715 0.6856
vn -0.5672 -0.5058 0.6500
vn 0.7867 -0.5992 0.1485
vn 0.4725 -0.1744 0.8639
vn 0.9901 0.0734 -0.1197
vt 0.550384 0.206938
vt 0.375000 0.305791
vt 0.375000 0.049496
vt 0.180791 0.500000
vt 0.330928 0.574320
vt 0.125000 0.700504
vt 0.804283 0.500000
vt 0.842867 0.681766
vt 0.658516 0.626313
vt 0.875000 0.500000
vt 0.501754 0.540833
vt 0.565165 0.799791
vt 0.325310 0.750000
vt 0.604031 0.069198
vt 0.375000 1.000000
vt 0.375000 0.799690
vt 0.578028 1.000000
vt 0.615335 0.592735
vt 0.589707 0.775249
vt 0.581909 0.353207
s 0
g Cube_Material
usemtl Material
f 140/151/78 142/152/78 141/153/78
f 142/154/79 145/155/79 141/156/79
f 146/157/80 143/158/80 147/159/80
f 143/158/81 146/157/81 140/160/81
f 148/161/82 139/162/82 144/163/82 145/155/82
f 141/153/83 143/164/83 140/151/83
f 141/165/84 144/166/84 139/162/84 143/167/84
f 145/155/85 144/163/85 141/156/85
f 147/168/86 143/158/86 139/169/86
f 139/162/87 148/161/87 147/168/87
f 148/161/88 145/155/88 142/152/88 146/170/88
f 148/161/89 146/170/89 147/168/89
f 142/152/90 140/151/90 146/170/90
o Cube
v 0.917548 -0.356578 5.279377
v 1.228042 0.939501 5.641777
v 0.817502 0.374463 6.152837
v 0.467112 0.949210 5.796130
v 1.521785 0.204776 5.400415
v 0.387641 -0.117177 5.780433
v 0.052454 0.450436 5.667358
v 0.858652 0.952601 4.937121
v 0.772295 0.264765 4.680915
v 0.230723 0.473173 4.897364
vn 0.1675 0.5916 0.7886
vn -0.5093 0.2078 0.8351
vn 0.6891 0.1754 -0.7032
vn 0.7938 0.4513 -0.4077
vn -0.7192 -0.6299 -0.2933
vn 0.7363 0.0734 0.6726
vn 0.3991 -0.6801 0.6149
vn -0.5403 -0.1542 0.8272
vn 0.5837 -0.4884 -0.6487
vn -0.4835 -0.6632 -0.5712
vn -0.6494 0.7293 -0.2155
vn -0.2212 0.3647 -0.9045
vn 0.0149 0.9998 0.0108
vt 0.550384 0.206938
vt 0.375000 0.305791
vt 0.375000 0.049496
vt 0.180791 0.500000
vt 0.330928 0.574320
vt 0.125000 0.700504
vt 0.804283 0.500000
vt 0.842867 0.681766
vt 0.658516 0.626313
vt 0.875000 0.500000
vt 0.501754 0.540833
vt 0.565165 0.799791
vt 0.325310 0.750000
vt 0.604031 0.069198
vt 0.375000 1.000000
vt 0.375000 0.799690
vt 0.578028 1.000000
vt 0.615335 0.592735
vt 0.589707 0.775249
vt 0.581909 0.353207
s 0
g Cube_Material
usemtl Material
f 150/171/91 152/172/91 151/173/91
f 152/174/92 155/175/92 151/176/92
f 156/177/93 153/178/93 157/179/93
f 153/178/94 156/177/94 150/180/94
f 158/181/95 149/182/95 154/183/95 155/175/95
f 151/173/96 153/184/96 150/171/96
f 151/185/97 154/186/97 149/182/97 153/187/97
f 155/175/98 154/183/98 151/176/98
f 157/188/99 153/178/99 149/189/99
f 149/182/100 158/181/100 157/188/100
f 158/181/101 155/175/101 152/172/101 156/190/101
f 158/181/102 156/190/102 157/188/102
f 152/172/103 150/171/103 156/190/103
o Cube
v -3.971116 0.665967 3.978855
v -3.621684 0.257439 3.591232
v -3.489548 0.630054 3.718382
v -3.609171 0.563703 3.379378
v -3.799614 0.306403 3.942699
v -3.753817 0.871387 3.763794
v -3.761741 0.834064 3.445128
v -3.971017 0.298604 3.442679
v -4.179562 0.477105 3.667229
v -4.097115 0.656624 3.445187
vn 0.9304 -0.2335 -0.2826
vn 0.7664 0.5231 -0.3728
vn -0.5132 -0.8372 0.1890
vn -0.1439 -0.9875 0.0647
vn -0.5578 0.8289 0.0423
vn 0.7792 -0.4315 0.4546
vn 0.4762 0.2301 0.8487
vn 0.6610 0.7433 -0.1035
vn -0.6487 -0.3759 0.6617
vn -0.7929 0.5831 0.1770
vn -0.1236 0.0528 -0.9909
vn -0.8041 -0.2796 -0.5246
vn 0.2692 -0.5553 -0.7869
vt 0.550384 0.206938
vt 0.375000 0.305791
vt 0.375000 0.049496
vt 0.180791 0.500000
vt 0.330928 0.574320
vt 0.125000 0.700504
vt 0.804283 0.500000
vt 0.842867 0.681766
vt 0.658516 0.626313
vt 0.875000 0.500000
vt 0.501754 0.540833
vt 0.565165 0.799791
vt 0.325310 0.750000
vt 0.604031 0.069198
vt 0.375000 1.000000
vt 0.375000 0.799690
vt 0.578028 1.000000
vt 0.615335 0.592735
vt 0.589707 0.775249
vt 0.581909 0.353207
s 0
g Cube_Material
usemtl Material
f 160/191/104 162/192/104 161/193/104
f 162/194/105 165/195/105 161/196/105
f 166/197/106 163/198/106 167/199/106
f 163/198/107 166/197/107 160/200/107
f 168/201/108 159/202/108 164/203/108 165/195/108
f 161/193/109 163/204/109 160/191/109
f 161/205/110 164/206/110 159/202/110 163/207/110
f 165/195/111 164/203/111 161/196/111
f 167/208/112 163/198/112 159/209/112
f 159/202/113 168/201/113 167/208/113
f 168/201/114 165/195/114 162/192/114 166/210/114
f 168/201/115 166/210/115 167/208/115
f 162/192/116 160/191/116 166/210/116
o Cube
v 4.727354 -0.358149 1.961664
v 4.290268 -0.636888 1.350661
v 4.717183 -0.377766 1.298674
v 4.316958 -0.204595 1.226761
v 4.540678 -0.747998 1.744740
v 4.786219 -0.085236 1.614731
v 4.479148 0.072142 1.437240
v 4.013256 -0.403494 1.636855
v 4.224410 -0.298704 1.995022
v 4.192276 -0.008151 1.786081
vn 0.0520 -0.2781 -0.9591
vn 0.3385 0.4359 -0.8339
vn -0.5404 -0.6665 0.5136
vn -0.5604 -0.8187 0.1253
vn 0.2590 0.8032 0.5364
vn 0.4117 -0.7746 -0.4800
vn 0.9374 -0.3481 -0.0041
vn 0.6112 0.5098 -0.6054
vn 0.0005 -0.4864 0.8737
vn 0.1225 0.5883 0.7993
vn -0.7371 0.5692 -0.3642
vn -0.8668 0.2244 0.4453
vn -0.7643 -0.1336 -0.6308
vt 0.550384 0.206938
vt 0.375000 0.305791
vt 0.375000 0.049496
vt 0.180791 0.500000
vt 0.330928 0.574320
vt 0.125000 0.700504
vt 0.804283 0.500000
vt 0.842867 0.681766
vt 0.658516 0.626313
vt 0.875000 0.500000
vt 0.501754 0.540833
vt 0.565165 0.799791
vt 0.325310 0.750000
vt 0.604031 0.069198
vt 0.375000 1.000000
vt 0.375000 0.799690
vt 0.578028 1.000000
vt 0.615335 0.592735
vt 0.589707 0.775249
vt 0.581909 0.353207
s 0
g Cube_Material
usemtl Material
f 170/211/117 172/212/117 171/213/117
f 172/214/118 175/215/118 171/216/118
f 176/217/119 173/218/119 177/219/119
f 173/218/120 176/217/120 170/220/120
f 178/221/121 169/222/121 174/223/121 175/215/121
f 171/213/122 173/224/122 170/211/122
f 171/225/123 174/226/123 169/222/123 173/227/123
f 175/215/124 174/223/124 171/216/124
f 177/228/125 173/218/125 169/229/125
f 169/222/126 178/221/126 177/228/126
f 178/221/127 175/215/127 172/212/127 176/230/127
f 178/221/128 176/230/128 177/228/128
f 172/212/129 170/211/129 176/230/129
o Cube
v 4.636053 0.386393 -1.909988
v 4.135975 -0.398767 -2.193934
v 3.939918 0.002566 -1.778726
v 4.129278 -0.483871 -1.653478
v 4.382687 0.103270 -2.357959
v 4.328016 0.225670 -1.495466
v 4.352818 -0.219189 -1.341854
v 4.655387 -0.556912 -2.053972
v 4.953551 -0.138970 -1.966561
v 4.843520 -0.320820 -1.585395
vn -0.9232 -0.3777 -0.0709
vn -0.7521 -0.1263 0.6468
vn 0.5025 -0.1817 -0.8453
vn 0.1360 -0.3674 -0.9200
vn 0.5613 0.4113 0.7182
vn -0.7946 0.2036 -0.5720
vn -0.4991 0.8530 -0.1527
vn -0.6532 0.2143 0.7262
vn 0.6270 0.4476 -0.6375
vn 0.7909 0.4313 0.4341
vn 0.1524 -0.8663 0.4756
vn 0.8173 -0.5750 -0.0384
vn -0.2497 -0.9561 -0.1536
vt 0.550384 0.206938
vt 0.375000 0.305791
vt 0.375000 0.049496
vt 0.180791 0.500000
vt 0.330928 0.574320
vt 0.125000 0.700504
vt 0.804283 0.500000
vt 0.842867 0.681766
vt 0.658516 0.626313
vt 0.875000 0.500000
vt 0.501754 0.540833
vt 0.565165 0.799791
vt 0.325310 0.750000
vt 0.604031 0.069198
vt 0.375000 1.000000
vt 0.375000 0.799690
vt 0.578028 1.000000
vt 0.615335 0.592735
vt 0.589707 0.775249
vt 0.581909 0.353207
s 0
g Cube_Material
usemtl Material
f 180/231/130 182/232/130 181/233/130
f 182/234/131 185/235/131 181/236/131
f 186/237/132 183/238/132 187/239/132
f 183/238/133 186/237/133 180/240/133
f 188/241/134 179/242/134 184/243/134 185/235/134
f 181/233/135 183/244/135 180/231/135
f 181/245/136 184/246/136 179/242/136 183/247/136
f 185/235/137 184/243/137 181/236/137
f 187/248/138 183/238/138 179/249/138
f 179/242/139 188/241/139 187/248/139
f 188/241/140 185/235/140 182/232/140 186/250/140
f 188/241/141 186/250/141 187/248/141
f 182/232/142 180/231/142 186/250/142
o Cube
v -2.995421 0.295152 2.358697
v -3.667462 -0.046814 2.829401
v -3.353807 0.382477 2.995458
v -3.308705 -0.070944 3.176468
v -3.520718 0.187223 2.374246
v -2.896736 0.364190 2.837799
v -2.900772 0.029839 3.108872
v -3.356009 -0.427504 2.686794
v -3.028047 -0.266444 2.382241
v -2.861496 -0.319087 2.740537
vn -0.6713 0.2162 0.7089
vn 0.0606 0.3753 0.9249
vn -0.4462 -0.4977 -0.7437
vn -0.7603 -0.4445 -0.4737
vn 0.9926 0.0657 -0.1020
vn -0.8135 0.5804 0.0362
vn -0.1245 0.9712 -0.2032
vn 0.2817 0.6022 0.7470
vn -0.0212 -0.0406 -0.9989
vn 0.9006 -0.0703 -0.4290
vn 0.1857 -0.7598 0.6230
vn 0.2330 -0.9407 -0.2465
vn -0.5516 -0.6480 0.5251
vt 0.550384 0.206938
vt 0.375000 0.305791
vt 0.375000 0.049496
vt 0.180791 0.500000
vt 0.330928 0.574320
vt 0.125000 0.700504
vt 0.804283 0.500000
vt 0.842867 0.681766
vt 0.658516 0.626313
vt 0.875000 0.500000
vt 0.501754 0.540833
vt 0.565165 0.799791
vt 0.325310 0.750000
vt 0.604031 0.069198
vt 0.375000 1.000000
vt 0.375000 0.799690
vt 0.578028 1.000000
vt 0.615335 0.592735
vt 0.589707 0.775249
vt 0.581909 0.353207
s 0
g Cube_Material
usemtl Material
f 190/251/143 192/252/143 191/253/143
f 192/254/144 195/255/144 191/256/144
f 196/257/145 193/258/145 197/259/145
f 193/258/146 196/257/146 190/260/146
f 198/261/147 189/262/147 194/263/147 195/255/147
f 191/253/148 193/264/148 190/251/148
f 191/265/149 194/266/149 189/262/149 193/267/149
f 195/255/150 194/263/150 191/256/150
f 197/268/151 193/258/151 189/269/151
f 189/262/152 198/261/152 197/268/152
f 198/261/153 195/255/153 192/252/153 196/270/153
f 198/261/154 196/270/154 197/268/154
f 192/252/155 190/251/155 196/270/155
o Cube
v -2.228074 0.532298 3.988268
v -2.273336 -0.446421 3.847646
v -2.740716 -0.102200 4.066158
v -2.434416 -0.427429 4.379958
v -2.188847 0.083605 3.595815
v -2.581853 0.324261 4.354543
v -2.445666 -0.033429 4.643078
v -1.805772 -0.326379 4.151227
v -1.731499 0.197556 4.173811
v -1.891748 0.054494 4.562219
vn -0.6337 -0.7558 -0.1648
vn -0.8235 -0.3311 0.4606
vn 0.7895 -0.0857 -0.6078
vn 0.5671 -0.4255 -0.7052
vn 0.0880 0.7391 0.6678
vn -0.5672 -0.2779 -0.7753
vn -0.6953 0.4981 -0.5181
vn -0.8913 0.0259 0.4527
vn 0.5932 0.5588 -0.5795
vn 0.3758 0.8085 0.4529
vn 0.2906 -0.6070 0.7396
vn 0.9323 -0.1464 0.3307
vn 0.1908 -0.9773 0.0926
vt 0.550384 0.206938
vt 0.375000 0.305791
vt 0.375000 0.049496
vt 0.180791 0.500000
vt 0.330928 0.574320
vt 0.125000 0.700504
vt 0.804283 0.500000
vt 0.842867 0.681766
vt 0.658516 0.626313
vt 0.875000 0.500000
vt 0.501754 0.540833
vt 0.565165 0.799791
vt 0.325310 0.750000
vt 0.604031 0.069198
vt 0.375000 1.000000
vt 0.375000 0.799690
vt 0.578028 1.000000
vt 0.615335 0.592735
vt 0.589707 0.775249
vt 0.581909 0.353207
s 0
g Cube_Material
usemtl Material
f 200/271/156 202/272/156 201/273/156
f 202/274/157 205/275/157 201/276/157
f 206/277/158 203/278/158 207/279/158
f 203/278/159 206/277/159 200/280/159
f 208/281/160 199/282/160 204/283/160 205/275/160
f 201/273/161 203/284/161 200/271/161
f 201/285/162 204/286/162 199/282/162 203/287/162
f 205/275/163 204/283/163 201/276/163
f 207/288/164 203/278/164 199/289/164
f 199/282/165 208/281/165 207/288/165
f 208/281/166 205/275/166 202/272/166 206/290/166
f 208/281/167 206/290/167 207/288/167
f 202/272/168 200/271/168 206/290/168
o Cube
v 2.657006 0.430879 -2.207530
v 2.869325 0.188292 -2.892372
v 2.794499 0.643180 -2.780845
v 2.526815 0.414303 -3.005051
v 2.973996 0.210536 -2.451807
v 2.504731 0.699315 -2.493383
v 2.300968 0.574928 -2.771522
v 2.522967 -0.042938 -2.762995
v 2.434497 0.041406 -2.376840
v 2.211354 0.196628 -2.580121
vn 0.4627 0.2822 -0.8404
vn -0.1174 0.7616 -0.6373
vn 0.3221 -0.9068 0.2719
vn 0.5315 -0.8429 -0.0837
vn -0.7526 0.3422 0.5625
vn 0.9479 0.2138 -0.2360
vn 0.6451 0.6531 0.3966
vn -0.1357 0.9377 -0.3199
vn 0.2733 -0.5106 0.8152
vn -0.6549 0.0463 0.7543
vn -0.7055 -0.2626 -0.6583
vn -0.5944 -0.8032 0.0392
vn -0.0179 -0.4677 -0.8837
vt 0.550384 0.206938
vt 0.375000 0.305791
vt 0.375000 0.049496
vt 0.180791 0.500000
vt 0.330928 0.574320
vt 0.125000 0.700504
vt 0.804283 0.500000
vt 0.842867 0.681766
vt 0.658516 0.626313
vt 0.875000 0.500000
vt 0.501754 0.540833
vt 0.565165 0.799791
vt 0.325310 0.750000
vt 0.604031 0.069198
vt 0.375000 1.000000
vt 0.375000 0.799690
vt 0.578028 1.000000
vt 0.615335 0.592735
vt 0.589707 0.775249
vt 0.581909 0.353207
s 0
g Cube_Material
usemtl Material
f 210/291/169 212/292/169 211/293/169
f 212/294/170 215/295/170 211/296/170
f 216/297/171 213/298/171 217/299/171
f 213/298/172 216/297/172 210/300/172
f 218/301/173 209/302/173 214/303/173 215/295/173
f 211/293/174 213/304/174 210/291/174
f 211/305/175 214/306/175 209/302/175 213/307/175
f 215/295/176 214/303/176 211/296/176
f 217/308/177 213/298/177 209/309/177
f 209/302/178 218/301/178 217/308/178
f 218/301/179 215/295/179 212/292/179 216/310/179
f 218/301/180 216/310/180 217/308/180
f 212/292/181 210/291/181 216/310/181
o Cube
v -3.851285 0.414483 -1.525106
v -3.579118 0.514467 -0.682108
v -3.245261 0.555192 -1.128115
v -3.251630 0.164772 -0.829263
v -3.902391 0.693157 -1.067698
v -3.377426 0.272160 -1.499444
v -3.256669 -0.025673 -1.211219
v -3.844323 0.076188 -0.718997
v -4.048552 0.042573 -1.148791
v -3.730393 -0.198992 -1.133705
vn 0.7065 0.4229 0.5675
vn 0.9998 -0.0191 -0.0037
vn -0.8975 0.1499 0.4147
vn -0.6423 0.3304 0.6916
vn -0.0240 -0.6017 -0.7983
vn 0.2210 0.9423 0.2514
vn 0.1823 0.8055 -0.5638
vn 0.9334 0.0328 -0.3572
vn -0.9370 0.2419 -0.2521
vn -0.3819 -0.5494 -0.7432
vn 0.2888 -0.8088 0.5122
vn -0.5800 -0.7431 0.3337
vn 0.2087 -0.2068 0.9559
vt 0.550384 0.206938
vt 0.375000 0.305791
vt 0.375000 0.049496
vt 0.180791 0.500000
vt 0.330928 0.574320
vt 0.125000 0.700504
vt 0.804283 0.500000
vt 0.842867 0.681766
vt 0.658516 0.626313
vt 0.875000 0.500000
vt 0.501754 0.540833
vt 0.565165 0.799791
vt 0.325310 0.750000
vt 0.604031 0.069198
vt 0.375000 1.000000
vt 0.375000 0.799690
vt 0.578028 1.000000
vt 0.615335 0.592735
vt 0.589707 0.775249
vt 0.581909 0.353207
s 0
g Cube_Material
usemtl Material
f 220/311/182 222/312/182 221/313/182
f 222/314/183 225/315/183 221/316/183
f 226/317/184 223/318/184 227/319/184
f 223/318/185 226/317/185 220/320/185
f 228/321/186 219/322/186 224/323/186 225/315/186
f 221/313/187 223/324/187 220/311/187
f 221/325/188 224/326/188 219/322/188 223/327/188
f 225/315/189 224/323/189 221/316/189
f 227/328/190 223/318/190 219/329/190
f 219/322/191 228/321/191 227/328/191
f 228/321/192 225/315/192 222/312/192 226/330/192
f 228/321/193 226/330/193 227/328/193
f 222/312/194 220/311/194 226/330/194
o Cube
v 2.889102 0.730332 1.195334
v 2.974763 0.500957 1.937920
v 2.765975 0.922544 1.801067
v 3.163633 0.896913 1.966040
v 2.787995 0.402883 1.519780
v 2.926104 1.086022 1.442213
v 3.222138 1.125065 1.675040
v 3.372221 0.465802 1.728820
v 3.326232 0.532662 1.318356
v 3.470040 0.815758 1.467074
vn -0.3745 0.1133 0.9203
vn -0.1904 0.7908 0.5817
vn 0.1677 -0.9699 -0.1768
vn 0.0276 -0.9759 0.2166
vn 0.3323 0.6020 -0.7261
vn -0.8514 -0.2771 0.4453
vn -0.9550 0.1651 -0.2465
vn -0.3288 0.9061 0.2661
vn -0.1056 -0.6833 -0.7225
vn 0.3738 0.2754 -0.8857
vn 0.8453 0.2317 0.4814
vn 0.9116 -0.3771 -0.1636
vn 0.4302 -0.2665 0.8625
vt 0.550384 0.206938
vt 0.375000 0.305791
vt 0.375000 0.049496
vt 0.180791 0.500000
vt 0.330928 0.574320
vt 0.125000 0.700504
vt 0.804283 0.500000
vt 0.842867 0.681766
vt 0.658516 0.626313
vt 0.875000 0.500000
vt 0.501754 0.540833
vt 0.565165 0.799791
vt 0.325310 0.750000
vt 0.604031 0.069198
vt 0.375000 1.000000
vt 0.375000 0.799690
vt 0.578028 1.000000
vt 0.615335 0.592735
vt 0.589707 0.775249
vt 0.581909 0.353207
s 0
g Cube_Material
usemtl Material
f 230/331/195 232/332/195 231/333/195
f 232/334/196 235/335/196 231/336/196
f 236/337/197 233/338/197 237/339/197
f 233/338/198 236/337/198 230/340/198
f 238/341/199 229/342/199 234/343/199 235/335/199
f 231/333/200 233/344/200 230/331/200
f 231/345/201 234/346/201 229/342/201 233/347/201
f 235/335/202 234/343/202 231/336/202
f 237/348/203 233/338/203 229/349/203
f 229/342/204 238/341/204 237/348/204
f 238/341/205 235/335/205 232/332/205 236/350/205
f 238/341/206 236/350/206 237/348/206
f 232/332/207 230/331/207 236/350/207
o Cube
v 2.429723 0.379001 2.559991
v 1.751414 -0.086238 2.281959
v 2.270566 -0.201464 2.167069
v 1.968420 -0.003554 1.852604
v 2.012644 0.091844 2.694875
v 2.549385 0.178980 2.137489
v 2.304153 0.236056 1.800768
v 1.670395 0.395670 2.175095
v 1.996287 0.661166 2.373000
v 2.068815 0.630030 1.991740
vn -0.2712 -0.9104 -0.3124
vn 0.3330 -0.6202 -0.7103
vn -0.6770 0.3474 0.6488
vn -0.8407 -0.0214 0.5411
vn 0.7020 0.6697 -0.2422
vn -0.0987 -0.8895 0.4461
vn 0.6464 -0.5413 0.5378
vn 0.6473 -0.5179 -0.5592
vn -0.0562 0.4902 0.8698
vn 0.5353 0.8440 0.0329
vn -0.4421 0.2587 -0.8588
vn -0.5571 0.8123 -0.1723
vn -0.8448 -0.2473 -0.4746
vt 0.550384 0.206938
vt 0.375000 0.305791
vt 0.375000 0.049496
vt 0.180791 0.500000
vt 0.330928 0.574320
vt 0.125000 0.700504
vt 0.804283 0.500000
vt 0.842867 0.681766
vt 0.658516 0.626313
vt 0.875000 0.500000
vt 0.501754 0.540833
vt 0.565165 0.799791
vt 0.325310 0.750000
vt 0.604031 0.069198
vt 0.375000 1.000000
vt 0.375000 0.799690
vt 0.578028 1.000000
vt 0.615335 0.592735
vt 0.589707 0.775249
vt 0.581909 0.353207
s 0
g Cube_Material
usemtl Material
f 240/351/208 242/352/208 241/353/208
f 242/354/209 245/355/209 241/356/209
f 246/357/210 243/358/210 247/359/210
f 243/358/211 246/357/211 240/360/211
f 248/361/212 239/362/212 244/363/212 245/355/212
f 241/353/213 243/364/213 240/351/213
f 241/365/214 244/366/214 239/362/214 243/367/214
f 245/355/215 244/363/215 241/356/215
f 247/368/216 243/358/216 239/369/216
f 239/362/217 248/361/217 247/368/217
f 248/361/218 245/355/218 242/352/218 246/370/218
f 248/361/219 246/370/219 247/368/219
f 242/352/220 240/351/220 246/370/220
o Cube
v 2.736434 0.065371 -0.139876
v 2.526311 1.181316 -0.435739
v 2.696265 0.649946 -0.914738
v 3.114177 1.106622 -0.725701
v 2.270111 0.598429 -0.138037
v 3.081824 0.199887 -0.676456
v 3.433460 0.646215 -0.683766
v 2.982715 1.171058 0.062912
v 3.044210 0.588527 0.289132
v 3.458341 0.702618 -0.014806
vn -0.2978 0.5849 -0.7545
vn 0.2974 0.1200 -0.9472
vn -0.4613 0.2784 0.8424
vn -0.6071 0.5565 0.5672
vn 0.6958 -0.7045 0.1393
vn -0.8716 0.1437 -0.4687
vn -0.6167 -0.6435 -0.4535
vn 0.2889 -0.2428 -0.9261
vn -0.4478 -0.3945 0.8024
vn 0.5374 -0.7008 0.4691
vn 0.7598 0.6502 0.0017
vn 0.4853 0.3606 0.7966
vn 0.0939 0.9934 -0.0655
vt 0.550384 0.206938
vt 0.375000 0.305791
vt 0.375000 0.049496
vt 0.180791 0.500000
vt 0.330928 0.574320
vt 0.125000 0.700504
vt 0.804283 0.500000
vt 0.842867 0.681766
vt 0.658516 0.626313
vt 0.875000 0.500000
vt 0.501754 0.540833
vt 0.565165 0.799791
vt 0.325310 0.750000
vt 0.604031 0.069198
vt 0.375000 1.000000
vt 0.375000 0.799690
vt 0.578028 1.000000
vt 0.615335 0.592735
vt 0.589707 0.775249
vt 0.581909 0.353207
s 0
g Cube_Material
usemtl Material
f 250/371/221 252/372/221 251/373/221
f 252/374/222 255/375/222 251/376/222
f 256/377/223 253/378/223 257/379/223
f 253/378/224 256/377/224 250/380/224
f 258/381/225 249/382/225 254/383/225 255/375/225
f 251/373/226 253/384/226 250/371/226
f 251/385/227 254/386/227 249/382/227 253/387/227
f 255/375/228 254/383/228 251/376/228
f 257/388/229 253/378/229 249/389/229
f 249/382/230 258/381/230 257/388/230
f 258/381/231 255/375/231 252/372/231 256/390/231
f 258/381/232 256/390/232 257/388/232
f 252/372/233 250/371/233 256/390/233
o Cube
v -1.978079 0.024479 -2.258233
v -2.339425 0.791603 -2.441981
v -1.943541 0.718562 -2.076566
v -2.401372 0.792023 -1.958133
v -2.073858 0.384615 -2.626143
v -1.956215 0.298129 -1.861808
v -2.305493 0.474198 -1.708388
v -2.702696 0.461463 -2.347553
v -2.525257 0.034194 -2.308570
v -2.612082 0.170845 -1.954779
vn 0.1635 0.9863 0.0201
vn 0.2868 0.6439 0.7093
vn -0.4176 -0.2530 -0.8727
vn -0.3832 0.1615 -0.9094
vn 0.0545 -0.7568 0.6514
vn 0.5911 0.6195 -0.5166
vn 0.9882 -0.0091 -0.1531
vn 0.5246 0.3747 0.7644
vn 0.0524 -0.7068 -0.7055
vn -0.0488 -0.9357 0.3494
vn -0.8178 0.2801 0.5027
vn -0.9184 -0.3883 -0.0754
vn -0.6824 0.7257 -0.0880
vt 0.550384 0.206938
vt 0.375000 0.305791
vt 0.375000 0.049496
vt 0.180791 0.500000
vt 0.330928 0.574320
vt 0.125000 0.700504
vt 0.804283 0.500000
vt 0.842867 0.681766
vt 0.658516 0.626313
vt 0.875000 0.500000
vt 0.501754 0.540833
vt 0.565165 0.799791
vt 0.325310 0.750000
vt 0.604031 0.069198
vt 0.375000 1.000000
vt 0.375000 0.799690
vt 0.578028 1.000000
vt 0.615335 0.592735
vt 0.589707 0.775249
vt 0.581909 0.353207
s 0
g Cube_Material
usemtl Material
f 260/391/234 262/392/234 261/393/234
f 262/394/235 265/395/235 261/396/235
f 266/397/236 263/398/236 267/399/236
f 263/398/237 266/397/237 260/400/237
f 268/401/238 259/402/238 264/403/238 265/395/238
f 261/393/239 263/404/239 260/391/239
f 261/405/240 264/406/240 259/402/240 263/407/240
f 265/395/241 264/403/241 261/396/241
f 267/408/242 263/398/242 259/409/242
f 259/402/243 268/401/243 267/408/243
f 268/401/244 265/395/244 262/392/244 266/410/244
f 268/401/245 266/410/245 267/408/245
f 262/392/246 260/391/246 266/410/246
o Cube
v -2.360651 0.321919 1.680539
v -2.924005 0.243218 0.799749
v -2.267632 0.226020 0.822866
v -2.568126 0.685988 0.642321
v -2.800027 -0.004788 1.363246
v -2.042482 0.539306 1.243436
v -2.233996 0.904228 0.946870
v -3.111689 0.727943 1.107506
v -2.871799 0.740771 1.614537
v -2.664727 1.057718 1.335736
vn 0.0237 -0.3518 -0.9358
vn 0.6296 0.1094 -0.7692
vn -0.8782 -0.2265 0.4212
vn -0.9241 -0.3805 0.0358
vn 0.5752 0.5895 0.5672
vn -0.0099 -0.9160 -0.4010
vn 0.5923 -0.7911 0.1527
vn 0.8651 0.0484 -0.4992
vn -0.3805 -0.3281 0.8647
vn 0.3103 0.5055 0.8051
vn -0.2566 0.8365 -0.4842
vn -0.6602 0.6908 0.2949
vn -0.6217 0.2339 -0.7475
vt 0.550384 0.206938
vt 0.375000 0.305791
vt 0.375000 0.049496
vt 0.180791 0.500000
vt 0.330928 0.574320
vt 0.125000 0.700504
vt 0.804283 0.500000
vt 0.842867 0.681766
vt 0.658516 0.626313
vt 0.875000 0.500000
vt 0.501754 0.540833
vt 0.565165 0.799791
vt 0.325310 0.750000
vt 0.604031 0.069198
vt 0.375000 1.000000
vt 0.375000 0.799690
vt 0.578028 1.000000
vt 0.615335 0.592735
vt 0.589707 0.775249
vt 0.581909 0.353207
s 0
g Cube_Material
usemtl Material
f 270/411/247 272/412/247 271/413/247
f 272/414/248 275/415/248 271/416/248
f 276/417/249 273/418/249 277/419/249
f 273/418/250 276/417/250 270/420/250
f 278/421/251 269/422/251 274/423/251 275/415/251
f 271/413/252 273/424/252 270/411/252
f 271/425/253 274/426/253 269/422/253 273/427/253
f 275/415/254 274/423/254 271/416/254
f 277/428/255 273/418/255 269/429/255
f 269/422/256 278/421/256 277/428/256
f 278/421/257 275/415/257 272/412/257 276/430/257
f 278/421/258 276/430/258 277/428/258
f 272/412/259 270/411/259 276/430/259
o Cube
v -0.422474 -0.248756 3.156088
v -0.099899 0.172616 2.474597
v -0.172370 0.392892 2.963632
v -0.457169 0.479919 2.591762
v -0.042902 -0.225944 2.799485
v -0.537418 0.215164 3.200676
v -0.735846 0.412411 2.889767
v -0.524110 -0.049458 2.339120
v -0.673897 -0.327470 2.676604
v -0.887680 -0.004532 2.671561
vn 0.5784 0.7724 -0.2622
vn 0.0043 0.9744 0.2247
vn 0.2363 -0.7988 -0.5532
vn 0.4915 -0.5069 -0.7081
vn -0.7974 -0.1416 0.5866
vn 0.9801 0.1891 0.0601
vn 0.6249 -0.0094 0.7806
vn -0.0440 0.8307 0.5551
vn 0.1416 -0.9860 0.0876
vn -0.7404 -0.4829 0.4675
vn -0.6310 0.4576 -0.6264
vn -0.6371 -0.4318 -0.6385
vn 0.0673 0.4228 -0.9037
vt 0.550384 0.206938
vt 0.375000 0.305791
vt 0.375000 0.049496
vt 0.180791 0.500000
vt 0.330928 0.574320
vt 0.125000 0.700504
vt 0.804283 0.500000
vt 0.842867 0.681766
vt 0.658516 0.626313
vt 0.875000 0.500000
vt 0.501754 0.540833
vt 0.565165 0.799791
vt 0.325310 0.750000
vt 0.604031 0.069198
vt 0.375000 1.000000
vt 0.375000 0.799690
vt 0.578028 1.000000
vt 0.615335 0.592735
vt 0.589707 0.775249
vt 0.581909 0.353207
s 0
g Cube_Material
usemtl Material
f 280/431/260 282/432/260 281/433/260
f 282/434/261 285/435/261 281/436/261
f 286/437/262 283/438/262 287/439/262
f 283/438/263 286/437/263 280/440/263
f 288/441/264 279/442/264 284/443/264 285/435/264
f 281/433/265 283/444/265 280/431/265
f 281/445/266 284/446/266 279/442/266 283/447/266
f 285/435/267 284/443/267 281/436/267
f 287/448/268 283/438/268 279/449/268
f 279/442/269 288/441/269 287/448/269
f 288/441/270 285/435/270 282/432/270 286/450/270
f 288/441/271 286/450/271 287/448/271
f 282/432/272 280/431/272 286/450/272
o Cube
v 1.572973 0.205078 0.783805
v 2.014779 0.003166 -0.029638
v 1.462412 -0.169058 0.103356
v 1.874479 -0.490291 0.113685
v 1.823936 0.412656 0.313786
v 1.384954 -0.253554 0.606166
v 1.672958 -0.596367 0.506010
v 2.341324 -0.133435 0.385882
v 2.145822 0.030783 0.823886
v 2.085189 -0.388411 0.790646
vn -0.1581 -0.2337 -0.9594
vn -0.5367 -0.7035 -0.4659
vn 0.7204 0.6908 0.0626
vn 0.7029 0.6200 -0.3486
vn -0.3007 -0.3456 0.8889
vn -0.3473 0.5023 -0.7919
vn -0.8537 0.5022 -0.1374
vn -0.7776 -0.5894 -0.2188
vn 0.2220 0.8426 0.4907
vn -0.0896 -0.0658 0.9938
vn 0.5625 -0.8253 -0.0509
vn 0.8769 -0.1627 0.4524
vn 0.6643 -0.3764 -0.6458
vt 0.550384 0.206938
vt 0.375000 0.305791
vt 0.375000 0.049496
vt 0.180791 0.500000
vt 0.330928 0.574320
vt 0.125000 0.700504
vt 0.804283 0.500000
vt 0.842867 0.681766
vt 0.658516 0.626313
vt 0.875000 0.500000
vt 0.501754 0.540833
vt 0.565165 0.799791
vt 0.325310 0.750000
vt 0.604031 0.069198
vt 0.375000 1.000000
vt 0.375000 0.799690
vt 0.578028 1.000000
vt 0.615335 0.592735
vt 0.589707 0.775249
vt 0.581909 0.353207
s 0
g Cube_Material
usemtl Material
f 290/451/273 292/452/273 291/453/273
f 292/454/274 295/455/274 291/456/274
f 296/457/275 293/458/275 297/459/275
f 293/458/276 296/457/276 290/460/276
f 298/461/277 289/462/277 294/463/277 295/455/277
f 291/453/278 293/464/278 290/451/278
f 291/465/279 294/466/279 289/462/279 293/467/279
f 295/455/280 294/463/280 291/456/280
f 297/468/281 293/458/281 289/469/281
f 289/462/282 298/461/282 297/468/282
f 298/461/283 295/455/283 292/452/283 296/470/283
f 298/461/284 296/470/284 297/468/284
f 292/452/285 290/451/285 296/470/285
o Cube
v -0.189714 0.540257 -1.581179
v 0.351676 0.644590 -2.295718
v 0.002719 0.205863 -2.221032
v 0.495341 0.178850 -2.154626
v -0.056409 0.851546 -2.007851
v -0.066654 0.084302 -1.750131
v 0.353729 -0.024152 -1.800411
v 0.633185 0.704511 -1.862671
v 0.344356 0.714767 -1.475741
v 0.528799 0.355111 -1.496316
vn 0.1154 -0.2552 -0.9600
vn 0.0185 -0.8706 -0.4916
vn 0.1846 0.9764 0.1119
vn 0.2583 0.9199 -0.2952
vn -0.1500 -0.4802 0.8643
vn -0.4775 0.2357 -0.8464
vn -0.9649 -0.0720 -0.2526
vn -0.2710 -0.9216 -0.2778
vn -0.3566 0.8043 0.4753
vn -0.1500 -0.1330 0.9797
vn 0.9340 -0.3542 0.0474
vn 0.7537 0.3549 0.5532
vn 0.8294 0.0888 -0.5515
vt 0.550384 0.206938
vt 0.375000 0.305791
vt 0.375000 0.049496
vt 0.180791 0.500000
vt 0.330928 0.574320
vt 0.125000 0.700504
vt 0.804283 0.500000
vt 0.842867 0.681766
vt 0.658516 0.626313
vt 0.875000 0.500000
vt 0.501754 0.540833
vt 0.565165 0.799791
vt 0.325310 0.750000
vt 0.604031 0.069198
vt 0.375000 1.000000
vt 0.375000 0.799690
vt 0.578028 1.000000
vt 0.615335 0.592735
vt 0.589707 0.775249
vt 0.581909 0.353207
s 0
g Cube_Material
usemtl Material
f 300/471/286 302/472/286 301/473/286
f 302/474/287 305/475/287 301/476/287
f 306/477/288 303/478/288 307/479/288
f 303/478/289 306/477/289 300/480/289
f 308/481/290 299/482/290 304/483/290 305/475/290
f 301/473/291 303/484/291 300/471/291
f 301/485/292 304/486/292 299/482/292 303/487/292
f 305/475/293 304/483/293 301/476/293
f 307/488/294 303/478/294 299/489/294
f 299/482/295 308/481/295 307/488/295
f 308/481/296 305/475/296 302/472/296 306/490/296
f 308/481/297 306/490/297 307/488/297
f 302/472/298 300/471/298 306/490/298
o Cube
v 0.742773 -0.129401 -1.785795
v 0.978935 0.353889 -1.125894
v 1.288624 0.247098 -1.546942
v 1.344360 0.044763 -1.126862
v 0.647547 0.292649 -1.508604
v 1.211663 -0.168818 -1.736255
v 1.372138 -0.279079 -1.372858
v 0.800315 -0.069754 -0.955010
v 0.615486 -0.311136 -1.294300
v 0.953914 -0.461454 -1.201454
vn 0.6221 0.7345 0.2712
vn 0.9886 0.1350 -0.0661
vn -0.9119 0.1794 0.3691
vn -0.6922 0.5013 0.5192
vn 0.0820 -0.8904 -0.4477
vn 0.0571 0.9769 -0.2058
vn 0.0461 0.4867 -0.8724
vn 0.9161 0.0128 -0.4007
vn -0.9632 -0.0430 -0.2654
vn -0.2799 -0.8746 -0.3959
vn 0.4191 -0.4403 0.7941
vn -0.4475 -0.5953 0.6673
vn 0.2361 0.2762 0.9316
vt 0.550384 0.206938
vt 0.375000 0.305791
vt 0.375000 0.049496
vt 0.180791 0.500000
vt 0.330928 0.574320
vt 0.125000 0.700504
vt 0.804283 0.500000
vt 0.842867 0.681766
vt 0.658516 0.626313
vt 0.875000 0.500000
vt 0.501754 0.540833
vt 0.565165 0.799791
vt 0.325310 0.750000
vt 0.604031 0.069198
vt 0.375000 1.000000
vt 0.375000 0.799690
vt 0.578028 1.000000
vt 0.615335 0.592735
vt 0.589707 0.775249
vt 0.581909 0.353207
s 0
g Cube_Material
usemtl Material
f 310/491/299 312/492/299 311/493/299
f 312/494/300 315/495/300 311/496/300
f 316/497/301 313/498/301 317/499/301
f 313/498/302 316/497/302 310/500/302
f 318/501/303 309/502/303 314/503/303 315/495/303
f 311/493/304 313/504/304 310/491/304
f 311/505/305 314/506/305 309/502/305 313/507/305
f 315/495/306 314/503/306 311/496/306
f 317/508/307 313/498/307 309/509/307
f 309/502/308 318/501/308 317/508/308
f 318/501/309 315/495/309 312/492/309 316/510/309
f 318/501/310 316/510/310 317/508/310
f 312/492/311 310/491/311 316/510/311
o Cube
v 5.148797 0.394927 3.782183
v 4.492937 0.032154 3.397003
v 4.990133 0.013260 3.220184
v 4.662088 0.284483 3.033451
v 4.771479 0.055697 3.817271
v 5.238314 0.385166 3.322596
v 4.970209 0.543718 3.058961
v 4.382156 0.495504 3.490481
v 4.700665 0.682971 3.748835
v 4.739926 0.804488 3.393184
vn -0.2514 -0.7364 -0.6281
vn 0.3005 -0.2670 -0.9157
vn -0.6344 0.0127 0.7729
vn -0.7881 -0.2972 0.5390
vn 0.6437 0.7653 -0.0015
vn -0.0146 -0.9977 0.0656
vn 0.7172 -0.6537 0.2415
vn 0.6213 -0.2064 -0.7559
vn -0.0046 0.1079 0.9941
vn 0.4930 0.8052 0.3295
vn -0.5278 0.5352 -0.6595
vn -0.6102 0.7679 0.1950
vn -0.8695 -0.1108 -0.4814
vt 0.550384 0.206938
vt 0.375000 0.305791
vt 0.375000 0.049496
vt 0.180791 0.500000
vt 0.330928 0.574320
vt 0.125000 0.700504
vt 0.804283 0.500000
vt 0.842867 0.681766
vt 0.658516 0.626313
vt 0.875000 0.500000
vt 0.501754 0.540833
vt 0.565165 0.799791
vt 0.325310 0.750000
vt 0.604031 0.069198
vt 0.375000 1.000000
vt 0.375000 0.799690
vt 0.578028 1.000000
vt 0.615335 0.592735
vt 0.589707 0.775249
vt 0.581909 0.353207
s 0
g Cube_Material
usemtl Material
f 320/511/312 322/512/312 321/513/312
f 322/514/313 325/515/313 321/516/313
f 326/517/314 323/518/314 327/519/314
f 323/518/315 326/517/315 320/520/315
f 328/521/316 319/522/316 324/523/316 325/515/316
f 321/513/317 323/524/317 320/511/317
f 321/525/318 324/526/318 319/522/318 323/527/318
f 325/515/319 324/523/319 321/516/319
f 327/528/320 323/518/320 319/529/320
f 319/522/321 328/521/321 327/528/321
f 328/521/322 325/515/322 322/512/322 326/530/322
f 328/521/323 326/530/323 327/528/323
f 322/512/324 320/511/324 326/530/324
o Cube
v 4.577025 0.532811 -1.457919
v 5.778523 0.900736 -1.954441
v 5.201076 0.453718 -2.382812
v 5.817492 0.154332 -2.089930
v 5.072948 1.151704 -1.647684
v 4.788715 0.015820 -1.959649
v 5.371736 -0.275687 -1.903190
v 5.887359 0.559846 -1.263159
v 5.251705 0.442860 -0.939157
v 5.463864 -0.079647 -1.160645
vn 0.4922 0.1803 -0.8516
vn 0.1480 -0.5190 -0.8419
vn 0.2071 0.7173 0.6653
vn 0.4428 0.8299 0.3395
vn -0.5494 -0.7466 0.3751
vn -0.0445 0.7206 -0.6919
vn -0.7654 0.3414 -0.5456
vn -0.2086 -0.5709 -0.7941
vn -0.4509 0.5715 0.6856
vn -0.5672 -0.5058 0.6500
vn 0.7867 -0.5992 0.1485
vn 0.4725 -0.1744 0.8639
vn 0.9901 0.0734 -0.1197
vt 0.550384 0.206938
vt 0.375000 0.305791
vt 0.375000 0.049496
vt 0.180791 0.500000
vt 0.330928 0.574320
vt 0.125000 0.700504
vt 0.804283 0.500000
vt 0.842867 0.681766
vt 0.658516 0.626313
vt 0.875000 0.500000
vt 0.501754 0.540833
vt 0.565165 0.799791
vt 0.325310 0.750000
vt 0.604031 0.069198
vt 0.375000 1.000000
vt 0.375000 0.799690
vt 0.578028 1.000000
vt 0.615335 0.592735
vt 0.589707 0.775249
vt 0.581909 0.353207
s 0
g Cube_Material
usemtl Material
f 330/531/325 332/532/325 331/533/325
f 332/534/326 335/535/326 331/536/326
f 336/537/327 333/538/327 337/539/327
f 333/538/328 336/537/328 330/540/328
f 338/541/329 329/542/329 334/543/329 335/535/329
f 331/533/330 333/544/330 330/531/330
f 331/545/331 334/546/331 329/542/331 333/547/331
f 335/535/332 334/543/332 331/536/332
f 337/548/333 333/538/333 329/549/333
f 329/542/334 338/541/334 337/548/334
f 338/541/335 335/535/335 332/532/335 336/550/335
f 338/541/336 336/550/336 337/548/336
f 332/532/337 330/531/337 336/550/337
o Cube
v 1.548300 -0.049595 5.149052
v 1.788401 0.952647 5.429291
v 1.470937 0.515710 5.824488
v 1.199984 0.960155 5.548651
v 2.015549 0.384493 5.242650
v 1.138530 0.135531 5.536512
v 0.879334 0.574459 5.449073
v 1.502757 0.962777 4.884390
v 1.435978 0.430882 4.686270
v 1.017188 0.592041 4.853646
vn 0.1675 0.5916 0.7886
vn -0.5093 0.2078 0.8351
vn 0.6891 0.1754 -0.7032
vn 0.7938 0.4513 -0.4077
vn -0.7192 -0.6299 -0.2933
vn 0.7363 0.0734 0.6726
vn 0.3991 -0.6801 0.6149
vn -0.5403 -0.1542 0.8272
vn 0.5837 -0.4884 -0.6487
vn -0.4835 -0.6632 -0.5712
vn -0.6494 0.7293 -0.2155
vn -0.2212 0.3647 -0.9045
vn 0.0149 0.9998 0.0108
vt 0.550384 0.206938
vt 0.375000 0.305791
vt 0.375000 0.049496
vt 0.180791 0.500000
vt 0.330928 0.574320
vt 0.125000 0.700504
vt 0.804283 0.500000
vt 0.842867 0.681766
vt 0.658516 0.626313
vt 0.875000 0.500000
vt 0.501754 0.540833
vt 0.565165 0.799791
vt 0.325310 0.750000
vt 0.604031 0.069198
vt 0.375000 1.000000
vt 0.375000 0.799690
vt 0.578028 1.000000
vt 0.615335 0.592735
vt 0.589707 0.775249
vt 0.581909 0.353207
s 0
g Cube_Material
usemtl Material
f 340/551/338 342/552/338 341/553/338
f 342/554/339 345/555/339 341/556/339
f 346/557/340 343/558/340 347/559/340
f 343/558/341 346/557/341 340/560/341
f 348/561/342 339/562/342 344/563/342 345/555/342
f 341/553/343 343/564/343 340/551/343
f 341/565/344 344/566/344 339/562/344 343/567/344
f 345/555/345 344/563/345 341/556/345
f 347/568/346 343/558/346 339/569/346
f 339/562/347 348/561/347 347/568/347
f 348/561/348 345/555/348 342/552/348 346/570/348
f 348/561/349 346/570/349 347/568/349
f 342/552/350 340/551/350 346/570/350
o Cube
v -3.835721 0.060305 4.374948
v -3.325418 -0.536299 3.808872
v -3.132450 0.007859 3.994559
v -3.307144 -0.089039 3.499487
v -3.585263 -0.464794 4.322148
v -3.518382 0.360296 4.060878
v -3.529954 0.305790 3.595507
v -3.835577 -0.476183 3.591930
v -4.140130 -0.215504 3.919858
v -4.019726 0.046660 3.595593
vn 0.9304 -0.2335 -0.2826
vn 0.7664 0.5231 -0.3728
vn -0.5132 -0.8372 0.1890
vn -0.1439 -0.9875 0.0647
vn -0.5578 0.8289 0.0423
vn 0.7792 -0.4315 0.4546
vn 0.4762 0.2301 0.8487
vn 0.6610 0.7433 -0.1035
vn -0.6487 -0.3759 0.6617
vn -0.7929 0.5831 0.1770
vn -0.1236 0.0528 -0.9909
vn -0.8041 -0.2796 -0.5246
vn 0.2692 -0.5553 -0.7869
vt 0.550384 0.206938
vt 0.375000 0.305791
vt 0.375000 0.049496
vt 0.180791 0.500000
vt 0.330928 0.574320
vt 0.125000 0.700504
vt 0.804283 0.500000
vt 0.842867 0.681766
vt 0.658516 0.626313
vt 0.875000 0.500000
vt 0.501754 0.540833
vt 0.565165 0.799791
vt 0.325310 0.750000
vt 0.604031 0.069198
vt 0.375000 1.000000
vt 0.375000 0.799690
vt 0.578028 1.000000
vt 0.615335 0.592735
vt 0.589707 0.775249
vt 0.581909 0.353207
s 0
g Cube_Material
usemtl Material
f 350/571/351 352/572/351 351/573/351
f 352/574/352 355/575/352 351/576/352
f 356/577/353 353/578/353 357/579/353
f 353/578/354 356/577/354 350/580/354
f 358/581/355 349/582/355 354/583/355 355/575/355
f 351/573/356 353/584/356 350/571/356
f 351/585/357 354/586/357 349/582/357 353/587/357
f 355/575/358 354/583/358 351/576/358
f 357/588/359 353/578/359 349/589/359
f 349/582/360 358/581/360 357/588/360
f 358/581/361 355/575/361 352/572/361 356/590/361
f 358/581/362 356/590/362 357/588/362
f 352/572/363 350/571/363 356/590/363
o Cube
v 4.931531 -0.048685 2.527646
v 4.333489 -0.430069 1.691642
v 4.917615 -0.075526 1.620510
v 4.370009 0.161415 1.522117
v 4.676112 -0.582095 2.230840
v 5.012073 0.324728 2.052956
v 4.591924 0.540060 1.810104
v 3.954469 -0.110728 2.083226
v 4.243379 0.032651 2.573288
v 4.199413 0.430199 2.287404
vn 0.0520 -0.2781 -0.9591
vn 0.3385 0.4359 -0.8339
vn -0.5404 -0.6665 0.5136
vn -0.5604 -0.8187 0.1253
vn 0.2590 0.8032 0.5364
vn 0.4117 -0.7746 -0.4800
vn 0.9374 -0.3481 -0.0041
vn 0.6112 0.5098 -0.6054
vn 0.0005 -0.4864 0.8737
vn 0.1225 0.5883 0.7993
vn -0.7371 0.5692 -0.3642
vn -0.8668 0.2244 0.4453
vn -0.7643 -0.1336 -0.6308
vt 0.550384 0.206938
vt 0.375000 0.305791
vt 0.375000 0.049496
vt 0.180791 0.500000
vt 0.330928 0.574320
vt 0.125000 0.700504
vt 0.804283 0.500000
vt 0.842867 0.681766
vt 0.658516 0.626313
vt 0.875000 0.500000
vt 0.501754 0.540833
vt 0.565165 0.799791
vt 0.325310 0.750000
vt 0.604031 0.069198
vt 0.375000 1.000000
vt 0.375000 0.799690
vt 0.578028 1.000000
vt 0.615335 0.592735
vt 0.589707 0.775249
vt 0.581909 0.353207
s 0
g Cube_Material
usemtl Material
f 360/591/364 362/592/364 361/593/364
f 362/594/365 365/595/365 361/596/365
f 366/597/366 363/598/366 367/599/366
f 363/598/367 366/597/367 360/600/367
f 368/601/368 359/602/368 364/603/368 365/595/368
f 361/593/369 363/604/369 360/591/369
f 361/605/370 364/606/370 359/602/370 363/607/370
f 365/595/371 364/603/371 361/596/371
f 367/608/372 363/598/372 359/609/372
f 359/602/373 368/601/373 367/608/373
f 368/601/374 365/595/374 362/592/374 366/610/374
f 368/601/375 366/610/375 367/608/375
f 362/592/376 360/591/376 366/610/376
o Cube
v 4.544820 0.441293 -2.263083
v 3.962802 -0.472519 -2.593555
v 3.734620 -0.005426 -2.110312
v 3.955008 -0.571568 -1.964542
v 4.249939 0.111779 -2.784457
v 4.186310 0.254235 -1.780639
v 4.215175 -0.263517 -1.601856
v 4.567323 -0.656578 -2.430659
v 4.914343 -0.170154 -2.328926
v 4.786283 -0.381801 -1.885303
vn -0.9232 -0.3777 -0.0709
vn -0.7521 -0.1263 0.6468
vn 0.5025 -0.1817 -0.8453
vn 0.1360 -0.3674 -0.9200
vn 0.5613 0.4113 0.7182
vn -0.7946 0.2036 -0.5720
vn -0.4991 0.8530 -0.1527
vn -0.6532 0.2143 0.7262
vn 0.6270 0.4476 -0.6375
vn 0.7909 0.4313 0.4341
vn 0.1524 -0.8663 0.4756
vn 0.8173 -0.5750 -0.0384
vn -0.2497 -0.9561 -0.1536
vt 0.550384 0.206938
vt 0.375000 0.305791
vt 0.375000 0.049496
vt 0.180791 0.500000
vt 0.330928 0.574320
vt 0.125000 0.700504
vt 0.804283 0.500000
vt 0.842867 0.681766
vt 0.658516 0.626313
vt 0.875000 0.500000
vt 0.501754 0.540833
vt 0.565165 0.799791
vt 0.325310 0.750000
vt 0.604031 0.069198
vt 0.375000 1.000000
vt 0.375000 0.799690
vt 0.578028 1.000000
vt 0.615335 0.592735
vt 0.589707 0.775249
vt 0.581909 0.353207
s 0
g Cube_Material
usemtl Material
f 370/611/377 372/612/377 371/613/377
f 372/614/378 375/615/378 371/616/378
f 376/617/379 373/618/379 377/619/379
f 373/618/380 376/617/380 370/620/380
f 378/621/381 369/622/381 374/623/381 375/615/381
f 371/613/382 373/624/382 370/611/382
f 371/625/383 374/626/383 369/622/383 373/627/383
f 375/615/384 374/623/384 371/616/384
f 377/628/385 373/618/385 369/629/385
f 369/622/386 378/621/386 377/628/386
f 378/621/387 375/615/387 372/612/387 376/630/387
f 378/621/388 376/630/388 377/628/388
f 372/612/389 370/611/389 376/630/389
o Cube
v -2.550261 0.432998 2.835960
v -3.353961 0.024037 3.398880
v -2.978858 0.537430 3.597469
v -2.924921 -0.004820 3.813941
v -3.178469 0.303925 2.854556
v -2.432242 0.515561 3.408924
v -2.437069 0.115707 3.733103
v -2.981492 -0.431234 3.228335
v -2.589279 -0.238620 2.864117
v -2.390098 -0.301577 3.292606
vn -0.6713 0.2162 0.7089
vn 0.0606 0.3753 0.9249
vn -0.4462 -0.4977 -0.7437
vn -0.7603 -0.4445 -0.4737
vn 0.9926 0.0657 -0.1020
vn -0.8135 0.5804 0.0362
vn -0.1245 0.9712 -0.2032
vn 0.2817 0.6022 0.7470
vn -0.0212 -0.0406 -0.9989
vn 0.9006 -0.0703 -0.4290
vn 0.1857 -0.7598 0.6230
vn 0.2330 -0.9407 -0.2465
vn -0.5516 -0.6480 0.5251
vt 0.550384 0.206938
vt 0.375000 0.305791
vt 0.375000 0.049496
vt 0.180791 0.500000
vt 0.330928 0.574320
vt 0.125000 0.700504
vt 0.804283 0.500000
vt 0.842867 0.681766
vt 0.658516 0.626313
vt 0.875000 0.500000
vt 0.501754 0.540833
vt 0.565165 0.799791
vt 0.325310 0.750000
vt 0.604031 0.069198
vt 0.375000 1.000000
vt 0.375000 0.799690
vt 0.578028 1.000000
vt 0.615335 0.592735
vt 0.589707 0.775249
vt 0.581909 0.353207
s 0
g Cube_Material
usemtl Material
f 380/631/390 382/632/390 381/633/390
f 382/634/391 385/635/391 381/636/391
f 386/637/392 383/638/392 387/639/392
f 383/638/393 386/637/393 380/640/393
f 388/641/394 379/642/394 384/643/394 385/635/394
f 381/633/395 383/644/395 380/631/395
f 381/645/396 384/646/396 379/642/396 383/647/396
f 385/635/397 384/643/397 381/636/397
f 387/648/398 383/638/398 379/649/398
f 379/642/399 388/641/399 387/648/399
f 388/641/400 385/635/400 382/632/400 386/650/400
f 388/641/401 386/650/401 387/648/401
f 382/632/402 380/631/402 386/650/402
o Cube
v -2.083793 0.305339 3.862736
v -2.119364 -0.463808 3.752225
v -2.486663 -0.193294 3.923948
v -2.245952 -0.448883 4.170554
v -2.052966 -0.047276 3.554319
v -2.361818 0.141849 4.150580
v -2.254792 -0.139249 4.377332
v -1.751919 -0.369470 3.990801
v -1.693549 0.042275 4.008549
v -1.819484 -0.070153 4.313787
vn -0.6337 -0.7558 -0.1648
vn -0.8235 -0.3311 0.4606
vn 0.7895 -0.0857 -0.6078
vn 0.5671 -0.4255 -0.7052
vn 0.0880 0.7391 0.6678
vn -0.5672 -0.2779 -0.7753
vn -0.6953 0.4981 -0.5181
vn -0.8913 0.0259 0.4527
vn 0.5932 0.5588 -0.5795
vn 0.3758 0.8085 0.4529
vn 0.2906 -0.6070 0.7396
vn 0.9323 -0.1464 0.3307
vn 0.1908 -0.9773 0.0926
vt 0.550384 0.206938
vt 0.375000 0.305791
vt 0.375000 0.049496
vt 0.180791 0.500000
vt 0.330928 0.574320
vt 0.125000 0.700504
vt 0.804283 0.500000
vt 0.842867 0.681766
vt 0.658516 0.626313
vt 0.875000 0.500000
vt 0.501754 0.540833
vt 0.565165 0.799791
vt 0.325310 0.750000
vt 0.604031 0.069198
vt 0.375000 1.000000
vt 0.375000 0.799690
vt 0.578028 1.000000
vt 0.615335 0.592735
vt 0.589707 0.775249
vt 0.581909 0.353207
s 0
g Cube_Material
usemtl Material
f 390/651/403 392/652/403 391/653/403
f 392/654/404 395/655/404 391/656/404
f 396/657/405 393/658/405 397/659/405
f 393/658/406 396/657/406 390/660/406
f 398/661/407 389/662/407 394/663/407 395/655/407
f 391/653/408 393/664/408 390/651/408
f 391/665/409 394/666/409 389/662/409 393/667/409
f 395/655/410 394/663/410 391/656/410
f 397/668/411 393/658/411 389/669/411
f 389/662/412 398/661/412 397/668/412
f 398/661/413 395/655/413 392/652/413 396/670/413
f 398/661/414 396/670/414 397/668/414
f 392/652/415 390/651/415 396/670/415
o Cube
v 2.895862 -0.212682 -1.823867
v 3.175631 -0.532333 -2.726268
v 3.077034 0.067063 -2.579313
v 2.724312 -0.234523 -2.874743
v 3.313553 -0.503022 -2.145746
v 2.695213 0.141032 -2.200530
v 2.426719 -0.022871 -2.567027
v 2.719242 -0.837020 -2.555791
v 2.602667 -0.725881 -2.046963
v 2.308637 -0.521348 -2.314822
vn 0.4627 0.2822 -0.8404
vn -0.1174 0.7616 -0.6373
vn 0.3221 -0.9068 0.2719
vn 0.5315 -0.8429 -0.0837
vn -0.7526 0.3422 0.5625
vn 0.9479 0.2138 -0.2360
vn 0.6451 0.6531 0.3966
vn -0.1357 0.9377 -0.3199
vn 0.2733 -0.5106 0.8152
vn -0.6549 0.0463 0.7543
vn -0.7055 -0.2626 -0.6583
vn -0.5944 -0.8032 0.0392
vn -0.0179 -0.4677 -0.8837
vt 0.550384 0.206938
vt 0.375000 0.305791
vt 0.375000 0.049496
vt 0.180791 0.500000
vt 0.330928 0.574320
vt 0.125000 0.700504
vt 0.804283 0.500000
vt 0.842867 0.681766
vt 0.658516 0.626313
vt 0.875000 0.500000
vt 0.501754 0.540833
vt 0.565165 0.799791
vt 0.325310 0.750000
vt 0.604031 0.069198
vt 0.375000 1.000000
vt 0.375000 0.799690
vt 0.578028 1.000000
vt 0.615335 0.592735
vt 0.589707 0.775249
vt 0.581909 0.353207
s 0
g Cube_Material
usemtl Material
f 400/671/416 402/672/416 401/673/416
f 402/674/417 405/675/417 401/676/417
f 406/677/418 403/678/418 407/679/418
f 403/678/419 406/677/419 400/680/419
f 408/681/420 399/682/420 404/683/420 405/675/420
f 401/673/421 403/684/421 400/671/421
f 401/685/422 404/686/422 399/682/422 403/687/422
f 405/675/423 404/683/423 401/676/423
f 407/688/424 403/678/424 399/689/424
f 399/682/425 408/681/425 407/688/425
f 408/681/426 405/675/426 402/672/426 406/690/426
f 408/681/427 406/690/427 407/688/427
f 402/672/428 400/671/428 406/690/428
o Cube
v -3.652531 0.228331 -1.658564
v -3.407696 0.318275 -0.900222
v -3.107365 0.354910 -1.301440
v -3.113094 0.003697 -1.032599
v -3.698504 0.479021 -1.247090
v -3.226257 0.100301 -1.635480
v -3.117627 -0.167623 -1.376199
v -3.646268 -0.075992 -0.933407
v -3.829988 -0.106231 -1.320040
v -3.543779 -0.323537 -1.306469
vn 0.7065 0.4229 0.5675
vn 0.9998 -0.0191 -0.0037
vn -0.8975 0.1499 0.4147
vn -0.6423 0.3304 0.6916
vn -0.0240 -0.6017 -0.7983
vn 0.2210 0.9423 0.2514
vn 0.1823 0.8055 -0.5638
vn 0.9334 0.0328 -0.3572
vn -0.9370 0.2419 -0.2521
vn -0.3819 -0.5494 -0.7432
vn 0.2888 -0.8088 0.5122
vn -0.5800 -0.7431 0.3337
vn 0.2087 -0.2068 0.9559
vt 0.550384 0.206938
vt 0.375000 0.305791
vt 0.375000 0.049496
vt 0.180791 0.500000
vt 0.330928 0.574320
vt 0.125000 0.700504
vt 0.804283 0.500000
vt 0.842867 0.681766
vt 0.658516 0.626313
vt 0.875000 0.500000
vt 0.501754 0.540833
vt 0.565165 0.799791
vt 0.325310 0.750000
vt 0.604031 0.069198
vt 0.375000 1.000000
vt 0.375000 0.799690
vt 0.578028 1.000000
vt 0.615335 0.592735
vt 0.589707 0.775249
vt 0.581909 0.353207
s 0
g Cube_Material
usemtl Material
f 410/691/429 412/692/429 411/693/429
f 412/694/430 415/695/430 411/696/430
f 416/697/431 413/698/431 417/699/431
f 413/698/432 416/697/432 410/700/432
f 418/701/433 409/702/433 414/703/433 415/695/433
f 411/693/434 413/704/434 410/691/434
f 411/705/435 414/706/435 409/702/435 413/707/435
f 415/695/436 414/703/436 411/696/436
f 417/708/437 413/698/437 409/709/437
f 409/702/438 418/701/438 417/708/438
f 418/701/439 415/695/439 412/692/439 416/710/439
f 418/701/440 416/710/440 417/708/440
f 412/692/441 410/691/441 416/710/441
o Cube
v 2.662577 0.413557 0.708306
v 2.758646 0.156307 1.541131
v 2.524487 0.629126 1.387647
v 2.970468 0.600380 1.572668
v 2.549183 0.046316 1.072178
v 2.704075 0.812469 0.985185
v 3.036083 0.856258 1.246306
v 3.204404 0.116880 1.306621
v 3.152827 0.191866 0.846278
v 3.314110 0.509363 1.013067
vn -0.3745 0.1133 0.9203
vn -0.1904 0.7908 0.5817
vn 0.1677 -0.9699 -0.1768
vn 0.0276 -0.9759 0.2166
vn 0.3323 0.6020 -0.7261
vn -0.8514 -0.2771 0.4453
vn -0.9550 0.1651 -0.2465
vn -0.3288 0.9061 0.2661
vn -0.1056 -0.6833 -0.7225
vn 0.3738 0.2754 -0.8857
vn 0.8453 0.2317 0.4814
vn 0.9116 -0.3771 -0.1636
vn 0.4302 -0.2665 0.8625
vt 0.550384 0.206938
vt 0.375000 0.305791
vt 0.375000 0.049496
vt 0.180791 0.500000
vt 0.330928 0.574320
vt 0.125000 0.700504
vt 0.804283 0.500000
vt 0.842867 0.681766
vt 0.658516 0.626313
vt 0.875000 0.500000
vt 0.501754 0.540833
vt 0.565165 0.799791
vt 0.325310 0.750000
vt 0.604031 0.069198
vt 0.375000 1.000000
vt 0.375000 0.799690
vt 0.578028 1.000000
vt 0.615335 0.592735
vt 0.589707 0.775249
vt 0.581909 0.353207
s 0
g Cube_Material
usemtl Material
f 420/711/442 422/712/442 421/713/442
f 422/714/443 425/715/443 421/716/443
f 426/717/444 423/718/444 427/719/444
f 423/718/445 426/717/445 420/720/445
f 428/721/446 419/722/446 424/723/446 425/715/446
f 421/713/447 423/724/447 420/711/447
f 421/725/448 424/726/448 419/722/448 423/727/448
f 425/715/449 424/723/449 421/716/449
f 427/728/450 423/718/450 419/729/450
f 419/722/451 428/721/451 427/728/451
f 428/721/452 425/715/452 422/712/452 426/730/452
f 428/721/453 426/730/453 427/728/453
f 422/712/454 420/711/454 426/730/454
o Cube
v 2.495594 0.292727 2.948349
v 1.577571 -0.336928 2.572060
v 2.280192 -0.492875 2.416567
v 1.871267 -0.225024 1.990970
v 1.931120 -0.095911 3.130901
v 2.657545 0.022019 2.376534
v 2.325649 0.099266 1.920815
v 1.467919 0.315287 2.427429
v 1.908982 0.674609 2.695275
v 2.007142 0.632469 2.179277
vn -0.2712 -0.9104 -0.3124
vn 0.3330 -0.6202 -0.7103
vn -0.6770 0.3474 0.6488
vn -0.8407 -0.0214 0.5411
vn 0.7020 0.6697 -0.2422
vn -0.0987 -0.8895 0.4461
vn 0.6464 -0.5413 0.5378
vn 0.6473 -0.5179 -0.5592
vn -0.0562 0.4902 0.8698
vn 0.5353 0.8440 0.0329
vn -0.4421 0.2587 -0.8588
vn -0.5571 0.8123 -0.1723
vn -0.8448 -0.2473 -0.4746
vt 0.550384 0.206938
vt 0.375000 0.305791
vt 0.375000 0.049496
vt 0.180791 0.500000
vt 0.330928 0.574320
vt 0.125000 0.700504
vt 0.804283 0.500000
vt 0.842867 0.681766
vt 0.658516 0.626313
vt 0.875000 0.500000
vt 0.501754 0.540833
vt 0.565165 0.799791
vt 0.325310 0.750000
vt 0.604031 0.069198
vt 0.375000 1.000000
vt 0.375000 0.799690
vt 0.578028 1.000000
vt 0.615335 0.592735
vt 0.589707 0.775249
vt 0.581909 0.353207
s 0
g Cube_Material
usemtl Material
f 430/731/455 432/732/455 431/733/455
f 432/734/456 435/735/456 431/736/456
f 436/737/457 433/738/457 437/739/457
f 433/738/458 436/737/458 430/740/458
f 438/741/459 429/742/459 434/743/459 435/735/459
f 431/733/460 433/744/460 430/731/460
f 431/745/461 434/746/461 429/742/461 433/747/461
f 435/735/462 434/743/462 431/736/462
f 437/748/463 433/738/463 429/749/463
f 429/742/464 438/741/464 437/748/464
f 438/741/465 435/735/465 432/732/465 436/750/465
f 438/741/466 436/750/466 437/748/466
f 432/732/467 430/731/467 436/750/467
o Cube
v 3.142326 -0.249313 -0.058460
v 2.961730 0.709821 -0.312749
v 3.107802 0.253118 -0.724440
v 3.466989 0.645623 -0.561965
v 2.741530 0.208840 -0.056879
v 3.439183 -0.133699 -0.519641
v 3.741407 0.249911 -0.525923
v 3.354000 0.701004 0.115832
v 3.406854 0.200329 0.310265
v 3.762792 0.298388 0.049035
vn -0.2978 0.5849 -0.7545
vn 0.2974 0.1200 -0.9472
vn -0.4613 0.2784 0.8424
vn -0.6071 0.5565 0.5672
vn 0.6958 -0.7045 0.1393
vn -0.8716 0.1437 -0.4687
vn -0.6167 -0.6435 -0.4535
vn 0.2889 -0.2428 -0.9261
vn -0.4478 -0.3945 0.8024
vn 0.5374 -0.7008 0.4691
vn 0.7598 0.6502 0.0017
vn 0.4853 0.3606 0.7966
vn 0.0939 0.9934 -0.0655
vt 0.550384 0.206938
vt 0.375000 0.305791
vt 0.375000 0.049496
vt 0.180791 0.500000
vt 0.330928 0.574320
vt 0.125000 0.700504
vt 0.804283 0.500000
vt 0.842867 0.681766
vt 0.658516 0.626313
vt 0.875000 0.500000
vt 0.501754 0.540833
vt 0.565165 0.799791
vt 0.325310 0.750000
vt 0.604031 0.069198
vt 0.375000 1.000000
vt 0.375000 0.799690
vt 0.578028 1.000000
vt 0.615335 0.592735
vt 0.589707 0.775249
vt 0.581909 0.353207
s 0
g Cube_Material
usemtl Material
f 440/751/468 442/752/468 441/753/468
f 442/754/469 445/755/469 441/756/469
f 446/757/470 443/758/470 447/759/470
f 443/758/471 446/757/471 440/760/471
f 448/761/472 439/762/472 444/763/472 445/755/472
f 441/753/473 443/764/473 440/751/473
f 441/765/474 444/766/474 439/762/474 443/767/474
f 445/755/475 444/763/475 441/756/475
f 447/768/476 443/758/476 439/769/476
f 439/762/477 448/761/477 447/768/477
f 448/761/478 445/755/478 442/752/478 446/770/478
f 448/761/479 446/770/479 447/768/479
f 442/752/480 440/751/480 446/770/480
o Cube
v -1.739023 -0.110058 -1.680879
v -2.184590 0.835864 -1.907454
v -1.696434 0.745799 -1.456869
v -2.260975 0.836382 -1.310833
v -1.857125 0.334016 -2.134539
v -1.712063 0.227373 -1.192057
v -2.142750 0.444479 -1.002877
v -2.632531 0.428776 -1.791017
v -2.413735 -0.098079 -1.742948
v -2.520797 0.070422 -1.306697
vn 0.1635 0.9863 0.0201
vn 0.2868 0.6439 0.7093
vn -0.4176 -0.2530 -0.8727
vn -0.3832 0.1615 -0.9094
vn 0.0545 -0.7568 0.6514
vn 0.5911 0.6195 -0.5166
vn 0.9882 -0.0091 -0.1531
vn 0.5246 0.3747 0.7644
vn 0.0524 -0.7068 -0.7055
vn -0.0488 -0.9357 0.3494
vn -0.8178 0.2801 0.5027
vn -0.9184 -0.3883 -0.0754
vn -0.6824 0.7257 -0.0880
vt 0.550384 0.206938
vt 0.375000 0.305791
vt 0.375000 0.049496
vt 0.180791 0.500000
vt 0.330928 0.574320
vt 0.125000 0.700504
vt 0.804283 0.500000
vt 0.842867 0.681766
vt 0.658516 0.626313
vt 0.875000 0.500000
vt 0.501754 0.540833
vt 0.565165 0.799791
vt 0.325310 0.750000
vt 0.604031 0.069198
vt 0.375000 1.000000
vt 0.375000 0.799690
vt 0.578028 1.000000
vt 0.615335 0.592735
vt 0.589707 0.775249
vt 0.581909 0.353207
s 0
g Cube_Material
usemtl Material
f 450/771/481 452/772/481 451/773/481
f 452/774/482 455/775/482 451/776/482
f 456/777/483 453/778/483 457/779/483
f 453/778/484 456/777/484 450/780/484
f 458/781/485 449/782/485 454/783/485 455/775/485
f 451/773/486 453/784/486 450/771/486
f 451/785/487 454/786/487 449/782/487 453/787/487
f 455/775/488 454/783/488 451/776/488
f 457/788/489 453/778/489 449/789/489
f 449/782/490 458/781/490 457/788/490
f 458/781/491 455/775/491 452/772/491 456/790/491
f 458/781/492 456/790/492 457/788/492
f 452/772/493 450/771/493 456/790/493
o Cube
v -2.630400 -0.097776 1.053627
v -3.072367 -0.159520 0.362623
v -2.557425 -0.173011 0.380759
v -2.793170 0.187846 0.239117
v -2.975103 -0.354087 0.804702
v -2.380788 0.072769 0.710707
v -2.531036 0.359061 0.478044
v -3.219610 0.220761 0.604067
v -3.031410 0.230824 1.001847
v -2.868956 0.479478 0.783119
vn 0.0237 -0.3518 -0.9358
vn 0.6296 0.1094 -0.7692
vn -0.8782 -0.2265 0.4212
vn -0.9241 -0.3805 0.0358
vn 0.5752 0.5895 0.5672
vn -0.0099 -0.9160 -0.4010
vn 0.5923 -0.7911 0.1527
vn 0.8651 0.0484 -0.4992
vn -0.3805 -0.3281 0.8647
vn 0.3103 0.5055 0.8051
vn -0.2566 0.8365 -0.4842
vn -0.6602 0.6908 0.2949
vn -0.6217 0.2339 -0.7475
vt 0.550384 0.206938
vt 0.375000 0.305791
vt 0.375000 0.049496
vt 0.180791 0.500000
vt 0.330928 0.574320
vt 0.125000 0.700504
vt 0.804283 0.500000
vt 0.842867 0.681766
vt 0.658516 0.626313
vt 0.875000 0.500000
vt 0.501754 0.540833
vt 0.565165 0.799791
vt 0.325310 0.750000
vt 0.604031 0.069198
vt 0.375000 1.000000
vt 0.375000 0.799690
vt 0.578028 1.000000
vt 0.615335 0.592735
vt 0.589707 0.775249
vt 0.581909 0.353207
s 0
g Cube_Material
usemtl Material
f 460/791/494 462/792/494 461/793/494
f 462/794/495 465/795/495 461/796/495
f 466/797/496 463/798/496 467/799/496
f 463/798/497 466/797/497 460/800/497
f 468/801/498 459/802/498 464/803/498 465/795/498
f 461/793/499 463/804/499 460/791/499
f 461/805/500 464/806/500 459/802/500 463/807/500
f 465/795/501 464/803/501 461/796/501
f 467/808/502 463/798/502 459/809/502
f 459/802/503 468/801/503 467/808/503
f 468/801/504 465/795/504 462/792/504 466/810/504
f 468/801/505 466/810/505 467/808/505
f 462/792/506 460/791/506 466/810/506
o Cube
v -0.093752 -0.034440 2.532536
v 0.218446 0.373377 1.872969
v 0.148306 0.586566 2.346271
v -0.127331 0.670794 1.986364
v 0.273609 -0.012361 2.187405
v -0.204999 0.414556 2.575690
v -0.397043 0.605458 2.274782
v -0.192118 0.158447 1.741850
v -0.337087 -0.110621 2.068477
v -0.543992 0.201928 2.063596
vn 0.5784 0.7724 -0.2622
vn 0.0043 0.9744 0.2247
vn 0.2363 -0.7988 -0.5532
vn 0.4915 -0.5069 -0.7081
vn -0.7974 -0.1416 0.5866
vn 0.9801 0.1891 0.0601
vn 0.6249 -0.0094 0.7806
vn -0.0440 0.8307 0.5551
vn 0.1416 -0.9860 0.0876
vn -0.7404 -0.4829 0.4675
vn -0.6310 0.4576 -0.6264
vn -0.6371 -0.4318 -0.6385
vn 0.0673 0.4228 -0.9037
vt 0.550384 0.206938
vt 0.375000 0.305791
vt 0.375000 0.049496
vt 0.180791 0.500000
vt 0.330928 0.574320
vt 0.125000 0.700504
vt 0.804283 0.500000
vt 0.842867 0.681766
vt 0.658516 0.626313
vt 0.875000 0.500000
vt 0.501754 0.540833
vt 0.565165 0.799791
vt 0.325310 0.750000
vt 0.604031 0.069198
vt 0.375000 1.000000
vt 0.375000 0.799690
vt 0.578028 1.000000
vt 0.615335 0.592735
vt 0.589707 0.775249
vt 0.581909 0.353207
s 0
g Cube_Material
usemtl Material
f 470/811/507 472/812/507 471/813/507
f 472/814/508 475/815/508 471/816/508
f 476/817/509 473/818/509 477/819/509
f 473/818/510 476/817/510 470/820/510
f 478/821/511 469/822/511 474/823/511 475/815/511
f 471/813/512 473/824/512 470/811/512
f 471/825/513 474/826/513 469/822/513 473/827/513
f 475/815/514 474/823/514 471/816/514
f 477/828/515 473/818/515 469/829/515
f 469/822/516 478/821/516 477/828/516
f 478/821/517 475/815/517 472/812/517 476/830/517
f 478/821/518 476/830/518 477/828/518
f 472/812/519 470/811/519 476/830/519
o Cube
v 1.646000 0.753577 0.244190
v 2.055343 0.566501 -0.509484
v 1.543563 0.406932 -0.386262
v 1.925353 0.109302 -0.376692
v 1.878523 0.945904 -0.191294
v 1.471797 0.328645 0.079603
v 1.738639 0.011021 -0.013194
v 2.357895 0.439937 -0.124495
v 2.176759 0.592089 0.281326
v 2.120581 0.203697 0.250528
vn -0.1581 -0.2337 -0.9594
vn -0.5367 -0.7035 -0.4659
vn 0.7204 0.6908 0.0626
vn 0.7029 0.6200 -0.3486
vn -0.3007 -0.3456 0.8889
vn -0.3473 0.5023 -0.7919
vn -0.8537 0.5022 -0.1374
vn -0.7776 -0.5894 -0.2188
vn 0.2220 0.8426 0.4907
vn -0.0896 -0.0658 0.9938
vn 0.5625 -0.8253 -0.0509
vn 0.8769 -0.1627 0.4524
vn 0.6643 -0.3764 -0.6458
vt 0.550384 0.206938
vt 0.375000 0.305791
vt 0.375000 0.049496
vt 0.180791 0.500000
vt 0.330928 0.574320
vt 0.125000 0.700504
vt 0.804283 0.500000
vt 0.842867 0.681766
vt 0.658516 0.626313
vt 0.875000 0.500000
vt 0.501754 0.540833
vt 0.565165 0.799791
vt 0.325310 0.750000
vt 0.604031 0.069198
vt 0.375000 1.000000
vt 0.375000 0.799690
vt 0.578028 1.000000
vt 0.615335 0.592735
vt 0.589707 0.775249
vt 0.581909 0.353207
s 0
g Cube_Material
usemtl Material
f 480/831/520 482/832/520 481/833/520
f 482/834/521 485/835/521 481/836/521
f 486/837/522 483/838/522 487/839/522
f 483/838/523 486/837/523 480/840/523
f 488/841/524 479/842/524 484/843/524 485/835/524
f 481/833/525 483/844/525 480/831/525
f 481/845/526 484/846/526 479/842/526 483/847/526
f 485/835/527 484/843/527 481/836/527
f 487/848/528 483/838/528 479/849/528
f 479/842/529 488/841/529 487/848/529
f 488/841/530 485/835/530 482/832/530 486/850/530
f 488/841/531 486/850/531 487/848/531
f 482/832/532 480/831/532 486/850/532
o Cube
v -0.525291 0.271826 -1.642574
v -0.029950 0.367284 -2.296337
v -0.349226 -0.034126 -2.228004
v 0.101496 -0.058842 -2.167246
v -0.403324 0.556638 -2.032955
v -0.412697 -0.145348 -1.797155
v -0.028071 -0.244577 -1.843158
v 0.227616 0.422109 -1.900123
v -0.036646 0.431493 -1.546104
v 0.132108 0.102427 -1.564929
vn 0.1154 -0.2552 -0.9600
vn 0.0185 -0.8706 -0.4916
vn 0.1846 0.9764 0.1119
vn 0.2583 0.9199 -0.2952
vn -0.1500 -0.4802 0.8643
vn -0.4775 0.2357 -0.8464
vn -0.9649 -0.0720 -0.2526
vn -0.2710 -0.9216 -0.2778
vn -0.3566 0.8043 0.4753
vn -0.1500 -0.1330 0.9797
vn 0.9340 -0.3542 0.0474
vn 0.7537 0.3549 0.5532
vn 0.8294 0.0888 -0.5515
vt 0.550384 0.206938
vt 0.375000 0.305791
vt 0.375000 0.049496
vt 0.180791 0.500000
vt 0.330928 0.574320
vt 0.125000 0.700504
vt 0.804283 0.500000
vt 0.842867 0.681766
vt 0.658516 0.626313
vt 0.875000 0.500000
vt 0.501754 0.540833
vt 0.565165 0.799791
vt 0.325310 0.750000
vt 0.604031 0.069198
vt 0.375000 1.000000
vt 0.375000 0.799690
vt 0.578028 1.000000
vt 0.615335 0.592735
vt 0.589707 0.775249
vt 0.581909 0.353207
s 0
g Cube_Material
usemtl Material
f 490/851/533 492/852/533 491/853/533
f 492/854/534 495/855/534 491/856/534
f 496/857/535 493/858/535 497/859/535
f 493/858/536 496/857/536 490/860/536
f 498/861/537 489/862/537 494/863/537 495/855/537
f 491/853/538 493/864/538 490/851/538
f 491/865/539 494/866/539 489/862/539 493/867/539
f 495/855/540 494/863/540 491/856/540
f 497/868/541 493/858/541 489/869/541
f 489/862/542 498/861/542 497/868/542
f 498/861/543 495/855/543 492/852/543 496/870/543
f 498/861/544 496/870/544 497/868/544
f 492/852/545 490/851/545 496/870/545
o Cube
v 1.016593 0.206172 -1.386526
v 1.297166 0.780346 -0.602528
v 1.665093 0.653472 -1.102756
v 1.731309 0.413088 -0.603678
v 0.903460 0.707588 -1.057208
v 1.573659 0.159342 -1.327669
v 1.764312 0.028346 -0.895934
v 1.084956 0.277035 -0.399510
v 0.865369 -0.009739 -0.802603
v 1.267439 -0.188325 -0.692298
vn 0.6221 0.7345 0.2712
vn 0.9886 0.1350 -0.0661
vn -0.9119 0.1794 0.3691
vn -0.6922 0.5013 0.5192
vn 0.0820 -0.8904 -0.4477
vn 0.0571 0.9769 -0.2058
vn 0.0461 0.4867 -0.8724
vn 0.9161 0.0128 -0.4007
vn -0.9632 -0.0430 -0.2654
vn -0.2799 -0.8746 -0.3959
vn 0.4191 -0.4403 0.7941
vn -0.4475 -0.5953 0.6673
vn 0.2361 0.2762 0.9316
vt 0.550384 0.206938
vt 0.375000 0.305791
vt 0.375000 0.049496
vt 0.180791 0.500000
vt 0.330928 0.574320
vt 0.125000 0.700504
vt 0.804283 0.500000
vt 0.842867 0.681766
vt 0.658516 0.626313
vt 0.875000 0.500000
vt 0.501754 0.540833
vt 0.565165 0.799791
vt 0.325310 0.750000
vt 0.604031 0.069198
vt 0.375000 1.000000
vt 0.375000 0.799690
vt 0.578028 1.000000
vt 0.615335 0.592735
vt 0.589707 0.775249
vt 0.581909 0.353207
s 0
g Cube_Material
usemtl Material
f 500/871/546 502/872/546 501/873/546
f 502/874/547 505/875/547 501/876/547
f 506/877/548 503/878/548 507/879/548
f 503/878/549 506/877/549 500/880/549
f 508/881/550 499/882/550 504/883/550 505/875/550
f 501/873/551 503/884/551 500/871/551
f 501/885/552 504/886/552 499/882/552 503/887/552
f 505/875/553 504/883/553 501/876/553
f 507/888/554 503/878/554 499/889/554
f 499/882/555 508/881/555 507/888/555
f 508/881/556 505/875/556 502/872/556 506/890/556
f 508/881/557 506/890/557 507/888/557
f 502/872/558 500/871/558 506/890/558
