# Blender 4.1.0
# www.blender.org
mtllib Explosion20035.mtl
o Circle
v -0.024615 0.096888 -1.522372
v -0.024615 0.242742 -1.522372
v 0.122545 0.096888 -1.515142
v 0.122545 0.242742 -1.515142
v 0.268288 0.096888 -1.493523
v 0.268288 0.242742 -1.493523
v 0.411211 0.096888 -1.457723
v 0.411211 0.242742 -1.457723
v 0.549936 0.096888 -1.408086
v 0.549936 0.242742 -1.408086
v 0.683127 0.096888 -1.345092
v 0.683127 0.242742 -1.345092
v 0.809503 0.096888 -1.269345
v 0.809503 0.242742 -1.269345
v 0.927846 0.096888 -1.181576
v 0.927846 0.242742 -1.181576
v 1.037016 0.096888 -1.082630
v 1.037016 0.242742 -1.082630
v 1.135962 0.096888 -0.973460
v 1.135962 0.242742 -0.973460
v 1.223731 0.096888 -0.855117
v 1.223731 0.242742 -0.855117
v 1.299478 0.096888 -0.728741
v 1.299478 0.242742 -0.728741
v 1.362473 0.096888 -0.595549
v 1.362473 0.242742 -0.595549
v 1.412110 0.096888 -0.456824
v 1.412110 0.242742 -0.456824
v 1.447910 0.096888 -0.313902
v 1.447910 0.242742 -0.313902
v 1.469529 0.096888 -0.168159
v 1.469529 0.242742 -0.168159
v 1.476758 0.096888 -0.020998
v 1.476758 0.242742 -0.020998
v 1.469529 0.096888 0.126162
v 1.469529 0.242742 0.126162
v 1.447910 0.096888 0.271905
v 1.447910 0.242742 0.271905
v 1.412110 0.096888 0.414827
v 1.412110 0.242742 0.414827
v 1.362473 0.096888 0.553553
v 1.362473 0.242742 0.553553
v 1.299478 0.096888 0.686744
v 1.299478 0.242742 0.686744
v 1.223731 0.096888 0.813120
v 1.223731 0.242742 0.813120
v 1.135962 0.096888 0.931463
v 1.135962 0.242742 0.931463
v 1.037016 0.096888 1.040633
v 1.037016 0.242742 1.040633
v 0.927846 0.096888 1.139579
v 0.927846 0.242742 1.139579
v 0.809503 0.096888 1.227348
v 0.809503 0.242742 1.227348
v 0.683127 0.096888 1.303095
v 0.683127 0.242742 1.303095
v 0.549936 0.096888 1.366090
v 0.549936 0.242742 1.366090
v 0.411211 0.096888 1.415727
v 0.411211 0.242742 1.415727
v 0.268288 0.096888 1.451527
v 0.268288 0.242742 1.451527
v 0.122545 0.096888 1.473146
v 0.122545 0.242742 1.473146
v -0.024615 0.096888 1.480376
v -0.024615 0.242742 1.480376
v -0.171775 0.096888 1.473146
v -0.171775 0.242742 1.473146
v -0.317519 0.096888 1.451527
v -0.317519 0.242742 1.451527
v -0.460441 0.096888 1.415727
v -0.460441 0.242742 1.415727
v -0.599166 0.096888 1.366090
v -0.599166 0.242742 1.366090
v -0.732358 0.096888 1.303095
v -0.732358 0.242742 1.303095
v -0.858734 0.096888 1.227348
v -0.858734 0.242742 1.227348
v -0.977076 0.096888 1.139579
v -0.977076 0.242742 1.139579
v -1.086246 0.096888 1.040633
v -1.086246 0.242742 1.040633
v -1.185192 0.096888 0.931463
v -1.185192 0.242742 0.931463
v -1.272961 0.096888 0.813120
v -1.272961 0.242742 0.813120
v -1.348708 0.096888 0.686744
v -1.348708 0.242742 0.686744
v -1.411703 0.096888 0.553553
v -1.411703 0.242742 0.553553
v -1.461340 0.096888 0.414827
v -1.461340 0.242742 0.414827
v -1.497140 0.096888 0.271905
v -1.497140 0.242742 0.271905
v -1.518759 0.096888 0.126162
v -1.518759 0.242742 0.126162
v -1.525989 0.096888 -0.020998
v -1.525989 0.242742 -0.020998
v -1.518759 0.096888 -0.168159
v -1.518759 0.242742 -0.168159
v -1.497140 0.096888 -0.313902
v -1.497140 0.242742 -0.313902
v -1.461340 0.096888 -0.456824
v -1.461340 0.242742 -0.456824
v -1.411703 0.096888 -0.595549
v -1.411703 0.242742 -0.595549
v -1.348708 0.096888 -0.728741
v -1.348708 0.242742 -0.728741
v -1.272961 0.096888 -0.855117
v -1.272961 0.242742 -0.855117
v -1.185192 0.096888 -0.973460
v -1.185192 0.242742 -0.973460
v -1.086246 0.096888 -1.082630
v -1.086246 0.242742 -1.082630
v -0.977076 0.096888 -1.181576
v -0.977076 0.242742 -1.181576
v -0.858734 0.096888 -1.269345
v -0.858734 0.242742 -1.269345
v -0.732358 0.096888 -1.345092
v -0.732358 0.242742 -1.345092
v -0.599166 0.096888 -1.408086
v -0.599166 0.242742 -1.408086
v -0.460441 0.096888 -1.457723
v -0.460441 0.242742 -1.457723
v -0.317519 0.096888 -1.493523
v -0.317519 0.242742 -1.493523
v -0.171775 0.096888 -1.515142
v -0.171775 0.242742 -1.515142
vn 0.0491 -0.0000 -0.9988
vn 0.1467 -0.0000 -0.9892
vn 0.2430 -0.0000 -0.9700
vn 0.3369 -0.0000 -0.9415
vn 0.4276 -0.0000 -0.9040
vn 0.5141 -0.0000 -0.8577
vn 0.5957 -0.0000 -0.8032
vn 0.6716 -0.0000 -0.7410
vn 0.7410 -0.0000 -0.6716
vn 0.8032 -0.0000 -0.5957
vn 0.8577 -0.0000 -0.5141
vn 0.9040 -0.0000 -0.4276
vn 0.9415 -0.0000 -0.3369
vn 0.9700 -0.0000 -0.2430
vn 0.9892 -0.0000 -0.1467
vn 0.9988 -0.0000 -0.0491
vn 0.9988 -0.0000 0.0491
vn 0.9892 -0.0000 0.1467
vn 0.9700 -0.0000 0.2430
vn 0.9415 -0.0000 0.3369
vn 0.9040 -0.0000 0.4276
vn 0.8577 -0.0000 0.5141
vn 0.8032 -0.0000 0.5957
vn 0.7410 -0.0000 0.6716
vn 0.6716 -0.0000 0.7410
vn 0.5957 -0.0000 0.8032
vn 0.5141 -0.0000 0.8577
vn 0.4276 -0.0000 0.9040
vn 0.3369 -0.0000 0.9415
vn 0.2430 -0.0000 0.9700
vn 0.1467 -0.0000 0.9892
vn 0.0491 -0.0000 0.9988
vn -0.0491 -0.0000 0.9988
vn -0.1467 -0.0000 0.9892
vn -0.2430 -0.0000 0.9700
vn -0.3369 -0.0000 0.9415
vn -0.4276 -0.0000 0.9040
vn -0.5141 -0.0000 0.8577
vn -0.5957 -0.0000 0.8032
vn -0.6716 -0.0000 0.7410
vn -0.7410 -0.0000 0.6716
vn -0.8032 -0.0000 0.5957
vn -0.8577 -0.0000 0.5141
vn -0.9040 -0.0000 0.4276
vn -0.9415 -0.0000 0.3369
vn -0.9700 -0.0000 0.2430
vn -0.9892 -0.0000 0.1467
vn -0.9988 -0.0000 0.0491
vn -0.9988 -0.0000 -0.0491
vn -0.9892 -0.0000 -0.1467
vn -0.9700 -0.0000 -0.2430
vn -0.9415 -0.0000 -0.3369
vn -0.9040 -0.0000 -0.4276
vn -0.8577 -0.0000 -0.5141
vn -0.8032 -0.0000 -0.5957
vn -0.7410 -0.0000 -0.6716
vn -0.6716 -0.0000 -0.7410
vn -0.5957 -0.0000 -0.8032
vn -0.5141 -0.0000 -0.8577
vn -0.4276 -0.0000 -0.9040
vn -0.3369 -0.0000 -0.9415
vn -0.2430 -0.0000 -0.9700
vn -0.1467 -0.0000 -0.9892
vn -0.0491 -0.0000 -0.9988
vt 1.000000 0.500000
vt 1.000000 1.000000
vt 0.984375 1.000000
vt 0.984375 0.500000
vt 0.968750 1.000000
vt 0.968750 0.500000
vt 0.953125 1.000000
vt 0.953125 0.500000
vt 0.937500 1.000000
vt 0.937500 0.500000
vt 0.921875 1.000000
vt 0.921875 0.500000
vt 0.906250 1.000000
vt 0.906250 0.500000
vt 0.890625 1.000000
vt 0.890625 0.500000
vt 0.875000 1.000000
vt 0.875000 0.500000
vt 0.859375 1.000000
vt 0.859375 0.500000
vt 0.843750 1.000000
vt 0.843750 0.500000
vt 0.828125 1.000000
vt 0.828125 0.500000
vt 0.812500 1.000000
vt 0.812500 0.500000
vt 0.796875 1.000000
vt 0.796875 0.500000
vt 0.781250 1.000000
vt 0.781250 0.500000
vt 0.765625 1.000000
vt 0.765625 0.500000
vt 0.750000 1.000000
vt 0.750000 0.500000
vt 0.734375 1.000000
vt 0.734375 0.500000
vt 0.718750 1.000000
vt 0.718750 0.500000
vt 0.703125 1.000000
vt 0.703125 0.500000
vt 0.687500 1.000000
vt 0.687500 0.500000
vt 0.671875 1.000000
vt 0.671875 0.500000
vt 0.656250 1.000000
vt 0.656250 0.500000
vt 0.640625 1.000000
vt 0.640625 0.500000
vt 0.625000 1.000000
vt 0.625000 0.500000
vt 0.609375 1.000000
vt 0.609375 0.500000
vt 0.593750 1.000000
vt 0.593750 0.500000
vt 0.578125 1.000000
vt 0.578125 0.500000
vt 0.562500 1.000000
vt 0.562500 0.500000
vt 0.546875 1.000000
vt 0.546875 0.500000
vt 0.531250 1.000000
vt 0.531250 0.500000
vt 0.515625 1.000000
vt 0.515625 0.500000
vt 0.500000 1.000000
vt 0.500000 0.500000
vt 0.484375 1.000000
vt 0.484375 0.500000
vt 0.468750 1.000000
vt 0.468750 0.500000
vt 0.453125 1.000000
vt 0.453125 0.500000
vt 0.437500 1.000000
vt 0.437500 0.500000
vt 0.421875 1.000000
vt 0.421875 0.500000
vt 0.406250 1.000000
vt 0.406250 0.500000
vt 0.390625 1.000000
vt 0.390625 0.500000
vt 0.375000 1.000000
vt 0.375000 0.500000
vt 0.359375 1.000000
vt 0.359375 0.500000
vt 0.343750 1.000000
vt 0.343750 0.500000
vt 0.328125 1.000000
vt 0.328125 0.500000
vt 0.312500 1.000000
vt 0.312500 0.500000
vt 0.296875 1.000000
vt 0.296875 0.500000
vt 0.281250 1.000000
vt 0.281250 0.500000
vt 0.265625 1.000000
vt 0.265625 0.500000
vt 0.250000 1.000000
vt 0.250000 0.500000
vt 0.234375 1.000000
vt 0.234375 0.500000
vt 0.218750 1.000000
vt 0.218750 0.500000
vt 0.203125 1.000000
vt 0.203125 0.500000
vt 0.187500 1.000000
vt 0.187500 0.500000
vt 0.171875 1.000000
vt 0.171875 0.500000
vt 0.156250 1.000000
vt 0.156250 0.500000
vt 0.140625 1.000000
vt 0.140625 0.500000
vt 0.125000 1.000000
vt 0.125000 0.500000
vt 0.109375 1.000000
vt 0.109375 0.500000
vt 0.093750 1.000000
vt 0.093750 0.500000
vt 0.078125 1.000000
vt 0.078125 0.500000
vt 0.062500 1.000000
vt 0.062500 0.500000
vt 0.046875 1.000000
vt 0.046875 0.500000
vt 0.031250 1.000000
vt 0.031250 0.500000
vt 0.015625 1.000000
vt 0.015625 0.500000
vt 0.000000 1.000000
vt 0.000000 0.500000
s 0
g Circle_Material.001
usemtl Material.001
f 1/1/1 2/2/1 4/3/1 3/4/1
f 3/4/2 4/3/2 6/5/2 5/6/2
f 5/6/3 6/5/3 8/7/3 7/8/3
f 7/8/4 8/7/4 10/9/4 9/10/4
f 9/10/5 10/9/5 12/11/5 11/12/5
f 11/12/6 12/11/6 14/13/6 13/14/6
f 13/14/7 14/13/7 16/15/7 15/16/7
f 15/16/8 16/15/8 18/17/8 17/18/8
f 17/18/9 18/17/9 20/19/9 19/20/9
f 19/20/10 20/19/10 22/21/10 21/22/10
f 21/22/11 22/21/11 24/23/11 23/24/11
f 23/24/12 24/23/12 26/25/12 25/26/12
f 25/26/13 26/25/13 28/27/13 27/28/13
f 27/28/14 28/27/14 30/29/14 29/30/14
f 29/30/15 30/29/15 32/31/15 31/32/15
f 31/32/16 32/31/16 34/33/16 33/34/16
f 33/34/17 34/33/17 36/35/17 35/36/17
f 35/36/18 36/35/18 38/37/18 37/38/18
f 37/38/19 38/37/19 40/39/19 39/40/19
f 39/40/20 40/39/20 42/41/20 41/42/20
f 41/42/21 42/41/21 44/43/21 43/44/21
f 43/44/22 44/43/22 46/45/22 45/46/22
f 45/46/23 46/45/23 48/47/23 47/48/23
f 47/48/24 48/47/24 50/49/24 49/50/24
f 49/50/25 50/49/25 52/51/25 51/52/25
f 51/52/26 52/51/26 54/53/26 53/54/26
f 53/54/27 54/53/27 56/55/27 55/56/27
f 55/56/28 56/55/28 58/57/28 57/58/28
f 57/58/29 58/57/29 60/59/29 59/60/29
f 59/60/30 60/59/30 62/61/30 61/62/30
f 61/62/31 62/61/31 64/63/31 63/64/31
f 63/64/32 64/63/32 66/65/32 65/66/32
f 65/66/33 66/65/33 68/67/33 67/68/33
f 67/68/34 68/67/34 70/69/34 69/70/34
f 69/70/35 70/69/35 72/71/35 71/72/35
f 71/72/36 72/71/36 74/73/36 73/74/36
f 73/74/37 74/73/37 76/75/37 75/76/37
f 75/76/38 76/75/38 78/77/38 77/78/38
f 77/78/39 78/77/39 80/79/39 79/80/39
f 79/80/40 80/79/40 82/81/40 81/82/40
f 81/82/41 82/81/41 84/83/41 83/84/41
f 83/84/42 84/83/42 86/85/42 85/86/42
f 85/86/43 86/85/43 88/87/43 87/88/43
f 87/88/44 88/87/44 90/89/44 89/90/44
f 89/90/45 90/89/45 92/91/45 91/92/45
f 91/92/46 92/91/46 94/93/46 93/94/46
f 93/94/47 94/93/47 96/95/47 95/96/47
f 95/96/48 96/95/48 98/97/48 97/98/48
f 97/98/49 98/97/49 100/99/49 99/100/49
f 99/100/50 100/99/50 102/101/50 101/102/50
f 101/102/51 102/101/51 104/103/51 103/104/51
f 103/104/52 104/103/52 106/105/52 105/106/52
f 105/106/53 106/105/53 108/107/53 107/108/53
f 107/108/54 108/107/54 110/109/54 109/110/54
f 109/110/55 110/109/55 112/111/55 111/112/55
f 111/112/56 112/111/56 114/113/56 113/114/56
f 113/114/57 114/113/57 116/115/57 115/116/57
f 115/116/58 116/115/58 118/117/58 117/118/58
f 117/118/59 118/117/59 120/119/59 119/120/59
f 119/120/60 120/119/60 122/121/60 121/122/60
f 121/122/61 122/121/61 124/123/61 123/124/61
f 123/124/62 124/123/62 126/125/62 125/126/62
f 125/126/63 126/125/63 128/127/63 127/128/63
f 127/128/64 128/127/64 2/129/64 1/130/64
o Cube
v -0.777283 0.074709 6.882564
v -0.667048 0.323252 6.614046
v -0.707619 0.380743 6.842925
v -0.840923 0.426729 6.686266
v -0.615431 0.131890 6.728525
v -0.854927 0.265563 6.934026
v -0.956406 0.360294 6.811669
v -0.840937 0.210829 6.539259
v -0.887028 0.058327 6.667449
v -1.000027 0.185592 6.687428
vn 0.4637 0.8752 -0.1377
vn -0.1226 0.9192 0.3741
vn 0.3306 -0.6638 -0.6708
vn 0.5411 -0.3194 -0.7779
vn -0.7591 -0.3380 0.5563
vn 0.9467 0.3093 0.0901
vn 0.6360 -0.0450 0.7704
vn -0.1444 0.7209 0.6779
vn 0.2749 -0.9591 -0.0672
vn -0.6591 -0.6457 0.3854
vn -0.6993 0.4588 -0.5482
vn -0.5858 -0.4104 -0.6989
vn -0.0084 0.5628 -0.8266
vt 0.550384 0.206938
vt 0.375000 0.305791
vt 0.375000 0.049496
vt 0.180791 0.500000
vt 0.330928 0.574320
vt 0.125000 0.700504
vt 0.804283 0.500000
vt 0.842867 0.681766
vt 0.658516 0.626313
vt 0.875000 0.500000
vt 0.501754 0.540833
vt 0.565165 0.799791
vt 0.325310 0.750000
vt 0.604031 0.069198
vt 0.375000 1.000000
vt 0.375000 0.799690
vt 0.578028 1.000000
vt 0.615335 0.592735
vt 0.589707 0.775249
vt 0.581909 0.353207
s 0
g Cube_Material
usemtl Material
f 130/131/65 132/132/65 131/133/65
f 132/134/66 135/135/66 131/136/66
f 136/137/67 133/138/67 137/139/67
f 133/138/68 136/137/68 130/140/68
f 138/141/69 129/142/69 134/143/69 135/135/69
f 131/133/70 133/144/70 130/131/70
f 131/145/71 134/146/71 129/142/71 133/147/71
f 135/135/72 134/143/72 131/136/72
f 137/148/73 133/138/73 129/149/73
f 129/142/74 138/141/74 137/148/74
f 138/141/75 135/135/75 132/132/75 136/150/75
f 138/141/76 136/150/76 137/148/76
f 132/132/77 130/131/77 136/150/77
o Cube
v 5.293093 0.040360 0.543191
v 5.447128 -0.078333 0.171858
v 5.191090 -0.054322 0.225307
v 5.299373 -0.257997 0.209602
v 5.438824 0.102413 0.345920
v 5.137116 -0.100143 0.442205
v 5.193060 -0.284322 0.377780
v 5.548163 -0.213545 0.344569
v 5.492344 -0.135071 0.547146
v 5.392766 -0.290272 0.510700
vn -0.2074 -0.0349 -0.9776
vn -0.7609 -0.3631 -0.5378
vn 0.9368 0.3236 0.1328
vn 0.9059 0.3147 -0.2836
vn -0.4451 -0.2938 0.8459
vn -0.0856 0.6891 -0.7196
vn -0.5698 0.8195 -0.0613
vn -0.9425 -0.1902 -0.2747
vn 0.5296 0.6147 0.5846
vn -0.1419 -0.1391 0.9801
vn 0.1786 -0.9709 -0.1595
vn 0.7187 -0.5584 0.4143
vn 0.4744 -0.5367 -0.6977
vt 0.550384 0.206938
vt 0.375000 0.305791
vt 0.375000 0.049496
vt 0.180791 0.500000
vt 0.330928 0.574320
vt 0.125000 0.700504
vt 0.804283 0.500000
vt 0.842867 0.681766
vt 0.658516 0.626313
vt 0.875000 0.500000
vt 0.501754 0.540833
vt 0.565165 0.799791
vt 0.325310 0.750000
vt 0.604031 0.069198
vt 0.375000 1.000000
vt 0.375000 0.799690
vt 0.578028 1.000000
vt 0.615335 0.592735
vt 0.589707 0.775249
vt 0.581909 0.353207
s 0
g Cube_Material
usemtl Material
f 140/151/78 142/152/78 141/153/78
f 142/154/79 145/155/79 141/156/79
f 146/157/80 143/158/80 147/159/80
f 143/158/81 146/157/81 140/160/81
f 148/161/82 139/162/82 144/163/82 145/155/82
f 141/153/83 143/164/83 140/151/83
f 141/165/84 144/166/84 139/162/84 143/167/84
f 145/155/85 144/163/85 141/156/85
f 147/168/86 143/158/86 139/169/86
f 139/162/87 148/161/87 147/168/87
f 148/161/88 145/155/88 142/152/88 146/170/88
f 148/161/89 146/170/89 147/168/89
f 142/152/90 140/151/90 146/170/90
o Cube
v 0.466691 0.508706 -5.447071
v 0.698664 0.512448 -5.772053
v 0.524096 0.339448 -5.725151
v 0.740091 0.303318 -5.701748
v 0.534536 0.630090 -5.643900
v 0.494740 0.298886 -5.513653
v 0.673017 0.228480 -5.539110
v 0.832112 0.532593 -5.585755
v 0.711823 0.559642 -5.411248
v 0.774075 0.391802 -5.415142
vn 0.0512 -0.3091 -0.9496
vn -0.0998 -0.8876 -0.4496
vn 0.3003 0.9520 0.0594
vn 0.3525 0.8693 -0.3465
vn -0.1741 -0.4206 0.8904
vn -0.4765 0.2525 -0.8421
vn -0.9750 0.0307 -0.2199
vn -0.3855 -0.8948 -0.2251
vn -0.2441 0.8607 0.4467
vn -0.1298 -0.0711 0.9890
vn 0.8878 -0.4588 0.0364
vn 0.8087 0.2881 0.5128
vn 0.8142 -0.0336 -0.5796
vt 0.550384 0.206938
vt 0.375000 0.305791
vt 0.375000 0.049496
vt 0.180791 0.500000
vt 0.330928 0.574320
vt 0.125000 0.700504
vt 0.804283 0.500000
vt 0.842867 0.681766
vt 0.658516 0.626313
vt 0.875000 0.500000
vt 0.501754 0.540833
vt 0.565165 0.799791
vt 0.325310 0.750000
vt 0.604031 0.069198
vt 0.375000 1.000000
vt 0.375000 0.799690
vt 0.578028 1.000000
vt 0.615335 0.592735
vt 0.589707 0.775249
vt 0.581909 0.353207
s 0
g Cube_Material
usemtl Material
f 150/171/91 152/172/91 151/173/91
f 152/174/92 155/175/92 151/176/92
f 156/177/93 153/178/93 157/179/93
f 153/178/94 156/177/94 150/180/94
f 158/181/95 149/182/95 154/183/95 155/175/95
f 151/173/96 153/184/96 150/171/96
f 151/185/97 154/186/97 149/182/97 153/187/97
f 155/175/98 154/183/98 151/176/98
f 157/188/99 153/178/99 149/189/99
f 149/182/100 158/181/100 157/188/100
f 158/181/101 155/175/101 152/172/101 156/190/101
f 158/181/102 156/190/102 157/188/102
f 152/172/103 150/171/103 156/190/103
o Cube
v 3.338165 0.083493 -4.246032
v 3.486165 0.279589 -3.960524
v 3.607176 0.208900 -4.150432
v 3.623068 0.118078 -3.964256
v 3.331451 0.275608 -4.124677
v 3.540551 0.032323 -4.230529
v 3.607969 -0.026156 -4.071457
v 3.380030 0.108355 -3.879873
v 3.276797 0.015249 -4.025813
v 3.414870 -0.074655 -3.988643
vn 0.7431 0.6243 0.2411
vn 0.9946 -0.0301 -0.0996
vn -0.8570 0.3301 0.3956
vn -0.5825 0.6127 0.5342
vn -0.0806 -0.8954 -0.4379
vn 0.2098 0.9525 -0.2208
vn 0.0958 0.4652 -0.8800
vn 0.8917 -0.1414 -0.4299
vn -0.9656 0.1139 -0.2338
vn -0.4330 -0.8198 -0.3747
vn 0.3677 -0.4967 0.7862
vn -0.5164 -0.5080 0.6894
vn 0.3097 0.2412 0.9197
vt 0.550384 0.206938
vt 0.375000 0.305791
vt 0.375000 0.049496
vt 0.180791 0.500000
vt 0.330928 0.574320
vt 0.125000 0.700504
vt 0.804283 0.500000
vt 0.842867 0.681766
vt 0.658516 0.626313
vt 0.875000 0.500000
vt 0.501754 0.540833
vt 0.565165 0.799791
vt 0.325310 0.750000
vt 0.604031 0.069198
vt 0.375000 1.000000
vt 0.375000 0.799690
vt 0.578028 1.000000
vt 0.615335 0.592735
vt 0.589707 0.775249
vt 0.581909 0.353207
s 0
g Cube_Material
usemtl Material
f 160/191/104 162/192/104 161/193/104
f 162/194/105 165/195/105 161/196/105
f 166/197/106 163/198/106 167/199/106
f 163/198/107 166/197/107 160/200/107
f 168/201/108 159/202/108 164/203/108 165/195/108
f 161/193/109 163/204/109 160/191/109
f 161/205/110 164/206/110 159/202/110 163/207/110
f 165/195/111 164/203/111 161/196/111
f 167/208/112 163/198/112 159/209/112
f 159/202/113 168/201/113 167/208/113
f 168/201/114 165/195/114 162/192/114 166/210/114
f 168/201/115 166/210/115 167/208/115
f 162/192/116 160/191/116 166/210/116
o Cube
v -4.857080 0.812237 -1.099494
v -5.071735 0.426110 -0.883209
v -4.777047 0.433454 -0.973238
v -4.971074 0.299585 -1.107559
v -4.997649 0.710213 -0.858730
v -4.733184 0.585638 -1.189112
v -4.861736 0.409453 -1.284872
v -5.233122 0.510107 -1.100481
v -5.142622 0.736882 -1.198786
v -5.087014 0.571277 -1.333454
vn 0.1868 -0.8175 0.5448
vn 0.6136 -0.7824 -0.1065
vn -0.7931 0.4794 0.3757
vn -0.7663 0.1459 0.6256
vn 0.3340 0.3909 -0.8577
vn 0.2921 -0.1575 0.9433
vn 0.7929 0.3368 0.5078
vn 0.8393 -0.5098 -0.1888
vn -0.3164 0.9256 0.2075
vn 0.0926 0.6467 -0.7571
vn -0.4668 -0.6746 -0.5718
vn -0.8550 0.1227 -0.5040
vn -0.6157 -0.7718 0.1590
vt 0.550384 0.206938
vt 0.375000 0.305791
vt 0.375000 0.049496
vt 0.180791 0.500000
vt 0.330928 0.574320
vt 0.125000 0.700504
vt 0.804283 0.500000
vt 0.842867 0.681766
vt 0.658516 0.626313
vt 0.875000 0.500000
vt 0.501754 0.540833
vt 0.565165 0.799791
vt 0.325310 0.750000
vt 0.604031 0.069198
vt 0.375000 1.000000
vt 0.375000 0.799690
vt 0.578028 1.000000
vt 0.615335 0.592735
vt 0.589707 0.775249
vt 0.581909 0.353207
s 0
g Cube_Material
usemtl Material
f 170/211/117 172/212/117 171/213/117
f 172/214/118 175/215/118 171/216/118
f 176/217/119 173/218/119 177/219/119
f 173/218/120 176/217/120 170/220/120
f 178/221/121 169/222/121 174/223/121 175/215/121
f 171/213/122 173/224/122 170/211/122
f 171/225/123 174/226/123 169/222/123 173/227/123
f 175/215/124 174/223/124 171/216/124
f 177/228/125 173/218/125 169/229/125
f 169/222/126 178/221/126 177/228/126
f 178/221/127 175/215/127 172/212/127 176/230/127
f 178/221/128 176/230/128 177/228/128
f 172/212/129 170/211/129 176/230/129
o Cube
v 2.614529 0.350845 -3.700739
v 2.702676 -0.057773 -4.035371
v 2.927178 0.057894 -3.814468
v 2.941467 0.112021 -4.104460
v 2.522691 0.055819 -3.795443
v 2.905525 0.343886 -3.762615
v 2.985815 0.345858 -4.009160
v 2.594310 0.181371 -4.197342
v 2.509142 0.390276 -4.020694
v 2.719578 0.450269 -4.119548
vn 0.5502 -0.8254 -0.1269
vn 0.9815 -0.1913 0.0127
vn -0.9536 -0.1939 -0.2305
vn -0.7683 -0.5592 -0.3116
vn 0.1758 0.9647 0.1960
vn 0.0254 -0.8960 0.4433
vn 0.1099 -0.2556 0.9605
vn 0.9507 0.0158 0.3097
vn -0.9268 0.1833 0.3278
vn -0.1898 0.9649 0.1814
vn 0.3576 0.1939 -0.9135
vn -0.4815 0.4431 -0.7562
vn 0.1231 -0.5177 -0.8467
vt 0.550384 0.206938
vt 0.375000 0.305791
vt 0.375000 0.049496
vt 0.180791 0.500000
vt 0.330928 0.574320
vt 0.125000 0.700504
vt 0.804283 0.500000
vt 0.842867 0.681766
vt 0.658516 0.626313
vt 0.875000 0.500000
vt 0.501754 0.540833
vt 0.565165 0.799791
vt 0.325310 0.750000
vt 0.604031 0.069198
vt 0.375000 1.000000
vt 0.375000 0.799690
vt 0.578028 1.000000
vt 0.615335 0.592735
vt 0.589707 0.775249
vt 0.581909 0.353207
s 0
g Cube_Material
usemtl Material
f 180/231/130 182/232/130 181/233/130
f 182/234/131 185/235/131 181/236/131
f 186/237/132 183/238/132 187/239/132
f 183/238/133 186/237/133 180/240/133
f 188/241/134 179/242/134 184/243/134 185/235/134
f 181/233/135 183/244/135 180/231/135
f 181/245/136 184/246/136 179/242/136 183/247/136
f 185/235/137 184/243/137 181/236/137
f 187/248/138 183/238/138 179/249/138
f 179/242/139 188/241/139 187/248/139
f 188/241/140 185/235/140 182/232/140 186/250/140
f 188/241/141 186/250/141 187/248/141
f 182/232/142 180/231/142 186/250/142
o Cube
v -4.538233 0.539468 -0.858137
v -4.591010 0.556400 -1.278949
v -4.789071 0.571635 -1.102097
v -4.744090 0.380237 -1.229193
v -4.482632 0.663354 -1.075361
v -4.751241 0.451481 -0.908426
v -4.769869 0.298820 -1.044784
v -4.454659 0.360797 -1.224678
v -4.397911 0.363151 -1.004768
v -4.535710 0.234957 -1.033131
vn -0.6141 0.3313 -0.7163
vn -0.9770 -0.1074 -0.1840
vn 0.9463 0.2091 -0.2464
vn 0.7362 0.3530 -0.5774
vn -0.0841 -0.5589 0.8250
vn -0.2409 0.9061 -0.3478
vn -0.3502 0.8119 0.4671
vn -0.9846 -0.0332 0.1717
vn 0.8487 0.3356 0.4087
vn 0.2725 -0.4777 0.8352
vn -0.1203 -0.8545 -0.5053
vn 0.6897 -0.7037 -0.1705
vn -0.0031 -0.2693 -0.9630
vt 0.550384 0.206938
vt 0.375000 0.305791
vt 0.375000 0.049496
vt 0.180791 0.500000
vt 0.330928 0.574320
vt 0.125000 0.700504
vt 0.804283 0.500000
vt 0.842867 0.681766
vt 0.658516 0.626313
vt 0.875000 0.500000
vt 0.501754 0.540833
vt 0.565165 0.799791
vt 0.325310 0.750000
vt 0.604031 0.069198
vt 0.375000 1.000000
vt 0.375000 0.799690
vt 0.578028 1.000000
vt 0.615335 0.592735
vt 0.589707 0.775249
vt 0.581909 0.353207
s 0
g Cube_Material
usemtl Material
f 190/251/143 192/252/143 191/253/143
f 192/254/144 195/255/144 191/256/144
f 196/257/145 193/258/145 197/259/145
f 193/258/146 196/257/146 190/260/146
f 198/261/147 189/262/147 194/263/147 195/255/147
f 191/253/148 193/264/148 190/251/148
f 191/265/149 194/266/149 189/262/149 193/267/149
f 195/255/150 194/263/150 191/256/150
f 197/268/151 193/258/151 189/269/151
f 189/262/152 198/261/152 197/268/152
f 198/261/153 195/255/153 192/252/153 196/270/153
f 198/261/154 196/270/154 197/268/154
f 192/252/155 190/251/155 196/270/155
o Cube
v -1.710823 0.520315 -3.562939
v -1.946519 0.238763 -3.928899
v -1.948733 0.166531 -3.612195
v -1.788274 0.028155 -3.804207
v -1.926585 0.515500 -3.789482
v -1.715288 0.245984 -3.475023
v -1.622996 0.065224 -3.622772
v -1.663683 0.286711 -4.012018
v -1.542252 0.466973 -3.839638
v -1.466914 0.252190 -3.792367
vn -0.7442 -0.6501 -0.1535
vn -0.2581 -0.8731 0.4135
vn -0.0065 0.6934 -0.7205
vn -0.3211 0.4444 -0.8363
vn 0.7849 0.0705 0.6157
vn -0.9977 0.0676 0.0084
vn -0.6310 0.3264 0.7038
vn -0.1875 -0.6773 0.7114
vn 0.1083 0.9863 -0.1241
vn 0.8203 0.3815 0.4262
vn 0.5183 -0.7189 -0.4632
vn 0.7488 0.1191 -0.6520
vn -0.1379 -0.5793 -0.8034
vt 0.550384 0.206938
vt 0.375000 0.305791
vt 0.375000 0.049496
vt 0.180791 0.500000
vt 0.330928 0.574320
vt 0.125000 0.700504
vt 0.804283 0.500000
vt 0.842867 0.681766
vt 0.658516 0.626313
vt 0.875000 0.500000
vt 0.501754 0.540833
vt 0.565165 0.799791
vt 0.325310 0.750000
vt 0.604031 0.069198
vt 0.375000 1.000000
vt 0.375000 0.799690
vt 0.578028 1.000000
vt 0.615335 0.592735
vt 0.589707 0.775249
vt 0.581909 0.353207
s 0
g Cube_Material
usemtl Material
f 200/271/156 202/272/156 201/273/156
f 202/274/157 205/275/157 201/276/157
f 206/277/158 203/278/158 207/279/158
f 203/278/159 206/277/159 200/280/159
f 208/281/160 199/282/160 204/283/160 205/275/160
f 201/273/161 203/284/161 200/271/161
f 201/285/162 204/286/162 199/282/162 203/287/162
f 205/275/163 204/283/163 201/276/163
f 207/288/164 203/278/164 199/289/164
f 199/282/165 208/281/165 207/288/165
f 208/281/166 205/275/166 202/272/166 206/290/166
f 208/281/167 206/290/167 207/288/167
f 202/272/168 200/271/168 206/290/168
o Cube
v -3.080278 -0.166336 -3.049055
v -3.175983 -0.260678 -3.507615
v -2.921369 -0.335927 -3.369179
v -2.940546 -0.135106 -3.538800
v -3.255138 -0.300046 -3.235395
v -2.850249 -0.170255 -3.181703
v -2.822359 -0.037328 -3.369046
v -3.224361 0.006166 -3.460250
v -3.207877 0.055987 -3.209993
v -3.031800 0.127964 -3.308640
vn 0.2283 -0.6154 -0.7544
vn 0.8559 -0.2836 -0.4325
vn -0.9909 0.1287 0.0396
vn -0.9485 -0.1199 -0.2931
vn 0.5043 0.5795 0.6402
vn -0.1807 -0.9646 -0.1920
vn 0.1935 -0.8240 0.5326
vn 0.9460 -0.3136 -0.0817
vn -0.7465 0.0518 0.6634
vn 0.1613 0.6378 0.7532
vn 0.2309 0.6848 -0.6912
vn -0.4436 0.8841 -0.1468
vn -0.2009 0.1358 -0.9702
vt 0.550384 0.206938
vt 0.375000 0.305791
vt 0.375000 0.049496
vt 0.180791 0.500000
vt 0.330928 0.574320
vt 0.125000 0.700504
vt 0.804283 0.500000
vt 0.842867 0.681766
vt 0.658516 0.626313
vt 0.875000 0.500000
vt 0.501754 0.540833
vt 0.565165 0.799791
vt 0.325310 0.750000
vt 0.604031 0.069198
vt 0.375000 1.000000
vt 0.375000 0.799690
vt 0.578028 1.000000
vt 0.615335 0.592735
vt 0.589707 0.775249
vt 0.581909 0.353207
s 0
g Cube_Material
usemtl Material
f 210/291/169 212/292/169 211/293/169
f 212/294/170 215/295/170 211/296/170
f 216/297/171 213/298/171 217/299/171
f 213/298/172 216/297/172 210/300/172
f 218/301/173 209/302/173 214/303/173 215/295/173
f 211/293/174 213/304/174 210/291/174
f 211/305/175 214/306/175 209/302/175 213/307/175
f 215/295/176 214/303/176 211/296/176
f 217/308/177 213/298/177 209/309/177
f 209/302/178 218/301/178 217/308/178
f 218/301/179 215/295/179 212/292/179 216/310/179
f 218/301/180 216/310/180 217/308/180
f 212/292/181 210/291/181 216/310/181
o Cube
v 3.834046 0.070877 0.011296
v 3.847836 -0.238856 -0.057006
v 3.982653 -0.141938 0.052565
v 4.010155 -0.190581 -0.113391
v 3.747875 -0.099679 0.025440
v 4.003951 0.023477 0.007326
v 4.061154 -0.047420 -0.116515
v 3.822293 -0.145534 -0.212224
v 3.791834 0.018075 -0.178091
v 3.925213 0.003751 -0.225761
vn 0.3699 -0.8732 0.3172
vn 0.9149 -0.3205 0.2456
vn -0.9538 -0.1201 -0.2755
vn -0.8450 -0.5082 -0.1665
vn 0.3621 0.9106 -0.1994
vn -0.1976 -0.6008 0.7746
vn -0.0166 0.1792 0.9837
vn 0.9074 -0.0019 0.4202
vn -0.8879 0.4545 0.0712
vn 0.0069 0.9628 -0.2700
vn 0.4557 -0.2878 -0.8423
vn -0.3205 0.1359 -0.9375
vn 0.0712 -0.8496 -0.5225
vt 0.550384 0.206938
vt 0.375000 0.305791
vt 0.375000 0.049496
vt 0.180791 0.500000
vt 0.330928 0.574320
vt 0.125000 0.700504
vt 0.804283 0.500000
vt 0.842867 0.681766
vt 0.658516 0.626313
vt 0.875000 0.500000
vt 0.501754 0.540833
vt 0.565165 0.799791
vt 0.325310 0.750000
vt 0.604031 0.069198
vt 0.375000 1.000000
vt 0.375000 0.799690
vt 0.578028 1.000000
vt 0.615335 0.592735
vt 0.589707 0.775249
vt 0.581909 0.353207
s 0
g Cube_Material
usemtl Material
f 220/311/182 222/312/182 221/313/182
f 222/314/183 225/315/183 221/316/183
f 226/317/184 223/318/184 227/319/184
f 223/318/185 226/317/185 220/320/185
f 228/321/186 219/322/186 224/323/186 225/315/186
f 221/313/187 223/324/187 220/311/187
f 221/325/188 224/326/188 219/322/188 223/327/188
f 225/315/189 224/323/189 221/316/189
f 227/328/190 223/318/190 219/329/190
f 219/322/191 228/321/191 227/328/191
f 228/321/192 225/315/192 222/312/192 226/330/192
f 228/321/193 226/330/193 227/328/193
f 222/312/194 220/311/194 226/330/194
o Cube
v 0.207693 -0.328309 3.592073
v -0.159911 -0.201412 3.848023
v -0.045233 -0.040445 3.633447
v -0.010671 0.010800 3.882689
v -0.054449 -0.390279 3.672048
v 0.204873 -0.069923 3.605232
v 0.197410 0.032729 3.805815
v 0.038379 -0.275444 4.012774
v 0.225742 -0.375511 3.882600
v 0.277779 -0.182113 3.941537
vn -0.8176 0.5758 -0.0050
vn -0.1673 0.9700 -0.1762
vn -0.2276 -0.9023 0.3661
vn -0.5920 -0.7010 0.3976
vn 0.9772 0.1280 -0.1692
vn -0.8717 -0.0310 -0.4891
vn -0.2041 -0.0388 -0.9782
vn 0.0537 0.8897 -0.4533
vn 0.1778 -0.9695 -0.1686
vn 0.9681 -0.2307 -0.0976
vn 0.1559 0.4940 0.8554
vn 0.3930 -0.3632 0.8448
vn -0.5567 0.2628 0.7881
vt 0.550384 0.206938
vt 0.375000 0.305791
vt 0.375000 0.049496
vt 0.180791 0.500000
vt 0.330928 0.574320
vt 0.125000 0.700504
vt 0.804283 0.500000
vt 0.842867 0.681766
vt 0.658516 0.626313
vt 0.875000 0.500000
vt 0.501754 0.540833
vt 0.565165 0.799791
vt 0.325310 0.750000
vt 0.604031 0.069198
vt 0.375000 1.000000
vt 0.375000 0.799690
vt 0.578028 1.000000
vt 0.615335 0.592735
vt 0.589707 0.775249
vt 0.581909 0.353207
s 0
g Cube_Material
usemtl Material
f 230/331/195 232/332/195 231/333/195
f 232/334/196 235/335/196 231/336/196
f 236/337/197 233/338/197 237/339/197
f 233/338/198 236/337/198 230/340/198
f 238/341/199 229/342/199 234/343/199 235/335/199
f 231/333/200 233/344/200 230/331/200
f 231/345/201 234/346/201 229/342/201 233/347/201
f 235/335/202 234/343/202 231/336/202
f 237/348/203 233/338/203 229/349/203
f 229/342/204 238/341/204 237/348/204
f 238/341/205 235/335/205 232/332/205 236/350/205
f 238/341/206 236/350/206 237/348/206
f 232/332/207 230/331/207 236/350/207
o Cube
v -3.322962 0.081767 -1.574769
v -3.121764 -0.063408 -1.329410
v -3.338857 -0.086844 -1.340749
v -3.251074 0.027498 -1.213223
v -3.162988 -0.048932 -1.533794
v -3.428931 0.063786 -1.413358
v -3.372676 0.128300 -1.267670
v -3.078889 0.132691 -1.340391
v -3.165762 0.209709 -1.486629
v -3.240230 0.249723 -1.354959
vn 0.0482 -0.7599 0.6482
vn -0.6043 -0.3398 0.7206
vn 0.8771 0.0953 -0.4708
vn 0.9531 -0.2200 -0.2078
vn -0.6507 0.7281 -0.2157
vn 0.1116 -0.9894 -0.0926
vn -0.5222 -0.6747 -0.5216
vn -0.8443 -0.2865 0.4529
vn 0.3728 0.1703 -0.9121
vn -0.3893 0.7967 -0.4623
vn 0.1979 0.5202 0.8308
vn 0.5803 0.8102 0.0820
vn 0.6280 -0.0940 0.7725
vt 0.550384 0.206938
vt 0.375000 0.305791
vt 0.375000 0.049496
vt 0.180791 0.500000
vt 0.330928 0.574320
vt 0.125000 0.700504
vt 0.804283 0.500000
vt 0.842867 0.681766
vt 0.658516 0.626313
vt 0.875000 0.500000
vt 0.501754 0.540833
vt 0.565165 0.799791
vt 0.325310 0.750000
vt 0.604031 0.069198
vt 0.375000 1.000000
vt 0.375000 0.799690
vt 0.578028 1.000000
vt 0.615335 0.592735
vt 0.589707 0.775249
vt 0.581909 0.353207
s 0
g Cube_Material
usemtl Material
f 240/351/208 242/352/208 241/353/208
f 242/354/209 245/355/209 241/356/209
f 246/357/210 243/358/210 247/359/210
f 243/358/211 246/357/211 240/360/211
f 248/361/212 239/362/212 244/363/212 245/355/212
f 241/353/213 243/364/213 240/351/213
f 241/365/214 244/366/214 239/362/214 243/367/214
f 245/355/215 244/363/215 241/356/215
f 247/368/216 243/358/216 239/369/216
f 239/362/217 248/361/217 247/368/217
f 248/361/218 245/355/218 242/352/218 246/370/218
f 248/361/219 246/370/219 247/368/219
f 242/352/220 240/351/220 246/370/220
o Cube
v -0.216683 0.335710 3.513638
v -0.474139 0.609794 3.094844
v -0.231438 0.753033 3.306896
v -0.535410 0.811366 3.330949
v -0.277480 0.349451 3.179701
v -0.231435 0.638431 3.591022
v -0.471133 0.768157 3.589067
v -0.699072 0.466993 3.279679
v -0.568278 0.286036 3.481817
v -0.645615 0.497356 3.596124
vn 0.0977 0.7693 -0.6314
vn 0.1959 0.9739 0.1142
vn -0.3403 -0.7993 -0.4953
vn -0.3304 -0.5087 -0.7950
vn 0.0591 -0.1377 0.9887
vn 0.5835 0.1828 -0.7913
vn 0.9948 -0.0148 -0.1009
vn 0.4464 0.8299 0.3347
vn 0.1455 -0.9871 -0.0671
vn -0.0118 -0.4791 0.8777
vn -0.8664 0.4627 0.1879
vn -0.8842 -0.4265 0.1903
vn -0.7203 0.4240 -0.5489
vt 0.550384 0.206938
vt 0.375000 0.305791
vt 0.375000 0.049496
vt 0.180791 0.500000
vt 0.330928 0.574320
vt 0.125000 0.700504
vt 0.804283 0.500000
vt 0.842867 0.681766
vt 0.658516 0.626313
vt 0.875000 0.500000
vt 0.501754 0.540833
vt 0.565165 0.799791
vt 0.325310 0.750000
vt 0.604031 0.069198
vt 0.375000 1.000000
vt 0.375000 0.799690
vt 0.578028 1.000000
vt 0.615335 0.592735
vt 0.589707 0.775249
vt 0.581909 0.353207
s 0
g Cube_Material
usemtl Material
f 250/371/221 252/372/221 251/373/221
f 252/374/222 255/375/222 251/376/222
f 256/377/223 253/378/223 257/379/223
f 253/378/224 256/377/224 250/380/224
f 258/381/225 249/382/225 254/383/225 255/375/225
f 251/373/226 253/384/226 250/371/226
f 251/385/227 254/386/227 249/382/227 253/387/227
f 255/375/228 254/383/228 251/376/228
f 257/388/229 253/378/229 249/389/229
f 249/382/230 258/381/230 257/388/230
f 258/381/231 255/375/231 252/372/231 256/390/231
f 258/381/232 256/390/232 257/388/232
f 252/372/233 250/371/233 256/390/233
o Cube
v -2.578478 0.338586 0.841888
v -2.770679 0.625761 1.066752
v -2.663532 0.411844 1.164212
v -2.887833 0.439091 1.138543
v -2.584425 0.577251 0.912037
v -2.669389 0.235682 1.025312
v -2.863696 0.257166 1.065834
v -2.911961 0.562793 0.886496
v -2.803185 0.431412 0.746575
v -2.919459 0.329892 0.848327
vn -0.0578 0.3898 0.9191
vn -0.1509 -0.3841 0.9109
vn 0.0202 0.7366 -0.6760
vn -0.0171 0.9480 -0.3178
vn -0.0573 -0.9126 -0.4048
vn 0.6106 0.5607 0.5593
vn 0.9486 -0.1422 0.2826
vn 0.0943 -0.6183 0.7802
vn 0.4661 0.2602 -0.8456
vn 0.0048 -0.7107 -0.7035
vn -0.9878 -0.0760 0.1363
vn -0.7167 0.1352 -0.6841
vn -0.7220 0.5913 0.3593
vt 0.550384 0.206938
vt 0.375000 0.305791
vt 0.375000 0.049496
vt 0.180791 0.500000
vt 0.330928 0.574320
vt 0.125000 0.700504
vt 0.804283 0.500000
vt 0.842867 0.681766
vt 0.658516 0.626313
vt 0.875000 0.500000
vt 0.501754 0.540833
vt 0.565165 0.799791
vt 0.325310 0.750000
vt 0.604031 0.069198
vt 0.375000 1.000000
vt 0.375000 0.799690
vt 0.578028 1.000000
vt 0.615335 0.592735
vt 0.589707 0.775249
vt 0.581909 0.353207
s 0
g Cube_Material
usemtl Material
f 260/391/234 262/392/234 261/393/234
f 262/394/235 265/395/235 261/396/235
f 266/397/236 263/398/236 267/399/236
f 263/398/237 266/397/237 260/400/237
f 268/401/238 259/402/238 264/403/238 265/395/238
f 261/393/239 263/404/239 260/391/239
f 261/405/240 264/406/240 259/402/240 263/407/240
f 265/395/241 264/403/241 261/396/241
f 267/408/242 263/398/242 259/409/242
f 259/402/243 268/401/243 267/408/243
f 268/401/244 265/395/244 262/392/244 266/410/244
f 268/401/245 266/410/245 267/408/245
f 262/392/246 260/391/246 266/410/246
o Cube
v -0.594212 0.345578 2.748596
v -0.638898 0.113170 3.041938
v -0.478463 0.286217 3.032216
v -0.431521 0.085065 3.008676
v -0.735233 0.268735 2.909707
v -0.408513 0.324336 2.843156
v -0.339153 0.157968 2.871855
v -0.622098 -0.005483 2.860853
v -0.624919 0.114180 2.698524
v -0.466761 0.061754 2.726880
vn 0.1471 -0.0810 0.9858
vn 0.7937 0.1153 0.5973
vn -0.9132 -0.3355 -0.2315
vn -0.8975 -0.4024 0.1804
vn 0.5556 0.2305 -0.7989
vn -0.4128 0.4279 0.8041
vn -0.1133 0.9622 0.2476
vn 0.8250 0.4109 0.3881
vn -0.7840 0.2289 -0.5770
vn 0.2301 0.1766 -0.9570
vn 0.4999 -0.8660 0.0091
vn -0.1592 -0.7960 -0.5840
vn -0.0259 -0.8373 0.5462
vt 0.550384 0.206938
vt 0.375000 0.305791
vt 0.375000 0.049496
vt 0.180791 0.500000
vt 0.330928 0.574320
vt 0.125000 0.700504
vt 0.804283 0.500000
vt 0.842867 0.681766
vt 0.658516 0.626313
vt 0.875000 0.500000
vt 0.501754 0.540833
vt 0.565165 0.799791
vt 0.325310 0.750000
vt 0.604031 0.069198
vt 0.375000 1.000000
vt 0.375000 0.799690
vt 0.578028 1.000000
vt 0.615335 0.592735
vt 0.589707 0.775249
vt 0.581909 0.353207
s 0
g Cube_Material
usemtl Material
f 270/411/247 272/412/247 271/413/247
f 272/414/248 275/415/248 271/416/248
f 276/417/249 273/418/249 277/419/249
f 273/418/250 276/417/250 270/420/250
f 278/421/251 269/422/251 274/423/251 275/415/251
f 271/413/252 273/424/252 270/411/252
f 271/425/253 274/426/253 269/422/253 273/427/253
f 275/415/254 274/423/254 271/416/254
f 277/428/255 273/418/255 269/429/255
f 269/422/256 278/421/256 277/428/256
f 278/421/257 275/415/257 272/412/257 276/430/257
f 278/421/258 276/430/258 277/428/258
f 272/412/259 270/411/259 276/430/259
o Cube
v 0.702872 0.117042 -2.431837
v 0.551741 0.249814 -2.104048
v 0.536313 0.020984 -2.178055
v 0.374866 0.158219 -2.188179
v 0.743901 0.218680 -2.227221
v 0.530461 -0.000751 -2.386184
v 0.366464 0.082054 -2.355621
v 0.487300 0.381135 -2.270476
v 0.586975 0.331000 -2.443408
v 0.425290 0.271491 -2.451177
vn -0.2923 -0.2764 0.9155
vn -0.6192 -0.7026 0.3507
vn 0.5270 0.8479 0.0580
vn 0.4197 0.7845 0.4565
vn -0.1820 -0.2943 -0.9382
vn 0.4801 -0.2991 0.8246
vn 0.6533 -0.7425 0.1477
vn -0.4324 -0.8955 0.1057
vn 0.8230 0.4255 -0.3764
vn 0.0565 -0.0234 -0.9981
vn -0.9256 0.3781 -0.0146
vn -0.2958 0.8583 -0.4193
vn -0.5715 0.5220 0.6332
vt 0.550384 0.206938
vt 0.375000 0.305791
vt 0.375000 0.049496
vt 0.180791 0.500000
vt 0.330928 0.574320
vt 0.125000 0.700504
vt 0.804283 0.500000
vt 0.842867 0.681766
vt 0.658516 0.626313
vt 0.875000 0.500000
vt 0.501754 0.540833
vt 0.565165 0.799791
vt 0.325310 0.750000
vt 0.604031 0.069198
vt 0.375000 1.000000
vt 0.375000 0.799690
vt 0.578028 1.000000
vt 0.615335 0.592735
vt 0.589707 0.775249
vt 0.581909 0.353207
s 0
g Cube_Material
usemtl Material
f 280/431/260 282/432/260 281/433/260
f 282/434/261 285/435/261 281/436/261
f 286/437/262 283/438/262 287/439/262
f 283/438/263 286/437/263 280/440/263
f 288/441/264 279/442/264 284/443/264 285/435/264
f 281/433/265 283/444/265 280/431/265
f 281/445/266 284/446/266 279/442/266 283/447/266
f 285/435/267 284/443/267 281/436/267
f 287/448/268 283/438/268 279/449/268
f 279/442/269 288/441/269 287/448/269
f 288/441/270 285/435/270 282/432/270 286/450/270
f 288/441/271 286/450/271 287/448/271
f 282/432/272 280/431/272 286/450/272
o Cube
v -1.920552 0.222207 1.488621
v -2.184663 0.471874 1.290493
v -1.943754 0.419868 1.209653
v -2.003596 0.617007 1.308059
v -2.142016 0.242654 1.374818
v -1.797614 0.381232 1.376735
v -1.835834 0.575925 1.405259
v -2.174106 0.537715 1.519460
v -2.057448 0.390087 1.636336
v -1.954106 0.541601 1.607719
vn -0.2189 0.3818 -0.8980
vn 0.5223 0.5025 -0.6890
vn -0.8395 -0.3101 0.4463
vn -0.9846 -0.1506 0.0887
vn 0.8083 -0.0555 0.5861
vn -0.3670 -0.3805 -0.8488
vn 0.3103 -0.7633 -0.5666
vn 0.7577 0.2378 -0.6077
vn -0.3497 -0.7632 0.5433
vn 0.5646 -0.2357 0.7910
vn -0.0257 0.9684 0.2479
vn -0.3477 0.3975 0.8492
vn -0.6018 0.7745 -0.1949
vt 0.550384 0.206938
vt 0.375000 0.305791
vt 0.375000 0.049496
vt 0.180791 0.500000
vt 0.330928 0.574320
vt 0.125000 0.700504
vt 0.804283 0.500000
vt 0.842867 0.681766
vt 0.658516 0.626313
vt 0.875000 0.500000
vt 0.501754 0.540833
vt 0.565165 0.799791
vt 0.325310 0.750000
vt 0.604031 0.069198
vt 0.375000 1.000000
vt 0.375000 0.799690
vt 0.578028 1.000000
vt 0.615335 0.592735
vt 0.589707 0.775249
vt 0.581909 0.353207
s 0
g Cube_Material
usemtl Material
f 290/451/273 292/452/273 291/453/273
f 292/454/274 295/455/274 291/456/274
f 296/457/275 293/458/275 297/459/275
f 293/458/276 296/457/276 290/460/276
f 298/461/277 289/462/277 294/463/277 295/455/277
f 291/453/278 293/464/278 290/451/278
f 291/465/279 294/466/279 289/462/279 293/467/279
f 295/455/280 294/463/280 291/456/280
f 297/468/281 293/458/281 289/469/281
f 289/462/282 298/461/282 297/468/282
f 298/461/283 295/455/283 292/452/283 296/470/283
f 298/461/284 296/470/284 297/468/284
f 292/452/285 290/451/285 296/470/285
o Cube
v 1.097392 0.311120 1.792604
v 0.893853 0.369250 1.290444
v 1.015202 0.625967 1.480116
v 0.721943 0.576810 1.436154
v 1.122888 0.228197 1.475346
v 0.977291 0.588375 1.771898
v 0.727040 0.618355 1.693696
v 0.688884 0.206856 1.464188
v 0.807017 0.138421 1.721864
v 0.648469 0.322008 1.751452
vn 0.0229 0.5871 -0.8092
vn -0.1407 0.9779 -0.1550
vn 0.0543 -0.9586 -0.2795
vn 0.0540 -0.7605 -0.6471
vn -0.1601 0.1224 0.9795
vn 0.6858 0.1941 -0.7014
vn 0.9443 0.3204 0.0745
vn 0.0755 0.9877 0.1371
vn 0.4461 -0.8565 0.2597
vn -0.0944 -0.2373 0.9668
vn -0.9827 0.1509 -0.1071
vn -0.7339 -0.6598 0.1612
vn -0.6466 -0.0000 -0.7628
vt 0.550384 0.206938
vt 0.375000 0.305791
vt 0.375000 0.049496
vt 0.180791 0.500000
vt 0.330928 0.574320
vt 0.125000 0.700504
vt 0.804283 0.500000
vt 0.842867 0.681766
vt 0.658516 0.626313
vt 0.875000 0.500000
vt 0.501754 0.540833
vt 0.565165 0.799791
vt 0.325310 0.750000
vt 0.604031 0.069198
vt 0.375000 1.000000
vt 0.375000 0.799690
vt 0.578028 1.000000
vt 0.615335 0.592735
vt 0.589707 0.775249
vt 0.581909 0.353207
s 0
g Cube_Material
usemtl Material
f 300/471/286 302/472/286 301/473/286
f 302/474/287 305/475/287 301/476/287
f 306/477/288 303/478/288 307/479/288
f 303/478/289 306/477/289 300/480/289
f 308/481/290 299/482/290 304/483/290 305/475/290
f 301/473/291 303/484/291 300/471/291
f 301/485/292 304/486/292 299/482/292 303/487/292
f 305/475/293 304/483/293 301/476/293
f 307/488/294 303/478/294 299/489/294
f 299/482/295 308/481/295 307/488/295
f 308/481/296 305/475/296 302/472/296 306/490/296
f 308/481/297 306/490/297 307/488/297
f 302/472/298 300/471/298 306/490/298
o Cube
v 0.531995 0.021635 -2.061608
v 0.366514 0.062572 -1.686165
v 0.286838 0.191401 -1.895476
v 0.411721 0.285595 -1.730379
v 0.415987 -0.091507 -1.872734
v 0.450070 0.234856 -2.043259
v 0.506521 0.350791 -1.890809
v 0.602154 0.087163 -1.668805
v 0.698454 0.037335 -1.860968
v 0.696684 0.220909 -1.838939
vn -0.8357 0.2648 0.4811
vn -0.5869 0.8095 -0.0179
vn 0.3662 -0.8396 0.4012
vn 0.0327 -0.7664 0.6416
vn 0.5967 0.4055 -0.6925
vn -0.9084 -0.4070 0.0953
vn -0.6662 -0.2895 -0.6873
vn -0.5394 0.7544 -0.3740
vn 0.4088 -0.8715 -0.2710
vn 0.7636 0.0842 -0.6401
vn 0.3920 0.6716 0.6287
vn 0.8882 -0.0463 0.4571
vn -0.0938 0.2119 0.9728
vt 0.550384 0.206938
vt 0.375000 0.305791
vt 0.375000 0.049496
vt 0.180791 0.500000
vt 0.330928 0.574320
vt 0.125000 0.700504
vt 0.804283 0.500000
vt 0.842867 0.681766
vt 0.658516 0.626313
vt 0.875000 0.500000
vt 0.501754 0.540833
vt 0.565165 0.799791
vt 0.325310 0.750000
vt 0.604031 0.069198
vt 0.375000 1.000000
vt 0.375000 0.799690
vt 0.578028 1.000000
vt 0.615335 0.592735
vt 0.589707 0.775249
vt 0.581909 0.353207
s 0
g Cube_Material
usemtl Material
f 310/491/299 312/492/299 311/493/299
f 312/494/300 315/495/300 311/496/300
f 316/497/301 313/498/301 317/499/301
f 313/498/302 316/497/302 310/500/302
f 318/501/303 309/502/303 314/503/303 315/495/303
f 311/493/304 313/504/304 310/491/304
f 311/505/305 314/506/305 309/502/305 313/507/305
f 315/495/306 314/503/306 311/496/306
f 317/508/307 313/498/307 309/509/307
f 309/502/308 318/501/308 317/508/308
f 318/501/309 315/495/309 312/492/309 316/510/309
f 318/501/310 316/510/310 317/508/310
f 312/492/311 310/491/311 316/510/311
o Cube
v -0.801539 -0.136546 -1.403196
v -1.274238 -0.161576 -1.674717
v -1.243560 -0.060112 -1.349615
v -1.350637 -0.329761 -1.429763
v -0.975366 -0.029870 -1.661813
v -1.021965 -0.192347 -1.202508
v -1.185263 -0.396892 -1.238941
v -1.124677 -0.436255 -1.706765
v -0.854603 -0.417590 -1.597297
v -0.996945 -0.541806 -1.441761
vn -0.9259 0.3766 -0.0302
vn -0.7360 0.0930 0.6706
vn 0.3776 -0.0364 -0.9253
vn -0.0066 0.1123 -0.9936
vn 0.5855 -0.4290 0.6878
vn -0.3825 0.8917 -0.2422
vn 0.2004 0.9171 0.3447
vn -0.4525 0.2067 0.8675
vn 0.8492 0.1820 -0.4957
vn 0.8104 -0.4288 0.3992
vn -0.5140 -0.8577 0.0056
vn 0.2448 -0.8544 -0.4583
vn -0.7846 -0.3691 -0.4981
vt 0.550384 0.206938
vt 0.375000 0.305791
vt 0.375000 0.049496
vt 0.180791 0.500000
vt 0.330928 0.574320
vt 0.125000 0.700504
vt 0.804283 0.500000
vt 0.842867 0.681766
vt 0.658516 0.626313
vt 0.875000 0.500000
vt 0.501754 0.540833
vt 0.565165 0.799791
vt 0.325310 0.750000
vt 0.604031 0.069198
vt 0.375000 1.000000
vt 0.375000 0.799690
vt 0.578028 1.000000
vt 0.615335 0.592735
vt 0.589707 0.775249
vt 0.581909 0.353207
s 0
g Cube_Material
usemtl Material
f 320/511/312 322/512/312 321/513/312
f 322/514/313 325/515/313 321/516/313
f 326/517/314 323/518/314 327/519/314
f 323/518/315 326/517/315 320/520/315
f 328/521/316 319/522/316 324/523/316 325/515/316
f 321/513/317 323/524/317 320/511/317
f 321/525/318 324/526/318 319/522/318 323/527/318
f 325/515/319 324/523/319 321/516/319
f 327/528/320 323/518/320 319/529/320
f 319/522/321 328/521/321 327/528/321
f 328/521/322 325/515/322 322/512/322 326/530/322
f 328/521/323 326/530/323 327/528/323
f 322/512/324 320/511/324 326/530/324
o Cube
v -0.562954 0.418652 6.264630
v -0.456266 0.659200 6.004750
v -0.495532 0.714841 6.226266
v -0.624547 0.759347 6.074646
v -0.406310 0.473994 6.115546
v -0.638100 0.603367 6.314436
v -0.736315 0.695049 6.196016
v -0.624560 0.550393 5.932369
v -0.669169 0.402798 6.056436
v -0.778532 0.525968 6.075771
vn 0.4637 0.8752 -0.1377
vn -0.1226 0.9192 0.3741
vn 0.3306 -0.6638 -0.6708
vn 0.5411 -0.3194 -0.7779
vn -0.7591 -0.3380 0.5563
vn 0.9467 0.3093 0.0901
vn 0.6360 -0.0450 0.7704
vn -0.1444 0.7209 0.6779
vn 0.2749 -0.9591 -0.0672
vn -0.6591 -0.6457 0.3854
vn -0.6993 0.4588 -0.5482
vn -0.5858 -0.4104 -0.6989
vn -0.0084 0.5628 -0.8266
vt 0.550384 0.206938
vt 0.375000 0.305791
vt 0.375000 0.049496
vt 0.180791 0.500000
vt 0.330928 0.574320
vt 0.125000 0.700504
vt 0.804283 0.500000
vt 0.842867 0.681766
vt 0.658516 0.626313
vt 0.875000 0.500000
vt 0.501754 0.540833
vt 0.565165 0.799791
vt 0.325310 0.750000
vt 0.604031 0.069198
vt 0.375000 1.000000
vt 0.375000 0.799690
vt 0.578028 1.000000
vt 0.615335 0.592735
vt 0.589707 0.775249
vt 0.581909 0.353207
s 0
g Cube_Material
usemtl Material
f 330/531/325 332/532/325 331/533/325
f 332/534/326 335/535/326 331/536/326
f 336/537/327 333/538/327 337/539/327
f 333/538/328 336/537/328 330/540/328
f 338/541/329 329/542/329 334/543/329 335/535/329
f 331/533/330 333/544/330 330/531/330
f 331/545/331 334/546/331 329/542/331 333/547/331
f 335/535/332 334/543/332 331/536/332
f 337/548/333 333/538/333 329/549/333
f 329/542/334 338/541/334 337/548/334
f 338/541/335 335/535/335 332/532/335 336/550/335
f 338/541/336 336/550/336 337/548/336
f 332/532/337 330/531/337 336/550/337
o Cube
v 5.710663 0.503458 -0.053192
v 5.853381 0.393486 -0.397241
v 5.616155 0.415732 -0.347719
v 5.716482 0.227023 -0.362270
v 5.845687 0.560951 -0.235968
v 5.566148 0.373278 -0.146758
v 5.617980 0.202632 -0.206449
v 5.946992 0.268209 -0.237220
v 5.895274 0.340916 -0.049527
v 5.803012 0.197119 -0.083296
vn -0.2074 -0.0349 -0.9776
vn -0.7609 -0.3631 -0.5378
vn 0.9368 0.3236 0.1328
vn 0.9059 0.3147 -0.2836
vn -0.4451 -0.2938 0.8459
vn -0.0856 0.6891 -0.7196
vn -0.5698 0.8195 -0.0613
vn -0.9425 -0.1902 -0.2747
vn 0.5296 0.6147 0.5846
vn -0.1419 -0.1391 0.9801
vn 0.1786 -0.9709 -0.1595
vn 0.7187 -0.5584 0.4143
vn 0.4744 -0.5367 -0.6977
vt 0.550384 0.206938
vt 0.375000 0.305791
vt 0.375000 0.049496
vt 0.180791 0.500000
vt 0.330928 0.574320
vt 0.125000 0.700504
vt 0.804283 0.500000
vt 0.842867 0.681766
vt 0.658516 0.626313
vt 0.875000 0.500000
vt 0.501754 0.540833
vt 0.565165 0.799791
vt 0.325310 0.750000
vt 0.604031 0.069198
vt 0.375000 1.000000
vt 0.375000 0.799690
vt 0.578028 1.000000
vt 0.615335 0.592735
vt 0.589707 0.775249
vt 0.581909 0.353207
s 0
g Cube_Material
usemtl Material
f 340/551/338 342/552/338 341/553/338
f 342/554/339 345/555/339 341/556/339
f 346/557/340 343/558/340 347/559/340
f 343/558/341 346/557/341 340/560/341
f 348/561/342 339/562/342 344/563/342 345/555/342
f 341/553/343 343/564/343 340/551/343
f 341/565/344 344/566/344 339/562/344 343/567/344
f 345/555/345 344/563/345 341/556/345
f 347/568/346 343/558/346 339/569/346
f 339/562/347 348/561/347 347/568/347
f 348/561/348 345/555/348 342/552/348 346/570/348
f 348/561/349 346/570/349 347/568/349
f 342/552/350 340/551/350 346/570/350
o Cube
v 0.030083 0.390634 -5.348251
v 0.242325 0.394057 -5.645591
v 0.082606 0.235772 -5.602679
v 0.280228 0.202715 -5.581266
v 0.092157 0.501693 -5.528339
v 0.055746 0.198660 -5.409169
v 0.218860 0.134243 -5.432462
v 0.364423 0.412489 -5.475139
v 0.254365 0.437237 -5.315475
v 0.311322 0.283673 -5.319037
vn 0.0512 -0.3091 -0.9496
vn -0.0998 -0.8876 -0.4496
vn 0.3003 0.9520 0.0594
vn 0.3525 0.8693 -0.3465
vn -0.1741 -0.4206 0.8904
vn -0.4765 0.2525 -0.8421
vn -0.9750 0.0307 -0.2199
vn -0.3855 -0.8948 -0.2251
vn -0.2441 0.8607 0.4467
vn -0.1298 -0.0711 0.9890
vn 0.8878 -0.4588 0.0364
vn 0.8087 0.2881 0.5128
vn 0.8142 -0.0336 -0.5796
vt 0.550384 0.206938
vt 0.375000 0.305791
vt 0.375000 0.049496
vt 0.180791 0.500000
vt 0.330928 0.574320
vt 0.125000 0.700504
vt 0.804283 0.500000
vt 0.842867 0.681766
vt 0.658516 0.626313
vt 0.875000 0.500000
vt 0.501754 0.540833
vt 0.565165 0.799791
vt 0.325310 0.750000
vt 0.604031 0.069198
vt 0.375000 1.000000
vt 0.375000 0.799690
vt 0.578028 1.000000
vt 0.615335 0.592735
vt 0.589707 0.775249
vt 0.581909 0.353207
s 0
g Cube_Material
usemtl Material
f 350/571/351 352/572/351 351/573/351
f 352/574/352 355/575/352 351/576/352
f 356/577/353 353/578/353 357/579/353
f 353/578/354 356/577/354 350/580/354
f 358/581/355 349/582/355 354/583/355 355/575/355
f 351/573/356 353/584/356 350/571/356
f 351/585/357 354/586/357 349/582/357 353/587/357
f 355/575/358 354/583/358 351/576/358
f 357/588/359 353/578/359 349/589/359
f 349/582/360 358/581/360 357/588/360
f 358/581/361 355/575/361 352/572/361 356/590/361
f 358/581/362 356/590/362 357/588/362
f 352/572/363 350/571/363 356/590/363
o Cube
v 3.928509 0.386909 -3.845368
v 4.104340 0.619881 -3.506171
v 4.248108 0.535899 -3.731790
v 4.266988 0.427997 -3.510604
v 3.920532 0.615151 -3.701192
v 4.168954 0.326116 -3.826951
v 4.249049 0.256640 -3.637964
v 3.978246 0.416446 -3.410353
v 3.855599 0.305832 -3.583736
v 4.019637 0.199020 -3.539577
vn 0.7431 0.6243 0.2411
vn 0.9946 -0.0301 -0.0996
vn -0.8570 0.3301 0.3956
vn -0.5825 0.6127 0.5342
vn -0.0806 -0.8954 -0.4379
vn 0.2098 0.9525 -0.2208
vn 0.0958 0.4652 -0.8800
vn 0.8917 -0.1414 -0.4299
vn -0.9656 0.1139 -0.2338
vn -0.4330 -0.8198 -0.3747
vn 0.3677 -0.4967 0.7862
vn -0.5164 -0.5080 0.6894
vn 0.3097 0.2412 0.9197
vt 0.550384 0.206938
vt 0.375000 0.305791
vt 0.375000 0.049496
vt 0.180791 0.500000
vt 0.330928 0.574320
vt 0.125000 0.700504
vt 0.804283 0.500000
vt 0.842867 0.681766
vt 0.658516 0.626313
vt 0.875000 0.500000
vt 0.501754 0.540833
vt 0.565165 0.799791
vt 0.325310 0.750000
vt 0.604031 0.069198
vt 0.375000 1.000000
vt 0.375000 0.799690
vt 0.578028 1.000000
vt 0.615335 0.592735
vt 0.589707 0.775249
vt 0.581909 0.353207
s 0
g Cube_Material
usemtl Material
f 360/591/364 362/592/364 361/593/364
f 362/594/365 365/595/365 361/596/365
f 366/597/366 363/598/366 367/599/366
f 363/598/367 366/597/367 360/600/367
f 368/601/368 359/602/368 364/603/368 365/595/368
f 361/593/369 363/604/369 360/591/369
f 361/605/370 364/606/370 359/602/370 363/607/370
f 365/595/371 364/603/371 361/596/371
f 367/608/372 363/598/372 359/609/372
f 359/602/373 368/601/373 367/608/373
f 368/601/374 365/595/374 362/592/374 366/610/374
f 368/601/375 366/610/375 367/608/375
f 362/592/376 360/591/376 366/610/376
o Cube
v -4.833045 0.864345 -1.122531
v -5.009938 0.546146 -0.944295
v -4.767091 0.552198 -1.018486
v -4.926985 0.441878 -1.129178
v -4.948884 0.780269 -0.924122
v -4.730944 0.677610 -1.196384
v -4.836882 0.532419 -1.275298
v -5.142933 0.615366 -1.123345
v -5.068355 0.802247 -1.204356
v -5.022529 0.665775 -1.315333
vn 0.1868 -0.8175 0.5448
vn 0.6136 -0.7824 -0.1065
vn -0.7931 0.4794 0.3757
vn -0.7663 0.1459 0.6256
vn 0.3340 0.3909 -0.8577
vn 0.2921 -0.1575 0.9433
vn 0.7929 0.3368 0.5078
vn 0.8393 -0.5098 -0.1888
vn -0.3164 0.9256 0.2075
vn 0.0926 0.6467 -0.7571
vn -0.4668 -0.6746 -0.5718
vn -0.8550 0.1227 -0.5040
vn -0.6157 -0.7718 0.1590
vt 0.550384 0.206938
vt 0.375000 0.305791
vt 0.375000 0.049496
vt 0.180791 0.500000
vt 0.330928 0.574320
vt 0.125000 0.700504
vt 0.804283 0.500000
vt 0.842867 0.681766
vt 0.658516 0.626313
vt 0.875000 0.500000
vt 0.501754 0.540833
vt 0.565165 0.799791
vt 0.325310 0.750000
vt 0.604031 0.069198
vt 0.375000 1.000000
vt 0.375000 0.799690
vt 0.578028 1.000000
vt 0.615335 0.592735
vt 0.589707 0.775249
vt 0.581909 0.353207
s 0
g Cube_Material
usemtl Material
f 370/611/377 372/612/377 371/613/377
f 372/614/378 375/615/378 371/616/378
f 376/617/379 373/618/379 377/619/379
f 373/618/380 376/617/380 370/620/380
f 378/621/381 369/622/381 374/623/381 375/615/381
f 371/613/382 373/624/382 370/611/382
f 371/625/383 374/626/383 369/622/383 373/627/383
f 375/615/384 374/623/384 371/616/384
f 377/628/385 373/618/385 369/629/385
f 369/622/386 378/621/386 377/628/386
f 378/621/387 375/615/387 372/612/387 376/630/387
f 378/621/388 376/630/388 377/628/388
f 372/612/389 370/611/389 376/630/389
o Cube
v 3.229246 0.046113 -3.752748
v 3.310537 -0.330717 -4.061348
v 3.517574 -0.224049 -3.857629
v 3.530751 -0.174132 -4.125062
v 3.144553 -0.225962 -3.840084
v 3.497605 0.039696 -3.809810
v 3.571650 0.041514 -4.037176
v 3.210601 -0.110177 -4.210719
v 3.132058 0.082477 -4.047812
v 3.326124 0.137803 -4.138976
vn 0.5502 -0.8254 -0.1269
vn 0.9815 -0.1913 0.0127
vn -0.9536 -0.1939 -0.2305
vn -0.7683 -0.5592 -0.3116
vn 0.1758 0.9647 0.1960
vn 0.0254 -0.8960 0.4433
vn 0.1099 -0.2556 0.9605
vn 0.9507 0.0158 0.3097
vn -0.9268 0.1833 0.3278
vn -0.1898 0.9649 0.1814
vn 0.3576 0.1939 -0.9135
vn -0.4815 0.4431 -0.7562
vn 0.1231 -0.5177 -0.8467
vt 0.550384 0.206938
vt 0.375000 0.305791
vt 0.375000 0.049496
vt 0.180791 0.500000
vt 0.330928 0.574320
vt 0.125000 0.700504
vt 0.804283 0.500000
vt 0.842867 0.681766
vt 0.658516 0.626313
vt 0.875000 0.500000
vt 0.501754 0.540833
vt 0.565165 0.799791
vt 0.325310 0.750000
vt 0.604031 0.069198
vt 0.375000 1.000000
vt 0.375000 0.799690
vt 0.578028 1.000000
vt 0.615335 0.592735
vt 0.589707 0.775249
vt 0.581909 0.353207
s 0
g Cube_Material
usemtl Material
f 380/631/390 382/632/390 381/633/390
f 382/634/391 385/635/391 381/636/391
f 386/637/392 383/638/392 387/639/392
f 383/638/393 386/637/393 380/640/393
f 388/641/394 379/642/394 384/643/394 385/635/394
f 381/633/395 383/644/395 380/631/395
f 381/645/396 384/646/396 379/642/396 383/647/396
f 385/635/397 384/643/397 381/636/397
f 387/648/398 383/638/398 379/649/398
f 379/642/399 388/641/399 387/648/399
f 388/641/400 385/635/400 382/632/400 386/650/400
f 388/641/401 386/650/401 387/648/401
f 382/632/402 380/631/402 386/650/402
o Cube
v -4.597806 0.482159 -0.741524
v -4.635548 0.494267 -1.042458
v -4.777186 0.505162 -0.915986
v -4.745019 0.368289 -1.006875
v -4.558044 0.570753 -0.896867
v -4.750133 0.419237 -0.777487
v -4.763454 0.310065 -0.875000
v -4.538040 0.354387 -1.003647
v -4.497458 0.356070 -0.846384
v -4.596002 0.264396 -0.866667
vn -0.6141 0.3313 -0.7163
vn -0.9770 -0.1074 -0.1840
vn 0.9463 0.2091 -0.2464
vn 0.7362 0.3530 -0.5774
vn -0.0841 -0.5589 0.8250
vn -0.2409 0.9061 -0.3478
vn -0.3502 0.8119 0.4671
vn -0.9846 -0.0332 0.1717
vn 0.8487 0.3356 0.4087
vn 0.2725 -0.4777 0.8352
vn -0.1203 -0.8545 -0.5053
vn 0.6897 -0.7037 -0.1705
vn -0.0031 -0.2693 -0.9630
vt 0.550384 0.206938
vt 0.375000 0.305791
vt 0.375000 0.049496
vt 0.180791 0.500000
vt 0.330928 0.574320
vt 0.125000 0.700504
vt 0.804283 0.500000
vt 0.842867 0.681766
vt 0.658516 0.626313
vt 0.875000 0.500000
vt 0.501754 0.540833
vt 0.565165 0.799791
vt 0.325310 0.750000
vt 0.604031 0.069198
vt 0.375000 1.000000
vt 0.375000 0.799690
vt 0.578028 1.000000
vt 0.615335 0.592735
vt 0.589707 0.775249
vt 0.581909 0.353207
s 0
g Cube_Material
usemtl Material
f 390/651/403 392/652/403 391/653/403
f 392/654/404 395/655/404 391/656/404
f 396/657/405 393/658/405 397/659/405
f 393/658/406 396/657/406 390/660/406
f 398/661/407 389/662/407 394/663/407 395/655/407
f 391/653/408 393/664/408 390/651/408
f 391/665/409 394/666/409 389/662/409 393/667/409
f 395/655/410 394/663/410 391/656/410
f 397/668/411 393/658/411 389/669/411
f 389/662/412 398/661/412 397/668/412
f 398/661/413 395/655/413 392/652/413 396/670/413
f 398/661/414 396/670/414 397/668/414
f 392/652/415 390/651/415 396/670/415
o Cube
v -1.501960 0.396922 -3.425135
v -1.706542 0.152538 -3.742785
v -1.708464 0.089842 -3.467889
v -1.569187 -0.030268 -3.634552
v -1.689240 0.392743 -3.621772
v -1.505835 0.158806 -3.348824
v -1.425727 0.001907 -3.477069
v -1.461043 0.194156 -3.814931
v -1.355642 0.350622 -3.665307
v -1.290249 0.164193 -3.624276
vn -0.7442 -0.6501 -0.1535
vn -0.2581 -0.8731 0.4135
vn -0.0065 0.6934 -0.7205
vn -0.3211 0.4444 -0.8363
vn 0.7849 0.0705 0.6157
vn -0.9977 0.0676 0.0084
vn -0.6310 0.3264 0.7038
vn -0.1875 -0.6773 0.7114
vn 0.1083 0.9863 -0.1241
vn 0.8203 0.3815 0.4262
vn 0.5183 -0.7189 -0.4632
vn 0.7488 0.1191 -0.6520
vn -0.1379 -0.5793 -0.8034
vt 0.550384 0.206938
vt 0.375000 0.305791
vt 0.375000 0.049496
vt 0.180791 0.500000
vt 0.330928 0.574320
vt 0.125000 0.700504
vt 0.804283 0.500000
vt 0.842867 0.681766
vt 0.658516 0.626313
vt 0.875000 0.500000
vt 0.501754 0.540833
vt 0.565165 0.799791
vt 0.325310 0.750000
vt 0.604031 0.069198
vt 0.375000 1.000000
vt 0.375000 0.799690
vt 0.578028 1.000000
vt 0.615335 0.592735
vt 0.589707 0.775249
vt 0.581909 0.353207
s 0
g Cube_Material
usemtl Material
f 400/671/416 402/672/416 401/673/416
f 402/674/417 405/675/417 401/676/417
f 406/677/418 403/678/418 407/679/418
f 403/678/419 406/677/419 400/680/419
f 408/681/420 399/682/420 404/683/420 405/675/420
f 401/673/421 403/684/421 400/671/421
f 401/685/422 404/686/422 399/682/422 403/687/422
f 405/675/423 404/683/423 401/676/423
f 407/688/424 403/678/424 399/689/424
f 399/682/425 408/681/425 407/688/425
f 408/681/426 405/675/426 402/672/426 406/690/426
f 408/681/427 406/690/427 407/688/427
f 402/672/428 400/671/428 406/690/428
o Cube
v -3.688289 -0.277008 -2.585996
v -3.766971 -0.354570 -2.962991
v -3.557645 -0.416433 -2.849180
v -3.573411 -0.251333 -2.988630
v -3.832046 -0.386934 -2.739192
v -3.499175 -0.280230 -2.695050
v -3.476246 -0.170947 -2.849070
v -3.806744 -0.135189 -2.924052
v -3.793192 -0.094230 -2.718308
v -3.648433 -0.035055 -2.799409
vn 0.2283 -0.6154 -0.7544
vn 0.8559 -0.2836 -0.4325
vn -0.9909 0.1287 0.0396
vn -0.9485 -0.1199 -0.2931
vn 0.5043 0.5795 0.6402
vn -0.1807 -0.9646 -0.1920
vn 0.1935 -0.8240 0.5326
vn 0.9460 -0.3136 -0.0817
vn -0.7465 0.0518 0.6634
vn 0.1613 0.6378 0.7532
vn 0.2309 0.6848 -0.6912
vn -0.4436 0.8841 -0.1468
vn -0.2009 0.1358 -0.9702
vt 0.550384 0.206938
vt 0.375000 0.305791
vt 0.375000 0.049496
vt 0.180791 0.500000
vt 0.330928 0.574320
vt 0.125000 0.700504
vt 0.804283 0.500000
vt 0.842867 0.681766
vt 0.658516 0.626313
vt 0.875000 0.500000
vt 0.501754 0.540833
vt 0.565165 0.799791
vt 0.325310 0.750000
vt 0.604031 0.069198
vt 0.375000 1.000000
vt 0.375000 0.799690
vt 0.578028 1.000000
vt 0.615335 0.592735
vt 0.589707 0.775249
vt 0.581909 0.353207
s 0
g Cube_Material
usemtl Material
f 410/691/429 412/692/429 411/693/429
f 412/694/430 415/695/430 411/696/430
f 416/697/431 413/698/431 417/699/431
f 413/698/432 416/697/432 410/700/432
f 418/701/433 409/702/433 414/703/433 415/695/433
f 411/693/434 413/704/434 410/691/434
f 411/705/435 414/706/435 409/702/435 413/707/435
f 415/695/436 414/703/436 411/696/436
f 417/708/437 413/698/437 409/709/437
f 409/702/438 418/701/438 417/708/438
f 418/701/439 415/695/439 412/692/439 416/710/439
f 418/701/440 416/710/440 417/708/440
f 412/692/441 410/691/441 416/710/441
o Cube
v 4.238102 0.195616 0.013015
v 4.259193 -0.278103 -0.091447
v 4.465388 -0.129872 0.076134
v 4.507450 -0.204268 -0.177686
v 4.106309 -0.065240 0.034648
v 4.497962 0.123121 0.006944
v 4.585450 0.014687 -0.182463
v 4.220127 -0.135371 -0.328845
v 4.173542 0.114858 -0.276641
v 4.377537 0.092950 -0.349548
vn 0.3699 -0.8732 0.3172
vn 0.9149 -0.3205 0.2456
vn -0.9538 -0.1201 -0.2755
vn -0.8450 -0.5082 -0.1665
vn 0.3621 0.9106 -0.1994
vn -0.1976 -0.6008 0.7746
vn -0.0166 0.1792 0.9837
vn 0.9074 -0.0019 0.4202
vn -0.8879 0.4545 0.0712
vn 0.0069 0.9628 -0.2700
vn 0.4557 -0.2878 -0.8423
vn -0.3205 0.1359 -0.9375
vn 0.0712 -0.8496 -0.5225
vt 0.550384 0.206938
vt 0.375000 0.305791
vt 0.375000 0.049496
vt 0.180791 0.500000
vt 0.330928 0.574320
vt 0.125000 0.700504
vt 0.804283 0.500000
vt 0.842867 0.681766
vt 0.658516 0.626313
vt 0.875000 0.500000
vt 0.501754 0.540833
vt 0.565165 0.799791
vt 0.325310 0.750000
vt 0.604031 0.069198
vt 0.375000 1.000000
vt 0.375000 0.799690
vt 0.578028 1.000000
vt 0.615335 0.592735
vt 0.589707 0.775249
vt 0.581909 0.353207
s 0
g Cube_Material
usemtl Material
f 420/711/442 422/712/442 421/713/442
f 422/714/443 425/715/443 421/716/443
f 426/717/444 423/718/444 427/719/444
f 423/718/445 426/717/445 420/720/445
f 428/721/446 419/722/446 424/723/446 425/715/446
f 421/713/447 423/724/447 420/711/447
f 421/725/448 424/726/448 419/722/448 423/727/448
f 425/715/449 424/723/449 421/716/449
f 427/728/450 423/718/450 419/729/450
f 419/722/451 428/721/451 427/728/451
f 428/721/452 425/715/452 422/712/452 426/730/452
f 428/721/453 426/730/453 427/728/453
f 422/712/454 420/711/454 426/730/454
o Cube
v -0.086532 0.406610 3.266651
v -0.512823 0.553766 3.563463
v -0.379837 0.740430 3.314631
v -0.339757 0.799856 3.603663
v -0.390524 0.334746 3.359394
v -0.089803 0.706246 3.281911
v -0.098457 0.825286 3.514516
v -0.282876 0.467914 3.754516
v -0.065601 0.351872 3.603559
v -0.005257 0.576146 3.671906
vn -0.8176 0.5758 -0.0050
vn -0.1673 0.9700 -0.1762
vn -0.2276 -0.9023 0.3661
vn -0.5920 -0.7010 0.3976
vn 0.9772 0.1280 -0.1692
vn -0.8717 -0.0310 -0.4891
vn -0.2041 -0.0388 -0.9782
vn 0.0537 0.8897 -0.4533
vn 0.1778 -0.9695 -0.1686
vn 0.9681 -0.2307 -0.0976
vn 0.1559 0.4940 0.8554
vn 0.3930 -0.3632 0.8448
vn -0.5567 0.2628 0.7881
vt 0.550384 0.206938
vt 0.375000 0.305791
vt 0.375000 0.049496
vt 0.180791 0.500000
vt 0.330928 0.574320
vt 0.125000 0.700504
vt 0.804283 0.500000
vt 0.842867 0.681766
vt 0.658516 0.626313
vt 0.875000 0.500000
vt 0.501754 0.540833
vt 0.565165 0.799791
vt 0.325310 0.750000
vt 0.604031 0.069198
vt 0.375000 1.000000
vt 0.375000 0.799690
vt 0.578028 1.000000
vt 0.615335 0.592735
vt 0.589707 0.775249
vt 0.581909 0.353207
s 0
g Cube_Material
usemtl Material
f 430/731/455 432/732/455 431/733/455
f 432/734/456 435/735/456 431/736/456
f 436/737/457 433/738/457 437/739/457
f 433/738/458 436/737/458 430/740/458
f 438/741/459 429/742/459 434/743/459 435/735/459
f 431/733/460 433/744/460 430/731/460
f 431/745/461 434/746/461 429/742/461 433/747/461
f 435/735/462 434/743/462 431/736/462
f 437/748/463 433/738/463 429/749/463
f 429/742/464 438/741/464 437/748/464
f 438/741/465 435/735/465 432/732/465 436/750/465
f 438/741/466 436/750/466 437/748/466
f 432/732/467 430/731/467 436/750/467
o Cube
v -3.198008 0.197404 -1.208429
v -2.987253 0.045332 -0.951414
v -3.214659 0.020783 -0.963293
v -3.122706 0.140557 -0.829708
v -3.030435 0.060496 -1.165508
v -3.309011 0.178568 -1.039351
v -3.250084 0.246147 -0.886741
v -2.942341 0.250747 -0.962917
v -3.033340 0.331424 -1.116103
v -3.111346 0.373338 -0.978178
vn 0.0482 -0.7599 0.6482
vn -0.6043 -0.3398 0.7206
vn 0.8771 0.0953 -0.4708
vn 0.9531 -0.2200 -0.2078
vn -0.6507 0.7281 -0.2157
vn 0.1116 -0.9894 -0.0926
vn -0.5222 -0.6747 -0.5216
vn -0.8443 -0.2865 0.4529
vn 0.3728 0.1703 -0.9121
vn -0.3893 0.7967 -0.4623
vn 0.1979 0.5202 0.8308
vn 0.5803 0.8102 0.0820
vn 0.6280 -0.0940 0.7725
vt 0.550384 0.206938
vt 0.375000 0.305791
vt 0.375000 0.049496
vt 0.180791 0.500000
vt 0.330928 0.574320
vt 0.125000 0.700504
vt 0.804283 0.500000
vt 0.842867 0.681766
vt 0.658516 0.626313
vt 0.875000 0.500000
vt 0.501754 0.540833
vt 0.565165 0.799791
vt 0.325310 0.750000
vt 0.604031 0.069198
vt 0.375000 1.000000
vt 0.375000 0.799690
vt 0.578028 1.000000
vt 0.615335 0.592735
vt 0.589707 0.775249
vt 0.581909 0.353207
s 0
g Cube_Material
usemtl Material
f 440/751/468 442/752/468 441/753/468
f 442/754/469 445/755/469 441/756/469
f 446/757/470 443/758/470 447/759/470
f 443/758/471 446/757/471 440/760/471
f 448/761/472 439/762/472 444/763/472 445/755/472
f 441/753/473 443/764/473 440/751/473
f 441/765/474 444/766/474 439/762/474 443/767/474
f 445/755/475 444/763/475 441/756/475
f 447/768/476 443/758/476 439/769/476
f 439/762/477 448/761/477 447/768/477
f 448/761/478 445/755/478 442/752/478 446/770/478
f 448/761/479 446/770/479 447/768/479
f 442/752/480 440/751/480 446/770/480
o Cube
v -0.661904 -0.135230 3.453928
v -0.854172 0.069456 3.141173
v -0.672923 0.176426 3.299534
v -0.899929 0.219989 3.317496
v -0.707307 -0.124968 3.204544
v -0.672921 0.090842 3.511718
v -0.851927 0.187721 3.510258
v -1.022151 -0.037188 3.279208
v -0.924475 -0.172326 3.430164
v -0.982230 -0.014513 3.515528
vn 0.0977 0.7693 -0.6314
vn 0.1959 0.9739 0.1142
vn -0.3403 -0.7993 -0.4953
vn -0.3304 -0.5087 -0.7950
vn 0.0591 -0.1377 0.9887
vn 0.5835 0.1828 -0.7913
vn 0.9948 -0.0148 -0.1009
vn 0.4464 0.8299 0.3347
vn 0.1455 -0.9871 -0.0671
vn -0.0118 -0.4791 0.8777
vn -0.8664 0.4627 0.1879
vn -0.8842 -0.4265 0.1903
vn -0.7203 0.4240 -0.5489
vt 0.550384 0.206938
vt 0.375000 0.305791
vt 0.375000 0.049496
vt 0.180791 0.500000
vt 0.330928 0.574320
vt 0.125000 0.700504
vt 0.804283 0.500000
vt 0.842867 0.681766
vt 0.658516 0.626313
vt 0.875000 0.500000
vt 0.501754 0.540833
vt 0.565165 0.799791
vt 0.325310 0.750000
vt 0.604031 0.069198
vt 0.375000 1.000000
vt 0.375000 0.799690
vt 0.578028 1.000000
vt 0.615335 0.592735
vt 0.589707 0.775249
vt 0.581909 0.353207
s 0
g Cube_Material
usemtl Material
f 450/771/481 452/772/481 451/773/481
f 452/774/482 455/775/482 451/776/482
f 456/777/483 453/778/483 457/779/483
f 453/778/484 456/777/484 450/780/484
f 458/781/485 449/782/485 454/783/485 455/775/485
f 451/773/486 453/784/486 450/771/486
f 451/785/487 454/786/487 449/782/487 453/787/487
f 455/775/488 454/783/488 451/776/488
f 457/788/489 453/778/489 449/789/489
f 449/782/490 458/781/490 457/788/490
f 458/781/491 455/775/491 452/772/491 456/790/491
f 458/781/492 456/790/492 457/788/492
f 452/772/493 450/771/493 456/790/493
o Cube
v -2.576890 0.431682 1.193581
v -2.773417 0.725321 1.423506
v -2.663858 0.506588 1.523159
v -2.893208 0.534449 1.496912
v -2.582971 0.675718 1.265308
v -2.669847 0.326462 1.381133
v -2.868528 0.348429 1.422567
v -2.917879 0.660935 1.239192
v -2.806655 0.526597 1.096122
v -2.925546 0.422792 1.200165
vn -0.0578 0.3898 0.9191
vn -0.1509 -0.3841 0.9109
vn 0.0202 0.7366 -0.6760
vn -0.0171 0.9480 -0.3178
vn -0.0573 -0.9126 -0.4048
vn 0.6106 0.5607 0.5593
vn 0.9486 -0.1422 0.2826
vn 0.0943 -0.6183 0.7802
vn 0.4661 0.2602 -0.8456
vn 0.0048 -0.7107 -0.7035
vn -0.9878 -0.0760 0.1363
vn -0.7167 0.1352 -0.6841
vn -0.7220 0.5913 0.3593
vt 0.550384 0.206938
vt 0.375000 0.305791
vt 0.375000 0.049496
vt 0.180791 0.500000
vt 0.330928 0.574320
vt 0.125000 0.700504
vt 0.804283 0.500000
vt 0.842867 0.681766
vt 0.658516 0.626313
vt 0.875000 0.500000
vt 0.501754 0.540833
vt 0.565165 0.799791
vt 0.325310 0.750000
vt 0.604031 0.069198
vt 0.375000 1.000000
vt 0.375000 0.799690
vt 0.578028 1.000000
vt 0.615335 0.592735
vt 0.589707 0.775249
vt 0.581909 0.353207
s 0
g Cube_Material
usemtl Material
f 460/791/494 462/792/494 461/793/494
f 462/794/495 465/795/495 461/796/495
f 466/797/496 463/798/496 467/799/496
f 463/798/497 466/797/497 460/800/497
f 468/801/498 459/802/498 464/803/498 465/795/498
f 461/793/499 463/804/499 460/791/499
f 461/805/500 464/806/500 459/802/500 463/807/500
f 465/795/501 464/803/501 461/796/501
f 467/808/502 463/798/502 459/809/502
f 459/802/503 468/801/503 467/808/503
f 468/801/504 465/795/504 462/792/504 466/810/504
f 468/801/505 466/810/505 467/808/505
f 462/792/506 460/791/506 466/810/506
o Cube
v -0.411201 0.315992 2.998548
v -0.452289 0.102296 3.268271
v -0.304771 0.261410 3.259332
v -0.261609 0.076454 3.237688
v -0.540868 0.245335 3.146687
v -0.240454 0.296460 3.085494
v -0.176678 0.143487 3.111883
v -0.436842 -0.006804 3.101766
v -0.439435 0.103224 2.952507
v -0.294012 0.055019 2.978580
vn 0.1471 -0.0810 0.9858
vn 0.7937 0.1153 0.5973
vn -0.9132 -0.3355 -0.2315
vn -0.8975 -0.4024 0.1804
vn 0.5556 0.2305 -0.7989
vn -0.4128 0.4279 0.8041
vn -0.1133 0.9622 0.2476
vn 0.8250 0.4109 0.3881
vn -0.7840 0.2289 -0.5770
vn 0.2301 0.1766 -0.9570
vn 0.4999 -0.8660 0.0091
vn -0.1592 -0.7960 -0.5840
vn -0.0259 -0.8373 0.5462
vt 0.550384 0.206938
vt 0.375000 0.305791
vt 0.375000 0.049496
vt 0.180791 0.500000
vt 0.330928 0.574320
vt 0.125000 0.700504
vt 0.804283 0.500000
vt 0.842867 0.681766
vt 0.658516 0.626313
vt 0.875000 0.500000
vt 0.501754 0.540833
vt 0.565165 0.799791
vt 0.325310 0.750000
vt 0.604031 0.069198
vt 0.375000 1.000000
vt 0.375000 0.799690
vt 0.578028 1.000000
vt 0.615335 0.592735
vt 0.589707 0.775249
vt 0.581909 0.353207
s 0
g Cube_Material
usemtl Material
f 470/811/507 472/812/507 471/813/507
f 472/814/508 475/815/508 471/816/508
f 476/817/509 473/818/509 477/819/509
f 473/818/510 476/817/510 470/820/510
f 478/821/511 469/822/511 474/823/511 475/815/511
f 471/813/512 473/824/512 470/811/512
f 471/825/513 474/826/513 469/822/513 473/827/513
f 475/815/514 474/823/514 471/816/514
f 477/828/515 473/818/515 469/829/515
f 469/822/516 478/821/516 477/828/516
f 478/821/517 475/815/517 472/812/517 476/830/517
f 478/821/518 476/830/518 477/828/518
f 472/812/519 470/811/519 476/830/519
o Cube
v 0.160041 0.229697 -2.404905
v 0.032150 0.342052 -2.127522
v 0.019095 0.148411 -2.190148
v -0.117526 0.264542 -2.198715
v 0.194761 0.315706 -2.231754
v 0.014142 0.130018 -2.366272
v -0.124636 0.200089 -2.340410
v -0.022381 0.453180 -2.268357
v 0.061966 0.410754 -2.414697
v -0.074856 0.360396 -2.421271
vn -0.2923 -0.2764 0.9155
vn -0.6192 -0.7026 0.3507
vn 0.5270 0.8479 0.0580
vn 0.4197 0.7845 0.4565
vn -0.1820 -0.2943 -0.9382
vn 0.4801 -0.2991 0.8246
vn 0.6533 -0.7425 0.1477
vn -0.4324 -0.8955 0.1057
vn 0.8230 0.4255 -0.3764
vn 0.0565 -0.0234 -0.9981
vn -0.9256 0.3781 -0.0146
vn -0.2958 0.8583 -0.4193
vn -0.5715 0.5220 0.6332
vt 0.550384 0.206938
vt 0.375000 0.305791
vt 0.375000 0.049496
vt 0.180791 0.500000
vt 0.330928 0.574320
vt 0.125000 0.700504
vt 0.804283 0.500000
vt 0.842867 0.681766
vt 0.658516 0.626313
vt 0.875000 0.500000
vt 0.501754 0.540833
vt 0.565165 0.799791
vt 0.325310 0.750000
vt 0.604031 0.069198
vt 0.375000 1.000000
vt 0.375000 0.799690
vt 0.578028 1.000000
vt 0.615335 0.592735
vt 0.589707 0.775249
vt 0.581909 0.353207
s 0
g Cube_Material
usemtl Material
f 480/831/520 482/832/520 481/833/520
f 482/834/521 485/835/521 481/836/521
f 486/837/522 483/838/522 487/839/522
f 483/838/523 486/837/523 480/840/523
f 488/841/524 479/842/524 484/843/524 485/835/524
f 481/833/525 483/844/525 480/831/525
f 481/845/526 484/846/526 479/842/526 483/847/526
f 485/835/527 484/843/527 481/836/527
f 487/848/528 483/838/528 479/849/528
f 479/842/529 488/841/529 487/848/529
f 488/841/530 485/835/530 482/832/530 486/850/530
f 488/841/531 486/850/531 487/848/531
f 482/832/532 480/831/532 486/850/532
o Cube
v -1.776584 0.196186 1.638687
v -1.999387 0.406805 1.471546
v -1.796156 0.362932 1.403349
v -1.846639 0.529239 1.486364
v -1.963410 0.213434 1.542683
v -1.672873 0.330339 1.544300
v -1.705116 0.494582 1.568363
v -1.990481 0.462348 1.664703
v -1.892069 0.337809 1.763299
v -1.804890 0.465626 1.739158
vn -0.2189 0.3818 -0.8980
vn 0.5223 0.5025 -0.6890
vn -0.8395 -0.3101 0.4463
vn -0.9846 -0.1506 0.0887
vn 0.8083 -0.0555 0.5861
vn -0.3670 -0.3805 -0.8488
vn 0.3103 -0.7633 -0.5666
vn 0.7577 0.2378 -0.6077
vn -0.3497 -0.7632 0.5433
vn 0.5646 -0.2357 0.7910
vn -0.0257 0.9684 0.2479
vn -0.3477 0.3975 0.8492
vn -0.6018 0.7745 -0.1949
vt 0.550384 0.206938
vt 0.375000 0.305791
vt 0.375000 0.049496
vt 0.180791 0.500000
vt 0.330928 0.574320
vt 0.125000 0.700504
vt 0.804283 0.500000
vt 0.842867 0.681766
vt 0.658516 0.626313
vt 0.875000 0.500000
vt 0.501754 0.540833
vt 0.565165 0.799791
vt 0.325310 0.750000
vt 0.604031 0.069198
vt 0.375000 1.000000
vt 0.375000 0.799690
vt 0.578028 1.000000
vt 0.615335 0.592735
vt 0.589707 0.775249
vt 0.581909 0.353207
s 0
g Cube_Material
usemtl Material
f 490/851/533 492/852/533 491/853/533
f 492/854/534 495/855/534 491/856/534
f 496/857/535 493/858/535 497/859/535
f 493/858/536 496/857/536 490/860/536
f 498/861/537 489/862/537 494/863/537 495/855/537
f 491/853/538 493/864/538 490/851/538
f 491/865/539 494/866/539 489/862/539 493/867/539
f 495/855/540 494/863/540 491/856/540
f 497/868/541 493/858/541 489/869/541
f 489/862/542 498/861/542 497/868/542
f 498/861/543 495/855/543 492/852/543 496/870/543
f 498/861/544 496/870/544 497/868/544
f 492/852/545 490/851/545 496/870/545
o Cube
v 1.581351 0.272387 1.811746
v 1.377704 0.330548 1.309322
v 1.499117 0.587400 1.499094
v 1.205704 0.538217 1.455109
v 1.606861 0.189420 1.494322
v 1.461186 0.549788 1.791030
v 1.210804 0.579783 1.712786
v 1.172627 0.168068 1.483158
v 1.290823 0.099597 1.740970
v 1.132192 0.283281 1.770573
vn 0.0229 0.5871 -0.8092
vn -0.1407 0.9779 -0.1550
vn 0.0543 -0.9586 -0.2795
vn 0.0540 -0.7605 -0.6471
vn -0.1601 0.1224 0.9795
vn 0.6858 0.1941 -0.7014
vn 0.9443 0.3204 0.0745
vn 0.0755 0.9877 0.1371
vn 0.4461 -0.8565 0.2597
vn -0.0944 -0.2373 0.9668
vn -0.9827 0.1509 -0.1071
vn -0.7339 -0.6598 0.1612
vn -0.6466 -0.0000 -0.7628
vt 0.550384 0.206938
vt 0.375000 0.305791
vt 0.375000 0.049496
vt 0.180791 0.500000
vt 0.330928 0.574320
vt 0.125000 0.700504
vt 0.804283 0.500000
vt 0.842867 0.681766
vt 0.658516 0.626313
vt 0.875000 0.500000
vt 0.501754 0.540833
vt 0.565165 0.799791
vt 0.325310 0.750000
vt 0.604031 0.069198
vt 0.375000 1.000000
vt 0.375000 0.799690
vt 0.578028 1.000000
vt 0.615335 0.592735
vt 0.589707 0.775249
vt 0.581909 0.353207
s 0
g Cube_Material
usemtl Material
f 500/871/546 502/872/546 501/873/546
f 502/874/547 505/875/547 501/876/547
f 506/877/548 503/878/548 507/879/548
f 503/878/549 506/877/549 500/880/549
f 508/881/550 499/882/550 504/883/550 505/875/550
f 501/873/551 503/884/551 500/871/551
f 501/885/552 504/886/552 499/882/552 503/887/552
f 505/875/553 504/883/553 501/876/553
f 507/888/554 503/878/554 499/889/554
f 499/882/555 508/881/555 507/888/555
f 508/881/556 505/875/556 502/872/556 506/890/556
f 508/881/557 506/890/557 507/888/557
f 502/872/558 500/871/558 506/890/558
o Cube
v 0.930724 -0.331379 -1.931382
v 0.799946 -0.299027 -1.634672
v 0.736979 -0.197213 -1.800089
v 0.835672 -0.122772 -1.669614
v 0.839044 -0.420794 -1.782116
v 0.865980 -0.162872 -1.916881
v 0.910592 -0.071249 -1.796401
v 0.986170 -0.279593 -1.620952
v 1.062276 -0.318971 -1.772817
v 1.060877 -0.173893 -1.755408
vn -0.8357 0.2648 0.4811
vn -0.5869 0.8095 -0.0179
vn 0.3662 -0.8396 0.4012
vn 0.0327 -0.7664 0.6416
vn 0.5967 0.4055 -0.6925
vn -0.9084 -0.4070 0.0953
vn -0.6662 -0.2895 -0.6873
vn -0.5394 0.7544 -0.3740
vn 0.4088 -0.8715 -0.2710
vn 0.7636 0.0842 -0.6401
vn 0.3920 0.6716 0.6287
vn 0.8882 -0.0463 0.4571
vn -0.0938 0.2119 0.9728
vt 0.550384 0.206938
vt 0.375000 0.305791
vt 0.375000 0.049496
vt 0.180791 0.500000
vt 0.330928 0.574320
vt 0.125000 0.700504
vt 0.804283 0.500000
vt 0.842867 0.681766
vt 0.658516 0.626313
vt 0.875000 0.500000
vt 0.501754 0.540833
vt 0.565165 0.799791
vt 0.325310 0.750000
vt 0.604031 0.069198
vt 0.375000 1.000000
vt 0.375000 0.799690
vt 0.578028 1.000000
vt 0.615335 0.592735
vt 0.589707 0.775249
vt 0.581909 0.353207
s 0
g Cube_Material
usemtl Material
f 510/891/559 512/892/559 511/893/559
f 512/894/560 515/895/560 511/896/560
f 516/897/561 513/898/561 517/899/561
f 513/898/562 516/897/562 510/900/562
f 518/901/563 509/902/563 514/903/563 515/895/563
f 511/893/564 513/904/564 510/891/564
f 511/905/565 514/906/565 509/902/565 513/907/565
f 515/895/566 514/903/566 511/896/566
f 517/908/567 513/898/567 509/909/567
f 509/902/568 518/901/568 517/908/568
f 518/901/569 515/895/569 512/892/569 516/910/569
f 518/901/570 516/910/570 517/908/570
f 512/892/571 510/891/571 516/910/571
o Cube
v -0.662983 0.406457 -1.286846
v -1.159426 0.380171 -1.572005
v -1.127207 0.486731 -1.230573
v -1.239662 0.203538 -1.314747
v -0.845541 0.518492 -1.558453
v -0.894481 0.347854 -1.076077
v -1.065982 0.133035 -1.114340
v -1.002352 0.091694 -1.605663
v -0.718713 0.111297 -1.490696
v -0.868204 -0.019159 -1.327348
vn -0.9259 0.3766 -0.0302
vn -0.7360 0.0930 0.6706
vn 0.3776 -0.0364 -0.9253
vn -0.0066 0.1123 -0.9936
vn 0.5855 -0.4290 0.6878
vn -0.3825 0.8917 -0.2422
vn 0.2004 0.9171 0.3447
vn -0.4525 0.2067 0.8675
vn 0.8492 0.1820 -0.4957
vn 0.8104 -0.4288 0.3992
vn -0.5140 -0.8577 0.0056
vn 0.2448 -0.8544 -0.4583
vn -0.7846 -0.3691 -0.4981
vt 0.550384 0.206938
vt 0.375000 0.305791
vt 0.375000 0.049496
vt 0.180791 0.500000
vt 0.330928 0.574320
vt 0.125000 0.700504
vt 0.804283 0.500000
vt 0.842867 0.681766
vt 0.658516 0.626313
vt 0.875000 0.500000
vt 0.501754 0.540833
vt 0.565165 0.799791
vt 0.325310 0.750000
vt 0.604031 0.069198
vt 0.375000 1.000000
vt 0.375000 0.799690
vt 0.578028 1.000000
vt 0.615335 0.592735
vt 0.589707 0.775249
vt 0.581909 0.353207
s 0
g Cube_Material
usemtl Material
f 520/911/572 522/912/572 521/913/572
f 522/914/573 525/915/573 521/916/573
f 526/917/574 523/918/574 527/919/574
f 523/918/575 526/917/575 520/920/575
f 528/921/576 519/922/576 524/923/576 525/915/576
f 521/913/577 523/924/577 520/911/577
f 521/925/578 524/926/578 519/922/578 523/927/578
f 525/915/579 524/923/579 521/916/579
f 527/928/580 523/918/580 519/929/580
f 519/922/581 528/921/581 527/928/581
f 528/921/582 525/915/582 522/912/582 526/930/582
f 528/921/583 526/930/583 527/928/583
f 522/912/584 520/911/584 526/930/584
