# Blender 4.1.0
# www.blender.org
mtllib Explosion20020.mtl
o Circle
v -0.024615 0.096888 -1.522372
v -0.024615 0.242742 -1.522372
v 0.122545 0.096888 -1.515142
v 0.122545 0.242742 -1.515142
v 0.268288 0.096888 -1.493523
v 0.268288 0.242742 -1.493523
v 0.411211 0.096888 -1.457723
v 0.411211 0.242742 -1.457723
v 0.549936 0.096888 -1.408086
v 0.549936 0.242742 -1.408086
v 0.683127 0.096888 -1.345092
v 0.683127 0.242742 -1.345092
v 0.809503 0.096888 -1.269345
v 0.809503 0.242742 -1.269345
v 0.927846 0.096888 -1.181576
v 0.927846 0.242742 -1.181576
v 1.037016 0.096888 -1.082630
v 1.037016 0.242742 -1.082630
v 1.135962 0.096888 -0.973460
v 1.135962 0.242742 -0.973460
v 1.223731 0.096888 -0.855117
v 1.223731 0.242742 -0.855117
v 1.299478 0.096888 -0.728741
v 1.299478 0.242742 -0.728741
v 1.362473 0.096888 -0.595549
v 1.362473 0.242742 -0.595549
v 1.412110 0.096888 -0.456824
v 1.412110 0.242742 -0.456824
v 1.447910 0.096888 -0.313902
v 1.447910 0.242742 -0.313902
v 1.469529 0.096888 -0.168159
v 1.469529 0.242742 -0.168159
v 1.476758 0.096888 -0.020998
v 1.476758 0.242742 -0.020998
v 1.469529 0.096888 0.126162
v 1.469529 0.242742 0.126162
v 1.447910 0.096888 0.271905
v 1.447910 0.242742 0.271905
v 1.412110 0.096888 0.414827
v 1.412110 0.242742 0.414827
v 1.362473 0.096888 0.553553
v 1.362473 0.242742 0.553553
v 1.299478 0.096888 0.686744
v 1.299478 0.242742 0.686744
v 1.223731 0.096888 0.813120
v 1.223731 0.242742 0.813120
v 1.135962 0.096888 0.931463
v 1.135962 0.242742 0.931463
v 1.037016 0.096888 1.040633
v 1.037016 0.242742 1.040633
v 0.927846 0.096888 1.139579
v 0.927846 0.242742 1.139579
v 0.809503 0.096888 1.227348
v 0.809503 0.242742 1.227348
v 0.683127 0.096888 1.303095
v 0.683127 0.242742 1.303095
v 0.549936 0.096888 1.366090
v 0.549936 0.242742 1.366090
v 0.411211 0.096888 1.415727
v 0.411211 0.242742 1.415727
v 0.268288 0.096888 1.451527
v 0.268288 0.242742 1.451527
v 0.122545 0.096888 1.473146
v 0.122545 0.242742 1.473146
v -0.024615 0.096888 1.480376
v -0.024615 0.242742 1.480376
v -0.171775 0.096888 1.473146
v -0.171775 0.242742 1.473146
v -0.317519 0.096888 1.451527
v -0.317519 0.242742 1.451527
v -0.460441 0.096888 1.415727
v -0.460441 0.242742 1.415727
v -0.599166 0.096888 1.366090
v -0.599166 0.242742 1.366090
v -0.732358 0.096888 1.303095
v -0.732358 0.242742 1.303095
v -0.858734 0.096888 1.227348
v -0.858734 0.242742 1.227348
v -0.977076 0.096888 1.139579
v -0.977076 0.242742 1.139579
v -1.086246 0.096888 1.040633
v -1.086246 0.242742 1.040633
v -1.185192 0.096888 0.931463
v -1.185192 0.242742 0.931463
v -1.272961 0.096888 0.813120
v -1.272961 0.242742 0.813120
v -1.348708 0.096888 0.686744
v -1.348708 0.242742 0.686744
v -1.411703 0.096888 0.553553
v -1.411703 0.242742 0.553553
v -1.461340 0.096888 0.414827
v -1.461340 0.242742 0.414827
v -1.497140 0.096888 0.271905
v -1.497140 0.242742 0.271905
v -1.518759 0.096888 0.126162
v -1.518759 0.242742 0.126162
v -1.525989 0.096888 -0.020998
v -1.525989 0.242742 -0.020998
v -1.518759 0.096888 -0.168159
v -1.518759 0.242742 -0.168159
v -1.497140 0.096888 -0.313902
v -1.497140 0.242742 -0.313902
v -1.461340 0.096888 -0.456824
v -1.461340 0.242742 -0.456824
v -1.411703 0.096888 -0.595549
v -1.411703 0.242742 -0.595549
v -1.348708 0.096888 -0.728741
v -1.348708 0.242742 -0.728741
v -1.272961 0.096888 -0.855117
v -1.272961 0.242742 -0.855117
v -1.185192 0.096888 -0.973460
v -1.185192 0.242742 -0.973460
v -1.086246 0.096888 -1.082630
v -1.086246 0.242742 -1.082630
v -0.977076 0.096888 -1.181576
v -0.977076 0.242742 -1.181576
v -0.858734 0.096888 -1.269345
v -0.858734 0.242742 -1.269345
v -0.732358 0.096888 -1.345092
v -0.732358 0.242742 -1.345092
v -0.599166 0.096888 -1.408086
v -0.599166 0.242742 -1.408086
v -0.460441 0.096888 -1.457723
v -0.460441 0.242742 -1.457723
v -0.317519 0.096888 -1.493523
v -0.317519 0.242742 -1.493523
v -0.171775 0.096888 -1.515142
v -0.171775 0.242742 -1.515142
vn 0.0491 -0.0000 -0.9988
vn 0.1467 -0.0000 -0.9892
vn 0.2430 -0.0000 -0.9700
vn 0.3369 -0.0000 -0.9415
vn 0.4276 -0.0000 -0.9040
vn 0.5141 -0.0000 -0.8577
vn 0.5957 -0.0000 -0.8032
vn 0.6716 -0.0000 -0.7410
vn 0.7410 -0.0000 -0.6716
vn 0.8032 -0.0000 -0.5957
vn 0.8577 -0.0000 -0.5141
vn 0.9040 -0.0000 -0.4276
vn 0.9415 -0.0000 -0.3369
vn 0.9700 -0.0000 -0.2430
vn 0.9892 -0.0000 -0.1467
vn 0.9988 -0.0000 -0.0491
vn 0.9988 -0.0000 0.0491
vn 0.9892 -0.0000 0.1467
vn 0.9700 -0.0000 0.2430
vn 0.9415 -0.0000 0.3369
vn 0.9040 -0.0000 0.4276
vn 0.8577 -0.0000 0.5141
vn 0.8032 -0.0000 0.5957
vn 0.7410 -0.0000 0.6716
vn 0.6716 -0.0000 0.7410
vn 0.5957 -0.0000 0.8032
vn 0.5141 -0.0000 0.8577
vn 0.4276 -0.0000 0.9040
vn 0.3369 -0.0000 0.9415
vn 0.2430 -0.0000 0.9700
vn 0.1467 -0.0000 0.9892
vn 0.0491 -0.0000 0.9988
vn -0.0491 -0.0000 0.9988
vn -0.1467 -0.0000 0.9892
vn -0.2430 -0.0000 0.9700
vn -0.3369 -0.0000 0.9415
vn -0.4276 -0.0000 0.9040
vn -0.5141 -0.0000 0.8577
vn -0.5957 -0.0000 0.8032
vn -0.6716 -0.0000 0.7410
vn -0.7410 -0.0000 0.6716
vn -0.8032 -0.0000 0.5957
vn -0.8577 -0.0000 0.5141
vn -0.9040 -0.0000 0.4276
vn -0.9415 -0.0000 0.3369
vn -0.9700 -0.0000 0.2430
vn -0.9892 -0.0000 0.1467
vn -0.9988 -0.0000 0.0491
vn -0.9988 -0.0000 -0.0491
vn -0.9892 -0.0000 -0.1467
vn -0.9700 -0.0000 -0.2430
vn -0.9415 -0.0000 -0.3369
vn -0.9040 -0.0000 -0.4276
vn -0.8577 -0.0000 -0.5141
vn -0.8032 -0.0000 -0.5957
vn -0.7410 -0.0000 -0.6716
vn -0.6716 -0.0000 -0.7410
vn -0.5957 -0.0000 -0.8032
vn -0.5141 -0.0000 -0.8577
vn -0.4276 -0.0000 -0.9040
vn -0.3369 -0.0000 -0.9415
vn -0.2430 -0.0000 -0.9700
vn -0.1467 -0.0000 -0.9892
vn -0.0491 -0.0000 -0.9988
vt 1.000000 0.500000
vt 1.000000 1.000000
vt 0.984375 1.000000
vt 0.984375 0.500000
vt 0.968750 1.000000
vt 0.968750 0.500000
vt 0.953125 1.000000
vt 0.953125 0.500000
vt 0.937500 1.000000
vt 0.937500 0.500000
vt 0.921875 1.000000
vt 0.921875 0.500000
vt 0.906250 1.000000
vt 0.906250 0.500000
vt 0.890625 1.000000
vt 0.890625 0.500000
vt 0.875000 1.000000
vt 0.875000 0.500000
vt 0.859375 1.000000
vt 0.859375 0.500000
vt 0.843750 1.000000
vt 0.843750 0.500000
vt 0.828125 1.000000
vt 0.828125 0.500000
vt 0.812500 1.000000
vt 0.812500 0.500000
vt 0.796875 1.000000
vt 0.796875 0.500000
vt 0.781250 1.000000
vt 0.781250 0.500000
vt 0.765625 1.000000
vt 0.765625 0.500000
vt 0.750000 1.000000
vt 0.750000 0.500000
vt 0.734375 1.000000
vt 0.734375 0.500000
vt 0.718750 1.000000
vt 0.718750 0.500000
vt 0.703125 1.000000
vt 0.703125 0.500000
vt 0.687500 1.000000
vt 0.687500 0.500000
vt 0.671875 1.000000
vt 0.671875 0.500000
vt 0.656250 1.000000
vt 0.656250 0.500000
vt 0.640625 1.000000
vt 0.640625 0.500000
vt 0.625000 1.000000
vt 0.625000 0.500000
vt 0.609375 1.000000
vt 0.609375 0.500000
vt 0.593750 1.000000
vt 0.593750 0.500000
vt 0.578125 1.000000
vt 0.578125 0.500000
vt 0.562500 1.000000
vt 0.562500 0.500000
vt 0.546875 1.000000
vt 0.546875 0.500000
vt 0.531250 1.000000
vt 0.531250 0.500000
vt 0.515625 1.000000
vt 0.515625 0.500000
vt 0.500000 1.000000
vt 0.500000 0.500000
vt 0.484375 1.000000
vt 0.484375 0.500000
vt 0.468750 1.000000
vt 0.468750 0.500000
vt 0.453125 1.000000
vt 0.453125 0.500000
vt 0.437500 1.000000
vt 0.437500 0.500000
vt 0.421875 1.000000
vt 0.421875 0.500000
vt 0.406250 1.000000
vt 0.406250 0.500000
vt 0.390625 1.000000
vt 0.390625 0.500000
vt 0.375000 1.000000
vt 0.375000 0.500000
vt 0.359375 1.000000
vt 0.359375 0.500000
vt 0.343750 1.000000
vt 0.343750 0.500000
vt 0.328125 1.000000
vt 0.328125 0.500000
vt 0.312500 1.000000
vt 0.312500 0.500000
vt 0.296875 1.000000
vt 0.296875 0.500000
vt 0.281250 1.000000
vt 0.281250 0.500000
vt 0.265625 1.000000
vt 0.265625 0.500000
vt 0.250000 1.000000
vt 0.250000 0.500000
vt 0.234375 1.000000
vt 0.234375 0.500000
vt 0.218750 1.000000
vt 0.218750 0.500000
vt 0.203125 1.000000
vt 0.203125 0.500000
vt 0.187500 1.000000
vt 0.187500 0.500000
vt 0.171875 1.000000
vt 0.171875 0.500000
vt 0.156250 1.000000
vt 0.156250 0.500000
vt 0.140625 1.000000
vt 0.140625 0.500000
vt 0.125000 1.000000
vt 0.125000 0.500000
vt 0.109375 1.000000
vt 0.109375 0.500000
vt 0.093750 1.000000
vt 0.093750 0.500000
vt 0.078125 1.000000
vt 0.078125 0.500000
vt 0.062500 1.000000
vt 0.062500 0.500000
vt 0.046875 1.000000
vt 0.046875 0.500000
vt 0.031250 1.000000
vt 0.031250 0.500000
vt 0.015625 1.000000
vt 0.015625 0.500000
vt 0.000000 1.000000
vt 0.000000 0.500000
s 0
g Circle_Material.001
usemtl Material.001
f 1/1/1 2/2/1 4/3/1 3/4/1
f 3/4/2 4/3/2 6/5/2 5/6/2
f 5/6/3 6/5/3 8/7/3 7/8/3
f 7/8/4 8/7/4 10/9/4 9/10/4
f 9/10/5 10/9/5 12/11/5 11/12/5
f 11/12/6 12/11/6 14/13/6 13/14/6
f 13/14/7 14/13/7 16/15/7 15/16/7
f 15/16/8 16/15/8 18/17/8 17/18/8
f 17/18/9 18/17/9 20/19/9 19/20/9
f 19/20/10 20/19/10 22/21/10 21/22/10
f 21/22/11 22/21/11 24/23/11 23/24/11
f 23/24/12 24/23/12 26/25/12 25/26/12
f 25/26/13 26/25/13 28/27/13 27/28/13
f 27/28/14 28/27/14 30/29/14 29/30/14
f 29/30/15 30/29/15 32/31/15 31/32/15
f 31/32/16 32/31/16 34/33/16 33/34/16
f 33/34/17 34/33/17 36/35/17 35/36/17
f 35/36/18 36/35/18 38/37/18 37/38/18
f 37/38/19 38/37/19 40/39/19 39/40/19
f 39/40/20 40/39/20 42/41/20 41/42/20
f 41/42/21 42/41/21 44/43/21 43/44/21
f 43/44/22 44/43/22 46/45/22 45/46/22
f 45/46/23 46/45/23 48/47/23 47/48/23
f 47/48/24 48/47/24 50/49/24 49/50/24
f 49/50/25 50/49/25 52/51/25 51/52/25
f 51/52/26 52/51/26 54/53/26 53/54/26
f 53/54/27 54/53/27 56/55/27 55/56/27
f 55/56/28 56/55/28 58/57/28 57/58/28
f 57/58/29 58/57/29 60/59/29 59/60/29
f 59/60/30 60/59/30 62/61/30 61/62/30
f 61/62/31 62/61/31 64/63/31 63/64/31
f 63/64/32 64/63/32 66/65/32 65/66/32
f 65/66/33 66/65/33 68/67/33 67/68/33
f 67/68/34 68/67/34 70/69/34 69/70/34
f 69/70/35 70/69/35 72/71/35 71/72/35
f 71/72/36 72/71/36 74/73/36 73/74/36
f 73/74/37 74/73/37 76/75/37 75/76/37
f 75/76/38 76/75/38 78/77/38 77/78/38
f 77/78/39 78/77/39 80/79/39 79/80/39
f 79/80/40 80/79/40 82/81/40 81/82/40
f 81/82/41 82/81/41 84/83/41 83/84/41
f 83/84/42 84/83/42 86/85/42 85/86/42
f 85/86/43 86/85/43 88/87/43 87/88/43
f 87/88/44 88/87/44 90/89/44 89/90/44
f 89/90/45 90/89/45 92/91/45 91/92/45
f 91/92/46 92/91/46 94/93/46 93/94/46
f 93/94/47 94/93/47 96/95/47 95/96/47
f 95/96/48 96/95/48 98/97/48 97/98/48
f 97/98/49 98/97/49 100/99/49 99/100/49
f 99/100/50 100/99/50 102/101/50 101/102/50
f 101/102/51 102/101/51 104/103/51 103/104/51
f 103/104/52 104/103/52 106/105/52 105/106/52
f 105/106/53 106/105/53 108/107/53 107/108/53
f 107/108/54 108/107/54 110/109/54 109/110/54
f 109/110/55 110/109/55 112/111/55 111/112/55
f 111/112/56 112/111/56 114/113/56 113/114/56
f 113/114/57 114/113/57 116/115/57 115/116/57
f 115/116/58 116/115/58 118/117/58 117/118/58
f 117/118/59 118/117/59 120/119/59 119/120/59
f 119/120/60 120/119/60 122/121/60 121/122/60
f 121/122/61 122/121/61 124/123/61 123/124/61
f 123/124/62 124/123/62 126/125/62 125/126/62
f 125/126/63 126/125/63 128/127/63 127/128/63
f 127/128/64 128/127/64 2/129/64 1/130/64
o Cube
v 5.472203 0.144248 4.302348
v 4.689912 -0.290244 3.626277
v 5.335416 -0.105597 3.418643
v 4.829312 0.228110 3.295448
v 5.067530 -0.382986 4.174061
v 5.569720 0.365692 3.727936
v 5.166865 0.612085 3.459684
v 4.431907 0.205492 3.950595
v 4.812331 0.397643 4.373120
v 4.815795 0.719245 3.986478
vn -0.1283 -0.5088 -0.8513
vn 0.3131 0.1273 -0.9412
vn -0.5971 -0.3759 0.7086
vn -0.6971 -0.6097 0.3773
vn 0.4851 0.8272 0.2835
vn 0.1786 -0.9424 -0.2827
vn 0.8370 -0.5466 0.0250
vn 0.6219 0.1895 -0.7598
vn 0.0103 -0.2439 0.9697
vn 0.3415 0.7211 0.6028
vn -0.6436 0.6179 -0.4517
vn -0.7383 0.5218 0.4274
vn -0.8489 -0.1026 -0.5185
vt 0.550384 0.206938
vt 0.375000 0.305791
vt 0.375000 0.049496
vt 0.180791 0.500000
vt 0.330928 0.574320
vt 0.125000 0.700504
vt 0.804283 0.500000
vt 0.842867 0.681766
vt 0.658516 0.626313
vt 0.875000 0.500000
vt 0.501754 0.540833
vt 0.565165 0.799791
vt 0.325310 0.750000
vt 0.604031 0.069198
vt 0.375000 1.000000
vt 0.375000 0.799690
vt 0.578028 1.000000
vt 0.615335 0.592735
vt 0.589707 0.775249
vt 0.581909 0.353207
s 0
g Cube_Material
usemtl Material
f 130/131/65 132/132/65 131/133/65
f 132/134/66 135/135/66 131/136/66
f 136/137/67 133/138/67 137/139/67
f 133/138/68 136/137/68 130/140/68
f 138/141/69 129/142/69 134/143/69 135/135/69
f 131/133/70 133/144/70 130/131/70
f 131/145/71 134/146/71 129/142/71 133/147/71
f 135/135/72 134/143/72 131/136/72
f 137/148/73 133/138/73 129/149/73
f 129/142/74 138/141/74 137/148/74
f 138/141/75 135/135/75 132/132/75 136/150/75
f 138/141/76 136/150/76 137/148/76
f 132/132/77 130/131/77 136/150/77
o Cube
v 5.074758 0.164230 -1.819506
v 5.956988 0.366897 -2.024637
v 5.544990 0.256846 -2.420114
v 5.910862 -0.078048 -2.293318
v 5.488542 0.539804 -1.780242
v 5.192817 -0.069892 -2.263722
v 5.551610 -0.339569 -2.287360
v 5.950824 -0.026300 -1.662280
v 5.488696 -0.098931 -1.495420
v 5.589136 -0.403120 -1.761150
vn 0.5891 0.3721 -0.7173
vn 0.1395 -0.2137 -0.9669
vn 0.2568 0.3937 0.8827
vn 0.5357 0.5677 0.6251
vn -0.6918 -0.7188 0.0689
vn 0.1321 0.9108 -0.3911
vn -0.6497 0.6402 -0.4099
vn -0.2236 -0.2141 -0.9509
vn -0.4151 0.3704 0.8310
vn -0.6960 -0.5888 0.4109
vn 0.6658 -0.7443 -0.0522
vn 0.3593 -0.5439 0.7584
vn 0.9960 -0.0686 -0.0575
vt 0.550384 0.206938
vt 0.375000 0.305791
vt 0.375000 0.049496
vt 0.180791 0.500000
vt 0.330928 0.574320
vt 0.125000 0.700504
vt 0.804283 0.500000
vt 0.842867 0.681766
vt 0.658516 0.626313
vt 0.875000 0.500000
vt 0.501754 0.540833
vt 0.565165 0.799791
vt 0.325310 0.750000
vt 0.604031 0.069198
vt 0.375000 1.000000
vt 0.375000 0.799690
vt 0.578028 1.000000
vt 0.615335 0.592735
vt 0.589707 0.775249
vt 0.581909 0.353207
s 0
g Cube_Material
usemtl Material
f 140/151/78 142/152/78 141/153/78
f 142/154/79 145/155/79 141/156/79
f 146/157/80 143/158/80 147/159/80
f 143/158/81 146/157/81 140/160/81
f 148/161/82 139/162/82 144/163/82 145/155/82
f 141/153/83 143/164/83 140/151/83
f 141/165/84 144/166/84 139/162/84 143/167/84
f 145/155/85 144/163/85 141/156/85
f 147/168/86 143/158/86 139/169/86
f 139/162/87 148/161/87 147/168/87
f 148/161/88 145/155/88 142/152/88 146/170/88
f 148/161/89 146/170/89 147/168/89
f 142/152/90 140/151/90 146/170/90
o Cube
v 1.247482 -0.345071 5.445797
v 1.097770 0.920705 5.977736
v 0.965176 0.187240 6.417555
v 0.401223 0.629505 6.159280
v 1.615588 0.381375 5.623690
v 0.712071 -0.380455 5.994664
v 0.185774 0.031827 5.975809
v 0.689526 0.879995 5.295945
v 0.836278 0.244893 4.947626
v 0.276770 0.210563 5.210981
vn 0.0092 0.5130 0.8583
vn -0.4761 -0.0967 0.8741
vn 0.5156 0.5005 -0.6954
vn 0.5384 0.7583 -0.3677
vn -0.4648 -0.8116 -0.3539
vn 0.7148 0.2601 0.6492
vn 0.6695 -0.5521 0.4969
vn -0.3745 -0.4407 0.8158
vn 0.6627 -0.1565 -0.7323
vn -0.2579 -0.7219 -0.6421
vn -0.8853 0.4571 -0.0857
vn -0.4151 0.3619 -0.8347
vn -0.3471 0.9253 0.1526
vt 0.550384 0.206938
vt 0.375000 0.305791
vt 0.375000 0.049496
vt 0.180791 0.500000
vt 0.330928 0.574320
vt 0.125000 0.700504
vt 0.804283 0.500000
vt 0.842867 0.681766
vt 0.658516 0.626313
vt 0.875000 0.500000
vt 0.501754 0.540833
vt 0.565165 0.799791
vt 0.325310 0.750000
vt 0.604031 0.069198
vt 0.375000 1.000000
vt 0.375000 0.799690
vt 0.578028 1.000000
vt 0.615335 0.592735
vt 0.589707 0.775249
vt 0.581909 0.353207
s 0
g Cube_Material
usemtl Material
f 150/171/91 152/172/91 151/173/91
f 152/174/92 155/175/92 151/176/92
f 156/177/93 153/178/93 157/179/93
f 153/178/94 156/177/94 150/180/94
f 158/181/95 149/182/95 154/183/95 155/175/95
f 151/173/96 153/184/96 150/171/96
f 151/185/97 154/186/97 149/182/97 153/187/97
f 155/175/98 154/183/98 151/176/98
f 157/188/99 153/178/99 149/189/99
f 149/182/100 158/181/100 157/188/100
f 158/181/101 155/175/101 152/172/101 156/190/101
f 158/181/102 156/190/102 157/188/102
f 152/172/103 150/171/103 156/190/103
o Cube
v -4.248079 0.723375 4.078451
v -3.818543 0.348901 3.740046
v -3.800213 0.763099 3.763997
v -3.918096 0.583500 3.468221
v -3.976117 0.430520 4.095145
v -4.122442 0.922302 3.795059
v -4.142077 0.806514 3.496377
v -4.173333 0.250437 3.638926
v -4.409805 0.411781 3.848271
v -4.404322 0.546489 3.583412
vn 0.9330 -0.0205 -0.3594
vn 0.5347 0.6108 -0.5840
vn -0.2106 -0.8748 0.4363
vn 0.1768 -0.9392 0.2943
vn -0.7838 0.6186 -0.0544
vn 0.9066 -0.0642 0.4171
vn 0.4425 0.5594 0.7009
vn 0.3863 0.8512 -0.3554
vn -0.4476 -0.3693 0.8144
vn -0.9197 0.3572 0.1626
vn -0.2075 -0.2320 -0.9503
vn -0.7135 -0.6184 -0.3293
vn 0.3695 -0.6322 -0.6810
vt 0.550384 0.206938
vt 0.375000 0.305791
vt 0.375000 0.049496
vt 0.180791 0.500000
vt 0.330928 0.574320
vt 0.125000 0.700504
vt 0.804283 0.500000
vt 0.842867 0.681766
vt 0.658516 0.626313
vt 0.875000 0.500000
vt 0.501754 0.540833
vt 0.565165 0.799791
vt 0.325310 0.750000
vt 0.604031 0.069198
vt 0.375000 1.000000
vt 0.375000 0.799690
vt 0.578028 1.000000
vt 0.615335 0.592735
vt 0.589707 0.775249
vt 0.581909 0.353207
s 0
g Cube_Material
usemtl Material
f 160/191/104 162/192/104 161/193/104
f 162/194/105 165/195/105 161/196/105
f 166/197/106 163/198/106 167/199/106
f 163/198/107 166/197/107 160/200/107
f 168/201/108 159/202/108 164/203/108 165/195/108
f 161/193/109 163/204/109 160/191/109
f 161/205/110 164/206/110 159/202/110 163/207/110
f 165/195/111 164/203/111 161/196/111
f 167/208/112 163/198/112 159/209/112
f 159/202/113 168/201/113 167/208/113
f 168/201/114 165/195/114 162/192/114 166/210/114
f 168/201/115 166/210/115 167/208/115
f 162/192/116 160/191/116 166/210/116
o Cube
v 5.038391 -0.325034 1.814813
v 4.515799 -0.409763 1.213329
v 4.919394 -0.111461 1.198152
v 4.507258 0.039035 1.251397
v 4.831472 -0.629060 1.500744
v 5.029981 0.056437 1.585209
v 4.692733 0.237695 1.522180
v 4.282322 -0.317744 1.600804
v 4.546192 -0.326765 1.938653
v 4.470318 0.014479 1.855555
vn -0.0981 0.0823 -0.9918
vn 0.1812 0.7296 -0.6594
vn -0.4256 -0.8503 0.3097
vn -0.5045 -0.8576 -0.1003
vn 0.3173 0.5836 0.7475
vn 0.3522 -0.5162 -0.7807
vn 0.9349 -0.2383 -0.2630
vn 0.4854 0.7429 -0.4609
vn 0.1611 -0.7600 0.6296
vn 0.2334 0.2787 0.9316
vn -0.8057 0.5918 -0.0252
vn -0.7882 -0.0255 0.6149
vn -0.8532 0.0279 -0.5208
vt 0.550384 0.206938
vt 0.375000 0.305791
vt 0.375000 0.049496
vt 0.180791 0.500000
vt 0.330928 0.574320
vt 0.125000 0.700504
vt 0.804283 0.500000
vt 0.842867 0.681766
vt 0.658516 0.626313
vt 0.875000 0.500000
vt 0.501754 0.540833
vt 0.565165 0.799791
vt 0.325310 0.750000
vt 0.604031 0.069198
vt 0.375000 1.000000
vt 0.375000 0.799690
vt 0.578028 1.000000
vt 0.615335 0.592735
vt 0.589707 0.775249
vt 0.581909 0.353207
s 0
g Cube_Material
usemtl Material
f 170/211/117 172/212/117 171/213/117
f 172/214/118 175/215/118 171/216/118
f 176/217/119 173/218/119 177/219/119
f 173/218/120 176/217/120 170/220/120
f 178/221/121 169/222/121 174/223/121 175/215/121
f 171/213/122 173/224/122 170/211/122
f 171/225/123 174/226/123 169/222/123 173/227/123
f 175/215/124 174/223/124 171/216/124
f 177/228/125 173/218/125 169/229/125
f 169/222/126 178/221/126 177/228/126
f 178/221/127 175/215/127 172/212/127 176/230/127
f 178/221/128 176/230/128 177/228/128
f 172/212/129 170/211/129 176/230/129
o Cube
v 4.930734 0.405397 -1.966888
v 4.253235 -0.135013 -2.409754
v 4.178745 0.133775 -1.867436
v 4.266092 -0.392505 -1.927143
v 4.591099 0.338961 -2.441509
v 4.624951 0.174936 -1.584879
v 4.563121 -0.292272 -1.582379
v 4.734326 -0.422792 -2.398694
v 5.121619 -0.119745 -2.227274
v 5.001670 -0.394809 -1.910389
vn -0.9859 -0.1571 -0.0576
vn -0.7144 -0.1948 0.6721
vn 0.3904 0.0217 -0.9204
vn -0.0120 -0.0584 -0.9982
vn 0.6862 0.0387 0.7264
vn -0.7694 0.5240 -0.3654
vn -0.3111 0.9311 0.1906
vn -0.5384 0.0757 0.8393
vn 0.6631 0.5118 -0.5462
vn 0.8942 0.1099 0.4339
vn -0.0067 -0.9877 0.1565
vn 0.6679 -0.6684 -0.3274
vn -0.4618 -0.7876 -0.4079
vt 0.550384 0.206938
vt 0.375000 0.305791
vt 0.375000 0.049496
vt 0.180791 0.500000
vt 0.330928 0.574320
vt 0.125000 0.700504
vt 0.804283 0.500000
vt 0.842867 0.681766
vt 0.658516 0.626313
vt 0.875000 0.500000
vt 0.501754 0.540833
vt 0.565165 0.799791
vt 0.325310 0.750000
vt 0.604031 0.069198
vt 0.375000 1.000000
vt 0.375000 0.799690
vt 0.578028 1.000000
vt 0.615335 0.592735
vt 0.589707 0.775249
vt 0.581909 0.353207
s 0
g Cube_Material
usemtl Material
f 180/231/130 182/232/130 181/233/130
f 182/234/131 185/235/131 181/236/131
f 186/237/132 183/238/132 187/239/132
f 183/238/133 186/237/133 180/240/133
f 188/241/134 179/242/134 184/243/134 185/235/134
f 181/233/135 183/244/135 180/231/135
f 181/245/136 184/246/136 179/242/136 183/247/136
f 185/235/137 184/243/137 181/236/137
f 187/248/138 183/238/138 179/249/138
f 179/242/139 188/241/139 187/248/139
f 188/241/140 185/235/140 182/232/140 186/250/140
f 188/241/141 186/250/141 187/248/141
f 182/232/142 180/231/142 186/250/142
o Cube
v -3.257345 0.279764 2.480601
v -3.742247 -0.121966 3.107997
v -3.569061 0.406733 3.135004
v -3.366285 0.042565 3.393176
v -3.717349 0.030045 2.598343
v -3.145302 0.485939 2.915323
v -3.019217 0.239076 3.244638
v -3.338953 -0.417549 2.997319
v -3.106853 -0.244609 2.619863
v -2.902238 -0.159967 2.951306
vn -0.6420 0.1721 0.7471
vn 0.0164 0.5843 0.8114
vn -0.3258 -0.7675 -0.5520
vn -0.6161 -0.7460 -0.2526
vn 0.9072 0.3266 -0.2653
vn -0.9500 0.3089 0.0457
vn -0.4449 0.8155 -0.3701
vn 0.1375 0.8171 0.5599
vn -0.0924 -0.2803 -0.9555
vn 0.8358 0.0963 -0.5406
vn 0.4711 -0.5025 0.7250
vn 0.4992 -0.8620 -0.0880
vn -0.2689 -0.6373 0.7222
vt 0.550384 0.206938
vt 0.375000 0.305791
vt 0.375000 0.049496
vt 0.180791 0.500000
vt 0.330928 0.574320
vt 0.125000 0.700504
vt 0.804283 0.500000
vt 0.842867 0.681766
vt 0.658516 0.626313
vt 0.875000 0.500000
vt 0.501754 0.540833
vt 0.565165 0.799791
vt 0.325310 0.750000
vt 0.604031 0.069198
vt 0.375000 1.000000
vt 0.375000 0.799690
vt 0.578028 1.000000
vt 0.615335 0.592735
vt 0.589707 0.775249
vt 0.581909 0.353207
s 0
g Cube_Material
usemtl Material
f 190/251/143 192/252/143 191/253/143
f 192/254/144 195/255/144 191/256/144
f 196/257/145 193/258/145 197/259/145
f 193/258/146 196/257/146 190/260/146
f 198/261/147 189/262/147 194/263/147 195/255/147
f 191/253/148 193/264/148 190/251/148
f 191/265/149 194/266/149 189/262/149 193/267/149
f 195/255/150 194/263/150 191/256/150
f 197/268/151 193/258/151 189/269/151
f 189/262/152 198/261/152 197/268/152
f 198/261/153 195/255/153 192/252/153 196/270/153
f 198/261/154 196/270/154 197/268/154
f 192/252/155 190/251/155 196/270/155
o Cube
v -2.517135 0.429467 4.119785
v -2.206287 -0.510223 4.128133
v -2.790036 -0.333618 4.240946
v -2.443058 -0.492394 4.631408
v -2.269170 -0.015448 3.807621
v -2.830741 0.149977 4.474935
v -2.626893 -0.102263 4.827870
v -1.858850 -0.199394 4.456555
v -1.970791 0.315775 4.405527
v -2.130061 0.167929 4.792543
vn -0.3074 -0.9451 -0.1111
vn -0.7224 -0.5509 0.4179
vn 0.8543 0.1359 -0.5017
vn 0.7777 -0.2691 -0.5681
vn -0.2700 0.7896 0.5511
vn -0.3149 -0.5439 -0.7778
vn -0.7357 0.1586 -0.6585
vn -0.9051 -0.2445 0.3480
vn 0.4495 0.6672 -0.5939
vn 0.0064 0.9333 0.3591
vn 0.3633 -0.3798 0.8508
vn 0.8651 0.2320 0.4447
vn 0.4941 -0.8290 0.2618
vt 0.550384 0.206938
vt 0.375000 0.305791
vt 0.375000 0.049496
vt 0.180791 0.500000
vt 0.330928 0.574320
vt 0.125000 0.700504
vt 0.804283 0.500000
vt 0.842867 0.681766
vt 0.658516 0.626313
vt 0.875000 0.500000
vt 0.501754 0.540833
vt 0.565165 0.799791
vt 0.325310 0.750000
vt 0.604031 0.069198
vt 0.375000 1.000000
vt 0.375000 0.799690
vt 0.578028 1.000000
vt 0.615335 0.592735
vt 0.589707 0.775249
vt 0.581909 0.353207
s 0
g Cube_Material
usemtl Material
f 200/271/156 202/272/156 201/273/156
f 202/274/157 205/275/157 201/276/157
f 206/277/158 203/278/158 207/279/158
f 203/278/159 206/277/159 200/280/159
f 208/281/160 199/282/160 204/283/160 205/275/160
f 201/273/161 203/284/161 200/271/161
f 201/285/162 204/286/162 199/282/162 203/287/162
f 205/275/163 204/283/163 201/276/163
f 207/288/164 203/278/164 199/289/164
f 199/282/165 208/281/165 207/288/165
f 208/281/166 205/275/166 202/272/166 206/290/166
f 208/281/167 206/290/167 207/288/167
f 202/272/168 200/271/168 206/290/168
o Cube
v 2.890257 0.360558 -2.337256
v 3.136842 0.223159 -3.039576
v 3.170465 0.642958 -2.821405
v 2.890774 0.560836 -3.120296
v 3.171177 0.114804 -2.600681
v 2.864154 0.718645 -2.556460
v 2.682014 0.726139 -2.874457
v 2.724815 0.084299 -3.006075
v 2.601304 0.103724 -2.620817
v 2.464083 0.359853 -2.796252
vn 0.6508 0.3084 -0.6938
vn 0.1967 0.8828 -0.4266
vn 0.0174 -0.9983 0.0559
vn 0.2908 -0.9234 -0.2507
vn -0.7130 0.4195 0.5619
vn 0.9956 -0.0348 -0.0865
vn 0.7246 0.3239 0.6083
vn 0.1755 0.9814 -0.0774
vn -0.0096 -0.7363 0.6766
vn -0.7309 0.0732 0.6785
vn -0.6345 0.1145 -0.7644
vn -0.7872 -0.5748 -0.2234
vn -0.0006 -0.2329 -0.9725
vt 0.550384 0.206938
vt 0.375000 0.305791
vt 0.375000 0.049496
vt 0.180791 0.500000
vt 0.330928 0.574320
vt 0.125000 0.700504
vt 0.804283 0.500000
vt 0.842867 0.681766
vt 0.658516 0.626313
vt 0.875000 0.500000
vt 0.501754 0.540833
vt 0.565165 0.799791
vt 0.325310 0.750000
vt 0.604031 0.069198
vt 0.375000 1.000000
vt 0.375000 0.799690
vt 0.578028 1.000000
vt 0.615335 0.592735
vt 0.589707 0.775249
vt 0.581909 0.353207
s 0
g Cube_Material
usemtl Material
f 210/291/169 212/292/169 211/293/169
f 212/294/170 215/295/170 211/296/170
f 216/297/171 213/298/171 217/299/171
f 213/298/172 216/297/172 210/300/172
f 218/301/173 209/302/173 214/303/173 215/295/173
f 211/293/174 213/304/174 210/291/174
f 211/305/175 214/306/175 209/302/175 213/307/175
f 215/295/176 214/303/176 211/296/176
f 217/308/177 213/298/177 209/309/177
f 209/302/178 218/301/178 217/308/178
f 218/301/179 215/295/179 212/292/179 216/310/179
f 218/301/180 216/310/180 217/308/180
f 212/292/181 210/291/181 216/310/181
o Cube
v -4.078501 0.384359 -1.694931
v -3.706713 0.762056 -0.978108
v -3.424099 0.602923 -1.432912
v -3.418744 0.353055 -1.009452
v -4.061050 0.815803 -1.373925
v -3.613758 0.216828 -1.657459
v -3.478216 0.036420 -1.289435
v -3.999102 0.368765 -0.824439
v -4.252590 0.198527 -1.190943
v -3.949173 -0.049703 -1.112672
vn 0.7897 0.5327 0.3043
vn 0.9901 -0.1149 -0.0803
vn -0.8343 0.3779 0.4015
vn -0.5392 0.6225 0.5672
vn -0.1493 -0.8488 -0.5072
vn 0.3019 0.9427 -0.1422
vn 0.1628 0.5188 -0.8393
vn 0.8870 -0.1912 -0.4204
vn -0.9442 0.2204 -0.2449
vn -0.4950 -0.7457 -0.4460
vn 0.2985 -0.5861 0.7533
vn -0.5799 -0.5079 0.6370
vn 0.3041 0.1419 0.9420
vt 0.550384 0.206938
vt 0.375000 0.305791
vt 0.375000 0.049496
vt 0.180791 0.500000
vt 0.330928 0.574320
vt 0.125000 0.700504
vt 0.804283 0.500000
vt 0.842867 0.681766
vt 0.658516 0.626313
vt 0.875000 0.500000
vt 0.501754 0.540833
vt 0.565165 0.799791
vt 0.325310 0.750000
vt 0.604031 0.069198
vt 0.375000 1.000000
vt 0.375000 0.799690
vt 0.578028 1.000000
vt 0.615335 0.592735
vt 0.589707 0.775249
vt 0.581909 0.353207
s 0
g Cube_Material
usemtl Material
f 220/311/182 222/312/182 221/313/182
f 222/314/183 225/315/183 221/316/183
f 226/317/184 223/318/184 227/319/184
f 223/318/185 226/317/185 220/320/185
f 228/321/186 219/322/186 224/323/186 225/315/186
f 221/313/187 223/324/187 220/311/187
f 221/325/188 224/326/188 219/322/188 223/327/188
f 225/315/189 224/323/189 221/316/189
f 227/328/190 223/318/190 219/329/190
f 219/322/191 228/321/191 227/328/191
f 228/321/192 225/315/192 222/312/192 226/330/192
f 228/321/193 226/330/193 227/328/193
f 222/312/194 220/311/194 226/330/194
o Cube
v 3.078026 0.773271 1.437188
v 3.165932 0.296838 2.050921
v 2.905046 0.711502 2.057897
v 3.295487 0.673403 2.237088
v 3.011631 0.339492 1.610792
v 3.054431 1.013870 1.798281
v 3.332502 0.998301 2.054803
v 3.572309 0.388537 1.879513
v 3.533562 0.596829 1.518710
v 3.629783 0.819438 1.771944
vn -0.4228 -0.2805 0.8617
vn -0.3234 0.4908 0.8090
vn 0.3104 -0.8085 -0.5001
vn 0.1571 -0.9762 -0.1497
vn 0.2720 0.8627 -0.4264
vn -0.8205 -0.5202 0.2372
vn -0.9582 0.1314 -0.2540
vn -0.4642 0.6978 0.5456
vn 0.0210 -0.3742 -0.9271
vn 0.3657 0.6257 -0.6890
vn 0.7842 0.1343 0.6058
vn 0.9616 -0.1800 -0.2072
vn 0.4292 -0.5146 0.7423
vt 0.550384 0.206938
vt 0.375000 0.305791
vt 0.375000 0.049496
vt 0.180791 0.500000
vt 0.330928 0.574320
vt 0.125000 0.700504
vt 0.804283 0.500000
vt 0.842867 0.681766
vt 0.658516 0.626313
vt 0.875000 0.500000
vt 0.501754 0.540833
vt 0.565165 0.799791
vt 0.325310 0.750000
vt 0.604031 0.069198
vt 0.375000 1.000000
vt 0.375000 0.799690
vt 0.578028 1.000000
vt 0.615335 0.592735
vt 0.589707 0.775249
vt 0.581909 0.353207
s 0
g Cube_Material
usemtl Material
f 230/331/195 232/332/195 231/333/195
f 232/334/196 235/335/196 231/336/196
f 236/337/197 233/338/197 237/339/197
f 233/338/198 236/337/198 230/340/198
f 238/341/199 229/342/199 234/343/199 235/335/199
f 231/333/200 233/344/200 230/331/200
f 231/345/201 234/346/201 229/342/201 233/347/201
f 235/335/202 234/343/202 231/336/202
f 237/348/203 233/338/203 229/349/203
f 229/342/204 238/341/204 237/348/204
f 238/341/205 235/335/205 232/332/205 236/350/205
f 238/341/206 236/350/206 237/348/206
f 232/332/207 230/331/207 236/350/207
o Cube
v 2.521958 0.200929 2.762190
v 1.974980 -0.266724 2.276424
v 2.511032 -0.233449 2.189603
v 2.185851 -0.004385 1.922890
v 2.173311 -0.190132 2.751031
v 2.700042 0.181421 2.314148
v 2.462302 0.299187 1.987975
v 1.794121 0.197584 2.320326
v 2.045015 0.439400 2.627632
v 2.138221 0.552589 2.266952
vn -0.0506 -0.7873 -0.6144
vn 0.4905 -0.2689 -0.8289
vn -0.7630 -0.0289 0.6457
vn -0.8368 -0.3646 0.4085
vn 0.5464 0.8351 0.0639
vn 0.0817 -0.9887 0.1254
vn 0.7272 -0.5535 0.4060
vn 0.7680 -0.1641 -0.6190
vn -0.1986 0.1494 0.9686
vn 0.3341 0.8712 0.3597
vn -0.4526 0.4403 -0.7754
vn -0.7150 0.6982 0.0343
vn -0.7492 -0.2332 -0.6199
vt 0.550384 0.206938
vt 0.375000 0.305791
vt 0.375000 0.049496
vt 0.180791 0.500000
vt 0.330928 0.574320
vt 0.125000 0.700504
vt 0.804283 0.500000
vt 0.842867 0.681766
vt 0.658516 0.626313
vt 0.875000 0.500000
vt 0.501754 0.540833
vt 0.565165 0.799791
vt 0.325310 0.750000
vt 0.604031 0.069198
vt 0.375000 1.000000
vt 0.375000 0.799690
vt 0.578028 1.000000
vt 0.615335 0.592735
vt 0.589707 0.775249
vt 0.581909 0.353207
s 0
g Cube_Material
usemtl Material
f 240/351/208 242/352/208 241/353/208
f 242/354/209 245/355/209 241/356/209
f 246/357/210 243/358/210 247/359/210
f 243/358/211 246/357/211 240/360/211
f 248/361/212 239/362/212 244/363/212 245/355/212
f 241/353/213 243/364/213 240/351/213
f 241/365/214 244/366/214 239/362/214 243/367/214
f 245/355/215 244/363/215 241/356/215
f 247/368/216 243/358/216 239/369/216
f 239/362/217 248/361/217 247/368/217
f 248/361/218 245/355/218 242/352/218 246/370/218
f 248/361/219 246/370/219 247/368/219
f 242/352/220 240/351/220 246/370/220
o Cube
v 2.972498 -0.023510 -0.244603
v 2.884834 1.137533 -0.098615
v 3.034923 0.810039 -0.739630
v 3.480367 1.113774 -0.381491
v 2.557965 0.517122 -0.050981
v 3.361764 0.264340 -0.681550
v 3.752708 0.639556 -0.510419
v 3.306184 0.891010 0.369096
v 3.299553 0.263208 0.358136
v 3.740663 0.437348 0.130108
vn -0.1949 0.8542 -0.4820
vn 0.3660 0.4340 -0.8232
vn -0.4857 -0.0101 0.8741
vn -0.5878 0.3651 0.7220
vn 0.6180 -0.7765 -0.1230
vn -0.8236 0.4033 -0.3989
vn -0.6436 -0.3546 -0.6783
vn 0.3229 0.0931 -0.9418
vn -0.5316 -0.6159 0.5814
vn 0.4402 -0.8798 0.1796
vn 0.8147 0.5150 0.2664
vn 0.4654 -0.0204 0.8848
vn 0.1888 0.9286 0.3194
vt 0.550384 0.206938
vt 0.375000 0.305791
vt 0.375000 0.049496
vt 0.180791 0.500000
vt 0.330928 0.574320
vt 0.125000 0.700504
vt 0.804283 0.500000
vt 0.842867 0.681766
vt 0.658516 0.626313
vt 0.875000 0.500000
vt 0.501754 0.540833
vt 0.565165 0.799791
vt 0.325310 0.750000
vt 0.604031 0.069198
vt 0.375000 1.000000
vt 0.375000 0.799690
vt 0.578028 1.000000
vt 0.615335 0.592735
vt 0.589707 0.775249
vt 0.581909 0.353207
s 0
g Cube_Material
usemtl Material
f 250/371/221 252/372/221 251/373/221
f 252/374/222 255/375/222 251/376/222
f 256/377/223 253/378/223 257/379/223
f 253/378/224 256/377/224 250/380/224
f 258/381/225 249/382/225 254/383/225 255/375/225
f 251/373/226 253/384/226 250/371/226
f 251/385/227 254/386/227 249/382/227 253/387/227
f 255/375/228 254/383/228 251/376/228
f 257/388/229 253/378/229 249/389/229
f 249/382/230 258/381/230 257/388/230
f 258/381/231 255/375/231 252/372/231 256/390/231
f 258/381/232 256/390/232 257/388/232
f 252/372/233 250/371/233 256/390/233
o Cube
v -2.224103 -0.043520 -2.308282
v -2.411313 0.684213 -2.742067
v -2.026498 0.645119 -2.359998
v -2.450491 0.854612 -2.286683
v -2.252335 0.190588 -2.775855
v -2.124052 0.330814 -2.021265
v -2.417782 0.621277 -1.944538
v -2.835067 0.493592 -2.557754
v -2.756738 0.073240 -2.376836
v -2.795148 0.332561 -2.089335
vn 0.3818 0.8759 -0.2949
vn 0.4548 0.7554 0.4717
vn -0.5013 -0.4192 -0.7570
vn -0.3762 -0.0579 -0.9247
vn -0.0888 -0.4979 0.8627
vn 0.6923 0.2688 -0.6697
vn 0.9532 -0.2818 -0.1097
vn 0.6282 0.4718 0.6187
vn -0.1386 -0.8889 -0.4367
vn -0.2427 -0.7363 0.6317
vn -0.7113 0.6049 0.3580
vn -0.9846 -0.1730 0.0245
vn -0.5049 0.7933 -0.3403
vt 0.550384 0.206938
vt 0.375000 0.305791
vt 0.375000 0.049496
vt 0.180791 0.500000
vt 0.330928 0.574320
vt 0.125000 0.700504
vt 0.804283 0.500000
vt 0.842867 0.681766
vt 0.658516 0.626313
vt 0.875000 0.500000
vt 0.501754 0.540833
vt 0.565165 0.799791
vt 0.325310 0.750000
vt 0.604031 0.069198
vt 0.375000 1.000000
vt 0.375000 0.799690
vt 0.578028 1.000000
vt 0.615335 0.592735
vt 0.589707 0.775249
vt 0.581909 0.353207
s 0
g Cube_Material
usemtl Material
f 260/391/234 262/392/234 261/393/234
f 262/394/235 265/395/235 261/396/235
f 266/397/236 263/398/236 267/399/236
f 263/398/237 266/397/237 260/400/237
f 268/401/238 259/402/238 264/403/238 265/395/238
f 261/393/239 263/404/239 260/391/239
f 261/405/240 264/406/240 259/402/240 263/407/240
f 265/395/241 264/403/241 261/396/241
f 267/408/242 263/398/242 259/409/242
f 259/402/243 268/401/243 267/408/243
f 268/401/244 265/395/244 262/392/244 266/410/244
f 268/401/245 266/410/245 267/408/245
f 262/392/246 260/391/246 266/410/246
o Cube
v -2.652102 0.620429 1.663296
v -3.146832 0.137945 0.874749
v -2.499774 0.250363 0.893037
v -2.867007 0.555238 0.566458
v -3.010126 0.129074 1.487644
v -2.355262 0.726156 1.173137
v -2.592660 0.923175 0.769872
v -3.432579 0.656430 0.994834
v -3.225031 0.888866 1.461406
v -3.063072 1.120950 1.085945
vn 0.1334 -0.6452 -0.7523
vn 0.6391 -0.0523 -0.7674
vn -0.8449 -0.2222 0.4865
vn -0.8431 -0.5065 0.1807
vn 0.4324 0.8448 0.3151
vn 0.1724 -0.9836 -0.0527
vn 0.7139 -0.5655 0.4129
vn 0.8675 0.0289 -0.4966
vn -0.3605 -0.0698 0.9301
vn 0.1746 0.8021 0.5711
vn -0.3749 0.5532 -0.7439
vn -0.7859 0.6169 0.0423
vn -0.6140 -0.1594 -0.7730
vt 0.550384 0.206938
vt 0.375000 0.305791
vt 0.375000 0.049496
vt 0.180791 0.500000
vt 0.330928 0.574320
vt 0.125000 0.700504
vt 0.804283 0.500000
vt 0.842867 0.681766
vt 0.658516 0.626313
vt 0.875000 0.500000
vt 0.501754 0.540833
vt 0.565165 0.799791
vt 0.325310 0.750000
vt 0.604031 0.069198
vt 0.375000 1.000000
vt 0.375000 0.799690
vt 0.578028 1.000000
vt 0.615335 0.592735
vt 0.589707 0.775249
vt 0.581909 0.353207
s 0
g Cube_Material
usemtl Material
f 270/411/247 272/412/247 271/413/247
f 272/414/248 275/415/248 271/416/248
f 276/417/249 273/418/249 277/419/249
f 273/418/250 276/417/250 270/420/250
f 278/421/251 269/422/251 274/423/251 275/415/251
f 271/413/252 273/424/252 270/411/252
f 271/425/253 274/426/253 269/422/253 273/427/253
f 275/415/254 274/423/254 271/416/254
f 277/428/255 273/418/255 269/429/255
f 269/422/256 278/421/256 277/428/256
f 278/421/257 275/415/257 272/412/257 276/430/257
f 278/421/258 276/430/258 277/428/258
f 272/412/259 270/411/259 276/430/259
o Cube
v -0.208489 -0.186575 3.406288
v -0.113651 0.327534 2.718730
v -0.239101 0.501881 3.215513
v -0.555349 0.471057 2.860536
v 0.111918 -0.017341 3.031508
v -0.492409 0.195723 3.466789
v -0.768820 0.300055 3.170720
v -0.424630 -0.042384 2.600075
v -0.435431 -0.356942 2.938542
v -0.758044 -0.142994 2.951404
vn 0.2164 0.9370 -0.2742
vn -0.3632 0.8988 0.2455
vn 0.4979 -0.6431 -0.5818
vn 0.6103 -0.2747 -0.7430
vn -0.6455 -0.4417 0.6230
vn 0.8307 0.5565 0.0145
vn 0.6213 0.2348 0.7476
vn -0.3334 0.7474 0.5746
vn 0.5191 -0.8527 0.0587
vn -0.4669 -0.7337 0.4937
vn -0.7929 0.1754 -0.5835
vn -0.4528 -0.6459 -0.6147
vn -0.1527 0.4159 -0.8965
vt 0.550384 0.206938
vt 0.375000 0.305791
vt 0.375000 0.049496
vt 0.180791 0.500000
vt 0.330928 0.574320
vt 0.125000 0.700504
vt 0.804283 0.500000
vt 0.842867 0.681766
vt 0.658516 0.626313
vt 0.875000 0.500000
vt 0.501754 0.540833
vt 0.565165 0.799791
vt 0.325310 0.750000
vt 0.604031 0.069198
vt 0.375000 1.000000
vt 0.375000 0.799690
vt 0.578028 1.000000
vt 0.615335 0.592735
vt 0.589707 0.775249
vt 0.581909 0.353207
s 0
g Cube_Material
usemtl Material
f 280/431/260 282/432/260 281/433/260
f 282/434/261 285/435/261 281/436/261
f 286/437/262 283/438/262 287/439/262
f 283/438/263 286/437/263 280/440/263
f 288/441/264 279/442/264 284/443/264 285/435/264
f 281/433/265 283/444/265 280/431/265
f 281/445/266 284/446/266 279/442/266 283/447/266
f 285/435/267 284/443/267 281/436/267
f 287/448/268 283/438/268 279/449/268
f 279/442/269 288/441/269 287/448/269
f 288/441/270 285/435/270 282/432/270 286/450/270
f 288/441/271 286/450/271 287/448/271
f 282/432/272 280/431/272 286/450/272
o Cube
v 1.808860 -0.045997 0.783334
v 2.211947 0.061720 -0.067294
v 1.653123 -0.119598 0.018127
v 2.042224 -0.440569 -0.118530
v 2.059785 0.314689 0.417368
v 1.584642 -0.388892 0.452580
v 1.845337 -0.680251 0.212484
v 2.540223 -0.242619 0.245055
v 2.369272 -0.251789 0.722263
v 2.278986 -0.621239 0.532897
vn -0.2016 0.1666 -0.9652
vn -0.5972 -0.4377 -0.6722
vn 0.7677 0.5734 0.2860
vn 0.7335 0.6691 -0.1190
vn -0.2979 -0.6480 0.7009
vn -0.3347 0.7882 -0.5165
vn -0.8208 0.5599 0.1132
vn -0.8224 -0.4164 -0.3877
vn 0.2936 0.5725 0.7655
vn -0.0650 -0.4425 0.8944
vn 0.5026 -0.7686 -0.3958
vn 0.8763 -0.3714 0.3068
vn 0.6178 -0.1296 -0.7756
vt 0.550384 0.206938
vt 0.375000 0.305791
vt 0.375000 0.049496
vt 0.180791 0.500000
vt 0.330928 0.574320
vt 0.125000 0.700504
vt 0.804283 0.500000
vt 0.842867 0.681766
vt 0.658516 0.626313
vt 0.875000 0.500000
vt 0.501754 0.540833
vt 0.565165 0.799791
vt 0.325310 0.750000
vt 0.604031 0.069198
vt 0.375000 1.000000
vt 0.375000 0.799690
vt 0.578028 1.000000
vt 0.615335 0.592735
vt 0.589707 0.775249
vt 0.581909 0.353207
s 0
g Cube_Material
usemtl Material
f 290/451/273 292/452/273 291/453/273
f 292/454/274 295/455/274 291/456/274
f 296/457/275 293/458/275 297/459/275
f 293/458/276 296/457/276 290/460/276
f 298/461/277 289/462/277 294/463/277 295/455/277
f 291/453/278 293/464/278 290/451/278
f 291/465/279 294/466/279 289/462/279 293/467/279
f 295/455/280 294/463/280 291/456/280
f 297/468/281 293/458/281 289/469/281
f 289/462/282 298/461/282 297/468/282
f 298/461/283 295/455/283 292/452/283 296/470/283
f 298/461/284 296/470/284 297/468/284
f 292/452/285 290/451/285 296/470/285
o Cube
v -0.055651 0.648304 -1.769886
v 0.400969 0.535197 -2.540119
v -0.076731 0.262244 -2.409242
v 0.373527 0.050598 -2.392231
v 0.136119 0.883232 -2.222382
v -0.133271 0.178811 -1.928430
v 0.206747 -0.081414 -2.016079
v 0.731153 0.486219 -2.141437
v 0.513022 0.607573 -1.727995
v 0.544825 0.204709 -1.749994
vn -0.0981 -0.2854 -0.9534
vn -0.3663 -0.8153 -0.4485
vn 0.5501 0.8338 0.0455
vn 0.5507 0.7512 -0.3638
vn -0.2215 -0.3823 0.8971
vn -0.4456 0.3945 -0.8036
vn -0.9428 0.2983 -0.1491
vn -0.6276 -0.7513 -0.2042
vn 0.0286 0.8822 0.4701
vn -0.0776 -0.0605 0.9951
vn 0.7307 -0.6820 -0.0313
vn 0.8890 0.0453 0.4557
vn 0.7340 -0.2359 -0.6369
vt 0.550384 0.206938
vt 0.375000 0.305791
vt 0.375000 0.049496
vt 0.180791 0.500000
vt 0.330928 0.574320
vt 0.125000 0.700504
vt 0.804283 0.500000
vt 0.842867 0.681766
vt 0.658516 0.626313
vt 0.875000 0.500000
vt 0.501754 0.540833
vt 0.565165 0.799791
vt 0.325310 0.750000
vt 0.604031 0.069198
vt 0.375000 1.000000
vt 0.375000 0.799690
vt 0.578028 1.000000
vt 0.615335 0.592735
vt 0.589707 0.775249
vt 0.581909 0.353207
s 0
g Cube_Material
usemtl Material
f 300/471/286 302/472/286 301/473/286
f 302/474/287 305/475/287 301/476/287
f 306/477/288 303/478/288 307/479/288
f 303/478/289 306/477/289 300/480/289
f 308/481/290 299/482/290 304/483/290 305/475/290
f 301/473/291 303/484/291 300/471/291
f 301/485/292 304/486/292 299/482/292 303/487/292
f 305/475/293 304/483/293 301/476/293
f 307/488/294 303/478/294 299/489/294
f 299/482/295 308/481/295 307/488/295
f 308/481/296 305/475/296 302/472/296 306/490/296
f 308/481/297 306/490/297 307/488/297
f 302/472/298 300/471/298 306/490/298
o Cube
v 0.740179 0.247165 -1.923553
v 1.175717 0.472124 -1.227484
v 1.396654 0.380282 -1.704291
v 1.421124 0.078460 -1.345379
v 0.810014 0.601823 -1.558354
v 1.174093 0.061397 -1.956337
v 1.321909 -0.172613 -1.650793
v 0.886355 0.092004 -1.116317
v 0.604901 0.001544 -1.462936
v 0.883999 -0.258820 -1.454950
vn 0.8460 0.4351 0.3082
vn 0.9699 -0.1497 -0.1920
vn -0.7701 0.3481 0.5345
vn -0.4466 0.5470 0.7080
vn -0.2475 -0.7453 -0.6192
vn 0.3492 0.9369 -0.0187
vn 0.1231 0.6409 -0.7577
vn 0.8330 -0.1637 -0.5284
vn -0.9454 0.3048 -0.1152
vn -0.5791 -0.6364 -0.5095
vn 0.3236 -0.7162 0.6183
vn -0.5545 -0.5760 0.6006
vn 0.3929 -0.0303 0.9191
vt 0.550384 0.206938
vt 0.375000 0.305791
vt 0.375000 0.049496
vt 0.180791 0.500000
vt 0.330928 0.574320
vt 0.125000 0.700504
vt 0.804283 0.500000
vt 0.842867 0.681766
vt 0.658516 0.626313
vt 0.875000 0.500000
vt 0.501754 0.540833
vt 0.565165 0.799791
vt 0.325310 0.750000
vt 0.604031 0.069198
vt 0.375000 1.000000
vt 0.375000 0.799690
vt 0.578028 1.000000
vt 0.615335 0.592735
vt 0.589707 0.775249
vt 0.581909 0.353207
s 0
g Cube_Material
usemtl Material
f 310/491/299 312/492/299 311/493/299
f 312/494/300 315/495/300 311/496/300
f 316/497/301 313/498/301 317/499/301
f 313/498/302 316/497/302 310/500/302
f 318/501/303 309/502/303 314/503/303 315/495/303
f 311/493/304 313/504/304 310/491/304
f 311/505/305 314/506/305 309/502/305 313/507/305
f 315/495/306 314/503/306 311/496/306
f 317/508/307 313/498/307 309/509/307
f 309/502/308 318/501/308 317/508/308
f 318/501/309 315/495/309 312/492/309 316/510/309
f 318/501/310 316/510/310 317/508/310
f 312/492/311 310/491/311 316/510/311
o Cube
v -1.289958 1.098663 -0.696052
v -1.781820 0.423904 0.038025
v -1.140552 0.327359 -0.216535
v -1.627816 0.000931 -0.395653
v -1.565473 1.041199 -0.086901
v -1.068316 0.528449 -0.782731
v -1.406425 0.117716 -0.865458
v -2.180951 0.518767 -0.453891
v -1.965205 0.938675 -0.815938
v -1.897606 0.490416 -1.023437
vn 0.1846 -0.6700 0.7190
vn 0.5437 -0.8379 0.0479
vn -0.7153 0.6294 0.3037
vn -0.6862 0.3675 0.6277
vn 0.2707 0.1325 -0.9535
vn 0.3756 0.0556 0.9251
vn 0.8622 0.3772 0.3381
vn 0.7782 -0.6165 -0.1197
vn -0.2286 0.9735 -0.0116
vn 0.0591 0.4267 -0.9025
vn -0.5685 -0.7492 -0.3398
vn -0.8915 0.0725 -0.4471
vn -0.6482 -0.6473 0.4011
vt 0.550384 0.206938
vt 0.375000 0.305791
vt 0.375000 0.049496
vt 0.180791 0.500000
vt 0.330928 0.574320
vt 0.125000 0.700504
vt 0.804283 0.500000
vt 0.842867 0.681766
vt 0.658516 0.626313
vt 0.875000 0.500000
vt 0.501754 0.540833
vt 0.565165 0.799791
vt 0.325310 0.750000
vt 0.604031 0.069198
vt 0.375000 1.000000
vt 0.375000 0.799690
vt 0.578028 1.000000
vt 0.615335 0.592735
vt 0.589707 0.775249
vt 0.581909 0.353207
s 0
g Cube_Material
usemtl Material
f 320/511/312 322/512/312 321/513/312
f 322/514/313 325/515/313 321/516/313
f 326/517/314 323/518/314 327/519/314
f 323/518/315 326/517/315 320/520/315
f 328/521/316 319/522/316 324/523/316 325/515/316
f 321/513/317 323/524/317 320/511/317
f 321/525/318 324/526/318 319/522/318 323/527/318
f 325/515/319 324/523/319 321/516/319
f 327/528/320 323/518/320 319/529/320
f 319/522/321 328/521/321 327/528/321
f 328/521/322 325/515/322 322/512/322 326/530/322
f 328/521/323 326/530/323 327/528/323
f 322/512/324 320/511/324 326/530/324
o Cube
v 5.340424 0.515665 3.953798
v 4.752633 0.189201 3.445818
v 5.237646 0.327939 3.289807
v 4.857374 0.578676 3.197242
v 5.036365 0.119516 3.857407
v 5.413695 0.682052 3.522201
v 5.111002 0.867184 3.320644
v 4.558775 0.561682 3.689501
v 4.844615 0.706059 4.006974
v 4.847218 0.947701 3.716462
vn -0.1283 -0.5088 -0.8513
vn 0.3131 0.1273 -0.9412
vn -0.5971 -0.3759 0.7086
vn -0.6971 -0.6097 0.3773
vn 0.4851 0.8272 0.2835
vn 0.1786 -0.9424 -0.2827
vn 0.8370 -0.5466 0.0250
vn 0.6219 0.1895 -0.7598
vn 0.0103 -0.2439 0.9697
vn 0.3415 0.7211 0.6028
vn -0.6436 0.6179 -0.4517
vn -0.7383 0.5218 0.4274
vn -0.8489 -0.1026 -0.5185
vt 0.550384 0.206938
vt 0.375000 0.305791
vt 0.375000 0.049496
vt 0.180791 0.500000
vt 0.330928 0.574320
vt 0.125000 0.700504
vt 0.804283 0.500000
vt 0.842867 0.681766
vt 0.658516 0.626313
vt 0.875000 0.500000
vt 0.501754 0.540833
vt 0.565165 0.799791
vt 0.325310 0.750000
vt 0.604031 0.069198
vt 0.375000 1.000000
vt 0.375000 0.799690
vt 0.578028 1.000000
vt 0.615335 0.592735
vt 0.589707 0.775249
vt 0.581909 0.353207
s 0
g Cube_Material
usemtl Material
f 330/531/325 332/532/325 331/533/325
f 332/534/326 335/535/326 331/536/326
f 336/537/327 333/538/327 337/539/327
f 333/538/328 336/537/328 330/540/328
f 338/541/329 329/542/329 334/543/329 335/535/329
f 331/533/330 333/544/330 330/531/330
f 331/545/331 334/546/331 329/542/331 333/547/331
f 335/535/332 334/543/332 331/536/332
f 337/548/333 333/538/333 329/549/333
f 329/542/334 338/541/334 337/548/334
f 338/541/335 335/535/335 332/532/335 336/550/335
f 338/541/336 336/550/336 337/548/336
f 332/532/337 330/531/337 336/550/337
o Cube
v 4.873975 0.535580 -1.447985
v 6.158225 0.830600 -1.746590
v 5.558485 0.670400 -2.322280
v 6.091080 0.182900 -2.137706
v 5.476314 1.082298 -1.390828
v 5.045832 0.194772 -2.094623
v 5.568122 -0.197792 -2.129033
v 6.149252 0.258229 -1.219112
v 5.476539 0.152502 -0.976216
v 5.622747 -0.290303 -1.363036
vn 0.5891 0.3721 -0.7173
vn 0.1395 -0.2137 -0.9669
vn 0.2568 0.3937 0.8827
vn 0.5357 0.5677 0.6251
vn -0.6918 -0.7188 0.0689
vn 0.1321 0.9108 -0.3911
vn -0.6497 0.6402 -0.4099
vn -0.2236 -0.2141 -0.9509
vn -0.4151 0.3704 0.8310
vn -0.6960 -0.5888 0.4109
vn 0.6658 -0.7443 -0.0522
vn 0.3593 -0.5439 0.7584
vn 0.9960 -0.0686 -0.0575
vt 0.550384 0.206938
vt 0.375000 0.305791
vt 0.375000 0.049496
vt 0.180791 0.500000
vt 0.330928 0.574320
vt 0.125000 0.700504
vt 0.804283 0.500000
vt 0.842867 0.681766
vt 0.658516 0.626313
vt 0.875000 0.500000
vt 0.501754 0.540833
vt 0.565165 0.799791
vt 0.325310 0.750000
vt 0.604031 0.069198
vt 0.375000 1.000000
vt 0.375000 0.799690
vt 0.578028 1.000000
vt 0.615335 0.592735
vt 0.589707 0.775249
vt 0.581909 0.353207
s 0
g Cube_Material
usemtl Material
f 340/551/338 342/552/338 341/553/338
f 342/554/339 345/555/339 341/556/339
f 346/557/340 343/558/340 347/559/340
f 343/558/341 346/557/341 340/560/341
f 348/561/342 339/562/342 344/563/342 345/555/342
f 341/553/343 343/564/343 340/551/343
f 341/565/344 344/566/344 339/562/344 343/567/344
f 345/555/345 344/563/345 341/556/345
f 347/568/346 343/558/346 339/569/346
f 339/562/347 348/561/347 347/568/347
f 348/561/348 345/555/348 342/552/348 346/570/348
f 348/561/349 346/570/349 347/568/349
f 342/552/350 340/551/350 346/570/350
o Cube
v 1.664519 0.226174 5.337372
v 1.548749 1.204983 5.748713
v 1.446216 0.637803 6.088820
v 1.010118 0.979801 5.889099
v 1.949171 0.787926 5.474933
v 1.250493 0.198812 5.761804
v 0.843514 0.517625 5.747223
v 1.233059 1.173502 5.221492
v 1.346540 0.682386 4.952142
v 0.913880 0.655838 5.155791
vn 0.0092 0.5130 0.8583
vn -0.4761 -0.0967 0.8741
vn 0.5156 0.5005 -0.6954
vn 0.5384 0.7583 -0.3677
vn -0.4648 -0.8116 -0.3539
vn 0.7148 0.2601 0.6492
vn 0.6695 -0.5521 0.4969
vn -0.3745 -0.4407 0.8158
vn 0.6627 -0.1565 -0.7323
vn -0.2579 -0.7219 -0.6421
vn -0.8853 0.4571 -0.0857
vn -0.4151 0.3619 -0.8347
vn -0.3471 0.9253 0.1526
vt 0.550384 0.206938
vt 0.375000 0.305791
vt 0.375000 0.049496
vt 0.180791 0.500000
vt 0.330928 0.574320
vt 0.125000 0.700504
vt 0.804283 0.500000
vt 0.842867 0.681766
vt 0.658516 0.626313
vt 0.875000 0.500000
vt 0.501754 0.540833
vt 0.565165 0.799791
vt 0.325310 0.750000
vt 0.604031 0.069198
vt 0.375000 1.000000
vt 0.375000 0.799690
vt 0.578028 1.000000
vt 0.615335 0.592735
vt 0.589707 0.775249
vt 0.581909 0.353207
s 0
g Cube_Material
usemtl Material
f 350/571/351 352/572/351 351/573/351
f 352/574/352 355/575/352 351/576/352
f 356/577/353 353/578/353 357/579/353
f 353/578/354 356/577/354 350/580/354
f 358/581/355 349/582/355 354/583/355 355/575/355
f 351/573/356 353/584/356 350/571/356
f 351/585/357 354/586/357 349/582/357 353/587/357
f 355/575/358 354/583/358 351/576/358
f 357/588/359 353/578/359 349/589/359
f 349/582/360 358/581/360 357/588/360
f 358/581/361 355/575/361 352/572/361 356/590/361
f 358/581/362 356/590/362 357/588/362
f 352/572/363 350/571/363 356/590/363
o Cube
v -3.916894 0.278241 4.567578
v -3.289610 -0.268632 4.073381
v -3.262841 0.336252 4.108357
v -3.434994 0.073970 3.676414
v -3.519727 -0.149438 4.591959
v -3.733416 0.568748 4.153721
v -3.762091 0.399655 3.717532
v -3.807736 -0.412428 3.925708
v -4.153074 -0.176805 4.231430
v -4.145067 0.019920 3.844635
vn 0.9330 -0.0205 -0.3594
vn 0.5347 0.6108 -0.5840
vn -0.2106 -0.8748 0.4363
vn 0.1768 -0.9392 0.2943
vn -0.7838 0.6186 -0.0544
vn 0.9066 -0.0642 0.4171
vn 0.4425 0.5594 0.7009
vn 0.3863 0.8512 -0.3554
vn -0.4476 -0.3693 0.8144
vn -0.9197 0.3572 0.1626
vn -0.2075 -0.2320 -0.9503
vn -0.7135 -0.6184 -0.3293
vn 0.3695 -0.6322 -0.6810
vt 0.550384 0.206938
vt 0.375000 0.305791
vt 0.375000 0.049496
vt 0.180791 0.500000
vt 0.330928 0.574320
vt 0.125000 0.700504
vt 0.804283 0.500000
vt 0.842867 0.681766
vt 0.658516 0.626313
vt 0.875000 0.500000
vt 0.501754 0.540833
vt 0.565165 0.799791
vt 0.325310 0.750000
vt 0.604031 0.069198
vt 0.375000 1.000000
vt 0.375000 0.799690
vt 0.578028 1.000000
vt 0.615335 0.592735
vt 0.589707 0.775249
vt 0.581909 0.353207
s 0
g Cube_Material
usemtl Material
f 360/591/364 362/592/364 361/593/364
f 362/594/365 365/595/365 361/596/365
f 366/597/366 363/598/366 367/599/366
f 363/598/367 366/597/367 360/600/367
f 368/601/368 359/602/368 364/603/368 365/595/368
f 361/593/369 363/604/369 360/591/369
f 361/605/370 364/606/370 359/602/370 363/607/370
f 365/595/371 364/603/371 361/596/371
f 367/608/372 363/598/372 359/609/372
f 359/602/373 368/601/373 367/608/373
f 368/601/374 365/595/374 362/592/374 366/610/374
f 368/601/375 366/610/375 367/608/375
f 362/592/376 360/591/376 366/610/376
o Cube
v 5.308629 -0.219831 2.462224
v 4.593592 -0.335761 1.639245
v 5.145811 0.072390 1.618479
v 4.581908 0.278305 1.691332
v 5.025513 -0.635814 2.032500
v 5.297122 0.302116 2.148069
v 4.835683 0.550122 2.061830
v 4.274139 -0.209857 2.169407
v 4.635179 -0.222200 2.631669
v 4.531364 0.244707 2.517969
vn -0.0981 0.0823 -0.9918
vn 0.1812 0.7296 -0.6594
vn -0.4256 -0.8503 0.3097
vn -0.5045 -0.8576 -0.1003
vn 0.3173 0.5836 0.7475
vn 0.3522 -0.5162 -0.7807
vn 0.9349 -0.2383 -0.2630
vn 0.4854 0.7429 -0.4609
vn 0.1611 -0.7600 0.6296
vn 0.2334 0.2787 0.9316
vn -0.8057 0.5918 -0.0252
vn -0.7882 -0.0255 0.6149
vn -0.8532 0.0279 -0.5208
vt 0.550384 0.206938
vt 0.375000 0.305791
vt 0.375000 0.049496
vt 0.180791 0.500000
vt 0.330928 0.574320
vt 0.125000 0.700504
vt 0.804283 0.500000
vt 0.842867 0.681766
vt 0.658516 0.626313
vt 0.875000 0.500000
vt 0.501754 0.540833
vt 0.565165 0.799791
vt 0.325310 0.750000
vt 0.604031 0.069198
vt 0.375000 1.000000
vt 0.375000 0.799690
vt 0.578028 1.000000
vt 0.615335 0.592735
vt 0.589707 0.775249
vt 0.581909 0.353207
s 0
g Cube_Material
usemtl Material
f 370/611/377 372/612/377 371/613/377
f 372/614/378 375/615/378 371/616/378
f 376/617/379 373/618/379 377/619/379
f 373/618/380 376/617/380 370/620/380
f 378/621/381 369/622/381 374/623/381 375/615/381
f 371/613/382 373/624/382 370/611/382
f 371/625/383 374/626/383 369/622/383 373/627/383
f 375/615/384 374/623/384 371/616/384
f 377/628/385 373/618/385 369/629/385
f 369/622/386 378/621/386 377/628/386
f 378/621/387 375/615/387 372/612/387 376/630/387
f 378/621/388 376/630/388 377/628/388
f 372/612/389 370/611/389 376/630/389
o Cube
v 4.796701 0.581358 -2.304834
v 4.008189 -0.047601 -2.820265
v 3.921494 0.265230 -2.189086
v 4.023153 -0.347285 -2.258577
v 4.401415 0.504036 -2.857224
v 4.440814 0.313134 -1.860231
v 4.368853 -0.230628 -1.857320
v 4.568111 -0.382534 -2.807394
v 5.018864 -0.029831 -2.607886
v 4.879261 -0.349966 -2.239077
vn -0.9859 -0.1571 -0.0576
vn -0.7144 -0.1948 0.6721
vn 0.3904 0.0217 -0.9204
vn -0.0120 -0.0584 -0.9982
vn 0.6862 0.0387 0.7264
vn -0.7694 0.5240 -0.3654
vn -0.3111 0.9311 0.1906
vn -0.5384 0.0757 0.8393
vn 0.6631 0.5118 -0.5462
vn 0.8942 0.1099 0.4339
vn -0.0067 -0.9877 0.1565
vn 0.6679 -0.6684 -0.3274
vn -0.4618 -0.7876 -0.4079
vt 0.550384 0.206938
vt 0.375000 0.305791
vt 0.375000 0.049496
vt 0.180791 0.500000
vt 0.330928 0.574320
vt 0.125000 0.700504
vt 0.804283 0.500000
vt 0.842867 0.681766
vt 0.658516 0.626313
vt 0.875000 0.500000
vt 0.501754 0.540833
vt 0.565165 0.799791
vt 0.325310 0.750000
vt 0.604031 0.069198
vt 0.375000 1.000000
vt 0.375000 0.799690
vt 0.578028 1.000000
vt 0.615335 0.592735
vt 0.589707 0.775249
vt 0.581909 0.353207
s 0
g Cube_Material
usemtl Material
f 380/631/390 382/632/390 381/633/390
f 382/634/391 385/635/391 381/636/391
f 386/637/392 383/638/392 387/639/392
f 383/638/393 386/637/393 380/640/393
f 388/641/394 379/642/394 384/643/394 385/635/394
f 381/633/395 383/644/395 380/631/395
f 381/645/396 384/646/396 379/642/396 383/647/396
f 385/635/397 384/643/397 381/636/397
f 387/648/398 383/638/398 379/649/398
f 379/642/399 388/641/399 387/648/399
f 388/641/400 385/635/400 382/632/400 386/650/400
f 388/641/401 386/650/401 387/648/401
f 382/632/402 380/631/402 386/650/402
o Cube
v -2.855820 0.612992 2.835625
v -3.435719 0.132559 3.585933
v -3.228605 0.764835 3.618231
v -2.986103 0.329323 3.926981
v -3.405943 0.314350 2.976434
v -2.721827 0.859558 3.355513
v -2.571041 0.564332 3.749344
v -2.953416 -0.220932 3.453573
v -2.675846 -0.014111 3.002169
v -2.431144 0.087113 3.398545
vn -0.6420 0.1721 0.7471
vn 0.0164 0.5843 0.8114
vn -0.3258 -0.7675 -0.5520
vn -0.6161 -0.7460 -0.2526
vn 0.9072 0.3266 -0.2653
vn -0.9500 0.3089 0.0457
vn -0.4449 0.8155 -0.3701
vn 0.1375 0.8171 0.5599
vn -0.0924 -0.2803 -0.9555
vn 0.8358 0.0963 -0.5406
vn 0.4711 -0.5025 0.7250
vn 0.4992 -0.8620 -0.0880
vn -0.2689 -0.6373 0.7222
vt 0.550384 0.206938
vt 0.375000 0.305791
vt 0.375000 0.049496
vt 0.180791 0.500000
vt 0.330928 0.574320
vt 0.125000 0.700504
vt 0.804283 0.500000
vt 0.842867 0.681766
vt 0.658516 0.626313
vt 0.875000 0.500000
vt 0.501754 0.540833
vt 0.565165 0.799791
vt 0.325310 0.750000
vt 0.604031 0.069198
vt 0.375000 1.000000
vt 0.375000 0.799690
vt 0.578028 1.000000
vt 0.615335 0.592735
vt 0.589707 0.775249
vt 0.581909 0.353207
s 0
g Cube_Material
usemtl Material
f 390/651/403 392/652/403 391/653/403
f 392/654/404 395/655/404 391/656/404
f 396/657/405 393/658/405 397/659/405
f 393/658/406 396/657/406 390/660/406
f 398/661/407 389/662/407 394/663/407 395/655/407
f 391/653/408 393/664/408 390/651/408
f 391/665/409 394/666/409 389/662/409 393/667/409
f 395/655/410 394/663/410 391/656/410
f 397/668/411 393/658/411 389/669/411
f 389/662/412 398/661/412 397/668/412
f 398/661/413 395/655/413 392/652/413 396/670/413
f 398/661/414 396/670/414 397/668/414
f 392/652/415 390/651/415 396/670/415
o Cube
v -2.232792 0.274396 4.087177
v -1.988505 -0.464079 4.093738
v -2.447257 -0.325291 4.182394
v -2.174577 -0.450068 4.489246
v -2.037924 -0.075250 3.841856
v -2.479246 0.054752 4.366279
v -2.319048 -0.143476 4.643641
v -1.715464 -0.219808 4.351835
v -1.803436 0.185049 4.311734
v -1.928602 0.068861 4.615878
vn -0.3074 -0.9451 -0.1111
vn -0.7224 -0.5509 0.4179
vn 0.8543 0.1359 -0.5017
vn 0.7777 -0.2691 -0.5681
vn -0.2700 0.7896 0.5511
vn -0.3149 -0.5439 -0.7778
vn -0.7357 0.1586 -0.6585
vn -0.9051 -0.2445 0.3480
vn 0.4495 0.6672 -0.5939
vn 0.0064 0.9333 0.3591
vn 0.3633 -0.3798 0.8508
vn 0.8651 0.2320 0.4447
vn 0.4941 -0.8290 0.2618
vt 0.550384 0.206938
vt 0.375000 0.305791
vt 0.375000 0.049496
vt 0.180791 0.500000
vt 0.330928 0.574320
vt 0.125000 0.700504
vt 0.804283 0.500000
vt 0.842867 0.681766
vt 0.658516 0.626313
vt 0.875000 0.500000
vt 0.501754 0.540833
vt 0.565165 0.799791
vt 0.325310 0.750000
vt 0.604031 0.069198
vt 0.375000 1.000000
vt 0.375000 0.799690
vt 0.578028 1.000000
vt 0.615335 0.592735
vt 0.589707 0.775249
vt 0.581909 0.353207
s 0
g Cube_Material
usemtl Material
f 400/671/416 402/672/416 401/673/416
f 402/674/417 405/675/417 401/676/417
f 406/677/418 403/678/418 407/679/418
f 403/678/419 406/677/419 400/680/419
f 408/681/420 399/682/420 404/683/420 405/675/420
f 401/673/421 403/684/421 400/671/421
f 401/685/422 404/686/422 399/682/422 403/687/422
f 405/675/423 404/683/423 401/676/423
f 407/688/424 403/678/424 399/689/424
f 399/682/425 408/681/425 407/688/425
f 408/681/426 405/675/426 402/672/426 406/690/426
f 408/681/427 406/690/427 407/688/427
f 402/672/428 400/671/428 406/690/428
o Cube
v 2.864559 -0.433652 -2.101356
v 3.189479 -0.614700 -3.026787
v 3.233784 -0.061540 -2.739309
v 2.865241 -0.169750 -3.133152
v 3.234723 -0.757477 -2.448466
v 2.830164 0.038191 -2.390197
v 2.590163 0.048067 -2.809214
v 2.646561 -0.797672 -2.982645
v 2.483813 -0.772077 -2.474998
v 2.303000 -0.434580 -2.706165
vn 0.6508 0.3084 -0.6938
vn 0.1967 0.8828 -0.4266
vn 0.0174 -0.9983 0.0559
vn 0.2908 -0.9234 -0.2507
vn -0.7130 0.4195 0.5619
vn 0.9956 -0.0348 -0.0865
vn 0.7246 0.3239 0.6083
vn 0.1755 0.9814 -0.0774
vn -0.0096 -0.7363 0.6766
vn -0.7309 0.0732 0.6785
vn -0.6345 0.1145 -0.7644
vn -0.7872 -0.5748 -0.2234
vn -0.0006 -0.2329 -0.9725
vt 0.550384 0.206938
vt 0.375000 0.305791
vt 0.375000 0.049496
vt 0.180791 0.500000
vt 0.330928 0.574320
vt 0.125000 0.700504
vt 0.804283 0.500000
vt 0.842867 0.681766
vt 0.658516 0.626313
vt 0.875000 0.500000
vt 0.501754 0.540833
vt 0.565165 0.799791
vt 0.325310 0.750000
vt 0.604031 0.069198
vt 0.375000 1.000000
vt 0.375000 0.799690
vt 0.578028 1.000000
vt 0.615335 0.592735
vt 0.589707 0.775249
vt 0.581909 0.353207
s 0
g Cube_Material
usemtl Material
f 410/691/429 412/692/429 411/693/429
f 412/694/430 415/695/430 411/696/430
f 416/697/431 413/698/431 417/699/431
f 413/698/432 416/697/432 410/700/432
f 418/701/433 409/702/433 414/703/433 415/695/433
f 411/693/434 413/704/434 410/691/434
f 411/705/435 414/706/435 409/702/435 413/707/435
f 415/695/436 414/703/436 411/696/436
f 417/708/437 413/698/437 409/709/437
f 409/702/438 418/701/438 417/708/438
f 418/701/439 415/695/439 412/692/439 416/710/439
f 418/701/440 416/710/440 417/708/440
f 412/692/441 410/691/441 416/710/441
o Cube
v -3.897703 0.101228 -1.789277
v -3.563251 0.440997 -1.144438
v -3.309017 0.297844 -1.553571
v -3.304200 0.073068 -1.172635
v -3.882004 0.489346 -1.500507
v -3.479630 -0.049479 -1.755568
v -3.357700 -0.211770 -1.424502
v -3.826277 0.087200 -1.006202
v -4.054309 -0.065942 -1.335900
v -3.781362 -0.289245 -1.265490
vn 0.7897 0.5327 0.3043
vn 0.9901 -0.1149 -0.0803
vn -0.8343 0.3779 0.4015
vn -0.5392 0.6225 0.5672
vn -0.1493 -0.8488 -0.5072
vn 0.3019 0.9427 -0.1422
vn 0.1628 0.5188 -0.8393
vn 0.8870 -0.1912 -0.4204
vn -0.9442 0.2204 -0.2449
vn -0.4950 -0.7457 -0.4460
vn 0.2985 -0.5861 0.7533
vn -0.5799 -0.5079 0.6370
vn 0.3041 0.1419 0.9420
vt 0.550384 0.206938
vt 0.375000 0.305791
vt 0.375000 0.049496
vt 0.180791 0.500000
vt 0.330928 0.574320
vt 0.125000 0.700504
vt 0.804283 0.500000
vt 0.842867 0.681766
vt 0.658516 0.626313
vt 0.875000 0.500000
vt 0.501754 0.540833
vt 0.565165 0.799791
vt 0.325310 0.750000
vt 0.604031 0.069198
vt 0.375000 1.000000
vt 0.375000 0.799690
vt 0.578028 1.000000
vt 0.615335 0.592735
vt 0.589707 0.775249
vt 0.581909 0.353207
s 0
g Cube_Material
usemtl Material
f 420/711/442 422/712/442 421/713/442
f 422/714/443 425/715/443 421/716/443
f 426/717/444 423/718/444 427/719/444
f 423/718/445 426/717/445 420/720/445
f 428/721/446 419/722/446 424/723/446 425/715/446
f 421/713/447 423/724/447 420/711/447
f 421/725/448 424/726/448 419/722/448 423/727/448
f 425/715/449 424/723/449 421/716/449
f 427/728/450 423/718/450 419/729/450
f 419/722/451 428/721/451 427/728/451
f 428/721/452 425/715/452 422/712/452 426/730/452
f 428/721/453 426/730/453 427/728/453
f 422/712/454 420/711/454 426/730/454
o Cube
v 2.919497 0.669263 0.856152
v 3.018085 0.134934 1.544466
v 2.725496 0.599988 1.552290
v 3.163383 0.557259 1.753256
v 2.845034 0.182772 1.050852
v 2.893035 0.939099 1.261126
v 3.204897 0.921639 1.548820
v 3.473845 0.237777 1.352229
v 3.430390 0.471380 0.947580
v 3.538303 0.721040 1.231588
vn -0.4228 -0.2805 0.8617
vn -0.3234 0.4908 0.8090
vn 0.3104 -0.8085 -0.5001
vn 0.1571 -0.9762 -0.1497
vn 0.2720 0.8627 -0.4264
vn -0.8205 -0.5202 0.2372
vn -0.9582 0.1314 -0.2540
vn -0.4642 0.6978 0.5456
vn 0.0210 -0.3742 -0.9271
vn 0.3657 0.6257 -0.6890
vn 0.7842 0.1343 0.6058
vn 0.9616 -0.1800 -0.2072
vn 0.4292 -0.5146 0.7423
vt 0.550384 0.206938
vt 0.375000 0.305791
vt 0.375000 0.049496
vt 0.180791 0.500000
vt 0.330928 0.574320
vt 0.125000 0.700504
vt 0.804283 0.500000
vt 0.842867 0.681766
vt 0.658516 0.626313
vt 0.875000 0.500000
vt 0.501754 0.540833
vt 0.565165 0.799791
vt 0.325310 0.750000
vt 0.604031 0.069198
vt 0.375000 1.000000
vt 0.375000 0.799690
vt 0.578028 1.000000
vt 0.615335 0.592735
vt 0.589707 0.775249
vt 0.581909 0.353207
s 0
g Cube_Material
usemtl Material
f 430/731/455 432/732/455 431/733/455
f 432/734/456 435/735/456 431/736/456
f 436/737/457 433/738/457 437/739/457
f 433/738/458 436/737/458 430/740/458
f 438/741/459 429/742/459 434/743/459 435/735/459
f 431/733/460 433/744/460 430/731/460
f 431/745/461 434/746/461 429/742/461 433/747/461
f 435/735/462 434/743/462 431/736/462
f 437/748/463 433/738/463 429/749/463
f 429/742/464 438/741/464 437/748/464
f 438/741/465 435/735/465 432/732/465 436/750/465
f 438/741/466 436/750/466 437/748/466
f 432/732/467 430/731/467 436/750/467
o Cube
v 2.599928 -0.010088 3.123380
v 1.859648 -0.643010 2.465944
v 2.585140 -0.597975 2.348440
v 2.145041 -0.287959 1.987471
v 2.128069 -0.539351 3.108278
v 2.840946 -0.036491 2.517000
v 2.519190 0.122894 2.075557
v 1.614872 -0.014615 2.525361
v 1.954433 0.312660 2.941270
v 2.080578 0.465849 2.453125
vn -0.0506 -0.7873 -0.6144
vn 0.4905 -0.2689 -0.8289
vn -0.7630 -0.0289 0.6457
vn -0.8368 -0.3646 0.4085
vn 0.5464 0.8351 0.0639
vn 0.0817 -0.9887 0.1254
vn 0.7272 -0.5535 0.4060
vn 0.7680 -0.1641 -0.6190
vn -0.1986 0.1494 0.9686
vn 0.3341 0.8712 0.3597
vn -0.4526 0.4403 -0.7754
vn -0.7150 0.6982 0.0343
vn -0.7492 -0.2332 -0.6199
vt 0.550384 0.206938
vt 0.375000 0.305791
vt 0.375000 0.049496
vt 0.180791 0.500000
vt 0.330928 0.574320
vt 0.125000 0.700504
vt 0.804283 0.500000
vt 0.842867 0.681766
vt 0.658516 0.626313
vt 0.875000 0.500000
vt 0.501754 0.540833
vt 0.565165 0.799791
vt 0.325310 0.750000
vt 0.604031 0.069198
vt 0.375000 1.000000
vt 0.375000 0.799690
vt 0.578028 1.000000
vt 0.615335 0.592735
vt 0.589707 0.775249
vt 0.581909 0.353207
s 0
g Cube_Material
usemtl Material
f 440/751/468 442/752/468 441/753/468
f 442/754/469 445/755/469 441/756/469
f 446/757/470 443/758/470 447/759/470
f 443/758/471 446/757/471 440/760/471
f 448/761/472 439/762/472 444/763/472 445/755/472
f 441/753/473 443/764/473 440/751/473
f 441/765/474 444/766/474 439/762/474 443/767/474
f 445/755/475 444/763/475 441/756/475
f 447/768/476 443/758/476 439/769/476
f 439/762/477 448/761/477 447/768/477
f 448/761/478 445/755/478 442/752/478 446/770/478
f 448/761/479 446/770/479 447/768/479
f 442/752/480 440/751/480 446/770/480
o Cube
v 3.334049 -0.366123 -0.288038
v 3.258705 0.631773 -0.162564
v 3.387703 0.350298 -0.713505
v 3.770554 0.611352 -0.405691
v 2.977766 0.098540 -0.121623
v 3.668617 -0.118721 -0.663586
v 4.004626 0.203770 -0.516502
v 3.620847 0.419891 0.239425
v 3.615147 -0.119694 0.230005
v 3.994273 0.029976 0.034019
vn -0.1949 0.8542 -0.4820
vn 0.3660 0.4340 -0.8232
vn -0.4857 -0.0101 0.8741
vn -0.5878 0.3651 0.7220
vn 0.6180 -0.7765 -0.1230
vn -0.8236 0.4033 -0.3989
vn -0.6436 -0.3546 -0.6783
vn 0.3229 0.0931 -0.9418
vn -0.5316 -0.6159 0.5814
vn 0.4402 -0.8798 0.1796
vn 0.8147 0.5150 0.2664
vn 0.4654 -0.0204 0.8848
vn 0.1888 0.9286 0.3194
vt 0.550384 0.206938
vt 0.375000 0.305791
vt 0.375000 0.049496
vt 0.180791 0.500000
vt 0.330928 0.574320
vt 0.125000 0.700504
vt 0.804283 0.500000
vt 0.842867 0.681766
vt 0.658516 0.626313
vt 0.875000 0.500000
vt 0.501754 0.540833
vt 0.565165 0.799791
vt 0.325310 0.750000
vt 0.604031 0.069198
vt 0.375000 1.000000
vt 0.375000 0.799690
vt 0.578028 1.000000
vt 0.615335 0.592735
vt 0.589707 0.775249
vt 0.581909 0.353207
s 0
g Cube_Material
usemtl Material
f 450/771/481 452/772/481 451/773/481
f 452/774/482 455/775/482 451/776/482
f 456/777/483 453/778/483 457/779/483
f 453/778/484 456/777/484 450/780/484
f 458/781/485 449/782/485 454/783/485 455/775/485
f 451/773/486 453/784/486 450/771/486
f 451/785/487 454/786/487 449/782/487 453/787/487
f 455/775/488 454/783/488 451/776/488
f 457/788/489 453/778/489 449/789/489
f 449/782/490 458/781/490 457/788/490
f 458/781/491 455/775/491 452/772/491 456/790/491
f 458/781/492 456/790/492 457/788/492
f 452/772/493 450/771/493 456/790/493
o Cube
v -1.980257 -0.035152 -1.742048
v -2.211101 0.862198 -2.276939
v -1.736595 0.813993 -1.805818
v -2.259410 1.072314 -1.715415
v -2.015069 0.253521 -2.318602
v -1.856886 0.426430 -1.388134
v -2.219078 0.784594 -1.293524
v -2.733622 0.627148 -2.049667
v -2.637036 0.108822 -1.826581
v -2.684399 0.428585 -1.472070
vn 0.3818 0.8759 -0.2949
vn 0.4548 0.7554 0.4717
vn -0.5013 -0.4192 -0.7570
vn -0.3762 -0.0579 -0.9247
vn -0.0888 -0.4979 0.8627
vn 0.6923 0.2688 -0.6697
vn 0.9532 -0.2818 -0.1097
vn 0.6282 0.4718 0.6187
vn -0.1386 -0.8889 -0.4367
vn -0.2427 -0.7363 0.6317
vn -0.7113 0.6049 0.3580
vn -0.9846 -0.1730 0.0245
vn -0.5049 0.7933 -0.3403
vt 0.550384 0.206938
vt 0.375000 0.305791
vt 0.375000 0.049496
vt 0.180791 0.500000
vt 0.330928 0.574320
vt 0.125000 0.700504
vt 0.804283 0.500000
vt 0.842867 0.681766
vt 0.658516 0.626313
vt 0.875000 0.500000
vt 0.501754 0.540833
vt 0.565165 0.799791
vt 0.325310 0.750000
vt 0.604031 0.069198
vt 0.375000 1.000000
vt 0.375000 0.799690
vt 0.578028 1.000000
vt 0.615335 0.592735
vt 0.589707 0.775249
vt 0.581909 0.353207
s 0
g Cube_Material
usemtl Material
f 460/791/494 462/792/494 461/793/494
f 462/794/495 465/795/495 461/796/495
f 466/797/496 463/798/496 467/799/496
f 463/798/497 466/797/497 460/800/497
f 468/801/498 459/802/498 464/803/498 465/795/498
f 461/793/499 463/804/499 460/791/499
f 461/805/500 464/806/500 459/802/500 463/807/500
f 465/795/501 464/803/501 461/796/501
f 467/808/502 463/798/502 459/809/502
f 459/802/503 468/801/503 467/808/503
f 468/801/504 465/795/504 462/792/504 466/810/504
f 468/801/505 466/810/505 467/808/505
f 462/792/506 460/791/506 466/810/506
o Cube
v -2.810364 -0.029338 1.229397
v -3.198493 -0.407860 0.610760
v -2.690859 -0.319665 0.625107
v -2.978963 -0.080482 0.368897
v -3.091244 -0.414819 1.091593
v -2.577485 0.053608 0.844854
v -2.763731 0.208175 0.528481
v -3.422670 -0.001094 0.704970
v -3.259843 0.181259 1.071009
v -3.132782 0.363335 0.776449
vn 0.1334 -0.6452 -0.7523
vn 0.6391 -0.0523 -0.7674
vn -0.8449 -0.2222 0.4865
vn -0.8431 -0.5065 0.1807
vn 0.4324 0.8448 0.3151
vn 0.1724 -0.9836 -0.0527
vn 0.7139 -0.5655 0.4129
vn 0.8675 0.0289 -0.4966
vn -0.3605 -0.0698 0.9301
vn 0.1746 0.8021 0.5711
vn -0.3749 0.5532 -0.7439
vn -0.7859 0.6169 0.0423
vn -0.6140 -0.1594 -0.7730
vt 0.550384 0.206938
vt 0.375000 0.305791
vt 0.375000 0.049496
vt 0.180791 0.500000
vt 0.330928 0.574320
vt 0.125000 0.700504
vt 0.804283 0.500000
vt 0.842867 0.681766
vt 0.658516 0.626313
vt 0.875000 0.500000
vt 0.501754 0.540833
vt 0.565165 0.799791
vt 0.325310 0.750000
vt 0.604031 0.069198
vt 0.375000 1.000000
vt 0.375000 0.799690
vt 0.578028 1.000000
vt 0.615335 0.592735
vt 0.589707 0.775249
vt 0.581909 0.353207
s 0
g Cube_Material
usemtl Material
f 470/811/507 472/812/507 471/813/507
f 472/814/508 475/815/508 471/816/508
f 476/817/509 473/818/509 477/819/509
f 473/818/510 476/817/510 470/820/510
f 478/821/511 469/822/511 474/823/511 475/815/511
f 471/813/512 473/824/512 470/811/512
f 471/825/513 474/826/513 469/822/513 473/827/513
f 475/815/514 474/823/514 471/816/514
f 477/828/515 473/818/515 469/829/515
f 469/822/516 478/821/516 477/828/516
f 478/821/517 475/815/517 472/812/517 476/830/517
f 478/821/518 476/830/518 477/828/518
f 472/812/519 470/811/519 476/830/519
o Cube
v -0.036488 0.149710 2.758957
v 0.055299 0.647279 2.093518
v -0.066115 0.816018 2.574319
v -0.372189 0.786185 2.230762
v 0.273612 0.313499 2.396234
v -0.311274 0.519709 2.817512
v -0.578793 0.620685 2.530967
v -0.245675 0.289262 1.978681
v -0.256129 -0.015176 2.306259
v -0.568363 0.191889 2.318707
vn 0.2164 0.9370 -0.2742
vn -0.3632 0.8988 0.2455
vn 0.4979 -0.6431 -0.5818
vn 0.6103 -0.2747 -0.7430
vn -0.6455 -0.4417 0.6230
vn 0.8307 0.5565 0.0145
vn 0.6213 0.2348 0.7476
vn -0.3334 0.7474 0.5746
vn 0.5191 -0.8527 0.0587
vn -0.4669 -0.7337 0.4937
vn -0.7929 0.1754 -0.5835
vn -0.4528 -0.6459 -0.6147
vn -0.1527 0.4159 -0.8965
vt 0.550384 0.206938
vt 0.375000 0.305791
vt 0.375000 0.049496
vt 0.180791 0.500000
vt 0.330928 0.574320
vt 0.125000 0.700504
vt 0.804283 0.500000
vt 0.842867 0.681766
vt 0.658516 0.626313
vt 0.875000 0.500000
vt 0.501754 0.540833
vt 0.565165 0.799791
vt 0.325310 0.750000
vt 0.604031 0.069198
vt 0.375000 1.000000
vt 0.375000 0.799690
vt 0.578028 1.000000
vt 0.615335 0.592735
vt 0.589707 0.775249
vt 0.581909 0.353207
s 0
g Cube_Material
usemtl Material
f 480/831/520 482/832/520 481/833/520
f 482/834/521 485/835/521 481/836/521
f 486/837/522 483/838/522 487/839/522
f 483/838/523 486/837/523 480/840/523
f 488/841/524 479/842/524 484/843/524 485/835/524
f 481/833/525 483/844/525 480/831/525
f 481/845/526 484/846/526 479/842/526 483/847/526
f 485/835/527 484/843/527 481/836/527
f 487/848/528 483/838/528 479/849/528
f 479/842/529 488/841/529 487/848/529
f 488/841/530 485/835/530 482/832/530 486/850/530
f 488/841/531 486/850/531 487/848/531
f 482/832/532 480/831/532 486/850/532
o Cube
v 1.920549 0.669344 0.488809
v 2.294019 0.769146 -0.299317
v 1.776255 0.601151 -0.220173
v 2.136766 0.303764 -0.346789
v 2.153037 1.003528 0.149733
v 1.712806 0.351643 0.182357
v 1.954346 0.081693 -0.040097
v 2.598174 0.487169 -0.009919
v 2.439783 0.478673 0.432225
v 2.356131 0.136369 0.256773
vn -0.2016 0.1666 -0.9652
vn -0.5972 -0.4377 -0.6722
vn 0.7677 0.5734 0.2860
vn 0.7335 0.6691 -0.1190
vn -0.2979 -0.6480 0.7009
vn -0.3347 0.7882 -0.5165
vn -0.8208 0.5599 0.1132
vn -0.8224 -0.4164 -0.3877
vn 0.2936 0.5725 0.7655
vn -0.0650 -0.4425 0.8944
vn 0.5026 -0.7686 -0.3958
vn 0.8763 -0.3714 0.3068
vn 0.6178 -0.1296 -0.7756
vt 0.550384 0.206938
vt 0.375000 0.305791
vt 0.375000 0.049496
vt 0.180791 0.500000
vt 0.330928 0.574320
vt 0.125000 0.700504
vt 0.804283 0.500000
vt 0.842867 0.681766
vt 0.658516 0.626313
vt 0.875000 0.500000
vt 0.501754 0.540833
vt 0.565165 0.799791
vt 0.325310 0.750000
vt 0.604031 0.069198
vt 0.375000 1.000000
vt 0.375000 0.799690
vt 0.578028 1.000000
vt 0.615335 0.592735
vt 0.589707 0.775249
vt 0.581909 0.353207
s 0
g Cube_Material
usemtl Material
f 490/851/533 492/852/533 491/853/533
f 492/854/534 495/855/534 491/856/534
f 496/857/535 493/858/535 497/859/535
f 493/858/536 496/857/536 490/860/536
f 498/861/537 489/862/537 494/863/537 495/855/537
f 491/853/538 493/864/538 490/851/538
f 491/865/539 494/866/539 489/862/539 493/867/539
f 495/855/540 494/863/540 491/856/540
f 497/868/541 493/858/541 489/869/541
f 489/862/542 498/861/542 497/868/542
f 498/861/543 495/855/543 492/852/543 496/870/543
f 498/861/544 496/870/544 497/868/544
f 492/852/545 490/851/545 496/870/545
o Cube
v -0.487702 0.520026 -1.789428
v -0.069920 0.416540 -2.494148
v -0.506989 0.166803 -2.374402
v -0.095028 -0.026841 -2.358838
v -0.312243 0.734973 -2.203436
v -0.558720 0.090467 -1.934487
v -0.247622 -0.147625 -2.014680
v 0.232179 0.371728 -2.129375
v 0.032602 0.482760 -1.751100
v 0.061700 0.114162 -1.771227
vn -0.0981 -0.2854 -0.9534
vn -0.3663 -0.8153 -0.4485
vn 0.5501 0.8338 0.0455
vn 0.5507 0.7512 -0.3638
vn -0.2215 -0.3823 0.8971
vn -0.4456 0.3945 -0.8036
vn -0.9428 0.2983 -0.1491
vn -0.6276 -0.7513 -0.2042
vn 0.0286 0.8822 0.4701
vn -0.0776 -0.0605 0.9951
vn 0.7307 -0.6820 -0.0313
vn 0.8890 0.0453 0.4557
vn 0.7340 -0.2359 -0.6369
vt 0.550384 0.206938
vt 0.375000 0.305791
vt 0.375000 0.049496
vt 0.180791 0.500000
vt 0.330928 0.574320
vt 0.125000 0.700504
vt 0.804283 0.500000
vt 0.842867 0.681766
vt 0.658516 0.626313
vt 0.875000 0.500000
vt 0.501754 0.540833
vt 0.565165 0.799791
vt 0.325310 0.750000
vt 0.604031 0.069198
vt 0.375000 1.000000
vt 0.375000 0.799690
vt 0.578028 1.000000
vt 0.615335 0.592735
vt 0.589707 0.775249
vt 0.581909 0.353207
s 0
g Cube_Material
usemtl Material
f 500/871/546 502/872/546 501/873/546
f 502/874/547 505/875/547 501/876/547
f 506/877/548 503/878/548 507/879/548
f 503/878/549 506/877/549 500/880/549
f 508/881/550 499/882/550 504/883/550 505/875/550
f 501/873/551 503/884/551 500/871/551
f 501/885/552 504/886/552 499/882/552 503/887/552
f 505/875/553 504/883/553 501/876/553
f 507/888/554 503/878/554 499/889/554
f 499/882/555 508/881/555 507/888/555
f 508/881/556 505/875/556 502/872/556 506/890/556
f 508/881/557 506/890/557 507/888/557
f 502/872/558 500/871/558 506/890/558
o Cube
v 1.116869 0.367325 -1.481150
v 1.634311 0.634588 -0.654184
v 1.896796 0.525475 -1.220656
v 1.925867 0.166895 -0.794249
v 1.199837 0.788676 -1.047275
v 1.632381 0.146622 -1.520100
v 1.807994 -0.131394 -1.157097
v 1.290533 0.182985 -0.522112
v 0.956151 0.075514 -0.933914
v 1.287734 -0.233812 -0.924426
vn 0.8460 0.4351 0.3082
vn 0.9699 -0.1497 -0.1920
vn -0.7701 0.3481 0.5345
vn -0.4466 0.5470 0.7080
vn -0.2475 -0.7453 -0.6192
vn 0.3492 0.9369 -0.0187
vn 0.1231 0.6409 -0.7577
vn 0.8330 -0.1637 -0.5284
vn -0.9454 0.3048 -0.1152
vn -0.5791 -0.6364 -0.5095
vn 0.3236 -0.7162 0.6183
vn -0.5545 -0.5760 0.6006
vn 0.3929 -0.0303 0.9191
vt 0.550384 0.206938
vt 0.375000 0.305791
vt 0.375000 0.049496
vt 0.180791 0.500000
vt 0.330928 0.574320
vt 0.125000 0.700504
vt 0.804283 0.500000
vt 0.842867 0.681766
vt 0.658516 0.626313
vt 0.875000 0.500000
vt 0.501754 0.540833
vt 0.565165 0.799791
vt 0.325310 0.750000
vt 0.604031 0.069198
vt 0.375000 1.000000
vt 0.375000 0.799690
vt 0.578028 1.000000
vt 0.615335 0.592735
vt 0.589707 0.775249
vt 0.581909 0.353207
s 0
g Cube_Material
usemtl Material
f 510/891/559 512/892/559 511/893/559
f 512/894/560 515/895/560 511/896/560
f 516/897/561 513/898/561 517/899/561
f 513/898/562 516/897/562 510/900/562
f 518/901/563 509/902/563 514/903/563 515/895/563
f 511/893/564 513/904/564 510/891/564
f 511/905/565 514/906/565 509/902/565 513/907/565
f 515/895/566 514/903/566 511/896/566
f 517/908/567 513/898/567 509/909/567
f 509/902/568 518/901/568 517/908/568
f 518/901/569 515/895/569 512/892/569 516/910/569
f 518/901/570 516/910/570 517/908/570
f 512/892/571 510/891/571 516/910/571
o Cube
v -1.273771 0.891375 -0.614418
v -1.679106 0.335319 -0.009479
v -1.150648 0.255758 -0.219257
v -1.552194 -0.013245 -0.366865
v -1.500818 0.844020 -0.112428
v -1.091120 0.421472 -0.685849
v -1.369750 0.082995 -0.754022
v -2.008022 0.413493 -0.414858
v -1.830230 0.759532 -0.713214
v -1.774523 0.390130 -0.884210
vn 0.1846 -0.6700 0.7190
vn 0.5437 -0.8379 0.0479
vn -0.7153 0.6294 0.3037
vn -0.6862 0.3675 0.6277
vn 0.2707 0.1325 -0.9535
vn 0.3756 0.0556 0.9251
vn 0.8622 0.3772 0.3381
vn 0.7782 -0.6165 -0.1197
vn -0.2286 0.9735 -0.0116
vn 0.0591 0.4267 -0.9025
vn -0.5685 -0.7492 -0.3398
vn -0.8915 0.0725 -0.4471
vn -0.6482 -0.6473 0.4011
vt 0.550384 0.206938
vt 0.375000 0.305791
vt 0.375000 0.049496
vt 0.180791 0.500000
vt 0.330928 0.574320
vt 0.125000 0.700504
vt 0.804283 0.500000
vt 0.842867 0.681766
vt 0.658516 0.626313
vt 0.875000 0.500000
vt 0.501754 0.540833
vt 0.565165 0.799791
vt 0.325310 0.750000
vt 0.604031 0.069198
vt 0.375000 1.000000
vt 0.375000 0.799690
vt 0.578028 1.000000
vt 0.615335 0.592735
vt 0.589707 0.775249
vt 0.581909 0.353207
s 0
g Cube_Material
usemtl Material
f 520/911/572 522/912/572 521/913/572
f 522/914/573 525/915/573 521/916/573
f 526/917/574 523/918/574 527/919/574
f 523/918/575 526/917/575 520/920/575
f 528/921/576 519/922/576 524/923/576 525/915/576
f 521/913/577 523/924/577 520/911/577
f 521/925/578 524/926/578 519/922/578 523/927/578
f 525/915/579 524/923/579 521/916/579
f 527/928/580 523/918/580 519/929/580
f 519/922/581 528/921/581 527/928/581
f 528/921/582 525/915/582 522/912/582 526/930/582
f 528/921/583 526/930/583 527/928/583
f 522/912/584 520/911/584 526/930/584
