# Blender 4.1.0
# www.blender.org
mtllib Explosion20024.mtl
o Circle
v -0.024615 0.096888 -1.522372
v -0.024615 0.242742 -1.522372
v 0.122545 0.096888 -1.515142
v 0.122545 0.242742 -1.515142
v 0.268288 0.096888 -1.493523
v 0.268288 0.242742 -1.493523
v 0.411211 0.096888 -1.457723
v 0.411211 0.242742 -1.457723
v 0.549936 0.096888 -1.408086
v 0.549936 0.242742 -1.408086
v 0.683127 0.096888 -1.345092
v 0.683127 0.242742 -1.345092
v 0.809503 0.096888 -1.269345
v 0.809503 0.242742 -1.269345
v 0.927846 0.096888 -1.181576
v 0.927846 0.242742 -1.181576
v 1.037016 0.096888 -1.082630
v 1.037016 0.242742 -1.082630
v 1.135962 0.096888 -0.973460
v 1.135962 0.242742 -0.973460
v 1.223731 0.096888 -0.855117
v 1.223731 0.242742 -0.855117
v 1.299478 0.096888 -0.728741
v 1.299478 0.242742 -0.728741
v 1.362473 0.096888 -0.595549
v 1.362473 0.242742 -0.595549
v 1.412110 0.096888 -0.456824
v 1.412110 0.242742 -0.456824
v 1.447910 0.096888 -0.313902
v 1.447910 0.242742 -0.313902
v 1.469529 0.096888 -0.168159
v 1.469529 0.242742 -0.168159
v 1.476758 0.096888 -0.020998
v 1.476758 0.242742 -0.020998
v 1.469529 0.096888 0.126162
v 1.469529 0.242742 0.126162
v 1.447910 0.096888 0.271905
v 1.447910 0.242742 0.271905
v 1.412110 0.096888 0.414827
v 1.412110 0.242742 0.414827
v 1.362473 0.096888 0.553553
v 1.362473 0.242742 0.553553
v 1.299478 0.096888 0.686744
v 1.299478 0.242742 0.686744
v 1.223731 0.096888 0.813120
v 1.223731 0.242742 0.813120
v 1.135962 0.096888 0.931463
v 1.135962 0.242742 0.931463
v 1.037016 0.096888 1.040633
v 1.037016 0.242742 1.040633
v 0.927846 0.096888 1.139579
v 0.927846 0.242742 1.139579
v 0.809503 0.096888 1.227348
v 0.809503 0.242742 1.227348
v 0.683127 0.096888 1.303095
v 0.683127 0.242742 1.303095
v 0.549936 0.096888 1.366090
v 0.549936 0.242742 1.366090
v 0.411211 0.096888 1.415727
v 0.411211 0.242742 1.415727
v 0.268288 0.096888 1.451527
v 0.268288 0.242742 1.451527
v 0.122545 0.096888 1.473146
v 0.122545 0.242742 1.473146
v -0.024615 0.096888 1.480376
v -0.024615 0.242742 1.480376
v -0.171775 0.096888 1.473146
v -0.171775 0.242742 1.473146
v -0.317519 0.096888 1.451527
v -0.317519 0.242742 1.451527
v -0.460441 0.096888 1.415727
v -0.460441 0.242742 1.415727
v -0.599166 0.096888 1.366090
v -0.599166 0.242742 1.366090
v -0.732358 0.096888 1.303095
v -0.732358 0.242742 1.303095
v -0.858734 0.096888 1.227348
v -0.858734 0.242742 1.227348
v -0.977076 0.096888 1.139579
v -0.977076 0.242742 1.139579
v -1.086246 0.096888 1.040633
v -1.086246 0.242742 1.040633
v -1.185192 0.096888 0.931463
v -1.185192 0.242742 0.931463
v -1.272961 0.096888 0.813120
v -1.272961 0.242742 0.813120
v -1.348708 0.096888 0.686744
v -1.348708 0.242742 0.686744
v -1.411703 0.096888 0.553553
v -1.411703 0.242742 0.553553
v -1.461340 0.096888 0.414827
v -1.461340 0.242742 0.414827
v -1.497140 0.096888 0.271905
v -1.497140 0.242742 0.271905
v -1.518759 0.096888 0.126162
v -1.518759 0.242742 0.126162
v -1.525989 0.096888 -0.020998
v -1.525989 0.242742 -0.020998
v -1.518759 0.096888 -0.168159
v -1.518759 0.242742 -0.168159
v -1.497140 0.096888 -0.313902
v -1.497140 0.242742 -0.313902
v -1.461340 0.096888 -0.456824
v -1.461340 0.242742 -0.456824
v -1.411703 0.096888 -0.595549
v -1.411703 0.242742 -0.595549
v -1.348708 0.096888 -0.728741
v -1.348708 0.242742 -0.728741
v -1.272961 0.096888 -0.855117
v -1.272961 0.242742 -0.855117
v -1.185192 0.096888 -0.973460
v -1.185192 0.242742 -0.973460
v -1.086246 0.096888 -1.082630
v -1.086246 0.242742 -1.082630
v -0.977076 0.096888 -1.181576
v -0.977076 0.242742 -1.181576
v -0.858734 0.096888 -1.269345
v -0.858734 0.242742 -1.269345
v -0.732358 0.096888 -1.345092
v -0.732358 0.242742 -1.345092
v -0.599166 0.096888 -1.408086
v -0.599166 0.242742 -1.408086
v -0.460441 0.096888 -1.457723
v -0.460441 0.242742 -1.457723
v -0.317519 0.096888 -1.493523
v -0.317519 0.242742 -1.493523
v -0.171775 0.096888 -1.515142
v -0.171775 0.242742 -1.515142
vn 0.0491 -0.0000 -0.9988
vn 0.1467 -0.0000 -0.9892
vn 0.2430 -0.0000 -0.9700
vn 0.3369 -0.0000 -0.9415
vn 0.4276 -0.0000 -0.9040
vn 0.5141 -0.0000 -0.8577
vn 0.5957 -0.0000 -0.8032
vn 0.6716 -0.0000 -0.7410
vn 0.7410 -0.0000 -0.6716
vn 0.8032 -0.0000 -0.5957
vn 0.8577 -0.0000 -0.5141
vn 0.9040 -0.0000 -0.4276
vn 0.9415 -0.0000 -0.3369
vn 0.9700 -0.0000 -0.2430
vn 0.9892 -0.0000 -0.1467
vn 0.9988 -0.0000 -0.0491
vn 0.9988 -0.0000 0.0491
vn 0.9892 -0.0000 0.1467
vn 0.9700 -0.0000 0.2430
vn 0.9415 -0.0000 0.3369
vn 0.9040 -0.0000 0.4276
vn 0.8577 -0.0000 0.5141
vn 0.8032 -0.0000 0.5957
vn 0.7410 -0.0000 0.6716
vn 0.6716 -0.0000 0.7410
vn 0.5957 -0.0000 0.8032
vn 0.5141 -0.0000 0.8577
vn 0.4276 -0.0000 0.9040
vn 0.3369 -0.0000 0.9415
vn 0.2430 -0.0000 0.9700
vn 0.1467 -0.0000 0.9892
vn 0.0491 -0.0000 0.9988
vn -0.0491 -0.0000 0.9988
vn -0.1467 -0.0000 0.9892
vn -0.2430 -0.0000 0.9700
vn -0.3369 -0.0000 0.9415
vn -0.4276 -0.0000 0.9040
vn -0.5141 -0.0000 0.8577
vn -0.5957 -0.0000 0.8032
vn -0.6716 -0.0000 0.7410
vn -0.7410 -0.0000 0.6716
vn -0.8032 -0.0000 0.5957
vn -0.8577 -0.0000 0.5141
vn -0.9040 -0.0000 0.4276
vn -0.9415 -0.0000 0.3369
vn -0.9700 -0.0000 0.2430
vn -0.9892 -0.0000 0.1467
vn -0.9988 -0.0000 0.0491
vn -0.9988 -0.0000 -0.0491
vn -0.9892 -0.0000 -0.1467
vn -0.9700 -0.0000 -0.2430
vn -0.9415 -0.0000 -0.3369
vn -0.9040 -0.0000 -0.4276
vn -0.8577 -0.0000 -0.5141
vn -0.8032 -0.0000 -0.5957
vn -0.7410 -0.0000 -0.6716
vn -0.6716 -0.0000 -0.7410
vn -0.5957 -0.0000 -0.8032
vn -0.5141 -0.0000 -0.8577
vn -0.4276 -0.0000 -0.9040
vn -0.3369 -0.0000 -0.9415
vn -0.2430 -0.0000 -0.9700
vn -0.1467 -0.0000 -0.9892
vn -0.0491 -0.0000 -0.9988
vt 1.000000 0.500000
vt 1.000000 1.000000
vt 0.984375 1.000000
vt 0.984375 0.500000
vt 0.968750 1.000000
vt 0.968750 0.500000
vt 0.953125 1.000000
vt 0.953125 0.500000
vt 0.937500 1.000000
vt 0.937500 0.500000
vt 0.921875 1.000000
vt 0.921875 0.500000
vt 0.906250 1.000000
vt 0.906250 0.500000
vt 0.890625 1.000000
vt 0.890625 0.500000
vt 0.875000 1.000000
vt 0.875000 0.500000
vt 0.859375 1.000000
vt 0.859375 0.500000
vt 0.843750 1.000000
vt 0.843750 0.500000
vt 0.828125 1.000000
vt 0.828125 0.500000
vt 0.812500 1.000000
vt 0.812500 0.500000
vt 0.796875 1.000000
vt 0.796875 0.500000
vt 0.781250 1.000000
vt 0.781250 0.500000
vt 0.765625 1.000000
vt 0.765625 0.500000
vt 0.750000 1.000000
vt 0.750000 0.500000
vt 0.734375 1.000000
vt 0.734375 0.500000
vt 0.718750 1.000000
vt 0.718750 0.500000
vt 0.703125 1.000000
vt 0.703125 0.500000
vt 0.687500 1.000000
vt 0.687500 0.500000
vt 0.671875 1.000000
vt 0.671875 0.500000
vt 0.656250 1.000000
vt 0.656250 0.500000
vt 0.640625 1.000000
vt 0.640625 0.500000
vt 0.625000 1.000000
vt 0.625000 0.500000
vt 0.609375 1.000000
vt 0.609375 0.500000
vt 0.593750 1.000000
vt 0.593750 0.500000
vt 0.578125 1.000000
vt 0.578125 0.500000
vt 0.562500 1.000000
vt 0.562500 0.500000
vt 0.546875 1.000000
vt 0.546875 0.500000
vt 0.531250 1.000000
vt 0.531250 0.500000
vt 0.515625 1.000000
vt 0.515625 0.500000
vt 0.500000 1.000000
vt 0.500000 0.500000
vt 0.484375 1.000000
vt 0.484375 0.500000
vt 0.468750 1.000000
vt 0.468750 0.500000
vt 0.453125 1.000000
vt 0.453125 0.500000
vt 0.437500 1.000000
vt 0.437500 0.500000
vt 0.421875 1.000000
vt 0.421875 0.500000
vt 0.406250 1.000000
vt 0.406250 0.500000
vt 0.390625 1.000000
vt 0.390625 0.500000
vt 0.375000 1.000000
vt 0.375000 0.500000
vt 0.359375 1.000000
vt 0.359375 0.500000
vt 0.343750 1.000000
vt 0.343750 0.500000
vt 0.328125 1.000000
vt 0.328125 0.500000
vt 0.312500 1.000000
vt 0.312500 0.500000
vt 0.296875 1.000000
vt 0.296875 0.500000
vt 0.281250 1.000000
vt 0.281250 0.500000
vt 0.265625 1.000000
vt 0.265625 0.500000
vt 0.250000 1.000000
vt 0.250000 0.500000
vt 0.234375 1.000000
vt 0.234375 0.500000
vt 0.218750 1.000000
vt 0.218750 0.500000
vt 0.203125 1.000000
vt 0.203125 0.500000
vt 0.187500 1.000000
vt 0.187500 0.500000
vt 0.171875 1.000000
vt 0.171875 0.500000
vt 0.156250 1.000000
vt 0.156250 0.500000
vt 0.140625 1.000000
vt 0.140625 0.500000
vt 0.125000 1.000000
vt 0.125000 0.500000
vt 0.109375 1.000000
vt 0.109375 0.500000
vt 0.093750 1.000000
vt 0.093750 0.500000
vt 0.078125 1.000000
vt 0.078125 0.500000
vt 0.062500 1.000000
vt 0.062500 0.500000
vt 0.046875 1.000000
vt 0.046875 0.500000
vt 0.031250 1.000000
vt 0.031250 0.500000
vt 0.015625 1.000000
vt 0.015625 0.500000
vt 0.000000 1.000000
vt 0.000000 0.500000
s 0
g Circle_Material.001
usemtl Material.001
f 1/1/1 2/2/1 4/3/1 3/4/1
f 3/4/2 4/3/2 6/5/2 5/6/2
f 5/6/3 6/5/3 8/7/3 7/8/3
f 7/8/4 8/7/4 10/9/4 9/10/4
f 9/10/5 10/9/5 12/11/5 11/12/5
f 11/12/6 12/11/6 14/13/6 13/14/6
f 13/14/7 14/13/7 16/15/7 15/16/7
f 15/16/8 16/15/8 18/17/8 17/18/8
f 17/18/9 18/17/9 20/19/9 19/20/9
f 19/20/10 20/19/10 22/21/10 21/22/10
f 21/22/11 22/21/11 24/23/11 23/24/11
f 23/24/12 24/23/12 26/25/12 25/26/12
f 25/26/13 26/25/13 28/27/13 27/28/13
f 27/28/14 28/27/14 30/29/14 29/30/14
f 29/30/15 30/29/15 32/31/15 31/32/15
f 31/32/16 32/31/16 34/33/16 33/34/16
f 33/34/17 34/33/17 36/35/17 35/36/17
f 35/36/18 36/35/18 38/37/18 37/38/18
f 37/38/19 38/37/19 40/39/19 39/40/19
f 39/40/20 40/39/20 42/41/20 41/42/20
f 41/42/21 42/41/21 44/43/21 43/44/21
f 43/44/22 44/43/22 46/45/22 45/46/22
f 45/46/23 46/45/23 48/47/23 47/48/23
f 47/48/24 48/47/24 50/49/24 49/50/24
f 49/50/25 50/49/25 52/51/25 51/52/25
f 51/52/26 52/51/26 54/53/26 53/54/26
f 53/54/27 54/53/27 56/55/27 55/56/27
f 55/56/28 56/55/28 58/57/28 57/58/28
f 57/58/29 58/57/29 60/59/29 59/60/29
f 59/60/30 60/59/30 62/61/30 61/62/30
f 61/62/31 62/61/31 64/63/31 63/64/31
f 63/64/32 64/63/32 66/65/32 65/66/32
f 65/66/33 66/65/33 68/67/33 67/68/33
f 67/68/34 68/67/34 70/69/34 69/70/34
f 69/70/35 70/69/35 72/71/35 71/72/35
f 71/72/36 72/71/36 74/73/36 73/74/36
f 73/74/37 74/73/37 76/75/37 75/76/37
f 75/76/38 76/75/38 78/77/38 77/78/38
f 77/78/39 78/77/39 80/79/39 79/80/39
f 79/80/40 80/79/40 82/81/40 81/82/40
f 81/82/41 82/81/41 84/83/41 83/84/41
f 83/84/42 84/83/42 86/85/42 85/86/42
f 85/86/43 86/85/43 88/87/43 87/88/43
f 87/88/44 88/87/44 90/89/44 89/90/44
f 89/90/45 90/89/45 92/91/45 91/92/45
f 91/92/46 92/91/46 94/93/46 93/94/46
f 93/94/47 94/93/47 96/95/47 95/96/47
f 95/96/48 96/95/48 98/97/48 97/98/48
f 97/98/49 98/97/49 100/99/49 99/100/49
f 99/100/50 100/99/50 102/101/50 101/102/50
f 101/102/51 102/101/51 104/103/51 103/104/51
f 103/104/52 104/103/52 106/105/52 105/106/52
f 105/106/53 106/105/53 108/107/53 107/108/53
f 107/108/54 108/107/54 110/109/54 109/110/54
f 109/110/55 110/109/55 112/111/55 111/112/55
f 111/112/56 112/111/56 114/113/56 113/114/56
f 113/114/57 114/113/57 116/115/57 115/116/57
f 115/116/58 116/115/58 118/117/58 117/118/58
f 117/118/59 118/117/59 120/119/59 119/120/59
f 119/120/60 120/119/60 122/121/60 121/122/60
f 121/122/61 122/121/61 124/123/61 123/124/61
f 123/124/62 124/123/62 126/125/62 125/126/62
f 125/126/63 126/125/63 128/127/63 127/128/63
f 127/128/64 128/127/64 2/129/64 1/130/64
o Cube
v 5.984285 0.431680 1.355539
v 5.245549 0.738596 1.309324
v 5.618652 0.937594 1.580057
v 5.282757 0.711676 1.757466
v 5.641349 0.614674 1.067799
v 5.899130 0.643287 1.738005
v 5.580795 0.555468 1.941756
v 5.213567 0.290247 1.414562
v 5.598426 0.103377 1.386020
v 5.515120 0.152807 1.732036
vn -0.5209 0.8484 0.0942
vn -0.0836 0.6894 0.7196
vn -0.2971 -0.4864 -0.8216
vn -0.5493 -0.1536 -0.8214
vn 0.6507 -0.5162 0.5569
vn -0.0620 0.8431 -0.5342
vn 0.7056 0.6425 -0.2988
vn 0.2771 0.6459 0.7114
vn 0.3749 -0.5123 -0.7726
vn 0.6379 -0.7259 0.2573
vn -0.6952 -0.3184 0.6444
vn -0.4352 -0.9000 0.0238
vn -0.9919 0.0914 0.0878
vt 0.550384 0.206938
vt 0.375000 0.305791
vt 0.375000 0.049496
vt 0.180791 0.500000
vt 0.330928 0.574320
vt 0.125000 0.700504
vt 0.804283 0.500000
vt 0.842867 0.681766
vt 0.658516 0.626313
vt 0.875000 0.500000
vt 0.501754 0.540833
vt 0.565165 0.799791
vt 0.325310 0.750000
vt 0.604031 0.069198
vt 0.375000 1.000000
vt 0.375000 0.799690
vt 0.578028 1.000000
vt 0.615335 0.592735
vt 0.589707 0.775249
vt 0.581909 0.353207
s 0
g Cube_Material
usemtl Material
f 130/131/65 132/132/65 131/133/65
f 132/134/66 135/135/66 131/136/66
f 136/137/67 133/138/67 137/139/67
f 133/138/68 136/137/68 130/140/68
f 138/141/69 129/142/69 134/143/69 135/135/69
f 131/133/70 133/144/70 130/131/70
f 131/145/71 134/146/71 129/142/71 133/147/71
f 135/135/72 134/143/72 131/136/72
f 137/148/73 133/138/73 129/149/73
f 129/142/74 138/141/74 137/148/74
f 138/141/75 135/135/75 132/132/75 136/150/75
f 138/141/76 136/150/76 137/148/76
f 132/132/77 130/131/77 136/150/77
o Cube
v 5.969344 0.110884 -2.384507
v 5.297826 0.800524 -2.528162
v 5.227152 0.323858 -2.154398
v 4.992107 0.359668 -2.635685
v 5.839733 0.682669 -2.348555
v 5.482187 -0.112764 -2.312354
v 5.154150 -0.077030 -2.648845
v 5.469013 0.609164 -3.026624
v 5.876334 0.290192 -2.966924
v 5.518454 0.054425 -3.049385
vn -0.7907 0.4460 0.4193
vn -0.8576 -0.3301 0.3943
vn 0.6001 0.6909 -0.4030
vn 0.2858 0.9234 -0.2563
vn 0.2810 -0.9388 -0.1991
vn -0.1204 0.6236 0.7725
vn 0.2743 -0.0797 0.9583
vn -0.6218 -0.5609 0.5466
vn 0.9705 0.2254 -0.0856
vn 0.5714 -0.7542 -0.3235
vn -0.6535 -0.1123 -0.7486
vn 0.1884 0.0570 -0.9804
vn -0.6761 0.5798 -0.4548
vt 0.550384 0.206938
vt 0.375000 0.305791
vt 0.375000 0.049496
vt 0.180791 0.500000
vt 0.330928 0.574320
vt 0.125000 0.700504
vt 0.804283 0.500000
vt 0.842867 0.681766
vt 0.658516 0.626313
vt 0.875000 0.500000
vt 0.501754 0.540833
vt 0.565165 0.799791
vt 0.325310 0.750000
vt 0.604031 0.069198
vt 0.375000 1.000000
vt 0.375000 0.799690
vt 0.578028 1.000000
vt 0.615335 0.592735
vt 0.589707 0.775249
vt 0.581909 0.353207
s 0
g Cube_Material
usemtl Material
f 140/151/78 142/152/78 141/153/78
f 142/154/79 145/155/79 141/156/79
f 146/157/80 143/158/80 147/159/80
f 143/158/81 146/157/81 140/160/81
f 148/161/82 139/162/82 144/163/82 145/155/82
f 141/153/83 143/164/83 140/151/83
f 141/165/84 144/166/84 139/162/84 143/167/84
f 145/155/85 144/163/85 141/156/85
f 147/168/86 143/158/86 139/169/86
f 139/162/87 148/161/87 147/168/87
f 148/161/88 145/155/88 142/152/88 146/170/88
f 148/161/89 146/170/89 147/168/89
f 142/152/90 140/151/90 146/170/90
o Cube
v -3.702822 -0.017311 3.283504
v -3.726985 0.104627 4.163669
v -4.144189 0.231571 3.817156
v -3.847823 0.566943 4.017361
v -3.674929 -0.247191 3.767451
v -3.998652 0.367329 3.376142
v -3.855197 0.697380 3.612307
v -3.296847 0.313545 3.980370
v -3.241421 0.200342 3.521714
v -3.364240 0.578432 3.550860
vn -0.6214 0.0841 0.7790
vn -0.7905 0.5787 0.2007
vn 0.7599 -0.6038 0.2409
vn 0.5418 -0.5919 0.5968
vn 0.1022 0.4337 -0.8953
vn -0.5980 -0.6367 0.4868
vn -0.7331 -0.5955 -0.3286
vn -0.8678 0.4770 -0.1395
vn 0.5487 -0.7425 -0.3843
vn 0.3770 0.1923 -0.9060
vn 0.3431 0.8604 0.3768
vn 0.9512 0.3060 0.0394
vn 0.2204 0.3462 0.9119
vt 0.550384 0.206938
vt 0.375000 0.305791
vt 0.375000 0.049496
vt 0.180791 0.500000
vt 0.330928 0.574320
vt 0.125000 0.700504
vt 0.804283 0.500000
vt 0.842867 0.681766
vt 0.658516 0.626313
vt 0.875000 0.500000
vt 0.501754 0.540833
vt 0.565165 0.799791
vt 0.325310 0.750000
vt 0.604031 0.069198
vt 0.375000 1.000000
vt 0.375000 0.799690
vt 0.578028 1.000000
vt 0.615335 0.592735
vt 0.589707 0.775249
vt 0.581909 0.353207
s 0
g Cube_Material
usemtl Material
f 150/171/91 152/172/91 151/173/91
f 152/174/92 155/175/92 151/176/92
f 156/177/93 153/178/93 157/179/93
f 153/178/94 156/177/94 150/180/94
f 158/181/95 149/182/95 154/183/95 155/175/95
f 151/173/96 153/184/96 150/171/96
f 151/185/97 154/186/97 149/182/97 153/187/97
f 155/175/98 154/183/98 151/176/98
f 157/188/99 153/178/99 149/189/99
f 149/182/100 158/181/100 157/188/100
f 158/181/101 155/175/101 152/172/101 156/190/101
f 158/181/102 156/190/102 157/188/102
f 152/172/103 150/171/103 156/190/103
o Cube
v -3.166620 0.127828 4.678092
v -2.414032 0.473656 5.220058
v -2.863338 0.106427 5.439024
v -2.836666 0.642218 5.540419
v -2.573973 0.149646 4.750036
v -3.339974 0.176646 5.197862
v -3.294501 0.594882 5.427544
v -2.657726 0.909987 4.945438
v -3.015733 0.731121 4.598492
v -3.224418 0.897067 4.953342
vn 0.5469 -0.1819 0.8172
vn -0.2192 -0.1709 0.9606
vn 0.6017 0.2603 -0.7551
vn 0.8725 0.2095 -0.4414
vn -0.9726 0.0823 -0.2172
vn 0.6821 -0.6896 0.2432
vn -0.0419 -0.9991 -0.0114
vn -0.4610 -0.3881 0.7980
vn 0.1248 -0.1604 -0.9791
vn -0.8255 0.1341 -0.5482
vn -0.0983 0.8875 0.4502
vn -0.0266 0.8994 -0.4363
vn 0.6106 0.6371 0.4704
vt 0.550384 0.206938
vt 0.375000 0.305791
vt 0.375000 0.049496
vt 0.180791 0.500000
vt 0.330928 0.574320
vt 0.125000 0.700504
vt 0.804283 0.500000
vt 0.842867 0.681766
vt 0.658516 0.626313
vt 0.875000 0.500000
vt 0.501754 0.540833
vt 0.565165 0.799791
vt 0.325310 0.750000
vt 0.604031 0.069198
vt 0.375000 1.000000
vt 0.375000 0.799690
vt 0.578028 1.000000
vt 0.615335 0.592735
vt 0.589707 0.775249
vt 0.581909 0.353207
s 0
g Cube_Material
usemtl Material
f 160/191/104 162/192/104 161/193/104
f 162/194/105 165/195/105 161/196/105
f 166/197/106 163/198/106 167/199/106
f 163/198/107 166/197/107 160/200/107
f 168/201/108 159/202/108 164/203/108 165/195/108
f 161/193/109 163/204/109 160/191/109
f 161/205/110 164/206/110 159/202/110 163/207/110
f 165/195/111 164/203/111 161/196/111
f 167/208/112 163/198/112 159/209/112
f 159/202/113 168/201/113 167/208/113
f 168/201/114 165/195/114 162/192/114 166/210/114
f 168/201/115 166/210/115 167/208/115
f 162/192/116 160/191/116 166/210/116
o Cube
v 3.682879 0.231094 -2.892655
v 4.182385 0.719058 -3.184751
v 4.249994 0.474501 -2.784026
v 4.153334 0.880578 -2.792121
v 3.947176 0.336988 -3.249920
v 3.903470 0.396839 -2.575123
v 3.925230 0.760769 -2.537254
v 3.792990 0.914038 -3.161862
v 3.507906 0.645828 -3.057714
v 3.582480 0.840759 -2.790038
vn 0.9727 0.2311 -0.0231
vn 0.6901 0.1782 0.7014
vn -0.3764 0.0407 -0.9256
vn 0.0201 0.1561 -0.9875
vn -0.6906 -0.1576 0.7059
vn 0.8096 -0.4303 -0.3992
vn 0.3750 -0.9210 0.1060
vn 0.5321 -0.1190 0.8383
vn -0.6177 -0.5016 -0.6056
vn -0.8893 -0.2144 0.4039
vn -0.0664 0.9657 0.2510
vn -0.7102 0.6484 -0.2743
vn 0.4089 0.8542 -0.3212
vt 0.550384 0.206938
vt 0.375000 0.305791
vt 0.375000 0.049496
vt 0.180791 0.500000
vt 0.330928 0.574320
vt 0.125000 0.700504
vt 0.804283 0.500000
vt 0.842867 0.681766
vt 0.658516 0.626313
vt 0.875000 0.500000
vt 0.501754 0.540833
vt 0.565165 0.799791
vt 0.325310 0.750000
vt 0.604031 0.069198
vt 0.375000 1.000000
vt 0.375000 0.799690
vt 0.578028 1.000000
vt 0.615335 0.592735
vt 0.589707 0.775249
vt 0.581909 0.353207
s 0
g Cube_Material
usemtl Material
f 170/211/117 172/212/117 171/213/117
f 172/214/118 175/215/118 171/216/118
f 176/217/119 173/218/119 177/219/119
f 173/218/120 176/217/120 170/220/120
f 178/221/121 169/222/121 174/223/121 175/215/121
f 171/213/122 173/224/122 170/211/122
f 171/225/123 174/226/123 169/222/123 173/227/123
f 175/215/124 174/223/124 171/216/124
f 177/228/125 173/218/125 169/229/125
f 169/222/126 178/221/126 177/228/126
f 178/221/127 175/215/127 172/212/127 176/230/127
f 178/221/128 176/230/128 177/228/128
f 172/212/129 170/211/129 176/230/129
o Cube
v -5.025309 0.022929 -2.024020
v -4.392470 0.565752 -2.339575
v -4.298110 0.049959 -2.146974
v -4.188329 0.457567 -1.894813
v -4.846061 0.304821 -2.445803
v -4.600835 -0.086493 -1.793139
v -4.378040 0.223888 -1.592176
v -4.668674 0.820369 -1.989339
v -5.048467 0.562587 -1.859468
v -4.772433 0.547085 -1.570727
vn 0.9098 0.0116 -0.4148
vn 0.8845 -0.3934 0.2508
vn -0.5984 0.6366 -0.4864
vn -0.2353 0.6884 -0.6861
vn -0.4196 -0.3997 0.8149
vn 0.3627 -0.2670 -0.8928
vn -0.0522 -0.8650 -0.4990
vn 0.6667 -0.6784 0.3087
vn -0.9336 0.0672 -0.3518
vn -0.7091 -0.2333 0.6654
vn 0.4465 0.6364 0.6290
vn -0.4026 0.8090 0.4283
vn 0.6114 0.7862 -0.0894
vt 0.550384 0.206938
vt 0.375000 0.305791
vt 0.375000 0.049496
vt 0.180791 0.500000
vt 0.330928 0.574320
vt 0.125000 0.700504
vt 0.804283 0.500000
vt 0.842867 0.681766
vt 0.658516 0.626313
vt 0.875000 0.500000
vt 0.501754 0.540833
vt 0.565165 0.799791
vt 0.325310 0.750000
vt 0.604031 0.069198
vt 0.375000 1.000000
vt 0.375000 0.799690
vt 0.578028 1.000000
vt 0.615335 0.592735
vt 0.589707 0.775249
vt 0.581909 0.353207
s 0
g Cube_Material
usemtl Material
f 180/231/130 182/232/130 181/233/130
f 182/234/131 185/235/131 181/236/131
f 186/237/132 183/238/132 187/239/132
f 183/238/133 186/237/133 180/240/133
f 188/241/134 179/242/134 184/243/134 185/235/134
f 181/233/135 183/244/135 180/231/135
f 181/245/136 184/246/136 179/242/136 183/247/136
f 185/235/137 184/243/137 181/236/137
f 187/248/138 183/238/138 179/249/138
f 179/242/139 188/241/139 187/248/139
f 188/241/140 185/235/140 182/232/140 186/250/140
f 188/241/141 186/250/141 187/248/141
f 182/232/142 180/231/142 186/250/142
o Cube
v 3.749249 0.245363 2.273707
v 4.130401 -0.385684 2.013151
v 3.666593 -0.388394 2.171051
v 3.997088 -0.541548 2.401967
v 3.974916 0.044199 1.911328
v 3.586460 -0.102879 2.476342
v 3.817147 -0.339719 2.660894
v 4.384284 -0.181447 2.324218
v 4.215534 0.186538 2.429937
v 4.154848 -0.046840 2.684481
vn -0.1336 -0.9032 -0.4079
vn -0.5441 -0.8019 0.2469
vn 0.7407 0.4759 -0.4743
vn 0.7347 0.1071 -0.6699
vn -0.3419 0.4907 0.8015
vn -0.3034 -0.3221 -0.8968
vn -0.8313 0.1929 -0.5213
vn -0.7892 -0.5380 0.2960
vn 0.2336 0.9046 -0.3567
vn -0.1251 0.7460 0.6541
vn 0.5358 -0.5410 0.6482
vn 0.8552 0.2640 0.4460
vn 0.6726 -0.7372 -0.0649
vt 0.550384 0.206938
vt 0.375000 0.305791
vt 0.375000 0.049496
vt 0.180791 0.500000
vt 0.330928 0.574320
vt 0.125000 0.700504
vt 0.804283 0.500000
vt 0.842867 0.681766
vt 0.658516 0.626313
vt 0.875000 0.500000
vt 0.501754 0.540833
vt 0.565165 0.799791
vt 0.325310 0.750000
vt 0.604031 0.069198
vt 0.375000 1.000000
vt 0.375000 0.799690
vt 0.578028 1.000000
vt 0.615335 0.592735
vt 0.589707 0.775249
vt 0.581909 0.353207
s 0
g Cube_Material
usemtl Material
f 190/251/143 192/252/143 191/253/143
f 192/254/144 195/255/144 191/256/144
f 196/257/145 193/258/145 197/259/145
f 193/258/146 196/257/146 190/260/146
f 198/261/147 189/262/147 194/263/147 195/255/147
f 191/253/148 193/264/148 190/251/148
f 191/265/149 194/266/149 189/262/149 193/267/149
f 195/255/150 194/263/150 191/256/150
f 197/268/151 193/258/151 189/269/151
f 189/262/152 198/261/152 197/268/152
f 198/261/153 195/255/153 192/252/153 196/270/153
f 198/261/154 196/270/154 197/268/154
f 192/252/155 190/251/155 196/270/155
o Cube
v 3.293529 0.008830 3.271077
v 3.275742 -0.129689 2.414135
v 3.347912 0.357658 2.644961
v 2.936511 0.220199 2.441976
v 3.511970 -0.239076 2.864341
v 3.125787 0.408484 3.059002
v 2.797649 0.385768 2.797112
v 2.872357 -0.342378 2.619717
v 2.901964 -0.328540 3.083174
v 2.648668 -0.058975 2.961664
vn 0.3090 0.3693 -0.8764
vn -0.0778 0.8916 -0.4461
vn 0.1520 -0.9882 0.0198
vn 0.2825 -0.8876 -0.3639
vn -0.4991 0.3437 0.7955
vn 0.8905 0.0802 -0.4478
vn 0.8552 0.4177 0.3070
vn 0.0200 0.9936 -0.1112
vn 0.3256 -0.7195 0.6134
vn -0.4326 -0.0001 0.9016
vn -0.8802 0.0252 -0.4740
vn -0.7421 -0.6669 0.0673
vn -0.3320 -0.2495 -0.9097
vt 0.550384 0.206938
vt 0.375000 0.305791
vt 0.375000 0.049496
vt 0.180791 0.500000
vt 0.330928 0.574320
vt 0.125000 0.700504
vt 0.804283 0.500000
vt 0.842867 0.681766
vt 0.658516 0.626313
vt 0.875000 0.500000
vt 0.501754 0.540833
vt 0.565165 0.799791
vt 0.325310 0.750000
vt 0.604031 0.069198
vt 0.375000 1.000000
vt 0.375000 0.799690
vt 0.578028 1.000000
vt 0.615335 0.592735
vt 0.589707 0.775249
vt 0.581909 0.353207
s 0
g Cube_Material
usemtl Material
f 200/271/156 202/272/156 201/273/156
f 202/274/157 205/275/157 201/276/157
f 206/277/158 203/278/158 207/279/158
f 203/278/159 206/277/159 200/280/159
f 208/281/160 199/282/160 204/283/160 205/275/160
f 201/273/161 203/284/161 200/271/161
f 201/285/162 204/286/162 199/282/162 203/287/162
f 205/275/163 204/283/163 201/276/163
f 207/288/164 203/278/164 199/289/164
f 199/282/165 208/281/165 207/288/165
f 208/281/166 205/275/166 202/272/166 206/290/166
f 208/281/167 206/290/167 207/288/167
f 202/272/168 200/271/168 206/290/168
o Cube
v 4.053833 -0.217803 -0.783794
v 3.977455 -0.457428 0.362402
v 4.011760 0.221341 0.081732
v 4.511006 -0.069556 0.373401
v 3.674119 -0.520881 -0.268458
v 4.351710 0.261897 -0.457504
v 4.761909 0.139495 -0.083787
v 4.481302 -0.822066 0.097374
v 4.482014 -0.769036 -0.528315
v 4.870984 -0.476879 -0.327701
vn -0.2929 0.3780 0.8783
vn 0.2017 0.8442 0.4967
vn -0.3162 -0.9453 -0.0805
vn -0.4501 -0.8407 0.3010
vn 0.5962 0.2873 -0.7497
vn -0.8888 0.2128 0.4059
vn -0.7522 0.5722 -0.3269
vn 0.1425 0.9762 0.1633
vn -0.4064 -0.6247 -0.6668
vn 0.4786 -0.0348 -0.8773
vn 0.8422 -0.1481 0.5185
vn 0.6207 -0.7813 -0.0655
vn 0.2306 -0.3431 0.9105
vt 0.550384 0.206938
vt 0.375000 0.305791
vt 0.375000 0.049496
vt 0.180791 0.500000
vt 0.330928 0.574320
vt 0.125000 0.700504
vt 0.804283 0.500000
vt 0.842867 0.681766
vt 0.658516 0.626313
vt 0.875000 0.500000
vt 0.501754 0.540833
vt 0.565165 0.799791
vt 0.325310 0.750000
vt 0.604031 0.069198
vt 0.375000 1.000000
vt 0.375000 0.799690
vt 0.578028 1.000000
vt 0.615335 0.592735
vt 0.589707 0.775249
vt 0.581909 0.353207
s 0
g Cube_Material
usemtl Material
f 210/291/169 212/292/169 211/293/169
f 212/294/170 215/295/170 211/296/170
f 216/297/171 213/298/171 217/299/171
f 213/298/172 216/297/172 210/300/172
f 218/301/173 209/302/173 214/303/173 215/295/173
f 211/293/174 213/304/174 210/291/174
f 211/305/175 214/306/175 209/302/175 213/307/175
f 215/295/176 214/303/176 211/296/176
f 217/308/177 213/298/177 209/309/177
f 209/302/178 218/301/178 217/308/178
f 218/301/179 215/295/179 212/292/179 216/310/179
f 218/301/180 216/310/180 217/308/180
f 212/292/181 210/291/181 216/310/181
o Cube
v -3.187942 0.080984 -2.636612
v -2.934520 -0.227761 -3.406849
v -2.594923 -0.074711 -3.010823
v -2.677920 0.187070 -3.402760
v -3.201467 -0.321805 -2.970987
v -2.760056 0.276738 -2.742012
v -2.704905 0.477503 -3.106958
v -3.263827 0.140728 -3.481995
v -3.452652 0.272092 -3.078695
v -3.190807 0.536987 -3.191156
vn 0.7537 -0.4616 -0.4679
vn 0.9798 0.1799 -0.0873
vn -0.8680 -0.4162 -0.2708
vn -0.5929 -0.6317 -0.4994
vn -0.1078 0.8119 0.5738
vn 0.3789 -0.9249 0.0325
vn 0.3407 -0.5445 0.7665
vn 0.9344 0.2330 0.2694
vn -0.8704 -0.2969 0.3928
vn -0.4519 0.6879 0.5680
vn 0.1235 0.6398 -0.7586
vn -0.7137 0.4951 -0.4954
vn 0.1396 -0.0766 -0.9872
vt 0.550384 0.206938
vt 0.375000 0.305791
vt 0.375000 0.049496
vt 0.180791 0.500000
vt 0.330928 0.574320
vt 0.125000 0.700504
vt 0.804283 0.500000
vt 0.842867 0.681766
vt 0.658516 0.626313
vt 0.875000 0.500000
vt 0.501754 0.540833
vt 0.565165 0.799791
vt 0.325310 0.750000
vt 0.604031 0.069198
vt 0.375000 1.000000
vt 0.375000 0.799690
vt 0.578028 1.000000
vt 0.615335 0.592735
vt 0.589707 0.775249
vt 0.581909 0.353207
s 0
g Cube_Material
usemtl Material
f 220/311/182 222/312/182 221/313/182
f 222/314/183 225/315/183 221/316/183
f 226/317/184 223/318/184 227/319/184
f 223/318/185 226/317/185 220/320/185
f 228/321/186 219/322/186 224/323/186 225/315/186
f 221/313/187 223/324/187 220/311/187
f 221/325/188 224/326/188 219/322/188 223/327/188
f 225/315/189 224/323/189 221/316/189
f 227/328/190 223/318/190 219/329/190
f 219/322/191 228/321/191 227/328/191
f 228/321/192 225/315/192 222/312/192 226/330/192
f 228/321/193 226/330/193 227/328/193
f 222/312/194 220/311/194 226/330/194
o Cube
v -3.626790 0.738577 0.757913
v -3.980602 -0.020993 1.388171
v -3.381398 -0.011720 1.118868
v -3.809655 -0.352252 0.931527
v -3.851148 0.590863 1.330895
v -3.361010 0.242120 0.608115
v -3.636205 -0.169890 0.497153
v -4.386343 0.072819 0.950595
v -4.246469 0.525453 0.650014
v -4.143524 0.137477 0.405185
vn 0.2947 -0.7177 0.6309
vn 0.6387 -0.7665 -0.0668
vn -0.7682 0.5016 0.3978
vn -0.6937 0.2112 0.6886
vn 0.2081 0.2679 -0.9407
vn 0.4100 -0.0014 0.9121
vn 0.8278 0.4389 0.3496
vn 0.8378 -0.5015 -0.2158
vn -0.3401 0.9342 0.1077
vn -0.0334 0.5270 -0.8492
vn -0.4934 -0.7704 -0.4038
vn -0.9141 0.0133 -0.4054
vn -0.5492 -0.7606 0.3462
vt 0.550384 0.206938
vt 0.375000 0.305791
vt 0.375000 0.049496
vt 0.180791 0.500000
vt 0.330928 0.574320
vt 0.125000 0.700504
vt 0.804283 0.500000
vt 0.842867 0.681766
vt 0.658516 0.626313
vt 0.875000 0.500000
vt 0.501754 0.540833
vt 0.565165 0.799791
vt 0.325310 0.750000
vt 0.604031 0.069198
vt 0.375000 1.000000
vt 0.375000 0.799690
vt 0.578028 1.000000
vt 0.615335 0.592735
vt 0.589707 0.775249
vt 0.581909 0.353207
s 0
g Cube_Material
usemtl Material
f 230/331/195 232/332/195 231/333/195
f 232/334/196 235/335/196 231/336/196
f 236/337/197 233/338/197 237/339/197
f 233/338/198 236/337/198 230/340/198
f 238/341/199 229/342/199 234/343/199 235/335/199
f 231/333/200 233/344/200 230/331/200
f 231/345/201 234/346/201 229/342/201 233/347/201
f 235/335/202 234/343/202 231/336/202
f 237/348/203 233/338/203 229/349/203
f 229/342/204 238/341/204 237/348/204
f 238/341/205 235/335/205 232/332/205 236/350/205
f 238/341/206 236/350/206 237/348/206
f 232/332/207 230/331/207 236/350/207
o Cube
v -0.061388 0.546667 4.428698
v -0.565834 0.629151 3.732445
v -0.744050 0.488965 4.223886
v -0.692600 0.179599 3.865254
v -0.237235 0.864881 4.055097
v -0.431994 0.245542 4.477666
v -0.518422 -0.030767 4.175792
v -0.180454 0.336318 3.616871
v 0.127707 0.334233 3.961335
v -0.072133 0.002472 3.965486
vn -0.9401 0.1795 -0.2897
vn -0.8866 -0.4055 0.2226
vn 0.6318 0.5338 -0.5620
vn 0.2620 0.6325 -0.7289
vn 0.4575 -0.6348 0.6227
vn -0.5925 0.8055 0.0149
vn -0.2761 0.5994 0.7513
vn -0.7431 -0.3739 0.5550
vn 0.8279 0.5547 0.0828
vn 0.7438 -0.4417 0.5017
vn -0.1293 -0.7912 -0.5978
vn 0.6767 -0.4152 -0.6079
vn -0.3915 -0.1574 -0.9066
vt 0.550384 0.206938
vt 0.375000 0.305791
vt 0.375000 0.049496
vt 0.180791 0.500000
vt 0.330928 0.574320
vt 0.125000 0.700504
vt 0.804283 0.500000
vt 0.842867 0.681766
vt 0.658516 0.626313
vt 0.875000 0.500000
vt 0.501754 0.540833
vt 0.565165 0.799791
vt 0.325310 0.750000
vt 0.604031 0.069198
vt 0.375000 1.000000
vt 0.375000 0.799690
vt 0.578028 1.000000
vt 0.615335 0.592735
vt 0.589707 0.775249
vt 0.581909 0.353207
s 0
g Cube_Material
usemtl Material
f 240/351/208 242/352/208 241/353/208
f 242/354/209 245/355/209 241/356/209
f 246/357/210 243/358/210 247/359/210
f 243/358/211 246/357/211 240/360/211
f 248/361/212 239/362/212 244/363/212 245/355/212
f 241/353/213 243/364/213 240/351/213
f 241/365/214 244/366/214 239/362/214 243/367/214
f 245/355/215 244/363/215 241/356/215
f 247/368/216 243/358/216 239/369/216
f 239/362/217 248/361/217 247/368/217
f 248/361/218 245/355/218 242/352/218 246/370/218
f 248/361/219 246/370/219 247/368/219
f 242/352/220 240/351/220 246/370/220
o Cube
v 2.559113 -0.541978 -0.117175
v 3.118685 0.214500 -0.006403
v 2.544929 0.241259 -0.156554
v 2.935128 0.317580 -0.495695
v 2.892534 -0.244256 0.239449
v 2.382583 -0.161217 -0.435149
v 2.667636 0.039047 -0.733707
v 3.366473 -0.139609 -0.339805
v 3.109402 -0.576353 -0.354117
v 3.036534 -0.357948 -0.711180
vn -0.0092 0.9778 0.2094
vn -0.4839 0.7887 -0.3792
vn 0.7303 -0.4468 0.5168
vn 0.7772 -0.0469 0.6275
vn -0.4571 -0.6057 -0.6513
vn -0.1905 0.5350 0.8231
vn -0.7967 0.0159 0.6042
vn -0.7567 0.5499 -0.3536
vn 0.1758 -0.8303 0.5288
vn -0.2538 -0.8473 -0.4665
vn 0.5261 0.3291 -0.7841
vn 0.7830 -0.4467 -0.4330
vn 0.7437 0.6534 -0.1413
vt 0.550384 0.206938
vt 0.375000 0.305791
vt 0.375000 0.049496
vt 0.180791 0.500000
vt 0.330928 0.574320
vt 0.125000 0.700504
vt 0.804283 0.500000
vt 0.842867 0.681766
vt 0.658516 0.626313
vt 0.875000 0.500000
vt 0.501754 0.540833
vt 0.565165 0.799791
vt 0.325310 0.750000
vt 0.604031 0.069198
vt 0.375000 1.000000
vt 0.375000 0.799690
vt 0.578028 1.000000
vt 0.615335 0.592735
vt 0.589707 0.775249
vt 0.581909 0.353207
s 0
g Cube_Material
usemtl Material
f 250/371/221 252/372/221 251/373/221
f 252/374/222 255/375/222 251/376/222
f 256/377/223 253/378/223 257/379/223
f 253/378/224 256/377/224 250/380/224
f 258/381/225 249/382/225 254/383/225 255/375/225
f 251/373/226 253/384/226 250/371/226
f 251/385/227 254/386/227 249/382/227 253/387/227
f 255/375/228 254/383/228 251/376/228
f 257/388/229 253/378/229 249/389/229
f 249/382/230 258/381/230 257/388/230
f 258/381/231 255/375/231 252/372/231 256/390/231
f 258/381/232 256/390/232 257/388/232
f 252/372/233 250/371/233 256/390/233
o Cube
v 0.458063 0.473195 -2.725380
v 0.208913 0.079958 -3.498583
v -0.019102 0.555515 -3.294413
v -0.245917 0.112757 -3.276064
v 0.612740 0.308090 -3.220894
v -0.026030 0.578539 -2.803740
v -0.311680 0.255181 -2.873419
v 0.206021 -0.277417 -3.120902
v 0.398414 -0.095291 -2.717098
v -0.004153 -0.111548 -2.678739
vn -0.4219 0.1793 -0.8887
vn -0.8564 0.4267 -0.2908
vn 0.8053 -0.5802 -0.1220
vn 0.6616 -0.5472 -0.5127
vn -0.2314 0.1663 0.9585
vn 0.2880 0.4910 -0.8222
vn 0.3147 0.9405 -0.1278
vn -0.7443 0.6665 -0.0418
vn 0.9410 -0.0940 0.3251
vn 0.0947 0.0046 0.9955
vn -0.7112 -0.7025 0.0241
vn 0.0735 -0.9218 0.3807
vn -0.3628 -0.6755 -0.6420
vt 0.550384 0.206938
vt 0.375000 0.305791
vt 0.375000 0.049496
vt 0.180791 0.500000
vt 0.330928 0.574320
vt 0.125000 0.700504
vt 0.804283 0.500000
vt 0.842867 0.681766
vt 0.658516 0.626313
vt 0.875000 0.500000
vt 0.501754 0.540833
vt 0.565165 0.799791
vt 0.325310 0.750000
vt 0.604031 0.069198
vt 0.375000 1.000000
vt 0.375000 0.799690
vt 0.578028 1.000000
vt 0.615335 0.592735
vt 0.589707 0.775249
vt 0.581909 0.353207
s 0
g Cube_Material
usemtl Material
f 260/391/234 262/392/234 261/393/234
f 262/394/235 265/395/235 261/396/235
f 266/397/236 263/398/236 267/399/236
f 263/398/237 266/397/237 260/400/237
f 268/401/238 259/402/238 264/403/238 265/395/238
f 261/393/239 263/404/239 260/391/239
f 261/405/240 264/406/240 259/402/240 263/407/240
f 265/395/241 264/403/241 261/396/241
f 267/408/242 263/398/242 259/409/242
f 259/402/243 268/401/243 267/408/243
f 268/401/244 265/395/244 262/392/244 266/410/244
f 268/401/245 266/410/245 267/408/245
f 262/392/246 260/391/246 266/410/246
o Cube
v 1.943427 1.268114 -1.944176
v 2.052393 0.461214 -1.695480
v 2.196419 0.651245 -2.172699
v 1.817499 0.382271 -2.104977
v 2.161530 0.950841 -1.603886
v 1.925066 0.992989 -2.328670
v 1.662830 0.675174 -2.342558
v 1.586351 0.589972 -1.612979
v 1.531004 1.036337 -1.685363
v 1.384158 0.841130 -1.978756
vn 0.5524 -0.8183 -0.1591
vn 0.2345 -0.5347 -0.8119
vn -0.1073 0.1462 0.9834
vn 0.1147 -0.2073 0.9715
vn -0.5386 0.6304 -0.5590
vn 0.9505 -0.2471 0.1885
vn 0.8582 0.4461 -0.2540
vn 0.2893 -0.1978 -0.9366
vn 0.0121 0.7352 0.6777
vn -0.5819 0.7806 -0.2281
vn -0.7392 -0.6557 -0.1541
vn -0.8844 -0.0342 0.4654
vn -0.2050 -0.9325 0.2974
vt 0.550384 0.206938
vt 0.375000 0.305791
vt 0.375000 0.049496
vt 0.180791 0.500000
vt 0.330928 0.574320
vt 0.125000 0.700504
vt 0.804283 0.500000
vt 0.842867 0.681766
vt 0.658516 0.626313
vt 0.875000 0.500000
vt 0.501754 0.540833
vt 0.565165 0.799791
vt 0.325310 0.750000
vt 0.604031 0.069198
vt 0.375000 1.000000
vt 0.375000 0.799690
vt 0.578028 1.000000
vt 0.615335 0.592735
vt 0.589707 0.775249
vt 0.581909 0.353207
s 0
g Cube_Material
usemtl Material
f 270/411/247 272/412/247 271/413/247
f 272/414/248 275/415/248 271/416/248
f 276/417/249 273/418/249 277/419/249
f 273/418/250 276/417/250 270/420/250
f 278/421/251 269/422/251 274/423/251 275/415/251
f 271/413/252 273/424/252 270/411/252
f 271/425/253 274/426/253 269/422/253 273/427/253
f 275/415/254 274/423/254 271/416/254
f 277/428/255 273/418/255 269/429/255
f 269/422/256 278/421/256 277/428/256
f 278/421/257 275/415/257 272/412/257 276/430/257
f 278/421/258 276/430/258 277/428/258
f 272/412/259 270/411/259 276/430/259
o Cube
v -2.506738 -0.157862 -1.191963
v -2.660267 0.687410 -0.486244
v -2.115631 0.253404 -0.467349
v -2.583032 0.226390 -0.071279
v -2.579483 0.505502 -1.121734
v -2.242564 -0.308102 -0.653983
v -2.528713 -0.287673 -0.198391
v -3.195864 0.336703 -0.506908
v -3.157771 -0.071964 -0.937591
v -3.091968 -0.291412 -0.494788
vn 0.4807 0.6298 0.6102
vn 0.6459 -0.1182 0.7542
vn -0.6751 0.5044 -0.5383
vn -0.5153 0.8044 -0.2958
vn -0.0439 -0.9905 -0.1304
vn 0.6199 0.7717 -0.1421
vn 0.8615 0.0674 -0.5033
vn 0.7870 -0.3474 0.5099
vn -0.3564 0.0596 -0.9324
vn -0.2702 -0.8781 -0.3950
vn -0.5321 -0.1575 0.8319
vn -0.9846 -0.1616 0.0662
vn -0.4033 0.5739 0.7127
vt 0.550384 0.206938
vt 0.375000 0.305791
vt 0.375000 0.049496
vt 0.180791 0.500000
vt 0.330928 0.574320
vt 0.125000 0.700504
vt 0.804283 0.500000
vt 0.842867 0.681766
vt 0.658516 0.626313
vt 0.875000 0.500000
vt 0.501754 0.540833
vt 0.565165 0.799791
vt 0.325310 0.750000
vt 0.604031 0.069198
vt 0.375000 1.000000
vt 0.375000 0.799690
vt 0.578028 1.000000
vt 0.615335 0.592735
vt 0.589707 0.775249
vt 0.581909 0.353207
s 0
g Cube_Material
usemtl Material
f 280/431/260 282/432/260 281/433/260
f 282/434/261 285/435/261 281/436/261
f 286/437/262 283/438/262 287/439/262
f 283/438/263 286/437/263 280/440/263
f 288/441/264 279/442/264 284/443/264 285/435/264
f 281/433/265 283/444/265 280/431/265
f 281/445/266 284/446/266 279/442/266 283/447/266
f 285/435/267 284/443/267 281/436/267
f 287/448/268 283/438/268 279/449/268
f 279/442/269 288/441/269 287/448/269
f 288/441/270 285/435/270 282/432/270 286/450/270
f 288/441/271 286/450/271 287/448/271
f 282/432/272 280/431/272 286/450/272
o Cube
v 1.320405 0.199958 -0.847667
v 0.881644 0.887144 -1.742134
v 0.965151 0.134437 -1.782237
v 1.373611 0.566460 -2.085821
v 0.798805 0.666766 -1.056504
v 1.472472 -0.097236 -1.431597
v 1.756334 0.202197 -1.847839
v 1.483532 1.162461 -1.522742
v 1.688006 0.857632 -0.989163
v 1.982310 0.693408 -1.414565
vn -0.5818 -0.0212 -0.8130
vn -0.0205 -0.5618 -0.8270
vn -0.2152 0.8102 0.5453
vn -0.4706 0.8550 0.2180
vn 0.7865 -0.5145 0.3416
vn -0.9833 -0.1010 -0.1513
vn -0.6410 -0.7093 0.2934
vn 0.0226 -0.8188 -0.5736
vn -0.1318 0.2784 0.9514
vn 0.7361 -0.2787 0.6168
vn 0.6386 0.4033 -0.6554
vn 0.6554 0.7360 0.1693
vn -0.0533 0.6909 -0.7209
vt 0.550384 0.206938
vt 0.375000 0.305791
vt 0.375000 0.049496
vt 0.180791 0.500000
vt 0.330928 0.574320
vt 0.125000 0.700504
vt 0.804283 0.500000
vt 0.842867 0.681766
vt 0.658516 0.626313
vt 0.875000 0.500000
vt 0.501754 0.540833
vt 0.565165 0.799791
vt 0.325310 0.750000
vt 0.604031 0.069198
vt 0.375000 1.000000
vt 0.375000 0.799690
vt 0.578028 1.000000
vt 0.615335 0.592735
vt 0.589707 0.775249
vt 0.581909 0.353207
s 0
g Cube_Material
usemtl Material
f 290/451/273 292/452/273 291/453/273
f 292/454/274 295/455/274 291/456/274
f 296/457/275 293/458/275 297/459/275
f 293/458/276 296/457/276 290/460/276
f 298/461/277 289/462/277 294/463/277 295/455/277
f 291/453/278 293/464/278 290/451/278
f 291/465/279 294/466/279 289/462/279 293/467/279
f 295/455/280 294/463/280 291/456/280
f 297/468/281 293/458/281 289/469/281
f 289/462/282 298/461/282 297/468/282
f 298/461/283 295/455/283 292/452/283 296/470/283
f 298/461/284 296/470/284 297/468/284
f 292/452/285 290/451/285 296/470/285
o Cube
v -2.018951 0.297159 -0.583841
v -2.454710 -0.529363 -0.366185
v -2.741395 -0.029553 -0.537622
v -2.727892 -0.200750 -0.037096
v -2.077005 -0.265128 -0.709294
v -2.503123 0.411793 -0.392237
v -2.634975 0.245335 0.020968
v -2.107812 -0.398211 0.043645
v -1.818998 0.004552 -0.090214
v -2.123350 0.132354 0.185676
vn -0.8317 -0.5318 -0.1594
vn -0.9772 0.1916 0.0919
vn 0.7989 -0.5971 -0.0728
vn 0.4841 -0.8648 -0.1330
vn 0.2201 0.9270 0.3036
vn -0.3762 -0.4863 -0.7887
vn -0.1996 0.3098 -0.9296
vn -0.8664 0.4933 -0.0777
vn 0.9246 -0.0105 -0.3808
vn 0.5560 0.7941 0.2455
vn -0.2542 -0.1747 0.9512
vn 0.6155 -0.1869 0.7656
vn -0.3197 -0.7899 0.5234
vt 0.550384 0.206938
vt 0.375000 0.305791
vt 0.375000 0.049496
vt 0.180791 0.500000
vt 0.330928 0.574320
vt 0.125000 0.700504
vt 0.804283 0.500000
vt 0.842867 0.681766
vt 0.658516 0.626313
vt 0.875000 0.500000
vt 0.501754 0.540833
vt 0.565165 0.799791
vt 0.325310 0.750000
vt 0.604031 0.069198
vt 0.375000 1.000000
vt 0.375000 0.799690
vt 0.578028 1.000000
vt 0.615335 0.592735
vt 0.589707 0.775249
vt 0.581909 0.353207
s 0
g Cube_Material
usemtl Material
f 300/471/286 302/472/286 301/473/286
f 302/474/287 305/475/287 301/476/287
f 306/477/288 303/478/288 307/479/288
f 303/478/289 306/477/289 300/480/289
f 308/481/290 299/482/290 304/483/290 305/475/290
f 301/473/291 303/484/291 300/471/291
f 301/485/292 304/486/292 299/482/292 303/487/292
f 305/475/293 304/483/293 301/476/293
f 307/488/294 303/478/294 299/489/294
f 299/482/295 308/481/295 307/488/295
f 308/481/296 305/475/296 302/472/296 306/490/296
f 308/481/297 306/490/297 307/488/297
f 302/472/298 300/471/298 306/490/298
o Cube
v -0.207440 -0.220753 -1.187442
v -0.783669 0.296578 -2.066843
v -0.776566 0.542111 -1.374909
v -1.281023 0.236388 -1.639065
v -0.159767 0.088915 -1.821465
v -0.727510 0.080840 -0.937161
v -1.244761 -0.026043 -1.144521
v -0.945639 -0.358713 -2.057212
v -0.583957 -0.665528 -1.647085
v -1.063093 -0.599287 -1.441816
vn -0.3704 0.8766 -0.3073
vn -0.6194 0.6738 0.4030
vn 0.4801 -0.4447 -0.7561
vn 0.3362 -0.0969 -0.9368
vn -0.0733 -0.5707 0.8179
vn 0.4076 0.8593 -0.3091
vn 0.6676 0.6048 0.4342
vn -0.4005 0.6080 0.6855
vn 0.8369 -0.5140 -0.1881
vn 0.1577 -0.7711 0.6169
vn -0.9354 -0.2912 -0.2004
vn -0.2901 -0.8712 -0.3960
vn -0.6550 0.1510 -0.7403
vt 0.550384 0.206938
vt 0.375000 0.305791
vt 0.375000 0.049496
vt 0.180791 0.500000
vt 0.330928 0.574320
vt 0.125000 0.700504
vt 0.804283 0.500000
vt 0.842867 0.681766
vt 0.658516 0.626313
vt 0.875000 0.500000
vt 0.501754 0.540833
vt 0.565165 0.799791
vt 0.325310 0.750000
vt 0.604031 0.069198
vt 0.375000 1.000000
vt 0.375000 0.799690
vt 0.578028 1.000000
vt 0.615335 0.592735
vt 0.589707 0.775249
vt 0.581909 0.353207
s 0
g Cube_Material
usemtl Material
f 310/491/299 312/492/299 311/493/299
f 312/494/300 315/495/300 311/496/300
f 316/497/301 313/498/301 317/499/301
f 313/498/302 316/497/302 310/500/302
f 318/501/303 309/502/303 314/503/303 315/495/303
f 311/493/304 313/504/304 310/491/304
f 311/505/305 314/506/305 309/502/305 313/507/305
f 315/495/306 314/503/306 311/496/306
f 317/508/307 313/498/307 309/509/307
f 309/502/308 318/501/308 317/508/308
f 318/501/309 315/495/309 312/492/309 316/510/309
f 318/501/310 316/510/310 317/508/310
f 312/492/311 310/491/311 316/510/311
o Cube
v -0.954479 0.262625 -0.738112
v -2.004142 0.011190 -0.777329
v -1.548545 -0.309909 -0.393445
v -1.770767 -0.536321 -0.897689
v -1.565894 0.467675 -0.642886
v -1.008731 -0.324536 -0.625856
v -1.266584 -0.632305 -0.961034
v -1.783696 0.040306 -1.358499
v -1.244426 0.248202 -1.357587
v -1.232148 -0.230558 -1.429801
vn -0.7395 -0.4292 0.5186
vn -0.1126 -0.8870 0.4479
vn -0.3277 0.8517 -0.4089
vn -0.6708 0.7085 -0.2190
vn 0.9246 -0.2511 -0.2863
vn -0.5137 0.2517 0.8202
vn 0.3074 0.2360 0.9219
vn 0.2205 -0.7970 0.5622
vn 0.2917 0.9433 -0.1585
vn 0.9015 0.0871 -0.4240
vn -0.3142 -0.6503 -0.6917
vn -0.0552 0.1475 -0.9875
vn -0.8866 -0.3007 -0.3514
vt 0.550384 0.206938
vt 0.375000 0.305791
vt 0.375000 0.049496
vt 0.180791 0.500000
vt 0.330928 0.574320
vt 0.125000 0.700504
vt 0.804283 0.500000
vt 0.842867 0.681766
vt 0.658516 0.626313
vt 0.875000 0.500000
vt 0.501754 0.540833
vt 0.565165 0.799791
vt 0.325310 0.750000
vt 0.604031 0.069198
vt 0.375000 1.000000
vt 0.375000 0.799690
vt 0.578028 1.000000
vt 0.615335 0.592735
vt 0.589707 0.775249
vt 0.581909 0.353207
s 0
g Cube_Material
usemtl Material
f 320/511/312 322/512/312 321/513/312
f 322/514/313 325/515/313 321/516/313
f 326/517/314 323/518/314 327/519/314
f 323/518/315 326/517/315 320/520/315
f 328/521/316 319/522/316 324/523/316 325/515/316
f 321/513/317 323/524/317 320/511/317
f 321/525/318 324/526/318 319/522/318 323/527/318
f 325/515/319 324/523/319 321/516/319
f 327/528/320 323/518/320 319/529/320
f 319/522/321 328/521/321 327/528/321
f 328/521/322 325/515/322 322/512/322 326/530/322
f 328/521/323 326/530/323 327/528/323
f 322/512/324 320/511/324 326/530/324
o Cube
v 6.529938 -0.112068 1.621851
v 5.519163 0.307869 1.558616
v 6.029661 0.580148 1.929047
v 5.570073 0.271036 2.171787
v 6.060716 0.138314 1.228151
v 6.413424 0.177463 2.145159
v 5.977863 0.057305 2.423940
v 5.475405 -0.305584 1.702609
v 6.001986 -0.561267 1.663556
v 5.888003 -0.493636 2.136992
vn -0.5209 0.8484 0.0942
vn -0.0836 0.6894 0.7196
vn -0.2971 -0.4864 -0.8216
vn -0.5493 -0.1536 -0.8214
vn 0.6507 -0.5162 0.5569
vn -0.0620 0.8431 -0.5342
vn 0.7056 0.6425 -0.2988
vn 0.2771 0.6459 0.7114
vn 0.3749 -0.5123 -0.7726
vn 0.6379 -0.7259 0.2573
vn -0.6952 -0.3184 0.6444
vn -0.4352 -0.9000 0.0238
vn -0.9919 0.0914 0.0878
vt 0.550384 0.206938
vt 0.375000 0.305791
vt 0.375000 0.049496
vt 0.180791 0.500000
vt 0.330928 0.574320
vt 0.125000 0.700504
vt 0.804283 0.500000
vt 0.842867 0.681766
vt 0.658516 0.626313
vt 0.875000 0.500000
vt 0.501754 0.540833
vt 0.565165 0.799791
vt 0.325310 0.750000
vt 0.604031 0.069198
vt 0.375000 1.000000
vt 0.375000 0.799690
vt 0.578028 1.000000
vt 0.615335 0.592735
vt 0.589707 0.775249
vt 0.581909 0.353207
s 0
g Cube_Material
usemtl Material
f 330/531/325 332/532/325 331/533/325
f 332/534/326 335/535/326 331/536/326
f 336/537/327 333/538/327 337/539/327
f 333/538/328 336/537/328 330/540/328
f 338/541/329 329/542/329 334/543/329 335/535/329
f 331/533/330 333/544/330 330/531/330
f 331/545/331 334/546/331 329/542/331 333/547/331
f 335/535/332 334/543/332 331/536/332
f 337/548/333 333/538/333 329/549/333
f 329/542/334 338/541/334 337/548/334
f 338/541/335 335/535/335 332/532/335 336/550/335
f 338/541/336 336/550/336 337/548/336
f 332/532/337 330/531/337 336/550/337
o Cube
v 5.987049 0.578842 -2.411686
v 5.205499 1.381484 -2.578880
v 5.123245 0.826714 -2.143873
v 4.849686 0.868391 -2.704021
v 5.836201 1.244318 -2.369843
v 5.420068 0.318548 -2.327711
v 5.038280 0.360137 -2.719338
v 5.404736 1.158768 -3.159018
v 5.878799 0.787531 -3.089536
v 5.462278 0.513132 -3.185509
vn -0.7907 0.4460 0.4193
vn -0.8576 -0.3301 0.3943
vn 0.6001 0.6909 -0.4030
vn 0.2858 0.9234 -0.2563
vn 0.2810 -0.9388 -0.1991
vn -0.1204 0.6236 0.7725
vn 0.2743 -0.0797 0.9583
vn -0.6218 -0.5609 0.5466
vn 0.9705 0.2254 -0.0856
vn 0.5714 -0.7542 -0.3235
vn -0.6535 -0.1123 -0.7486
vn 0.1884 0.0570 -0.9804
vn -0.6761 0.5798 -0.4548
vt 0.550384 0.206938
vt 0.375000 0.305791
vt 0.375000 0.049496
vt 0.180791 0.500000
vt 0.330928 0.574320
vt 0.125000 0.700504
vt 0.804283 0.500000
vt 0.842867 0.681766
vt 0.658516 0.626313
vt 0.875000 0.500000
vt 0.501754 0.540833
vt 0.565165 0.799791
vt 0.325310 0.750000
vt 0.604031 0.069198
vt 0.375000 1.000000
vt 0.375000 0.799690
vt 0.578028 1.000000
vt 0.615335 0.592735
vt 0.589707 0.775249
vt 0.581909 0.353207
s 0
g Cube_Material
usemtl Material
f 340/551/338 342/552/338 341/553/338
f 342/554/339 345/555/339 341/556/339
f 346/557/340 343/558/340 347/559/340
f 343/558/341 346/557/341 340/560/341
f 348/561/342 339/562/342 344/563/342 345/555/342
f 341/553/343 343/564/343 340/551/343
f 341/565/344 344/566/344 339/562/344 343/567/344
f 345/555/345 344/563/345 341/556/345
f 347/568/346 343/558/346 339/569/346
f 339/562/347 348/561/347 347/568/347
f 348/561/348 345/555/348 342/552/348 346/570/348
f 348/561/349 346/570/349 347/568/349
f 342/552/350 340/551/350 346/570/350
o Cube
v -4.047296 0.361527 3.072914
v -4.076193 0.507354 4.125512
v -4.575131 0.659168 3.711113
v -4.220704 1.060243 3.950541
v -4.013938 0.086612 3.651671
v -4.401081 0.821522 3.183700
v -4.229522 1.216234 3.466133
v -3.561786 0.757202 3.906302
v -3.495501 0.621821 3.357792
v -3.642382 1.073983 3.392647
vn -0.6214 0.0841 0.7790
vn -0.7905 0.5787 0.2007
vn 0.7599 -0.6038 0.2409
vn 0.5418 -0.5919 0.5968
vn 0.1022 0.4337 -0.8953
vn -0.5980 -0.6367 0.4868
vn -0.7331 -0.5955 -0.3286
vn -0.8678 0.4770 -0.1395
vn 0.5487 -0.7425 -0.3843
vn 0.3770 0.1923 -0.9060
vn 0.3431 0.8604 0.3768
vn 0.9512 0.3060 0.0394
vn 0.2204 0.3462 0.9119
vt 0.550384 0.206938
vt 0.375000 0.305791
vt 0.375000 0.049496
vt 0.180791 0.500000
vt 0.330928 0.574320
vt 0.125000 0.700504
vt 0.804283 0.500000
vt 0.842867 0.681766
vt 0.658516 0.626313
vt 0.875000 0.500000
vt 0.501754 0.540833
vt 0.565165 0.799791
vt 0.325310 0.750000
vt 0.604031 0.069198
vt 0.375000 1.000000
vt 0.375000 0.799690
vt 0.578028 1.000000
vt 0.615335 0.592735
vt 0.589707 0.775249
vt 0.581909 0.353207
s 0
g Cube_Material
usemtl Material
f 350/571/351 352/572/351 351/573/351
f 352/574/352 355/575/352 351/576/352
f 356/577/353 353/578/353 357/579/353
f 353/578/354 356/577/354 350/580/354
f 358/581/355 349/582/355 354/583/355 355/575/355
f 351/573/356 353/584/356 350/571/356
f 351/585/357 354/586/357 349/582/357 353/587/357
f 355/575/358 354/583/358 351/576/358
f 357/588/359 353/578/359 349/589/359
f 349/582/360 358/581/360 357/588/360
f 358/581/361 355/575/361 352/572/361 356/590/361
f 358/581/362 356/590/362 357/588/362
f 352/572/363 350/571/363 356/590/363
o Cube
v -2.843140 0.397464 4.815562
v -2.251702 0.669240 5.241478
v -2.604800 0.380646 5.413557
v -2.583838 0.801708 5.493240
v -2.377396 0.414610 4.872101
v -2.979374 0.435829 5.224035
v -2.943638 0.764508 5.404534
v -2.443214 1.012140 5.025661
v -2.724562 0.871574 4.753006
v -2.888562 1.001986 5.031874
vn 0.5469 -0.1819 0.8172
vn -0.2192 -0.1709 0.9606
vn 0.6017 0.2603 -0.7551
vn 0.8725 0.2095 -0.4414
vn -0.9726 0.0823 -0.2172
vn 0.6821 -0.6896 0.2432
vn -0.0419 -0.9991 -0.0114
vn -0.4610 -0.3881 0.7980
vn 0.1248 -0.1604 -0.9791
vn -0.8255 0.1341 -0.5482
vn -0.0983 0.8875 0.4502
vn -0.0266 0.8994 -0.4363
vn 0.6106 0.6371 0.4704
vt 0.550384 0.206938
vt 0.375000 0.305791
vt 0.375000 0.049496
vt 0.180791 0.500000
vt 0.330928 0.574320
vt 0.125000 0.700504
vt 0.804283 0.500000
vt 0.842867 0.681766
vt 0.658516 0.626313
vt 0.875000 0.500000
vt 0.501754 0.540833
vt 0.565165 0.799791
vt 0.325310 0.750000
vt 0.604031 0.069198
vt 0.375000 1.000000
vt 0.375000 0.799690
vt 0.578028 1.000000
vt 0.615335 0.592735
vt 0.589707 0.775249
vt 0.581909 0.353207
s 0
g Cube_Material
usemtl Material
f 360/591/364 362/592/364 361/593/364
f 362/594/365 365/595/365 361/596/365
f 366/597/366 363/598/366 367/599/366
f 363/598/367 366/597/367 360/600/367
f 368/601/368 359/602/368 364/603/368 365/595/368
f 361/593/369 363/604/369 360/591/369
f 361/605/370 364/606/370 359/602/370 363/607/370
f 365/595/371 364/603/371 361/596/371
f 367/608/372 363/598/372 359/609/372
f 359/602/373 368/601/373 367/608/373
f 368/601/374 365/595/374 362/592/374 366/610/374
f 368/601/375 366/610/375 367/608/375
f 362/592/376 360/591/376 366/610/376
o Cube
v 3.128390 -0.102155 -3.677514
v 3.786579 0.540825 -4.062403
v 3.875665 0.218577 -3.534375
v 3.748298 0.753656 -3.545042
v 3.476649 0.037379 -4.148274
v 3.419058 0.116243 -3.259109
v 3.447730 0.595786 -3.209209
v 3.273481 0.797746 -4.032242
v 2.897832 0.444331 -3.895008
v 2.996097 0.701188 -3.542298
vn 0.9727 0.2311 -0.0231
vn 0.6901 0.1782 0.7014
vn -0.3764 0.0407 -0.9256
vn 0.0201 0.1561 -0.9875
vn -0.6906 -0.1576 0.7059
vn 0.8096 -0.4303 -0.3992
vn 0.3750 -0.9210 0.1060
vn 0.5321 -0.1190 0.8383
vn -0.6177 -0.5016 -0.6056
vn -0.8893 -0.2144 0.4039
vn -0.0664 0.9657 0.2510
vn -0.7102 0.6484 -0.2743
vn 0.4089 0.8542 -0.3212
vt 0.550384 0.206938
vt 0.375000 0.305791
vt 0.375000 0.049496
vt 0.180791 0.500000
vt 0.330928 0.574320
vt 0.125000 0.700504
vt 0.804283 0.500000
vt 0.842867 0.681766
vt 0.658516 0.626313
vt 0.875000 0.500000
vt 0.501754 0.540833
vt 0.565165 0.799791
vt 0.325310 0.750000
vt 0.604031 0.069198
vt 0.375000 1.000000
vt 0.375000 0.799690
vt 0.578028 1.000000
vt 0.615335 0.592735
vt 0.589707 0.775249
vt 0.581909 0.353207
s 0
g Cube_Material
usemtl Material
f 370/611/377 372/612/377 371/613/377
f 372/614/378 375/615/378 371/616/378
f 376/617/379 373/618/379 377/619/379
f 373/618/380 376/617/380 370/620/380
f 378/621/381 369/622/381 374/623/381 375/615/381
f 371/613/382 373/624/382 370/611/382
f 371/625/383 374/626/383 369/622/383 373/627/383
f 375/615/384 374/623/384 371/616/384
f 377/628/385 373/618/385 369/629/385
f 369/622/386 378/621/386 377/628/386
f 378/621/387 375/615/387 372/612/387 376/630/387
f 378/621/388 376/630/388 377/628/388
f 372/612/389 370/611/389 376/630/389
o Cube
v -4.915149 -0.335415 -1.710691
v -4.345861 0.152896 -1.994557
v -4.260977 -0.311100 -1.821297
v -4.162220 0.055575 -1.594459
v -4.753902 -0.081832 -2.090117
v -4.533302 -0.433849 -1.502995
v -4.332880 -0.154637 -1.322213
v -4.594328 0.381944 -1.679492
v -4.935982 0.150049 -1.562663
v -4.687668 0.136104 -1.302918
vn 0.9098 0.0116 -0.4148
vn 0.8845 -0.3934 0.2508
vn -0.5984 0.6366 -0.4864
vn -0.2353 0.6884 -0.6861
vn -0.4196 -0.3997 0.8149
vn 0.3627 -0.2670 -0.8928
vn -0.0522 -0.8650 -0.4990
vn 0.6667 -0.6784 0.3087
vn -0.9336 0.0672 -0.3518
vn -0.7091 -0.2333 0.6654
vn 0.4465 0.6364 0.6290
vn -0.4026 0.8090 0.4283
vn 0.6114 0.7862 -0.0894
vt 0.550384 0.206938
vt 0.375000 0.305791
vt 0.375000 0.049496
vt 0.180791 0.500000
vt 0.330928 0.574320
vt 0.125000 0.700504
vt 0.804283 0.500000
vt 0.842867 0.681766
vt 0.658516 0.626313
vt 0.875000 0.500000
vt 0.501754 0.540833
vt 0.565165 0.799791
vt 0.325310 0.750000
vt 0.604031 0.069198
vt 0.375000 1.000000
vt 0.375000 0.799690
vt 0.578028 1.000000
vt 0.615335 0.592735
vt 0.589707 0.775249
vt 0.581909 0.353207
s 0
g Cube_Material
usemtl Material
f 380/631/390 382/632/390 381/633/390
f 382/634/391 385/635/391 381/636/391
f 386/637/392 383/638/392 387/639/392
f 383/638/393 386/637/393 380/640/393
f 388/641/394 379/642/394 384/643/394 385/635/394
f 381/633/395 383/644/395 380/631/395
f 381/645/396 384/646/396 379/642/396 383/647/396
f 385/635/397 384/643/397 381/636/397
f 387/648/398 383/638/398 379/649/398
f 379/642/399 388/641/399 387/648/399
f 388/641/400 385/635/400 382/632/400 386/650/400
f 388/641/401 386/650/401 387/648/401
f 382/632/402 380/631/402 386/650/402
o Cube
v 3.653345 0.959938 2.146981
v 4.080814 0.252207 1.854763
v 3.560645 0.249167 2.031851
v 3.931301 0.077402 2.290828
v 3.906435 0.734329 1.740567
v 3.470774 0.569378 2.374240
v 3.729494 0.303757 2.581220
v 4.365549 0.481263 2.203631
v 4.176293 0.893965 2.322197
v 4.108232 0.632227 2.607673
vn -0.1336 -0.9032 -0.4079
vn -0.5441 -0.8019 0.2469
vn 0.7407 0.4759 -0.4743
vn 0.7347 0.1071 -0.6699
vn -0.3419 0.4907 0.8015
vn -0.3034 -0.3221 -0.8968
vn -0.8313 0.1929 -0.5213
vn -0.7892 -0.5380 0.2960
vn 0.2336 0.9046 -0.3567
vn -0.1251 0.7460 0.6541
vn 0.5358 -0.5410 0.6482
vn 0.8552 0.2640 0.4460
vn 0.6726 -0.7372 -0.0649
vt 0.550384 0.206938
vt 0.375000 0.305791
vt 0.375000 0.049496
vt 0.180791 0.500000
vt 0.330928 0.574320
vt 0.125000 0.700504
vt 0.804283 0.500000
vt 0.842867 0.681766
vt 0.658516 0.626313
vt 0.875000 0.500000
vt 0.501754 0.540833
vt 0.565165 0.799791
vt 0.325310 0.750000
vt 0.604031 0.069198
vt 0.375000 1.000000
vt 0.375000 0.799690
vt 0.578028 1.000000
vt 0.615335 0.592735
vt 0.589707 0.775249
vt 0.581909 0.353207
s 0
g Cube_Material
usemtl Material
f 390/651/403 392/652/403 391/653/403
f 392/654/404 395/655/404 391/656/404
f 396/657/405 393/658/405 397/659/405
f 393/658/406 396/657/406 390/660/406
f 398/661/407 389/662/407 394/663/407 395/655/407
f 391/653/408 393/664/408 390/651/408
f 391/665/409 394/666/409 389/662/409 393/667/409
f 395/655/410 394/663/410 391/656/410
f 397/668/411 393/658/411 389/669/411
f 389/662/412 398/661/412 397/668/412
f 398/661/413 395/655/413 392/652/413 396/670/413
f 398/661/414 396/670/414 397/668/414
f 392/652/415 390/651/415 396/670/415
o Cube
v 3.684528 -0.287164 3.396603
v 3.660456 -0.474635 2.236818
v 3.758131 0.184940 2.549218
v 3.201341 -0.001097 2.274498
v 3.980167 -0.622679 2.846127
v 3.457507 0.253728 3.109582
v 3.013405 0.222985 2.755138
v 3.114515 -0.762488 2.515052
v 3.154585 -0.743760 3.142295
v 2.811773 -0.378930 2.977843
vn 0.3090 0.3693 -0.8764
vn -0.0778 0.8916 -0.4461
vn 0.1520 -0.9882 0.0198
vn 0.2825 -0.8876 -0.3639
vn -0.4991 0.3437 0.7955
vn 0.8905 0.0802 -0.4478
vn 0.8552 0.4177 0.3070
vn 0.0200 0.9936 -0.1112
vn 0.3256 -0.7195 0.6134
vn -0.4326 -0.0001 0.9016
vn -0.8802 0.0252 -0.4740
vn -0.7421 -0.6669 0.0673
vn -0.3320 -0.2495 -0.9097
vt 0.550384 0.206938
vt 0.375000 0.305791
vt 0.375000 0.049496
vt 0.180791 0.500000
vt 0.330928 0.574320
vt 0.125000 0.700504
vt 0.804283 0.500000
vt 0.842867 0.681766
vt 0.658516 0.626313
vt 0.875000 0.500000
vt 0.501754 0.540833
vt 0.565165 0.799791
vt 0.325310 0.750000
vt 0.604031 0.069198
vt 0.375000 1.000000
vt 0.375000 0.799690
vt 0.578028 1.000000
vt 0.615335 0.592735
vt 0.589707 0.775249
vt 0.581909 0.353207
s 0
g Cube_Material
usemtl Material
f 400/671/416 402/672/416 401/673/416
f 402/674/417 405/675/417 401/676/417
f 406/677/418 403/678/418 407/679/418
f 403/678/419 406/677/419 400/680/419
f 408/681/420 399/682/420 404/683/420 405/675/420
f 401/673/421 403/684/421 400/671/421
f 401/685/422 404/686/422 399/682/422 403/687/422
f 405/675/423 404/683/423 401/676/423
f 407/688/424 403/678/424 399/689/424
f 399/682/425 408/681/425 407/688/425
f 408/681/426 405/675/426 402/672/426 406/690/426
f 408/681/427 406/690/427 407/688/427
f 402/672/428 400/671/428 406/690/428
o Cube
v 4.375938 0.091755 -1.039498
v 4.310292 -0.114198 -0.054363
v 4.339777 0.469191 -0.295594
v 4.768870 0.219171 -0.044910
v 4.049581 -0.168734 -0.596576
v 4.631958 0.504049 -0.759057
v 4.984516 0.398846 -0.437854
v 4.743340 -0.427598 -0.282149
v 4.743952 -0.382020 -0.819918
v 5.078264 -0.130915 -0.647494
vn -0.2929 0.3780 0.8783
vn 0.2017 0.8442 0.4967
vn -0.3162 -0.9453 -0.0805
vn -0.4501 -0.8407 0.3010
vn 0.5962 0.2873 -0.7497
vn -0.8888 0.2128 0.4059
vn -0.7522 0.5722 -0.3269
vn 0.1425 0.9762 0.1633
vn -0.4064 -0.6247 -0.6668
vn 0.4786 -0.0348 -0.8773
vn 0.8422 -0.1481 0.5185
vn 0.6207 -0.7813 -0.0655
vn 0.2306 -0.3431 0.9105
vt 0.550384 0.206938
vt 0.375000 0.305791
vt 0.375000 0.049496
vt 0.180791 0.500000
vt 0.330928 0.574320
vt 0.125000 0.700504
vt 0.804283 0.500000
vt 0.842867 0.681766
vt 0.658516 0.626313
vt 0.875000 0.500000
vt 0.501754 0.540833
vt 0.565165 0.799791
vt 0.325310 0.750000
vt 0.604031 0.069198
vt 0.375000 1.000000
vt 0.375000 0.799690
vt 0.578028 1.000000
vt 0.615335 0.592735
vt 0.589707 0.775249
vt 0.581909 0.353207
s 0
g Cube_Material
usemtl Material
f 410/691/429 412/692/429 411/693/429
f 412/694/430 415/695/430 411/696/430
f 416/697/431 413/698/431 417/699/431
f 413/698/432 416/697/432 410/700/432
f 418/701/433 409/702/433 414/703/433 415/695/433
f 411/693/434 413/704/434 410/691/434
f 411/705/435 414/706/435 409/702/435 413/707/435
f 415/695/436 414/703/436 411/696/436
f 417/708/437 413/698/437 409/709/437
f 409/702/438 418/701/438 417/708/438
f 418/701/439 415/695/439 412/692/439 416/710/439
f 418/701/440 416/710/440 417/708/440
f 412/692/441 410/691/441 416/710/441
o Cube
v -2.754942 0.438098 -2.441921
v -2.442454 0.057391 -3.391683
v -2.023704 0.246114 -2.903352
v -2.126045 0.568910 -3.386640
v -2.771620 -0.058571 -2.854231
v -2.227326 0.679478 -2.571887
v -2.159321 0.927036 -3.021893
v -2.848515 0.511767 -3.484344
v -3.081350 0.673749 -2.987043
v -2.758475 1.000385 -3.125717
vn 0.7537 -0.4616 -0.4679
vn 0.9798 0.1799 -0.0873
vn -0.8680 -0.4162 -0.2708
vn -0.5929 -0.6317 -0.4994
vn -0.1078 0.8119 0.5738
vn 0.3789 -0.9249 0.0325
vn 0.3407 -0.5445 0.7665
vn 0.9344 0.2330 0.2694
vn -0.8704 -0.2969 0.3928
vn -0.4519 0.6879 0.5680
vn 0.1235 0.6398 -0.7586
vn -0.7137 0.4951 -0.4954
vn 0.1396 -0.0766 -0.9872
vt 0.550384 0.206938
vt 0.375000 0.305791
vt 0.375000 0.049496
vt 0.180791 0.500000
vt 0.330928 0.574320
vt 0.125000 0.700504
vt 0.804283 0.500000
vt 0.842867 0.681766
vt 0.658516 0.626313
vt 0.875000 0.500000
vt 0.501754 0.540833
vt 0.565165 0.799791
vt 0.325310 0.750000
vt 0.604031 0.069198
vt 0.375000 1.000000
vt 0.375000 0.799690
vt 0.578028 1.000000
vt 0.615335 0.592735
vt 0.589707 0.775249
vt 0.581909 0.353207
s 0
g Cube_Material
usemtl Material
f 420/711/442 422/712/442 421/713/442
f 422/714/443 425/715/443 421/716/443
f 426/717/444 423/718/444 427/719/444
f 423/718/445 426/717/445 420/720/445
f 428/721/446 419/722/446 424/723/446 425/715/446
f 421/713/447 423/724/447 420/711/447
f 421/725/448 424/726/448 419/722/448 423/727/448
f 425/715/449 424/723/449 421/716/449
f 427/728/450 423/718/450 419/729/450
f 419/722/451 428/721/451 427/728/451
f 428/721/452 425/715/452 422/712/452 426/730/452
f 428/721/453 426/730/453 427/728/453
f 422/712/454 420/711/454 426/730/454
o Cube
v -3.601615 0.359809 1.440180
v -3.879190 -0.236094 1.934635
v -3.409098 -0.228820 1.723360
v -3.745077 -0.495976 1.576385
v -3.777630 0.243924 1.889701
v -3.393103 -0.029675 1.322660
v -3.609001 -0.352908 1.235607
v -4.197505 -0.162496 1.591345
v -4.087770 0.192608 1.355531
v -4.007007 -0.111770 1.163455
vn 0.2947 -0.7177 0.6309
vn 0.6387 -0.7665 -0.0668
vn -0.7682 0.5016 0.3978
vn -0.6937 0.2112 0.6886
vn 0.2081 0.2679 -0.9407
vn 0.4100 -0.0014 0.9121
vn 0.8278 0.4389 0.3496
vn 0.8378 -0.5015 -0.2158
vn -0.3401 0.9342 0.1077
vn -0.0334 0.5270 -0.8492
vn -0.4934 -0.7704 -0.4038
vn -0.9141 0.0133 -0.4054
vn -0.5492 -0.7606 0.3462
vt 0.550384 0.206938
vt 0.375000 0.305791
vt 0.375000 0.049496
vt 0.180791 0.500000
vt 0.330928 0.574320
vt 0.125000 0.700504
vt 0.804283 0.500000
vt 0.842867 0.681766
vt 0.658516 0.626313
vt 0.875000 0.500000
vt 0.501754 0.540833
vt 0.565165 0.799791
vt 0.325310 0.750000
vt 0.604031 0.069198
vt 0.375000 1.000000
vt 0.375000 0.799690
vt 0.578028 1.000000
vt 0.615335 0.592735
vt 0.589707 0.775249
vt 0.581909 0.353207
s 0
g Cube_Material
usemtl Material
f 430/731/455 432/732/455 431/733/455
f 432/734/456 435/735/456 431/736/456
f 436/737/457 433/738/457 437/739/457
f 433/738/458 436/737/458 430/740/458
f 438/741/459 429/742/459 434/743/459 435/735/459
f 431/733/460 433/744/460 430/731/460
f 431/745/461 434/746/461 429/742/461 433/747/461
f 435/735/462 434/743/462 431/736/462
f 437/748/463 433/738/463 429/749/463
f 429/742/464 438/741/464 437/748/464
f 438/741/465 435/735/465 432/732/465 436/750/465
f 438/741/466 436/750/466 437/748/466
f 432/732/467 430/731/467 436/750/467
o Cube
v -0.437398 0.742020 3.735479
v -0.925615 0.821850 3.061624
v -1.098097 0.686175 3.537256
v -1.048303 0.386761 3.190161
v -0.607587 1.049997 3.373896
v -0.796081 0.450583 3.782872
v -0.879729 0.183162 3.490709
v -0.552633 0.538438 2.949769
v -0.254386 0.536420 3.283151
v -0.447796 0.215333 3.287168
vn -0.9401 0.1795 -0.2897
vn -0.8866 -0.4055 0.2226
vn 0.6318 0.5338 -0.5620
vn 0.2620 0.6325 -0.7289
vn 0.4575 -0.6348 0.6227
vn -0.5925 0.8055 0.0149
vn -0.2761 0.5994 0.7513
vn -0.7431 -0.3739 0.5550
vn 0.8279 0.5547 0.0828
vn 0.7438 -0.4417 0.5017
vn -0.1293 -0.7912 -0.5978
vn 0.6767 -0.4153 -0.6079
vn -0.3915 -0.1574 -0.9066
vt 0.550384 0.206938
vt 0.375000 0.305791
vt 0.375000 0.049496
vt 0.180791 0.500000
vt 0.330928 0.574320
vt 0.125000 0.700504
vt 0.804283 0.500000
vt 0.842867 0.681766
vt 0.658516 0.626313
vt 0.875000 0.500000
vt 0.501754 0.540833
vt 0.565165 0.799791
vt 0.325310 0.750000
vt 0.604031 0.069198
vt 0.375000 1.000000
vt 0.375000 0.799690
vt 0.578028 1.000000
vt 0.615335 0.592735
vt 0.589707 0.775249
vt 0.581909 0.353207
s 0
g Cube_Material
usemtl Material
f 440/751/468 442/752/468 441/753/468
f 442/754/469 445/755/469 441/756/469
f 446/757/470 443/758/470 447/759/470
f 443/758/471 446/757/471 440/760/471
f 448/761/472 439/762/472 444/763/472 445/755/472
f 441/753/473 443/764/473 440/751/473
f 441/765/474 444/766/474 439/762/474 443/767/474
f 445/755/475 444/763/475 441/756/475
f 447/768/476 443/758/476 439/769/476
f 439/762/477 448/761/477 447/768/477
f 448/761/478 445/755/478 442/752/478 446/770/478
f 448/761/479 446/770/479 447/768/479
f 442/752/480 440/751/480 446/770/480
o Cube
v 2.828048 -0.308057 0.591421
v 3.346504 0.392837 0.694053
v 2.814906 0.417630 0.554935
v 3.176435 0.488343 0.240713
v 3.136971 -0.032210 0.921841
v 2.664489 0.044727 0.296810
v 2.928597 0.230276 0.020189
v 3.576086 0.064747 0.385149
v 3.337903 -0.339906 0.371889
v 3.270390 -0.137549 0.041061
vn -0.0092 0.9778 0.2094
vn -0.4839 0.7887 -0.3792
vn 0.7303 -0.4468 0.5168
vn 0.7772 -0.0469 0.6275
vn -0.4571 -0.6057 -0.6513
vn -0.1905 0.5350 0.8231
vn -0.7967 0.0159 0.6042
vn -0.7567 0.5499 -0.3536
vn 0.1758 -0.8303 0.5288
vn -0.2538 -0.8473 -0.4665
vn 0.5261 0.3291 -0.7841
vn 0.7830 -0.4467 -0.4330
vn 0.7437 0.6534 -0.1413
vt 0.550384 0.206938
vt 0.375000 0.305791
vt 0.375000 0.049496
vt 0.180791 0.500000
vt 0.330928 0.574320
vt 0.125000 0.700504
vt 0.804283 0.500000
vt 0.842867 0.681766
vt 0.658516 0.626313
vt 0.875000 0.500000
vt 0.501754 0.540833
vt 0.565165 0.799791
vt 0.325310 0.750000
vt 0.604031 0.069198
vt 0.375000 1.000000
vt 0.375000 0.799690
vt 0.578028 1.000000
vt 0.615335 0.592735
vt 0.589707 0.775249
vt 0.581909 0.353207
s 0
g Cube_Material
usemtl Material
f 450/771/481 452/772/481 451/773/481
f 452/774/482 455/775/482 451/776/482
f 456/777/483 453/778/483 457/779/483
f 453/778/484 456/777/484 450/780/484
f 458/781/485 449/782/485 454/783/485 455/775/485
f 451/773/486 453/784/486 450/771/486
f 451/785/487 454/786/487 449/782/487 453/787/487
f 455/775/488 454/783/488 451/776/488
f 457/788/489 453/778/489 449/789/489
f 449/782/490 458/781/490 457/788/490
f 458/781/491 455/775/491 452/772/491 456/790/491
f 458/781/492 456/790/492 457/788/492
f 452/772/493 450/771/493 456/790/493
o Cube
v 0.296976 0.906165 -2.641038
v 0.069017 0.546375 -3.348475
v -0.139604 0.981483 -3.161671
v -0.347127 0.576384 -3.144883
v 0.438497 0.755103 -3.094406
v -0.145943 1.002549 -2.712733
v -0.407297 0.706694 -2.776486
v 0.066371 0.219397 -3.002918
v 0.242400 0.386032 -2.633461
v -0.125926 0.371158 -2.598364
vn -0.4219 0.1793 -0.8887
vn -0.8564 0.4267 -0.2908
vn 0.8053 -0.5802 -0.1220
vn 0.6616 -0.5472 -0.5127
vn -0.2314 0.1663 0.9585
vn 0.2880 0.4910 -0.8222
vn 0.3147 0.9405 -0.1278
vn -0.7443 0.6665 -0.0418
vn 0.9410 -0.0940 0.3251
vn 0.0947 0.0046 0.9955
vn -0.7112 -0.7025 0.0241
vn 0.0735 -0.9218 0.3807
vn -0.3628 -0.6755 -0.6420
vt 0.550384 0.206938
vt 0.375000 0.305791
vt 0.375000 0.049496
vt 0.180791 0.500000
vt 0.330928 0.574320
vt 0.125000 0.700504
vt 0.804283 0.500000
vt 0.842867 0.681766
vt 0.658516 0.626313
vt 0.875000 0.500000
vt 0.501754 0.540833
vt 0.565165 0.799791
vt 0.325310 0.750000
vt 0.604031 0.069198
vt 0.375000 1.000000
vt 0.375000 0.799690
vt 0.578028 1.000000
vt 0.615335 0.592735
vt 0.589707 0.775249
vt 0.581909 0.353207
s 0
g Cube_Material
usemtl Material
f 460/791/494 462/792/494 461/793/494
f 462/794/495 465/795/495 461/796/495
f 466/797/496 463/798/496 467/799/496
f 463/798/497 466/797/497 460/800/497
f 468/801/498 459/802/498 464/803/498 465/795/498
f 461/793/499 463/804/499 460/791/499
f 461/805/500 464/806/500 459/802/500 463/807/500
f 465/795/501 464/803/501 461/796/501
f 467/808/502 463/798/502 459/809/502
f 459/802/503 468/801/503 467/808/503
f 468/801/504 465/795/504 462/792/504 466/810/504
f 468/801/505 466/810/505 467/808/505
f 462/792/506 460/791/506 466/810/506
o Cube
v 2.085947 0.679604 -1.845471
v 2.215405 -0.279035 -1.550007
v 2.386515 -0.053269 -2.116968
v 1.936338 -0.372824 -2.036511
v 2.345065 0.302667 -1.441188
v 2.064133 0.352741 -2.302269
v 1.752583 -0.024840 -2.318770
v 1.661722 -0.126065 -1.451991
v 1.595968 0.404240 -1.537988
v 1.421506 0.172324 -1.886554
vn 0.5524 -0.8183 -0.1591
vn 0.2345 -0.5347 -0.8119
vn -0.1073 0.1462 0.9834
vn 0.1147 -0.2073 0.9715
vn -0.5386 0.6304 -0.5590
vn 0.9505 -0.2471 0.1885
vn 0.8582 0.4461 -0.2540
vn 0.2893 -0.1978 -0.9366
vn 0.0121 0.7352 0.6777
vn -0.5819 0.7806 -0.2281
vn -0.7392 -0.6557 -0.1541
vn -0.8844 -0.0342 0.4654
vn -0.2050 -0.9325 0.2974
vt 0.550384 0.206938
vt 0.375000 0.305791
vt 0.375000 0.049496
vt 0.180791 0.500000
vt 0.330928 0.574320
vt 0.125000 0.700504
vt 0.804283 0.500000
vt 0.842867 0.681766
vt 0.658516 0.626313
vt 0.875000 0.500000
vt 0.501754 0.540833
vt 0.565165 0.799791
vt 0.325310 0.750000
vt 0.604031 0.069198
vt 0.375000 1.000000
vt 0.375000 0.799690
vt 0.578028 1.000000
vt 0.615335 0.592735
vt 0.589707 0.775249
vt 0.581909 0.353207
s 0
g Cube_Material
usemtl Material
f 470/811/507 472/812/507 471/813/507
f 472/814/508 475/815/508 471/816/508
f 476/817/509 473/818/509 477/819/509
f 473/818/510 476/817/510 470/820/510
f 478/821/511 469/822/511 474/823/511 475/815/511
f 471/813/512 473/824/512 470/811/512
f 471/825/513 474/826/513 469/822/513 473/827/513
f 475/815/514 474/823/514 471/816/514
f 477/828/515 473/818/515 469/829/515
f 469/822/516 478/821/516 477/828/516
f 478/821/517 475/815/517 472/812/517 476/830/517
f 478/821/518 476/830/518 477/828/518
f 472/812/519 470/811/519 476/830/519
o Cube
v -2.484314 -0.086396 -0.990464
v -2.610834 0.610177 -0.408894
v -2.162010 0.252521 -0.393323
v -2.547186 0.230259 -0.066930
v -2.544262 0.460270 -0.932590
v -2.266613 -0.210206 -0.547125
v -2.502424 -0.193371 -0.171680
v -3.052210 0.321166 -0.425923
v -3.020818 -0.015609 -0.780841
v -2.966591 -0.196452 -0.415935
vn 0.4807 0.6298 0.6102
vn 0.6459 -0.1182 0.7542
vn -0.6751 0.5044 -0.5383
vn -0.5153 0.8044 -0.2958
vn -0.0439 -0.9905 -0.1304
vn 0.6199 0.7717 -0.1421
vn 0.8615 0.0674 -0.5033
vn 0.7870 -0.3474 0.5099
vn -0.3564 0.0596 -0.9324
vn -0.2702 -0.8781 -0.3950
vn -0.5321 -0.1575 0.8319
vn -0.9846 -0.1616 0.0662
vn -0.4033 0.5739 0.7127
vt 0.550384 0.206938
vt 0.375000 0.305791
vt 0.375000 0.049496
vt 0.180791 0.500000
vt 0.330928 0.574320
vt 0.125000 0.700504
vt 0.804283 0.500000
vt 0.842867 0.681766
vt 0.658516 0.626313
vt 0.875000 0.500000
vt 0.501754 0.540833
vt 0.565165 0.799791
vt 0.325310 0.750000
vt 0.604031 0.069198
vt 0.375000 1.000000
vt 0.375000 0.799690
vt 0.578028 1.000000
vt 0.615335 0.592735
vt 0.589707 0.775249
vt 0.581909 0.353207
s 0
g Cube_Material
usemtl Material
f 480/831/520 482/832/520 481/833/520
f 482/834/521 485/835/521 481/836/521
f 486/837/522 483/838/522 487/839/522
f 483/838/523 486/837/523 480/840/523
f 488/841/524 479/842/524 484/843/524 485/835/524
f 481/833/525 483/844/525 480/831/525
f 481/845/526 484/846/526 479/842/526 483/847/526
f 485/835/527 484/843/527 481/836/527
f 487/848/528 483/838/528 479/849/528
f 479/842/529 488/841/529 487/848/529
f 488/841/530 485/835/530 482/832/530 486/850/530
f 488/841/531 486/850/531 487/848/531
f 482/832/532 480/831/532 486/850/532
o Cube
v 1.122461 -0.168383 -1.260070
v 0.717833 0.465346 -2.084955
v 0.794843 -0.228806 -2.121937
v 1.171528 0.169608 -2.401905
v 0.641438 0.262112 -1.452661
v 1.262699 -0.442458 -1.798574
v 1.524478 -0.166318 -2.182436
v 1.272898 0.719245 -1.882629
v 1.461466 0.438129 -1.390558
v 1.732875 0.286681 -1.782868
vn -0.5818 -0.0212 -0.8130
vn -0.0205 -0.5618 -0.8270
vn -0.2152 0.8102 0.5453
vn -0.4706 0.8550 0.2180
vn 0.7865 -0.5145 0.3416
vn -0.9833 -0.1010 -0.1513
vn -0.6410 -0.7093 0.2934
vn 0.0226 -0.8188 -0.5736
vn -0.1318 0.2784 0.9514
vn 0.7361 -0.2787 0.6168
vn 0.6386 0.4033 -0.6554
vn 0.6554 0.7360 0.1693
vn -0.0533 0.6909 -0.7209
vt 0.550384 0.206938
vt 0.375000 0.305791
vt 0.375000 0.049496
vt 0.180791 0.500000
vt 0.330928 0.574320
vt 0.125000 0.700504
vt 0.804283 0.500000
vt 0.842867 0.681766
vt 0.658516 0.626313
vt 0.875000 0.500000
vt 0.501754 0.540833
vt 0.565165 0.799791
vt 0.325310 0.750000
vt 0.604031 0.069198
vt 0.375000 1.000000
vt 0.375000 0.799690
vt 0.578028 1.000000
vt 0.615335 0.592735
vt 0.589707 0.775249
vt 0.581909 0.353207
s 0
g Cube_Material
usemtl Material
f 490/851/533 492/852/533 491/853/533
f 492/854/534 495/855/534 491/856/534
f 496/857/535 493/858/535 497/859/535
f 493/858/536 496/857/536 490/860/536
f 498/861/537 489/862/537 494/863/537 495/855/537
f 491/853/538 493/864/538 490/851/538
f 491/865/539 494/866/539 489/862/539 493/867/539
f 495/855/540 494/863/540 491/856/540
f 497/868/541 493/858/541 489/869/541
f 489/862/542 498/861/542 497/868/542
f 498/861/543 495/855/543 492/852/543 496/870/543
f 498/861/544 496/870/544 497/868/544
f 492/852/545 490/851/545 496/870/545
o Cube
v -1.904405 0.333047 -0.600702
v -2.216026 -0.258019 -0.445051
v -2.421042 0.099407 -0.567650
v -2.411386 -0.023020 -0.209711
v -1.945920 -0.069059 -0.690416
v -2.250648 0.415025 -0.463681
v -2.344939 0.295986 -0.168188
v -1.967951 -0.164229 -0.151972
v -1.761413 0.123796 -0.247697
v -1.979063 0.215191 -0.050402
vn -0.8317 -0.5318 -0.1594
vn -0.9772 0.1916 0.0919
vn 0.7989 -0.5971 -0.0728
vn 0.4841 -0.8648 -0.1330
vn 0.2201 0.9270 0.3036
vn -0.3762 -0.4863 -0.7887
vn -0.1996 0.3098 -0.9296
vn -0.8664 0.4933 -0.0777
vn 0.9246 -0.0105 -0.3808
vn 0.5560 0.7941 0.2455
vn -0.2542 -0.1747 0.9512
vn 0.6155 -0.1869 0.7656
vn -0.3197 -0.7899 0.5234
vt 0.550384 0.206938
vt 0.375000 0.305791
vt 0.375000 0.049496
vt 0.180791 0.500000
vt 0.330928 0.574320
vt 0.125000 0.700504
vt 0.804283 0.500000
vt 0.842867 0.681766
vt 0.658516 0.626313
vt 0.875000 0.500000
vt 0.501754 0.540833
vt 0.565165 0.799791
vt 0.325310 0.750000
vt 0.604031 0.069198
vt 0.375000 1.000000
vt 0.375000 0.799690
vt 0.578028 1.000000
vt 0.615335 0.592735
vt 0.589707 0.775249
vt 0.581909 0.353207
s 0
g Cube_Material
usemtl Material
f 500/871/546 502/872/546 501/873/546
f 502/874/547 505/875/547 501/876/547
f 506/877/548 503/878/548 507/879/548
f 503/878/549 506/877/549 500/880/549
f 508/881/550 499/882/550 504/883/550 505/875/550
f 501/873/551 503/884/551 500/871/551
f 501/885/552 504/886/552 499/882/552 503/887/552
f 505/875/553 504/883/553 501/876/553
f 507/888/554 503/878/554 499/889/554
f 499/882/555 508/881/555 507/888/555
f 508/881/556 505/875/556 502/872/556 506/890/556
f 508/881/557 506/890/557 507/888/557
f 502/872/558 500/871/558 506/890/558
o Cube
v -0.217219 -0.264196 -0.927457
v -0.717381 0.184844 -1.690770
v -0.711216 0.397963 -1.090178
v -1.149080 0.132599 -1.319462
v -0.175840 0.004594 -1.477784
v -0.668636 -0.002415 -0.710216
v -1.117605 -0.095188 -0.890203
v -0.857970 -0.383943 -1.682410
v -0.544033 -0.650256 -1.326423
v -0.959918 -0.592759 -1.148252
vn -0.3704 0.8766 -0.3073
vn -0.6194 0.6738 0.4030
vn 0.4801 -0.4447 -0.7561
vn 0.3362 -0.0969 -0.9368
vn -0.0733 -0.5707 0.8179
vn 0.4076 0.8593 -0.3091
vn 0.6676 0.6048 0.4342
vn -0.4005 0.6080 0.6855
vn 0.8369 -0.5140 -0.1881
vn 0.1577 -0.7711 0.6169
vn -0.9354 -0.2912 -0.2004
vn -0.2901 -0.8712 -0.3960
vn -0.6550 0.1510 -0.7403
vt 0.550384 0.206938
vt 0.375000 0.305791
vt 0.375000 0.049496
vt 0.180791 0.500000
vt 0.330928 0.574320
vt 0.125000 0.700504
vt 0.804283 0.500000
vt 0.842867 0.681766
vt 0.658516 0.626313
vt 0.875000 0.500000
vt 0.501754 0.540833
vt 0.565165 0.799791
vt 0.325310 0.750000
vt 0.604031 0.069198
vt 0.375000 1.000000
vt 0.375000 0.799690
vt 0.578028 1.000000
vt 0.615335 0.592735
vt 0.589707 0.775249
vt 0.581909 0.353207
s 0
g Cube_Material
usemtl Material
f 510/891/559 512/892/559 511/893/559
f 512/894/560 515/895/560 511/896/560
f 516/897/561 513/898/561 517/899/561
f 513/898/562 516/897/562 510/900/562
f 518/901/563 509/902/563 514/903/563 515/895/563
f 511/893/564 513/904/564 510/891/564
f 511/905/565 514/906/565 509/902/565 513/907/565
f 515/895/566 514/903/566 511/896/566
f 517/908/567 513/898/567 509/909/567
f 509/902/568 518/901/568 517/908/568
f 518/901/569 515/895/569 512/892/569 516/910/569
f 518/901/570 516/910/570 517/908/570
f 512/892/571 510/891/571 516/910/571
o Cube
v -1.007987 0.898272 -0.708016
v -1.870947 0.691560 -0.740257
v -1.496387 0.427575 -0.424655
v -1.679082 0.241435 -0.839208
v -1.510650 1.066849 -0.629727
v -1.052589 0.415550 -0.615726
v -1.264579 0.162524 -0.891286
v -1.689711 0.715497 -1.218054
v -1.246361 0.886414 -1.217304
v -1.236267 0.492811 -1.276674
vn -0.7395 -0.4292 0.5186
vn -0.1126 -0.8870 0.4479
vn -0.3277 0.8517 -0.4089
vn -0.6708 0.7085 -0.2190
vn 0.9246 -0.2511 -0.2863
vn -0.5137 0.2517 0.8202
vn 0.3074 0.2360 0.9219
vn 0.2205 -0.7970 0.5622
vn 0.2917 0.9433 -0.1585
vn 0.9015 0.0871 -0.4240
vn -0.3142 -0.6503 -0.6917
vn -0.0552 0.1475 -0.9875
vn -0.8866 -0.3007 -0.3514
vt 0.550384 0.206938
vt 0.375000 0.305791
vt 0.375000 0.049496
vt 0.180791 0.500000
vt 0.330928 0.574320
vt 0.125000 0.700504
vt 0.804283 0.500000
vt 0.842867 0.681766
vt 0.658516 0.626313
vt 0.875000 0.500000
vt 0.501754 0.540833
vt 0.565165 0.799791
vt 0.325310 0.750000
vt 0.604031 0.069198
vt 0.375000 1.000000
vt 0.375000 0.799690
vt 0.578028 1.000000
vt 0.615335 0.592735
vt 0.589707 0.775249
vt 0.581909 0.353207
s 0
g Cube_Material
usemtl Material
f 520/911/572 522/912/572 521/913/572
f 522/914/573 525/915/573 521/916/573
f 526/917/574 523/918/574 527/919/574
f 523/918/575 526/917/575 520/920/575
f 528/921/576 519/922/576 524/923/576 525/915/576
f 521/913/577 523/924/577 520/911/577
f 521/925/578 524/926/578 519/922/578 523/927/578
f 525/915/579 524/923/579 521/916/579
f 527/928/580 523/918/580 519/929/580
f 519/922/581 528/921/581 527/928/581
f 528/921/582 525/915/582 522/912/582 526/930/582
f 528/921/583 526/930/583 527/928/583
f 522/912/584 520/911/584 526/930/584
